<?xml version="1.0" standalone="no"?><!DOCTYPE svg PUBLIC "-//W3C//DTD SVG 1.1//EN" "http://www.w3.org/Graphics/SVG/1.1/DTD/svg11.dtd">
<svg width="232.1" height="567.6" version="1.1" xmlns="http://www.w3.org/2000/svg">
<text xml:space="preserve" x="60.1" y="342.6" font-family="Calibri" font-size="8" text-anchor="end">CA8</text>
<text xml:space="preserve" x="60.1" y="350.6" font-family="Calibri" font-size="8" text-anchor="end">KLF5</text>
<text xml:space="preserve" x="60.1" y="358.6" font-family="Calibri" font-size="8" text-anchor="end">ST18</text>
<text xml:space="preserve" x="60.1" y="366.6" font-family="Calibri" font-size="8" text-anchor="end">SPX</text>
<text xml:space="preserve" x="71.1" y="331.6" font-family="Calibri" font-size="8" transform="rotate(270 71.1 331.6)">c1</text>
<text xml:space="preserve" x="79.1" y="331.6" font-family="Calibri" font-size="8" transform="rotate(270 79.1 331.6)">c3</text>
<text xml:space="preserve" x="87.1" y="331.6" font-family="Calibri" font-size="8" transform="rotate(270 87.1 331.6)">c4</text>
<text xml:space="preserve" x="95.1" y="331.6" font-family="Calibri" font-size="8" transform="rotate(270 95.1 331.6)">c2</text>
<text xml:space="preserve" x="113.1" y="331.6" font-family="Calibri" font-size="8" transform="rotate(270 113.1 331.6)">c1_mean</text>
<text xml:space="preserve" x="121.1" y="331.6" font-family="Calibri" font-size="8" transform="rotate(270 121.1 331.6)">c3_mean</text>
<text xml:space="preserve" x="129.1" y="331.6" font-family="Calibri" font-size="8" transform="rotate(270 129.1 331.6)">c4_mean</text>
<text xml:space="preserve" x="137.1" y="331.6" font-family="Calibri" font-size="8" transform="rotate(270 137.1 331.6)">c2_mean</text>
<text xml:space="preserve" x="155.1" y="331.6" font-family="Calibri" font-size="8" transform="rotate(270 155.1 331.6)">transcription_factor</text>
<text xml:space="preserve" x="163.1" y="331.6" font-family="Calibri" font-size="8" transform="rotate(270 163.1 331.6)">transmembrane_signal_receptor</text>
<text xml:space="preserve" x="171.1" y="331.6" font-family="Calibri" font-size="8" transform="rotate(270 171.1 331.6)">growth_factor</text>
<text xml:space="preserve" x="179.1" y="331.6" font-family="Calibri" font-size="8" transform="rotate(270 179.1 331.6)">peptide_hormone</text>
<text xml:space="preserve" x="187.1" y="331.6" font-family="Calibri" font-size="8" transform="rotate(270 187.1 331.6)">cytoskeletal_protein</text>
<text xml:space="preserve" x="195.1" y="331.6" font-family="Calibri" font-size="8" transform="rotate(270 195.1 331.6)">ion_channel</text>
<text xml:space="preserve" x="203.1" y="331.6" font-family="Calibri" font-size="8" transform="rotate(270 203.1 331.6)">integrin</text>
<text xml:space="preserve" x="211.1" y="331.6" font-family="Calibri" font-size="8" transform="rotate(270 211.1 331.6)">extracellular_matrix_protein</text>
<polygon points="64.1,335.6 72.1,335.6 72.1,343.6 64.1,343.6" fill="rgb(230,127,0)"/><text xml:space="preserve" x="68.1" y="342.433" font-family="Calibri" font-size="7.5" fill="rgb(0,0,0)" text-anchor="middle">4</text>
<polygon points="72.1,335.6 80.1,335.6 80.1,343.6 72.1,343.6" fill="rgb(230,127,0)"/><text xml:space="preserve" x="76.1" y="342.433" font-family="Calibri" font-size="7.5" fill="rgb(0,0,0)" text-anchor="middle">4</text>
<polygon points="80.1,335.6 88.1,335.6 88.1,343.6 80.1,343.6" fill="rgb(205,0,0)"/><text xml:space="preserve" x="84.1" y="342.433" font-family="Calibri" font-size="7.5" fill="rgb(255,255,255)" text-anchor="middle">5</text>
<polygon points="88.1,335.6 96.1,335.6 96.1,343.6 88.1,343.6" fill="rgb(230,127,0)"/><text xml:space="preserve" x="92.1" y="342.433" font-family="Calibri" font-size="7.5" fill="rgb(0,0,0)" text-anchor="middle">4</text>
<polygon points="106.1,335.6 114.1,335.6 114.1,343.6 106.1,343.6" fill="rgb(40,187,144)"/>
<polygon points="114.1,335.6 122.1,335.6 122.1,343.6 114.1,343.6" fill="rgb(37,175,143)"/>
<polygon points="122.1,335.6 130.1,335.6 130.1,343.6 122.1,343.6" fill="rgb(146,207,76)"/>
<polygon points="130.1,335.6 138.1,335.6 138.1,343.6 130.1,343.6" fill="rgb(22,114,139)"/>
<polygon points="148.1,335.6 156.1,335.6 156.1,343.6 148.1,343.6" fill="rgb(255,255,255)"/>
<polygon points="156.1,335.6 164.1,335.6 164.1,343.6 156.1,343.6" fill="rgb(255,255,255)"/>
<polygon points="164.1,335.6 172.1,335.6 172.1,343.6 164.1,343.6" fill="rgb(255,255,255)"/>
<polygon points="172.1,335.6 180.1,335.6 180.1,343.6 172.1,343.6" fill="rgb(255,255,255)"/>
<polygon points="180.1,335.6 188.1,335.6 188.1,343.6 180.1,343.6" fill="rgb(255,255,255)"/>
<polygon points="188.1,335.6 196.1,335.6 196.1,343.6 188.1,343.6" fill="rgb(255,255,255)"/>
<polygon points="196.1,335.6 204.1,335.6 204.1,343.6 196.1,343.6" fill="rgb(255,255,255)"/>
<polygon points="204.1,335.6 212.1,335.6 212.1,343.6 204.1,343.6" fill="rgb(255,255,255)"/>
<polygon points="64.1,343.6 72.1,343.6 72.1,351.6 64.1,351.6" fill="rgb(230,127,0)"/><text xml:space="preserve" x="68.1" y="350.433" font-family="Calibri" font-size="7.5" fill="rgb(0,0,0)" text-anchor="middle">4</text>
<polygon points="72.1,343.6 80.1,343.6 80.1,351.6 72.1,351.6" fill="rgb(230,127,0)"/><text xml:space="preserve" x="76.1" y="350.433" font-family="Calibri" font-size="7.5" fill="rgb(0,0,0)" text-anchor="middle">4</text>
<polygon points="80.1,343.6 88.1,343.6 88.1,351.6 80.1,351.6" fill="rgb(205,0,0)"/><text xml:space="preserve" x="84.1" y="350.433" font-family="Calibri" font-size="7.5" fill="rgb(255,255,255)" text-anchor="middle">5</text>
<polygon points="88.1,343.6 96.1,343.6 96.1,351.6 88.1,351.6" fill="rgb(230,127,0)"/><text xml:space="preserve" x="92.1" y="350.433" font-family="Calibri" font-size="7.5" fill="rgb(0,0,0)" text-anchor="middle">4</text>
<polygon points="106.1,343.6 114.1,343.6 114.1,351.6 106.1,351.6" fill="rgb(21,110,139)"/>
<polygon points="114.1,343.6 122.1,343.6 122.1,351.6 114.1,351.6" fill="rgb(43,195,144)"/>
<polygon points="122.1,343.6 130.1,343.6 130.1,351.6 122.1,351.6" fill="rgb(127,209,89)"/>
<polygon points="130.1,343.6 138.1,343.6 138.1,351.6 130.1,351.6" fill="rgb(49,219,146)"/>
<polygon points="148.1,343.6 156.1,343.6 156.1,351.6 148.1,351.6" fill="rgb(205,0,205)"/>
<polygon points="156.1,343.6 164.1,343.6 164.1,351.6 156.1,351.6" fill="rgb(255,255,255)"/>
<polygon points="164.1,343.6 172.1,343.6 172.1,351.6 164.1,351.6" fill="rgb(255,255,255)"/>
<polygon points="172.1,343.6 180.1,343.6 180.1,351.6 172.1,351.6" fill="rgb(255,255,255)"/>
<polygon points="180.1,343.6 188.1,343.6 188.1,351.6 180.1,351.6" fill="rgb(255,255,255)"/>
<polygon points="188.1,343.6 196.1,343.6 196.1,351.6 188.1,351.6" fill="rgb(255,255,255)"/>
<polygon points="196.1,343.6 204.1,343.6 204.1,351.6 196.1,351.6" fill="rgb(255,255,255)"/>
<polygon points="204.1,343.6 212.1,343.6 212.1,351.6 204.1,351.6" fill="rgb(255,255,255)"/>
<polygon points="64.1,351.6 72.1,351.6 72.1,359.6 64.1,359.6" fill="rgb(230,127,0)"/><text xml:space="preserve" x="68.1" y="358.433" font-family="Calibri" font-size="7.5" fill="rgb(0,0,0)" text-anchor="middle">4</text>
<polygon points="72.1,351.6 80.1,351.6 80.1,359.6 72.1,359.6" fill="rgb(230,127,0)"/><text xml:space="preserve" x="76.1" y="358.433" font-family="Calibri" font-size="7.5" fill="rgb(0,0,0)" text-anchor="middle">4</text>
<polygon points="80.1,351.6 88.1,351.6 88.1,359.6 80.1,359.6" fill="rgb(205,0,0)"/><text xml:space="preserve" x="84.1" y="358.433" font-family="Calibri" font-size="7.5" fill="rgb(255,255,255)" text-anchor="middle">5</text>
<polygon points="88.1,351.6 96.1,351.6 96.1,359.6 88.1,359.6" fill="rgb(230,127,0)"/><text xml:space="preserve" x="92.1" y="358.433" font-family="Calibri" font-size="7.5" fill="rgb(0,0,0)" text-anchor="middle">4</text>
<polygon points="106.1,351.6 114.1,351.6 114.1,359.6 106.1,359.6" fill="rgb(38,176,143)"/>
<polygon points="114.1,351.6 122.1,351.6 122.1,359.6 114.1,359.6" fill="rgb(126,209,90)"/>
<polygon points="122.1,351.6 130.1,351.6 130.1,359.6 122.1,359.6" fill="rgb(128,209,88)"/>
<polygon points="130.1,351.6 138.1,351.6 138.1,359.6 130.1,359.6" fill="rgb(22,116,140)"/>
<polygon points="148.1,351.6 156.1,351.6 156.1,359.6 148.1,359.6" fill="rgb(205,0,205)"/>
<polygon points="156.1,351.6 164.1,351.6 164.1,359.6 156.1,359.6" fill="rgb(255,255,255)"/>
<polygon points="164.1,351.6 172.1,351.6 172.1,359.6 164.1,359.6" fill="rgb(255,255,255)"/>
<polygon points="172.1,351.6 180.1,351.6 180.1,359.6 172.1,359.6" fill="rgb(255,255,255)"/>
<polygon points="180.1,351.6 188.1,351.6 188.1,359.6 180.1,359.6" fill="rgb(255,255,255)"/>
<polygon points="188.1,351.6 196.1,351.6 196.1,359.6 188.1,359.6" fill="rgb(255,255,255)"/>
<polygon points="196.1,351.6 204.1,351.6 204.1,359.6 196.1,359.6" fill="rgb(255,255,255)"/>
<polygon points="204.1,351.6 212.1,351.6 212.1,359.6 204.1,359.6" fill="rgb(255,255,255)"/>
<polygon points="64.1,359.6 72.1,359.6 72.1,367.6 64.1,367.6" fill="rgb(230,127,0)"/><text xml:space="preserve" x="68.1" y="366.433" font-family="Calibri" font-size="7.5" fill="rgb(0,0,0)" text-anchor="middle">4</text>
<polygon points="72.1,359.6 80.1,359.6 80.1,367.6 72.1,367.6" fill="rgb(230,127,0)"/><text xml:space="preserve" x="76.1" y="366.433" font-family="Calibri" font-size="7.5" fill="rgb(0,0,0)" text-anchor="middle">4</text>
<polygon points="80.1,359.6 88.1,359.6 88.1,367.6 80.1,367.6" fill="rgb(205,0,0)"/><text xml:space="preserve" x="84.1" y="366.433" font-family="Calibri" font-size="7.5" fill="rgb(255,255,255)" text-anchor="middle">5</text>
<polygon points="88.1,359.6 96.1,359.6 96.1,367.6 88.1,367.6" fill="rgb(230,127,0)"/><text xml:space="preserve" x="92.1" y="366.433" font-family="Calibri" font-size="7.5" fill="rgb(0,0,0)" text-anchor="middle">4</text>
<polygon points="106.1,359.6 114.1,359.6 114.1,367.6 106.1,367.6" fill="rgb(33,158,142)"/>
<polygon points="114.1,359.6 122.1,359.6 122.1,367.6 114.1,367.6" fill="rgb(43,198,144)"/>
<polygon points="122.1,359.6 130.1,359.6 130.1,367.6 122.1,367.6" fill="rgb(123,209,92)"/>
<polygon points="130.1,359.6 138.1,359.6 138.1,367.6 130.1,367.6" fill="rgb(53,218,143)"/>
<polygon points="148.1,359.6 156.1,359.6 156.1,367.6 148.1,367.6" fill="rgb(255,255,255)"/>
<polygon points="156.1,359.6 164.1,359.6 164.1,367.6 156.1,367.6" fill="rgb(255,255,255)"/>
<polygon points="164.1,359.6 172.1,359.6 172.1,367.6 164.1,367.6" fill="rgb(255,255,255)"/>
<polygon points="172.1,359.6 180.1,359.6 180.1,367.6 172.1,367.6" fill="rgb(205,0,205)"/>
<polygon points="180.1,359.6 188.1,359.6 188.1,367.6 180.1,367.6" fill="rgb(255,255,255)"/>
<polygon points="188.1,359.6 196.1,359.6 196.1,367.6 188.1,367.6" fill="rgb(255,255,255)"/>
<polygon points="196.1,359.6 204.1,359.6 204.1,367.6 196.1,367.6" fill="rgb(255,255,255)"/>
<polygon points="204.1,359.6 212.1,359.6 212.1,367.6 204.1,367.6" fill="rgb(255,255,255)"/>
<polygon points="64.1,335.6 96.1,335.6 96.1,367.6 64.1,367.6" fill="none" stroke="black" stroke-width="1"/>
<polygon points="106.1,335.6 138.1,335.6 138.1,367.6 106.1,367.6" fill="none" stroke="black" stroke-width="1"/>
<polygon points="148.1,335.6 212.1,335.6 212.1,367.6 148.1,367.6" fill="none" stroke="black" stroke-width="1"/>
<text xml:space="preserve" x="116.05" y="400.6" font-family="Calibri" font-size="8" text-anchor="middle">ClusterAssignment</text>
<polygon points="66.05,407.6 86.05,407.6 86.05,427.6 66.05,427.6" fill="rgb(0,205,0)"/><polygon points="66.05,407.6 86.05,407.6 86.05,427.6 66.05,427.6" fill="none" stroke="black" stroke-width="1"/><text xml:space="preserve" x="76.05" y="420.433" font-family="Calibri" font-size="7.5" fill="rgb(255,255,255)" text-anchor="middle">1.0</text>
<polygon points="86.05,407.6 106.05,407.6 106.05,427.6 86.05,427.6" fill="rgb(127,230,0)"/><polygon points="86.05,407.6 106.05,407.6 106.05,427.6 86.05,427.6" fill="none" stroke="black" stroke-width="1"/><text xml:space="preserve" x="96.05" y="420.433" font-family="Calibri" font-size="7.5" fill="rgb(0,0,0)" text-anchor="middle">2.0</text>
<polygon points="106.05,407.6 126.05,407.6 126.05,427.6 106.05,427.6" fill="rgb(255,255,0)"/><polygon points="106.05,407.6 126.05,407.6 126.05,427.6 106.05,427.6" fill="none" stroke="black" stroke-width="1"/><text xml:space="preserve" x="116.05" y="420.433" font-family="Calibri" font-size="7.5" fill="rgb(0,0,0)" text-anchor="middle">3.0</text>
<polygon points="126.05,407.6 146.05,407.6 146.05,427.6 126.05,427.6" fill="rgb(230,127,0)"/><polygon points="126.05,407.6 146.05,407.6 146.05,427.6 126.05,427.6" fill="none" stroke="black" stroke-width="1"/><text xml:space="preserve" x="136.05" y="420.433" font-family="Calibri" font-size="7.5" fill="rgb(0,0,0)" text-anchor="middle">4.0</text>
<polygon points="146.05,407.6 166.05,407.6 166.05,427.6 146.05,427.6" fill="rgb(205,0,0)"/><polygon points="146.05,407.6 166.05,407.6 166.05,427.6 146.05,427.6" fill="none" stroke="black" stroke-width="1"/><text xml:space="preserve" x="156.05" y="420.433" font-family="Calibri" font-size="7.5" fill="rgb(255,255,255)" text-anchor="middle">5.0</text>
<text xml:space="preserve" x="116.05" y="460.6" font-family="Calibri" font-size="8" text-anchor="middle">Expression</text>
<polygon points="66.05,467.6 86.05,467.6 86.05,487.6 66.05,487.6" fill="rgb(0,27,135)"/><polygon points="66.05,467.6 86.05,467.6 86.05,487.6 66.05,487.6" fill="none" stroke="black" stroke-width="1"/><text xml:space="preserve" x="76.05" y="480.433" font-family="Calibri" font-size="7.5" fill="rgb(255,255,255)" text-anchor="middle">0.0</text>
<polygon points="86.05,467.6 106.05,467.6 106.05,487.6 86.05,487.6" fill="rgb(24,123,140)"/><polygon points="86.05,467.6 106.05,467.6 106.05,487.6 86.05,487.6" fill="none" stroke="black" stroke-width="1"/><text xml:space="preserve" x="96.05" y="480.433" font-family="Calibri" font-size="7.5" fill="rgb(255,255,255)" text-anchor="middle">0.8</text>
<polygon points="106.05,467.6 126.05,467.6 126.05,487.6 106.05,487.6" fill="rgb(49,219,146)"/><polygon points="106.05,467.6 126.05,467.6 126.05,487.6 106.05,487.6" fill="none" stroke="black" stroke-width="1"/><text xml:space="preserve" x="116.05" y="480.433" font-family="Calibri" font-size="7.5" fill="rgb(0,0,0)" text-anchor="middle">1.5</text>
<polygon points="126.05,467.6 146.05,467.6 146.05,487.6 126.05,487.6" fill="rgb(150,206,73)"/><polygon points="126.05,467.6 146.05,467.6 146.05,487.6 126.05,487.6" fill="none" stroke="black" stroke-width="1"/><text xml:space="preserve" x="136.05" y="480.433" font-family="Calibri" font-size="7.5" fill="rgb(0,0,0)" text-anchor="middle">2.2</text>
<polygon points="146.05,467.6 166.05,467.6 166.05,487.6 146.05,487.6" fill="rgb(252,194,1)"/><polygon points="146.05,467.6 166.05,467.6 166.05,487.6 146.05,487.6" fill="none" stroke="black" stroke-width="1"/><text xml:space="preserve" x="156.05" y="480.433" font-family="Calibri" font-size="7.5" fill="rgb(0,0,0)" text-anchor="middle">3.0</text>
<text xml:space="preserve" x="116.05" y="520.6" font-family="Calibri" font-size="8" text-anchor="middle">PANTHERclass</text>
<polygon points="66.05,527.6 86.05,527.6 86.05,547.6 66.05,547.6" fill="rgb(255,255,255)"/><polygon points="66.05,527.6 86.05,527.6 86.05,547.6 66.05,547.6" fill="none" stroke="black" stroke-width="1"/><text xml:space="preserve" x="76.05" y="540.433" font-family="Calibri" font-size="7.5" fill="rgb(0,0,0)" text-anchor="middle">0.0</text>
<polygon points="86.05,527.6 106.05,527.6 106.05,547.6 86.05,547.6" fill="rgb(242,191,242)"/><polygon points="86.05,527.6 106.05,527.6 106.05,547.6 86.05,547.6" fill="none" stroke="black" stroke-width="1"/><text xml:space="preserve" x="96.05" y="540.433" font-family="Calibri" font-size="7.5" fill="rgb(0,0,0)" text-anchor="middle">0.2</text>
<polygon points="106.05,527.6 126.05,527.6 126.05,547.6 106.05,547.6" fill="rgb(230,127,230)"/><polygon points="106.05,527.6 126.05,527.6 126.05,547.6 106.05,547.6" fill="none" stroke="black" stroke-width="1"/><text xml:space="preserve" x="116.05" y="540.433" font-family="Calibri" font-size="7.5" fill="rgb(0,0,0)" text-anchor="middle">0.5</text>
<polygon points="126.05,527.6 146.05,527.6 146.05,547.6 126.05,547.6" fill="rgb(217,63,217)"/><polygon points="126.05,527.6 146.05,527.6 146.05,547.6 126.05,547.6" fill="none" stroke="black" stroke-width="1"/><text xml:space="preserve" x="136.05" y="540.433" font-family="Calibri" font-size="7.5" fill="rgb(255,255,255)" text-anchor="middle">0.8</text>
<polygon points="146.05,527.6 166.05,527.6 166.05,547.6 146.05,547.6" fill="rgb(205,0,205)"/><polygon points="146.05,527.6 166.05,527.6 166.05,547.6 146.05,547.6" fill="none" stroke="black" stroke-width="1"/><text xml:space="preserve" x="156.05" y="540.433" font-family="Calibri" font-size="7.5" fill="rgb(255,255,255)" text-anchor="middle">1.0</text>
</svg>
