<?xml version="1.0" standalone="no"?><!DOCTYPE svg PUBLIC "-//W3C//DTD SVG 1.1//EN" "http://www.w3.org/Graphics/SVG/1.1/DTD/svg11.dtd">
<svg width="296" height="647.6" version="1.1" xmlns="http://www.w3.org/2000/svg">
<text xml:space="preserve" x="124" y="342.6" font-family="Calibri" font-size="8" text-anchor="end">AC007655.1</text>
<text xml:space="preserve" x="124" y="350.6" font-family="Calibri" font-size="8" text-anchor="end">LINC00922</text>
<text xml:space="preserve" x="124" y="358.6" font-family="Calibri" font-size="8" text-anchor="end">THSD4</text>
<text xml:space="preserve" x="124" y="366.6" font-family="Calibri" font-size="8" text-anchor="end">AC110716.1</text>
<text xml:space="preserve" x="124" y="374.6" font-family="Calibri" font-size="8" text-anchor="end">INSM1</text>
<text xml:space="preserve" x="124" y="382.6" font-family="Calibri" font-size="8" text-anchor="end">INHBA</text>
<text xml:space="preserve" x="124" y="390.6" font-family="Calibri" font-size="8" text-anchor="end">AC233976.1</text>
<text xml:space="preserve" x="124" y="398.6" font-family="Calibri" font-size="8" text-anchor="end">ACKR3</text>
<text xml:space="preserve" x="124" y="406.6" font-family="Calibri" font-size="8" text-anchor="end">NDNF</text>
<text xml:space="preserve" x="124" y="414.6" font-family="Calibri" font-size="8" text-anchor="end">AC122134.1</text>
<text xml:space="preserve" x="124" y="422.6" font-family="Calibri" font-size="8" text-anchor="end">VTN</text>
<text xml:space="preserve" x="124" y="430.6" font-family="Calibri" font-size="8" text-anchor="end">AL359649.1</text>
<text xml:space="preserve" x="124" y="438.6" font-family="Calibri" font-size="8" text-anchor="end">PROKR1</text>
<text xml:space="preserve" x="124" y="446.6" font-family="Calibri" font-size="8" text-anchor="end">PDK4</text>
<text xml:space="preserve" x="135" y="331.6" font-family="Calibri" font-size="8" transform="rotate(270 135 331.6)">c1</text>
<text xml:space="preserve" x="143" y="331.6" font-family="Calibri" font-size="8" transform="rotate(270 143 331.6)">c3</text>
<text xml:space="preserve" x="151" y="331.6" font-family="Calibri" font-size="8" transform="rotate(270 151 331.6)">c4</text>
<text xml:space="preserve" x="159" y="331.6" font-family="Calibri" font-size="8" transform="rotate(270 159 331.6)">c2</text>
<text xml:space="preserve" x="177" y="331.6" font-family="Calibri" font-size="8" transform="rotate(270 177 331.6)">c1_mean</text>
<text xml:space="preserve" x="185" y="331.6" font-family="Calibri" font-size="8" transform="rotate(270 185 331.6)">c3_mean</text>
<text xml:space="preserve" x="193" y="331.6" font-family="Calibri" font-size="8" transform="rotate(270 193 331.6)">c4_mean</text>
<text xml:space="preserve" x="201" y="331.6" font-family="Calibri" font-size="8" transform="rotate(270 201 331.6)">c2_mean</text>
<text xml:space="preserve" x="219" y="331.6" font-family="Calibri" font-size="8" transform="rotate(270 219 331.6)">transcription_factor</text>
<text xml:space="preserve" x="227" y="331.6" font-family="Calibri" font-size="8" transform="rotate(270 227 331.6)">transmembrane_signal_receptor</text>
<text xml:space="preserve" x="235" y="331.6" font-family="Calibri" font-size="8" transform="rotate(270 235 331.6)">growth_factor</text>
<text xml:space="preserve" x="243" y="331.6" font-family="Calibri" font-size="8" transform="rotate(270 243 331.6)">peptide_hormone</text>
<text xml:space="preserve" x="251" y="331.6" font-family="Calibri" font-size="8" transform="rotate(270 251 331.6)">cytoskeletal_protein</text>
<text xml:space="preserve" x="259" y="331.6" font-family="Calibri" font-size="8" transform="rotate(270 259 331.6)">ion_channel</text>
<text xml:space="preserve" x="267" y="331.6" font-family="Calibri" font-size="8" transform="rotate(270 267 331.6)">integrin</text>
<text xml:space="preserve" x="275" y="331.6" font-family="Calibri" font-size="8" transform="rotate(270 275 331.6)">extracellular_matrix_protein</text>
<polygon points="128,335.6 136,335.6 136,343.6 128,343.6" fill="rgb(0,205,0)"/><text xml:space="preserve" x="132" y="342.433" font-family="Calibri" font-size="7.5" fill="rgb(255,255,255)" text-anchor="middle">1</text>
<polygon points="136,335.6 144,335.6 144,343.6 136,343.6" fill="rgb(0,205,0)"/><text xml:space="preserve" x="140" y="342.433" font-family="Calibri" font-size="7.5" fill="rgb(255,255,255)" text-anchor="middle">1</text>
<polygon points="144,335.6 152,335.6 152,343.6 144,343.6" fill="rgb(230,127,0)"/><text xml:space="preserve" x="148" y="342.433" font-family="Calibri" font-size="7.5" fill="rgb(0,0,0)" text-anchor="middle">4</text>
<polygon points="152,335.6 160,335.6 160,343.6 152,343.6" fill="rgb(0,205,0)"/><text xml:space="preserve" x="156" y="342.433" font-family="Calibri" font-size="7.5" fill="rgb(255,255,255)" text-anchor="middle">1</text>
<polygon points="170,335.6 178,335.6 178,343.6 170,343.6" fill="rgb(0,27,135)"/>
<polygon points="178,335.6 186,335.6 186,343.6 178,343.6" fill="rgb(0,27,135)"/>
<polygon points="186,335.6 194,335.6 194,343.6 186,343.6" fill="rgb(21,112,139)"/>
<polygon points="194,335.6 202,335.6 202,343.6 194,343.6" fill="rgb(0,27,135)"/>
<polygon points="212,335.6 220,335.6 220,343.6 212,343.6" fill="rgb(255,255,255)"/>
<polygon points="220,335.6 228,335.6 228,343.6 220,343.6" fill="rgb(255,255,255)"/>
<polygon points="228,335.6 236,335.6 236,343.6 228,343.6" fill="rgb(255,255,255)"/>
<polygon points="236,335.6 244,335.6 244,343.6 236,343.6" fill="rgb(255,255,255)"/>
<polygon points="244,335.6 252,335.6 252,343.6 244,343.6" fill="rgb(255,255,255)"/>
<polygon points="252,335.6 260,335.6 260,343.6 252,343.6" fill="rgb(255,255,255)"/>
<polygon points="260,335.6 268,335.6 268,343.6 260,343.6" fill="rgb(255,255,255)"/>
<polygon points="268,335.6 276,335.6 276,343.6 268,343.6" fill="rgb(255,255,255)"/>
<polygon points="128,343.6 136,343.6 136,351.6 128,351.6" fill="rgb(0,205,0)"/><text xml:space="preserve" x="132" y="350.433" font-family="Calibri" font-size="7.5" fill="rgb(255,255,255)" text-anchor="middle">1</text>
<polygon points="136,343.6 144,343.6 144,351.6 136,351.6" fill="rgb(0,205,0)"/><text xml:space="preserve" x="140" y="350.433" font-family="Calibri" font-size="7.5" fill="rgb(255,255,255)" text-anchor="middle">1</text>
<polygon points="144,343.6 152,343.6 152,351.6 144,351.6" fill="rgb(230,127,0)"/><text xml:space="preserve" x="148" y="350.433" font-family="Calibri" font-size="7.5" fill="rgb(0,0,0)" text-anchor="middle">4</text>
<polygon points="152,343.6 160,343.6 160,351.6 152,351.6" fill="rgb(0,205,0)"/><text xml:space="preserve" x="156" y="350.433" font-family="Calibri" font-size="7.5" fill="rgb(255,255,255)" text-anchor="middle">1</text>
<polygon points="170,343.6 178,343.6 178,351.6 170,351.6" fill="rgb(2,38,135)"/>
<polygon points="178,343.6 186,343.6 186,351.6 178,351.6" fill="rgb(3,41,135)"/>
<polygon points="186,343.6 194,343.6 194,351.6 186,351.6" fill="rgb(23,120,140)"/>
<polygon points="194,343.6 202,343.6 202,351.6 194,351.6" fill="rgb(7,55,136)"/>
<polygon points="212,343.6 220,343.6 220,351.6 212,351.6" fill="rgb(255,255,255)"/>
<polygon points="220,343.6 228,343.6 228,351.6 220,351.6" fill="rgb(255,255,255)"/>
<polygon points="228,343.6 236,343.6 236,351.6 228,351.6" fill="rgb(255,255,255)"/>
<polygon points="236,343.6 244,343.6 244,351.6 236,351.6" fill="rgb(255,255,255)"/>
<polygon points="244,343.6 252,343.6 252,351.6 244,351.6" fill="rgb(255,255,255)"/>
<polygon points="252,343.6 260,343.6 260,351.6 252,351.6" fill="rgb(255,255,255)"/>
<polygon points="260,343.6 268,343.6 268,351.6 260,351.6" fill="rgb(255,255,255)"/>
<polygon points="268,343.6 276,343.6 276,351.6 268,351.6" fill="rgb(255,255,255)"/>
<polygon points="128,351.6 136,351.6 136,359.6 128,359.6" fill="rgb(0,205,0)"/><text xml:space="preserve" x="132" y="358.433" font-family="Calibri" font-size="7.5" fill="rgb(255,255,255)" text-anchor="middle">1</text>
<polygon points="136,351.6 144,351.6 144,359.6 136,359.6" fill="rgb(0,205,0)"/><text xml:space="preserve" x="140" y="358.433" font-family="Calibri" font-size="7.5" fill="rgb(255,255,255)" text-anchor="middle">1</text>
<polygon points="144,351.6 152,351.6 152,359.6 144,359.6" fill="rgb(230,127,0)"/><text xml:space="preserve" x="148" y="358.433" font-family="Calibri" font-size="7.5" fill="rgb(0,0,0)" text-anchor="middle">4</text>
<polygon points="152,351.6 160,351.6 160,359.6 152,359.6" fill="rgb(0,205,0)"/><text xml:space="preserve" x="156" y="358.433" font-family="Calibri" font-size="7.5" fill="rgb(255,255,255)" text-anchor="middle">1</text>
<polygon points="170,351.6 178,351.6 178,359.6 170,359.6" fill="rgb(0,30,135)"/>
<polygon points="178,351.6 186,351.6 186,359.6 178,359.6" fill="rgb(6,53,136)"/>
<polygon points="186,351.6 194,351.6 194,359.6 186,359.6" fill="rgb(25,128,140)"/>
<polygon points="194,351.6 202,351.6 202,359.6 194,359.6" fill="rgb(7,55,136)"/>
<polygon points="212,351.6 220,351.6 220,359.6 212,359.6" fill="rgb(255,255,255)"/>
<polygon points="220,351.6 228,351.6 228,359.6 220,359.6" fill="rgb(255,255,255)"/>
<polygon points="228,351.6 236,351.6 236,359.6 228,359.6" fill="rgb(255,255,255)"/>
<polygon points="236,351.6 244,351.6 244,359.6 236,359.6" fill="rgb(255,255,255)"/>
<polygon points="244,351.6 252,351.6 252,359.6 244,359.6" fill="rgb(255,255,255)"/>
<polygon points="252,351.6 260,351.6 260,359.6 252,359.6" fill="rgb(255,255,255)"/>
<polygon points="260,351.6 268,351.6 268,359.6 260,359.6" fill="rgb(255,255,255)"/>
<polygon points="268,351.6 276,351.6 276,359.6 268,359.6" fill="rgb(205,0,205)"/>
<polygon points="128,359.6 136,359.6 136,367.6 128,367.6" fill="rgb(0,205,0)"/><text xml:space="preserve" x="132" y="366.433" font-family="Calibri" font-size="7.5" fill="rgb(255,255,255)" text-anchor="middle">1</text>
<polygon points="136,359.6 144,359.6 144,367.6 136,367.6" fill="rgb(0,205,0)"/><text xml:space="preserve" x="140" y="366.433" font-family="Calibri" font-size="7.5" fill="rgb(255,255,255)" text-anchor="middle">1</text>
<polygon points="144,359.6 152,359.6 152,367.6 144,367.6" fill="rgb(230,127,0)"/><text xml:space="preserve" x="148" y="366.433" font-family="Calibri" font-size="7.5" fill="rgb(0,0,0)" text-anchor="middle">4</text>
<polygon points="152,359.6 160,359.6 160,367.6 152,367.6" fill="rgb(0,205,0)"/><text xml:space="preserve" x="156" y="366.433" font-family="Calibri" font-size="7.5" fill="rgb(255,255,255)" text-anchor="middle">1</text>
<polygon points="170,359.6 178,359.6 178,367.6 170,367.6" fill="rgb(1,32,135)"/>
<polygon points="178,359.6 186,359.6 186,367.6 178,367.6" fill="rgb(5,47,136)"/>
<polygon points="186,359.6 194,359.6 194,367.6 186,367.6" fill="rgb(26,131,141)"/>
<polygon points="194,359.6 202,359.6 202,367.6 194,367.6" fill="rgb(0,27,135)"/>
<polygon points="212,359.6 220,359.6 220,367.6 212,367.6" fill="rgb(255,255,255)"/>
<polygon points="220,359.6 228,359.6 228,367.6 220,367.6" fill="rgb(255,255,255)"/>
<polygon points="228,359.6 236,359.6 236,367.6 228,367.6" fill="rgb(255,255,255)"/>
<polygon points="236,359.6 244,359.6 244,367.6 236,367.6" fill="rgb(255,255,255)"/>
<polygon points="244,359.6 252,359.6 252,367.6 244,367.6" fill="rgb(255,255,255)"/>
<polygon points="252,359.6 260,359.6 260,367.6 252,367.6" fill="rgb(255,255,255)"/>
<polygon points="260,359.6 268,359.6 268,367.6 260,367.6" fill="rgb(255,255,255)"/>
<polygon points="268,359.6 276,359.6 276,367.6 268,367.6" fill="rgb(255,255,255)"/>
<polygon points="128,367.6 136,367.6 136,375.6 128,375.6" fill="rgb(0,205,0)"/><text xml:space="preserve" x="132" y="374.433" font-family="Calibri" font-size="7.5" fill="rgb(255,255,255)" text-anchor="middle">1</text>
<polygon points="136,367.6 144,367.6 144,375.6 136,375.6" fill="rgb(0,205,0)"/><text xml:space="preserve" x="140" y="374.433" font-family="Calibri" font-size="7.5" fill="rgb(255,255,255)" text-anchor="middle">1</text>
<polygon points="144,367.6 152,367.6 152,375.6 144,375.6" fill="rgb(230,127,0)"/><text xml:space="preserve" x="148" y="374.433" font-family="Calibri" font-size="7.5" fill="rgb(0,0,0)" text-anchor="middle">4</text>
<polygon points="152,367.6 160,367.6 160,375.6 152,375.6" fill="rgb(0,205,0)"/><text xml:space="preserve" x="156" y="374.433" font-family="Calibri" font-size="7.5" fill="rgb(255,255,255)" text-anchor="middle">1</text>
<polygon points="170,367.6 178,367.6 178,375.6 170,375.6" fill="rgb(3,41,135)"/>
<polygon points="178,367.6 186,367.6 186,375.6 178,375.6" fill="rgb(4,43,135)"/>
<polygon points="186,367.6 194,367.6 194,375.6 186,375.6" fill="rgb(26,130,140)"/>
<polygon points="194,367.6 202,367.6 202,375.6 194,375.6" fill="rgb(12,74,137)"/>
<polygon points="212,367.6 220,367.6 220,375.6 212,375.6" fill="rgb(205,0,205)"/>
<polygon points="220,367.6 228,367.6 228,375.6 220,375.6" fill="rgb(255,255,255)"/>
<polygon points="228,367.6 236,367.6 236,375.6 228,375.6" fill="rgb(255,255,255)"/>
<polygon points="236,367.6 244,367.6 244,375.6 236,375.6" fill="rgb(255,255,255)"/>
<polygon points="244,367.6 252,367.6 252,375.6 244,375.6" fill="rgb(255,255,255)"/>
<polygon points="252,367.6 260,367.6 260,375.6 252,375.6" fill="rgb(255,255,255)"/>
<polygon points="260,367.6 268,367.6 268,375.6 260,375.6" fill="rgb(255,255,255)"/>
<polygon points="268,367.6 276,367.6 276,375.6 268,375.6" fill="rgb(255,255,255)"/>
<polygon points="128,375.6 136,375.6 136,383.6 128,383.6" fill="rgb(0,205,0)"/><text xml:space="preserve" x="132" y="382.433" font-family="Calibri" font-size="7.5" fill="rgb(255,255,255)" text-anchor="middle">1</text>
<polygon points="136,375.6 144,375.6 144,383.6 136,383.6" fill="rgb(0,205,0)"/><text xml:space="preserve" x="140" y="382.433" font-family="Calibri" font-size="7.5" fill="rgb(255,255,255)" text-anchor="middle">1</text>
<polygon points="144,375.6 152,375.6 152,383.6 144,383.6" fill="rgb(230,127,0)"/><text xml:space="preserve" x="148" y="382.433" font-family="Calibri" font-size="7.5" fill="rgb(0,0,0)" text-anchor="middle">4</text>
<polygon points="152,375.6 160,375.6 160,383.6 152,383.6" fill="rgb(0,205,0)"/><text xml:space="preserve" x="156" y="382.433" font-family="Calibri" font-size="7.5" fill="rgb(255,255,255)" text-anchor="middle">1</text>
<polygon points="170,375.6 178,375.6 178,383.6 170,383.6" fill="rgb(0,27,135)"/>
<polygon points="178,375.6 186,375.6 186,383.6 178,383.6" fill="rgb(9,64,137)"/>
<polygon points="186,375.6 194,375.6 194,383.6 186,383.6" fill="rgb(22,116,140)"/>
<polygon points="194,375.6 202,375.6 202,383.6 194,383.6" fill="rgb(3,39,135)"/>
<polygon points="212,375.6 220,375.6 220,383.6 212,383.6" fill="rgb(255,255,255)"/>
<polygon points="220,375.6 228,375.6 228,383.6 220,383.6" fill="rgb(255,255,255)"/>
<polygon points="228,375.6 236,375.6 236,383.6 228,383.6" fill="rgb(205,0,205)"/>
<polygon points="236,375.6 244,375.6 244,383.6 236,383.6" fill="rgb(255,255,255)"/>
<polygon points="244,375.6 252,375.6 252,383.6 244,383.6" fill="rgb(255,255,255)"/>
<polygon points="252,375.6 260,375.6 260,383.6 252,383.6" fill="rgb(255,255,255)"/>
<polygon points="260,375.6 268,375.6 268,383.6 260,383.6" fill="rgb(255,255,255)"/>
<polygon points="268,375.6 276,375.6 276,383.6 268,383.6" fill="rgb(255,255,255)"/>
<polygon points="128,383.6 136,383.6 136,391.6 128,391.6" fill="rgb(0,205,0)"/><text xml:space="preserve" x="132" y="390.433" font-family="Calibri" font-size="7.5" fill="rgb(255,255,255)" text-anchor="middle">1</text>
<polygon points="136,383.6 144,383.6 144,391.6 136,391.6" fill="rgb(0,205,0)"/><text xml:space="preserve" x="140" y="390.433" font-family="Calibri" font-size="7.5" fill="rgb(255,255,255)" text-anchor="middle">1</text>
<polygon points="144,383.6 152,383.6 152,391.6 144,391.6" fill="rgb(230,127,0)"/><text xml:space="preserve" x="148" y="390.433" font-family="Calibri" font-size="7.5" fill="rgb(0,0,0)" text-anchor="middle">4</text>
<polygon points="152,383.6 160,383.6 160,391.6 152,391.6" fill="rgb(0,205,0)"/><text xml:space="preserve" x="156" y="390.433" font-family="Calibri" font-size="7.5" fill="rgb(255,255,255)" text-anchor="middle">1</text>
<polygon points="170,383.6 178,383.6 178,391.6 170,391.6" fill="rgb(0,27,135)"/>
<polygon points="178,383.6 186,383.6 186,391.6 178,391.6" fill="rgb(0,27,135)"/>
<polygon points="186,383.6 194,383.6 194,391.6 186,391.6" fill="rgb(27,134,141)"/>
<polygon points="194,383.6 202,383.6 202,391.6 194,391.6" fill="rgb(0,27,135)"/>
<polygon points="212,383.6 220,383.6 220,391.6 212,391.6" fill="rgb(255,255,255)"/>
<polygon points="220,383.6 228,383.6 228,391.6 220,391.6" fill="rgb(255,255,255)"/>
<polygon points="228,383.6 236,383.6 236,391.6 228,391.6" fill="rgb(255,255,255)"/>
<polygon points="236,383.6 244,383.6 244,391.6 236,391.6" fill="rgb(255,255,255)"/>
<polygon points="244,383.6 252,383.6 252,391.6 244,391.6" fill="rgb(255,255,255)"/>
<polygon points="252,383.6 260,383.6 260,391.6 252,391.6" fill="rgb(255,255,255)"/>
<polygon points="260,383.6 268,383.6 268,391.6 260,391.6" fill="rgb(255,255,255)"/>
<polygon points="268,383.6 276,383.6 276,391.6 268,391.6" fill="rgb(255,255,255)"/>
<polygon points="128,391.6 136,391.6 136,399.6 128,399.6" fill="rgb(0,205,0)"/><text xml:space="preserve" x="132" y="398.433" font-family="Calibri" font-size="7.5" fill="rgb(255,255,255)" text-anchor="middle">1</text>
<polygon points="136,391.6 144,391.6 144,399.6 136,399.6" fill="rgb(0,205,0)"/><text xml:space="preserve" x="140" y="398.433" font-family="Calibri" font-size="7.5" fill="rgb(255,255,255)" text-anchor="middle">1</text>
<polygon points="144,391.6 152,391.6 152,399.6 144,399.6" fill="rgb(230,127,0)"/><text xml:space="preserve" x="148" y="398.433" font-family="Calibri" font-size="7.5" fill="rgb(0,0,0)" text-anchor="middle">4</text>
<polygon points="152,391.6 160,391.6 160,399.6 152,399.6" fill="rgb(0,205,0)"/><text xml:space="preserve" x="156" y="398.433" font-family="Calibri" font-size="7.5" fill="rgb(255,255,255)" text-anchor="middle">1</text>
<polygon points="170,391.6 178,391.6 178,399.6 170,399.6" fill="rgb(0,27,135)"/>
<polygon points="178,391.6 186,391.6 186,399.6 178,399.6" fill="rgb(8,61,136)"/>
<polygon points="186,391.6 194,391.6 194,399.6 186,399.6" fill="rgb(31,151,142)"/>
<polygon points="194,391.6 202,391.6 202,399.6 194,399.6" fill="rgb(2,35,135)"/>
<polygon points="212,391.6 220,391.6 220,399.6 212,399.6" fill="rgb(255,255,255)"/>
<polygon points="220,391.6 228,391.6 228,399.6 220,399.6" fill="rgb(255,255,255)"/>
<polygon points="228,391.6 236,391.6 236,399.6 228,399.6" fill="rgb(255,255,255)"/>
<polygon points="236,391.6 244,391.6 244,399.6 236,399.6" fill="rgb(255,255,255)"/>
<polygon points="244,391.6 252,391.6 252,399.6 244,399.6" fill="rgb(255,255,255)"/>
<polygon points="252,391.6 260,391.6 260,399.6 252,399.6" fill="rgb(255,255,255)"/>
<polygon points="260,391.6 268,391.6 268,399.6 260,399.6" fill="rgb(255,255,255)"/>
<polygon points="268,391.6 276,391.6 276,399.6 268,399.6" fill="rgb(255,255,255)"/>
<polygon points="128,399.6 136,399.6 136,407.6 128,407.6" fill="rgb(0,205,0)"/><text xml:space="preserve" x="132" y="406.433" font-family="Calibri" font-size="7.5" fill="rgb(255,255,255)" text-anchor="middle">1</text>
<polygon points="136,399.6 144,399.6 144,407.6 136,407.6" fill="rgb(0,205,0)"/><text xml:space="preserve" x="140" y="406.433" font-family="Calibri" font-size="7.5" fill="rgb(255,255,255)" text-anchor="middle">1</text>
<polygon points="144,399.6 152,399.6 152,407.6 144,407.6" fill="rgb(230,127,0)"/><text xml:space="preserve" x="148" y="406.433" font-family="Calibri" font-size="7.5" fill="rgb(0,0,0)" text-anchor="middle">4</text>
<polygon points="152,399.6 160,399.6 160,407.6 152,407.6" fill="rgb(0,205,0)"/><text xml:space="preserve" x="156" y="406.433" font-family="Calibri" font-size="7.5" fill="rgb(255,255,255)" text-anchor="middle">1</text>
<polygon points="170,399.6 178,399.6 178,407.6 170,407.6" fill="rgb(0,29,135)"/>
<polygon points="178,399.6 186,399.6 186,407.6 178,407.6" fill="rgb(3,41,135)"/>
<polygon points="186,399.6 194,399.6 194,407.6 186,407.6" fill="rgb(22,116,140)"/>
<polygon points="194,399.6 202,399.6 202,407.6 194,407.6" fill="rgb(0,28,135)"/>
<polygon points="212,399.6 220,399.6 220,407.6 212,407.6" fill="rgb(255,255,255)"/>
<polygon points="220,399.6 228,399.6 228,407.6 220,407.6" fill="rgb(255,255,255)"/>
<polygon points="228,399.6 236,399.6 236,407.6 228,407.6" fill="rgb(255,255,255)"/>
<polygon points="236,399.6 244,399.6 244,407.6 236,407.6" fill="rgb(255,255,255)"/>
<polygon points="244,399.6 252,399.6 252,407.6 244,407.6" fill="rgb(255,255,255)"/>
<polygon points="252,399.6 260,399.6 260,407.6 252,407.6" fill="rgb(255,255,255)"/>
<polygon points="260,399.6 268,399.6 268,407.6 260,407.6" fill="rgb(255,255,255)"/>
<polygon points="268,399.6 276,399.6 276,407.6 268,407.6" fill="rgb(255,255,255)"/>
<polygon points="128,407.6 136,407.6 136,415.6 128,415.6" fill="rgb(0,205,0)"/><text xml:space="preserve" x="132" y="414.433" font-family="Calibri" font-size="7.5" fill="rgb(255,255,255)" text-anchor="middle">1</text>
<polygon points="136,407.6 144,407.6 144,415.6 136,415.6" fill="rgb(0,205,0)"/><text xml:space="preserve" x="140" y="414.433" font-family="Calibri" font-size="7.5" fill="rgb(255,255,255)" text-anchor="middle">1</text>
<polygon points="144,407.6 152,407.6 152,415.6 144,415.6" fill="rgb(230,127,0)"/><text xml:space="preserve" x="148" y="414.433" font-family="Calibri" font-size="7.5" fill="rgb(0,0,0)" text-anchor="middle">4</text>
<polygon points="152,407.6 160,407.6 160,415.6 152,415.6" fill="rgb(0,205,0)"/><text xml:space="preserve" x="156" y="414.433" font-family="Calibri" font-size="7.5" fill="rgb(255,255,255)" text-anchor="middle">1</text>
<polygon points="170,407.6 178,407.6 178,415.6 170,415.6" fill="rgb(0,27,135)"/>
<polygon points="178,407.6 186,407.6 186,415.6 178,415.6" fill="rgb(12,76,137)"/>
<polygon points="186,407.6 194,407.6 194,415.6 186,415.6" fill="rgb(26,130,140)"/>
<polygon points="194,407.6 202,407.6 202,415.6 194,415.6" fill="rgb(0,27,135)"/>
<polygon points="212,407.6 220,407.6 220,415.6 212,415.6" fill="rgb(255,255,255)"/>
<polygon points="220,407.6 228,407.6 228,415.6 220,415.6" fill="rgb(255,255,255)"/>
<polygon points="228,407.6 236,407.6 236,415.6 228,415.6" fill="rgb(255,255,255)"/>
<polygon points="236,407.6 244,407.6 244,415.6 236,415.6" fill="rgb(255,255,255)"/>
<polygon points="244,407.6 252,407.6 252,415.6 244,415.6" fill="rgb(255,255,255)"/>
<polygon points="252,407.6 260,407.6 260,415.6 252,415.6" fill="rgb(255,255,255)"/>
<polygon points="260,407.6 268,407.6 268,415.6 260,415.6" fill="rgb(255,255,255)"/>
<polygon points="268,407.6 276,407.6 276,415.6 268,415.6" fill="rgb(255,255,255)"/>
<polygon points="128,415.6 136,415.6 136,423.6 128,423.6" fill="rgb(0,205,0)"/><text xml:space="preserve" x="132" y="422.433" font-family="Calibri" font-size="7.5" fill="rgb(255,255,255)" text-anchor="middle">1</text>
<polygon points="136,415.6 144,415.6 144,423.6 136,423.6" fill="rgb(0,205,0)"/><text xml:space="preserve" x="140" y="422.433" font-family="Calibri" font-size="7.5" fill="rgb(255,255,255)" text-anchor="middle">1</text>
<polygon points="144,415.6 152,415.6 152,423.6 144,423.6" fill="rgb(230,127,0)"/><text xml:space="preserve" x="148" y="422.433" font-family="Calibri" font-size="7.5" fill="rgb(0,0,0)" text-anchor="middle">4</text>
<polygon points="152,415.6 160,415.6 160,423.6 152,423.6" fill="rgb(0,205,0)"/><text xml:space="preserve" x="156" y="422.433" font-family="Calibri" font-size="7.5" fill="rgb(255,255,255)" text-anchor="middle">1</text>
<polygon points="170,415.6 178,415.6 178,423.6 170,423.6" fill="rgb(1,34,135)"/>
<polygon points="178,415.6 186,415.6 186,423.6 178,423.6" fill="rgb(2,35,135)"/>
<polygon points="186,415.6 194,415.6 194,423.6 186,423.6" fill="rgb(32,153,142)"/>
<polygon points="194,415.6 202,415.6 202,423.6 194,423.6" fill="rgb(7,57,136)"/>
<polygon points="212,415.6 220,415.6 220,423.6 212,423.6" fill="rgb(255,255,255)"/>
<polygon points="220,415.6 228,415.6 228,423.6 220,423.6" fill="rgb(255,255,255)"/>
<polygon points="228,415.6 236,415.6 236,423.6 228,423.6" fill="rgb(255,255,255)"/>
<polygon points="236,415.6 244,415.6 244,423.6 236,423.6" fill="rgb(255,255,255)"/>
<polygon points="244,415.6 252,415.6 252,423.6 244,423.6" fill="rgb(255,255,255)"/>
<polygon points="252,415.6 260,415.6 260,423.6 252,423.6" fill="rgb(255,255,255)"/>
<polygon points="260,415.6 268,415.6 268,423.6 260,423.6" fill="rgb(255,255,255)"/>
<polygon points="268,415.6 276,415.6 276,423.6 268,423.6" fill="rgb(205,0,205)"/>
<polygon points="128,423.6 136,423.6 136,431.6 128,431.6" fill="rgb(0,205,0)"/><text xml:space="preserve" x="132" y="430.433" font-family="Calibri" font-size="7.5" fill="rgb(255,255,255)" text-anchor="middle">1</text>
<polygon points="136,423.6 144,423.6 144,431.6 136,431.6" fill="rgb(0,205,0)"/><text xml:space="preserve" x="140" y="430.433" font-family="Calibri" font-size="7.5" fill="rgb(255,255,255)" text-anchor="middle">1</text>
<polygon points="144,423.6 152,423.6 152,431.6 144,431.6" fill="rgb(230,127,0)"/><text xml:space="preserve" x="148" y="430.433" font-family="Calibri" font-size="7.5" fill="rgb(0,0,0)" text-anchor="middle">4</text>
<polygon points="152,423.6 160,423.6 160,431.6 152,431.6" fill="rgb(0,205,0)"/><text xml:space="preserve" x="156" y="430.433" font-family="Calibri" font-size="7.5" fill="rgb(255,255,255)" text-anchor="middle">1</text>
<polygon points="170,423.6 178,423.6 178,431.6 170,431.6" fill="rgb(0,27,135)"/>
<polygon points="178,423.6 186,423.6 186,431.6 178,431.6" fill="rgb(10,67,137)"/>
<polygon points="186,423.6 194,423.6 194,431.6 186,431.6" fill="rgb(39,181,143)"/>
<polygon points="194,423.6 202,423.6 202,431.6 194,431.6" fill="rgb(3,39,135)"/>
<polygon points="212,423.6 220,423.6 220,431.6 212,431.6" fill="rgb(255,255,255)"/>
<polygon points="220,423.6 228,423.6 228,431.6 220,431.6" fill="rgb(255,255,255)"/>
<polygon points="228,423.6 236,423.6 236,431.6 228,431.6" fill="rgb(255,255,255)"/>
<polygon points="236,423.6 244,423.6 244,431.6 236,431.6" fill="rgb(255,255,255)"/>
<polygon points="244,423.6 252,423.6 252,431.6 244,431.6" fill="rgb(255,255,255)"/>
<polygon points="252,423.6 260,423.6 260,431.6 252,431.6" fill="rgb(255,255,255)"/>
<polygon points="260,423.6 268,423.6 268,431.6 260,431.6" fill="rgb(255,255,255)"/>
<polygon points="268,423.6 276,423.6 276,431.6 268,431.6" fill="rgb(255,255,255)"/>
<polygon points="128,431.6 136,431.6 136,439.6 128,439.6" fill="rgb(0,205,0)"/><text xml:space="preserve" x="132" y="438.433" font-family="Calibri" font-size="7.5" fill="rgb(255,255,255)" text-anchor="middle">1</text>
<polygon points="136,431.6 144,431.6 144,439.6 136,439.6" fill="rgb(0,205,0)"/><text xml:space="preserve" x="140" y="438.433" font-family="Calibri" font-size="7.5" fill="rgb(255,255,255)" text-anchor="middle">1</text>
<polygon points="144,431.6 152,431.6 152,439.6 144,439.6" fill="rgb(230,127,0)"/><text xml:space="preserve" x="148" y="438.433" font-family="Calibri" font-size="7.5" fill="rgb(0,0,0)" text-anchor="middle">4</text>
<polygon points="152,431.6 160,431.6 160,439.6 152,439.6" fill="rgb(0,205,0)"/><text xml:space="preserve" x="156" y="438.433" font-family="Calibri" font-size="7.5" fill="rgb(255,255,255)" text-anchor="middle">1</text>
<polygon points="170,431.6 178,431.6 178,439.6 170,439.6" fill="rgb(2,37,135)"/>
<polygon points="178,431.6 186,431.6 186,439.6 178,439.6" fill="rgb(10,67,137)"/>
<polygon points="186,431.6 194,431.6 194,439.6 186,439.6" fill="rgb(29,142,141)"/>
<polygon points="194,431.6 202,431.6 202,439.6 194,439.6" fill="rgb(2,35,135)"/>
<polygon points="212,431.6 220,431.6 220,439.6 212,439.6" fill="rgb(255,255,255)"/>
<polygon points="220,431.6 228,431.6 228,439.6 220,439.6" fill="rgb(255,255,255)"/>
<polygon points="228,431.6 236,431.6 236,439.6 228,439.6" fill="rgb(255,255,255)"/>
<polygon points="236,431.6 244,431.6 244,439.6 236,439.6" fill="rgb(255,255,255)"/>
<polygon points="244,431.6 252,431.6 252,439.6 244,439.6" fill="rgb(255,255,255)"/>
<polygon points="252,431.6 260,431.6 260,439.6 252,439.6" fill="rgb(255,255,255)"/>
<polygon points="260,431.6 268,431.6 268,439.6 260,439.6" fill="rgb(255,255,255)"/>
<polygon points="268,431.6 276,431.6 276,439.6 268,439.6" fill="rgb(255,255,255)"/>
<polygon points="128,439.6 136,439.6 136,447.6 128,447.6" fill="rgb(0,205,0)"/><text xml:space="preserve" x="132" y="446.433" font-family="Calibri" font-size="7.5" fill="rgb(255,255,255)" text-anchor="middle">1</text>
<polygon points="136,439.6 144,439.6 144,447.6 136,447.6" fill="rgb(0,205,0)"/><text xml:space="preserve" x="140" y="446.433" font-family="Calibri" font-size="7.5" fill="rgb(255,255,255)" text-anchor="middle">1</text>
<polygon points="144,439.6 152,439.6 152,447.6 144,447.6" fill="rgb(230,127,0)"/><text xml:space="preserve" x="148" y="446.433" font-family="Calibri" font-size="7.5" fill="rgb(0,0,0)" text-anchor="middle">4</text>
<polygon points="152,439.6 160,439.6 160,447.6 152,447.6" fill="rgb(0,205,0)"/><text xml:space="preserve" x="156" y="446.433" font-family="Calibri" font-size="7.5" fill="rgb(255,255,255)" text-anchor="middle">1</text>
<polygon points="170,439.6 178,439.6 178,447.6 170,447.6" fill="rgb(0,27,135)"/>
<polygon points="178,439.6 186,439.6 186,447.6 178,447.6" fill="rgb(0,27,135)"/>
<polygon points="186,439.6 194,439.6 194,447.6 186,447.6" fill="rgb(27,135,141)"/>
<polygon points="194,439.6 202,439.6 202,447.6 194,447.6" fill="rgb(0,27,135)"/>
<polygon points="212,439.6 220,439.6 220,447.6 212,447.6" fill="rgb(255,255,255)"/>
<polygon points="220,439.6 228,439.6 228,447.6 220,447.6" fill="rgb(255,255,255)"/>
<polygon points="228,439.6 236,439.6 236,447.6 228,447.6" fill="rgb(255,255,255)"/>
<polygon points="236,439.6 244,439.6 244,447.6 236,447.6" fill="rgb(255,255,255)"/>
<polygon points="244,439.6 252,439.6 252,447.6 244,447.6" fill="rgb(255,255,255)"/>
<polygon points="252,439.6 260,439.6 260,447.6 252,447.6" fill="rgb(255,255,255)"/>
<polygon points="260,439.6 268,439.6 268,447.6 260,447.6" fill="rgb(255,255,255)"/>
<polygon points="268,439.6 276,439.6 276,447.6 268,447.6" fill="rgb(255,255,255)"/>
<polygon points="128,335.6 160,335.6 160,447.6 128,447.6" fill="none" stroke="black" stroke-width="1"/>
<polygon points="170,335.6 202,335.6 202,447.6 170,447.6" fill="none" stroke="black" stroke-width="1"/>
<polygon points="212,335.6 276,335.6 276,447.6 212,447.6" fill="none" stroke="black" stroke-width="1"/>
<text xml:space="preserve" x="148" y="480.6" font-family="Calibri" font-size="8" text-anchor="middle">ClusterAssignment</text>
<polygon points="98,487.6 118,487.6 118,507.6 98,507.6" fill="rgb(0,205,0)"/><polygon points="98,487.6 118,487.6 118,507.6 98,507.6" fill="none" stroke="black" stroke-width="1"/><text xml:space="preserve" x="108" y="500.433" font-family="Calibri" font-size="7.5" fill="rgb(255,255,255)" text-anchor="middle">1.0</text>
<polygon points="118,487.6 138,487.6 138,507.6 118,507.6" fill="rgb(127,230,0)"/><polygon points="118,487.6 138,487.6 138,507.6 118,507.6" fill="none" stroke="black" stroke-width="1"/><text xml:space="preserve" x="128" y="500.433" font-family="Calibri" font-size="7.5" fill="rgb(0,0,0)" text-anchor="middle">2.0</text>
<polygon points="138,487.6 158,487.6 158,507.6 138,507.6" fill="rgb(255,255,0)"/><polygon points="138,487.6 158,487.6 158,507.6 138,507.6" fill="none" stroke="black" stroke-width="1"/><text xml:space="preserve" x="148" y="500.433" font-family="Calibri" font-size="7.5" fill="rgb(0,0,0)" text-anchor="middle">3.0</text>
<polygon points="158,487.6 178,487.6 178,507.6 158,507.6" fill="rgb(230,127,0)"/><polygon points="158,487.6 178,487.6 178,507.6 158,507.6" fill="none" stroke="black" stroke-width="1"/><text xml:space="preserve" x="168" y="500.433" font-family="Calibri" font-size="7.5" fill="rgb(0,0,0)" text-anchor="middle">4.0</text>
<polygon points="178,487.6 198,487.6 198,507.6 178,507.6" fill="rgb(205,0,0)"/><polygon points="178,487.6 198,487.6 198,507.6 178,507.6" fill="none" stroke="black" stroke-width="1"/><text xml:space="preserve" x="188" y="500.433" font-family="Calibri" font-size="7.5" fill="rgb(255,255,255)" text-anchor="middle">5.0</text>
<text xml:space="preserve" x="148" y="540.6" font-family="Calibri" font-size="8" text-anchor="middle">Expression</text>
<polygon points="98,547.6 118,547.6 118,567.6 98,567.6" fill="rgb(0,27,135)"/><polygon points="98,547.6 118,547.6 118,567.6 98,567.6" fill="none" stroke="black" stroke-width="1"/><text xml:space="preserve" x="108" y="560.433" font-family="Calibri" font-size="7.5" fill="rgb(255,255,255)" text-anchor="middle">0.0</text>
<polygon points="118,547.6 138,547.6 138,567.6 118,567.6" fill="rgb(24,123,140)"/><polygon points="118,547.6 138,547.6 138,567.6 118,567.6" fill="none" stroke="black" stroke-width="1"/><text xml:space="preserve" x="128" y="560.433" font-family="Calibri" font-size="7.5" fill="rgb(255,255,255)" text-anchor="middle">0.8</text>
<polygon points="138,547.6 158,547.6 158,567.6 138,567.6" fill="rgb(49,219,146)"/><polygon points="138,547.6 158,547.6 158,567.6 138,567.6" fill="none" stroke="black" stroke-width="1"/><text xml:space="preserve" x="148" y="560.433" font-family="Calibri" font-size="7.5" fill="rgb(0,0,0)" text-anchor="middle">1.5</text>
<polygon points="158,547.6 178,547.6 178,567.6 158,567.6" fill="rgb(150,206,73)"/><polygon points="158,547.6 178,547.6 178,567.6 158,567.6" fill="none" stroke="black" stroke-width="1"/><text xml:space="preserve" x="168" y="560.433" font-family="Calibri" font-size="7.5" fill="rgb(0,0,0)" text-anchor="middle">2.2</text>
<polygon points="178,547.6 198,547.6 198,567.6 178,567.6" fill="rgb(252,194,1)"/><polygon points="178,547.6 198,547.6 198,567.6 178,567.6" fill="none" stroke="black" stroke-width="1"/><text xml:space="preserve" x="188" y="560.433" font-family="Calibri" font-size="7.5" fill="rgb(0,0,0)" text-anchor="middle">3.0</text>
<text xml:space="preserve" x="148" y="600.6" font-family="Calibri" font-size="8" text-anchor="middle">PANTHERclass</text>
<polygon points="98,607.6 118,607.6 118,627.6 98,627.6" fill="rgb(255,255,255)"/><polygon points="98,607.6 118,607.6 118,627.6 98,627.6" fill="none" stroke="black" stroke-width="1"/><text xml:space="preserve" x="108" y="620.433" font-family="Calibri" font-size="7.5" fill="rgb(0,0,0)" text-anchor="middle">0.0</text>
<polygon points="118,607.6 138,607.6 138,627.6 118,627.6" fill="rgb(242,191,242)"/><polygon points="118,607.6 138,607.6 138,627.6 118,627.6" fill="none" stroke="black" stroke-width="1"/><text xml:space="preserve" x="128" y="620.433" font-family="Calibri" font-size="7.5" fill="rgb(0,0,0)" text-anchor="middle">0.2</text>
<polygon points="138,607.6 158,607.6 158,627.6 138,627.6" fill="rgb(230,127,230)"/><polygon points="138,607.6 158,607.6 158,627.6 138,627.6" fill="none" stroke="black" stroke-width="1"/><text xml:space="preserve" x="148" y="620.433" font-family="Calibri" font-size="7.5" fill="rgb(0,0,0)" text-anchor="middle">0.5</text>
<polygon points="158,607.6 178,607.6 178,627.6 158,627.6" fill="rgb(217,63,217)"/><polygon points="158,607.6 178,607.6 178,627.6 158,627.6" fill="none" stroke="black" stroke-width="1"/><text xml:space="preserve" x="168" y="620.433" font-family="Calibri" font-size="7.5" fill="rgb(255,255,255)" text-anchor="middle">0.8</text>
<polygon points="178,607.6 198,607.6 198,627.6 178,627.6" fill="rgb(205,0,205)"/><polygon points="178,607.6 198,607.6 198,627.6 178,627.6" fill="none" stroke="black" stroke-width="1"/><text xml:space="preserve" x="188" y="620.433" font-family="Calibri" font-size="7.5" fill="rgb(255,255,255)" text-anchor="middle">1.0</text>
</svg>
