<?xml version="1.0" standalone="no"?><!DOCTYPE svg PUBLIC "-//W3C//DTD SVG 1.1//EN" "http://www.w3.org/Graphics/SVG/1.1/DTD/svg11.dtd">
<svg width="296" height="559.6" version="1.1" xmlns="http://www.w3.org/2000/svg">
<text xml:space="preserve" x="124" y="342.6" font-family="Calibri" font-size="8" text-anchor="end">AC009110.1</text>
<text xml:space="preserve" x="124" y="350.6" font-family="Calibri" font-size="8" text-anchor="end">TAL1</text>
<text xml:space="preserve" x="124" y="358.6" font-family="Calibri" font-size="8" text-anchor="end">MINDY4B</text>
<text xml:space="preserve" x="135" y="331.6" font-family="Calibri" font-size="8" transform="rotate(270 135 331.6)">c1</text>
<text xml:space="preserve" x="143" y="331.6" font-family="Calibri" font-size="8" transform="rotate(270 143 331.6)">c3</text>
<text xml:space="preserve" x="151" y="331.6" font-family="Calibri" font-size="8" transform="rotate(270 151 331.6)">c4</text>
<text xml:space="preserve" x="159" y="331.6" font-family="Calibri" font-size="8" transform="rotate(270 159 331.6)">c2</text>
<text xml:space="preserve" x="177" y="331.6" font-family="Calibri" font-size="8" transform="rotate(270 177 331.6)">c1_mean</text>
<text xml:space="preserve" x="185" y="331.6" font-family="Calibri" font-size="8" transform="rotate(270 185 331.6)">c3_mean</text>
<text xml:space="preserve" x="193" y="331.6" font-family="Calibri" font-size="8" transform="rotate(270 193 331.6)">c4_mean</text>
<text xml:space="preserve" x="201" y="331.6" font-family="Calibri" font-size="8" transform="rotate(270 201 331.6)">c2_mean</text>
<text xml:space="preserve" x="219" y="331.6" font-family="Calibri" font-size="8" transform="rotate(270 219 331.6)">transcription_factor</text>
<text xml:space="preserve" x="227" y="331.6" font-family="Calibri" font-size="8" transform="rotate(270 227 331.6)">transmembrane_signal_receptor</text>
<text xml:space="preserve" x="235" y="331.6" font-family="Calibri" font-size="8" transform="rotate(270 235 331.6)">growth_factor</text>
<text xml:space="preserve" x="243" y="331.6" font-family="Calibri" font-size="8" transform="rotate(270 243 331.6)">peptide_hormone</text>
<text xml:space="preserve" x="251" y="331.6" font-family="Calibri" font-size="8" transform="rotate(270 251 331.6)">cytoskeletal_protein</text>
<text xml:space="preserve" x="259" y="331.6" font-family="Calibri" font-size="8" transform="rotate(270 259 331.6)">ion_channel</text>
<text xml:space="preserve" x="267" y="331.6" font-family="Calibri" font-size="8" transform="rotate(270 267 331.6)">integrin</text>
<text xml:space="preserve" x="275" y="331.6" font-family="Calibri" font-size="8" transform="rotate(270 275 331.6)">extracellular_matrix_protein</text>
<polygon points="128,335.6 136,335.6 136,343.6 128,343.6" fill="rgb(205,0,0)"/><text xml:space="preserve" x="132" y="342.433" font-family="Calibri" font-size="7.5" fill="rgb(255,255,255)" text-anchor="middle">5</text>
<polygon points="136,335.6 144,335.6 144,343.6 136,343.6" fill="rgb(0,205,0)"/><text xml:space="preserve" x="140" y="342.433" font-family="Calibri" font-size="7.5" fill="rgb(255,255,255)" text-anchor="middle">1</text>
<polygon points="144,335.6 152,335.6 152,343.6 144,343.6" fill="rgb(0,205,0)"/><text xml:space="preserve" x="148" y="342.433" font-family="Calibri" font-size="7.5" fill="rgb(255,255,255)" text-anchor="middle">1</text>
<polygon points="152,335.6 160,335.6 160,343.6 152,343.6" fill="rgb(0,205,0)"/><text xml:space="preserve" x="156" y="342.433" font-family="Calibri" font-size="7.5" fill="rgb(255,255,255)" text-anchor="middle">1</text>
<polygon points="170,335.6 178,335.6 178,343.6 170,343.6" fill="rgb(104,212,106)"/>
<polygon points="178,335.6 186,335.6 186,343.6 178,343.6" fill="rgb(7,55,136)"/>
<polygon points="186,335.6 194,335.6 194,343.6 186,343.6" fill="rgb(0,27,135)"/>
<polygon points="194,335.6 202,335.6 202,343.6 194,343.6" fill="rgb(4,43,135)"/>
<polygon points="212,335.6 220,335.6 220,343.6 212,343.6" fill="rgb(255,255,255)"/>
<polygon points="220,335.6 228,335.6 228,343.6 220,343.6" fill="rgb(255,255,255)"/>
<polygon points="228,335.6 236,335.6 236,343.6 228,343.6" fill="rgb(255,255,255)"/>
<polygon points="236,335.6 244,335.6 244,343.6 236,343.6" fill="rgb(255,255,255)"/>
<polygon points="244,335.6 252,335.6 252,343.6 244,343.6" fill="rgb(255,255,255)"/>
<polygon points="252,335.6 260,335.6 260,343.6 252,343.6" fill="rgb(255,255,255)"/>
<polygon points="260,335.6 268,335.6 268,343.6 260,343.6" fill="rgb(255,255,255)"/>
<polygon points="268,335.6 276,335.6 276,343.6 268,343.6" fill="rgb(255,255,255)"/>
<polygon points="128,343.6 136,343.6 136,351.6 128,351.6" fill="rgb(205,0,0)"/><text xml:space="preserve" x="132" y="350.433" font-family="Calibri" font-size="7.5" fill="rgb(255,255,255)" text-anchor="middle">5</text>
<polygon points="136,343.6 144,343.6 144,351.6 136,351.6" fill="rgb(0,205,0)"/><text xml:space="preserve" x="140" y="350.433" font-family="Calibri" font-size="7.5" fill="rgb(255,255,255)" text-anchor="middle">1</text>
<polygon points="144,343.6 152,343.6 152,351.6 144,351.6" fill="rgb(0,205,0)"/><text xml:space="preserve" x="148" y="350.433" font-family="Calibri" font-size="7.5" fill="rgb(255,255,255)" text-anchor="middle">1</text>
<polygon points="152,343.6 160,343.6 160,351.6 152,351.6" fill="rgb(0,205,0)"/><text xml:space="preserve" x="156" y="350.433" font-family="Calibri" font-size="7.5" fill="rgb(255,255,255)" text-anchor="middle">1</text>
<polygon points="170,343.6 178,343.6 178,351.6 170,351.6" fill="rgb(252,194,1)"/>
<polygon points="178,343.6 186,343.6 186,351.6 178,351.6" fill="rgb(252,194,1)"/>
<polygon points="186,343.6 194,343.6 194,351.6 186,351.6" fill="rgb(7,56,136)"/>
<polygon points="194,343.6 202,343.6 202,351.6 194,351.6" fill="rgb(4,43,135)"/>
<polygon points="212,343.6 220,343.6 220,351.6 212,351.6" fill="rgb(205,0,205)"/>
<polygon points="220,343.6 228,343.6 228,351.6 220,351.6" fill="rgb(255,255,255)"/>
<polygon points="228,343.6 236,343.6 236,351.6 228,351.6" fill="rgb(255,255,255)"/>
<polygon points="236,343.6 244,343.6 244,351.6 236,351.6" fill="rgb(255,255,255)"/>
<polygon points="244,343.6 252,343.6 252,351.6 244,351.6" fill="rgb(255,255,255)"/>
<polygon points="252,343.6 260,343.6 260,351.6 252,351.6" fill="rgb(255,255,255)"/>
<polygon points="260,343.6 268,343.6 268,351.6 260,351.6" fill="rgb(255,255,255)"/>
<polygon points="268,343.6 276,343.6 276,351.6 268,351.6" fill="rgb(255,255,255)"/>
<polygon points="128,351.6 136,351.6 136,359.6 128,359.6" fill="rgb(205,0,0)"/><text xml:space="preserve" x="132" y="358.433" font-family="Calibri" font-size="7.5" fill="rgb(255,255,255)" text-anchor="middle">5</text>
<polygon points="136,351.6 144,351.6 144,359.6 136,359.6" fill="rgb(0,205,0)"/><text xml:space="preserve" x="140" y="358.433" font-family="Calibri" font-size="7.5" fill="rgb(255,255,255)" text-anchor="middle">1</text>
<polygon points="144,351.6 152,351.6 152,359.6 144,359.6" fill="rgb(0,205,0)"/><text xml:space="preserve" x="148" y="358.433" font-family="Calibri" font-size="7.5" fill="rgb(255,255,255)" text-anchor="middle">1</text>
<polygon points="152,351.6 160,351.6 160,359.6 152,359.6" fill="rgb(0,205,0)"/><text xml:space="preserve" x="156" y="358.433" font-family="Calibri" font-size="7.5" fill="rgb(255,255,255)" text-anchor="middle">1</text>
<polygon points="170,351.6 178,351.6 178,359.6 170,359.6" fill="rgb(252,194,1)"/>
<polygon points="178,351.6 186,351.6 186,359.6 178,359.6" fill="rgb(0,27,135)"/>
<polygon points="186,351.6 194,351.6 194,359.6 186,359.6" fill="rgb(0,27,135)"/>
<polygon points="194,351.6 202,351.6 202,359.6 194,359.6" fill="rgb(0,27,135)"/>
<polygon points="212,351.6 220,351.6 220,359.6 212,359.6" fill="rgb(255,255,255)"/>
<polygon points="220,351.6 228,351.6 228,359.6 220,359.6" fill="rgb(255,255,255)"/>
<polygon points="228,351.6 236,351.6 236,359.6 228,359.6" fill="rgb(255,255,255)"/>
<polygon points="236,351.6 244,351.6 244,359.6 236,359.6" fill="rgb(255,255,255)"/>
<polygon points="244,351.6 252,351.6 252,359.6 244,359.6" fill="rgb(255,255,255)"/>
<polygon points="252,351.6 260,351.6 260,359.6 252,359.6" fill="rgb(255,255,255)"/>
<polygon points="260,351.6 268,351.6 268,359.6 260,359.6" fill="rgb(255,255,255)"/>
<polygon points="268,351.6 276,351.6 276,359.6 268,359.6" fill="rgb(255,255,255)"/>
<polygon points="128,335.6 160,335.6 160,359.6 128,359.6" fill="none" stroke="black" stroke-width="1"/>
<polygon points="170,335.6 202,335.6 202,359.6 170,359.6" fill="none" stroke="black" stroke-width="1"/>
<polygon points="212,335.6 276,335.6 276,359.6 212,359.6" fill="none" stroke="black" stroke-width="1"/>
<text xml:space="preserve" x="148" y="392.6" font-family="Calibri" font-size="8" text-anchor="middle">ClusterAssignment</text>
<polygon points="98,399.6 118,399.6 118,419.6 98,419.6" fill="rgb(0,205,0)"/><polygon points="98,399.6 118,399.6 118,419.6 98,419.6" fill="none" stroke="black" stroke-width="1"/><text xml:space="preserve" x="108" y="412.433" font-family="Calibri" font-size="7.5" fill="rgb(255,255,255)" text-anchor="middle">1.0</text>
<polygon points="118,399.6 138,399.6 138,419.6 118,419.6" fill="rgb(127,230,0)"/><polygon points="118,399.6 138,399.6 138,419.6 118,419.6" fill="none" stroke="black" stroke-width="1"/><text xml:space="preserve" x="128" y="412.433" font-family="Calibri" font-size="7.5" fill="rgb(0,0,0)" text-anchor="middle">2.0</text>
<polygon points="138,399.6 158,399.6 158,419.6 138,419.6" fill="rgb(255,255,0)"/><polygon points="138,399.6 158,399.6 158,419.6 138,419.6" fill="none" stroke="black" stroke-width="1"/><text xml:space="preserve" x="148" y="412.433" font-family="Calibri" font-size="7.5" fill="rgb(0,0,0)" text-anchor="middle">3.0</text>
<polygon points="158,399.6 178,399.6 178,419.6 158,419.6" fill="rgb(230,127,0)"/><polygon points="158,399.6 178,399.6 178,419.6 158,419.6" fill="none" stroke="black" stroke-width="1"/><text xml:space="preserve" x="168" y="412.433" font-family="Calibri" font-size="7.5" fill="rgb(0,0,0)" text-anchor="middle">4.0</text>
<polygon points="178,399.6 198,399.6 198,419.6 178,419.6" fill="rgb(205,0,0)"/><polygon points="178,399.6 198,399.6 198,419.6 178,419.6" fill="none" stroke="black" stroke-width="1"/><text xml:space="preserve" x="188" y="412.433" font-family="Calibri" font-size="7.5" fill="rgb(255,255,255)" text-anchor="middle">5.0</text>
<text xml:space="preserve" x="148" y="452.6" font-family="Calibri" font-size="8" text-anchor="middle">Expression</text>
<polygon points="98,459.6 118,459.6 118,479.6 98,479.6" fill="rgb(0,27,135)"/><polygon points="98,459.6 118,459.6 118,479.6 98,479.6" fill="none" stroke="black" stroke-width="1"/><text xml:space="preserve" x="108" y="472.433" font-family="Calibri" font-size="7.5" fill="rgb(255,255,255)" text-anchor="middle">0.0</text>
<polygon points="118,459.6 138,459.6 138,479.6 118,479.6" fill="rgb(24,123,140)"/><polygon points="118,459.6 138,459.6 138,479.6 118,479.6" fill="none" stroke="black" stroke-width="1"/><text xml:space="preserve" x="128" y="472.433" font-family="Calibri" font-size="7.5" fill="rgb(255,255,255)" text-anchor="middle">0.8</text>
<polygon points="138,459.6 158,459.6 158,479.6 138,479.6" fill="rgb(49,219,146)"/><polygon points="138,459.6 158,459.6 158,479.6 138,479.6" fill="none" stroke="black" stroke-width="1"/><text xml:space="preserve" x="148" y="472.433" font-family="Calibri" font-size="7.5" fill="rgb(0,0,0)" text-anchor="middle">1.5</text>
<polygon points="158,459.6 178,459.6 178,479.6 158,479.6" fill="rgb(150,206,73)"/><polygon points="158,459.6 178,459.6 178,479.6 158,479.6" fill="none" stroke="black" stroke-width="1"/><text xml:space="preserve" x="168" y="472.433" font-family="Calibri" font-size="7.5" fill="rgb(0,0,0)" text-anchor="middle">2.2</text>
<polygon points="178,459.6 198,459.6 198,479.6 178,479.6" fill="rgb(252,194,1)"/><polygon points="178,459.6 198,459.6 198,479.6 178,479.6" fill="none" stroke="black" stroke-width="1"/><text xml:space="preserve" x="188" y="472.433" font-family="Calibri" font-size="7.5" fill="rgb(0,0,0)" text-anchor="middle">3.0</text>
<text xml:space="preserve" x="148" y="512.6" font-family="Calibri" font-size="8" text-anchor="middle">PANTHERclass</text>
<polygon points="98,519.6 118,519.6 118,539.6 98,539.6" fill="rgb(255,255,255)"/><polygon points="98,519.6 118,519.6 118,539.6 98,539.6" fill="none" stroke="black" stroke-width="1"/><text xml:space="preserve" x="108" y="532.433" font-family="Calibri" font-size="7.5" fill="rgb(0,0,0)" text-anchor="middle">0.0</text>
<polygon points="118,519.6 138,519.6 138,539.6 118,539.6" fill="rgb(242,191,242)"/><polygon points="118,519.6 138,519.6 138,539.6 118,539.6" fill="none" stroke="black" stroke-width="1"/><text xml:space="preserve" x="128" y="532.433" font-family="Calibri" font-size="7.5" fill="rgb(0,0,0)" text-anchor="middle">0.2</text>
<polygon points="138,519.6 158,519.6 158,539.6 138,539.6" fill="rgb(230,127,230)"/><polygon points="138,519.6 158,519.6 158,539.6 138,539.6" fill="none" stroke="black" stroke-width="1"/><text xml:space="preserve" x="148" y="532.433" font-family="Calibri" font-size="7.5" fill="rgb(0,0,0)" text-anchor="middle">0.5</text>
<polygon points="158,519.6 178,519.6 178,539.6 158,539.6" fill="rgb(217,63,217)"/><polygon points="158,519.6 178,519.6 178,539.6 158,539.6" fill="none" stroke="black" stroke-width="1"/><text xml:space="preserve" x="168" y="532.433" font-family="Calibri" font-size="7.5" fill="rgb(255,255,255)" text-anchor="middle">0.8</text>
<polygon points="178,519.6 198,519.6 198,539.6 178,539.6" fill="rgb(205,0,205)"/><polygon points="178,519.6 198,519.6 198,539.6 178,539.6" fill="none" stroke="black" stroke-width="1"/><text xml:space="preserve" x="188" y="532.433" font-family="Calibri" font-size="7.5" fill="rgb(255,255,255)" text-anchor="middle">1.0</text>
</svg>
