<?xml version="1.0" standalone="no"?><!DOCTYPE svg PUBLIC "-//W3C//DTD SVG 1.1//EN" "http://www.w3.org/Graphics/SVG/1.1/DTD/svg11.dtd">
<svg width="295.4" height="591.6" version="1.1" xmlns="http://www.w3.org/2000/svg">
<text xml:space="preserve" x="123.4" y="342.6" font-family="Calibri" font-size="8" text-anchor="end">AC018953.1</text>
<text xml:space="preserve" x="123.4" y="350.6" font-family="Calibri" font-size="8" text-anchor="end">DAB2</text>
<text xml:space="preserve" x="123.4" y="358.6" font-family="Calibri" font-size="8" text-anchor="end">RSPO3</text>
<text xml:space="preserve" x="123.4" y="366.6" font-family="Calibri" font-size="8" text-anchor="end">KCNIP4-IT1</text>
<text xml:space="preserve" x="123.4" y="374.6" font-family="Calibri" font-size="8" text-anchor="end">LINC02552</text>
<text xml:space="preserve" x="123.4" y="382.6" font-family="Calibri" font-size="8" text-anchor="end">TFEB</text>
<text xml:space="preserve" x="123.4" y="390.6" font-family="Calibri" font-size="8" text-anchor="end">ANKRD34B</text>
<text xml:space="preserve" x="134.4" y="331.6" font-family="Calibri" font-size="8" transform="rotate(270 134.4 331.6)">c1</text>
<text xml:space="preserve" x="142.4" y="331.6" font-family="Calibri" font-size="8" transform="rotate(270 142.4 331.6)">c3</text>
<text xml:space="preserve" x="150.4" y="331.6" font-family="Calibri" font-size="8" transform="rotate(270 150.4 331.6)">c4</text>
<text xml:space="preserve" x="158.4" y="331.6" font-family="Calibri" font-size="8" transform="rotate(270 158.4 331.6)">c2</text>
<text xml:space="preserve" x="176.4" y="331.6" font-family="Calibri" font-size="8" transform="rotate(270 176.4 331.6)">c1_mean</text>
<text xml:space="preserve" x="184.4" y="331.6" font-family="Calibri" font-size="8" transform="rotate(270 184.4 331.6)">c3_mean</text>
<text xml:space="preserve" x="192.4" y="331.6" font-family="Calibri" font-size="8" transform="rotate(270 192.4 331.6)">c4_mean</text>
<text xml:space="preserve" x="200.4" y="331.6" font-family="Calibri" font-size="8" transform="rotate(270 200.4 331.6)">c2_mean</text>
<text xml:space="preserve" x="218.4" y="331.6" font-family="Calibri" font-size="8" transform="rotate(270 218.4 331.6)">transcription_factor</text>
<text xml:space="preserve" x="226.4" y="331.6" font-family="Calibri" font-size="8" transform="rotate(270 226.4 331.6)">transmembrane_signal_receptor</text>
<text xml:space="preserve" x="234.4" y="331.6" font-family="Calibri" font-size="8" transform="rotate(270 234.4 331.6)">growth_factor</text>
<text xml:space="preserve" x="242.4" y="331.6" font-family="Calibri" font-size="8" transform="rotate(270 242.4 331.6)">peptide_hormone</text>
<text xml:space="preserve" x="250.4" y="331.6" font-family="Calibri" font-size="8" transform="rotate(270 250.4 331.6)">cytoskeletal_protein</text>
<text xml:space="preserve" x="258.4" y="331.6" font-family="Calibri" font-size="8" transform="rotate(270 258.4 331.6)">ion_channel</text>
<text xml:space="preserve" x="266.4" y="331.6" font-family="Calibri" font-size="8" transform="rotate(270 266.4 331.6)">integrin</text>
<text xml:space="preserve" x="274.4" y="331.6" font-family="Calibri" font-size="8" transform="rotate(270 274.4 331.6)">extracellular_matrix_protein</text>
<polygon points="127.4,335.6 135.4,335.6 135.4,343.6 127.4,343.6" fill="rgb(127,230,0)"/><text xml:space="preserve" x="131.4" y="342.433" font-family="Calibri" font-size="7.5" fill="rgb(0,0,0)" text-anchor="middle">2</text>
<polygon points="135.4,335.6 143.4,335.6 143.4,343.6 135.4,343.6" fill="rgb(230,127,0)"/><text xml:space="preserve" x="139.4" y="342.433" font-family="Calibri" font-size="7.5" fill="rgb(0,0,0)" text-anchor="middle">4</text>
<polygon points="143.4,335.6 151.4,335.6 151.4,343.6 143.4,343.6" fill="rgb(230,127,0)"/><text xml:space="preserve" x="147.4" y="342.433" font-family="Calibri" font-size="7.5" fill="rgb(0,0,0)" text-anchor="middle">4</text>
<polygon points="151.4,335.6 159.4,335.6 159.4,343.6 151.4,343.6" fill="rgb(0,205,0)"/><text xml:space="preserve" x="155.4" y="342.433" font-family="Calibri" font-size="7.5" fill="rgb(255,255,255)" text-anchor="middle">1</text>
<polygon points="169.4,335.6 177.4,335.6 177.4,343.6 169.4,343.6" fill="rgb(5,48,136)"/>
<polygon points="177.4,335.6 185.4,335.6 185.4,343.6 177.4,343.6" fill="rgb(20,107,139)"/>
<polygon points="185.4,335.6 193.4,335.6 193.4,343.6 185.4,343.6" fill="rgb(80,215,123)"/>
<polygon points="193.4,335.6 201.4,335.6 201.4,343.6 193.4,343.6" fill="rgb(4,44,136)"/>
<polygon points="211.4,335.6 219.4,335.6 219.4,343.6 211.4,343.6" fill="rgb(255,255,255)"/>
<polygon points="219.4,335.6 227.4,335.6 227.4,343.6 219.4,343.6" fill="rgb(255,255,255)"/>
<polygon points="227.4,335.6 235.4,335.6 235.4,343.6 227.4,343.6" fill="rgb(255,255,255)"/>
<polygon points="235.4,335.6 243.4,335.6 243.4,343.6 235.4,343.6" fill="rgb(255,255,255)"/>
<polygon points="243.4,335.6 251.4,335.6 251.4,343.6 243.4,343.6" fill="rgb(255,255,255)"/>
<polygon points="251.4,335.6 259.4,335.6 259.4,343.6 251.4,343.6" fill="rgb(255,255,255)"/>
<polygon points="259.4,335.6 267.4,335.6 267.4,343.6 259.4,343.6" fill="rgb(255,255,255)"/>
<polygon points="267.4,335.6 275.4,335.6 275.4,343.6 267.4,343.6" fill="rgb(255,255,255)"/>
<polygon points="127.4,343.6 135.4,343.6 135.4,351.6 127.4,351.6" fill="rgb(127,230,0)"/><text xml:space="preserve" x="131.4" y="350.433" font-family="Calibri" font-size="7.5" fill="rgb(0,0,0)" text-anchor="middle">2</text>
<polygon points="135.4,343.6 143.4,343.6 143.4,351.6 135.4,351.6" fill="rgb(230,127,0)"/><text xml:space="preserve" x="139.4" y="350.433" font-family="Calibri" font-size="7.5" fill="rgb(0,0,0)" text-anchor="middle">4</text>
<polygon points="143.4,343.6 151.4,343.6 151.4,351.6 143.4,351.6" fill="rgb(230,127,0)"/><text xml:space="preserve" x="147.4" y="350.433" font-family="Calibri" font-size="7.5" fill="rgb(0,0,0)" text-anchor="middle">4</text>
<polygon points="151.4,343.6 159.4,343.6 159.4,351.6 151.4,351.6" fill="rgb(0,205,0)"/><text xml:space="preserve" x="155.4" y="350.433" font-family="Calibri" font-size="7.5" fill="rgb(255,255,255)" text-anchor="middle">1</text>
<polygon points="169.4,343.6 177.4,343.6 177.4,351.6 169.4,351.6" fill="rgb(9,62,137)"/>
<polygon points="177.4,343.6 185.4,343.6 185.4,351.6 177.4,351.6" fill="rgb(29,142,141)"/>
<polygon points="185.4,343.6 193.4,343.6 193.4,351.6 185.4,351.6" fill="rgb(27,133,141)"/>
<polygon points="193.4,343.6 201.4,343.6 201.4,351.6 193.4,351.6" fill="rgb(7,56,136)"/>
<polygon points="211.4,343.6 219.4,343.6 219.4,351.6 211.4,351.6" fill="rgb(255,255,255)"/>
<polygon points="219.4,343.6 227.4,343.6 227.4,351.6 219.4,351.6" fill="rgb(255,255,255)"/>
<polygon points="227.4,343.6 235.4,343.6 235.4,351.6 227.4,351.6" fill="rgb(255,255,255)"/>
<polygon points="235.4,343.6 243.4,343.6 243.4,351.6 235.4,351.6" fill="rgb(255,255,255)"/>
<polygon points="243.4,343.6 251.4,343.6 251.4,351.6 243.4,351.6" fill="rgb(255,255,255)"/>
<polygon points="251.4,343.6 259.4,343.6 259.4,351.6 251.4,351.6" fill="rgb(255,255,255)"/>
<polygon points="259.4,343.6 267.4,343.6 267.4,351.6 259.4,351.6" fill="rgb(255,255,255)"/>
<polygon points="267.4,343.6 275.4,343.6 275.4,351.6 267.4,351.6" fill="rgb(255,255,255)"/>
<polygon points="127.4,351.6 135.4,351.6 135.4,359.6 127.4,359.6" fill="rgb(127,230,0)"/><text xml:space="preserve" x="131.4" y="358.433" font-family="Calibri" font-size="7.5" fill="rgb(0,0,0)" text-anchor="middle">2</text>
<polygon points="135.4,351.6 143.4,351.6 143.4,359.6 135.4,359.6" fill="rgb(230,127,0)"/><text xml:space="preserve" x="139.4" y="358.433" font-family="Calibri" font-size="7.5" fill="rgb(0,0,0)" text-anchor="middle">4</text>
<polygon points="143.4,351.6 151.4,351.6 151.4,359.6 143.4,359.6" fill="rgb(230,127,0)"/><text xml:space="preserve" x="147.4" y="358.433" font-family="Calibri" font-size="7.5" fill="rgb(0,0,0)" text-anchor="middle">4</text>
<polygon points="151.4,351.6 159.4,351.6 159.4,359.6 151.4,359.6" fill="rgb(0,205,0)"/><text xml:space="preserve" x="155.4" y="358.433" font-family="Calibri" font-size="7.5" fill="rgb(255,255,255)" text-anchor="middle">1</text>
<polygon points="169.4,351.6 177.4,351.6 177.4,359.6 169.4,359.6" fill="rgb(4,46,136)"/>
<polygon points="177.4,351.6 185.4,351.6 185.4,359.6 177.4,359.6" fill="rgb(23,119,140)"/>
<polygon points="185.4,351.6 193.4,351.6 193.4,359.6 185.4,359.6" fill="rgb(27,133,141)"/>
<polygon points="193.4,351.6 201.4,351.6 201.4,359.6 193.4,359.6" fill="rgb(4,44,136)"/>
<polygon points="211.4,351.6 219.4,351.6 219.4,359.6 211.4,359.6" fill="rgb(255,255,255)"/>
<polygon points="219.4,351.6 227.4,351.6 227.4,359.6 219.4,359.6" fill="rgb(255,255,255)"/>
<polygon points="227.4,351.6 235.4,351.6 235.4,359.6 227.4,359.6" fill="rgb(255,255,255)"/>
<polygon points="235.4,351.6 243.4,351.6 243.4,359.6 235.4,359.6" fill="rgb(255,255,255)"/>
<polygon points="243.4,351.6 251.4,351.6 251.4,359.6 243.4,359.6" fill="rgb(255,255,255)"/>
<polygon points="251.4,351.6 259.4,351.6 259.4,359.6 251.4,359.6" fill="rgb(255,255,255)"/>
<polygon points="259.4,351.6 267.4,351.6 267.4,359.6 259.4,359.6" fill="rgb(255,255,255)"/>
<polygon points="267.4,351.6 275.4,351.6 275.4,359.6 267.4,359.6" fill="rgb(255,255,255)"/>
<polygon points="127.4,359.6 135.4,359.6 135.4,367.6 127.4,367.6" fill="rgb(127,230,0)"/><text xml:space="preserve" x="131.4" y="366.433" font-family="Calibri" font-size="7.5" fill="rgb(0,0,0)" text-anchor="middle">2</text>
<polygon points="135.4,359.6 143.4,359.6 143.4,367.6 135.4,367.6" fill="rgb(230,127,0)"/><text xml:space="preserve" x="139.4" y="366.433" font-family="Calibri" font-size="7.5" fill="rgb(0,0,0)" text-anchor="middle">4</text>
<polygon points="143.4,359.6 151.4,359.6 151.4,367.6 143.4,367.6" fill="rgb(230,127,0)"/><text xml:space="preserve" x="147.4" y="366.433" font-family="Calibri" font-size="7.5" fill="rgb(0,0,0)" text-anchor="middle">4</text>
<polygon points="151.4,359.6 159.4,359.6 159.4,367.6 151.4,367.6" fill="rgb(0,205,0)"/><text xml:space="preserve" x="155.4" y="366.433" font-family="Calibri" font-size="7.5" fill="rgb(255,255,255)" text-anchor="middle">1</text>
<polygon points="169.4,359.6 177.4,359.6 177.4,367.6 169.4,367.6" fill="rgb(8,61,136)"/>
<polygon points="177.4,359.6 185.4,359.6 185.4,367.6 177.4,367.6" fill="rgb(40,184,144)"/>
<polygon points="185.4,359.6 193.4,359.6 193.4,367.6 185.4,367.6" fill="rgb(48,217,145)"/>
<polygon points="193.4,359.6 201.4,359.6 201.4,367.6 193.4,367.6" fill="rgb(7,57,136)"/>
<polygon points="211.4,359.6 219.4,359.6 219.4,367.6 211.4,367.6" fill="rgb(255,255,255)"/>
<polygon points="219.4,359.6 227.4,359.6 227.4,367.6 219.4,367.6" fill="rgb(255,255,255)"/>
<polygon points="227.4,359.6 235.4,359.6 235.4,367.6 227.4,367.6" fill="rgb(255,255,255)"/>
<polygon points="235.4,359.6 243.4,359.6 243.4,367.6 235.4,367.6" fill="rgb(255,255,255)"/>
<polygon points="243.4,359.6 251.4,359.6 251.4,367.6 243.4,367.6" fill="rgb(255,255,255)"/>
<polygon points="251.4,359.6 259.4,359.6 259.4,367.6 251.4,367.6" fill="rgb(255,255,255)"/>
<polygon points="259.4,359.6 267.4,359.6 267.4,367.6 259.4,367.6" fill="rgb(255,255,255)"/>
<polygon points="267.4,359.6 275.4,359.6 275.4,367.6 267.4,367.6" fill="rgb(255,255,255)"/>
<polygon points="127.4,367.6 135.4,367.6 135.4,375.6 127.4,375.6" fill="rgb(127,230,0)"/><text xml:space="preserve" x="131.4" y="374.433" font-family="Calibri" font-size="7.5" fill="rgb(0,0,0)" text-anchor="middle">2</text>
<polygon points="135.4,367.6 143.4,367.6 143.4,375.6 135.4,375.6" fill="rgb(230,127,0)"/><text xml:space="preserve" x="139.4" y="374.433" font-family="Calibri" font-size="7.5" fill="rgb(0,0,0)" text-anchor="middle">4</text>
<polygon points="143.4,367.6 151.4,367.6 151.4,375.6 143.4,375.6" fill="rgb(230,127,0)"/><text xml:space="preserve" x="147.4" y="374.433" font-family="Calibri" font-size="7.5" fill="rgb(0,0,0)" text-anchor="middle">4</text>
<polygon points="151.4,367.6 159.4,367.6 159.4,375.6 151.4,375.6" fill="rgb(0,205,0)"/><text xml:space="preserve" x="155.4" y="374.433" font-family="Calibri" font-size="7.5" fill="rgb(255,255,255)" text-anchor="middle">1</text>
<polygon points="169.4,367.6 177.4,367.6 177.4,375.6 169.4,375.6" fill="rgb(13,80,138)"/>
<polygon points="177.4,367.6 185.4,367.6 185.4,375.6 177.4,375.6" fill="rgb(42,192,144)"/>
<polygon points="185.4,367.6 193.4,367.6 193.4,375.6 185.4,375.6" fill="rgb(29,142,141)"/>
<polygon points="193.4,367.6 201.4,367.6 201.4,375.6 193.4,375.6" fill="rgb(3,39,135)"/>
<polygon points="211.4,367.6 219.4,367.6 219.4,375.6 211.4,375.6" fill="rgb(255,255,255)"/>
<polygon points="219.4,367.6 227.4,367.6 227.4,375.6 219.4,375.6" fill="rgb(255,255,255)"/>
<polygon points="227.4,367.6 235.4,367.6 235.4,375.6 227.4,375.6" fill="rgb(255,255,255)"/>
<polygon points="235.4,367.6 243.4,367.6 243.4,375.6 235.4,375.6" fill="rgb(255,255,255)"/>
<polygon points="243.4,367.6 251.4,367.6 251.4,375.6 243.4,375.6" fill="rgb(255,255,255)"/>
<polygon points="251.4,367.6 259.4,367.6 259.4,375.6 251.4,375.6" fill="rgb(255,255,255)"/>
<polygon points="259.4,367.6 267.4,367.6 267.4,375.6 259.4,375.6" fill="rgb(255,255,255)"/>
<polygon points="267.4,367.6 275.4,367.6 275.4,375.6 267.4,375.6" fill="rgb(255,255,255)"/>
<polygon points="127.4,375.6 135.4,375.6 135.4,383.6 127.4,383.6" fill="rgb(127,230,0)"/><text xml:space="preserve" x="131.4" y="382.433" font-family="Calibri" font-size="7.5" fill="rgb(0,0,0)" text-anchor="middle">2</text>
<polygon points="135.4,375.6 143.4,375.6 143.4,383.6 135.4,383.6" fill="rgb(230,127,0)"/><text xml:space="preserve" x="139.4" y="382.433" font-family="Calibri" font-size="7.5" fill="rgb(0,0,0)" text-anchor="middle">4</text>
<polygon points="143.4,375.6 151.4,375.6 151.4,383.6 143.4,383.6" fill="rgb(230,127,0)"/><text xml:space="preserve" x="147.4" y="382.433" font-family="Calibri" font-size="7.5" fill="rgb(0,0,0)" text-anchor="middle">4</text>
<polygon points="151.4,375.6 159.4,375.6 159.4,383.6 151.4,383.6" fill="rgb(0,205,0)"/><text xml:space="preserve" x="155.4" y="382.433" font-family="Calibri" font-size="7.5" fill="rgb(255,255,255)" text-anchor="middle">1</text>
<polygon points="169.4,375.6 177.4,375.6 177.4,383.6 169.4,383.6" fill="rgb(8,60,136)"/>
<polygon points="177.4,375.6 185.4,375.6 185.4,383.6 177.4,383.6" fill="rgb(30,147,141)"/>
<polygon points="185.4,375.6 193.4,375.6 193.4,383.6 185.4,383.6" fill="rgb(24,123,140)"/>
<polygon points="193.4,375.6 201.4,375.6 201.4,383.6 193.4,383.6" fill="rgb(0,27,135)"/>
<polygon points="211.4,375.6 219.4,375.6 219.4,383.6 211.4,383.6" fill="rgb(205,0,205)"/>
<polygon points="219.4,375.6 227.4,375.6 227.4,383.6 219.4,383.6" fill="rgb(255,255,255)"/>
<polygon points="227.4,375.6 235.4,375.6 235.4,383.6 227.4,383.6" fill="rgb(255,255,255)"/>
<polygon points="235.4,375.6 243.4,375.6 243.4,383.6 235.4,383.6" fill="rgb(255,255,255)"/>
<polygon points="243.4,375.6 251.4,375.6 251.4,383.6 243.4,383.6" fill="rgb(255,255,255)"/>
<polygon points="251.4,375.6 259.4,375.6 259.4,383.6 251.4,383.6" fill="rgb(255,255,255)"/>
<polygon points="259.4,375.6 267.4,375.6 267.4,383.6 259.4,383.6" fill="rgb(255,255,255)"/>
<polygon points="267.4,375.6 275.4,375.6 275.4,383.6 267.4,383.6" fill="rgb(255,255,255)"/>
<polygon points="127.4,383.6 135.4,383.6 135.4,391.6 127.4,391.6" fill="rgb(127,230,0)"/><text xml:space="preserve" x="131.4" y="390.433" font-family="Calibri" font-size="7.5" fill="rgb(0,0,0)" text-anchor="middle">2</text>
<polygon points="135.4,383.6 143.4,383.6 143.4,391.6 135.4,391.6" fill="rgb(230,127,0)"/><text xml:space="preserve" x="139.4" y="390.433" font-family="Calibri" font-size="7.5" fill="rgb(0,0,0)" text-anchor="middle">4</text>
<polygon points="143.4,383.6 151.4,383.6 151.4,391.6 143.4,391.6" fill="rgb(230,127,0)"/><text xml:space="preserve" x="147.4" y="390.433" font-family="Calibri" font-size="7.5" fill="rgb(0,0,0)" text-anchor="middle">4</text>
<polygon points="151.4,383.6 159.4,383.6 159.4,391.6 151.4,391.6" fill="rgb(0,205,0)"/><text xml:space="preserve" x="155.4" y="390.433" font-family="Calibri" font-size="7.5" fill="rgb(255,255,255)" text-anchor="middle">1</text>
<polygon points="169.4,383.6 177.4,383.6 177.4,391.6 169.4,391.6" fill="rgb(13,80,138)"/>
<polygon points="177.4,383.6 185.4,383.6 185.4,391.6 177.4,391.6" fill="rgb(43,197,144)"/>
<polygon points="185.4,383.6 193.4,383.6 193.4,391.6 185.4,391.6" fill="rgb(20,108,139)"/>
<polygon points="193.4,383.6 201.4,383.6 201.4,391.6 193.4,391.6" fill="rgb(3,41,135)"/>
<polygon points="211.4,383.6 219.4,383.6 219.4,391.6 211.4,391.6" fill="rgb(255,255,255)"/>
<polygon points="219.4,383.6 227.4,383.6 227.4,391.6 219.4,391.6" fill="rgb(255,255,255)"/>
<polygon points="227.4,383.6 235.4,383.6 235.4,391.6 227.4,391.6" fill="rgb(255,255,255)"/>
<polygon points="235.4,383.6 243.4,383.6 243.4,391.6 235.4,391.6" fill="rgb(255,255,255)"/>
<polygon points="243.4,383.6 251.4,383.6 251.4,391.6 243.4,391.6" fill="rgb(255,255,255)"/>
<polygon points="251.4,383.6 259.4,383.6 259.4,391.6 251.4,391.6" fill="rgb(255,255,255)"/>
<polygon points="259.4,383.6 267.4,383.6 267.4,391.6 259.4,391.6" fill="rgb(255,255,255)"/>
<polygon points="267.4,383.6 275.4,383.6 275.4,391.6 267.4,391.6" fill="rgb(255,255,255)"/>
<polygon points="127.4,335.6 159.4,335.6 159.4,391.6 127.4,391.6" fill="none" stroke="black" stroke-width="1"/>
<polygon points="169.4,335.6 201.4,335.6 201.4,391.6 169.4,391.6" fill="none" stroke="black" stroke-width="1"/>
<polygon points="211.4,335.6 275.4,335.6 275.4,391.6 211.4,391.6" fill="none" stroke="black" stroke-width="1"/>
<text xml:space="preserve" x="147.7" y="424.6" font-family="Calibri" font-size="8" text-anchor="middle">ClusterAssignment</text>
<polygon points="97.7,431.6 117.7,431.6 117.7,451.6 97.7,451.6" fill="rgb(0,205,0)"/><polygon points="97.7,431.6 117.7,431.6 117.7,451.6 97.7,451.6" fill="none" stroke="black" stroke-width="1"/><text xml:space="preserve" x="107.7" y="444.433" font-family="Calibri" font-size="7.5" fill="rgb(255,255,255)" text-anchor="middle">1.0</text>
<polygon points="117.7,431.6 137.7,431.6 137.7,451.6 117.7,451.6" fill="rgb(127,230,0)"/><polygon points="117.7,431.6 137.7,431.6 137.7,451.6 117.7,451.6" fill="none" stroke="black" stroke-width="1"/><text xml:space="preserve" x="127.7" y="444.433" font-family="Calibri" font-size="7.5" fill="rgb(0,0,0)" text-anchor="middle">2.0</text>
<polygon points="137.7,431.6 157.7,431.6 157.7,451.6 137.7,451.6" fill="rgb(255,255,0)"/><polygon points="137.7,431.6 157.7,431.6 157.7,451.6 137.7,451.6" fill="none" stroke="black" stroke-width="1"/><text xml:space="preserve" x="147.7" y="444.433" font-family="Calibri" font-size="7.5" fill="rgb(0,0,0)" text-anchor="middle">3.0</text>
<polygon points="157.7,431.6 177.7,431.6 177.7,451.6 157.7,451.6" fill="rgb(230,127,0)"/><polygon points="157.7,431.6 177.7,431.6 177.7,451.6 157.7,451.6" fill="none" stroke="black" stroke-width="1"/><text xml:space="preserve" x="167.7" y="444.433" font-family="Calibri" font-size="7.5" fill="rgb(0,0,0)" text-anchor="middle">4.0</text>
<polygon points="177.7,431.6 197.7,431.6 197.7,451.6 177.7,451.6" fill="rgb(205,0,0)"/><polygon points="177.7,431.6 197.7,431.6 197.7,451.6 177.7,451.6" fill="none" stroke="black" stroke-width="1"/><text xml:space="preserve" x="187.7" y="444.433" font-family="Calibri" font-size="7.5" fill="rgb(255,255,255)" text-anchor="middle">5.0</text>
<text xml:space="preserve" x="147.7" y="484.6" font-family="Calibri" font-size="8" text-anchor="middle">Expression</text>
<polygon points="97.7,491.6 117.7,491.6 117.7,511.6 97.7,511.6" fill="rgb(0,27,135)"/><polygon points="97.7,491.6 117.7,491.6 117.7,511.6 97.7,511.6" fill="none" stroke="black" stroke-width="1"/><text xml:space="preserve" x="107.7" y="504.433" font-family="Calibri" font-size="7.5" fill="rgb(255,255,255)" text-anchor="middle">0.0</text>
<polygon points="117.7,491.6 137.7,491.6 137.7,511.6 117.7,511.6" fill="rgb(24,123,140)"/><polygon points="117.7,491.6 137.7,491.6 137.7,511.6 117.7,511.6" fill="none" stroke="black" stroke-width="1"/><text xml:space="preserve" x="127.7" y="504.433" font-family="Calibri" font-size="7.5" fill="rgb(255,255,255)" text-anchor="middle">0.8</text>
<polygon points="137.7,491.6 157.7,491.6 157.7,511.6 137.7,511.6" fill="rgb(49,219,146)"/><polygon points="137.7,491.6 157.7,491.6 157.7,511.6 137.7,511.6" fill="none" stroke="black" stroke-width="1"/><text xml:space="preserve" x="147.7" y="504.433" font-family="Calibri" font-size="7.5" fill="rgb(0,0,0)" text-anchor="middle">1.5</text>
<polygon points="157.7,491.6 177.7,491.6 177.7,511.6 157.7,511.6" fill="rgb(150,206,73)"/><polygon points="157.7,491.6 177.7,491.6 177.7,511.6 157.7,511.6" fill="none" stroke="black" stroke-width="1"/><text xml:space="preserve" x="167.7" y="504.433" font-family="Calibri" font-size="7.5" fill="rgb(0,0,0)" text-anchor="middle">2.2</text>
<polygon points="177.7,491.6 197.7,491.6 197.7,511.6 177.7,511.6" fill="rgb(252,194,1)"/><polygon points="177.7,491.6 197.7,491.6 197.7,511.6 177.7,511.6" fill="none" stroke="black" stroke-width="1"/><text xml:space="preserve" x="187.7" y="504.433" font-family="Calibri" font-size="7.5" fill="rgb(0,0,0)" text-anchor="middle">3.0</text>
<text xml:space="preserve" x="147.7" y="544.6" font-family="Calibri" font-size="8" text-anchor="middle">PANTHERclass</text>
<polygon points="97.7,551.6 117.7,551.6 117.7,571.6 97.7,571.6" fill="rgb(255,255,255)"/><polygon points="97.7,551.6 117.7,551.6 117.7,571.6 97.7,571.6" fill="none" stroke="black" stroke-width="1"/><text xml:space="preserve" x="107.7" y="564.433" font-family="Calibri" font-size="7.5" fill="rgb(0,0,0)" text-anchor="middle">0.0</text>
<polygon points="117.7,551.6 137.7,551.6 137.7,571.6 117.7,571.6" fill="rgb(242,191,242)"/><polygon points="117.7,551.6 137.7,551.6 137.7,571.6 117.7,571.6" fill="none" stroke="black" stroke-width="1"/><text xml:space="preserve" x="127.7" y="564.433" font-family="Calibri" font-size="7.5" fill="rgb(0,0,0)" text-anchor="middle">0.2</text>
<polygon points="137.7,551.6 157.7,551.6 157.7,571.6 137.7,571.6" fill="rgb(230,127,230)"/><polygon points="137.7,551.6 157.7,551.6 157.7,571.6 137.7,571.6" fill="none" stroke="black" stroke-width="1"/><text xml:space="preserve" x="147.7" y="564.433" font-family="Calibri" font-size="7.5" fill="rgb(0,0,0)" text-anchor="middle">0.5</text>
<polygon points="157.7,551.6 177.7,551.6 177.7,571.6 157.7,571.6" fill="rgb(217,63,217)"/><polygon points="157.7,551.6 177.7,551.6 177.7,571.6 157.7,571.6" fill="none" stroke="black" stroke-width="1"/><text xml:space="preserve" x="167.7" y="564.433" font-family="Calibri" font-size="7.5" fill="rgb(255,255,255)" text-anchor="middle">0.8</text>
<polygon points="177.7,551.6 197.7,551.6 197.7,571.6 177.7,571.6" fill="rgb(205,0,205)"/><polygon points="177.7,551.6 197.7,551.6 197.7,571.6 177.7,571.6" fill="none" stroke="black" stroke-width="1"/><text xml:space="preserve" x="187.7" y="564.433" font-family="Calibri" font-size="7.5" fill="rgb(255,255,255)" text-anchor="middle">1.0</text>
</svg>
