<?xml version="1.0" standalone="no"?><!DOCTYPE svg PUBLIC "-//W3C//DTD SVG 1.1//EN" "http://www.w3.org/Graphics/SVG/1.1/DTD/svg11.dtd">
<svg width="259.1" height="583.6" version="1.1" xmlns="http://www.w3.org/2000/svg">
<text xml:space="preserve" x="87.1" y="342.6" font-family="Calibri" font-size="8" text-anchor="end">AR</text>
<text xml:space="preserve" x="87.1" y="350.6" font-family="Calibri" font-size="8" text-anchor="end">LRTM2</text>
<text xml:space="preserve" x="87.1" y="358.6" font-family="Calibri" font-size="8" text-anchor="end">SLITRK2</text>
<text xml:space="preserve" x="87.1" y="366.6" font-family="Calibri" font-size="8" text-anchor="end">FOXA2</text>
<text xml:space="preserve" x="87.1" y="374.6" font-family="Calibri" font-size="8" text-anchor="end">RORB</text>
<text xml:space="preserve" x="87.1" y="382.6" font-family="Calibri" font-size="8" text-anchor="end">MRC1</text>
<text xml:space="preserve" x="98.1" y="331.6" font-family="Calibri" font-size="8" transform="rotate(270 98.1 331.6)">c1</text>
<text xml:space="preserve" x="106.1" y="331.6" font-family="Calibri" font-size="8" transform="rotate(270 106.1 331.6)">c3</text>
<text xml:space="preserve" x="114.1" y="331.6" font-family="Calibri" font-size="8" transform="rotate(270 114.1 331.6)">c4</text>
<text xml:space="preserve" x="122.1" y="331.6" font-family="Calibri" font-size="8" transform="rotate(270 122.1 331.6)">c2</text>
<text xml:space="preserve" x="140.1" y="331.6" font-family="Calibri" font-size="8" transform="rotate(270 140.1 331.6)">c1_mean</text>
<text xml:space="preserve" x="148.1" y="331.6" font-family="Calibri" font-size="8" transform="rotate(270 148.1 331.6)">c3_mean</text>
<text xml:space="preserve" x="156.1" y="331.6" font-family="Calibri" font-size="8" transform="rotate(270 156.1 331.6)">c4_mean</text>
<text xml:space="preserve" x="164.1" y="331.6" font-family="Calibri" font-size="8" transform="rotate(270 164.1 331.6)">c2_mean</text>
<text xml:space="preserve" x="182.1" y="331.6" font-family="Calibri" font-size="8" transform="rotate(270 182.1 331.6)">transcription_factor</text>
<text xml:space="preserve" x="190.1" y="331.6" font-family="Calibri" font-size="8" transform="rotate(270 190.1 331.6)">transmembrane_signal_receptor</text>
<text xml:space="preserve" x="198.1" y="331.6" font-family="Calibri" font-size="8" transform="rotate(270 198.1 331.6)">growth_factor</text>
<text xml:space="preserve" x="206.1" y="331.6" font-family="Calibri" font-size="8" transform="rotate(270 206.1 331.6)">peptide_hormone</text>
<text xml:space="preserve" x="214.1" y="331.6" font-family="Calibri" font-size="8" transform="rotate(270 214.1 331.6)">cytoskeletal_protein</text>
<text xml:space="preserve" x="222.1" y="331.6" font-family="Calibri" font-size="8" transform="rotate(270 222.1 331.6)">ion_channel</text>
<text xml:space="preserve" x="230.1" y="331.6" font-family="Calibri" font-size="8" transform="rotate(270 230.1 331.6)">integrin</text>
<text xml:space="preserve" x="238.1" y="331.6" font-family="Calibri" font-size="8" transform="rotate(270 238.1 331.6)">extracellular_matrix_protein</text>
<polygon points="91.1,335.6 99.1,335.6 99.1,343.6 91.1,343.6" fill="rgb(0,205,0)"/><text xml:space="preserve" x="95.1" y="342.433" font-family="Calibri" font-size="7.5" fill="rgb(255,255,255)" text-anchor="middle">1</text>
<polygon points="99.1,335.6 107.1,335.6 107.1,343.6 99.1,343.6" fill="rgb(0,205,0)"/><text xml:space="preserve" x="103.1" y="342.433" font-family="Calibri" font-size="7.5" fill="rgb(255,255,255)" text-anchor="middle">1</text>
<polygon points="107.1,335.6 115.1,335.6 115.1,343.6 107.1,343.6" fill="rgb(230,127,0)"/><text xml:space="preserve" x="111.1" y="342.433" font-family="Calibri" font-size="7.5" fill="rgb(0,0,0)" text-anchor="middle">4</text>
<polygon points="115.1,335.6 123.1,335.6 123.1,343.6 115.1,343.6" fill="rgb(230,127,0)"/><text xml:space="preserve" x="119.1" y="342.433" font-family="Calibri" font-size="7.5" fill="rgb(0,0,0)" text-anchor="middle">4</text>
<polygon points="133.1,335.6 141.1,335.6 141.1,343.6 133.1,343.6" fill="rgb(3,41,135)"/>
<polygon points="141.1,335.6 149.1,335.6 149.1,343.6 141.1,343.6" fill="rgb(4,44,136)"/>
<polygon points="149.1,335.6 157.1,335.6 157.1,343.6 149.1,343.6" fill="rgb(35,166,142)"/>
<polygon points="157.1,335.6 165.1,335.6 165.1,343.6 157.1,343.6" fill="rgb(19,103,139)"/>
<polygon points="175.1,335.6 183.1,335.6 183.1,343.6 175.1,343.6" fill="rgb(205,0,205)"/>
<polygon points="183.1,335.6 191.1,335.6 191.1,343.6 183.1,343.6" fill="rgb(255,255,255)"/>
<polygon points="191.1,335.6 199.1,335.6 199.1,343.6 191.1,343.6" fill="rgb(255,255,255)"/>
<polygon points="199.1,335.6 207.1,335.6 207.1,343.6 199.1,343.6" fill="rgb(255,255,255)"/>
<polygon points="207.1,335.6 215.1,335.6 215.1,343.6 207.1,343.6" fill="rgb(255,255,255)"/>
<polygon points="215.1,335.6 223.1,335.6 223.1,343.6 215.1,343.6" fill="rgb(255,255,255)"/>
<polygon points="223.1,335.6 231.1,335.6 231.1,343.6 223.1,343.6" fill="rgb(255,255,255)"/>
<polygon points="231.1,335.6 239.1,335.6 239.1,343.6 231.1,343.6" fill="rgb(255,255,255)"/>
<polygon points="91.1,343.6 99.1,343.6 99.1,351.6 91.1,351.6" fill="rgb(0,205,0)"/><text xml:space="preserve" x="95.1" y="350.433" font-family="Calibri" font-size="7.5" fill="rgb(255,255,255)" text-anchor="middle">1</text>
<polygon points="99.1,343.6 107.1,343.6 107.1,351.6 99.1,351.6" fill="rgb(0,205,0)"/><text xml:space="preserve" x="103.1" y="350.433" font-family="Calibri" font-size="7.5" fill="rgb(255,255,255)" text-anchor="middle">1</text>
<polygon points="107.1,343.6 115.1,343.6 115.1,351.6 107.1,351.6" fill="rgb(230,127,0)"/><text xml:space="preserve" x="111.1" y="350.433" font-family="Calibri" font-size="7.5" fill="rgb(0,0,0)" text-anchor="middle">4</text>
<polygon points="115.1,343.6 123.1,343.6 123.1,351.6 115.1,351.6" fill="rgb(230,127,0)"/><text xml:space="preserve" x="119.1" y="350.433" font-family="Calibri" font-size="7.5" fill="rgb(0,0,0)" text-anchor="middle">4</text>
<polygon points="133.1,343.6 141.1,343.6 141.1,351.6 133.1,351.6" fill="rgb(3,41,135)"/>
<polygon points="141.1,343.6 149.1,343.6 149.1,351.6 141.1,351.6" fill="rgb(6,51,136)"/>
<polygon points="149.1,343.6 157.1,343.6 157.1,351.6 149.1,351.6" fill="rgb(22,115,140)"/>
<polygon points="157.1,343.6 165.1,343.6 165.1,351.6 157.1,351.6" fill="rgb(24,124,140)"/>
<polygon points="175.1,343.6 183.1,343.6 183.1,351.6 175.1,351.6" fill="rgb(255,255,255)"/>
<polygon points="183.1,343.6 191.1,343.6 191.1,351.6 183.1,351.6" fill="rgb(255,255,255)"/>
<polygon points="191.1,343.6 199.1,343.6 199.1,351.6 191.1,351.6" fill="rgb(255,255,255)"/>
<polygon points="199.1,343.6 207.1,343.6 207.1,351.6 199.1,351.6" fill="rgb(255,255,255)"/>
<polygon points="207.1,343.6 215.1,343.6 215.1,351.6 207.1,351.6" fill="rgb(255,255,255)"/>
<polygon points="215.1,343.6 223.1,343.6 223.1,351.6 215.1,351.6" fill="rgb(255,255,255)"/>
<polygon points="223.1,343.6 231.1,343.6 231.1,351.6 223.1,351.6" fill="rgb(255,255,255)"/>
<polygon points="231.1,343.6 239.1,343.6 239.1,351.6 231.1,351.6" fill="rgb(255,255,255)"/>
<polygon points="91.1,351.6 99.1,351.6 99.1,359.6 91.1,359.6" fill="rgb(0,205,0)"/><text xml:space="preserve" x="95.1" y="358.433" font-family="Calibri" font-size="7.5" fill="rgb(255,255,255)" text-anchor="middle">1</text>
<polygon points="99.1,351.6 107.1,351.6 107.1,359.6 99.1,359.6" fill="rgb(0,205,0)"/><text xml:space="preserve" x="103.1" y="358.433" font-family="Calibri" font-size="7.5" fill="rgb(255,255,255)" text-anchor="middle">1</text>
<polygon points="107.1,351.6 115.1,351.6 115.1,359.6 107.1,359.6" fill="rgb(230,127,0)"/><text xml:space="preserve" x="111.1" y="358.433" font-family="Calibri" font-size="7.5" fill="rgb(0,0,0)" text-anchor="middle">4</text>
<polygon points="115.1,351.6 123.1,351.6 123.1,359.6 115.1,359.6" fill="rgb(230,127,0)"/><text xml:space="preserve" x="119.1" y="358.433" font-family="Calibri" font-size="7.5" fill="rgb(0,0,0)" text-anchor="middle">4</text>
<polygon points="133.1,351.6 141.1,351.6 141.1,359.6 133.1,359.6" fill="rgb(5,50,136)"/>
<polygon points="141.1,351.6 149.1,351.6 149.1,359.6 141.1,359.6" fill="rgb(4,46,136)"/>
<polygon points="149.1,351.6 157.1,351.6 157.1,359.6 149.1,359.6" fill="rgb(20,106,139)"/>
<polygon points="157.1,351.6 165.1,351.6 165.1,359.6 157.1,359.6" fill="rgb(33,157,142)"/>
<polygon points="175.1,351.6 183.1,351.6 183.1,359.6 175.1,359.6" fill="rgb(255,255,255)"/>
<polygon points="183.1,351.6 191.1,351.6 191.1,359.6 183.1,359.6" fill="rgb(255,255,255)"/>
<polygon points="191.1,351.6 199.1,351.6 199.1,359.6 191.1,359.6" fill="rgb(255,255,255)"/>
<polygon points="199.1,351.6 207.1,351.6 207.1,359.6 199.1,359.6" fill="rgb(255,255,255)"/>
<polygon points="207.1,351.6 215.1,351.6 215.1,359.6 207.1,359.6" fill="rgb(255,255,255)"/>
<polygon points="215.1,351.6 223.1,351.6 223.1,359.6 215.1,359.6" fill="rgb(255,255,255)"/>
<polygon points="223.1,351.6 231.1,351.6 231.1,359.6 223.1,359.6" fill="rgb(255,255,255)"/>
<polygon points="231.1,351.6 239.1,351.6 239.1,359.6 231.1,359.6" fill="rgb(255,255,255)"/>
<polygon points="91.1,359.6 99.1,359.6 99.1,367.6 91.1,367.6" fill="rgb(0,205,0)"/><text xml:space="preserve" x="95.1" y="366.433" font-family="Calibri" font-size="7.5" fill="rgb(255,255,255)" text-anchor="middle">1</text>
<polygon points="99.1,359.6 107.1,359.6 107.1,367.6 99.1,367.6" fill="rgb(0,205,0)"/><text xml:space="preserve" x="103.1" y="366.433" font-family="Calibri" font-size="7.5" fill="rgb(255,255,255)" text-anchor="middle">1</text>
<polygon points="107.1,359.6 115.1,359.6 115.1,367.6 107.1,367.6" fill="rgb(230,127,0)"/><text xml:space="preserve" x="111.1" y="366.433" font-family="Calibri" font-size="7.5" fill="rgb(0,0,0)" text-anchor="middle">4</text>
<polygon points="115.1,359.6 123.1,359.6 123.1,367.6 115.1,367.6" fill="rgb(230,127,0)"/><text xml:space="preserve" x="119.1" y="366.433" font-family="Calibri" font-size="7.5" fill="rgb(0,0,0)" text-anchor="middle">4</text>
<polygon points="133.1,359.6 141.1,359.6 141.1,367.6 133.1,367.6" fill="rgb(0,27,135)"/>
<polygon points="141.1,359.6 149.1,359.6 149.1,367.6 141.1,367.6" fill="rgb(8,59,136)"/>
<polygon points="149.1,359.6 157.1,359.6 157.1,367.6 149.1,367.6" fill="rgb(46,207,145)"/>
<polygon points="157.1,359.6 165.1,359.6 165.1,367.6 157.1,367.6" fill="rgb(22,115,140)"/>
<polygon points="175.1,359.6 183.1,359.6 183.1,367.6 175.1,367.6" fill="rgb(205,0,205)"/>
<polygon points="183.1,359.6 191.1,359.6 191.1,367.6 183.1,367.6" fill="rgb(255,255,255)"/>
<polygon points="191.1,359.6 199.1,359.6 199.1,367.6 191.1,367.6" fill="rgb(255,255,255)"/>
<polygon points="199.1,359.6 207.1,359.6 207.1,367.6 199.1,367.6" fill="rgb(255,255,255)"/>
<polygon points="207.1,359.6 215.1,359.6 215.1,367.6 207.1,367.6" fill="rgb(255,255,255)"/>
<polygon points="215.1,359.6 223.1,359.6 223.1,367.6 215.1,367.6" fill="rgb(255,255,255)"/>
<polygon points="223.1,359.6 231.1,359.6 231.1,367.6 223.1,367.6" fill="rgb(255,255,255)"/>
<polygon points="231.1,359.6 239.1,359.6 239.1,367.6 231.1,367.6" fill="rgb(255,255,255)"/>
<polygon points="91.1,367.6 99.1,367.6 99.1,375.6 91.1,375.6" fill="rgb(0,205,0)"/><text xml:space="preserve" x="95.1" y="374.433" font-family="Calibri" font-size="7.5" fill="rgb(255,255,255)" text-anchor="middle">1</text>
<polygon points="99.1,367.6 107.1,367.6 107.1,375.6 99.1,375.6" fill="rgb(0,205,0)"/><text xml:space="preserve" x="103.1" y="374.433" font-family="Calibri" font-size="7.5" fill="rgb(255,255,255)" text-anchor="middle">1</text>
<polygon points="107.1,367.6 115.1,367.6 115.1,375.6 107.1,375.6" fill="rgb(230,127,0)"/><text xml:space="preserve" x="111.1" y="374.433" font-family="Calibri" font-size="7.5" fill="rgb(0,0,0)" text-anchor="middle">4</text>
<polygon points="115.1,367.6 123.1,367.6 123.1,375.6 115.1,375.6" fill="rgb(230,127,0)"/><text xml:space="preserve" x="119.1" y="374.433" font-family="Calibri" font-size="7.5" fill="rgb(0,0,0)" text-anchor="middle">4</text>
<polygon points="133.1,367.6 141.1,367.6 141.1,375.6 133.1,375.6" fill="rgb(2,38,135)"/>
<polygon points="141.1,367.6 149.1,367.6 149.1,375.6 141.1,375.6" fill="rgb(11,73,137)"/>
<polygon points="149.1,367.6 157.1,367.6 157.1,375.6 149.1,375.6" fill="rgb(29,143,141)"/>
<polygon points="157.1,367.6 165.1,367.6 165.1,375.6 157.1,375.6" fill="rgb(20,107,139)"/>
<polygon points="175.1,367.6 183.1,367.6 183.1,375.6 175.1,375.6" fill="rgb(205,0,205)"/>
<polygon points="183.1,367.6 191.1,367.6 191.1,375.6 183.1,375.6" fill="rgb(255,255,255)"/>
<polygon points="191.1,367.6 199.1,367.6 199.1,375.6 191.1,375.6" fill="rgb(255,255,255)"/>
<polygon points="199.1,367.6 207.1,367.6 207.1,375.6 199.1,375.6" fill="rgb(255,255,255)"/>
<polygon points="207.1,367.6 215.1,367.6 215.1,375.6 207.1,375.6" fill="rgb(255,255,255)"/>
<polygon points="215.1,367.6 223.1,367.6 223.1,375.6 215.1,375.6" fill="rgb(255,255,255)"/>
<polygon points="223.1,367.6 231.1,367.6 231.1,375.6 223.1,375.6" fill="rgb(255,255,255)"/>
<polygon points="231.1,367.6 239.1,367.6 239.1,375.6 231.1,375.6" fill="rgb(255,255,255)"/>
<polygon points="91.1,375.6 99.1,375.6 99.1,383.6 91.1,383.6" fill="rgb(0,205,0)"/><text xml:space="preserve" x="95.1" y="382.433" font-family="Calibri" font-size="7.5" fill="rgb(255,255,255)" text-anchor="middle">1</text>
<polygon points="99.1,375.6 107.1,375.6 107.1,383.6 99.1,383.6" fill="rgb(0,205,0)"/><text xml:space="preserve" x="103.1" y="382.433" font-family="Calibri" font-size="7.5" fill="rgb(255,255,255)" text-anchor="middle">1</text>
<polygon points="107.1,375.6 115.1,375.6 115.1,383.6 107.1,383.6" fill="rgb(230,127,0)"/><text xml:space="preserve" x="111.1" y="382.433" font-family="Calibri" font-size="7.5" fill="rgb(0,0,0)" text-anchor="middle">4</text>
<polygon points="115.1,375.6 123.1,375.6 123.1,383.6 115.1,383.6" fill="rgb(230,127,0)"/><text xml:space="preserve" x="119.1" y="382.433" font-family="Calibri" font-size="7.5" fill="rgb(0,0,0)" text-anchor="middle">4</text>
<polygon points="133.1,375.6 141.1,375.6 141.1,383.6 133.1,383.6" fill="rgb(8,59,136)"/>
<polygon points="141.1,375.6 149.1,375.6 149.1,383.6 141.1,383.6" fill="rgb(7,57,136)"/>
<polygon points="149.1,375.6 157.1,375.6 157.1,383.6 149.1,383.6" fill="rgb(29,143,141)"/>
<polygon points="157.1,375.6 165.1,375.6 165.1,383.6 157.1,383.6" fill="rgb(36,169,143)"/>
<polygon points="175.1,375.6 183.1,375.6 183.1,383.6 175.1,383.6" fill="rgb(255,255,255)"/>
<polygon points="183.1,375.6 191.1,375.6 191.1,383.6 183.1,383.6" fill="rgb(205,0,205)"/>
<polygon points="191.1,375.6 199.1,375.6 199.1,383.6 191.1,383.6" fill="rgb(255,255,255)"/>
<polygon points="199.1,375.6 207.1,375.6 207.1,383.6 199.1,383.6" fill="rgb(255,255,255)"/>
<polygon points="207.1,375.6 215.1,375.6 215.1,383.6 207.1,383.6" fill="rgb(255,255,255)"/>
<polygon points="215.1,375.6 223.1,375.6 223.1,383.6 215.1,383.6" fill="rgb(255,255,255)"/>
<polygon points="223.1,375.6 231.1,375.6 231.1,383.6 223.1,383.6" fill="rgb(255,255,255)"/>
<polygon points="231.1,375.6 239.1,375.6 239.1,383.6 231.1,383.6" fill="rgb(255,255,255)"/>
<polygon points="91.1,335.6 123.1,335.6 123.1,383.6 91.1,383.6" fill="none" stroke="black" stroke-width="1"/>
<polygon points="133.1,335.6 165.1,335.6 165.1,383.6 133.1,383.6" fill="none" stroke="black" stroke-width="1"/>
<polygon points="175.1,335.6 239.1,335.6 239.1,383.6 175.1,383.6" fill="none" stroke="black" stroke-width="1"/>
<text xml:space="preserve" x="129.55" y="416.6" font-family="Calibri" font-size="8" text-anchor="middle">ClusterAssignment</text>
<polygon points="79.55,423.6 99.55,423.6 99.55,443.6 79.55,443.6" fill="rgb(0,205,0)"/><polygon points="79.55,423.6 99.55,423.6 99.55,443.6 79.55,443.6" fill="none" stroke="black" stroke-width="1"/><text xml:space="preserve" x="89.55" y="436.433" font-family="Calibri" font-size="7.5" fill="rgb(255,255,255)" text-anchor="middle">1.0</text>
<polygon points="99.55,423.6 119.55,423.6 119.55,443.6 99.55,443.6" fill="rgb(127,230,0)"/><polygon points="99.55,423.6 119.55,423.6 119.55,443.6 99.55,443.6" fill="none" stroke="black" stroke-width="1"/><text xml:space="preserve" x="109.55" y="436.433" font-family="Calibri" font-size="7.5" fill="rgb(0,0,0)" text-anchor="middle">2.0</text>
<polygon points="119.55,423.6 139.55,423.6 139.55,443.6 119.55,443.6" fill="rgb(255,255,0)"/><polygon points="119.55,423.6 139.55,423.6 139.55,443.6 119.55,443.6" fill="none" stroke="black" stroke-width="1"/><text xml:space="preserve" x="129.55" y="436.433" font-family="Calibri" font-size="7.5" fill="rgb(0,0,0)" text-anchor="middle">3.0</text>
<polygon points="139.55,423.6 159.55,423.6 159.55,443.6 139.55,443.6" fill="rgb(230,127,0)"/><polygon points="139.55,423.6 159.55,423.6 159.55,443.6 139.55,443.6" fill="none" stroke="black" stroke-width="1"/><text xml:space="preserve" x="149.55" y="436.433" font-family="Calibri" font-size="7.5" fill="rgb(0,0,0)" text-anchor="middle">4.0</text>
<polygon points="159.55,423.6 179.55,423.6 179.55,443.6 159.55,443.6" fill="rgb(205,0,0)"/><polygon points="159.55,423.6 179.55,423.6 179.55,443.6 159.55,443.6" fill="none" stroke="black" stroke-width="1"/><text xml:space="preserve" x="169.55" y="436.433" font-family="Calibri" font-size="7.5" fill="rgb(255,255,255)" text-anchor="middle">5.0</text>
<text xml:space="preserve" x="129.55" y="476.6" font-family="Calibri" font-size="8" text-anchor="middle">Expression</text>
<polygon points="79.55,483.6 99.55,483.6 99.55,503.6 79.55,503.6" fill="rgb(0,27,135)"/><polygon points="79.55,483.6 99.55,483.6 99.55,503.6 79.55,503.6" fill="none" stroke="black" stroke-width="1"/><text xml:space="preserve" x="89.55" y="496.433" font-family="Calibri" font-size="7.5" fill="rgb(255,255,255)" text-anchor="middle">0.0</text>
<polygon points="99.55,483.6 119.55,483.6 119.55,503.6 99.55,503.6" fill="rgb(24,123,140)"/><polygon points="99.55,483.6 119.55,483.6 119.55,503.6 99.55,503.6" fill="none" stroke="black" stroke-width="1"/><text xml:space="preserve" x="109.55" y="496.433" font-family="Calibri" font-size="7.5" fill="rgb(255,255,255)" text-anchor="middle">0.8</text>
<polygon points="119.55,483.6 139.55,483.6 139.55,503.6 119.55,503.6" fill="rgb(49,219,146)"/><polygon points="119.55,483.6 139.55,483.6 139.55,503.6 119.55,503.6" fill="none" stroke="black" stroke-width="1"/><text xml:space="preserve" x="129.55" y="496.433" font-family="Calibri" font-size="7.5" fill="rgb(0,0,0)" text-anchor="middle">1.5</text>
<polygon points="139.55,483.6 159.55,483.6 159.55,503.6 139.55,503.6" fill="rgb(150,206,73)"/><polygon points="139.55,483.6 159.55,483.6 159.55,503.6 139.55,503.6" fill="none" stroke="black" stroke-width="1"/><text xml:space="preserve" x="149.55" y="496.433" font-family="Calibri" font-size="7.5" fill="rgb(0,0,0)" text-anchor="middle">2.2</text>
<polygon points="159.55,483.6 179.55,483.6 179.55,503.6 159.55,503.6" fill="rgb(252,194,1)"/><polygon points="159.55,483.6 179.55,483.6 179.55,503.6 159.55,503.6" fill="none" stroke="black" stroke-width="1"/><text xml:space="preserve" x="169.55" y="496.433" font-family="Calibri" font-size="7.5" fill="rgb(0,0,0)" text-anchor="middle">3.0</text>
<text xml:space="preserve" x="129.55" y="536.6" font-family="Calibri" font-size="8" text-anchor="middle">PANTHERclass</text>
<polygon points="79.55,543.6 99.55,543.6 99.55,563.6 79.55,563.6" fill="rgb(255,255,255)"/><polygon points="79.55,543.6 99.55,543.6 99.55,563.6 79.55,563.6" fill="none" stroke="black" stroke-width="1"/><text xml:space="preserve" x="89.55" y="556.433" font-family="Calibri" font-size="7.5" fill="rgb(0,0,0)" text-anchor="middle">0.0</text>
<polygon points="99.55,543.6 119.55,543.6 119.55,563.6 99.55,563.6" fill="rgb(242,191,242)"/><polygon points="99.55,543.6 119.55,543.6 119.55,563.6 99.55,563.6" fill="none" stroke="black" stroke-width="1"/><text xml:space="preserve" x="109.55" y="556.433" font-family="Calibri" font-size="7.5" fill="rgb(0,0,0)" text-anchor="middle">0.2</text>
<polygon points="119.55,543.6 139.55,543.6 139.55,563.6 119.55,563.6" fill="rgb(230,127,230)"/><polygon points="119.55,543.6 139.55,543.6 139.55,563.6 119.55,563.6" fill="none" stroke="black" stroke-width="1"/><text xml:space="preserve" x="129.55" y="556.433" font-family="Calibri" font-size="7.5" fill="rgb(0,0,0)" text-anchor="middle">0.5</text>
<polygon points="139.55,543.6 159.55,543.6 159.55,563.6 139.55,563.6" fill="rgb(217,63,217)"/><polygon points="139.55,543.6 159.55,543.6 159.55,563.6 139.55,563.6" fill="none" stroke="black" stroke-width="1"/><text xml:space="preserve" x="149.55" y="556.433" font-family="Calibri" font-size="7.5" fill="rgb(255,255,255)" text-anchor="middle">0.8</text>
<polygon points="159.55,543.6 179.55,543.6 179.55,563.6 159.55,563.6" fill="rgb(205,0,205)"/><polygon points="159.55,543.6 179.55,543.6 179.55,563.6 159.55,563.6" fill="none" stroke="black" stroke-width="1"/><text xml:space="preserve" x="169.55" y="556.433" font-family="Calibri" font-size="7.5" fill="rgb(255,255,255)" text-anchor="middle">1.0</text>
</svg>
