<?xml version="1.0" standalone="no"?><!DOCTYPE svg PUBLIC "-//W3C//DTD SVG 1.1//EN" "http://www.w3.org/Graphics/SVG/1.1/DTD/svg11.dtd">
<svg width="263.9" height="559.6" version="1.1" xmlns="http://www.w3.org/2000/svg">
<text xml:space="preserve" x="91.9" y="342.6" font-family="Calibri" font-size="8" text-anchor="end">CNTN3</text>
<text xml:space="preserve" x="91.9" y="350.6" font-family="Calibri" font-size="8" text-anchor="end">NDUFA4</text>
<text xml:space="preserve" x="91.9" y="358.6" font-family="Calibri" font-size="8" text-anchor="end">NDUFV2</text>
<text xml:space="preserve" x="102.9" y="331.6" font-family="Calibri" font-size="8" transform="rotate(270 102.9 331.6)">c1</text>
<text xml:space="preserve" x="110.9" y="331.6" font-family="Calibri" font-size="8" transform="rotate(270 110.9 331.6)">c3</text>
<text xml:space="preserve" x="118.9" y="331.6" font-family="Calibri" font-size="8" transform="rotate(270 118.9 331.6)">c4</text>
<text xml:space="preserve" x="126.9" y="331.6" font-family="Calibri" font-size="8" transform="rotate(270 126.9 331.6)">c2</text>
<text xml:space="preserve" x="144.9" y="331.6" font-family="Calibri" font-size="8" transform="rotate(270 144.9 331.6)">c1_mean</text>
<text xml:space="preserve" x="152.9" y="331.6" font-family="Calibri" font-size="8" transform="rotate(270 152.9 331.6)">c3_mean</text>
<text xml:space="preserve" x="160.9" y="331.6" font-family="Calibri" font-size="8" transform="rotate(270 160.9 331.6)">c4_mean</text>
<text xml:space="preserve" x="168.9" y="331.6" font-family="Calibri" font-size="8" transform="rotate(270 168.9 331.6)">c2_mean</text>
<text xml:space="preserve" x="186.9" y="331.6" font-family="Calibri" font-size="8" transform="rotate(270 186.9 331.6)">transcription_factor</text>
<text xml:space="preserve" x="194.9" y="331.6" font-family="Calibri" font-size="8" transform="rotate(270 194.9 331.6)">transmembrane_signal_receptor</text>
<text xml:space="preserve" x="202.9" y="331.6" font-family="Calibri" font-size="8" transform="rotate(270 202.9 331.6)">growth_factor</text>
<text xml:space="preserve" x="210.9" y="331.6" font-family="Calibri" font-size="8" transform="rotate(270 210.9 331.6)">peptide_hormone</text>
<text xml:space="preserve" x="218.9" y="331.6" font-family="Calibri" font-size="8" transform="rotate(270 218.9 331.6)">cytoskeletal_protein</text>
<text xml:space="preserve" x="226.9" y="331.6" font-family="Calibri" font-size="8" transform="rotate(270 226.9 331.6)">ion_channel</text>
<text xml:space="preserve" x="234.9" y="331.6" font-family="Calibri" font-size="8" transform="rotate(270 234.9 331.6)">integrin</text>
<text xml:space="preserve" x="242.9" y="331.6" font-family="Calibri" font-size="8" transform="rotate(270 242.9 331.6)">extracellular_matrix_protein</text>
<polygon points="95.9,335.6 103.9,335.6 103.9,343.6 95.9,343.6" fill="rgb(127,230,0)"/><text xml:space="preserve" x="99.9" y="342.433" font-family="Calibri" font-size="7.5" fill="rgb(0,0,0)" text-anchor="middle">2</text>
<polygon points="103.9,335.6 111.9,335.6 111.9,343.6 103.9,343.6" fill="rgb(230,127,0)"/><text xml:space="preserve" x="107.9" y="342.433" font-family="Calibri" font-size="7.5" fill="rgb(0,0,0)" text-anchor="middle">4</text>
<polygon points="111.9,335.6 119.9,335.6 119.9,343.6 111.9,343.6" fill="rgb(230,127,0)"/><text xml:space="preserve" x="115.9" y="342.433" font-family="Calibri" font-size="7.5" fill="rgb(0,0,0)" text-anchor="middle">4</text>
<polygon points="119.9,335.6 127.9,335.6 127.9,343.6 119.9,343.6" fill="rgb(127,230,0)"/><text xml:space="preserve" x="123.9" y="342.433" font-family="Calibri" font-size="7.5" fill="rgb(0,0,0)" text-anchor="middle">2</text>
<polygon points="137.9,335.6 145.9,335.6 145.9,343.6 137.9,343.6" fill="rgb(7,57,136)"/>
<polygon points="145.9,335.6 153.9,335.6 153.9,343.6 145.9,343.6" fill="rgb(38,178,143)"/>
<polygon points="153.9,335.6 161.9,335.6 161.9,343.6 153.9,343.6" fill="rgb(36,170,143)"/>
<polygon points="161.9,335.6 169.9,335.6 169.9,343.6 161.9,343.6" fill="rgb(15,87,138)"/>
<polygon points="179.9,335.6 187.9,335.6 187.9,343.6 179.9,343.6" fill="rgb(255,255,255)"/>
<polygon points="187.9,335.6 195.9,335.6 195.9,343.6 187.9,343.6" fill="rgb(255,255,255)"/>
<polygon points="195.9,335.6 203.9,335.6 203.9,343.6 195.9,343.6" fill="rgb(255,255,255)"/>
<polygon points="203.9,335.6 211.9,335.6 211.9,343.6 203.9,343.6" fill="rgb(255,255,255)"/>
<polygon points="211.9,335.6 219.9,335.6 219.9,343.6 211.9,343.6" fill="rgb(255,255,255)"/>
<polygon points="219.9,335.6 227.9,335.6 227.9,343.6 219.9,343.6" fill="rgb(255,255,255)"/>
<polygon points="227.9,335.6 235.9,335.6 235.9,343.6 227.9,343.6" fill="rgb(255,255,255)"/>
<polygon points="235.9,335.6 243.9,335.6 243.9,343.6 235.9,343.6" fill="rgb(255,255,255)"/>
<polygon points="95.9,343.6 103.9,343.6 103.9,351.6 95.9,351.6" fill="rgb(127,230,0)"/><text xml:space="preserve" x="99.9" y="350.433" font-family="Calibri" font-size="7.5" fill="rgb(0,0,0)" text-anchor="middle">2</text>
<polygon points="103.9,343.6 111.9,343.6 111.9,351.6 103.9,351.6" fill="rgb(230,127,0)"/><text xml:space="preserve" x="107.9" y="350.433" font-family="Calibri" font-size="7.5" fill="rgb(0,0,0)" text-anchor="middle">4</text>
<polygon points="111.9,343.6 119.9,343.6 119.9,351.6 111.9,351.6" fill="rgb(230,127,0)"/><text xml:space="preserve" x="115.9" y="350.433" font-family="Calibri" font-size="7.5" fill="rgb(0,0,0)" text-anchor="middle">4</text>
<polygon points="119.9,343.6 127.9,343.6 127.9,351.6 119.9,351.6" fill="rgb(127,230,0)"/><text xml:space="preserve" x="123.9" y="350.433" font-family="Calibri" font-size="7.5" fill="rgb(0,0,0)" text-anchor="middle">2</text>
<polygon points="137.9,343.6 145.9,343.6 145.9,351.6 137.9,351.6" fill="rgb(12,76,137)"/>
<polygon points="145.9,343.6 153.9,343.6 153.9,351.6 145.9,351.6" fill="rgb(35,167,143)"/>
<polygon points="153.9,343.6 161.9,343.6 161.9,351.6 153.9,351.6" fill="rgb(40,187,144)"/>
<polygon points="161.9,343.6 169.9,343.6 169.9,351.6 161.9,351.6" fill="rgb(15,85,138)"/>
<polygon points="179.9,343.6 187.9,343.6 187.9,351.6 179.9,351.6" fill="rgb(255,255,255)"/>
<polygon points="187.9,343.6 195.9,343.6 195.9,351.6 187.9,351.6" fill="rgb(255,255,255)"/>
<polygon points="195.9,343.6 203.9,343.6 203.9,351.6 195.9,351.6" fill="rgb(255,255,255)"/>
<polygon points="203.9,343.6 211.9,343.6 211.9,351.6 203.9,351.6" fill="rgb(255,255,255)"/>
<polygon points="211.9,343.6 219.9,343.6 219.9,351.6 211.9,351.6" fill="rgb(255,255,255)"/>
<polygon points="219.9,343.6 227.9,343.6 227.9,351.6 219.9,351.6" fill="rgb(255,255,255)"/>
<polygon points="227.9,343.6 235.9,343.6 235.9,351.6 227.9,351.6" fill="rgb(255,255,255)"/>
<polygon points="235.9,343.6 243.9,343.6 243.9,351.6 235.9,351.6" fill="rgb(255,255,255)"/>
<polygon points="95.9,351.6 103.9,351.6 103.9,359.6 95.9,359.6" fill="rgb(127,230,0)"/><text xml:space="preserve" x="99.9" y="358.433" font-family="Calibri" font-size="7.5" fill="rgb(0,0,0)" text-anchor="middle">2</text>
<polygon points="103.9,351.6 111.9,351.6 111.9,359.6 103.9,359.6" fill="rgb(230,127,0)"/><text xml:space="preserve" x="107.9" y="358.433" font-family="Calibri" font-size="7.5" fill="rgb(0,0,0)" text-anchor="middle">4</text>
<polygon points="111.9,351.6 119.9,351.6 119.9,359.6 111.9,359.6" fill="rgb(230,127,0)"/><text xml:space="preserve" x="115.9" y="358.433" font-family="Calibri" font-size="7.5" fill="rgb(0,0,0)" text-anchor="middle">4</text>
<polygon points="119.9,351.6 127.9,351.6 127.9,359.6 119.9,359.6" fill="rgb(127,230,0)"/><text xml:space="preserve" x="123.9" y="358.433" font-family="Calibri" font-size="7.5" fill="rgb(0,0,0)" text-anchor="middle">2</text>
<polygon points="137.9,351.6 145.9,351.6 145.9,359.6 137.9,359.6" fill="rgb(10,69,137)"/>
<polygon points="145.9,351.6 153.9,351.6 153.9,359.6 145.9,359.6" fill="rgb(31,151,142)"/>
<polygon points="153.9,351.6 161.9,351.6 161.9,359.6 153.9,359.6" fill="rgb(35,167,143)"/>
<polygon points="161.9,351.6 169.9,351.6 169.9,359.6 161.9,359.6" fill="rgb(14,83,138)"/>
<polygon points="179.9,351.6 187.9,351.6 187.9,359.6 179.9,359.6" fill="rgb(255,255,255)"/>
<polygon points="187.9,351.6 195.9,351.6 195.9,359.6 187.9,359.6" fill="rgb(255,255,255)"/>
<polygon points="195.9,351.6 203.9,351.6 203.9,359.6 195.9,359.6" fill="rgb(255,255,255)"/>
<polygon points="203.9,351.6 211.9,351.6 211.9,359.6 203.9,359.6" fill="rgb(255,255,255)"/>
<polygon points="211.9,351.6 219.9,351.6 219.9,359.6 211.9,359.6" fill="rgb(255,255,255)"/>
<polygon points="219.9,351.6 227.9,351.6 227.9,359.6 219.9,359.6" fill="rgb(255,255,255)"/>
<polygon points="227.9,351.6 235.9,351.6 235.9,359.6 227.9,359.6" fill="rgb(255,255,255)"/>
<polygon points="235.9,351.6 243.9,351.6 243.9,359.6 235.9,359.6" fill="rgb(255,255,255)"/>
<polygon points="95.9,335.6 127.9,335.6 127.9,359.6 95.9,359.6" fill="none" stroke="black" stroke-width="1"/>
<polygon points="137.9,335.6 169.9,335.6 169.9,359.6 137.9,359.6" fill="none" stroke="black" stroke-width="1"/>
<polygon points="179.9,335.6 243.9,335.6 243.9,359.6 179.9,359.6" fill="none" stroke="black" stroke-width="1"/>
<text xml:space="preserve" x="131.95" y="392.6" font-family="Calibri" font-size="8" text-anchor="middle">ClusterAssignment</text>
<polygon points="81.95,399.6 101.95,399.6 101.95,419.6 81.95,419.6" fill="rgb(0,205,0)"/><polygon points="81.95,399.6 101.95,399.6 101.95,419.6 81.95,419.6" fill="none" stroke="black" stroke-width="1"/><text xml:space="preserve" x="91.95" y="412.433" font-family="Calibri" font-size="7.5" fill="rgb(255,255,255)" text-anchor="middle">1.0</text>
<polygon points="101.95,399.6 121.95,399.6 121.95,419.6 101.95,419.6" fill="rgb(127,230,0)"/><polygon points="101.95,399.6 121.95,399.6 121.95,419.6 101.95,419.6" fill="none" stroke="black" stroke-width="1"/><text xml:space="preserve" x="111.95" y="412.433" font-family="Calibri" font-size="7.5" fill="rgb(0,0,0)" text-anchor="middle">2.0</text>
<polygon points="121.95,399.6 141.95,399.6 141.95,419.6 121.95,419.6" fill="rgb(255,255,0)"/><polygon points="121.95,399.6 141.95,399.6 141.95,419.6 121.95,419.6" fill="none" stroke="black" stroke-width="1"/><text xml:space="preserve" x="131.95" y="412.433" font-family="Calibri" font-size="7.5" fill="rgb(0,0,0)" text-anchor="middle">3.0</text>
<polygon points="141.95,399.6 161.95,399.6 161.95,419.6 141.95,419.6" fill="rgb(230,127,0)"/><polygon points="141.95,399.6 161.95,399.6 161.95,419.6 141.95,419.6" fill="none" stroke="black" stroke-width="1"/><text xml:space="preserve" x="151.95" y="412.433" font-family="Calibri" font-size="7.5" fill="rgb(0,0,0)" text-anchor="middle">4.0</text>
<polygon points="161.95,399.6 181.95,399.6 181.95,419.6 161.95,419.6" fill="rgb(205,0,0)"/><polygon points="161.95,399.6 181.95,399.6 181.95,419.6 161.95,419.6" fill="none" stroke="black" stroke-width="1"/><text xml:space="preserve" x="171.95" y="412.433" font-family="Calibri" font-size="7.5" fill="rgb(255,255,255)" text-anchor="middle">5.0</text>
<text xml:space="preserve" x="131.95" y="452.6" font-family="Calibri" font-size="8" text-anchor="middle">Expression</text>
<polygon points="81.95,459.6 101.95,459.6 101.95,479.6 81.95,479.6" fill="rgb(0,27,135)"/><polygon points="81.95,459.6 101.95,459.6 101.95,479.6 81.95,479.6" fill="none" stroke="black" stroke-width="1"/><text xml:space="preserve" x="91.95" y="472.433" font-family="Calibri" font-size="7.5" fill="rgb(255,255,255)" text-anchor="middle">0.0</text>
<polygon points="101.95,459.6 121.95,459.6 121.95,479.6 101.95,479.6" fill="rgb(24,123,140)"/><polygon points="101.95,459.6 121.95,459.6 121.95,479.6 101.95,479.6" fill="none" stroke="black" stroke-width="1"/><text xml:space="preserve" x="111.95" y="472.433" font-family="Calibri" font-size="7.5" fill="rgb(255,255,255)" text-anchor="middle">0.8</text>
<polygon points="121.95,459.6 141.95,459.6 141.95,479.6 121.95,479.6" fill="rgb(49,219,146)"/><polygon points="121.95,459.6 141.95,459.6 141.95,479.6 121.95,479.6" fill="none" stroke="black" stroke-width="1"/><text xml:space="preserve" x="131.95" y="472.433" font-family="Calibri" font-size="7.5" fill="rgb(0,0,0)" text-anchor="middle">1.5</text>
<polygon points="141.95,459.6 161.95,459.6 161.95,479.6 141.95,479.6" fill="rgb(150,206,73)"/><polygon points="141.95,459.6 161.95,459.6 161.95,479.6 141.95,479.6" fill="none" stroke="black" stroke-width="1"/><text xml:space="preserve" x="151.95" y="472.433" font-family="Calibri" font-size="7.5" fill="rgb(0,0,0)" text-anchor="middle">2.2</text>
<polygon points="161.95,459.6 181.95,459.6 181.95,479.6 161.95,479.6" fill="rgb(252,194,1)"/><polygon points="161.95,459.6 181.95,459.6 181.95,479.6 161.95,479.6" fill="none" stroke="black" stroke-width="1"/><text xml:space="preserve" x="171.95" y="472.433" font-family="Calibri" font-size="7.5" fill="rgb(0,0,0)" text-anchor="middle">3.0</text>
<text xml:space="preserve" x="131.95" y="512.6" font-family="Calibri" font-size="8" text-anchor="middle">PANTHERclass</text>
<polygon points="81.95,519.6 101.95,519.6 101.95,539.6 81.95,539.6" fill="rgb(255,255,255)"/><polygon points="81.95,519.6 101.95,519.6 101.95,539.6 81.95,539.6" fill="none" stroke="black" stroke-width="1"/><text xml:space="preserve" x="91.95" y="532.433" font-family="Calibri" font-size="7.5" fill="rgb(0,0,0)" text-anchor="middle">0.0</text>
<polygon points="101.95,519.6 121.95,519.6 121.95,539.6 101.95,539.6" fill="rgb(242,191,242)"/><polygon points="101.95,519.6 121.95,519.6 121.95,539.6 101.95,539.6" fill="none" stroke="black" stroke-width="1"/><text xml:space="preserve" x="111.95" y="532.433" font-family="Calibri" font-size="7.5" fill="rgb(0,0,0)" text-anchor="middle">0.2</text>
<polygon points="121.95,519.6 141.95,519.6 141.95,539.6 121.95,539.6" fill="rgb(230,127,230)"/><polygon points="121.95,519.6 141.95,519.6 141.95,539.6 121.95,539.6" fill="none" stroke="black" stroke-width="1"/><text xml:space="preserve" x="131.95" y="532.433" font-family="Calibri" font-size="7.5" fill="rgb(0,0,0)" text-anchor="middle">0.5</text>
<polygon points="141.95,519.6 161.95,519.6 161.95,539.6 141.95,539.6" fill="rgb(217,63,217)"/><polygon points="141.95,519.6 161.95,519.6 161.95,539.6 141.95,539.6" fill="none" stroke="black" stroke-width="1"/><text xml:space="preserve" x="151.95" y="532.433" font-family="Calibri" font-size="7.5" fill="rgb(255,255,255)" text-anchor="middle">0.8</text>
<polygon points="161.95,519.6 181.95,519.6 181.95,539.6 161.95,539.6" fill="rgb(205,0,205)"/><polygon points="161.95,519.6 181.95,519.6 181.95,539.6 161.95,539.6" fill="none" stroke="black" stroke-width="1"/><text xml:space="preserve" x="171.95" y="532.433" font-family="Calibri" font-size="7.5" fill="rgb(255,255,255)" text-anchor="middle">1.0</text>
</svg>
