<?xml version="1.0" standalone="no"?><!DOCTYPE svg PUBLIC "-//W3C//DTD SVG 1.1//EN" "http://www.w3.org/Graphics/SVG/1.1/DTD/svg11.dtd">
<svg width="289" height="599.6" version="1.1" xmlns="http://www.w3.org/2000/svg">
<text xml:space="preserve" x="85" y="342.6" font-family="Calibri" font-size="8" text-anchor="end">BASP1</text>
<text xml:space="preserve" x="85" y="350.6" font-family="Calibri" font-size="8" text-anchor="end">ID4</text>
<text xml:space="preserve" x="85" y="358.6" font-family="Calibri" font-size="8" text-anchor="end">STMN1</text>
<text xml:space="preserve" x="85" y="366.6" font-family="Calibri" font-size="8" text-anchor="end">YWHAE</text>
<text xml:space="preserve" x="85" y="374.6" font-family="Calibri" font-size="8" text-anchor="end">JPT1</text>
<text xml:space="preserve" x="85" y="382.6" font-family="Calibri" font-size="8" text-anchor="end">RPS15</text>
<text xml:space="preserve" x="85" y="390.6" font-family="Calibri" font-size="8" text-anchor="end">H3F3A</text>
<text xml:space="preserve" x="85" y="398.6" font-family="Calibri" font-size="8" text-anchor="end">MAP1B</text>
<text xml:space="preserve" x="96" y="331.6" font-family="Calibri" font-size="8" transform="rotate(270 96 331.6)">c1</text>
<text xml:space="preserve" x="104" y="331.6" font-family="Calibri" font-size="8" transform="rotate(270 104 331.6)">c6</text>
<text xml:space="preserve" x="112" y="331.6" font-family="Calibri" font-size="8" transform="rotate(270 112 331.6)">c3</text>
<text xml:space="preserve" x="120" y="331.6" font-family="Calibri" font-size="8" transform="rotate(270 120 331.6)">c4</text>
<text xml:space="preserve" x="128" y="331.6" font-family="Calibri" font-size="8" transform="rotate(270 128 331.6)">c5</text>
<text xml:space="preserve" x="136" y="331.6" font-family="Calibri" font-size="8" transform="rotate(270 136 331.6)">c2</text>
<text xml:space="preserve" x="154" y="331.6" font-family="Calibri" font-size="8" transform="rotate(270 154 331.6)">c1_mean</text>
<text xml:space="preserve" x="162" y="331.6" font-family="Calibri" font-size="8" transform="rotate(270 162 331.6)">c6_mean</text>
<text xml:space="preserve" x="170" y="331.6" font-family="Calibri" font-size="8" transform="rotate(270 170 331.6)">c3_mean</text>
<text xml:space="preserve" x="178" y="331.6" font-family="Calibri" font-size="8" transform="rotate(270 178 331.6)">c4_mean</text>
<text xml:space="preserve" x="186" y="331.6" font-family="Calibri" font-size="8" transform="rotate(270 186 331.6)">c5_mean</text>
<text xml:space="preserve" x="194" y="331.6" font-family="Calibri" font-size="8" transform="rotate(270 194 331.6)">c2_mean</text>
<text xml:space="preserve" x="212" y="331.6" font-family="Calibri" font-size="8" transform="rotate(270 212 331.6)">transcription_factor</text>
<text xml:space="preserve" x="220" y="331.6" font-family="Calibri" font-size="8" transform="rotate(270 220 331.6)">transmembrane_signal_receptor</text>
<text xml:space="preserve" x="228" y="331.6" font-family="Calibri" font-size="8" transform="rotate(270 228 331.6)">growth_factor</text>
<text xml:space="preserve" x="236" y="331.6" font-family="Calibri" font-size="8" transform="rotate(270 236 331.6)">peptide_hormone</text>
<text xml:space="preserve" x="244" y="331.6" font-family="Calibri" font-size="8" transform="rotate(270 244 331.6)">cytoskeletal_protein</text>
<text xml:space="preserve" x="252" y="331.6" font-family="Calibri" font-size="8" transform="rotate(270 252 331.6)">ion_channel</text>
<text xml:space="preserve" x="260" y="331.6" font-family="Calibri" font-size="8" transform="rotate(270 260 331.6)">integrin</text>
<text xml:space="preserve" x="268" y="331.6" font-family="Calibri" font-size="8" transform="rotate(270 268 331.6)">extracellular_matrix_protein</text>
<polygon points="89,335.6 97,335.6 97,343.6 89,343.6" fill="rgb(127,230,0)"/><text xml:space="preserve" x="93" y="342.433" font-family="Calibri" font-size="7.5" fill="rgb(0,0,0)" text-anchor="middle">2</text>
<polygon points="97,335.6 105,335.6 105,343.6 97,343.6" fill="rgb(127,230,0)"/><text xml:space="preserve" x="101" y="342.433" font-family="Calibri" font-size="7.5" fill="rgb(0,0,0)" text-anchor="middle">2</text>
<polygon points="105,335.6 113,335.6 113,343.6 105,343.6" fill="rgb(127,230,0)"/><text xml:space="preserve" x="109" y="342.433" font-family="Calibri" font-size="7.5" fill="rgb(0,0,0)" text-anchor="middle">2</text>
<polygon points="113,335.6 121,335.6 121,343.6 113,343.6" fill="rgb(127,230,0)"/><text xml:space="preserve" x="117" y="342.433" font-family="Calibri" font-size="7.5" fill="rgb(0,0,0)" text-anchor="middle">2</text>
<polygon points="121,335.6 129,335.6 129,343.6 121,343.6" fill="rgb(205,0,0)"/><text xml:space="preserve" x="125" y="342.433" font-family="Calibri" font-size="7.5" fill="rgb(255,255,255)" text-anchor="middle">5</text>
<polygon points="129,335.6 137,335.6 137,343.6 129,343.6" fill="rgb(205,0,0)"/><text xml:space="preserve" x="133" y="342.433" font-family="Calibri" font-size="7.5" fill="rgb(255,255,255)" text-anchor="middle">5</text>
<polygon points="147,335.6 155,335.6 155,343.6 147,343.6" fill="rgb(12,74,137)"/>
<polygon points="155,335.6 163,335.6 163,343.6 155,343.6" fill="rgb(9,62,137)"/>
<polygon points="163,335.6 171,335.6 171,343.6 163,343.6" fill="rgb(9,64,137)"/>
<polygon points="171,335.6 179,335.6 179,343.6 171,343.6" fill="rgb(9,62,137)"/>
<polygon points="179,335.6 187,335.6 187,343.6 179,343.6" fill="rgb(48,217,145)"/>
<polygon points="187,335.6 195,335.6 195,343.6 187,343.6" fill="rgb(39,181,143)"/>
<polygon points="205,335.6 213,335.6 213,343.6 205,343.6" fill="rgb(255,255,255)"/>
<polygon points="213,335.6 221,335.6 221,343.6 213,343.6" fill="rgb(255,255,255)"/>
<polygon points="221,335.6 229,335.6 229,343.6 221,343.6" fill="rgb(255,255,255)"/>
<polygon points="229,335.6 237,335.6 237,343.6 229,343.6" fill="rgb(255,255,255)"/>
<polygon points="237,335.6 245,335.6 245,343.6 237,343.6" fill="rgb(255,255,255)"/>
<polygon points="245,335.6 253,335.6 253,343.6 245,343.6" fill="rgb(255,255,255)"/>
<polygon points="253,335.6 261,335.6 261,343.6 253,343.6" fill="rgb(255,255,255)"/>
<polygon points="261,335.6 269,335.6 269,343.6 261,343.6" fill="rgb(255,255,255)"/>
<polygon points="89,343.6 97,343.6 97,351.6 89,351.6" fill="rgb(127,230,0)"/><text xml:space="preserve" x="93" y="350.433" font-family="Calibri" font-size="7.5" fill="rgb(0,0,0)" text-anchor="middle">2</text>
<polygon points="97,343.6 105,343.6 105,351.6 97,351.6" fill="rgb(127,230,0)"/><text xml:space="preserve" x="101" y="350.433" font-family="Calibri" font-size="7.5" fill="rgb(0,0,0)" text-anchor="middle">2</text>
<polygon points="105,343.6 113,343.6 113,351.6 105,351.6" fill="rgb(127,230,0)"/><text xml:space="preserve" x="109" y="350.433" font-family="Calibri" font-size="7.5" fill="rgb(0,0,0)" text-anchor="middle">2</text>
<polygon points="113,343.6 121,343.6 121,351.6 113,351.6" fill="rgb(127,230,0)"/><text xml:space="preserve" x="117" y="350.433" font-family="Calibri" font-size="7.5" fill="rgb(0,0,0)" text-anchor="middle">2</text>
<polygon points="121,343.6 129,343.6 129,351.6 121,351.6" fill="rgb(205,0,0)"/><text xml:space="preserve" x="125" y="350.433" font-family="Calibri" font-size="7.5" fill="rgb(255,255,255)" text-anchor="middle">5</text>
<polygon points="129,343.6 137,343.6 137,351.6 129,351.6" fill="rgb(205,0,0)"/><text xml:space="preserve" x="133" y="350.433" font-family="Calibri" font-size="7.5" fill="rgb(255,255,255)" text-anchor="middle">5</text>
<polygon points="147,343.6 155,343.6 155,351.6 147,351.6" fill="rgb(16,91,138)"/>
<polygon points="155,343.6 163,343.6 163,351.6 155,351.6" fill="rgb(5,47,136)"/>
<polygon points="163,343.6 171,343.6 171,351.6 163,351.6" fill="rgb(6,51,136)"/>
<polygon points="171,343.6 179,343.6 179,351.6 171,351.6" fill="rgb(6,52,136)"/>
<polygon points="179,343.6 187,343.6 187,351.6 179,351.6" fill="rgb(27,135,141)"/>
<polygon points="187,343.6 195,343.6 195,351.6 187,351.6" fill="rgb(33,157,142)"/>
<polygon points="205,343.6 213,343.6 213,351.6 205,351.6" fill="rgb(205,0,205)"/>
<polygon points="213,343.6 221,343.6 221,351.6 213,351.6" fill="rgb(255,255,255)"/>
<polygon points="221,343.6 229,343.6 229,351.6 221,351.6" fill="rgb(255,255,255)"/>
<polygon points="229,343.6 237,343.6 237,351.6 229,351.6" fill="rgb(255,255,255)"/>
<polygon points="237,343.6 245,343.6 245,351.6 237,351.6" fill="rgb(255,255,255)"/>
<polygon points="245,343.6 253,343.6 253,351.6 245,351.6" fill="rgb(255,255,255)"/>
<polygon points="253,343.6 261,343.6 261,351.6 253,351.6" fill="rgb(255,255,255)"/>
<polygon points="261,343.6 269,343.6 269,351.6 261,351.6" fill="rgb(255,255,255)"/>
<polygon points="89,351.6 97,351.6 97,359.6 89,359.6" fill="rgb(127,230,0)"/><text xml:space="preserve" x="93" y="358.433" font-family="Calibri" font-size="7.5" fill="rgb(0,0,0)" text-anchor="middle">2</text>
<polygon points="97,351.6 105,351.6 105,359.6 97,359.6" fill="rgb(127,230,0)"/><text xml:space="preserve" x="101" y="358.433" font-family="Calibri" font-size="7.5" fill="rgb(0,0,0)" text-anchor="middle">2</text>
<polygon points="105,351.6 113,351.6 113,359.6 105,359.6" fill="rgb(127,230,0)"/><text xml:space="preserve" x="109" y="358.433" font-family="Calibri" font-size="7.5" fill="rgb(0,0,0)" text-anchor="middle">2</text>
<polygon points="113,351.6 121,351.6 121,359.6 113,359.6" fill="rgb(127,230,0)"/><text xml:space="preserve" x="117" y="358.433" font-family="Calibri" font-size="7.5" fill="rgb(0,0,0)" text-anchor="middle">2</text>
<polygon points="121,351.6 129,351.6 129,359.6 121,359.6" fill="rgb(205,0,0)"/><text xml:space="preserve" x="125" y="358.433" font-family="Calibri" font-size="7.5" fill="rgb(255,255,255)" text-anchor="middle">5</text>
<polygon points="129,351.6 137,351.6 137,359.6 129,359.6" fill="rgb(205,0,0)"/><text xml:space="preserve" x="133" y="358.433" font-family="Calibri" font-size="7.5" fill="rgb(255,255,255)" text-anchor="middle">5</text>
<polygon points="147,351.6 155,351.6 155,359.6 147,359.6" fill="rgb(13,78,137)"/>
<polygon points="155,351.6 163,351.6 163,359.6 155,359.6" fill="rgb(10,67,137)"/>
<polygon points="163,351.6 171,351.6 171,359.6 163,359.6" fill="rgb(10,67,137)"/>
<polygon points="171,351.6 179,351.6 179,359.6 171,359.6" fill="rgb(10,67,137)"/>
<polygon points="179,351.6 187,351.6 187,359.6 179,359.6" fill="rgb(85,214,119)"/>
<polygon points="187,351.6 195,351.6 195,359.6 187,359.6" fill="rgb(44,202,145)"/>
<polygon points="205,351.6 213,351.6 213,359.6 205,359.6" fill="rgb(255,255,255)"/>
<polygon points="213,351.6 221,351.6 221,359.6 213,359.6" fill="rgb(255,255,255)"/>
<polygon points="221,351.6 229,351.6 229,359.6 221,359.6" fill="rgb(255,255,255)"/>
<polygon points="229,351.6 237,351.6 237,359.6 229,359.6" fill="rgb(255,255,255)"/>
<polygon points="237,351.6 245,351.6 245,359.6 237,359.6" fill="rgb(255,255,255)"/>
<polygon points="245,351.6 253,351.6 253,359.6 245,359.6" fill="rgb(255,255,255)"/>
<polygon points="253,351.6 261,351.6 261,359.6 253,359.6" fill="rgb(255,255,255)"/>
<polygon points="261,351.6 269,351.6 269,359.6 261,359.6" fill="rgb(255,255,255)"/>
<polygon points="89,359.6 97,359.6 97,367.6 89,367.6" fill="rgb(127,230,0)"/><text xml:space="preserve" x="93" y="366.433" font-family="Calibri" font-size="7.5" fill="rgb(0,0,0)" text-anchor="middle">2</text>
<polygon points="97,359.6 105,359.6 105,367.6 97,367.6" fill="rgb(127,230,0)"/><text xml:space="preserve" x="101" y="366.433" font-family="Calibri" font-size="7.5" fill="rgb(0,0,0)" text-anchor="middle">2</text>
<polygon points="105,359.6 113,359.6 113,367.6 105,367.6" fill="rgb(127,230,0)"/><text xml:space="preserve" x="109" y="366.433" font-family="Calibri" font-size="7.5" fill="rgb(0,0,0)" text-anchor="middle">2</text>
<polygon points="113,359.6 121,359.6 121,367.6 113,367.6" fill="rgb(127,230,0)"/><text xml:space="preserve" x="117" y="366.433" font-family="Calibri" font-size="7.5" fill="rgb(0,0,0)" text-anchor="middle">2</text>
<polygon points="121,359.6 129,359.6 129,367.6 121,367.6" fill="rgb(205,0,0)"/><text xml:space="preserve" x="125" y="366.433" font-family="Calibri" font-size="7.5" fill="rgb(255,255,255)" text-anchor="middle">5</text>
<polygon points="129,359.6 137,359.6 137,367.6 129,367.6" fill="rgb(205,0,0)"/><text xml:space="preserve" x="133" y="366.433" font-family="Calibri" font-size="7.5" fill="rgb(255,255,255)" text-anchor="middle">5</text>
<polygon points="147,359.6 155,359.6 155,367.6 147,367.6" fill="rgb(13,80,138)"/>
<polygon points="155,359.6 163,359.6 163,367.6 155,367.6" fill="rgb(9,65,137)"/>
<polygon points="163,359.6 171,359.6 171,367.6 163,367.6" fill="rgb(9,64,137)"/>
<polygon points="171,359.6 179,359.6 179,367.6 171,367.6" fill="rgb(9,64,137)"/>
<polygon points="179,359.6 187,359.6 187,367.6 179,367.6" fill="rgb(67,216,132)"/>
<polygon points="187,359.6 195,359.6 195,367.6 187,367.6" fill="rgb(48,216,145)"/>
<polygon points="205,359.6 213,359.6 213,367.6 205,367.6" fill="rgb(255,255,255)"/>
<polygon points="213,359.6 221,359.6 221,367.6 213,367.6" fill="rgb(255,255,255)"/>
<polygon points="221,359.6 229,359.6 229,367.6 221,367.6" fill="rgb(255,255,255)"/>
<polygon points="229,359.6 237,359.6 237,367.6 229,367.6" fill="rgb(255,255,255)"/>
<polygon points="237,359.6 245,359.6 245,367.6 237,367.6" fill="rgb(255,255,255)"/>
<polygon points="245,359.6 253,359.6 253,367.6 245,367.6" fill="rgb(255,255,255)"/>
<polygon points="253,359.6 261,359.6 261,367.6 253,367.6" fill="rgb(255,255,255)"/>
<polygon points="261,359.6 269,359.6 269,367.6 261,367.6" fill="rgb(255,255,255)"/>
<polygon points="89,367.6 97,367.6 97,375.6 89,375.6" fill="rgb(127,230,0)"/><text xml:space="preserve" x="93" y="374.433" font-family="Calibri" font-size="7.5" fill="rgb(0,0,0)" text-anchor="middle">2</text>
<polygon points="97,367.6 105,367.6 105,375.6 97,375.6" fill="rgb(127,230,0)"/><text xml:space="preserve" x="101" y="374.433" font-family="Calibri" font-size="7.5" fill="rgb(0,0,0)" text-anchor="middle">2</text>
<polygon points="105,367.6 113,367.6 113,375.6 105,375.6" fill="rgb(127,230,0)"/><text xml:space="preserve" x="109" y="374.433" font-family="Calibri" font-size="7.5" fill="rgb(0,0,0)" text-anchor="middle">2</text>
<polygon points="113,367.6 121,367.6 121,375.6 113,375.6" fill="rgb(127,230,0)"/><text xml:space="preserve" x="117" y="374.433" font-family="Calibri" font-size="7.5" fill="rgb(0,0,0)" text-anchor="middle">2</text>
<polygon points="121,367.6 129,367.6 129,375.6 121,375.6" fill="rgb(205,0,0)"/><text xml:space="preserve" x="125" y="374.433" font-family="Calibri" font-size="7.5" fill="rgb(255,255,255)" text-anchor="middle">5</text>
<polygon points="129,367.6 137,367.6 137,375.6 129,375.6" fill="rgb(205,0,0)"/><text xml:space="preserve" x="133" y="374.433" font-family="Calibri" font-size="7.5" fill="rgb(255,255,255)" text-anchor="middle">5</text>
<polygon points="147,367.6 155,367.6 155,375.6 147,375.6" fill="rgb(11,70,137)"/>
<polygon points="155,367.6 163,367.6 163,375.6 155,375.6" fill="rgb(8,59,136)"/>
<polygon points="163,367.6 171,367.6 171,375.6 163,375.6" fill="rgb(7,57,136)"/>
<polygon points="171,367.6 179,367.6 179,375.6 171,375.6" fill="rgb(7,57,136)"/>
<polygon points="179,367.6 187,367.6 187,375.6 179,375.6" fill="rgb(43,198,144)"/>
<polygon points="187,367.6 195,367.6 195,375.6 187,375.6" fill="rgb(38,179,143)"/>
<polygon points="205,367.6 213,367.6 213,375.6 205,375.6" fill="rgb(255,255,255)"/>
<polygon points="213,367.6 221,367.6 221,375.6 213,375.6" fill="rgb(255,255,255)"/>
<polygon points="221,367.6 229,367.6 229,375.6 221,375.6" fill="rgb(255,255,255)"/>
<polygon points="229,367.6 237,367.6 237,375.6 229,375.6" fill="rgb(255,255,255)"/>
<polygon points="237,367.6 245,367.6 245,375.6 237,375.6" fill="rgb(255,255,255)"/>
<polygon points="245,367.6 253,367.6 253,375.6 245,375.6" fill="rgb(255,255,255)"/>
<polygon points="253,367.6 261,367.6 261,375.6 253,375.6" fill="rgb(255,255,255)"/>
<polygon points="261,367.6 269,367.6 269,375.6 261,375.6" fill="rgb(255,255,255)"/>
<polygon points="89,375.6 97,375.6 97,383.6 89,383.6" fill="rgb(127,230,0)"/><text xml:space="preserve" x="93" y="382.433" font-family="Calibri" font-size="7.5" fill="rgb(0,0,0)" text-anchor="middle">2</text>
<polygon points="97,375.6 105,375.6 105,383.6 97,383.6" fill="rgb(127,230,0)"/><text xml:space="preserve" x="101" y="382.433" font-family="Calibri" font-size="7.5" fill="rgb(0,0,0)" text-anchor="middle">2</text>
<polygon points="105,375.6 113,375.6 113,383.6 105,383.6" fill="rgb(127,230,0)"/><text xml:space="preserve" x="109" y="382.433" font-family="Calibri" font-size="7.5" fill="rgb(0,0,0)" text-anchor="middle">2</text>
<polygon points="113,375.6 121,375.6 121,383.6 113,383.6" fill="rgb(127,230,0)"/><text xml:space="preserve" x="117" y="382.433" font-family="Calibri" font-size="7.5" fill="rgb(0,0,0)" text-anchor="middle">2</text>
<polygon points="121,375.6 129,375.6 129,383.6 121,383.6" fill="rgb(205,0,0)"/><text xml:space="preserve" x="125" y="382.433" font-family="Calibri" font-size="7.5" fill="rgb(255,255,255)" text-anchor="middle">5</text>
<polygon points="129,375.6 137,375.6 137,383.6 129,383.6" fill="rgb(205,0,0)"/><text xml:space="preserve" x="133" y="382.433" font-family="Calibri" font-size="7.5" fill="rgb(255,255,255)" text-anchor="middle">5</text>
<polygon points="147,375.6 155,375.6 155,383.6 147,383.6" fill="rgb(10,69,137)"/>
<polygon points="155,375.6 163,375.6 163,383.6 155,383.6" fill="rgb(7,56,136)"/>
<polygon points="163,375.6 171,375.6 171,383.6 163,383.6" fill="rgb(7,57,136)"/>
<polygon points="171,375.6 179,375.6 179,383.6 171,383.6" fill="rgb(7,55,136)"/>
<polygon points="179,375.6 187,375.6 187,383.6 179,383.6" fill="rgb(39,180,143)"/>
<polygon points="187,375.6 195,375.6 195,383.6 187,383.6" fill="rgb(34,161,142)"/>
<polygon points="205,375.6 213,375.6 213,383.6 205,383.6" fill="rgb(255,255,255)"/>
<polygon points="213,375.6 221,375.6 221,383.6 213,383.6" fill="rgb(255,255,255)"/>
<polygon points="221,375.6 229,375.6 229,383.6 221,383.6" fill="rgb(255,255,255)"/>
<polygon points="229,375.6 237,375.6 237,383.6 229,383.6" fill="rgb(255,255,255)"/>
<polygon points="237,375.6 245,375.6 245,383.6 237,383.6" fill="rgb(255,255,255)"/>
<polygon points="245,375.6 253,375.6 253,383.6 245,383.6" fill="rgb(255,255,255)"/>
<polygon points="253,375.6 261,375.6 261,383.6 253,383.6" fill="rgb(255,255,255)"/>
<polygon points="261,375.6 269,375.6 269,383.6 261,383.6" fill="rgb(255,255,255)"/>
<polygon points="89,383.6 97,383.6 97,391.6 89,391.6" fill="rgb(127,230,0)"/><text xml:space="preserve" x="93" y="390.433" font-family="Calibri" font-size="7.5" fill="rgb(0,0,0)" text-anchor="middle">2</text>
<polygon points="97,383.6 105,383.6 105,391.6 97,391.6" fill="rgb(127,230,0)"/><text xml:space="preserve" x="101" y="390.433" font-family="Calibri" font-size="7.5" fill="rgb(0,0,0)" text-anchor="middle">2</text>
<polygon points="105,383.6 113,383.6 113,391.6 105,391.6" fill="rgb(127,230,0)"/><text xml:space="preserve" x="109" y="390.433" font-family="Calibri" font-size="7.5" fill="rgb(0,0,0)" text-anchor="middle">2</text>
<polygon points="113,383.6 121,383.6 121,391.6 113,391.6" fill="rgb(127,230,0)"/><text xml:space="preserve" x="117" y="390.433" font-family="Calibri" font-size="7.5" fill="rgb(0,0,0)" text-anchor="middle">2</text>
<polygon points="121,383.6 129,383.6 129,391.6 121,391.6" fill="rgb(205,0,0)"/><text xml:space="preserve" x="125" y="390.433" font-family="Calibri" font-size="7.5" fill="rgb(255,255,255)" text-anchor="middle">5</text>
<polygon points="129,383.6 137,383.6 137,391.6 129,391.6" fill="rgb(205,0,0)"/><text xml:space="preserve" x="133" y="390.433" font-family="Calibri" font-size="7.5" fill="rgb(255,255,255)" text-anchor="middle">5</text>
<polygon points="147,383.6 155,383.6 155,391.6 147,391.6" fill="rgb(13,79,138)"/>
<polygon points="155,383.6 163,383.6 163,391.6 155,391.6" fill="rgb(9,65,137)"/>
<polygon points="163,383.6 171,383.6 171,391.6 163,391.6" fill="rgb(9,65,137)"/>
<polygon points="171,383.6 179,383.6 179,391.6 171,391.6" fill="rgb(9,62,137)"/>
<polygon points="179,383.6 187,383.6 187,391.6 179,391.6" fill="rgb(61,217,137)"/>
<polygon points="187,383.6 195,383.6 195,391.6 187,391.6" fill="rgb(44,201,144)"/>
<polygon points="205,383.6 213,383.6 213,391.6 205,391.6" fill="rgb(255,255,255)"/>
<polygon points="213,383.6 221,383.6 221,391.6 213,391.6" fill="rgb(255,255,255)"/>
<polygon points="221,383.6 229,383.6 229,391.6 221,391.6" fill="rgb(255,255,255)"/>
<polygon points="229,383.6 237,383.6 237,391.6 229,391.6" fill="rgb(255,255,255)"/>
<polygon points="237,383.6 245,383.6 245,391.6 237,391.6" fill="rgb(255,255,255)"/>
<polygon points="245,383.6 253,383.6 253,391.6 245,391.6" fill="rgb(255,255,255)"/>
<polygon points="253,383.6 261,383.6 261,391.6 253,391.6" fill="rgb(255,255,255)"/>
<polygon points="261,383.6 269,383.6 269,391.6 261,391.6" fill="rgb(255,255,255)"/>
<polygon points="89,391.6 97,391.6 97,399.6 89,399.6" fill="rgb(127,230,0)"/><text xml:space="preserve" x="93" y="398.433" font-family="Calibri" font-size="7.5" fill="rgb(0,0,0)" text-anchor="middle">2</text>
<polygon points="97,391.6 105,391.6 105,399.6 97,399.6" fill="rgb(127,230,0)"/><text xml:space="preserve" x="101" y="398.433" font-family="Calibri" font-size="7.5" fill="rgb(0,0,0)" text-anchor="middle">2</text>
<polygon points="105,391.6 113,391.6 113,399.6 105,399.6" fill="rgb(127,230,0)"/><text xml:space="preserve" x="109" y="398.433" font-family="Calibri" font-size="7.5" fill="rgb(0,0,0)" text-anchor="middle">2</text>
<polygon points="113,391.6 121,391.6 121,399.6 113,399.6" fill="rgb(127,230,0)"/><text xml:space="preserve" x="117" y="398.433" font-family="Calibri" font-size="7.5" fill="rgb(0,0,0)" text-anchor="middle">2</text>
<polygon points="121,391.6 129,391.6 129,399.6 121,399.6" fill="rgb(205,0,0)"/><text xml:space="preserve" x="125" y="398.433" font-family="Calibri" font-size="7.5" fill="rgb(255,255,255)" text-anchor="middle">5</text>
<polygon points="129,391.6 137,391.6 137,399.6 129,399.6" fill="rgb(205,0,0)"/><text xml:space="preserve" x="133" y="398.433" font-family="Calibri" font-size="7.5" fill="rgb(255,255,255)" text-anchor="middle">5</text>
<polygon points="147,391.6 155,391.6 155,399.6 147,399.6" fill="rgb(12,76,137)"/>
<polygon points="155,391.6 163,391.6 163,399.6 155,399.6" fill="rgb(10,66,137)"/>
<polygon points="163,391.6 171,391.6 171,399.6 163,399.6" fill="rgb(9,62,137)"/>
<polygon points="171,391.6 179,391.6 179,399.6 171,399.6" fill="rgb(10,66,137)"/>
<polygon points="179,391.6 187,391.6 187,399.6 179,399.6" fill="rgb(86,214,118)"/>
<polygon points="187,391.6 195,391.6 195,399.6 187,399.6" fill="rgb(46,207,145)"/>
<polygon points="205,391.6 213,391.6 213,399.6 205,399.6" fill="rgb(255,255,255)"/>
<polygon points="213,391.6 221,391.6 221,399.6 213,399.6" fill="rgb(255,255,255)"/>
<polygon points="221,391.6 229,391.6 229,399.6 221,399.6" fill="rgb(255,255,255)"/>
<polygon points="229,391.6 237,391.6 237,399.6 229,399.6" fill="rgb(255,255,255)"/>
<polygon points="237,391.6 245,391.6 245,399.6 237,399.6" fill="rgb(255,255,255)"/>
<polygon points="245,391.6 253,391.6 253,399.6 245,399.6" fill="rgb(255,255,255)"/>
<polygon points="253,391.6 261,391.6 261,399.6 253,399.6" fill="rgb(255,255,255)"/>
<polygon points="261,391.6 269,391.6 269,399.6 261,399.6" fill="rgb(255,255,255)"/>
<polygon points="89,335.6 137,335.6 137,399.6 89,399.6" fill="none" stroke="black" stroke-width="1"/>
<polygon points="147,335.6 195,335.6 195,399.6 147,399.6" fill="none" stroke="black" stroke-width="1"/>
<polygon points="205,335.6 269,335.6 269,399.6 205,399.6" fill="none" stroke="black" stroke-width="1"/>
<text xml:space="preserve" x="144.5" y="432.6" font-family="Calibri" font-size="8" text-anchor="middle">ClusterAssignment</text>
<polygon points="94.5,439.6 114.5,439.6 114.5,459.6 94.5,459.6" fill="rgb(0,205,0)"/><polygon points="94.5,439.6 114.5,439.6 114.5,459.6 94.5,459.6" fill="none" stroke="black" stroke-width="1"/><text xml:space="preserve" x="104.5" y="452.433" font-family="Calibri" font-size="7.5" fill="rgb(255,255,255)" text-anchor="middle">1.0</text>
<polygon points="114.5,439.6 134.5,439.6 134.5,459.6 114.5,459.6" fill="rgb(127,230,0)"/><polygon points="114.5,439.6 134.5,439.6 134.5,459.6 114.5,459.6" fill="none" stroke="black" stroke-width="1"/><text xml:space="preserve" x="124.5" y="452.433" font-family="Calibri" font-size="7.5" fill="rgb(0,0,0)" text-anchor="middle">2.0</text>
<polygon points="134.5,439.6 154.5,439.6 154.5,459.6 134.5,459.6" fill="rgb(255,255,0)"/><polygon points="134.5,439.6 154.5,439.6 154.5,459.6 134.5,459.6" fill="none" stroke="black" stroke-width="1"/><text xml:space="preserve" x="144.5" y="452.433" font-family="Calibri" font-size="7.5" fill="rgb(0,0,0)" text-anchor="middle">3.0</text>
<polygon points="154.5,439.6 174.5,439.6 174.5,459.6 154.5,459.6" fill="rgb(230,127,0)"/><polygon points="154.5,439.6 174.5,439.6 174.5,459.6 154.5,459.6" fill="none" stroke="black" stroke-width="1"/><text xml:space="preserve" x="164.5" y="452.433" font-family="Calibri" font-size="7.5" fill="rgb(0,0,0)" text-anchor="middle">4.0</text>
<polygon points="174.5,439.6 194.5,439.6 194.5,459.6 174.5,459.6" fill="rgb(205,0,0)"/><polygon points="174.5,439.6 194.5,439.6 194.5,459.6 174.5,459.6" fill="none" stroke="black" stroke-width="1"/><text xml:space="preserve" x="184.5" y="452.433" font-family="Calibri" font-size="7.5" fill="rgb(255,255,255)" text-anchor="middle">5.0</text>
<text xml:space="preserve" x="144.5" y="492.6" font-family="Calibri" font-size="8" text-anchor="middle">Expression</text>
<polygon points="94.5,499.6 114.5,499.6 114.5,519.6 94.5,519.6" fill="rgb(0,27,135)"/><polygon points="94.5,499.6 114.5,499.6 114.5,519.6 94.5,519.6" fill="none" stroke="black" stroke-width="1"/><text xml:space="preserve" x="104.5" y="512.433" font-family="Calibri" font-size="7.5" fill="rgb(255,255,255)" text-anchor="middle">0.0</text>
<polygon points="114.5,499.6 134.5,499.6 134.5,519.6 114.5,519.6" fill="rgb(24,123,140)"/><polygon points="114.5,499.6 134.5,499.6 134.5,519.6 114.5,519.6" fill="none" stroke="black" stroke-width="1"/><text xml:space="preserve" x="124.5" y="512.433" font-family="Calibri" font-size="7.5" fill="rgb(255,255,255)" text-anchor="middle">0.8</text>
<polygon points="134.5,499.6 154.5,499.6 154.5,519.6 134.5,519.6" fill="rgb(49,219,146)"/><polygon points="134.5,499.6 154.5,499.6 154.5,519.6 134.5,519.6" fill="none" stroke="black" stroke-width="1"/><text xml:space="preserve" x="144.5" y="512.433" font-family="Calibri" font-size="7.5" fill="rgb(0,0,0)" text-anchor="middle">1.5</text>
<polygon points="154.5,499.6 174.5,499.6 174.5,519.6 154.5,519.6" fill="rgb(150,206,73)"/><polygon points="154.5,499.6 174.5,499.6 174.5,519.6 154.5,519.6" fill="none" stroke="black" stroke-width="1"/><text xml:space="preserve" x="164.5" y="512.433" font-family="Calibri" font-size="7.5" fill="rgb(0,0,0)" text-anchor="middle">2.2</text>
<polygon points="174.5,499.6 194.5,499.6 194.5,519.6 174.5,519.6" fill="rgb(252,194,1)"/><polygon points="174.5,499.6 194.5,499.6 194.5,519.6 174.5,519.6" fill="none" stroke="black" stroke-width="1"/><text xml:space="preserve" x="184.5" y="512.433" font-family="Calibri" font-size="7.5" fill="rgb(0,0,0)" text-anchor="middle">3.0</text>
<text xml:space="preserve" x="144.5" y="552.6" font-family="Calibri" font-size="8" text-anchor="middle">PANTHERclass</text>
<polygon points="94.5,559.6 114.5,559.6 114.5,579.6 94.5,579.6" fill="rgb(255,255,255)"/><polygon points="94.5,559.6 114.5,559.6 114.5,579.6 94.5,579.6" fill="none" stroke="black" stroke-width="1"/><text xml:space="preserve" x="104.5" y="572.433" font-family="Calibri" font-size="7.5" fill="rgb(0,0,0)" text-anchor="middle">0.0</text>
<polygon points="114.5,559.6 134.5,559.6 134.5,579.6 114.5,579.6" fill="rgb(242,191,242)"/><polygon points="114.5,559.6 134.5,559.6 134.5,579.6 114.5,579.6" fill="none" stroke="black" stroke-width="1"/><text xml:space="preserve" x="124.5" y="572.433" font-family="Calibri" font-size="7.5" fill="rgb(0,0,0)" text-anchor="middle">0.2</text>
<polygon points="134.5,559.6 154.5,559.6 154.5,579.6 134.5,579.6" fill="rgb(230,127,230)"/><polygon points="134.5,559.6 154.5,559.6 154.5,579.6 134.5,579.6" fill="none" stroke="black" stroke-width="1"/><text xml:space="preserve" x="144.5" y="572.433" font-family="Calibri" font-size="7.5" fill="rgb(0,0,0)" text-anchor="middle">0.5</text>
<polygon points="154.5,559.6 174.5,559.6 174.5,579.6 154.5,579.6" fill="rgb(217,63,217)"/><polygon points="154.5,559.6 174.5,559.6 174.5,579.6 154.5,579.6" fill="none" stroke="black" stroke-width="1"/><text xml:space="preserve" x="164.5" y="572.433" font-family="Calibri" font-size="7.5" fill="rgb(255,255,255)" text-anchor="middle">0.8</text>
<polygon points="174.5,559.6 194.5,559.6 194.5,579.6 174.5,579.6" fill="rgb(205,0,205)"/><polygon points="174.5,559.6 194.5,559.6 194.5,579.6 174.5,579.6" fill="none" stroke="black" stroke-width="1"/><text xml:space="preserve" x="184.5" y="572.433" font-family="Calibri" font-size="7.5" fill="rgb(255,255,255)" text-anchor="middle">1.0</text>
</svg>
