<?xml version="1.0" standalone="no"?><!DOCTYPE svg PUBLIC "-//W3C//DTD SVG 1.1//EN" "http://www.w3.org/Graphics/SVG/1.1/DTD/svg11.dtd">
<svg width="327.1" height="655.6" version="1.1" xmlns="http://www.w3.org/2000/svg">
<text xml:space="preserve" x="123.1" y="342.6" font-family="Calibri" font-size="8" text-anchor="end">AC114316.2</text>
<text xml:space="preserve" x="123.1" y="350.6" font-family="Calibri" font-size="8" text-anchor="end">NPM1</text>
<text xml:space="preserve" x="123.1" y="358.6" font-family="Calibri" font-size="8" text-anchor="end">GRM1</text>
<text xml:space="preserve" x="123.1" y="366.6" font-family="Calibri" font-size="8" text-anchor="end">TOX3</text>
<text xml:space="preserve" x="123.1" y="374.6" font-family="Calibri" font-size="8" text-anchor="end">RAN</text>
<text xml:space="preserve" x="123.1" y="382.6" font-family="Calibri" font-size="8" text-anchor="end">ROBO2</text>
<text xml:space="preserve" x="123.1" y="390.6" font-family="Calibri" font-size="8" text-anchor="end">MAMLD1</text>
<text xml:space="preserve" x="123.1" y="398.6" font-family="Calibri" font-size="8" text-anchor="end">DSTN</text>
<text xml:space="preserve" x="123.1" y="406.6" font-family="Calibri" font-size="8" text-anchor="end">POU4F2</text>
<text xml:space="preserve" x="123.1" y="414.6" font-family="Calibri" font-size="8" text-anchor="end">IGSF21</text>
<text xml:space="preserve" x="123.1" y="422.6" font-family="Calibri" font-size="8" text-anchor="end">ZNF703</text>
<text xml:space="preserve" x="123.1" y="430.6" font-family="Calibri" font-size="8" text-anchor="end">YWHAQ</text>
<text xml:space="preserve" x="123.1" y="438.6" font-family="Calibri" font-size="8" text-anchor="end">CLEC1B</text>
<text xml:space="preserve" x="123.1" y="446.6" font-family="Calibri" font-size="8" text-anchor="end">RELN</text>
<text xml:space="preserve" x="123.1" y="454.6" font-family="Calibri" font-size="8" text-anchor="end">GRIK1</text>
<text xml:space="preserve" x="134.1" y="331.6" font-family="Calibri" font-size="8" transform="rotate(270 134.1 331.6)">c1</text>
<text xml:space="preserve" x="142.1" y="331.6" font-family="Calibri" font-size="8" transform="rotate(270 142.1 331.6)">c6</text>
<text xml:space="preserve" x="150.1" y="331.6" font-family="Calibri" font-size="8" transform="rotate(270 150.1 331.6)">c3</text>
<text xml:space="preserve" x="158.1" y="331.6" font-family="Calibri" font-size="8" transform="rotate(270 158.1 331.6)">c4</text>
<text xml:space="preserve" x="166.1" y="331.6" font-family="Calibri" font-size="8" transform="rotate(270 166.1 331.6)">c5</text>
<text xml:space="preserve" x="174.1" y="331.6" font-family="Calibri" font-size="8" transform="rotate(270 174.1 331.6)">c2</text>
<text xml:space="preserve" x="192.1" y="331.6" font-family="Calibri" font-size="8" transform="rotate(270 192.1 331.6)">c1_mean</text>
<text xml:space="preserve" x="200.1" y="331.6" font-family="Calibri" font-size="8" transform="rotate(270 200.1 331.6)">c6_mean</text>
<text xml:space="preserve" x="208.1" y="331.6" font-family="Calibri" font-size="8" transform="rotate(270 208.1 331.6)">c3_mean</text>
<text xml:space="preserve" x="216.1" y="331.6" font-family="Calibri" font-size="8" transform="rotate(270 216.1 331.6)">c4_mean</text>
<text xml:space="preserve" x="224.1" y="331.6" font-family="Calibri" font-size="8" transform="rotate(270 224.1 331.6)">c5_mean</text>
<text xml:space="preserve" x="232.1" y="331.6" font-family="Calibri" font-size="8" transform="rotate(270 232.1 331.6)">c2_mean</text>
<text xml:space="preserve" x="250.1" y="331.6" font-family="Calibri" font-size="8" transform="rotate(270 250.1 331.6)">transcription_factor</text>
<text xml:space="preserve" x="258.1" y="331.6" font-family="Calibri" font-size="8" transform="rotate(270 258.1 331.6)">transmembrane_signal_receptor</text>
<text xml:space="preserve" x="266.1" y="331.6" font-family="Calibri" font-size="8" transform="rotate(270 266.1 331.6)">growth_factor</text>
<text xml:space="preserve" x="274.1" y="331.6" font-family="Calibri" font-size="8" transform="rotate(270 274.1 331.6)">peptide_hormone</text>
<text xml:space="preserve" x="282.1" y="331.6" font-family="Calibri" font-size="8" transform="rotate(270 282.1 331.6)">cytoskeletal_protein</text>
<text xml:space="preserve" x="290.1" y="331.6" font-family="Calibri" font-size="8" transform="rotate(270 290.1 331.6)">ion_channel</text>
<text xml:space="preserve" x="298.1" y="331.6" font-family="Calibri" font-size="8" transform="rotate(270 298.1 331.6)">integrin</text>
<text xml:space="preserve" x="306.1" y="331.6" font-family="Calibri" font-size="8" transform="rotate(270 306.1 331.6)">extracellular_matrix_protein</text>
<polygon points="127.1,335.6 135.1,335.6 135.1,343.6 127.1,343.6" fill="rgb(127,230,0)"/><text xml:space="preserve" x="131.1" y="342.433" font-family="Calibri" font-size="7.5" fill="rgb(0,0,0)" text-anchor="middle">2</text>
<polygon points="135.1,335.6 143.1,335.6 143.1,343.6 135.1,343.6" fill="rgb(127,230,0)"/><text xml:space="preserve" x="139.1" y="342.433" font-family="Calibri" font-size="7.5" fill="rgb(0,0,0)" text-anchor="middle">2</text>
<polygon points="143.1,335.6 151.1,335.6 151.1,343.6 143.1,343.6" fill="rgb(127,230,0)"/><text xml:space="preserve" x="147.1" y="342.433" font-family="Calibri" font-size="7.5" fill="rgb(0,0,0)" text-anchor="middle">2</text>
<polygon points="151.1,335.6 159.1,335.6 159.1,343.6 151.1,343.6" fill="rgb(127,230,0)"/><text xml:space="preserve" x="155.1" y="342.433" font-family="Calibri" font-size="7.5" fill="rgb(0,0,0)" text-anchor="middle">2</text>
<polygon points="159.1,335.6 167.1,335.6 167.1,343.6 159.1,343.6" fill="rgb(127,230,0)"/><text xml:space="preserve" x="163.1" y="342.433" font-family="Calibri" font-size="7.5" fill="rgb(0,0,0)" text-anchor="middle">2</text>
<polygon points="167.1,335.6 175.1,335.6 175.1,343.6 167.1,343.6" fill="rgb(205,0,0)"/><text xml:space="preserve" x="171.1" y="342.433" font-family="Calibri" font-size="7.5" fill="rgb(255,255,255)" text-anchor="middle">5</text>
<polygon points="185.1,335.6 193.1,335.6 193.1,343.6 185.1,343.6" fill="rgb(3,39,135)"/>
<polygon points="193.1,335.6 201.1,335.6 201.1,343.6 193.1,343.6" fill="rgb(4,43,135)"/>
<polygon points="201.1,335.6 209.1,335.6 209.1,343.6 201.1,343.6" fill="rgb(15,87,138)"/>
<polygon points="209.1,335.6 217.1,335.6 217.1,343.6 209.1,343.6" fill="rgb(9,64,137)"/>
<polygon points="217.1,335.6 225.1,335.6 225.1,343.6 217.1,343.6" fill="rgb(7,56,136)"/>
<polygon points="225.1,335.6 233.1,335.6 233.1,343.6 225.1,343.6" fill="rgb(46,208,145)"/>
<polygon points="243.1,335.6 251.1,335.6 251.1,343.6 243.1,343.6" fill="rgb(255,255,255)"/>
<polygon points="251.1,335.6 259.1,335.6 259.1,343.6 251.1,343.6" fill="rgb(255,255,255)"/>
<polygon points="259.1,335.6 267.1,335.6 267.1,343.6 259.1,343.6" fill="rgb(255,255,255)"/>
<polygon points="267.1,335.6 275.1,335.6 275.1,343.6 267.1,343.6" fill="rgb(255,255,255)"/>
<polygon points="275.1,335.6 283.1,335.6 283.1,343.6 275.1,343.6" fill="rgb(255,255,255)"/>
<polygon points="283.1,335.6 291.1,335.6 291.1,343.6 283.1,343.6" fill="rgb(255,255,255)"/>
<polygon points="291.1,335.6 299.1,335.6 299.1,343.6 291.1,343.6" fill="rgb(255,255,255)"/>
<polygon points="299.1,335.6 307.1,335.6 307.1,343.6 299.1,343.6" fill="rgb(255,255,255)"/>
<polygon points="127.1,343.6 135.1,343.6 135.1,351.6 127.1,351.6" fill="rgb(127,230,0)"/><text xml:space="preserve" x="131.1" y="350.433" font-family="Calibri" font-size="7.5" fill="rgb(0,0,0)" text-anchor="middle">2</text>
<polygon points="135.1,343.6 143.1,343.6 143.1,351.6 135.1,351.6" fill="rgb(127,230,0)"/><text xml:space="preserve" x="139.1" y="350.433" font-family="Calibri" font-size="7.5" fill="rgb(0,0,0)" text-anchor="middle">2</text>
<polygon points="143.1,343.6 151.1,343.6 151.1,351.6 143.1,351.6" fill="rgb(127,230,0)"/><text xml:space="preserve" x="147.1" y="350.433" font-family="Calibri" font-size="7.5" fill="rgb(0,0,0)" text-anchor="middle">2</text>
<polygon points="151.1,343.6 159.1,343.6 159.1,351.6 151.1,351.6" fill="rgb(127,230,0)"/><text xml:space="preserve" x="155.1" y="350.433" font-family="Calibri" font-size="7.5" fill="rgb(0,0,0)" text-anchor="middle">2</text>
<polygon points="159.1,343.6 167.1,343.6 167.1,351.6 159.1,351.6" fill="rgb(127,230,0)"/><text xml:space="preserve" x="163.1" y="350.433" font-family="Calibri" font-size="7.5" fill="rgb(0,0,0)" text-anchor="middle">2</text>
<polygon points="167.1,343.6 175.1,343.6 175.1,351.6 167.1,351.6" fill="rgb(205,0,0)"/><text xml:space="preserve" x="171.1" y="350.433" font-family="Calibri" font-size="7.5" fill="rgb(255,255,255)" text-anchor="middle">5</text>
<polygon points="185.1,343.6 193.1,343.6 193.1,351.6 185.1,351.6" fill="rgb(9,64,137)"/>
<polygon points="193.1,343.6 201.1,343.6 201.1,351.6 193.1,351.6" fill="rgb(7,57,136)"/>
<polygon points="201.1,343.6 209.1,343.6 209.1,351.6 201.1,351.6" fill="rgb(7,56,136)"/>
<polygon points="209.1,343.6 217.1,343.6 217.1,351.6 209.1,351.6" fill="rgb(7,55,136)"/>
<polygon points="217.1,343.6 225.1,343.6 225.1,351.6 217.1,351.6" fill="rgb(7,57,136)"/>
<polygon points="225.1,343.6 233.1,343.6 233.1,351.6 225.1,351.6" fill="rgb(32,152,142)"/>
<polygon points="243.1,343.6 251.1,343.6 251.1,351.6 243.1,351.6" fill="rgb(255,255,255)"/>
<polygon points="251.1,343.6 259.1,343.6 259.1,351.6 251.1,351.6" fill="rgb(255,255,255)"/>
<polygon points="259.1,343.6 267.1,343.6 267.1,351.6 259.1,351.6" fill="rgb(255,255,255)"/>
<polygon points="267.1,343.6 275.1,343.6 275.1,351.6 267.1,351.6" fill="rgb(255,255,255)"/>
<polygon points="275.1,343.6 283.1,343.6 283.1,351.6 275.1,351.6" fill="rgb(255,255,255)"/>
<polygon points="283.1,343.6 291.1,343.6 291.1,351.6 283.1,351.6" fill="rgb(255,255,255)"/>
<polygon points="291.1,343.6 299.1,343.6 299.1,351.6 291.1,351.6" fill="rgb(255,255,255)"/>
<polygon points="299.1,343.6 307.1,343.6 307.1,351.6 299.1,351.6" fill="rgb(255,255,255)"/>
<polygon points="127.1,351.6 135.1,351.6 135.1,359.6 127.1,359.6" fill="rgb(127,230,0)"/><text xml:space="preserve" x="131.1" y="358.433" font-family="Calibri" font-size="7.5" fill="rgb(0,0,0)" text-anchor="middle">2</text>
<polygon points="135.1,351.6 143.1,351.6 143.1,359.6 135.1,359.6" fill="rgb(127,230,0)"/><text xml:space="preserve" x="139.1" y="358.433" font-family="Calibri" font-size="7.5" fill="rgb(0,0,0)" text-anchor="middle">2</text>
<polygon points="143.1,351.6 151.1,351.6 151.1,359.6 143.1,359.6" fill="rgb(127,230,0)"/><text xml:space="preserve" x="147.1" y="358.433" font-family="Calibri" font-size="7.5" fill="rgb(0,0,0)" text-anchor="middle">2</text>
<polygon points="151.1,351.6 159.1,351.6 159.1,359.6 151.1,359.6" fill="rgb(127,230,0)"/><text xml:space="preserve" x="155.1" y="358.433" font-family="Calibri" font-size="7.5" fill="rgb(0,0,0)" text-anchor="middle">2</text>
<polygon points="159.1,351.6 167.1,351.6 167.1,359.6 159.1,359.6" fill="rgb(127,230,0)"/><text xml:space="preserve" x="163.1" y="358.433" font-family="Calibri" font-size="7.5" fill="rgb(0,0,0)" text-anchor="middle">2</text>
<polygon points="167.1,351.6 175.1,351.6 175.1,359.6 167.1,359.6" fill="rgb(205,0,0)"/><text xml:space="preserve" x="171.1" y="358.433" font-family="Calibri" font-size="7.5" fill="rgb(255,255,255)" text-anchor="middle">5</text>
<polygon points="185.1,351.6 193.1,351.6 193.1,359.6 185.1,359.6" fill="rgb(6,53,136)"/>
<polygon points="193.1,351.6 201.1,351.6 201.1,359.6 193.1,359.6" fill="rgb(2,38,135)"/>
<polygon points="201.1,351.6 209.1,351.6 209.1,359.6 201.1,359.6" fill="rgb(8,61,136)"/>
<polygon points="209.1,351.6 217.1,351.6 217.1,359.6 209.1,359.6" fill="rgb(12,75,137)"/>
<polygon points="217.1,351.6 225.1,351.6 225.1,359.6 217.1,359.6" fill="rgb(10,69,137)"/>
<polygon points="225.1,351.6 233.1,351.6 233.1,359.6 225.1,359.6" fill="rgb(32,152,142)"/>
<polygon points="243.1,351.6 251.1,351.6 251.1,359.6 243.1,359.6" fill="rgb(255,255,255)"/>
<polygon points="251.1,351.6 259.1,351.6 259.1,359.6 251.1,359.6" fill="rgb(255,255,255)"/>
<polygon points="259.1,351.6 267.1,351.6 267.1,359.6 259.1,359.6" fill="rgb(255,255,255)"/>
<polygon points="267.1,351.6 275.1,351.6 275.1,359.6 267.1,359.6" fill="rgb(255,255,255)"/>
<polygon points="275.1,351.6 283.1,351.6 283.1,359.6 275.1,359.6" fill="rgb(255,255,255)"/>
<polygon points="283.1,351.6 291.1,351.6 291.1,359.6 283.1,359.6" fill="rgb(255,255,255)"/>
<polygon points="291.1,351.6 299.1,351.6 299.1,359.6 291.1,359.6" fill="rgb(255,255,255)"/>
<polygon points="299.1,351.6 307.1,351.6 307.1,359.6 299.1,359.6" fill="rgb(255,255,255)"/>
<polygon points="127.1,359.6 135.1,359.6 135.1,367.6 127.1,367.6" fill="rgb(127,230,0)"/><text xml:space="preserve" x="131.1" y="366.433" font-family="Calibri" font-size="7.5" fill="rgb(0,0,0)" text-anchor="middle">2</text>
<polygon points="135.1,359.6 143.1,359.6 143.1,367.6 135.1,367.6" fill="rgb(127,230,0)"/><text xml:space="preserve" x="139.1" y="366.433" font-family="Calibri" font-size="7.5" fill="rgb(0,0,0)" text-anchor="middle">2</text>
<polygon points="143.1,359.6 151.1,359.6 151.1,367.6 143.1,367.6" fill="rgb(127,230,0)"/><text xml:space="preserve" x="147.1" y="366.433" font-family="Calibri" font-size="7.5" fill="rgb(0,0,0)" text-anchor="middle">2</text>
<polygon points="151.1,359.6 159.1,359.6 159.1,367.6 151.1,367.6" fill="rgb(127,230,0)"/><text xml:space="preserve" x="155.1" y="366.433" font-family="Calibri" font-size="7.5" fill="rgb(0,0,0)" text-anchor="middle">2</text>
<polygon points="159.1,359.6 167.1,359.6 167.1,367.6 159.1,367.6" fill="rgb(127,230,0)"/><text xml:space="preserve" x="163.1" y="366.433" font-family="Calibri" font-size="7.5" fill="rgb(0,0,0)" text-anchor="middle">2</text>
<polygon points="167.1,359.6 175.1,359.6 175.1,367.6 167.1,367.6" fill="rgb(205,0,0)"/><text xml:space="preserve" x="171.1" y="366.433" font-family="Calibri" font-size="7.5" fill="rgb(255,255,255)" text-anchor="middle">5</text>
<polygon points="185.1,359.6 193.1,359.6 193.1,367.6 185.1,367.6" fill="rgb(9,62,137)"/>
<polygon points="193.1,359.6 201.1,359.6 201.1,367.6 193.1,367.6" fill="rgb(10,66,137)"/>
<polygon points="201.1,359.6 209.1,359.6 209.1,367.6 201.1,367.6" fill="rgb(8,59,136)"/>
<polygon points="209.1,359.6 217.1,359.6 217.1,367.6 209.1,367.6" fill="rgb(5,50,136)"/>
<polygon points="217.1,359.6 225.1,359.6 225.1,367.6 217.1,367.6" fill="rgb(10,69,137)"/>
<polygon points="225.1,359.6 233.1,359.6 233.1,367.6 225.1,367.6" fill="rgb(36,170,143)"/>
<polygon points="243.1,359.6 251.1,359.6 251.1,367.6 243.1,367.6" fill="rgb(255,255,255)"/>
<polygon points="251.1,359.6 259.1,359.6 259.1,367.6 251.1,367.6" fill="rgb(255,255,255)"/>
<polygon points="259.1,359.6 267.1,359.6 267.1,367.6 259.1,367.6" fill="rgb(255,255,255)"/>
<polygon points="267.1,359.6 275.1,359.6 275.1,367.6 267.1,367.6" fill="rgb(255,255,255)"/>
<polygon points="275.1,359.6 283.1,359.6 283.1,367.6 275.1,367.6" fill="rgb(255,255,255)"/>
<polygon points="283.1,359.6 291.1,359.6 291.1,367.6 283.1,367.6" fill="rgb(255,255,255)"/>
<polygon points="291.1,359.6 299.1,359.6 299.1,367.6 291.1,367.6" fill="rgb(255,255,255)"/>
<polygon points="299.1,359.6 307.1,359.6 307.1,367.6 299.1,367.6" fill="rgb(255,255,255)"/>
<polygon points="127.1,367.6 135.1,367.6 135.1,375.6 127.1,375.6" fill="rgb(127,230,0)"/><text xml:space="preserve" x="131.1" y="374.433" font-family="Calibri" font-size="7.5" fill="rgb(0,0,0)" text-anchor="middle">2</text>
<polygon points="135.1,367.6 143.1,367.6 143.1,375.6 135.1,375.6" fill="rgb(127,230,0)"/><text xml:space="preserve" x="139.1" y="374.433" font-family="Calibri" font-size="7.5" fill="rgb(0,0,0)" text-anchor="middle">2</text>
<polygon points="143.1,367.6 151.1,367.6 151.1,375.6 143.1,375.6" fill="rgb(127,230,0)"/><text xml:space="preserve" x="147.1" y="374.433" font-family="Calibri" font-size="7.5" fill="rgb(0,0,0)" text-anchor="middle">2</text>
<polygon points="151.1,367.6 159.1,367.6 159.1,375.6 151.1,375.6" fill="rgb(127,230,0)"/><text xml:space="preserve" x="155.1" y="374.433" font-family="Calibri" font-size="7.5" fill="rgb(0,0,0)" text-anchor="middle">2</text>
<polygon points="159.1,367.6 167.1,367.6 167.1,375.6 159.1,375.6" fill="rgb(127,230,0)"/><text xml:space="preserve" x="163.1" y="374.433" font-family="Calibri" font-size="7.5" fill="rgb(0,0,0)" text-anchor="middle">2</text>
<polygon points="167.1,367.6 175.1,367.6 175.1,375.6 167.1,375.6" fill="rgb(205,0,0)"/><text xml:space="preserve" x="171.1" y="374.433" font-family="Calibri" font-size="7.5" fill="rgb(255,255,255)" text-anchor="middle">5</text>
<polygon points="185.1,367.6 193.1,367.6 193.1,375.6 185.1,375.6" fill="rgb(11,71,137)"/>
<polygon points="193.1,367.6 201.1,367.6 201.1,375.6 193.1,375.6" fill="rgb(9,64,137)"/>
<polygon points="201.1,367.6 209.1,367.6 209.1,375.6 201.1,375.6" fill="rgb(9,64,137)"/>
<polygon points="209.1,367.6 217.1,367.6 217.1,375.6 209.1,375.6" fill="rgb(9,64,137)"/>
<polygon points="217.1,367.6 225.1,367.6 225.1,375.6 217.1,375.6" fill="rgb(10,66,137)"/>
<polygon points="225.1,367.6 233.1,367.6 233.1,375.6 225.1,375.6" fill="rgb(40,184,144)"/>
<polygon points="243.1,367.6 251.1,367.6 251.1,375.6 243.1,375.6" fill="rgb(255,255,255)"/>
<polygon points="251.1,367.6 259.1,367.6 259.1,375.6 251.1,375.6" fill="rgb(255,255,255)"/>
<polygon points="259.1,367.6 267.1,367.6 267.1,375.6 259.1,375.6" fill="rgb(255,255,255)"/>
<polygon points="267.1,367.6 275.1,367.6 275.1,375.6 267.1,375.6" fill="rgb(255,255,255)"/>
<polygon points="275.1,367.6 283.1,367.6 283.1,375.6 275.1,375.6" fill="rgb(255,255,255)"/>
<polygon points="283.1,367.6 291.1,367.6 291.1,375.6 283.1,375.6" fill="rgb(255,255,255)"/>
<polygon points="291.1,367.6 299.1,367.6 299.1,375.6 291.1,375.6" fill="rgb(255,255,255)"/>
<polygon points="299.1,367.6 307.1,367.6 307.1,375.6 299.1,375.6" fill="rgb(255,255,255)"/>
<polygon points="127.1,375.6 135.1,375.6 135.1,383.6 127.1,383.6" fill="rgb(127,230,0)"/><text xml:space="preserve" x="131.1" y="382.433" font-family="Calibri" font-size="7.5" fill="rgb(0,0,0)" text-anchor="middle">2</text>
<polygon points="135.1,375.6 143.1,375.6 143.1,383.6 135.1,383.6" fill="rgb(127,230,0)"/><text xml:space="preserve" x="139.1" y="382.433" font-family="Calibri" font-size="7.5" fill="rgb(0,0,0)" text-anchor="middle">2</text>
<polygon points="143.1,375.6 151.1,375.6 151.1,383.6 143.1,383.6" fill="rgb(127,230,0)"/><text xml:space="preserve" x="147.1" y="382.433" font-family="Calibri" font-size="7.5" fill="rgb(0,0,0)" text-anchor="middle">2</text>
<polygon points="151.1,375.6 159.1,375.6 159.1,383.6 151.1,383.6" fill="rgb(127,230,0)"/><text xml:space="preserve" x="155.1" y="382.433" font-family="Calibri" font-size="7.5" fill="rgb(0,0,0)" text-anchor="middle">2</text>
<polygon points="159.1,375.6 167.1,375.6 167.1,383.6 159.1,383.6" fill="rgb(127,230,0)"/><text xml:space="preserve" x="163.1" y="382.433" font-family="Calibri" font-size="7.5" fill="rgb(0,0,0)" text-anchor="middle">2</text>
<polygon points="167.1,375.6 175.1,375.6 175.1,383.6 167.1,383.6" fill="rgb(205,0,0)"/><text xml:space="preserve" x="171.1" y="382.433" font-family="Calibri" font-size="7.5" fill="rgb(255,255,255)" text-anchor="middle">5</text>
<polygon points="185.1,375.6 193.1,375.6 193.1,383.6 185.1,383.6" fill="rgb(10,67,137)"/>
<polygon points="193.1,375.6 201.1,375.6 201.1,383.6 193.1,383.6" fill="rgb(7,56,136)"/>
<polygon points="201.1,375.6 209.1,375.6 209.1,383.6 201.1,383.6" fill="rgb(15,87,138)"/>
<polygon points="209.1,375.6 217.1,375.6 217.1,383.6 209.1,383.6" fill="rgb(13,78,137)"/>
<polygon points="217.1,375.6 225.1,375.6 225.1,383.6 217.1,383.6" fill="rgb(14,83,138)"/>
<polygon points="225.1,375.6 233.1,375.6 233.1,383.6 225.1,383.6" fill="rgb(37,175,143)"/>
<polygon points="243.1,375.6 251.1,375.6 251.1,383.6 243.1,383.6" fill="rgb(255,255,255)"/>
<polygon points="251.1,375.6 259.1,375.6 259.1,383.6 251.1,383.6" fill="rgb(255,255,255)"/>
<polygon points="259.1,375.6 267.1,375.6 267.1,383.6 259.1,383.6" fill="rgb(255,255,255)"/>
<polygon points="267.1,375.6 275.1,375.6 275.1,383.6 267.1,383.6" fill="rgb(255,255,255)"/>
<polygon points="275.1,375.6 283.1,375.6 283.1,383.6 275.1,383.6" fill="rgb(255,255,255)"/>
<polygon points="283.1,375.6 291.1,375.6 291.1,383.6 283.1,383.6" fill="rgb(255,255,255)"/>
<polygon points="291.1,375.6 299.1,375.6 299.1,383.6 291.1,383.6" fill="rgb(255,255,255)"/>
<polygon points="299.1,375.6 307.1,375.6 307.1,383.6 299.1,383.6" fill="rgb(255,255,255)"/>
<polygon points="127.1,383.6 135.1,383.6 135.1,391.6 127.1,391.6" fill="rgb(127,230,0)"/><text xml:space="preserve" x="131.1" y="390.433" font-family="Calibri" font-size="7.5" fill="rgb(0,0,0)" text-anchor="middle">2</text>
<polygon points="135.1,383.6 143.1,383.6 143.1,391.6 135.1,391.6" fill="rgb(127,230,0)"/><text xml:space="preserve" x="139.1" y="390.433" font-family="Calibri" font-size="7.5" fill="rgb(0,0,0)" text-anchor="middle">2</text>
<polygon points="143.1,383.6 151.1,383.6 151.1,391.6 143.1,391.6" fill="rgb(127,230,0)"/><text xml:space="preserve" x="147.1" y="390.433" font-family="Calibri" font-size="7.5" fill="rgb(0,0,0)" text-anchor="middle">2</text>
<polygon points="151.1,383.6 159.1,383.6 159.1,391.6 151.1,391.6" fill="rgb(127,230,0)"/><text xml:space="preserve" x="155.1" y="390.433" font-family="Calibri" font-size="7.5" fill="rgb(0,0,0)" text-anchor="middle">2</text>
<polygon points="159.1,383.6 167.1,383.6 167.1,391.6 159.1,391.6" fill="rgb(127,230,0)"/><text xml:space="preserve" x="163.1" y="390.433" font-family="Calibri" font-size="7.5" fill="rgb(0,0,0)" text-anchor="middle">2</text>
<polygon points="167.1,383.6 175.1,383.6 175.1,391.6 167.1,391.6" fill="rgb(205,0,0)"/><text xml:space="preserve" x="171.1" y="390.433" font-family="Calibri" font-size="7.5" fill="rgb(255,255,255)" text-anchor="middle">5</text>
<polygon points="185.1,383.6 193.1,383.6 193.1,391.6 185.1,391.6" fill="rgb(5,48,136)"/>
<polygon points="193.1,383.6 201.1,383.6 201.1,391.6 193.1,391.6" fill="rgb(1,33,135)"/>
<polygon points="201.1,383.6 209.1,383.6 209.1,391.6 201.1,391.6" fill="rgb(10,66,137)"/>
<polygon points="209.1,383.6 217.1,383.6 217.1,391.6 209.1,391.6" fill="rgb(15,88,138)"/>
<polygon points="217.1,383.6 225.1,383.6 225.1,391.6 217.1,391.6" fill="rgb(14,83,138)"/>
<polygon points="225.1,383.6 233.1,383.6 233.1,391.6 225.1,391.6" fill="rgb(29,142,141)"/>
<polygon points="243.1,383.6 251.1,383.6 251.1,391.6 243.1,391.6" fill="rgb(255,255,255)"/>
<polygon points="251.1,383.6 259.1,383.6 259.1,391.6 251.1,391.6" fill="rgb(255,255,255)"/>
<polygon points="259.1,383.6 267.1,383.6 267.1,391.6 259.1,391.6" fill="rgb(255,255,255)"/>
<polygon points="267.1,383.6 275.1,383.6 275.1,391.6 267.1,391.6" fill="rgb(255,255,255)"/>
<polygon points="275.1,383.6 283.1,383.6 283.1,391.6 275.1,391.6" fill="rgb(255,255,255)"/>
<polygon points="283.1,383.6 291.1,383.6 291.1,391.6 283.1,391.6" fill="rgb(255,255,255)"/>
<polygon points="291.1,383.6 299.1,383.6 299.1,391.6 291.1,391.6" fill="rgb(255,255,255)"/>
<polygon points="299.1,383.6 307.1,383.6 307.1,391.6 299.1,391.6" fill="rgb(255,255,255)"/>
<polygon points="127.1,391.6 135.1,391.6 135.1,399.6 127.1,399.6" fill="rgb(127,230,0)"/><text xml:space="preserve" x="131.1" y="398.433" font-family="Calibri" font-size="7.5" fill="rgb(0,0,0)" text-anchor="middle">2</text>
<polygon points="135.1,391.6 143.1,391.6 143.1,399.6 135.1,399.6" fill="rgb(127,230,0)"/><text xml:space="preserve" x="139.1" y="398.433" font-family="Calibri" font-size="7.5" fill="rgb(0,0,0)" text-anchor="middle">2</text>
<polygon points="143.1,391.6 151.1,391.6 151.1,399.6 143.1,399.6" fill="rgb(127,230,0)"/><text xml:space="preserve" x="147.1" y="398.433" font-family="Calibri" font-size="7.5" fill="rgb(0,0,0)" text-anchor="middle">2</text>
<polygon points="151.1,391.6 159.1,391.6 159.1,399.6 151.1,399.6" fill="rgb(127,230,0)"/><text xml:space="preserve" x="155.1" y="398.433" font-family="Calibri" font-size="7.5" fill="rgb(0,0,0)" text-anchor="middle">2</text>
<polygon points="159.1,391.6 167.1,391.6 167.1,399.6 159.1,399.6" fill="rgb(127,230,0)"/><text xml:space="preserve" x="163.1" y="398.433" font-family="Calibri" font-size="7.5" fill="rgb(0,0,0)" text-anchor="middle">2</text>
<polygon points="167.1,391.6 175.1,391.6 175.1,399.6 167.1,399.6" fill="rgb(205,0,0)"/><text xml:space="preserve" x="171.1" y="398.433" font-family="Calibri" font-size="7.5" fill="rgb(255,255,255)" text-anchor="middle">5</text>
<polygon points="185.1,391.6 193.1,391.6 193.1,399.6 185.1,399.6" fill="rgb(9,64,137)"/>
<polygon points="193.1,391.6 201.1,391.6 201.1,399.6 193.1,399.6" fill="rgb(7,56,136)"/>
<polygon points="201.1,391.6 209.1,391.6 209.1,399.6 201.1,399.6" fill="rgb(7,56,136)"/>
<polygon points="209.1,391.6 217.1,391.6 217.1,399.6 209.1,399.6" fill="rgb(7,55,136)"/>
<polygon points="217.1,391.6 225.1,391.6 225.1,399.6 217.1,399.6" fill="rgb(8,59,136)"/>
<polygon points="225.1,391.6 233.1,391.6 233.1,399.6 225.1,399.6" fill="rgb(32,155,142)"/>
<polygon points="243.1,391.6 251.1,391.6 251.1,399.6 243.1,399.6" fill="rgb(255,255,255)"/>
<polygon points="251.1,391.6 259.1,391.6 259.1,399.6 251.1,399.6" fill="rgb(255,255,255)"/>
<polygon points="259.1,391.6 267.1,391.6 267.1,399.6 259.1,399.6" fill="rgb(255,255,255)"/>
<polygon points="267.1,391.6 275.1,391.6 275.1,399.6 267.1,399.6" fill="rgb(255,255,255)"/>
<polygon points="275.1,391.6 283.1,391.6 283.1,399.6 275.1,399.6" fill="rgb(255,255,255)"/>
<polygon points="283.1,391.6 291.1,391.6 291.1,399.6 283.1,399.6" fill="rgb(255,255,255)"/>
<polygon points="291.1,391.6 299.1,391.6 299.1,399.6 291.1,399.6" fill="rgb(255,255,255)"/>
<polygon points="299.1,391.6 307.1,391.6 307.1,399.6 299.1,399.6" fill="rgb(255,255,255)"/>
<polygon points="127.1,399.6 135.1,399.6 135.1,407.6 127.1,407.6" fill="rgb(127,230,0)"/><text xml:space="preserve" x="131.1" y="406.433" font-family="Calibri" font-size="7.5" fill="rgb(0,0,0)" text-anchor="middle">2</text>
<polygon points="135.1,399.6 143.1,399.6 143.1,407.6 135.1,407.6" fill="rgb(127,230,0)"/><text xml:space="preserve" x="139.1" y="406.433" font-family="Calibri" font-size="7.5" fill="rgb(0,0,0)" text-anchor="middle">2</text>
<polygon points="143.1,399.6 151.1,399.6 151.1,407.6 143.1,407.6" fill="rgb(127,230,0)"/><text xml:space="preserve" x="147.1" y="406.433" font-family="Calibri" font-size="7.5" fill="rgb(0,0,0)" text-anchor="middle">2</text>
<polygon points="151.1,399.6 159.1,399.6 159.1,407.6 151.1,407.6" fill="rgb(127,230,0)"/><text xml:space="preserve" x="155.1" y="406.433" font-family="Calibri" font-size="7.5" fill="rgb(0,0,0)" text-anchor="middle">2</text>
<polygon points="159.1,399.6 167.1,399.6 167.1,407.6 159.1,407.6" fill="rgb(127,230,0)"/><text xml:space="preserve" x="163.1" y="406.433" font-family="Calibri" font-size="7.5" fill="rgb(0,0,0)" text-anchor="middle">2</text>
<polygon points="167.1,399.6 175.1,399.6 175.1,407.6 167.1,407.6" fill="rgb(205,0,0)"/><text xml:space="preserve" x="171.1" y="406.433" font-family="Calibri" font-size="7.5" fill="rgb(255,255,255)" text-anchor="middle">5</text>
<polygon points="185.1,399.6 193.1,399.6 193.1,407.6 185.1,407.6" fill="rgb(1,34,135)"/>
<polygon points="193.1,399.6 201.1,399.6 201.1,407.6 193.1,407.6" fill="rgb(6,51,136)"/>
<polygon points="201.1,399.6 209.1,399.6 209.1,407.6 201.1,407.6" fill="rgb(16,91,138)"/>
<polygon points="209.1,399.6 217.1,399.6 217.1,407.6 209.1,407.6" fill="rgb(15,85,138)"/>
<polygon points="217.1,399.6 225.1,399.6 225.1,407.6 217.1,407.6" fill="rgb(15,88,138)"/>
<polygon points="225.1,399.6 233.1,399.6 233.1,407.6 225.1,407.6" fill="rgb(33,158,142)"/>
<polygon points="243.1,399.6 251.1,399.6 251.1,407.6 243.1,407.6" fill="rgb(205,0,205)"/>
<polygon points="251.1,399.6 259.1,399.6 259.1,407.6 251.1,407.6" fill="rgb(255,255,255)"/>
<polygon points="259.1,399.6 267.1,399.6 267.1,407.6 259.1,407.6" fill="rgb(255,255,255)"/>
<polygon points="267.1,399.6 275.1,399.6 275.1,407.6 267.1,407.6" fill="rgb(255,255,255)"/>
<polygon points="275.1,399.6 283.1,399.6 283.1,407.6 275.1,407.6" fill="rgb(255,255,255)"/>
<polygon points="283.1,399.6 291.1,399.6 291.1,407.6 283.1,407.6" fill="rgb(255,255,255)"/>
<polygon points="291.1,399.6 299.1,399.6 299.1,407.6 291.1,407.6" fill="rgb(255,255,255)"/>
<polygon points="299.1,399.6 307.1,399.6 307.1,407.6 299.1,407.6" fill="rgb(255,255,255)"/>
<polygon points="127.1,407.6 135.1,407.6 135.1,415.6 127.1,415.6" fill="rgb(127,230,0)"/><text xml:space="preserve" x="131.1" y="414.433" font-family="Calibri" font-size="7.5" fill="rgb(0,0,0)" text-anchor="middle">2</text>
<polygon points="135.1,407.6 143.1,407.6 143.1,415.6 135.1,415.6" fill="rgb(127,230,0)"/><text xml:space="preserve" x="139.1" y="414.433" font-family="Calibri" font-size="7.5" fill="rgb(0,0,0)" text-anchor="middle">2</text>
<polygon points="143.1,407.6 151.1,407.6 151.1,415.6 143.1,415.6" fill="rgb(127,230,0)"/><text xml:space="preserve" x="147.1" y="414.433" font-family="Calibri" font-size="7.5" fill="rgb(0,0,0)" text-anchor="middle">2</text>
<polygon points="151.1,407.6 159.1,407.6 159.1,415.6 151.1,415.6" fill="rgb(127,230,0)"/><text xml:space="preserve" x="155.1" y="414.433" font-family="Calibri" font-size="7.5" fill="rgb(0,0,0)" text-anchor="middle">2</text>
<polygon points="159.1,407.6 167.1,407.6 167.1,415.6 159.1,415.6" fill="rgb(127,230,0)"/><text xml:space="preserve" x="163.1" y="414.433" font-family="Calibri" font-size="7.5" fill="rgb(0,0,0)" text-anchor="middle">2</text>
<polygon points="167.1,407.6 175.1,407.6 175.1,415.6 167.1,415.6" fill="rgb(205,0,0)"/><text xml:space="preserve" x="171.1" y="414.433" font-family="Calibri" font-size="7.5" fill="rgb(255,255,255)" text-anchor="middle">5</text>
<polygon points="185.1,407.6 193.1,407.6 193.1,415.6 185.1,415.6" fill="rgb(26,129,140)"/>
<polygon points="193.1,407.6 201.1,407.6 201.1,415.6 193.1,415.6" fill="rgb(3,41,135)"/>
<polygon points="201.1,407.6 209.1,407.6 209.1,415.6 201.1,415.6" fill="rgb(9,62,137)"/>
<polygon points="209.1,407.6 217.1,407.6 217.1,415.6 209.1,415.6" fill="rgb(7,55,136)"/>
<polygon points="217.1,407.6 225.1,407.6 225.1,415.6 217.1,415.6" fill="rgb(8,59,136)"/>
<polygon points="225.1,407.6 233.1,407.6 233.1,415.6 225.1,415.6" fill="rgb(35,165,142)"/>
<polygon points="243.1,407.6 251.1,407.6 251.1,415.6 243.1,415.6" fill="rgb(255,255,255)"/>
<polygon points="251.1,407.6 259.1,407.6 259.1,415.6 251.1,415.6" fill="rgb(255,255,255)"/>
<polygon points="259.1,407.6 267.1,407.6 267.1,415.6 259.1,415.6" fill="rgb(255,255,255)"/>
<polygon points="267.1,407.6 275.1,407.6 275.1,415.6 267.1,415.6" fill="rgb(255,255,255)"/>
<polygon points="275.1,407.6 283.1,407.6 283.1,415.6 275.1,415.6" fill="rgb(255,255,255)"/>
<polygon points="283.1,407.6 291.1,407.6 291.1,415.6 283.1,415.6" fill="rgb(255,255,255)"/>
<polygon points="291.1,407.6 299.1,407.6 299.1,415.6 291.1,415.6" fill="rgb(255,255,255)"/>
<polygon points="299.1,407.6 307.1,407.6 307.1,415.6 299.1,415.6" fill="rgb(255,255,255)"/>
<polygon points="127.1,415.6 135.1,415.6 135.1,423.6 127.1,423.6" fill="rgb(127,230,0)"/><text xml:space="preserve" x="131.1" y="422.433" font-family="Calibri" font-size="7.5" fill="rgb(0,0,0)" text-anchor="middle">2</text>
<polygon points="135.1,415.6 143.1,415.6 143.1,423.6 135.1,423.6" fill="rgb(127,230,0)"/><text xml:space="preserve" x="139.1" y="422.433" font-family="Calibri" font-size="7.5" fill="rgb(0,0,0)" text-anchor="middle">2</text>
<polygon points="143.1,415.6 151.1,415.6 151.1,423.6 143.1,423.6" fill="rgb(127,230,0)"/><text xml:space="preserve" x="147.1" y="422.433" font-family="Calibri" font-size="7.5" fill="rgb(0,0,0)" text-anchor="middle">2</text>
<polygon points="151.1,415.6 159.1,415.6 159.1,423.6 151.1,423.6" fill="rgb(127,230,0)"/><text xml:space="preserve" x="155.1" y="422.433" font-family="Calibri" font-size="7.5" fill="rgb(0,0,0)" text-anchor="middle">2</text>
<polygon points="159.1,415.6 167.1,415.6 167.1,423.6 159.1,423.6" fill="rgb(127,230,0)"/><text xml:space="preserve" x="163.1" y="422.433" font-family="Calibri" font-size="7.5" fill="rgb(0,0,0)" text-anchor="middle">2</text>
<polygon points="167.1,415.6 175.1,415.6 175.1,423.6 167.1,423.6" fill="rgb(205,0,0)"/><text xml:space="preserve" x="171.1" y="422.433" font-family="Calibri" font-size="7.5" fill="rgb(255,255,255)" text-anchor="middle">5</text>
<polygon points="185.1,415.6 193.1,415.6 193.1,423.6 185.1,423.6" fill="rgb(14,83,138)"/>
<polygon points="193.1,415.6 201.1,415.6 201.1,423.6 193.1,423.6" fill="rgb(18,98,139)"/>
<polygon points="201.1,415.6 209.1,415.6 209.1,423.6 201.1,423.6" fill="rgb(7,56,136)"/>
<polygon points="209.1,415.6 217.1,415.6 217.1,423.6 209.1,423.6" fill="rgb(8,60,136)"/>
<polygon points="217.1,415.6 225.1,415.6 225.1,423.6 217.1,423.6" fill="rgb(8,59,136)"/>
<polygon points="225.1,415.6 233.1,415.6 233.1,423.6 225.1,423.6" fill="rgb(34,162,142)"/>
<polygon points="243.1,415.6 251.1,415.6 251.1,423.6 243.1,423.6" fill="rgb(255,255,255)"/>
<polygon points="251.1,415.6 259.1,415.6 259.1,423.6 251.1,423.6" fill="rgb(255,255,255)"/>
<polygon points="259.1,415.6 267.1,415.6 267.1,423.6 259.1,423.6" fill="rgb(255,255,255)"/>
<polygon points="267.1,415.6 275.1,415.6 275.1,423.6 267.1,423.6" fill="rgb(255,255,255)"/>
<polygon points="275.1,415.6 283.1,415.6 283.1,423.6 275.1,423.6" fill="rgb(255,255,255)"/>
<polygon points="283.1,415.6 291.1,415.6 291.1,423.6 283.1,423.6" fill="rgb(255,255,255)"/>
<polygon points="291.1,415.6 299.1,415.6 299.1,423.6 291.1,423.6" fill="rgb(255,255,255)"/>
<polygon points="299.1,415.6 307.1,415.6 307.1,423.6 299.1,423.6" fill="rgb(255,255,255)"/>
<polygon points="127.1,423.6 135.1,423.6 135.1,431.6 127.1,431.6" fill="rgb(127,230,0)"/><text xml:space="preserve" x="131.1" y="430.433" font-family="Calibri" font-size="7.5" fill="rgb(0,0,0)" text-anchor="middle">2</text>
<polygon points="135.1,423.6 143.1,423.6 143.1,431.6 135.1,431.6" fill="rgb(127,230,0)"/><text xml:space="preserve" x="139.1" y="430.433" font-family="Calibri" font-size="7.5" fill="rgb(0,0,0)" text-anchor="middle">2</text>
<polygon points="143.1,423.6 151.1,423.6 151.1,431.6 143.1,431.6" fill="rgb(127,230,0)"/><text xml:space="preserve" x="147.1" y="430.433" font-family="Calibri" font-size="7.5" fill="rgb(0,0,0)" text-anchor="middle">2</text>
<polygon points="151.1,423.6 159.1,423.6 159.1,431.6 151.1,431.6" fill="rgb(127,230,0)"/><text xml:space="preserve" x="155.1" y="430.433" font-family="Calibri" font-size="7.5" fill="rgb(0,0,0)" text-anchor="middle">2</text>
<polygon points="159.1,423.6 167.1,423.6 167.1,431.6 159.1,431.6" fill="rgb(127,230,0)"/><text xml:space="preserve" x="163.1" y="430.433" font-family="Calibri" font-size="7.5" fill="rgb(0,0,0)" text-anchor="middle">2</text>
<polygon points="167.1,423.6 175.1,423.6 175.1,431.6 167.1,431.6" fill="rgb(205,0,0)"/><text xml:space="preserve" x="171.1" y="430.433" font-family="Calibri" font-size="7.5" fill="rgb(255,255,255)" text-anchor="middle">5</text>
<polygon points="185.1,423.6 193.1,423.6 193.1,431.6 185.1,431.6" fill="rgb(11,73,137)"/>
<polygon points="193.1,423.6 201.1,423.6 201.1,431.6 193.1,431.6" fill="rgb(10,66,137)"/>
<polygon points="201.1,423.6 209.1,423.6 209.1,431.6 201.1,431.6" fill="rgb(10,66,137)"/>
<polygon points="209.1,423.6 217.1,423.6 217.1,431.6 209.1,431.6" fill="rgb(10,66,137)"/>
<polygon points="217.1,423.6 225.1,423.6 225.1,431.6 217.1,431.6" fill="rgb(10,67,137)"/>
<polygon points="225.1,423.6 233.1,423.6 233.1,431.6 225.1,431.6" fill="rgb(38,176,143)"/>
<polygon points="243.1,423.6 251.1,423.6 251.1,431.6 243.1,431.6" fill="rgb(255,255,255)"/>
<polygon points="251.1,423.6 259.1,423.6 259.1,431.6 251.1,431.6" fill="rgb(255,255,255)"/>
<polygon points="259.1,423.6 267.1,423.6 267.1,431.6 259.1,431.6" fill="rgb(255,255,255)"/>
<polygon points="267.1,423.6 275.1,423.6 275.1,431.6 267.1,431.6" fill="rgb(255,255,255)"/>
<polygon points="275.1,423.6 283.1,423.6 283.1,431.6 275.1,431.6" fill="rgb(255,255,255)"/>
<polygon points="283.1,423.6 291.1,423.6 291.1,431.6 283.1,431.6" fill="rgb(255,255,255)"/>
<polygon points="291.1,423.6 299.1,423.6 299.1,431.6 291.1,431.6" fill="rgb(255,255,255)"/>
<polygon points="299.1,423.6 307.1,423.6 307.1,431.6 299.1,431.6" fill="rgb(255,255,255)"/>
<polygon points="127.1,431.6 135.1,431.6 135.1,439.6 127.1,439.6" fill="rgb(127,230,0)"/><text xml:space="preserve" x="131.1" y="438.433" font-family="Calibri" font-size="7.5" fill="rgb(0,0,0)" text-anchor="middle">2</text>
<polygon points="135.1,431.6 143.1,431.6 143.1,439.6 135.1,439.6" fill="rgb(127,230,0)"/><text xml:space="preserve" x="139.1" y="438.433" font-family="Calibri" font-size="7.5" fill="rgb(0,0,0)" text-anchor="middle">2</text>
<polygon points="143.1,431.6 151.1,431.6 151.1,439.6 143.1,439.6" fill="rgb(127,230,0)"/><text xml:space="preserve" x="147.1" y="438.433" font-family="Calibri" font-size="7.5" fill="rgb(0,0,0)" text-anchor="middle">2</text>
<polygon points="151.1,431.6 159.1,431.6 159.1,439.6 151.1,439.6" fill="rgb(127,230,0)"/><text xml:space="preserve" x="155.1" y="438.433" font-family="Calibri" font-size="7.5" fill="rgb(0,0,0)" text-anchor="middle">2</text>
<polygon points="159.1,431.6 167.1,431.6 167.1,439.6 159.1,439.6" fill="rgb(127,230,0)"/><text xml:space="preserve" x="163.1" y="438.433" font-family="Calibri" font-size="7.5" fill="rgb(0,0,0)" text-anchor="middle">2</text>
<polygon points="167.1,431.6 175.1,431.6 175.1,439.6 167.1,439.6" fill="rgb(205,0,0)"/><text xml:space="preserve" x="171.1" y="438.433" font-family="Calibri" font-size="7.5" fill="rgb(255,255,255)" text-anchor="middle">5</text>
<polygon points="185.1,431.6 193.1,431.6 193.1,439.6 185.1,439.6" fill="rgb(0,27,135)"/>
<polygon points="193.1,431.6 201.1,431.6 201.1,439.6 193.1,439.6" fill="rgb(7,56,136)"/>
<polygon points="201.1,431.6 209.1,431.6 209.1,439.6 201.1,439.6" fill="rgb(13,80,138)"/>
<polygon points="209.1,431.6 217.1,431.6 217.1,439.6 209.1,439.6" fill="rgb(12,76,137)"/>
<polygon points="217.1,431.6 225.1,431.6 225.1,439.6 217.1,439.6" fill="rgb(8,61,136)"/>
<polygon points="225.1,431.6 233.1,431.6 233.1,439.6 225.1,439.6" fill="rgb(35,167,143)"/>
<polygon points="243.1,431.6 251.1,431.6 251.1,439.6 243.1,439.6" fill="rgb(255,255,255)"/>
<polygon points="251.1,431.6 259.1,431.6 259.1,439.6 251.1,439.6" fill="rgb(205,0,205)"/>
<polygon points="259.1,431.6 267.1,431.6 267.1,439.6 259.1,439.6" fill="rgb(255,255,255)"/>
<polygon points="267.1,431.6 275.1,431.6 275.1,439.6 267.1,439.6" fill="rgb(255,255,255)"/>
<polygon points="275.1,431.6 283.1,431.6 283.1,439.6 275.1,439.6" fill="rgb(255,255,255)"/>
<polygon points="283.1,431.6 291.1,431.6 291.1,439.6 283.1,439.6" fill="rgb(255,255,255)"/>
<polygon points="291.1,431.6 299.1,431.6 299.1,439.6 291.1,439.6" fill="rgb(255,255,255)"/>
<polygon points="299.1,431.6 307.1,431.6 307.1,439.6 299.1,439.6" fill="rgb(255,255,255)"/>
<polygon points="127.1,439.6 135.1,439.6 135.1,447.6 127.1,447.6" fill="rgb(127,230,0)"/><text xml:space="preserve" x="131.1" y="446.433" font-family="Calibri" font-size="7.5" fill="rgb(0,0,0)" text-anchor="middle">2</text>
<polygon points="135.1,439.6 143.1,439.6 143.1,447.6 135.1,447.6" fill="rgb(127,230,0)"/><text xml:space="preserve" x="139.1" y="446.433" font-family="Calibri" font-size="7.5" fill="rgb(0,0,0)" text-anchor="middle">2</text>
<polygon points="143.1,439.6 151.1,439.6 151.1,447.6 143.1,447.6" fill="rgb(127,230,0)"/><text xml:space="preserve" x="147.1" y="446.433" font-family="Calibri" font-size="7.5" fill="rgb(0,0,0)" text-anchor="middle">2</text>
<polygon points="151.1,439.6 159.1,439.6 159.1,447.6 151.1,447.6" fill="rgb(127,230,0)"/><text xml:space="preserve" x="155.1" y="446.433" font-family="Calibri" font-size="7.5" fill="rgb(0,0,0)" text-anchor="middle">2</text>
<polygon points="159.1,439.6 167.1,439.6 167.1,447.6 159.1,447.6" fill="rgb(127,230,0)"/><text xml:space="preserve" x="163.1" y="446.433" font-family="Calibri" font-size="7.5" fill="rgb(0,0,0)" text-anchor="middle">2</text>
<polygon points="167.1,439.6 175.1,439.6 175.1,447.6 167.1,447.6" fill="rgb(205,0,0)"/><text xml:space="preserve" x="171.1" y="446.433" font-family="Calibri" font-size="7.5" fill="rgb(255,255,255)" text-anchor="middle">5</text>
<polygon points="185.1,439.6 193.1,439.6 193.1,447.6 185.1,447.6" fill="rgb(21,110,139)"/>
<polygon points="193.1,439.6 201.1,439.6 201.1,447.6 193.1,447.6" fill="rgb(7,57,136)"/>
<polygon points="201.1,439.6 209.1,439.6 209.1,447.6 201.1,447.6" fill="rgb(4,44,136)"/>
<polygon points="209.1,439.6 217.1,439.6 217.1,447.6 209.1,447.6" fill="rgb(3,39,135)"/>
<polygon points="217.1,439.6 225.1,439.6 225.1,447.6 217.1,447.6" fill="rgb(10,67,137)"/>
<polygon points="225.1,439.6 233.1,439.6 233.1,447.6 225.1,447.6" fill="rgb(44,201,144)"/>
<polygon points="243.1,439.6 251.1,439.6 251.1,447.6 243.1,447.6" fill="rgb(255,255,255)"/>
<polygon points="251.1,439.6 259.1,439.6 259.1,447.6 251.1,447.6" fill="rgb(255,255,255)"/>
<polygon points="259.1,439.6 267.1,439.6 267.1,447.6 259.1,447.6" fill="rgb(255,255,255)"/>
<polygon points="267.1,439.6 275.1,439.6 275.1,447.6 267.1,447.6" fill="rgb(255,255,255)"/>
<polygon points="275.1,439.6 283.1,439.6 283.1,447.6 275.1,447.6" fill="rgb(255,255,255)"/>
<polygon points="283.1,439.6 291.1,439.6 291.1,447.6 283.1,447.6" fill="rgb(255,255,255)"/>
<polygon points="291.1,439.6 299.1,439.6 299.1,447.6 291.1,447.6" fill="rgb(255,255,255)"/>
<polygon points="299.1,439.6 307.1,439.6 307.1,447.6 299.1,447.6" fill="rgb(255,255,255)"/>
<polygon points="127.1,447.6 135.1,447.6 135.1,455.6 127.1,455.6" fill="rgb(127,230,0)"/><text xml:space="preserve" x="131.1" y="454.433" font-family="Calibri" font-size="7.5" fill="rgb(0,0,0)" text-anchor="middle">2</text>
<polygon points="135.1,447.6 143.1,447.6 143.1,455.6 135.1,455.6" fill="rgb(127,230,0)"/><text xml:space="preserve" x="139.1" y="454.433" font-family="Calibri" font-size="7.5" fill="rgb(0,0,0)" text-anchor="middle">2</text>
<polygon points="143.1,447.6 151.1,447.6 151.1,455.6 143.1,455.6" fill="rgb(127,230,0)"/><text xml:space="preserve" x="147.1" y="454.433" font-family="Calibri" font-size="7.5" fill="rgb(0,0,0)" text-anchor="middle">2</text>
<polygon points="151.1,447.6 159.1,447.6 159.1,455.6 151.1,455.6" fill="rgb(127,230,0)"/><text xml:space="preserve" x="155.1" y="454.433" font-family="Calibri" font-size="7.5" fill="rgb(0,0,0)" text-anchor="middle">2</text>
<polygon points="159.1,447.6 167.1,447.6 167.1,455.6 159.1,455.6" fill="rgb(127,230,0)"/><text xml:space="preserve" x="163.1" y="454.433" font-family="Calibri" font-size="7.5" fill="rgb(0,0,0)" text-anchor="middle">2</text>
<polygon points="167.1,447.6 175.1,447.6 175.1,455.6 167.1,455.6" fill="rgb(205,0,0)"/><text xml:space="preserve" x="171.1" y="454.433" font-family="Calibri" font-size="7.5" fill="rgb(255,255,255)" text-anchor="middle">5</text>
<polygon points="185.1,447.6 193.1,447.6 193.1,455.6 185.1,455.6" fill="rgb(8,60,136)"/>
<polygon points="193.1,447.6 201.1,447.6 201.1,455.6 193.1,455.6" fill="rgb(8,59,136)"/>
<polygon points="201.1,447.6 209.1,447.6 209.1,455.6 201.1,455.6" fill="rgb(11,73,137)"/>
<polygon points="209.1,447.6 217.1,447.6 217.1,455.6 209.1,455.6" fill="rgb(6,52,136)"/>
<polygon points="217.1,447.6 225.1,447.6 225.1,455.6 217.1,455.6" fill="rgb(8,59,136)"/>
<polygon points="225.1,447.6 233.1,447.6 233.1,455.6 225.1,455.6" fill="rgb(31,149,142)"/>
<polygon points="243.1,447.6 251.1,447.6 251.1,455.6 243.1,455.6" fill="rgb(255,255,255)"/>
<polygon points="251.1,447.6 259.1,447.6 259.1,455.6 251.1,455.6" fill="rgb(205,0,205)"/>
<polygon points="259.1,447.6 267.1,447.6 267.1,455.6 259.1,455.6" fill="rgb(255,255,255)"/>
<polygon points="267.1,447.6 275.1,447.6 275.1,455.6 267.1,455.6" fill="rgb(255,255,255)"/>
<polygon points="275.1,447.6 283.1,447.6 283.1,455.6 275.1,455.6" fill="rgb(255,255,255)"/>
<polygon points="283.1,447.6 291.1,447.6 291.1,455.6 283.1,455.6" fill="rgb(205,0,205)"/>
<polygon points="291.1,447.6 299.1,447.6 299.1,455.6 291.1,455.6" fill="rgb(255,255,255)"/>
<polygon points="299.1,447.6 307.1,447.6 307.1,455.6 299.1,455.6" fill="rgb(255,255,255)"/>
<polygon points="127.1,335.6 175.1,335.6 175.1,455.6 127.1,455.6" fill="none" stroke="black" stroke-width="1"/>
<polygon points="185.1,335.6 233.1,335.6 233.1,455.6 185.1,455.6" fill="none" stroke="black" stroke-width="1"/>
<polygon points="243.1,335.6 307.1,335.6 307.1,455.6 243.1,455.6" fill="none" stroke="black" stroke-width="1"/>
<text xml:space="preserve" x="163.55" y="488.6" font-family="Calibri" font-size="8" text-anchor="middle">ClusterAssignment</text>
<polygon points="113.55,495.6 133.55,495.6 133.55,515.6 113.55,515.6" fill="rgb(0,205,0)"/><polygon points="113.55,495.6 133.55,495.6 133.55,515.6 113.55,515.6" fill="none" stroke="black" stroke-width="1"/><text xml:space="preserve" x="123.55" y="508.433" font-family="Calibri" font-size="7.5" fill="rgb(255,255,255)" text-anchor="middle">1.0</text>
<polygon points="133.55,495.6 153.55,495.6 153.55,515.6 133.55,515.6" fill="rgb(127,230,0)"/><polygon points="133.55,495.6 153.55,495.6 153.55,515.6 133.55,515.6" fill="none" stroke="black" stroke-width="1"/><text xml:space="preserve" x="143.55" y="508.433" font-family="Calibri" font-size="7.5" fill="rgb(0,0,0)" text-anchor="middle">2.0</text>
<polygon points="153.55,495.6 173.55,495.6 173.55,515.6 153.55,515.6" fill="rgb(255,255,0)"/><polygon points="153.55,495.6 173.55,495.6 173.55,515.6 153.55,515.6" fill="none" stroke="black" stroke-width="1"/><text xml:space="preserve" x="163.55" y="508.433" font-family="Calibri" font-size="7.5" fill="rgb(0,0,0)" text-anchor="middle">3.0</text>
<polygon points="173.55,495.6 193.55,495.6 193.55,515.6 173.55,515.6" fill="rgb(230,127,0)"/><polygon points="173.55,495.6 193.55,495.6 193.55,515.6 173.55,515.6" fill="none" stroke="black" stroke-width="1"/><text xml:space="preserve" x="183.55" y="508.433" font-family="Calibri" font-size="7.5" fill="rgb(0,0,0)" text-anchor="middle">4.0</text>
<polygon points="193.55,495.6 213.55,495.6 213.55,515.6 193.55,515.6" fill="rgb(205,0,0)"/><polygon points="193.55,495.6 213.55,495.6 213.55,515.6 193.55,515.6" fill="none" stroke="black" stroke-width="1"/><text xml:space="preserve" x="203.55" y="508.433" font-family="Calibri" font-size="7.5" fill="rgb(255,255,255)" text-anchor="middle">5.0</text>
<text xml:space="preserve" x="163.55" y="548.6" font-family="Calibri" font-size="8" text-anchor="middle">Expression</text>
<polygon points="113.55,555.6 133.55,555.6 133.55,575.6 113.55,575.6" fill="rgb(0,27,135)"/><polygon points="113.55,555.6 133.55,555.6 133.55,575.6 113.55,575.6" fill="none" stroke="black" stroke-width="1"/><text xml:space="preserve" x="123.55" y="568.433" font-family="Calibri" font-size="7.5" fill="rgb(255,255,255)" text-anchor="middle">0.0</text>
<polygon points="133.55,555.6 153.55,555.6 153.55,575.6 133.55,575.6" fill="rgb(24,123,140)"/><polygon points="133.55,555.6 153.55,555.6 153.55,575.6 133.55,575.6" fill="none" stroke="black" stroke-width="1"/><text xml:space="preserve" x="143.55" y="568.433" font-family="Calibri" font-size="7.5" fill="rgb(255,255,255)" text-anchor="middle">0.8</text>
<polygon points="153.55,555.6 173.55,555.6 173.55,575.6 153.55,575.6" fill="rgb(49,219,146)"/><polygon points="153.55,555.6 173.55,555.6 173.55,575.6 153.55,575.6" fill="none" stroke="black" stroke-width="1"/><text xml:space="preserve" x="163.55" y="568.433" font-family="Calibri" font-size="7.5" fill="rgb(0,0,0)" text-anchor="middle">1.5</text>
<polygon points="173.55,555.6 193.55,555.6 193.55,575.6 173.55,575.6" fill="rgb(150,206,73)"/><polygon points="173.55,555.6 193.55,555.6 193.55,575.6 173.55,575.6" fill="none" stroke="black" stroke-width="1"/><text xml:space="preserve" x="183.55" y="568.433" font-family="Calibri" font-size="7.5" fill="rgb(0,0,0)" text-anchor="middle">2.2</text>
<polygon points="193.55,555.6 213.55,555.6 213.55,575.6 193.55,575.6" fill="rgb(252,194,1)"/><polygon points="193.55,555.6 213.55,555.6 213.55,575.6 193.55,575.6" fill="none" stroke="black" stroke-width="1"/><text xml:space="preserve" x="203.55" y="568.433" font-family="Calibri" font-size="7.5" fill="rgb(0,0,0)" text-anchor="middle">3.0</text>
<text xml:space="preserve" x="163.55" y="608.6" font-family="Calibri" font-size="8" text-anchor="middle">PANTHERclass</text>
<polygon points="113.55,615.6 133.55,615.6 133.55,635.6 113.55,635.6" fill="rgb(255,255,255)"/><polygon points="113.55,615.6 133.55,615.6 133.55,635.6 113.55,635.6" fill="none" stroke="black" stroke-width="1"/><text xml:space="preserve" x="123.55" y="628.433" font-family="Calibri" font-size="7.5" fill="rgb(0,0,0)" text-anchor="middle">0.0</text>
<polygon points="133.55,615.6 153.55,615.6 153.55,635.6 133.55,635.6" fill="rgb(242,191,242)"/><polygon points="133.55,615.6 153.55,615.6 153.55,635.6 133.55,635.6" fill="none" stroke="black" stroke-width="1"/><text xml:space="preserve" x="143.55" y="628.433" font-family="Calibri" font-size="7.5" fill="rgb(0,0,0)" text-anchor="middle">0.2</text>
<polygon points="153.55,615.6 173.55,615.6 173.55,635.6 153.55,635.6" fill="rgb(230,127,230)"/><polygon points="153.55,615.6 173.55,615.6 173.55,635.6 153.55,635.6" fill="none" stroke="black" stroke-width="1"/><text xml:space="preserve" x="163.55" y="628.433" font-family="Calibri" font-size="7.5" fill="rgb(0,0,0)" text-anchor="middle">0.5</text>
<polygon points="173.55,615.6 193.55,615.6 193.55,635.6 173.55,635.6" fill="rgb(217,63,217)"/><polygon points="173.55,615.6 193.55,615.6 193.55,635.6 173.55,635.6" fill="none" stroke="black" stroke-width="1"/><text xml:space="preserve" x="183.55" y="628.433" font-family="Calibri" font-size="7.5" fill="rgb(255,255,255)" text-anchor="middle">0.8</text>
<polygon points="193.55,615.6 213.55,615.6 213.55,635.6 193.55,635.6" fill="rgb(205,0,205)"/><polygon points="193.55,615.6 213.55,615.6 213.55,635.6 193.55,635.6" fill="none" stroke="black" stroke-width="1"/><text xml:space="preserve" x="203.55" y="628.433" font-family="Calibri" font-size="7.5" fill="rgb(255,255,255)" text-anchor="middle">1.0</text>
</svg>
