<?xml version="1.0" standalone="no"?><!DOCTYPE svg PUBLIC "-//W3C//DTD SVG 1.1//EN" "http://www.w3.org/Graphics/SVG/1.1/DTD/svg11.dtd">
<svg width="297.1" height="575.6" version="1.1" xmlns="http://www.w3.org/2000/svg">
<text xml:space="preserve" x="93.1" y="342.6" font-family="Calibri" font-size="8" text-anchor="end">CCT7</text>
<text xml:space="preserve" x="93.1" y="350.6" font-family="Calibri" font-size="8" text-anchor="end">ZNF428</text>
<text xml:space="preserve" x="93.1" y="358.6" font-family="Calibri" font-size="8" text-anchor="end">TMSB10</text>
<text xml:space="preserve" x="93.1" y="366.6" font-family="Calibri" font-size="8" text-anchor="end">RANBP1</text>
<text xml:space="preserve" x="93.1" y="374.6" font-family="Calibri" font-size="8" text-anchor="end">MAP2K2</text>
<text xml:space="preserve" x="104.1" y="331.6" font-family="Calibri" font-size="8" transform="rotate(270 104.1 331.6)">c1</text>
<text xml:space="preserve" x="112.1" y="331.6" font-family="Calibri" font-size="8" transform="rotate(270 112.1 331.6)">c6</text>
<text xml:space="preserve" x="120.1" y="331.6" font-family="Calibri" font-size="8" transform="rotate(270 120.1 331.6)">c3</text>
<text xml:space="preserve" x="128.1" y="331.6" font-family="Calibri" font-size="8" transform="rotate(270 128.1 331.6)">c4</text>
<text xml:space="preserve" x="136.1" y="331.6" font-family="Calibri" font-size="8" transform="rotate(270 136.1 331.6)">c5</text>
<text xml:space="preserve" x="144.1" y="331.6" font-family="Calibri" font-size="8" transform="rotate(270 144.1 331.6)">c2</text>
<text xml:space="preserve" x="162.1" y="331.6" font-family="Calibri" font-size="8" transform="rotate(270 162.1 331.6)">c1_mean</text>
<text xml:space="preserve" x="170.1" y="331.6" font-family="Calibri" font-size="8" transform="rotate(270 170.1 331.6)">c6_mean</text>
<text xml:space="preserve" x="178.1" y="331.6" font-family="Calibri" font-size="8" transform="rotate(270 178.1 331.6)">c3_mean</text>
<text xml:space="preserve" x="186.1" y="331.6" font-family="Calibri" font-size="8" transform="rotate(270 186.1 331.6)">c4_mean</text>
<text xml:space="preserve" x="194.1" y="331.6" font-family="Calibri" font-size="8" transform="rotate(270 194.1 331.6)">c5_mean</text>
<text xml:space="preserve" x="202.1" y="331.6" font-family="Calibri" font-size="8" transform="rotate(270 202.1 331.6)">c2_mean</text>
<text xml:space="preserve" x="220.1" y="331.6" font-family="Calibri" font-size="8" transform="rotate(270 220.1 331.6)">transcription_factor</text>
<text xml:space="preserve" x="228.1" y="331.6" font-family="Calibri" font-size="8" transform="rotate(270 228.1 331.6)">transmembrane_signal_receptor</text>
<text xml:space="preserve" x="236.1" y="331.6" font-family="Calibri" font-size="8" transform="rotate(270 236.1 331.6)">growth_factor</text>
<text xml:space="preserve" x="244.1" y="331.6" font-family="Calibri" font-size="8" transform="rotate(270 244.1 331.6)">peptide_hormone</text>
<text xml:space="preserve" x="252.1" y="331.6" font-family="Calibri" font-size="8" transform="rotate(270 252.1 331.6)">cytoskeletal_protein</text>
<text xml:space="preserve" x="260.1" y="331.6" font-family="Calibri" font-size="8" transform="rotate(270 260.1 331.6)">ion_channel</text>
<text xml:space="preserve" x="268.1" y="331.6" font-family="Calibri" font-size="8" transform="rotate(270 268.1 331.6)">integrin</text>
<text xml:space="preserve" x="276.1" y="331.6" font-family="Calibri" font-size="8" transform="rotate(270 276.1 331.6)">extracellular_matrix_protein</text>
<polygon points="97.1,335.6 105.1,335.6 105.1,343.6 97.1,343.6" fill="rgb(205,0,0)"/><text xml:space="preserve" x="101.1" y="342.433" font-family="Calibri" font-size="7.5" fill="rgb(255,255,255)" text-anchor="middle">5</text>
<polygon points="105.1,335.6 113.1,335.6 113.1,343.6 105.1,343.6" fill="rgb(205,0,0)"/><text xml:space="preserve" x="109.1" y="342.433" font-family="Calibri" font-size="7.5" fill="rgb(255,255,255)" text-anchor="middle">5</text>
<polygon points="113.1,335.6 121.1,335.6 121.1,343.6 113.1,343.6" fill="rgb(127,230,0)"/><text xml:space="preserve" x="117.1" y="342.433" font-family="Calibri" font-size="7.5" fill="rgb(0,0,0)" text-anchor="middle">2</text>
<polygon points="121.1,335.6 129.1,335.6 129.1,343.6 121.1,343.6" fill="rgb(127,230,0)"/><text xml:space="preserve" x="125.1" y="342.433" font-family="Calibri" font-size="7.5" fill="rgb(0,0,0)" text-anchor="middle">2</text>
<polygon points="129.1,335.6 137.1,335.6 137.1,343.6 129.1,343.6" fill="rgb(205,0,0)"/><text xml:space="preserve" x="133.1" y="342.433" font-family="Calibri" font-size="7.5" fill="rgb(255,255,255)" text-anchor="middle">5</text>
<polygon points="137.1,335.6 145.1,335.6 145.1,343.6 137.1,343.6" fill="rgb(255,255,0)"/><text xml:space="preserve" x="141.1" y="342.433" font-family="Calibri" font-size="7.5" fill="rgb(0,0,0)" text-anchor="middle">3</text>
<polygon points="155.1,335.6 163.1,335.6 163.1,343.6 155.1,343.6" fill="rgb(33,160,142)"/>
<polygon points="163.1,335.6 171.1,335.6 171.1,343.6 163.1,343.6" fill="rgb(36,169,143)"/>
<polygon points="171.1,335.6 179.1,335.6 179.1,343.6 171.1,343.6" fill="rgb(6,53,136)"/>
<polygon points="179.1,335.6 187.1,335.6 187.1,343.6 179.1,343.6" fill="rgb(6,53,136)"/>
<polygon points="187.1,335.6 195.1,335.6 195.1,343.6 187.1,343.6" fill="rgb(36,171,143)"/>
<polygon points="195.1,335.6 203.1,335.6 203.1,343.6 195.1,343.6" fill="rgb(16,91,138)"/>
<polygon points="213.1,335.6 221.1,335.6 221.1,343.6 213.1,343.6" fill="rgb(255,255,255)"/>
<polygon points="221.1,335.6 229.1,335.6 229.1,343.6 221.1,343.6" fill="rgb(255,255,255)"/>
<polygon points="229.1,335.6 237.1,335.6 237.1,343.6 229.1,343.6" fill="rgb(255,255,255)"/>
<polygon points="237.1,335.6 245.1,335.6 245.1,343.6 237.1,343.6" fill="rgb(255,255,255)"/>
<polygon points="245.1,335.6 253.1,335.6 253.1,343.6 245.1,343.6" fill="rgb(255,255,255)"/>
<polygon points="253.1,335.6 261.1,335.6 261.1,343.6 253.1,343.6" fill="rgb(255,255,255)"/>
<polygon points="261.1,335.6 269.1,335.6 269.1,343.6 261.1,343.6" fill="rgb(255,255,255)"/>
<polygon points="269.1,335.6 277.1,335.6 277.1,343.6 269.1,343.6" fill="rgb(255,255,255)"/>
<polygon points="97.1,343.6 105.1,343.6 105.1,351.6 97.1,351.6" fill="rgb(205,0,0)"/><text xml:space="preserve" x="101.1" y="350.433" font-family="Calibri" font-size="7.5" fill="rgb(255,255,255)" text-anchor="middle">5</text>
<polygon points="105.1,343.6 113.1,343.6 113.1,351.6 105.1,351.6" fill="rgb(205,0,0)"/><text xml:space="preserve" x="109.1" y="350.433" font-family="Calibri" font-size="7.5" fill="rgb(255,255,255)" text-anchor="middle">5</text>
<polygon points="113.1,343.6 121.1,343.6 121.1,351.6 113.1,351.6" fill="rgb(127,230,0)"/><text xml:space="preserve" x="117.1" y="350.433" font-family="Calibri" font-size="7.5" fill="rgb(0,0,0)" text-anchor="middle">2</text>
<polygon points="121.1,343.6 129.1,343.6 129.1,351.6 121.1,351.6" fill="rgb(127,230,0)"/><text xml:space="preserve" x="125.1" y="350.433" font-family="Calibri" font-size="7.5" fill="rgb(0,0,0)" text-anchor="middle">2</text>
<polygon points="129.1,343.6 137.1,343.6 137.1,351.6 129.1,351.6" fill="rgb(205,0,0)"/><text xml:space="preserve" x="133.1" y="350.433" font-family="Calibri" font-size="7.5" fill="rgb(255,255,255)" text-anchor="middle">5</text>
<polygon points="137.1,343.6 145.1,343.6 145.1,351.6 137.1,351.6" fill="rgb(255,255,0)"/><text xml:space="preserve" x="141.1" y="350.433" font-family="Calibri" font-size="7.5" fill="rgb(0,0,0)" text-anchor="middle">3</text>
<polygon points="155.1,343.6 163.1,343.6 163.1,351.6 155.1,351.6" fill="rgb(43,197,144)"/>
<polygon points="163.1,343.6 171.1,343.6 171.1,351.6 163.1,351.6" fill="rgb(78,215,124)"/>
<polygon points="171.1,343.6 179.1,343.6 179.1,351.6 171.1,351.6" fill="rgb(10,67,137)"/>
<polygon points="179.1,343.6 187.1,343.6 187.1,351.6 179.1,351.6" fill="rgb(10,66,137)"/>
<polygon points="187.1,343.6 195.1,343.6 195.1,351.6 187.1,351.6" fill="rgb(90,213,116)"/>
<polygon points="195.1,343.6 203.1,343.6 203.1,351.6 195.1,351.6" fill="rgb(18,99,139)"/>
<polygon points="213.1,343.6 221.1,343.6 221.1,351.6 213.1,351.6" fill="rgb(255,255,255)"/>
<polygon points="221.1,343.6 229.1,343.6 229.1,351.6 221.1,351.6" fill="rgb(255,255,255)"/>
<polygon points="229.1,343.6 237.1,343.6 237.1,351.6 229.1,351.6" fill="rgb(255,255,255)"/>
<polygon points="237.1,343.6 245.1,343.6 245.1,351.6 237.1,351.6" fill="rgb(255,255,255)"/>
<polygon points="245.1,343.6 253.1,343.6 253.1,351.6 245.1,351.6" fill="rgb(255,255,255)"/>
<polygon points="253.1,343.6 261.1,343.6 261.1,351.6 253.1,351.6" fill="rgb(255,255,255)"/>
<polygon points="261.1,343.6 269.1,343.6 269.1,351.6 261.1,351.6" fill="rgb(255,255,255)"/>
<polygon points="269.1,343.6 277.1,343.6 277.1,351.6 269.1,351.6" fill="rgb(255,255,255)"/>
<polygon points="97.1,351.6 105.1,351.6 105.1,359.6 97.1,359.6" fill="rgb(205,0,0)"/><text xml:space="preserve" x="101.1" y="358.433" font-family="Calibri" font-size="7.5" fill="rgb(255,255,255)" text-anchor="middle">5</text>
<polygon points="105.1,351.6 113.1,351.6 113.1,359.6 105.1,359.6" fill="rgb(205,0,0)"/><text xml:space="preserve" x="109.1" y="358.433" font-family="Calibri" font-size="7.5" fill="rgb(255,255,255)" text-anchor="middle">5</text>
<polygon points="113.1,351.6 121.1,351.6 121.1,359.6 113.1,359.6" fill="rgb(127,230,0)"/><text xml:space="preserve" x="117.1" y="358.433" font-family="Calibri" font-size="7.5" fill="rgb(0,0,0)" text-anchor="middle">2</text>
<polygon points="121.1,351.6 129.1,351.6 129.1,359.6 121.1,359.6" fill="rgb(127,230,0)"/><text xml:space="preserve" x="125.1" y="358.433" font-family="Calibri" font-size="7.5" fill="rgb(0,0,0)" text-anchor="middle">2</text>
<polygon points="129.1,351.6 137.1,351.6 137.1,359.6 129.1,359.6" fill="rgb(205,0,0)"/><text xml:space="preserve" x="133.1" y="358.433" font-family="Calibri" font-size="7.5" fill="rgb(255,255,255)" text-anchor="middle">5</text>
<polygon points="137.1,351.6 145.1,351.6 145.1,359.6 137.1,359.6" fill="rgb(255,255,0)"/><text xml:space="preserve" x="141.1" y="358.433" font-family="Calibri" font-size="7.5" fill="rgb(0,0,0)" text-anchor="middle">3</text>
<polygon points="155.1,351.6 163.1,351.6 163.1,359.6 155.1,359.6" fill="rgb(40,184,144)"/>
<polygon points="163.1,351.6 171.1,351.6 171.1,359.6 163.1,359.6" fill="rgb(81,214,122)"/>
<polygon points="171.1,351.6 179.1,351.6 179.1,359.6 171.1,359.6" fill="rgb(10,66,137)"/>
<polygon points="179.1,351.6 187.1,351.6 187.1,359.6 179.1,359.6" fill="rgb(9,65,137)"/>
<polygon points="187.1,351.6 195.1,351.6 195.1,359.6 187.1,359.6" fill="rgb(100,212,109)"/>
<polygon points="195.1,351.6 203.1,351.6 203.1,359.6 195.1,359.6" fill="rgb(20,107,139)"/>
<polygon points="213.1,351.6 221.1,351.6 221.1,359.6 213.1,359.6" fill="rgb(255,255,255)"/>
<polygon points="221.1,351.6 229.1,351.6 229.1,359.6 221.1,359.6" fill="rgb(255,255,255)"/>
<polygon points="229.1,351.6 237.1,351.6 237.1,359.6 229.1,359.6" fill="rgb(255,255,255)"/>
<polygon points="237.1,351.6 245.1,351.6 245.1,359.6 237.1,359.6" fill="rgb(255,255,255)"/>
<polygon points="245.1,351.6 253.1,351.6 253.1,359.6 245.1,359.6" fill="rgb(255,255,255)"/>
<polygon points="253.1,351.6 261.1,351.6 261.1,359.6 253.1,359.6" fill="rgb(255,255,255)"/>
<polygon points="261.1,351.6 269.1,351.6 269.1,359.6 261.1,359.6" fill="rgb(255,255,255)"/>
<polygon points="269.1,351.6 277.1,351.6 277.1,359.6 269.1,359.6" fill="rgb(255,255,255)"/>
<polygon points="97.1,359.6 105.1,359.6 105.1,367.6 97.1,367.6" fill="rgb(205,0,0)"/><text xml:space="preserve" x="101.1" y="366.433" font-family="Calibri" font-size="7.5" fill="rgb(255,255,255)" text-anchor="middle">5</text>
<polygon points="105.1,359.6 113.1,359.6 113.1,367.6 105.1,367.6" fill="rgb(205,0,0)"/><text xml:space="preserve" x="109.1" y="366.433" font-family="Calibri" font-size="7.5" fill="rgb(255,255,255)" text-anchor="middle">5</text>
<polygon points="113.1,359.6 121.1,359.6 121.1,367.6 113.1,367.6" fill="rgb(127,230,0)"/><text xml:space="preserve" x="117.1" y="366.433" font-family="Calibri" font-size="7.5" fill="rgb(0,0,0)" text-anchor="middle">2</text>
<polygon points="121.1,359.6 129.1,359.6 129.1,367.6 121.1,367.6" fill="rgb(127,230,0)"/><text xml:space="preserve" x="125.1" y="366.433" font-family="Calibri" font-size="7.5" fill="rgb(0,0,0)" text-anchor="middle">2</text>
<polygon points="129.1,359.6 137.1,359.6 137.1,367.6 129.1,367.6" fill="rgb(205,0,0)"/><text xml:space="preserve" x="133.1" y="366.433" font-family="Calibri" font-size="7.5" fill="rgb(255,255,255)" text-anchor="middle">5</text>
<polygon points="137.1,359.6 145.1,359.6 145.1,367.6 137.1,367.6" fill="rgb(255,255,0)"/><text xml:space="preserve" x="141.1" y="366.433" font-family="Calibri" font-size="7.5" fill="rgb(0,0,0)" text-anchor="middle">3</text>
<polygon points="155.1,359.6 163.1,359.6 163.1,367.6 155.1,367.6" fill="rgb(28,139,141)"/>
<polygon points="163.1,359.6 171.1,359.6 171.1,367.6 163.1,367.6" fill="rgb(32,155,142)"/>
<polygon points="171.1,359.6 179.1,359.6 179.1,367.6 171.1,367.6" fill="rgb(6,51,136)"/>
<polygon points="179.1,359.6 187.1,359.6 187.1,367.6 179.1,367.6" fill="rgb(5,50,136)"/>
<polygon points="187.1,359.6 195.1,359.6 195.1,367.6 187.1,367.6" fill="rgb(33,160,142)"/>
<polygon points="195.1,359.6 203.1,359.6 203.1,367.6 195.1,367.6" fill="rgb(14,84,138)"/>
<polygon points="213.1,359.6 221.1,359.6 221.1,367.6 213.1,367.6" fill="rgb(255,255,255)"/>
<polygon points="221.1,359.6 229.1,359.6 229.1,367.6 221.1,367.6" fill="rgb(255,255,255)"/>
<polygon points="229.1,359.6 237.1,359.6 237.1,367.6 229.1,367.6" fill="rgb(255,255,255)"/>
<polygon points="237.1,359.6 245.1,359.6 245.1,367.6 237.1,367.6" fill="rgb(255,255,255)"/>
<polygon points="245.1,359.6 253.1,359.6 253.1,367.6 245.1,367.6" fill="rgb(255,255,255)"/>
<polygon points="253.1,359.6 261.1,359.6 261.1,367.6 253.1,367.6" fill="rgb(255,255,255)"/>
<polygon points="261.1,359.6 269.1,359.6 269.1,367.6 261.1,367.6" fill="rgb(255,255,255)"/>
<polygon points="269.1,359.6 277.1,359.6 277.1,367.6 269.1,367.6" fill="rgb(255,255,255)"/>
<polygon points="97.1,367.6 105.1,367.6 105.1,375.6 97.1,375.6" fill="rgb(205,0,0)"/><text xml:space="preserve" x="101.1" y="374.433" font-family="Calibri" font-size="7.5" fill="rgb(255,255,255)" text-anchor="middle">5</text>
<polygon points="105.1,367.6 113.1,367.6 113.1,375.6 105.1,375.6" fill="rgb(205,0,0)"/><text xml:space="preserve" x="109.1" y="374.433" font-family="Calibri" font-size="7.5" fill="rgb(255,255,255)" text-anchor="middle">5</text>
<polygon points="113.1,367.6 121.1,367.6 121.1,375.6 113.1,375.6" fill="rgb(127,230,0)"/><text xml:space="preserve" x="117.1" y="374.433" font-family="Calibri" font-size="7.5" fill="rgb(0,0,0)" text-anchor="middle">2</text>
<polygon points="121.1,367.6 129.1,367.6 129.1,375.6 121.1,375.6" fill="rgb(127,230,0)"/><text xml:space="preserve" x="125.1" y="374.433" font-family="Calibri" font-size="7.5" fill="rgb(0,0,0)" text-anchor="middle">2</text>
<polygon points="129.1,367.6 137.1,367.6 137.1,375.6 129.1,375.6" fill="rgb(205,0,0)"/><text xml:space="preserve" x="133.1" y="374.433" font-family="Calibri" font-size="7.5" fill="rgb(255,255,255)" text-anchor="middle">5</text>
<polygon points="137.1,367.6 145.1,367.6 145.1,375.6 137.1,375.6" fill="rgb(255,255,0)"/><text xml:space="preserve" x="141.1" y="374.433" font-family="Calibri" font-size="7.5" fill="rgb(0,0,0)" text-anchor="middle">3</text>
<polygon points="155.1,367.6 163.1,367.6 163.1,375.6 155.1,375.6" fill="rgb(36,170,143)"/>
<polygon points="163.1,367.6 171.1,367.6 171.1,375.6 163.1,375.6" fill="rgb(38,179,143)"/>
<polygon points="171.1,367.6 179.1,367.6 179.1,375.6 171.1,375.6" fill="rgb(7,56,136)"/>
<polygon points="179.1,367.6 187.1,367.6 187.1,375.6 179.1,375.6" fill="rgb(6,53,136)"/>
<polygon points="187.1,367.6 195.1,367.6 195.1,375.6 187.1,375.6" fill="rgb(39,180,143)"/>
<polygon points="195.1,367.6 203.1,367.6 203.1,375.6 195.1,375.6" fill="rgb(16,93,138)"/>
<polygon points="213.1,367.6 221.1,367.6 221.1,375.6 213.1,375.6" fill="rgb(255,255,255)"/>
<polygon points="221.1,367.6 229.1,367.6 229.1,375.6 221.1,375.6" fill="rgb(255,255,255)"/>
<polygon points="229.1,367.6 237.1,367.6 237.1,375.6 229.1,375.6" fill="rgb(255,255,255)"/>
<polygon points="237.1,367.6 245.1,367.6 245.1,375.6 237.1,375.6" fill="rgb(255,255,255)"/>
<polygon points="245.1,367.6 253.1,367.6 253.1,375.6 245.1,375.6" fill="rgb(255,255,255)"/>
<polygon points="253.1,367.6 261.1,367.6 261.1,375.6 253.1,375.6" fill="rgb(255,255,255)"/>
<polygon points="261.1,367.6 269.1,367.6 269.1,375.6 261.1,375.6" fill="rgb(255,255,255)"/>
<polygon points="269.1,367.6 277.1,367.6 277.1,375.6 269.1,375.6" fill="rgb(255,255,255)"/>
<polygon points="97.1,335.6 145.1,335.6 145.1,375.6 97.1,375.6" fill="none" stroke="black" stroke-width="1"/>
<polygon points="155.1,335.6 203.1,335.6 203.1,375.6 155.1,375.6" fill="none" stroke="black" stroke-width="1"/>
<polygon points="213.1,335.6 277.1,335.6 277.1,375.6 213.1,375.6" fill="none" stroke="black" stroke-width="1"/>
<text xml:space="preserve" x="148.55" y="408.6" font-family="Calibri" font-size="8" text-anchor="middle">ClusterAssignment</text>
<polygon points="98.55,415.6 118.55,415.6 118.55,435.6 98.55,435.6" fill="rgb(0,205,0)"/><polygon points="98.55,415.6 118.55,415.6 118.55,435.6 98.55,435.6" fill="none" stroke="black" stroke-width="1"/><text xml:space="preserve" x="108.55" y="428.433" font-family="Calibri" font-size="7.5" fill="rgb(255,255,255)" text-anchor="middle">1.0</text>
<polygon points="118.55,415.6 138.55,415.6 138.55,435.6 118.55,435.6" fill="rgb(127,230,0)"/><polygon points="118.55,415.6 138.55,415.6 138.55,435.6 118.55,435.6" fill="none" stroke="black" stroke-width="1"/><text xml:space="preserve" x="128.55" y="428.433" font-family="Calibri" font-size="7.5" fill="rgb(0,0,0)" text-anchor="middle">2.0</text>
<polygon points="138.55,415.6 158.55,415.6 158.55,435.6 138.55,435.6" fill="rgb(255,255,0)"/><polygon points="138.55,415.6 158.55,415.6 158.55,435.6 138.55,435.6" fill="none" stroke="black" stroke-width="1"/><text xml:space="preserve" x="148.55" y="428.433" font-family="Calibri" font-size="7.5" fill="rgb(0,0,0)" text-anchor="middle">3.0</text>
<polygon points="158.55,415.6 178.55,415.6 178.55,435.6 158.55,435.6" fill="rgb(230,127,0)"/><polygon points="158.55,415.6 178.55,415.6 178.55,435.6 158.55,435.6" fill="none" stroke="black" stroke-width="1"/><text xml:space="preserve" x="168.55" y="428.433" font-family="Calibri" font-size="7.5" fill="rgb(0,0,0)" text-anchor="middle">4.0</text>
<polygon points="178.55,415.6 198.55,415.6 198.55,435.6 178.55,435.6" fill="rgb(205,0,0)"/><polygon points="178.55,415.6 198.55,415.6 198.55,435.6 178.55,435.6" fill="none" stroke="black" stroke-width="1"/><text xml:space="preserve" x="188.55" y="428.433" font-family="Calibri" font-size="7.5" fill="rgb(255,255,255)" text-anchor="middle">5.0</text>
<text xml:space="preserve" x="148.55" y="468.6" font-family="Calibri" font-size="8" text-anchor="middle">Expression</text>
<polygon points="98.55,475.6 118.55,475.6 118.55,495.6 98.55,495.6" fill="rgb(0,27,135)"/><polygon points="98.55,475.6 118.55,475.6 118.55,495.6 98.55,495.6" fill="none" stroke="black" stroke-width="1"/><text xml:space="preserve" x="108.55" y="488.433" font-family="Calibri" font-size="7.5" fill="rgb(255,255,255)" text-anchor="middle">0.0</text>
<polygon points="118.55,475.6 138.55,475.6 138.55,495.6 118.55,495.6" fill="rgb(24,123,140)"/><polygon points="118.55,475.6 138.55,475.6 138.55,495.6 118.55,495.6" fill="none" stroke="black" stroke-width="1"/><text xml:space="preserve" x="128.55" y="488.433" font-family="Calibri" font-size="7.5" fill="rgb(255,255,255)" text-anchor="middle">0.8</text>
<polygon points="138.55,475.6 158.55,475.6 158.55,495.6 138.55,495.6" fill="rgb(49,219,146)"/><polygon points="138.55,475.6 158.55,475.6 158.55,495.6 138.55,495.6" fill="none" stroke="black" stroke-width="1"/><text xml:space="preserve" x="148.55" y="488.433" font-family="Calibri" font-size="7.5" fill="rgb(0,0,0)" text-anchor="middle">1.5</text>
<polygon points="158.55,475.6 178.55,475.6 178.55,495.6 158.55,495.6" fill="rgb(150,206,73)"/><polygon points="158.55,475.6 178.55,475.6 178.55,495.6 158.55,495.6" fill="none" stroke="black" stroke-width="1"/><text xml:space="preserve" x="168.55" y="488.433" font-family="Calibri" font-size="7.5" fill="rgb(0,0,0)" text-anchor="middle">2.2</text>
<polygon points="178.55,475.6 198.55,475.6 198.55,495.6 178.55,495.6" fill="rgb(252,194,1)"/><polygon points="178.55,475.6 198.55,475.6 198.55,495.6 178.55,495.6" fill="none" stroke="black" stroke-width="1"/><text xml:space="preserve" x="188.55" y="488.433" font-family="Calibri" font-size="7.5" fill="rgb(0,0,0)" text-anchor="middle">3.0</text>
<text xml:space="preserve" x="148.55" y="528.6" font-family="Calibri" font-size="8" text-anchor="middle">PANTHERclass</text>
<polygon points="98.55,535.6 118.55,535.6 118.55,555.6 98.55,555.6" fill="rgb(255,255,255)"/><polygon points="98.55,535.6 118.55,535.6 118.55,555.6 98.55,555.6" fill="none" stroke="black" stroke-width="1"/><text xml:space="preserve" x="108.55" y="548.433" font-family="Calibri" font-size="7.5" fill="rgb(0,0,0)" text-anchor="middle">0.0</text>
<polygon points="118.55,535.6 138.55,535.6 138.55,555.6 118.55,555.6" fill="rgb(242,191,242)"/><polygon points="118.55,535.6 138.55,535.6 138.55,555.6 118.55,555.6" fill="none" stroke="black" stroke-width="1"/><text xml:space="preserve" x="128.55" y="548.433" font-family="Calibri" font-size="7.5" fill="rgb(0,0,0)" text-anchor="middle">0.2</text>
<polygon points="138.55,535.6 158.55,535.6 158.55,555.6 138.55,555.6" fill="rgb(230,127,230)"/><polygon points="138.55,535.6 158.55,535.6 158.55,555.6 138.55,555.6" fill="none" stroke="black" stroke-width="1"/><text xml:space="preserve" x="148.55" y="548.433" font-family="Calibri" font-size="7.5" fill="rgb(0,0,0)" text-anchor="middle">0.5</text>
<polygon points="158.55,535.6 178.55,535.6 178.55,555.6 158.55,555.6" fill="rgb(217,63,217)"/><polygon points="158.55,535.6 178.55,535.6 178.55,555.6 158.55,555.6" fill="none" stroke="black" stroke-width="1"/><text xml:space="preserve" x="168.55" y="548.433" font-family="Calibri" font-size="7.5" fill="rgb(255,255,255)" text-anchor="middle">0.8</text>
<polygon points="178.55,535.6 198.55,535.6 198.55,555.6 178.55,555.6" fill="rgb(205,0,205)"/><polygon points="178.55,535.6 198.55,535.6 198.55,555.6 178.55,555.6" fill="none" stroke="black" stroke-width="1"/><text xml:space="preserve" x="188.55" y="548.433" font-family="Calibri" font-size="7.5" fill="rgb(255,255,255)" text-anchor="middle">1.0</text>
</svg>
