<?xml version="1.0" standalone="no"?><!DOCTYPE svg PUBLIC "-//W3C//DTD SVG 1.1//EN" "http://www.w3.org/Graphics/SVG/1.1/DTD/svg11.dtd">
<svg width="328.3" height="567.6" version="1.1" xmlns="http://www.w3.org/2000/svg">
<text xml:space="preserve" x="124.3" y="342.6" font-family="Calibri" font-size="8" text-anchor="end">AC091965.4</text>
<text xml:space="preserve" x="124.3" y="350.6" font-family="Calibri" font-size="8" text-anchor="end">CADPS2</text>
<text xml:space="preserve" x="124.3" y="358.6" font-family="Calibri" font-size="8" text-anchor="end">SHOX</text>
<text xml:space="preserve" x="124.3" y="366.6" font-family="Calibri" font-size="8" text-anchor="end">SYT10</text>
<text xml:space="preserve" x="135.3" y="331.6" font-family="Calibri" font-size="8" transform="rotate(270 135.3 331.6)">c1</text>
<text xml:space="preserve" x="143.3" y="331.6" font-family="Calibri" font-size="8" transform="rotate(270 143.3 331.6)">c6</text>
<text xml:space="preserve" x="151.3" y="331.6" font-family="Calibri" font-size="8" transform="rotate(270 151.3 331.6)">c3</text>
<text xml:space="preserve" x="159.3" y="331.6" font-family="Calibri" font-size="8" transform="rotate(270 159.3 331.6)">c4</text>
<text xml:space="preserve" x="167.3" y="331.6" font-family="Calibri" font-size="8" transform="rotate(270 167.3 331.6)">c5</text>
<text xml:space="preserve" x="175.3" y="331.6" font-family="Calibri" font-size="8" transform="rotate(270 175.3 331.6)">c2</text>
<text xml:space="preserve" x="193.3" y="331.6" font-family="Calibri" font-size="8" transform="rotate(270 193.3 331.6)">c1_mean</text>
<text xml:space="preserve" x="201.3" y="331.6" font-family="Calibri" font-size="8" transform="rotate(270 201.3 331.6)">c6_mean</text>
<text xml:space="preserve" x="209.3" y="331.6" font-family="Calibri" font-size="8" transform="rotate(270 209.3 331.6)">c3_mean</text>
<text xml:space="preserve" x="217.3" y="331.6" font-family="Calibri" font-size="8" transform="rotate(270 217.3 331.6)">c4_mean</text>
<text xml:space="preserve" x="225.3" y="331.6" font-family="Calibri" font-size="8" transform="rotate(270 225.3 331.6)">c5_mean</text>
<text xml:space="preserve" x="233.3" y="331.6" font-family="Calibri" font-size="8" transform="rotate(270 233.3 331.6)">c2_mean</text>
<text xml:space="preserve" x="251.3" y="331.6" font-family="Calibri" font-size="8" transform="rotate(270 251.3 331.6)">transcription_factor</text>
<text xml:space="preserve" x="259.3" y="331.6" font-family="Calibri" font-size="8" transform="rotate(270 259.3 331.6)">transmembrane_signal_receptor</text>
<text xml:space="preserve" x="267.3" y="331.6" font-family="Calibri" font-size="8" transform="rotate(270 267.3 331.6)">growth_factor</text>
<text xml:space="preserve" x="275.3" y="331.6" font-family="Calibri" font-size="8" transform="rotate(270 275.3 331.6)">peptide_hormone</text>
<text xml:space="preserve" x="283.3" y="331.6" font-family="Calibri" font-size="8" transform="rotate(270 283.3 331.6)">cytoskeletal_protein</text>
<text xml:space="preserve" x="291.3" y="331.6" font-family="Calibri" font-size="8" transform="rotate(270 291.3 331.6)">ion_channel</text>
<text xml:space="preserve" x="299.3" y="331.6" font-family="Calibri" font-size="8" transform="rotate(270 299.3 331.6)">integrin</text>
<text xml:space="preserve" x="307.3" y="331.6" font-family="Calibri" font-size="8" transform="rotate(270 307.3 331.6)">extracellular_matrix_protein</text>
<polygon points="128.3,335.6 136.3,335.6 136.3,343.6 128.3,343.6" fill="rgb(0,205,0)"/><text xml:space="preserve" x="132.3" y="342.433" font-family="Calibri" font-size="7.5" fill="rgb(255,255,255)" text-anchor="middle">1</text>
<polygon points="136.3,335.6 144.3,335.6 144.3,343.6 136.3,343.6" fill="rgb(205,0,0)"/><text xml:space="preserve" x="140.3" y="342.433" font-family="Calibri" font-size="7.5" fill="rgb(255,255,255)" text-anchor="middle">5</text>
<polygon points="144.3,335.6 152.3,335.6 152.3,343.6 144.3,343.6" fill="rgb(127,230,0)"/><text xml:space="preserve" x="148.3" y="342.433" font-family="Calibri" font-size="7.5" fill="rgb(0,0,0)" text-anchor="middle">2</text>
<polygon points="152.3,335.6 160.3,335.6 160.3,343.6 152.3,343.6" fill="rgb(127,230,0)"/><text xml:space="preserve" x="156.3" y="342.433" font-family="Calibri" font-size="7.5" fill="rgb(0,0,0)" text-anchor="middle">2</text>
<polygon points="160.3,335.6 168.3,335.6 168.3,343.6 160.3,343.6" fill="rgb(127,230,0)"/><text xml:space="preserve" x="164.3" y="342.433" font-family="Calibri" font-size="7.5" fill="rgb(0,0,0)" text-anchor="middle">2</text>
<polygon points="168.3,335.6 176.3,335.6 176.3,343.6 168.3,343.6" fill="rgb(127,230,0)"/><text xml:space="preserve" x="172.3" y="342.433" font-family="Calibri" font-size="7.5" fill="rgb(0,0,0)" text-anchor="middle">2</text>
<polygon points="186.3,335.6 194.3,335.6 194.3,343.6 186.3,343.6" fill="rgb(0,28,135)"/>
<polygon points="194.3,335.6 202.3,335.6 202.3,343.6 194.3,343.6" fill="rgb(47,213,145)"/>
<polygon points="202.3,335.6 210.3,335.6 210.3,343.6 202.3,343.6" fill="rgb(11,70,137)"/>
<polygon points="210.3,335.6 218.3,335.6 218.3,343.6 210.3,343.6" fill="rgb(4,44,136)"/>
<polygon points="218.3,335.6 226.3,335.6 226.3,343.6 218.3,343.6" fill="rgb(8,60,136)"/>
<polygon points="226.3,335.6 234.3,335.6 234.3,343.6 226.3,343.6" fill="rgb(13,78,137)"/>
<polygon points="244.3,335.6 252.3,335.6 252.3,343.6 244.3,343.6" fill="rgb(255,255,255)"/>
<polygon points="252.3,335.6 260.3,335.6 260.3,343.6 252.3,343.6" fill="rgb(255,255,255)"/>
<polygon points="260.3,335.6 268.3,335.6 268.3,343.6 260.3,343.6" fill="rgb(255,255,255)"/>
<polygon points="268.3,335.6 276.3,335.6 276.3,343.6 268.3,343.6" fill="rgb(255,255,255)"/>
<polygon points="276.3,335.6 284.3,335.6 284.3,343.6 276.3,343.6" fill="rgb(255,255,255)"/>
<polygon points="284.3,335.6 292.3,335.6 292.3,343.6 284.3,343.6" fill="rgb(255,255,255)"/>
<polygon points="292.3,335.6 300.3,335.6 300.3,343.6 292.3,343.6" fill="rgb(255,255,255)"/>
<polygon points="300.3,335.6 308.3,335.6 308.3,343.6 300.3,343.6" fill="rgb(255,255,255)"/>
<polygon points="128.3,343.6 136.3,343.6 136.3,351.6 128.3,351.6" fill="rgb(0,205,0)"/><text xml:space="preserve" x="132.3" y="350.433" font-family="Calibri" font-size="7.5" fill="rgb(255,255,255)" text-anchor="middle">1</text>
<polygon points="136.3,343.6 144.3,343.6 144.3,351.6 136.3,351.6" fill="rgb(205,0,0)"/><text xml:space="preserve" x="140.3" y="350.433" font-family="Calibri" font-size="7.5" fill="rgb(255,255,255)" text-anchor="middle">5</text>
<polygon points="144.3,343.6 152.3,343.6 152.3,351.6 144.3,351.6" fill="rgb(127,230,0)"/><text xml:space="preserve" x="148.3" y="350.433" font-family="Calibri" font-size="7.5" fill="rgb(0,0,0)" text-anchor="middle">2</text>
<polygon points="152.3,343.6 160.3,343.6 160.3,351.6 152.3,351.6" fill="rgb(127,230,0)"/><text xml:space="preserve" x="156.3" y="350.433" font-family="Calibri" font-size="7.5" fill="rgb(0,0,0)" text-anchor="middle">2</text>
<polygon points="160.3,343.6 168.3,343.6 168.3,351.6 160.3,351.6" fill="rgb(127,230,0)"/><text xml:space="preserve" x="164.3" y="350.433" font-family="Calibri" font-size="7.5" fill="rgb(0,0,0)" text-anchor="middle">2</text>
<polygon points="168.3,343.6 176.3,343.6 176.3,351.6 168.3,351.6" fill="rgb(127,230,0)"/><text xml:space="preserve" x="172.3" y="350.433" font-family="Calibri" font-size="7.5" fill="rgb(0,0,0)" text-anchor="middle">2</text>
<polygon points="186.3,343.6 194.3,343.6 194.3,351.6 186.3,351.6" fill="rgb(2,37,135)"/>
<polygon points="194.3,343.6 202.3,343.6 202.3,351.6 194.3,351.6" fill="rgb(155,205,69)"/>
<polygon points="202.3,343.6 210.3,343.6 210.3,351.6 202.3,351.6" fill="rgb(19,105,139)"/>
<polygon points="210.3,343.6 218.3,343.6 218.3,351.6 210.3,351.6" fill="rgb(10,67,137)"/>
<polygon points="218.3,343.6 226.3,343.6 226.3,351.6 218.3,351.6" fill="rgb(22,114,139)"/>
<polygon points="226.3,343.6 234.3,343.6 234.3,351.6 226.3,351.6" fill="rgb(9,62,137)"/>
<polygon points="244.3,343.6 252.3,343.6 252.3,351.6 244.3,351.6" fill="rgb(255,255,255)"/>
<polygon points="252.3,343.6 260.3,343.6 260.3,351.6 252.3,351.6" fill="rgb(255,255,255)"/>
<polygon points="260.3,343.6 268.3,343.6 268.3,351.6 260.3,351.6" fill="rgb(255,255,255)"/>
<polygon points="268.3,343.6 276.3,343.6 276.3,351.6 268.3,351.6" fill="rgb(255,255,255)"/>
<polygon points="276.3,343.6 284.3,343.6 284.3,351.6 276.3,351.6" fill="rgb(255,255,255)"/>
<polygon points="284.3,343.6 292.3,343.6 292.3,351.6 284.3,351.6" fill="rgb(255,255,255)"/>
<polygon points="292.3,343.6 300.3,343.6 300.3,351.6 292.3,351.6" fill="rgb(255,255,255)"/>
<polygon points="300.3,343.6 308.3,343.6 308.3,351.6 300.3,351.6" fill="rgb(255,255,255)"/>
<polygon points="128.3,351.6 136.3,351.6 136.3,359.6 128.3,359.6" fill="rgb(0,205,0)"/><text xml:space="preserve" x="132.3" y="358.433" font-family="Calibri" font-size="7.5" fill="rgb(255,255,255)" text-anchor="middle">1</text>
<polygon points="136.3,351.6 144.3,351.6 144.3,359.6 136.3,359.6" fill="rgb(205,0,0)"/><text xml:space="preserve" x="140.3" y="358.433" font-family="Calibri" font-size="7.5" fill="rgb(255,255,255)" text-anchor="middle">5</text>
<polygon points="144.3,351.6 152.3,351.6 152.3,359.6 144.3,359.6" fill="rgb(127,230,0)"/><text xml:space="preserve" x="148.3" y="358.433" font-family="Calibri" font-size="7.5" fill="rgb(0,0,0)" text-anchor="middle">2</text>
<polygon points="152.3,351.6 160.3,351.6 160.3,359.6 152.3,359.6" fill="rgb(127,230,0)"/><text xml:space="preserve" x="156.3" y="358.433" font-family="Calibri" font-size="7.5" fill="rgb(0,0,0)" text-anchor="middle">2</text>
<polygon points="160.3,351.6 168.3,351.6 168.3,359.6 160.3,359.6" fill="rgb(127,230,0)"/><text xml:space="preserve" x="164.3" y="358.433" font-family="Calibri" font-size="7.5" fill="rgb(0,0,0)" text-anchor="middle">2</text>
<polygon points="168.3,351.6 176.3,351.6 176.3,359.6 168.3,359.6" fill="rgb(127,230,0)"/><text xml:space="preserve" x="172.3" y="358.433" font-family="Calibri" font-size="7.5" fill="rgb(0,0,0)" text-anchor="middle">2</text>
<polygon points="186.3,351.6 194.3,351.6 194.3,359.6 186.3,359.6" fill="rgb(0,30,135)"/>
<polygon points="194.3,351.6 202.3,351.6 202.3,359.6 194.3,359.6" fill="rgb(35,165,142)"/>
<polygon points="202.3,351.6 210.3,351.6 210.3,359.6 202.3,359.6" fill="rgb(20,108,139)"/>
<polygon points="210.3,351.6 218.3,351.6 218.3,359.6 210.3,359.6" fill="rgb(13,78,137)"/>
<polygon points="218.3,351.6 226.3,351.6 226.3,359.6 218.3,359.6" fill="rgb(11,71,137)"/>
<polygon points="226.3,351.6 234.3,351.6 234.3,359.6 226.3,359.6" fill="rgb(5,50,136)"/>
<polygon points="244.3,351.6 252.3,351.6 252.3,359.6 244.3,359.6" fill="rgb(205,0,205)"/>
<polygon points="252.3,351.6 260.3,351.6 260.3,359.6 252.3,359.6" fill="rgb(255,255,255)"/>
<polygon points="260.3,351.6 268.3,351.6 268.3,359.6 260.3,359.6" fill="rgb(255,255,255)"/>
<polygon points="268.3,351.6 276.3,351.6 276.3,359.6 268.3,359.6" fill="rgb(255,255,255)"/>
<polygon points="276.3,351.6 284.3,351.6 284.3,359.6 276.3,359.6" fill="rgb(255,255,255)"/>
<polygon points="284.3,351.6 292.3,351.6 292.3,359.6 284.3,359.6" fill="rgb(255,255,255)"/>
<polygon points="292.3,351.6 300.3,351.6 300.3,359.6 292.3,359.6" fill="rgb(255,255,255)"/>
<polygon points="300.3,351.6 308.3,351.6 308.3,359.6 300.3,359.6" fill="rgb(255,255,255)"/>
<polygon points="128.3,359.6 136.3,359.6 136.3,367.6 128.3,367.6" fill="rgb(0,205,0)"/><text xml:space="preserve" x="132.3" y="366.433" font-family="Calibri" font-size="7.5" fill="rgb(255,255,255)" text-anchor="middle">1</text>
<polygon points="136.3,359.6 144.3,359.6 144.3,367.6 136.3,367.6" fill="rgb(205,0,0)"/><text xml:space="preserve" x="140.3" y="366.433" font-family="Calibri" font-size="7.5" fill="rgb(255,255,255)" text-anchor="middle">5</text>
<polygon points="144.3,359.6 152.3,359.6 152.3,367.6 144.3,367.6" fill="rgb(127,230,0)"/><text xml:space="preserve" x="148.3" y="366.433" font-family="Calibri" font-size="7.5" fill="rgb(0,0,0)" text-anchor="middle">2</text>
<polygon points="152.3,359.6 160.3,359.6 160.3,367.6 152.3,367.6" fill="rgb(127,230,0)"/><text xml:space="preserve" x="156.3" y="366.433" font-family="Calibri" font-size="7.5" fill="rgb(0,0,0)" text-anchor="middle">2</text>
<polygon points="160.3,359.6 168.3,359.6 168.3,367.6 160.3,367.6" fill="rgb(127,230,0)"/><text xml:space="preserve" x="164.3" y="366.433" font-family="Calibri" font-size="7.5" fill="rgb(0,0,0)" text-anchor="middle">2</text>
<polygon points="168.3,359.6 176.3,359.6 176.3,367.6 168.3,367.6" fill="rgb(127,230,0)"/><text xml:space="preserve" x="172.3" y="366.433" font-family="Calibri" font-size="7.5" fill="rgb(0,0,0)" text-anchor="middle">2</text>
<polygon points="186.3,359.6 194.3,359.6 194.3,367.6 186.3,367.6" fill="rgb(3,42,135)"/>
<polygon points="194.3,359.6 202.3,359.6 202.3,367.6 194.3,367.6" fill="rgb(86,214,118)"/>
<polygon points="202.3,359.6 210.3,359.6 210.3,367.6 202.3,367.6" fill="rgb(14,82,138)"/>
<polygon points="210.3,359.6 218.3,359.6 218.3,367.6 210.3,367.6" fill="rgb(21,110,139)"/>
<polygon points="218.3,359.6 226.3,359.6 226.3,367.6 218.3,367.6" fill="rgb(11,73,137)"/>
<polygon points="226.3,359.6 234.3,359.6 234.3,367.6 226.3,367.6" fill="rgb(10,67,137)"/>
<polygon points="244.3,359.6 252.3,359.6 252.3,367.6 244.3,367.6" fill="rgb(255,255,255)"/>
<polygon points="252.3,359.6 260.3,359.6 260.3,367.6 252.3,367.6" fill="rgb(255,255,255)"/>
<polygon points="260.3,359.6 268.3,359.6 268.3,367.6 260.3,367.6" fill="rgb(255,255,255)"/>
<polygon points="268.3,359.6 276.3,359.6 276.3,367.6 268.3,367.6" fill="rgb(255,255,255)"/>
<polygon points="276.3,359.6 284.3,359.6 284.3,367.6 276.3,367.6" fill="rgb(255,255,255)"/>
<polygon points="284.3,359.6 292.3,359.6 292.3,367.6 284.3,367.6" fill="rgb(255,255,255)"/>
<polygon points="292.3,359.6 300.3,359.6 300.3,367.6 292.3,367.6" fill="rgb(255,255,255)"/>
<polygon points="300.3,359.6 308.3,359.6 308.3,367.6 300.3,367.6" fill="rgb(255,255,255)"/>
<polygon points="128.3,335.6 176.3,335.6 176.3,367.6 128.3,367.6" fill="none" stroke="black" stroke-width="1"/>
<polygon points="186.3,335.6 234.3,335.6 234.3,367.6 186.3,367.6" fill="none" stroke="black" stroke-width="1"/>
<polygon points="244.3,335.6 308.3,335.6 308.3,367.6 244.3,367.6" fill="none" stroke="black" stroke-width="1"/>
<text xml:space="preserve" x="164.15" y="400.6" font-family="Calibri" font-size="8" text-anchor="middle">ClusterAssignment</text>
<polygon points="114.15,407.6 134.15,407.6 134.15,427.6 114.15,427.6" fill="rgb(0,205,0)"/><polygon points="114.15,407.6 134.15,407.6 134.15,427.6 114.15,427.6" fill="none" stroke="black" stroke-width="1"/><text xml:space="preserve" x="124.15" y="420.433" font-family="Calibri" font-size="7.5" fill="rgb(255,255,255)" text-anchor="middle">1.0</text>
<polygon points="134.15,407.6 154.15,407.6 154.15,427.6 134.15,427.6" fill="rgb(127,230,0)"/><polygon points="134.15,407.6 154.15,407.6 154.15,427.6 134.15,427.6" fill="none" stroke="black" stroke-width="1"/><text xml:space="preserve" x="144.15" y="420.433" font-family="Calibri" font-size="7.5" fill="rgb(0,0,0)" text-anchor="middle">2.0</text>
<polygon points="154.15,407.6 174.15,407.6 174.15,427.6 154.15,427.6" fill="rgb(255,255,0)"/><polygon points="154.15,407.6 174.15,407.6 174.15,427.6 154.15,427.6" fill="none" stroke="black" stroke-width="1"/><text xml:space="preserve" x="164.15" y="420.433" font-family="Calibri" font-size="7.5" fill="rgb(0,0,0)" text-anchor="middle">3.0</text>
<polygon points="174.15,407.6 194.15,407.6 194.15,427.6 174.15,427.6" fill="rgb(230,127,0)"/><polygon points="174.15,407.6 194.15,407.6 194.15,427.6 174.15,427.6" fill="none" stroke="black" stroke-width="1"/><text xml:space="preserve" x="184.15" y="420.433" font-family="Calibri" font-size="7.5" fill="rgb(0,0,0)" text-anchor="middle">4.0</text>
<polygon points="194.15,407.6 214.15,407.6 214.15,427.6 194.15,427.6" fill="rgb(205,0,0)"/><polygon points="194.15,407.6 214.15,407.6 214.15,427.6 194.15,427.6" fill="none" stroke="black" stroke-width="1"/><text xml:space="preserve" x="204.15" y="420.433" font-family="Calibri" font-size="7.5" fill="rgb(255,255,255)" text-anchor="middle">5.0</text>
<text xml:space="preserve" x="164.15" y="460.6" font-family="Calibri" font-size="8" text-anchor="middle">Expression</text>
<polygon points="114.15,467.6 134.15,467.6 134.15,487.6 114.15,487.6" fill="rgb(0,27,135)"/><polygon points="114.15,467.6 134.15,467.6 134.15,487.6 114.15,487.6" fill="none" stroke="black" stroke-width="1"/><text xml:space="preserve" x="124.15" y="480.433" font-family="Calibri" font-size="7.5" fill="rgb(255,255,255)" text-anchor="middle">0.0</text>
<polygon points="134.15,467.6 154.15,467.6 154.15,487.6 134.15,487.6" fill="rgb(24,123,140)"/><polygon points="134.15,467.6 154.15,467.6 154.15,487.6 134.15,487.6" fill="none" stroke="black" stroke-width="1"/><text xml:space="preserve" x="144.15" y="480.433" font-family="Calibri" font-size="7.5" fill="rgb(255,255,255)" text-anchor="middle">0.8</text>
<polygon points="154.15,467.6 174.15,467.6 174.15,487.6 154.15,487.6" fill="rgb(49,219,146)"/><polygon points="154.15,467.6 174.15,467.6 174.15,487.6 154.15,487.6" fill="none" stroke="black" stroke-width="1"/><text xml:space="preserve" x="164.15" y="480.433" font-family="Calibri" font-size="7.5" fill="rgb(0,0,0)" text-anchor="middle">1.5</text>
<polygon points="174.15,467.6 194.15,467.6 194.15,487.6 174.15,487.6" fill="rgb(150,206,73)"/><polygon points="174.15,467.6 194.15,467.6 194.15,487.6 174.15,487.6" fill="none" stroke="black" stroke-width="1"/><text xml:space="preserve" x="184.15" y="480.433" font-family="Calibri" font-size="7.5" fill="rgb(0,0,0)" text-anchor="middle">2.2</text>
<polygon points="194.15,467.6 214.15,467.6 214.15,487.6 194.15,487.6" fill="rgb(252,194,1)"/><polygon points="194.15,467.6 214.15,467.6 214.15,487.6 194.15,487.6" fill="none" stroke="black" stroke-width="1"/><text xml:space="preserve" x="204.15" y="480.433" font-family="Calibri" font-size="7.5" fill="rgb(0,0,0)" text-anchor="middle">3.0</text>
<text xml:space="preserve" x="164.15" y="520.6" font-family="Calibri" font-size="8" text-anchor="middle">PANTHERclass</text>
<polygon points="114.15,527.6 134.15,527.6 134.15,547.6 114.15,547.6" fill="rgb(255,255,255)"/><polygon points="114.15,527.6 134.15,527.6 134.15,547.6 114.15,547.6" fill="none" stroke="black" stroke-width="1"/><text xml:space="preserve" x="124.15" y="540.433" font-family="Calibri" font-size="7.5" fill="rgb(0,0,0)" text-anchor="middle">0.0</text>
<polygon points="134.15,527.6 154.15,527.6 154.15,547.6 134.15,547.6" fill="rgb(242,191,242)"/><polygon points="134.15,527.6 154.15,527.6 154.15,547.6 134.15,547.6" fill="none" stroke="black" stroke-width="1"/><text xml:space="preserve" x="144.15" y="540.433" font-family="Calibri" font-size="7.5" fill="rgb(0,0,0)" text-anchor="middle">0.2</text>
<polygon points="154.15,527.6 174.15,527.6 174.15,547.6 154.15,547.6" fill="rgb(230,127,230)"/><polygon points="154.15,527.6 174.15,527.6 174.15,547.6 154.15,547.6" fill="none" stroke="black" stroke-width="1"/><text xml:space="preserve" x="164.15" y="540.433" font-family="Calibri" font-size="7.5" fill="rgb(0,0,0)" text-anchor="middle">0.5</text>
<polygon points="174.15,527.6 194.15,527.6 194.15,547.6 174.15,547.6" fill="rgb(217,63,217)"/><polygon points="174.15,527.6 194.15,527.6 194.15,547.6 174.15,547.6" fill="none" stroke="black" stroke-width="1"/><text xml:space="preserve" x="184.15" y="540.433" font-family="Calibri" font-size="7.5" fill="rgb(255,255,255)" text-anchor="middle">0.8</text>
<polygon points="194.15,527.6 214.15,527.6 214.15,547.6 194.15,547.6" fill="rgb(205,0,205)"/><polygon points="194.15,527.6 214.15,527.6 214.15,547.6 194.15,547.6" fill="none" stroke="black" stroke-width="1"/><text xml:space="preserve" x="204.15" y="540.433" font-family="Calibri" font-size="7.5" fill="rgb(255,255,255)" text-anchor="middle">1.0</text>
</svg>
