<?xml version="1.0" standalone="no"?><!DOCTYPE svg PUBLIC "-//W3C//DTD SVG 1.1//EN" "http://www.w3.org/Graphics/SVG/1.1/DTD/svg11.dtd">
<svg width="304.9" height="559.6" version="1.1" xmlns="http://www.w3.org/2000/svg">
<text xml:space="preserve" x="100.9" y="342.6" font-family="Calibri" font-size="8" text-anchor="end">ENO1</text>
<text xml:space="preserve" x="100.9" y="350.6" font-family="Calibri" font-size="8" text-anchor="end">MT-CO1</text>
<text xml:space="preserve" x="100.9" y="358.6" font-family="Calibri" font-size="8" text-anchor="end">MT-ATP6</text>
<text xml:space="preserve" x="111.9" y="331.6" font-family="Calibri" font-size="8" transform="rotate(270 111.9 331.6)">c1</text>
<text xml:space="preserve" x="119.9" y="331.6" font-family="Calibri" font-size="8" transform="rotate(270 119.9 331.6)">c6</text>
<text xml:space="preserve" x="127.9" y="331.6" font-family="Calibri" font-size="8" transform="rotate(270 127.9 331.6)">c3</text>
<text xml:space="preserve" x="135.9" y="331.6" font-family="Calibri" font-size="8" transform="rotate(270 135.9 331.6)">c4</text>
<text xml:space="preserve" x="143.9" y="331.6" font-family="Calibri" font-size="8" transform="rotate(270 143.9 331.6)">c5</text>
<text xml:space="preserve" x="151.9" y="331.6" font-family="Calibri" font-size="8" transform="rotate(270 151.9 331.6)">c2</text>
<text xml:space="preserve" x="169.9" y="331.6" font-family="Calibri" font-size="8" transform="rotate(270 169.9 331.6)">c1_mean</text>
<text xml:space="preserve" x="177.9" y="331.6" font-family="Calibri" font-size="8" transform="rotate(270 177.9 331.6)">c6_mean</text>
<text xml:space="preserve" x="185.9" y="331.6" font-family="Calibri" font-size="8" transform="rotate(270 185.9 331.6)">c3_mean</text>
<text xml:space="preserve" x="193.9" y="331.6" font-family="Calibri" font-size="8" transform="rotate(270 193.9 331.6)">c4_mean</text>
<text xml:space="preserve" x="201.9" y="331.6" font-family="Calibri" font-size="8" transform="rotate(270 201.9 331.6)">c5_mean</text>
<text xml:space="preserve" x="209.9" y="331.6" font-family="Calibri" font-size="8" transform="rotate(270 209.9 331.6)">c2_mean</text>
<text xml:space="preserve" x="227.9" y="331.6" font-family="Calibri" font-size="8" transform="rotate(270 227.9 331.6)">transcription_factor</text>
<text xml:space="preserve" x="235.9" y="331.6" font-family="Calibri" font-size="8" transform="rotate(270 235.9 331.6)">transmembrane_signal_receptor</text>
<text xml:space="preserve" x="243.9" y="331.6" font-family="Calibri" font-size="8" transform="rotate(270 243.9 331.6)">growth_factor</text>
<text xml:space="preserve" x="251.9" y="331.6" font-family="Calibri" font-size="8" transform="rotate(270 251.9 331.6)">peptide_hormone</text>
<text xml:space="preserve" x="259.9" y="331.6" font-family="Calibri" font-size="8" transform="rotate(270 259.9 331.6)">cytoskeletal_protein</text>
<text xml:space="preserve" x="267.9" y="331.6" font-family="Calibri" font-size="8" transform="rotate(270 267.9 331.6)">ion_channel</text>
<text xml:space="preserve" x="275.9" y="331.6" font-family="Calibri" font-size="8" transform="rotate(270 275.9 331.6)">integrin</text>
<text xml:space="preserve" x="283.9" y="331.6" font-family="Calibri" font-size="8" transform="rotate(270 283.9 331.6)">extracellular_matrix_protein</text>
<polygon points="104.9,335.6 112.9,335.6 112.9,343.6 104.9,343.6" fill="rgb(230,127,0)"/><text xml:space="preserve" x="108.9" y="342.433" font-family="Calibri" font-size="7.5" fill="rgb(0,0,0)" text-anchor="middle">4</text>
<polygon points="112.9,335.6 120.9,335.6 120.9,343.6 112.9,343.6" fill="rgb(230,127,0)"/><text xml:space="preserve" x="116.9" y="342.433" font-family="Calibri" font-size="7.5" fill="rgb(0,0,0)" text-anchor="middle">4</text>
<polygon points="120.9,335.6 128.9,335.6 128.9,343.6 120.9,343.6" fill="rgb(205,0,0)"/><text xml:space="preserve" x="124.9" y="342.433" font-family="Calibri" font-size="7.5" fill="rgb(255,255,255)" text-anchor="middle">5</text>
<polygon points="128.9,335.6 136.9,335.6 136.9,343.6 128.9,343.6" fill="rgb(205,0,0)"/><text xml:space="preserve" x="132.9" y="342.433" font-family="Calibri" font-size="7.5" fill="rgb(255,255,255)" text-anchor="middle">5</text>
<polygon points="136.9,335.6 144.9,335.6 144.9,343.6 136.9,343.6" fill="rgb(230,127,0)"/><text xml:space="preserve" x="140.9" y="342.433" font-family="Calibri" font-size="7.5" fill="rgb(0,0,0)" text-anchor="middle">4</text>
<polygon points="144.9,335.6 152.9,335.6 152.9,343.6 144.9,343.6" fill="rgb(230,127,0)"/><text xml:space="preserve" x="148.9" y="342.433" font-family="Calibri" font-size="7.5" fill="rgb(0,0,0)" text-anchor="middle">4</text>
<polygon points="162.9,335.6 170.9,335.6 170.9,343.6 162.9,343.6" fill="rgb(28,139,141)"/>
<polygon points="170.9,335.6 178.9,335.6 178.9,343.6 170.9,343.6" fill="rgb(20,106,139)"/>
<polygon points="178.9,335.6 186.9,335.6 186.9,343.6 178.9,343.6" fill="rgb(208,199,31)"/>
<polygon points="186.9,335.6 194.9,335.6 194.9,343.6 186.9,343.6" fill="rgb(252,194,1)"/>
<polygon points="194.9,335.6 202.9,335.6 202.9,343.6 194.9,343.6" fill="rgb(19,103,139)"/>
<polygon points="202.9,335.6 210.9,335.6 210.9,343.6 202.9,343.6" fill="rgb(21,111,139)"/>
<polygon points="220.9,335.6 228.9,335.6 228.9,343.6 220.9,343.6" fill="rgb(255,255,255)"/>
<polygon points="228.9,335.6 236.9,335.6 236.9,343.6 228.9,343.6" fill="rgb(255,255,255)"/>
<polygon points="236.9,335.6 244.9,335.6 244.9,343.6 236.9,343.6" fill="rgb(255,255,255)"/>
<polygon points="244.9,335.6 252.9,335.6 252.9,343.6 244.9,343.6" fill="rgb(255,255,255)"/>
<polygon points="252.9,335.6 260.9,335.6 260.9,343.6 252.9,343.6" fill="rgb(255,255,255)"/>
<polygon points="260.9,335.6 268.9,335.6 268.9,343.6 260.9,343.6" fill="rgb(255,255,255)"/>
<polygon points="268.9,335.6 276.9,335.6 276.9,343.6 268.9,343.6" fill="rgb(255,255,255)"/>
<polygon points="276.9,335.6 284.9,335.6 284.9,343.6 276.9,343.6" fill="rgb(255,255,255)"/>
<polygon points="104.9,343.6 112.9,343.6 112.9,351.6 104.9,351.6" fill="rgb(230,127,0)"/><text xml:space="preserve" x="108.9" y="350.433" font-family="Calibri" font-size="7.5" fill="rgb(0,0,0)" text-anchor="middle">4</text>
<polygon points="112.9,343.6 120.9,343.6 120.9,351.6 112.9,351.6" fill="rgb(230,127,0)"/><text xml:space="preserve" x="116.9" y="350.433" font-family="Calibri" font-size="7.5" fill="rgb(0,0,0)" text-anchor="middle">4</text>
<polygon points="120.9,343.6 128.9,343.6 128.9,351.6 120.9,351.6" fill="rgb(205,0,0)"/><text xml:space="preserve" x="124.9" y="350.433" font-family="Calibri" font-size="7.5" fill="rgb(255,255,255)" text-anchor="middle">5</text>
<polygon points="128.9,343.6 136.9,343.6 136.9,351.6 128.9,351.6" fill="rgb(205,0,0)"/><text xml:space="preserve" x="132.9" y="350.433" font-family="Calibri" font-size="7.5" fill="rgb(255,255,255)" text-anchor="middle">5</text>
<polygon points="136.9,343.6 144.9,343.6 144.9,351.6 136.9,351.6" fill="rgb(230,127,0)"/><text xml:space="preserve" x="140.9" y="350.433" font-family="Calibri" font-size="7.5" fill="rgb(0,0,0)" text-anchor="middle">4</text>
<polygon points="144.9,343.6 152.9,343.6 152.9,351.6 144.9,351.6" fill="rgb(230,127,0)"/><text xml:space="preserve" x="148.9" y="350.433" font-family="Calibri" font-size="7.5" fill="rgb(0,0,0)" text-anchor="middle">4</text>
<polygon points="162.9,343.6 170.9,343.6 170.9,351.6 162.9,351.6" fill="rgb(28,139,141)"/>
<polygon points="170.9,343.6 178.9,343.6 178.9,351.6 170.9,351.6" fill="rgb(20,107,139)"/>
<polygon points="178.9,343.6 186.9,343.6 186.9,351.6 178.9,351.6" fill="rgb(173,203,57)"/>
<polygon points="186.9,343.6 194.9,343.6 194.9,351.6 186.9,351.6" fill="rgb(170,204,59)"/>
<polygon points="194.9,343.6 202.9,343.6 202.9,351.6 194.9,351.6" fill="rgb(22,114,139)"/>
<polygon points="202.9,343.6 210.9,343.6 210.9,351.6 202.9,351.6" fill="rgb(20,107,139)"/>
<polygon points="220.9,343.6 228.9,343.6 228.9,351.6 220.9,351.6" fill="rgb(255,255,255)"/>
<polygon points="228.9,343.6 236.9,343.6 236.9,351.6 228.9,351.6" fill="rgb(255,255,255)"/>
<polygon points="236.9,343.6 244.9,343.6 244.9,351.6 236.9,351.6" fill="rgb(255,255,255)"/>
<polygon points="244.9,343.6 252.9,343.6 252.9,351.6 244.9,351.6" fill="rgb(255,255,255)"/>
<polygon points="252.9,343.6 260.9,343.6 260.9,351.6 252.9,351.6" fill="rgb(255,255,255)"/>
<polygon points="260.9,343.6 268.9,343.6 268.9,351.6 260.9,351.6" fill="rgb(255,255,255)"/>
<polygon points="268.9,343.6 276.9,343.6 276.9,351.6 268.9,351.6" fill="rgb(255,255,255)"/>
<polygon points="276.9,343.6 284.9,343.6 284.9,351.6 276.9,351.6" fill="rgb(255,255,255)"/>
<polygon points="104.9,351.6 112.9,351.6 112.9,359.6 104.9,359.6" fill="rgb(230,127,0)"/><text xml:space="preserve" x="108.9" y="358.433" font-family="Calibri" font-size="7.5" fill="rgb(0,0,0)" text-anchor="middle">4</text>
<polygon points="112.9,351.6 120.9,351.6 120.9,359.6 112.9,359.6" fill="rgb(230,127,0)"/><text xml:space="preserve" x="116.9" y="358.433" font-family="Calibri" font-size="7.5" fill="rgb(0,0,0)" text-anchor="middle">4</text>
<polygon points="120.9,351.6 128.9,351.6 128.9,359.6 120.9,359.6" fill="rgb(205,0,0)"/><text xml:space="preserve" x="124.9" y="358.433" font-family="Calibri" font-size="7.5" fill="rgb(255,255,255)" text-anchor="middle">5</text>
<polygon points="128.9,351.6 136.9,351.6 136.9,359.6 128.9,359.6" fill="rgb(205,0,0)"/><text xml:space="preserve" x="132.9" y="358.433" font-family="Calibri" font-size="7.5" fill="rgb(255,255,255)" text-anchor="middle">5</text>
<polygon points="136.9,351.6 144.9,351.6 144.9,359.6 136.9,359.6" fill="rgb(230,127,0)"/><text xml:space="preserve" x="140.9" y="358.433" font-family="Calibri" font-size="7.5" fill="rgb(0,0,0)" text-anchor="middle">4</text>
<polygon points="144.9,351.6 152.9,351.6 152.9,359.6 144.9,359.6" fill="rgb(230,127,0)"/><text xml:space="preserve" x="148.9" y="358.433" font-family="Calibri" font-size="7.5" fill="rgb(0,0,0)" text-anchor="middle">4</text>
<polygon points="162.9,351.6 170.9,351.6 170.9,359.6 162.9,359.6" fill="rgb(26,130,140)"/>
<polygon points="170.9,351.6 178.9,351.6 178.9,359.6 170.9,359.6" fill="rgb(19,103,139)"/>
<polygon points="178.9,351.6 186.9,351.6 186.9,359.6 178.9,359.6" fill="rgb(166,204,61)"/>
<polygon points="186.9,351.6 194.9,351.6 194.9,359.6 186.9,359.6" fill="rgb(153,206,71)"/>
<polygon points="194.9,351.6 202.9,351.6 202.9,359.6 194.9,359.6" fill="rgb(22,115,140)"/>
<polygon points="202.9,351.6 210.9,351.6 210.9,359.6 202.9,359.6" fill="rgb(19,103,139)"/>
<polygon points="220.9,351.6 228.9,351.6 228.9,359.6 220.9,359.6" fill="rgb(255,255,255)"/>
<polygon points="228.9,351.6 236.9,351.6 236.9,359.6 228.9,359.6" fill="rgb(255,255,255)"/>
<polygon points="236.9,351.6 244.9,351.6 244.9,359.6 236.9,359.6" fill="rgb(255,255,255)"/>
<polygon points="244.9,351.6 252.9,351.6 252.9,359.6 244.9,359.6" fill="rgb(255,255,255)"/>
<polygon points="252.9,351.6 260.9,351.6 260.9,359.6 252.9,359.6" fill="rgb(255,255,255)"/>
<polygon points="260.9,351.6 268.9,351.6 268.9,359.6 260.9,359.6" fill="rgb(255,255,255)"/>
<polygon points="268.9,351.6 276.9,351.6 276.9,359.6 268.9,359.6" fill="rgb(255,255,255)"/>
<polygon points="276.9,351.6 284.9,351.6 284.9,359.6 276.9,359.6" fill="rgb(255,255,255)"/>
<polygon points="104.9,335.6 152.9,335.6 152.9,359.6 104.9,359.6" fill="none" stroke="black" stroke-width="1"/>
<polygon points="162.9,335.6 210.9,335.6 210.9,359.6 162.9,359.6" fill="none" stroke="black" stroke-width="1"/>
<polygon points="220.9,335.6 284.9,335.6 284.9,359.6 220.9,359.6" fill="none" stroke="black" stroke-width="1"/>
<text xml:space="preserve" x="152.45" y="392.6" font-family="Calibri" font-size="8" text-anchor="middle">ClusterAssignment</text>
<polygon points="102.45,399.6 122.45,399.6 122.45,419.6 102.45,419.6" fill="rgb(0,205,0)"/><polygon points="102.45,399.6 122.45,399.6 122.45,419.6 102.45,419.6" fill="none" stroke="black" stroke-width="1"/><text xml:space="preserve" x="112.45" y="412.433" font-family="Calibri" font-size="7.5" fill="rgb(255,255,255)" text-anchor="middle">1.0</text>
<polygon points="122.45,399.6 142.45,399.6 142.45,419.6 122.45,419.6" fill="rgb(127,230,0)"/><polygon points="122.45,399.6 142.45,399.6 142.45,419.6 122.45,419.6" fill="none" stroke="black" stroke-width="1"/><text xml:space="preserve" x="132.45" y="412.433" font-family="Calibri" font-size="7.5" fill="rgb(0,0,0)" text-anchor="middle">2.0</text>
<polygon points="142.45,399.6 162.45,399.6 162.45,419.6 142.45,419.6" fill="rgb(255,255,0)"/><polygon points="142.45,399.6 162.45,399.6 162.45,419.6 142.45,419.6" fill="none" stroke="black" stroke-width="1"/><text xml:space="preserve" x="152.45" y="412.433" font-family="Calibri" font-size="7.5" fill="rgb(0,0,0)" text-anchor="middle">3.0</text>
<polygon points="162.45,399.6 182.45,399.6 182.45,419.6 162.45,419.6" fill="rgb(230,127,0)"/><polygon points="162.45,399.6 182.45,399.6 182.45,419.6 162.45,419.6" fill="none" stroke="black" stroke-width="1"/><text xml:space="preserve" x="172.45" y="412.433" font-family="Calibri" font-size="7.5" fill="rgb(0,0,0)" text-anchor="middle">4.0</text>
<polygon points="182.45,399.6 202.45,399.6 202.45,419.6 182.45,419.6" fill="rgb(205,0,0)"/><polygon points="182.45,399.6 202.45,399.6 202.45,419.6 182.45,419.6" fill="none" stroke="black" stroke-width="1"/><text xml:space="preserve" x="192.45" y="412.433" font-family="Calibri" font-size="7.5" fill="rgb(255,255,255)" text-anchor="middle">5.0</text>
<text xml:space="preserve" x="152.45" y="452.6" font-family="Calibri" font-size="8" text-anchor="middle">Expression</text>
<polygon points="102.45,459.6 122.45,459.6 122.45,479.6 102.45,479.6" fill="rgb(0,27,135)"/><polygon points="102.45,459.6 122.45,459.6 122.45,479.6 102.45,479.6" fill="none" stroke="black" stroke-width="1"/><text xml:space="preserve" x="112.45" y="472.433" font-family="Calibri" font-size="7.5" fill="rgb(255,255,255)" text-anchor="middle">0.0</text>
<polygon points="122.45,459.6 142.45,459.6 142.45,479.6 122.45,479.6" fill="rgb(24,123,140)"/><polygon points="122.45,459.6 142.45,459.6 142.45,479.6 122.45,479.6" fill="none" stroke="black" stroke-width="1"/><text xml:space="preserve" x="132.45" y="472.433" font-family="Calibri" font-size="7.5" fill="rgb(255,255,255)" text-anchor="middle">0.8</text>
<polygon points="142.45,459.6 162.45,459.6 162.45,479.6 142.45,479.6" fill="rgb(49,219,146)"/><polygon points="142.45,459.6 162.45,459.6 162.45,479.6 142.45,479.6" fill="none" stroke="black" stroke-width="1"/><text xml:space="preserve" x="152.45" y="472.433" font-family="Calibri" font-size="7.5" fill="rgb(0,0,0)" text-anchor="middle">1.5</text>
<polygon points="162.45,459.6 182.45,459.6 182.45,479.6 162.45,479.6" fill="rgb(150,206,73)"/><polygon points="162.45,459.6 182.45,459.6 182.45,479.6 162.45,479.6" fill="none" stroke="black" stroke-width="1"/><text xml:space="preserve" x="172.45" y="472.433" font-family="Calibri" font-size="7.5" fill="rgb(0,0,0)" text-anchor="middle">2.2</text>
<polygon points="182.45,459.6 202.45,459.6 202.45,479.6 182.45,479.6" fill="rgb(252,194,1)"/><polygon points="182.45,459.6 202.45,459.6 202.45,479.6 182.45,479.6" fill="none" stroke="black" stroke-width="1"/><text xml:space="preserve" x="192.45" y="472.433" font-family="Calibri" font-size="7.5" fill="rgb(0,0,0)" text-anchor="middle">3.0</text>
<text xml:space="preserve" x="152.45" y="512.6" font-family="Calibri" font-size="8" text-anchor="middle">PANTHERclass</text>
<polygon points="102.45,519.6 122.45,519.6 122.45,539.6 102.45,539.6" fill="rgb(255,255,255)"/><polygon points="102.45,519.6 122.45,519.6 122.45,539.6 102.45,539.6" fill="none" stroke="black" stroke-width="1"/><text xml:space="preserve" x="112.45" y="532.433" font-family="Calibri" font-size="7.5" fill="rgb(0,0,0)" text-anchor="middle">0.0</text>
<polygon points="122.45,519.6 142.45,519.6 142.45,539.6 122.45,539.6" fill="rgb(242,191,242)"/><polygon points="122.45,519.6 142.45,519.6 142.45,539.6 122.45,539.6" fill="none" stroke="black" stroke-width="1"/><text xml:space="preserve" x="132.45" y="532.433" font-family="Calibri" font-size="7.5" fill="rgb(0,0,0)" text-anchor="middle">0.2</text>
<polygon points="142.45,519.6 162.45,519.6 162.45,539.6 142.45,539.6" fill="rgb(230,127,230)"/><polygon points="142.45,519.6 162.45,519.6 162.45,539.6 142.45,539.6" fill="none" stroke="black" stroke-width="1"/><text xml:space="preserve" x="152.45" y="532.433" font-family="Calibri" font-size="7.5" fill="rgb(0,0,0)" text-anchor="middle">0.5</text>
<polygon points="162.45,519.6 182.45,519.6 182.45,539.6 162.45,539.6" fill="rgb(217,63,217)"/><polygon points="162.45,519.6 182.45,519.6 182.45,539.6 162.45,539.6" fill="none" stroke="black" stroke-width="1"/><text xml:space="preserve" x="172.45" y="532.433" font-family="Calibri" font-size="7.5" fill="rgb(255,255,255)" text-anchor="middle">0.8</text>
<polygon points="182.45,519.6 202.45,519.6 202.45,539.6 182.45,539.6" fill="rgb(205,0,205)"/><polygon points="182.45,519.6 202.45,519.6 202.45,539.6 182.45,539.6" fill="none" stroke="black" stroke-width="1"/><text xml:space="preserve" x="192.45" y="532.433" font-family="Calibri" font-size="7.5" fill="rgb(255,255,255)" text-anchor="middle">1.0</text>
</svg>
