<?xml version="1.0" standalone="no"?><!DOCTYPE svg PUBLIC "-//W3C//DTD SVG 1.1//EN" "http://www.w3.org/Graphics/SVG/1.1/DTD/svg11.dtd">
<svg width="291.1" height="607.6" version="1.1" xmlns="http://www.w3.org/2000/svg">
<text xml:space="preserve" x="87.1" y="342.6" font-family="Calibri" font-size="8" text-anchor="end">ACTG1</text>
<text xml:space="preserve" x="87.1" y="350.6" font-family="Calibri" font-size="8" text-anchor="end">RTN4</text>
<text xml:space="preserve" x="87.1" y="358.6" font-family="Calibri" font-size="8" text-anchor="end">EEF1A1</text>
<text xml:space="preserve" x="87.1" y="366.6" font-family="Calibri" font-size="8" text-anchor="end">EIF1</text>
<text xml:space="preserve" x="87.1" y="374.6" font-family="Calibri" font-size="8" text-anchor="end">PTMA</text>
<text xml:space="preserve" x="87.1" y="382.6" font-family="Calibri" font-size="8" text-anchor="end">SARAF</text>
<text xml:space="preserve" x="87.1" y="390.6" font-family="Calibri" font-size="8" text-anchor="end">TERF2IP</text>
<text xml:space="preserve" x="87.1" y="398.6" font-family="Calibri" font-size="8" text-anchor="end">KLC1</text>
<text xml:space="preserve" x="87.1" y="406.6" font-family="Calibri" font-size="8" text-anchor="end">CSDE1</text>
<text xml:space="preserve" x="98.1" y="331.6" font-family="Calibri" font-size="8" transform="rotate(270 98.1 331.6)">c1</text>
<text xml:space="preserve" x="106.1" y="331.6" font-family="Calibri" font-size="8" transform="rotate(270 106.1 331.6)">c6</text>
<text xml:space="preserve" x="114.1" y="331.6" font-family="Calibri" font-size="8" transform="rotate(270 114.1 331.6)">c3</text>
<text xml:space="preserve" x="122.1" y="331.6" font-family="Calibri" font-size="8" transform="rotate(270 122.1 331.6)">c4</text>
<text xml:space="preserve" x="130.1" y="331.6" font-family="Calibri" font-size="8" transform="rotate(270 130.1 331.6)">c5</text>
<text xml:space="preserve" x="138.1" y="331.6" font-family="Calibri" font-size="8" transform="rotate(270 138.1 331.6)">c2</text>
<text xml:space="preserve" x="156.1" y="331.6" font-family="Calibri" font-size="8" transform="rotate(270 156.1 331.6)">c1_mean</text>
<text xml:space="preserve" x="164.1" y="331.6" font-family="Calibri" font-size="8" transform="rotate(270 164.1 331.6)">c6_mean</text>
<text xml:space="preserve" x="172.1" y="331.6" font-family="Calibri" font-size="8" transform="rotate(270 172.1 331.6)">c3_mean</text>
<text xml:space="preserve" x="180.1" y="331.6" font-family="Calibri" font-size="8" transform="rotate(270 180.1 331.6)">c4_mean</text>
<text xml:space="preserve" x="188.1" y="331.6" font-family="Calibri" font-size="8" transform="rotate(270 188.1 331.6)">c5_mean</text>
<text xml:space="preserve" x="196.1" y="331.6" font-family="Calibri" font-size="8" transform="rotate(270 196.1 331.6)">c2_mean</text>
<text xml:space="preserve" x="214.1" y="331.6" font-family="Calibri" font-size="8" transform="rotate(270 214.1 331.6)">transcription_factor</text>
<text xml:space="preserve" x="222.1" y="331.6" font-family="Calibri" font-size="8" transform="rotate(270 222.1 331.6)">transmembrane_signal_receptor</text>
<text xml:space="preserve" x="230.1" y="331.6" font-family="Calibri" font-size="8" transform="rotate(270 230.1 331.6)">growth_factor</text>
<text xml:space="preserve" x="238.1" y="331.6" font-family="Calibri" font-size="8" transform="rotate(270 238.1 331.6)">peptide_hormone</text>
<text xml:space="preserve" x="246.1" y="331.6" font-family="Calibri" font-size="8" transform="rotate(270 246.1 331.6)">cytoskeletal_protein</text>
<text xml:space="preserve" x="254.1" y="331.6" font-family="Calibri" font-size="8" transform="rotate(270 254.1 331.6)">ion_channel</text>
<text xml:space="preserve" x="262.1" y="331.6" font-family="Calibri" font-size="8" transform="rotate(270 262.1 331.6)">integrin</text>
<text xml:space="preserve" x="270.1" y="331.6" font-family="Calibri" font-size="8" transform="rotate(270 270.1 331.6)">extracellular_matrix_protein</text>
<polygon points="91.1,335.6 99.1,335.6 99.1,343.6 91.1,343.6" fill="rgb(127,230,0)"/><text xml:space="preserve" x="95.1" y="342.433" font-family="Calibri" font-size="7.5" fill="rgb(0,0,0)" text-anchor="middle">2</text>
<polygon points="99.1,335.6 107.1,335.6 107.1,343.6 99.1,343.6" fill="rgb(127,230,0)"/><text xml:space="preserve" x="103.1" y="342.433" font-family="Calibri" font-size="7.5" fill="rgb(0,0,0)" text-anchor="middle">2</text>
<polygon points="107.1,335.6 115.1,335.6 115.1,343.6 107.1,343.6" fill="rgb(127,230,0)"/><text xml:space="preserve" x="111.1" y="342.433" font-family="Calibri" font-size="7.5" fill="rgb(0,0,0)" text-anchor="middle">2</text>
<polygon points="115.1,335.6 123.1,335.6 123.1,343.6 115.1,343.6" fill="rgb(127,230,0)"/><text xml:space="preserve" x="119.1" y="342.433" font-family="Calibri" font-size="7.5" fill="rgb(0,0,0)" text-anchor="middle">2</text>
<polygon points="123.1,335.6 131.1,335.6 131.1,343.6 123.1,343.6" fill="rgb(205,0,0)"/><text xml:space="preserve" x="127.1" y="342.433" font-family="Calibri" font-size="7.5" fill="rgb(255,255,255)" text-anchor="middle">5</text>
<polygon points="131.1,335.6 139.1,335.6 139.1,343.6 131.1,343.6" fill="rgb(255,255,0)"/><text xml:space="preserve" x="135.1" y="342.433" font-family="Calibri" font-size="7.5" fill="rgb(0,0,0)" text-anchor="middle">3</text>
<polygon points="149.1,335.6 157.1,335.6 157.1,343.6 149.1,343.6" fill="rgb(13,80,138)"/>
<polygon points="157.1,335.6 165.1,335.6 165.1,343.6 157.1,343.6" fill="rgb(11,73,137)"/>
<polygon points="165.1,335.6 173.1,335.6 173.1,343.6 165.1,343.6" fill="rgb(12,76,137)"/>
<polygon points="173.1,335.6 181.1,335.6 181.1,343.6 173.1,343.6" fill="rgb(11,73,137)"/>
<polygon points="181.1,335.6 189.1,335.6 189.1,343.6 181.1,343.6" fill="rgb(119,210,95)"/>
<polygon points="189.1,335.6 197.1,335.6 197.1,343.6 189.1,343.6" fill="rgb(20,106,139)"/>
<polygon points="207.1,335.6 215.1,335.6 215.1,343.6 207.1,343.6" fill="rgb(255,255,255)"/>
<polygon points="215.1,335.6 223.1,335.6 223.1,343.6 215.1,343.6" fill="rgb(255,255,255)"/>
<polygon points="223.1,335.6 231.1,335.6 231.1,343.6 223.1,343.6" fill="rgb(255,255,255)"/>
<polygon points="231.1,335.6 239.1,335.6 239.1,343.6 231.1,343.6" fill="rgb(255,255,255)"/>
<polygon points="239.1,335.6 247.1,335.6 247.1,343.6 239.1,343.6" fill="rgb(205,0,205)"/>
<polygon points="247.1,335.6 255.1,335.6 255.1,343.6 247.1,343.6" fill="rgb(255,255,255)"/>
<polygon points="255.1,335.6 263.1,335.6 263.1,343.6 255.1,343.6" fill="rgb(255,255,255)"/>
<polygon points="263.1,335.6 271.1,335.6 271.1,343.6 263.1,343.6" fill="rgb(255,255,255)"/>
<polygon points="91.1,343.6 99.1,343.6 99.1,351.6 91.1,351.6" fill="rgb(127,230,0)"/><text xml:space="preserve" x="95.1" y="350.433" font-family="Calibri" font-size="7.5" fill="rgb(0,0,0)" text-anchor="middle">2</text>
<polygon points="99.1,343.6 107.1,343.6 107.1,351.6 99.1,351.6" fill="rgb(127,230,0)"/><text xml:space="preserve" x="103.1" y="350.433" font-family="Calibri" font-size="7.5" fill="rgb(0,0,0)" text-anchor="middle">2</text>
<polygon points="107.1,343.6 115.1,343.6 115.1,351.6 107.1,351.6" fill="rgb(127,230,0)"/><text xml:space="preserve" x="111.1" y="350.433" font-family="Calibri" font-size="7.5" fill="rgb(0,0,0)" text-anchor="middle">2</text>
<polygon points="115.1,343.6 123.1,343.6 123.1,351.6 115.1,351.6" fill="rgb(127,230,0)"/><text xml:space="preserve" x="119.1" y="350.433" font-family="Calibri" font-size="7.5" fill="rgb(0,0,0)" text-anchor="middle">2</text>
<polygon points="123.1,343.6 131.1,343.6 131.1,351.6 123.1,351.6" fill="rgb(205,0,0)"/><text xml:space="preserve" x="127.1" y="350.433" font-family="Calibri" font-size="7.5" fill="rgb(255,255,255)" text-anchor="middle">5</text>
<polygon points="131.1,343.6 139.1,343.6 139.1,351.6 131.1,351.6" fill="rgb(255,255,0)"/><text xml:space="preserve" x="135.1" y="350.433" font-family="Calibri" font-size="7.5" fill="rgb(0,0,0)" text-anchor="middle">3</text>
<polygon points="149.1,343.6 157.1,343.6 157.1,351.6 149.1,351.6" fill="rgb(10,69,137)"/>
<polygon points="157.1,343.6 165.1,343.6 165.1,351.6 157.1,351.6" fill="rgb(8,59,136)"/>
<polygon points="165.1,343.6 173.1,343.6 173.1,351.6 165.1,351.6" fill="rgb(7,57,136)"/>
<polygon points="173.1,343.6 181.1,343.6 181.1,351.6 173.1,351.6" fill="rgb(8,60,136)"/>
<polygon points="181.1,343.6 189.1,343.6 189.1,351.6 181.1,351.6" fill="rgb(45,206,145)"/>
<polygon points="189.1,343.6 197.1,343.6 197.1,351.6 189.1,351.6" fill="rgb(19,103,139)"/>
<polygon points="207.1,343.6 215.1,343.6 215.1,351.6 207.1,351.6" fill="rgb(255,255,255)"/>
<polygon points="215.1,343.6 223.1,343.6 223.1,351.6 215.1,351.6" fill="rgb(255,255,255)"/>
<polygon points="223.1,343.6 231.1,343.6 231.1,351.6 223.1,351.6" fill="rgb(255,255,255)"/>
<polygon points="231.1,343.6 239.1,343.6 239.1,351.6 231.1,351.6" fill="rgb(255,255,255)"/>
<polygon points="239.1,343.6 247.1,343.6 247.1,351.6 239.1,351.6" fill="rgb(255,255,255)"/>
<polygon points="247.1,343.6 255.1,343.6 255.1,351.6 247.1,351.6" fill="rgb(255,255,255)"/>
<polygon points="255.1,343.6 263.1,343.6 263.1,351.6 255.1,351.6" fill="rgb(255,255,255)"/>
<polygon points="263.1,343.6 271.1,343.6 271.1,351.6 263.1,351.6" fill="rgb(255,255,255)"/>
<polygon points="91.1,351.6 99.1,351.6 99.1,359.6 91.1,359.6" fill="rgb(127,230,0)"/><text xml:space="preserve" x="95.1" y="358.433" font-family="Calibri" font-size="7.5" fill="rgb(0,0,0)" text-anchor="middle">2</text>
<polygon points="99.1,351.6 107.1,351.6 107.1,359.6 99.1,359.6" fill="rgb(127,230,0)"/><text xml:space="preserve" x="103.1" y="358.433" font-family="Calibri" font-size="7.5" fill="rgb(0,0,0)" text-anchor="middle">2</text>
<polygon points="107.1,351.6 115.1,351.6 115.1,359.6 107.1,359.6" fill="rgb(127,230,0)"/><text xml:space="preserve" x="111.1" y="358.433" font-family="Calibri" font-size="7.5" fill="rgb(0,0,0)" text-anchor="middle">2</text>
<polygon points="115.1,351.6 123.1,351.6 123.1,359.6 115.1,359.6" fill="rgb(127,230,0)"/><text xml:space="preserve" x="119.1" y="358.433" font-family="Calibri" font-size="7.5" fill="rgb(0,0,0)" text-anchor="middle">2</text>
<polygon points="123.1,351.6 131.1,351.6 131.1,359.6 123.1,359.6" fill="rgb(205,0,0)"/><text xml:space="preserve" x="127.1" y="358.433" font-family="Calibri" font-size="7.5" fill="rgb(255,255,255)" text-anchor="middle">5</text>
<polygon points="131.1,351.6 139.1,351.6 139.1,359.6 131.1,359.6" fill="rgb(255,255,0)"/><text xml:space="preserve" x="135.1" y="358.433" font-family="Calibri" font-size="7.5" fill="rgb(0,0,0)" text-anchor="middle">3</text>
<polygon points="149.1,351.6 157.1,351.6 157.1,359.6 149.1,359.6" fill="rgb(12,74,137)"/>
<polygon points="157.1,351.6 165.1,351.6 165.1,359.6 157.1,359.6" fill="rgb(9,65,137)"/>
<polygon points="165.1,351.6 173.1,351.6 173.1,359.6 165.1,359.6" fill="rgb(10,66,137)"/>
<polygon points="173.1,351.6 181.1,351.6 181.1,359.6 173.1,359.6" fill="rgb(9,62,137)"/>
<polygon points="181.1,351.6 189.1,351.6 189.1,359.6 181.1,359.6" fill="rgb(66,216,133)"/>
<polygon points="189.1,351.6 197.1,351.6 197.1,359.6 189.1,359.6" fill="rgb(17,94,138)"/>
<polygon points="207.1,351.6 215.1,351.6 215.1,359.6 207.1,359.6" fill="rgb(255,255,255)"/>
<polygon points="215.1,351.6 223.1,351.6 223.1,359.6 215.1,359.6" fill="rgb(255,255,255)"/>
<polygon points="223.1,351.6 231.1,351.6 231.1,359.6 223.1,359.6" fill="rgb(255,255,255)"/>
<polygon points="231.1,351.6 239.1,351.6 239.1,359.6 231.1,359.6" fill="rgb(255,255,255)"/>
<polygon points="239.1,351.6 247.1,351.6 247.1,359.6 239.1,359.6" fill="rgb(255,255,255)"/>
<polygon points="247.1,351.6 255.1,351.6 255.1,359.6 247.1,359.6" fill="rgb(255,255,255)"/>
<polygon points="255.1,351.6 263.1,351.6 263.1,359.6 255.1,359.6" fill="rgb(255,255,255)"/>
<polygon points="263.1,351.6 271.1,351.6 271.1,359.6 263.1,359.6" fill="rgb(255,255,255)"/>
<polygon points="91.1,359.6 99.1,359.6 99.1,367.6 91.1,367.6" fill="rgb(127,230,0)"/><text xml:space="preserve" x="95.1" y="366.433" font-family="Calibri" font-size="7.5" fill="rgb(0,0,0)" text-anchor="middle">2</text>
<polygon points="99.1,359.6 107.1,359.6 107.1,367.6 99.1,367.6" fill="rgb(127,230,0)"/><text xml:space="preserve" x="103.1" y="366.433" font-family="Calibri" font-size="7.5" fill="rgb(0,0,0)" text-anchor="middle">2</text>
<polygon points="107.1,359.6 115.1,359.6 115.1,367.6 107.1,367.6" fill="rgb(127,230,0)"/><text xml:space="preserve" x="111.1" y="366.433" font-family="Calibri" font-size="7.5" fill="rgb(0,0,0)" text-anchor="middle">2</text>
<polygon points="115.1,359.6 123.1,359.6 123.1,367.6 115.1,367.6" fill="rgb(127,230,0)"/><text xml:space="preserve" x="119.1" y="366.433" font-family="Calibri" font-size="7.5" fill="rgb(0,0,0)" text-anchor="middle">2</text>
<polygon points="123.1,359.6 131.1,359.6 131.1,367.6 123.1,367.6" fill="rgb(205,0,0)"/><text xml:space="preserve" x="127.1" y="366.433" font-family="Calibri" font-size="7.5" fill="rgb(255,255,255)" text-anchor="middle">5</text>
<polygon points="131.1,359.6 139.1,359.6 139.1,367.6 131.1,367.6" fill="rgb(255,255,0)"/><text xml:space="preserve" x="135.1" y="366.433" font-family="Calibri" font-size="7.5" fill="rgb(0,0,0)" text-anchor="middle">3</text>
<polygon points="149.1,359.6 157.1,359.6 157.1,367.6 149.1,367.6" fill="rgb(11,70,137)"/>
<polygon points="157.1,359.6 165.1,359.6 165.1,367.6 157.1,367.6" fill="rgb(8,61,136)"/>
<polygon points="165.1,359.6 173.1,359.6 173.1,367.6 165.1,367.6" fill="rgb(8,60,136)"/>
<polygon points="173.1,359.6 181.1,359.6 181.1,367.6 173.1,367.6" fill="rgb(8,60,136)"/>
<polygon points="181.1,359.6 189.1,359.6 189.1,367.6 181.1,367.6" fill="rgb(47,213,145)"/>
<polygon points="189.1,359.6 197.1,359.6 197.1,367.6 189.1,367.6" fill="rgb(15,88,138)"/>
<polygon points="207.1,359.6 215.1,359.6 215.1,367.6 207.1,367.6" fill="rgb(255,255,255)"/>
<polygon points="215.1,359.6 223.1,359.6 223.1,367.6 215.1,367.6" fill="rgb(255,255,255)"/>
<polygon points="223.1,359.6 231.1,359.6 231.1,367.6 223.1,367.6" fill="rgb(255,255,255)"/>
<polygon points="231.1,359.6 239.1,359.6 239.1,367.6 231.1,367.6" fill="rgb(255,255,255)"/>
<polygon points="239.1,359.6 247.1,359.6 247.1,367.6 239.1,367.6" fill="rgb(255,255,255)"/>
<polygon points="247.1,359.6 255.1,359.6 255.1,367.6 247.1,367.6" fill="rgb(255,255,255)"/>
<polygon points="255.1,359.6 263.1,359.6 263.1,367.6 255.1,367.6" fill="rgb(255,255,255)"/>
<polygon points="263.1,359.6 271.1,359.6 271.1,367.6 263.1,367.6" fill="rgb(255,255,255)"/>
<polygon points="91.1,367.6 99.1,367.6 99.1,375.6 91.1,375.6" fill="rgb(127,230,0)"/><text xml:space="preserve" x="95.1" y="374.433" font-family="Calibri" font-size="7.5" fill="rgb(0,0,0)" text-anchor="middle">2</text>
<polygon points="99.1,367.6 107.1,367.6 107.1,375.6 99.1,375.6" fill="rgb(127,230,0)"/><text xml:space="preserve" x="103.1" y="374.433" font-family="Calibri" font-size="7.5" fill="rgb(0,0,0)" text-anchor="middle">2</text>
<polygon points="107.1,367.6 115.1,367.6 115.1,375.6 107.1,375.6" fill="rgb(127,230,0)"/><text xml:space="preserve" x="111.1" y="374.433" font-family="Calibri" font-size="7.5" fill="rgb(0,0,0)" text-anchor="middle">2</text>
<polygon points="115.1,367.6 123.1,367.6 123.1,375.6 115.1,375.6" fill="rgb(127,230,0)"/><text xml:space="preserve" x="119.1" y="374.433" font-family="Calibri" font-size="7.5" fill="rgb(0,0,0)" text-anchor="middle">2</text>
<polygon points="123.1,367.6 131.1,367.6 131.1,375.6 123.1,375.6" fill="rgb(205,0,0)"/><text xml:space="preserve" x="127.1" y="374.433" font-family="Calibri" font-size="7.5" fill="rgb(255,255,255)" text-anchor="middle">5</text>
<polygon points="131.1,367.6 139.1,367.6 139.1,375.6 131.1,375.6" fill="rgb(255,255,0)"/><text xml:space="preserve" x="135.1" y="374.433" font-family="Calibri" font-size="7.5" fill="rgb(0,0,0)" text-anchor="middle">3</text>
<polygon points="149.1,367.6 157.1,367.6 157.1,375.6 149.1,375.6" fill="rgb(14,82,138)"/>
<polygon points="157.1,367.6 165.1,367.6 165.1,375.6 157.1,375.6" fill="rgb(12,76,137)"/>
<polygon points="165.1,367.6 173.1,367.6 173.1,375.6 165.1,375.6" fill="rgb(12,75,137)"/>
<polygon points="173.1,367.6 181.1,367.6 181.1,375.6 173.1,375.6" fill="rgb(12,76,137)"/>
<polygon points="181.1,367.6 189.1,367.6 189.1,375.6 181.1,375.6" fill="rgb(139,207,81)"/>
<polygon points="189.1,367.6 197.1,367.6 197.1,375.6 189.1,375.6" fill="rgb(20,108,139)"/>
<polygon points="207.1,367.6 215.1,367.6 215.1,375.6 207.1,375.6" fill="rgb(255,255,255)"/>
<polygon points="215.1,367.6 223.1,367.6 223.1,375.6 215.1,375.6" fill="rgb(255,255,255)"/>
<polygon points="223.1,367.6 231.1,367.6 231.1,375.6 223.1,375.6" fill="rgb(255,255,255)"/>
<polygon points="231.1,367.6 239.1,367.6 239.1,375.6 231.1,375.6" fill="rgb(255,255,255)"/>
<polygon points="239.1,367.6 247.1,367.6 247.1,375.6 239.1,375.6" fill="rgb(255,255,255)"/>
<polygon points="247.1,367.6 255.1,367.6 255.1,375.6 247.1,375.6" fill="rgb(255,255,255)"/>
<polygon points="255.1,367.6 263.1,367.6 263.1,375.6 255.1,375.6" fill="rgb(255,255,255)"/>
<polygon points="263.1,367.6 271.1,367.6 271.1,375.6 263.1,375.6" fill="rgb(255,255,255)"/>
<polygon points="91.1,375.6 99.1,375.6 99.1,383.6 91.1,383.6" fill="rgb(127,230,0)"/><text xml:space="preserve" x="95.1" y="382.433" font-family="Calibri" font-size="7.5" fill="rgb(0,0,0)" text-anchor="middle">2</text>
<polygon points="99.1,375.6 107.1,375.6 107.1,383.6 99.1,383.6" fill="rgb(127,230,0)"/><text xml:space="preserve" x="103.1" y="382.433" font-family="Calibri" font-size="7.5" fill="rgb(0,0,0)" text-anchor="middle">2</text>
<polygon points="107.1,375.6 115.1,375.6 115.1,383.6 107.1,383.6" fill="rgb(127,230,0)"/><text xml:space="preserve" x="111.1" y="382.433" font-family="Calibri" font-size="7.5" fill="rgb(0,0,0)" text-anchor="middle">2</text>
<polygon points="115.1,375.6 123.1,375.6 123.1,383.6 115.1,383.6" fill="rgb(127,230,0)"/><text xml:space="preserve" x="119.1" y="382.433" font-family="Calibri" font-size="7.5" fill="rgb(0,0,0)" text-anchor="middle">2</text>
<polygon points="123.1,375.6 131.1,375.6 131.1,383.6 123.1,383.6" fill="rgb(205,0,0)"/><text xml:space="preserve" x="127.1" y="382.433" font-family="Calibri" font-size="7.5" fill="rgb(255,255,255)" text-anchor="middle">5</text>
<polygon points="131.1,375.6 139.1,375.6 139.1,383.6 131.1,383.6" fill="rgb(255,255,0)"/><text xml:space="preserve" x="135.1" y="382.433" font-family="Calibri" font-size="7.5" fill="rgb(0,0,0)" text-anchor="middle">3</text>
<polygon points="149.1,375.6 157.1,375.6 157.1,383.6 149.1,383.6" fill="rgb(10,67,137)"/>
<polygon points="157.1,375.6 165.1,375.6 165.1,383.6 157.1,383.6" fill="rgb(7,57,136)"/>
<polygon points="165.1,375.6 173.1,375.6 173.1,383.6 165.1,383.6" fill="rgb(8,59,136)"/>
<polygon points="173.1,375.6 181.1,375.6 181.1,383.6 173.1,383.6" fill="rgb(8,59,136)"/>
<polygon points="181.1,375.6 189.1,375.6 189.1,383.6 181.1,383.6" fill="rgb(46,207,145)"/>
<polygon points="189.1,375.6 197.1,375.6 197.1,383.6 189.1,383.6" fill="rgb(18,99,139)"/>
<polygon points="207.1,375.6 215.1,375.6 215.1,383.6 207.1,383.6" fill="rgb(255,255,255)"/>
<polygon points="215.1,375.6 223.1,375.6 223.1,383.6 215.1,383.6" fill="rgb(255,255,255)"/>
<polygon points="223.1,375.6 231.1,375.6 231.1,383.6 223.1,383.6" fill="rgb(255,255,255)"/>
<polygon points="231.1,375.6 239.1,375.6 239.1,383.6 231.1,383.6" fill="rgb(255,255,255)"/>
<polygon points="239.1,375.6 247.1,375.6 247.1,383.6 239.1,383.6" fill="rgb(255,255,255)"/>
<polygon points="247.1,375.6 255.1,375.6 255.1,383.6 247.1,383.6" fill="rgb(255,255,255)"/>
<polygon points="255.1,375.6 263.1,375.6 263.1,383.6 255.1,383.6" fill="rgb(255,255,255)"/>
<polygon points="263.1,375.6 271.1,375.6 271.1,383.6 263.1,383.6" fill="rgb(255,255,255)"/>
<polygon points="91.1,383.6 99.1,383.6 99.1,391.6 91.1,391.6" fill="rgb(127,230,0)"/><text xml:space="preserve" x="95.1" y="390.433" font-family="Calibri" font-size="7.5" fill="rgb(0,0,0)" text-anchor="middle">2</text>
<polygon points="99.1,383.6 107.1,383.6 107.1,391.6 99.1,391.6" fill="rgb(127,230,0)"/><text xml:space="preserve" x="103.1" y="390.433" font-family="Calibri" font-size="7.5" fill="rgb(0,0,0)" text-anchor="middle">2</text>
<polygon points="107.1,383.6 115.1,383.6 115.1,391.6 107.1,391.6" fill="rgb(127,230,0)"/><text xml:space="preserve" x="111.1" y="390.433" font-family="Calibri" font-size="7.5" fill="rgb(0,0,0)" text-anchor="middle">2</text>
<polygon points="115.1,383.6 123.1,383.6 123.1,391.6 115.1,391.6" fill="rgb(127,230,0)"/><text xml:space="preserve" x="119.1" y="390.433" font-family="Calibri" font-size="7.5" fill="rgb(0,0,0)" text-anchor="middle">2</text>
<polygon points="123.1,383.6 131.1,383.6 131.1,391.6 123.1,391.6" fill="rgb(205,0,0)"/><text xml:space="preserve" x="127.1" y="390.433" font-family="Calibri" font-size="7.5" fill="rgb(255,255,255)" text-anchor="middle">5</text>
<polygon points="131.1,383.6 139.1,383.6 139.1,391.6 131.1,391.6" fill="rgb(255,255,0)"/><text xml:space="preserve" x="135.1" y="390.433" font-family="Calibri" font-size="7.5" fill="rgb(0,0,0)" text-anchor="middle">3</text>
<polygon points="149.1,383.6 157.1,383.6 157.1,391.6 149.1,391.6" fill="rgb(9,65,137)"/>
<polygon points="157.1,383.6 165.1,383.6 165.1,391.6 157.1,391.6" fill="rgb(7,56,136)"/>
<polygon points="165.1,383.6 173.1,383.6 173.1,391.6 165.1,391.6" fill="rgb(7,56,136)"/>
<polygon points="173.1,383.6 181.1,383.6 181.1,391.6 173.1,391.6" fill="rgb(7,56,136)"/>
<polygon points="181.1,383.6 189.1,383.6 189.1,391.6 181.1,391.6" fill="rgb(42,192,144)"/>
<polygon points="189.1,383.6 197.1,383.6 197.1,391.6 189.1,391.6" fill="rgb(17,94,138)"/>
<polygon points="207.1,383.6 215.1,383.6 215.1,391.6 207.1,391.6" fill="rgb(255,255,255)"/>
<polygon points="215.1,383.6 223.1,383.6 223.1,391.6 215.1,391.6" fill="rgb(255,255,255)"/>
<polygon points="223.1,383.6 231.1,383.6 231.1,391.6 223.1,391.6" fill="rgb(255,255,255)"/>
<polygon points="231.1,383.6 239.1,383.6 239.1,391.6 231.1,391.6" fill="rgb(255,255,255)"/>
<polygon points="239.1,383.6 247.1,383.6 247.1,391.6 239.1,391.6" fill="rgb(255,255,255)"/>
<polygon points="247.1,383.6 255.1,383.6 255.1,391.6 247.1,391.6" fill="rgb(255,255,255)"/>
<polygon points="255.1,383.6 263.1,383.6 263.1,391.6 255.1,391.6" fill="rgb(255,255,255)"/>
<polygon points="263.1,383.6 271.1,383.6 271.1,391.6 263.1,391.6" fill="rgb(255,255,255)"/>
<polygon points="91.1,391.6 99.1,391.6 99.1,399.6 91.1,399.6" fill="rgb(127,230,0)"/><text xml:space="preserve" x="95.1" y="398.433" font-family="Calibri" font-size="7.5" fill="rgb(0,0,0)" text-anchor="middle">2</text>
<polygon points="99.1,391.6 107.1,391.6 107.1,399.6 99.1,399.6" fill="rgb(127,230,0)"/><text xml:space="preserve" x="103.1" y="398.433" font-family="Calibri" font-size="7.5" fill="rgb(0,0,0)" text-anchor="middle">2</text>
<polygon points="107.1,391.6 115.1,391.6 115.1,399.6 107.1,399.6" fill="rgb(127,230,0)"/><text xml:space="preserve" x="111.1" y="398.433" font-family="Calibri" font-size="7.5" fill="rgb(0,0,0)" text-anchor="middle">2</text>
<polygon points="115.1,391.6 123.1,391.6 123.1,399.6 115.1,399.6" fill="rgb(127,230,0)"/><text xml:space="preserve" x="119.1" y="398.433" font-family="Calibri" font-size="7.5" fill="rgb(0,0,0)" text-anchor="middle">2</text>
<polygon points="123.1,391.6 131.1,391.6 131.1,399.6 123.1,399.6" fill="rgb(205,0,0)"/><text xml:space="preserve" x="127.1" y="398.433" font-family="Calibri" font-size="7.5" fill="rgb(255,255,255)" text-anchor="middle">5</text>
<polygon points="131.1,391.6 139.1,391.6 139.1,399.6 131.1,399.6" fill="rgb(255,255,0)"/><text xml:space="preserve" x="135.1" y="398.433" font-family="Calibri" font-size="7.5" fill="rgb(0,0,0)" text-anchor="middle">3</text>
<polygon points="149.1,391.6 157.1,391.6 157.1,399.6 149.1,399.6" fill="rgb(8,61,136)"/>
<polygon points="157.1,391.6 165.1,391.6 165.1,399.6 157.1,399.6" fill="rgb(6,53,136)"/>
<polygon points="165.1,391.6 173.1,391.6 173.1,399.6 165.1,399.6" fill="rgb(6,52,136)"/>
<polygon points="173.1,391.6 181.1,391.6 181.1,399.6 173.1,399.6" fill="rgb(6,52,136)"/>
<polygon points="181.1,391.6 189.1,391.6 189.1,399.6 181.1,399.6" fill="rgb(36,171,143)"/>
<polygon points="189.1,391.6 197.1,391.6 197.1,399.6 189.1,399.6" fill="rgb(16,89,138)"/>
<polygon points="207.1,391.6 215.1,391.6 215.1,399.6 207.1,399.6" fill="rgb(255,255,255)"/>
<polygon points="215.1,391.6 223.1,391.6 223.1,399.6 215.1,399.6" fill="rgb(255,255,255)"/>
<polygon points="223.1,391.6 231.1,391.6 231.1,399.6 223.1,399.6" fill="rgb(255,255,255)"/>
<polygon points="231.1,391.6 239.1,391.6 239.1,399.6 231.1,399.6" fill="rgb(255,255,255)"/>
<polygon points="239.1,391.6 247.1,391.6 247.1,399.6 239.1,399.6" fill="rgb(255,255,255)"/>
<polygon points="247.1,391.6 255.1,391.6 255.1,399.6 247.1,399.6" fill="rgb(255,255,255)"/>
<polygon points="255.1,391.6 263.1,391.6 263.1,399.6 255.1,399.6" fill="rgb(255,255,255)"/>
<polygon points="263.1,391.6 271.1,391.6 271.1,399.6 263.1,399.6" fill="rgb(255,255,255)"/>
<polygon points="91.1,399.6 99.1,399.6 99.1,407.6 91.1,407.6" fill="rgb(127,230,0)"/><text xml:space="preserve" x="95.1" y="406.433" font-family="Calibri" font-size="7.5" fill="rgb(0,0,0)" text-anchor="middle">2</text>
<polygon points="99.1,399.6 107.1,399.6 107.1,407.6 99.1,407.6" fill="rgb(127,230,0)"/><text xml:space="preserve" x="103.1" y="406.433" font-family="Calibri" font-size="7.5" fill="rgb(0,0,0)" text-anchor="middle">2</text>
<polygon points="107.1,399.6 115.1,399.6 115.1,407.6 107.1,407.6" fill="rgb(127,230,0)"/><text xml:space="preserve" x="111.1" y="406.433" font-family="Calibri" font-size="7.5" fill="rgb(0,0,0)" text-anchor="middle">2</text>
<polygon points="115.1,399.6 123.1,399.6 123.1,407.6 115.1,407.6" fill="rgb(127,230,0)"/><text xml:space="preserve" x="119.1" y="406.433" font-family="Calibri" font-size="7.5" fill="rgb(0,0,0)" text-anchor="middle">2</text>
<polygon points="123.1,399.6 131.1,399.6 131.1,407.6 123.1,407.6" fill="rgb(205,0,0)"/><text xml:space="preserve" x="127.1" y="406.433" font-family="Calibri" font-size="7.5" fill="rgb(255,255,255)" text-anchor="middle">5</text>
<polygon points="131.1,399.6 139.1,399.6 139.1,407.6 131.1,407.6" fill="rgb(255,255,0)"/><text xml:space="preserve" x="135.1" y="406.433" font-family="Calibri" font-size="7.5" fill="rgb(0,0,0)" text-anchor="middle">3</text>
<polygon points="149.1,399.6 157.1,399.6 157.1,407.6 149.1,407.6" fill="rgb(12,74,137)"/>
<polygon points="157.1,399.6 165.1,399.6 165.1,407.6 157.1,407.6" fill="rgb(9,65,137)"/>
<polygon points="165.1,399.6 173.1,399.6 173.1,407.6 165.1,407.6" fill="rgb(9,64,137)"/>
<polygon points="173.1,399.6 181.1,399.6 181.1,407.6 173.1,407.6" fill="rgb(9,64,137)"/>
<polygon points="181.1,399.6 189.1,399.6 189.1,407.6 181.1,407.6" fill="rgb(65,217,134)"/>
<polygon points="189.1,399.6 197.1,399.6 197.1,407.6 189.1,407.6" fill="rgb(21,110,139)"/>
<polygon points="207.1,399.6 215.1,399.6 215.1,407.6 207.1,407.6" fill="rgb(255,255,255)"/>
<polygon points="215.1,399.6 223.1,399.6 223.1,407.6 215.1,407.6" fill="rgb(255,255,255)"/>
<polygon points="223.1,399.6 231.1,399.6 231.1,407.6 223.1,407.6" fill="rgb(255,255,255)"/>
<polygon points="231.1,399.6 239.1,399.6 239.1,407.6 231.1,407.6" fill="rgb(255,255,255)"/>
<polygon points="239.1,399.6 247.1,399.6 247.1,407.6 239.1,407.6" fill="rgb(255,255,255)"/>
<polygon points="247.1,399.6 255.1,399.6 255.1,407.6 247.1,407.6" fill="rgb(255,255,255)"/>
<polygon points="255.1,399.6 263.1,399.6 263.1,407.6 255.1,407.6" fill="rgb(255,255,255)"/>
<polygon points="263.1,399.6 271.1,399.6 271.1,407.6 263.1,407.6" fill="rgb(255,255,255)"/>
<polygon points="91.1,335.6 139.1,335.6 139.1,407.6 91.1,407.6" fill="none" stroke="black" stroke-width="1"/>
<polygon points="149.1,335.6 197.1,335.6 197.1,407.6 149.1,407.6" fill="none" stroke="black" stroke-width="1"/>
<polygon points="207.1,335.6 271.1,335.6 271.1,407.6 207.1,407.6" fill="none" stroke="black" stroke-width="1"/>
<text xml:space="preserve" x="145.55" y="440.6" font-family="Calibri" font-size="8" text-anchor="middle">ClusterAssignment</text>
<polygon points="95.55,447.6 115.55,447.6 115.55,467.6 95.55,467.6" fill="rgb(0,205,0)"/><polygon points="95.55,447.6 115.55,447.6 115.55,467.6 95.55,467.6" fill="none" stroke="black" stroke-width="1"/><text xml:space="preserve" x="105.55" y="460.433" font-family="Calibri" font-size="7.5" fill="rgb(255,255,255)" text-anchor="middle">1.0</text>
<polygon points="115.55,447.6 135.55,447.6 135.55,467.6 115.55,467.6" fill="rgb(127,230,0)"/><polygon points="115.55,447.6 135.55,447.6 135.55,467.6 115.55,467.6" fill="none" stroke="black" stroke-width="1"/><text xml:space="preserve" x="125.55" y="460.433" font-family="Calibri" font-size="7.5" fill="rgb(0,0,0)" text-anchor="middle">2.0</text>
<polygon points="135.55,447.6 155.55,447.6 155.55,467.6 135.55,467.6" fill="rgb(255,255,0)"/><polygon points="135.55,447.6 155.55,447.6 155.55,467.6 135.55,467.6" fill="none" stroke="black" stroke-width="1"/><text xml:space="preserve" x="145.55" y="460.433" font-family="Calibri" font-size="7.5" fill="rgb(0,0,0)" text-anchor="middle">3.0</text>
<polygon points="155.55,447.6 175.55,447.6 175.55,467.6 155.55,467.6" fill="rgb(230,127,0)"/><polygon points="155.55,447.6 175.55,447.6 175.55,467.6 155.55,467.6" fill="none" stroke="black" stroke-width="1"/><text xml:space="preserve" x="165.55" y="460.433" font-family="Calibri" font-size="7.5" fill="rgb(0,0,0)" text-anchor="middle">4.0</text>
<polygon points="175.55,447.6 195.55,447.6 195.55,467.6 175.55,467.6" fill="rgb(205,0,0)"/><polygon points="175.55,447.6 195.55,447.6 195.55,467.6 175.55,467.6" fill="none" stroke="black" stroke-width="1"/><text xml:space="preserve" x="185.55" y="460.433" font-family="Calibri" font-size="7.5" fill="rgb(255,255,255)" text-anchor="middle">5.0</text>
<text xml:space="preserve" x="145.55" y="500.6" font-family="Calibri" font-size="8" text-anchor="middle">Expression</text>
<polygon points="95.55,507.6 115.55,507.6 115.55,527.6 95.55,527.6" fill="rgb(0,27,135)"/><polygon points="95.55,507.6 115.55,507.6 115.55,527.6 95.55,527.6" fill="none" stroke="black" stroke-width="1"/><text xml:space="preserve" x="105.55" y="520.433" font-family="Calibri" font-size="7.5" fill="rgb(255,255,255)" text-anchor="middle">0.0</text>
<polygon points="115.55,507.6 135.55,507.6 135.55,527.6 115.55,527.6" fill="rgb(24,123,140)"/><polygon points="115.55,507.6 135.55,507.6 135.55,527.6 115.55,527.6" fill="none" stroke="black" stroke-width="1"/><text xml:space="preserve" x="125.55" y="520.433" font-family="Calibri" font-size="7.5" fill="rgb(255,255,255)" text-anchor="middle">0.8</text>
<polygon points="135.55,507.6 155.55,507.6 155.55,527.6 135.55,527.6" fill="rgb(49,219,146)"/><polygon points="135.55,507.6 155.55,507.6 155.55,527.6 135.55,527.6" fill="none" stroke="black" stroke-width="1"/><text xml:space="preserve" x="145.55" y="520.433" font-family="Calibri" font-size="7.5" fill="rgb(0,0,0)" text-anchor="middle">1.5</text>
<polygon points="155.55,507.6 175.55,507.6 175.55,527.6 155.55,527.6" fill="rgb(150,206,73)"/><polygon points="155.55,507.6 175.55,507.6 175.55,527.6 155.55,527.6" fill="none" stroke="black" stroke-width="1"/><text xml:space="preserve" x="165.55" y="520.433" font-family="Calibri" font-size="7.5" fill="rgb(0,0,0)" text-anchor="middle">2.2</text>
<polygon points="175.55,507.6 195.55,507.6 195.55,527.6 175.55,527.6" fill="rgb(252,194,1)"/><polygon points="175.55,507.6 195.55,507.6 195.55,527.6 175.55,527.6" fill="none" stroke="black" stroke-width="1"/><text xml:space="preserve" x="185.55" y="520.433" font-family="Calibri" font-size="7.5" fill="rgb(0,0,0)" text-anchor="middle">3.0</text>
<text xml:space="preserve" x="145.55" y="560.6" font-family="Calibri" font-size="8" text-anchor="middle">PANTHERclass</text>
<polygon points="95.55,567.6 115.55,567.6 115.55,587.6 95.55,587.6" fill="rgb(255,255,255)"/><polygon points="95.55,567.6 115.55,567.6 115.55,587.6 95.55,587.6" fill="none" stroke="black" stroke-width="1"/><text xml:space="preserve" x="105.55" y="580.433" font-family="Calibri" font-size="7.5" fill="rgb(0,0,0)" text-anchor="middle">0.0</text>
<polygon points="115.55,567.6 135.55,567.6 135.55,587.6 115.55,587.6" fill="rgb(242,191,242)"/><polygon points="115.55,567.6 135.55,567.6 135.55,587.6 115.55,587.6" fill="none" stroke="black" stroke-width="1"/><text xml:space="preserve" x="125.55" y="580.433" font-family="Calibri" font-size="7.5" fill="rgb(0,0,0)" text-anchor="middle">0.2</text>
<polygon points="135.55,567.6 155.55,567.6 155.55,587.6 135.55,587.6" fill="rgb(230,127,230)"/><polygon points="135.55,567.6 155.55,567.6 155.55,587.6 135.55,587.6" fill="none" stroke="black" stroke-width="1"/><text xml:space="preserve" x="145.55" y="580.433" font-family="Calibri" font-size="7.5" fill="rgb(0,0,0)" text-anchor="middle">0.5</text>
<polygon points="155.55,567.6 175.55,567.6 175.55,587.6 155.55,587.6" fill="rgb(217,63,217)"/><polygon points="155.55,567.6 175.55,567.6 175.55,587.6 155.55,587.6" fill="none" stroke="black" stroke-width="1"/><text xml:space="preserve" x="165.55" y="580.433" font-family="Calibri" font-size="7.5" fill="rgb(255,255,255)" text-anchor="middle">0.8</text>
<polygon points="175.55,567.6 195.55,567.6 195.55,587.6 175.55,587.6" fill="rgb(205,0,205)"/><polygon points="175.55,567.6 195.55,567.6 195.55,587.6 175.55,587.6" fill="none" stroke="black" stroke-width="1"/><text xml:space="preserve" x="185.55" y="580.433" font-family="Calibri" font-size="7.5" fill="rgb(255,255,255)" text-anchor="middle">1.0</text>
</svg>
