<?xml version="1.0" standalone="no"?><!DOCTYPE svg PUBLIC "-//W3C//DTD SVG 1.1//EN" "http://www.w3.org/Graphics/SVG/1.1/DTD/svg11.dtd">
<svg width="353.5" height="392" version="1.1" xmlns="http://www.w3.org/2000/svg">
<text xml:space="preserve" x="179.5" y="130" font-family="Calibri" font-size="8" text-anchor="end">HOXLouvain_c01</text>
<text xml:space="preserve" x="179.5" y="140" font-family="Calibri" font-size="8" text-anchor="end">HOXLouvain_c02</text>
<text xml:space="preserve" x="179.5" y="150" font-family="Calibri" font-size="8" text-anchor="end">HOXLouvain_c03</text>
<text xml:space="preserve" x="179.5" y="160" font-family="Calibri" font-size="8" text-anchor="end">HOXLouvain_c04</text>
<text xml:space="preserve" x="179.5" y="170" font-family="Calibri" font-size="8" text-anchor="end">HOXLouvain_c05</text>
<text xml:space="preserve" x="179.5" y="180" font-family="Calibri" font-size="8" text-anchor="end">HOXLouvain_c06</text>
<text xml:space="preserve" x="179.5" y="190" font-family="Calibri" font-size="8" text-anchor="end">HOXLouvain_c07</text>
<text xml:space="preserve" x="179.5" y="200" font-family="Calibri" font-size="8" text-anchor="end">HOXLouvain_c08</text>
<text xml:space="preserve" x="179.5" y="210" font-family="Calibri" font-size="8" text-anchor="end">HOXLouvain_c09</text>
<text xml:space="preserve" x="179.5" y="220" font-family="Calibri" font-size="8" text-anchor="end">HOXLouvain_c10</text>
<text xml:space="preserve" x="179.5" y="230" font-family="Calibri" font-size="8" text-anchor="end">HOXLouvain_c11</text>
<text xml:space="preserve" x="179.5" y="240" font-family="Calibri" font-size="8" text-anchor="end">HOXLouvain_c12</text>
<text xml:space="preserve" x="179.5" y="250" font-family="Calibri" font-size="8" text-anchor="end">HOXLouvain_c13</text>
<text xml:space="preserve" x="196.5" y="118" font-family="Calibri" font-size="8" transform="rotate(270 196.5 118)">Num_cells</text>
<text xml:space="preserve" x="226.5" y="118" font-family="Calibri" font-size="8" transform="rotate(270 226.5 118)">1</text>
<text xml:space="preserve" x="246.5" y="118" font-family="Calibri" font-size="8" transform="rotate(270 246.5 118)">2</text>
<text xml:space="preserve" x="266.5" y="118" font-family="Calibri" font-size="8" transform="rotate(270 266.5 118)">3</text>
<text xml:space="preserve" x="286.5" y="118" font-family="Calibri" font-size="8" transform="rotate(270 286.5 118)">4</text>
<text xml:space="preserve" x="306.5" y="118" font-family="Calibri" font-size="8" transform="rotate(270 306.5 118)">5</text>
<text xml:space="preserve" x="326.5" y="118" font-family="Calibri" font-size="8" transform="rotate(270 326.5 118)">6</text>
<polygon points="183.5,122 203.5,122 203.5,132 183.5,132" fill="rgb(105,105,255)"/><text xml:space="preserve" x="193.5" y="129.833" font-family="Calibri" font-size="7.5" fill="rgb(255,255,255)" text-anchor="middle">1568</text>
<polygon points="213.5,122 233.5,122 233.5,132 213.5,132" fill="rgb(255,193,193)"/><text xml:space="preserve" x="223.5" y="129.833" font-family="Calibri" font-size="7.5" fill="rgb(0,0,0)" text-anchor="middle">0.41</text>
<polygon points="233.5,122 253.5,122 253.5,132 233.5,132" fill="rgb(255,253,253)"/><text xml:space="preserve" x="243.5" y="129.833" font-family="Calibri" font-size="7.5" fill="rgb(0,0,0)" text-anchor="middle">0.01</text>
<polygon points="253.5,122 273.5,122 273.5,132 253.5,132" fill="rgb(255,252,252)"/><text xml:space="preserve" x="263.5" y="129.833" font-family="Calibri" font-size="7.5" fill="rgb(0,0,0)" text-anchor="middle">0.02</text>
<polygon points="273.5,122 293.5,122 293.5,132 273.5,132" fill="rgb(255,253,253)"/><text xml:space="preserve" x="283.5" y="129.833" font-family="Calibri" font-size="7.5" fill="rgb(0,0,0)" text-anchor="middle">0.01</text>
<polygon points="293.5,122 313.5,122 313.5,132 293.5,132" fill="rgb(255,252,252)"/><text xml:space="preserve" x="303.5" y="129.833" font-family="Calibri" font-size="7.5" fill="rgb(0,0,0)" text-anchor="middle">0.02</text>
<polygon points="313.5,122 333.5,122 333.5,132 313.5,132" fill="rgb(255,175,175)"/><text xml:space="preserve" x="323.5" y="129.833" font-family="Calibri" font-size="7.5" fill="rgb(0,0,0)" text-anchor="middle">0.53</text>
<polygon points="183.5,132 203.5,132 203.5,142 183.5,142" fill="rgb(105,105,255)"/><text xml:space="preserve" x="193.5" y="139.833" font-family="Calibri" font-size="7.5" fill="rgb(255,255,255)" text-anchor="middle">2496</text>
<polygon points="213.5,132 233.5,132 233.5,142 213.5,142" fill="rgb(255,235,235)"/><text xml:space="preserve" x="223.5" y="139.833" font-family="Calibri" font-size="7.5" fill="rgb(0,0,0)" text-anchor="middle">0.13</text>
<polygon points="233.5,132 253.5,132 253.5,142 233.5,142" fill="rgb(255,253,253)"/><text xml:space="preserve" x="243.5" y="139.833" font-family="Calibri" font-size="7.5" fill="rgb(0,0,0)" text-anchor="middle">0.01</text>
<polygon points="253.5,132 273.5,132 273.5,142 253.5,142" fill="rgb(255,219,219)"/><text xml:space="preserve" x="263.5" y="139.833" font-family="Calibri" font-size="7.5" fill="rgb(0,0,0)" text-anchor="middle">0.24</text>
<polygon points="273.5,132 293.5,132 293.5,142 273.5,142" fill="rgb(255,213,213)"/><text xml:space="preserve" x="283.5" y="139.833" font-family="Calibri" font-size="7.5" fill="rgb(0,0,0)" text-anchor="middle">0.28</text>
<polygon points="293.5,132 313.5,132 313.5,142 293.5,142" fill="rgb(255,228,228)"/><text xml:space="preserve" x="303.5" y="139.833" font-family="Calibri" font-size="7.5" fill="rgb(0,0,0)" text-anchor="middle">0.18</text>
<polygon points="313.5,132 333.5,132 333.5,142 313.5,142" fill="rgb(255,231,231)"/><text xml:space="preserve" x="323.5" y="139.833" font-family="Calibri" font-size="7.5" fill="rgb(0,0,0)" text-anchor="middle">0.16</text>
<polygon points="183.5,142 203.5,142 203.5,152 183.5,152" fill="rgb(232,232,255)"/><text xml:space="preserve" x="193.5" y="149.833" font-family="Calibri" font-size="7.5" fill="rgb(0,0,0)" text-anchor="middle">151</text>
<polygon points="213.5,142 233.5,142 233.5,152 213.5,152" fill="rgb(255,181,181)"/><text xml:space="preserve" x="223.5" y="149.833" font-family="Calibri" font-size="7.5" fill="rgb(0,0,0)" text-anchor="middle">0.49</text>
<polygon points="233.5,142 253.5,142 253.5,152 233.5,152" fill="rgb(255,252,252)"/><text xml:space="preserve" x="243.5" y="149.833" font-family="Calibri" font-size="7.5" fill="rgb(0,0,0)" text-anchor="middle">0.02</text>
<polygon points="253.5,142 273.5,142 273.5,152 253.5,152" fill="rgb(255,246,246)"/><text xml:space="preserve" x="263.5" y="149.833" font-family="Calibri" font-size="7.5" fill="rgb(0,0,0)" text-anchor="middle">0.06</text>
<polygon points="273.5,142 293.5,142 293.5,152 273.5,152" fill="rgb(255,247,247)"/><text xml:space="preserve" x="283.5" y="149.833" font-family="Calibri" font-size="7.5" fill="rgb(0,0,0)" text-anchor="middle">0.05</text>
<polygon points="293.5,142 313.5,142 313.5,152 293.5,152" fill="rgb(255,240,240)"/><text xml:space="preserve" x="303.5" y="149.833" font-family="Calibri" font-size="7.5" fill="rgb(0,0,0)" text-anchor="middle">0.10</text>
<polygon points="313.5,142 333.5,142 333.5,152 313.5,152" fill="rgb(255,213,213)"/><text xml:space="preserve" x="323.5" y="149.833" font-family="Calibri" font-size="7.5" fill="rgb(0,0,0)" text-anchor="middle">0.28</text>
<polygon points="183.5,152 203.5,152 203.5,162 183.5,162" fill="rgb(241,241,255)"/><text xml:space="preserve" x="193.5" y="159.833" font-family="Calibri" font-size="7.5" fill="rgb(0,0,0)" text-anchor="middle">89</text>
<polygon points="213.5,152 233.5,152 233.5,162 213.5,162" fill="rgb(255,232,232)"/><text xml:space="preserve" x="223.5" y="159.833" font-family="Calibri" font-size="7.5" fill="rgb(0,0,0)" text-anchor="middle">0.15</text>
<polygon points="233.5,152 253.5,152 253.5,162 233.5,162" fill="rgb(255,219,219)"/><text xml:space="preserve" x="243.5" y="159.833" font-family="Calibri" font-size="7.5" fill="rgb(0,0,0)" text-anchor="middle">0.24</text>
<polygon points="253.5,152 273.5,152 273.5,162 253.5,162" fill="rgb(255,219,219)"/><text xml:space="preserve" x="263.5" y="159.833" font-family="Calibri" font-size="7.5" fill="rgb(0,0,0)" text-anchor="middle">0.24</text>
<polygon points="273.5,152 293.5,152 293.5,162 273.5,162" fill="rgb(255,217,217)"/><text xml:space="preserve" x="283.5" y="159.833" font-family="Calibri" font-size="7.5" fill="rgb(0,0,0)" text-anchor="middle">0.25</text>
<polygon points="293.5,152 313.5,152 313.5,162 293.5,162" fill="rgb(255,237,237)"/><text xml:space="preserve" x="303.5" y="159.833" font-family="Calibri" font-size="7.5" fill="rgb(0,0,0)" text-anchor="middle">0.12</text>
<polygon points="313.5,152 333.5,152 333.5,162 313.5,162" fill="rgb(255,253,253)"/><text xml:space="preserve" x="323.5" y="159.833" font-family="Calibri" font-size="7.5" fill="rgb(0,0,0)" text-anchor="middle">0.01</text>
<polygon points="183.5,162 203.5,162 203.5,172 183.5,172" fill="rgb(229,229,255)"/><text xml:space="preserve" x="193.5" y="169.833" font-family="Calibri" font-size="7.5" fill="rgb(0,0,0)" text-anchor="middle">173</text>
<polygon points="213.5,162 233.5,162 233.5,172 213.5,172" fill="rgb(255,240,240)"/><text xml:space="preserve" x="223.5" y="169.833" font-family="Calibri" font-size="7.5" fill="rgb(0,0,0)" text-anchor="middle">0.10</text>
<polygon points="233.5,162 253.5,162 253.5,172 233.5,172" fill="rgb(255,250,250)"/><text xml:space="preserve" x="243.5" y="169.833" font-family="Calibri" font-size="7.5" fill="rgb(0,0,0)" text-anchor="middle">0.03</text>
<polygon points="253.5,162 273.5,162 273.5,172 253.5,172" fill="rgb(255,206,206)"/><text xml:space="preserve" x="263.5" y="169.833" font-family="Calibri" font-size="7.5" fill="rgb(0,0,0)" text-anchor="middle">0.32</text>
<polygon points="273.5,162 293.5,162 293.5,172 273.5,172" fill="rgb(255,196,196)"/><text xml:space="preserve" x="283.5" y="169.833" font-family="Calibri" font-size="7.5" fill="rgb(0,0,0)" text-anchor="middle">0.39</text>
<polygon points="293.5,162 313.5,162 313.5,172 293.5,172" fill="rgb(255,233,233)"/><text xml:space="preserve" x="303.5" y="169.833" font-family="Calibri" font-size="7.5" fill="rgb(0,0,0)" text-anchor="middle">0.14</text>
<polygon points="313.5,162 333.5,162 333.5,172 313.5,172" fill="rgb(255,253,253)"/><text xml:space="preserve" x="323.5" y="169.833" font-family="Calibri" font-size="7.5" fill="rgb(0,0,0)" text-anchor="middle">0.01</text>
<polygon points="183.5,172 203.5,172 203.5,182 183.5,182" fill="rgb(193,193,254)"/><text xml:space="preserve" x="193.5" y="179.833" font-family="Calibri" font-size="7.5" fill="rgb(0,0,0)" text-anchor="middle">409</text>
<polygon points="213.5,172 233.5,172 233.5,182 213.5,182" fill="rgb(254,248,248)"/><text xml:space="preserve" x="223.5" y="179.833" font-family="Calibri" font-size="7.5" fill="rgb(0,0,0)" text-anchor="middle">0.04</text>
<polygon points="233.5,172 253.5,172 253.5,182 233.5,182" fill="rgb(254,248,248)"/><text xml:space="preserve" x="243.5" y="179.833" font-family="Calibri" font-size="7.5" fill="rgb(0,0,0)" text-anchor="middle">0.04</text>
<polygon points="253.5,172 273.5,172 273.5,182 253.5,182" fill="rgb(255,213,213)"/><text xml:space="preserve" x="263.5" y="179.833" font-family="Calibri" font-size="7.5" fill="rgb(0,0,0)" text-anchor="middle">0.28</text>
<polygon points="273.5,172 293.5,172 293.5,182 273.5,182" fill="rgb(255,193,193)"/><text xml:space="preserve" x="283.5" y="179.833" font-family="Calibri" font-size="7.5" fill="rgb(0,0,0)" text-anchor="middle">0.41</text>
<polygon points="293.5,172 313.5,172 313.5,182 293.5,182" fill="rgb(255,226,226)"/><text xml:space="preserve" x="303.5" y="179.833" font-family="Calibri" font-size="7.5" fill="rgb(0,0,0)" text-anchor="middle">0.19</text>
<polygon points="313.5,172 333.5,172 333.5,182 313.5,182" fill="rgb(254,248,248)"/><text xml:space="preserve" x="323.5" y="179.833" font-family="Calibri" font-size="7.5" fill="rgb(0,0,0)" text-anchor="middle">0.04</text>
<polygon points="183.5,182 203.5,182 203.5,192 183.5,192" fill="rgb(242,242,255)"/><text xml:space="preserve" x="193.5" y="189.833" font-family="Calibri" font-size="7.5" fill="rgb(0,0,0)" text-anchor="middle">82</text>
<polygon points="213.5,182 233.5,182 233.5,192 213.5,192" fill="rgb(255,240,240)"/><text xml:space="preserve" x="223.5" y="189.833" font-family="Calibri" font-size="7.5" fill="rgb(0,0,0)" text-anchor="middle">0.10</text>
<polygon points="233.5,182 253.5,182 253.5,192 233.5,192" fill="rgb(255,228,228)"/><text xml:space="preserve" x="243.5" y="189.833" font-family="Calibri" font-size="7.5" fill="rgb(0,0,0)" text-anchor="middle">0.18</text>
<polygon points="253.5,182 273.5,182 273.5,192 253.5,192" fill="rgb(255,205,205)"/><text xml:space="preserve" x="263.5" y="189.833" font-family="Calibri" font-size="7.5" fill="rgb(0,0,0)" text-anchor="middle">0.33</text>
<polygon points="273.5,182 293.5,182 293.5,192 273.5,192" fill="rgb(255,216,216)"/><text xml:space="preserve" x="283.5" y="189.833" font-family="Calibri" font-size="7.5" fill="rgb(0,0,0)" text-anchor="middle">0.26</text>
<polygon points="293.5,182 313.5,182 313.5,192 293.5,192" fill="rgb(255,235,235)"/><text xml:space="preserve" x="303.5" y="189.833" font-family="Calibri" font-size="7.5" fill="rgb(0,0,0)" text-anchor="middle">0.13</text>
<polygon points="313.5,182 333.5,182 333.5,192 313.5,192" fill="rgb(255,255,255)"/><text xml:space="preserve" x="323.5" y="189.833" font-family="Calibri" font-size="7.5" fill="rgb(0,0,0)" text-anchor="middle">0.00</text>
<polygon points="183.5,192 203.5,192 203.5,202 183.5,202" fill="rgb(157,157,255)"/><text xml:space="preserve" x="193.5" y="199.833" font-family="Calibri" font-size="7.5" fill="rgb(0,0,0)" text-anchor="middle">648</text>
<polygon points="213.5,192 233.5,192 233.5,202 213.5,202" fill="rgb(255,247,247)"/><text xml:space="preserve" x="223.5" y="199.833" font-family="Calibri" font-size="7.5" fill="rgb(0,0,0)" text-anchor="middle">0.05</text>
<polygon points="233.5,192 253.5,192 253.5,202 233.5,202" fill="rgb(255,157,157)"/><text xml:space="preserve" x="243.5" y="199.833" font-family="Calibri" font-size="7.5" fill="rgb(0,0,0)" text-anchor="middle">0.65</text>
<polygon points="253.5,192 273.5,192 273.5,202 253.5,202" fill="rgb(255,253,253)"/><text xml:space="preserve" x="263.5" y="199.833" font-family="Calibri" font-size="7.5" fill="rgb(0,0,0)" text-anchor="middle">0.01</text>
<polygon points="273.5,192 293.5,192 293.5,202 273.5,202" fill="rgb(255,252,252)"/><text xml:space="preserve" x="283.5" y="199.833" font-family="Calibri" font-size="7.5" fill="rgb(0,0,0)" text-anchor="middle">0.02</text>
<polygon points="293.5,192 313.5,192 313.5,202 293.5,202" fill="rgb(255,214,214)"/><text xml:space="preserve" x="303.5" y="199.833" font-family="Calibri" font-size="7.5" fill="rgb(0,0,0)" text-anchor="middle">0.27</text>
<polygon points="313.5,192 333.5,192 333.5,202 313.5,202" fill="rgb(255,255,255)"/><text xml:space="preserve" x="323.5" y="199.833" font-family="Calibri" font-size="7.5" fill="rgb(0,0,0)" text-anchor="middle">0.00</text>
<polygon points="183.5,202 203.5,202 203.5,212 183.5,212" fill="rgb(171,171,255)"/><text xml:space="preserve" x="193.5" y="209.833" font-family="Calibri" font-size="7.5" fill="rgb(0,0,0)" text-anchor="middle">557</text>
<polygon points="213.5,202 233.5,202 233.5,212 213.5,212" fill="rgb(255,240,240)"/><text xml:space="preserve" x="223.5" y="209.833" font-family="Calibri" font-size="7.5" fill="rgb(0,0,0)" text-anchor="middle">0.10</text>
<polygon points="233.5,202 253.5,202 253.5,212 233.5,212" fill="rgb(254,248,248)"/><text xml:space="preserve" x="243.5" y="209.833" font-family="Calibri" font-size="7.5" fill="rgb(0,0,0)" text-anchor="middle">0.04</text>
<polygon points="253.5,202 273.5,202 273.5,212 253.5,212" fill="rgb(255,210,210)"/><text xml:space="preserve" x="263.5" y="209.833" font-family="Calibri" font-size="7.5" fill="rgb(0,0,0)" text-anchor="middle">0.30</text>
<polygon points="273.5,202 293.5,202 293.5,212 273.5,212" fill="rgb(255,204,204)"/><text xml:space="preserve" x="283.5" y="209.833" font-family="Calibri" font-size="7.5" fill="rgb(0,0,0)" text-anchor="middle">0.34</text>
<polygon points="293.5,202 313.5,202 313.5,212 293.5,212" fill="rgb(255,226,226)"/><text xml:space="preserve" x="303.5" y="209.833" font-family="Calibri" font-size="7.5" fill="rgb(0,0,0)" text-anchor="middle">0.19</text>
<polygon points="313.5,202 333.5,202 333.5,212 313.5,212" fill="rgb(255,252,252)"/><text xml:space="preserve" x="323.5" y="209.833" font-family="Calibri" font-size="7.5" fill="rgb(0,0,0)" text-anchor="middle">0.02</text>
<polygon points="183.5,212 203.5,212 203.5,222 183.5,222" fill="rgb(244,244,255)"/><text xml:space="preserve" x="193.5" y="219.833" font-family="Calibri" font-size="7.5" fill="rgb(0,0,0)" text-anchor="middle">71</text>
<polygon points="213.5,212 233.5,212 233.5,222 213.5,222" fill="rgb(254,244,244)"/><text xml:space="preserve" x="223.5" y="219.833" font-family="Calibri" font-size="7.5" fill="rgb(0,0,0)" text-anchor="middle">0.07</text>
<polygon points="233.5,212 253.5,212 253.5,222 233.5,222" fill="rgb(255,117,117)"/><text xml:space="preserve" x="243.5" y="219.833" font-family="Calibri" font-size="7.5" fill="rgb(0,0,0)" text-anchor="middle">0.92</text>
<polygon points="253.5,212 273.5,212 273.5,222 253.5,222" fill="rgb(255,255,255)"/><text xml:space="preserve" x="263.5" y="219.833" font-family="Calibri" font-size="7.5" fill="rgb(0,0,0)" text-anchor="middle">0.00</text>
<polygon points="273.5,212 293.5,212 293.5,222 273.5,222" fill="rgb(255,255,255)"/><text xml:space="preserve" x="283.5" y="219.833" font-family="Calibri" font-size="7.5" fill="rgb(0,0,0)" text-anchor="middle">0.00</text>
<polygon points="293.5,212 313.5,212 313.5,222 293.5,222" fill="rgb(255,255,255)"/><text xml:space="preserve" x="303.5" y="219.833" font-family="Calibri" font-size="7.5" fill="rgb(0,0,0)" text-anchor="middle">0.00</text>
<polygon points="313.5,212 333.5,212 333.5,222 313.5,222" fill="rgb(255,253,253)"/><text xml:space="preserve" x="323.5" y="219.833" font-family="Calibri" font-size="7.5" fill="rgb(0,0,0)" text-anchor="middle">0.01</text>
<polygon points="183.5,222 203.5,222 203.5,232 183.5,232" fill="rgb(254,254,255)"/><text xml:space="preserve" x="193.5" y="229.833" font-family="Calibri" font-size="7.5" fill="rgb(0,0,0)" text-anchor="middle">5</text>
<polygon points="213.5,222 233.5,222 233.5,232 213.5,232" fill="rgb(255,195,195)"/><text xml:space="preserve" x="223.5" y="229.833" font-family="Calibri" font-size="7.5" fill="rgb(0,0,0)" text-anchor="middle">0.40</text>
<polygon points="233.5,222 253.5,222 253.5,232 233.5,232" fill="rgb(255,165,165)"/><text xml:space="preserve" x="243.5" y="229.833" font-family="Calibri" font-size="7.5" fill="rgb(0,0,0)" text-anchor="middle">0.60</text>
<polygon points="253.5,222 273.5,222 273.5,232 253.5,232" fill="rgb(255,255,255)"/><text xml:space="preserve" x="263.5" y="229.833" font-family="Calibri" font-size="7.5" fill="rgb(0,0,0)" text-anchor="middle">0.00</text>
<polygon points="273.5,222 293.5,222 293.5,232 273.5,232" fill="rgb(255,255,255)"/><text xml:space="preserve" x="283.5" y="229.833" font-family="Calibri" font-size="7.5" fill="rgb(0,0,0)" text-anchor="middle">0.00</text>
<polygon points="293.5,222 313.5,222 313.5,232 293.5,232" fill="rgb(255,255,255)"/><text xml:space="preserve" x="303.5" y="229.833" font-family="Calibri" font-size="7.5" fill="rgb(0,0,0)" text-anchor="middle">0.00</text>
<polygon points="313.5,222 333.5,222 333.5,232 313.5,232" fill="rgb(255,255,255)"/><text xml:space="preserve" x="323.5" y="229.833" font-family="Calibri" font-size="7.5" fill="rgb(0,0,0)" text-anchor="middle">0.00</text>
<polygon points="183.5,232 203.5,232 203.5,242 183.5,242" fill="rgb(252,252,255)"/><text xml:space="preserve" x="193.5" y="239.833" font-family="Calibri" font-size="7.5" fill="rgb(0,0,0)" text-anchor="middle">16</text>
<polygon points="213.5,232 233.5,232 233.5,242 213.5,242" fill="rgb(255,180,180)"/><text xml:space="preserve" x="223.5" y="239.833" font-family="Calibri" font-size="7.5" fill="rgb(0,0,0)" text-anchor="middle">0.50</text>
<polygon points="233.5,232 253.5,232 253.5,242 233.5,242" fill="rgb(255,180,180)"/><text xml:space="preserve" x="243.5" y="239.833" font-family="Calibri" font-size="7.5" fill="rgb(0,0,0)" text-anchor="middle">0.50</text>
<polygon points="253.5,232 273.5,232 273.5,242 253.5,242" fill="rgb(255,255,255)"/><text xml:space="preserve" x="263.5" y="239.833" font-family="Calibri" font-size="7.5" fill="rgb(0,0,0)" text-anchor="middle">0.00</text>
<polygon points="273.5,232 293.5,232 293.5,242 273.5,242" fill="rgb(255,255,255)"/><text xml:space="preserve" x="283.5" y="239.833" font-family="Calibri" font-size="7.5" fill="rgb(0,0,0)" text-anchor="middle">0.00</text>
<polygon points="293.5,232 313.5,232 313.5,242 293.5,242" fill="rgb(255,255,255)"/><text xml:space="preserve" x="303.5" y="239.833" font-family="Calibri" font-size="7.5" fill="rgb(0,0,0)" text-anchor="middle">0.00</text>
<polygon points="313.5,232 333.5,232 333.5,242 313.5,242" fill="rgb(255,255,255)"/><text xml:space="preserve" x="323.5" y="239.833" font-family="Calibri" font-size="7.5" fill="rgb(0,0,0)" text-anchor="middle">0.00</text>
<polygon points="183.5,242 203.5,242 203.5,252 183.5,252" fill="rgb(254,254,255)"/><text xml:space="preserve" x="193.5" y="249.833" font-family="Calibri" font-size="7.5" fill="rgb(0,0,0)" text-anchor="middle">4</text>
<polygon points="213.5,242 233.5,242 233.5,252 213.5,252" fill="rgb(255,180,180)"/><text xml:space="preserve" x="223.5" y="249.833" font-family="Calibri" font-size="7.5" fill="rgb(0,0,0)" text-anchor="middle">0.50</text>
<polygon points="233.5,242 253.5,242 253.5,252 233.5,252" fill="rgb(255,180,180)"/><text xml:space="preserve" x="243.5" y="249.833" font-family="Calibri" font-size="7.5" fill="rgb(0,0,0)" text-anchor="middle">0.50</text>
<polygon points="253.5,242 273.5,242 273.5,252 253.5,252" fill="rgb(255,255,255)"/><text xml:space="preserve" x="263.5" y="249.833" font-family="Calibri" font-size="7.5" fill="rgb(0,0,0)" text-anchor="middle">0.00</text>
<polygon points="273.5,242 293.5,242 293.5,252 273.5,252" fill="rgb(255,255,255)"/><text xml:space="preserve" x="283.5" y="249.833" font-family="Calibri" font-size="7.5" fill="rgb(0,0,0)" text-anchor="middle">0.00</text>
<polygon points="293.5,242 313.5,242 313.5,252 293.5,252" fill="rgb(255,255,255)"/><text xml:space="preserve" x="303.5" y="249.833" font-family="Calibri" font-size="7.5" fill="rgb(0,0,0)" text-anchor="middle">0.00</text>
<polygon points="313.5,242 333.5,242 333.5,252 313.5,252" fill="rgb(255,255,255)"/><text xml:space="preserve" x="323.5" y="249.833" font-family="Calibri" font-size="7.5" fill="rgb(0,0,0)" text-anchor="middle">0.00</text>
<polygon points="183.5,122 203.5,122 203.5,252 183.5,252" fill="none" stroke="black" stroke-width="1"/>
<polygon points="213.5,122 333.5,122 333.5,252 213.5,252" fill="none" stroke="black" stroke-width="1"/>
<text xml:space="preserve" x="176.75" y="285" font-family="Calibri" font-size="8" text-anchor="middle">Number of cells</text>
<polygon points="116.75,292 136.75,292 136.75,312 116.75,312" fill="rgb(255,255,255)"/><polygon points="116.75,292 136.75,292 136.75,312 116.75,312" fill="none" stroke="black" stroke-width="1"/><text xml:space="preserve" x="126.75" y="304.833" font-family="Calibri" font-size="7.5" fill="rgb(0,0,0)" text-anchor="middle">0.0</text>
<polygon points="136.75,292 156.75,292 156.75,312 136.75,312" fill="rgb(225,225,255)"/><polygon points="136.75,292 156.75,292 156.75,312 136.75,312" fill="none" stroke="black" stroke-width="1"/><text xml:space="preserve" x="146.75" y="304.833" font-family="Calibri" font-size="7.5" fill="rgb(0,0,0)" text-anchor="middle">200.0</text>
<polygon points="156.75,292 176.75,292 176.75,312 156.75,312" fill="rgb(195,195,255)"/><polygon points="156.75,292 176.75,292 176.75,312 156.75,312" fill="none" stroke="black" stroke-width="1"/><text xml:space="preserve" x="166.75" y="304.833" font-family="Calibri" font-size="7.5" fill="rgb(0,0,0)" text-anchor="middle">400.0</text>
<polygon points="176.75,292 196.75,292 196.75,312 176.75,312" fill="rgb(165,165,255)"/><polygon points="176.75,292 196.75,292 196.75,312 176.75,312" fill="none" stroke="black" stroke-width="1"/><text xml:space="preserve" x="186.75" y="304.833" font-family="Calibri" font-size="7.5" fill="rgb(0,0,0)" text-anchor="middle">600.0</text>
<polygon points="196.75,292 216.75,292 216.75,312 196.75,312" fill="rgb(135,135,255)"/><polygon points="196.75,292 216.75,292 216.75,312 196.75,312" fill="none" stroke="black" stroke-width="1"/><text xml:space="preserve" x="206.75" y="304.833" font-family="Calibri" font-size="7.5" fill="rgb(0,0,0)" text-anchor="middle">800.0</text>
<polygon points="216.75,292 236.75,292 236.75,312 216.75,312" fill="rgb(105,105,255)"/><polygon points="216.75,292 236.75,292 236.75,312 216.75,312" fill="none" stroke="black" stroke-width="1"/><text xml:space="preserve" x="226.75" y="304.833" font-family="Calibri" font-size="7.5" fill="rgb(255,255,255)" text-anchor="middle">1000.0</text>
<text xml:space="preserve" x="176.75" y="345" font-family="Calibri" font-size="8" text-anchor="middle">composition of cell-type</text>
<polygon points="116.75,352 136.75,352 136.75,372 116.75,372" fill="rgb(255,255,255)"/><polygon points="116.75,352 136.75,352 136.75,372 116.75,372" fill="none" stroke="black" stroke-width="1"/><text xml:space="preserve" x="126.75" y="364.833" font-family="Calibri" font-size="7.5" fill="rgb(0,0,0)" text-anchor="middle">0.0</text>
<polygon points="136.75,352 156.75,352 156.75,372 136.75,372" fill="rgb(255,225,225)"/><polygon points="136.75,352 156.75,352 156.75,372 136.75,372" fill="none" stroke="black" stroke-width="1"/><text xml:space="preserve" x="146.75" y="364.833" font-family="Calibri" font-size="7.5" fill="rgb(0,0,0)" text-anchor="middle">0.2</text>
<polygon points="156.75,352 176.75,352 176.75,372 156.75,372" fill="rgb(255,195,195)"/><polygon points="156.75,352 176.75,352 176.75,372 156.75,372" fill="none" stroke="black" stroke-width="1"/><text xml:space="preserve" x="166.75" y="364.833" font-family="Calibri" font-size="7.5" fill="rgb(0,0,0)" text-anchor="middle">0.4</text>
<polygon points="176.75,352 196.75,352 196.75,372 176.75,372" fill="rgb(255,165,165)"/><polygon points="176.75,352 196.75,352 196.75,372 176.75,372" fill="none" stroke="black" stroke-width="1"/><text xml:space="preserve" x="186.75" y="364.833" font-family="Calibri" font-size="7.5" fill="rgb(0,0,0)" text-anchor="middle">0.6</text>
<polygon points="196.75,352 216.75,352 216.75,372 196.75,372" fill="rgb(255,135,135)"/><polygon points="196.75,352 216.75,352 216.75,372 196.75,372" fill="none" stroke="black" stroke-width="1"/><text xml:space="preserve" x="206.75" y="364.833" font-family="Calibri" font-size="7.5" fill="rgb(0,0,0)" text-anchor="middle">0.8</text>
<polygon points="216.75,352 236.75,352 236.75,372 216.75,372" fill="rgb(255,105,105)"/><polygon points="216.75,352 236.75,352 236.75,372 216.75,372" fill="none" stroke="black" stroke-width="1"/><text xml:space="preserve" x="226.75" y="364.833" font-family="Calibri" font-size="7.5" fill="rgb(0,0,0)" text-anchor="middle">1.0</text>
</svg>
