<?xml version="1.0" standalone="no"?><!DOCTYPE svg PUBLIC "-//W3C//DTD SVG 1.1//EN" "http://www.w3.org/Graphics/SVG/1.1/DTD/svg11.dtd">
<svg width="305.2" height="559.6" version="1.1" xmlns="http://www.w3.org/2000/svg">
<text xml:space="preserve" x="101.2" y="342.6" font-family="Calibri" font-size="8" text-anchor="end">ALDH1A2</text>
<text xml:space="preserve" x="101.2" y="350.6" font-family="Calibri" font-size="8" text-anchor="end">IGFBP5</text>
<text xml:space="preserve" x="101.2" y="358.6" font-family="Calibri" font-size="8" text-anchor="end">FOXO1</text>
<text xml:space="preserve" x="112.2" y="331.6" font-family="Calibri" font-size="8" transform="rotate(270 112.2 331.6)">c4</text>
<text xml:space="preserve" x="120.2" y="331.6" font-family="Calibri" font-size="8" transform="rotate(270 120.2 331.6)">c3</text>
<text xml:space="preserve" x="128.2" y="331.6" font-family="Calibri" font-size="8" transform="rotate(270 128.2 331.6)">c5</text>
<text xml:space="preserve" x="136.2" y="331.6" font-family="Calibri" font-size="8" transform="rotate(270 136.2 331.6)">c2</text>
<text xml:space="preserve" x="144.2" y="331.6" font-family="Calibri" font-size="8" transform="rotate(270 144.2 331.6)">c1</text>
<text xml:space="preserve" x="152.2" y="331.6" font-family="Calibri" font-size="8" transform="rotate(270 152.2 331.6)">c6</text>
<text xml:space="preserve" x="170.2" y="331.6" font-family="Calibri" font-size="8" transform="rotate(270 170.2 331.6)">c4_mean</text>
<text xml:space="preserve" x="178.2" y="331.6" font-family="Calibri" font-size="8" transform="rotate(270 178.2 331.6)">c3_mean</text>
<text xml:space="preserve" x="186.2" y="331.6" font-family="Calibri" font-size="8" transform="rotate(270 186.2 331.6)">c5_mean</text>
<text xml:space="preserve" x="194.2" y="331.6" font-family="Calibri" font-size="8" transform="rotate(270 194.2 331.6)">c2_mean</text>
<text xml:space="preserve" x="202.2" y="331.6" font-family="Calibri" font-size="8" transform="rotate(270 202.2 331.6)">c1_mean</text>
<text xml:space="preserve" x="210.2" y="331.6" font-family="Calibri" font-size="8" transform="rotate(270 210.2 331.6)">c6_mean</text>
<text xml:space="preserve" x="228.2" y="331.6" font-family="Calibri" font-size="8" transform="rotate(270 228.2 331.6)">transcription_factor</text>
<text xml:space="preserve" x="236.2" y="331.6" font-family="Calibri" font-size="8" transform="rotate(270 236.2 331.6)">transmembrane_signal_receptor</text>
<text xml:space="preserve" x="244.2" y="331.6" font-family="Calibri" font-size="8" transform="rotate(270 244.2 331.6)">growth_factor</text>
<text xml:space="preserve" x="252.2" y="331.6" font-family="Calibri" font-size="8" transform="rotate(270 252.2 331.6)">peptide_hormone</text>
<text xml:space="preserve" x="260.2" y="331.6" font-family="Calibri" font-size="8" transform="rotate(270 260.2 331.6)">cytoskeletal_protein</text>
<text xml:space="preserve" x="268.2" y="331.6" font-family="Calibri" font-size="8" transform="rotate(270 268.2 331.6)">ion_channel</text>
<text xml:space="preserve" x="276.2" y="331.6" font-family="Calibri" font-size="8" transform="rotate(270 276.2 331.6)">integrin</text>
<text xml:space="preserve" x="284.2" y="331.6" font-family="Calibri" font-size="8" transform="rotate(270 284.2 331.6)">extracellular_matrix_protein</text>
<polygon points="105.2,335.6 113.2,335.6 113.2,343.6 105.2,343.6" fill="rgb(205,0,0)"/><text xml:space="preserve" x="109.2" y="342.433" font-family="Calibri" font-size="7.5" fill="rgb(255,255,255)" text-anchor="middle">3</text>
<polygon points="113.2,335.6 121.2,335.6 121.2,343.6 113.2,343.6" fill="rgb(0,205,0)"/><text xml:space="preserve" x="117.2" y="342.433" font-family="Calibri" font-size="7.5" fill="rgb(255,255,255)" text-anchor="middle">1</text>
<polygon points="121.2,335.6 129.2,335.6 129.2,343.6 121.2,343.6" fill="rgb(0,205,0)"/><text xml:space="preserve" x="125.2" y="342.433" font-family="Calibri" font-size="7.5" fill="rgb(255,255,255)" text-anchor="middle">1</text>
<polygon points="129.2,335.6 137.2,335.6 137.2,343.6 129.2,343.6" fill="rgb(0,205,0)"/><text xml:space="preserve" x="133.2" y="342.433" font-family="Calibri" font-size="7.5" fill="rgb(255,255,255)" text-anchor="middle">1</text>
<polygon points="137.2,335.6 145.2,335.6 145.2,343.6 137.2,343.6" fill="rgb(0,205,0)"/><text xml:space="preserve" x="141.2" y="342.433" font-family="Calibri" font-size="7.5" fill="rgb(255,255,255)" text-anchor="middle">1</text>
<polygon points="145.2,335.6 153.2,335.6 153.2,343.6 145.2,343.6" fill="rgb(205,0,0)"/><text xml:space="preserve" x="149.2" y="342.433" font-family="Calibri" font-size="7.5" fill="rgb(255,255,255)" text-anchor="middle">3</text>
<polygon points="163.2,335.6 171.2,335.6 171.2,343.6 163.2,343.6" fill="rgb(93,213,114)"/>
<polygon points="171.2,335.6 179.2,335.6 179.2,343.6 171.2,343.6" fill="rgb(5,48,136)"/>
<polygon points="179.2,335.6 187.2,335.6 187.2,343.6 179.2,343.6" fill="rgb(5,48,136)"/>
<polygon points="187.2,335.6 195.2,335.6 195.2,343.6 187.2,343.6" fill="rgb(0,29,135)"/>
<polygon points="195.2,335.6 203.2,335.6 203.2,343.6 195.2,343.6" fill="rgb(1,32,135)"/>
<polygon points="203.2,335.6 211.2,335.6 211.2,343.6 203.2,343.6" fill="rgb(34,161,142)"/>
<polygon points="221.2,335.6 229.2,335.6 229.2,343.6 221.2,343.6" fill="rgb(255,255,255)"/>
<polygon points="229.2,335.6 237.2,335.6 237.2,343.6 229.2,343.6" fill="rgb(255,255,255)"/>
<polygon points="237.2,335.6 245.2,335.6 245.2,343.6 237.2,343.6" fill="rgb(255,255,255)"/>
<polygon points="245.2,335.6 253.2,335.6 253.2,343.6 245.2,343.6" fill="rgb(255,255,255)"/>
<polygon points="253.2,335.6 261.2,335.6 261.2,343.6 253.2,343.6" fill="rgb(255,255,255)"/>
<polygon points="261.2,335.6 269.2,335.6 269.2,343.6 261.2,343.6" fill="rgb(255,255,255)"/>
<polygon points="269.2,335.6 277.2,335.6 277.2,343.6 269.2,343.6" fill="rgb(255,255,255)"/>
<polygon points="277.2,335.6 285.2,335.6 285.2,343.6 277.2,343.6" fill="rgb(255,255,255)"/>
<polygon points="105.2,343.6 113.2,343.6 113.2,351.6 105.2,351.6" fill="rgb(205,0,0)"/><text xml:space="preserve" x="109.2" y="350.433" font-family="Calibri" font-size="7.5" fill="rgb(255,255,255)" text-anchor="middle">3</text>
<polygon points="113.2,343.6 121.2,343.6 121.2,351.6 113.2,351.6" fill="rgb(0,205,0)"/><text xml:space="preserve" x="117.2" y="350.433" font-family="Calibri" font-size="7.5" fill="rgb(255,255,255)" text-anchor="middle">1</text>
<polygon points="121.2,343.6 129.2,343.6 129.2,351.6 121.2,351.6" fill="rgb(0,205,0)"/><text xml:space="preserve" x="125.2" y="350.433" font-family="Calibri" font-size="7.5" fill="rgb(255,255,255)" text-anchor="middle">1</text>
<polygon points="129.2,343.6 137.2,343.6 137.2,351.6 129.2,351.6" fill="rgb(0,205,0)"/><text xml:space="preserve" x="133.2" y="350.433" font-family="Calibri" font-size="7.5" fill="rgb(255,255,255)" text-anchor="middle">1</text>
<polygon points="137.2,343.6 145.2,343.6 145.2,351.6 137.2,351.6" fill="rgb(0,205,0)"/><text xml:space="preserve" x="141.2" y="350.433" font-family="Calibri" font-size="7.5" fill="rgb(255,255,255)" text-anchor="middle">1</text>
<polygon points="145.2,343.6 153.2,343.6 153.2,351.6 145.2,351.6" fill="rgb(205,0,0)"/><text xml:space="preserve" x="149.2" y="350.433" font-family="Calibri" font-size="7.5" fill="rgb(255,255,255)" text-anchor="middle">3</text>
<polygon points="163.2,343.6 171.2,343.6 171.2,351.6 163.2,351.6" fill="rgb(230,196,16)"/>
<polygon points="171.2,343.6 179.2,343.6 179.2,351.6 171.2,351.6" fill="rgb(11,73,137)"/>
<polygon points="179.2,343.6 187.2,343.6 187.2,351.6 179.2,351.6" fill="rgb(12,74,137)"/>
<polygon points="187.2,343.6 195.2,343.6 195.2,351.6 187.2,351.6" fill="rgb(1,33,135)"/>
<polygon points="195.2,343.6 203.2,343.6 203.2,351.6 195.2,351.6" fill="rgb(12,74,137)"/>
<polygon points="203.2,343.6 211.2,343.6 211.2,351.6 203.2,351.6" fill="rgb(35,165,142)"/>
<polygon points="221.2,343.6 229.2,343.6 229.2,351.6 221.2,351.6" fill="rgb(255,255,255)"/>
<polygon points="229.2,343.6 237.2,343.6 237.2,351.6 229.2,351.6" fill="rgb(255,255,255)"/>
<polygon points="237.2,343.6 245.2,343.6 245.2,351.6 237.2,351.6" fill="rgb(255,255,255)"/>
<polygon points="245.2,343.6 253.2,343.6 253.2,351.6 245.2,351.6" fill="rgb(255,255,255)"/>
<polygon points="253.2,343.6 261.2,343.6 261.2,351.6 253.2,351.6" fill="rgb(255,255,255)"/>
<polygon points="261.2,343.6 269.2,343.6 269.2,351.6 261.2,351.6" fill="rgb(255,255,255)"/>
<polygon points="269.2,343.6 277.2,343.6 277.2,351.6 269.2,351.6" fill="rgb(255,255,255)"/>
<polygon points="277.2,343.6 285.2,343.6 285.2,351.6 277.2,351.6" fill="rgb(255,255,255)"/>
<polygon points="105.2,351.6 113.2,351.6 113.2,359.6 105.2,359.6" fill="rgb(205,0,0)"/><text xml:space="preserve" x="109.2" y="358.433" font-family="Calibri" font-size="7.5" fill="rgb(255,255,255)" text-anchor="middle">3</text>
<polygon points="113.2,351.6 121.2,351.6 121.2,359.6 113.2,359.6" fill="rgb(0,205,0)"/><text xml:space="preserve" x="117.2" y="358.433" font-family="Calibri" font-size="7.5" fill="rgb(255,255,255)" text-anchor="middle">1</text>
<polygon points="121.2,351.6 129.2,351.6 129.2,359.6 121.2,359.6" fill="rgb(0,205,0)"/><text xml:space="preserve" x="125.2" y="358.433" font-family="Calibri" font-size="7.5" fill="rgb(255,255,255)" text-anchor="middle">1</text>
<polygon points="129.2,351.6 137.2,351.6 137.2,359.6 129.2,359.6" fill="rgb(0,205,0)"/><text xml:space="preserve" x="133.2" y="358.433" font-family="Calibri" font-size="7.5" fill="rgb(255,255,255)" text-anchor="middle">1</text>
<polygon points="137.2,351.6 145.2,351.6 145.2,359.6 137.2,359.6" fill="rgb(0,205,0)"/><text xml:space="preserve" x="141.2" y="358.433" font-family="Calibri" font-size="7.5" fill="rgb(255,255,255)" text-anchor="middle">1</text>
<polygon points="145.2,351.6 153.2,351.6 153.2,359.6 145.2,359.6" fill="rgb(205,0,0)"/><text xml:space="preserve" x="149.2" y="358.433" font-family="Calibri" font-size="7.5" fill="rgb(255,255,255)" text-anchor="middle">3</text>
<polygon points="163.2,351.6 171.2,351.6 171.2,359.6 163.2,359.6" fill="rgb(127,209,89)"/>
<polygon points="171.2,351.6 179.2,351.6 179.2,359.6 171.2,359.6" fill="rgb(14,83,138)"/>
<polygon points="179.2,351.6 187.2,351.6 187.2,359.6 179.2,359.6" fill="rgb(11,71,137)"/>
<polygon points="187.2,351.6 195.2,351.6 195.2,359.6 187.2,359.6" fill="rgb(4,44,136)"/>
<polygon points="195.2,351.6 203.2,351.6 203.2,359.6 195.2,359.6" fill="rgb(3,41,135)"/>
<polygon points="203.2,351.6 211.2,351.6 211.2,359.6 203.2,359.6" fill="rgb(20,108,139)"/>
<polygon points="221.2,351.6 229.2,351.6 229.2,359.6 221.2,359.6" fill="rgb(205,0,205)"/>
<polygon points="229.2,351.6 237.2,351.6 237.2,359.6 229.2,359.6" fill="rgb(255,255,255)"/>
<polygon points="237.2,351.6 245.2,351.6 245.2,359.6 237.2,359.6" fill="rgb(255,255,255)"/>
<polygon points="245.2,351.6 253.2,351.6 253.2,359.6 245.2,359.6" fill="rgb(255,255,255)"/>
<polygon points="253.2,351.6 261.2,351.6 261.2,359.6 253.2,359.6" fill="rgb(255,255,255)"/>
<polygon points="261.2,351.6 269.2,351.6 269.2,359.6 261.2,359.6" fill="rgb(255,255,255)"/>
<polygon points="269.2,351.6 277.2,351.6 277.2,359.6 269.2,359.6" fill="rgb(255,255,255)"/>
<polygon points="277.2,351.6 285.2,351.6 285.2,359.6 277.2,359.6" fill="rgb(255,255,255)"/>
<polygon points="105.2,335.6 153.2,335.6 153.2,359.6 105.2,359.6" fill="none" stroke="black" stroke-width="1"/>
<polygon points="163.2,335.6 211.2,335.6 211.2,359.6 163.2,359.6" fill="none" stroke="black" stroke-width="1"/>
<polygon points="221.2,335.6 285.2,335.6 285.2,359.6 221.2,359.6" fill="none" stroke="black" stroke-width="1"/>
<text xml:space="preserve" x="152.6" y="392.6" font-family="Calibri" font-size="8" text-anchor="middle">ClusterAssignment</text>
<polygon points="122.6,399.6 142.6,399.6 142.6,419.6 122.6,419.6" fill="rgb(0,205,0)"/><polygon points="122.6,399.6 142.6,399.6 142.6,419.6 122.6,419.6" fill="none" stroke="black" stroke-width="1"/><text xml:space="preserve" x="132.6" y="412.433" font-family="Calibri" font-size="7.5" fill="rgb(255,255,255)" text-anchor="middle">1.0</text>
<polygon points="142.6,399.6 162.6,399.6 162.6,419.6 142.6,419.6" fill="rgb(255,255,0)"/><polygon points="142.6,399.6 162.6,399.6 162.6,419.6 142.6,419.6" fill="none" stroke="black" stroke-width="1"/><text xml:space="preserve" x="152.6" y="412.433" font-family="Calibri" font-size="7.5" fill="rgb(0,0,0)" text-anchor="middle">2.0</text>
<polygon points="162.6,399.6 182.6,399.6 182.6,419.6 162.6,419.6" fill="rgb(205,0,0)"/><polygon points="162.6,399.6 182.6,399.6 182.6,419.6 162.6,419.6" fill="none" stroke="black" stroke-width="1"/><text xml:space="preserve" x="172.6" y="412.433" font-family="Calibri" font-size="7.5" fill="rgb(255,255,255)" text-anchor="middle">3.0</text>
<text xml:space="preserve" x="152.6" y="452.6" font-family="Calibri" font-size="8" text-anchor="middle">Expression</text>
<polygon points="122.6,459.6 142.6,459.6 142.6,479.6 122.6,479.6" fill="rgb(0,27,135)"/><polygon points="122.6,459.6 142.6,459.6 142.6,479.6 122.6,479.6" fill="none" stroke="black" stroke-width="1"/><text xml:space="preserve" x="132.6" y="472.433" font-family="Calibri" font-size="7.5" fill="rgb(255,255,255)" text-anchor="middle">0.0</text>
<polygon points="142.6,459.6 162.6,459.6 162.6,479.6 142.6,479.6" fill="rgb(49,219,146)"/><polygon points="142.6,459.6 162.6,459.6 162.6,479.6 142.6,479.6" fill="none" stroke="black" stroke-width="1"/><text xml:space="preserve" x="152.6" y="472.433" font-family="Calibri" font-size="7.5" fill="rgb(0,0,0)" text-anchor="middle">1.5</text>
<polygon points="162.6,459.6 182.6,459.6 182.6,479.6 162.6,479.6" fill="rgb(252,194,1)"/><polygon points="162.6,459.6 182.6,459.6 182.6,479.6 162.6,479.6" fill="none" stroke="black" stroke-width="1"/><text xml:space="preserve" x="172.6" y="472.433" font-family="Calibri" font-size="7.5" fill="rgb(0,0,0)" text-anchor="middle">3.0</text>
<text xml:space="preserve" x="152.6" y="512.6" font-family="Calibri" font-size="8" text-anchor="middle">PANTHERclass</text>
<polygon points="122.6,519.6 142.6,519.6 142.6,539.6 122.6,539.6" fill="rgb(255,255,255)"/><polygon points="122.6,519.6 142.6,519.6 142.6,539.6 122.6,539.6" fill="none" stroke="black" stroke-width="1"/><text xml:space="preserve" x="132.6" y="532.433" font-family="Calibri" font-size="7.5" fill="rgb(0,0,0)" text-anchor="middle">0.0</text>
<polygon points="142.6,519.6 162.6,519.6 162.6,539.6 142.6,539.6" fill="rgb(230,127,230)"/><polygon points="142.6,519.6 162.6,519.6 162.6,539.6 142.6,539.6" fill="none" stroke="black" stroke-width="1"/><text xml:space="preserve" x="152.6" y="532.433" font-family="Calibri" font-size="7.5" fill="rgb(0,0,0)" text-anchor="middle">0.5</text>
<polygon points="162.6,519.6 182.6,519.6 182.6,539.6 162.6,539.6" fill="rgb(205,0,205)"/><polygon points="162.6,519.6 182.6,519.6 182.6,539.6 162.6,539.6" fill="none" stroke="black" stroke-width="1"/><text xml:space="preserve" x="172.6" y="532.433" font-family="Calibri" font-size="7.5" fill="rgb(255,255,255)" text-anchor="middle">1.0</text>
</svg>
