<?xml version="1.0" standalone="no"?><!DOCTYPE svg PUBLIC "-//W3C//DTD SVG 1.1//EN" "http://www.w3.org/Graphics/SVG/1.1/DTD/svg11.dtd">
<svg width="327.4" height="591.6" version="1.1" xmlns="http://www.w3.org/2000/svg">
<text xml:space="preserve" x="123.4" y="342.6" font-family="Calibri" font-size="8" text-anchor="end">AC103702.2</text>
<text xml:space="preserve" x="123.4" y="350.6" font-family="Calibri" font-size="8" text-anchor="end">UBC</text>
<text xml:space="preserve" x="123.4" y="358.6" font-family="Calibri" font-size="8" text-anchor="end">EBLN3P</text>
<text xml:space="preserve" x="123.4" y="366.6" font-family="Calibri" font-size="8" text-anchor="end">EIF1</text>
<text xml:space="preserve" x="123.4" y="374.6" font-family="Calibri" font-size="8" text-anchor="end">MARCKSL1</text>
<text xml:space="preserve" x="123.4" y="382.6" font-family="Calibri" font-size="8" text-anchor="end">MLF2</text>
<text xml:space="preserve" x="123.4" y="390.6" font-family="Calibri" font-size="8" text-anchor="end">STMN1</text>
<text xml:space="preserve" x="134.4" y="331.6" font-family="Calibri" font-size="8" transform="rotate(270 134.4 331.6)">c4</text>
<text xml:space="preserve" x="142.4" y="331.6" font-family="Calibri" font-size="8" transform="rotate(270 142.4 331.6)">c3</text>
<text xml:space="preserve" x="150.4" y="331.6" font-family="Calibri" font-size="8" transform="rotate(270 150.4 331.6)">c5</text>
<text xml:space="preserve" x="158.4" y="331.6" font-family="Calibri" font-size="8" transform="rotate(270 158.4 331.6)">c2</text>
<text xml:space="preserve" x="166.4" y="331.6" font-family="Calibri" font-size="8" transform="rotate(270 166.4 331.6)">c1</text>
<text xml:space="preserve" x="174.4" y="331.6" font-family="Calibri" font-size="8" transform="rotate(270 174.4 331.6)">c6</text>
<text xml:space="preserve" x="192.4" y="331.6" font-family="Calibri" font-size="8" transform="rotate(270 192.4 331.6)">c4_mean</text>
<text xml:space="preserve" x="200.4" y="331.6" font-family="Calibri" font-size="8" transform="rotate(270 200.4 331.6)">c3_mean</text>
<text xml:space="preserve" x="208.4" y="331.6" font-family="Calibri" font-size="8" transform="rotate(270 208.4 331.6)">c5_mean</text>
<text xml:space="preserve" x="216.4" y="331.6" font-family="Calibri" font-size="8" transform="rotate(270 216.4 331.6)">c2_mean</text>
<text xml:space="preserve" x="224.4" y="331.6" font-family="Calibri" font-size="8" transform="rotate(270 224.4 331.6)">c1_mean</text>
<text xml:space="preserve" x="232.4" y="331.6" font-family="Calibri" font-size="8" transform="rotate(270 232.4 331.6)">c6_mean</text>
<text xml:space="preserve" x="250.4" y="331.6" font-family="Calibri" font-size="8" transform="rotate(270 250.4 331.6)">transcription_factor</text>
<text xml:space="preserve" x="258.4" y="331.6" font-family="Calibri" font-size="8" transform="rotate(270 258.4 331.6)">transmembrane_signal_receptor</text>
<text xml:space="preserve" x="266.4" y="331.6" font-family="Calibri" font-size="8" transform="rotate(270 266.4 331.6)">growth_factor</text>
<text xml:space="preserve" x="274.4" y="331.6" font-family="Calibri" font-size="8" transform="rotate(270 274.4 331.6)">peptide_hormone</text>
<text xml:space="preserve" x="282.4" y="331.6" font-family="Calibri" font-size="8" transform="rotate(270 282.4 331.6)">cytoskeletal_protein</text>
<text xml:space="preserve" x="290.4" y="331.6" font-family="Calibri" font-size="8" transform="rotate(270 290.4 331.6)">ion_channel</text>
<text xml:space="preserve" x="298.4" y="331.6" font-family="Calibri" font-size="8" transform="rotate(270 298.4 331.6)">integrin</text>
<text xml:space="preserve" x="306.4" y="331.6" font-family="Calibri" font-size="8" transform="rotate(270 306.4 331.6)">extracellular_matrix_protein</text>
<polygon points="127.4,335.6 135.4,335.6 135.4,343.6 127.4,343.6" fill="rgb(255,255,0)"/><text xml:space="preserve" x="131.4" y="342.433" font-family="Calibri" font-size="7.5" fill="rgb(0,0,0)" text-anchor="middle">2</text>
<polygon points="135.4,335.6 143.4,335.6 143.4,343.6 135.4,343.6" fill="rgb(255,255,0)"/><text xml:space="preserve" x="139.4" y="342.433" font-family="Calibri" font-size="7.5" fill="rgb(0,0,0)" text-anchor="middle">2</text>
<polygon points="143.4,335.6 151.4,335.6 151.4,343.6 143.4,343.6" fill="rgb(255,255,0)"/><text xml:space="preserve" x="147.4" y="342.433" font-family="Calibri" font-size="7.5" fill="rgb(0,0,0)" text-anchor="middle">2</text>
<polygon points="151.4,335.6 159.4,335.6 159.4,343.6 151.4,343.6" fill="rgb(255,255,0)"/><text xml:space="preserve" x="155.4" y="342.433" font-family="Calibri" font-size="7.5" fill="rgb(0,0,0)" text-anchor="middle">2</text>
<polygon points="159.4,335.6 167.4,335.6 167.4,343.6 159.4,343.6" fill="rgb(205,0,0)"/><text xml:space="preserve" x="163.4" y="342.433" font-family="Calibri" font-size="7.5" fill="rgb(255,255,255)" text-anchor="middle">3</text>
<polygon points="167.4,335.6 175.4,335.6 175.4,343.6 167.4,343.6" fill="rgb(205,0,0)"/><text xml:space="preserve" x="171.4" y="342.433" font-family="Calibri" font-size="7.5" fill="rgb(255,255,255)" text-anchor="middle">3</text>
<polygon points="185.4,335.6 193.4,335.6 193.4,343.6 185.4,343.6" fill="rgb(30,144,141)"/>
<polygon points="193.4,335.6 201.4,335.6 201.4,343.6 193.4,343.6" fill="rgb(24,121,140)"/>
<polygon points="201.4,335.6 209.4,335.6 209.4,343.6 201.4,343.6" fill="rgb(11,73,137)"/>
<polygon points="209.4,335.6 217.4,335.6 217.4,343.6 209.4,343.6" fill="rgb(10,67,137)"/>
<polygon points="217.4,335.6 225.4,335.6 225.4,343.6 217.4,343.6" fill="rgb(33,158,142)"/>
<polygon points="225.4,335.6 233.4,335.6 233.4,343.6 225.4,343.6" fill="rgb(28,137,141)"/>
<polygon points="243.4,335.6 251.4,335.6 251.4,343.6 243.4,343.6" fill="rgb(255,255,255)"/>
<polygon points="251.4,335.6 259.4,335.6 259.4,343.6 251.4,343.6" fill="rgb(255,255,255)"/>
<polygon points="259.4,335.6 267.4,335.6 267.4,343.6 259.4,343.6" fill="rgb(255,255,255)"/>
<polygon points="267.4,335.6 275.4,335.6 275.4,343.6 267.4,343.6" fill="rgb(255,255,255)"/>
<polygon points="275.4,335.6 283.4,335.6 283.4,343.6 275.4,343.6" fill="rgb(255,255,255)"/>
<polygon points="283.4,335.6 291.4,335.6 291.4,343.6 283.4,343.6" fill="rgb(255,255,255)"/>
<polygon points="291.4,335.6 299.4,335.6 299.4,343.6 291.4,343.6" fill="rgb(255,255,255)"/>
<polygon points="299.4,335.6 307.4,335.6 307.4,343.6 299.4,343.6" fill="rgb(255,255,255)"/>
<polygon points="127.4,343.6 135.4,343.6 135.4,351.6 127.4,351.6" fill="rgb(255,255,0)"/><text xml:space="preserve" x="131.4" y="350.433" font-family="Calibri" font-size="7.5" fill="rgb(0,0,0)" text-anchor="middle">2</text>
<polygon points="135.4,343.6 143.4,343.6 143.4,351.6 135.4,351.6" fill="rgb(255,255,0)"/><text xml:space="preserve" x="139.4" y="350.433" font-family="Calibri" font-size="7.5" fill="rgb(0,0,0)" text-anchor="middle">2</text>
<polygon points="143.4,343.6 151.4,343.6 151.4,351.6 143.4,351.6" fill="rgb(255,255,0)"/><text xml:space="preserve" x="147.4" y="350.433" font-family="Calibri" font-size="7.5" fill="rgb(0,0,0)" text-anchor="middle">2</text>
<polygon points="151.4,343.6 159.4,343.6 159.4,351.6 151.4,351.6" fill="rgb(255,255,0)"/><text xml:space="preserve" x="155.4" y="350.433" font-family="Calibri" font-size="7.5" fill="rgb(0,0,0)" text-anchor="middle">2</text>
<polygon points="159.4,343.6 167.4,343.6 167.4,351.6 159.4,351.6" fill="rgb(205,0,0)"/><text xml:space="preserve" x="163.4" y="350.433" font-family="Calibri" font-size="7.5" fill="rgb(255,255,255)" text-anchor="middle">3</text>
<polygon points="167.4,343.6 175.4,343.6 175.4,351.6 167.4,351.6" fill="rgb(205,0,0)"/><text xml:space="preserve" x="171.4" y="350.433" font-family="Calibri" font-size="7.5" fill="rgb(255,255,255)" text-anchor="middle">3</text>
<polygon points="185.4,343.6 193.4,343.6 193.4,351.6 185.4,351.6" fill="rgb(39,183,143)"/>
<polygon points="193.4,343.6 201.4,343.6 201.4,351.6 193.4,351.6" fill="rgb(29,142,141)"/>
<polygon points="201.4,343.6 209.4,343.6 209.4,351.6 201.4,351.6" fill="rgb(11,71,137)"/>
<polygon points="209.4,343.6 217.4,343.6 217.4,351.6 209.4,351.6" fill="rgb(11,71,137)"/>
<polygon points="217.4,343.6 225.4,343.6 225.4,351.6 217.4,351.6" fill="rgb(54,218,142)"/>
<polygon points="225.4,343.6 233.4,343.6 233.4,351.6 225.4,351.6" fill="rgb(59,217,138)"/>
<polygon points="243.4,343.6 251.4,343.6 251.4,351.6 243.4,351.6" fill="rgb(255,255,255)"/>
<polygon points="251.4,343.6 259.4,343.6 259.4,351.6 251.4,351.6" fill="rgb(255,255,255)"/>
<polygon points="259.4,343.6 267.4,343.6 267.4,351.6 259.4,351.6" fill="rgb(255,255,255)"/>
<polygon points="267.4,343.6 275.4,343.6 275.4,351.6 267.4,351.6" fill="rgb(255,255,255)"/>
<polygon points="275.4,343.6 283.4,343.6 283.4,351.6 275.4,351.6" fill="rgb(255,255,255)"/>
<polygon points="283.4,343.6 291.4,343.6 291.4,351.6 283.4,351.6" fill="rgb(255,255,255)"/>
<polygon points="291.4,343.6 299.4,343.6 299.4,351.6 291.4,351.6" fill="rgb(255,255,255)"/>
<polygon points="299.4,343.6 307.4,343.6 307.4,351.6 299.4,351.6" fill="rgb(255,255,255)"/>
<polygon points="127.4,351.6 135.4,351.6 135.4,359.6 127.4,359.6" fill="rgb(255,255,0)"/><text xml:space="preserve" x="131.4" y="358.433" font-family="Calibri" font-size="7.5" fill="rgb(0,0,0)" text-anchor="middle">2</text>
<polygon points="135.4,351.6 143.4,351.6 143.4,359.6 135.4,359.6" fill="rgb(255,255,0)"/><text xml:space="preserve" x="139.4" y="358.433" font-family="Calibri" font-size="7.5" fill="rgb(0,0,0)" text-anchor="middle">2</text>
<polygon points="143.4,351.6 151.4,351.6 151.4,359.6 143.4,359.6" fill="rgb(255,255,0)"/><text xml:space="preserve" x="147.4" y="358.433" font-family="Calibri" font-size="7.5" fill="rgb(0,0,0)" text-anchor="middle">2</text>
<polygon points="151.4,351.6 159.4,351.6 159.4,359.6 151.4,359.6" fill="rgb(255,255,0)"/><text xml:space="preserve" x="155.4" y="358.433" font-family="Calibri" font-size="7.5" fill="rgb(0,0,0)" text-anchor="middle">2</text>
<polygon points="159.4,351.6 167.4,351.6 167.4,359.6 159.4,359.6" fill="rgb(205,0,0)"/><text xml:space="preserve" x="163.4" y="358.433" font-family="Calibri" font-size="7.5" fill="rgb(255,255,255)" text-anchor="middle">3</text>
<polygon points="167.4,351.6 175.4,351.6 175.4,359.6 167.4,359.6" fill="rgb(205,0,0)"/><text xml:space="preserve" x="171.4" y="358.433" font-family="Calibri" font-size="7.5" fill="rgb(255,255,255)" text-anchor="middle">3</text>
<polygon points="185.4,351.6 193.4,351.6 193.4,359.6 185.4,359.6" fill="rgb(19,102,139)"/>
<polygon points="193.4,351.6 201.4,351.6 201.4,359.6 193.4,359.6" fill="rgb(19,103,139)"/>
<polygon points="201.4,351.6 209.4,351.6 209.4,359.6 201.4,359.6" fill="rgb(20,107,139)"/>
<polygon points="209.4,351.6 217.4,351.6 217.4,359.6 209.4,359.6" fill="rgb(17,97,139)"/>
<polygon points="217.4,351.6 225.4,351.6 225.4,359.6 217.4,359.6" fill="rgb(20,108,139)"/>
<polygon points="225.4,351.6 233.4,351.6 233.4,359.6 225.4,359.6" fill="rgb(22,116,140)"/>
<polygon points="243.4,351.6 251.4,351.6 251.4,359.6 243.4,359.6" fill="rgb(255,255,255)"/>
<polygon points="251.4,351.6 259.4,351.6 259.4,359.6 251.4,359.6" fill="rgb(255,255,255)"/>
<polygon points="259.4,351.6 267.4,351.6 267.4,359.6 259.4,359.6" fill="rgb(255,255,255)"/>
<polygon points="267.4,351.6 275.4,351.6 275.4,359.6 267.4,359.6" fill="rgb(255,255,255)"/>
<polygon points="275.4,351.6 283.4,351.6 283.4,359.6 275.4,359.6" fill="rgb(255,255,255)"/>
<polygon points="283.4,351.6 291.4,351.6 291.4,359.6 283.4,359.6" fill="rgb(255,255,255)"/>
<polygon points="291.4,351.6 299.4,351.6 299.4,359.6 291.4,359.6" fill="rgb(255,255,255)"/>
<polygon points="299.4,351.6 307.4,351.6 307.4,359.6 299.4,359.6" fill="rgb(255,255,255)"/>
<polygon points="127.4,359.6 135.4,359.6 135.4,367.6 127.4,367.6" fill="rgb(255,255,0)"/><text xml:space="preserve" x="131.4" y="366.433" font-family="Calibri" font-size="7.5" fill="rgb(0,0,0)" text-anchor="middle">2</text>
<polygon points="135.4,359.6 143.4,359.6 143.4,367.6 135.4,367.6" fill="rgb(255,255,0)"/><text xml:space="preserve" x="139.4" y="366.433" font-family="Calibri" font-size="7.5" fill="rgb(0,0,0)" text-anchor="middle">2</text>
<polygon points="143.4,359.6 151.4,359.6 151.4,367.6 143.4,367.6" fill="rgb(255,255,0)"/><text xml:space="preserve" x="147.4" y="366.433" font-family="Calibri" font-size="7.5" fill="rgb(0,0,0)" text-anchor="middle">2</text>
<polygon points="151.4,359.6 159.4,359.6 159.4,367.6 151.4,367.6" fill="rgb(255,255,0)"/><text xml:space="preserve" x="155.4" y="366.433" font-family="Calibri" font-size="7.5" fill="rgb(0,0,0)" text-anchor="middle">2</text>
<polygon points="159.4,359.6 167.4,359.6 167.4,367.6 159.4,367.6" fill="rgb(205,0,0)"/><text xml:space="preserve" x="163.4" y="366.433" font-family="Calibri" font-size="7.5" fill="rgb(255,255,255)" text-anchor="middle">3</text>
<polygon points="167.4,359.6 175.4,359.6 175.4,367.6 167.4,367.6" fill="rgb(205,0,0)"/><text xml:space="preserve" x="171.4" y="366.433" font-family="Calibri" font-size="7.5" fill="rgb(255,255,255)" text-anchor="middle">3</text>
<polygon points="185.4,359.6 193.4,359.6 193.4,367.6 185.4,367.6" fill="rgb(32,155,142)"/>
<polygon points="193.4,359.6 201.4,359.6 201.4,367.6 193.4,367.6" fill="rgb(31,149,142)"/>
<polygon points="201.4,359.6 209.4,359.6 209.4,367.6 201.4,367.6" fill="rgb(8,60,136)"/>
<polygon points="209.4,359.6 217.4,359.6 217.4,367.6 209.4,367.6" fill="rgb(8,61,136)"/>
<polygon points="217.4,359.6 225.4,359.6 225.4,367.6 217.4,367.6" fill="rgb(33,158,142)"/>
<polygon points="225.4,359.6 233.4,359.6 233.4,367.6 225.4,367.6" fill="rgb(32,156,142)"/>
<polygon points="243.4,359.6 251.4,359.6 251.4,367.6 243.4,367.6" fill="rgb(255,255,255)"/>
<polygon points="251.4,359.6 259.4,359.6 259.4,367.6 251.4,367.6" fill="rgb(255,255,255)"/>
<polygon points="259.4,359.6 267.4,359.6 267.4,367.6 259.4,367.6" fill="rgb(255,255,255)"/>
<polygon points="267.4,359.6 275.4,359.6 275.4,367.6 267.4,367.6" fill="rgb(255,255,255)"/>
<polygon points="275.4,359.6 283.4,359.6 283.4,367.6 275.4,367.6" fill="rgb(255,255,255)"/>
<polygon points="283.4,359.6 291.4,359.6 291.4,367.6 283.4,367.6" fill="rgb(255,255,255)"/>
<polygon points="291.4,359.6 299.4,359.6 299.4,367.6 291.4,367.6" fill="rgb(255,255,255)"/>
<polygon points="299.4,359.6 307.4,359.6 307.4,367.6 299.4,367.6" fill="rgb(255,255,255)"/>
<polygon points="127.4,367.6 135.4,367.6 135.4,375.6 127.4,375.6" fill="rgb(255,255,0)"/><text xml:space="preserve" x="131.4" y="374.433" font-family="Calibri" font-size="7.5" fill="rgb(0,0,0)" text-anchor="middle">2</text>
<polygon points="135.4,367.6 143.4,367.6 143.4,375.6 135.4,375.6" fill="rgb(255,255,0)"/><text xml:space="preserve" x="139.4" y="374.433" font-family="Calibri" font-size="7.5" fill="rgb(0,0,0)" text-anchor="middle">2</text>
<polygon points="143.4,367.6 151.4,367.6 151.4,375.6 143.4,375.6" fill="rgb(255,255,0)"/><text xml:space="preserve" x="147.4" y="374.433" font-family="Calibri" font-size="7.5" fill="rgb(0,0,0)" text-anchor="middle">2</text>
<polygon points="151.4,367.6 159.4,367.6 159.4,375.6 151.4,375.6" fill="rgb(255,255,0)"/><text xml:space="preserve" x="155.4" y="374.433" font-family="Calibri" font-size="7.5" fill="rgb(0,0,0)" text-anchor="middle">2</text>
<polygon points="159.4,367.6 167.4,367.6 167.4,375.6 159.4,375.6" fill="rgb(205,0,0)"/><text xml:space="preserve" x="163.4" y="374.433" font-family="Calibri" font-size="7.5" fill="rgb(255,255,255)" text-anchor="middle">3</text>
<polygon points="167.4,367.6 175.4,367.6 175.4,375.6 167.4,375.6" fill="rgb(205,0,0)"/><text xml:space="preserve" x="171.4" y="374.433" font-family="Calibri" font-size="7.5" fill="rgb(255,255,255)" text-anchor="middle">3</text>
<polygon points="185.4,367.6 193.4,367.6 193.4,375.6 185.4,375.6" fill="rgb(26,130,140)"/>
<polygon points="193.4,367.6 201.4,367.6 201.4,375.6 193.4,375.6" fill="rgb(23,117,140)"/>
<polygon points="201.4,367.6 209.4,367.6 209.4,375.6 201.4,375.6" fill="rgb(10,69,137)"/>
<polygon points="209.4,367.6 217.4,367.6 217.4,375.6 209.4,375.6" fill="rgb(12,74,137)"/>
<polygon points="217.4,367.6 225.4,367.6 225.4,375.6 217.4,375.6" fill="rgb(73,216,128)"/>
<polygon points="225.4,367.6 233.4,367.6 233.4,375.6 225.4,375.6" fill="rgb(67,216,132)"/>
<polygon points="243.4,367.6 251.4,367.6 251.4,375.6 243.4,375.6" fill="rgb(255,255,255)"/>
<polygon points="251.4,367.6 259.4,367.6 259.4,375.6 251.4,375.6" fill="rgb(255,255,255)"/>
<polygon points="259.4,367.6 267.4,367.6 267.4,375.6 259.4,375.6" fill="rgb(255,255,255)"/>
<polygon points="267.4,367.6 275.4,367.6 275.4,375.6 267.4,375.6" fill="rgb(255,255,255)"/>
<polygon points="275.4,367.6 283.4,367.6 283.4,375.6 275.4,375.6" fill="rgb(255,255,255)"/>
<polygon points="283.4,367.6 291.4,367.6 291.4,375.6 283.4,375.6" fill="rgb(255,255,255)"/>
<polygon points="291.4,367.6 299.4,367.6 299.4,375.6 291.4,375.6" fill="rgb(255,255,255)"/>
<polygon points="299.4,367.6 307.4,367.6 307.4,375.6 299.4,375.6" fill="rgb(255,255,255)"/>
<polygon points="127.4,375.6 135.4,375.6 135.4,383.6 127.4,383.6" fill="rgb(255,255,0)"/><text xml:space="preserve" x="131.4" y="382.433" font-family="Calibri" font-size="7.5" fill="rgb(0,0,0)" text-anchor="middle">2</text>
<polygon points="135.4,375.6 143.4,375.6 143.4,383.6 135.4,383.6" fill="rgb(255,255,0)"/><text xml:space="preserve" x="139.4" y="382.433" font-family="Calibri" font-size="7.5" fill="rgb(0,0,0)" text-anchor="middle">2</text>
<polygon points="143.4,375.6 151.4,375.6 151.4,383.6 143.4,383.6" fill="rgb(255,255,0)"/><text xml:space="preserve" x="147.4" y="382.433" font-family="Calibri" font-size="7.5" fill="rgb(0,0,0)" text-anchor="middle">2</text>
<polygon points="151.4,375.6 159.4,375.6 159.4,383.6 151.4,383.6" fill="rgb(255,255,0)"/><text xml:space="preserve" x="155.4" y="382.433" font-family="Calibri" font-size="7.5" fill="rgb(0,0,0)" text-anchor="middle">2</text>
<polygon points="159.4,375.6 167.4,375.6 167.4,383.6 159.4,383.6" fill="rgb(205,0,0)"/><text xml:space="preserve" x="163.4" y="382.433" font-family="Calibri" font-size="7.5" fill="rgb(255,255,255)" text-anchor="middle">3</text>
<polygon points="167.4,375.6 175.4,375.6 175.4,383.6 167.4,383.6" fill="rgb(205,0,0)"/><text xml:space="preserve" x="171.4" y="382.433" font-family="Calibri" font-size="7.5" fill="rgb(255,255,255)" text-anchor="middle">3</text>
<polygon points="185.4,375.6 193.4,375.6 193.4,383.6 185.4,383.6" fill="rgb(23,119,140)"/>
<polygon points="193.4,375.6 201.4,375.6 201.4,383.6 193.4,383.6" fill="rgb(23,120,140)"/>
<polygon points="201.4,375.6 209.4,375.6 209.4,383.6 201.4,383.6" fill="rgb(8,60,136)"/>
<polygon points="209.4,375.6 217.4,375.6 217.4,383.6 209.4,383.6" fill="rgb(19,102,139)"/>
<polygon points="217.4,375.6 225.4,375.6 225.4,383.6 217.4,383.6" fill="rgb(26,130,140)"/>
<polygon points="225.4,375.6 233.4,375.6 233.4,383.6 225.4,383.6" fill="rgb(26,130,140)"/>
<polygon points="243.4,375.6 251.4,375.6 251.4,383.6 243.4,383.6" fill="rgb(255,255,255)"/>
<polygon points="251.4,375.6 259.4,375.6 259.4,383.6 251.4,383.6" fill="rgb(255,255,255)"/>
<polygon points="259.4,375.6 267.4,375.6 267.4,383.6 259.4,383.6" fill="rgb(255,255,255)"/>
<polygon points="267.4,375.6 275.4,375.6 275.4,383.6 267.4,383.6" fill="rgb(255,255,255)"/>
<polygon points="275.4,375.6 283.4,375.6 283.4,383.6 275.4,383.6" fill="rgb(255,255,255)"/>
<polygon points="283.4,375.6 291.4,375.6 291.4,383.6 283.4,383.6" fill="rgb(255,255,255)"/>
<polygon points="291.4,375.6 299.4,375.6 299.4,383.6 291.4,383.6" fill="rgb(255,255,255)"/>
<polygon points="299.4,375.6 307.4,375.6 307.4,383.6 299.4,383.6" fill="rgb(255,255,255)"/>
<polygon points="127.4,383.6 135.4,383.6 135.4,391.6 127.4,391.6" fill="rgb(255,255,0)"/><text xml:space="preserve" x="131.4" y="390.433" font-family="Calibri" font-size="7.5" fill="rgb(0,0,0)" text-anchor="middle">2</text>
<polygon points="135.4,383.6 143.4,383.6 143.4,391.6 135.4,391.6" fill="rgb(255,255,0)"/><text xml:space="preserve" x="139.4" y="390.433" font-family="Calibri" font-size="7.5" fill="rgb(0,0,0)" text-anchor="middle">2</text>
<polygon points="143.4,383.6 151.4,383.6 151.4,391.6 143.4,391.6" fill="rgb(255,255,0)"/><text xml:space="preserve" x="147.4" y="390.433" font-family="Calibri" font-size="7.5" fill="rgb(0,0,0)" text-anchor="middle">2</text>
<polygon points="151.4,383.6 159.4,383.6 159.4,391.6 151.4,391.6" fill="rgb(255,255,0)"/><text xml:space="preserve" x="155.4" y="390.433" font-family="Calibri" font-size="7.5" fill="rgb(0,0,0)" text-anchor="middle">2</text>
<polygon points="159.4,383.6 167.4,383.6 167.4,391.6 159.4,391.6" fill="rgb(205,0,0)"/><text xml:space="preserve" x="163.4" y="390.433" font-family="Calibri" font-size="7.5" fill="rgb(255,255,255)" text-anchor="middle">3</text>
<polygon points="167.4,383.6 175.4,383.6 175.4,391.6 167.4,391.6" fill="rgb(205,0,0)"/><text xml:space="preserve" x="171.4" y="390.433" font-family="Calibri" font-size="7.5" fill="rgb(255,255,255)" text-anchor="middle">3</text>
<polygon points="185.4,383.6 193.4,383.6 193.4,391.6 185.4,391.6" fill="rgb(20,107,139)"/>
<polygon points="193.4,383.6 201.4,383.6 201.4,391.6 193.4,391.6" fill="rgb(17,94,138)"/>
<polygon points="201.4,383.6 209.4,383.6 209.4,391.6 201.4,391.6" fill="rgb(7,57,136)"/>
<polygon points="209.4,383.6 217.4,383.6 217.4,391.6 209.4,391.6" fill="rgb(9,64,137)"/>
<polygon points="217.4,383.6 225.4,383.6 225.4,391.6 217.4,391.6" fill="rgb(46,210,145)"/>
<polygon points="225.4,383.6 233.4,383.6 233.4,391.6 225.4,391.6" fill="rgb(42,194,144)"/>
<polygon points="243.4,383.6 251.4,383.6 251.4,391.6 243.4,391.6" fill="rgb(255,255,255)"/>
<polygon points="251.4,383.6 259.4,383.6 259.4,391.6 251.4,391.6" fill="rgb(255,255,255)"/>
<polygon points="259.4,383.6 267.4,383.6 267.4,391.6 259.4,391.6" fill="rgb(255,255,255)"/>
<polygon points="267.4,383.6 275.4,383.6 275.4,391.6 267.4,391.6" fill="rgb(255,255,255)"/>
<polygon points="275.4,383.6 283.4,383.6 283.4,391.6 275.4,391.6" fill="rgb(255,255,255)"/>
<polygon points="283.4,383.6 291.4,383.6 291.4,391.6 283.4,391.6" fill="rgb(255,255,255)"/>
<polygon points="291.4,383.6 299.4,383.6 299.4,391.6 291.4,391.6" fill="rgb(255,255,255)"/>
<polygon points="299.4,383.6 307.4,383.6 307.4,391.6 299.4,391.6" fill="rgb(255,255,255)"/>
<polygon points="127.4,335.6 175.4,335.6 175.4,391.6 127.4,391.6" fill="none" stroke="black" stroke-width="1"/>
<polygon points="185.4,335.6 233.4,335.6 233.4,391.6 185.4,391.6" fill="none" stroke="black" stroke-width="1"/>
<polygon points="243.4,335.6 307.4,335.6 307.4,391.6 243.4,391.6" fill="none" stroke="black" stroke-width="1"/>
<text xml:space="preserve" x="163.7" y="424.6" font-family="Calibri" font-size="8" text-anchor="middle">ClusterAssignment</text>
<polygon points="133.7,431.6 153.7,431.6 153.7,451.6 133.7,451.6" fill="rgb(0,205,0)"/><polygon points="133.7,431.6 153.7,431.6 153.7,451.6 133.7,451.6" fill="none" stroke="black" stroke-width="1"/><text xml:space="preserve" x="143.7" y="444.433" font-family="Calibri" font-size="7.5" fill="rgb(255,255,255)" text-anchor="middle">1.0</text>
<polygon points="153.7,431.6 173.7,431.6 173.7,451.6 153.7,451.6" fill="rgb(255,255,0)"/><polygon points="153.7,431.6 173.7,431.6 173.7,451.6 153.7,451.6" fill="none" stroke="black" stroke-width="1"/><text xml:space="preserve" x="163.7" y="444.433" font-family="Calibri" font-size="7.5" fill="rgb(0,0,0)" text-anchor="middle">2.0</text>
<polygon points="173.7,431.6 193.7,431.6 193.7,451.6 173.7,451.6" fill="rgb(205,0,0)"/><polygon points="173.7,431.6 193.7,431.6 193.7,451.6 173.7,451.6" fill="none" stroke="black" stroke-width="1"/><text xml:space="preserve" x="183.7" y="444.433" font-family="Calibri" font-size="7.5" fill="rgb(255,255,255)" text-anchor="middle">3.0</text>
<text xml:space="preserve" x="163.7" y="484.6" font-family="Calibri" font-size="8" text-anchor="middle">Expression</text>
<polygon points="133.7,491.6 153.7,491.6 153.7,511.6 133.7,511.6" fill="rgb(0,27,135)"/><polygon points="133.7,491.6 153.7,491.6 153.7,511.6 133.7,511.6" fill="none" stroke="black" stroke-width="1"/><text xml:space="preserve" x="143.7" y="504.433" font-family="Calibri" font-size="7.5" fill="rgb(255,255,255)" text-anchor="middle">0.0</text>
<polygon points="153.7,491.6 173.7,491.6 173.7,511.6 153.7,511.6" fill="rgb(49,219,146)"/><polygon points="153.7,491.6 173.7,491.6 173.7,511.6 153.7,511.6" fill="none" stroke="black" stroke-width="1"/><text xml:space="preserve" x="163.7" y="504.433" font-family="Calibri" font-size="7.5" fill="rgb(0,0,0)" text-anchor="middle">1.5</text>
<polygon points="173.7,491.6 193.7,491.6 193.7,511.6 173.7,511.6" fill="rgb(252,194,1)"/><polygon points="173.7,491.6 193.7,491.6 193.7,511.6 173.7,511.6" fill="none" stroke="black" stroke-width="1"/><text xml:space="preserve" x="183.7" y="504.433" font-family="Calibri" font-size="7.5" fill="rgb(0,0,0)" text-anchor="middle">3.0</text>
<text xml:space="preserve" x="163.7" y="544.6" font-family="Calibri" font-size="8" text-anchor="middle">PANTHERclass</text>
<polygon points="133.7,551.6 153.7,551.6 153.7,571.6 133.7,571.6" fill="rgb(255,255,255)"/><polygon points="133.7,551.6 153.7,551.6 153.7,571.6 133.7,571.6" fill="none" stroke="black" stroke-width="1"/><text xml:space="preserve" x="143.7" y="564.433" font-family="Calibri" font-size="7.5" fill="rgb(0,0,0)" text-anchor="middle">0.0</text>
<polygon points="153.7,551.6 173.7,551.6 173.7,571.6 153.7,571.6" fill="rgb(230,127,230)"/><polygon points="153.7,551.6 173.7,551.6 173.7,571.6 153.7,571.6" fill="none" stroke="black" stroke-width="1"/><text xml:space="preserve" x="163.7" y="564.433" font-family="Calibri" font-size="7.5" fill="rgb(0,0,0)" text-anchor="middle">0.5</text>
<polygon points="173.7,551.6 193.7,551.6 193.7,571.6 173.7,571.6" fill="rgb(205,0,205)"/><polygon points="173.7,551.6 193.7,551.6 193.7,571.6 173.7,571.6" fill="none" stroke="black" stroke-width="1"/><text xml:space="preserve" x="183.7" y="564.433" font-family="Calibri" font-size="7.5" fill="rgb(255,255,255)" text-anchor="middle">1.0</text>
</svg>
