<?xml version="1.0" standalone="no"?><!DOCTYPE svg PUBLIC "-//W3C//DTD SVG 1.1//EN" "http://www.w3.org/Graphics/SVG/1.1/DTD/svg11.dtd">
<svg width="328.6" height="559.6" version="1.1" xmlns="http://www.w3.org/2000/svg">
<text xml:space="preserve" x="124.6" y="342.6" font-family="Calibri" font-size="8" text-anchor="end">AC010478.1</text>
<text xml:space="preserve" x="124.6" y="350.6" font-family="Calibri" font-size="8" text-anchor="end">DPH6-DT</text>
<text xml:space="preserve" x="124.6" y="358.6" font-family="Calibri" font-size="8" text-anchor="end">AC093010.2</text>
<text xml:space="preserve" x="135.6" y="331.6" font-family="Calibri" font-size="8" transform="rotate(270 135.6 331.6)">c4</text>
<text xml:space="preserve" x="143.6" y="331.6" font-family="Calibri" font-size="8" transform="rotate(270 143.6 331.6)">c3</text>
<text xml:space="preserve" x="151.6" y="331.6" font-family="Calibri" font-size="8" transform="rotate(270 151.6 331.6)">c5</text>
<text xml:space="preserve" x="159.6" y="331.6" font-family="Calibri" font-size="8" transform="rotate(270 159.6 331.6)">c2</text>
<text xml:space="preserve" x="167.6" y="331.6" font-family="Calibri" font-size="8" transform="rotate(270 167.6 331.6)">c1</text>
<text xml:space="preserve" x="175.6" y="331.6" font-family="Calibri" font-size="8" transform="rotate(270 175.6 331.6)">c6</text>
<text xml:space="preserve" x="193.6" y="331.6" font-family="Calibri" font-size="8" transform="rotate(270 193.6 331.6)">c4_mean</text>
<text xml:space="preserve" x="201.6" y="331.6" font-family="Calibri" font-size="8" transform="rotate(270 201.6 331.6)">c3_mean</text>
<text xml:space="preserve" x="209.6" y="331.6" font-family="Calibri" font-size="8" transform="rotate(270 209.6 331.6)">c5_mean</text>
<text xml:space="preserve" x="217.6" y="331.6" font-family="Calibri" font-size="8" transform="rotate(270 217.6 331.6)">c2_mean</text>
<text xml:space="preserve" x="225.6" y="331.6" font-family="Calibri" font-size="8" transform="rotate(270 225.6 331.6)">c1_mean</text>
<text xml:space="preserve" x="233.6" y="331.6" font-family="Calibri" font-size="8" transform="rotate(270 233.6 331.6)">c6_mean</text>
<text xml:space="preserve" x="251.6" y="331.6" font-family="Calibri" font-size="8" transform="rotate(270 251.6 331.6)">transcription_factor</text>
<text xml:space="preserve" x="259.6" y="331.6" font-family="Calibri" font-size="8" transform="rotate(270 259.6 331.6)">transmembrane_signal_receptor</text>
<text xml:space="preserve" x="267.6" y="331.6" font-family="Calibri" font-size="8" transform="rotate(270 267.6 331.6)">growth_factor</text>
<text xml:space="preserve" x="275.6" y="331.6" font-family="Calibri" font-size="8" transform="rotate(270 275.6 331.6)">peptide_hormone</text>
<text xml:space="preserve" x="283.6" y="331.6" font-family="Calibri" font-size="8" transform="rotate(270 283.6 331.6)">cytoskeletal_protein</text>
<text xml:space="preserve" x="291.6" y="331.6" font-family="Calibri" font-size="8" transform="rotate(270 291.6 331.6)">ion_channel</text>
<text xml:space="preserve" x="299.6" y="331.6" font-family="Calibri" font-size="8" transform="rotate(270 299.6 331.6)">integrin</text>
<text xml:space="preserve" x="307.6" y="331.6" font-family="Calibri" font-size="8" transform="rotate(270 307.6 331.6)">extracellular_matrix_protein</text>
<polygon points="128.6,335.6 136.6,335.6 136.6,343.6 128.6,343.6" fill="rgb(0,205,0)"/><text xml:space="preserve" x="132.6" y="342.433" font-family="Calibri" font-size="7.5" fill="rgb(255,255,255)" text-anchor="middle">1</text>
<polygon points="136.6,335.6 144.6,335.6 144.6,343.6 136.6,343.6" fill="rgb(255,255,0)"/><text xml:space="preserve" x="140.6" y="342.433" font-family="Calibri" font-size="7.5" fill="rgb(0,0,0)" text-anchor="middle">2</text>
<polygon points="144.6,335.6 152.6,335.6 152.6,343.6 144.6,343.6" fill="rgb(0,205,0)"/><text xml:space="preserve" x="148.6" y="342.433" font-family="Calibri" font-size="7.5" fill="rgb(255,255,255)" text-anchor="middle">1</text>
<polygon points="152.6,335.6 160.6,335.6 160.6,343.6 152.6,343.6" fill="rgb(0,205,0)"/><text xml:space="preserve" x="156.6" y="342.433" font-family="Calibri" font-size="7.5" fill="rgb(255,255,255)" text-anchor="middle">1</text>
<polygon points="160.6,335.6 168.6,335.6 168.6,343.6 160.6,343.6" fill="rgb(0,205,0)"/><text xml:space="preserve" x="164.6" y="342.433" font-family="Calibri" font-size="7.5" fill="rgb(255,255,255)" text-anchor="middle">1</text>
<polygon points="168.6,335.6 176.6,335.6 176.6,343.6 168.6,343.6" fill="rgb(205,0,0)"/><text xml:space="preserve" x="172.6" y="342.433" font-family="Calibri" font-size="7.5" fill="rgb(255,255,255)" text-anchor="middle">3</text>
<polygon points="186.6,335.6 194.6,335.6 194.6,343.6 186.6,343.6" fill="rgb(1,33,135)"/>
<polygon points="194.6,335.6 202.6,335.6 202.6,343.6 194.6,343.6" fill="rgb(18,101,139)"/>
<polygon points="202.6,335.6 210.6,335.6 210.6,343.6 202.6,343.6" fill="rgb(13,80,138)"/>
<polygon points="210.6,335.6 218.6,335.6 218.6,343.6 210.6,343.6" fill="rgb(0,29,135)"/>
<polygon points="218.6,335.6 226.6,335.6 226.6,343.6 218.6,343.6" fill="rgb(3,41,135)"/>
<polygon points="226.6,335.6 234.6,335.6 234.6,343.6 226.6,343.6" fill="rgb(41,189,144)"/>
<polygon points="244.6,335.6 252.6,335.6 252.6,343.6 244.6,343.6" fill="rgb(255,255,255)"/>
<polygon points="252.6,335.6 260.6,335.6 260.6,343.6 252.6,343.6" fill="rgb(255,255,255)"/>
<polygon points="260.6,335.6 268.6,335.6 268.6,343.6 260.6,343.6" fill="rgb(255,255,255)"/>
<polygon points="268.6,335.6 276.6,335.6 276.6,343.6 268.6,343.6" fill="rgb(255,255,255)"/>
<polygon points="276.6,335.6 284.6,335.6 284.6,343.6 276.6,343.6" fill="rgb(255,255,255)"/>
<polygon points="284.6,335.6 292.6,335.6 292.6,343.6 284.6,343.6" fill="rgb(255,255,255)"/>
<polygon points="292.6,335.6 300.6,335.6 300.6,343.6 292.6,343.6" fill="rgb(255,255,255)"/>
<polygon points="300.6,335.6 308.6,335.6 308.6,343.6 300.6,343.6" fill="rgb(255,255,255)"/>
<polygon points="128.6,343.6 136.6,343.6 136.6,351.6 128.6,351.6" fill="rgb(0,205,0)"/><text xml:space="preserve" x="132.6" y="350.433" font-family="Calibri" font-size="7.5" fill="rgb(255,255,255)" text-anchor="middle">1</text>
<polygon points="136.6,343.6 144.6,343.6 144.6,351.6 136.6,351.6" fill="rgb(255,255,0)"/><text xml:space="preserve" x="140.6" y="350.433" font-family="Calibri" font-size="7.5" fill="rgb(0,0,0)" text-anchor="middle">2</text>
<polygon points="144.6,343.6 152.6,343.6 152.6,351.6 144.6,351.6" fill="rgb(0,205,0)"/><text xml:space="preserve" x="148.6" y="350.433" font-family="Calibri" font-size="7.5" fill="rgb(255,255,255)" text-anchor="middle">1</text>
<polygon points="152.6,343.6 160.6,343.6 160.6,351.6 152.6,351.6" fill="rgb(0,205,0)"/><text xml:space="preserve" x="156.6" y="350.433" font-family="Calibri" font-size="7.5" fill="rgb(255,255,255)" text-anchor="middle">1</text>
<polygon points="160.6,343.6 168.6,343.6 168.6,351.6 160.6,351.6" fill="rgb(0,205,0)"/><text xml:space="preserve" x="164.6" y="350.433" font-family="Calibri" font-size="7.5" fill="rgb(255,255,255)" text-anchor="middle">1</text>
<polygon points="168.6,343.6 176.6,343.6 176.6,351.6 168.6,351.6" fill="rgb(205,0,0)"/><text xml:space="preserve" x="172.6" y="350.433" font-family="Calibri" font-size="7.5" fill="rgb(255,255,255)" text-anchor="middle">3</text>
<polygon points="186.6,343.6 194.6,343.6 194.6,351.6 186.6,351.6" fill="rgb(1,34,135)"/>
<polygon points="194.6,343.6 202.6,343.6 202.6,351.6 194.6,351.6" fill="rgb(20,107,139)"/>
<polygon points="202.6,343.6 210.6,343.6 210.6,351.6 202.6,351.6" fill="rgb(8,60,136)"/>
<polygon points="210.6,343.6 218.6,343.6 218.6,351.6 210.6,351.6" fill="rgb(0,30,135)"/>
<polygon points="218.6,343.6 226.6,343.6 226.6,351.6 218.6,351.6" fill="rgb(2,35,135)"/>
<polygon points="226.6,343.6 234.6,343.6 234.6,351.6 226.6,351.6" fill="rgb(20,106,139)"/>
<polygon points="244.6,343.6 252.6,343.6 252.6,351.6 244.6,351.6" fill="rgb(255,255,255)"/>
<polygon points="252.6,343.6 260.6,343.6 260.6,351.6 252.6,351.6" fill="rgb(255,255,255)"/>
<polygon points="260.6,343.6 268.6,343.6 268.6,351.6 260.6,351.6" fill="rgb(255,255,255)"/>
<polygon points="268.6,343.6 276.6,343.6 276.6,351.6 268.6,351.6" fill="rgb(255,255,255)"/>
<polygon points="276.6,343.6 284.6,343.6 284.6,351.6 276.6,351.6" fill="rgb(255,255,255)"/>
<polygon points="284.6,343.6 292.6,343.6 292.6,351.6 284.6,351.6" fill="rgb(255,255,255)"/>
<polygon points="292.6,343.6 300.6,343.6 300.6,351.6 292.6,351.6" fill="rgb(255,255,255)"/>
<polygon points="300.6,343.6 308.6,343.6 308.6,351.6 300.6,351.6" fill="rgb(255,255,255)"/>
<polygon points="128.6,351.6 136.6,351.6 136.6,359.6 128.6,359.6" fill="rgb(0,205,0)"/><text xml:space="preserve" x="132.6" y="358.433" font-family="Calibri" font-size="7.5" fill="rgb(255,255,255)" text-anchor="middle">1</text>
<polygon points="136.6,351.6 144.6,351.6 144.6,359.6 136.6,359.6" fill="rgb(255,255,0)"/><text xml:space="preserve" x="140.6" y="358.433" font-family="Calibri" font-size="7.5" fill="rgb(0,0,0)" text-anchor="middle">2</text>
<polygon points="144.6,351.6 152.6,351.6 152.6,359.6 144.6,359.6" fill="rgb(0,205,0)"/><text xml:space="preserve" x="148.6" y="358.433" font-family="Calibri" font-size="7.5" fill="rgb(255,255,255)" text-anchor="middle">1</text>
<polygon points="152.6,351.6 160.6,351.6 160.6,359.6 152.6,359.6" fill="rgb(0,205,0)"/><text xml:space="preserve" x="156.6" y="358.433" font-family="Calibri" font-size="7.5" fill="rgb(255,255,255)" text-anchor="middle">1</text>
<polygon points="160.6,351.6 168.6,351.6 168.6,359.6 160.6,359.6" fill="rgb(0,205,0)"/><text xml:space="preserve" x="164.6" y="358.433" font-family="Calibri" font-size="7.5" fill="rgb(255,255,255)" text-anchor="middle">1</text>
<polygon points="168.6,351.6 176.6,351.6 176.6,359.6 168.6,359.6" fill="rgb(205,0,0)"/><text xml:space="preserve" x="172.6" y="358.433" font-family="Calibri" font-size="7.5" fill="rgb(255,255,255)" text-anchor="middle">3</text>
<polygon points="186.6,351.6 194.6,351.6 194.6,359.6 186.6,359.6" fill="rgb(1,33,135)"/>
<polygon points="194.6,351.6 202.6,351.6 202.6,359.6 194.6,359.6" fill="rgb(25,128,140)"/>
<polygon points="202.6,351.6 210.6,351.6 210.6,359.6 202.6,359.6" fill="rgb(11,71,137)"/>
<polygon points="210.6,351.6 218.6,351.6 218.6,359.6 210.6,359.6" fill="rgb(1,33,135)"/>
<polygon points="218.6,351.6 226.6,351.6 226.6,359.6 218.6,359.6" fill="rgb(2,38,135)"/>
<polygon points="226.6,351.6 234.6,351.6 234.6,359.6 226.6,359.6" fill="rgb(32,152,142)"/>
<polygon points="244.6,351.6 252.6,351.6 252.6,359.6 244.6,359.6" fill="rgb(255,255,255)"/>
<polygon points="252.6,351.6 260.6,351.6 260.6,359.6 252.6,359.6" fill="rgb(255,255,255)"/>
<polygon points="260.6,351.6 268.6,351.6 268.6,359.6 260.6,359.6" fill="rgb(255,255,255)"/>
<polygon points="268.6,351.6 276.6,351.6 276.6,359.6 268.6,359.6" fill="rgb(255,255,255)"/>
<polygon points="276.6,351.6 284.6,351.6 284.6,359.6 276.6,359.6" fill="rgb(255,255,255)"/>
<polygon points="284.6,351.6 292.6,351.6 292.6,359.6 284.6,359.6" fill="rgb(255,255,255)"/>
<polygon points="292.6,351.6 300.6,351.6 300.6,359.6 292.6,359.6" fill="rgb(255,255,255)"/>
<polygon points="300.6,351.6 308.6,351.6 308.6,359.6 300.6,359.6" fill="rgb(255,255,255)"/>
<polygon points="128.6,335.6 176.6,335.6 176.6,359.6 128.6,359.6" fill="none" stroke="black" stroke-width="1"/>
<polygon points="186.6,335.6 234.6,335.6 234.6,359.6 186.6,359.6" fill="none" stroke="black" stroke-width="1"/>
<polygon points="244.6,335.6 308.6,335.6 308.6,359.6 244.6,359.6" fill="none" stroke="black" stroke-width="1"/>
<text xml:space="preserve" x="164.3" y="392.6" font-family="Calibri" font-size="8" text-anchor="middle">ClusterAssignment</text>
<polygon points="134.3,399.6 154.3,399.6 154.3,419.6 134.3,419.6" fill="rgb(0,205,0)"/><polygon points="134.3,399.6 154.3,399.6 154.3,419.6 134.3,419.6" fill="none" stroke="black" stroke-width="1"/><text xml:space="preserve" x="144.3" y="412.433" font-family="Calibri" font-size="7.5" fill="rgb(255,255,255)" text-anchor="middle">1.0</text>
<polygon points="154.3,399.6 174.3,399.6 174.3,419.6 154.3,419.6" fill="rgb(255,255,0)"/><polygon points="154.3,399.6 174.3,399.6 174.3,419.6 154.3,419.6" fill="none" stroke="black" stroke-width="1"/><text xml:space="preserve" x="164.3" y="412.433" font-family="Calibri" font-size="7.5" fill="rgb(0,0,0)" text-anchor="middle">2.0</text>
<polygon points="174.3,399.6 194.3,399.6 194.3,419.6 174.3,419.6" fill="rgb(205,0,0)"/><polygon points="174.3,399.6 194.3,399.6 194.3,419.6 174.3,419.6" fill="none" stroke="black" stroke-width="1"/><text xml:space="preserve" x="184.3" y="412.433" font-family="Calibri" font-size="7.5" fill="rgb(255,255,255)" text-anchor="middle">3.0</text>
<text xml:space="preserve" x="164.3" y="452.6" font-family="Calibri" font-size="8" text-anchor="middle">Expression</text>
<polygon points="134.3,459.6 154.3,459.6 154.3,479.6 134.3,479.6" fill="rgb(0,27,135)"/><polygon points="134.3,459.6 154.3,459.6 154.3,479.6 134.3,479.6" fill="none" stroke="black" stroke-width="1"/><text xml:space="preserve" x="144.3" y="472.433" font-family="Calibri" font-size="7.5" fill="rgb(255,255,255)" text-anchor="middle">0.0</text>
<polygon points="154.3,459.6 174.3,459.6 174.3,479.6 154.3,479.6" fill="rgb(49,219,146)"/><polygon points="154.3,459.6 174.3,459.6 174.3,479.6 154.3,479.6" fill="none" stroke="black" stroke-width="1"/><text xml:space="preserve" x="164.3" y="472.433" font-family="Calibri" font-size="7.5" fill="rgb(0,0,0)" text-anchor="middle">1.5</text>
<polygon points="174.3,459.6 194.3,459.6 194.3,479.6 174.3,479.6" fill="rgb(252,194,1)"/><polygon points="174.3,459.6 194.3,459.6 194.3,479.6 174.3,479.6" fill="none" stroke="black" stroke-width="1"/><text xml:space="preserve" x="184.3" y="472.433" font-family="Calibri" font-size="7.5" fill="rgb(0,0,0)" text-anchor="middle">3.0</text>
<text xml:space="preserve" x="164.3" y="512.6" font-family="Calibri" font-size="8" text-anchor="middle">PANTHERclass</text>
<polygon points="134.3,519.6 154.3,519.6 154.3,539.6 134.3,539.6" fill="rgb(255,255,255)"/><polygon points="134.3,519.6 154.3,519.6 154.3,539.6 134.3,539.6" fill="none" stroke="black" stroke-width="1"/><text xml:space="preserve" x="144.3" y="532.433" font-family="Calibri" font-size="7.5" fill="rgb(0,0,0)" text-anchor="middle">0.0</text>
<polygon points="154.3,519.6 174.3,519.6 174.3,539.6 154.3,539.6" fill="rgb(230,127,230)"/><polygon points="154.3,519.6 174.3,519.6 174.3,539.6 154.3,539.6" fill="none" stroke="black" stroke-width="1"/><text xml:space="preserve" x="164.3" y="532.433" font-family="Calibri" font-size="7.5" fill="rgb(0,0,0)" text-anchor="middle">0.5</text>
<polygon points="174.3,519.6 194.3,519.6 194.3,539.6 174.3,539.6" fill="rgb(205,0,205)"/><polygon points="174.3,519.6 194.3,519.6 194.3,539.6 174.3,539.6" fill="none" stroke="black" stroke-width="1"/><text xml:space="preserve" x="184.3" y="532.433" font-family="Calibri" font-size="7.5" fill="rgb(255,255,255)" text-anchor="middle">1.0</text>
</svg>
