<?xml version="1.0" standalone="no"?><!DOCTYPE svg PUBLIC "-//W3C//DTD SVG 1.1//EN" "http://www.w3.org/Graphics/SVG/1.1/DTD/svg11.dtd">
<svg width="283.3" height="567.6" version="1.1" xmlns="http://www.w3.org/2000/svg">
<text xml:space="preserve" x="79.3" y="342.6" font-family="Calibri" font-size="8" text-anchor="end">ANXA2</text>
<text xml:space="preserve" x="79.3" y="350.6" font-family="Calibri" font-size="8" text-anchor="end">YBX3</text>
<text xml:space="preserve" x="79.3" y="358.6" font-family="Calibri" font-size="8" text-anchor="end">TP53I3</text>
<text xml:space="preserve" x="79.3" y="366.6" font-family="Calibri" font-size="8" text-anchor="end">APOE</text>
<text xml:space="preserve" x="90.3" y="331.6" font-family="Calibri" font-size="8" transform="rotate(270 90.3 331.6)">c4</text>
<text xml:space="preserve" x="98.3" y="331.6" font-family="Calibri" font-size="8" transform="rotate(270 98.3 331.6)">c3</text>
<text xml:space="preserve" x="106.3" y="331.6" font-family="Calibri" font-size="8" transform="rotate(270 106.3 331.6)">c5</text>
<text xml:space="preserve" x="114.3" y="331.6" font-family="Calibri" font-size="8" transform="rotate(270 114.3 331.6)">c2</text>
<text xml:space="preserve" x="122.3" y="331.6" font-family="Calibri" font-size="8" transform="rotate(270 122.3 331.6)">c1</text>
<text xml:space="preserve" x="130.3" y="331.6" font-family="Calibri" font-size="8" transform="rotate(270 130.3 331.6)">c6</text>
<text xml:space="preserve" x="148.3" y="331.6" font-family="Calibri" font-size="8" transform="rotate(270 148.3 331.6)">c4_mean</text>
<text xml:space="preserve" x="156.3" y="331.6" font-family="Calibri" font-size="8" transform="rotate(270 156.3 331.6)">c3_mean</text>
<text xml:space="preserve" x="164.3" y="331.6" font-family="Calibri" font-size="8" transform="rotate(270 164.3 331.6)">c5_mean</text>
<text xml:space="preserve" x="172.3" y="331.6" font-family="Calibri" font-size="8" transform="rotate(270 172.3 331.6)">c2_mean</text>
<text xml:space="preserve" x="180.3" y="331.6" font-family="Calibri" font-size="8" transform="rotate(270 180.3 331.6)">c1_mean</text>
<text xml:space="preserve" x="188.3" y="331.6" font-family="Calibri" font-size="8" transform="rotate(270 188.3 331.6)">c6_mean</text>
<text xml:space="preserve" x="206.3" y="331.6" font-family="Calibri" font-size="8" transform="rotate(270 206.3 331.6)">transcription_factor</text>
<text xml:space="preserve" x="214.3" y="331.6" font-family="Calibri" font-size="8" transform="rotate(270 214.3 331.6)">transmembrane_signal_receptor</text>
<text xml:space="preserve" x="222.3" y="331.6" font-family="Calibri" font-size="8" transform="rotate(270 222.3 331.6)">growth_factor</text>
<text xml:space="preserve" x="230.3" y="331.6" font-family="Calibri" font-size="8" transform="rotate(270 230.3 331.6)">peptide_hormone</text>
<text xml:space="preserve" x="238.3" y="331.6" font-family="Calibri" font-size="8" transform="rotate(270 238.3 331.6)">cytoskeletal_protein</text>
<text xml:space="preserve" x="246.3" y="331.6" font-family="Calibri" font-size="8" transform="rotate(270 246.3 331.6)">ion_channel</text>
<text xml:space="preserve" x="254.3" y="331.6" font-family="Calibri" font-size="8" transform="rotate(270 254.3 331.6)">integrin</text>
<text xml:space="preserve" x="262.3" y="331.6" font-family="Calibri" font-size="8" transform="rotate(270 262.3 331.6)">extracellular_matrix_protein</text>
<polygon points="83.3,335.6 91.3,335.6 91.3,343.6 83.3,343.6" fill="rgb(205,0,0)"/><text xml:space="preserve" x="87.3" y="342.433" font-family="Calibri" font-size="7.5" fill="rgb(255,255,255)" text-anchor="middle">3</text>
<polygon points="91.3,335.6 99.3,335.6 99.3,343.6 91.3,343.6" fill="rgb(205,0,0)"/><text xml:space="preserve" x="95.3" y="342.433" font-family="Calibri" font-size="7.5" fill="rgb(255,255,255)" text-anchor="middle">3</text>
<polygon points="99.3,335.6 107.3,335.6 107.3,343.6 99.3,343.6" fill="rgb(255,255,0)"/><text xml:space="preserve" x="103.3" y="342.433" font-family="Calibri" font-size="7.5" fill="rgb(0,0,0)" text-anchor="middle">2</text>
<polygon points="107.3,335.6 115.3,335.6 115.3,343.6 107.3,343.6" fill="rgb(255,255,0)"/><text xml:space="preserve" x="111.3" y="342.433" font-family="Calibri" font-size="7.5" fill="rgb(0,0,0)" text-anchor="middle">2</text>
<polygon points="115.3,335.6 123.3,335.6 123.3,343.6 115.3,343.6" fill="rgb(255,255,0)"/><text xml:space="preserve" x="119.3" y="342.433" font-family="Calibri" font-size="7.5" fill="rgb(0,0,0)" text-anchor="middle">2</text>
<polygon points="123.3,335.6 131.3,335.6 131.3,343.6 123.3,343.6" fill="rgb(255,255,0)"/><text xml:space="preserve" x="127.3" y="342.433" font-family="Calibri" font-size="7.5" fill="rgb(0,0,0)" text-anchor="middle">2</text>
<polygon points="141.3,335.6 149.3,335.6 149.3,343.6 141.3,343.6" fill="rgb(252,194,1)"/>
<polygon points="149.3,335.6 157.3,335.6 157.3,343.6 149.3,343.6" fill="rgb(45,206,145)"/>
<polygon points="157.3,335.6 165.3,335.6 165.3,343.6 157.3,343.6" fill="rgb(16,93,138)"/>
<polygon points="165.3,335.6 173.3,335.6 173.3,343.6 165.3,343.6" fill="rgb(1,34,135)"/>
<polygon points="173.3,335.6 181.3,335.6 181.3,343.6 173.3,343.6" fill="rgb(21,112,139)"/>
<polygon points="181.3,335.6 189.3,335.6 189.3,343.6 181.3,343.6" fill="rgb(11,73,137)"/>
<polygon points="199.3,335.6 207.3,335.6 207.3,343.6 199.3,343.6" fill="rgb(255,255,255)"/>
<polygon points="207.3,335.6 215.3,335.6 215.3,343.6 207.3,343.6" fill="rgb(255,255,255)"/>
<polygon points="215.3,335.6 223.3,335.6 223.3,343.6 215.3,343.6" fill="rgb(255,255,255)"/>
<polygon points="223.3,335.6 231.3,335.6 231.3,343.6 223.3,343.6" fill="rgb(255,255,255)"/>
<polygon points="231.3,335.6 239.3,335.6 239.3,343.6 231.3,343.6" fill="rgb(255,255,255)"/>
<polygon points="239.3,335.6 247.3,335.6 247.3,343.6 239.3,343.6" fill="rgb(255,255,255)"/>
<polygon points="247.3,335.6 255.3,335.6 255.3,343.6 247.3,343.6" fill="rgb(255,255,255)"/>
<polygon points="255.3,335.6 263.3,335.6 263.3,343.6 255.3,343.6" fill="rgb(255,255,255)"/>
<polygon points="83.3,343.6 91.3,343.6 91.3,351.6 83.3,351.6" fill="rgb(205,0,0)"/><text xml:space="preserve" x="87.3" y="350.433" font-family="Calibri" font-size="7.5" fill="rgb(255,255,255)" text-anchor="middle">3</text>
<polygon points="91.3,343.6 99.3,343.6 99.3,351.6 91.3,351.6" fill="rgb(205,0,0)"/><text xml:space="preserve" x="95.3" y="350.433" font-family="Calibri" font-size="7.5" fill="rgb(255,255,255)" text-anchor="middle">3</text>
<polygon points="99.3,343.6 107.3,343.6 107.3,351.6 99.3,351.6" fill="rgb(255,255,0)"/><text xml:space="preserve" x="103.3" y="350.433" font-family="Calibri" font-size="7.5" fill="rgb(0,0,0)" text-anchor="middle">2</text>
<polygon points="107.3,343.6 115.3,343.6 115.3,351.6 107.3,351.6" fill="rgb(255,255,0)"/><text xml:space="preserve" x="111.3" y="350.433" font-family="Calibri" font-size="7.5" fill="rgb(0,0,0)" text-anchor="middle">2</text>
<polygon points="115.3,343.6 123.3,343.6 123.3,351.6 115.3,351.6" fill="rgb(255,255,0)"/><text xml:space="preserve" x="119.3" y="350.433" font-family="Calibri" font-size="7.5" fill="rgb(0,0,0)" text-anchor="middle">2</text>
<polygon points="123.3,343.6 131.3,343.6 131.3,351.6 123.3,351.6" fill="rgb(255,255,0)"/><text xml:space="preserve" x="127.3" y="350.433" font-family="Calibri" font-size="7.5" fill="rgb(0,0,0)" text-anchor="middle">2</text>
<polygon points="141.3,343.6 149.3,343.6 149.3,351.6 141.3,351.6" fill="rgb(252,194,1)"/>
<polygon points="149.3,343.6 157.3,343.6 157.3,351.6 149.3,351.6" fill="rgb(224,197,20)"/>
<polygon points="157.3,343.6 165.3,343.6 165.3,351.6 157.3,351.6" fill="rgb(10,67,137)"/>
<polygon points="165.3,343.6 173.3,343.6 173.3,351.6 165.3,351.6" fill="rgb(4,43,135)"/>
<polygon points="173.3,343.6 181.3,343.6 181.3,351.6 173.3,351.6" fill="rgb(23,120,140)"/>
<polygon points="181.3,343.6 189.3,343.6 189.3,351.6 181.3,351.6" fill="rgb(20,108,139)"/>
<polygon points="199.3,343.6 207.3,343.6 207.3,351.6 199.3,351.6" fill="rgb(255,255,255)"/>
<polygon points="207.3,343.6 215.3,343.6 215.3,351.6 207.3,351.6" fill="rgb(255,255,255)"/>
<polygon points="215.3,343.6 223.3,343.6 223.3,351.6 215.3,351.6" fill="rgb(255,255,255)"/>
<polygon points="223.3,343.6 231.3,343.6 231.3,351.6 223.3,351.6" fill="rgb(255,255,255)"/>
<polygon points="231.3,343.6 239.3,343.6 239.3,351.6 231.3,351.6" fill="rgb(255,255,255)"/>
<polygon points="239.3,343.6 247.3,343.6 247.3,351.6 239.3,351.6" fill="rgb(255,255,255)"/>
<polygon points="247.3,343.6 255.3,343.6 255.3,351.6 247.3,351.6" fill="rgb(255,255,255)"/>
<polygon points="255.3,343.6 263.3,343.6 263.3,351.6 255.3,351.6" fill="rgb(255,255,255)"/>
<polygon points="83.3,351.6 91.3,351.6 91.3,359.6 83.3,359.6" fill="rgb(205,0,0)"/><text xml:space="preserve" x="87.3" y="358.433" font-family="Calibri" font-size="7.5" fill="rgb(255,255,255)" text-anchor="middle">3</text>
<polygon points="91.3,351.6 99.3,351.6 99.3,359.6 91.3,359.6" fill="rgb(205,0,0)"/><text xml:space="preserve" x="95.3" y="358.433" font-family="Calibri" font-size="7.5" fill="rgb(255,255,255)" text-anchor="middle">3</text>
<polygon points="99.3,351.6 107.3,351.6 107.3,359.6 99.3,359.6" fill="rgb(255,255,0)"/><text xml:space="preserve" x="103.3" y="358.433" font-family="Calibri" font-size="7.5" fill="rgb(0,0,0)" text-anchor="middle">2</text>
<polygon points="107.3,351.6 115.3,351.6 115.3,359.6 107.3,359.6" fill="rgb(255,255,0)"/><text xml:space="preserve" x="111.3" y="358.433" font-family="Calibri" font-size="7.5" fill="rgb(0,0,0)" text-anchor="middle">2</text>
<polygon points="115.3,351.6 123.3,351.6 123.3,359.6 115.3,359.6" fill="rgb(255,255,0)"/><text xml:space="preserve" x="119.3" y="358.433" font-family="Calibri" font-size="7.5" fill="rgb(0,0,0)" text-anchor="middle">2</text>
<polygon points="123.3,351.6 131.3,351.6 131.3,359.6 123.3,359.6" fill="rgb(255,255,0)"/><text xml:space="preserve" x="127.3" y="358.433" font-family="Calibri" font-size="7.5" fill="rgb(0,0,0)" text-anchor="middle">2</text>
<polygon points="141.3,351.6 149.3,351.6 149.3,359.6 141.3,359.6" fill="rgb(223,197,21)"/>
<polygon points="149.3,351.6 157.3,351.6 157.3,359.6 149.3,359.6" fill="rgb(208,199,31)"/>
<polygon points="157.3,351.6 165.3,351.6 165.3,359.6 157.3,359.6" fill="rgb(17,94,138)"/>
<polygon points="165.3,351.6 173.3,351.6 173.3,359.6 165.3,359.6" fill="rgb(1,34,135)"/>
<polygon points="173.3,351.6 181.3,351.6 181.3,359.6 173.3,359.6" fill="rgb(18,99,139)"/>
<polygon points="181.3,351.6 189.3,351.6 189.3,359.6 181.3,359.6" fill="rgb(16,93,138)"/>
<polygon points="199.3,351.6 207.3,351.6 207.3,359.6 199.3,359.6" fill="rgb(255,255,255)"/>
<polygon points="207.3,351.6 215.3,351.6 215.3,359.6 207.3,359.6" fill="rgb(255,255,255)"/>
<polygon points="215.3,351.6 223.3,351.6 223.3,359.6 215.3,359.6" fill="rgb(255,255,255)"/>
<polygon points="223.3,351.6 231.3,351.6 231.3,359.6 223.3,359.6" fill="rgb(255,255,255)"/>
<polygon points="231.3,351.6 239.3,351.6 239.3,359.6 231.3,359.6" fill="rgb(255,255,255)"/>
<polygon points="239.3,351.6 247.3,351.6 247.3,359.6 239.3,359.6" fill="rgb(255,255,255)"/>
<polygon points="247.3,351.6 255.3,351.6 255.3,359.6 247.3,359.6" fill="rgb(255,255,255)"/>
<polygon points="255.3,351.6 263.3,351.6 263.3,359.6 255.3,359.6" fill="rgb(255,255,255)"/>
<polygon points="83.3,359.6 91.3,359.6 91.3,367.6 83.3,367.6" fill="rgb(205,0,0)"/><text xml:space="preserve" x="87.3" y="366.433" font-family="Calibri" font-size="7.5" fill="rgb(255,255,255)" text-anchor="middle">3</text>
<polygon points="91.3,359.6 99.3,359.6 99.3,367.6 91.3,367.6" fill="rgb(205,0,0)"/><text xml:space="preserve" x="95.3" y="366.433" font-family="Calibri" font-size="7.5" fill="rgb(255,255,255)" text-anchor="middle">3</text>
<polygon points="99.3,359.6 107.3,359.6 107.3,367.6 99.3,367.6" fill="rgb(255,255,0)"/><text xml:space="preserve" x="103.3" y="366.433" font-family="Calibri" font-size="7.5" fill="rgb(0,0,0)" text-anchor="middle">2</text>
<polygon points="107.3,359.6 115.3,359.6 115.3,367.6 107.3,367.6" fill="rgb(255,255,0)"/><text xml:space="preserve" x="111.3" y="366.433" font-family="Calibri" font-size="7.5" fill="rgb(0,0,0)" text-anchor="middle">2</text>
<polygon points="115.3,359.6 123.3,359.6 123.3,367.6 115.3,367.6" fill="rgb(255,255,0)"/><text xml:space="preserve" x="119.3" y="366.433" font-family="Calibri" font-size="7.5" fill="rgb(0,0,0)" text-anchor="middle">2</text>
<polygon points="123.3,359.6 131.3,359.6 131.3,367.6 123.3,367.6" fill="rgb(255,255,0)"/><text xml:space="preserve" x="127.3" y="366.433" font-family="Calibri" font-size="7.5" fill="rgb(0,0,0)" text-anchor="middle">2</text>
<polygon points="141.3,359.6 149.3,359.6 149.3,367.6 141.3,367.6" fill="rgb(252,194,1)"/>
<polygon points="149.3,359.6 157.3,359.6 157.3,367.6 149.3,367.6" fill="rgb(36,171,143)"/>
<polygon points="157.3,359.6 165.3,359.6 165.3,367.6 157.3,367.6" fill="rgb(26,130,140)"/>
<polygon points="165.3,359.6 173.3,359.6 173.3,367.6 165.3,367.6" fill="rgb(5,47,136)"/>
<polygon points="173.3,359.6 181.3,359.6 181.3,367.6 173.3,367.6" fill="rgb(14,82,138)"/>
<polygon points="181.3,359.6 189.3,359.6 189.3,367.6 181.3,367.6" fill="rgb(22,114,139)"/>
<polygon points="199.3,359.6 207.3,359.6 207.3,367.6 199.3,367.6" fill="rgb(255,255,255)"/>
<polygon points="207.3,359.6 215.3,359.6 215.3,367.6 207.3,367.6" fill="rgb(255,255,255)"/>
<polygon points="215.3,359.6 223.3,359.6 223.3,367.6 215.3,367.6" fill="rgb(255,255,255)"/>
<polygon points="223.3,359.6 231.3,359.6 231.3,367.6 223.3,367.6" fill="rgb(255,255,255)"/>
<polygon points="231.3,359.6 239.3,359.6 239.3,367.6 231.3,367.6" fill="rgb(255,255,255)"/>
<polygon points="239.3,359.6 247.3,359.6 247.3,367.6 239.3,367.6" fill="rgb(255,255,255)"/>
<polygon points="247.3,359.6 255.3,359.6 255.3,367.6 247.3,367.6" fill="rgb(255,255,255)"/>
<polygon points="255.3,359.6 263.3,359.6 263.3,367.6 255.3,367.6" fill="rgb(255,255,255)"/>
<polygon points="83.3,335.6 131.3,335.6 131.3,367.6 83.3,367.6" fill="none" stroke="black" stroke-width="1"/>
<polygon points="141.3,335.6 189.3,335.6 189.3,367.6 141.3,367.6" fill="none" stroke="black" stroke-width="1"/>
<polygon points="199.3,335.6 263.3,335.6 263.3,367.6 199.3,367.6" fill="none" stroke="black" stroke-width="1"/>
<text xml:space="preserve" x="141.65" y="400.6" font-family="Calibri" font-size="8" text-anchor="middle">ClusterAssignment</text>
<polygon points="111.65,407.6 131.65,407.6 131.65,427.6 111.65,427.6" fill="rgb(0,205,0)"/><polygon points="111.65,407.6 131.65,407.6 131.65,427.6 111.65,427.6" fill="none" stroke="black" stroke-width="1"/><text xml:space="preserve" x="121.65" y="420.433" font-family="Calibri" font-size="7.5" fill="rgb(255,255,255)" text-anchor="middle">1.0</text>
<polygon points="131.65,407.6 151.65,407.6 151.65,427.6 131.65,427.6" fill="rgb(255,255,0)"/><polygon points="131.65,407.6 151.65,407.6 151.65,427.6 131.65,427.6" fill="none" stroke="black" stroke-width="1"/><text xml:space="preserve" x="141.65" y="420.433" font-family="Calibri" font-size="7.5" fill="rgb(0,0,0)" text-anchor="middle">2.0</text>
<polygon points="151.65,407.6 171.65,407.6 171.65,427.6 151.65,427.6" fill="rgb(205,0,0)"/><polygon points="151.65,407.6 171.65,407.6 171.65,427.6 151.65,427.6" fill="none" stroke="black" stroke-width="1"/><text xml:space="preserve" x="161.65" y="420.433" font-family="Calibri" font-size="7.5" fill="rgb(255,255,255)" text-anchor="middle">3.0</text>
<text xml:space="preserve" x="141.65" y="460.6" font-family="Calibri" font-size="8" text-anchor="middle">Expression</text>
<polygon points="111.65,467.6 131.65,467.6 131.65,487.6 111.65,487.6" fill="rgb(0,27,135)"/><polygon points="111.65,467.6 131.65,467.6 131.65,487.6 111.65,487.6" fill="none" stroke="black" stroke-width="1"/><text xml:space="preserve" x="121.65" y="480.433" font-family="Calibri" font-size="7.5" fill="rgb(255,255,255)" text-anchor="middle">0.0</text>
<polygon points="131.65,467.6 151.65,467.6 151.65,487.6 131.65,487.6" fill="rgb(49,219,146)"/><polygon points="131.65,467.6 151.65,467.6 151.65,487.6 131.65,487.6" fill="none" stroke="black" stroke-width="1"/><text xml:space="preserve" x="141.65" y="480.433" font-family="Calibri" font-size="7.5" fill="rgb(0,0,0)" text-anchor="middle">1.5</text>
<polygon points="151.65,467.6 171.65,467.6 171.65,487.6 151.65,487.6" fill="rgb(252,194,1)"/><polygon points="151.65,467.6 171.65,467.6 171.65,487.6 151.65,487.6" fill="none" stroke="black" stroke-width="1"/><text xml:space="preserve" x="161.65" y="480.433" font-family="Calibri" font-size="7.5" fill="rgb(0,0,0)" text-anchor="middle">3.0</text>
<text xml:space="preserve" x="141.65" y="520.6" font-family="Calibri" font-size="8" text-anchor="middle">PANTHERclass</text>
<polygon points="111.65,527.6 131.65,527.6 131.65,547.6 111.65,547.6" fill="rgb(255,255,255)"/><polygon points="111.65,527.6 131.65,527.6 131.65,547.6 111.65,547.6" fill="none" stroke="black" stroke-width="1"/><text xml:space="preserve" x="121.65" y="540.433" font-family="Calibri" font-size="7.5" fill="rgb(0,0,0)" text-anchor="middle">0.0</text>
<polygon points="131.65,527.6 151.65,527.6 151.65,547.6 131.65,547.6" fill="rgb(230,127,230)"/><polygon points="131.65,527.6 151.65,527.6 151.65,547.6 131.65,547.6" fill="none" stroke="black" stroke-width="1"/><text xml:space="preserve" x="141.65" y="540.433" font-family="Calibri" font-size="7.5" fill="rgb(0,0,0)" text-anchor="middle">0.5</text>
<polygon points="151.65,527.6 171.65,527.6 171.65,547.6 151.65,547.6" fill="rgb(205,0,205)"/><polygon points="151.65,527.6 171.65,527.6 171.65,547.6 151.65,547.6" fill="none" stroke="black" stroke-width="1"/><text xml:space="preserve" x="161.65" y="540.433" font-family="Calibri" font-size="7.5" fill="rgb(255,255,255)" text-anchor="middle">1.0</text>
</svg>
