<?xml version="1.0" standalone="no"?><!DOCTYPE svg PUBLIC "-//W3C//DTD SVG 1.1//EN" "http://www.w3.org/Graphics/SVG/1.1/DTD/svg11.dtd">
<svg width="327.4" height="647.6" version="1.1" xmlns="http://www.w3.org/2000/svg">
<text xml:space="preserve" x="123.4" y="342.6" font-family="Calibri" font-size="8" text-anchor="end">AC105389.3</text>
<text xml:space="preserve" x="123.4" y="350.6" font-family="Calibri" font-size="8" text-anchor="end">NTSR1</text>
<text xml:space="preserve" x="123.4" y="358.6" font-family="Calibri" font-size="8" text-anchor="end">SHOX</text>
<text xml:space="preserve" x="123.4" y="366.6" font-family="Calibri" font-size="8" text-anchor="end">PRLH</text>
<text xml:space="preserve" x="123.4" y="374.6" font-family="Calibri" font-size="8" text-anchor="end">AL133163.3</text>
<text xml:space="preserve" x="123.4" y="382.6" font-family="Calibri" font-size="8" text-anchor="end">ALKAL2</text>
<text xml:space="preserve" x="123.4" y="390.6" font-family="Calibri" font-size="8" text-anchor="end">ARHGAP18</text>
<text xml:space="preserve" x="123.4" y="398.6" font-family="Calibri" font-size="8" text-anchor="end">ARHGEF6</text>
<text xml:space="preserve" x="123.4" y="406.6" font-family="Calibri" font-size="8" text-anchor="end">FIBCD1</text>
<text xml:space="preserve" x="123.4" y="414.6" font-family="Calibri" font-size="8" text-anchor="end">INSM2</text>
<text xml:space="preserve" x="123.4" y="422.6" font-family="Calibri" font-size="8" text-anchor="end">WNT2</text>
<text xml:space="preserve" x="123.4" y="430.6" font-family="Calibri" font-size="8" text-anchor="end">SLC7A3</text>
<text xml:space="preserve" x="123.4" y="438.6" font-family="Calibri" font-size="8" text-anchor="end">STC1</text>
<text xml:space="preserve" x="123.4" y="446.6" font-family="Calibri" font-size="8" text-anchor="end">DBH</text>
<text xml:space="preserve" x="134.4" y="331.6" font-family="Calibri" font-size="8" transform="rotate(270 134.4 331.6)">c4</text>
<text xml:space="preserve" x="142.4" y="331.6" font-family="Calibri" font-size="8" transform="rotate(270 142.4 331.6)">c3</text>
<text xml:space="preserve" x="150.4" y="331.6" font-family="Calibri" font-size="8" transform="rotate(270 150.4 331.6)">c5</text>
<text xml:space="preserve" x="158.4" y="331.6" font-family="Calibri" font-size="8" transform="rotate(270 158.4 331.6)">c2</text>
<text xml:space="preserve" x="166.4" y="331.6" font-family="Calibri" font-size="8" transform="rotate(270 166.4 331.6)">c1</text>
<text xml:space="preserve" x="174.4" y="331.6" font-family="Calibri" font-size="8" transform="rotate(270 174.4 331.6)">c6</text>
<text xml:space="preserve" x="192.4" y="331.6" font-family="Calibri" font-size="8" transform="rotate(270 192.4 331.6)">c4_mean</text>
<text xml:space="preserve" x="200.4" y="331.6" font-family="Calibri" font-size="8" transform="rotate(270 200.4 331.6)">c3_mean</text>
<text xml:space="preserve" x="208.4" y="331.6" font-family="Calibri" font-size="8" transform="rotate(270 208.4 331.6)">c5_mean</text>
<text xml:space="preserve" x="216.4" y="331.6" font-family="Calibri" font-size="8" transform="rotate(270 216.4 331.6)">c2_mean</text>
<text xml:space="preserve" x="224.4" y="331.6" font-family="Calibri" font-size="8" transform="rotate(270 224.4 331.6)">c1_mean</text>
<text xml:space="preserve" x="232.4" y="331.6" font-family="Calibri" font-size="8" transform="rotate(270 232.4 331.6)">c6_mean</text>
<text xml:space="preserve" x="250.4" y="331.6" font-family="Calibri" font-size="8" transform="rotate(270 250.4 331.6)">transcription_factor</text>
<text xml:space="preserve" x="258.4" y="331.6" font-family="Calibri" font-size="8" transform="rotate(270 258.4 331.6)">transmembrane_signal_receptor</text>
<text xml:space="preserve" x="266.4" y="331.6" font-family="Calibri" font-size="8" transform="rotate(270 266.4 331.6)">growth_factor</text>
<text xml:space="preserve" x="274.4" y="331.6" font-family="Calibri" font-size="8" transform="rotate(270 274.4 331.6)">peptide_hormone</text>
<text xml:space="preserve" x="282.4" y="331.6" font-family="Calibri" font-size="8" transform="rotate(270 282.4 331.6)">cytoskeletal_protein</text>
<text xml:space="preserve" x="290.4" y="331.6" font-family="Calibri" font-size="8" transform="rotate(270 290.4 331.6)">ion_channel</text>
<text xml:space="preserve" x="298.4" y="331.6" font-family="Calibri" font-size="8" transform="rotate(270 298.4 331.6)">integrin</text>
<text xml:space="preserve" x="306.4" y="331.6" font-family="Calibri" font-size="8" transform="rotate(270 306.4 331.6)">extracellular_matrix_protein</text>
<polygon points="127.4,335.6 135.4,335.6 135.4,343.6 127.4,343.6" fill="rgb(0,205,0)"/><text xml:space="preserve" x="131.4" y="342.433" font-family="Calibri" font-size="7.5" fill="rgb(255,255,255)" text-anchor="middle">1</text>
<polygon points="135.4,335.6 143.4,335.6 143.4,343.6 135.4,343.6" fill="rgb(0,205,0)"/><text xml:space="preserve" x="139.4" y="342.433" font-family="Calibri" font-size="7.5" fill="rgb(255,255,255)" text-anchor="middle">1</text>
<polygon points="143.4,335.6 151.4,335.6 151.4,343.6 143.4,343.6" fill="rgb(205,0,0)"/><text xml:space="preserve" x="147.4" y="342.433" font-family="Calibri" font-size="7.5" fill="rgb(255,255,255)" text-anchor="middle">3</text>
<polygon points="151.4,335.6 159.4,335.6 159.4,343.6 151.4,343.6" fill="rgb(0,205,0)"/><text xml:space="preserve" x="155.4" y="342.433" font-family="Calibri" font-size="7.5" fill="rgb(255,255,255)" text-anchor="middle">1</text>
<polygon points="159.4,335.6 167.4,335.6 167.4,343.6 159.4,343.6" fill="rgb(0,205,0)"/><text xml:space="preserve" x="163.4" y="342.433" font-family="Calibri" font-size="7.5" fill="rgb(255,255,255)" text-anchor="middle">1</text>
<polygon points="167.4,335.6 175.4,335.6 175.4,343.6 167.4,343.6" fill="rgb(0,205,0)"/><text xml:space="preserve" x="171.4" y="342.433" font-family="Calibri" font-size="7.5" fill="rgb(255,255,255)" text-anchor="middle">1</text>
<polygon points="185.4,335.6 193.4,335.6 193.4,343.6 185.4,343.6" fill="rgb(0,28,135)"/>
<polygon points="193.4,335.6 201.4,335.6 201.4,343.6 193.4,343.6" fill="rgb(5,50,136)"/>
<polygon points="201.4,335.6 209.4,335.6 209.4,343.6 201.4,343.6" fill="rgb(22,116,140)"/>
<polygon points="209.4,335.6 217.4,335.6 217.4,343.6 209.4,343.6" fill="rgb(0,30,135)"/>
<polygon points="217.4,335.6 225.4,335.6 225.4,343.6 217.4,343.6" fill="rgb(5,47,136)"/>
<polygon points="225.4,335.6 233.4,335.6 233.4,343.6 225.4,343.6" fill="rgb(0,27,135)"/>
<polygon points="243.4,335.6 251.4,335.6 251.4,343.6 243.4,343.6" fill="rgb(255,255,255)"/>
<polygon points="251.4,335.6 259.4,335.6 259.4,343.6 251.4,343.6" fill="rgb(255,255,255)"/>
<polygon points="259.4,335.6 267.4,335.6 267.4,343.6 259.4,343.6" fill="rgb(255,255,255)"/>
<polygon points="267.4,335.6 275.4,335.6 275.4,343.6 267.4,343.6" fill="rgb(255,255,255)"/>
<polygon points="275.4,335.6 283.4,335.6 283.4,343.6 275.4,343.6" fill="rgb(255,255,255)"/>
<polygon points="283.4,335.6 291.4,335.6 291.4,343.6 283.4,343.6" fill="rgb(255,255,255)"/>
<polygon points="291.4,335.6 299.4,335.6 299.4,343.6 291.4,343.6" fill="rgb(255,255,255)"/>
<polygon points="299.4,335.6 307.4,335.6 307.4,343.6 299.4,343.6" fill="rgb(255,255,255)"/>
<polygon points="127.4,343.6 135.4,343.6 135.4,351.6 127.4,351.6" fill="rgb(0,205,0)"/><text xml:space="preserve" x="131.4" y="350.433" font-family="Calibri" font-size="7.5" fill="rgb(255,255,255)" text-anchor="middle">1</text>
<polygon points="135.4,343.6 143.4,343.6 143.4,351.6 135.4,351.6" fill="rgb(0,205,0)"/><text xml:space="preserve" x="139.4" y="350.433" font-family="Calibri" font-size="7.5" fill="rgb(255,255,255)" text-anchor="middle">1</text>
<polygon points="143.4,343.6 151.4,343.6 151.4,351.6 143.4,351.6" fill="rgb(205,0,0)"/><text xml:space="preserve" x="147.4" y="350.433" font-family="Calibri" font-size="7.5" fill="rgb(255,255,255)" text-anchor="middle">3</text>
<polygon points="151.4,343.6 159.4,343.6 159.4,351.6 151.4,351.6" fill="rgb(0,205,0)"/><text xml:space="preserve" x="155.4" y="350.433" font-family="Calibri" font-size="7.5" fill="rgb(255,255,255)" text-anchor="middle">1</text>
<polygon points="159.4,343.6 167.4,343.6 167.4,351.6 159.4,351.6" fill="rgb(0,205,0)"/><text xml:space="preserve" x="163.4" y="350.433" font-family="Calibri" font-size="7.5" fill="rgb(255,255,255)" text-anchor="middle">1</text>
<polygon points="167.4,343.6 175.4,343.6 175.4,351.6 167.4,351.6" fill="rgb(0,205,0)"/><text xml:space="preserve" x="171.4" y="350.433" font-family="Calibri" font-size="7.5" fill="rgb(255,255,255)" text-anchor="middle">1</text>
<polygon points="185.4,343.6 193.4,343.6 193.4,351.6 185.4,351.6" fill="rgb(0,30,135)"/>
<polygon points="193.4,343.6 201.4,343.6 201.4,351.6 193.4,351.6" fill="rgb(4,44,136)"/>
<polygon points="201.4,343.6 209.4,343.6 209.4,351.6 201.4,351.6" fill="rgb(29,142,141)"/>
<polygon points="209.4,343.6 217.4,343.6 217.4,351.6 209.4,351.6" fill="rgb(1,32,135)"/>
<polygon points="217.4,343.6 225.4,343.6 225.4,351.6 217.4,351.6" fill="rgb(17,96,138)"/>
<polygon points="225.4,343.6 233.4,343.6 233.4,351.6 225.4,351.6" fill="rgb(3,39,135)"/>
<polygon points="243.4,343.6 251.4,343.6 251.4,351.6 243.4,351.6" fill="rgb(255,255,255)"/>
<polygon points="251.4,343.6 259.4,343.6 259.4,351.6 251.4,351.6" fill="rgb(255,255,255)"/>
<polygon points="259.4,343.6 267.4,343.6 267.4,351.6 259.4,351.6" fill="rgb(255,255,255)"/>
<polygon points="267.4,343.6 275.4,343.6 275.4,351.6 267.4,351.6" fill="rgb(255,255,255)"/>
<polygon points="275.4,343.6 283.4,343.6 283.4,351.6 275.4,351.6" fill="rgb(255,255,255)"/>
<polygon points="283.4,343.6 291.4,343.6 291.4,351.6 283.4,351.6" fill="rgb(255,255,255)"/>
<polygon points="291.4,343.6 299.4,343.6 299.4,351.6 291.4,351.6" fill="rgb(255,255,255)"/>
<polygon points="299.4,343.6 307.4,343.6 307.4,351.6 299.4,351.6" fill="rgb(255,255,255)"/>
<polygon points="127.4,351.6 135.4,351.6 135.4,359.6 127.4,359.6" fill="rgb(0,205,0)"/><text xml:space="preserve" x="131.4" y="358.433" font-family="Calibri" font-size="7.5" fill="rgb(255,255,255)" text-anchor="middle">1</text>
<polygon points="135.4,351.6 143.4,351.6 143.4,359.6 135.4,359.6" fill="rgb(0,205,0)"/><text xml:space="preserve" x="139.4" y="358.433" font-family="Calibri" font-size="7.5" fill="rgb(255,255,255)" text-anchor="middle">1</text>
<polygon points="143.4,351.6 151.4,351.6 151.4,359.6 143.4,359.6" fill="rgb(205,0,0)"/><text xml:space="preserve" x="147.4" y="358.433" font-family="Calibri" font-size="7.5" fill="rgb(255,255,255)" text-anchor="middle">3</text>
<polygon points="151.4,351.6 159.4,351.6 159.4,359.6 151.4,359.6" fill="rgb(0,205,0)"/><text xml:space="preserve" x="155.4" y="358.433" font-family="Calibri" font-size="7.5" fill="rgb(255,255,255)" text-anchor="middle">1</text>
<polygon points="159.4,351.6 167.4,351.6 167.4,359.6 159.4,359.6" fill="rgb(0,205,0)"/><text xml:space="preserve" x="163.4" y="358.433" font-family="Calibri" font-size="7.5" fill="rgb(255,255,255)" text-anchor="middle">1</text>
<polygon points="167.4,351.6 175.4,351.6 175.4,359.6 167.4,359.6" fill="rgb(0,205,0)"/><text xml:space="preserve" x="171.4" y="358.433" font-family="Calibri" font-size="7.5" fill="rgb(255,255,255)" text-anchor="middle">1</text>
<polygon points="185.4,351.6 193.4,351.6 193.4,359.6 185.4,359.6" fill="rgb(0,27,135)"/>
<polygon points="193.4,351.6 201.4,351.6 201.4,359.6 193.4,359.6" fill="rgb(12,75,137)"/>
<polygon points="201.4,351.6 209.4,351.6 209.4,359.6 201.4,359.6" fill="rgb(26,130,140)"/>
<polygon points="209.4,351.6 217.4,351.6 217.4,359.6 209.4,359.6" fill="rgb(0,29,135)"/>
<polygon points="217.4,351.6 225.4,351.6 225.4,359.6 217.4,359.6" fill="rgb(4,46,136)"/>
<polygon points="225.4,351.6 233.4,351.6 233.4,359.6 225.4,359.6" fill="rgb(0,28,135)"/>
<polygon points="243.4,351.6 251.4,351.6 251.4,359.6 243.4,359.6" fill="rgb(205,0,205)"/>
<polygon points="251.4,351.6 259.4,351.6 259.4,359.6 251.4,359.6" fill="rgb(255,255,255)"/>
<polygon points="259.4,351.6 267.4,351.6 267.4,359.6 259.4,359.6" fill="rgb(255,255,255)"/>
<polygon points="267.4,351.6 275.4,351.6 275.4,359.6 267.4,359.6" fill="rgb(255,255,255)"/>
<polygon points="275.4,351.6 283.4,351.6 283.4,359.6 275.4,359.6" fill="rgb(255,255,255)"/>
<polygon points="283.4,351.6 291.4,351.6 291.4,359.6 283.4,359.6" fill="rgb(255,255,255)"/>
<polygon points="291.4,351.6 299.4,351.6 299.4,359.6 291.4,359.6" fill="rgb(255,255,255)"/>
<polygon points="299.4,351.6 307.4,351.6 307.4,359.6 299.4,359.6" fill="rgb(255,255,255)"/>
<polygon points="127.4,359.6 135.4,359.6 135.4,367.6 127.4,367.6" fill="rgb(0,205,0)"/><text xml:space="preserve" x="131.4" y="366.433" font-family="Calibri" font-size="7.5" fill="rgb(255,255,255)" text-anchor="middle">1</text>
<polygon points="135.4,359.6 143.4,359.6 143.4,367.6 135.4,367.6" fill="rgb(0,205,0)"/><text xml:space="preserve" x="139.4" y="366.433" font-family="Calibri" font-size="7.5" fill="rgb(255,255,255)" text-anchor="middle">1</text>
<polygon points="143.4,359.6 151.4,359.6 151.4,367.6 143.4,367.6" fill="rgb(205,0,0)"/><text xml:space="preserve" x="147.4" y="366.433" font-family="Calibri" font-size="7.5" fill="rgb(255,255,255)" text-anchor="middle">3</text>
<polygon points="151.4,359.6 159.4,359.6 159.4,367.6 151.4,367.6" fill="rgb(0,205,0)"/><text xml:space="preserve" x="155.4" y="366.433" font-family="Calibri" font-size="7.5" fill="rgb(255,255,255)" text-anchor="middle">1</text>
<polygon points="159.4,359.6 167.4,359.6 167.4,367.6 159.4,367.6" fill="rgb(0,205,0)"/><text xml:space="preserve" x="163.4" y="366.433" font-family="Calibri" font-size="7.5" fill="rgb(255,255,255)" text-anchor="middle">1</text>
<polygon points="167.4,359.6 175.4,359.6 175.4,367.6 167.4,367.6" fill="rgb(0,205,0)"/><text xml:space="preserve" x="171.4" y="366.433" font-family="Calibri" font-size="7.5" fill="rgb(255,255,255)" text-anchor="middle">1</text>
<polygon points="185.4,359.6 193.4,359.6 193.4,367.6 185.4,367.6" fill="rgb(0,27,135)"/>
<polygon points="193.4,359.6 201.4,359.6 201.4,367.6 193.4,367.6" fill="rgb(8,61,136)"/>
<polygon points="201.4,359.6 209.4,359.6 209.4,367.6 201.4,367.6" fill="rgb(30,146,141)"/>
<polygon points="209.4,359.6 217.4,359.6 217.4,367.6 209.4,367.6" fill="rgb(0,30,135)"/>
<polygon points="217.4,359.6 225.4,359.6 225.4,367.6 217.4,367.6" fill="rgb(5,50,136)"/>
<polygon points="225.4,359.6 233.4,359.6 233.4,367.6 225.4,367.6" fill="rgb(3,42,135)"/>
<polygon points="243.4,359.6 251.4,359.6 251.4,367.6 243.4,367.6" fill="rgb(255,255,255)"/>
<polygon points="251.4,359.6 259.4,359.6 259.4,367.6 251.4,367.6" fill="rgb(255,255,255)"/>
<polygon points="259.4,359.6 267.4,359.6 267.4,367.6 259.4,367.6" fill="rgb(255,255,255)"/>
<polygon points="267.4,359.6 275.4,359.6 275.4,367.6 267.4,367.6" fill="rgb(205,0,205)"/>
<polygon points="275.4,359.6 283.4,359.6 283.4,367.6 275.4,367.6" fill="rgb(255,255,255)"/>
<polygon points="283.4,359.6 291.4,359.6 291.4,367.6 283.4,367.6" fill="rgb(255,255,255)"/>
<polygon points="291.4,359.6 299.4,359.6 299.4,367.6 291.4,367.6" fill="rgb(255,255,255)"/>
<polygon points="299.4,359.6 307.4,359.6 307.4,367.6 299.4,367.6" fill="rgb(255,255,255)"/>
<polygon points="127.4,367.6 135.4,367.6 135.4,375.6 127.4,375.6" fill="rgb(0,205,0)"/><text xml:space="preserve" x="131.4" y="374.433" font-family="Calibri" font-size="7.5" fill="rgb(255,255,255)" text-anchor="middle">1</text>
<polygon points="135.4,367.6 143.4,367.6 143.4,375.6 135.4,375.6" fill="rgb(0,205,0)"/><text xml:space="preserve" x="139.4" y="374.433" font-family="Calibri" font-size="7.5" fill="rgb(255,255,255)" text-anchor="middle">1</text>
<polygon points="143.4,367.6 151.4,367.6 151.4,375.6 143.4,375.6" fill="rgb(205,0,0)"/><text xml:space="preserve" x="147.4" y="374.433" font-family="Calibri" font-size="7.5" fill="rgb(255,255,255)" text-anchor="middle">3</text>
<polygon points="151.4,367.6 159.4,367.6 159.4,375.6 151.4,375.6" fill="rgb(0,205,0)"/><text xml:space="preserve" x="155.4" y="374.433" font-family="Calibri" font-size="7.5" fill="rgb(255,255,255)" text-anchor="middle">1</text>
<polygon points="159.4,367.6 167.4,367.6 167.4,375.6 159.4,375.6" fill="rgb(0,205,0)"/><text xml:space="preserve" x="163.4" y="374.433" font-family="Calibri" font-size="7.5" fill="rgb(255,255,255)" text-anchor="middle">1</text>
<polygon points="167.4,367.6 175.4,367.6 175.4,375.6 167.4,375.6" fill="rgb(0,205,0)"/><text xml:space="preserve" x="171.4" y="374.433" font-family="Calibri" font-size="7.5" fill="rgb(255,255,255)" text-anchor="middle">1</text>
<polygon points="185.4,367.6 193.4,367.6 193.4,375.6 185.4,375.6" fill="rgb(0,27,135)"/>
<polygon points="193.4,367.6 201.4,367.6 201.4,375.6 193.4,375.6" fill="rgb(4,46,136)"/>
<polygon points="201.4,367.6 209.4,367.6 209.4,375.6 201.4,375.6" fill="rgb(23,120,140)"/>
<polygon points="209.4,367.6 217.4,367.6 217.4,375.6 209.4,375.6" fill="rgb(1,33,135)"/>
<polygon points="217.4,367.6 225.4,367.6 225.4,375.6 217.4,375.6" fill="rgb(7,55,136)"/>
<polygon points="225.4,367.6 233.4,367.6 233.4,375.6 225.4,375.6" fill="rgb(0,28,135)"/>
<polygon points="243.4,367.6 251.4,367.6 251.4,375.6 243.4,375.6" fill="rgb(255,255,255)"/>
<polygon points="251.4,367.6 259.4,367.6 259.4,375.6 251.4,375.6" fill="rgb(255,255,255)"/>
<polygon points="259.4,367.6 267.4,367.6 267.4,375.6 259.4,375.6" fill="rgb(255,255,255)"/>
<polygon points="267.4,367.6 275.4,367.6 275.4,375.6 267.4,375.6" fill="rgb(255,255,255)"/>
<polygon points="275.4,367.6 283.4,367.6 283.4,375.6 275.4,375.6" fill="rgb(255,255,255)"/>
<polygon points="283.4,367.6 291.4,367.6 291.4,375.6 283.4,375.6" fill="rgb(255,255,255)"/>
<polygon points="291.4,367.6 299.4,367.6 299.4,375.6 291.4,375.6" fill="rgb(255,255,255)"/>
<polygon points="299.4,367.6 307.4,367.6 307.4,375.6 299.4,375.6" fill="rgb(255,255,255)"/>
<polygon points="127.4,375.6 135.4,375.6 135.4,383.6 127.4,383.6" fill="rgb(0,205,0)"/><text xml:space="preserve" x="131.4" y="382.433" font-family="Calibri" font-size="7.5" fill="rgb(255,255,255)" text-anchor="middle">1</text>
<polygon points="135.4,375.6 143.4,375.6 143.4,383.6 135.4,383.6" fill="rgb(0,205,0)"/><text xml:space="preserve" x="139.4" y="382.433" font-family="Calibri" font-size="7.5" fill="rgb(255,255,255)" text-anchor="middle">1</text>
<polygon points="143.4,375.6 151.4,375.6 151.4,383.6 143.4,383.6" fill="rgb(205,0,0)"/><text xml:space="preserve" x="147.4" y="382.433" font-family="Calibri" font-size="7.5" fill="rgb(255,255,255)" text-anchor="middle">3</text>
<polygon points="151.4,375.6 159.4,375.6 159.4,383.6 151.4,383.6" fill="rgb(0,205,0)"/><text xml:space="preserve" x="155.4" y="382.433" font-family="Calibri" font-size="7.5" fill="rgb(255,255,255)" text-anchor="middle">1</text>
<polygon points="159.4,375.6 167.4,375.6 167.4,383.6 159.4,383.6" fill="rgb(0,205,0)"/><text xml:space="preserve" x="163.4" y="382.433" font-family="Calibri" font-size="7.5" fill="rgb(255,255,255)" text-anchor="middle">1</text>
<polygon points="167.4,375.6 175.4,375.6 175.4,383.6 167.4,383.6" fill="rgb(0,205,0)"/><text xml:space="preserve" x="171.4" y="382.433" font-family="Calibri" font-size="7.5" fill="rgb(255,255,255)" text-anchor="middle">1</text>
<polygon points="185.4,375.6 193.4,375.6 193.4,383.6 185.4,383.6" fill="rgb(10,67,137)"/>
<polygon points="193.4,375.6 201.4,375.6 201.4,383.6 193.4,383.6" fill="rgb(4,46,136)"/>
<polygon points="201.4,375.6 209.4,375.6 209.4,383.6 201.4,383.6" fill="rgb(23,117,140)"/>
<polygon points="209.4,375.6 217.4,375.6 217.4,383.6 209.4,383.6" fill="rgb(1,33,135)"/>
<polygon points="217.4,375.6 225.4,375.6 225.4,383.6 217.4,383.6" fill="rgb(2,38,135)"/>
<polygon points="225.4,375.6 233.4,375.6 233.4,383.6 225.4,383.6" fill="rgb(1,33,135)"/>
<polygon points="243.4,375.6 251.4,375.6 251.4,383.6 243.4,383.6" fill="rgb(255,255,255)"/>
<polygon points="251.4,375.6 259.4,375.6 259.4,383.6 251.4,383.6" fill="rgb(255,255,255)"/>
<polygon points="259.4,375.6 267.4,375.6 267.4,383.6 259.4,383.6" fill="rgb(255,255,255)"/>
<polygon points="267.4,375.6 275.4,375.6 275.4,383.6 267.4,383.6" fill="rgb(255,255,255)"/>
<polygon points="275.4,375.6 283.4,375.6 283.4,383.6 275.4,383.6" fill="rgb(255,255,255)"/>
<polygon points="283.4,375.6 291.4,375.6 291.4,383.6 283.4,383.6" fill="rgb(255,255,255)"/>
<polygon points="291.4,375.6 299.4,375.6 299.4,383.6 291.4,383.6" fill="rgb(255,255,255)"/>
<polygon points="299.4,375.6 307.4,375.6 307.4,383.6 299.4,383.6" fill="rgb(255,255,255)"/>
<polygon points="127.4,383.6 135.4,383.6 135.4,391.6 127.4,391.6" fill="rgb(0,205,0)"/><text xml:space="preserve" x="131.4" y="390.433" font-family="Calibri" font-size="7.5" fill="rgb(255,255,255)" text-anchor="middle">1</text>
<polygon points="135.4,383.6 143.4,383.6 143.4,391.6 135.4,391.6" fill="rgb(0,205,0)"/><text xml:space="preserve" x="139.4" y="390.433" font-family="Calibri" font-size="7.5" fill="rgb(255,255,255)" text-anchor="middle">1</text>
<polygon points="143.4,383.6 151.4,383.6 151.4,391.6 143.4,391.6" fill="rgb(205,0,0)"/><text xml:space="preserve" x="147.4" y="390.433" font-family="Calibri" font-size="7.5" fill="rgb(255,255,255)" text-anchor="middle">3</text>
<polygon points="151.4,383.6 159.4,383.6 159.4,391.6 151.4,391.6" fill="rgb(0,205,0)"/><text xml:space="preserve" x="155.4" y="390.433" font-family="Calibri" font-size="7.5" fill="rgb(255,255,255)" text-anchor="middle">1</text>
<polygon points="159.4,383.6 167.4,383.6 167.4,391.6 159.4,391.6" fill="rgb(0,205,0)"/><text xml:space="preserve" x="163.4" y="390.433" font-family="Calibri" font-size="7.5" fill="rgb(255,255,255)" text-anchor="middle">1</text>
<polygon points="167.4,383.6 175.4,383.6 175.4,391.6 167.4,391.6" fill="rgb(0,205,0)"/><text xml:space="preserve" x="171.4" y="390.433" font-family="Calibri" font-size="7.5" fill="rgb(255,255,255)" text-anchor="middle">1</text>
<polygon points="185.4,383.6 193.4,383.6 193.4,391.6 185.4,391.6" fill="rgb(8,59,136)"/>
<polygon points="193.4,383.6 201.4,383.6 201.4,391.6 193.4,391.6" fill="rgb(8,61,136)"/>
<polygon points="201.4,383.6 209.4,383.6 209.4,391.6 201.4,391.6" fill="rgb(23,120,140)"/>
<polygon points="209.4,383.6 217.4,383.6 217.4,391.6 209.4,391.6" fill="rgb(5,48,136)"/>
<polygon points="217.4,383.6 225.4,383.6 225.4,391.6 217.4,391.6" fill="rgb(11,73,137)"/>
<polygon points="225.4,383.6 233.4,383.6 233.4,391.6 225.4,391.6" fill="rgb(3,42,135)"/>
<polygon points="243.4,383.6 251.4,383.6 251.4,391.6 243.4,391.6" fill="rgb(255,255,255)"/>
<polygon points="251.4,383.6 259.4,383.6 259.4,391.6 251.4,391.6" fill="rgb(255,255,255)"/>
<polygon points="259.4,383.6 267.4,383.6 267.4,391.6 259.4,391.6" fill="rgb(255,255,255)"/>
<polygon points="267.4,383.6 275.4,383.6 275.4,391.6 267.4,391.6" fill="rgb(255,255,255)"/>
<polygon points="275.4,383.6 283.4,383.6 283.4,391.6 275.4,391.6" fill="rgb(255,255,255)"/>
<polygon points="283.4,383.6 291.4,383.6 291.4,391.6 283.4,391.6" fill="rgb(255,255,255)"/>
<polygon points="291.4,383.6 299.4,383.6 299.4,391.6 291.4,391.6" fill="rgb(255,255,255)"/>
<polygon points="299.4,383.6 307.4,383.6 307.4,391.6 299.4,391.6" fill="rgb(255,255,255)"/>
<polygon points="127.4,391.6 135.4,391.6 135.4,399.6 127.4,399.6" fill="rgb(0,205,0)"/><text xml:space="preserve" x="131.4" y="398.433" font-family="Calibri" font-size="7.5" fill="rgb(255,255,255)" text-anchor="middle">1</text>
<polygon points="135.4,391.6 143.4,391.6 143.4,399.6 135.4,399.6" fill="rgb(0,205,0)"/><text xml:space="preserve" x="139.4" y="398.433" font-family="Calibri" font-size="7.5" fill="rgb(255,255,255)" text-anchor="middle">1</text>
<polygon points="143.4,391.6 151.4,391.6 151.4,399.6 143.4,399.6" fill="rgb(205,0,0)"/><text xml:space="preserve" x="147.4" y="398.433" font-family="Calibri" font-size="7.5" fill="rgb(255,255,255)" text-anchor="middle">3</text>
<polygon points="151.4,391.6 159.4,391.6 159.4,399.6 151.4,399.6" fill="rgb(0,205,0)"/><text xml:space="preserve" x="155.4" y="398.433" font-family="Calibri" font-size="7.5" fill="rgb(255,255,255)" text-anchor="middle">1</text>
<polygon points="159.4,391.6 167.4,391.6 167.4,399.6 159.4,399.6" fill="rgb(0,205,0)"/><text xml:space="preserve" x="163.4" y="398.433" font-family="Calibri" font-size="7.5" fill="rgb(255,255,255)" text-anchor="middle">1</text>
<polygon points="167.4,391.6 175.4,391.6 175.4,399.6 167.4,399.6" fill="rgb(0,205,0)"/><text xml:space="preserve" x="171.4" y="398.433" font-family="Calibri" font-size="7.5" fill="rgb(255,255,255)" text-anchor="middle">1</text>
<polygon points="185.4,391.6 193.4,391.6 193.4,399.6 185.4,399.6" fill="rgb(16,93,138)"/>
<polygon points="193.4,391.6 201.4,391.6 201.4,399.6 193.4,399.6" fill="rgb(8,61,136)"/>
<polygon points="201.4,391.6 209.4,391.6 209.4,399.6 201.4,399.6" fill="rgb(21,111,139)"/>
<polygon points="209.4,391.6 217.4,391.6 217.4,399.6 209.4,399.6" fill="rgb(0,30,135)"/>
<polygon points="217.4,391.6 225.4,391.6 225.4,399.6 217.4,399.6" fill="rgb(3,41,135)"/>
<polygon points="225.4,391.6 233.4,391.6 233.4,399.6 225.4,399.6" fill="rgb(1,34,135)"/>
<polygon points="243.4,391.6 251.4,391.6 251.4,399.6 243.4,399.6" fill="rgb(255,255,255)"/>
<polygon points="251.4,391.6 259.4,391.6 259.4,399.6 251.4,399.6" fill="rgb(255,255,255)"/>
<polygon points="259.4,391.6 267.4,391.6 267.4,399.6 259.4,399.6" fill="rgb(255,255,255)"/>
<polygon points="267.4,391.6 275.4,391.6 275.4,399.6 267.4,399.6" fill="rgb(255,255,255)"/>
<polygon points="275.4,391.6 283.4,391.6 283.4,399.6 275.4,399.6" fill="rgb(255,255,255)"/>
<polygon points="283.4,391.6 291.4,391.6 291.4,399.6 283.4,399.6" fill="rgb(255,255,255)"/>
<polygon points="291.4,391.6 299.4,391.6 299.4,399.6 291.4,399.6" fill="rgb(255,255,255)"/>
<polygon points="299.4,391.6 307.4,391.6 307.4,399.6 299.4,399.6" fill="rgb(255,255,255)"/>
<polygon points="127.4,399.6 135.4,399.6 135.4,407.6 127.4,407.6" fill="rgb(0,205,0)"/><text xml:space="preserve" x="131.4" y="406.433" font-family="Calibri" font-size="7.5" fill="rgb(255,255,255)" text-anchor="middle">1</text>
<polygon points="135.4,399.6 143.4,399.6 143.4,407.6 135.4,407.6" fill="rgb(0,205,0)"/><text xml:space="preserve" x="139.4" y="406.433" font-family="Calibri" font-size="7.5" fill="rgb(255,255,255)" text-anchor="middle">1</text>
<polygon points="143.4,399.6 151.4,399.6 151.4,407.6 143.4,407.6" fill="rgb(205,0,0)"/><text xml:space="preserve" x="147.4" y="406.433" font-family="Calibri" font-size="7.5" fill="rgb(255,255,255)" text-anchor="middle">3</text>
<polygon points="151.4,399.6 159.4,399.6 159.4,407.6 151.4,407.6" fill="rgb(0,205,0)"/><text xml:space="preserve" x="155.4" y="406.433" font-family="Calibri" font-size="7.5" fill="rgb(255,255,255)" text-anchor="middle">1</text>
<polygon points="159.4,399.6 167.4,399.6 167.4,407.6 159.4,407.6" fill="rgb(0,205,0)"/><text xml:space="preserve" x="163.4" y="406.433" font-family="Calibri" font-size="7.5" fill="rgb(255,255,255)" text-anchor="middle">1</text>
<polygon points="167.4,399.6 175.4,399.6 175.4,407.6 167.4,407.6" fill="rgb(0,205,0)"/><text xml:space="preserve" x="171.4" y="406.433" font-family="Calibri" font-size="7.5" fill="rgb(255,255,255)" text-anchor="middle">1</text>
<polygon points="185.4,399.6 193.4,399.6 193.4,407.6 185.4,407.6" fill="rgb(4,44,136)"/>
<polygon points="193.4,399.6 201.4,399.6 201.4,407.6 193.4,407.6" fill="rgb(8,61,136)"/>
<polygon points="201.4,399.6 209.4,399.6 209.4,407.6 201.4,407.6" fill="rgb(27,134,141)"/>
<polygon points="209.4,399.6 217.4,399.6 217.4,407.6 209.4,407.6" fill="rgb(2,37,135)"/>
<polygon points="217.4,399.6 225.4,399.6 225.4,407.6 217.4,407.6" fill="rgb(4,46,136)"/>
<polygon points="225.4,399.6 233.4,399.6 233.4,407.6 225.4,407.6" fill="rgb(7,56,136)"/>
<polygon points="243.4,399.6 251.4,399.6 251.4,407.6 243.4,407.6" fill="rgb(255,255,255)"/>
<polygon points="251.4,399.6 259.4,399.6 259.4,407.6 251.4,407.6" fill="rgb(255,255,255)"/>
<polygon points="259.4,399.6 267.4,399.6 267.4,407.6 259.4,407.6" fill="rgb(255,255,255)"/>
<polygon points="267.4,399.6 275.4,399.6 275.4,407.6 267.4,407.6" fill="rgb(255,255,255)"/>
<polygon points="275.4,399.6 283.4,399.6 283.4,407.6 275.4,407.6" fill="rgb(255,255,255)"/>
<polygon points="283.4,399.6 291.4,399.6 291.4,407.6 283.4,407.6" fill="rgb(255,255,255)"/>
<polygon points="291.4,399.6 299.4,399.6 299.4,407.6 291.4,407.6" fill="rgb(255,255,255)"/>
<polygon points="299.4,399.6 307.4,399.6 307.4,407.6 299.4,407.6" fill="rgb(255,255,255)"/>
<polygon points="127.4,407.6 135.4,407.6 135.4,415.6 127.4,415.6" fill="rgb(0,205,0)"/><text xml:space="preserve" x="131.4" y="414.433" font-family="Calibri" font-size="7.5" fill="rgb(255,255,255)" text-anchor="middle">1</text>
<polygon points="135.4,407.6 143.4,407.6 143.4,415.6 135.4,415.6" fill="rgb(0,205,0)"/><text xml:space="preserve" x="139.4" y="414.433" font-family="Calibri" font-size="7.5" fill="rgb(255,255,255)" text-anchor="middle">1</text>
<polygon points="143.4,407.6 151.4,407.6 151.4,415.6 143.4,415.6" fill="rgb(205,0,0)"/><text xml:space="preserve" x="147.4" y="414.433" font-family="Calibri" font-size="7.5" fill="rgb(255,255,255)" text-anchor="middle">3</text>
<polygon points="151.4,407.6 159.4,407.6 159.4,415.6 151.4,415.6" fill="rgb(0,205,0)"/><text xml:space="preserve" x="155.4" y="414.433" font-family="Calibri" font-size="7.5" fill="rgb(255,255,255)" text-anchor="middle">1</text>
<polygon points="159.4,407.6 167.4,407.6 167.4,415.6 159.4,415.6" fill="rgb(0,205,0)"/><text xml:space="preserve" x="163.4" y="414.433" font-family="Calibri" font-size="7.5" fill="rgb(255,255,255)" text-anchor="middle">1</text>
<polygon points="167.4,407.6 175.4,407.6 175.4,415.6 167.4,415.6" fill="rgb(0,205,0)"/><text xml:space="preserve" x="171.4" y="414.433" font-family="Calibri" font-size="7.5" fill="rgb(255,255,255)" text-anchor="middle">1</text>
<polygon points="185.4,407.6 193.4,407.6 193.4,415.6 185.4,415.6" fill="rgb(0,29,135)"/>
<polygon points="193.4,407.6 201.4,407.6 201.4,415.6 193.4,415.6" fill="rgb(6,51,136)"/>
<polygon points="201.4,407.6 209.4,407.6 209.4,415.6 201.4,415.6" fill="rgb(23,119,140)"/>
<polygon points="209.4,407.6 217.4,407.6 217.4,415.6 209.4,415.6" fill="rgb(2,35,135)"/>
<polygon points="217.4,407.6 225.4,407.6 225.4,415.6 217.4,415.6" fill="rgb(7,56,136)"/>
<polygon points="225.4,407.6 233.4,407.6 233.4,415.6 225.4,415.6" fill="rgb(0,28,135)"/>
<polygon points="243.4,407.6 251.4,407.6 251.4,415.6 243.4,415.6" fill="rgb(205,0,205)"/>
<polygon points="251.4,407.6 259.4,407.6 259.4,415.6 251.4,415.6" fill="rgb(255,255,255)"/>
<polygon points="259.4,407.6 267.4,407.6 267.4,415.6 259.4,415.6" fill="rgb(255,255,255)"/>
<polygon points="267.4,407.6 275.4,407.6 275.4,415.6 267.4,415.6" fill="rgb(255,255,255)"/>
<polygon points="275.4,407.6 283.4,407.6 283.4,415.6 275.4,415.6" fill="rgb(255,255,255)"/>
<polygon points="283.4,407.6 291.4,407.6 291.4,415.6 283.4,415.6" fill="rgb(255,255,255)"/>
<polygon points="291.4,407.6 299.4,407.6 299.4,415.6 291.4,415.6" fill="rgb(255,255,255)"/>
<polygon points="299.4,407.6 307.4,407.6 307.4,415.6 299.4,415.6" fill="rgb(255,255,255)"/>
<polygon points="127.4,415.6 135.4,415.6 135.4,423.6 127.4,423.6" fill="rgb(0,205,0)"/><text xml:space="preserve" x="131.4" y="422.433" font-family="Calibri" font-size="7.5" fill="rgb(255,255,255)" text-anchor="middle">1</text>
<polygon points="135.4,415.6 143.4,415.6 143.4,423.6 135.4,423.6" fill="rgb(0,205,0)"/><text xml:space="preserve" x="139.4" y="422.433" font-family="Calibri" font-size="7.5" fill="rgb(255,255,255)" text-anchor="middle">1</text>
<polygon points="143.4,415.6 151.4,415.6 151.4,423.6 143.4,423.6" fill="rgb(205,0,0)"/><text xml:space="preserve" x="147.4" y="422.433" font-family="Calibri" font-size="7.5" fill="rgb(255,255,255)" text-anchor="middle">3</text>
<polygon points="151.4,415.6 159.4,415.6 159.4,423.6 151.4,423.6" fill="rgb(0,205,0)"/><text xml:space="preserve" x="155.4" y="422.433" font-family="Calibri" font-size="7.5" fill="rgb(255,255,255)" text-anchor="middle">1</text>
<polygon points="159.4,415.6 167.4,415.6 167.4,423.6 159.4,423.6" fill="rgb(0,205,0)"/><text xml:space="preserve" x="163.4" y="422.433" font-family="Calibri" font-size="7.5" fill="rgb(255,255,255)" text-anchor="middle">1</text>
<polygon points="167.4,415.6 175.4,415.6 175.4,423.6 167.4,423.6" fill="rgb(0,205,0)"/><text xml:space="preserve" x="171.4" y="422.433" font-family="Calibri" font-size="7.5" fill="rgb(255,255,255)" text-anchor="middle">1</text>
<polygon points="185.4,415.6 193.4,415.6 193.4,423.6 185.4,423.6" fill="rgb(0,27,135)"/>
<polygon points="193.4,415.6 201.4,415.6 201.4,423.6 193.4,423.6" fill="rgb(3,41,135)"/>
<polygon points="201.4,415.6 209.4,415.6 209.4,423.6 201.4,423.6" fill="rgb(23,117,140)"/>
<polygon points="209.4,415.6 217.4,415.6 217.4,423.6 209.4,423.6" fill="rgb(0,27,135)"/>
<polygon points="217.4,415.6 225.4,415.6 225.4,423.6 217.4,423.6" fill="rgb(0,27,135)"/>
<polygon points="225.4,415.6 233.4,415.6 233.4,423.6 225.4,423.6" fill="rgb(0,27,135)"/>
<polygon points="243.4,415.6 251.4,415.6 251.4,423.6 243.4,423.6" fill="rgb(255,255,255)"/>
<polygon points="251.4,415.6 259.4,415.6 259.4,423.6 251.4,423.6" fill="rgb(255,255,255)"/>
<polygon points="259.4,415.6 267.4,415.6 267.4,423.6 259.4,423.6" fill="rgb(255,255,255)"/>
<polygon points="267.4,415.6 275.4,415.6 275.4,423.6 267.4,423.6" fill="rgb(255,255,255)"/>
<polygon points="275.4,415.6 283.4,415.6 283.4,423.6 275.4,423.6" fill="rgb(255,255,255)"/>
<polygon points="283.4,415.6 291.4,415.6 291.4,423.6 283.4,423.6" fill="rgb(255,255,255)"/>
<polygon points="291.4,415.6 299.4,415.6 299.4,423.6 291.4,423.6" fill="rgb(255,255,255)"/>
<polygon points="299.4,415.6 307.4,415.6 307.4,423.6 299.4,423.6" fill="rgb(255,255,255)"/>
<polygon points="127.4,423.6 135.4,423.6 135.4,431.6 127.4,431.6" fill="rgb(0,205,0)"/><text xml:space="preserve" x="131.4" y="430.433" font-family="Calibri" font-size="7.5" fill="rgb(255,255,255)" text-anchor="middle">1</text>
<polygon points="135.4,423.6 143.4,423.6 143.4,431.6 135.4,431.6" fill="rgb(0,205,0)"/><text xml:space="preserve" x="139.4" y="430.433" font-family="Calibri" font-size="7.5" fill="rgb(255,255,255)" text-anchor="middle">1</text>
<polygon points="143.4,423.6 151.4,423.6 151.4,431.6 143.4,431.6" fill="rgb(205,0,0)"/><text xml:space="preserve" x="147.4" y="430.433" font-family="Calibri" font-size="7.5" fill="rgb(255,255,255)" text-anchor="middle">3</text>
<polygon points="151.4,423.6 159.4,423.6 159.4,431.6 151.4,431.6" fill="rgb(0,205,0)"/><text xml:space="preserve" x="155.4" y="430.433" font-family="Calibri" font-size="7.5" fill="rgb(255,255,255)" text-anchor="middle">1</text>
<polygon points="159.4,423.6 167.4,423.6 167.4,431.6 159.4,431.6" fill="rgb(0,205,0)"/><text xml:space="preserve" x="163.4" y="430.433" font-family="Calibri" font-size="7.5" fill="rgb(255,255,255)" text-anchor="middle">1</text>
<polygon points="167.4,423.6 175.4,423.6 175.4,431.6 167.4,431.6" fill="rgb(0,205,0)"/><text xml:space="preserve" x="171.4" y="430.433" font-family="Calibri" font-size="7.5" fill="rgb(255,255,255)" text-anchor="middle">1</text>
<polygon points="185.4,423.6 193.4,423.6 193.4,431.6 185.4,431.6" fill="rgb(9,62,137)"/>
<polygon points="193.4,423.6 201.4,423.6 201.4,431.6 193.4,431.6" fill="rgb(11,71,137)"/>
<polygon points="201.4,423.6 209.4,423.6 209.4,431.6 201.4,431.6" fill="rgb(25,126,140)"/>
<polygon points="209.4,423.6 217.4,423.6 217.4,431.6 209.4,431.6" fill="rgb(3,39,135)"/>
<polygon points="217.4,423.6 225.4,423.6 225.4,431.6 217.4,431.6" fill="rgb(8,59,136)"/>
<polygon points="225.4,423.6 233.4,423.6 233.4,431.6 225.4,431.6" fill="rgb(4,43,135)"/>
<polygon points="243.4,423.6 251.4,423.6 251.4,431.6 243.4,431.6" fill="rgb(255,255,255)"/>
<polygon points="251.4,423.6 259.4,423.6 259.4,431.6 251.4,431.6" fill="rgb(255,255,255)"/>
<polygon points="259.4,423.6 267.4,423.6 267.4,431.6 259.4,431.6" fill="rgb(255,255,255)"/>
<polygon points="267.4,423.6 275.4,423.6 275.4,431.6 267.4,431.6" fill="rgb(255,255,255)"/>
<polygon points="275.4,423.6 283.4,423.6 283.4,431.6 275.4,431.6" fill="rgb(255,255,255)"/>
<polygon points="283.4,423.6 291.4,423.6 291.4,431.6 283.4,431.6" fill="rgb(255,255,255)"/>
<polygon points="291.4,423.6 299.4,423.6 299.4,431.6 291.4,431.6" fill="rgb(255,255,255)"/>
<polygon points="299.4,423.6 307.4,423.6 307.4,431.6 299.4,431.6" fill="rgb(255,255,255)"/>
<polygon points="127.4,431.6 135.4,431.6 135.4,439.6 127.4,439.6" fill="rgb(0,205,0)"/><text xml:space="preserve" x="131.4" y="438.433" font-family="Calibri" font-size="7.5" fill="rgb(255,255,255)" text-anchor="middle">1</text>
<polygon points="135.4,431.6 143.4,431.6 143.4,439.6 135.4,439.6" fill="rgb(0,205,0)"/><text xml:space="preserve" x="139.4" y="438.433" font-family="Calibri" font-size="7.5" fill="rgb(255,255,255)" text-anchor="middle">1</text>
<polygon points="143.4,431.6 151.4,431.6 151.4,439.6 143.4,439.6" fill="rgb(205,0,0)"/><text xml:space="preserve" x="147.4" y="438.433" font-family="Calibri" font-size="7.5" fill="rgb(255,255,255)" text-anchor="middle">3</text>
<polygon points="151.4,431.6 159.4,431.6 159.4,439.6 151.4,439.6" fill="rgb(0,205,0)"/><text xml:space="preserve" x="155.4" y="438.433" font-family="Calibri" font-size="7.5" fill="rgb(255,255,255)" text-anchor="middle">1</text>
<polygon points="159.4,431.6 167.4,431.6 167.4,439.6 159.4,439.6" fill="rgb(0,205,0)"/><text xml:space="preserve" x="163.4" y="438.433" font-family="Calibri" font-size="7.5" fill="rgb(255,255,255)" text-anchor="middle">1</text>
<polygon points="167.4,431.6 175.4,431.6 175.4,439.6 167.4,439.6" fill="rgb(0,205,0)"/><text xml:space="preserve" x="171.4" y="438.433" font-family="Calibri" font-size="7.5" fill="rgb(255,255,255)" text-anchor="middle">1</text>
<polygon points="185.4,431.6 193.4,431.6 193.4,439.6 185.4,439.6" fill="rgb(0,30,135)"/>
<polygon points="193.4,431.6 201.4,431.6 201.4,439.6 193.4,439.6" fill="rgb(12,76,137)"/>
<polygon points="201.4,431.6 209.4,431.6 209.4,439.6 201.4,439.6" fill="rgb(23,119,140)"/>
<polygon points="209.4,431.6 217.4,431.6 217.4,439.6 209.4,439.6" fill="rgb(2,35,135)"/>
<polygon points="217.4,431.6 225.4,431.6 225.4,439.6 217.4,439.6" fill="rgb(4,46,136)"/>
<polygon points="225.4,431.6 233.4,431.6 233.4,439.6 225.4,439.6" fill="rgb(2,38,135)"/>
<polygon points="243.4,431.6 251.4,431.6 251.4,439.6 243.4,439.6" fill="rgb(255,255,255)"/>
<polygon points="251.4,431.6 259.4,431.6 259.4,439.6 251.4,439.6" fill="rgb(255,255,255)"/>
<polygon points="259.4,431.6 267.4,431.6 267.4,439.6 259.4,439.6" fill="rgb(255,255,255)"/>
<polygon points="267.4,431.6 275.4,431.6 275.4,439.6 267.4,439.6" fill="rgb(205,0,205)"/>
<polygon points="275.4,431.6 283.4,431.6 283.4,439.6 275.4,439.6" fill="rgb(255,255,255)"/>
<polygon points="283.4,431.6 291.4,431.6 291.4,439.6 283.4,439.6" fill="rgb(255,255,255)"/>
<polygon points="291.4,431.6 299.4,431.6 299.4,439.6 291.4,439.6" fill="rgb(255,255,255)"/>
<polygon points="299.4,431.6 307.4,431.6 307.4,439.6 299.4,439.6" fill="rgb(255,255,255)"/>
<polygon points="127.4,439.6 135.4,439.6 135.4,447.6 127.4,447.6" fill="rgb(0,205,0)"/><text xml:space="preserve" x="131.4" y="446.433" font-family="Calibri" font-size="7.5" fill="rgb(255,255,255)" text-anchor="middle">1</text>
<polygon points="135.4,439.6 143.4,439.6 143.4,447.6 135.4,447.6" fill="rgb(0,205,0)"/><text xml:space="preserve" x="139.4" y="446.433" font-family="Calibri" font-size="7.5" fill="rgb(255,255,255)" text-anchor="middle">1</text>
<polygon points="143.4,439.6 151.4,439.6 151.4,447.6 143.4,447.6" fill="rgb(205,0,0)"/><text xml:space="preserve" x="147.4" y="446.433" font-family="Calibri" font-size="7.5" fill="rgb(255,255,255)" text-anchor="middle">3</text>
<polygon points="151.4,439.6 159.4,439.6 159.4,447.6 151.4,447.6" fill="rgb(0,205,0)"/><text xml:space="preserve" x="155.4" y="446.433" font-family="Calibri" font-size="7.5" fill="rgb(255,255,255)" text-anchor="middle">1</text>
<polygon points="159.4,439.6 167.4,439.6 167.4,447.6 159.4,447.6" fill="rgb(0,205,0)"/><text xml:space="preserve" x="163.4" y="446.433" font-family="Calibri" font-size="7.5" fill="rgb(255,255,255)" text-anchor="middle">1</text>
<polygon points="167.4,439.6 175.4,439.6 175.4,447.6 167.4,447.6" fill="rgb(0,205,0)"/><text xml:space="preserve" x="171.4" y="446.433" font-family="Calibri" font-size="7.5" fill="rgb(255,255,255)" text-anchor="middle">1</text>
<polygon points="185.4,439.6 193.4,439.6 193.4,447.6 185.4,447.6" fill="rgb(0,27,135)"/>
<polygon points="193.4,439.6 201.4,439.6 201.4,447.6 193.4,447.6" fill="rgb(9,62,137)"/>
<polygon points="201.4,439.6 209.4,439.6 209.4,447.6 201.4,447.6" fill="rgb(31,148,141)"/>
<polygon points="209.4,439.6 217.4,439.6 217.4,447.6 209.4,447.6" fill="rgb(0,30,135)"/>
<polygon points="217.4,439.6 225.4,439.6 225.4,447.6 217.4,447.6" fill="rgb(7,57,136)"/>
<polygon points="225.4,439.6 233.4,439.6 233.4,447.6 225.4,447.6" fill="rgb(0,28,135)"/>
<polygon points="243.4,439.6 251.4,439.6 251.4,447.6 243.4,447.6" fill="rgb(255,255,255)"/>
<polygon points="251.4,439.6 259.4,439.6 259.4,447.6 251.4,447.6" fill="rgb(255,255,255)"/>
<polygon points="259.4,439.6 267.4,439.6 267.4,447.6 259.4,447.6" fill="rgb(255,255,255)"/>
<polygon points="267.4,439.6 275.4,439.6 275.4,447.6 267.4,447.6" fill="rgb(255,255,255)"/>
<polygon points="275.4,439.6 283.4,439.6 283.4,447.6 275.4,447.6" fill="rgb(255,255,255)"/>
<polygon points="283.4,439.6 291.4,439.6 291.4,447.6 283.4,447.6" fill="rgb(255,255,255)"/>
<polygon points="291.4,439.6 299.4,439.6 299.4,447.6 291.4,447.6" fill="rgb(255,255,255)"/>
<polygon points="299.4,439.6 307.4,439.6 307.4,447.6 299.4,447.6" fill="rgb(255,255,255)"/>
<polygon points="127.4,335.6 175.4,335.6 175.4,447.6 127.4,447.6" fill="none" stroke="black" stroke-width="1"/>
<polygon points="185.4,335.6 233.4,335.6 233.4,447.6 185.4,447.6" fill="none" stroke="black" stroke-width="1"/>
<polygon points="243.4,335.6 307.4,335.6 307.4,447.6 243.4,447.6" fill="none" stroke="black" stroke-width="1"/>
<text xml:space="preserve" x="163.7" y="480.6" font-family="Calibri" font-size="8" text-anchor="middle">ClusterAssignment</text>
<polygon points="133.7,487.6 153.7,487.6 153.7,507.6 133.7,507.6" fill="rgb(0,205,0)"/><polygon points="133.7,487.6 153.7,487.6 153.7,507.6 133.7,507.6" fill="none" stroke="black" stroke-width="1"/><text xml:space="preserve" x="143.7" y="500.433" font-family="Calibri" font-size="7.5" fill="rgb(255,255,255)" text-anchor="middle">1.0</text>
<polygon points="153.7,487.6 173.7,487.6 173.7,507.6 153.7,507.6" fill="rgb(255,255,0)"/><polygon points="153.7,487.6 173.7,487.6 173.7,507.6 153.7,507.6" fill="none" stroke="black" stroke-width="1"/><text xml:space="preserve" x="163.7" y="500.433" font-family="Calibri" font-size="7.5" fill="rgb(0,0,0)" text-anchor="middle">2.0</text>
<polygon points="173.7,487.6 193.7,487.6 193.7,507.6 173.7,507.6" fill="rgb(205,0,0)"/><polygon points="173.7,487.6 193.7,487.6 193.7,507.6 173.7,507.6" fill="none" stroke="black" stroke-width="1"/><text xml:space="preserve" x="183.7" y="500.433" font-family="Calibri" font-size="7.5" fill="rgb(255,255,255)" text-anchor="middle">3.0</text>
<text xml:space="preserve" x="163.7" y="540.6" font-family="Calibri" font-size="8" text-anchor="middle">Expression</text>
<polygon points="133.7,547.6 153.7,547.6 153.7,567.6 133.7,567.6" fill="rgb(0,27,135)"/><polygon points="133.7,547.6 153.7,547.6 153.7,567.6 133.7,567.6" fill="none" stroke="black" stroke-width="1"/><text xml:space="preserve" x="143.7" y="560.433" font-family="Calibri" font-size="7.5" fill="rgb(255,255,255)" text-anchor="middle">0.0</text>
<polygon points="153.7,547.6 173.7,547.6 173.7,567.6 153.7,567.6" fill="rgb(49,219,146)"/><polygon points="153.7,547.6 173.7,547.6 173.7,567.6 153.7,567.6" fill="none" stroke="black" stroke-width="1"/><text xml:space="preserve" x="163.7" y="560.433" font-family="Calibri" font-size="7.5" fill="rgb(0,0,0)" text-anchor="middle">1.5</text>
<polygon points="173.7,547.6 193.7,547.6 193.7,567.6 173.7,567.6" fill="rgb(252,194,1)"/><polygon points="173.7,547.6 193.7,547.6 193.7,567.6 173.7,567.6" fill="none" stroke="black" stroke-width="1"/><text xml:space="preserve" x="183.7" y="560.433" font-family="Calibri" font-size="7.5" fill="rgb(0,0,0)" text-anchor="middle">3.0</text>
<text xml:space="preserve" x="163.7" y="600.6" font-family="Calibri" font-size="8" text-anchor="middle">PANTHERclass</text>
<polygon points="133.7,607.6 153.7,607.6 153.7,627.6 133.7,627.6" fill="rgb(255,255,255)"/><polygon points="133.7,607.6 153.7,607.6 153.7,627.6 133.7,627.6" fill="none" stroke="black" stroke-width="1"/><text xml:space="preserve" x="143.7" y="620.433" font-family="Calibri" font-size="7.5" fill="rgb(0,0,0)" text-anchor="middle">0.0</text>
<polygon points="153.7,607.6 173.7,607.6 173.7,627.6 153.7,627.6" fill="rgb(230,127,230)"/><polygon points="153.7,607.6 173.7,607.6 173.7,627.6 153.7,627.6" fill="none" stroke="black" stroke-width="1"/><text xml:space="preserve" x="163.7" y="620.433" font-family="Calibri" font-size="7.5" fill="rgb(0,0,0)" text-anchor="middle">0.5</text>
<polygon points="173.7,607.6 193.7,607.6 193.7,627.6 173.7,627.6" fill="rgb(205,0,205)"/><polygon points="173.7,607.6 193.7,607.6 193.7,627.6 173.7,627.6" fill="none" stroke="black" stroke-width="1"/><text xml:space="preserve" x="183.7" y="620.433" font-family="Calibri" font-size="7.5" fill="rgb(255,255,255)" text-anchor="middle">1.0</text>
</svg>
