<?xml version="1.0" standalone="no"?><!DOCTYPE svg PUBLIC "-//W3C//DTD SVG 1.1//EN" "http://www.w3.org/Graphics/SVG/1.1/DTD/svg11.dtd">
<svg width="296" height="567.6" version="1.1" xmlns="http://www.w3.org/2000/svg">
<text xml:space="preserve" x="124" y="342.6" font-family="Calibri" font-size="8" text-anchor="end">AC096536.1</text>
<text xml:space="preserve" x="124" y="350.6" font-family="Calibri" font-size="8" text-anchor="end">GPIHBP1</text>
<text xml:space="preserve" x="124" y="358.6" font-family="Calibri" font-size="8" text-anchor="end">LINC01778</text>
<text xml:space="preserve" x="124" y="366.6" font-family="Calibri" font-size="8" text-anchor="end">CTF1</text>
<text xml:space="preserve" x="135" y="331.6" font-family="Calibri" font-size="8" transform="rotate(270 135 331.6)">c1</text>
<text xml:space="preserve" x="143" y="331.6" font-family="Calibri" font-size="8" transform="rotate(270 143 331.6)">c3</text>
<text xml:space="preserve" x="151" y="331.6" font-family="Calibri" font-size="8" transform="rotate(270 151 331.6)">c2</text>
<text xml:space="preserve" x="159" y="331.6" font-family="Calibri" font-size="8" transform="rotate(270 159 331.6)">c4</text>
<text xml:space="preserve" x="177" y="331.6" font-family="Calibri" font-size="8" transform="rotate(270 177 331.6)">c1_mean</text>
<text xml:space="preserve" x="185" y="331.6" font-family="Calibri" font-size="8" transform="rotate(270 185 331.6)">c3_mean</text>
<text xml:space="preserve" x="193" y="331.6" font-family="Calibri" font-size="8" transform="rotate(270 193 331.6)">c2_mean</text>
<text xml:space="preserve" x="201" y="331.6" font-family="Calibri" font-size="8" transform="rotate(270 201 331.6)">c4_mean</text>
<text xml:space="preserve" x="219" y="331.6" font-family="Calibri" font-size="8" transform="rotate(270 219 331.6)">transcription_factor</text>
<text xml:space="preserve" x="227" y="331.6" font-family="Calibri" font-size="8" transform="rotate(270 227 331.6)">transmembrane_signal_receptor</text>
<text xml:space="preserve" x="235" y="331.6" font-family="Calibri" font-size="8" transform="rotate(270 235 331.6)">growth_factor</text>
<text xml:space="preserve" x="243" y="331.6" font-family="Calibri" font-size="8" transform="rotate(270 243 331.6)">peptide_hormone</text>
<text xml:space="preserve" x="251" y="331.6" font-family="Calibri" font-size="8" transform="rotate(270 251 331.6)">cytoskeletal_protein</text>
<text xml:space="preserve" x="259" y="331.6" font-family="Calibri" font-size="8" transform="rotate(270 259 331.6)">ion_channel</text>
<text xml:space="preserve" x="267" y="331.6" font-family="Calibri" font-size="8" transform="rotate(270 267 331.6)">integrin</text>
<text xml:space="preserve" x="275" y="331.6" font-family="Calibri" font-size="8" transform="rotate(270 275 331.6)">extracellular_matrix_protein</text>
<polygon points="128,335.6 136,335.6 136,343.6 128,343.6" fill="rgb(238,170,0)"/><text xml:space="preserve" x="132" y="342.433" font-family="Calibri" font-size="7.5" fill="rgb(0,0,0)" text-anchor="middle">3</text>
<polygon points="136,335.6 144,335.6 144,343.6 136,343.6" fill="rgb(170,238,0)"/><text xml:space="preserve" x="140" y="342.433" font-family="Calibri" font-size="7.5" fill="rgb(0,0,0)" text-anchor="middle">2</text>
<polygon points="144,335.6 152,335.6 152,343.6 144,343.6" fill="rgb(0,205,0)"/><text xml:space="preserve" x="148" y="342.433" font-family="Calibri" font-size="7.5" fill="rgb(255,255,255)" text-anchor="middle">1</text>
<polygon points="152,335.6 160,335.6 160,343.6 152,343.6" fill="rgb(0,205,0)"/><text xml:space="preserve" x="156" y="342.433" font-family="Calibri" font-size="7.5" fill="rgb(255,255,255)" text-anchor="middle">1</text>
<polygon points="170,335.6 178,335.6 178,343.6 170,343.6" fill="rgb(20,108,139)"/>
<polygon points="178,335.6 186,335.6 186,343.6 178,343.6" fill="rgb(3,39,135)"/>
<polygon points="186,335.6 194,335.6 194,343.6 186,343.6" fill="rgb(0,30,135)"/>
<polygon points="194,335.6 202,335.6 202,343.6 194,343.6" fill="rgb(2,35,135)"/>
<polygon points="212,335.6 220,335.6 220,343.6 212,343.6" fill="rgb(255,255,255)"/>
<polygon points="220,335.6 228,335.6 228,343.6 220,343.6" fill="rgb(255,255,255)"/>
<polygon points="228,335.6 236,335.6 236,343.6 228,343.6" fill="rgb(255,255,255)"/>
<polygon points="236,335.6 244,335.6 244,343.6 236,343.6" fill="rgb(255,255,255)"/>
<polygon points="244,335.6 252,335.6 252,343.6 244,343.6" fill="rgb(255,255,255)"/>
<polygon points="252,335.6 260,335.6 260,343.6 252,343.6" fill="rgb(255,255,255)"/>
<polygon points="260,335.6 268,335.6 268,343.6 260,343.6" fill="rgb(255,255,255)"/>
<polygon points="268,335.6 276,335.6 276,343.6 268,343.6" fill="rgb(255,255,255)"/>
<polygon points="128,343.6 136,343.6 136,351.6 128,351.6" fill="rgb(238,170,0)"/><text xml:space="preserve" x="132" y="350.433" font-family="Calibri" font-size="7.5" fill="rgb(0,0,0)" text-anchor="middle">3</text>
<polygon points="136,343.6 144,343.6 144,351.6 136,351.6" fill="rgb(170,238,0)"/><text xml:space="preserve" x="140" y="350.433" font-family="Calibri" font-size="7.5" fill="rgb(0,0,0)" text-anchor="middle">2</text>
<polygon points="144,343.6 152,343.6 152,351.6 144,351.6" fill="rgb(0,205,0)"/><text xml:space="preserve" x="148" y="350.433" font-family="Calibri" font-size="7.5" fill="rgb(255,255,255)" text-anchor="middle">1</text>
<polygon points="152,343.6 160,343.6 160,351.6 152,351.6" fill="rgb(0,205,0)"/><text xml:space="preserve" x="156" y="350.433" font-family="Calibri" font-size="7.5" fill="rgb(255,255,255)" text-anchor="middle">1</text>
<polygon points="170,343.6 178,343.6 178,351.6 170,351.6" fill="rgb(21,110,139)"/>
<polygon points="178,343.6 186,343.6 186,351.6 178,351.6" fill="rgb(0,30,135)"/>
<polygon points="186,343.6 194,343.6 194,351.6 186,351.6" fill="rgb(0,27,135)"/>
<polygon points="194,343.6 202,343.6 202,351.6 194,351.6" fill="rgb(0,27,135)"/>
<polygon points="212,343.6 220,343.6 220,351.6 212,351.6" fill="rgb(255,255,255)"/>
<polygon points="220,343.6 228,343.6 228,351.6 220,351.6" fill="rgb(255,255,255)"/>
<polygon points="228,343.6 236,343.6 236,351.6 228,351.6" fill="rgb(255,255,255)"/>
<polygon points="236,343.6 244,343.6 244,351.6 236,351.6" fill="rgb(255,255,255)"/>
<polygon points="244,343.6 252,343.6 252,351.6 244,351.6" fill="rgb(255,255,255)"/>
<polygon points="252,343.6 260,343.6 260,351.6 252,351.6" fill="rgb(255,255,255)"/>
<polygon points="260,343.6 268,343.6 268,351.6 260,351.6" fill="rgb(255,255,255)"/>
<polygon points="268,343.6 276,343.6 276,351.6 268,351.6" fill="rgb(255,255,255)"/>
<polygon points="128,351.6 136,351.6 136,359.6 128,359.6" fill="rgb(238,170,0)"/><text xml:space="preserve" x="132" y="358.433" font-family="Calibri" font-size="7.5" fill="rgb(0,0,0)" text-anchor="middle">3</text>
<polygon points="136,351.6 144,351.6 144,359.6 136,359.6" fill="rgb(170,238,0)"/><text xml:space="preserve" x="140" y="358.433" font-family="Calibri" font-size="7.5" fill="rgb(0,0,0)" text-anchor="middle">2</text>
<polygon points="144,351.6 152,351.6 152,359.6 144,359.6" fill="rgb(0,205,0)"/><text xml:space="preserve" x="148" y="358.433" font-family="Calibri" font-size="7.5" fill="rgb(255,255,255)" text-anchor="middle">1</text>
<polygon points="152,351.6 160,351.6 160,359.6 152,359.6" fill="rgb(0,205,0)"/><text xml:space="preserve" x="156" y="358.433" font-family="Calibri" font-size="7.5" fill="rgb(255,255,255)" text-anchor="middle">1</text>
<polygon points="170,351.6 178,351.6 178,359.6 170,359.6" fill="rgb(20,108,139)"/>
<polygon points="178,351.6 186,351.6 186,359.6 178,359.6" fill="rgb(1,33,135)"/>
<polygon points="186,351.6 194,351.6 194,359.6 186,359.6" fill="rgb(1,34,135)"/>
<polygon points="194,351.6 202,351.6 202,359.6 194,359.6" fill="rgb(1,32,135)"/>
<polygon points="212,351.6 220,351.6 220,359.6 212,359.6" fill="rgb(255,255,255)"/>
<polygon points="220,351.6 228,351.6 228,359.6 220,359.6" fill="rgb(255,255,255)"/>
<polygon points="228,351.6 236,351.6 236,359.6 228,359.6" fill="rgb(255,255,255)"/>
<polygon points="236,351.6 244,351.6 244,359.6 236,359.6" fill="rgb(255,255,255)"/>
<polygon points="244,351.6 252,351.6 252,359.6 244,359.6" fill="rgb(255,255,255)"/>
<polygon points="252,351.6 260,351.6 260,359.6 252,359.6" fill="rgb(255,255,255)"/>
<polygon points="260,351.6 268,351.6 268,359.6 260,359.6" fill="rgb(255,255,255)"/>
<polygon points="268,351.6 276,351.6 276,359.6 268,359.6" fill="rgb(255,255,255)"/>
<polygon points="128,359.6 136,359.6 136,367.6 128,367.6" fill="rgb(238,170,0)"/><text xml:space="preserve" x="132" y="366.433" font-family="Calibri" font-size="7.5" fill="rgb(0,0,0)" text-anchor="middle">3</text>
<polygon points="136,359.6 144,359.6 144,367.6 136,367.6" fill="rgb(170,238,0)"/><text xml:space="preserve" x="140" y="366.433" font-family="Calibri" font-size="7.5" fill="rgb(0,0,0)" text-anchor="middle">2</text>
<polygon points="144,359.6 152,359.6 152,367.6 144,367.6" fill="rgb(0,205,0)"/><text xml:space="preserve" x="148" y="366.433" font-family="Calibri" font-size="7.5" fill="rgb(255,255,255)" text-anchor="middle">1</text>
<polygon points="152,359.6 160,359.6 160,367.6 152,367.6" fill="rgb(0,205,0)"/><text xml:space="preserve" x="156" y="366.433" font-family="Calibri" font-size="7.5" fill="rgb(255,255,255)" text-anchor="middle">1</text>
<polygon points="170,359.6 178,359.6 178,367.6 170,367.6" fill="rgb(20,108,139)"/>
<polygon points="178,359.6 186,359.6 186,367.6 178,367.6" fill="rgb(1,32,135)"/>
<polygon points="186,359.6 194,359.6 194,367.6 186,367.6" fill="rgb(1,33,135)"/>
<polygon points="194,359.6 202,359.6 202,367.6 194,367.6" fill="rgb(1,34,135)"/>
<polygon points="212,359.6 220,359.6 220,367.6 212,367.6" fill="rgb(255,255,255)"/>
<polygon points="220,359.6 228,359.6 228,367.6 220,367.6" fill="rgb(255,255,255)"/>
<polygon points="228,359.6 236,359.6 236,367.6 228,367.6" fill="rgb(255,255,255)"/>
<polygon points="236,359.6 244,359.6 244,367.6 236,367.6" fill="rgb(255,255,255)"/>
<polygon points="244,359.6 252,359.6 252,367.6 244,367.6" fill="rgb(255,255,255)"/>
<polygon points="252,359.6 260,359.6 260,367.6 252,367.6" fill="rgb(255,255,255)"/>
<polygon points="260,359.6 268,359.6 268,367.6 260,367.6" fill="rgb(255,255,255)"/>
<polygon points="268,359.6 276,359.6 276,367.6 268,367.6" fill="rgb(255,255,255)"/>
<polygon points="128,335.6 160,335.6 160,367.6 128,367.6" fill="none" stroke="black" stroke-width="1"/>
<polygon points="170,335.6 202,335.6 202,367.6 170,367.6" fill="none" stroke="black" stroke-width="1"/>
<polygon points="212,335.6 276,335.6 276,367.6 212,367.6" fill="none" stroke="black" stroke-width="1"/>
<text xml:space="preserve" x="148" y="400.6" font-family="Calibri" font-size="8" text-anchor="middle">ClusterAssignment</text>
<polygon points="108,407.6 128,407.6 128,427.6 108,427.6" fill="rgb(0,205,0)"/><polygon points="108,407.6 128,407.6 128,427.6 108,427.6" fill="none" stroke="black" stroke-width="1"/><text xml:space="preserve" x="118" y="420.433" font-family="Calibri" font-size="7.5" fill="rgb(255,255,255)" text-anchor="middle">1.0</text>
<polygon points="128,407.6 148,407.6 148,427.6 128,427.6" fill="rgb(170,238,0)"/><polygon points="128,407.6 148,407.6 148,427.6 128,427.6" fill="none" stroke="black" stroke-width="1"/><text xml:space="preserve" x="138" y="420.433" font-family="Calibri" font-size="7.5" fill="rgb(0,0,0)" text-anchor="middle">2.0</text>
<polygon points="148,407.6 168,407.6 168,427.6 148,427.6" fill="rgb(238,170,0)"/><polygon points="148,407.6 168,407.6 168,427.6 148,427.6" fill="none" stroke="black" stroke-width="1"/><text xml:space="preserve" x="158" y="420.433" font-family="Calibri" font-size="7.5" fill="rgb(0,0,0)" text-anchor="middle">3.0</text>
<polygon points="168,407.6 188,407.6 188,427.6 168,427.6" fill="rgb(205,0,0)"/><polygon points="168,407.6 188,407.6 188,427.6 168,427.6" fill="none" stroke="black" stroke-width="1"/><text xml:space="preserve" x="178" y="420.433" font-family="Calibri" font-size="7.5" fill="rgb(255,255,255)" text-anchor="middle">4.0</text>
<text xml:space="preserve" x="148" y="460.6" font-family="Calibri" font-size="8" text-anchor="middle">Expression</text>
<polygon points="108,467.6 128,467.6 128,487.6 108,487.6" fill="rgb(0,27,135)"/><polygon points="108,467.6 128,467.6 128,487.6 108,487.6" fill="none" stroke="black" stroke-width="1"/><text xml:space="preserve" x="118" y="480.433" font-family="Calibri" font-size="7.5" fill="rgb(255,255,255)" text-anchor="middle">0.0</text>
<polygon points="128,467.6 148,467.6 148,487.6 128,487.6" fill="rgb(32,155,142)"/><polygon points="128,467.6 148,467.6 148,487.6 128,487.6" fill="none" stroke="black" stroke-width="1"/><text xml:space="preserve" x="138" y="480.433" font-family="Calibri" font-size="7.5" fill="rgb(255,255,255)" text-anchor="middle">1.0</text>
<polygon points="148,467.6 168,467.6 168,487.6 148,487.6" fill="rgb(116,210,97)"/><polygon points="148,467.6 168,467.6 168,487.6 148,487.6" fill="none" stroke="black" stroke-width="1"/><text xml:space="preserve" x="158" y="480.433" font-family="Calibri" font-size="7.5" fill="rgb(0,0,0)" text-anchor="middle">2.0</text>
<polygon points="168,467.6 188,467.6 188,487.6 168,487.6" fill="rgb(252,194,1)"/><polygon points="168,467.6 188,467.6 188,487.6 168,487.6" fill="none" stroke="black" stroke-width="1"/><text xml:space="preserve" x="178" y="480.433" font-family="Calibri" font-size="7.5" fill="rgb(0,0,0)" text-anchor="middle">3.0</text>
<text xml:space="preserve" x="148" y="520.6" font-family="Calibri" font-size="8" text-anchor="middle">PANTHERclass</text>
<polygon points="108,527.6 128,527.6 128,547.6 108,547.6" fill="rgb(255,255,255)"/><polygon points="108,527.6 128,527.6 128,547.6 108,547.6" fill="none" stroke="black" stroke-width="1"/><text xml:space="preserve" x="118" y="540.433" font-family="Calibri" font-size="7.5" fill="rgb(0,0,0)" text-anchor="middle">0.0</text>
<polygon points="128,527.6 148,527.6 148,547.6 128,547.6" fill="rgb(238,170,238)"/><polygon points="128,527.6 148,527.6 148,547.6 128,547.6" fill="none" stroke="black" stroke-width="1"/><text xml:space="preserve" x="138" y="540.433" font-family="Calibri" font-size="7.5" fill="rgb(0,0,0)" text-anchor="middle">0.3</text>
<polygon points="148,527.6 168,527.6 168,547.6 148,547.6" fill="rgb(221,84,221)"/><polygon points="148,527.6 168,527.6 168,547.6 148,547.6" fill="none" stroke="black" stroke-width="1"/><text xml:space="preserve" x="158" y="540.433" font-family="Calibri" font-size="7.5" fill="rgb(0,0,0)" text-anchor="middle">0.7</text>
<polygon points="168,527.6 188,527.6 188,547.6 168,547.6" fill="rgb(205,0,205)"/><polygon points="168,527.6 188,527.6 188,547.6 168,547.6" fill="none" stroke="black" stroke-width="1"/><text xml:space="preserve" x="178" y="540.433" font-family="Calibri" font-size="7.5" fill="rgb(255,255,255)" text-anchor="middle">1.0</text>
</svg>
