<?xml version="1.0" standalone="no"?><!DOCTYPE svg PUBLIC "-//W3C//DTD SVG 1.1//EN" "http://www.w3.org/Graphics/SVG/1.1/DTD/svg11.dtd">
<svg width="267.8" height="583.6" version="1.1" xmlns="http://www.w3.org/2000/svg">
<text xml:space="preserve" x="95.8" y="342.6" font-family="Calibri" font-size="8" text-anchor="end">ANO4</text>
<text xml:space="preserve" x="95.8" y="350.6" font-family="Calibri" font-size="8" text-anchor="end">DPY19L4</text>
<text xml:space="preserve" x="95.8" y="358.6" font-family="Calibri" font-size="8" text-anchor="end">TMC7</text>
<text xml:space="preserve" x="95.8" y="366.6" font-family="Calibri" font-size="8" text-anchor="end">SNX25</text>
<text xml:space="preserve" x="95.8" y="374.6" font-family="Calibri" font-size="8" text-anchor="end">C3orf18</text>
<text xml:space="preserve" x="95.8" y="382.6" font-family="Calibri" font-size="8" text-anchor="end">NETO1</text>
<text xml:space="preserve" x="106.8" y="331.6" font-family="Calibri" font-size="8" transform="rotate(270 106.8 331.6)">c1</text>
<text xml:space="preserve" x="114.8" y="331.6" font-family="Calibri" font-size="8" transform="rotate(270 114.8 331.6)">c3</text>
<text xml:space="preserve" x="122.8" y="331.6" font-family="Calibri" font-size="8" transform="rotate(270 122.8 331.6)">c2</text>
<text xml:space="preserve" x="130.8" y="331.6" font-family="Calibri" font-size="8" transform="rotate(270 130.8 331.6)">c4</text>
<text xml:space="preserve" x="148.8" y="331.6" font-family="Calibri" font-size="8" transform="rotate(270 148.8 331.6)">c1_mean</text>
<text xml:space="preserve" x="156.8" y="331.6" font-family="Calibri" font-size="8" transform="rotate(270 156.8 331.6)">c3_mean</text>
<text xml:space="preserve" x="164.8" y="331.6" font-family="Calibri" font-size="8" transform="rotate(270 164.8 331.6)">c2_mean</text>
<text xml:space="preserve" x="172.8" y="331.6" font-family="Calibri" font-size="8" transform="rotate(270 172.8 331.6)">c4_mean</text>
<text xml:space="preserve" x="190.8" y="331.6" font-family="Calibri" font-size="8" transform="rotate(270 190.8 331.6)">transcription_factor</text>
<text xml:space="preserve" x="198.8" y="331.6" font-family="Calibri" font-size="8" transform="rotate(270 198.8 331.6)">transmembrane_signal_receptor</text>
<text xml:space="preserve" x="206.8" y="331.6" font-family="Calibri" font-size="8" transform="rotate(270 206.8 331.6)">growth_factor</text>
<text xml:space="preserve" x="214.8" y="331.6" font-family="Calibri" font-size="8" transform="rotate(270 214.8 331.6)">peptide_hormone</text>
<text xml:space="preserve" x="222.8" y="331.6" font-family="Calibri" font-size="8" transform="rotate(270 222.8 331.6)">cytoskeletal_protein</text>
<text xml:space="preserve" x="230.8" y="331.6" font-family="Calibri" font-size="8" transform="rotate(270 230.8 331.6)">ion_channel</text>
<text xml:space="preserve" x="238.8" y="331.6" font-family="Calibri" font-size="8" transform="rotate(270 238.8 331.6)">integrin</text>
<text xml:space="preserve" x="246.8" y="331.6" font-family="Calibri" font-size="8" transform="rotate(270 246.8 331.6)">extracellular_matrix_protein</text>
<polygon points="99.8,335.6 107.8,335.6 107.8,343.6 99.8,343.6" fill="rgb(238,170,0)"/><text xml:space="preserve" x="103.8" y="342.433" font-family="Calibri" font-size="7.5" fill="rgb(0,0,0)" text-anchor="middle">3</text>
<polygon points="107.8,335.6 115.8,335.6 115.8,343.6 107.8,343.6" fill="rgb(0,205,0)"/><text xml:space="preserve" x="111.8" y="342.433" font-family="Calibri" font-size="7.5" fill="rgb(255,255,255)" text-anchor="middle">1</text>
<polygon points="115.8,335.6 123.8,335.6 123.8,343.6 115.8,343.6" fill="rgb(0,205,0)"/><text xml:space="preserve" x="119.8" y="342.433" font-family="Calibri" font-size="7.5" fill="rgb(255,255,255)" text-anchor="middle">1</text>
<polygon points="123.8,335.6 131.8,335.6 131.8,343.6 123.8,343.6" fill="rgb(238,170,0)"/><text xml:space="preserve" x="127.8" y="342.433" font-family="Calibri" font-size="7.5" fill="rgb(0,0,0)" text-anchor="middle">3</text>
<polygon points="141.8,335.6 149.8,335.6 149.8,343.6 141.8,343.6" fill="rgb(7,55,136)"/>
<polygon points="149.8,335.6 157.8,335.6 157.8,343.6 149.8,343.6" fill="rgb(4,46,136)"/>
<polygon points="157.8,335.6 165.8,335.6 165.8,343.6 157.8,343.6" fill="rgb(13,78,137)"/>
<polygon points="165.8,335.6 173.8,335.6 173.8,343.6 165.8,343.6" fill="rgb(18,101,139)"/>
<polygon points="183.8,335.6 191.8,335.6 191.8,343.6 183.8,343.6" fill="rgb(255,255,255)"/>
<polygon points="191.8,335.6 199.8,335.6 199.8,343.6 191.8,343.6" fill="rgb(255,255,255)"/>
<polygon points="199.8,335.6 207.8,335.6 207.8,343.6 199.8,343.6" fill="rgb(255,255,255)"/>
<polygon points="207.8,335.6 215.8,335.6 215.8,343.6 207.8,343.6" fill="rgb(255,255,255)"/>
<polygon points="215.8,335.6 223.8,335.6 223.8,343.6 215.8,343.6" fill="rgb(255,255,255)"/>
<polygon points="223.8,335.6 231.8,335.6 231.8,343.6 223.8,343.6" fill="rgb(255,255,255)"/>
<polygon points="231.8,335.6 239.8,335.6 239.8,343.6 231.8,343.6" fill="rgb(255,255,255)"/>
<polygon points="239.8,335.6 247.8,335.6 247.8,343.6 239.8,343.6" fill="rgb(255,255,255)"/>
<polygon points="99.8,343.6 107.8,343.6 107.8,351.6 99.8,351.6" fill="rgb(238,170,0)"/><text xml:space="preserve" x="103.8" y="350.433" font-family="Calibri" font-size="7.5" fill="rgb(0,0,0)" text-anchor="middle">3</text>
<polygon points="107.8,343.6 115.8,343.6 115.8,351.6 107.8,351.6" fill="rgb(0,205,0)"/><text xml:space="preserve" x="111.8" y="350.433" font-family="Calibri" font-size="7.5" fill="rgb(255,255,255)" text-anchor="middle">1</text>
<polygon points="115.8,343.6 123.8,343.6 123.8,351.6 115.8,351.6" fill="rgb(0,205,0)"/><text xml:space="preserve" x="119.8" y="350.433" font-family="Calibri" font-size="7.5" fill="rgb(255,255,255)" text-anchor="middle">1</text>
<polygon points="123.8,343.6 131.8,343.6 131.8,351.6 123.8,351.6" fill="rgb(238,170,0)"/><text xml:space="preserve" x="127.8" y="350.433" font-family="Calibri" font-size="7.5" fill="rgb(0,0,0)" text-anchor="middle">3</text>
<polygon points="141.8,343.6 149.8,343.6 149.8,351.6 141.8,351.6" fill="rgb(12,76,137)"/>
<polygon points="149.8,343.6 157.8,343.6 157.8,351.6 149.8,351.6" fill="rgb(9,62,137)"/>
<polygon points="157.8,343.6 165.8,343.6 165.8,351.6 157.8,351.6" fill="rgb(11,73,137)"/>
<polygon points="165.8,343.6 173.8,343.6 173.8,351.6 165.8,351.6" fill="rgb(11,73,137)"/>
<polygon points="183.8,343.6 191.8,343.6 191.8,351.6 183.8,351.6" fill="rgb(255,255,255)"/>
<polygon points="191.8,343.6 199.8,343.6 199.8,351.6 191.8,351.6" fill="rgb(255,255,255)"/>
<polygon points="199.8,343.6 207.8,343.6 207.8,351.6 199.8,351.6" fill="rgb(255,255,255)"/>
<polygon points="207.8,343.6 215.8,343.6 215.8,351.6 207.8,351.6" fill="rgb(255,255,255)"/>
<polygon points="215.8,343.6 223.8,343.6 223.8,351.6 215.8,351.6" fill="rgb(255,255,255)"/>
<polygon points="223.8,343.6 231.8,343.6 231.8,351.6 223.8,351.6" fill="rgb(255,255,255)"/>
<polygon points="231.8,343.6 239.8,343.6 239.8,351.6 231.8,351.6" fill="rgb(255,255,255)"/>
<polygon points="239.8,343.6 247.8,343.6 247.8,351.6 239.8,351.6" fill="rgb(255,255,255)"/>
<polygon points="99.8,351.6 107.8,351.6 107.8,359.6 99.8,359.6" fill="rgb(238,170,0)"/><text xml:space="preserve" x="103.8" y="358.433" font-family="Calibri" font-size="7.5" fill="rgb(0,0,0)" text-anchor="middle">3</text>
<polygon points="107.8,351.6 115.8,351.6 115.8,359.6 107.8,359.6" fill="rgb(0,205,0)"/><text xml:space="preserve" x="111.8" y="358.433" font-family="Calibri" font-size="7.5" fill="rgb(255,255,255)" text-anchor="middle">1</text>
<polygon points="115.8,351.6 123.8,351.6 123.8,359.6 115.8,359.6" fill="rgb(0,205,0)"/><text xml:space="preserve" x="119.8" y="358.433" font-family="Calibri" font-size="7.5" fill="rgb(255,255,255)" text-anchor="middle">1</text>
<polygon points="123.8,351.6 131.8,351.6 131.8,359.6 123.8,359.6" fill="rgb(238,170,0)"/><text xml:space="preserve" x="127.8" y="358.433" font-family="Calibri" font-size="7.5" fill="rgb(0,0,0)" text-anchor="middle">3</text>
<polygon points="141.8,351.6 149.8,351.6 149.8,359.6 141.8,359.6" fill="rgb(7,55,136)"/>
<polygon points="149.8,351.6 157.8,351.6 157.8,359.6 149.8,359.6" fill="rgb(9,65,137)"/>
<polygon points="157.8,351.6 165.8,351.6 165.8,359.6 157.8,359.6" fill="rgb(13,79,138)"/>
<polygon points="165.8,351.6 173.8,351.6 173.8,359.6 165.8,359.6" fill="rgb(14,83,138)"/>
<polygon points="183.8,351.6 191.8,351.6 191.8,359.6 183.8,359.6" fill="rgb(255,255,255)"/>
<polygon points="191.8,351.6 199.8,351.6 199.8,359.6 191.8,359.6" fill="rgb(255,255,255)"/>
<polygon points="199.8,351.6 207.8,351.6 207.8,359.6 199.8,359.6" fill="rgb(255,255,255)"/>
<polygon points="207.8,351.6 215.8,351.6 215.8,359.6 207.8,359.6" fill="rgb(255,255,255)"/>
<polygon points="215.8,351.6 223.8,351.6 223.8,359.6 215.8,359.6" fill="rgb(255,255,255)"/>
<polygon points="223.8,351.6 231.8,351.6 231.8,359.6 223.8,359.6" fill="rgb(205,0,205)"/>
<polygon points="231.8,351.6 239.8,351.6 239.8,359.6 231.8,359.6" fill="rgb(255,255,255)"/>
<polygon points="239.8,351.6 247.8,351.6 247.8,359.6 239.8,359.6" fill="rgb(255,255,255)"/>
<polygon points="99.8,359.6 107.8,359.6 107.8,367.6 99.8,367.6" fill="rgb(238,170,0)"/><text xml:space="preserve" x="103.8" y="366.433" font-family="Calibri" font-size="7.5" fill="rgb(0,0,0)" text-anchor="middle">3</text>
<polygon points="107.8,359.6 115.8,359.6 115.8,367.6 107.8,367.6" fill="rgb(0,205,0)"/><text xml:space="preserve" x="111.8" y="366.433" font-family="Calibri" font-size="7.5" fill="rgb(255,255,255)" text-anchor="middle">1</text>
<polygon points="115.8,359.6 123.8,359.6 123.8,367.6 115.8,367.6" fill="rgb(0,205,0)"/><text xml:space="preserve" x="119.8" y="366.433" font-family="Calibri" font-size="7.5" fill="rgb(255,255,255)" text-anchor="middle">1</text>
<polygon points="123.8,359.6 131.8,359.6 131.8,367.6 123.8,367.6" fill="rgb(238,170,0)"/><text xml:space="preserve" x="127.8" y="366.433" font-family="Calibri" font-size="7.5" fill="rgb(0,0,0)" text-anchor="middle">3</text>
<polygon points="141.8,359.6 149.8,359.6 149.8,367.6 141.8,367.6" fill="rgb(10,66,137)"/>
<polygon points="149.8,359.6 157.8,359.6 157.8,367.6 149.8,367.6" fill="rgb(9,64,137)"/>
<polygon points="157.8,359.6 165.8,359.6 165.8,367.6 157.8,367.6" fill="rgb(12,76,137)"/>
<polygon points="165.8,359.6 173.8,359.6 173.8,367.6 165.8,367.6" fill="rgb(12,76,137)"/>
<polygon points="183.8,359.6 191.8,359.6 191.8,367.6 183.8,367.6" fill="rgb(255,255,255)"/>
<polygon points="191.8,359.6 199.8,359.6 199.8,367.6 191.8,367.6" fill="rgb(255,255,255)"/>
<polygon points="199.8,359.6 207.8,359.6 207.8,367.6 199.8,367.6" fill="rgb(255,255,255)"/>
<polygon points="207.8,359.6 215.8,359.6 215.8,367.6 207.8,367.6" fill="rgb(255,255,255)"/>
<polygon points="215.8,359.6 223.8,359.6 223.8,367.6 215.8,367.6" fill="rgb(255,255,255)"/>
<polygon points="223.8,359.6 231.8,359.6 231.8,367.6 223.8,367.6" fill="rgb(255,255,255)"/>
<polygon points="231.8,359.6 239.8,359.6 239.8,367.6 231.8,367.6" fill="rgb(255,255,255)"/>
<polygon points="239.8,359.6 247.8,359.6 247.8,367.6 239.8,367.6" fill="rgb(255,255,255)"/>
<polygon points="99.8,367.6 107.8,367.6 107.8,375.6 99.8,375.6" fill="rgb(238,170,0)"/><text xml:space="preserve" x="103.8" y="374.433" font-family="Calibri" font-size="7.5" fill="rgb(0,0,0)" text-anchor="middle">3</text>
<polygon points="107.8,367.6 115.8,367.6 115.8,375.6 107.8,375.6" fill="rgb(0,205,0)"/><text xml:space="preserve" x="111.8" y="374.433" font-family="Calibri" font-size="7.5" fill="rgb(255,255,255)" text-anchor="middle">1</text>
<polygon points="115.8,367.6 123.8,367.6 123.8,375.6 115.8,375.6" fill="rgb(0,205,0)"/><text xml:space="preserve" x="119.8" y="374.433" font-family="Calibri" font-size="7.5" fill="rgb(255,255,255)" text-anchor="middle">1</text>
<polygon points="123.8,367.6 131.8,367.6 131.8,375.6 123.8,375.6" fill="rgb(238,170,0)"/><text xml:space="preserve" x="127.8" y="374.433" font-family="Calibri" font-size="7.5" fill="rgb(0,0,0)" text-anchor="middle">3</text>
<polygon points="141.8,367.6 149.8,367.6 149.8,375.6 141.8,375.6" fill="rgb(9,62,137)"/>
<polygon points="149.8,367.6 157.8,367.6 157.8,375.6 149.8,375.6" fill="rgb(9,64,137)"/>
<polygon points="157.8,367.6 165.8,367.6 165.8,375.6 157.8,375.6" fill="rgb(11,70,137)"/>
<polygon points="165.8,367.6 173.8,367.6 173.8,375.6 165.8,375.6" fill="rgb(15,85,138)"/>
<polygon points="183.8,367.6 191.8,367.6 191.8,375.6 183.8,375.6" fill="rgb(255,255,255)"/>
<polygon points="191.8,367.6 199.8,367.6 199.8,375.6 191.8,375.6" fill="rgb(255,255,255)"/>
<polygon points="199.8,367.6 207.8,367.6 207.8,375.6 199.8,375.6" fill="rgb(255,255,255)"/>
<polygon points="207.8,367.6 215.8,367.6 215.8,375.6 207.8,375.6" fill="rgb(255,255,255)"/>
<polygon points="215.8,367.6 223.8,367.6 223.8,375.6 215.8,375.6" fill="rgb(255,255,255)"/>
<polygon points="223.8,367.6 231.8,367.6 231.8,375.6 223.8,375.6" fill="rgb(255,255,255)"/>
<polygon points="231.8,367.6 239.8,367.6 239.8,375.6 231.8,375.6" fill="rgb(255,255,255)"/>
<polygon points="239.8,367.6 247.8,367.6 247.8,375.6 239.8,375.6" fill="rgb(255,255,255)"/>
<polygon points="99.8,375.6 107.8,375.6 107.8,383.6 99.8,383.6" fill="rgb(238,170,0)"/><text xml:space="preserve" x="103.8" y="382.433" font-family="Calibri" font-size="7.5" fill="rgb(0,0,0)" text-anchor="middle">3</text>
<polygon points="107.8,375.6 115.8,375.6 115.8,383.6 107.8,383.6" fill="rgb(0,205,0)"/><text xml:space="preserve" x="111.8" y="382.433" font-family="Calibri" font-size="7.5" fill="rgb(255,255,255)" text-anchor="middle">1</text>
<polygon points="115.8,375.6 123.8,375.6 123.8,383.6 115.8,383.6" fill="rgb(0,205,0)"/><text xml:space="preserve" x="119.8" y="382.433" font-family="Calibri" font-size="7.5" fill="rgb(255,255,255)" text-anchor="middle">1</text>
<polygon points="123.8,375.6 131.8,375.6 131.8,383.6 123.8,383.6" fill="rgb(238,170,0)"/><text xml:space="preserve" x="127.8" y="382.433" font-family="Calibri" font-size="7.5" fill="rgb(0,0,0)" text-anchor="middle">3</text>
<polygon points="141.8,375.6 149.8,375.6 149.8,383.6 141.8,383.6" fill="rgb(14,83,138)"/>
<polygon points="149.8,375.6 157.8,375.6 157.8,383.6 149.8,383.6" fill="rgb(7,55,136)"/>
<polygon points="157.8,375.6 165.8,375.6 165.8,383.6 157.8,383.6" fill="rgb(5,47,136)"/>
<polygon points="165.8,375.6 173.8,375.6 173.8,383.6 165.8,383.6" fill="rgb(18,99,139)"/>
<polygon points="183.8,375.6 191.8,375.6 191.8,383.6 183.8,383.6" fill="rgb(255,255,255)"/>
<polygon points="191.8,375.6 199.8,375.6 199.8,383.6 191.8,383.6" fill="rgb(255,255,255)"/>
<polygon points="199.8,375.6 207.8,375.6 207.8,383.6 199.8,383.6" fill="rgb(255,255,255)"/>
<polygon points="207.8,375.6 215.8,375.6 215.8,383.6 207.8,383.6" fill="rgb(255,255,255)"/>
<polygon points="215.8,375.6 223.8,375.6 223.8,383.6 215.8,383.6" fill="rgb(255,255,255)"/>
<polygon points="223.8,375.6 231.8,375.6 231.8,383.6 223.8,383.6" fill="rgb(255,255,255)"/>
<polygon points="231.8,375.6 239.8,375.6 239.8,383.6 231.8,383.6" fill="rgb(255,255,255)"/>
<polygon points="239.8,375.6 247.8,375.6 247.8,383.6 239.8,383.6" fill="rgb(255,255,255)"/>
<polygon points="99.8,335.6 131.8,335.6 131.8,383.6 99.8,383.6" fill="none" stroke="black" stroke-width="1"/>
<polygon points="141.8,335.6 173.8,335.6 173.8,383.6 141.8,383.6" fill="none" stroke="black" stroke-width="1"/>
<polygon points="183.8,335.6 247.8,335.6 247.8,383.6 183.8,383.6" fill="none" stroke="black" stroke-width="1"/>
<text xml:space="preserve" x="133.9" y="416.6" font-family="Calibri" font-size="8" text-anchor="middle">ClusterAssignment</text>
<polygon points="93.9,423.6 113.9,423.6 113.9,443.6 93.9,443.6" fill="rgb(0,205,0)"/><polygon points="93.9,423.6 113.9,423.6 113.9,443.6 93.9,443.6" fill="none" stroke="black" stroke-width="1"/><text xml:space="preserve" x="103.9" y="436.433" font-family="Calibri" font-size="7.5" fill="rgb(255,255,255)" text-anchor="middle">1.0</text>
<polygon points="113.9,423.6 133.9,423.6 133.9,443.6 113.9,443.6" fill="rgb(170,238,0)"/><polygon points="113.9,423.6 133.9,423.6 133.9,443.6 113.9,443.6" fill="none" stroke="black" stroke-width="1"/><text xml:space="preserve" x="123.9" y="436.433" font-family="Calibri" font-size="7.5" fill="rgb(0,0,0)" text-anchor="middle">2.0</text>
<polygon points="133.9,423.6 153.9,423.6 153.9,443.6 133.9,443.6" fill="rgb(238,170,0)"/><polygon points="133.9,423.6 153.9,423.6 153.9,443.6 133.9,443.6" fill="none" stroke="black" stroke-width="1"/><text xml:space="preserve" x="143.9" y="436.433" font-family="Calibri" font-size="7.5" fill="rgb(0,0,0)" text-anchor="middle">3.0</text>
<polygon points="153.9,423.6 173.9,423.6 173.9,443.6 153.9,443.6" fill="rgb(205,0,0)"/><polygon points="153.9,423.6 173.9,423.6 173.9,443.6 153.9,443.6" fill="none" stroke="black" stroke-width="1"/><text xml:space="preserve" x="163.9" y="436.433" font-family="Calibri" font-size="7.5" fill="rgb(255,255,255)" text-anchor="middle">4.0</text>
<text xml:space="preserve" x="133.9" y="476.6" font-family="Calibri" font-size="8" text-anchor="middle">Expression</text>
<polygon points="93.9,483.6 113.9,483.6 113.9,503.6 93.9,503.6" fill="rgb(0,27,135)"/><polygon points="93.9,483.6 113.9,483.6 113.9,503.6 93.9,503.6" fill="none" stroke="black" stroke-width="1"/><text xml:space="preserve" x="103.9" y="496.433" font-family="Calibri" font-size="7.5" fill="rgb(255,255,255)" text-anchor="middle">0.0</text>
<polygon points="113.9,483.6 133.9,483.6 133.9,503.6 113.9,503.6" fill="rgb(32,155,142)"/><polygon points="113.9,483.6 133.9,483.6 133.9,503.6 113.9,503.6" fill="none" stroke="black" stroke-width="1"/><text xml:space="preserve" x="123.9" y="496.433" font-family="Calibri" font-size="7.5" fill="rgb(255,255,255)" text-anchor="middle">1.0</text>
<polygon points="133.9,483.6 153.9,483.6 153.9,503.6 133.9,503.6" fill="rgb(116,210,97)"/><polygon points="133.9,483.6 153.9,483.6 153.9,503.6 133.9,503.6" fill="none" stroke="black" stroke-width="1"/><text xml:space="preserve" x="143.9" y="496.433" font-family="Calibri" font-size="7.5" fill="rgb(0,0,0)" text-anchor="middle">2.0</text>
<polygon points="153.9,483.6 173.9,483.6 173.9,503.6 153.9,503.6" fill="rgb(252,194,1)"/><polygon points="153.9,483.6 173.9,483.6 173.9,503.6 153.9,503.6" fill="none" stroke="black" stroke-width="1"/><text xml:space="preserve" x="163.9" y="496.433" font-family="Calibri" font-size="7.5" fill="rgb(0,0,0)" text-anchor="middle">3.0</text>
<text xml:space="preserve" x="133.9" y="536.6" font-family="Calibri" font-size="8" text-anchor="middle">PANTHERclass</text>
<polygon points="93.9,543.6 113.9,543.6 113.9,563.6 93.9,563.6" fill="rgb(255,255,255)"/><polygon points="93.9,543.6 113.9,543.6 113.9,563.6 93.9,563.6" fill="none" stroke="black" stroke-width="1"/><text xml:space="preserve" x="103.9" y="556.433" font-family="Calibri" font-size="7.5" fill="rgb(0,0,0)" text-anchor="middle">0.0</text>
<polygon points="113.9,543.6 133.9,543.6 133.9,563.6 113.9,563.6" fill="rgb(238,170,238)"/><polygon points="113.9,543.6 133.9,543.6 133.9,563.6 113.9,563.6" fill="none" stroke="black" stroke-width="1"/><text xml:space="preserve" x="123.9" y="556.433" font-family="Calibri" font-size="7.5" fill="rgb(0,0,0)" text-anchor="middle">0.3</text>
<polygon points="133.9,543.6 153.9,543.6 153.9,563.6 133.9,563.6" fill="rgb(221,84,221)"/><polygon points="133.9,543.6 153.9,543.6 153.9,563.6 133.9,563.6" fill="none" stroke="black" stroke-width="1"/><text xml:space="preserve" x="143.9" y="556.433" font-family="Calibri" font-size="7.5" fill="rgb(0,0,0)" text-anchor="middle">0.7</text>
<polygon points="153.9,543.6 173.9,543.6 173.9,563.6 153.9,563.6" fill="rgb(205,0,205)"/><polygon points="153.9,543.6 173.9,543.6 173.9,563.6 153.9,563.6" fill="none" stroke="black" stroke-width="1"/><text xml:space="preserve" x="163.9" y="556.433" font-family="Calibri" font-size="7.5" fill="rgb(255,255,255)" text-anchor="middle">1.0</text>
</svg>
