<?xml version="1.0" standalone="no"?><!DOCTYPE svg PUBLIC "-//W3C//DTD SVG 1.1//EN" "http://www.w3.org/Graphics/SVG/1.1/DTD/svg11.dtd">
<svg width="260.3" height="583.6" version="1.1" xmlns="http://www.w3.org/2000/svg">
<text xml:space="preserve" x="88.3" y="342.6" font-family="Calibri" font-size="8" text-anchor="end">CRABP2</text>
<text xml:space="preserve" x="88.3" y="350.6" font-family="Calibri" font-size="8" text-anchor="end">SLC6A5</text>
<text xml:space="preserve" x="88.3" y="358.6" font-family="Calibri" font-size="8" text-anchor="end">PCDH9</text>
<text xml:space="preserve" x="88.3" y="366.6" font-family="Calibri" font-size="8" text-anchor="end">GAD1</text>
<text xml:space="preserve" x="88.3" y="374.6" font-family="Calibri" font-size="8" text-anchor="end">PNP</text>
<text xml:space="preserve" x="88.3" y="382.6" font-family="Calibri" font-size="8" text-anchor="end">JUN</text>
<text xml:space="preserve" x="99.3" y="331.6" font-family="Calibri" font-size="8" transform="rotate(270 99.3 331.6)">c1</text>
<text xml:space="preserve" x="107.3" y="331.6" font-family="Calibri" font-size="8" transform="rotate(270 107.3 331.6)">c3</text>
<text xml:space="preserve" x="115.3" y="331.6" font-family="Calibri" font-size="8" transform="rotate(270 115.3 331.6)">c2</text>
<text xml:space="preserve" x="123.3" y="331.6" font-family="Calibri" font-size="8" transform="rotate(270 123.3 331.6)">c4</text>
<text xml:space="preserve" x="141.3" y="331.6" font-family="Calibri" font-size="8" transform="rotate(270 141.3 331.6)">c1_mean</text>
<text xml:space="preserve" x="149.3" y="331.6" font-family="Calibri" font-size="8" transform="rotate(270 149.3 331.6)">c3_mean</text>
<text xml:space="preserve" x="157.3" y="331.6" font-family="Calibri" font-size="8" transform="rotate(270 157.3 331.6)">c2_mean</text>
<text xml:space="preserve" x="165.3" y="331.6" font-family="Calibri" font-size="8" transform="rotate(270 165.3 331.6)">c4_mean</text>
<text xml:space="preserve" x="183.3" y="331.6" font-family="Calibri" font-size="8" transform="rotate(270 183.3 331.6)">transcription_factor</text>
<text xml:space="preserve" x="191.3" y="331.6" font-family="Calibri" font-size="8" transform="rotate(270 191.3 331.6)">transmembrane_signal_receptor</text>
<text xml:space="preserve" x="199.3" y="331.6" font-family="Calibri" font-size="8" transform="rotate(270 199.3 331.6)">growth_factor</text>
<text xml:space="preserve" x="207.3" y="331.6" font-family="Calibri" font-size="8" transform="rotate(270 207.3 331.6)">peptide_hormone</text>
<text xml:space="preserve" x="215.3" y="331.6" font-family="Calibri" font-size="8" transform="rotate(270 215.3 331.6)">cytoskeletal_protein</text>
<text xml:space="preserve" x="223.3" y="331.6" font-family="Calibri" font-size="8" transform="rotate(270 223.3 331.6)">ion_channel</text>
<text xml:space="preserve" x="231.3" y="331.6" font-family="Calibri" font-size="8" transform="rotate(270 231.3 331.6)">integrin</text>
<text xml:space="preserve" x="239.3" y="331.6" font-family="Calibri" font-size="8" transform="rotate(270 239.3 331.6)">extracellular_matrix_protein</text>
<polygon points="92.3,335.6 100.3,335.6 100.3,343.6 92.3,343.6" fill="rgb(238,170,0)"/><text xml:space="preserve" x="96.3" y="342.433" font-family="Calibri" font-size="7.5" fill="rgb(0,0,0)" text-anchor="middle">3</text>
<polygon points="100.3,335.6 108.3,335.6 108.3,343.6 100.3,343.6" fill="rgb(238,170,0)"/><text xml:space="preserve" x="104.3" y="342.433" font-family="Calibri" font-size="7.5" fill="rgb(0,0,0)" text-anchor="middle">3</text>
<polygon points="108.3,335.6 116.3,335.6 116.3,343.6 108.3,343.6" fill="rgb(205,0,0)"/><text xml:space="preserve" x="112.3" y="342.433" font-family="Calibri" font-size="7.5" fill="rgb(255,255,255)" text-anchor="middle">4</text>
<polygon points="116.3,335.6 124.3,335.6 124.3,343.6 116.3,343.6" fill="rgb(238,170,0)"/><text xml:space="preserve" x="120.3" y="342.433" font-family="Calibri" font-size="7.5" fill="rgb(0,0,0)" text-anchor="middle">3</text>
<polygon points="134.3,335.6 142.3,335.6 142.3,343.6 134.3,343.6" fill="rgb(26,129,140)"/>
<polygon points="142.3,335.6 150.3,335.6 150.3,343.6 142.3,343.6" fill="rgb(4,44,136)"/>
<polygon points="150.3,335.6 158.3,335.6 158.3,343.6 150.3,343.6" fill="rgb(172,203,58)"/>
<polygon points="158.3,335.6 166.3,335.6 166.3,343.6 158.3,343.6" fill="rgb(11,71,137)"/>
<polygon points="176.3,335.6 184.3,335.6 184.3,343.6 176.3,343.6" fill="rgb(255,255,255)"/>
<polygon points="184.3,335.6 192.3,335.6 192.3,343.6 184.3,343.6" fill="rgb(255,255,255)"/>
<polygon points="192.3,335.6 200.3,335.6 200.3,343.6 192.3,343.6" fill="rgb(255,255,255)"/>
<polygon points="200.3,335.6 208.3,335.6 208.3,343.6 200.3,343.6" fill="rgb(255,255,255)"/>
<polygon points="208.3,335.6 216.3,335.6 216.3,343.6 208.3,343.6" fill="rgb(255,255,255)"/>
<polygon points="216.3,335.6 224.3,335.6 224.3,343.6 216.3,343.6" fill="rgb(255,255,255)"/>
<polygon points="224.3,335.6 232.3,335.6 232.3,343.6 224.3,343.6" fill="rgb(255,255,255)"/>
<polygon points="232.3,335.6 240.3,335.6 240.3,343.6 232.3,343.6" fill="rgb(255,255,255)"/>
<polygon points="92.3,343.6 100.3,343.6 100.3,351.6 92.3,351.6" fill="rgb(238,170,0)"/><text xml:space="preserve" x="96.3" y="350.433" font-family="Calibri" font-size="7.5" fill="rgb(0,0,0)" text-anchor="middle">3</text>
<polygon points="100.3,343.6 108.3,343.6 108.3,351.6 100.3,351.6" fill="rgb(238,170,0)"/><text xml:space="preserve" x="104.3" y="350.433" font-family="Calibri" font-size="7.5" fill="rgb(0,0,0)" text-anchor="middle">3</text>
<polygon points="108.3,343.6 116.3,343.6 116.3,351.6 108.3,351.6" fill="rgb(205,0,0)"/><text xml:space="preserve" x="112.3" y="350.433" font-family="Calibri" font-size="7.5" fill="rgb(255,255,255)" text-anchor="middle">4</text>
<polygon points="116.3,343.6 124.3,343.6 124.3,351.6 116.3,351.6" fill="rgb(238,170,0)"/><text xml:space="preserve" x="120.3" y="350.433" font-family="Calibri" font-size="7.5" fill="rgb(0,0,0)" text-anchor="middle">3</text>
<polygon points="134.3,343.6 142.3,343.6 142.3,351.6 134.3,351.6" fill="rgb(4,46,136)"/>
<polygon points="142.3,343.6 150.3,343.6 150.3,351.6 142.3,351.6" fill="rgb(0,29,135)"/>
<polygon points="150.3,343.6 158.3,343.6 158.3,351.6 150.3,351.6" fill="rgb(45,203,145)"/>
<polygon points="158.3,343.6 166.3,343.6 166.3,351.6 158.3,351.6" fill="rgb(0,29,135)"/>
<polygon points="176.3,343.6 184.3,343.6 184.3,351.6 176.3,351.6" fill="rgb(255,255,255)"/>
<polygon points="184.3,343.6 192.3,343.6 192.3,351.6 184.3,351.6" fill="rgb(255,255,255)"/>
<polygon points="192.3,343.6 200.3,343.6 200.3,351.6 192.3,351.6" fill="rgb(255,255,255)"/>
<polygon points="200.3,343.6 208.3,343.6 208.3,351.6 200.3,351.6" fill="rgb(255,255,255)"/>
<polygon points="208.3,343.6 216.3,343.6 216.3,351.6 208.3,351.6" fill="rgb(255,255,255)"/>
<polygon points="216.3,343.6 224.3,343.6 224.3,351.6 216.3,351.6" fill="rgb(255,255,255)"/>
<polygon points="224.3,343.6 232.3,343.6 232.3,351.6 224.3,351.6" fill="rgb(255,255,255)"/>
<polygon points="232.3,343.6 240.3,343.6 240.3,351.6 232.3,351.6" fill="rgb(255,255,255)"/>
<polygon points="92.3,351.6 100.3,351.6 100.3,359.6 92.3,359.6" fill="rgb(238,170,0)"/><text xml:space="preserve" x="96.3" y="358.433" font-family="Calibri" font-size="7.5" fill="rgb(0,0,0)" text-anchor="middle">3</text>
<polygon points="100.3,351.6 108.3,351.6 108.3,359.6 100.3,359.6" fill="rgb(238,170,0)"/><text xml:space="preserve" x="104.3" y="358.433" font-family="Calibri" font-size="7.5" fill="rgb(0,0,0)" text-anchor="middle">3</text>
<polygon points="108.3,351.6 116.3,351.6 116.3,359.6 108.3,359.6" fill="rgb(205,0,0)"/><text xml:space="preserve" x="112.3" y="358.433" font-family="Calibri" font-size="7.5" fill="rgb(255,255,255)" text-anchor="middle">4</text>
<polygon points="116.3,351.6 124.3,351.6 124.3,359.6 116.3,359.6" fill="rgb(238,170,0)"/><text xml:space="preserve" x="120.3" y="358.433" font-family="Calibri" font-size="7.5" fill="rgb(0,0,0)" text-anchor="middle">3</text>
<polygon points="134.3,351.6 142.3,351.6 142.3,359.6 134.3,359.6" fill="rgb(14,84,138)"/>
<polygon points="142.3,351.6 150.3,351.6 150.3,359.6 142.3,359.6" fill="rgb(24,121,140)"/>
<polygon points="150.3,351.6 158.3,351.6 158.3,359.6 150.3,359.6" fill="rgb(250,194,1)"/>
<polygon points="158.3,351.6 166.3,351.6 166.3,359.6 158.3,359.6" fill="rgb(9,64,137)"/>
<polygon points="176.3,351.6 184.3,351.6 184.3,359.6 176.3,359.6" fill="rgb(255,255,255)"/>
<polygon points="184.3,351.6 192.3,351.6 192.3,359.6 184.3,359.6" fill="rgb(255,255,255)"/>
<polygon points="192.3,351.6 200.3,351.6 200.3,359.6 192.3,359.6" fill="rgb(255,255,255)"/>
<polygon points="200.3,351.6 208.3,351.6 208.3,359.6 200.3,359.6" fill="rgb(255,255,255)"/>
<polygon points="208.3,351.6 216.3,351.6 216.3,359.6 208.3,359.6" fill="rgb(255,255,255)"/>
<polygon points="216.3,351.6 224.3,351.6 224.3,359.6 216.3,359.6" fill="rgb(255,255,255)"/>
<polygon points="224.3,351.6 232.3,351.6 232.3,359.6 224.3,359.6" fill="rgb(255,255,255)"/>
<polygon points="232.3,351.6 240.3,351.6 240.3,359.6 232.3,359.6" fill="rgb(255,255,255)"/>
<polygon points="92.3,359.6 100.3,359.6 100.3,367.6 92.3,367.6" fill="rgb(238,170,0)"/><text xml:space="preserve" x="96.3" y="366.433" font-family="Calibri" font-size="7.5" fill="rgb(0,0,0)" text-anchor="middle">3</text>
<polygon points="100.3,359.6 108.3,359.6 108.3,367.6 100.3,367.6" fill="rgb(238,170,0)"/><text xml:space="preserve" x="104.3" y="366.433" font-family="Calibri" font-size="7.5" fill="rgb(0,0,0)" text-anchor="middle">3</text>
<polygon points="108.3,359.6 116.3,359.6 116.3,367.6 108.3,367.6" fill="rgb(205,0,0)"/><text xml:space="preserve" x="112.3" y="366.433" font-family="Calibri" font-size="7.5" fill="rgb(255,255,255)" text-anchor="middle">4</text>
<polygon points="116.3,359.6 124.3,359.6 124.3,367.6 116.3,367.6" fill="rgb(238,170,0)"/><text xml:space="preserve" x="120.3" y="366.433" font-family="Calibri" font-size="7.5" fill="rgb(0,0,0)" text-anchor="middle">3</text>
<polygon points="134.3,359.6 142.3,359.6 142.3,367.6 134.3,367.6" fill="rgb(9,64,137)"/>
<polygon points="142.3,359.6 150.3,359.6 150.3,367.6 142.3,367.6" fill="rgb(1,32,135)"/>
<polygon points="150.3,359.6 158.3,359.6 158.3,367.6 150.3,367.6" fill="rgb(46,208,145)"/>
<polygon points="158.3,359.6 166.3,359.6 166.3,367.6 158.3,367.6" fill="rgb(1,32,135)"/>
<polygon points="176.3,359.6 184.3,359.6 184.3,367.6 176.3,367.6" fill="rgb(255,255,255)"/>
<polygon points="184.3,359.6 192.3,359.6 192.3,367.6 184.3,367.6" fill="rgb(255,255,255)"/>
<polygon points="192.3,359.6 200.3,359.6 200.3,367.6 192.3,367.6" fill="rgb(255,255,255)"/>
<polygon points="200.3,359.6 208.3,359.6 208.3,367.6 200.3,367.6" fill="rgb(255,255,255)"/>
<polygon points="208.3,359.6 216.3,359.6 216.3,367.6 208.3,367.6" fill="rgb(255,255,255)"/>
<polygon points="216.3,359.6 224.3,359.6 224.3,367.6 216.3,367.6" fill="rgb(255,255,255)"/>
<polygon points="224.3,359.6 232.3,359.6 232.3,367.6 224.3,367.6" fill="rgb(255,255,255)"/>
<polygon points="232.3,359.6 240.3,359.6 240.3,367.6 232.3,367.6" fill="rgb(255,255,255)"/>
<polygon points="92.3,367.6 100.3,367.6 100.3,375.6 92.3,375.6" fill="rgb(238,170,0)"/><text xml:space="preserve" x="96.3" y="374.433" font-family="Calibri" font-size="7.5" fill="rgb(0,0,0)" text-anchor="middle">3</text>
<polygon points="100.3,367.6 108.3,367.6 108.3,375.6 100.3,375.6" fill="rgb(238,170,0)"/><text xml:space="preserve" x="104.3" y="374.433" font-family="Calibri" font-size="7.5" fill="rgb(0,0,0)" text-anchor="middle">3</text>
<polygon points="108.3,367.6 116.3,367.6 116.3,375.6 108.3,375.6" fill="rgb(205,0,0)"/><text xml:space="preserve" x="112.3" y="374.433" font-family="Calibri" font-size="7.5" fill="rgb(255,255,255)" text-anchor="middle">4</text>
<polygon points="116.3,367.6 124.3,367.6 124.3,375.6 116.3,375.6" fill="rgb(238,170,0)"/><text xml:space="preserve" x="120.3" y="374.433" font-family="Calibri" font-size="7.5" fill="rgb(0,0,0)" text-anchor="middle">3</text>
<polygon points="134.3,367.6 142.3,367.6 142.3,375.6 134.3,375.6" fill="rgb(23,119,140)"/>
<polygon points="142.3,367.6 150.3,367.6 150.3,375.6 142.3,375.6" fill="rgb(6,52,136)"/>
<polygon points="150.3,367.6 158.3,367.6 158.3,375.6 150.3,375.6" fill="rgb(61,217,137)"/>
<polygon points="158.3,367.6 166.3,367.6 166.3,375.6 158.3,375.6" fill="rgb(24,124,140)"/>
<polygon points="176.3,367.6 184.3,367.6 184.3,375.6 176.3,375.6" fill="rgb(255,255,255)"/>
<polygon points="184.3,367.6 192.3,367.6 192.3,375.6 184.3,375.6" fill="rgb(255,255,255)"/>
<polygon points="192.3,367.6 200.3,367.6 200.3,375.6 192.3,375.6" fill="rgb(255,255,255)"/>
<polygon points="200.3,367.6 208.3,367.6 208.3,375.6 200.3,375.6" fill="rgb(255,255,255)"/>
<polygon points="208.3,367.6 216.3,367.6 216.3,375.6 208.3,375.6" fill="rgb(255,255,255)"/>
<polygon points="216.3,367.6 224.3,367.6 224.3,375.6 216.3,375.6" fill="rgb(255,255,255)"/>
<polygon points="224.3,367.6 232.3,367.6 232.3,375.6 224.3,375.6" fill="rgb(255,255,255)"/>
<polygon points="232.3,367.6 240.3,367.6 240.3,375.6 232.3,375.6" fill="rgb(255,255,255)"/>
<polygon points="92.3,375.6 100.3,375.6 100.3,383.6 92.3,383.6" fill="rgb(238,170,0)"/><text xml:space="preserve" x="96.3" y="382.433" font-family="Calibri" font-size="7.5" fill="rgb(0,0,0)" text-anchor="middle">3</text>
<polygon points="100.3,375.6 108.3,375.6 108.3,383.6 100.3,383.6" fill="rgb(238,170,0)"/><text xml:space="preserve" x="104.3" y="382.433" font-family="Calibri" font-size="7.5" fill="rgb(0,0,0)" text-anchor="middle">3</text>
<polygon points="108.3,375.6 116.3,375.6 116.3,383.6 108.3,383.6" fill="rgb(205,0,0)"/><text xml:space="preserve" x="112.3" y="382.433" font-family="Calibri" font-size="7.5" fill="rgb(255,255,255)" text-anchor="middle">4</text>
<polygon points="116.3,375.6 124.3,375.6 124.3,383.6 116.3,383.6" fill="rgb(238,170,0)"/><text xml:space="preserve" x="120.3" y="382.433" font-family="Calibri" font-size="7.5" fill="rgb(0,0,0)" text-anchor="middle">3</text>
<polygon points="134.3,375.6 142.3,375.6 142.3,383.6 134.3,383.6" fill="rgb(30,146,141)"/>
<polygon points="142.3,375.6 150.3,375.6 150.3,383.6 142.3,383.6" fill="rgb(12,74,137)"/>
<polygon points="150.3,375.6 158.3,375.6 158.3,383.6 150.3,383.6" fill="rgb(100,212,109)"/>
<polygon points="158.3,375.6 166.3,375.6 166.3,383.6 158.3,383.6" fill="rgb(32,156,142)"/>
<polygon points="176.3,375.6 184.3,375.6 184.3,383.6 176.3,383.6" fill="rgb(205,0,205)"/>
<polygon points="184.3,375.6 192.3,375.6 192.3,383.6 184.3,383.6" fill="rgb(255,255,255)"/>
<polygon points="192.3,375.6 200.3,375.6 200.3,383.6 192.3,383.6" fill="rgb(255,255,255)"/>
<polygon points="200.3,375.6 208.3,375.6 208.3,383.6 200.3,383.6" fill="rgb(255,255,255)"/>
<polygon points="208.3,375.6 216.3,375.6 216.3,383.6 208.3,383.6" fill="rgb(255,255,255)"/>
<polygon points="216.3,375.6 224.3,375.6 224.3,383.6 216.3,383.6" fill="rgb(255,255,255)"/>
<polygon points="224.3,375.6 232.3,375.6 232.3,383.6 224.3,383.6" fill="rgb(255,255,255)"/>
<polygon points="232.3,375.6 240.3,375.6 240.3,383.6 232.3,383.6" fill="rgb(255,255,255)"/>
<polygon points="92.3,335.6 124.3,335.6 124.3,383.6 92.3,383.6" fill="none" stroke="black" stroke-width="1"/>
<polygon points="134.3,335.6 166.3,335.6 166.3,383.6 134.3,383.6" fill="none" stroke="black" stroke-width="1"/>
<polygon points="176.3,335.6 240.3,335.6 240.3,383.6 176.3,383.6" fill="none" stroke="black" stroke-width="1"/>
<text xml:space="preserve" x="130.15" y="416.6" font-family="Calibri" font-size="8" text-anchor="middle">ClusterAssignment</text>
<polygon points="90.15,423.6 110.15,423.6 110.15,443.6 90.15,443.6" fill="rgb(0,205,0)"/><polygon points="90.15,423.6 110.15,423.6 110.15,443.6 90.15,443.6" fill="none" stroke="black" stroke-width="1"/><text xml:space="preserve" x="100.15" y="436.433" font-family="Calibri" font-size="7.5" fill="rgb(255,255,255)" text-anchor="middle">1.0</text>
<polygon points="110.15,423.6 130.15,423.6 130.15,443.6 110.15,443.6" fill="rgb(170,238,0)"/><polygon points="110.15,423.6 130.15,423.6 130.15,443.6 110.15,443.6" fill="none" stroke="black" stroke-width="1"/><text xml:space="preserve" x="120.15" y="436.433" font-family="Calibri" font-size="7.5" fill="rgb(0,0,0)" text-anchor="middle">2.0</text>
<polygon points="130.15,423.6 150.15,423.6 150.15,443.6 130.15,443.6" fill="rgb(238,170,0)"/><polygon points="130.15,423.6 150.15,423.6 150.15,443.6 130.15,443.6" fill="none" stroke="black" stroke-width="1"/><text xml:space="preserve" x="140.15" y="436.433" font-family="Calibri" font-size="7.5" fill="rgb(0,0,0)" text-anchor="middle">3.0</text>
<polygon points="150.15,423.6 170.15,423.6 170.15,443.6 150.15,443.6" fill="rgb(205,0,0)"/><polygon points="150.15,423.6 170.15,423.6 170.15,443.6 150.15,443.6" fill="none" stroke="black" stroke-width="1"/><text xml:space="preserve" x="160.15" y="436.433" font-family="Calibri" font-size="7.5" fill="rgb(255,255,255)" text-anchor="middle">4.0</text>
<text xml:space="preserve" x="130.15" y="476.6" font-family="Calibri" font-size="8" text-anchor="middle">Expression</text>
<polygon points="90.15,483.6 110.15,483.6 110.15,503.6 90.15,503.6" fill="rgb(0,27,135)"/><polygon points="90.15,483.6 110.15,483.6 110.15,503.6 90.15,503.6" fill="none" stroke="black" stroke-width="1"/><text xml:space="preserve" x="100.15" y="496.433" font-family="Calibri" font-size="7.5" fill="rgb(255,255,255)" text-anchor="middle">0.0</text>
<polygon points="110.15,483.6 130.15,483.6 130.15,503.6 110.15,503.6" fill="rgb(32,155,142)"/><polygon points="110.15,483.6 130.15,483.6 130.15,503.6 110.15,503.6" fill="none" stroke="black" stroke-width="1"/><text xml:space="preserve" x="120.15" y="496.433" font-family="Calibri" font-size="7.5" fill="rgb(255,255,255)" text-anchor="middle">1.0</text>
<polygon points="130.15,483.6 150.15,483.6 150.15,503.6 130.15,503.6" fill="rgb(116,210,97)"/><polygon points="130.15,483.6 150.15,483.6 150.15,503.6 130.15,503.6" fill="none" stroke="black" stroke-width="1"/><text xml:space="preserve" x="140.15" y="496.433" font-family="Calibri" font-size="7.5" fill="rgb(0,0,0)" text-anchor="middle">2.0</text>
<polygon points="150.15,483.6 170.15,483.6 170.15,503.6 150.15,503.6" fill="rgb(252,194,1)"/><polygon points="150.15,483.6 170.15,483.6 170.15,503.6 150.15,503.6" fill="none" stroke="black" stroke-width="1"/><text xml:space="preserve" x="160.15" y="496.433" font-family="Calibri" font-size="7.5" fill="rgb(0,0,0)" text-anchor="middle">3.0</text>
<text xml:space="preserve" x="130.15" y="536.6" font-family="Calibri" font-size="8" text-anchor="middle">PANTHERclass</text>
<polygon points="90.15,543.6 110.15,543.6 110.15,563.6 90.15,563.6" fill="rgb(255,255,255)"/><polygon points="90.15,543.6 110.15,543.6 110.15,563.6 90.15,563.6" fill="none" stroke="black" stroke-width="1"/><text xml:space="preserve" x="100.15" y="556.433" font-family="Calibri" font-size="7.5" fill="rgb(0,0,0)" text-anchor="middle">0.0</text>
<polygon points="110.15,543.6 130.15,543.6 130.15,563.6 110.15,563.6" fill="rgb(238,170,238)"/><polygon points="110.15,543.6 130.15,543.6 130.15,563.6 110.15,563.6" fill="none" stroke="black" stroke-width="1"/><text xml:space="preserve" x="120.15" y="556.433" font-family="Calibri" font-size="7.5" fill="rgb(0,0,0)" text-anchor="middle">0.3</text>
<polygon points="130.15,543.6 150.15,543.6 150.15,563.6 130.15,563.6" fill="rgb(221,84,221)"/><polygon points="130.15,543.6 150.15,543.6 150.15,563.6 130.15,563.6" fill="none" stroke="black" stroke-width="1"/><text xml:space="preserve" x="140.15" y="556.433" font-family="Calibri" font-size="7.5" fill="rgb(0,0,0)" text-anchor="middle">0.7</text>
<polygon points="150.15,543.6 170.15,543.6 170.15,563.6 150.15,563.6" fill="rgb(205,0,205)"/><polygon points="150.15,543.6 170.15,543.6 170.15,563.6 150.15,563.6" fill="none" stroke="black" stroke-width="1"/><text xml:space="preserve" x="160.15" y="556.433" font-family="Calibri" font-size="7.5" fill="rgb(255,255,255)" text-anchor="middle">1.0</text>
</svg>
