<?xml version="1.0" standalone="no"?><!DOCTYPE svg PUBLIC "-//W3C//DTD SVG 1.1//EN" "http://www.w3.org/Graphics/SVG/1.1/DTD/svg11.dtd">
<svg width="321.8" height="647.6" version="1.1" xmlns="http://www.w3.org/2000/svg">
<text xml:space="preserve" x="149.8" y="342.6" font-family="Calibri" font-size="8" text-anchor="end">AC025159.1</text>
<text xml:space="preserve" x="149.8" y="350.6" font-family="Calibri" font-size="8" text-anchor="end">ZNF436-AS1</text>
<text xml:space="preserve" x="149.8" y="358.6" font-family="Calibri" font-size="8" text-anchor="end">THUMPD3-AS1</text>
<text xml:space="preserve" x="149.8" y="366.6" font-family="Calibri" font-size="8" text-anchor="end">VMP1</text>
<text xml:space="preserve" x="149.8" y="374.6" font-family="Calibri" font-size="8" text-anchor="end">S100A10</text>
<text xml:space="preserve" x="149.8" y="382.6" font-family="Calibri" font-size="8" text-anchor="end">MAT2A</text>
<text xml:space="preserve" x="149.8" y="390.6" font-family="Calibri" font-size="8" text-anchor="end">SNHG21</text>
<text xml:space="preserve" x="149.8" y="398.6" font-family="Calibri" font-size="8" text-anchor="end">SNHG19</text>
<text xml:space="preserve" x="149.8" y="406.6" font-family="Calibri" font-size="8" text-anchor="end">NEAT1</text>
<text xml:space="preserve" x="149.8" y="414.6" font-family="Calibri" font-size="8" text-anchor="end">MHENCR</text>
<text xml:space="preserve" x="149.8" y="422.6" font-family="Calibri" font-size="8" text-anchor="end">THAP2</text>
<text xml:space="preserve" x="149.8" y="430.6" font-family="Calibri" font-size="8" text-anchor="end">VIM</text>
<text xml:space="preserve" x="149.8" y="438.6" font-family="Calibri" font-size="8" text-anchor="end">LINC01089</text>
<text xml:space="preserve" x="149.8" y="446.6" font-family="Calibri" font-size="8" text-anchor="end">HSD17B1</text>
<text xml:space="preserve" x="160.8" y="331.6" font-family="Calibri" font-size="8" transform="rotate(270 160.8 331.6)">c1</text>
<text xml:space="preserve" x="168.8" y="331.6" font-family="Calibri" font-size="8" transform="rotate(270 168.8 331.6)">c3</text>
<text xml:space="preserve" x="176.8" y="331.6" font-family="Calibri" font-size="8" transform="rotate(270 176.8 331.6)">c2</text>
<text xml:space="preserve" x="184.8" y="331.6" font-family="Calibri" font-size="8" transform="rotate(270 184.8 331.6)">c4</text>
<text xml:space="preserve" x="202.8" y="331.6" font-family="Calibri" font-size="8" transform="rotate(270 202.8 331.6)">c1_mean</text>
<text xml:space="preserve" x="210.8" y="331.6" font-family="Calibri" font-size="8" transform="rotate(270 210.8 331.6)">c3_mean</text>
<text xml:space="preserve" x="218.8" y="331.6" font-family="Calibri" font-size="8" transform="rotate(270 218.8 331.6)">c2_mean</text>
<text xml:space="preserve" x="226.8" y="331.6" font-family="Calibri" font-size="8" transform="rotate(270 226.8 331.6)">c4_mean</text>
<text xml:space="preserve" x="244.8" y="331.6" font-family="Calibri" font-size="8" transform="rotate(270 244.8 331.6)">transcription_factor</text>
<text xml:space="preserve" x="252.8" y="331.6" font-family="Calibri" font-size="8" transform="rotate(270 252.8 331.6)">transmembrane_signal_receptor</text>
<text xml:space="preserve" x="260.8" y="331.6" font-family="Calibri" font-size="8" transform="rotate(270 260.8 331.6)">growth_factor</text>
<text xml:space="preserve" x="268.8" y="331.6" font-family="Calibri" font-size="8" transform="rotate(270 268.8 331.6)">peptide_hormone</text>
<text xml:space="preserve" x="276.8" y="331.6" font-family="Calibri" font-size="8" transform="rotate(270 276.8 331.6)">cytoskeletal_protein</text>
<text xml:space="preserve" x="284.8" y="331.6" font-family="Calibri" font-size="8" transform="rotate(270 284.8 331.6)">ion_channel</text>
<text xml:space="preserve" x="292.8" y="331.6" font-family="Calibri" font-size="8" transform="rotate(270 292.8 331.6)">integrin</text>
<text xml:space="preserve" x="300.8" y="331.6" font-family="Calibri" font-size="8" transform="rotate(270 300.8 331.6)">extracellular_matrix_protein</text>
<polygon points="153.8,335.6 161.8,335.6 161.8,343.6 153.8,343.6" fill="rgb(205,0,0)"/><text xml:space="preserve" x="157.8" y="342.433" font-family="Calibri" font-size="7.5" fill="rgb(255,255,255)" text-anchor="middle">4</text>
<polygon points="161.8,335.6 169.8,335.6 169.8,343.6 161.8,343.6" fill="rgb(238,170,0)"/><text xml:space="preserve" x="165.8" y="342.433" font-family="Calibri" font-size="7.5" fill="rgb(0,0,0)" text-anchor="middle">3</text>
<polygon points="169.8,335.6 177.8,335.6 177.8,343.6 169.8,343.6" fill="rgb(238,170,0)"/><text xml:space="preserve" x="173.8" y="342.433" font-family="Calibri" font-size="7.5" fill="rgb(0,0,0)" text-anchor="middle">3</text>
<polygon points="177.8,335.6 185.8,335.6 185.8,343.6 177.8,343.6" fill="rgb(238,170,0)"/><text xml:space="preserve" x="181.8" y="342.433" font-family="Calibri" font-size="7.5" fill="rgb(0,0,0)" text-anchor="middle">3</text>
<polygon points="195.8,335.6 203.8,335.6 203.8,343.6 195.8,343.6" fill="rgb(107,211,104)"/>
<polygon points="203.8,335.6 211.8,335.6 211.8,343.6 203.8,343.6" fill="rgb(15,85,138)"/>
<polygon points="211.8,335.6 219.8,335.6 219.8,343.6 211.8,343.6" fill="rgb(14,84,138)"/>
<polygon points="219.8,335.6 227.8,335.6 227.8,343.6 219.8,343.6" fill="rgb(13,79,138)"/>
<polygon points="237.8,335.6 245.8,335.6 245.8,343.6 237.8,343.6" fill="rgb(255,255,255)"/>
<polygon points="245.8,335.6 253.8,335.6 253.8,343.6 245.8,343.6" fill="rgb(255,255,255)"/>
<polygon points="253.8,335.6 261.8,335.6 261.8,343.6 253.8,343.6" fill="rgb(255,255,255)"/>
<polygon points="261.8,335.6 269.8,335.6 269.8,343.6 261.8,343.6" fill="rgb(255,255,255)"/>
<polygon points="269.8,335.6 277.8,335.6 277.8,343.6 269.8,343.6" fill="rgb(255,255,255)"/>
<polygon points="277.8,335.6 285.8,335.6 285.8,343.6 277.8,343.6" fill="rgb(255,255,255)"/>
<polygon points="285.8,335.6 293.8,335.6 293.8,343.6 285.8,343.6" fill="rgb(255,255,255)"/>
<polygon points="293.8,335.6 301.8,335.6 301.8,343.6 293.8,343.6" fill="rgb(255,255,255)"/>
<polygon points="153.8,343.6 161.8,343.6 161.8,351.6 153.8,351.6" fill="rgb(205,0,0)"/><text xml:space="preserve" x="157.8" y="350.433" font-family="Calibri" font-size="7.5" fill="rgb(255,255,255)" text-anchor="middle">4</text>
<polygon points="161.8,343.6 169.8,343.6 169.8,351.6 161.8,351.6" fill="rgb(238,170,0)"/><text xml:space="preserve" x="165.8" y="350.433" font-family="Calibri" font-size="7.5" fill="rgb(0,0,0)" text-anchor="middle">3</text>
<polygon points="169.8,343.6 177.8,343.6 177.8,351.6 169.8,351.6" fill="rgb(238,170,0)"/><text xml:space="preserve" x="173.8" y="350.433" font-family="Calibri" font-size="7.5" fill="rgb(0,0,0)" text-anchor="middle">3</text>
<polygon points="177.8,343.6 185.8,343.6 185.8,351.6 177.8,351.6" fill="rgb(238,170,0)"/><text xml:space="preserve" x="181.8" y="350.433" font-family="Calibri" font-size="7.5" fill="rgb(0,0,0)" text-anchor="middle">3</text>
<polygon points="195.8,343.6 203.8,343.6 203.8,351.6 195.8,351.6" fill="rgb(65,217,134)"/>
<polygon points="203.8,343.6 211.8,343.6 211.8,351.6 203.8,351.6" fill="rgb(13,79,138)"/>
<polygon points="211.8,343.6 219.8,343.6 219.8,351.6 211.8,351.6" fill="rgb(21,111,139)"/>
<polygon points="219.8,343.6 227.8,343.6 227.8,351.6 219.8,351.6" fill="rgb(22,115,140)"/>
<polygon points="237.8,343.6 245.8,343.6 245.8,351.6 237.8,351.6" fill="rgb(255,255,255)"/>
<polygon points="245.8,343.6 253.8,343.6 253.8,351.6 245.8,351.6" fill="rgb(255,255,255)"/>
<polygon points="253.8,343.6 261.8,343.6 261.8,351.6 253.8,351.6" fill="rgb(255,255,255)"/>
<polygon points="261.8,343.6 269.8,343.6 269.8,351.6 261.8,351.6" fill="rgb(255,255,255)"/>
<polygon points="269.8,343.6 277.8,343.6 277.8,351.6 269.8,351.6" fill="rgb(255,255,255)"/>
<polygon points="277.8,343.6 285.8,343.6 285.8,351.6 277.8,351.6" fill="rgb(255,255,255)"/>
<polygon points="285.8,343.6 293.8,343.6 293.8,351.6 285.8,351.6" fill="rgb(255,255,255)"/>
<polygon points="293.8,343.6 301.8,343.6 301.8,351.6 293.8,351.6" fill="rgb(255,255,255)"/>
<polygon points="153.8,351.6 161.8,351.6 161.8,359.6 153.8,359.6" fill="rgb(205,0,0)"/><text xml:space="preserve" x="157.8" y="358.433" font-family="Calibri" font-size="7.5" fill="rgb(255,255,255)" text-anchor="middle">4</text>
<polygon points="161.8,351.6 169.8,351.6 169.8,359.6 161.8,359.6" fill="rgb(238,170,0)"/><text xml:space="preserve" x="165.8" y="358.433" font-family="Calibri" font-size="7.5" fill="rgb(0,0,0)" text-anchor="middle">3</text>
<polygon points="169.8,351.6 177.8,351.6 177.8,359.6 169.8,359.6" fill="rgb(238,170,0)"/><text xml:space="preserve" x="173.8" y="358.433" font-family="Calibri" font-size="7.5" fill="rgb(0,0,0)" text-anchor="middle">3</text>
<polygon points="177.8,351.6 185.8,351.6 185.8,359.6 177.8,359.6" fill="rgb(238,170,0)"/><text xml:space="preserve" x="181.8" y="358.433" font-family="Calibri" font-size="7.5" fill="rgb(0,0,0)" text-anchor="middle">3</text>
<polygon points="195.8,351.6 203.8,351.6 203.8,359.6 195.8,359.6" fill="rgb(65,217,134)"/>
<polygon points="203.8,351.6 211.8,351.6 211.8,359.6 203.8,359.6" fill="rgb(21,110,139)"/>
<polygon points="211.8,351.6 219.8,351.6 219.8,359.6 211.8,359.6" fill="rgb(22,115,140)"/>
<polygon points="219.8,351.6 227.8,351.6 227.8,359.6 219.8,359.6" fill="rgb(20,106,139)"/>
<polygon points="237.8,351.6 245.8,351.6 245.8,359.6 237.8,359.6" fill="rgb(255,255,255)"/>
<polygon points="245.8,351.6 253.8,351.6 253.8,359.6 245.8,359.6" fill="rgb(255,255,255)"/>
<polygon points="253.8,351.6 261.8,351.6 261.8,359.6 253.8,359.6" fill="rgb(255,255,255)"/>
<polygon points="261.8,351.6 269.8,351.6 269.8,359.6 261.8,359.6" fill="rgb(255,255,255)"/>
<polygon points="269.8,351.6 277.8,351.6 277.8,359.6 269.8,359.6" fill="rgb(255,255,255)"/>
<polygon points="277.8,351.6 285.8,351.6 285.8,359.6 277.8,359.6" fill="rgb(255,255,255)"/>
<polygon points="285.8,351.6 293.8,351.6 293.8,359.6 285.8,359.6" fill="rgb(255,255,255)"/>
<polygon points="293.8,351.6 301.8,351.6 301.8,359.6 293.8,359.6" fill="rgb(255,255,255)"/>
<polygon points="153.8,359.6 161.8,359.6 161.8,367.6 153.8,367.6" fill="rgb(205,0,0)"/><text xml:space="preserve" x="157.8" y="366.433" font-family="Calibri" font-size="7.5" fill="rgb(255,255,255)" text-anchor="middle">4</text>
<polygon points="161.8,359.6 169.8,359.6 169.8,367.6 161.8,367.6" fill="rgb(238,170,0)"/><text xml:space="preserve" x="165.8" y="366.433" font-family="Calibri" font-size="7.5" fill="rgb(0,0,0)" text-anchor="middle">3</text>
<polygon points="169.8,359.6 177.8,359.6 177.8,367.6 169.8,367.6" fill="rgb(238,170,0)"/><text xml:space="preserve" x="173.8" y="366.433" font-family="Calibri" font-size="7.5" fill="rgb(0,0,0)" text-anchor="middle">3</text>
<polygon points="177.8,359.6 185.8,359.6 185.8,367.6 177.8,367.6" fill="rgb(238,170,0)"/><text xml:space="preserve" x="181.8" y="366.433" font-family="Calibri" font-size="7.5" fill="rgb(0,0,0)" text-anchor="middle">3</text>
<polygon points="195.8,359.6 203.8,359.6 203.8,367.6 195.8,367.6" fill="rgb(169,204,59)"/>
<polygon points="203.8,359.6 211.8,359.6 211.8,367.6 203.8,367.6" fill="rgb(23,119,140)"/>
<polygon points="211.8,359.6 219.8,359.6 219.8,367.6 211.8,367.6" fill="rgb(18,99,139)"/>
<polygon points="219.8,359.6 227.8,359.6 227.8,367.6 219.8,367.6" fill="rgb(18,101,139)"/>
<polygon points="237.8,359.6 245.8,359.6 245.8,367.6 237.8,367.6" fill="rgb(255,255,255)"/>
<polygon points="245.8,359.6 253.8,359.6 253.8,367.6 245.8,367.6" fill="rgb(205,0,205)"/>
<polygon points="253.8,359.6 261.8,359.6 261.8,367.6 253.8,367.6" fill="rgb(255,255,255)"/>
<polygon points="261.8,359.6 269.8,359.6 269.8,367.6 261.8,367.6" fill="rgb(255,255,255)"/>
<polygon points="269.8,359.6 277.8,359.6 277.8,367.6 269.8,367.6" fill="rgb(255,255,255)"/>
<polygon points="277.8,359.6 285.8,359.6 285.8,367.6 277.8,367.6" fill="rgb(255,255,255)"/>
<polygon points="285.8,359.6 293.8,359.6 293.8,367.6 285.8,367.6" fill="rgb(255,255,255)"/>
<polygon points="293.8,359.6 301.8,359.6 301.8,367.6 293.8,367.6" fill="rgb(255,255,255)"/>
<polygon points="153.8,367.6 161.8,367.6 161.8,375.6 153.8,375.6" fill="rgb(205,0,0)"/><text xml:space="preserve" x="157.8" y="374.433" font-family="Calibri" font-size="7.5" fill="rgb(255,255,255)" text-anchor="middle">4</text>
<polygon points="161.8,367.6 169.8,367.6 169.8,375.6 161.8,375.6" fill="rgb(238,170,0)"/><text xml:space="preserve" x="165.8" y="374.433" font-family="Calibri" font-size="7.5" fill="rgb(0,0,0)" text-anchor="middle">3</text>
<polygon points="169.8,367.6 177.8,367.6 177.8,375.6 169.8,375.6" fill="rgb(238,170,0)"/><text xml:space="preserve" x="173.8" y="374.433" font-family="Calibri" font-size="7.5" fill="rgb(0,0,0)" text-anchor="middle">3</text>
<polygon points="177.8,367.6 185.8,367.6 185.8,375.6 177.8,375.6" fill="rgb(238,170,0)"/><text xml:space="preserve" x="181.8" y="374.433" font-family="Calibri" font-size="7.5" fill="rgb(0,0,0)" text-anchor="middle">3</text>
<polygon points="195.8,367.6 203.8,367.6 203.8,375.6 195.8,375.6" fill="rgb(149,206,74)"/>
<polygon points="203.8,367.6 211.8,367.6 211.8,375.6 203.8,375.6" fill="rgb(25,126,140)"/>
<polygon points="211.8,367.6 219.8,367.6 219.8,375.6 211.8,375.6" fill="rgb(46,210,145)"/>
<polygon points="219.8,367.6 227.8,367.6 227.8,375.6 219.8,375.6" fill="rgb(28,137,141)"/>
<polygon points="237.8,367.6 245.8,367.6 245.8,375.6 237.8,375.6" fill="rgb(255,255,255)"/>
<polygon points="245.8,367.6 253.8,367.6 253.8,375.6 245.8,375.6" fill="rgb(255,255,255)"/>
<polygon points="253.8,367.6 261.8,367.6 261.8,375.6 253.8,375.6" fill="rgb(255,255,255)"/>
<polygon points="261.8,367.6 269.8,367.6 269.8,375.6 261.8,375.6" fill="rgb(255,255,255)"/>
<polygon points="269.8,367.6 277.8,367.6 277.8,375.6 269.8,375.6" fill="rgb(255,255,255)"/>
<polygon points="277.8,367.6 285.8,367.6 285.8,375.6 277.8,375.6" fill="rgb(255,255,255)"/>
<polygon points="285.8,367.6 293.8,367.6 293.8,375.6 285.8,375.6" fill="rgb(255,255,255)"/>
<polygon points="293.8,367.6 301.8,367.6 301.8,375.6 293.8,375.6" fill="rgb(255,255,255)"/>
<polygon points="153.8,375.6 161.8,375.6 161.8,383.6 153.8,383.6" fill="rgb(205,0,0)"/><text xml:space="preserve" x="157.8" y="382.433" font-family="Calibri" font-size="7.5" fill="rgb(255,255,255)" text-anchor="middle">4</text>
<polygon points="161.8,375.6 169.8,375.6 169.8,383.6 161.8,383.6" fill="rgb(238,170,0)"/><text xml:space="preserve" x="165.8" y="382.433" font-family="Calibri" font-size="7.5" fill="rgb(0,0,0)" text-anchor="middle">3</text>
<polygon points="169.8,375.6 177.8,375.6 177.8,383.6 169.8,383.6" fill="rgb(238,170,0)"/><text xml:space="preserve" x="173.8" y="382.433" font-family="Calibri" font-size="7.5" fill="rgb(0,0,0)" text-anchor="middle">3</text>
<polygon points="177.8,375.6 185.8,375.6 185.8,383.6 177.8,383.6" fill="rgb(238,170,0)"/><text xml:space="preserve" x="181.8" y="382.433" font-family="Calibri" font-size="7.5" fill="rgb(0,0,0)" text-anchor="middle">3</text>
<polygon points="195.8,375.6 203.8,375.6 203.8,383.6 195.8,383.6" fill="rgb(72,216,129)"/>
<polygon points="203.8,375.6 211.8,375.6 211.8,383.6 203.8,383.6" fill="rgb(17,97,139)"/>
<polygon points="211.8,375.6 219.8,375.6 219.8,383.6 211.8,383.6" fill="rgb(18,98,139)"/>
<polygon points="219.8,375.6 227.8,375.6 227.8,383.6 219.8,383.6" fill="rgb(17,96,138)"/>
<polygon points="237.8,375.6 245.8,375.6 245.8,383.6 237.8,383.6" fill="rgb(255,255,255)"/>
<polygon points="245.8,375.6 253.8,375.6 253.8,383.6 245.8,383.6" fill="rgb(255,255,255)"/>
<polygon points="253.8,375.6 261.8,375.6 261.8,383.6 253.8,383.6" fill="rgb(255,255,255)"/>
<polygon points="261.8,375.6 269.8,375.6 269.8,383.6 261.8,383.6" fill="rgb(255,255,255)"/>
<polygon points="269.8,375.6 277.8,375.6 277.8,383.6 269.8,383.6" fill="rgb(255,255,255)"/>
<polygon points="277.8,375.6 285.8,375.6 285.8,383.6 277.8,383.6" fill="rgb(255,255,255)"/>
<polygon points="285.8,375.6 293.8,375.6 293.8,383.6 285.8,383.6" fill="rgb(255,255,255)"/>
<polygon points="293.8,375.6 301.8,375.6 301.8,383.6 293.8,383.6" fill="rgb(255,255,255)"/>
<polygon points="153.8,383.6 161.8,383.6 161.8,391.6 153.8,391.6" fill="rgb(205,0,0)"/><text xml:space="preserve" x="157.8" y="390.433" font-family="Calibri" font-size="7.5" fill="rgb(255,255,255)" text-anchor="middle">4</text>
<polygon points="161.8,383.6 169.8,383.6 169.8,391.6 161.8,391.6" fill="rgb(238,170,0)"/><text xml:space="preserve" x="165.8" y="390.433" font-family="Calibri" font-size="7.5" fill="rgb(0,0,0)" text-anchor="middle">3</text>
<polygon points="169.8,383.6 177.8,383.6 177.8,391.6 169.8,391.6" fill="rgb(238,170,0)"/><text xml:space="preserve" x="173.8" y="390.433" font-family="Calibri" font-size="7.5" fill="rgb(0,0,0)" text-anchor="middle">3</text>
<polygon points="177.8,383.6 185.8,383.6 185.8,391.6 177.8,391.6" fill="rgb(238,170,0)"/><text xml:space="preserve" x="181.8" y="390.433" font-family="Calibri" font-size="7.5" fill="rgb(0,0,0)" text-anchor="middle">3</text>
<polygon points="195.8,383.6 203.8,383.6 203.8,391.6 195.8,391.6" fill="rgb(82,214,121)"/>
<polygon points="203.8,383.6 211.8,383.6 211.8,391.6 203.8,391.6" fill="rgb(14,84,138)"/>
<polygon points="211.8,383.6 219.8,383.6 219.8,391.6 211.8,391.6" fill="rgb(12,76,137)"/>
<polygon points="219.8,383.6 227.8,383.6 227.8,391.6 219.8,391.6" fill="rgb(14,83,138)"/>
<polygon points="237.8,383.6 245.8,383.6 245.8,391.6 237.8,391.6" fill="rgb(255,255,255)"/>
<polygon points="245.8,383.6 253.8,383.6 253.8,391.6 245.8,391.6" fill="rgb(255,255,255)"/>
<polygon points="253.8,383.6 261.8,383.6 261.8,391.6 253.8,391.6" fill="rgb(255,255,255)"/>
<polygon points="261.8,383.6 269.8,383.6 269.8,391.6 261.8,391.6" fill="rgb(255,255,255)"/>
<polygon points="269.8,383.6 277.8,383.6 277.8,391.6 269.8,391.6" fill="rgb(255,255,255)"/>
<polygon points="277.8,383.6 285.8,383.6 285.8,391.6 277.8,391.6" fill="rgb(255,255,255)"/>
<polygon points="285.8,383.6 293.8,383.6 293.8,391.6 285.8,391.6" fill="rgb(255,255,255)"/>
<polygon points="293.8,383.6 301.8,383.6 301.8,391.6 293.8,391.6" fill="rgb(255,255,255)"/>
<polygon points="153.8,391.6 161.8,391.6 161.8,399.6 153.8,399.6" fill="rgb(205,0,0)"/><text xml:space="preserve" x="157.8" y="398.433" font-family="Calibri" font-size="7.5" fill="rgb(255,255,255)" text-anchor="middle">4</text>
<polygon points="161.8,391.6 169.8,391.6 169.8,399.6 161.8,399.6" fill="rgb(238,170,0)"/><text xml:space="preserve" x="165.8" y="398.433" font-family="Calibri" font-size="7.5" fill="rgb(0,0,0)" text-anchor="middle">3</text>
<polygon points="169.8,391.6 177.8,391.6 177.8,399.6 169.8,399.6" fill="rgb(238,170,0)"/><text xml:space="preserve" x="173.8" y="398.433" font-family="Calibri" font-size="7.5" fill="rgb(0,0,0)" text-anchor="middle">3</text>
<polygon points="177.8,391.6 185.8,391.6 185.8,399.6 177.8,399.6" fill="rgb(238,170,0)"/><text xml:space="preserve" x="181.8" y="398.433" font-family="Calibri" font-size="7.5" fill="rgb(0,0,0)" text-anchor="middle">3</text>
<polygon points="195.8,391.6 203.8,391.6 203.8,399.6 195.8,399.6" fill="rgb(93,213,114)"/>
<polygon points="203.8,391.6 211.8,391.6 211.8,399.6 203.8,399.6" fill="rgb(20,107,139)"/>
<polygon points="211.8,391.6 219.8,391.6 219.8,399.6 211.8,399.6" fill="rgb(11,71,137)"/>
<polygon points="219.8,391.6 227.8,391.6 227.8,399.6 219.8,399.6" fill="rgb(12,74,137)"/>
<polygon points="237.8,391.6 245.8,391.6 245.8,399.6 237.8,399.6" fill="rgb(255,255,255)"/>
<polygon points="245.8,391.6 253.8,391.6 253.8,399.6 245.8,399.6" fill="rgb(255,255,255)"/>
<polygon points="253.8,391.6 261.8,391.6 261.8,399.6 253.8,399.6" fill="rgb(255,255,255)"/>
<polygon points="261.8,391.6 269.8,391.6 269.8,399.6 261.8,399.6" fill="rgb(255,255,255)"/>
<polygon points="269.8,391.6 277.8,391.6 277.8,399.6 269.8,399.6" fill="rgb(255,255,255)"/>
<polygon points="277.8,391.6 285.8,391.6 285.8,399.6 277.8,399.6" fill="rgb(255,255,255)"/>
<polygon points="285.8,391.6 293.8,391.6 293.8,399.6 285.8,399.6" fill="rgb(255,255,255)"/>
<polygon points="293.8,391.6 301.8,391.6 301.8,399.6 293.8,399.6" fill="rgb(255,255,255)"/>
<polygon points="153.8,399.6 161.8,399.6 161.8,407.6 153.8,407.6" fill="rgb(205,0,0)"/><text xml:space="preserve" x="157.8" y="406.433" font-family="Calibri" font-size="7.5" fill="rgb(255,255,255)" text-anchor="middle">4</text>
<polygon points="161.8,399.6 169.8,399.6 169.8,407.6 161.8,407.6" fill="rgb(238,170,0)"/><text xml:space="preserve" x="165.8" y="406.433" font-family="Calibri" font-size="7.5" fill="rgb(0,0,0)" text-anchor="middle">3</text>
<polygon points="169.8,399.6 177.8,399.6 177.8,407.6 169.8,407.6" fill="rgb(238,170,0)"/><text xml:space="preserve" x="173.8" y="406.433" font-family="Calibri" font-size="7.5" fill="rgb(0,0,0)" text-anchor="middle">3</text>
<polygon points="177.8,399.6 185.8,399.6 185.8,407.6 177.8,407.6" fill="rgb(238,170,0)"/><text xml:space="preserve" x="181.8" y="406.433" font-family="Calibri" font-size="7.5" fill="rgb(0,0,0)" text-anchor="middle">3</text>
<polygon points="195.8,399.6 203.8,399.6 203.8,407.6 195.8,407.6" fill="rgb(116,210,97)"/>
<polygon points="203.8,399.6 211.8,399.6 211.8,407.6 203.8,407.6" fill="rgb(41,189,144)"/>
<polygon points="211.8,399.6 219.8,399.6 219.8,407.6 211.8,407.6" fill="rgb(36,169,143)"/>
<polygon points="219.8,399.6 227.8,399.6 227.8,407.6 219.8,407.6" fill="rgb(38,179,143)"/>
<polygon points="237.8,399.6 245.8,399.6 245.8,407.6 237.8,407.6" fill="rgb(255,255,255)"/>
<polygon points="245.8,399.6 253.8,399.6 253.8,407.6 245.8,407.6" fill="rgb(255,255,255)"/>
<polygon points="253.8,399.6 261.8,399.6 261.8,407.6 253.8,407.6" fill="rgb(255,255,255)"/>
<polygon points="261.8,399.6 269.8,399.6 269.8,407.6 261.8,407.6" fill="rgb(255,255,255)"/>
<polygon points="269.8,399.6 277.8,399.6 277.8,407.6 269.8,407.6" fill="rgb(255,255,255)"/>
<polygon points="277.8,399.6 285.8,399.6 285.8,407.6 277.8,407.6" fill="rgb(255,255,255)"/>
<polygon points="285.8,399.6 293.8,399.6 293.8,407.6 285.8,407.6" fill="rgb(255,255,255)"/>
<polygon points="293.8,399.6 301.8,399.6 301.8,407.6 293.8,407.6" fill="rgb(255,255,255)"/>
<polygon points="153.8,407.6 161.8,407.6 161.8,415.6 153.8,415.6" fill="rgb(205,0,0)"/><text xml:space="preserve" x="157.8" y="414.433" font-family="Calibri" font-size="7.5" fill="rgb(255,255,255)" text-anchor="middle">4</text>
<polygon points="161.8,407.6 169.8,407.6 169.8,415.6 161.8,415.6" fill="rgb(238,170,0)"/><text xml:space="preserve" x="165.8" y="414.433" font-family="Calibri" font-size="7.5" fill="rgb(0,0,0)" text-anchor="middle">3</text>
<polygon points="169.8,407.6 177.8,407.6 177.8,415.6 169.8,415.6" fill="rgb(238,170,0)"/><text xml:space="preserve" x="173.8" y="414.433" font-family="Calibri" font-size="7.5" fill="rgb(0,0,0)" text-anchor="middle">3</text>
<polygon points="177.8,407.6 185.8,407.6 185.8,415.6 177.8,415.6" fill="rgb(238,170,0)"/><text xml:space="preserve" x="181.8" y="414.433" font-family="Calibri" font-size="7.5" fill="rgb(0,0,0)" text-anchor="middle">3</text>
<polygon points="195.8,407.6 203.8,407.6 203.8,415.6 195.8,415.6" fill="rgb(70,216,130)"/>
<polygon points="203.8,407.6 211.8,407.6 211.8,415.6 203.8,415.6" fill="rgb(14,83,138)"/>
<polygon points="211.8,407.6 219.8,407.6 219.8,415.6 211.8,415.6" fill="rgb(18,98,139)"/>
<polygon points="219.8,407.6 227.8,407.6 227.8,415.6 219.8,415.6" fill="rgb(17,96,138)"/>
<polygon points="237.8,407.6 245.8,407.6 245.8,415.6 237.8,415.6" fill="rgb(255,255,255)"/>
<polygon points="245.8,407.6 253.8,407.6 253.8,415.6 245.8,415.6" fill="rgb(255,255,255)"/>
<polygon points="253.8,407.6 261.8,407.6 261.8,415.6 253.8,415.6" fill="rgb(255,255,255)"/>
<polygon points="261.8,407.6 269.8,407.6 269.8,415.6 261.8,415.6" fill="rgb(255,255,255)"/>
<polygon points="269.8,407.6 277.8,407.6 277.8,415.6 269.8,415.6" fill="rgb(255,255,255)"/>
<polygon points="277.8,407.6 285.8,407.6 285.8,415.6 277.8,415.6" fill="rgb(255,255,255)"/>
<polygon points="285.8,407.6 293.8,407.6 293.8,415.6 285.8,415.6" fill="rgb(255,255,255)"/>
<polygon points="293.8,407.6 301.8,407.6 301.8,415.6 293.8,415.6" fill="rgb(255,255,255)"/>
<polygon points="153.8,415.6 161.8,415.6 161.8,423.6 153.8,423.6" fill="rgb(205,0,0)"/><text xml:space="preserve" x="157.8" y="422.433" font-family="Calibri" font-size="7.5" fill="rgb(255,255,255)" text-anchor="middle">4</text>
<polygon points="161.8,415.6 169.8,415.6 169.8,423.6 161.8,423.6" fill="rgb(238,170,0)"/><text xml:space="preserve" x="165.8" y="422.433" font-family="Calibri" font-size="7.5" fill="rgb(0,0,0)" text-anchor="middle">3</text>
<polygon points="169.8,415.6 177.8,415.6 177.8,423.6 169.8,423.6" fill="rgb(238,170,0)"/><text xml:space="preserve" x="173.8" y="422.433" font-family="Calibri" font-size="7.5" fill="rgb(0,0,0)" text-anchor="middle">3</text>
<polygon points="177.8,415.6 185.8,415.6 185.8,423.6 177.8,423.6" fill="rgb(238,170,0)"/><text xml:space="preserve" x="181.8" y="422.433" font-family="Calibri" font-size="7.5" fill="rgb(0,0,0)" text-anchor="middle">3</text>
<polygon points="195.8,415.6 203.8,415.6 203.8,423.6 195.8,423.6" fill="rgb(58,217,139)"/>
<polygon points="203.8,415.6 211.8,415.6 211.8,423.6 203.8,423.6" fill="rgb(13,78,137)"/>
<polygon points="211.8,415.6 219.8,415.6 219.8,423.6 211.8,423.6" fill="rgb(18,98,139)"/>
<polygon points="219.8,415.6 227.8,415.6 227.8,423.6 219.8,423.6" fill="rgb(16,91,138)"/>
<polygon points="237.8,415.6 245.8,415.6 245.8,423.6 237.8,423.6" fill="rgb(255,255,255)"/>
<polygon points="245.8,415.6 253.8,415.6 253.8,423.6 245.8,423.6" fill="rgb(255,255,255)"/>
<polygon points="253.8,415.6 261.8,415.6 261.8,423.6 253.8,423.6" fill="rgb(255,255,255)"/>
<polygon points="261.8,415.6 269.8,415.6 269.8,423.6 261.8,423.6" fill="rgb(255,255,255)"/>
<polygon points="269.8,415.6 277.8,415.6 277.8,423.6 269.8,423.6" fill="rgb(255,255,255)"/>
<polygon points="277.8,415.6 285.8,415.6 285.8,423.6 277.8,423.6" fill="rgb(255,255,255)"/>
<polygon points="285.8,415.6 293.8,415.6 293.8,423.6 285.8,423.6" fill="rgb(255,255,255)"/>
<polygon points="293.8,415.6 301.8,415.6 301.8,423.6 293.8,423.6" fill="rgb(255,255,255)"/>
<polygon points="153.8,423.6 161.8,423.6 161.8,431.6 153.8,431.6" fill="rgb(205,0,0)"/><text xml:space="preserve" x="157.8" y="430.433" font-family="Calibri" font-size="7.5" fill="rgb(255,255,255)" text-anchor="middle">4</text>
<polygon points="161.8,423.6 169.8,423.6 169.8,431.6 161.8,431.6" fill="rgb(238,170,0)"/><text xml:space="preserve" x="165.8" y="430.433" font-family="Calibri" font-size="7.5" fill="rgb(0,0,0)" text-anchor="middle">3</text>
<polygon points="169.8,423.6 177.8,423.6 177.8,431.6 169.8,431.6" fill="rgb(238,170,0)"/><text xml:space="preserve" x="173.8" y="430.433" font-family="Calibri" font-size="7.5" fill="rgb(0,0,0)" text-anchor="middle">3</text>
<polygon points="177.8,423.6 185.8,423.6 185.8,431.6 177.8,431.6" fill="rgb(238,170,0)"/><text xml:space="preserve" x="181.8" y="430.433" font-family="Calibri" font-size="7.5" fill="rgb(0,0,0)" text-anchor="middle">3</text>
<polygon points="195.8,423.6 203.8,423.6 203.8,431.6 195.8,431.6" fill="rgb(67,216,132)"/>
<polygon points="203.8,423.6 211.8,423.6 211.8,431.6 203.8,431.6" fill="rgb(29,142,141)"/>
<polygon points="211.8,423.6 219.8,423.6 219.8,431.6 211.8,431.6" fill="rgb(19,105,139)"/>
<polygon points="219.8,423.6 227.8,423.6 227.8,431.6 219.8,431.6" fill="rgb(28,137,141)"/>
<polygon points="237.8,423.6 245.8,423.6 245.8,431.6 237.8,431.6" fill="rgb(255,255,255)"/>
<polygon points="245.8,423.6 253.8,423.6 253.8,431.6 245.8,431.6" fill="rgb(255,255,255)"/>
<polygon points="253.8,423.6 261.8,423.6 261.8,431.6 253.8,431.6" fill="rgb(255,255,255)"/>
<polygon points="261.8,423.6 269.8,423.6 269.8,431.6 261.8,431.6" fill="rgb(255,255,255)"/>
<polygon points="269.8,423.6 277.8,423.6 277.8,431.6 269.8,431.6" fill="rgb(205,0,205)"/>
<polygon points="277.8,423.6 285.8,423.6 285.8,431.6 277.8,431.6" fill="rgb(255,255,255)"/>
<polygon points="285.8,423.6 293.8,423.6 293.8,431.6 285.8,431.6" fill="rgb(255,255,255)"/>
<polygon points="293.8,423.6 301.8,423.6 301.8,431.6 293.8,431.6" fill="rgb(255,255,255)"/>
<polygon points="153.8,431.6 161.8,431.6 161.8,439.6 153.8,439.6" fill="rgb(205,0,0)"/><text xml:space="preserve" x="157.8" y="438.433" font-family="Calibri" font-size="7.5" fill="rgb(255,255,255)" text-anchor="middle">4</text>
<polygon points="161.8,431.6 169.8,431.6 169.8,439.6 161.8,439.6" fill="rgb(238,170,0)"/><text xml:space="preserve" x="165.8" y="438.433" font-family="Calibri" font-size="7.5" fill="rgb(0,0,0)" text-anchor="middle">3</text>
<polygon points="169.8,431.6 177.8,431.6 177.8,439.6 169.8,439.6" fill="rgb(238,170,0)"/><text xml:space="preserve" x="173.8" y="438.433" font-family="Calibri" font-size="7.5" fill="rgb(0,0,0)" text-anchor="middle">3</text>
<polygon points="177.8,431.6 185.8,431.6 185.8,439.6 177.8,439.6" fill="rgb(238,170,0)"/><text xml:space="preserve" x="181.8" y="438.433" font-family="Calibri" font-size="7.5" fill="rgb(0,0,0)" text-anchor="middle">3</text>
<polygon points="195.8,431.6 203.8,431.6 203.8,439.6 195.8,439.6" fill="rgb(172,203,58)"/>
<polygon points="203.8,431.6 211.8,431.6 211.8,439.6 203.8,439.6" fill="rgb(13,79,138)"/>
<polygon points="211.8,431.6 219.8,431.6 219.8,439.6 211.8,439.6" fill="rgb(13,80,138)"/>
<polygon points="219.8,431.6 227.8,431.6 227.8,439.6 219.8,439.6" fill="rgb(14,83,138)"/>
<polygon points="237.8,431.6 245.8,431.6 245.8,439.6 237.8,439.6" fill="rgb(255,255,255)"/>
<polygon points="245.8,431.6 253.8,431.6 253.8,439.6 245.8,439.6" fill="rgb(255,255,255)"/>
<polygon points="253.8,431.6 261.8,431.6 261.8,439.6 253.8,439.6" fill="rgb(255,255,255)"/>
<polygon points="261.8,431.6 269.8,431.6 269.8,439.6 261.8,439.6" fill="rgb(255,255,255)"/>
<polygon points="269.8,431.6 277.8,431.6 277.8,439.6 269.8,439.6" fill="rgb(255,255,255)"/>
<polygon points="277.8,431.6 285.8,431.6 285.8,439.6 277.8,439.6" fill="rgb(255,255,255)"/>
<polygon points="285.8,431.6 293.8,431.6 293.8,439.6 285.8,439.6" fill="rgb(255,255,255)"/>
<polygon points="293.8,431.6 301.8,431.6 301.8,439.6 293.8,439.6" fill="rgb(255,255,255)"/>
<polygon points="153.8,439.6 161.8,439.6 161.8,447.6 153.8,447.6" fill="rgb(205,0,0)"/><text xml:space="preserve" x="157.8" y="446.433" font-family="Calibri" font-size="7.5" fill="rgb(255,255,255)" text-anchor="middle">4</text>
<polygon points="161.8,439.6 169.8,439.6 169.8,447.6 161.8,447.6" fill="rgb(238,170,0)"/><text xml:space="preserve" x="165.8" y="446.433" font-family="Calibri" font-size="7.5" fill="rgb(0,0,0)" text-anchor="middle">3</text>
<polygon points="169.8,439.6 177.8,439.6 177.8,447.6 169.8,447.6" fill="rgb(238,170,0)"/><text xml:space="preserve" x="173.8" y="446.433" font-family="Calibri" font-size="7.5" fill="rgb(0,0,0)" text-anchor="middle">3</text>
<polygon points="177.8,439.6 185.8,439.6 185.8,447.6 177.8,447.6" fill="rgb(238,170,0)"/><text xml:space="preserve" x="181.8" y="446.433" font-family="Calibri" font-size="7.5" fill="rgb(0,0,0)" text-anchor="middle">3</text>
<polygon points="195.8,439.6 203.8,439.6 203.8,447.6 195.8,447.6" fill="rgb(48,216,145)"/>
<polygon points="203.8,439.6 211.8,439.6 211.8,447.6 203.8,447.6" fill="rgb(8,59,136)"/>
<polygon points="211.8,439.6 219.8,439.6 219.8,447.6 211.8,447.6" fill="rgb(10,69,137)"/>
<polygon points="219.8,439.6 227.8,439.6 227.8,447.6 219.8,447.6" fill="rgb(12,74,137)"/>
<polygon points="237.8,439.6 245.8,439.6 245.8,447.6 237.8,447.6" fill="rgb(255,255,255)"/>
<polygon points="245.8,439.6 253.8,439.6 253.8,447.6 245.8,447.6" fill="rgb(255,255,255)"/>
<polygon points="253.8,439.6 261.8,439.6 261.8,447.6 253.8,447.6" fill="rgb(255,255,255)"/>
<polygon points="261.8,439.6 269.8,439.6 269.8,447.6 261.8,447.6" fill="rgb(255,255,255)"/>
<polygon points="269.8,439.6 277.8,439.6 277.8,447.6 269.8,447.6" fill="rgb(255,255,255)"/>
<polygon points="277.8,439.6 285.8,439.6 285.8,447.6 277.8,447.6" fill="rgb(255,255,255)"/>
<polygon points="285.8,439.6 293.8,439.6 293.8,447.6 285.8,447.6" fill="rgb(255,255,255)"/>
<polygon points="293.8,439.6 301.8,439.6 301.8,447.6 293.8,447.6" fill="rgb(255,255,255)"/>
<polygon points="153.8,335.6 185.8,335.6 185.8,447.6 153.8,447.6" fill="none" stroke="black" stroke-width="1"/>
<polygon points="195.8,335.6 227.8,335.6 227.8,447.6 195.8,447.6" fill="none" stroke="black" stroke-width="1"/>
<polygon points="237.8,335.6 301.8,335.6 301.8,447.6 237.8,447.6" fill="none" stroke="black" stroke-width="1"/>
<text xml:space="preserve" x="160.9" y="480.6" font-family="Calibri" font-size="8" text-anchor="middle">ClusterAssignment</text>
<polygon points="120.9,487.6 140.9,487.6 140.9,507.6 120.9,507.6" fill="rgb(0,205,0)"/><polygon points="120.9,487.6 140.9,487.6 140.9,507.6 120.9,507.6" fill="none" stroke="black" stroke-width="1"/><text xml:space="preserve" x="130.9" y="500.433" font-family="Calibri" font-size="7.5" fill="rgb(255,255,255)" text-anchor="middle">1.0</text>
<polygon points="140.9,487.6 160.9,487.6 160.9,507.6 140.9,507.6" fill="rgb(170,238,0)"/><polygon points="140.9,487.6 160.9,487.6 160.9,507.6 140.9,507.6" fill="none" stroke="black" stroke-width="1"/><text xml:space="preserve" x="150.9" y="500.433" font-family="Calibri" font-size="7.5" fill="rgb(0,0,0)" text-anchor="middle">2.0</text>
<polygon points="160.9,487.6 180.9,487.6 180.9,507.6 160.9,507.6" fill="rgb(238,170,0)"/><polygon points="160.9,487.6 180.9,487.6 180.9,507.6 160.9,507.6" fill="none" stroke="black" stroke-width="1"/><text xml:space="preserve" x="170.9" y="500.433" font-family="Calibri" font-size="7.5" fill="rgb(0,0,0)" text-anchor="middle">3.0</text>
<polygon points="180.9,487.6 200.9,487.6 200.9,507.6 180.9,507.6" fill="rgb(205,0,0)"/><polygon points="180.9,487.6 200.9,487.6 200.9,507.6 180.9,507.6" fill="none" stroke="black" stroke-width="1"/><text xml:space="preserve" x="190.9" y="500.433" font-family="Calibri" font-size="7.5" fill="rgb(255,255,255)" text-anchor="middle">4.0</text>
<text xml:space="preserve" x="160.9" y="540.6" font-family="Calibri" font-size="8" text-anchor="middle">Expression</text>
<polygon points="120.9,547.6 140.9,547.6 140.9,567.6 120.9,567.6" fill="rgb(0,27,135)"/><polygon points="120.9,547.6 140.9,547.6 140.9,567.6 120.9,567.6" fill="none" stroke="black" stroke-width="1"/><text xml:space="preserve" x="130.9" y="560.433" font-family="Calibri" font-size="7.5" fill="rgb(255,255,255)" text-anchor="middle">0.0</text>
<polygon points="140.9,547.6 160.9,547.6 160.9,567.6 140.9,567.6" fill="rgb(32,155,142)"/><polygon points="140.9,547.6 160.9,547.6 160.9,567.6 140.9,567.6" fill="none" stroke="black" stroke-width="1"/><text xml:space="preserve" x="150.9" y="560.433" font-family="Calibri" font-size="7.5" fill="rgb(255,255,255)" text-anchor="middle">1.0</text>
<polygon points="160.9,547.6 180.9,547.6 180.9,567.6 160.9,567.6" fill="rgb(116,210,97)"/><polygon points="160.9,547.6 180.9,547.6 180.9,567.6 160.9,567.6" fill="none" stroke="black" stroke-width="1"/><text xml:space="preserve" x="170.9" y="560.433" font-family="Calibri" font-size="7.5" fill="rgb(0,0,0)" text-anchor="middle">2.0</text>
<polygon points="180.9,547.6 200.9,547.6 200.9,567.6 180.9,567.6" fill="rgb(252,194,1)"/><polygon points="180.9,547.6 200.9,547.6 200.9,567.6 180.9,567.6" fill="none" stroke="black" stroke-width="1"/><text xml:space="preserve" x="190.9" y="560.433" font-family="Calibri" font-size="7.5" fill="rgb(0,0,0)" text-anchor="middle">3.0</text>
<text xml:space="preserve" x="160.9" y="600.6" font-family="Calibri" font-size="8" text-anchor="middle">PANTHERclass</text>
<polygon points="120.9,607.6 140.9,607.6 140.9,627.6 120.9,627.6" fill="rgb(255,255,255)"/><polygon points="120.9,607.6 140.9,607.6 140.9,627.6 120.9,627.6" fill="none" stroke="black" stroke-width="1"/><text xml:space="preserve" x="130.9" y="620.433" font-family="Calibri" font-size="7.5" fill="rgb(0,0,0)" text-anchor="middle">0.0</text>
<polygon points="140.9,607.6 160.9,607.6 160.9,627.6 140.9,627.6" fill="rgb(238,170,238)"/><polygon points="140.9,607.6 160.9,607.6 160.9,627.6 140.9,627.6" fill="none" stroke="black" stroke-width="1"/><text xml:space="preserve" x="150.9" y="620.433" font-family="Calibri" font-size="7.5" fill="rgb(0,0,0)" text-anchor="middle">0.3</text>
<polygon points="160.9,607.6 180.9,607.6 180.9,627.6 160.9,627.6" fill="rgb(221,84,221)"/><polygon points="160.9,607.6 180.9,607.6 180.9,627.6 160.9,627.6" fill="none" stroke="black" stroke-width="1"/><text xml:space="preserve" x="170.9" y="620.433" font-family="Calibri" font-size="7.5" fill="rgb(0,0,0)" text-anchor="middle">0.7</text>
<polygon points="180.9,607.6 200.9,607.6 200.9,627.6 180.9,627.6" fill="rgb(205,0,205)"/><polygon points="180.9,607.6 200.9,607.6 200.9,627.6 180.9,627.6" fill="none" stroke="black" stroke-width="1"/><text xml:space="preserve" x="190.9" y="620.433" font-family="Calibri" font-size="7.5" fill="rgb(255,255,255)" text-anchor="middle">1.0</text>
</svg>
