<?xml version="1.0" standalone="no"?><!DOCTYPE svg PUBLIC "-//W3C//DTD SVG 1.1//EN" "http://www.w3.org/Graphics/SVG/1.1/DTD/svg11.dtd">
<svg width="275" height="623.6" version="1.1" xmlns="http://www.w3.org/2000/svg">
<text xml:space="preserve" x="103" y="342.6" font-family="Calibri" font-size="8" text-anchor="end">H2AFZ</text>
<text xml:space="preserve" x="103" y="350.6" font-family="Calibri" font-size="8" text-anchor="end">NRN1</text>
<text xml:space="preserve" x="103" y="358.6" font-family="Calibri" font-size="8" text-anchor="end">LY6H</text>
<text xml:space="preserve" x="103" y="366.6" font-family="Calibri" font-size="8" text-anchor="end">SCG2</text>
<text xml:space="preserve" x="103" y="374.6" font-family="Calibri" font-size="8" text-anchor="end">NEFM</text>
<text xml:space="preserve" x="103" y="382.6" font-family="Calibri" font-size="8" text-anchor="end">SYT4</text>
<text xml:space="preserve" x="103" y="390.6" font-family="Calibri" font-size="8" text-anchor="end">TSHZ2</text>
<text xml:space="preserve" x="103" y="398.6" font-family="Calibri" font-size="8" text-anchor="end">PBX3</text>
<text xml:space="preserve" x="103" y="406.6" font-family="Calibri" font-size="8" text-anchor="end">ONECUT2</text>
<text xml:space="preserve" x="103" y="414.6" font-family="Calibri" font-size="8" text-anchor="end">PEG10</text>
<text xml:space="preserve" x="103" y="422.6" font-family="Calibri" font-size="8" text-anchor="end">ID2</text>
<text xml:space="preserve" x="114" y="331.6" font-family="Calibri" font-size="8" transform="rotate(270 114 331.6)">c1</text>
<text xml:space="preserve" x="122" y="331.6" font-family="Calibri" font-size="8" transform="rotate(270 122 331.6)">c3</text>
<text xml:space="preserve" x="130" y="331.6" font-family="Calibri" font-size="8" transform="rotate(270 130 331.6)">c2</text>
<text xml:space="preserve" x="138" y="331.6" font-family="Calibri" font-size="8" transform="rotate(270 138 331.6)">c4</text>
<text xml:space="preserve" x="156" y="331.6" font-family="Calibri" font-size="8" transform="rotate(270 156 331.6)">c1_mean</text>
<text xml:space="preserve" x="164" y="331.6" font-family="Calibri" font-size="8" transform="rotate(270 164 331.6)">c3_mean</text>
<text xml:space="preserve" x="172" y="331.6" font-family="Calibri" font-size="8" transform="rotate(270 172 331.6)">c2_mean</text>
<text xml:space="preserve" x="180" y="331.6" font-family="Calibri" font-size="8" transform="rotate(270 180 331.6)">c4_mean</text>
<text xml:space="preserve" x="198" y="331.6" font-family="Calibri" font-size="8" transform="rotate(270 198 331.6)">transcription_factor</text>
<text xml:space="preserve" x="206" y="331.6" font-family="Calibri" font-size="8" transform="rotate(270 206 331.6)">transmembrane_signal_receptor</text>
<text xml:space="preserve" x="214" y="331.6" font-family="Calibri" font-size="8" transform="rotate(270 214 331.6)">growth_factor</text>
<text xml:space="preserve" x="222" y="331.6" font-family="Calibri" font-size="8" transform="rotate(270 222 331.6)">peptide_hormone</text>
<text xml:space="preserve" x="230" y="331.6" font-family="Calibri" font-size="8" transform="rotate(270 230 331.6)">cytoskeletal_protein</text>
<text xml:space="preserve" x="238" y="331.6" font-family="Calibri" font-size="8" transform="rotate(270 238 331.6)">ion_channel</text>
<text xml:space="preserve" x="246" y="331.6" font-family="Calibri" font-size="8" transform="rotate(270 246 331.6)">integrin</text>
<text xml:space="preserve" x="254" y="331.6" font-family="Calibri" font-size="8" transform="rotate(270 254 331.6)">extracellular_matrix_protein</text>
<polygon points="107,335.6 115,335.6 115,343.6 107,343.6" fill="rgb(238,170,0)"/><text xml:space="preserve" x="111" y="342.433" font-family="Calibri" font-size="7.5" fill="rgb(0,0,0)" text-anchor="middle">3</text>
<polygon points="115,335.6 123,335.6 123,343.6 115,343.6" fill="rgb(205,0,0)"/><text xml:space="preserve" x="119" y="342.433" font-family="Calibri" font-size="7.5" fill="rgb(255,255,255)" text-anchor="middle">4</text>
<polygon points="123,335.6 131,335.6 131,343.6 123,343.6" fill="rgb(205,0,0)"/><text xml:space="preserve" x="127" y="342.433" font-family="Calibri" font-size="7.5" fill="rgb(255,255,255)" text-anchor="middle">4</text>
<polygon points="131,335.6 139,335.6 139,343.6 131,343.6" fill="rgb(205,0,0)"/><text xml:space="preserve" x="135" y="342.433" font-family="Calibri" font-size="7.5" fill="rgb(255,255,255)" text-anchor="middle">4</text>
<polygon points="149,335.6 157,335.6 157,343.6 149,343.6" fill="rgb(29,143,141)"/>
<polygon points="157,335.6 165,335.6 165,343.6 157,343.6" fill="rgb(25,128,140)"/>
<polygon points="165,335.6 173,335.6 173,343.6 165,343.6" fill="rgb(216,198,26)"/>
<polygon points="173,335.6 181,335.6 181,343.6 173,343.6" fill="rgb(172,203,58)"/>
<polygon points="191,335.6 199,335.6 199,343.6 191,343.6" fill="rgb(255,255,255)"/>
<polygon points="199,335.6 207,335.6 207,343.6 199,343.6" fill="rgb(255,255,255)"/>
<polygon points="207,335.6 215,335.6 215,343.6 207,343.6" fill="rgb(255,255,255)"/>
<polygon points="215,335.6 223,335.6 223,343.6 215,343.6" fill="rgb(255,255,255)"/>
<polygon points="223,335.6 231,335.6 231,343.6 223,343.6" fill="rgb(255,255,255)"/>
<polygon points="231,335.6 239,335.6 239,343.6 231,343.6" fill="rgb(255,255,255)"/>
<polygon points="239,335.6 247,335.6 247,343.6 239,343.6" fill="rgb(255,255,255)"/>
<polygon points="247,335.6 255,335.6 255,343.6 247,343.6" fill="rgb(255,255,255)"/>
<polygon points="107,343.6 115,343.6 115,351.6 107,351.6" fill="rgb(238,170,0)"/><text xml:space="preserve" x="111" y="350.433" font-family="Calibri" font-size="7.5" fill="rgb(0,0,0)" text-anchor="middle">3</text>
<polygon points="115,343.6 123,343.6 123,351.6 115,351.6" fill="rgb(205,0,0)"/><text xml:space="preserve" x="119" y="350.433" font-family="Calibri" font-size="7.5" fill="rgb(255,255,255)" text-anchor="middle">4</text>
<polygon points="123,343.6 131,343.6 131,351.6 123,351.6" fill="rgb(205,0,0)"/><text xml:space="preserve" x="127" y="350.433" font-family="Calibri" font-size="7.5" fill="rgb(255,255,255)" text-anchor="middle">4</text>
<polygon points="131,343.6 139,343.6 139,351.6 131,351.6" fill="rgb(205,0,0)"/><text xml:space="preserve" x="135" y="350.433" font-family="Calibri" font-size="7.5" fill="rgb(255,255,255)" text-anchor="middle">4</text>
<polygon points="149,343.6 157,343.6 157,351.6 149,351.6" fill="rgb(24,123,140)"/>
<polygon points="157,343.6 165,343.6 165,351.6 157,351.6" fill="rgb(41,188,144)"/>
<polygon points="165,343.6 173,343.6 173,351.6 165,351.6" fill="rgb(62,217,136)"/>
<polygon points="173,343.6 181,343.6 181,351.6 173,351.6" fill="rgb(252,194,1)"/>
<polygon points="191,343.6 199,343.6 199,351.6 191,351.6" fill="rgb(255,255,255)"/>
<polygon points="199,343.6 207,343.6 207,351.6 199,351.6" fill="rgb(255,255,255)"/>
<polygon points="207,343.6 215,343.6 215,351.6 207,351.6" fill="rgb(255,255,255)"/>
<polygon points="215,343.6 223,343.6 223,351.6 215,351.6" fill="rgb(255,255,255)"/>
<polygon points="223,343.6 231,343.6 231,351.6 223,351.6" fill="rgb(255,255,255)"/>
<polygon points="231,343.6 239,343.6 239,351.6 231,351.6" fill="rgb(255,255,255)"/>
<polygon points="239,343.6 247,343.6 247,351.6 239,351.6" fill="rgb(255,255,255)"/>
<polygon points="247,343.6 255,343.6 255,351.6 247,351.6" fill="rgb(255,255,255)"/>
<polygon points="107,351.6 115,351.6 115,359.6 107,359.6" fill="rgb(238,170,0)"/><text xml:space="preserve" x="111" y="358.433" font-family="Calibri" font-size="7.5" fill="rgb(0,0,0)" text-anchor="middle">3</text>
<polygon points="115,351.6 123,351.6 123,359.6 115,359.6" fill="rgb(205,0,0)"/><text xml:space="preserve" x="119" y="358.433" font-family="Calibri" font-size="7.5" fill="rgb(255,255,255)" text-anchor="middle">4</text>
<polygon points="123,351.6 131,351.6 131,359.6 123,359.6" fill="rgb(205,0,0)"/><text xml:space="preserve" x="127" y="358.433" font-family="Calibri" font-size="7.5" fill="rgb(255,255,255)" text-anchor="middle">4</text>
<polygon points="131,351.6 139,351.6 139,359.6 131,359.6" fill="rgb(205,0,0)"/><text xml:space="preserve" x="135" y="358.433" font-family="Calibri" font-size="7.5" fill="rgb(255,255,255)" text-anchor="middle">4</text>
<polygon points="149,351.6 157,351.6 157,359.6 149,359.6" fill="rgb(22,114,139)"/>
<polygon points="157,351.6 165,351.6 165,359.6 157,359.6" fill="rgb(25,125,140)"/>
<polygon points="165,351.6 173,351.6 173,359.6 165,359.6" fill="rgb(128,209,88)"/>
<polygon points="173,351.6 181,351.6 181,359.6 173,359.6" fill="rgb(193,201,42)"/>
<polygon points="191,351.6 199,351.6 199,359.6 191,359.6" fill="rgb(255,255,255)"/>
<polygon points="199,351.6 207,351.6 207,359.6 199,359.6" fill="rgb(255,255,255)"/>
<polygon points="207,351.6 215,351.6 215,359.6 207,359.6" fill="rgb(255,255,255)"/>
<polygon points="215,351.6 223,351.6 223,359.6 215,359.6" fill="rgb(255,255,255)"/>
<polygon points="223,351.6 231,351.6 231,359.6 223,359.6" fill="rgb(255,255,255)"/>
<polygon points="231,351.6 239,351.6 239,359.6 231,359.6" fill="rgb(255,255,255)"/>
<polygon points="239,351.6 247,351.6 247,359.6 239,359.6" fill="rgb(255,255,255)"/>
<polygon points="247,351.6 255,351.6 255,359.6 247,359.6" fill="rgb(255,255,255)"/>
<polygon points="107,359.6 115,359.6 115,367.6 107,367.6" fill="rgb(238,170,0)"/><text xml:space="preserve" x="111" y="366.433" font-family="Calibri" font-size="7.5" fill="rgb(0,0,0)" text-anchor="middle">3</text>
<polygon points="115,359.6 123,359.6 123,367.6 115,367.6" fill="rgb(205,0,0)"/><text xml:space="preserve" x="119" y="366.433" font-family="Calibri" font-size="7.5" fill="rgb(255,255,255)" text-anchor="middle">4</text>
<polygon points="123,359.6 131,359.6 131,367.6 123,367.6" fill="rgb(205,0,0)"/><text xml:space="preserve" x="127" y="366.433" font-family="Calibri" font-size="7.5" fill="rgb(255,255,255)" text-anchor="middle">4</text>
<polygon points="131,359.6 139,359.6 139,367.6 131,367.6" fill="rgb(205,0,0)"/><text xml:space="preserve" x="135" y="366.433" font-family="Calibri" font-size="7.5" fill="rgb(255,255,255)" text-anchor="middle">4</text>
<polygon points="149,359.6 157,359.6 157,367.6 149,367.6" fill="rgb(42,194,144)"/>
<polygon points="157,359.6 165,359.6 165,367.6 157,367.6" fill="rgb(33,157,142)"/>
<polygon points="165,359.6 173,359.6 173,367.6 165,367.6" fill="rgb(112,211,100)"/>
<polygon points="173,359.6 181,359.6 181,367.6 173,367.6" fill="rgb(107,211,104)"/>
<polygon points="191,359.6 199,359.6 199,367.6 191,367.6" fill="rgb(255,255,255)"/>
<polygon points="199,359.6 207,359.6 207,367.6 199,367.6" fill="rgb(255,255,255)"/>
<polygon points="207,359.6 215,359.6 215,367.6 207,367.6" fill="rgb(255,255,255)"/>
<polygon points="215,359.6 223,359.6 223,367.6 215,367.6" fill="rgb(255,255,255)"/>
<polygon points="223,359.6 231,359.6 231,367.6 223,367.6" fill="rgb(255,255,255)"/>
<polygon points="231,359.6 239,359.6 239,367.6 231,367.6" fill="rgb(255,255,255)"/>
<polygon points="239,359.6 247,359.6 247,367.6 239,367.6" fill="rgb(255,255,255)"/>
<polygon points="247,359.6 255,359.6 255,367.6 247,367.6" fill="rgb(255,255,255)"/>
<polygon points="107,367.6 115,367.6 115,375.6 107,375.6" fill="rgb(238,170,0)"/><text xml:space="preserve" x="111" y="374.433" font-family="Calibri" font-size="7.5" fill="rgb(0,0,0)" text-anchor="middle">3</text>
<polygon points="115,367.6 123,367.6 123,375.6 115,375.6" fill="rgb(205,0,0)"/><text xml:space="preserve" x="119" y="374.433" font-family="Calibri" font-size="7.5" fill="rgb(255,255,255)" text-anchor="middle">4</text>
<polygon points="123,367.6 131,367.6 131,375.6 123,375.6" fill="rgb(205,0,0)"/><text xml:space="preserve" x="127" y="374.433" font-family="Calibri" font-size="7.5" fill="rgb(255,255,255)" text-anchor="middle">4</text>
<polygon points="131,367.6 139,367.6 139,375.6 131,375.6" fill="rgb(205,0,0)"/><text xml:space="preserve" x="135" y="374.433" font-family="Calibri" font-size="7.5" fill="rgb(255,255,255)" text-anchor="middle">4</text>
<polygon points="149,367.6 157,367.6 157,375.6 149,375.6" fill="rgb(47,212,145)"/>
<polygon points="157,367.6 165,367.6 165,375.6 157,375.6" fill="rgb(128,209,88)"/>
<polygon points="165,367.6 173,367.6 173,375.6 165,375.6" fill="rgb(74,215,127)"/>
<polygon points="173,367.6 181,367.6 181,375.6 173,375.6" fill="rgb(107,211,104)"/>
<polygon points="191,367.6 199,367.6 199,375.6 191,375.6" fill="rgb(255,255,255)"/>
<polygon points="199,367.6 207,367.6 207,375.6 199,375.6" fill="rgb(255,255,255)"/>
<polygon points="207,367.6 215,367.6 215,375.6 207,375.6" fill="rgb(255,255,255)"/>
<polygon points="215,367.6 223,367.6 223,375.6 215,375.6" fill="rgb(255,255,255)"/>
<polygon points="223,367.6 231,367.6 231,375.6 223,375.6" fill="rgb(205,0,205)"/>
<polygon points="231,367.6 239,367.6 239,375.6 231,375.6" fill="rgb(255,255,255)"/>
<polygon points="239,367.6 247,367.6 247,375.6 239,375.6" fill="rgb(255,255,255)"/>
<polygon points="247,367.6 255,367.6 255,375.6 247,375.6" fill="rgb(255,255,255)"/>
<polygon points="107,375.6 115,375.6 115,383.6 107,383.6" fill="rgb(238,170,0)"/><text xml:space="preserve" x="111" y="382.433" font-family="Calibri" font-size="7.5" fill="rgb(0,0,0)" text-anchor="middle">3</text>
<polygon points="115,375.6 123,375.6 123,383.6 115,383.6" fill="rgb(205,0,0)"/><text xml:space="preserve" x="119" y="382.433" font-family="Calibri" font-size="7.5" fill="rgb(255,255,255)" text-anchor="middle">4</text>
<polygon points="123,375.6 131,375.6 131,383.6 123,383.6" fill="rgb(205,0,0)"/><text xml:space="preserve" x="127" y="382.433" font-family="Calibri" font-size="7.5" fill="rgb(255,255,255)" text-anchor="middle">4</text>
<polygon points="131,375.6 139,375.6 139,383.6 131,383.6" fill="rgb(205,0,0)"/><text xml:space="preserve" x="135" y="382.433" font-family="Calibri" font-size="7.5" fill="rgb(255,255,255)" text-anchor="middle">4</text>
<polygon points="149,375.6 157,375.6 157,383.6 149,383.6" fill="rgb(25,128,140)"/>
<polygon points="157,375.6 165,375.6 165,383.6 157,383.6" fill="rgb(42,192,144)"/>
<polygon points="165,375.6 173,375.6 173,383.6 165,383.6" fill="rgb(168,204,60)"/>
<polygon points="173,375.6 181,375.6 181,383.6 173,383.6" fill="rgb(84,214,120)"/>
<polygon points="191,375.6 199,375.6 199,383.6 191,383.6" fill="rgb(255,255,255)"/>
<polygon points="199,375.6 207,375.6 207,383.6 199,383.6" fill="rgb(255,255,255)"/>
<polygon points="207,375.6 215,375.6 215,383.6 207,383.6" fill="rgb(255,255,255)"/>
<polygon points="215,375.6 223,375.6 223,383.6 215,383.6" fill="rgb(255,255,255)"/>
<polygon points="223,375.6 231,375.6 231,383.6 223,383.6" fill="rgb(255,255,255)"/>
<polygon points="231,375.6 239,375.6 239,383.6 231,383.6" fill="rgb(255,255,255)"/>
<polygon points="239,375.6 247,375.6 247,383.6 239,383.6" fill="rgb(255,255,255)"/>
<polygon points="247,375.6 255,375.6 255,383.6 247,383.6" fill="rgb(255,255,255)"/>
<polygon points="107,383.6 115,383.6 115,391.6 107,391.6" fill="rgb(238,170,0)"/><text xml:space="preserve" x="111" y="390.433" font-family="Calibri" font-size="7.5" fill="rgb(0,0,0)" text-anchor="middle">3</text>
<polygon points="115,383.6 123,383.6 123,391.6 115,391.6" fill="rgb(205,0,0)"/><text xml:space="preserve" x="119" y="390.433" font-family="Calibri" font-size="7.5" fill="rgb(255,255,255)" text-anchor="middle">4</text>
<polygon points="123,383.6 131,383.6 131,391.6 123,391.6" fill="rgb(205,0,0)"/><text xml:space="preserve" x="127" y="390.433" font-family="Calibri" font-size="7.5" fill="rgb(255,255,255)" text-anchor="middle">4</text>
<polygon points="131,383.6 139,383.6 139,391.6 131,391.6" fill="rgb(205,0,0)"/><text xml:space="preserve" x="135" y="390.433" font-family="Calibri" font-size="7.5" fill="rgb(255,255,255)" text-anchor="middle">4</text>
<polygon points="149,383.6 157,383.6 157,391.6 149,391.6" fill="rgb(12,75,137)"/>
<polygon points="157,383.6 165,383.6 165,391.6 157,391.6" fill="rgb(25,125,140)"/>
<polygon points="165,383.6 173,383.6 173,391.6 165,391.6" fill="rgb(252,194,1)"/>
<polygon points="173,383.6 181,383.6 181,391.6 173,391.6" fill="rgb(252,194,1)"/>
<polygon points="191,383.6 199,383.6 199,391.6 191,391.6" fill="rgb(205,0,205)"/>
<polygon points="199,383.6 207,383.6 207,391.6 199,391.6" fill="rgb(255,255,255)"/>
<polygon points="207,383.6 215,383.6 215,391.6 207,391.6" fill="rgb(255,255,255)"/>
<polygon points="215,383.6 223,383.6 223,391.6 215,391.6" fill="rgb(255,255,255)"/>
<polygon points="223,383.6 231,383.6 231,391.6 223,391.6" fill="rgb(255,255,255)"/>
<polygon points="231,383.6 239,383.6 239,391.6 231,391.6" fill="rgb(255,255,255)"/>
<polygon points="239,383.6 247,383.6 247,391.6 239,391.6" fill="rgb(255,255,255)"/>
<polygon points="247,383.6 255,383.6 255,391.6 247,391.6" fill="rgb(255,255,255)"/>
<polygon points="107,391.6 115,391.6 115,399.6 107,399.6" fill="rgb(238,170,0)"/><text xml:space="preserve" x="111" y="398.433" font-family="Calibri" font-size="7.5" fill="rgb(0,0,0)" text-anchor="middle">3</text>
<polygon points="115,391.6 123,391.6 123,399.6 115,399.6" fill="rgb(205,0,0)"/><text xml:space="preserve" x="119" y="398.433" font-family="Calibri" font-size="7.5" fill="rgb(255,255,255)" text-anchor="middle">4</text>
<polygon points="123,391.6 131,391.6 131,399.6 123,399.6" fill="rgb(205,0,0)"/><text xml:space="preserve" x="127" y="398.433" font-family="Calibri" font-size="7.5" fill="rgb(255,255,255)" text-anchor="middle">4</text>
<polygon points="131,391.6 139,391.6 139,399.6 131,399.6" fill="rgb(205,0,0)"/><text xml:space="preserve" x="135" y="398.433" font-family="Calibri" font-size="7.5" fill="rgb(255,255,255)" text-anchor="middle">4</text>
<polygon points="149,391.6 157,391.6 157,399.6 149,399.6" fill="rgb(12,76,137)"/>
<polygon points="157,391.6 165,391.6 165,399.6 157,399.6" fill="rgb(25,128,140)"/>
<polygon points="165,391.6 173,391.6 173,399.6 165,399.6" fill="rgb(252,194,1)"/>
<polygon points="173,391.6 181,391.6 181,399.6 173,399.6" fill="rgb(130,209,87)"/>
<polygon points="191,391.6 199,391.6 199,399.6 191,399.6" fill="rgb(205,0,205)"/>
<polygon points="199,391.6 207,391.6 207,399.6 199,399.6" fill="rgb(255,255,255)"/>
<polygon points="207,391.6 215,391.6 215,399.6 207,399.6" fill="rgb(255,255,255)"/>
<polygon points="215,391.6 223,391.6 223,399.6 215,399.6" fill="rgb(255,255,255)"/>
<polygon points="223,391.6 231,391.6 231,399.6 223,399.6" fill="rgb(255,255,255)"/>
<polygon points="231,391.6 239,391.6 239,399.6 231,399.6" fill="rgb(255,255,255)"/>
<polygon points="239,391.6 247,391.6 247,399.6 239,399.6" fill="rgb(255,255,255)"/>
<polygon points="247,391.6 255,391.6 255,399.6 247,399.6" fill="rgb(255,255,255)"/>
<polygon points="107,399.6 115,399.6 115,407.6 107,407.6" fill="rgb(238,170,0)"/><text xml:space="preserve" x="111" y="406.433" font-family="Calibri" font-size="7.5" fill="rgb(0,0,0)" text-anchor="middle">3</text>
<polygon points="115,399.6 123,399.6 123,407.6 115,407.6" fill="rgb(205,0,0)"/><text xml:space="preserve" x="119" y="406.433" font-family="Calibri" font-size="7.5" fill="rgb(255,255,255)" text-anchor="middle">4</text>
<polygon points="123,399.6 131,399.6 131,407.6 123,407.6" fill="rgb(205,0,0)"/><text xml:space="preserve" x="127" y="406.433" font-family="Calibri" font-size="7.5" fill="rgb(255,255,255)" text-anchor="middle">4</text>
<polygon points="131,399.6 139,399.6 139,407.6 131,407.6" fill="rgb(205,0,0)"/><text xml:space="preserve" x="135" y="406.433" font-family="Calibri" font-size="7.5" fill="rgb(255,255,255)" text-anchor="middle">4</text>
<polygon points="149,399.6 157,399.6 157,407.6 149,407.6" fill="rgb(32,155,142)"/>
<polygon points="157,399.6 165,399.6 165,407.6 157,407.6" fill="rgb(27,135,141)"/>
<polygon points="165,399.6 173,399.6 173,407.6 165,407.6" fill="rgb(197,200,39)"/>
<polygon points="173,399.6 181,399.6 181,407.6 173,407.6" fill="rgb(80,215,123)"/>
<polygon points="191,399.6 199,399.6 199,407.6 191,407.6" fill="rgb(205,0,205)"/>
<polygon points="199,399.6 207,399.6 207,407.6 199,407.6" fill="rgb(255,255,255)"/>
<polygon points="207,399.6 215,399.6 215,407.6 207,407.6" fill="rgb(255,255,255)"/>
<polygon points="215,399.6 223,399.6 223,407.6 215,407.6" fill="rgb(255,255,255)"/>
<polygon points="223,399.6 231,399.6 231,407.6 223,407.6" fill="rgb(255,255,255)"/>
<polygon points="231,399.6 239,399.6 239,407.6 231,407.6" fill="rgb(255,255,255)"/>
<polygon points="239,399.6 247,399.6 247,407.6 239,407.6" fill="rgb(255,255,255)"/>
<polygon points="247,399.6 255,399.6 255,407.6 247,407.6" fill="rgb(255,255,255)"/>
<polygon points="107,407.6 115,407.6 115,415.6 107,415.6" fill="rgb(238,170,0)"/><text xml:space="preserve" x="111" y="414.433" font-family="Calibri" font-size="7.5" fill="rgb(0,0,0)" text-anchor="middle">3</text>
<polygon points="115,407.6 123,407.6 123,415.6 115,415.6" fill="rgb(205,0,0)"/><text xml:space="preserve" x="119" y="414.433" font-family="Calibri" font-size="7.5" fill="rgb(255,255,255)" text-anchor="middle">4</text>
<polygon points="123,407.6 131,407.6 131,415.6 123,415.6" fill="rgb(205,0,0)"/><text xml:space="preserve" x="127" y="414.433" font-family="Calibri" font-size="7.5" fill="rgb(255,255,255)" text-anchor="middle">4</text>
<polygon points="131,407.6 139,407.6 139,415.6 131,415.6" fill="rgb(205,0,0)"/><text xml:space="preserve" x="135" y="414.433" font-family="Calibri" font-size="7.5" fill="rgb(255,255,255)" text-anchor="middle">4</text>
<polygon points="149,407.6 157,407.6 157,415.6 149,415.6" fill="rgb(40,184,144)"/>
<polygon points="157,407.6 165,407.6 165,415.6 157,415.6" fill="rgb(44,199,144)"/>
<polygon points="165,407.6 173,407.6 173,415.6 165,415.6" fill="rgb(48,217,145)"/>
<polygon points="173,407.6 181,407.6 181,415.6 173,415.6" fill="rgb(122,209,93)"/>
<polygon points="191,407.6 199,407.6 199,415.6 191,415.6" fill="rgb(255,255,255)"/>
<polygon points="199,407.6 207,407.6 207,415.6 199,415.6" fill="rgb(255,255,255)"/>
<polygon points="207,407.6 215,407.6 215,415.6 207,415.6" fill="rgb(255,255,255)"/>
<polygon points="215,407.6 223,407.6 223,415.6 215,415.6" fill="rgb(255,255,255)"/>
<polygon points="223,407.6 231,407.6 231,415.6 223,415.6" fill="rgb(255,255,255)"/>
<polygon points="231,407.6 239,407.6 239,415.6 231,415.6" fill="rgb(255,255,255)"/>
<polygon points="239,407.6 247,407.6 247,415.6 239,415.6" fill="rgb(255,255,255)"/>
<polygon points="247,407.6 255,407.6 255,415.6 247,415.6" fill="rgb(255,255,255)"/>
<polygon points="107,415.6 115,415.6 115,423.6 107,423.6" fill="rgb(238,170,0)"/><text xml:space="preserve" x="111" y="422.433" font-family="Calibri" font-size="7.5" fill="rgb(0,0,0)" text-anchor="middle">3</text>
<polygon points="115,415.6 123,415.6 123,423.6 115,423.6" fill="rgb(205,0,0)"/><text xml:space="preserve" x="119" y="422.433" font-family="Calibri" font-size="7.5" fill="rgb(255,255,255)" text-anchor="middle">4</text>
<polygon points="123,415.6 131,415.6 131,423.6 123,423.6" fill="rgb(205,0,0)"/><text xml:space="preserve" x="127" y="422.433" font-family="Calibri" font-size="7.5" fill="rgb(255,255,255)" text-anchor="middle">4</text>
<polygon points="131,415.6 139,415.6 139,423.6 131,423.6" fill="rgb(205,0,0)"/><text xml:space="preserve" x="135" y="422.433" font-family="Calibri" font-size="7.5" fill="rgb(255,255,255)" text-anchor="middle">4</text>
<polygon points="149,415.6 157,415.6 157,423.6 149,423.6" fill="rgb(22,114,139)"/>
<polygon points="157,415.6 165,415.6 165,423.6 157,423.6" fill="rgb(26,131,141)"/>
<polygon points="165,415.6 173,415.6 173,423.6 165,423.6" fill="rgb(134,208,85)"/>
<polygon points="173,415.6 181,415.6 181,423.6 173,423.6" fill="rgb(43,198,144)"/>
<polygon points="191,415.6 199,415.6 199,423.6 191,423.6" fill="rgb(205,0,205)"/>
<polygon points="199,415.6 207,415.6 207,423.6 199,423.6" fill="rgb(255,255,255)"/>
<polygon points="207,415.6 215,415.6 215,423.6 207,423.6" fill="rgb(255,255,255)"/>
<polygon points="215,415.6 223,415.6 223,423.6 215,423.6" fill="rgb(255,255,255)"/>
<polygon points="223,415.6 231,415.6 231,423.6 223,423.6" fill="rgb(255,255,255)"/>
<polygon points="231,415.6 239,415.6 239,423.6 231,423.6" fill="rgb(255,255,255)"/>
<polygon points="239,415.6 247,415.6 247,423.6 239,423.6" fill="rgb(255,255,255)"/>
<polygon points="247,415.6 255,415.6 255,423.6 247,423.6" fill="rgb(255,255,255)"/>
<polygon points="107,335.6 139,335.6 139,423.6 107,423.6" fill="none" stroke="black" stroke-width="1"/>
<polygon points="149,335.6 181,335.6 181,423.6 149,423.6" fill="none" stroke="black" stroke-width="1"/>
<polygon points="191,335.6 255,335.6 255,423.6 191,423.6" fill="none" stroke="black" stroke-width="1"/>
<text xml:space="preserve" x="137.5" y="456.6" font-family="Calibri" font-size="8" text-anchor="middle">ClusterAssignment</text>
<polygon points="97.5,463.6 117.5,463.6 117.5,483.6 97.5,483.6" fill="rgb(0,205,0)"/><polygon points="97.5,463.6 117.5,463.6 117.5,483.6 97.5,483.6" fill="none" stroke="black" stroke-width="1"/><text xml:space="preserve" x="107.5" y="476.433" font-family="Calibri" font-size="7.5" fill="rgb(255,255,255)" text-anchor="middle">1.0</text>
<polygon points="117.5,463.6 137.5,463.6 137.5,483.6 117.5,483.6" fill="rgb(170,238,0)"/><polygon points="117.5,463.6 137.5,463.6 137.5,483.6 117.5,483.6" fill="none" stroke="black" stroke-width="1"/><text xml:space="preserve" x="127.5" y="476.433" font-family="Calibri" font-size="7.5" fill="rgb(0,0,0)" text-anchor="middle">2.0</text>
<polygon points="137.5,463.6 157.5,463.6 157.5,483.6 137.5,483.6" fill="rgb(238,170,0)"/><polygon points="137.5,463.6 157.5,463.6 157.5,483.6 137.5,483.6" fill="none" stroke="black" stroke-width="1"/><text xml:space="preserve" x="147.5" y="476.433" font-family="Calibri" font-size="7.5" fill="rgb(0,0,0)" text-anchor="middle">3.0</text>
<polygon points="157.5,463.6 177.5,463.6 177.5,483.6 157.5,483.6" fill="rgb(205,0,0)"/><polygon points="157.5,463.6 177.5,463.6 177.5,483.6 157.5,483.6" fill="none" stroke="black" stroke-width="1"/><text xml:space="preserve" x="167.5" y="476.433" font-family="Calibri" font-size="7.5" fill="rgb(255,255,255)" text-anchor="middle">4.0</text>
<text xml:space="preserve" x="137.5" y="516.6" font-family="Calibri" font-size="8" text-anchor="middle">Expression</text>
<polygon points="97.5,523.6 117.5,523.6 117.5,543.6 97.5,543.6" fill="rgb(0,27,135)"/><polygon points="97.5,523.6 117.5,523.6 117.5,543.6 97.5,543.6" fill="none" stroke="black" stroke-width="1"/><text xml:space="preserve" x="107.5" y="536.433" font-family="Calibri" font-size="7.5" fill="rgb(255,255,255)" text-anchor="middle">0.0</text>
<polygon points="117.5,523.6 137.5,523.6 137.5,543.6 117.5,543.6" fill="rgb(32,155,142)"/><polygon points="117.5,523.6 137.5,523.6 137.5,543.6 117.5,543.6" fill="none" stroke="black" stroke-width="1"/><text xml:space="preserve" x="127.5" y="536.433" font-family="Calibri" font-size="7.5" fill="rgb(255,255,255)" text-anchor="middle">1.0</text>
<polygon points="137.5,523.6 157.5,523.6 157.5,543.6 137.5,543.6" fill="rgb(116,210,97)"/><polygon points="137.5,523.6 157.5,523.6 157.5,543.6 137.5,543.6" fill="none" stroke="black" stroke-width="1"/><text xml:space="preserve" x="147.5" y="536.433" font-family="Calibri" font-size="7.5" fill="rgb(0,0,0)" text-anchor="middle">2.0</text>
<polygon points="157.5,523.6 177.5,523.6 177.5,543.6 157.5,543.6" fill="rgb(252,194,1)"/><polygon points="157.5,523.6 177.5,523.6 177.5,543.6 157.5,543.6" fill="none" stroke="black" stroke-width="1"/><text xml:space="preserve" x="167.5" y="536.433" font-family="Calibri" font-size="7.5" fill="rgb(0,0,0)" text-anchor="middle">3.0</text>
<text xml:space="preserve" x="137.5" y="576.6" font-family="Calibri" font-size="8" text-anchor="middle">PANTHERclass</text>
<polygon points="97.5,583.6 117.5,583.6 117.5,603.6 97.5,603.6" fill="rgb(255,255,255)"/><polygon points="97.5,583.6 117.5,583.6 117.5,603.6 97.5,603.6" fill="none" stroke="black" stroke-width="1"/><text xml:space="preserve" x="107.5" y="596.433" font-family="Calibri" font-size="7.5" fill="rgb(0,0,0)" text-anchor="middle">0.0</text>
<polygon points="117.5,583.6 137.5,583.6 137.5,603.6 117.5,603.6" fill="rgb(238,170,238)"/><polygon points="117.5,583.6 137.5,583.6 137.5,603.6 117.5,603.6" fill="none" stroke="black" stroke-width="1"/><text xml:space="preserve" x="127.5" y="596.433" font-family="Calibri" font-size="7.5" fill="rgb(0,0,0)" text-anchor="middle">0.3</text>
<polygon points="137.5,583.6 157.5,583.6 157.5,603.6 137.5,603.6" fill="rgb(221,84,221)"/><polygon points="137.5,583.6 157.5,583.6 157.5,603.6 137.5,603.6" fill="none" stroke="black" stroke-width="1"/><text xml:space="preserve" x="147.5" y="596.433" font-family="Calibri" font-size="7.5" fill="rgb(0,0,0)" text-anchor="middle">0.7</text>
<polygon points="157.5,583.6 177.5,583.6 177.5,603.6 157.5,603.6" fill="rgb(205,0,205)"/><polygon points="157.5,583.6 177.5,583.6 177.5,603.6 157.5,603.6" fill="none" stroke="black" stroke-width="1"/><text xml:space="preserve" x="167.5" y="596.433" font-family="Calibri" font-size="7.5" fill="rgb(255,255,255)" text-anchor="middle">1.0</text>
</svg>
