<?xml version="1.0" standalone="no"?><!DOCTYPE svg PUBLIC "-//W3C//DTD SVG 1.1//EN" "http://www.w3.org/Graphics/SVG/1.1/DTD/svg11.dtd">
<svg width="266.5" height="402" version="1.1" xmlns="http://www.w3.org/2000/svg">
<text xml:space="preserve" x="122.5" y="130" font-family="Calibri" font-size="8" text-anchor="end">H24_dN</text>
<text xml:space="preserve" x="122.5" y="140" font-family="Calibri" font-size="8" text-anchor="end">H48_dN</text>
<text xml:space="preserve" x="122.5" y="150" font-family="Calibri" font-size="8" text-anchor="end">H72_dN</text>
<text xml:space="preserve" x="122.5" y="160" font-family="Calibri" font-size="8" text-anchor="end">H120_dN</text>
<text xml:space="preserve" x="122.5" y="170" font-family="Calibri" font-size="8" text-anchor="end">H168_dN</text>
<text xml:space="preserve" x="122.5" y="180" font-family="Calibri" font-size="8" text-anchor="end">H216_dN</text>
<text xml:space="preserve" x="122.5" y="190" font-family="Calibri" font-size="8" text-anchor="end">H24_vN</text>
<text xml:space="preserve" x="122.5" y="200" font-family="Calibri" font-size="8" text-anchor="end">H48_vN</text>
<text xml:space="preserve" x="122.5" y="210" font-family="Calibri" font-size="8" text-anchor="end">H72_vN</text>
<text xml:space="preserve" x="122.5" y="220" font-family="Calibri" font-size="8" text-anchor="end">H120_vN</text>
<text xml:space="preserve" x="122.5" y="230" font-family="Calibri" font-size="8" text-anchor="end">H168_vN</text>
<text xml:space="preserve" x="122.5" y="240" font-family="Calibri" font-size="8" text-anchor="end">H216_vN</text>
<text xml:space="preserve" x="122.5" y="250" font-family="Calibri" font-size="8" text-anchor="end">H216R_vN</text>
<text xml:space="preserve" x="122.5" y="260" font-family="Calibri" font-size="8" text-anchor="end">H216R_dN</text>
<text xml:space="preserve" x="139.5" y="118" font-family="Calibri" font-size="8" transform="rotate(270 139.5 118)">Num_cells</text>
<text xml:space="preserve" x="169.5" y="118" font-family="Calibri" font-size="8" transform="rotate(270 169.5 118)">1</text>
<text xml:space="preserve" x="189.5" y="118" font-family="Calibri" font-size="8" transform="rotate(270 189.5 118)">2</text>
<text xml:space="preserve" x="209.5" y="118" font-family="Calibri" font-size="8" transform="rotate(270 209.5 118)">3</text>
<text xml:space="preserve" x="229.5" y="118" font-family="Calibri" font-size="8" transform="rotate(270 229.5 118)">4</text>
<polygon points="126.5,122 146.5,122 146.5,132 126.5,132" fill="rgb(105,105,255)"/><text xml:space="preserve" x="136.5" y="129.833" font-family="Calibri" font-size="7.5" fill="rgb(255,255,255)" text-anchor="middle">1381</text>
<polygon points="156.5,122 176.5,122 176.5,132 156.5,132" fill="rgb(255,252,252)"/><text xml:space="preserve" x="166.5" y="129.833" font-family="Calibri" font-size="7.5" fill="rgb(0,0,0)" text-anchor="middle">0.02</text>
<polygon points="176.5,122 196.5,122 196.5,132 176.5,132" fill="rgb(255,255,255)"/><text xml:space="preserve" x="186.5" y="129.833" font-family="Calibri" font-size="7.5" fill="rgb(0,0,0)" text-anchor="middle">0.00</text>
<polygon points="196.5,122 216.5,122 216.5,132 196.5,132" fill="rgb(255,108,108)"/><text xml:space="preserve" x="206.5" y="129.833" font-family="Calibri" font-size="7.5" fill="rgb(0,0,0)" text-anchor="middle">0.98</text>
<polygon points="216.5,122 236.5,122 236.5,132 216.5,132" fill="rgb(255,255,255)"/><text xml:space="preserve" x="226.5" y="129.833" font-family="Calibri" font-size="7.5" fill="rgb(0,0,0)" text-anchor="middle">0.00</text>
<polygon points="126.5,132 146.5,132 146.5,142 126.5,142" fill="rgb(242,242,255)"/><text xml:space="preserve" x="136.5" y="139.833" font-family="Calibri" font-size="7.5" fill="rgb(0,0,0)" text-anchor="middle">83</text>
<polygon points="156.5,132 176.5,132 176.5,142 156.5,142" fill="rgb(255,151,151)"/><text xml:space="preserve" x="166.5" y="139.833" font-family="Calibri" font-size="7.5" fill="rgb(0,0,0)" text-anchor="middle">0.69</text>
<polygon points="176.5,132 196.5,132 196.5,142 176.5,142" fill="rgb(255,255,255)"/><text xml:space="preserve" x="186.5" y="139.833" font-family="Calibri" font-size="7.5" fill="rgb(0,0,0)" text-anchor="middle">0.00</text>
<polygon points="196.5,132 216.5,132 216.5,142 196.5,142" fill="rgb(255,208,208)"/><text xml:space="preserve" x="206.5" y="139.833" font-family="Calibri" font-size="7.5" fill="rgb(0,0,0)" text-anchor="middle">0.31</text>
<polygon points="216.5,132 236.5,132 236.5,142 216.5,142" fill="rgb(255,255,255)"/><text xml:space="preserve" x="226.5" y="139.833" font-family="Calibri" font-size="7.5" fill="rgb(0,0,0)" text-anchor="middle">0.00</text>
<polygon points="126.5,142 146.5,142 146.5,152 126.5,152" fill="rgb(153,153,255)"/><text xml:space="preserve" x="136.5" y="149.833" font-family="Calibri" font-size="7.5" fill="rgb(0,0,0)" text-anchor="middle">675</text>
<polygon points="156.5,142 176.5,142 176.5,152 156.5,152" fill="rgb(255,213,213)"/><text xml:space="preserve" x="166.5" y="149.833" font-family="Calibri" font-size="7.5" fill="rgb(0,0,0)" text-anchor="middle">0.28</text>
<polygon points="176.5,142 196.5,142 196.5,152 176.5,152" fill="rgb(255,255,255)"/><text xml:space="preserve" x="186.5" y="149.833" font-family="Calibri" font-size="7.5" fill="rgb(0,0,0)" text-anchor="middle">0.00</text>
<polygon points="196.5,142 216.5,142 216.5,152 196.5,152" fill="rgb(255,147,147)"/><text xml:space="preserve" x="206.5" y="149.833" font-family="Calibri" font-size="7.5" fill="rgb(0,0,0)" text-anchor="middle">0.72</text>
<polygon points="216.5,142 236.5,142 236.5,152 216.5,152" fill="rgb(255,255,255)"/><text xml:space="preserve" x="226.5" y="149.833" font-family="Calibri" font-size="7.5" fill="rgb(0,0,0)" text-anchor="middle">0.00</text>
<polygon points="126.5,152 146.5,152 146.5,162 126.5,162" fill="rgb(158,158,255)"/><text xml:space="preserve" x="136.5" y="159.833" font-family="Calibri" font-size="7.5" fill="rgb(0,0,0)" text-anchor="middle">641</text>
<polygon points="156.5,152 176.5,152 176.5,162 156.5,162" fill="rgb(255,201,201)"/><text xml:space="preserve" x="166.5" y="159.833" font-family="Calibri" font-size="7.5" fill="rgb(0,0,0)" text-anchor="middle">0.36</text>
<polygon points="176.5,152 196.5,152 196.5,162 176.5,162" fill="rgb(255,255,255)"/><text xml:space="preserve" x="186.5" y="159.833" font-family="Calibri" font-size="7.5" fill="rgb(0,0,0)" text-anchor="middle">0.00</text>
<polygon points="196.5,152 216.5,152 216.5,162 196.5,162" fill="rgb(255,159,159)"/><text xml:space="preserve" x="206.5" y="159.833" font-family="Calibri" font-size="7.5" fill="rgb(0,0,0)" text-anchor="middle">0.64</text>
<polygon points="216.5,152 236.5,152 236.5,162 216.5,162" fill="rgb(255,255,255)"/><text xml:space="preserve" x="226.5" y="159.833" font-family="Calibri" font-size="7.5" fill="rgb(0,0,0)" text-anchor="middle">0.00</text>
<polygon points="126.5,162 146.5,162 146.5,172 126.5,172" fill="rgb(249,249,255)"/><text xml:space="preserve" x="136.5" y="169.833" font-family="Calibri" font-size="7.5" fill="rgb(0,0,0)" text-anchor="middle">37</text>
<polygon points="156.5,162 176.5,162 176.5,172 156.5,172" fill="rgb(255,231,231)"/><text xml:space="preserve" x="166.5" y="169.833" font-family="Calibri" font-size="7.5" fill="rgb(0,0,0)" text-anchor="middle">0.16</text>
<polygon points="176.5,162 196.5,162 196.5,172 176.5,172" fill="rgb(255,255,255)"/><text xml:space="preserve" x="186.5" y="169.833" font-family="Calibri" font-size="7.5" fill="rgb(0,0,0)" text-anchor="middle">0.00</text>
<polygon points="196.5,162 216.5,162 216.5,172 196.5,172" fill="rgb(255,129,129)"/><text xml:space="preserve" x="206.5" y="169.833" font-family="Calibri" font-size="7.5" fill="rgb(0,0,0)" text-anchor="middle">0.84</text>
<polygon points="216.5,162 236.5,162 236.5,172 216.5,172" fill="rgb(255,255,255)"/><text xml:space="preserve" x="226.5" y="169.833" font-family="Calibri" font-size="7.5" fill="rgb(0,0,0)" text-anchor="middle">0.00</text>
<polygon points="126.5,172 146.5,172 146.5,182 126.5,182" fill="rgb(190,190,254)"/><text xml:space="preserve" x="136.5" y="179.833" font-family="Calibri" font-size="7.5" fill="rgb(0,0,0)" text-anchor="middle">433</text>
<polygon points="156.5,172 176.5,172 176.5,182 156.5,182" fill="rgb(255,121,121)"/><text xml:space="preserve" x="166.5" y="179.833" font-family="Calibri" font-size="7.5" fill="rgb(0,0,0)" text-anchor="middle">0.89</text>
<polygon points="176.5,172 196.5,172 196.5,182 176.5,182" fill="rgb(255,255,255)"/><text xml:space="preserve" x="186.5" y="179.833" font-family="Calibri" font-size="7.5" fill="rgb(0,0,0)" text-anchor="middle">0.00</text>
<polygon points="196.5,172 216.5,172 216.5,182 196.5,182" fill="rgb(254,244,244)"/><text xml:space="preserve" x="206.5" y="179.833" font-family="Calibri" font-size="7.5" fill="rgb(0,0,0)" text-anchor="middle">0.07</text>
<polygon points="216.5,172 236.5,172 236.5,182 216.5,182" fill="rgb(254,248,248)"/><text xml:space="preserve" x="226.5" y="179.833" font-family="Calibri" font-size="7.5" fill="rgb(0,0,0)" text-anchor="middle">0.04</text>
<polygon points="126.5,182 146.5,182 146.5,192 126.5,192" fill="rgb(250,250,255)"/><text xml:space="preserve" x="136.5" y="189.833" font-family="Calibri" font-size="7.5" fill="rgb(0,0,0)" text-anchor="middle">31</text>
<polygon points="156.5,182 176.5,182 176.5,192 156.5,192" fill="rgb(255,139,139)"/><text xml:space="preserve" x="166.5" y="189.833" font-family="Calibri" font-size="7.5" fill="rgb(0,0,0)" text-anchor="middle">0.77</text>
<polygon points="176.5,182 196.5,182 196.5,192 176.5,192" fill="rgb(255,255,255)"/><text xml:space="preserve" x="186.5" y="189.833" font-family="Calibri" font-size="7.5" fill="rgb(0,0,0)" text-anchor="middle">0.00</text>
<polygon points="196.5,182 216.5,182 216.5,192 196.5,192" fill="rgb(255,220,220)"/><text xml:space="preserve" x="206.5" y="189.833" font-family="Calibri" font-size="7.5" fill="rgb(0,0,0)" text-anchor="middle">0.23</text>
<polygon points="216.5,182 236.5,182 236.5,192 216.5,192" fill="rgb(255,255,255)"/><text xml:space="preserve" x="226.5" y="189.833" font-family="Calibri" font-size="7.5" fill="rgb(0,0,0)" text-anchor="middle">0.00</text>
<polygon points="126.5,192 146.5,192 146.5,202 126.5,202" fill="rgb(237,237,255)"/><text xml:space="preserve" x="136.5" y="199.833" font-family="Calibri" font-size="7.5" fill="rgb(0,0,0)" text-anchor="middle">118</text>
<polygon points="156.5,192 176.5,192 176.5,202 156.5,202" fill="rgb(255,105,105)"/><text xml:space="preserve" x="166.5" y="199.833" font-family="Calibri" font-size="7.5" fill="rgb(0,0,0)" text-anchor="middle">1.00</text>
<polygon points="176.5,192 196.5,192 196.5,202 176.5,202" fill="rgb(255,255,255)"/><text xml:space="preserve" x="186.5" y="199.833" font-family="Calibri" font-size="7.5" fill="rgb(0,0,0)" text-anchor="middle">0.00</text>
<polygon points="196.5,192 216.5,192 216.5,202 196.5,202" fill="rgb(255,255,255)"/><text xml:space="preserve" x="206.5" y="199.833" font-family="Calibri" font-size="7.5" fill="rgb(0,0,0)" text-anchor="middle">0.00</text>
<polygon points="216.5,192 236.5,192 236.5,202 216.5,202" fill="rgb(255,255,255)"/><text xml:space="preserve" x="226.5" y="199.833" font-family="Calibri" font-size="7.5" fill="rgb(0,0,0)" text-anchor="middle">0.00</text>
<polygon points="126.5,202 146.5,202 146.5,212 126.5,212" fill="rgb(253,253,255)"/><text xml:space="preserve" x="136.5" y="209.833" font-family="Calibri" font-size="7.5" fill="rgb(0,0,0)" text-anchor="middle">8</text>
<polygon points="156.5,202 176.5,202 176.5,212 156.5,212" fill="rgb(255,198,198)"/><text xml:space="preserve" x="166.5" y="209.833" font-family="Calibri" font-size="7.5" fill="rgb(0,0,0)" text-anchor="middle">0.38</text>
<polygon points="176.5,202 196.5,202 196.5,212 176.5,212" fill="rgb(255,255,255)"/><text xml:space="preserve" x="186.5" y="209.833" font-family="Calibri" font-size="7.5" fill="rgb(0,0,0)" text-anchor="middle">0.00</text>
<polygon points="196.5,202 216.5,202 216.5,212 196.5,212" fill="rgb(255,162,162)"/><text xml:space="preserve" x="206.5" y="209.833" font-family="Calibri" font-size="7.5" fill="rgb(0,0,0)" text-anchor="middle">0.62</text>
<polygon points="216.5,202 236.5,202 236.5,212 216.5,212" fill="rgb(255,255,255)"/><text xml:space="preserve" x="226.5" y="209.833" font-family="Calibri" font-size="7.5" fill="rgb(0,0,0)" text-anchor="middle">0.00</text>
<polygon points="126.5,212 146.5,212 146.5,222 126.5,222" fill="rgb(253,253,255)"/><text xml:space="preserve" x="136.5" y="219.833" font-family="Calibri" font-size="7.5" fill="rgb(0,0,0)" text-anchor="middle">7</text>
<polygon points="156.5,212 176.5,212 176.5,222 156.5,222" fill="rgb(255,169,169)"/><text xml:space="preserve" x="166.5" y="219.833" font-family="Calibri" font-size="7.5" fill="rgb(0,0,0)" text-anchor="middle">0.57</text>
<polygon points="176.5,212 196.5,212 196.5,222 176.5,222" fill="rgb(255,255,255)"/><text xml:space="preserve" x="186.5" y="219.833" font-family="Calibri" font-size="7.5" fill="rgb(0,0,0)" text-anchor="middle">0.00</text>
<polygon points="196.5,212 216.5,212 216.5,222 196.5,222" fill="rgb(255,190,190)"/><text xml:space="preserve" x="206.5" y="219.833" font-family="Calibri" font-size="7.5" fill="rgb(0,0,0)" text-anchor="middle">0.43</text>
<polygon points="216.5,212 236.5,212 236.5,222 216.5,222" fill="rgb(255,255,255)"/><text xml:space="preserve" x="226.5" y="219.833" font-family="Calibri" font-size="7.5" fill="rgb(0,0,0)" text-anchor="middle">0.00</text>
<polygon points="126.5,222 146.5,222 146.5,232 126.5,232" fill="rgb(249,249,255)"/><text xml:space="preserve" x="136.5" y="229.833" font-family="Calibri" font-size="7.5" fill="rgb(0,0,0)" text-anchor="middle">36</text>
<polygon points="156.5,222 176.5,222 176.5,232 156.5,232" fill="rgb(255,130,130)"/><text xml:space="preserve" x="166.5" y="229.833" font-family="Calibri" font-size="7.5" fill="rgb(0,0,0)" text-anchor="middle">0.83</text>
<polygon points="176.5,222 196.5,222 196.5,232 176.5,232" fill="rgb(255,255,255)"/><text xml:space="preserve" x="186.5" y="229.833" font-family="Calibri" font-size="7.5" fill="rgb(0,0,0)" text-anchor="middle">0.00</text>
<polygon points="196.5,222 216.5,222 216.5,232 196.5,232" fill="rgb(254,229,229)"/><text xml:space="preserve" x="206.5" y="229.833" font-family="Calibri" font-size="7.5" fill="rgb(0,0,0)" text-anchor="middle">0.17</text>
<polygon points="216.5,222 236.5,222 236.5,232 216.5,232" fill="rgb(255,255,255)"/><text xml:space="preserve" x="226.5" y="229.833" font-family="Calibri" font-size="7.5" fill="rgb(0,0,0)" text-anchor="middle">0.00</text>
<polygon points="126.5,232 146.5,232 146.5,242 126.5,242" fill="rgb(255,255,255)"/><text xml:space="preserve" x="136.5" y="239.833" font-family="Calibri" font-size="7.5" fill="rgb(0,0,0)" text-anchor="middle">0</text>
<polygon points="156.5,232 176.5,232 176.5,242 156.5,242" fill="rgb(255,255,255)"/><text xml:space="preserve" x="166.5" y="239.833" font-family="Calibri" font-size="7.5" fill="rgb(0,0,0)" text-anchor="middle">0.00</text>
<polygon points="176.5,232 196.5,232 196.5,242 176.5,242" fill="rgb(255,255,255)"/><text xml:space="preserve" x="186.5" y="239.833" font-family="Calibri" font-size="7.5" fill="rgb(0,0,0)" text-anchor="middle">0.00</text>
<polygon points="196.5,232 216.5,232 216.5,242 196.5,242" fill="rgb(255,255,255)"/><text xml:space="preserve" x="206.5" y="239.833" font-family="Calibri" font-size="7.5" fill="rgb(0,0,0)" text-anchor="middle">0.00</text>
<polygon points="216.5,232 236.5,232 236.5,242 216.5,242" fill="rgb(255,255,255)"/><text xml:space="preserve" x="226.5" y="239.833" font-family="Calibri" font-size="7.5" fill="rgb(0,0,0)" text-anchor="middle">0.00</text>
<polygon points="126.5,242 146.5,242 146.5,252 126.5,252" fill="rgb(255,255,255)"/><text xml:space="preserve" x="136.5" y="249.833" font-family="Calibri" font-size="7.5" fill="rgb(0,0,0)" text-anchor="middle">0</text>
<polygon points="156.5,242 176.5,242 176.5,252 156.5,252" fill="rgb(255,255,255)"/><text xml:space="preserve" x="166.5" y="249.833" font-family="Calibri" font-size="7.5" fill="rgb(0,0,0)" text-anchor="middle">0.00</text>
<polygon points="176.5,242 196.5,242 196.5,252 176.5,252" fill="rgb(255,255,255)"/><text xml:space="preserve" x="186.5" y="249.833" font-family="Calibri" font-size="7.5" fill="rgb(0,0,0)" text-anchor="middle">0.00</text>
<polygon points="196.5,242 216.5,242 216.5,252 196.5,252" fill="rgb(255,255,255)"/><text xml:space="preserve" x="206.5" y="249.833" font-family="Calibri" font-size="7.5" fill="rgb(0,0,0)" text-anchor="middle">0.00</text>
<polygon points="216.5,242 236.5,242 236.5,252 216.5,252" fill="rgb(255,255,255)"/><text xml:space="preserve" x="226.5" y="249.833" font-family="Calibri" font-size="7.5" fill="rgb(0,0,0)" text-anchor="middle">0.00</text>
<polygon points="126.5,252 146.5,252 146.5,262 126.5,262" fill="rgb(105,105,255)"/><text xml:space="preserve" x="136.5" y="259.833" font-family="Calibri" font-size="7.5" fill="rgb(255,255,255)" text-anchor="middle">3581</text>
<polygon points="156.5,252 176.5,252 176.5,262 156.5,262" fill="rgb(255,252,252)"/><text xml:space="preserve" x="166.5" y="259.833" font-family="Calibri" font-size="7.5" fill="rgb(0,0,0)" text-anchor="middle">0.02</text>
<polygon points="176.5,252 196.5,252 196.5,262 176.5,262" fill="rgb(255,193,193)"/><text xml:space="preserve" x="186.5" y="259.833" font-family="Calibri" font-size="7.5" fill="rgb(0,0,0)" text-anchor="middle">0.41</text>
<polygon points="196.5,252 216.5,252 216.5,262 196.5,262" fill="rgb(255,255,255)"/><text xml:space="preserve" x="206.5" y="259.833" font-family="Calibri" font-size="7.5" fill="rgb(0,0,0)" text-anchor="middle">0.00</text>
<polygon points="216.5,252 236.5,252 236.5,262 216.5,262" fill="rgb(255,169,169)"/><text xml:space="preserve" x="226.5" y="259.833" font-family="Calibri" font-size="7.5" fill="rgb(0,0,0)" text-anchor="middle">0.57</text>
<polygon points="126.5,122 146.5,122 146.5,262 126.5,262" fill="none" stroke="black" stroke-width="1"/>
<polygon points="156.5,122 236.5,122 236.5,262 156.5,262" fill="none" stroke="black" stroke-width="1"/>
<text xml:space="preserve" x="133.25" y="295" font-family="Calibri" font-size="8" text-anchor="middle">Number of cells</text>
<polygon points="73.25,302 93.25,302 93.25,322 73.25,322" fill="rgb(255,255,255)"/><polygon points="73.25,302 93.25,302 93.25,322 73.25,322" fill="none" stroke="black" stroke-width="1"/><text xml:space="preserve" x="83.25" y="314.833" font-family="Calibri" font-size="7.5" fill="rgb(0,0,0)" text-anchor="middle">0.0</text>
<polygon points="93.25,302 113.25,302 113.25,322 93.25,322" fill="rgb(225,225,255)"/><polygon points="93.25,302 113.25,302 113.25,322 93.25,322" fill="none" stroke="black" stroke-width="1"/><text xml:space="preserve" x="103.25" y="314.833" font-family="Calibri" font-size="7.5" fill="rgb(0,0,0)" text-anchor="middle">200.0</text>
<polygon points="113.25,302 133.25,302 133.25,322 113.25,322" fill="rgb(195,195,255)"/><polygon points="113.25,302 133.25,302 133.25,322 113.25,322" fill="none" stroke="black" stroke-width="1"/><text xml:space="preserve" x="123.25" y="314.833" font-family="Calibri" font-size="7.5" fill="rgb(0,0,0)" text-anchor="middle">400.0</text>
<polygon points="133.25,302 153.25,302 153.25,322 133.25,322" fill="rgb(165,165,255)"/><polygon points="133.25,302 153.25,302 153.25,322 133.25,322" fill="none" stroke="black" stroke-width="1"/><text xml:space="preserve" x="143.25" y="314.833" font-family="Calibri" font-size="7.5" fill="rgb(0,0,0)" text-anchor="middle">600.0</text>
<polygon points="153.25,302 173.25,302 173.25,322 153.25,322" fill="rgb(135,135,255)"/><polygon points="153.25,302 173.25,302 173.25,322 153.25,322" fill="none" stroke="black" stroke-width="1"/><text xml:space="preserve" x="163.25" y="314.833" font-family="Calibri" font-size="7.5" fill="rgb(0,0,0)" text-anchor="middle">800.0</text>
<polygon points="173.25,302 193.25,302 193.25,322 173.25,322" fill="rgb(105,105,255)"/><polygon points="173.25,302 193.25,302 193.25,322 173.25,322" fill="none" stroke="black" stroke-width="1"/><text xml:space="preserve" x="183.25" y="314.833" font-family="Calibri" font-size="7.5" fill="rgb(255,255,255)" text-anchor="middle">1000.0</text>
<text xml:space="preserve" x="133.25" y="355" font-family="Calibri" font-size="8" text-anchor="middle">composition of cell-type</text>
<polygon points="73.25,362 93.25,362 93.25,382 73.25,382" fill="rgb(255,255,255)"/><polygon points="73.25,362 93.25,362 93.25,382 73.25,382" fill="none" stroke="black" stroke-width="1"/><text xml:space="preserve" x="83.25" y="374.833" font-family="Calibri" font-size="7.5" fill="rgb(0,0,0)" text-anchor="middle">0.0</text>
<polygon points="93.25,362 113.25,362 113.25,382 93.25,382" fill="rgb(255,225,225)"/><polygon points="93.25,362 113.25,362 113.25,382 93.25,382" fill="none" stroke="black" stroke-width="1"/><text xml:space="preserve" x="103.25" y="374.833" font-family="Calibri" font-size="7.5" fill="rgb(0,0,0)" text-anchor="middle">0.2</text>
<polygon points="113.25,362 133.25,362 133.25,382 113.25,382" fill="rgb(255,195,195)"/><polygon points="113.25,362 133.25,362 133.25,382 113.25,382" fill="none" stroke="black" stroke-width="1"/><text xml:space="preserve" x="123.25" y="374.833" font-family="Calibri" font-size="7.5" fill="rgb(0,0,0)" text-anchor="middle">0.4</text>
<polygon points="133.25,362 153.25,362 153.25,382 133.25,382" fill="rgb(255,165,165)"/><polygon points="133.25,362 153.25,362 153.25,382 133.25,382" fill="none" stroke="black" stroke-width="1"/><text xml:space="preserve" x="143.25" y="374.833" font-family="Calibri" font-size="7.5" fill="rgb(0,0,0)" text-anchor="middle">0.6</text>
<polygon points="153.25,362 173.25,362 173.25,382 153.25,382" fill="rgb(255,135,135)"/><polygon points="153.25,362 173.25,362 173.25,382 153.25,382" fill="none" stroke="black" stroke-width="1"/><text xml:space="preserve" x="163.25" y="374.833" font-family="Calibri" font-size="7.5" fill="rgb(0,0,0)" text-anchor="middle">0.8</text>
<polygon points="173.25,362 193.25,362 193.25,382 173.25,382" fill="rgb(255,105,105)"/><polygon points="173.25,362 193.25,362 193.25,382 173.25,382" fill="none" stroke="black" stroke-width="1"/><text xml:space="preserve" x="183.25" y="374.833" font-family="Calibri" font-size="7.5" fill="rgb(0,0,0)" text-anchor="middle">1.0</text>
</svg>
