<?xml version="1.0" standalone="no"?><!DOCTYPE svg PUBLIC "-//W3C//DTD SVG 1.1//EN" "http://www.w3.org/Graphics/SVG/1.1/DTD/svg11.dtd">
<svg width="290.3" height="409.9" version="1.1" xmlns="http://www.w3.org/2000/svg" xmlns:xlink="http://www.w3.org/1999/xlink">
<a xlink:href="htmls/clusterset36.html"><text xml:space="preserve" x="124.3" y="120.9" font-family="Calibri" font-size="8" text-anchor="end"><title>clusterset36</title>clusterset36</text></a>
<a xlink:href="htmls/clusterset32.html"><text xml:space="preserve" x="124.3" y="128.9" font-family="Calibri" font-size="8" text-anchor="end"><title>clusterset32</title>clusterset32</text></a>
<a xlink:href="htmls/clusterset31.html"><text xml:space="preserve" x="124.3" y="136.9" font-family="Calibri" font-size="8" text-anchor="end"><title>clusterset31</title>clusterset31</text></a>
<a xlink:href="htmls/clusterset33.html"><text xml:space="preserve" x="124.3" y="144.9" font-family="Calibri" font-size="8" text-anchor="end"><title>clusterset33</title>clusterset33</text></a>
<a xlink:href="htmls/clusterset26.html"><text xml:space="preserve" x="124.3" y="152.9" font-family="Calibri" font-size="8" text-anchor="end"><title>clusterset26</title>clusterset26</text></a>
<a xlink:href="htmls/clusterset20.html"><text xml:space="preserve" x="124.3" y="160.9" font-family="Calibri" font-size="8" text-anchor="end"><title>clusterset20</title>clusterset20</text></a>
<a xlink:href="htmls/clusterset40.html"><text xml:space="preserve" x="124.3" y="168.9" font-family="Calibri" font-size="8" text-anchor="end"><title>clusterset40</title>clusterset40</text></a>
<a xlink:href="htmls/clusterset29.html"><text xml:space="preserve" x="124.3" y="176.9" font-family="Calibri" font-size="8" text-anchor="end"><title>clusterset29</title>clusterset29</text></a>
<a xlink:href="htmls/clusterset34.html"><text xml:space="preserve" x="124.3" y="184.9" font-family="Calibri" font-size="8" text-anchor="end"><title>clusterset34</title>clusterset34</text></a>
<a xlink:href="htmls/clusterset25.html"><text xml:space="preserve" x="124.3" y="192.9" font-family="Calibri" font-size="8" text-anchor="end"><title>clusterset25</title>clusterset25</text></a>
<a xlink:href="htmls/clusterset27.html"><text xml:space="preserve" x="124.3" y="200.9" font-family="Calibri" font-size="8" text-anchor="end"><title>clusterset27</title>clusterset27</text></a>
<a xlink:href="htmls/clusterset28.html"><text xml:space="preserve" x="124.3" y="208.9" font-family="Calibri" font-size="8" text-anchor="end"><title>clusterset28</title>clusterset28</text></a>
<text xml:space="preserve" x="135.3" y="109.9" font-family="Calibri" font-size="8" transform="rotate(270 135.3 109.9)">c2</text>
<text xml:space="preserve" x="143.3" y="109.9" font-family="Calibri" font-size="8" transform="rotate(270 143.3 109.9)">c5</text>
<text xml:space="preserve" x="151.3" y="109.9" font-family="Calibri" font-size="8" transform="rotate(270 151.3 109.9)">c3</text>
<text xml:space="preserve" x="159.3" y="109.9" font-family="Calibri" font-size="8" transform="rotate(270 159.3 109.9)">c1</text>
<text xml:space="preserve" x="167.3" y="109.9" font-family="Calibri" font-size="8" transform="rotate(270 167.3 109.9)">c6</text>
<text xml:space="preserve" x="175.3" y="109.9" font-family="Calibri" font-size="8" transform="rotate(270 175.3 109.9)">c4</text>
<text xml:space="preserve" x="197.3" y="109.9" font-family="Calibri" font-size="8" transform="rotate(270 197.3 109.9)">#_genes</text>
<text xml:space="preserve" x="219.3" y="109.9" font-family="Calibri" font-size="8" transform="rotate(270 219.3 109.9)">c2_mean</text>
<text xml:space="preserve" x="227.3" y="109.9" font-family="Calibri" font-size="8" transform="rotate(270 227.3 109.9)">c5_mean</text>
<text xml:space="preserve" x="235.3" y="109.9" font-family="Calibri" font-size="8" transform="rotate(270 235.3 109.9)">c3_mean</text>
<text xml:space="preserve" x="243.3" y="109.9" font-family="Calibri" font-size="8" transform="rotate(270 243.3 109.9)">c1_mean</text>
<text xml:space="preserve" x="251.3" y="109.9" font-family="Calibri" font-size="8" transform="rotate(270 251.3 109.9)">c6_mean</text>
<text xml:space="preserve" x="259.3" y="109.9" font-family="Calibri" font-size="8" transform="rotate(270 259.3 109.9)">c4_mean</text>
<polygon points="128.3,113.9 136.3,113.9 136.3,121.9 128.3,121.9" fill="rgb(205,0,0)"/><text xml:space="preserve" x="132.3" y="120.733" font-family="Calibri" font-size="7.5" fill="rgb(255,255,255)" text-anchor="middle">5</text>
<polygon points="136.3,113.9 144.3,113.9 144.3,121.9 136.3,121.9" fill="rgb(205,0,0)"/><text xml:space="preserve" x="140.3" y="120.733" font-family="Calibri" font-size="7.5" fill="rgb(255,255,255)" text-anchor="middle">5</text>
<polygon points="144.3,113.9 152.3,113.9 152.3,121.9 144.3,121.9" fill="rgb(205,0,0)"/><text xml:space="preserve" x="148.3" y="120.733" font-family="Calibri" font-size="7.5" fill="rgb(255,255,255)" text-anchor="middle">5</text>
<polygon points="152.3,113.9 160.3,113.9 160.3,121.9 152.3,121.9" fill="rgb(205,0,0)"/><text xml:space="preserve" x="156.3" y="120.733" font-family="Calibri" font-size="7.5" fill="rgb(255,255,255)" text-anchor="middle">5</text>
<polygon points="160.3,113.9 168.3,113.9 168.3,121.9 160.3,121.9" fill="rgb(205,0,0)"/><text xml:space="preserve" x="164.3" y="120.733" font-family="Calibri" font-size="7.5" fill="rgb(255,255,255)" text-anchor="middle">5</text>
<polygon points="168.3,113.9 176.3,113.9 176.3,121.9 168.3,121.9" fill="rgb(127,230,0)"/><text xml:space="preserve" x="172.3" y="120.733" font-family="Calibri" font-size="7.5" fill="rgb(0,0,0)" text-anchor="middle">2</text>
<polygon points="186.3,113.9 202.3,113.9 202.3,121.9 186.3,121.9" fill="rgb(184,184,255)"/><text xml:space="preserve" x="194.3" y="120.733" font-family="Calibri" font-size="7.5" fill="rgb(0,0,0)" text-anchor="middle">11</text>
<polygon points="212.3,113.9 220.3,113.9 220.3,121.9 212.3,121.9" fill="rgb(201,200,36)"/>
<polygon points="220.3,113.9 228.3,113.9 228.3,121.9 220.3,121.9" fill="rgb(196,200,40)"/>
<polygon points="228.3,113.9 236.3,113.9 236.3,121.9 228.3,121.9" fill="rgb(213,198,28)"/>
<polygon points="236.3,113.9 244.3,113.9 244.3,121.9 236.3,121.9" fill="rgb(195,201,41)"/>
<polygon points="244.3,113.9 252.3,113.9 252.3,121.9 244.3,121.9" fill="rgb(252,194,1)"/>
<polygon points="252.3,113.9 260.3,113.9 260.3,121.9 252.3,121.9" fill="rgb(23,119,140)"/>
<polygon points="128.3,121.9 136.3,121.9 136.3,129.9 128.3,129.9" fill="rgb(205,0,0)"/><text xml:space="preserve" x="132.3" y="128.733" font-family="Calibri" font-size="7.5" fill="rgb(255,255,255)" text-anchor="middle">5</text>
<polygon points="136.3,121.9 144.3,121.9 144.3,129.9 136.3,129.9" fill="rgb(205,0,0)"/><text xml:space="preserve" x="140.3" y="128.733" font-family="Calibri" font-size="7.5" fill="rgb(255,255,255)" text-anchor="middle">5</text>
<polygon points="144.3,121.9 152.3,121.9 152.3,129.9 144.3,129.9" fill="rgb(205,0,0)"/><text xml:space="preserve" x="148.3" y="128.733" font-family="Calibri" font-size="7.5" fill="rgb(255,255,255)" text-anchor="middle">5</text>
<polygon points="152.3,121.9 160.3,121.9 160.3,129.9 152.3,129.9" fill="rgb(205,0,0)"/><text xml:space="preserve" x="156.3" y="128.733" font-family="Calibri" font-size="7.5" fill="rgb(255,255,255)" text-anchor="middle">5</text>
<polygon points="160.3,121.9 168.3,121.9 168.3,129.9 160.3,129.9" fill="rgb(255,255,0)"/><text xml:space="preserve" x="164.3" y="128.733" font-family="Calibri" font-size="7.5" fill="rgb(0,0,0)" text-anchor="middle">3</text>
<polygon points="168.3,121.9 176.3,121.9 176.3,129.9 168.3,129.9" fill="rgb(255,255,0)"/><text xml:space="preserve" x="172.3" y="128.733" font-family="Calibri" font-size="7.5" fill="rgb(0,0,0)" text-anchor="middle">3</text>
<polygon points="186.3,121.9 202.3,121.9 202.3,129.9 186.3,129.9" fill="rgb(165,165,255)"/><text xml:space="preserve" x="194.3" y="128.733" font-family="Calibri" font-size="7.5" fill="rgb(0,0,0)" text-anchor="middle">14</text>
<polygon points="212.3,121.9 220.3,121.9 220.3,129.9 212.3,129.9" fill="rgb(252,194,1)"/>
<polygon points="220.3,121.9 228.3,121.9 228.3,129.9 220.3,129.9" fill="rgb(252,194,1)"/>
<polygon points="228.3,121.9 236.3,121.9 236.3,129.9 228.3,129.9" fill="rgb(252,194,1)"/>
<polygon points="236.3,121.9 244.3,121.9 244.3,129.9 236.3,129.9" fill="rgb(252,194,1)"/>
<polygon points="244.3,121.9 252.3,121.9 252.3,129.9 244.3,129.9" fill="rgb(27,132,141)"/>
<polygon points="252.3,121.9 260.3,121.9 260.3,129.9 252.3,129.9" fill="rgb(25,125,140)"/>
<polygon points="128.3,129.9 136.3,129.9 136.3,137.9 128.3,137.9" fill="rgb(230,127,0)"/><text xml:space="preserve" x="132.3" y="136.733" font-family="Calibri" font-size="7.5" fill="rgb(0,0,0)" text-anchor="middle">4</text>
<polygon points="136.3,129.9 144.3,129.9 144.3,137.9 136.3,137.9" fill="rgb(205,0,0)"/><text xml:space="preserve" x="140.3" y="136.733" font-family="Calibri" font-size="7.5" fill="rgb(255,255,255)" text-anchor="middle">5</text>
<polygon points="144.3,129.9 152.3,129.9 152.3,137.9 144.3,137.9" fill="rgb(205,0,0)"/><text xml:space="preserve" x="148.3" y="136.733" font-family="Calibri" font-size="7.5" fill="rgb(255,255,255)" text-anchor="middle">5</text>
<polygon points="152.3,129.9 160.3,129.9 160.3,137.9 152.3,137.9" fill="rgb(205,0,0)"/><text xml:space="preserve" x="156.3" y="136.733" font-family="Calibri" font-size="7.5" fill="rgb(255,255,255)" text-anchor="middle">5</text>
<polygon points="160.3,129.9 168.3,129.9 168.3,137.9 160.3,137.9" fill="rgb(205,0,0)"/><text xml:space="preserve" x="164.3" y="136.733" font-family="Calibri" font-size="7.5" fill="rgb(255,255,255)" text-anchor="middle">5</text>
<polygon points="168.3,129.9 176.3,129.9 176.3,137.9 168.3,137.9" fill="rgb(205,0,0)"/><text xml:space="preserve" x="172.3" y="136.733" font-family="Calibri" font-size="7.5" fill="rgb(255,255,255)" text-anchor="middle">5</text>
<polygon points="186.3,129.9 202.3,129.9 202.3,137.9 186.3,137.9" fill="rgb(235,235,255)"/><text xml:space="preserve" x="194.3" y="136.733" font-family="Calibri" font-size="7.5" fill="rgb(0,0,0)" text-anchor="middle">3</text>
<polygon points="212.3,129.9 220.3,129.9 220.3,137.9 212.3,137.9" fill="rgb(39,180,143)"/>
<polygon points="220.3,129.9 228.3,129.9 228.3,137.9 220.3,137.9" fill="rgb(159,205,67)"/>
<polygon points="228.3,129.9 236.3,129.9 236.3,137.9 228.3,137.9" fill="rgb(178,203,53)"/>
<polygon points="236.3,129.9 244.3,129.9 244.3,137.9 236.3,137.9" fill="rgb(198,200,39)"/>
<polygon points="244.3,129.9 252.3,129.9 252.3,137.9 244.3,137.9" fill="rgb(180,202,52)"/>
<polygon points="252.3,129.9 260.3,129.9 260.3,137.9 252.3,137.9" fill="rgb(144,207,77)"/>
<polygon points="128.3,137.9 136.3,137.9 136.3,145.9 128.3,145.9" fill="rgb(230,127,0)"/><text xml:space="preserve" x="132.3" y="144.733" font-family="Calibri" font-size="7.5" fill="rgb(0,0,0)" text-anchor="middle">4</text>
<polygon points="136.3,137.9 144.3,137.9 144.3,145.9 136.3,145.9" fill="rgb(230,127,0)"/><text xml:space="preserve" x="140.3" y="144.733" font-family="Calibri" font-size="7.5" fill="rgb(0,0,0)" text-anchor="middle">4</text>
<polygon points="144.3,137.9 152.3,137.9 152.3,145.9 144.3,145.9" fill="rgb(230,127,0)"/><text xml:space="preserve" x="148.3" y="144.733" font-family="Calibri" font-size="7.5" fill="rgb(0,0,0)" text-anchor="middle">4</text>
<polygon points="152.3,137.9 160.3,137.9 160.3,145.9 152.3,145.9" fill="rgb(230,127,0)"/><text xml:space="preserve" x="156.3" y="144.733" font-family="Calibri" font-size="7.5" fill="rgb(0,0,0)" text-anchor="middle">4</text>
<polygon points="160.3,137.9 168.3,137.9 168.3,145.9 160.3,145.9" fill="rgb(230,127,0)"/><text xml:space="preserve" x="164.3" y="144.733" font-family="Calibri" font-size="7.5" fill="rgb(0,0,0)" text-anchor="middle">4</text>
<polygon points="168.3,137.9 176.3,137.9 176.3,145.9 168.3,145.9" fill="rgb(205,0,0)"/><text xml:space="preserve" x="172.3" y="144.733" font-family="Calibri" font-size="7.5" fill="rgb(255,255,255)" text-anchor="middle">5</text>
<polygon points="186.3,137.9 202.3,137.9 202.3,145.9 186.3,145.9" fill="rgb(159,159,255)"/><text xml:space="preserve" x="194.3" y="144.733" font-family="Calibri" font-size="7.5" fill="rgb(0,0,0)" text-anchor="middle">15</text>
<polygon points="212.3,137.9 220.3,137.9 220.3,145.9 212.3,145.9" fill="rgb(32,154,142)"/>
<polygon points="220.3,137.9 228.3,137.9 228.3,145.9 220.3,145.9" fill="rgb(40,185,144)"/>
<polygon points="228.3,137.9 236.3,137.9 236.3,145.9 228.3,145.9" fill="rgb(52,218,143)"/>
<polygon points="236.3,137.9 244.3,137.9 244.3,145.9 236.3,145.9" fill="rgb(48,217,145)"/>
<polygon points="244.3,137.9 252.3,137.9 252.3,145.9 244.3,145.9" fill="rgb(46,209,145)"/>
<polygon points="252.3,137.9 260.3,137.9 260.3,145.9 252.3,145.9" fill="rgb(123,209,92)"/>
<polygon points="128.3,145.9 136.3,145.9 136.3,153.9 128.3,153.9" fill="rgb(230,127,0)"/><text xml:space="preserve" x="132.3" y="152.733" font-family="Calibri" font-size="7.5" fill="rgb(0,0,0)" text-anchor="middle">4</text>
<polygon points="136.3,145.9 144.3,145.9 144.3,153.9 136.3,153.9" fill="rgb(230,127,0)"/><text xml:space="preserve" x="140.3" y="152.733" font-family="Calibri" font-size="7.5" fill="rgb(0,0,0)" text-anchor="middle">4</text>
<polygon points="144.3,145.9 152.3,145.9 152.3,153.9 144.3,153.9" fill="rgb(230,127,0)"/><text xml:space="preserve" x="148.3" y="152.733" font-family="Calibri" font-size="7.5" fill="rgb(0,0,0)" text-anchor="middle">4</text>
<polygon points="152.3,145.9 160.3,145.9 160.3,153.9 152.3,153.9" fill="rgb(230,127,0)"/><text xml:space="preserve" x="156.3" y="152.733" font-family="Calibri" font-size="7.5" fill="rgb(0,0,0)" text-anchor="middle">4</text>
<polygon points="160.3,145.9 168.3,145.9 168.3,153.9 160.3,153.9" fill="rgb(0,205,0)"/><text xml:space="preserve" x="164.3" y="152.733" font-family="Calibri" font-size="7.5" fill="rgb(255,255,255)" text-anchor="middle">1</text>
<polygon points="168.3,145.9 176.3,145.9 176.3,153.9 168.3,153.9" fill="rgb(230,127,0)"/><text xml:space="preserve" x="172.3" y="152.733" font-family="Calibri" font-size="7.5" fill="rgb(0,0,0)" text-anchor="middle">4</text>
<polygon points="186.3,145.9 202.3,145.9 202.3,153.9 186.3,153.9" fill="rgb(0,0,255)"/><text xml:space="preserve" x="194.3" y="152.733" font-family="Calibri" font-size="7.5" fill="rgb(255,255,255)" text-anchor="middle">77</text>
<polygon points="212.3,145.9 220.3,145.9 220.3,153.9 212.3,153.9" fill="rgb(34,163,142)"/>
<polygon points="220.3,145.9 228.3,145.9 228.3,153.9 220.3,153.9" fill="rgb(36,171,143)"/>
<polygon points="228.3,145.9 236.3,145.9 236.3,153.9 228.3,153.9" fill="rgb(36,168,143)"/>
<polygon points="236.3,145.9 244.3,145.9 244.3,153.9 236.3,153.9" fill="rgb(35,166,143)"/>
<polygon points="244.3,145.9 252.3,145.9 252.3,153.9 244.3,153.9" fill="rgb(7,54,136)"/>
<polygon points="252.3,145.9 260.3,145.9 260.3,153.9 252.3,153.9" fill="rgb(34,160,142)"/>
<polygon points="128.3,153.9 136.3,153.9 136.3,161.9 128.3,161.9" fill="rgb(255,255,0)"/><text xml:space="preserve" x="132.3" y="160.733" font-family="Calibri" font-size="7.5" fill="rgb(0,0,0)" text-anchor="middle">3</text>
<polygon points="136.3,153.9 144.3,153.9 144.3,161.9 136.3,161.9" fill="rgb(255,255,0)"/><text xml:space="preserve" x="140.3" y="160.733" font-family="Calibri" font-size="7.5" fill="rgb(0,0,0)" text-anchor="middle">3</text>
<polygon points="144.3,153.9 152.3,153.9 152.3,161.9 144.3,161.9" fill="rgb(255,255,0)"/><text xml:space="preserve" x="148.3" y="160.733" font-family="Calibri" font-size="7.5" fill="rgb(0,0,0)" text-anchor="middle">3</text>
<polygon points="152.3,153.9 160.3,153.9 160.3,161.9 152.3,161.9" fill="rgb(255,255,0)"/><text xml:space="preserve" x="156.3" y="160.733" font-family="Calibri" font-size="7.5" fill="rgb(0,0,0)" text-anchor="middle">3</text>
<polygon points="160.3,153.9 168.3,153.9 168.3,161.9 160.3,161.9" fill="rgb(205,0,0)"/><text xml:space="preserve" x="164.3" y="160.733" font-family="Calibri" font-size="7.5" fill="rgb(255,255,255)" text-anchor="middle">5</text>
<polygon points="168.3,153.9 176.3,153.9 176.3,161.9 168.3,161.9" fill="rgb(255,255,0)"/><text xml:space="preserve" x="172.3" y="160.733" font-family="Calibri" font-size="7.5" fill="rgb(0,0,0)" text-anchor="middle">3</text>
<polygon points="186.3,153.9 202.3,153.9 202.3,161.9 186.3,161.9" fill="rgb(235,235,255)"/><text xml:space="preserve" x="194.3" y="160.733" font-family="Calibri" font-size="7.5" fill="rgb(0,0,0)" text-anchor="middle">3</text>
<polygon points="212.3,153.9 220.3,153.9 220.3,161.9 212.3,161.9" fill="rgb(18,97,139)"/>
<polygon points="220.3,153.9 228.3,153.9 228.3,161.9 220.3,161.9" fill="rgb(24,122,140)"/>
<polygon points="228.3,153.9 236.3,153.9 236.3,161.9 228.3,161.9" fill="rgb(252,194,1)"/>
<polygon points="236.3,153.9 244.3,153.9 244.3,161.9 236.3,161.9" fill="rgb(25,126,140)"/>
<polygon points="244.3,153.9 252.3,153.9 252.3,161.9 244.3,161.9" fill="rgb(234,196,13)"/>
<polygon points="252.3,153.9 260.3,153.9 260.3,161.9 252.3,161.9" fill="rgb(31,149,142)"/>
<polygon points="128.3,161.9 136.3,161.9 136.3,169.9 128.3,169.9" fill="rgb(255,255,0)"/><text xml:space="preserve" x="132.3" y="168.733" font-family="Calibri" font-size="7.5" fill="rgb(0,0,0)" text-anchor="middle">3</text>
<polygon points="136.3,161.9 144.3,161.9 144.3,169.9 136.3,169.9" fill="rgb(255,255,0)"/><text xml:space="preserve" x="140.3" y="168.733" font-family="Calibri" font-size="7.5" fill="rgb(0,0,0)" text-anchor="middle">3</text>
<polygon points="144.3,161.9 152.3,161.9 152.3,169.9 144.3,169.9" fill="rgb(255,255,0)"/><text xml:space="preserve" x="148.3" y="168.733" font-family="Calibri" font-size="7.5" fill="rgb(0,0,0)" text-anchor="middle">3</text>
<polygon points="152.3,161.9 160.3,161.9 160.3,169.9 152.3,169.9" fill="rgb(255,255,0)"/><text xml:space="preserve" x="156.3" y="168.733" font-family="Calibri" font-size="7.5" fill="rgb(0,0,0)" text-anchor="middle">3</text>
<polygon points="160.3,161.9 168.3,161.9 168.3,169.9 160.3,169.9" fill="rgb(255,255,0)"/><text xml:space="preserve" x="164.3" y="168.733" font-family="Calibri" font-size="7.5" fill="rgb(0,0,0)" text-anchor="middle">3</text>
<polygon points="168.3,161.9 176.3,161.9 176.3,169.9 168.3,169.9" fill="rgb(205,0,0)"/><text xml:space="preserve" x="172.3" y="168.733" font-family="Calibri" font-size="7.5" fill="rgb(255,255,255)" text-anchor="middle">5</text>
<polygon points="186.3,161.9 202.3,161.9 202.3,169.9 186.3,169.9" fill="rgb(229,229,255)"/><text xml:space="preserve" x="194.3" y="168.733" font-family="Calibri" font-size="7.5" fill="rgb(0,0,0)" text-anchor="middle">4</text>
<polygon points="212.3,161.9 220.3,161.9 220.3,169.9 212.3,169.9" fill="rgb(10,66,137)"/>
<polygon points="220.3,161.9 228.3,161.9 228.3,169.9 220.3,169.9" fill="rgb(20,106,139)"/>
<polygon points="228.3,161.9 236.3,161.9 236.3,169.9 228.3,169.9" fill="rgb(33,157,142)"/>
<polygon points="236.3,161.9 244.3,161.9 244.3,169.9 236.3,169.9" fill="rgb(25,128,140)"/>
<polygon points="244.3,161.9 252.3,161.9 252.3,169.9 244.3,169.9" fill="rgb(18,99,139)"/>
<polygon points="252.3,161.9 260.3,161.9 260.3,169.9 252.3,169.9" fill="rgb(87,214,118)"/>
<polygon points="128.3,169.9 136.3,169.9 136.3,177.9 128.3,177.9" fill="rgb(127,230,0)"/><text xml:space="preserve" x="132.3" y="176.733" font-family="Calibri" font-size="7.5" fill="rgb(0,0,0)" text-anchor="middle">2</text>
<polygon points="136.3,169.9 144.3,169.9 144.3,177.9 136.3,177.9" fill="rgb(127,230,0)"/><text xml:space="preserve" x="140.3" y="176.733" font-family="Calibri" font-size="7.5" fill="rgb(0,0,0)" text-anchor="middle">2</text>
<polygon points="144.3,169.9 152.3,169.9 152.3,177.9 144.3,177.9" fill="rgb(127,230,0)"/><text xml:space="preserve" x="148.3" y="176.733" font-family="Calibri" font-size="7.5" fill="rgb(0,0,0)" text-anchor="middle">2</text>
<polygon points="152.3,169.9 160.3,169.9 160.3,177.9 152.3,177.9" fill="rgb(127,230,0)"/><text xml:space="preserve" x="156.3" y="176.733" font-family="Calibri" font-size="7.5" fill="rgb(0,0,0)" text-anchor="middle">2</text>
<polygon points="160.3,169.9 168.3,169.9 168.3,177.9 160.3,177.9" fill="rgb(127,230,0)"/><text xml:space="preserve" x="164.3" y="176.733" font-family="Calibri" font-size="7.5" fill="rgb(0,0,0)" text-anchor="middle">2</text>
<polygon points="168.3,169.9 176.3,169.9 176.3,177.9 168.3,177.9" fill="rgb(205,0,0)"/><text xml:space="preserve" x="172.3" y="176.733" font-family="Calibri" font-size="7.5" fill="rgb(255,255,255)" text-anchor="middle">5</text>
<polygon points="186.3,169.9 202.3,169.9 202.3,177.9 186.3,177.9" fill="rgb(76,76,255)"/><text xml:space="preserve" x="194.3" y="176.733" font-family="Calibri" font-size="7.5" fill="rgb(255,255,255)" text-anchor="middle">28</text>
<polygon points="212.3,169.9 220.3,169.9 220.3,177.9 212.3,177.9" fill="rgb(10,66,137)"/>
<polygon points="220.3,169.9 228.3,169.9 228.3,177.9 220.3,177.9" fill="rgb(13,79,137)"/>
<polygon points="228.3,169.9 236.3,169.9 236.3,177.9 228.3,177.9" fill="rgb(20,106,139)"/>
<polygon points="236.3,169.9 244.3,169.9 244.3,177.9 236.3,177.9" fill="rgb(17,94,138)"/>
<polygon points="244.3,169.9 252.3,169.9 252.3,177.9 244.3,177.9" fill="rgb(18,99,139)"/>
<polygon points="252.3,169.9 260.3,169.9 260.3,177.9 252.3,177.9" fill="rgb(76,215,126)"/>
<polygon points="128.3,177.9 136.3,177.9 136.3,185.9 128.3,185.9" fill="rgb(0,205,0)"/><text xml:space="preserve" x="132.3" y="184.733" font-family="Calibri" font-size="7.5" fill="rgb(255,255,255)" text-anchor="middle">1</text>
<polygon points="136.3,177.9 144.3,177.9 144.3,185.9 136.3,185.9" fill="rgb(0,205,0)"/><text xml:space="preserve" x="140.3" y="184.733" font-family="Calibri" font-size="7.5" fill="rgb(255,255,255)" text-anchor="middle">1</text>
<polygon points="144.3,177.9 152.3,177.9 152.3,185.9 144.3,185.9" fill="rgb(230,127,0)"/><text xml:space="preserve" x="148.3" y="184.733" font-family="Calibri" font-size="7.5" fill="rgb(0,0,0)" text-anchor="middle">4</text>
<polygon points="152.3,177.9 160.3,177.9 160.3,185.9 152.3,185.9" fill="rgb(0,205,0)"/><text xml:space="preserve" x="156.3" y="184.733" font-family="Calibri" font-size="7.5" fill="rgb(255,255,255)" text-anchor="middle">1</text>
<polygon points="160.3,177.9 168.3,177.9 168.3,185.9 160.3,185.9" fill="rgb(0,205,0)"/><text xml:space="preserve" x="164.3" y="184.733" font-family="Calibri" font-size="7.5" fill="rgb(255,255,255)" text-anchor="middle">1</text>
<polygon points="168.3,177.9 176.3,177.9 176.3,185.9 168.3,185.9" fill="rgb(0,205,0)"/><text xml:space="preserve" x="172.3" y="184.733" font-family="Calibri" font-size="7.5" fill="rgb(255,255,255)" text-anchor="middle">1</text>
<polygon points="186.3,177.9 202.3,177.9 202.3,185.9 186.3,185.9" fill="rgb(204,204,255)"/><text xml:space="preserve" x="194.3" y="184.733" font-family="Calibri" font-size="7.5" fill="rgb(0,0,0)" text-anchor="middle">8</text>
<polygon points="212.3,177.9 220.3,177.9 220.3,185.9 212.3,185.9" fill="rgb(0,27,135)"/>
<polygon points="220.3,177.9 228.3,177.9 228.3,185.9 220.3,185.9" fill="rgb(0,30,135)"/>
<polygon points="228.3,177.9 236.3,177.9 236.3,185.9 228.3,185.9" fill="rgb(42,194,144)"/>
<polygon points="236.3,177.9 244.3,177.9 244.3,185.9 236.3,185.9" fill="rgb(3,40,135)"/>
<polygon points="244.3,177.9 252.3,177.9 252.3,185.9 244.3,185.9" fill="rgb(1,33,135)"/>
<polygon points="252.3,177.9 260.3,177.9 260.3,185.9 252.3,185.9" fill="rgb(3,39,135)"/>
<polygon points="128.3,185.9 136.3,185.9 136.3,193.9 128.3,193.9" fill="rgb(0,205,0)"/><text xml:space="preserve" x="132.3" y="192.733" font-family="Calibri" font-size="7.5" fill="rgb(255,255,255)" text-anchor="middle">1</text>
<polygon points="136.3,185.9 144.3,185.9 144.3,193.9 136.3,193.9" fill="rgb(0,205,0)"/><text xml:space="preserve" x="140.3" y="192.733" font-family="Calibri" font-size="7.5" fill="rgb(255,255,255)" text-anchor="middle">1</text>
<polygon points="144.3,185.9 152.3,185.9 152.3,193.9 144.3,193.9" fill="rgb(0,205,0)"/><text xml:space="preserve" x="148.3" y="192.733" font-family="Calibri" font-size="7.5" fill="rgb(255,255,255)" text-anchor="middle">1</text>
<polygon points="152.3,185.9 160.3,185.9 160.3,193.9 152.3,193.9" fill="rgb(0,205,0)"/><text xml:space="preserve" x="156.3" y="192.733" font-family="Calibri" font-size="7.5" fill="rgb(255,255,255)" text-anchor="middle">1</text>
<polygon points="160.3,185.9 168.3,185.9 168.3,193.9 160.3,193.9" fill="rgb(230,127,0)"/><text xml:space="preserve" x="164.3" y="192.733" font-family="Calibri" font-size="7.5" fill="rgb(0,0,0)" text-anchor="middle">4</text>
<polygon points="168.3,185.9 176.3,185.9 176.3,193.9 168.3,193.9" fill="rgb(230,127,0)"/><text xml:space="preserve" x="172.3" y="192.733" font-family="Calibri" font-size="7.5" fill="rgb(0,0,0)" text-anchor="middle">4</text>
<polygon points="186.3,185.9 202.3,185.9 202.3,193.9 186.3,193.9" fill="rgb(0,0,255)"/><text xml:space="preserve" x="194.3" y="192.733" font-family="Calibri" font-size="7.5" fill="rgb(255,255,255)" text-anchor="middle">169</text>
<polygon points="212.3,185.9 220.3,185.9 220.3,193.9 212.3,193.9" fill="rgb(6,53,136)"/>
<polygon points="220.3,185.9 228.3,185.9 228.3,193.9 220.3,193.9" fill="rgb(6,53,136)"/>
<polygon points="228.3,185.9 236.3,185.9 236.3,193.9 228.3,193.9" fill="rgb(7,54,136)"/>
<polygon points="236.3,185.9 244.3,185.9 244.3,193.9 236.3,193.9" fill="rgb(6,53,136)"/>
<polygon points="244.3,185.9 252.3,185.9 252.3,193.9 244.3,193.9" fill="rgb(38,175,143)"/>
<polygon points="252.3,185.9 260.3,185.9 260.3,193.9 252.3,193.9" fill="rgb(33,157,142)"/>
<polygon points="128.3,193.9 136.3,193.9 136.3,201.9 128.3,201.9" fill="rgb(0,205,0)"/><text xml:space="preserve" x="132.3" y="200.733" font-family="Calibri" font-size="7.5" fill="rgb(255,255,255)" text-anchor="middle">1</text>
<polygon points="136.3,193.9 144.3,193.9 144.3,201.9 136.3,201.9" fill="rgb(0,205,0)"/><text xml:space="preserve" x="140.3" y="200.733" font-family="Calibri" font-size="7.5" fill="rgb(255,255,255)" text-anchor="middle">1</text>
<polygon points="144.3,193.9 152.3,193.9 152.3,201.9 144.3,201.9" fill="rgb(0,205,0)"/><text xml:space="preserve" x="148.3" y="200.733" font-family="Calibri" font-size="7.5" fill="rgb(255,255,255)" text-anchor="middle">1</text>
<polygon points="152.3,193.9 160.3,193.9 160.3,201.9 152.3,201.9" fill="rgb(0,205,0)"/><text xml:space="preserve" x="156.3" y="200.733" font-family="Calibri" font-size="7.5" fill="rgb(255,255,255)" text-anchor="middle">1</text>
<polygon points="160.3,193.9 168.3,193.9 168.3,201.9 160.3,201.9" fill="rgb(0,205,0)"/><text xml:space="preserve" x="164.3" y="200.733" font-family="Calibri" font-size="7.5" fill="rgb(255,255,255)" text-anchor="middle">1</text>
<polygon points="168.3,193.9 176.3,193.9 176.3,201.9 168.3,201.9" fill="rgb(205,0,0)"/><text xml:space="preserve" x="172.3" y="200.733" font-family="Calibri" font-size="7.5" fill="rgb(255,255,255)" text-anchor="middle">5</text>
<polygon points="186.3,193.9 202.3,193.9 202.3,201.9 186.3,201.9" fill="rgb(0,0,255)"/><text xml:space="preserve" x="194.3" y="200.733" font-family="Calibri" font-size="7.5" fill="rgb(255,255,255)" text-anchor="middle">238</text>
<polygon points="212.3,193.9 220.3,193.9 220.3,201.9 212.3,201.9" fill="rgb(6,51,136)"/>
<polygon points="220.3,193.9 228.3,193.9 228.3,201.9 220.3,201.9" fill="rgb(6,53,136)"/>
<polygon points="228.3,193.9 236.3,193.9 236.3,201.9 228.3,201.9" fill="rgb(7,56,136)"/>
<polygon points="236.3,193.9 244.3,193.9 244.3,201.9 236.3,201.9" fill="rgb(6,53,136)"/>
<polygon points="244.3,193.9 252.3,193.9 252.3,201.9 244.3,201.9" fill="rgb(7,56,136)"/>
<polygon points="252.3,193.9 260.3,193.9 260.3,201.9 252.3,201.9" fill="rgb(39,182,143)"/>
<polygon points="128.3,201.9 136.3,201.9 136.3,209.9 128.3,209.9" fill="rgb(0,205,0)"/><text xml:space="preserve" x="132.3" y="208.733" font-family="Calibri" font-size="7.5" fill="rgb(255,255,255)" text-anchor="middle">1</text>
<polygon points="136.3,201.9 144.3,201.9 144.3,209.9 136.3,209.9" fill="rgb(0,205,0)"/><text xml:space="preserve" x="140.3" y="208.733" font-family="Calibri" font-size="7.5" fill="rgb(255,255,255)" text-anchor="middle">1</text>
<polygon points="144.3,201.9 152.3,201.9 152.3,209.9 144.3,209.9" fill="rgb(0,205,0)"/><text xml:space="preserve" x="148.3" y="208.733" font-family="Calibri" font-size="7.5" fill="rgb(255,255,255)" text-anchor="middle">1</text>
<polygon points="152.3,201.9 160.3,201.9 160.3,209.9 152.3,209.9" fill="rgb(0,205,0)"/><text xml:space="preserve" x="156.3" y="208.733" font-family="Calibri" font-size="7.5" fill="rgb(255,255,255)" text-anchor="middle">1</text>
<polygon points="160.3,201.9 168.3,201.9 168.3,209.9 160.3,209.9" fill="rgb(0,205,0)"/><text xml:space="preserve" x="164.3" y="208.733" font-family="Calibri" font-size="7.5" fill="rgb(255,255,255)" text-anchor="middle">1</text>
<polygon points="168.3,201.9 176.3,201.9 176.3,209.9 168.3,209.9" fill="rgb(127,230,0)"/><text xml:space="preserve" x="172.3" y="208.733" font-family="Calibri" font-size="7.5" fill="rgb(0,0,0)" text-anchor="middle">2</text>
<polygon points="186.3,201.9 202.3,201.9 202.3,209.9 186.3,209.9" fill="rgb(140,140,255)"/><text xml:space="preserve" x="194.3" y="208.733" font-family="Calibri" font-size="7.5" fill="rgb(0,0,0)" text-anchor="middle">18</text>
<polygon points="212.3,201.9 220.3,201.9 220.3,209.9 212.3,209.9" fill="rgb(5,50,136)"/>
<polygon points="220.3,201.9 228.3,201.9 228.3,209.9 220.3,209.9" fill="rgb(6,53,136)"/>
<polygon points="228.3,201.9 236.3,201.9 236.3,209.9 228.3,209.9" fill="rgb(8,60,136)"/>
<polygon points="236.3,201.9 244.3,201.9 244.3,209.9 236.3,209.9" fill="rgb(7,57,136)"/>
<polygon points="244.3,201.9 252.3,201.9 252.3,209.9 244.3,209.9" fill="rgb(7,57,136)"/>
<polygon points="252.3,201.9 260.3,201.9 260.3,209.9 252.3,209.9" fill="rgb(29,143,141)"/>
<polygon points="128.3,113.9 176.3,113.9 176.3,209.9 128.3,209.9" fill="none" stroke="black" stroke-width="1"/>
<polygon points="186.3,113.9 202.3,113.9 202.3,209.9 186.3,209.9" fill="none" stroke="black" stroke-width="1"/>
<polygon points="212.3,113.9 260.3,113.9 260.3,209.9 212.3,209.9" fill="none" stroke="black" stroke-width="1"/>
<text xml:space="preserve" x="145.15" y="242.9" font-family="Calibri" font-size="8" text-anchor="middle">ClusterAssignment</text>
<polygon points="95.15,249.9 115.15,249.9 115.15,269.9 95.15,269.9" fill="rgb(0,205,0)"/><polygon points="95.15,249.9 115.15,249.9 115.15,269.9 95.15,269.9" fill="none" stroke="black" stroke-width="1"/><text xml:space="preserve" x="105.15" y="262.733" font-family="Calibri" font-size="7.5" fill="rgb(255,255,255)" text-anchor="middle">1.0</text>
<polygon points="115.15,249.9 135.15,249.9 135.15,269.9 115.15,269.9" fill="rgb(127,230,0)"/><polygon points="115.15,249.9 135.15,249.9 135.15,269.9 115.15,269.9" fill="none" stroke="black" stroke-width="1"/><text xml:space="preserve" x="125.15" y="262.733" font-family="Calibri" font-size="7.5" fill="rgb(0,0,0)" text-anchor="middle">2.0</text>
<polygon points="135.15,249.9 155.15,249.9 155.15,269.9 135.15,269.9" fill="rgb(255,255,0)"/><polygon points="135.15,249.9 155.15,249.9 155.15,269.9 135.15,269.9" fill="none" stroke="black" stroke-width="1"/><text xml:space="preserve" x="145.15" y="262.733" font-family="Calibri" font-size="7.5" fill="rgb(0,0,0)" text-anchor="middle">3.0</text>
<polygon points="155.15,249.9 175.15,249.9 175.15,269.9 155.15,269.9" fill="rgb(230,127,0)"/><polygon points="155.15,249.9 175.15,249.9 175.15,269.9 155.15,269.9" fill="none" stroke="black" stroke-width="1"/><text xml:space="preserve" x="165.15" y="262.733" font-family="Calibri" font-size="7.5" fill="rgb(0,0,0)" text-anchor="middle">4.0</text>
<polygon points="175.15,249.9 195.15,249.9 195.15,269.9 175.15,269.9" fill="rgb(205,0,0)"/><polygon points="175.15,249.9 195.15,249.9 195.15,269.9 175.15,269.9" fill="none" stroke="black" stroke-width="1"/><text xml:space="preserve" x="185.15" y="262.733" font-family="Calibri" font-size="7.5" fill="rgb(255,255,255)" text-anchor="middle">5.0</text>
<text xml:space="preserve" x="145.15" y="302.9" font-family="Calibri" font-size="8" text-anchor="middle">Expression</text>
<polygon points="95.15,309.9 115.15,309.9 115.15,329.9 95.15,329.9" fill="rgb(0,27,135)"/><polygon points="95.15,309.9 115.15,309.9 115.15,329.9 95.15,329.9" fill="none" stroke="black" stroke-width="1"/><text xml:space="preserve" x="105.15" y="322.733" font-family="Calibri" font-size="7.5" fill="rgb(255,255,255)" text-anchor="middle">0.0</text>
<polygon points="115.15,309.9 135.15,309.9 135.15,329.9 115.15,329.9" fill="rgb(24,123,140)"/><polygon points="115.15,309.9 135.15,309.9 135.15,329.9 115.15,329.9" fill="none" stroke="black" stroke-width="1"/><text xml:space="preserve" x="125.15" y="322.733" font-family="Calibri" font-size="7.5" fill="rgb(255,255,255)" text-anchor="middle">0.6</text>
<polygon points="135.15,309.9 155.15,309.9 155.15,329.9 135.15,329.9" fill="rgb(49,219,146)"/><polygon points="135.15,309.9 155.15,309.9 155.15,329.9 135.15,329.9" fill="none" stroke="black" stroke-width="1"/><text xml:space="preserve" x="145.15" y="322.733" font-family="Calibri" font-size="7.5" fill="rgb(0,0,0)" text-anchor="middle">1.2</text>
<polygon points="155.15,309.9 175.15,309.9 175.15,329.9 155.15,329.9" fill="rgb(150,206,73)"/><polygon points="155.15,309.9 175.15,309.9 175.15,329.9 155.15,329.9" fill="none" stroke="black" stroke-width="1"/><text xml:space="preserve" x="165.15" y="322.733" font-family="Calibri" font-size="7.5" fill="rgb(0,0,0)" text-anchor="middle">1.9</text>
<polygon points="175.15,309.9 195.15,309.9 195.15,329.9 175.15,329.9" fill="rgb(252,194,1)"/><polygon points="175.15,309.9 195.15,309.9 195.15,329.9 175.15,329.9" fill="none" stroke="black" stroke-width="1"/><text xml:space="preserve" x="185.15" y="322.733" font-family="Calibri" font-size="7.5" fill="rgb(0,0,0)" text-anchor="middle">2.5</text>
<text xml:space="preserve" x="145.15" y="362.9" font-family="Calibri" font-size="8" text-anchor="middle">GeneCounts</text>
<polygon points="95.15,369.9 115.15,369.9 115.15,389.9 95.15,389.9" fill="rgb(255,255,255)"/><polygon points="95.15,369.9 115.15,369.9 115.15,389.9 95.15,389.9" fill="none" stroke="black" stroke-width="1"/><text xml:space="preserve" x="105.15" y="382.733" font-family="Calibri" font-size="7.5" fill="rgb(0,0,0)" text-anchor="middle">0.0</text>
<polygon points="115.15,369.9 135.15,369.9 135.15,389.9 115.15,389.9" fill="rgb(191,191,255)"/><polygon points="115.15,369.9 135.15,369.9 135.15,389.9 115.15,389.9" fill="none" stroke="black" stroke-width="1"/><text xml:space="preserve" x="125.15" y="382.733" font-family="Calibri" font-size="7.5" fill="rgb(0,0,0)" text-anchor="middle">10.0</text>
<polygon points="135.15,369.9 155.15,369.9 155.15,389.9 135.15,389.9" fill="rgb(127,127,255)"/><polygon points="135.15,369.9 155.15,369.9 155.15,389.9 135.15,389.9" fill="none" stroke="black" stroke-width="1"/><text xml:space="preserve" x="145.15" y="382.733" font-family="Calibri" font-size="7.5" fill="rgb(0,0,0)" text-anchor="middle">20.0</text>
<polygon points="155.15,369.9 175.15,369.9 175.15,389.9 155.15,389.9" fill="rgb(63,63,255)"/><polygon points="155.15,369.9 175.15,369.9 175.15,389.9 155.15,389.9" fill="none" stroke="black" stroke-width="1"/><text xml:space="preserve" x="165.15" y="382.733" font-family="Calibri" font-size="7.5" fill="rgb(255,255,255)" text-anchor="middle">30.0</text>
<polygon points="175.15,369.9 195.15,369.9 195.15,389.9 175.15,389.9" fill="rgb(0,0,255)"/><polygon points="175.15,369.9 195.15,369.9 195.15,389.9 175.15,389.9" fill="none" stroke="black" stroke-width="1"/><text xml:space="preserve" x="185.15" y="382.733" font-family="Calibri" font-size="7.5" fill="rgb(255,255,255)" text-anchor="middle">40.0</text>
</svg>
