<?xml version="1.0" standalone="no"?><!DOCTYPE svg PUBLIC "-//W3C//DTD SVG 1.1//EN" "http://www.w3.org/Graphics/SVG/1.1/DTD/svg11.dtd">
<svg width="348" height="567.6" version="1.1" xmlns="http://www.w3.org/2000/svg">
<text xml:space="preserve" x="112" y="342.6" font-family="Calibri" font-size="8" text-anchor="end">LINC01896</text>
<text xml:space="preserve" x="112" y="350.6" font-family="Calibri" font-size="8" text-anchor="end">SALL1</text>
<text xml:space="preserve" x="112" y="358.6" font-family="Calibri" font-size="8" text-anchor="end">SYT2</text>
<text xml:space="preserve" x="112" y="366.6" font-family="Calibri" font-size="8" text-anchor="end">SALL3</text>
<text xml:space="preserve" x="123" y="331.6" font-family="Calibri" font-size="8" transform="rotate(270 123 331.6)">c2</text>
<text xml:space="preserve" x="131" y="331.6" font-family="Calibri" font-size="8" transform="rotate(270 131 331.6)">c3</text>
<text xml:space="preserve" x="139" y="331.6" font-family="Calibri" font-size="8" transform="rotate(270 139 331.6)">c6</text>
<text xml:space="preserve" x="147" y="331.6" font-family="Calibri" font-size="8" transform="rotate(270 147 331.6)">c4</text>
<text xml:space="preserve" x="155" y="331.6" font-family="Calibri" font-size="8" transform="rotate(270 155 331.6)">c1</text>
<text xml:space="preserve" x="163" y="331.6" font-family="Calibri" font-size="8" transform="rotate(270 163 331.6)">c5</text>
<text xml:space="preserve" x="171" y="331.6" font-family="Calibri" font-size="8" transform="rotate(270 171 331.6)">c7</text>
<text xml:space="preserve" x="179" y="331.6" font-family="Calibri" font-size="8" transform="rotate(270 179 331.6)">c8</text>
<text xml:space="preserve" x="197" y="331.6" font-family="Calibri" font-size="8" transform="rotate(270 197 331.6)">c2_mean</text>
<text xml:space="preserve" x="205" y="331.6" font-family="Calibri" font-size="8" transform="rotate(270 205 331.6)">c3_mean</text>
<text xml:space="preserve" x="213" y="331.6" font-family="Calibri" font-size="8" transform="rotate(270 213 331.6)">c6_mean</text>
<text xml:space="preserve" x="221" y="331.6" font-family="Calibri" font-size="8" transform="rotate(270 221 331.6)">c4_mean</text>
<text xml:space="preserve" x="229" y="331.6" font-family="Calibri" font-size="8" transform="rotate(270 229 331.6)">c1_mean</text>
<text xml:space="preserve" x="237" y="331.6" font-family="Calibri" font-size="8" transform="rotate(270 237 331.6)">c5_mean</text>
<text xml:space="preserve" x="245" y="331.6" font-family="Calibri" font-size="8" transform="rotate(270 245 331.6)">c7_mean</text>
<text xml:space="preserve" x="253" y="331.6" font-family="Calibri" font-size="8" transform="rotate(270 253 331.6)">c8_mean</text>
<text xml:space="preserve" x="271" y="331.6" font-family="Calibri" font-size="8" transform="rotate(270 271 331.6)">transcription_factor</text>
<text xml:space="preserve" x="279" y="331.6" font-family="Calibri" font-size="8" transform="rotate(270 279 331.6)">transmembrane_signal_receptor</text>
<text xml:space="preserve" x="287" y="331.6" font-family="Calibri" font-size="8" transform="rotate(270 287 331.6)">growth_factor</text>
<text xml:space="preserve" x="295" y="331.6" font-family="Calibri" font-size="8" transform="rotate(270 295 331.6)">peptide_hormone</text>
<text xml:space="preserve" x="303" y="331.6" font-family="Calibri" font-size="8" transform="rotate(270 303 331.6)">cytoskeletal_protein</text>
<text xml:space="preserve" x="311" y="331.6" font-family="Calibri" font-size="8" transform="rotate(270 311 331.6)">ion_channel</text>
<text xml:space="preserve" x="319" y="331.6" font-family="Calibri" font-size="8" transform="rotate(270 319 331.6)">integrin</text>
<text xml:space="preserve" x="327" y="331.6" font-family="Calibri" font-size="8" transform="rotate(270 327 331.6)">extracellular_matrix_protein</text>
<polygon points="116,335.6 124,335.6 124,343.6 116,343.6" fill="rgb(0,205,0)"/><text xml:space="preserve" x="120" y="342.433" font-family="Calibri" font-size="7.5" fill="rgb(255,255,255)" text-anchor="middle">1</text>
<polygon points="124,335.6 132,335.6 132,343.6 124,343.6" fill="rgb(230,127,0)"/><text xml:space="preserve" x="128" y="342.433" font-family="Calibri" font-size="7.5" fill="rgb(0,0,0)" text-anchor="middle">4</text>
<polygon points="132,335.6 140,335.6 140,343.6 132,343.6" fill="rgb(230,127,0)"/><text xml:space="preserve" x="136" y="342.433" font-family="Calibri" font-size="7.5" fill="rgb(0,0,0)" text-anchor="middle">4</text>
<polygon points="140,335.6 148,335.6 148,343.6 140,343.6" fill="rgb(230,127,0)"/><text xml:space="preserve" x="144" y="342.433" font-family="Calibri" font-size="7.5" fill="rgb(0,0,0)" text-anchor="middle">4</text>
<polygon points="148,335.6 156,335.6 156,343.6 148,343.6" fill="rgb(230,127,0)"/><text xml:space="preserve" x="152" y="342.433" font-family="Calibri" font-size="7.5" fill="rgb(0,0,0)" text-anchor="middle">4</text>
<polygon points="156,335.6 164,335.6 164,343.6 156,343.6" fill="rgb(0,205,0)"/><text xml:space="preserve" x="160" y="342.433" font-family="Calibri" font-size="7.5" fill="rgb(255,255,255)" text-anchor="middle">1</text>
<polygon points="164,335.6 172,335.6 172,343.6 164,343.6" fill="rgb(0,205,0)"/><text xml:space="preserve" x="168" y="342.433" font-family="Calibri" font-size="7.5" fill="rgb(255,255,255)" text-anchor="middle">1</text>
<polygon points="172,335.6 180,335.6 180,343.6 172,343.6" fill="rgb(0,205,0)"/><text xml:space="preserve" x="176" y="342.433" font-family="Calibri" font-size="7.5" fill="rgb(255,255,255)" text-anchor="middle">1</text>
<polygon points="190,335.6 198,335.6 198,343.6 190,343.6" fill="rgb(4,46,136)"/>
<polygon points="198,335.6 206,335.6 206,343.6 198,343.6" fill="rgb(32,153,142)"/>
<polygon points="206,335.6 214,335.6 214,343.6 206,343.6" fill="rgb(31,148,141)"/>
<polygon points="214,335.6 222,335.6 222,343.6 214,343.6" fill="rgb(31,151,142)"/>
<polygon points="222,335.6 230,335.6 230,343.6 222,343.6" fill="rgb(29,140,141)"/>
<polygon points="230,335.6 238,335.6 238,343.6 230,343.6" fill="rgb(0,29,135)"/>
<polygon points="238,335.6 246,335.6 246,343.6 238,343.6" fill="rgb(2,35,135)"/>
<polygon points="246,335.6 254,335.6 254,343.6 246,343.6" fill="rgb(2,35,135)"/>
<polygon points="264,335.6 272,335.6 272,343.6 264,343.6" fill="rgb(255,255,255)"/>
<polygon points="272,335.6 280,335.6 280,343.6 272,343.6" fill="rgb(255,255,255)"/>
<polygon points="280,335.6 288,335.6 288,343.6 280,343.6" fill="rgb(255,255,255)"/>
<polygon points="288,335.6 296,335.6 296,343.6 288,343.6" fill="rgb(255,255,255)"/>
<polygon points="296,335.6 304,335.6 304,343.6 296,343.6" fill="rgb(255,255,255)"/>
<polygon points="304,335.6 312,335.6 312,343.6 304,343.6" fill="rgb(255,255,255)"/>
<polygon points="312,335.6 320,335.6 320,343.6 312,343.6" fill="rgb(255,255,255)"/>
<polygon points="320,335.6 328,335.6 328,343.6 320,343.6" fill="rgb(255,255,255)"/>
<polygon points="116,343.6 124,343.6 124,351.6 116,351.6" fill="rgb(0,205,0)"/><text xml:space="preserve" x="120" y="350.433" font-family="Calibri" font-size="7.5" fill="rgb(255,255,255)" text-anchor="middle">1</text>
<polygon points="124,343.6 132,343.6 132,351.6 124,351.6" fill="rgb(230,127,0)"/><text xml:space="preserve" x="128" y="350.433" font-family="Calibri" font-size="7.5" fill="rgb(0,0,0)" text-anchor="middle">4</text>
<polygon points="132,343.6 140,343.6 140,351.6 132,351.6" fill="rgb(230,127,0)"/><text xml:space="preserve" x="136" y="350.433" font-family="Calibri" font-size="7.5" fill="rgb(0,0,0)" text-anchor="middle">4</text>
<polygon points="140,343.6 148,343.6 148,351.6 140,351.6" fill="rgb(230,127,0)"/><text xml:space="preserve" x="144" y="350.433" font-family="Calibri" font-size="7.5" fill="rgb(0,0,0)" text-anchor="middle">4</text>
<polygon points="148,343.6 156,343.6 156,351.6 148,351.6" fill="rgb(230,127,0)"/><text xml:space="preserve" x="152" y="350.433" font-family="Calibri" font-size="7.5" fill="rgb(0,0,0)" text-anchor="middle">4</text>
<polygon points="156,343.6 164,343.6 164,351.6 156,351.6" fill="rgb(0,205,0)"/><text xml:space="preserve" x="160" y="350.433" font-family="Calibri" font-size="7.5" fill="rgb(255,255,255)" text-anchor="middle">1</text>
<polygon points="164,343.6 172,343.6 172,351.6 164,351.6" fill="rgb(0,205,0)"/><text xml:space="preserve" x="168" y="350.433" font-family="Calibri" font-size="7.5" fill="rgb(255,255,255)" text-anchor="middle">1</text>
<polygon points="172,343.6 180,343.6 180,351.6 172,351.6" fill="rgb(0,205,0)"/><text xml:space="preserve" x="176" y="350.433" font-family="Calibri" font-size="7.5" fill="rgb(255,255,255)" text-anchor="middle">1</text>
<polygon points="190,343.6 198,343.6 198,351.6 190,351.6" fill="rgb(6,52,136)"/>
<polygon points="198,343.6 206,343.6 206,351.6 198,351.6" fill="rgb(25,125,140)"/>
<polygon points="206,343.6 214,343.6 214,351.6 206,351.6" fill="rgb(42,194,144)"/>
<polygon points="214,343.6 222,343.6 222,351.6 214,351.6" fill="rgb(23,120,140)"/>
<polygon points="222,343.6 230,343.6 230,351.6 222,351.6" fill="rgb(13,80,138)"/>
<polygon points="230,343.6 238,343.6 238,351.6 230,351.6" fill="rgb(0,27,135)"/>
<polygon points="238,343.6 246,343.6 246,351.6 238,351.6" fill="rgb(2,38,135)"/>
<polygon points="246,343.6 254,343.6 254,351.6 246,351.6" fill="rgb(3,42,135)"/>
<polygon points="264,343.6 272,343.6 272,351.6 264,351.6" fill="rgb(205,0,205)"/>
<polygon points="272,343.6 280,343.6 280,351.6 272,351.6" fill="rgb(255,255,255)"/>
<polygon points="280,343.6 288,343.6 288,351.6 280,351.6" fill="rgb(255,255,255)"/>
<polygon points="288,343.6 296,343.6 296,351.6 288,351.6" fill="rgb(255,255,255)"/>
<polygon points="296,343.6 304,343.6 304,351.6 296,351.6" fill="rgb(255,255,255)"/>
<polygon points="304,343.6 312,343.6 312,351.6 304,351.6" fill="rgb(255,255,255)"/>
<polygon points="312,343.6 320,343.6 320,351.6 312,351.6" fill="rgb(255,255,255)"/>
<polygon points="320,343.6 328,343.6 328,351.6 320,351.6" fill="rgb(255,255,255)"/>
<polygon points="116,351.6 124,351.6 124,359.6 116,359.6" fill="rgb(0,205,0)"/><text xml:space="preserve" x="120" y="358.433" font-family="Calibri" font-size="7.5" fill="rgb(255,255,255)" text-anchor="middle">1</text>
<polygon points="124,351.6 132,351.6 132,359.6 124,359.6" fill="rgb(230,127,0)"/><text xml:space="preserve" x="128" y="358.433" font-family="Calibri" font-size="7.5" fill="rgb(0,0,0)" text-anchor="middle">4</text>
<polygon points="132,351.6 140,351.6 140,359.6 132,359.6" fill="rgb(230,127,0)"/><text xml:space="preserve" x="136" y="358.433" font-family="Calibri" font-size="7.5" fill="rgb(0,0,0)" text-anchor="middle">4</text>
<polygon points="140,351.6 148,351.6 148,359.6 140,359.6" fill="rgb(230,127,0)"/><text xml:space="preserve" x="144" y="358.433" font-family="Calibri" font-size="7.5" fill="rgb(0,0,0)" text-anchor="middle">4</text>
<polygon points="148,351.6 156,351.6 156,359.6 148,359.6" fill="rgb(230,127,0)"/><text xml:space="preserve" x="152" y="358.433" font-family="Calibri" font-size="7.5" fill="rgb(0,0,0)" text-anchor="middle">4</text>
<polygon points="156,351.6 164,351.6 164,359.6 156,359.6" fill="rgb(0,205,0)"/><text xml:space="preserve" x="160" y="358.433" font-family="Calibri" font-size="7.5" fill="rgb(255,255,255)" text-anchor="middle">1</text>
<polygon points="164,351.6 172,351.6 172,359.6 164,359.6" fill="rgb(0,205,0)"/><text xml:space="preserve" x="168" y="358.433" font-family="Calibri" font-size="7.5" fill="rgb(255,255,255)" text-anchor="middle">1</text>
<polygon points="172,351.6 180,351.6 180,359.6 172,359.6" fill="rgb(0,205,0)"/><text xml:space="preserve" x="176" y="358.433" font-family="Calibri" font-size="7.5" fill="rgb(255,255,255)" text-anchor="middle">1</text>
<polygon points="190,351.6 198,351.6 198,359.6 190,359.6" fill="rgb(8,61,136)"/>
<polygon points="198,351.6 206,351.6 206,359.6 198,359.6" fill="rgb(29,143,141)"/>
<polygon points="206,351.6 214,351.6 214,359.6 206,359.6" fill="rgb(25,125,140)"/>
<polygon points="214,351.6 222,351.6 222,359.6 214,359.6" fill="rgb(26,131,141)"/>
<polygon points="222,351.6 230,351.6 230,359.6 222,359.6" fill="rgb(27,133,141)"/>
<polygon points="230,351.6 238,351.6 238,359.6 230,359.6" fill="rgb(0,28,135)"/>
<polygon points="238,351.6 246,351.6 246,359.6 238,359.6" fill="rgb(1,32,135)"/>
<polygon points="246,351.6 254,351.6 254,359.6 246,359.6" fill="rgb(1,32,135)"/>
<polygon points="264,351.6 272,351.6 272,359.6 264,359.6" fill="rgb(255,255,255)"/>
<polygon points="272,351.6 280,351.6 280,359.6 272,359.6" fill="rgb(255,255,255)"/>
<polygon points="280,351.6 288,351.6 288,359.6 280,359.6" fill="rgb(255,255,255)"/>
<polygon points="288,351.6 296,351.6 296,359.6 288,359.6" fill="rgb(255,255,255)"/>
<polygon points="296,351.6 304,351.6 304,359.6 296,359.6" fill="rgb(255,255,255)"/>
<polygon points="304,351.6 312,351.6 312,359.6 304,359.6" fill="rgb(255,255,255)"/>
<polygon points="312,351.6 320,351.6 320,359.6 312,359.6" fill="rgb(255,255,255)"/>
<polygon points="320,351.6 328,351.6 328,359.6 320,359.6" fill="rgb(255,255,255)"/>
<polygon points="116,359.6 124,359.6 124,367.6 116,367.6" fill="rgb(0,205,0)"/><text xml:space="preserve" x="120" y="366.433" font-family="Calibri" font-size="7.5" fill="rgb(255,255,255)" text-anchor="middle">1</text>
<polygon points="124,359.6 132,359.6 132,367.6 124,367.6" fill="rgb(230,127,0)"/><text xml:space="preserve" x="128" y="366.433" font-family="Calibri" font-size="7.5" fill="rgb(0,0,0)" text-anchor="middle">4</text>
<polygon points="132,359.6 140,359.6 140,367.6 132,367.6" fill="rgb(230,127,0)"/><text xml:space="preserve" x="136" y="366.433" font-family="Calibri" font-size="7.5" fill="rgb(0,0,0)" text-anchor="middle">4</text>
<polygon points="140,359.6 148,359.6 148,367.6 140,367.6" fill="rgb(230,127,0)"/><text xml:space="preserve" x="144" y="366.433" font-family="Calibri" font-size="7.5" fill="rgb(0,0,0)" text-anchor="middle">4</text>
<polygon points="148,359.6 156,359.6 156,367.6 148,367.6" fill="rgb(230,127,0)"/><text xml:space="preserve" x="152" y="366.433" font-family="Calibri" font-size="7.5" fill="rgb(0,0,0)" text-anchor="middle">4</text>
<polygon points="156,359.6 164,359.6 164,367.6 156,367.6" fill="rgb(0,205,0)"/><text xml:space="preserve" x="160" y="366.433" font-family="Calibri" font-size="7.5" fill="rgb(255,255,255)" text-anchor="middle">1</text>
<polygon points="164,359.6 172,359.6 172,367.6 164,367.6" fill="rgb(0,205,0)"/><text xml:space="preserve" x="168" y="366.433" font-family="Calibri" font-size="7.5" fill="rgb(255,255,255)" text-anchor="middle">1</text>
<polygon points="172,359.6 180,359.6 180,367.6 172,367.6" fill="rgb(0,205,0)"/><text xml:space="preserve" x="176" y="366.433" font-family="Calibri" font-size="7.5" fill="rgb(255,255,255)" text-anchor="middle">1</text>
<polygon points="190,359.6 198,359.6 198,367.6 190,367.6" fill="rgb(2,35,135)"/>
<polygon points="198,359.6 206,359.6 206,367.6 198,367.6" fill="rgb(17,97,139)"/>
<polygon points="206,359.6 214,359.6 214,367.6 206,367.6" fill="rgb(18,99,139)"/>
<polygon points="214,359.6 222,359.6 222,367.6 214,367.6" fill="rgb(24,124,140)"/>
<polygon points="222,359.6 230,359.6 230,367.6 222,367.6" fill="rgb(20,106,139)"/>
<polygon points="230,359.6 238,359.6 238,367.6 230,367.6" fill="rgb(0,28,135)"/>
<polygon points="238,359.6 246,359.6 246,367.6 238,367.6" fill="rgb(1,33,135)"/>
<polygon points="246,359.6 254,359.6 254,367.6 246,367.6" fill="rgb(1,34,135)"/>
<polygon points="264,359.6 272,359.6 272,367.6 264,367.6" fill="rgb(205,0,205)"/>
<polygon points="272,359.6 280,359.6 280,367.6 272,367.6" fill="rgb(255,255,255)"/>
<polygon points="280,359.6 288,359.6 288,367.6 280,367.6" fill="rgb(255,255,255)"/>
<polygon points="288,359.6 296,359.6 296,367.6 288,367.6" fill="rgb(255,255,255)"/>
<polygon points="296,359.6 304,359.6 304,367.6 296,367.6" fill="rgb(255,255,255)"/>
<polygon points="304,359.6 312,359.6 312,367.6 304,367.6" fill="rgb(255,255,255)"/>
<polygon points="312,359.6 320,359.6 320,367.6 312,367.6" fill="rgb(255,255,255)"/>
<polygon points="320,359.6 328,359.6 328,367.6 320,367.6" fill="rgb(255,255,255)"/>
<polygon points="116,335.6 180,335.6 180,367.6 116,367.6" fill="none" stroke="black" stroke-width="1"/>
<polygon points="190,335.6 254,335.6 254,367.6 190,367.6" fill="none" stroke="black" stroke-width="1"/>
<polygon points="264,335.6 328,335.6 328,367.6 264,367.6" fill="none" stroke="black" stroke-width="1"/>
<text xml:space="preserve" x="174" y="400.6" font-family="Calibri" font-size="8" text-anchor="middle">ClusterAssignment</text>
<polygon points="124,407.6 144,407.6 144,427.6 124,427.6" fill="rgb(0,205,0)"/><polygon points="124,407.6 144,407.6 144,427.6 124,427.6" fill="none" stroke="black" stroke-width="1"/><text xml:space="preserve" x="134" y="420.433" font-family="Calibri" font-size="7.5" fill="rgb(255,255,255)" text-anchor="middle">1.0</text>
<polygon points="144,407.6 164,407.6 164,427.6 144,427.6" fill="rgb(127,230,0)"/><polygon points="144,407.6 164,407.6 164,427.6 144,427.6" fill="none" stroke="black" stroke-width="1"/><text xml:space="preserve" x="154" y="420.433" font-family="Calibri" font-size="7.5" fill="rgb(0,0,0)" text-anchor="middle">2.0</text>
<polygon points="164,407.6 184,407.6 184,427.6 164,427.6" fill="rgb(255,255,0)"/><polygon points="164,407.6 184,407.6 184,427.6 164,427.6" fill="none" stroke="black" stroke-width="1"/><text xml:space="preserve" x="174" y="420.433" font-family="Calibri" font-size="7.5" fill="rgb(0,0,0)" text-anchor="middle">3.0</text>
<polygon points="184,407.6 204,407.6 204,427.6 184,427.6" fill="rgb(230,127,0)"/><polygon points="184,407.6 204,407.6 204,427.6 184,427.6" fill="none" stroke="black" stroke-width="1"/><text xml:space="preserve" x="194" y="420.433" font-family="Calibri" font-size="7.5" fill="rgb(0,0,0)" text-anchor="middle">4.0</text>
<polygon points="204,407.6 224,407.6 224,427.6 204,427.6" fill="rgb(205,0,0)"/><polygon points="204,407.6 224,407.6 224,427.6 204,427.6" fill="none" stroke="black" stroke-width="1"/><text xml:space="preserve" x="214" y="420.433" font-family="Calibri" font-size="7.5" fill="rgb(255,255,255)" text-anchor="middle">5.0</text>
<text xml:space="preserve" x="174" y="460.6" font-family="Calibri" font-size="8" text-anchor="middle">Expression</text>
<polygon points="124,467.6 144,467.6 144,487.6 124,487.6" fill="rgb(0,27,135)"/><polygon points="124,467.6 144,467.6 144,487.6 124,487.6" fill="none" stroke="black" stroke-width="1"/><text xml:space="preserve" x="134" y="480.433" font-family="Calibri" font-size="7.5" fill="rgb(255,255,255)" text-anchor="middle">0.0</text>
<polygon points="144,467.6 164,467.6 164,487.6 144,487.6" fill="rgb(24,123,140)"/><polygon points="144,467.6 164,467.6 164,487.6 144,487.6" fill="none" stroke="black" stroke-width="1"/><text xml:space="preserve" x="154" y="480.433" font-family="Calibri" font-size="7.5" fill="rgb(255,255,255)" text-anchor="middle">0.8</text>
<polygon points="164,467.6 184,467.6 184,487.6 164,487.6" fill="rgb(49,219,146)"/><polygon points="164,467.6 184,467.6 184,487.6 164,487.6" fill="none" stroke="black" stroke-width="1"/><text xml:space="preserve" x="174" y="480.433" font-family="Calibri" font-size="7.5" fill="rgb(0,0,0)" text-anchor="middle">1.5</text>
<polygon points="184,467.6 204,467.6 204,487.6 184,487.6" fill="rgb(150,206,73)"/><polygon points="184,467.6 204,467.6 204,487.6 184,487.6" fill="none" stroke="black" stroke-width="1"/><text xml:space="preserve" x="194" y="480.433" font-family="Calibri" font-size="7.5" fill="rgb(0,0,0)" text-anchor="middle">2.2</text>
<polygon points="204,467.6 224,467.6 224,487.6 204,487.6" fill="rgb(252,194,1)"/><polygon points="204,467.6 224,467.6 224,487.6 204,487.6" fill="none" stroke="black" stroke-width="1"/><text xml:space="preserve" x="214" y="480.433" font-family="Calibri" font-size="7.5" fill="rgb(0,0,0)" text-anchor="middle">3.0</text>
<text xml:space="preserve" x="174" y="520.6" font-family="Calibri" font-size="8" text-anchor="middle">PANTHERclass</text>
<polygon points="124,527.6 144,527.6 144,547.6 124,547.6" fill="rgb(255,255,255)"/><polygon points="124,527.6 144,527.6 144,547.6 124,547.6" fill="none" stroke="black" stroke-width="1"/><text xml:space="preserve" x="134" y="540.433" font-family="Calibri" font-size="7.5" fill="rgb(0,0,0)" text-anchor="middle">0.0</text>
<polygon points="144,527.6 164,527.6 164,547.6 144,547.6" fill="rgb(242,191,242)"/><polygon points="144,527.6 164,527.6 164,547.6 144,547.6" fill="none" stroke="black" stroke-width="1"/><text xml:space="preserve" x="154" y="540.433" font-family="Calibri" font-size="7.5" fill="rgb(0,0,0)" text-anchor="middle">0.2</text>
<polygon points="164,527.6 184,527.6 184,547.6 164,547.6" fill="rgb(230,127,230)"/><polygon points="164,527.6 184,527.6 184,547.6 164,547.6" fill="none" stroke="black" stroke-width="1"/><text xml:space="preserve" x="174" y="540.433" font-family="Calibri" font-size="7.5" fill="rgb(0,0,0)" text-anchor="middle">0.5</text>
<polygon points="184,527.6 204,527.6 204,547.6 184,547.6" fill="rgb(217,63,217)"/><polygon points="184,527.6 204,527.6 204,547.6 184,547.6" fill="none" stroke="black" stroke-width="1"/><text xml:space="preserve" x="194" y="540.433" font-family="Calibri" font-size="7.5" fill="rgb(255,255,255)" text-anchor="middle">0.8</text>
<polygon points="204,527.6 224,527.6 224,547.6 204,547.6" fill="rgb(205,0,205)"/><polygon points="204,527.6 224,527.6 224,547.6 204,547.6" fill="none" stroke="black" stroke-width="1"/><text xml:space="preserve" x="214" y="540.433" font-family="Calibri" font-size="7.5" fill="rgb(255,255,255)" text-anchor="middle">1.0</text>
</svg>
