<?xml version="1.0" standalone="no"?><!DOCTYPE svg PUBLIC "-//W3C//DTD SVG 1.1//EN" "http://www.w3.org/Graphics/SVG/1.1/DTD/svg11.dtd">
<svg width="336.6" height="623.6" version="1.1" xmlns="http://www.w3.org/2000/svg">
<text xml:space="preserve" x="100.6" y="342.6" font-family="Calibri" font-size="8" text-anchor="end">ATP5MF</text>
<text xml:space="preserve" x="100.6" y="350.6" font-family="Calibri" font-size="8" text-anchor="end">COX8A</text>
<text xml:space="preserve" x="100.6" y="358.6" font-family="Calibri" font-size="8" text-anchor="end">COPS5</text>
<text xml:space="preserve" x="100.6" y="366.6" font-family="Calibri" font-size="8" text-anchor="end">STUB1</text>
<text xml:space="preserve" x="100.6" y="374.6" font-family="Calibri" font-size="8" text-anchor="end">SNRPB2</text>
<text xml:space="preserve" x="100.6" y="382.6" font-family="Calibri" font-size="8" text-anchor="end">PSMD7</text>
<text xml:space="preserve" x="100.6" y="390.6" font-family="Calibri" font-size="8" text-anchor="end">EIF4E</text>
<text xml:space="preserve" x="100.6" y="398.6" font-family="Calibri" font-size="8" text-anchor="end">NDUFB11</text>
<text xml:space="preserve" x="100.6" y="406.6" font-family="Calibri" font-size="8" text-anchor="end">C11orf58</text>
<text xml:space="preserve" x="100.6" y="414.6" font-family="Calibri" font-size="8" text-anchor="end">ILF2</text>
<text xml:space="preserve" x="100.6" y="422.6" font-family="Calibri" font-size="8" text-anchor="end">DNAJC8</text>
<text xml:space="preserve" x="111.6" y="331.6" font-family="Calibri" font-size="8" transform="rotate(270 111.6 331.6)">c2</text>
<text xml:space="preserve" x="119.6" y="331.6" font-family="Calibri" font-size="8" transform="rotate(270 119.6 331.6)">c3</text>
<text xml:space="preserve" x="127.6" y="331.6" font-family="Calibri" font-size="8" transform="rotate(270 127.6 331.6)">c6</text>
<text xml:space="preserve" x="135.6" y="331.6" font-family="Calibri" font-size="8" transform="rotate(270 135.6 331.6)">c4</text>
<text xml:space="preserve" x="143.6" y="331.6" font-family="Calibri" font-size="8" transform="rotate(270 143.6 331.6)">c1</text>
<text xml:space="preserve" x="151.6" y="331.6" font-family="Calibri" font-size="8" transform="rotate(270 151.6 331.6)">c5</text>
<text xml:space="preserve" x="159.6" y="331.6" font-family="Calibri" font-size="8" transform="rotate(270 159.6 331.6)">c7</text>
<text xml:space="preserve" x="167.6" y="331.6" font-family="Calibri" font-size="8" transform="rotate(270 167.6 331.6)">c8</text>
<text xml:space="preserve" x="185.6" y="331.6" font-family="Calibri" font-size="8" transform="rotate(270 185.6 331.6)">c2_mean</text>
<text xml:space="preserve" x="193.6" y="331.6" font-family="Calibri" font-size="8" transform="rotate(270 193.6 331.6)">c3_mean</text>
<text xml:space="preserve" x="201.6" y="331.6" font-family="Calibri" font-size="8" transform="rotate(270 201.6 331.6)">c6_mean</text>
<text xml:space="preserve" x="209.6" y="331.6" font-family="Calibri" font-size="8" transform="rotate(270 209.6 331.6)">c4_mean</text>
<text xml:space="preserve" x="217.6" y="331.6" font-family="Calibri" font-size="8" transform="rotate(270 217.6 331.6)">c1_mean</text>
<text xml:space="preserve" x="225.6" y="331.6" font-family="Calibri" font-size="8" transform="rotate(270 225.6 331.6)">c5_mean</text>
<text xml:space="preserve" x="233.6" y="331.6" font-family="Calibri" font-size="8" transform="rotate(270 233.6 331.6)">c7_mean</text>
<text xml:space="preserve" x="241.6" y="331.6" font-family="Calibri" font-size="8" transform="rotate(270 241.6 331.6)">c8_mean</text>
<text xml:space="preserve" x="259.6" y="331.6" font-family="Calibri" font-size="8" transform="rotate(270 259.6 331.6)">transcription_factor</text>
<text xml:space="preserve" x="267.6" y="331.6" font-family="Calibri" font-size="8" transform="rotate(270 267.6 331.6)">transmembrane_signal_receptor</text>
<text xml:space="preserve" x="275.6" y="331.6" font-family="Calibri" font-size="8" transform="rotate(270 275.6 331.6)">growth_factor</text>
<text xml:space="preserve" x="283.6" y="331.6" font-family="Calibri" font-size="8" transform="rotate(270 283.6 331.6)">peptide_hormone</text>
<text xml:space="preserve" x="291.6" y="331.6" font-family="Calibri" font-size="8" transform="rotate(270 291.6 331.6)">cytoskeletal_protein</text>
<text xml:space="preserve" x="299.6" y="331.6" font-family="Calibri" font-size="8" transform="rotate(270 299.6 331.6)">ion_channel</text>
<text xml:space="preserve" x="307.6" y="331.6" font-family="Calibri" font-size="8" transform="rotate(270 307.6 331.6)">integrin</text>
<text xml:space="preserve" x="315.6" y="331.6" font-family="Calibri" font-size="8" transform="rotate(270 315.6 331.6)">extracellular_matrix_protein</text>
<polygon points="104.6,335.6 112.6,335.6 112.6,343.6 104.6,343.6" fill="rgb(255,255,0)"/><text xml:space="preserve" x="108.6" y="342.433" font-family="Calibri" font-size="7.5" fill="rgb(0,0,0)" text-anchor="middle">3</text>
<polygon points="112.6,335.6 120.6,335.6 120.6,343.6 112.6,343.6" fill="rgb(255,255,0)"/><text xml:space="preserve" x="116.6" y="342.433" font-family="Calibri" font-size="7.5" fill="rgb(0,0,0)" text-anchor="middle">3</text>
<polygon points="120.6,335.6 128.6,335.6 128.6,343.6 120.6,343.6" fill="rgb(230,127,0)"/><text xml:space="preserve" x="124.6" y="342.433" font-family="Calibri" font-size="7.5" fill="rgb(0,0,0)" text-anchor="middle">4</text>
<polygon points="128.6,335.6 136.6,335.6 136.6,343.6 128.6,343.6" fill="rgb(127,230,0)"/><text xml:space="preserve" x="132.6" y="342.433" font-family="Calibri" font-size="7.5" fill="rgb(0,0,0)" text-anchor="middle">2</text>
<polygon points="136.6,335.6 144.6,335.6 144.6,343.6 136.6,343.6" fill="rgb(205,0,0)"/><text xml:space="preserve" x="140.6" y="342.433" font-family="Calibri" font-size="7.5" fill="rgb(255,255,255)" text-anchor="middle">5</text>
<polygon points="144.6,335.6 152.6,335.6 152.6,343.6 144.6,343.6" fill="rgb(230,127,0)"/><text xml:space="preserve" x="148.6" y="342.433" font-family="Calibri" font-size="7.5" fill="rgb(0,0,0)" text-anchor="middle">4</text>
<polygon points="152.6,335.6 160.6,335.6 160.6,343.6 152.6,343.6" fill="rgb(230,127,0)"/><text xml:space="preserve" x="156.6" y="342.433" font-family="Calibri" font-size="7.5" fill="rgb(0,0,0)" text-anchor="middle">4</text>
<polygon points="160.6,335.6 168.6,335.6 168.6,343.6 160.6,343.6" fill="rgb(127,230,0)"/><text xml:space="preserve" x="164.6" y="342.433" font-family="Calibri" font-size="7.5" fill="rgb(0,0,0)" text-anchor="middle">2</text>
<polygon points="178.6,335.6 186.6,335.6 186.6,343.6 178.6,343.6" fill="rgb(16,89,138)"/>
<polygon points="186.6,335.6 194.6,335.6 194.6,343.6 186.6,343.6" fill="rgb(12,74,137)"/>
<polygon points="194.6,335.6 202.6,335.6 202.6,343.6 194.6,343.6" fill="rgb(25,126,140)"/>
<polygon points="202.6,335.6 210.6,335.6 210.6,343.6 202.6,343.6" fill="rgb(8,60,136)"/>
<polygon points="210.6,335.6 218.6,335.6 218.6,343.6 210.6,343.6" fill="rgb(34,163,142)"/>
<polygon points="218.6,335.6 226.6,335.6 226.6,343.6 218.6,343.6" fill="rgb(29,142,141)"/>
<polygon points="226.6,335.6 234.6,335.6 234.6,343.6 226.6,343.6" fill="rgb(27,135,141)"/>
<polygon points="234.6,335.6 242.6,335.6 242.6,343.6 234.6,343.6" fill="rgb(7,55,136)"/>
<polygon points="252.6,335.6 260.6,335.6 260.6,343.6 252.6,343.6" fill="rgb(255,255,255)"/>
<polygon points="260.6,335.6 268.6,335.6 268.6,343.6 260.6,343.6" fill="rgb(255,255,255)"/>
<polygon points="268.6,335.6 276.6,335.6 276.6,343.6 268.6,343.6" fill="rgb(255,255,255)"/>
<polygon points="276.6,335.6 284.6,335.6 284.6,343.6 276.6,343.6" fill="rgb(255,255,255)"/>
<polygon points="284.6,335.6 292.6,335.6 292.6,343.6 284.6,343.6" fill="rgb(255,255,255)"/>
<polygon points="292.6,335.6 300.6,335.6 300.6,343.6 292.6,343.6" fill="rgb(255,255,255)"/>
<polygon points="300.6,335.6 308.6,335.6 308.6,343.6 300.6,343.6" fill="rgb(255,255,255)"/>
<polygon points="308.6,335.6 316.6,335.6 316.6,343.6 308.6,343.6" fill="rgb(255,255,255)"/>
<polygon points="104.6,343.6 112.6,343.6 112.6,351.6 104.6,351.6" fill="rgb(255,255,0)"/><text xml:space="preserve" x="108.6" y="350.433" font-family="Calibri" font-size="7.5" fill="rgb(0,0,0)" text-anchor="middle">3</text>
<polygon points="112.6,343.6 120.6,343.6 120.6,351.6 112.6,351.6" fill="rgb(255,255,0)"/><text xml:space="preserve" x="116.6" y="350.433" font-family="Calibri" font-size="7.5" fill="rgb(0,0,0)" text-anchor="middle">3</text>
<polygon points="120.6,343.6 128.6,343.6 128.6,351.6 120.6,351.6" fill="rgb(230,127,0)"/><text xml:space="preserve" x="124.6" y="350.433" font-family="Calibri" font-size="7.5" fill="rgb(0,0,0)" text-anchor="middle">4</text>
<polygon points="128.6,343.6 136.6,343.6 136.6,351.6 128.6,351.6" fill="rgb(127,230,0)"/><text xml:space="preserve" x="132.6" y="350.433" font-family="Calibri" font-size="7.5" fill="rgb(0,0,0)" text-anchor="middle">2</text>
<polygon points="136.6,343.6 144.6,343.6 144.6,351.6 136.6,351.6" fill="rgb(205,0,0)"/><text xml:space="preserve" x="140.6" y="350.433" font-family="Calibri" font-size="7.5" fill="rgb(255,255,255)" text-anchor="middle">5</text>
<polygon points="144.6,343.6 152.6,343.6 152.6,351.6 144.6,351.6" fill="rgb(230,127,0)"/><text xml:space="preserve" x="148.6" y="350.433" font-family="Calibri" font-size="7.5" fill="rgb(0,0,0)" text-anchor="middle">4</text>
<polygon points="152.6,343.6 160.6,343.6 160.6,351.6 152.6,351.6" fill="rgb(230,127,0)"/><text xml:space="preserve" x="156.6" y="350.433" font-family="Calibri" font-size="7.5" fill="rgb(0,0,0)" text-anchor="middle">4</text>
<polygon points="160.6,343.6 168.6,343.6 168.6,351.6 160.6,351.6" fill="rgb(127,230,0)"/><text xml:space="preserve" x="164.6" y="350.433" font-family="Calibri" font-size="7.5" fill="rgb(0,0,0)" text-anchor="middle">2</text>
<polygon points="178.6,343.6 186.6,343.6 186.6,351.6 178.6,351.6" fill="rgb(16,89,138)"/>
<polygon points="186.6,343.6 194.6,343.6 194.6,351.6 186.6,351.6" fill="rgb(12,74,137)"/>
<polygon points="194.6,343.6 202.6,343.6 202.6,351.6 194.6,351.6" fill="rgb(27,134,141)"/>
<polygon points="202.6,343.6 210.6,343.6 210.6,351.6 202.6,351.6" fill="rgb(7,56,136)"/>
<polygon points="210.6,343.6 218.6,343.6 218.6,351.6 210.6,351.6" fill="rgb(32,153,142)"/>
<polygon points="218.6,343.6 226.6,343.6 226.6,351.6 218.6,351.6" fill="rgb(28,139,141)"/>
<polygon points="226.6,343.6 234.6,343.6 234.6,351.6 226.6,351.6" fill="rgb(27,135,141)"/>
<polygon points="234.6,343.6 242.6,343.6 242.6,351.6 234.6,351.6" fill="rgb(7,56,136)"/>
<polygon points="252.6,343.6 260.6,343.6 260.6,351.6 252.6,351.6" fill="rgb(255,255,255)"/>
<polygon points="260.6,343.6 268.6,343.6 268.6,351.6 260.6,351.6" fill="rgb(255,255,255)"/>
<polygon points="268.6,343.6 276.6,343.6 276.6,351.6 268.6,351.6" fill="rgb(255,255,255)"/>
<polygon points="276.6,343.6 284.6,343.6 284.6,351.6 276.6,351.6" fill="rgb(255,255,255)"/>
<polygon points="284.6,343.6 292.6,343.6 292.6,351.6 284.6,351.6" fill="rgb(255,255,255)"/>
<polygon points="292.6,343.6 300.6,343.6 300.6,351.6 292.6,351.6" fill="rgb(255,255,255)"/>
<polygon points="300.6,343.6 308.6,343.6 308.6,351.6 300.6,351.6" fill="rgb(255,255,255)"/>
<polygon points="308.6,343.6 316.6,343.6 316.6,351.6 308.6,351.6" fill="rgb(255,255,255)"/>
<polygon points="104.6,351.6 112.6,351.6 112.6,359.6 104.6,359.6" fill="rgb(255,255,0)"/><text xml:space="preserve" x="108.6" y="358.433" font-family="Calibri" font-size="7.5" fill="rgb(0,0,0)" text-anchor="middle">3</text>
<polygon points="112.6,351.6 120.6,351.6 120.6,359.6 112.6,359.6" fill="rgb(255,255,0)"/><text xml:space="preserve" x="116.6" y="358.433" font-family="Calibri" font-size="7.5" fill="rgb(0,0,0)" text-anchor="middle">3</text>
<polygon points="120.6,351.6 128.6,351.6 128.6,359.6 120.6,359.6" fill="rgb(230,127,0)"/><text xml:space="preserve" x="124.6" y="358.433" font-family="Calibri" font-size="7.5" fill="rgb(0,0,0)" text-anchor="middle">4</text>
<polygon points="128.6,351.6 136.6,351.6 136.6,359.6 128.6,359.6" fill="rgb(127,230,0)"/><text xml:space="preserve" x="132.6" y="358.433" font-family="Calibri" font-size="7.5" fill="rgb(0,0,0)" text-anchor="middle">2</text>
<polygon points="136.6,351.6 144.6,351.6 144.6,359.6 136.6,359.6" fill="rgb(205,0,0)"/><text xml:space="preserve" x="140.6" y="358.433" font-family="Calibri" font-size="7.5" fill="rgb(255,255,255)" text-anchor="middle">5</text>
<polygon points="144.6,351.6 152.6,351.6 152.6,359.6 144.6,359.6" fill="rgb(230,127,0)"/><text xml:space="preserve" x="148.6" y="358.433" font-family="Calibri" font-size="7.5" fill="rgb(0,0,0)" text-anchor="middle">4</text>
<polygon points="152.6,351.6 160.6,351.6 160.6,359.6 152.6,359.6" fill="rgb(230,127,0)"/><text xml:space="preserve" x="156.6" y="358.433" font-family="Calibri" font-size="7.5" fill="rgb(0,0,0)" text-anchor="middle">4</text>
<polygon points="160.6,351.6 168.6,351.6 168.6,359.6 160.6,359.6" fill="rgb(127,230,0)"/><text xml:space="preserve" x="164.6" y="358.433" font-family="Calibri" font-size="7.5" fill="rgb(0,0,0)" text-anchor="middle">2</text>
<polygon points="178.6,351.6 186.6,351.6 186.6,359.6 178.6,359.6" fill="rgb(16,91,138)"/>
<polygon points="186.6,351.6 194.6,351.6 194.6,359.6 186.6,359.6" fill="rgb(11,70,137)"/>
<polygon points="194.6,351.6 202.6,351.6 202.6,359.6 194.6,359.6" fill="rgb(21,112,139)"/>
<polygon points="202.6,351.6 210.6,351.6 210.6,359.6 202.6,359.6" fill="rgb(7,56,136)"/>
<polygon points="210.6,351.6 218.6,351.6 218.6,359.6 210.6,359.6" fill="rgb(32,152,142)"/>
<polygon points="218.6,351.6 226.6,351.6 226.6,359.6 218.6,359.6" fill="rgb(26,129,140)"/>
<polygon points="226.6,351.6 234.6,351.6 234.6,359.6 226.6,359.6" fill="rgb(24,121,140)"/>
<polygon points="234.6,351.6 242.6,351.6 242.6,359.6 234.6,359.6" fill="rgb(6,51,136)"/>
<polygon points="252.6,351.6 260.6,351.6 260.6,359.6 252.6,359.6" fill="rgb(255,255,255)"/>
<polygon points="260.6,351.6 268.6,351.6 268.6,359.6 260.6,359.6" fill="rgb(255,255,255)"/>
<polygon points="268.6,351.6 276.6,351.6 276.6,359.6 268.6,359.6" fill="rgb(255,255,255)"/>
<polygon points="276.6,351.6 284.6,351.6 284.6,359.6 276.6,359.6" fill="rgb(255,255,255)"/>
<polygon points="284.6,351.6 292.6,351.6 292.6,359.6 284.6,359.6" fill="rgb(255,255,255)"/>
<polygon points="292.6,351.6 300.6,351.6 300.6,359.6 292.6,359.6" fill="rgb(255,255,255)"/>
<polygon points="300.6,351.6 308.6,351.6 308.6,359.6 300.6,359.6" fill="rgb(255,255,255)"/>
<polygon points="308.6,351.6 316.6,351.6 316.6,359.6 308.6,359.6" fill="rgb(255,255,255)"/>
<polygon points="104.6,359.6 112.6,359.6 112.6,367.6 104.6,367.6" fill="rgb(255,255,0)"/><text xml:space="preserve" x="108.6" y="366.433" font-family="Calibri" font-size="7.5" fill="rgb(0,0,0)" text-anchor="middle">3</text>
<polygon points="112.6,359.6 120.6,359.6 120.6,367.6 112.6,367.6" fill="rgb(255,255,0)"/><text xml:space="preserve" x="116.6" y="366.433" font-family="Calibri" font-size="7.5" fill="rgb(0,0,0)" text-anchor="middle">3</text>
<polygon points="120.6,359.6 128.6,359.6 128.6,367.6 120.6,367.6" fill="rgb(230,127,0)"/><text xml:space="preserve" x="124.6" y="366.433" font-family="Calibri" font-size="7.5" fill="rgb(0,0,0)" text-anchor="middle">4</text>
<polygon points="128.6,359.6 136.6,359.6 136.6,367.6 128.6,367.6" fill="rgb(127,230,0)"/><text xml:space="preserve" x="132.6" y="366.433" font-family="Calibri" font-size="7.5" fill="rgb(0,0,0)" text-anchor="middle">2</text>
<polygon points="136.6,359.6 144.6,359.6 144.6,367.6 136.6,367.6" fill="rgb(205,0,0)"/><text xml:space="preserve" x="140.6" y="366.433" font-family="Calibri" font-size="7.5" fill="rgb(255,255,255)" text-anchor="middle">5</text>
<polygon points="144.6,359.6 152.6,359.6 152.6,367.6 144.6,367.6" fill="rgb(230,127,0)"/><text xml:space="preserve" x="148.6" y="366.433" font-family="Calibri" font-size="7.5" fill="rgb(0,0,0)" text-anchor="middle">4</text>
<polygon points="152.6,359.6 160.6,359.6 160.6,367.6 152.6,367.6" fill="rgb(230,127,0)"/><text xml:space="preserve" x="156.6" y="366.433" font-family="Calibri" font-size="7.5" fill="rgb(0,0,0)" text-anchor="middle">4</text>
<polygon points="160.6,359.6 168.6,359.6 168.6,367.6 160.6,367.6" fill="rgb(127,230,0)"/><text xml:space="preserve" x="164.6" y="366.433" font-family="Calibri" font-size="7.5" fill="rgb(0,0,0)" text-anchor="middle">2</text>
<polygon points="178.6,359.6 186.6,359.6 186.6,367.6 178.6,367.6" fill="rgb(16,89,138)"/>
<polygon points="186.6,359.6 194.6,359.6 194.6,367.6 186.6,367.6" fill="rgb(12,75,137)"/>
<polygon points="194.6,359.6 202.6,359.6 202.6,367.6 194.6,367.6" fill="rgb(27,133,141)"/>
<polygon points="202.6,359.6 210.6,359.6 210.6,367.6 202.6,367.6" fill="rgb(7,56,136)"/>
<polygon points="210.6,359.6 218.6,359.6 218.6,367.6 210.6,367.6" fill="rgb(31,148,141)"/>
<polygon points="218.6,359.6 226.6,359.6 226.6,367.6 218.6,367.6" fill="rgb(27,135,141)"/>
<polygon points="226.6,359.6 234.6,359.6 234.6,367.6 226.6,367.6" fill="rgb(26,130,140)"/>
<polygon points="234.6,359.6 242.6,359.6 242.6,367.6 234.6,367.6" fill="rgb(7,55,136)"/>
<polygon points="252.6,359.6 260.6,359.6 260.6,367.6 252.6,367.6" fill="rgb(255,255,255)"/>
<polygon points="260.6,359.6 268.6,359.6 268.6,367.6 260.6,367.6" fill="rgb(255,255,255)"/>
<polygon points="268.6,359.6 276.6,359.6 276.6,367.6 268.6,367.6" fill="rgb(255,255,255)"/>
<polygon points="276.6,359.6 284.6,359.6 284.6,367.6 276.6,367.6" fill="rgb(255,255,255)"/>
<polygon points="284.6,359.6 292.6,359.6 292.6,367.6 284.6,367.6" fill="rgb(255,255,255)"/>
<polygon points="292.6,359.6 300.6,359.6 300.6,367.6 292.6,367.6" fill="rgb(255,255,255)"/>
<polygon points="300.6,359.6 308.6,359.6 308.6,367.6 300.6,367.6" fill="rgb(255,255,255)"/>
<polygon points="308.6,359.6 316.6,359.6 316.6,367.6 308.6,367.6" fill="rgb(255,255,255)"/>
<polygon points="104.6,367.6 112.6,367.6 112.6,375.6 104.6,375.6" fill="rgb(255,255,0)"/><text xml:space="preserve" x="108.6" y="374.433" font-family="Calibri" font-size="7.5" fill="rgb(0,0,0)" text-anchor="middle">3</text>
<polygon points="112.6,367.6 120.6,367.6 120.6,375.6 112.6,375.6" fill="rgb(255,255,0)"/><text xml:space="preserve" x="116.6" y="374.433" font-family="Calibri" font-size="7.5" fill="rgb(0,0,0)" text-anchor="middle">3</text>
<polygon points="120.6,367.6 128.6,367.6 128.6,375.6 120.6,375.6" fill="rgb(230,127,0)"/><text xml:space="preserve" x="124.6" y="374.433" font-family="Calibri" font-size="7.5" fill="rgb(0,0,0)" text-anchor="middle">4</text>
<polygon points="128.6,367.6 136.6,367.6 136.6,375.6 128.6,375.6" fill="rgb(127,230,0)"/><text xml:space="preserve" x="132.6" y="374.433" font-family="Calibri" font-size="7.5" fill="rgb(0,0,0)" text-anchor="middle">2</text>
<polygon points="136.6,367.6 144.6,367.6 144.6,375.6 136.6,375.6" fill="rgb(205,0,0)"/><text xml:space="preserve" x="140.6" y="374.433" font-family="Calibri" font-size="7.5" fill="rgb(255,255,255)" text-anchor="middle">5</text>
<polygon points="144.6,367.6 152.6,367.6 152.6,375.6 144.6,375.6" fill="rgb(230,127,0)"/><text xml:space="preserve" x="148.6" y="374.433" font-family="Calibri" font-size="7.5" fill="rgb(0,0,0)" text-anchor="middle">4</text>
<polygon points="152.6,367.6 160.6,367.6 160.6,375.6 152.6,375.6" fill="rgb(230,127,0)"/><text xml:space="preserve" x="156.6" y="374.433" font-family="Calibri" font-size="7.5" fill="rgb(0,0,0)" text-anchor="middle">4</text>
<polygon points="160.6,367.6 168.6,367.6 168.6,375.6 160.6,375.6" fill="rgb(127,230,0)"/><text xml:space="preserve" x="164.6" y="374.433" font-family="Calibri" font-size="7.5" fill="rgb(0,0,0)" text-anchor="middle">2</text>
<polygon points="178.6,367.6 186.6,367.6 186.6,375.6 178.6,375.6" fill="rgb(14,84,138)"/>
<polygon points="186.6,367.6 194.6,367.6 194.6,375.6 186.6,375.6" fill="rgb(10,67,137)"/>
<polygon points="194.6,367.6 202.6,367.6 202.6,375.6 194.6,375.6" fill="rgb(24,121,140)"/>
<polygon points="202.6,367.6 210.6,367.6 210.6,375.6 202.6,375.6" fill="rgb(6,52,136)"/>
<polygon points="210.6,367.6 218.6,367.6 218.6,375.6 210.6,375.6" fill="rgb(27,133,141)"/>
<polygon points="218.6,367.6 226.6,367.6 226.6,375.6 218.6,375.6" fill="rgb(24,121,140)"/>
<polygon points="226.6,367.6 234.6,367.6 234.6,375.6 226.6,375.6" fill="rgb(23,120,140)"/>
<polygon points="234.6,367.6 242.6,367.6 242.6,375.6 234.6,375.6" fill="rgb(6,53,136)"/>
<polygon points="252.6,367.6 260.6,367.6 260.6,375.6 252.6,375.6" fill="rgb(255,255,255)"/>
<polygon points="260.6,367.6 268.6,367.6 268.6,375.6 260.6,375.6" fill="rgb(255,255,255)"/>
<polygon points="268.6,367.6 276.6,367.6 276.6,375.6 268.6,375.6" fill="rgb(255,255,255)"/>
<polygon points="276.6,367.6 284.6,367.6 284.6,375.6 276.6,375.6" fill="rgb(255,255,255)"/>
<polygon points="284.6,367.6 292.6,367.6 292.6,375.6 284.6,375.6" fill="rgb(255,255,255)"/>
<polygon points="292.6,367.6 300.6,367.6 300.6,375.6 292.6,375.6" fill="rgb(255,255,255)"/>
<polygon points="300.6,367.6 308.6,367.6 308.6,375.6 300.6,375.6" fill="rgb(255,255,255)"/>
<polygon points="308.6,367.6 316.6,367.6 316.6,375.6 308.6,375.6" fill="rgb(255,255,255)"/>
<polygon points="104.6,375.6 112.6,375.6 112.6,383.6 104.6,383.6" fill="rgb(255,255,0)"/><text xml:space="preserve" x="108.6" y="382.433" font-family="Calibri" font-size="7.5" fill="rgb(0,0,0)" text-anchor="middle">3</text>
<polygon points="112.6,375.6 120.6,375.6 120.6,383.6 112.6,383.6" fill="rgb(255,255,0)"/><text xml:space="preserve" x="116.6" y="382.433" font-family="Calibri" font-size="7.5" fill="rgb(0,0,0)" text-anchor="middle">3</text>
<polygon points="120.6,375.6 128.6,375.6 128.6,383.6 120.6,383.6" fill="rgb(230,127,0)"/><text xml:space="preserve" x="124.6" y="382.433" font-family="Calibri" font-size="7.5" fill="rgb(0,0,0)" text-anchor="middle">4</text>
<polygon points="128.6,375.6 136.6,375.6 136.6,383.6 128.6,383.6" fill="rgb(127,230,0)"/><text xml:space="preserve" x="132.6" y="382.433" font-family="Calibri" font-size="7.5" fill="rgb(0,0,0)" text-anchor="middle">2</text>
<polygon points="136.6,375.6 144.6,375.6 144.6,383.6 136.6,383.6" fill="rgb(205,0,0)"/><text xml:space="preserve" x="140.6" y="382.433" font-family="Calibri" font-size="7.5" fill="rgb(255,255,255)" text-anchor="middle">5</text>
<polygon points="144.6,375.6 152.6,375.6 152.6,383.6 144.6,383.6" fill="rgb(230,127,0)"/><text xml:space="preserve" x="148.6" y="382.433" font-family="Calibri" font-size="7.5" fill="rgb(0,0,0)" text-anchor="middle">4</text>
<polygon points="152.6,375.6 160.6,375.6 160.6,383.6 152.6,383.6" fill="rgb(230,127,0)"/><text xml:space="preserve" x="156.6" y="382.433" font-family="Calibri" font-size="7.5" fill="rgb(0,0,0)" text-anchor="middle">4</text>
<polygon points="160.6,375.6 168.6,375.6 168.6,383.6 160.6,383.6" fill="rgb(127,230,0)"/><text xml:space="preserve" x="164.6" y="382.433" font-family="Calibri" font-size="7.5" fill="rgb(0,0,0)" text-anchor="middle">2</text>
<polygon points="178.6,375.6 186.6,375.6 186.6,383.6 178.6,383.6" fill="rgb(18,98,139)"/>
<polygon points="186.6,375.6 194.6,375.6 194.6,383.6 186.6,383.6" fill="rgb(12,76,137)"/>
<polygon points="194.6,375.6 202.6,375.6 202.6,383.6 194.6,383.6" fill="rgb(27,135,141)"/>
<polygon points="202.6,375.6 210.6,375.6 210.6,383.6 202.6,383.6" fill="rgb(7,56,136)"/>
<polygon points="210.6,375.6 218.6,375.6 218.6,383.6 210.6,383.6" fill="rgb(30,144,141)"/>
<polygon points="218.6,375.6 226.6,375.6 226.6,383.6 218.6,383.6" fill="rgb(25,128,140)"/>
<polygon points="226.6,375.6 234.6,375.6 234.6,383.6 226.6,383.6" fill="rgb(26,129,140)"/>
<polygon points="234.6,375.6 242.6,375.6 242.6,383.6 234.6,383.6" fill="rgb(7,55,136)"/>
<polygon points="252.6,375.6 260.6,375.6 260.6,383.6 252.6,383.6" fill="rgb(255,255,255)"/>
<polygon points="260.6,375.6 268.6,375.6 268.6,383.6 260.6,383.6" fill="rgb(255,255,255)"/>
<polygon points="268.6,375.6 276.6,375.6 276.6,383.6 268.6,383.6" fill="rgb(255,255,255)"/>
<polygon points="276.6,375.6 284.6,375.6 284.6,383.6 276.6,383.6" fill="rgb(255,255,255)"/>
<polygon points="284.6,375.6 292.6,375.6 292.6,383.6 284.6,383.6" fill="rgb(255,255,255)"/>
<polygon points="292.6,375.6 300.6,375.6 300.6,383.6 292.6,383.6" fill="rgb(255,255,255)"/>
<polygon points="300.6,375.6 308.6,375.6 308.6,383.6 300.6,383.6" fill="rgb(255,255,255)"/>
<polygon points="308.6,375.6 316.6,375.6 316.6,383.6 308.6,383.6" fill="rgb(255,255,255)"/>
<polygon points="104.6,383.6 112.6,383.6 112.6,391.6 104.6,391.6" fill="rgb(255,255,0)"/><text xml:space="preserve" x="108.6" y="390.433" font-family="Calibri" font-size="7.5" fill="rgb(0,0,0)" text-anchor="middle">3</text>
<polygon points="112.6,383.6 120.6,383.6 120.6,391.6 112.6,391.6" fill="rgb(255,255,0)"/><text xml:space="preserve" x="116.6" y="390.433" font-family="Calibri" font-size="7.5" fill="rgb(0,0,0)" text-anchor="middle">3</text>
<polygon points="120.6,383.6 128.6,383.6 128.6,391.6 120.6,391.6" fill="rgb(230,127,0)"/><text xml:space="preserve" x="124.6" y="390.433" font-family="Calibri" font-size="7.5" fill="rgb(0,0,0)" text-anchor="middle">4</text>
<polygon points="128.6,383.6 136.6,383.6 136.6,391.6 128.6,391.6" fill="rgb(127,230,0)"/><text xml:space="preserve" x="132.6" y="390.433" font-family="Calibri" font-size="7.5" fill="rgb(0,0,0)" text-anchor="middle">2</text>
<polygon points="136.6,383.6 144.6,383.6 144.6,391.6 136.6,391.6" fill="rgb(205,0,0)"/><text xml:space="preserve" x="140.6" y="390.433" font-family="Calibri" font-size="7.5" fill="rgb(255,255,255)" text-anchor="middle">5</text>
<polygon points="144.6,383.6 152.6,383.6 152.6,391.6 144.6,391.6" fill="rgb(230,127,0)"/><text xml:space="preserve" x="148.6" y="390.433" font-family="Calibri" font-size="7.5" fill="rgb(0,0,0)" text-anchor="middle">4</text>
<polygon points="152.6,383.6 160.6,383.6 160.6,391.6 152.6,391.6" fill="rgb(230,127,0)"/><text xml:space="preserve" x="156.6" y="390.433" font-family="Calibri" font-size="7.5" fill="rgb(0,0,0)" text-anchor="middle">4</text>
<polygon points="160.6,383.6 168.6,383.6 168.6,391.6 160.6,391.6" fill="rgb(127,230,0)"/><text xml:space="preserve" x="164.6" y="390.433" font-family="Calibri" font-size="7.5" fill="rgb(0,0,0)" text-anchor="middle">2</text>
<polygon points="178.6,383.6 186.6,383.6 186.6,391.6 178.6,391.6" fill="rgb(15,87,138)"/>
<polygon points="186.6,383.6 194.6,383.6 194.6,391.6 186.6,391.6" fill="rgb(11,70,137)"/>
<polygon points="194.6,383.6 202.6,383.6 202.6,391.6 194.6,391.6" fill="rgb(24,124,140)"/>
<polygon points="202.6,383.6 210.6,383.6 210.6,391.6 202.6,391.6" fill="rgb(7,55,136)"/>
<polygon points="210.6,383.6 218.6,383.6 218.6,391.6 210.6,391.6" fill="rgb(28,139,141)"/>
<polygon points="218.6,383.6 226.6,383.6 226.6,391.6 218.6,391.6" fill="rgb(26,131,141)"/>
<polygon points="226.6,383.6 234.6,383.6 234.6,391.6 226.6,391.6" fill="rgb(24,123,140)"/>
<polygon points="234.6,383.6 242.6,383.6 242.6,391.6 234.6,391.6" fill="rgb(6,53,136)"/>
<polygon points="252.6,383.6 260.6,383.6 260.6,391.6 252.6,391.6" fill="rgb(255,255,255)"/>
<polygon points="260.6,383.6 268.6,383.6 268.6,391.6 260.6,391.6" fill="rgb(255,255,255)"/>
<polygon points="268.6,383.6 276.6,383.6 276.6,391.6 268.6,391.6" fill="rgb(255,255,255)"/>
<polygon points="276.6,383.6 284.6,383.6 284.6,391.6 276.6,391.6" fill="rgb(255,255,255)"/>
<polygon points="284.6,383.6 292.6,383.6 292.6,391.6 284.6,391.6" fill="rgb(255,255,255)"/>
<polygon points="292.6,383.6 300.6,383.6 300.6,391.6 292.6,391.6" fill="rgb(255,255,255)"/>
<polygon points="300.6,383.6 308.6,383.6 308.6,391.6 300.6,391.6" fill="rgb(255,255,255)"/>
<polygon points="308.6,383.6 316.6,383.6 316.6,391.6 308.6,391.6" fill="rgb(255,255,255)"/>
<polygon points="104.6,391.6 112.6,391.6 112.6,399.6 104.6,399.6" fill="rgb(255,255,0)"/><text xml:space="preserve" x="108.6" y="398.433" font-family="Calibri" font-size="7.5" fill="rgb(0,0,0)" text-anchor="middle">3</text>
<polygon points="112.6,391.6 120.6,391.6 120.6,399.6 112.6,399.6" fill="rgb(255,255,0)"/><text xml:space="preserve" x="116.6" y="398.433" font-family="Calibri" font-size="7.5" fill="rgb(0,0,0)" text-anchor="middle">3</text>
<polygon points="120.6,391.6 128.6,391.6 128.6,399.6 120.6,399.6" fill="rgb(230,127,0)"/><text xml:space="preserve" x="124.6" y="398.433" font-family="Calibri" font-size="7.5" fill="rgb(0,0,0)" text-anchor="middle">4</text>
<polygon points="128.6,391.6 136.6,391.6 136.6,399.6 128.6,399.6" fill="rgb(127,230,0)"/><text xml:space="preserve" x="132.6" y="398.433" font-family="Calibri" font-size="7.5" fill="rgb(0,0,0)" text-anchor="middle">2</text>
<polygon points="136.6,391.6 144.6,391.6 144.6,399.6 136.6,399.6" fill="rgb(205,0,0)"/><text xml:space="preserve" x="140.6" y="398.433" font-family="Calibri" font-size="7.5" fill="rgb(255,255,255)" text-anchor="middle">5</text>
<polygon points="144.6,391.6 152.6,391.6 152.6,399.6 144.6,399.6" fill="rgb(230,127,0)"/><text xml:space="preserve" x="148.6" y="398.433" font-family="Calibri" font-size="7.5" fill="rgb(0,0,0)" text-anchor="middle">4</text>
<polygon points="152.6,391.6 160.6,391.6 160.6,399.6 152.6,399.6" fill="rgb(230,127,0)"/><text xml:space="preserve" x="156.6" y="398.433" font-family="Calibri" font-size="7.5" fill="rgb(0,0,0)" text-anchor="middle">4</text>
<polygon points="160.6,391.6 168.6,391.6 168.6,399.6 160.6,399.6" fill="rgb(127,230,0)"/><text xml:space="preserve" x="164.6" y="398.433" font-family="Calibri" font-size="7.5" fill="rgb(0,0,0)" text-anchor="middle">2</text>
<polygon points="178.6,391.6 186.6,391.6 186.6,399.6 178.6,399.6" fill="rgb(16,89,138)"/>
<polygon points="186.6,391.6 194.6,391.6 194.6,399.6 186.6,399.6" fill="rgb(10,67,137)"/>
<polygon points="194.6,391.6 202.6,391.6 202.6,399.6 194.6,399.6" fill="rgb(18,101,139)"/>
<polygon points="202.6,391.6 210.6,391.6 210.6,399.6 202.6,399.6" fill="rgb(7,57,136)"/>
<polygon points="210.6,391.6 218.6,391.6 218.6,399.6 210.6,399.6" fill="rgb(31,149,142)"/>
<polygon points="218.6,391.6 226.6,391.6 226.6,399.6 218.6,399.6" fill="rgb(28,137,141)"/>
<polygon points="226.6,391.6 234.6,391.6 234.6,399.6 226.6,399.6" fill="rgb(26,131,141)"/>
<polygon points="234.6,391.6 242.6,391.6 242.6,399.6 234.6,399.6" fill="rgb(7,56,136)"/>
<polygon points="252.6,391.6 260.6,391.6 260.6,399.6 252.6,399.6" fill="rgb(255,255,255)"/>
<polygon points="260.6,391.6 268.6,391.6 268.6,399.6 260.6,399.6" fill="rgb(255,255,255)"/>
<polygon points="268.6,391.6 276.6,391.6 276.6,399.6 268.6,399.6" fill="rgb(255,255,255)"/>
<polygon points="276.6,391.6 284.6,391.6 284.6,399.6 276.6,399.6" fill="rgb(255,255,255)"/>
<polygon points="284.6,391.6 292.6,391.6 292.6,399.6 284.6,399.6" fill="rgb(255,255,255)"/>
<polygon points="292.6,391.6 300.6,391.6 300.6,399.6 292.6,399.6" fill="rgb(255,255,255)"/>
<polygon points="300.6,391.6 308.6,391.6 308.6,399.6 300.6,399.6" fill="rgb(255,255,255)"/>
<polygon points="308.6,391.6 316.6,391.6 316.6,399.6 308.6,399.6" fill="rgb(255,255,255)"/>
<polygon points="104.6,399.6 112.6,399.6 112.6,407.6 104.6,407.6" fill="rgb(255,255,0)"/><text xml:space="preserve" x="108.6" y="406.433" font-family="Calibri" font-size="7.5" fill="rgb(0,0,0)" text-anchor="middle">3</text>
<polygon points="112.6,399.6 120.6,399.6 120.6,407.6 112.6,407.6" fill="rgb(255,255,0)"/><text xml:space="preserve" x="116.6" y="406.433" font-family="Calibri" font-size="7.5" fill="rgb(0,0,0)" text-anchor="middle">3</text>
<polygon points="120.6,399.6 128.6,399.6 128.6,407.6 120.6,407.6" fill="rgb(230,127,0)"/><text xml:space="preserve" x="124.6" y="406.433" font-family="Calibri" font-size="7.5" fill="rgb(0,0,0)" text-anchor="middle">4</text>
<polygon points="128.6,399.6 136.6,399.6 136.6,407.6 128.6,407.6" fill="rgb(127,230,0)"/><text xml:space="preserve" x="132.6" y="406.433" font-family="Calibri" font-size="7.5" fill="rgb(0,0,0)" text-anchor="middle">2</text>
<polygon points="136.6,399.6 144.6,399.6 144.6,407.6 136.6,407.6" fill="rgb(205,0,0)"/><text xml:space="preserve" x="140.6" y="406.433" font-family="Calibri" font-size="7.5" fill="rgb(255,255,255)" text-anchor="middle">5</text>
<polygon points="144.6,399.6 152.6,399.6 152.6,407.6 144.6,407.6" fill="rgb(230,127,0)"/><text xml:space="preserve" x="148.6" y="406.433" font-family="Calibri" font-size="7.5" fill="rgb(0,0,0)" text-anchor="middle">4</text>
<polygon points="152.6,399.6 160.6,399.6 160.6,407.6 152.6,407.6" fill="rgb(230,127,0)"/><text xml:space="preserve" x="156.6" y="406.433" font-family="Calibri" font-size="7.5" fill="rgb(0,0,0)" text-anchor="middle">4</text>
<polygon points="160.6,399.6 168.6,399.6 168.6,407.6 160.6,407.6" fill="rgb(127,230,0)"/><text xml:space="preserve" x="164.6" y="406.433" font-family="Calibri" font-size="7.5" fill="rgb(0,0,0)" text-anchor="middle">2</text>
<polygon points="178.6,399.6 186.6,399.6 186.6,407.6 178.6,407.6" fill="rgb(14,82,138)"/>
<polygon points="186.6,399.6 194.6,399.6 194.6,407.6 186.6,407.6" fill="rgb(10,67,137)"/>
<polygon points="194.6,399.6 202.6,399.6 202.6,407.6 194.6,407.6" fill="rgb(16,93,138)"/>
<polygon points="202.6,399.6 210.6,399.6 210.6,407.6 202.6,407.6" fill="rgb(8,59,136)"/>
<polygon points="210.6,399.6 218.6,399.6 218.6,407.6 210.6,407.6" fill="rgb(33,157,142)"/>
<polygon points="218.6,399.6 226.6,399.6 226.6,407.6 218.6,407.6" fill="rgb(31,148,141)"/>
<polygon points="226.6,399.6 234.6,399.6 234.6,407.6 226.6,407.6" fill="rgb(28,137,141)"/>
<polygon points="234.6,399.6 242.6,399.6 242.6,407.6 234.6,407.6" fill="rgb(7,56,136)"/>
<polygon points="252.6,399.6 260.6,399.6 260.6,407.6 252.6,407.6" fill="rgb(255,255,255)"/>
<polygon points="260.6,399.6 268.6,399.6 268.6,407.6 260.6,407.6" fill="rgb(255,255,255)"/>
<polygon points="268.6,399.6 276.6,399.6 276.6,407.6 268.6,407.6" fill="rgb(255,255,255)"/>
<polygon points="276.6,399.6 284.6,399.6 284.6,407.6 276.6,407.6" fill="rgb(255,255,255)"/>
<polygon points="284.6,399.6 292.6,399.6 292.6,407.6 284.6,407.6" fill="rgb(255,255,255)"/>
<polygon points="292.6,399.6 300.6,399.6 300.6,407.6 292.6,407.6" fill="rgb(255,255,255)"/>
<polygon points="300.6,399.6 308.6,399.6 308.6,407.6 300.6,407.6" fill="rgb(255,255,255)"/>
<polygon points="308.6,399.6 316.6,399.6 316.6,407.6 308.6,407.6" fill="rgb(255,255,255)"/>
<polygon points="104.6,407.6 112.6,407.6 112.6,415.6 104.6,415.6" fill="rgb(255,255,0)"/><text xml:space="preserve" x="108.6" y="414.433" font-family="Calibri" font-size="7.5" fill="rgb(0,0,0)" text-anchor="middle">3</text>
<polygon points="112.6,407.6 120.6,407.6 120.6,415.6 112.6,415.6" fill="rgb(255,255,0)"/><text xml:space="preserve" x="116.6" y="414.433" font-family="Calibri" font-size="7.5" fill="rgb(0,0,0)" text-anchor="middle">3</text>
<polygon points="120.6,407.6 128.6,407.6 128.6,415.6 120.6,415.6" fill="rgb(230,127,0)"/><text xml:space="preserve" x="124.6" y="414.433" font-family="Calibri" font-size="7.5" fill="rgb(0,0,0)" text-anchor="middle">4</text>
<polygon points="128.6,407.6 136.6,407.6 136.6,415.6 128.6,415.6" fill="rgb(127,230,0)"/><text xml:space="preserve" x="132.6" y="414.433" font-family="Calibri" font-size="7.5" fill="rgb(0,0,0)" text-anchor="middle">2</text>
<polygon points="136.6,407.6 144.6,407.6 144.6,415.6 136.6,415.6" fill="rgb(205,0,0)"/><text xml:space="preserve" x="140.6" y="414.433" font-family="Calibri" font-size="7.5" fill="rgb(255,255,255)" text-anchor="middle">5</text>
<polygon points="144.6,407.6 152.6,407.6 152.6,415.6 144.6,415.6" fill="rgb(230,127,0)"/><text xml:space="preserve" x="148.6" y="414.433" font-family="Calibri" font-size="7.5" fill="rgb(0,0,0)" text-anchor="middle">4</text>
<polygon points="152.6,407.6 160.6,407.6 160.6,415.6 152.6,415.6" fill="rgb(230,127,0)"/><text xml:space="preserve" x="156.6" y="414.433" font-family="Calibri" font-size="7.5" fill="rgb(0,0,0)" text-anchor="middle">4</text>
<polygon points="160.6,407.6 168.6,407.6 168.6,415.6 160.6,415.6" fill="rgb(127,230,0)"/><text xml:space="preserve" x="164.6" y="414.433" font-family="Calibri" font-size="7.5" fill="rgb(0,0,0)" text-anchor="middle">2</text>
<polygon points="178.6,407.6 186.6,407.6 186.6,415.6 178.6,415.6" fill="rgb(16,91,138)"/>
<polygon points="186.6,407.6 194.6,407.6 194.6,415.6 186.6,415.6" fill="rgb(11,70,137)"/>
<polygon points="194.6,407.6 202.6,407.6 202.6,415.6 194.6,415.6" fill="rgb(25,125,140)"/>
<polygon points="202.6,407.6 210.6,407.6 210.6,415.6 202.6,415.6" fill="rgb(6,53,136)"/>
<polygon points="210.6,407.6 218.6,407.6 218.6,415.6 210.6,415.6" fill="rgb(30,144,141)"/>
<polygon points="218.6,407.6 226.6,407.6 226.6,415.6 218.6,415.6" fill="rgb(26,130,140)"/>
<polygon points="226.6,407.6 234.6,407.6 234.6,415.6 226.6,415.6" fill="rgb(26,130,140)"/>
<polygon points="234.6,407.6 242.6,407.6 242.6,415.6 234.6,415.6" fill="rgb(7,55,136)"/>
<polygon points="252.6,407.6 260.6,407.6 260.6,415.6 252.6,415.6" fill="rgb(205,0,205)"/>
<polygon points="260.6,407.6 268.6,407.6 268.6,415.6 260.6,415.6" fill="rgb(255,255,255)"/>
<polygon points="268.6,407.6 276.6,407.6 276.6,415.6 268.6,415.6" fill="rgb(255,255,255)"/>
<polygon points="276.6,407.6 284.6,407.6 284.6,415.6 276.6,415.6" fill="rgb(255,255,255)"/>
<polygon points="284.6,407.6 292.6,407.6 292.6,415.6 284.6,415.6" fill="rgb(255,255,255)"/>
<polygon points="292.6,407.6 300.6,407.6 300.6,415.6 292.6,415.6" fill="rgb(255,255,255)"/>
<polygon points="300.6,407.6 308.6,407.6 308.6,415.6 300.6,415.6" fill="rgb(255,255,255)"/>
<polygon points="308.6,407.6 316.6,407.6 316.6,415.6 308.6,415.6" fill="rgb(255,255,255)"/>
<polygon points="104.6,415.6 112.6,415.6 112.6,423.6 104.6,423.6" fill="rgb(255,255,0)"/><text xml:space="preserve" x="108.6" y="422.433" font-family="Calibri" font-size="7.5" fill="rgb(0,0,0)" text-anchor="middle">3</text>
<polygon points="112.6,415.6 120.6,415.6 120.6,423.6 112.6,423.6" fill="rgb(255,255,0)"/><text xml:space="preserve" x="116.6" y="422.433" font-family="Calibri" font-size="7.5" fill="rgb(0,0,0)" text-anchor="middle">3</text>
<polygon points="120.6,415.6 128.6,415.6 128.6,423.6 120.6,423.6" fill="rgb(230,127,0)"/><text xml:space="preserve" x="124.6" y="422.433" font-family="Calibri" font-size="7.5" fill="rgb(0,0,0)" text-anchor="middle">4</text>
<polygon points="128.6,415.6 136.6,415.6 136.6,423.6 128.6,423.6" fill="rgb(127,230,0)"/><text xml:space="preserve" x="132.6" y="422.433" font-family="Calibri" font-size="7.5" fill="rgb(0,0,0)" text-anchor="middle">2</text>
<polygon points="136.6,415.6 144.6,415.6 144.6,423.6 136.6,423.6" fill="rgb(205,0,0)"/><text xml:space="preserve" x="140.6" y="422.433" font-family="Calibri" font-size="7.5" fill="rgb(255,255,255)" text-anchor="middle">5</text>
<polygon points="144.6,415.6 152.6,415.6 152.6,423.6 144.6,423.6" fill="rgb(230,127,0)"/><text xml:space="preserve" x="148.6" y="422.433" font-family="Calibri" font-size="7.5" fill="rgb(0,0,0)" text-anchor="middle">4</text>
<polygon points="152.6,415.6 160.6,415.6 160.6,423.6 152.6,423.6" fill="rgb(230,127,0)"/><text xml:space="preserve" x="156.6" y="422.433" font-family="Calibri" font-size="7.5" fill="rgb(0,0,0)" text-anchor="middle">4</text>
<polygon points="160.6,415.6 168.6,415.6 168.6,423.6 160.6,423.6" fill="rgb(127,230,0)"/><text xml:space="preserve" x="164.6" y="422.433" font-family="Calibri" font-size="7.5" fill="rgb(0,0,0)" text-anchor="middle">2</text>
<polygon points="178.6,415.6 186.6,415.6 186.6,423.6 178.6,423.6" fill="rgb(14,84,138)"/>
<polygon points="186.6,415.6 194.6,415.6 194.6,423.6 186.6,423.6" fill="rgb(10,69,137)"/>
<polygon points="194.6,415.6 202.6,415.6 202.6,423.6 194.6,423.6" fill="rgb(23,120,140)"/>
<polygon points="202.6,415.6 210.6,415.6 210.6,423.6 202.6,423.6" fill="rgb(6,53,136)"/>
<polygon points="210.6,415.6 218.6,415.6 218.6,423.6 210.6,423.6" fill="rgb(28,139,141)"/>
<polygon points="218.6,415.6 226.6,415.6 226.6,423.6 218.6,423.6" fill="rgb(28,137,141)"/>
<polygon points="226.6,415.6 234.6,415.6 234.6,423.6 226.6,423.6" fill="rgb(26,129,140)"/>
<polygon points="234.6,415.6 242.6,415.6 242.6,423.6 234.6,423.6" fill="rgb(7,55,136)"/>
<polygon points="252.6,415.6 260.6,415.6 260.6,423.6 252.6,423.6" fill="rgb(255,255,255)"/>
<polygon points="260.6,415.6 268.6,415.6 268.6,423.6 260.6,423.6" fill="rgb(255,255,255)"/>
<polygon points="268.6,415.6 276.6,415.6 276.6,423.6 268.6,423.6" fill="rgb(255,255,255)"/>
<polygon points="276.6,415.6 284.6,415.6 284.6,423.6 276.6,423.6" fill="rgb(255,255,255)"/>
<polygon points="284.6,415.6 292.6,415.6 292.6,423.6 284.6,423.6" fill="rgb(255,255,255)"/>
<polygon points="292.6,415.6 300.6,415.6 300.6,423.6 292.6,423.6" fill="rgb(255,255,255)"/>
<polygon points="300.6,415.6 308.6,415.6 308.6,423.6 300.6,423.6" fill="rgb(255,255,255)"/>
<polygon points="308.6,415.6 316.6,415.6 316.6,423.6 308.6,423.6" fill="rgb(255,255,255)"/>
<polygon points="104.6,335.6 168.6,335.6 168.6,423.6 104.6,423.6" fill="none" stroke="black" stroke-width="1"/>
<polygon points="178.6,335.6 242.6,335.6 242.6,423.6 178.6,423.6" fill="none" stroke="black" stroke-width="1"/>
<polygon points="252.6,335.6 316.6,335.6 316.6,423.6 252.6,423.6" fill="none" stroke="black" stroke-width="1"/>
<text xml:space="preserve" x="168.3" y="456.6" font-family="Calibri" font-size="8" text-anchor="middle">ClusterAssignment</text>
<polygon points="118.3,463.6 138.3,463.6 138.3,483.6 118.3,483.6" fill="rgb(0,205,0)"/><polygon points="118.3,463.6 138.3,463.6 138.3,483.6 118.3,483.6" fill="none" stroke="black" stroke-width="1"/><text xml:space="preserve" x="128.3" y="476.433" font-family="Calibri" font-size="7.5" fill="rgb(255,255,255)" text-anchor="middle">1.0</text>
<polygon points="138.3,463.6 158.3,463.6 158.3,483.6 138.3,483.6" fill="rgb(127,230,0)"/><polygon points="138.3,463.6 158.3,463.6 158.3,483.6 138.3,483.6" fill="none" stroke="black" stroke-width="1"/><text xml:space="preserve" x="148.3" y="476.433" font-family="Calibri" font-size="7.5" fill="rgb(0,0,0)" text-anchor="middle">2.0</text>
<polygon points="158.3,463.6 178.3,463.6 178.3,483.6 158.3,483.6" fill="rgb(255,255,0)"/><polygon points="158.3,463.6 178.3,463.6 178.3,483.6 158.3,483.6" fill="none" stroke="black" stroke-width="1"/><text xml:space="preserve" x="168.3" y="476.433" font-family="Calibri" font-size="7.5" fill="rgb(0,0,0)" text-anchor="middle">3.0</text>
<polygon points="178.3,463.6 198.3,463.6 198.3,483.6 178.3,483.6" fill="rgb(230,127,0)"/><polygon points="178.3,463.6 198.3,463.6 198.3,483.6 178.3,483.6" fill="none" stroke="black" stroke-width="1"/><text xml:space="preserve" x="188.3" y="476.433" font-family="Calibri" font-size="7.5" fill="rgb(0,0,0)" text-anchor="middle">4.0</text>
<polygon points="198.3,463.6 218.3,463.6 218.3,483.6 198.3,483.6" fill="rgb(205,0,0)"/><polygon points="198.3,463.6 218.3,463.6 218.3,483.6 198.3,483.6" fill="none" stroke="black" stroke-width="1"/><text xml:space="preserve" x="208.3" y="476.433" font-family="Calibri" font-size="7.5" fill="rgb(255,255,255)" text-anchor="middle">5.0</text>
<text xml:space="preserve" x="168.3" y="516.6" font-family="Calibri" font-size="8" text-anchor="middle">Expression</text>
<polygon points="118.3,523.6 138.3,523.6 138.3,543.6 118.3,543.6" fill="rgb(0,27,135)"/><polygon points="118.3,523.6 138.3,523.6 138.3,543.6 118.3,543.6" fill="none" stroke="black" stroke-width="1"/><text xml:space="preserve" x="128.3" y="536.433" font-family="Calibri" font-size="7.5" fill="rgb(255,255,255)" text-anchor="middle">0.0</text>
<polygon points="138.3,523.6 158.3,523.6 158.3,543.6 138.3,543.6" fill="rgb(24,123,140)"/><polygon points="138.3,523.6 158.3,523.6 158.3,543.6 138.3,543.6" fill="none" stroke="black" stroke-width="1"/><text xml:space="preserve" x="148.3" y="536.433" font-family="Calibri" font-size="7.5" fill="rgb(255,255,255)" text-anchor="middle">0.8</text>
<polygon points="158.3,523.6 178.3,523.6 178.3,543.6 158.3,543.6" fill="rgb(49,219,146)"/><polygon points="158.3,523.6 178.3,523.6 178.3,543.6 158.3,543.6" fill="none" stroke="black" stroke-width="1"/><text xml:space="preserve" x="168.3" y="536.433" font-family="Calibri" font-size="7.5" fill="rgb(0,0,0)" text-anchor="middle">1.5</text>
<polygon points="178.3,523.6 198.3,523.6 198.3,543.6 178.3,543.6" fill="rgb(150,206,73)"/><polygon points="178.3,523.6 198.3,523.6 198.3,543.6 178.3,543.6" fill="none" stroke="black" stroke-width="1"/><text xml:space="preserve" x="188.3" y="536.433" font-family="Calibri" font-size="7.5" fill="rgb(0,0,0)" text-anchor="middle">2.2</text>
<polygon points="198.3,523.6 218.3,523.6 218.3,543.6 198.3,543.6" fill="rgb(252,194,1)"/><polygon points="198.3,523.6 218.3,523.6 218.3,543.6 198.3,543.6" fill="none" stroke="black" stroke-width="1"/><text xml:space="preserve" x="208.3" y="536.433" font-family="Calibri" font-size="7.5" fill="rgb(0,0,0)" text-anchor="middle">3.0</text>
<text xml:space="preserve" x="168.3" y="576.6" font-family="Calibri" font-size="8" text-anchor="middle">PANTHERclass</text>
<polygon points="118.3,583.6 138.3,583.6 138.3,603.6 118.3,603.6" fill="rgb(255,255,255)"/><polygon points="118.3,583.6 138.3,583.6 138.3,603.6 118.3,603.6" fill="none" stroke="black" stroke-width="1"/><text xml:space="preserve" x="128.3" y="596.433" font-family="Calibri" font-size="7.5" fill="rgb(0,0,0)" text-anchor="middle">0.0</text>
<polygon points="138.3,583.6 158.3,583.6 158.3,603.6 138.3,603.6" fill="rgb(242,191,242)"/><polygon points="138.3,583.6 158.3,583.6 158.3,603.6 138.3,603.6" fill="none" stroke="black" stroke-width="1"/><text xml:space="preserve" x="148.3" y="596.433" font-family="Calibri" font-size="7.5" fill="rgb(0,0,0)" text-anchor="middle">0.2</text>
<polygon points="158.3,583.6 178.3,583.6 178.3,603.6 158.3,603.6" fill="rgb(230,127,230)"/><polygon points="158.3,583.6 178.3,583.6 178.3,603.6 158.3,603.6" fill="none" stroke="black" stroke-width="1"/><text xml:space="preserve" x="168.3" y="596.433" font-family="Calibri" font-size="7.5" fill="rgb(0,0,0)" text-anchor="middle">0.5</text>
<polygon points="178.3,583.6 198.3,583.6 198.3,603.6 178.3,603.6" fill="rgb(217,63,217)"/><polygon points="178.3,583.6 198.3,583.6 198.3,603.6 178.3,603.6" fill="none" stroke="black" stroke-width="1"/><text xml:space="preserve" x="188.3" y="596.433" font-family="Calibri" font-size="7.5" fill="rgb(255,255,255)" text-anchor="middle">0.8</text>
<polygon points="198.3,583.6 218.3,583.6 218.3,603.6 198.3,603.6" fill="rgb(205,0,205)"/><polygon points="198.3,583.6 218.3,583.6 218.3,603.6 198.3,603.6" fill="none" stroke="black" stroke-width="1"/><text xml:space="preserve" x="208.3" y="596.433" font-family="Calibri" font-size="7.5" fill="rgb(255,255,255)" text-anchor="middle">1.0</text>
</svg>
