<?xml version="1.0" standalone="no"?><!DOCTYPE svg PUBLIC "-//W3C//DTD SVG 1.1//EN" "http://www.w3.org/Graphics/SVG/1.1/DTD/svg11.dtd">
<svg width="366.6" height="567.6" version="1.1" xmlns="http://www.w3.org/2000/svg">
<text xml:space="preserve" x="130.6" y="342.6" font-family="Calibri" font-size="8" text-anchor="end">DHRS3</text>
<text xml:space="preserve" x="130.6" y="350.6" font-family="Calibri" font-size="8" text-anchor="end">GUCA1A</text>
<text xml:space="preserve" x="130.6" y="358.6" font-family="Calibri" font-size="8" text-anchor="end">PRKAG2-AS1</text>
<text xml:space="preserve" x="130.6" y="366.6" font-family="Calibri" font-size="8" text-anchor="end">PLP2</text>
<text xml:space="preserve" x="141.6" y="331.6" font-family="Calibri" font-size="8" transform="rotate(270 141.6 331.6)">c2</text>
<text xml:space="preserve" x="149.6" y="331.6" font-family="Calibri" font-size="8" transform="rotate(270 149.6 331.6)">c3</text>
<text xml:space="preserve" x="157.6" y="331.6" font-family="Calibri" font-size="8" transform="rotate(270 157.6 331.6)">c6</text>
<text xml:space="preserve" x="165.6" y="331.6" font-family="Calibri" font-size="8" transform="rotate(270 165.6 331.6)">c4</text>
<text xml:space="preserve" x="173.6" y="331.6" font-family="Calibri" font-size="8" transform="rotate(270 173.6 331.6)">c1</text>
<text xml:space="preserve" x="181.6" y="331.6" font-family="Calibri" font-size="8" transform="rotate(270 181.6 331.6)">c5</text>
<text xml:space="preserve" x="189.6" y="331.6" font-family="Calibri" font-size="8" transform="rotate(270 189.6 331.6)">c7</text>
<text xml:space="preserve" x="197.6" y="331.6" font-family="Calibri" font-size="8" transform="rotate(270 197.6 331.6)">c8</text>
<text xml:space="preserve" x="215.6" y="331.6" font-family="Calibri" font-size="8" transform="rotate(270 215.6 331.6)">c2_mean</text>
<text xml:space="preserve" x="223.6" y="331.6" font-family="Calibri" font-size="8" transform="rotate(270 223.6 331.6)">c3_mean</text>
<text xml:space="preserve" x="231.6" y="331.6" font-family="Calibri" font-size="8" transform="rotate(270 231.6 331.6)">c6_mean</text>
<text xml:space="preserve" x="239.6" y="331.6" font-family="Calibri" font-size="8" transform="rotate(270 239.6 331.6)">c4_mean</text>
<text xml:space="preserve" x="247.6" y="331.6" font-family="Calibri" font-size="8" transform="rotate(270 247.6 331.6)">c1_mean</text>
<text xml:space="preserve" x="255.6" y="331.6" font-family="Calibri" font-size="8" transform="rotate(270 255.6 331.6)">c5_mean</text>
<text xml:space="preserve" x="263.6" y="331.6" font-family="Calibri" font-size="8" transform="rotate(270 263.6 331.6)">c7_mean</text>
<text xml:space="preserve" x="271.6" y="331.6" font-family="Calibri" font-size="8" transform="rotate(270 271.6 331.6)">c8_mean</text>
<text xml:space="preserve" x="289.6" y="331.6" font-family="Calibri" font-size="8" transform="rotate(270 289.6 331.6)">transcription_factor</text>
<text xml:space="preserve" x="297.6" y="331.6" font-family="Calibri" font-size="8" transform="rotate(270 297.6 331.6)">transmembrane_signal_receptor</text>
<text xml:space="preserve" x="305.6" y="331.6" font-family="Calibri" font-size="8" transform="rotate(270 305.6 331.6)">growth_factor</text>
<text xml:space="preserve" x="313.6" y="331.6" font-family="Calibri" font-size="8" transform="rotate(270 313.6 331.6)">peptide_hormone</text>
<text xml:space="preserve" x="321.6" y="331.6" font-family="Calibri" font-size="8" transform="rotate(270 321.6 331.6)">cytoskeletal_protein</text>
<text xml:space="preserve" x="329.6" y="331.6" font-family="Calibri" font-size="8" transform="rotate(270 329.6 331.6)">ion_channel</text>
<text xml:space="preserve" x="337.6" y="331.6" font-family="Calibri" font-size="8" transform="rotate(270 337.6 331.6)">integrin</text>
<text xml:space="preserve" x="345.6" y="331.6" font-family="Calibri" font-size="8" transform="rotate(270 345.6 331.6)">extracellular_matrix_protein</text>
<polygon points="134.6,335.6 142.6,335.6 142.6,343.6 134.6,343.6" fill="rgb(127,230,0)"/><text xml:space="preserve" x="138.6" y="342.433" font-family="Calibri" font-size="7.5" fill="rgb(0,0,0)" text-anchor="middle">2</text>
<polygon points="142.6,335.6 150.6,335.6 150.6,343.6 142.6,343.6" fill="rgb(230,127,0)"/><text xml:space="preserve" x="146.6" y="342.433" font-family="Calibri" font-size="7.5" fill="rgb(0,0,0)" text-anchor="middle">4</text>
<polygon points="150.6,335.6 158.6,335.6 158.6,343.6 150.6,343.6" fill="rgb(127,230,0)"/><text xml:space="preserve" x="154.6" y="342.433" font-family="Calibri" font-size="7.5" fill="rgb(0,0,0)" text-anchor="middle">2</text>
<polygon points="158.6,335.6 166.6,335.6 166.6,343.6 158.6,343.6" fill="rgb(127,230,0)"/><text xml:space="preserve" x="162.6" y="342.433" font-family="Calibri" font-size="7.5" fill="rgb(0,0,0)" text-anchor="middle">2</text>
<polygon points="166.6,335.6 174.6,335.6 174.6,343.6 166.6,343.6" fill="rgb(127,230,0)"/><text xml:space="preserve" x="170.6" y="342.433" font-family="Calibri" font-size="7.5" fill="rgb(0,0,0)" text-anchor="middle">2</text>
<polygon points="174.6,335.6 182.6,335.6 182.6,343.6 174.6,343.6" fill="rgb(127,230,0)"/><text xml:space="preserve" x="178.6" y="342.433" font-family="Calibri" font-size="7.5" fill="rgb(0,0,0)" text-anchor="middle">2</text>
<polygon points="182.6,335.6 190.6,335.6 190.6,343.6 182.6,343.6" fill="rgb(127,230,0)"/><text xml:space="preserve" x="186.6" y="342.433" font-family="Calibri" font-size="7.5" fill="rgb(0,0,0)" text-anchor="middle">2</text>
<polygon points="190.6,335.6 198.6,335.6 198.6,343.6 190.6,343.6" fill="rgb(127,230,0)"/><text xml:space="preserve" x="194.6" y="342.433" font-family="Calibri" font-size="7.5" fill="rgb(0,0,0)" text-anchor="middle">2</text>
<polygon points="208.6,335.6 216.6,335.6 216.6,343.6 208.6,343.6" fill="rgb(16,92,138)"/>
<polygon points="216.6,335.6 224.6,335.6 224.6,343.6 216.6,343.6" fill="rgb(39,183,143)"/>
<polygon points="224.6,335.6 232.6,335.6 232.6,343.6 224.6,343.6" fill="rgb(8,61,136)"/>
<polygon points="232.6,335.6 240.6,335.6 240.6,343.6 232.6,343.6" fill="rgb(4,43,135)"/>
<polygon points="240.6,335.6 248.6,335.6 248.6,343.6 240.6,343.6" fill="rgb(3,39,135)"/>
<polygon points="248.6,335.6 256.6,335.6 256.6,343.6 248.6,343.6" fill="rgb(1,32,135)"/>
<polygon points="256.6,335.6 264.6,335.6 264.6,343.6 256.6,343.6" fill="rgb(10,67,137)"/>
<polygon points="264.6,335.6 272.6,335.6 272.6,343.6 264.6,343.6" fill="rgb(5,48,136)"/>
<polygon points="282.6,335.6 290.6,335.6 290.6,343.6 282.6,343.6" fill="rgb(255,255,255)"/>
<polygon points="290.6,335.6 298.6,335.6 298.6,343.6 290.6,343.6" fill="rgb(255,255,255)"/>
<polygon points="298.6,335.6 306.6,335.6 306.6,343.6 298.6,343.6" fill="rgb(255,255,255)"/>
<polygon points="306.6,335.6 314.6,335.6 314.6,343.6 306.6,343.6" fill="rgb(255,255,255)"/>
<polygon points="314.6,335.6 322.6,335.6 322.6,343.6 314.6,343.6" fill="rgb(255,255,255)"/>
<polygon points="322.6,335.6 330.6,335.6 330.6,343.6 322.6,343.6" fill="rgb(255,255,255)"/>
<polygon points="330.6,335.6 338.6,335.6 338.6,343.6 330.6,343.6" fill="rgb(255,255,255)"/>
<polygon points="338.6,335.6 346.6,335.6 346.6,343.6 338.6,343.6" fill="rgb(255,255,255)"/>
<polygon points="134.6,343.6 142.6,343.6 142.6,351.6 134.6,351.6" fill="rgb(127,230,0)"/><text xml:space="preserve" x="138.6" y="350.433" font-family="Calibri" font-size="7.5" fill="rgb(0,0,0)" text-anchor="middle">2</text>
<polygon points="142.6,343.6 150.6,343.6 150.6,351.6 142.6,351.6" fill="rgb(230,127,0)"/><text xml:space="preserve" x="146.6" y="350.433" font-family="Calibri" font-size="7.5" fill="rgb(0,0,0)" text-anchor="middle">4</text>
<polygon points="150.6,343.6 158.6,343.6 158.6,351.6 150.6,351.6" fill="rgb(127,230,0)"/><text xml:space="preserve" x="154.6" y="350.433" font-family="Calibri" font-size="7.5" fill="rgb(0,0,0)" text-anchor="middle">2</text>
<polygon points="158.6,343.6 166.6,343.6 166.6,351.6 158.6,351.6" fill="rgb(127,230,0)"/><text xml:space="preserve" x="162.6" y="350.433" font-family="Calibri" font-size="7.5" fill="rgb(0,0,0)" text-anchor="middle">2</text>
<polygon points="166.6,343.6 174.6,343.6 174.6,351.6 166.6,351.6" fill="rgb(127,230,0)"/><text xml:space="preserve" x="170.6" y="350.433" font-family="Calibri" font-size="7.5" fill="rgb(0,0,0)" text-anchor="middle">2</text>
<polygon points="174.6,343.6 182.6,343.6 182.6,351.6 174.6,351.6" fill="rgb(127,230,0)"/><text xml:space="preserve" x="178.6" y="350.433" font-family="Calibri" font-size="7.5" fill="rgb(0,0,0)" text-anchor="middle">2</text>
<polygon points="182.6,343.6 190.6,343.6 190.6,351.6 182.6,351.6" fill="rgb(127,230,0)"/><text xml:space="preserve" x="186.6" y="350.433" font-family="Calibri" font-size="7.5" fill="rgb(0,0,0)" text-anchor="middle">2</text>
<polygon points="190.6,343.6 198.6,343.6 198.6,351.6 190.6,351.6" fill="rgb(127,230,0)"/><text xml:space="preserve" x="194.6" y="350.433" font-family="Calibri" font-size="7.5" fill="rgb(0,0,0)" text-anchor="middle">2</text>
<polygon points="208.6,343.6 216.6,343.6 216.6,351.6 208.6,351.6" fill="rgb(16,89,138)"/>
<polygon points="216.6,343.6 224.6,343.6 224.6,351.6 216.6,351.6" fill="rgb(28,138,141)"/>
<polygon points="224.6,343.6 232.6,343.6 232.6,351.6 224.6,351.6" fill="rgb(14,82,138)"/>
<polygon points="232.6,343.6 240.6,343.6 240.6,351.6 232.6,351.6" fill="rgb(11,73,137)"/>
<polygon points="240.6,343.6 248.6,343.6 248.6,351.6 240.6,351.6" fill="rgb(8,61,136)"/>
<polygon points="248.6,343.6 256.6,343.6 256.6,351.6 248.6,351.6" fill="rgb(5,47,136)"/>
<polygon points="256.6,343.6 264.6,343.6 264.6,351.6 256.6,351.6" fill="rgb(3,42,135)"/>
<polygon points="264.6,343.6 272.6,343.6 272.6,351.6 264.6,351.6" fill="rgb(4,43,135)"/>
<polygon points="282.6,343.6 290.6,343.6 290.6,351.6 282.6,351.6" fill="rgb(255,255,255)"/>
<polygon points="290.6,343.6 298.6,343.6 298.6,351.6 290.6,351.6" fill="rgb(255,255,255)"/>
<polygon points="298.6,343.6 306.6,343.6 306.6,351.6 298.6,351.6" fill="rgb(255,255,255)"/>
<polygon points="306.6,343.6 314.6,343.6 314.6,351.6 306.6,351.6" fill="rgb(255,255,255)"/>
<polygon points="314.6,343.6 322.6,343.6 322.6,351.6 314.6,351.6" fill="rgb(255,255,255)"/>
<polygon points="322.6,343.6 330.6,343.6 330.6,351.6 322.6,351.6" fill="rgb(255,255,255)"/>
<polygon points="330.6,343.6 338.6,343.6 338.6,351.6 330.6,351.6" fill="rgb(255,255,255)"/>
<polygon points="338.6,343.6 346.6,343.6 346.6,351.6 338.6,351.6" fill="rgb(255,255,255)"/>
<polygon points="134.6,351.6 142.6,351.6 142.6,359.6 134.6,359.6" fill="rgb(127,230,0)"/><text xml:space="preserve" x="138.6" y="358.433" font-family="Calibri" font-size="7.5" fill="rgb(0,0,0)" text-anchor="middle">2</text>
<polygon points="142.6,351.6 150.6,351.6 150.6,359.6 142.6,359.6" fill="rgb(230,127,0)"/><text xml:space="preserve" x="146.6" y="358.433" font-family="Calibri" font-size="7.5" fill="rgb(0,0,0)" text-anchor="middle">4</text>
<polygon points="150.6,351.6 158.6,351.6 158.6,359.6 150.6,359.6" fill="rgb(127,230,0)"/><text xml:space="preserve" x="154.6" y="358.433" font-family="Calibri" font-size="7.5" fill="rgb(0,0,0)" text-anchor="middle">2</text>
<polygon points="158.6,351.6 166.6,351.6 166.6,359.6 158.6,359.6" fill="rgb(127,230,0)"/><text xml:space="preserve" x="162.6" y="358.433" font-family="Calibri" font-size="7.5" fill="rgb(0,0,0)" text-anchor="middle">2</text>
<polygon points="166.6,351.6 174.6,351.6 174.6,359.6 166.6,359.6" fill="rgb(127,230,0)"/><text xml:space="preserve" x="170.6" y="358.433" font-family="Calibri" font-size="7.5" fill="rgb(0,0,0)" text-anchor="middle">2</text>
<polygon points="174.6,351.6 182.6,351.6 182.6,359.6 174.6,359.6" fill="rgb(127,230,0)"/><text xml:space="preserve" x="178.6" y="358.433" font-family="Calibri" font-size="7.5" fill="rgb(0,0,0)" text-anchor="middle">2</text>
<polygon points="182.6,351.6 190.6,351.6 190.6,359.6 182.6,359.6" fill="rgb(127,230,0)"/><text xml:space="preserve" x="186.6" y="358.433" font-family="Calibri" font-size="7.5" fill="rgb(0,0,0)" text-anchor="middle">2</text>
<polygon points="190.6,351.6 198.6,351.6 198.6,359.6 190.6,359.6" fill="rgb(127,230,0)"/><text xml:space="preserve" x="194.6" y="358.433" font-family="Calibri" font-size="7.5" fill="rgb(0,0,0)" text-anchor="middle">2</text>
<polygon points="208.6,351.6 216.6,351.6 216.6,359.6 208.6,359.6" fill="rgb(20,108,139)"/>
<polygon points="216.6,351.6 224.6,351.6 224.6,359.6 216.6,359.6" fill="rgb(29,142,141)"/>
<polygon points="224.6,351.6 232.6,351.6 232.6,359.6 224.6,359.6" fill="rgb(11,70,137)"/>
<polygon points="232.6,351.6 240.6,351.6 240.6,359.6 232.6,359.6" fill="rgb(13,79,138)"/>
<polygon points="240.6,351.6 248.6,351.6 248.6,359.6 240.6,359.6" fill="rgb(7,56,136)"/>
<polygon points="248.6,351.6 256.6,351.6 256.6,359.6 248.6,359.6" fill="rgb(1,33,135)"/>
<polygon points="256.6,351.6 264.6,351.6 264.6,359.6 256.6,359.6" fill="rgb(2,38,135)"/>
<polygon points="264.6,351.6 272.6,351.6 272.6,359.6 264.6,359.6" fill="rgb(3,39,135)"/>
<polygon points="282.6,351.6 290.6,351.6 290.6,359.6 282.6,359.6" fill="rgb(255,255,255)"/>
<polygon points="290.6,351.6 298.6,351.6 298.6,359.6 290.6,359.6" fill="rgb(255,255,255)"/>
<polygon points="298.6,351.6 306.6,351.6 306.6,359.6 298.6,359.6" fill="rgb(255,255,255)"/>
<polygon points="306.6,351.6 314.6,351.6 314.6,359.6 306.6,359.6" fill="rgb(255,255,255)"/>
<polygon points="314.6,351.6 322.6,351.6 322.6,359.6 314.6,359.6" fill="rgb(255,255,255)"/>
<polygon points="322.6,351.6 330.6,351.6 330.6,359.6 322.6,359.6" fill="rgb(255,255,255)"/>
<polygon points="330.6,351.6 338.6,351.6 338.6,359.6 330.6,359.6" fill="rgb(255,255,255)"/>
<polygon points="338.6,351.6 346.6,351.6 346.6,359.6 338.6,359.6" fill="rgb(255,255,255)"/>
<polygon points="134.6,359.6 142.6,359.6 142.6,367.6 134.6,367.6" fill="rgb(127,230,0)"/><text xml:space="preserve" x="138.6" y="366.433" font-family="Calibri" font-size="7.5" fill="rgb(0,0,0)" text-anchor="middle">2</text>
<polygon points="142.6,359.6 150.6,359.6 150.6,367.6 142.6,367.6" fill="rgb(230,127,0)"/><text xml:space="preserve" x="146.6" y="366.433" font-family="Calibri" font-size="7.5" fill="rgb(0,0,0)" text-anchor="middle">4</text>
<polygon points="150.6,359.6 158.6,359.6 158.6,367.6 150.6,367.6" fill="rgb(127,230,0)"/><text xml:space="preserve" x="154.6" y="366.433" font-family="Calibri" font-size="7.5" fill="rgb(0,0,0)" text-anchor="middle">2</text>
<polygon points="158.6,359.6 166.6,359.6 166.6,367.6 158.6,367.6" fill="rgb(127,230,0)"/><text xml:space="preserve" x="162.6" y="366.433" font-family="Calibri" font-size="7.5" fill="rgb(0,0,0)" text-anchor="middle">2</text>
<polygon points="166.6,359.6 174.6,359.6 174.6,367.6 166.6,367.6" fill="rgb(127,230,0)"/><text xml:space="preserve" x="170.6" y="366.433" font-family="Calibri" font-size="7.5" fill="rgb(0,0,0)" text-anchor="middle">2</text>
<polygon points="174.6,359.6 182.6,359.6 182.6,367.6 174.6,367.6" fill="rgb(127,230,0)"/><text xml:space="preserve" x="178.6" y="366.433" font-family="Calibri" font-size="7.5" fill="rgb(0,0,0)" text-anchor="middle">2</text>
<polygon points="182.6,359.6 190.6,359.6 190.6,367.6 182.6,367.6" fill="rgb(127,230,0)"/><text xml:space="preserve" x="186.6" y="366.433" font-family="Calibri" font-size="7.5" fill="rgb(0,0,0)" text-anchor="middle">2</text>
<polygon points="190.6,359.6 198.6,359.6 198.6,367.6 190.6,367.6" fill="rgb(127,230,0)"/><text xml:space="preserve" x="194.6" y="366.433" font-family="Calibri" font-size="7.5" fill="rgb(0,0,0)" text-anchor="middle">2</text>
<polygon points="208.6,359.6 216.6,359.6 216.6,367.6 208.6,367.6" fill="rgb(14,84,138)"/>
<polygon points="216.6,359.6 224.6,359.6 224.6,367.6 216.6,367.6" fill="rgb(29,140,141)"/>
<polygon points="224.6,359.6 232.6,359.6 232.6,367.6 224.6,367.6" fill="rgb(11,71,137)"/>
<polygon points="232.6,359.6 240.6,359.6 240.6,367.6 232.6,367.6" fill="rgb(5,47,136)"/>
<polygon points="240.6,359.6 248.6,359.6 248.6,367.6 240.6,367.6" fill="rgb(2,38,135)"/>
<polygon points="248.6,359.6 256.6,359.6 256.6,367.6 248.6,367.6" fill="rgb(5,47,136)"/>
<polygon points="256.6,359.6 264.6,359.6 264.6,367.6 256.6,367.6" fill="rgb(5,48,136)"/>
<polygon points="264.6,359.6 272.6,359.6 272.6,367.6 264.6,367.6" fill="rgb(4,44,136)"/>
<polygon points="282.6,359.6 290.6,359.6 290.6,367.6 282.6,367.6" fill="rgb(255,255,255)"/>
<polygon points="290.6,359.6 298.6,359.6 298.6,367.6 290.6,367.6" fill="rgb(255,255,255)"/>
<polygon points="298.6,359.6 306.6,359.6 306.6,367.6 298.6,367.6" fill="rgb(255,255,255)"/>
<polygon points="306.6,359.6 314.6,359.6 314.6,367.6 306.6,367.6" fill="rgb(255,255,255)"/>
<polygon points="314.6,359.6 322.6,359.6 322.6,367.6 314.6,367.6" fill="rgb(255,255,255)"/>
<polygon points="322.6,359.6 330.6,359.6 330.6,367.6 322.6,367.6" fill="rgb(255,255,255)"/>
<polygon points="330.6,359.6 338.6,359.6 338.6,367.6 330.6,367.6" fill="rgb(255,255,255)"/>
<polygon points="338.6,359.6 346.6,359.6 346.6,367.6 338.6,367.6" fill="rgb(255,255,255)"/>
<polygon points="134.6,335.6 198.6,335.6 198.6,367.6 134.6,367.6" fill="none" stroke="black" stroke-width="1"/>
<polygon points="208.6,335.6 272.6,335.6 272.6,367.6 208.6,367.6" fill="none" stroke="black" stroke-width="1"/>
<polygon points="282.6,335.6 346.6,335.6 346.6,367.6 282.6,367.6" fill="none" stroke="black" stroke-width="1"/>
<text xml:space="preserve" x="183.3" y="400.6" font-family="Calibri" font-size="8" text-anchor="middle">ClusterAssignment</text>
<polygon points="133.3,407.6 153.3,407.6 153.3,427.6 133.3,427.6" fill="rgb(0,205,0)"/><polygon points="133.3,407.6 153.3,407.6 153.3,427.6 133.3,427.6" fill="none" stroke="black" stroke-width="1"/><text xml:space="preserve" x="143.3" y="420.433" font-family="Calibri" font-size="7.5" fill="rgb(255,255,255)" text-anchor="middle">1.0</text>
<polygon points="153.3,407.6 173.3,407.6 173.3,427.6 153.3,427.6" fill="rgb(127,230,0)"/><polygon points="153.3,407.6 173.3,407.6 173.3,427.6 153.3,427.6" fill="none" stroke="black" stroke-width="1"/><text xml:space="preserve" x="163.3" y="420.433" font-family="Calibri" font-size="7.5" fill="rgb(0,0,0)" text-anchor="middle">2.0</text>
<polygon points="173.3,407.6 193.3,407.6 193.3,427.6 173.3,427.6" fill="rgb(255,255,0)"/><polygon points="173.3,407.6 193.3,407.6 193.3,427.6 173.3,427.6" fill="none" stroke="black" stroke-width="1"/><text xml:space="preserve" x="183.3" y="420.433" font-family="Calibri" font-size="7.5" fill="rgb(0,0,0)" text-anchor="middle">3.0</text>
<polygon points="193.3,407.6 213.3,407.6 213.3,427.6 193.3,427.6" fill="rgb(230,127,0)"/><polygon points="193.3,407.6 213.3,407.6 213.3,427.6 193.3,427.6" fill="none" stroke="black" stroke-width="1"/><text xml:space="preserve" x="203.3" y="420.433" font-family="Calibri" font-size="7.5" fill="rgb(0,0,0)" text-anchor="middle">4.0</text>
<polygon points="213.3,407.6 233.3,407.6 233.3,427.6 213.3,427.6" fill="rgb(205,0,0)"/><polygon points="213.3,407.6 233.3,407.6 233.3,427.6 213.3,427.6" fill="none" stroke="black" stroke-width="1"/><text xml:space="preserve" x="223.3" y="420.433" font-family="Calibri" font-size="7.5" fill="rgb(255,255,255)" text-anchor="middle">5.0</text>
<text xml:space="preserve" x="183.3" y="460.6" font-family="Calibri" font-size="8" text-anchor="middle">Expression</text>
<polygon points="133.3,467.6 153.3,467.6 153.3,487.6 133.3,487.6" fill="rgb(0,27,135)"/><polygon points="133.3,467.6 153.3,467.6 153.3,487.6 133.3,487.6" fill="none" stroke="black" stroke-width="1"/><text xml:space="preserve" x="143.3" y="480.433" font-family="Calibri" font-size="7.5" fill="rgb(255,255,255)" text-anchor="middle">0.0</text>
<polygon points="153.3,467.6 173.3,467.6 173.3,487.6 153.3,487.6" fill="rgb(24,123,140)"/><polygon points="153.3,467.6 173.3,467.6 173.3,487.6 153.3,487.6" fill="none" stroke="black" stroke-width="1"/><text xml:space="preserve" x="163.3" y="480.433" font-family="Calibri" font-size="7.5" fill="rgb(255,255,255)" text-anchor="middle">0.8</text>
<polygon points="173.3,467.6 193.3,467.6 193.3,487.6 173.3,487.6" fill="rgb(49,219,146)"/><polygon points="173.3,467.6 193.3,467.6 193.3,487.6 173.3,487.6" fill="none" stroke="black" stroke-width="1"/><text xml:space="preserve" x="183.3" y="480.433" font-family="Calibri" font-size="7.5" fill="rgb(0,0,0)" text-anchor="middle">1.5</text>
<polygon points="193.3,467.6 213.3,467.6 213.3,487.6 193.3,487.6" fill="rgb(150,206,73)"/><polygon points="193.3,467.6 213.3,467.6 213.3,487.6 193.3,487.6" fill="none" stroke="black" stroke-width="1"/><text xml:space="preserve" x="203.3" y="480.433" font-family="Calibri" font-size="7.5" fill="rgb(0,0,0)" text-anchor="middle">2.2</text>
<polygon points="213.3,467.6 233.3,467.6 233.3,487.6 213.3,487.6" fill="rgb(252,194,1)"/><polygon points="213.3,467.6 233.3,467.6 233.3,487.6 213.3,487.6" fill="none" stroke="black" stroke-width="1"/><text xml:space="preserve" x="223.3" y="480.433" font-family="Calibri" font-size="7.5" fill="rgb(0,0,0)" text-anchor="middle">3.0</text>
<text xml:space="preserve" x="183.3" y="520.6" font-family="Calibri" font-size="8" text-anchor="middle">PANTHERclass</text>
<polygon points="133.3,527.6 153.3,527.6 153.3,547.6 133.3,547.6" fill="rgb(255,255,255)"/><polygon points="133.3,527.6 153.3,527.6 153.3,547.6 133.3,547.6" fill="none" stroke="black" stroke-width="1"/><text xml:space="preserve" x="143.3" y="540.433" font-family="Calibri" font-size="7.5" fill="rgb(0,0,0)" text-anchor="middle">0.0</text>
<polygon points="153.3,527.6 173.3,527.6 173.3,547.6 153.3,547.6" fill="rgb(242,191,242)"/><polygon points="153.3,527.6 173.3,527.6 173.3,547.6 153.3,547.6" fill="none" stroke="black" stroke-width="1"/><text xml:space="preserve" x="163.3" y="540.433" font-family="Calibri" font-size="7.5" fill="rgb(0,0,0)" text-anchor="middle">0.2</text>
<polygon points="173.3,527.6 193.3,527.6 193.3,547.6 173.3,547.6" fill="rgb(230,127,230)"/><polygon points="173.3,527.6 193.3,527.6 193.3,547.6 173.3,547.6" fill="none" stroke="black" stroke-width="1"/><text xml:space="preserve" x="183.3" y="540.433" font-family="Calibri" font-size="7.5" fill="rgb(0,0,0)" text-anchor="middle">0.5</text>
<polygon points="193.3,527.6 213.3,527.6 213.3,547.6 193.3,547.6" fill="rgb(217,63,217)"/><polygon points="193.3,527.6 213.3,527.6 213.3,547.6 193.3,547.6" fill="none" stroke="black" stroke-width="1"/><text xml:space="preserve" x="203.3" y="540.433" font-family="Calibri" font-size="7.5" fill="rgb(255,255,255)" text-anchor="middle">0.8</text>
<polygon points="213.3,527.6 233.3,527.6 233.3,547.6 213.3,547.6" fill="rgb(205,0,205)"/><polygon points="213.3,527.6 233.3,527.6 233.3,547.6 213.3,547.6" fill="none" stroke="black" stroke-width="1"/><text xml:space="preserve" x="223.3" y="540.433" font-family="Calibri" font-size="7.5" fill="rgb(255,255,255)" text-anchor="middle">1.0</text>
</svg>
