<?xml version="1.0" standalone="no"?><!DOCTYPE svg PUBLIC "-//W3C//DTD SVG 1.1//EN" "http://www.w3.org/Graphics/SVG/1.1/DTD/svg11.dtd">
<svg width="314.7" height="567.6" version="1.1" xmlns="http://www.w3.org/2000/svg">
<text xml:space="preserve" x="78.7" y="342.6" font-family="Calibri" font-size="8" text-anchor="end">EGFL7</text>
<text xml:space="preserve" x="78.7" y="350.6" font-family="Calibri" font-size="8" text-anchor="end">PDCD4</text>
<text xml:space="preserve" x="78.7" y="358.6" font-family="Calibri" font-size="8" text-anchor="end">TEX30</text>
<text xml:space="preserve" x="78.7" y="366.6" font-family="Calibri" font-size="8" text-anchor="end">TBL1X</text>
<text xml:space="preserve" x="89.7" y="331.6" font-family="Calibri" font-size="8" transform="rotate(270 89.7 331.6)">c2</text>
<text xml:space="preserve" x="97.7" y="331.6" font-family="Calibri" font-size="8" transform="rotate(270 97.7 331.6)">c3</text>
<text xml:space="preserve" x="105.7" y="331.6" font-family="Calibri" font-size="8" transform="rotate(270 105.7 331.6)">c6</text>
<text xml:space="preserve" x="113.7" y="331.6" font-family="Calibri" font-size="8" transform="rotate(270 113.7 331.6)">c4</text>
<text xml:space="preserve" x="121.7" y="331.6" font-family="Calibri" font-size="8" transform="rotate(270 121.7 331.6)">c1</text>
<text xml:space="preserve" x="129.7" y="331.6" font-family="Calibri" font-size="8" transform="rotate(270 129.7 331.6)">c5</text>
<text xml:space="preserve" x="137.7" y="331.6" font-family="Calibri" font-size="8" transform="rotate(270 137.7 331.6)">c7</text>
<text xml:space="preserve" x="145.7" y="331.6" font-family="Calibri" font-size="8" transform="rotate(270 145.7 331.6)">c8</text>
<text xml:space="preserve" x="163.7" y="331.6" font-family="Calibri" font-size="8" transform="rotate(270 163.7 331.6)">c2_mean</text>
<text xml:space="preserve" x="171.7" y="331.6" font-family="Calibri" font-size="8" transform="rotate(270 171.7 331.6)">c3_mean</text>
<text xml:space="preserve" x="179.7" y="331.6" font-family="Calibri" font-size="8" transform="rotate(270 179.7 331.6)">c6_mean</text>
<text xml:space="preserve" x="187.7" y="331.6" font-family="Calibri" font-size="8" transform="rotate(270 187.7 331.6)">c4_mean</text>
<text xml:space="preserve" x="195.7" y="331.6" font-family="Calibri" font-size="8" transform="rotate(270 195.7 331.6)">c1_mean</text>
<text xml:space="preserve" x="203.7" y="331.6" font-family="Calibri" font-size="8" transform="rotate(270 203.7 331.6)">c5_mean</text>
<text xml:space="preserve" x="211.7" y="331.6" font-family="Calibri" font-size="8" transform="rotate(270 211.7 331.6)">c7_mean</text>
<text xml:space="preserve" x="219.7" y="331.6" font-family="Calibri" font-size="8" transform="rotate(270 219.7 331.6)">c8_mean</text>
<text xml:space="preserve" x="237.7" y="331.6" font-family="Calibri" font-size="8" transform="rotate(270 237.7 331.6)">transcription_factor</text>
<text xml:space="preserve" x="245.7" y="331.6" font-family="Calibri" font-size="8" transform="rotate(270 245.7 331.6)">transmembrane_signal_receptor</text>
<text xml:space="preserve" x="253.7" y="331.6" font-family="Calibri" font-size="8" transform="rotate(270 253.7 331.6)">growth_factor</text>
<text xml:space="preserve" x="261.7" y="331.6" font-family="Calibri" font-size="8" transform="rotate(270 261.7 331.6)">peptide_hormone</text>
<text xml:space="preserve" x="269.7" y="331.6" font-family="Calibri" font-size="8" transform="rotate(270 269.7 331.6)">cytoskeletal_protein</text>
<text xml:space="preserve" x="277.7" y="331.6" font-family="Calibri" font-size="8" transform="rotate(270 277.7 331.6)">ion_channel</text>
<text xml:space="preserve" x="285.7" y="331.6" font-family="Calibri" font-size="8" transform="rotate(270 285.7 331.6)">integrin</text>
<text xml:space="preserve" x="293.7" y="331.6" font-family="Calibri" font-size="8" transform="rotate(270 293.7 331.6)">extracellular_matrix_protein</text>
<polygon points="82.7,335.6 90.7,335.6 90.7,343.6 82.7,343.6" fill="rgb(127,230,0)"/><text xml:space="preserve" x="86.7" y="342.433" font-family="Calibri" font-size="7.5" fill="rgb(0,0,0)" text-anchor="middle">2</text>
<polygon points="90.7,335.6 98.7,335.6 98.7,343.6 90.7,343.6" fill="rgb(127,230,0)"/><text xml:space="preserve" x="94.7" y="342.433" font-family="Calibri" font-size="7.5" fill="rgb(0,0,0)" text-anchor="middle">2</text>
<polygon points="98.7,335.6 106.7,335.6 106.7,343.6 98.7,343.6" fill="rgb(127,230,0)"/><text xml:space="preserve" x="102.7" y="342.433" font-family="Calibri" font-size="7.5" fill="rgb(0,0,0)" text-anchor="middle">2</text>
<polygon points="106.7,335.6 114.7,335.6 114.7,343.6 106.7,343.6" fill="rgb(127,230,0)"/><text xml:space="preserve" x="110.7" y="342.433" font-family="Calibri" font-size="7.5" fill="rgb(0,0,0)" text-anchor="middle">2</text>
<polygon points="114.7,335.6 122.7,335.6 122.7,343.6 114.7,343.6" fill="rgb(127,230,0)"/><text xml:space="preserve" x="118.7" y="342.433" font-family="Calibri" font-size="7.5" fill="rgb(0,0,0)" text-anchor="middle">2</text>
<polygon points="122.7,335.6 130.7,335.6 130.7,343.6 122.7,343.6" fill="rgb(255,255,0)"/><text xml:space="preserve" x="126.7" y="342.433" font-family="Calibri" font-size="7.5" fill="rgb(0,0,0)" text-anchor="middle">3</text>
<polygon points="130.7,335.6 138.7,335.6 138.7,343.6 130.7,343.6" fill="rgb(127,230,0)"/><text xml:space="preserve" x="134.7" y="342.433" font-family="Calibri" font-size="7.5" fill="rgb(0,0,0)" text-anchor="middle">2</text>
<polygon points="138.7,335.6 146.7,335.6 146.7,343.6 138.7,343.6" fill="rgb(127,230,0)"/><text xml:space="preserve" x="142.7" y="342.433" font-family="Calibri" font-size="7.5" fill="rgb(0,0,0)" text-anchor="middle">2</text>
<polygon points="156.7,335.6 164.7,335.6 164.7,343.6 156.7,343.6" fill="rgb(17,94,138)"/>
<polygon points="164.7,335.6 172.7,335.6 172.7,343.6 164.7,343.6" fill="rgb(17,94,138)"/>
<polygon points="172.7,335.6 180.7,335.6 180.7,343.6 172.7,343.6" fill="rgb(9,65,137)"/>
<polygon points="180.7,335.6 188.7,335.6 188.7,343.6 180.7,343.6" fill="rgb(10,69,137)"/>
<polygon points="188.7,335.6 196.7,335.6 196.7,343.6 188.7,343.6" fill="rgb(8,61,136)"/>
<polygon points="196.7,335.6 204.7,335.6 204.7,343.6 196.7,343.6" fill="rgb(19,102,139)"/>
<polygon points="204.7,335.6 212.7,335.6 212.7,343.6 204.7,343.6" fill="rgb(13,80,138)"/>
<polygon points="212.7,335.6 220.7,335.6 220.7,343.6 212.7,343.6" fill="rgb(10,69,137)"/>
<polygon points="230.7,335.6 238.7,335.6 238.7,343.6 230.7,343.6" fill="rgb(255,255,255)"/>
<polygon points="238.7,335.6 246.7,335.6 246.7,343.6 238.7,343.6" fill="rgb(255,255,255)"/>
<polygon points="246.7,335.6 254.7,335.6 254.7,343.6 246.7,343.6" fill="rgb(255,255,255)"/>
<polygon points="254.7,335.6 262.7,335.6 262.7,343.6 254.7,343.6" fill="rgb(255,255,255)"/>
<polygon points="262.7,335.6 270.7,335.6 270.7,343.6 262.7,343.6" fill="rgb(255,255,255)"/>
<polygon points="270.7,335.6 278.7,335.6 278.7,343.6 270.7,343.6" fill="rgb(255,255,255)"/>
<polygon points="278.7,335.6 286.7,335.6 286.7,343.6 278.7,343.6" fill="rgb(255,255,255)"/>
<polygon points="286.7,335.6 294.7,335.6 294.7,343.6 286.7,343.6" fill="rgb(255,255,255)"/>
<polygon points="82.7,343.6 90.7,343.6 90.7,351.6 82.7,351.6" fill="rgb(127,230,0)"/><text xml:space="preserve" x="86.7" y="350.433" font-family="Calibri" font-size="7.5" fill="rgb(0,0,0)" text-anchor="middle">2</text>
<polygon points="90.7,343.6 98.7,343.6 98.7,351.6 90.7,351.6" fill="rgb(127,230,0)"/><text xml:space="preserve" x="94.7" y="350.433" font-family="Calibri" font-size="7.5" fill="rgb(0,0,0)" text-anchor="middle">2</text>
<polygon points="98.7,343.6 106.7,343.6 106.7,351.6 98.7,351.6" fill="rgb(127,230,0)"/><text xml:space="preserve" x="102.7" y="350.433" font-family="Calibri" font-size="7.5" fill="rgb(0,0,0)" text-anchor="middle">2</text>
<polygon points="106.7,343.6 114.7,343.6 114.7,351.6 106.7,351.6" fill="rgb(127,230,0)"/><text xml:space="preserve" x="110.7" y="350.433" font-family="Calibri" font-size="7.5" fill="rgb(0,0,0)" text-anchor="middle">2</text>
<polygon points="114.7,343.6 122.7,343.6 122.7,351.6 114.7,351.6" fill="rgb(127,230,0)"/><text xml:space="preserve" x="118.7" y="350.433" font-family="Calibri" font-size="7.5" fill="rgb(0,0,0)" text-anchor="middle">2</text>
<polygon points="122.7,343.6 130.7,343.6 130.7,351.6 122.7,351.6" fill="rgb(255,255,0)"/><text xml:space="preserve" x="126.7" y="350.433" font-family="Calibri" font-size="7.5" fill="rgb(0,0,0)" text-anchor="middle">3</text>
<polygon points="130.7,343.6 138.7,343.6 138.7,351.6 130.7,351.6" fill="rgb(127,230,0)"/><text xml:space="preserve" x="134.7" y="350.433" font-family="Calibri" font-size="7.5" fill="rgb(0,0,0)" text-anchor="middle">2</text>
<polygon points="138.7,343.6 146.7,343.6 146.7,351.6 138.7,351.6" fill="rgb(127,230,0)"/><text xml:space="preserve" x="142.7" y="350.433" font-family="Calibri" font-size="7.5" fill="rgb(0,0,0)" text-anchor="middle">2</text>
<polygon points="156.7,343.6 164.7,343.6 164.7,351.6 156.7,351.6" fill="rgb(15,87,138)"/>
<polygon points="164.7,343.6 172.7,343.6 172.7,351.6 164.7,351.6" fill="rgb(11,70,137)"/>
<polygon points="172.7,343.6 180.7,343.6 180.7,351.6 172.7,351.6" fill="rgb(9,64,137)"/>
<polygon points="180.7,343.6 188.7,343.6 188.7,351.6 180.7,351.6" fill="rgb(11,70,137)"/>
<polygon points="188.7,343.6 196.7,343.6 196.7,351.6 188.7,351.6" fill="rgb(8,61,136)"/>
<polygon points="196.7,343.6 204.7,343.6 204.7,351.6 196.7,351.6" fill="rgb(24,123,140)"/>
<polygon points="204.7,343.6 212.7,343.6 212.7,351.6 204.7,351.6" fill="rgb(14,83,138)"/>
<polygon points="212.7,343.6 220.7,343.6 220.7,351.6 212.7,351.6" fill="rgb(15,88,138)"/>
<polygon points="230.7,343.6 238.7,343.6 238.7,351.6 230.7,351.6" fill="rgb(255,255,255)"/>
<polygon points="238.7,343.6 246.7,343.6 246.7,351.6 238.7,351.6" fill="rgb(255,255,255)"/>
<polygon points="246.7,343.6 254.7,343.6 254.7,351.6 246.7,351.6" fill="rgb(255,255,255)"/>
<polygon points="254.7,343.6 262.7,343.6 262.7,351.6 254.7,351.6" fill="rgb(255,255,255)"/>
<polygon points="262.7,343.6 270.7,343.6 270.7,351.6 262.7,351.6" fill="rgb(255,255,255)"/>
<polygon points="270.7,343.6 278.7,343.6 278.7,351.6 270.7,351.6" fill="rgb(255,255,255)"/>
<polygon points="278.7,343.6 286.7,343.6 286.7,351.6 278.7,351.6" fill="rgb(255,255,255)"/>
<polygon points="286.7,343.6 294.7,343.6 294.7,351.6 286.7,351.6" fill="rgb(255,255,255)"/>
<polygon points="82.7,351.6 90.7,351.6 90.7,359.6 82.7,359.6" fill="rgb(127,230,0)"/><text xml:space="preserve" x="86.7" y="358.433" font-family="Calibri" font-size="7.5" fill="rgb(0,0,0)" text-anchor="middle">2</text>
<polygon points="90.7,351.6 98.7,351.6 98.7,359.6 90.7,359.6" fill="rgb(127,230,0)"/><text xml:space="preserve" x="94.7" y="358.433" font-family="Calibri" font-size="7.5" fill="rgb(0,0,0)" text-anchor="middle">2</text>
<polygon points="98.7,351.6 106.7,351.6 106.7,359.6 98.7,359.6" fill="rgb(127,230,0)"/><text xml:space="preserve" x="102.7" y="358.433" font-family="Calibri" font-size="7.5" fill="rgb(0,0,0)" text-anchor="middle">2</text>
<polygon points="106.7,351.6 114.7,351.6 114.7,359.6 106.7,359.6" fill="rgb(127,230,0)"/><text xml:space="preserve" x="110.7" y="358.433" font-family="Calibri" font-size="7.5" fill="rgb(0,0,0)" text-anchor="middle">2</text>
<polygon points="114.7,351.6 122.7,351.6 122.7,359.6 114.7,359.6" fill="rgb(127,230,0)"/><text xml:space="preserve" x="118.7" y="358.433" font-family="Calibri" font-size="7.5" fill="rgb(0,0,0)" text-anchor="middle">2</text>
<polygon points="122.7,351.6 130.7,351.6 130.7,359.6 122.7,359.6" fill="rgb(255,255,0)"/><text xml:space="preserve" x="126.7" y="358.433" font-family="Calibri" font-size="7.5" fill="rgb(0,0,0)" text-anchor="middle">3</text>
<polygon points="130.7,351.6 138.7,351.6 138.7,359.6 130.7,359.6" fill="rgb(127,230,0)"/><text xml:space="preserve" x="134.7" y="358.433" font-family="Calibri" font-size="7.5" fill="rgb(0,0,0)" text-anchor="middle">2</text>
<polygon points="138.7,351.6 146.7,351.6 146.7,359.6 138.7,359.6" fill="rgb(127,230,0)"/><text xml:space="preserve" x="142.7" y="358.433" font-family="Calibri" font-size="7.5" fill="rgb(0,0,0)" text-anchor="middle">2</text>
<polygon points="156.7,351.6 164.7,351.6 164.7,359.6 156.7,359.6" fill="rgb(13,80,138)"/>
<polygon points="164.7,351.6 172.7,351.6 172.7,359.6 164.7,359.6" fill="rgb(12,74,137)"/>
<polygon points="172.7,351.6 180.7,351.6 180.7,359.6 172.7,359.6" fill="rgb(11,73,137)"/>
<polygon points="180.7,351.6 188.7,351.6 188.7,359.6 180.7,359.6" fill="rgb(13,80,138)"/>
<polygon points="188.7,351.6 196.7,351.6 196.7,359.6 188.7,359.6" fill="rgb(11,70,137)"/>
<polygon points="196.7,351.6 204.7,351.6 204.7,359.6 196.7,359.6" fill="rgb(21,112,139)"/>
<polygon points="204.7,351.6 212.7,351.6 212.7,359.6 204.7,359.6" fill="rgb(11,71,137)"/>
<polygon points="212.7,351.6 220.7,351.6 220.7,359.6 212.7,359.6" fill="rgb(11,70,137)"/>
<polygon points="230.7,351.6 238.7,351.6 238.7,359.6 230.7,359.6" fill="rgb(255,255,255)"/>
<polygon points="238.7,351.6 246.7,351.6 246.7,359.6 238.7,359.6" fill="rgb(255,255,255)"/>
<polygon points="246.7,351.6 254.7,351.6 254.7,359.6 246.7,359.6" fill="rgb(255,255,255)"/>
<polygon points="254.7,351.6 262.7,351.6 262.7,359.6 254.7,359.6" fill="rgb(255,255,255)"/>
<polygon points="262.7,351.6 270.7,351.6 270.7,359.6 262.7,359.6" fill="rgb(255,255,255)"/>
<polygon points="270.7,351.6 278.7,351.6 278.7,359.6 270.7,359.6" fill="rgb(255,255,255)"/>
<polygon points="278.7,351.6 286.7,351.6 286.7,359.6 278.7,359.6" fill="rgb(255,255,255)"/>
<polygon points="286.7,351.6 294.7,351.6 294.7,359.6 286.7,359.6" fill="rgb(255,255,255)"/>
<polygon points="82.7,359.6 90.7,359.6 90.7,367.6 82.7,367.6" fill="rgb(127,230,0)"/><text xml:space="preserve" x="86.7" y="366.433" font-family="Calibri" font-size="7.5" fill="rgb(0,0,0)" text-anchor="middle">2</text>
<polygon points="90.7,359.6 98.7,359.6 98.7,367.6 90.7,367.6" fill="rgb(127,230,0)"/><text xml:space="preserve" x="94.7" y="366.433" font-family="Calibri" font-size="7.5" fill="rgb(0,0,0)" text-anchor="middle">2</text>
<polygon points="98.7,359.6 106.7,359.6 106.7,367.6 98.7,367.6" fill="rgb(127,230,0)"/><text xml:space="preserve" x="102.7" y="366.433" font-family="Calibri" font-size="7.5" fill="rgb(0,0,0)" text-anchor="middle">2</text>
<polygon points="106.7,359.6 114.7,359.6 114.7,367.6 106.7,367.6" fill="rgb(127,230,0)"/><text xml:space="preserve" x="110.7" y="366.433" font-family="Calibri" font-size="7.5" fill="rgb(0,0,0)" text-anchor="middle">2</text>
<polygon points="114.7,359.6 122.7,359.6 122.7,367.6 114.7,367.6" fill="rgb(127,230,0)"/><text xml:space="preserve" x="118.7" y="366.433" font-family="Calibri" font-size="7.5" fill="rgb(0,0,0)" text-anchor="middle">2</text>
<polygon points="122.7,359.6 130.7,359.6 130.7,367.6 122.7,367.6" fill="rgb(255,255,0)"/><text xml:space="preserve" x="126.7" y="366.433" font-family="Calibri" font-size="7.5" fill="rgb(0,0,0)" text-anchor="middle">3</text>
<polygon points="130.7,359.6 138.7,359.6 138.7,367.6 130.7,367.6" fill="rgb(127,230,0)"/><text xml:space="preserve" x="134.7" y="366.433" font-family="Calibri" font-size="7.5" fill="rgb(0,0,0)" text-anchor="middle">2</text>
<polygon points="138.7,359.6 146.7,359.6 146.7,367.6 138.7,367.6" fill="rgb(127,230,0)"/><text xml:space="preserve" x="142.7" y="366.433" font-family="Calibri" font-size="7.5" fill="rgb(0,0,0)" text-anchor="middle">2</text>
<polygon points="156.7,359.6 164.7,359.6 164.7,367.6 156.7,367.6" fill="rgb(15,85,138)"/>
<polygon points="164.7,359.6 172.7,359.6 172.7,367.6 164.7,367.6" fill="rgb(10,69,137)"/>
<polygon points="172.7,359.6 180.7,359.6 180.7,367.6 172.7,367.6" fill="rgb(18,99,139)"/>
<polygon points="180.7,359.6 188.7,359.6 188.7,367.6 180.7,367.6" fill="rgb(11,71,137)"/>
<polygon points="188.7,359.6 196.7,359.6 196.7,367.6 188.7,367.6" fill="rgb(10,67,137)"/>
<polygon points="196.7,359.6 204.7,359.6 204.7,367.6 196.7,367.6" fill="rgb(24,121,140)"/>
<polygon points="204.7,359.6 212.7,359.6 212.7,367.6 204.7,367.6" fill="rgb(9,64,137)"/>
<polygon points="212.7,359.6 220.7,359.6 220.7,367.6 212.7,367.6" fill="rgb(7,55,136)"/>
<polygon points="230.7,359.6 238.7,359.6 238.7,367.6 230.7,367.6" fill="rgb(255,255,255)"/>
<polygon points="238.7,359.6 246.7,359.6 246.7,367.6 238.7,367.6" fill="rgb(255,255,255)"/>
<polygon points="246.7,359.6 254.7,359.6 254.7,367.6 246.7,367.6" fill="rgb(255,255,255)"/>
<polygon points="254.7,359.6 262.7,359.6 262.7,367.6 254.7,367.6" fill="rgb(255,255,255)"/>
<polygon points="262.7,359.6 270.7,359.6 270.7,367.6 262.7,367.6" fill="rgb(255,255,255)"/>
<polygon points="270.7,359.6 278.7,359.6 278.7,367.6 270.7,367.6" fill="rgb(255,255,255)"/>
<polygon points="278.7,359.6 286.7,359.6 286.7,367.6 278.7,367.6" fill="rgb(255,255,255)"/>
<polygon points="286.7,359.6 294.7,359.6 294.7,367.6 286.7,367.6" fill="rgb(255,255,255)"/>
<polygon points="82.7,335.6 146.7,335.6 146.7,367.6 82.7,367.6" fill="none" stroke="black" stroke-width="1"/>
<polygon points="156.7,335.6 220.7,335.6 220.7,367.6 156.7,367.6" fill="none" stroke="black" stroke-width="1"/>
<polygon points="230.7,335.6 294.7,335.6 294.7,367.6 230.7,367.6" fill="none" stroke="black" stroke-width="1"/>
<text xml:space="preserve" x="157.35" y="400.6" font-family="Calibri" font-size="8" text-anchor="middle">ClusterAssignment</text>
<polygon points="107.35,407.6 127.35,407.6 127.35,427.6 107.35,427.6" fill="rgb(0,205,0)"/><polygon points="107.35,407.6 127.35,407.6 127.35,427.6 107.35,427.6" fill="none" stroke="black" stroke-width="1"/><text xml:space="preserve" x="117.35" y="420.433" font-family="Calibri" font-size="7.5" fill="rgb(255,255,255)" text-anchor="middle">1.0</text>
<polygon points="127.35,407.6 147.35,407.6 147.35,427.6 127.35,427.6" fill="rgb(127,230,0)"/><polygon points="127.35,407.6 147.35,407.6 147.35,427.6 127.35,427.6" fill="none" stroke="black" stroke-width="1"/><text xml:space="preserve" x="137.35" y="420.433" font-family="Calibri" font-size="7.5" fill="rgb(0,0,0)" text-anchor="middle">2.0</text>
<polygon points="147.35,407.6 167.35,407.6 167.35,427.6 147.35,427.6" fill="rgb(255,255,0)"/><polygon points="147.35,407.6 167.35,407.6 167.35,427.6 147.35,427.6" fill="none" stroke="black" stroke-width="1"/><text xml:space="preserve" x="157.35" y="420.433" font-family="Calibri" font-size="7.5" fill="rgb(0,0,0)" text-anchor="middle">3.0</text>
<polygon points="167.35,407.6 187.35,407.6 187.35,427.6 167.35,427.6" fill="rgb(230,127,0)"/><polygon points="167.35,407.6 187.35,407.6 187.35,427.6 167.35,427.6" fill="none" stroke="black" stroke-width="1"/><text xml:space="preserve" x="177.35" y="420.433" font-family="Calibri" font-size="7.5" fill="rgb(0,0,0)" text-anchor="middle">4.0</text>
<polygon points="187.35,407.6 207.35,407.6 207.35,427.6 187.35,427.6" fill="rgb(205,0,0)"/><polygon points="187.35,407.6 207.35,407.6 207.35,427.6 187.35,427.6" fill="none" stroke="black" stroke-width="1"/><text xml:space="preserve" x="197.35" y="420.433" font-family="Calibri" font-size="7.5" fill="rgb(255,255,255)" text-anchor="middle">5.0</text>
<text xml:space="preserve" x="157.35" y="460.6" font-family="Calibri" font-size="8" text-anchor="middle">Expression</text>
<polygon points="107.35,467.6 127.35,467.6 127.35,487.6 107.35,487.6" fill="rgb(0,27,135)"/><polygon points="107.35,467.6 127.35,467.6 127.35,487.6 107.35,487.6" fill="none" stroke="black" stroke-width="1"/><text xml:space="preserve" x="117.35" y="480.433" font-family="Calibri" font-size="7.5" fill="rgb(255,255,255)" text-anchor="middle">0.0</text>
<polygon points="127.35,467.6 147.35,467.6 147.35,487.6 127.35,487.6" fill="rgb(24,123,140)"/><polygon points="127.35,467.6 147.35,467.6 147.35,487.6 127.35,487.6" fill="none" stroke="black" stroke-width="1"/><text xml:space="preserve" x="137.35" y="480.433" font-family="Calibri" font-size="7.5" fill="rgb(255,255,255)" text-anchor="middle">0.8</text>
<polygon points="147.35,467.6 167.35,467.6 167.35,487.6 147.35,487.6" fill="rgb(49,219,146)"/><polygon points="147.35,467.6 167.35,467.6 167.35,487.6 147.35,487.6" fill="none" stroke="black" stroke-width="1"/><text xml:space="preserve" x="157.35" y="480.433" font-family="Calibri" font-size="7.5" fill="rgb(0,0,0)" text-anchor="middle">1.5</text>
<polygon points="167.35,467.6 187.35,467.6 187.35,487.6 167.35,487.6" fill="rgb(150,206,73)"/><polygon points="167.35,467.6 187.35,467.6 187.35,487.6 167.35,487.6" fill="none" stroke="black" stroke-width="1"/><text xml:space="preserve" x="177.35" y="480.433" font-family="Calibri" font-size="7.5" fill="rgb(0,0,0)" text-anchor="middle">2.2</text>
<polygon points="187.35,467.6 207.35,467.6 207.35,487.6 187.35,487.6" fill="rgb(252,194,1)"/><polygon points="187.35,467.6 207.35,467.6 207.35,487.6 187.35,487.6" fill="none" stroke="black" stroke-width="1"/><text xml:space="preserve" x="197.35" y="480.433" font-family="Calibri" font-size="7.5" fill="rgb(0,0,0)" text-anchor="middle">3.0</text>
<text xml:space="preserve" x="157.35" y="520.6" font-family="Calibri" font-size="8" text-anchor="middle">PANTHERclass</text>
<polygon points="107.35,527.6 127.35,527.6 127.35,547.6 107.35,547.6" fill="rgb(255,255,255)"/><polygon points="107.35,527.6 127.35,527.6 127.35,547.6 107.35,547.6" fill="none" stroke="black" stroke-width="1"/><text xml:space="preserve" x="117.35" y="540.433" font-family="Calibri" font-size="7.5" fill="rgb(0,0,0)" text-anchor="middle">0.0</text>
<polygon points="127.35,527.6 147.35,527.6 147.35,547.6 127.35,547.6" fill="rgb(242,191,242)"/><polygon points="127.35,527.6 147.35,527.6 147.35,547.6 127.35,547.6" fill="none" stroke="black" stroke-width="1"/><text xml:space="preserve" x="137.35" y="540.433" font-family="Calibri" font-size="7.5" fill="rgb(0,0,0)" text-anchor="middle">0.2</text>
<polygon points="147.35,527.6 167.35,527.6 167.35,547.6 147.35,547.6" fill="rgb(230,127,230)"/><polygon points="147.35,527.6 167.35,527.6 167.35,547.6 147.35,547.6" fill="none" stroke="black" stroke-width="1"/><text xml:space="preserve" x="157.35" y="540.433" font-family="Calibri" font-size="7.5" fill="rgb(0,0,0)" text-anchor="middle">0.5</text>
<polygon points="167.35,527.6 187.35,527.6 187.35,547.6 167.35,547.6" fill="rgb(217,63,217)"/><polygon points="167.35,527.6 187.35,527.6 187.35,547.6 167.35,547.6" fill="none" stroke="black" stroke-width="1"/><text xml:space="preserve" x="177.35" y="540.433" font-family="Calibri" font-size="7.5" fill="rgb(255,255,255)" text-anchor="middle">0.8</text>
<polygon points="187.35,527.6 207.35,527.6 207.35,547.6 187.35,547.6" fill="rgb(205,0,205)"/><polygon points="187.35,527.6 207.35,527.6 207.35,547.6 187.35,547.6" fill="none" stroke="black" stroke-width="1"/><text xml:space="preserve" x="197.35" y="540.433" font-family="Calibri" font-size="7.5" fill="rgb(255,255,255)" text-anchor="middle">1.0</text>
</svg>
