<?xml version="1.0" standalone="no"?><!DOCTYPE svg PUBLIC "-//W3C//DTD SVG 1.1//EN" "http://www.w3.org/Graphics/SVG/1.1/DTD/svg11.dtd">
<svg width="359.1" height="583.6" version="1.1" xmlns="http://www.w3.org/2000/svg">
<text xml:space="preserve" x="123.1" y="342.6" font-family="Calibri" font-size="8" text-anchor="end">AC114316.2</text>
<text xml:space="preserve" x="123.1" y="350.6" font-family="Calibri" font-size="8" text-anchor="end">RGMB</text>
<text xml:space="preserve" x="123.1" y="358.6" font-family="Calibri" font-size="8" text-anchor="end">POU2F2</text>
<text xml:space="preserve" x="123.1" y="366.6" font-family="Calibri" font-size="8" text-anchor="end">CBLN1</text>
<text xml:space="preserve" x="123.1" y="374.6" font-family="Calibri" font-size="8" text-anchor="end">CHST1</text>
<text xml:space="preserve" x="123.1" y="382.6" font-family="Calibri" font-size="8" text-anchor="end">GALNT14</text>
<text xml:space="preserve" x="134.1" y="331.6" font-family="Calibri" font-size="8" transform="rotate(270 134.1 331.6)">c2</text>
<text xml:space="preserve" x="142.1" y="331.6" font-family="Calibri" font-size="8" transform="rotate(270 142.1 331.6)">c3</text>
<text xml:space="preserve" x="150.1" y="331.6" font-family="Calibri" font-size="8" transform="rotate(270 150.1 331.6)">c6</text>
<text xml:space="preserve" x="158.1" y="331.6" font-family="Calibri" font-size="8" transform="rotate(270 158.1 331.6)">c4</text>
<text xml:space="preserve" x="166.1" y="331.6" font-family="Calibri" font-size="8" transform="rotate(270 166.1 331.6)">c1</text>
<text xml:space="preserve" x="174.1" y="331.6" font-family="Calibri" font-size="8" transform="rotate(270 174.1 331.6)">c5</text>
<text xml:space="preserve" x="182.1" y="331.6" font-family="Calibri" font-size="8" transform="rotate(270 182.1 331.6)">c7</text>
<text xml:space="preserve" x="190.1" y="331.6" font-family="Calibri" font-size="8" transform="rotate(270 190.1 331.6)">c8</text>
<text xml:space="preserve" x="208.1" y="331.6" font-family="Calibri" font-size="8" transform="rotate(270 208.1 331.6)">c2_mean</text>
<text xml:space="preserve" x="216.1" y="331.6" font-family="Calibri" font-size="8" transform="rotate(270 216.1 331.6)">c3_mean</text>
<text xml:space="preserve" x="224.1" y="331.6" font-family="Calibri" font-size="8" transform="rotate(270 224.1 331.6)">c6_mean</text>
<text xml:space="preserve" x="232.1" y="331.6" font-family="Calibri" font-size="8" transform="rotate(270 232.1 331.6)">c4_mean</text>
<text xml:space="preserve" x="240.1" y="331.6" font-family="Calibri" font-size="8" transform="rotate(270 240.1 331.6)">c1_mean</text>
<text xml:space="preserve" x="248.1" y="331.6" font-family="Calibri" font-size="8" transform="rotate(270 248.1 331.6)">c5_mean</text>
<text xml:space="preserve" x="256.1" y="331.6" font-family="Calibri" font-size="8" transform="rotate(270 256.1 331.6)">c7_mean</text>
<text xml:space="preserve" x="264.1" y="331.6" font-family="Calibri" font-size="8" transform="rotate(270 264.1 331.6)">c8_mean</text>
<text xml:space="preserve" x="282.1" y="331.6" font-family="Calibri" font-size="8" transform="rotate(270 282.1 331.6)">transcription_factor</text>
<text xml:space="preserve" x="290.1" y="331.6" font-family="Calibri" font-size="8" transform="rotate(270 290.1 331.6)">transmembrane_signal_receptor</text>
<text xml:space="preserve" x="298.1" y="331.6" font-family="Calibri" font-size="8" transform="rotate(270 298.1 331.6)">growth_factor</text>
<text xml:space="preserve" x="306.1" y="331.6" font-family="Calibri" font-size="8" transform="rotate(270 306.1 331.6)">peptide_hormone</text>
<text xml:space="preserve" x="314.1" y="331.6" font-family="Calibri" font-size="8" transform="rotate(270 314.1 331.6)">cytoskeletal_protein</text>
<text xml:space="preserve" x="322.1" y="331.6" font-family="Calibri" font-size="8" transform="rotate(270 322.1 331.6)">ion_channel</text>
<text xml:space="preserve" x="330.1" y="331.6" font-family="Calibri" font-size="8" transform="rotate(270 330.1 331.6)">integrin</text>
<text xml:space="preserve" x="338.1" y="331.6" font-family="Calibri" font-size="8" transform="rotate(270 338.1 331.6)">extracellular_matrix_protein</text>
<polygon points="127.1,335.6 135.1,335.6 135.1,343.6 127.1,343.6" fill="rgb(127,230,0)"/><text xml:space="preserve" x="131.1" y="342.433" font-family="Calibri" font-size="7.5" fill="rgb(0,0,0)" text-anchor="middle">2</text>
<polygon points="135.1,335.6 143.1,335.6 143.1,343.6 135.1,343.6" fill="rgb(230,127,0)"/><text xml:space="preserve" x="139.1" y="342.433" font-family="Calibri" font-size="7.5" fill="rgb(0,0,0)" text-anchor="middle">4</text>
<polygon points="143.1,335.6 151.1,335.6 151.1,343.6 143.1,343.6" fill="rgb(230,127,0)"/><text xml:space="preserve" x="147.1" y="342.433" font-family="Calibri" font-size="7.5" fill="rgb(0,0,0)" text-anchor="middle">4</text>
<polygon points="151.1,335.6 159.1,335.6 159.1,343.6 151.1,343.6" fill="rgb(127,230,0)"/><text xml:space="preserve" x="155.1" y="342.433" font-family="Calibri" font-size="7.5" fill="rgb(0,0,0)" text-anchor="middle">2</text>
<polygon points="159.1,335.6 167.1,335.6 167.1,343.6 159.1,343.6" fill="rgb(127,230,0)"/><text xml:space="preserve" x="163.1" y="342.433" font-family="Calibri" font-size="7.5" fill="rgb(0,0,0)" text-anchor="middle">2</text>
<polygon points="167.1,335.6 175.1,335.6 175.1,343.6 167.1,343.6" fill="rgb(230,127,0)"/><text xml:space="preserve" x="171.1" y="342.433" font-family="Calibri" font-size="7.5" fill="rgb(0,0,0)" text-anchor="middle">4</text>
<polygon points="175.1,335.6 183.1,335.6 183.1,343.6 175.1,343.6" fill="rgb(230,127,0)"/><text xml:space="preserve" x="179.1" y="342.433" font-family="Calibri" font-size="7.5" fill="rgb(0,0,0)" text-anchor="middle">4</text>
<polygon points="183.1,335.6 191.1,335.6 191.1,343.6 183.1,343.6" fill="rgb(230,127,0)"/><text xml:space="preserve" x="187.1" y="342.433" font-family="Calibri" font-size="7.5" fill="rgb(0,0,0)" text-anchor="middle">4</text>
<polygon points="201.1,335.6 209.1,335.6 209.1,343.6 201.1,343.6" fill="rgb(9,65,137)"/>
<polygon points="209.1,335.6 217.1,335.6 217.1,343.6 209.1,343.6" fill="rgb(31,149,142)"/>
<polygon points="217.1,335.6 225.1,335.6 225.1,343.6 217.1,343.6" fill="rgb(33,158,142)"/>
<polygon points="225.1,335.6 233.1,335.6 233.1,343.6 225.1,343.6" fill="rgb(9,65,137)"/>
<polygon points="233.1,335.6 241.1,335.6 241.1,343.6 233.1,343.6" fill="rgb(14,83,138)"/>
<polygon points="241.1,335.6 249.1,335.6 249.1,343.6 241.1,343.6" fill="rgb(28,138,141)"/>
<polygon points="249.1,335.6 257.1,335.6 257.1,343.6 249.1,343.6" fill="rgb(36,169,143)"/>
<polygon points="257.1,335.6 265.1,335.6 265.1,343.6 257.1,343.6" fill="rgb(39,183,143)"/>
<polygon points="275.1,335.6 283.1,335.6 283.1,343.6 275.1,343.6" fill="rgb(255,255,255)"/>
<polygon points="283.1,335.6 291.1,335.6 291.1,343.6 283.1,343.6" fill="rgb(255,255,255)"/>
<polygon points="291.1,335.6 299.1,335.6 299.1,343.6 291.1,343.6" fill="rgb(255,255,255)"/>
<polygon points="299.1,335.6 307.1,335.6 307.1,343.6 299.1,343.6" fill="rgb(255,255,255)"/>
<polygon points="307.1,335.6 315.1,335.6 315.1,343.6 307.1,343.6" fill="rgb(255,255,255)"/>
<polygon points="315.1,335.6 323.1,335.6 323.1,343.6 315.1,343.6" fill="rgb(255,255,255)"/>
<polygon points="323.1,335.6 331.1,335.6 331.1,343.6 323.1,343.6" fill="rgb(255,255,255)"/>
<polygon points="331.1,335.6 339.1,335.6 339.1,343.6 331.1,343.6" fill="rgb(255,255,255)"/>
<polygon points="127.1,343.6 135.1,343.6 135.1,351.6 127.1,351.6" fill="rgb(127,230,0)"/><text xml:space="preserve" x="131.1" y="350.433" font-family="Calibri" font-size="7.5" fill="rgb(0,0,0)" text-anchor="middle">2</text>
<polygon points="135.1,343.6 143.1,343.6 143.1,351.6 135.1,351.6" fill="rgb(230,127,0)"/><text xml:space="preserve" x="139.1" y="350.433" font-family="Calibri" font-size="7.5" fill="rgb(0,0,0)" text-anchor="middle">4</text>
<polygon points="143.1,343.6 151.1,343.6 151.1,351.6 143.1,351.6" fill="rgb(230,127,0)"/><text xml:space="preserve" x="147.1" y="350.433" font-family="Calibri" font-size="7.5" fill="rgb(0,0,0)" text-anchor="middle">4</text>
<polygon points="151.1,343.6 159.1,343.6 159.1,351.6 151.1,351.6" fill="rgb(127,230,0)"/><text xml:space="preserve" x="155.1" y="350.433" font-family="Calibri" font-size="7.5" fill="rgb(0,0,0)" text-anchor="middle">2</text>
<polygon points="159.1,343.6 167.1,343.6 167.1,351.6 159.1,351.6" fill="rgb(127,230,0)"/><text xml:space="preserve" x="163.1" y="350.433" font-family="Calibri" font-size="7.5" fill="rgb(0,0,0)" text-anchor="middle">2</text>
<polygon points="167.1,343.6 175.1,343.6 175.1,351.6 167.1,351.6" fill="rgb(230,127,0)"/><text xml:space="preserve" x="171.1" y="350.433" font-family="Calibri" font-size="7.5" fill="rgb(0,0,0)" text-anchor="middle">4</text>
<polygon points="175.1,343.6 183.1,343.6 183.1,351.6 175.1,351.6" fill="rgb(230,127,0)"/><text xml:space="preserve" x="179.1" y="350.433" font-family="Calibri" font-size="7.5" fill="rgb(0,0,0)" text-anchor="middle">4</text>
<polygon points="183.1,343.6 191.1,343.6 191.1,351.6 183.1,351.6" fill="rgb(230,127,0)"/><text xml:space="preserve" x="187.1" y="350.433" font-family="Calibri" font-size="7.5" fill="rgb(0,0,0)" text-anchor="middle">4</text>
<polygon points="201.1,343.6 209.1,343.6 209.1,351.6 201.1,351.6" fill="rgb(14,83,138)"/>
<polygon points="209.1,343.6 217.1,343.6 217.1,351.6 209.1,351.6" fill="rgb(32,156,142)"/>
<polygon points="217.1,343.6 225.1,343.6 225.1,351.6 217.1,351.6" fill="rgb(33,157,142)"/>
<polygon points="225.1,343.6 233.1,343.6 233.1,351.6 225.1,351.6" fill="rgb(13,79,138)"/>
<polygon points="233.1,343.6 241.1,343.6 241.1,351.6 233.1,351.6" fill="rgb(14,82,138)"/>
<polygon points="241.1,343.6 249.1,343.6 249.1,351.6 241.1,351.6" fill="rgb(15,85,138)"/>
<polygon points="249.1,343.6 257.1,343.6 257.1,351.6 249.1,351.6" fill="rgb(25,128,140)"/>
<polygon points="257.1,343.6 265.1,343.6 265.1,351.6 257.1,351.6" fill="rgb(31,149,142)"/>
<polygon points="275.1,343.6 283.1,343.6 283.1,351.6 275.1,351.6" fill="rgb(255,255,255)"/>
<polygon points="283.1,343.6 291.1,343.6 291.1,351.6 283.1,351.6" fill="rgb(255,255,255)"/>
<polygon points="291.1,343.6 299.1,343.6 299.1,351.6 291.1,351.6" fill="rgb(255,255,255)"/>
<polygon points="299.1,343.6 307.1,343.6 307.1,351.6 299.1,351.6" fill="rgb(255,255,255)"/>
<polygon points="307.1,343.6 315.1,343.6 315.1,351.6 307.1,351.6" fill="rgb(255,255,255)"/>
<polygon points="315.1,343.6 323.1,343.6 323.1,351.6 315.1,351.6" fill="rgb(255,255,255)"/>
<polygon points="323.1,343.6 331.1,343.6 331.1,351.6 323.1,351.6" fill="rgb(255,255,255)"/>
<polygon points="331.1,343.6 339.1,343.6 339.1,351.6 331.1,351.6" fill="rgb(255,255,255)"/>
<polygon points="127.1,351.6 135.1,351.6 135.1,359.6 127.1,359.6" fill="rgb(127,230,0)"/><text xml:space="preserve" x="131.1" y="358.433" font-family="Calibri" font-size="7.5" fill="rgb(0,0,0)" text-anchor="middle">2</text>
<polygon points="135.1,351.6 143.1,351.6 143.1,359.6 135.1,359.6" fill="rgb(230,127,0)"/><text xml:space="preserve" x="139.1" y="358.433" font-family="Calibri" font-size="7.5" fill="rgb(0,0,0)" text-anchor="middle">4</text>
<polygon points="143.1,351.6 151.1,351.6 151.1,359.6 143.1,359.6" fill="rgb(230,127,0)"/><text xml:space="preserve" x="147.1" y="358.433" font-family="Calibri" font-size="7.5" fill="rgb(0,0,0)" text-anchor="middle">4</text>
<polygon points="151.1,351.6 159.1,351.6 159.1,359.6 151.1,359.6" fill="rgb(127,230,0)"/><text xml:space="preserve" x="155.1" y="358.433" font-family="Calibri" font-size="7.5" fill="rgb(0,0,0)" text-anchor="middle">2</text>
<polygon points="159.1,351.6 167.1,351.6 167.1,359.6 159.1,359.6" fill="rgb(127,230,0)"/><text xml:space="preserve" x="163.1" y="358.433" font-family="Calibri" font-size="7.5" fill="rgb(0,0,0)" text-anchor="middle">2</text>
<polygon points="167.1,351.6 175.1,351.6 175.1,359.6 167.1,359.6" fill="rgb(230,127,0)"/><text xml:space="preserve" x="171.1" y="358.433" font-family="Calibri" font-size="7.5" fill="rgb(0,0,0)" text-anchor="middle">4</text>
<polygon points="175.1,351.6 183.1,351.6 183.1,359.6 175.1,359.6" fill="rgb(230,127,0)"/><text xml:space="preserve" x="179.1" y="358.433" font-family="Calibri" font-size="7.5" fill="rgb(0,0,0)" text-anchor="middle">4</text>
<polygon points="183.1,351.6 191.1,351.6 191.1,359.6 183.1,359.6" fill="rgb(230,127,0)"/><text xml:space="preserve" x="187.1" y="358.433" font-family="Calibri" font-size="7.5" fill="rgb(0,0,0)" text-anchor="middle">4</text>
<polygon points="201.1,351.6 209.1,351.6 209.1,359.6 201.1,359.6" fill="rgb(12,75,137)"/>
<polygon points="209.1,351.6 217.1,351.6 217.1,359.6 209.1,359.6" fill="rgb(21,112,139)"/>
<polygon points="217.1,351.6 225.1,351.6 225.1,359.6 217.1,359.6" fill="rgb(28,139,141)"/>
<polygon points="225.1,351.6 233.1,351.6 233.1,359.6 225.1,359.6" fill="rgb(6,53,136)"/>
<polygon points="233.1,351.6 241.1,351.6 241.1,359.6 233.1,359.6" fill="rgb(6,51,136)"/>
<polygon points="241.1,351.6 249.1,351.6 249.1,359.6 241.1,359.6" fill="rgb(47,213,145)"/>
<polygon points="249.1,351.6 257.1,351.6 257.1,359.6 249.1,359.6" fill="rgb(36,171,143)"/>
<polygon points="257.1,351.6 265.1,351.6 265.1,359.6 257.1,359.6" fill="rgb(37,175,143)"/>
<polygon points="275.1,351.6 283.1,351.6 283.1,359.6 275.1,359.6" fill="rgb(205,0,205)"/>
<polygon points="283.1,351.6 291.1,351.6 291.1,359.6 283.1,359.6" fill="rgb(255,255,255)"/>
<polygon points="291.1,351.6 299.1,351.6 299.1,359.6 291.1,359.6" fill="rgb(255,255,255)"/>
<polygon points="299.1,351.6 307.1,351.6 307.1,359.6 299.1,359.6" fill="rgb(255,255,255)"/>
<polygon points="307.1,351.6 315.1,351.6 315.1,359.6 307.1,359.6" fill="rgb(255,255,255)"/>
<polygon points="315.1,351.6 323.1,351.6 323.1,359.6 315.1,359.6" fill="rgb(255,255,255)"/>
<polygon points="323.1,351.6 331.1,351.6 331.1,359.6 323.1,359.6" fill="rgb(255,255,255)"/>
<polygon points="331.1,351.6 339.1,351.6 339.1,359.6 331.1,359.6" fill="rgb(255,255,255)"/>
<polygon points="127.1,359.6 135.1,359.6 135.1,367.6 127.1,367.6" fill="rgb(127,230,0)"/><text xml:space="preserve" x="131.1" y="366.433" font-family="Calibri" font-size="7.5" fill="rgb(0,0,0)" text-anchor="middle">2</text>
<polygon points="135.1,359.6 143.1,359.6 143.1,367.6 135.1,367.6" fill="rgb(230,127,0)"/><text xml:space="preserve" x="139.1" y="366.433" font-family="Calibri" font-size="7.5" fill="rgb(0,0,0)" text-anchor="middle">4</text>
<polygon points="143.1,359.6 151.1,359.6 151.1,367.6 143.1,367.6" fill="rgb(230,127,0)"/><text xml:space="preserve" x="147.1" y="366.433" font-family="Calibri" font-size="7.5" fill="rgb(0,0,0)" text-anchor="middle">4</text>
<polygon points="151.1,359.6 159.1,359.6 159.1,367.6 151.1,367.6" fill="rgb(127,230,0)"/><text xml:space="preserve" x="155.1" y="366.433" font-family="Calibri" font-size="7.5" fill="rgb(0,0,0)" text-anchor="middle">2</text>
<polygon points="159.1,359.6 167.1,359.6 167.1,367.6 159.1,367.6" fill="rgb(127,230,0)"/><text xml:space="preserve" x="163.1" y="366.433" font-family="Calibri" font-size="7.5" fill="rgb(0,0,0)" text-anchor="middle">2</text>
<polygon points="167.1,359.6 175.1,359.6 175.1,367.6 167.1,367.6" fill="rgb(230,127,0)"/><text xml:space="preserve" x="171.1" y="366.433" font-family="Calibri" font-size="7.5" fill="rgb(0,0,0)" text-anchor="middle">4</text>
<polygon points="175.1,359.6 183.1,359.6 183.1,367.6 175.1,367.6" fill="rgb(230,127,0)"/><text xml:space="preserve" x="179.1" y="366.433" font-family="Calibri" font-size="7.5" fill="rgb(0,0,0)" text-anchor="middle">4</text>
<polygon points="183.1,359.6 191.1,359.6 191.1,367.6 183.1,367.6" fill="rgb(230,127,0)"/><text xml:space="preserve" x="187.1" y="366.433" font-family="Calibri" font-size="7.5" fill="rgb(0,0,0)" text-anchor="middle">4</text>
<polygon points="201.1,359.6 209.1,359.6 209.1,367.6 201.1,367.6" fill="rgb(11,70,137)"/>
<polygon points="209.1,359.6 217.1,359.6 217.1,367.6 209.1,367.6" fill="rgb(36,171,143)"/>
<polygon points="217.1,359.6 225.1,359.6 225.1,367.6 217.1,367.6" fill="rgb(26,129,140)"/>
<polygon points="225.1,359.6 233.1,359.6 233.1,367.6 225.1,367.6" fill="rgb(5,47,136)"/>
<polygon points="233.1,359.6 241.1,359.6 241.1,367.6 233.1,367.6" fill="rgb(2,38,135)"/>
<polygon points="241.1,359.6 249.1,359.6 249.1,367.6 241.1,367.6" fill="rgb(20,106,139)"/>
<polygon points="249.1,359.6 257.1,359.6 257.1,367.6 249.1,367.6" fill="rgb(26,131,141)"/>
<polygon points="257.1,359.6 265.1,359.6 265.1,367.6 257.1,367.6" fill="rgb(24,123,140)"/>
<polygon points="275.1,359.6 283.1,359.6 283.1,367.6 275.1,367.6" fill="rgb(255,255,255)"/>
<polygon points="283.1,359.6 291.1,359.6 291.1,367.6 283.1,367.6" fill="rgb(255,255,255)"/>
<polygon points="291.1,359.6 299.1,359.6 299.1,367.6 291.1,367.6" fill="rgb(255,255,255)"/>
<polygon points="299.1,359.6 307.1,359.6 307.1,367.6 299.1,367.6" fill="rgb(255,255,255)"/>
<polygon points="307.1,359.6 315.1,359.6 315.1,367.6 307.1,367.6" fill="rgb(255,255,255)"/>
<polygon points="315.1,359.6 323.1,359.6 323.1,367.6 315.1,367.6" fill="rgb(255,255,255)"/>
<polygon points="323.1,359.6 331.1,359.6 331.1,367.6 323.1,367.6" fill="rgb(255,255,255)"/>
<polygon points="331.1,359.6 339.1,359.6 339.1,367.6 331.1,367.6" fill="rgb(255,255,255)"/>
<polygon points="127.1,367.6 135.1,367.6 135.1,375.6 127.1,375.6" fill="rgb(127,230,0)"/><text xml:space="preserve" x="131.1" y="374.433" font-family="Calibri" font-size="7.5" fill="rgb(0,0,0)" text-anchor="middle">2</text>
<polygon points="135.1,367.6 143.1,367.6 143.1,375.6 135.1,375.6" fill="rgb(230,127,0)"/><text xml:space="preserve" x="139.1" y="374.433" font-family="Calibri" font-size="7.5" fill="rgb(0,0,0)" text-anchor="middle">4</text>
<polygon points="143.1,367.6 151.1,367.6 151.1,375.6 143.1,375.6" fill="rgb(230,127,0)"/><text xml:space="preserve" x="147.1" y="374.433" font-family="Calibri" font-size="7.5" fill="rgb(0,0,0)" text-anchor="middle">4</text>
<polygon points="151.1,367.6 159.1,367.6 159.1,375.6 151.1,375.6" fill="rgb(127,230,0)"/><text xml:space="preserve" x="155.1" y="374.433" font-family="Calibri" font-size="7.5" fill="rgb(0,0,0)" text-anchor="middle">2</text>
<polygon points="159.1,367.6 167.1,367.6 167.1,375.6 159.1,375.6" fill="rgb(127,230,0)"/><text xml:space="preserve" x="163.1" y="374.433" font-family="Calibri" font-size="7.5" fill="rgb(0,0,0)" text-anchor="middle">2</text>
<polygon points="167.1,367.6 175.1,367.6 175.1,375.6 167.1,375.6" fill="rgb(230,127,0)"/><text xml:space="preserve" x="171.1" y="374.433" font-family="Calibri" font-size="7.5" fill="rgb(0,0,0)" text-anchor="middle">4</text>
<polygon points="175.1,367.6 183.1,367.6 183.1,375.6 175.1,375.6" fill="rgb(230,127,0)"/><text xml:space="preserve" x="179.1" y="374.433" font-family="Calibri" font-size="7.5" fill="rgb(0,0,0)" text-anchor="middle">4</text>
<polygon points="183.1,367.6 191.1,367.6 191.1,375.6 183.1,375.6" fill="rgb(230,127,0)"/><text xml:space="preserve" x="187.1" y="374.433" font-family="Calibri" font-size="7.5" fill="rgb(0,0,0)" text-anchor="middle">4</text>
<polygon points="201.1,367.6 209.1,367.6 209.1,375.6 201.1,375.6" fill="rgb(15,88,138)"/>
<polygon points="209.1,367.6 217.1,367.6 217.1,375.6 209.1,375.6" fill="rgb(32,155,142)"/>
<polygon points="217.1,367.6 225.1,367.6 225.1,375.6 217.1,375.6" fill="rgb(36,170,143)"/>
<polygon points="225.1,367.6 233.1,367.6 233.1,375.6 225.1,375.6" fill="rgb(14,83,138)"/>
<polygon points="233.1,367.6 241.1,367.6 241.1,375.6 233.1,375.6" fill="rgb(8,61,136)"/>
<polygon points="241.1,367.6 249.1,367.6 249.1,375.6 241.1,375.6" fill="rgb(33,157,142)"/>
<polygon points="249.1,367.6 257.1,367.6 257.1,375.6 249.1,375.6" fill="rgb(21,112,139)"/>
<polygon points="257.1,367.6 265.1,367.6 265.1,375.6 257.1,375.6" fill="rgb(23,119,140)"/>
<polygon points="275.1,367.6 283.1,367.6 283.1,375.6 275.1,375.6" fill="rgb(255,255,255)"/>
<polygon points="283.1,367.6 291.1,367.6 291.1,375.6 283.1,375.6" fill="rgb(255,255,255)"/>
<polygon points="291.1,367.6 299.1,367.6 299.1,375.6 291.1,375.6" fill="rgb(255,255,255)"/>
<polygon points="299.1,367.6 307.1,367.6 307.1,375.6 299.1,375.6" fill="rgb(255,255,255)"/>
<polygon points="307.1,367.6 315.1,367.6 315.1,375.6 307.1,375.6" fill="rgb(255,255,255)"/>
<polygon points="315.1,367.6 323.1,367.6 323.1,375.6 315.1,375.6" fill="rgb(255,255,255)"/>
<polygon points="323.1,367.6 331.1,367.6 331.1,375.6 323.1,375.6" fill="rgb(255,255,255)"/>
<polygon points="331.1,367.6 339.1,367.6 339.1,375.6 331.1,375.6" fill="rgb(255,255,255)"/>
<polygon points="127.1,375.6 135.1,375.6 135.1,383.6 127.1,383.6" fill="rgb(127,230,0)"/><text xml:space="preserve" x="131.1" y="382.433" font-family="Calibri" font-size="7.5" fill="rgb(0,0,0)" text-anchor="middle">2</text>
<polygon points="135.1,375.6 143.1,375.6 143.1,383.6 135.1,383.6" fill="rgb(230,127,0)"/><text xml:space="preserve" x="139.1" y="382.433" font-family="Calibri" font-size="7.5" fill="rgb(0,0,0)" text-anchor="middle">4</text>
<polygon points="143.1,375.6 151.1,375.6 151.1,383.6 143.1,383.6" fill="rgb(230,127,0)"/><text xml:space="preserve" x="147.1" y="382.433" font-family="Calibri" font-size="7.5" fill="rgb(0,0,0)" text-anchor="middle">4</text>
<polygon points="151.1,375.6 159.1,375.6 159.1,383.6 151.1,383.6" fill="rgb(127,230,0)"/><text xml:space="preserve" x="155.1" y="382.433" font-family="Calibri" font-size="7.5" fill="rgb(0,0,0)" text-anchor="middle">2</text>
<polygon points="159.1,375.6 167.1,375.6 167.1,383.6 159.1,383.6" fill="rgb(127,230,0)"/><text xml:space="preserve" x="163.1" y="382.433" font-family="Calibri" font-size="7.5" fill="rgb(0,0,0)" text-anchor="middle">2</text>
<polygon points="167.1,375.6 175.1,375.6 175.1,383.6 167.1,383.6" fill="rgb(230,127,0)"/><text xml:space="preserve" x="171.1" y="382.433" font-family="Calibri" font-size="7.5" fill="rgb(0,0,0)" text-anchor="middle">4</text>
<polygon points="175.1,375.6 183.1,375.6 183.1,383.6 175.1,383.6" fill="rgb(230,127,0)"/><text xml:space="preserve" x="179.1" y="382.433" font-family="Calibri" font-size="7.5" fill="rgb(0,0,0)" text-anchor="middle">4</text>
<polygon points="183.1,375.6 191.1,375.6 191.1,383.6 183.1,383.6" fill="rgb(230,127,0)"/><text xml:space="preserve" x="187.1" y="382.433" font-family="Calibri" font-size="7.5" fill="rgb(0,0,0)" text-anchor="middle">4</text>
<polygon points="201.1,375.6 209.1,375.6 209.1,383.6 201.1,383.6" fill="rgb(5,48,136)"/>
<polygon points="209.1,375.6 217.1,375.6 217.1,383.6 209.1,383.6" fill="rgb(25,128,140)"/>
<polygon points="217.1,375.6 225.1,375.6 225.1,383.6 217.1,383.6" fill="rgb(36,170,143)"/>
<polygon points="225.1,375.6 233.1,375.6 233.1,383.6 225.1,383.6" fill="rgb(16,89,138)"/>
<polygon points="233.1,375.6 241.1,375.6 241.1,383.6 233.1,383.6" fill="rgb(13,79,138)"/>
<polygon points="241.1,375.6 249.1,375.6 249.1,383.6 241.1,383.6" fill="rgb(30,147,141)"/>
<polygon points="249.1,375.6 257.1,375.6 257.1,383.6 249.1,383.6" fill="rgb(20,108,139)"/>
<polygon points="257.1,375.6 265.1,375.6 265.1,383.6 257.1,383.6" fill="rgb(22,116,140)"/>
<polygon points="275.1,375.6 283.1,375.6 283.1,383.6 275.1,383.6" fill="rgb(255,255,255)"/>
<polygon points="283.1,375.6 291.1,375.6 291.1,383.6 283.1,383.6" fill="rgb(255,255,255)"/>
<polygon points="291.1,375.6 299.1,375.6 299.1,383.6 291.1,383.6" fill="rgb(255,255,255)"/>
<polygon points="299.1,375.6 307.1,375.6 307.1,383.6 299.1,383.6" fill="rgb(255,255,255)"/>
<polygon points="307.1,375.6 315.1,375.6 315.1,383.6 307.1,383.6" fill="rgb(255,255,255)"/>
<polygon points="315.1,375.6 323.1,375.6 323.1,383.6 315.1,383.6" fill="rgb(255,255,255)"/>
<polygon points="323.1,375.6 331.1,375.6 331.1,383.6 323.1,383.6" fill="rgb(255,255,255)"/>
<polygon points="331.1,375.6 339.1,375.6 339.1,383.6 331.1,383.6" fill="rgb(255,255,255)"/>
<polygon points="127.1,335.6 191.1,335.6 191.1,383.6 127.1,383.6" fill="none" stroke="black" stroke-width="1"/>
<polygon points="201.1,335.6 265.1,335.6 265.1,383.6 201.1,383.6" fill="none" stroke="black" stroke-width="1"/>
<polygon points="275.1,335.6 339.1,335.6 339.1,383.6 275.1,383.6" fill="none" stroke="black" stroke-width="1"/>
<text xml:space="preserve" x="179.55" y="416.6" font-family="Calibri" font-size="8" text-anchor="middle">ClusterAssignment</text>
<polygon points="129.55,423.6 149.55,423.6 149.55,443.6 129.55,443.6" fill="rgb(0,205,0)"/><polygon points="129.55,423.6 149.55,423.6 149.55,443.6 129.55,443.6" fill="none" stroke="black" stroke-width="1"/><text xml:space="preserve" x="139.55" y="436.433" font-family="Calibri" font-size="7.5" fill="rgb(255,255,255)" text-anchor="middle">1.0</text>
<polygon points="149.55,423.6 169.55,423.6 169.55,443.6 149.55,443.6" fill="rgb(127,230,0)"/><polygon points="149.55,423.6 169.55,423.6 169.55,443.6 149.55,443.6" fill="none" stroke="black" stroke-width="1"/><text xml:space="preserve" x="159.55" y="436.433" font-family="Calibri" font-size="7.5" fill="rgb(0,0,0)" text-anchor="middle">2.0</text>
<polygon points="169.55,423.6 189.55,423.6 189.55,443.6 169.55,443.6" fill="rgb(255,255,0)"/><polygon points="169.55,423.6 189.55,423.6 189.55,443.6 169.55,443.6" fill="none" stroke="black" stroke-width="1"/><text xml:space="preserve" x="179.55" y="436.433" font-family="Calibri" font-size="7.5" fill="rgb(0,0,0)" text-anchor="middle">3.0</text>
<polygon points="189.55,423.6 209.55,423.6 209.55,443.6 189.55,443.6" fill="rgb(230,127,0)"/><polygon points="189.55,423.6 209.55,423.6 209.55,443.6 189.55,443.6" fill="none" stroke="black" stroke-width="1"/><text xml:space="preserve" x="199.55" y="436.433" font-family="Calibri" font-size="7.5" fill="rgb(0,0,0)" text-anchor="middle">4.0</text>
<polygon points="209.55,423.6 229.55,423.6 229.55,443.6 209.55,443.6" fill="rgb(205,0,0)"/><polygon points="209.55,423.6 229.55,423.6 229.55,443.6 209.55,443.6" fill="none" stroke="black" stroke-width="1"/><text xml:space="preserve" x="219.55" y="436.433" font-family="Calibri" font-size="7.5" fill="rgb(255,255,255)" text-anchor="middle">5.0</text>
<text xml:space="preserve" x="179.55" y="476.6" font-family="Calibri" font-size="8" text-anchor="middle">Expression</text>
<polygon points="129.55,483.6 149.55,483.6 149.55,503.6 129.55,503.6" fill="rgb(0,27,135)"/><polygon points="129.55,483.6 149.55,483.6 149.55,503.6 129.55,503.6" fill="none" stroke="black" stroke-width="1"/><text xml:space="preserve" x="139.55" y="496.433" font-family="Calibri" font-size="7.5" fill="rgb(255,255,255)" text-anchor="middle">0.0</text>
<polygon points="149.55,483.6 169.55,483.6 169.55,503.6 149.55,503.6" fill="rgb(24,123,140)"/><polygon points="149.55,483.6 169.55,483.6 169.55,503.6 149.55,503.6" fill="none" stroke="black" stroke-width="1"/><text xml:space="preserve" x="159.55" y="496.433" font-family="Calibri" font-size="7.5" fill="rgb(255,255,255)" text-anchor="middle">0.8</text>
<polygon points="169.55,483.6 189.55,483.6 189.55,503.6 169.55,503.6" fill="rgb(49,219,146)"/><polygon points="169.55,483.6 189.55,483.6 189.55,503.6 169.55,503.6" fill="none" stroke="black" stroke-width="1"/><text xml:space="preserve" x="179.55" y="496.433" font-family="Calibri" font-size="7.5" fill="rgb(0,0,0)" text-anchor="middle">1.5</text>
<polygon points="189.55,483.6 209.55,483.6 209.55,503.6 189.55,503.6" fill="rgb(150,206,73)"/><polygon points="189.55,483.6 209.55,483.6 209.55,503.6 189.55,503.6" fill="none" stroke="black" stroke-width="1"/><text xml:space="preserve" x="199.55" y="496.433" font-family="Calibri" font-size="7.5" fill="rgb(0,0,0)" text-anchor="middle">2.2</text>
<polygon points="209.55,483.6 229.55,483.6 229.55,503.6 209.55,503.6" fill="rgb(252,194,1)"/><polygon points="209.55,483.6 229.55,483.6 229.55,503.6 209.55,503.6" fill="none" stroke="black" stroke-width="1"/><text xml:space="preserve" x="219.55" y="496.433" font-family="Calibri" font-size="7.5" fill="rgb(0,0,0)" text-anchor="middle">3.0</text>
<text xml:space="preserve" x="179.55" y="536.6" font-family="Calibri" font-size="8" text-anchor="middle">PANTHERclass</text>
<polygon points="129.55,543.6 149.55,543.6 149.55,563.6 129.55,563.6" fill="rgb(255,255,255)"/><polygon points="129.55,543.6 149.55,543.6 149.55,563.6 129.55,563.6" fill="none" stroke="black" stroke-width="1"/><text xml:space="preserve" x="139.55" y="556.433" font-family="Calibri" font-size="7.5" fill="rgb(0,0,0)" text-anchor="middle">0.0</text>
<polygon points="149.55,543.6 169.55,543.6 169.55,563.6 149.55,563.6" fill="rgb(242,191,242)"/><polygon points="149.55,543.6 169.55,543.6 169.55,563.6 149.55,563.6" fill="none" stroke="black" stroke-width="1"/><text xml:space="preserve" x="159.55" y="556.433" font-family="Calibri" font-size="7.5" fill="rgb(0,0,0)" text-anchor="middle">0.2</text>
<polygon points="169.55,543.6 189.55,543.6 189.55,563.6 169.55,563.6" fill="rgb(230,127,230)"/><polygon points="169.55,543.6 189.55,543.6 189.55,563.6 169.55,563.6" fill="none" stroke="black" stroke-width="1"/><text xml:space="preserve" x="179.55" y="556.433" font-family="Calibri" font-size="7.5" fill="rgb(0,0,0)" text-anchor="middle">0.5</text>
<polygon points="189.55,543.6 209.55,543.6 209.55,563.6 189.55,563.6" fill="rgb(217,63,217)"/><polygon points="189.55,543.6 209.55,543.6 209.55,563.6 189.55,563.6" fill="none" stroke="black" stroke-width="1"/><text xml:space="preserve" x="199.55" y="556.433" font-family="Calibri" font-size="7.5" fill="rgb(255,255,255)" text-anchor="middle">0.8</text>
<polygon points="209.55,543.6 229.55,543.6 229.55,563.6 209.55,563.6" fill="rgb(205,0,205)"/><polygon points="209.55,543.6 229.55,543.6 229.55,563.6 209.55,563.6" fill="none" stroke="black" stroke-width="1"/><text xml:space="preserve" x="219.55" y="556.433" font-family="Calibri" font-size="7.5" fill="rgb(255,255,255)" text-anchor="middle">1.0</text>
</svg>
