<?xml version="1.0" standalone="no"?><!DOCTYPE svg PUBLIC "-//W3C//DTD SVG 1.1//EN" "http://www.w3.org/Graphics/SVG/1.1/DTD/svg11.dtd">
<svg width="345" height="567.6" version="1.1" xmlns="http://www.w3.org/2000/svg">
<text xml:space="preserve" x="109" y="342.6" font-family="Calibri" font-size="8" text-anchor="end">FAM84B</text>
<text xml:space="preserve" x="109" y="350.6" font-family="Calibri" font-size="8" text-anchor="end">MEGF10</text>
<text xml:space="preserve" x="109" y="358.6" font-family="Calibri" font-size="8" text-anchor="end">HOXC9</text>
<text xml:space="preserve" x="109" y="366.6" font-family="Calibri" font-size="8" text-anchor="end">HOXC-AS1</text>
<text xml:space="preserve" x="120" y="331.6" font-family="Calibri" font-size="8" transform="rotate(270 120 331.6)">c2</text>
<text xml:space="preserve" x="128" y="331.6" font-family="Calibri" font-size="8" transform="rotate(270 128 331.6)">c3</text>
<text xml:space="preserve" x="136" y="331.6" font-family="Calibri" font-size="8" transform="rotate(270 136 331.6)">c6</text>
<text xml:space="preserve" x="144" y="331.6" font-family="Calibri" font-size="8" transform="rotate(270 144 331.6)">c4</text>
<text xml:space="preserve" x="152" y="331.6" font-family="Calibri" font-size="8" transform="rotate(270 152 331.6)">c1</text>
<text xml:space="preserve" x="160" y="331.6" font-family="Calibri" font-size="8" transform="rotate(270 160 331.6)">c5</text>
<text xml:space="preserve" x="168" y="331.6" font-family="Calibri" font-size="8" transform="rotate(270 168 331.6)">c7</text>
<text xml:space="preserve" x="176" y="331.6" font-family="Calibri" font-size="8" transform="rotate(270 176 331.6)">c8</text>
<text xml:space="preserve" x="194" y="331.6" font-family="Calibri" font-size="8" transform="rotate(270 194 331.6)">c2_mean</text>
<text xml:space="preserve" x="202" y="331.6" font-family="Calibri" font-size="8" transform="rotate(270 202 331.6)">c3_mean</text>
<text xml:space="preserve" x="210" y="331.6" font-family="Calibri" font-size="8" transform="rotate(270 210 331.6)">c6_mean</text>
<text xml:space="preserve" x="218" y="331.6" font-family="Calibri" font-size="8" transform="rotate(270 218 331.6)">c4_mean</text>
<text xml:space="preserve" x="226" y="331.6" font-family="Calibri" font-size="8" transform="rotate(270 226 331.6)">c1_mean</text>
<text xml:space="preserve" x="234" y="331.6" font-family="Calibri" font-size="8" transform="rotate(270 234 331.6)">c5_mean</text>
<text xml:space="preserve" x="242" y="331.6" font-family="Calibri" font-size="8" transform="rotate(270 242 331.6)">c7_mean</text>
<text xml:space="preserve" x="250" y="331.6" font-family="Calibri" font-size="8" transform="rotate(270 250 331.6)">c8_mean</text>
<text xml:space="preserve" x="268" y="331.6" font-family="Calibri" font-size="8" transform="rotate(270 268 331.6)">transcription_factor</text>
<text xml:space="preserve" x="276" y="331.6" font-family="Calibri" font-size="8" transform="rotate(270 276 331.6)">transmembrane_signal_receptor</text>
<text xml:space="preserve" x="284" y="331.6" font-family="Calibri" font-size="8" transform="rotate(270 284 331.6)">growth_factor</text>
<text xml:space="preserve" x="292" y="331.6" font-family="Calibri" font-size="8" transform="rotate(270 292 331.6)">peptide_hormone</text>
<text xml:space="preserve" x="300" y="331.6" font-family="Calibri" font-size="8" transform="rotate(270 300 331.6)">cytoskeletal_protein</text>
<text xml:space="preserve" x="308" y="331.6" font-family="Calibri" font-size="8" transform="rotate(270 308 331.6)">ion_channel</text>
<text xml:space="preserve" x="316" y="331.6" font-family="Calibri" font-size="8" transform="rotate(270 316 331.6)">integrin</text>
<text xml:space="preserve" x="324" y="331.6" font-family="Calibri" font-size="8" transform="rotate(270 324 331.6)">extracellular_matrix_protein</text>
<polygon points="113,335.6 121,335.6 121,343.6 113,343.6" fill="rgb(0,205,0)"/><text xml:space="preserve" x="117" y="342.433" font-family="Calibri" font-size="7.5" fill="rgb(255,255,255)" text-anchor="middle">1</text>
<polygon points="121,335.6 129,335.6 129,343.6 121,343.6" fill="rgb(0,205,0)"/><text xml:space="preserve" x="125" y="342.433" font-family="Calibri" font-size="7.5" fill="rgb(255,255,255)" text-anchor="middle">1</text>
<polygon points="129,335.6 137,335.6 137,343.6 129,343.6" fill="rgb(0,205,0)"/><text xml:space="preserve" x="133" y="342.433" font-family="Calibri" font-size="7.5" fill="rgb(255,255,255)" text-anchor="middle">1</text>
<polygon points="137,335.6 145,335.6 145,343.6 137,343.6" fill="rgb(255,255,0)"/><text xml:space="preserve" x="141" y="342.433" font-family="Calibri" font-size="7.5" fill="rgb(0,0,0)" text-anchor="middle">3</text>
<polygon points="145,335.6 153,335.6 153,343.6 145,343.6" fill="rgb(255,255,0)"/><text xml:space="preserve" x="149" y="342.433" font-family="Calibri" font-size="7.5" fill="rgb(0,0,0)" text-anchor="middle">3</text>
<polygon points="153,335.6 161,335.6 161,343.6 153,343.6" fill="rgb(230,127,0)"/><text xml:space="preserve" x="157" y="342.433" font-family="Calibri" font-size="7.5" fill="rgb(0,0,0)" text-anchor="middle">4</text>
<polygon points="161,335.6 169,335.6 169,343.6 161,343.6" fill="rgb(0,205,0)"/><text xml:space="preserve" x="165" y="342.433" font-family="Calibri" font-size="7.5" fill="rgb(255,255,255)" text-anchor="middle">1</text>
<polygon points="169,335.6 177,335.6 177,343.6 169,343.6" fill="rgb(0,205,0)"/><text xml:space="preserve" x="173" y="342.433" font-family="Calibri" font-size="7.5" fill="rgb(255,255,255)" text-anchor="middle">1</text>
<polygon points="187,335.6 195,335.6 195,343.6 187,343.6" fill="rgb(7,57,136)"/>
<polygon points="195,335.6 203,335.6 203,343.6 195,343.6" fill="rgb(6,52,136)"/>
<polygon points="203,335.6 211,335.6 211,343.6 203,343.6" fill="rgb(3,41,135)"/>
<polygon points="211,335.6 219,335.6 219,343.6 211,343.6" fill="rgb(20,108,139)"/>
<polygon points="219,335.6 227,335.6 227,343.6 219,343.6" fill="rgb(14,83,138)"/>
<polygon points="227,335.6 235,335.6 235,343.6 227,343.6" fill="rgb(25,128,140)"/>
<polygon points="235,335.6 243,335.6 243,343.6 235,343.6" fill="rgb(2,38,135)"/>
<polygon points="243,335.6 251,335.6 251,343.6 243,343.6" fill="rgb(3,42,135)"/>
<polygon points="261,335.6 269,335.6 269,343.6 261,343.6" fill="rgb(255,255,255)"/>
<polygon points="269,335.6 277,335.6 277,343.6 269,343.6" fill="rgb(255,255,255)"/>
<polygon points="277,335.6 285,335.6 285,343.6 277,343.6" fill="rgb(255,255,255)"/>
<polygon points="285,335.6 293,335.6 293,343.6 285,343.6" fill="rgb(255,255,255)"/>
<polygon points="293,335.6 301,335.6 301,343.6 293,343.6" fill="rgb(255,255,255)"/>
<polygon points="301,335.6 309,335.6 309,343.6 301,343.6" fill="rgb(255,255,255)"/>
<polygon points="309,335.6 317,335.6 317,343.6 309,343.6" fill="rgb(255,255,255)"/>
<polygon points="317,335.6 325,335.6 325,343.6 317,343.6" fill="rgb(255,255,255)"/>
<polygon points="113,343.6 121,343.6 121,351.6 113,351.6" fill="rgb(0,205,0)"/><text xml:space="preserve" x="117" y="350.433" font-family="Calibri" font-size="7.5" fill="rgb(255,255,255)" text-anchor="middle">1</text>
<polygon points="121,343.6 129,343.6 129,351.6 121,351.6" fill="rgb(0,205,0)"/><text xml:space="preserve" x="125" y="350.433" font-family="Calibri" font-size="7.5" fill="rgb(255,255,255)" text-anchor="middle">1</text>
<polygon points="129,343.6 137,343.6 137,351.6 129,351.6" fill="rgb(0,205,0)"/><text xml:space="preserve" x="133" y="350.433" font-family="Calibri" font-size="7.5" fill="rgb(255,255,255)" text-anchor="middle">1</text>
<polygon points="137,343.6 145,343.6 145,351.6 137,351.6" fill="rgb(255,255,0)"/><text xml:space="preserve" x="141" y="350.433" font-family="Calibri" font-size="7.5" fill="rgb(0,0,0)" text-anchor="middle">3</text>
<polygon points="145,343.6 153,343.6 153,351.6 145,351.6" fill="rgb(255,255,0)"/><text xml:space="preserve" x="149" y="350.433" font-family="Calibri" font-size="7.5" fill="rgb(0,0,0)" text-anchor="middle">3</text>
<polygon points="153,343.6 161,343.6 161,351.6 153,351.6" fill="rgb(230,127,0)"/><text xml:space="preserve" x="157" y="350.433" font-family="Calibri" font-size="7.5" fill="rgb(0,0,0)" text-anchor="middle">4</text>
<polygon points="161,343.6 169,343.6 169,351.6 161,351.6" fill="rgb(0,205,0)"/><text xml:space="preserve" x="165" y="350.433" font-family="Calibri" font-size="7.5" fill="rgb(255,255,255)" text-anchor="middle">1</text>
<polygon points="169,343.6 177,343.6 177,351.6 169,351.6" fill="rgb(0,205,0)"/><text xml:space="preserve" x="173" y="350.433" font-family="Calibri" font-size="7.5" fill="rgb(255,255,255)" text-anchor="middle">1</text>
<polygon points="187,343.6 195,343.6 195,351.6 187,351.6" fill="rgb(1,34,135)"/>
<polygon points="195,343.6 203,343.6 203,351.6 195,351.6" fill="rgb(1,33,135)"/>
<polygon points="203,343.6 211,343.6 211,351.6 203,351.6" fill="rgb(0,30,135)"/>
<polygon points="211,343.6 219,343.6 219,351.6 211,351.6" fill="rgb(21,112,139)"/>
<polygon points="219,343.6 227,343.6 227,351.6 219,351.6" fill="rgb(9,62,137)"/>
<polygon points="227,343.6 235,343.6 235,351.6 227,351.6" fill="rgb(31,151,142)"/>
<polygon points="235,343.6 243,343.6 243,351.6 235,351.6" fill="rgb(5,47,136)"/>
<polygon points="243,343.6 251,343.6 251,351.6 243,351.6" fill="rgb(4,43,135)"/>
<polygon points="261,343.6 269,343.6 269,351.6 261,351.6" fill="rgb(255,255,255)"/>
<polygon points="269,343.6 277,343.6 277,351.6 269,351.6" fill="rgb(255,255,255)"/>
<polygon points="277,343.6 285,343.6 285,351.6 277,351.6" fill="rgb(255,255,255)"/>
<polygon points="285,343.6 293,343.6 293,351.6 285,351.6" fill="rgb(255,255,255)"/>
<polygon points="293,343.6 301,343.6 301,351.6 293,351.6" fill="rgb(255,255,255)"/>
<polygon points="301,343.6 309,343.6 309,351.6 301,351.6" fill="rgb(255,255,255)"/>
<polygon points="309,343.6 317,343.6 317,351.6 309,351.6" fill="rgb(255,255,255)"/>
<polygon points="317,343.6 325,343.6 325,351.6 317,351.6" fill="rgb(205,0,205)"/>
<polygon points="113,351.6 121,351.6 121,359.6 113,359.6" fill="rgb(0,205,0)"/><text xml:space="preserve" x="117" y="358.433" font-family="Calibri" font-size="7.5" fill="rgb(255,255,255)" text-anchor="middle">1</text>
<polygon points="121,351.6 129,351.6 129,359.6 121,359.6" fill="rgb(0,205,0)"/><text xml:space="preserve" x="125" y="358.433" font-family="Calibri" font-size="7.5" fill="rgb(255,255,255)" text-anchor="middle">1</text>
<polygon points="129,351.6 137,351.6 137,359.6 129,359.6" fill="rgb(0,205,0)"/><text xml:space="preserve" x="133" y="358.433" font-family="Calibri" font-size="7.5" fill="rgb(255,255,255)" text-anchor="middle">1</text>
<polygon points="137,351.6 145,351.6 145,359.6 137,359.6" fill="rgb(255,255,0)"/><text xml:space="preserve" x="141" y="358.433" font-family="Calibri" font-size="7.5" fill="rgb(0,0,0)" text-anchor="middle">3</text>
<polygon points="145,351.6 153,351.6 153,359.6 145,359.6" fill="rgb(255,255,0)"/><text xml:space="preserve" x="149" y="358.433" font-family="Calibri" font-size="7.5" fill="rgb(0,0,0)" text-anchor="middle">3</text>
<polygon points="153,351.6 161,351.6 161,359.6 153,359.6" fill="rgb(230,127,0)"/><text xml:space="preserve" x="157" y="358.433" font-family="Calibri" font-size="7.5" fill="rgb(0,0,0)" text-anchor="middle">4</text>
<polygon points="161,351.6 169,351.6 169,359.6 161,359.6" fill="rgb(0,205,0)"/><text xml:space="preserve" x="165" y="358.433" font-family="Calibri" font-size="7.5" fill="rgb(255,255,255)" text-anchor="middle">1</text>
<polygon points="169,351.6 177,351.6 177,359.6 169,359.6" fill="rgb(0,205,0)"/><text xml:space="preserve" x="173" y="358.433" font-family="Calibri" font-size="7.5" fill="rgb(255,255,255)" text-anchor="middle">1</text>
<polygon points="187,351.6 195,351.6 195,359.6 187,359.6" fill="rgb(15,85,138)"/>
<polygon points="195,351.6 203,351.6 203,359.6 195,359.6" fill="rgb(1,34,135)"/>
<polygon points="203,351.6 211,351.6 211,359.6 203,359.6" fill="rgb(0,27,135)"/>
<polygon points="211,351.6 219,351.6 219,359.6 211,359.6" fill="rgb(25,125,140)"/>
<polygon points="219,351.6 227,351.6 227,359.6 219,359.6" fill="rgb(20,108,139)"/>
<polygon points="227,351.6 235,351.6 235,359.6 227,359.6" fill="rgb(53,218,143)"/>
<polygon points="235,351.6 243,351.6 243,359.6 235,359.6" fill="rgb(0,29,135)"/>
<polygon points="243,351.6 251,351.6 251,359.6 243,359.6" fill="rgb(0,29,135)"/>
<polygon points="261,351.6 269,351.6 269,359.6 261,359.6" fill="rgb(205,0,205)"/>
<polygon points="269,351.6 277,351.6 277,359.6 269,359.6" fill="rgb(255,255,255)"/>
<polygon points="277,351.6 285,351.6 285,359.6 277,359.6" fill="rgb(255,255,255)"/>
<polygon points="285,351.6 293,351.6 293,359.6 285,359.6" fill="rgb(255,255,255)"/>
<polygon points="293,351.6 301,351.6 301,359.6 293,359.6" fill="rgb(255,255,255)"/>
<polygon points="301,351.6 309,351.6 309,359.6 301,359.6" fill="rgb(255,255,255)"/>
<polygon points="309,351.6 317,351.6 317,359.6 309,359.6" fill="rgb(255,255,255)"/>
<polygon points="317,351.6 325,351.6 325,359.6 317,359.6" fill="rgb(255,255,255)"/>
<polygon points="113,359.6 121,359.6 121,367.6 113,367.6" fill="rgb(0,205,0)"/><text xml:space="preserve" x="117" y="366.433" font-family="Calibri" font-size="7.5" fill="rgb(255,255,255)" text-anchor="middle">1</text>
<polygon points="121,359.6 129,359.6 129,367.6 121,367.6" fill="rgb(0,205,0)"/><text xml:space="preserve" x="125" y="366.433" font-family="Calibri" font-size="7.5" fill="rgb(255,255,255)" text-anchor="middle">1</text>
<polygon points="129,359.6 137,359.6 137,367.6 129,367.6" fill="rgb(0,205,0)"/><text xml:space="preserve" x="133" y="366.433" font-family="Calibri" font-size="7.5" fill="rgb(255,255,255)" text-anchor="middle">1</text>
<polygon points="137,359.6 145,359.6 145,367.6 137,367.6" fill="rgb(255,255,0)"/><text xml:space="preserve" x="141" y="366.433" font-family="Calibri" font-size="7.5" fill="rgb(0,0,0)" text-anchor="middle">3</text>
<polygon points="145,359.6 153,359.6 153,367.6 145,367.6" fill="rgb(255,255,0)"/><text xml:space="preserve" x="149" y="366.433" font-family="Calibri" font-size="7.5" fill="rgb(0,0,0)" text-anchor="middle">3</text>
<polygon points="153,359.6 161,359.6 161,367.6 153,367.6" fill="rgb(230,127,0)"/><text xml:space="preserve" x="157" y="366.433" font-family="Calibri" font-size="7.5" fill="rgb(0,0,0)" text-anchor="middle">4</text>
<polygon points="161,359.6 169,359.6 169,367.6 161,367.6" fill="rgb(0,205,0)"/><text xml:space="preserve" x="165" y="366.433" font-family="Calibri" font-size="7.5" fill="rgb(255,255,255)" text-anchor="middle">1</text>
<polygon points="169,359.6 177,359.6 177,367.6 169,367.6" fill="rgb(0,205,0)"/><text xml:space="preserve" x="173" y="366.433" font-family="Calibri" font-size="7.5" fill="rgb(255,255,255)" text-anchor="middle">1</text>
<polygon points="187,359.6 195,359.6 195,367.6 187,367.6" fill="rgb(10,66,137)"/>
<polygon points="195,359.6 203,359.6 203,367.6 195,367.6" fill="rgb(0,29,135)"/>
<polygon points="203,359.6 211,359.6 211,367.6 203,367.6" fill="rgb(0,27,135)"/>
<polygon points="211,359.6 219,359.6 219,367.6 211,367.6" fill="rgb(17,94,138)"/>
<polygon points="219,359.6 227,359.6 227,367.6 219,367.6" fill="rgb(14,82,138)"/>
<polygon points="227,359.6 235,359.6 235,367.6 227,367.6" fill="rgb(29,143,141)"/>
<polygon points="235,359.6 243,359.6 243,367.6 235,367.6" fill="rgb(0,27,135)"/>
<polygon points="243,359.6 251,359.6 251,367.6 243,367.6" fill="rgb(0,29,135)"/>
<polygon points="261,359.6 269,359.6 269,367.6 261,367.6" fill="rgb(255,255,255)"/>
<polygon points="269,359.6 277,359.6 277,367.6 269,367.6" fill="rgb(255,255,255)"/>
<polygon points="277,359.6 285,359.6 285,367.6 277,367.6" fill="rgb(255,255,255)"/>
<polygon points="285,359.6 293,359.6 293,367.6 285,367.6" fill="rgb(255,255,255)"/>
<polygon points="293,359.6 301,359.6 301,367.6 293,367.6" fill="rgb(255,255,255)"/>
<polygon points="301,359.6 309,359.6 309,367.6 301,367.6" fill="rgb(255,255,255)"/>
<polygon points="309,359.6 317,359.6 317,367.6 309,367.6" fill="rgb(255,255,255)"/>
<polygon points="317,359.6 325,359.6 325,367.6 317,367.6" fill="rgb(255,255,255)"/>
<polygon points="113,335.6 177,335.6 177,367.6 113,367.6" fill="none" stroke="black" stroke-width="1"/>
<polygon points="187,335.6 251,335.6 251,367.6 187,367.6" fill="none" stroke="black" stroke-width="1"/>
<polygon points="261,335.6 325,335.6 325,367.6 261,367.6" fill="none" stroke="black" stroke-width="1"/>
<text xml:space="preserve" x="172.5" y="400.6" font-family="Calibri" font-size="8" text-anchor="middle">ClusterAssignment</text>
<polygon points="122.5,407.6 142.5,407.6 142.5,427.6 122.5,427.6" fill="rgb(0,205,0)"/><polygon points="122.5,407.6 142.5,407.6 142.5,427.6 122.5,427.6" fill="none" stroke="black" stroke-width="1"/><text xml:space="preserve" x="132.5" y="420.433" font-family="Calibri" font-size="7.5" fill="rgb(255,255,255)" text-anchor="middle">1.0</text>
<polygon points="142.5,407.6 162.5,407.6 162.5,427.6 142.5,427.6" fill="rgb(127,230,0)"/><polygon points="142.5,407.6 162.5,407.6 162.5,427.6 142.5,427.6" fill="none" stroke="black" stroke-width="1"/><text xml:space="preserve" x="152.5" y="420.433" font-family="Calibri" font-size="7.5" fill="rgb(0,0,0)" text-anchor="middle">2.0</text>
<polygon points="162.5,407.6 182.5,407.6 182.5,427.6 162.5,427.6" fill="rgb(255,255,0)"/><polygon points="162.5,407.6 182.5,407.6 182.5,427.6 162.5,427.6" fill="none" stroke="black" stroke-width="1"/><text xml:space="preserve" x="172.5" y="420.433" font-family="Calibri" font-size="7.5" fill="rgb(0,0,0)" text-anchor="middle">3.0</text>
<polygon points="182.5,407.6 202.5,407.6 202.5,427.6 182.5,427.6" fill="rgb(230,127,0)"/><polygon points="182.5,407.6 202.5,407.6 202.5,427.6 182.5,427.6" fill="none" stroke="black" stroke-width="1"/><text xml:space="preserve" x="192.5" y="420.433" font-family="Calibri" font-size="7.5" fill="rgb(0,0,0)" text-anchor="middle">4.0</text>
<polygon points="202.5,407.6 222.5,407.6 222.5,427.6 202.5,427.6" fill="rgb(205,0,0)"/><polygon points="202.5,407.6 222.5,407.6 222.5,427.6 202.5,427.6" fill="none" stroke="black" stroke-width="1"/><text xml:space="preserve" x="212.5" y="420.433" font-family="Calibri" font-size="7.5" fill="rgb(255,255,255)" text-anchor="middle">5.0</text>
<text xml:space="preserve" x="172.5" y="460.6" font-family="Calibri" font-size="8" text-anchor="middle">Expression</text>
<polygon points="122.5,467.6 142.5,467.6 142.5,487.6 122.5,487.6" fill="rgb(0,27,135)"/><polygon points="122.5,467.6 142.5,467.6 142.5,487.6 122.5,487.6" fill="none" stroke="black" stroke-width="1"/><text xml:space="preserve" x="132.5" y="480.433" font-family="Calibri" font-size="7.5" fill="rgb(255,255,255)" text-anchor="middle">0.0</text>
<polygon points="142.5,467.6 162.5,467.6 162.5,487.6 142.5,487.6" fill="rgb(24,123,140)"/><polygon points="142.5,467.6 162.5,467.6 162.5,487.6 142.5,487.6" fill="none" stroke="black" stroke-width="1"/><text xml:space="preserve" x="152.5" y="480.433" font-family="Calibri" font-size="7.5" fill="rgb(255,255,255)" text-anchor="middle">0.8</text>
<polygon points="162.5,467.6 182.5,467.6 182.5,487.6 162.5,487.6" fill="rgb(49,219,146)"/><polygon points="162.5,467.6 182.5,467.6 182.5,487.6 162.5,487.6" fill="none" stroke="black" stroke-width="1"/><text xml:space="preserve" x="172.5" y="480.433" font-family="Calibri" font-size="7.5" fill="rgb(0,0,0)" text-anchor="middle">1.5</text>
<polygon points="182.5,467.6 202.5,467.6 202.5,487.6 182.5,487.6" fill="rgb(150,206,73)"/><polygon points="182.5,467.6 202.5,467.6 202.5,487.6 182.5,487.6" fill="none" stroke="black" stroke-width="1"/><text xml:space="preserve" x="192.5" y="480.433" font-family="Calibri" font-size="7.5" fill="rgb(0,0,0)" text-anchor="middle">2.2</text>
<polygon points="202.5,467.6 222.5,467.6 222.5,487.6 202.5,487.6" fill="rgb(252,194,1)"/><polygon points="202.5,467.6 222.5,467.6 222.5,487.6 202.5,487.6" fill="none" stroke="black" stroke-width="1"/><text xml:space="preserve" x="212.5" y="480.433" font-family="Calibri" font-size="7.5" fill="rgb(0,0,0)" text-anchor="middle">3.0</text>
<text xml:space="preserve" x="172.5" y="520.6" font-family="Calibri" font-size="8" text-anchor="middle">PANTHERclass</text>
<polygon points="122.5,527.6 142.5,527.6 142.5,547.6 122.5,547.6" fill="rgb(255,255,255)"/><polygon points="122.5,527.6 142.5,527.6 142.5,547.6 122.5,547.6" fill="none" stroke="black" stroke-width="1"/><text xml:space="preserve" x="132.5" y="540.433" font-family="Calibri" font-size="7.5" fill="rgb(0,0,0)" text-anchor="middle">0.0</text>
<polygon points="142.5,527.6 162.5,527.6 162.5,547.6 142.5,547.6" fill="rgb(242,191,242)"/><polygon points="142.5,527.6 162.5,527.6 162.5,547.6 142.5,547.6" fill="none" stroke="black" stroke-width="1"/><text xml:space="preserve" x="152.5" y="540.433" font-family="Calibri" font-size="7.5" fill="rgb(0,0,0)" text-anchor="middle">0.2</text>
<polygon points="162.5,527.6 182.5,527.6 182.5,547.6 162.5,547.6" fill="rgb(230,127,230)"/><polygon points="162.5,527.6 182.5,527.6 182.5,547.6 162.5,547.6" fill="none" stroke="black" stroke-width="1"/><text xml:space="preserve" x="172.5" y="540.433" font-family="Calibri" font-size="7.5" fill="rgb(0,0,0)" text-anchor="middle">0.5</text>
<polygon points="182.5,527.6 202.5,527.6 202.5,547.6 182.5,547.6" fill="rgb(217,63,217)"/><polygon points="182.5,527.6 202.5,527.6 202.5,547.6 182.5,547.6" fill="none" stroke="black" stroke-width="1"/><text xml:space="preserve" x="192.5" y="540.433" font-family="Calibri" font-size="7.5" fill="rgb(255,255,255)" text-anchor="middle">0.8</text>
<polygon points="202.5,527.6 222.5,527.6 222.5,547.6 202.5,547.6" fill="rgb(205,0,205)"/><polygon points="202.5,527.6 222.5,527.6 222.5,547.6 202.5,547.6" fill="none" stroke="black" stroke-width="1"/><text xml:space="preserve" x="212.5" y="540.433" font-family="Calibri" font-size="7.5" fill="rgb(255,255,255)" text-anchor="middle">1.0</text>
</svg>
