<?xml version="1.0" standalone="no"?><!DOCTYPE svg PUBLIC "-//W3C//DTD SVG 1.1//EN" "http://www.w3.org/Graphics/SVG/1.1/DTD/svg11.dtd">
<svg width="358.8" height="567.6" version="1.1" xmlns="http://www.w3.org/2000/svg">
<text xml:space="preserve" x="122.8" y="342.6" font-family="Calibri" font-size="8" text-anchor="end">AC239585.2</text>
<text xml:space="preserve" x="122.8" y="350.6" font-family="Calibri" font-size="8" text-anchor="end">RBM43</text>
<text xml:space="preserve" x="122.8" y="358.6" font-family="Calibri" font-size="8" text-anchor="end">CREB3L1</text>
<text xml:space="preserve" x="122.8" y="366.6" font-family="Calibri" font-size="8" text-anchor="end">C1orf232</text>
<text xml:space="preserve" x="133.8" y="331.6" font-family="Calibri" font-size="8" transform="rotate(270 133.8 331.6)">c2</text>
<text xml:space="preserve" x="141.8" y="331.6" font-family="Calibri" font-size="8" transform="rotate(270 141.8 331.6)">c3</text>
<text xml:space="preserve" x="149.8" y="331.6" font-family="Calibri" font-size="8" transform="rotate(270 149.8 331.6)">c6</text>
<text xml:space="preserve" x="157.8" y="331.6" font-family="Calibri" font-size="8" transform="rotate(270 157.8 331.6)">c4</text>
<text xml:space="preserve" x="165.8" y="331.6" font-family="Calibri" font-size="8" transform="rotate(270 165.8 331.6)">c1</text>
<text xml:space="preserve" x="173.8" y="331.6" font-family="Calibri" font-size="8" transform="rotate(270 173.8 331.6)">c5</text>
<text xml:space="preserve" x="181.8" y="331.6" font-family="Calibri" font-size="8" transform="rotate(270 181.8 331.6)">c7</text>
<text xml:space="preserve" x="189.8" y="331.6" font-family="Calibri" font-size="8" transform="rotate(270 189.8 331.6)">c8</text>
<text xml:space="preserve" x="207.8" y="331.6" font-family="Calibri" font-size="8" transform="rotate(270 207.8 331.6)">c2_mean</text>
<text xml:space="preserve" x="215.8" y="331.6" font-family="Calibri" font-size="8" transform="rotate(270 215.8 331.6)">c3_mean</text>
<text xml:space="preserve" x="223.8" y="331.6" font-family="Calibri" font-size="8" transform="rotate(270 223.8 331.6)">c6_mean</text>
<text xml:space="preserve" x="231.8" y="331.6" font-family="Calibri" font-size="8" transform="rotate(270 231.8 331.6)">c4_mean</text>
<text xml:space="preserve" x="239.8" y="331.6" font-family="Calibri" font-size="8" transform="rotate(270 239.8 331.6)">c1_mean</text>
<text xml:space="preserve" x="247.8" y="331.6" font-family="Calibri" font-size="8" transform="rotate(270 247.8 331.6)">c5_mean</text>
<text xml:space="preserve" x="255.8" y="331.6" font-family="Calibri" font-size="8" transform="rotate(270 255.8 331.6)">c7_mean</text>
<text xml:space="preserve" x="263.8" y="331.6" font-family="Calibri" font-size="8" transform="rotate(270 263.8 331.6)">c8_mean</text>
<text xml:space="preserve" x="281.8" y="331.6" font-family="Calibri" font-size="8" transform="rotate(270 281.8 331.6)">transcription_factor</text>
<text xml:space="preserve" x="289.8" y="331.6" font-family="Calibri" font-size="8" transform="rotate(270 289.8 331.6)">transmembrane_signal_receptor</text>
<text xml:space="preserve" x="297.8" y="331.6" font-family="Calibri" font-size="8" transform="rotate(270 297.8 331.6)">growth_factor</text>
<text xml:space="preserve" x="305.8" y="331.6" font-family="Calibri" font-size="8" transform="rotate(270 305.8 331.6)">peptide_hormone</text>
<text xml:space="preserve" x="313.8" y="331.6" font-family="Calibri" font-size="8" transform="rotate(270 313.8 331.6)">cytoskeletal_protein</text>
<text xml:space="preserve" x="321.8" y="331.6" font-family="Calibri" font-size="8" transform="rotate(270 321.8 331.6)">ion_channel</text>
<text xml:space="preserve" x="329.8" y="331.6" font-family="Calibri" font-size="8" transform="rotate(270 329.8 331.6)">integrin</text>
<text xml:space="preserve" x="337.8" y="331.6" font-family="Calibri" font-size="8" transform="rotate(270 337.8 331.6)">extracellular_matrix_protein</text>
<polygon points="126.8,335.6 134.8,335.6 134.8,343.6 126.8,343.6" fill="rgb(0,205,0)"/><text xml:space="preserve" x="130.8" y="342.433" font-family="Calibri" font-size="7.5" fill="rgb(255,255,255)" text-anchor="middle">1</text>
<polygon points="134.8,335.6 142.8,335.6 142.8,343.6 134.8,343.6" fill="rgb(127,230,0)"/><text xml:space="preserve" x="138.8" y="342.433" font-family="Calibri" font-size="7.5" fill="rgb(0,0,0)" text-anchor="middle">2</text>
<polygon points="142.8,335.6 150.8,335.6 150.8,343.6 142.8,343.6" fill="rgb(127,230,0)"/><text xml:space="preserve" x="146.8" y="342.433" font-family="Calibri" font-size="7.5" fill="rgb(0,0,0)" text-anchor="middle">2</text>
<polygon points="150.8,335.6 158.8,335.6 158.8,343.6 150.8,343.6" fill="rgb(0,205,0)"/><text xml:space="preserve" x="154.8" y="342.433" font-family="Calibri" font-size="7.5" fill="rgb(255,255,255)" text-anchor="middle">1</text>
<polygon points="158.8,335.6 166.8,335.6 166.8,343.6 158.8,343.6" fill="rgb(0,205,0)"/><text xml:space="preserve" x="162.8" y="342.433" font-family="Calibri" font-size="7.5" fill="rgb(255,255,255)" text-anchor="middle">1</text>
<polygon points="166.8,335.6 174.8,335.6 174.8,343.6 166.8,343.6" fill="rgb(0,205,0)"/><text xml:space="preserve" x="170.8" y="342.433" font-family="Calibri" font-size="7.5" fill="rgb(255,255,255)" text-anchor="middle">1</text>
<polygon points="174.8,335.6 182.8,335.6 182.8,343.6 174.8,343.6" fill="rgb(0,205,0)"/><text xml:space="preserve" x="178.8" y="342.433" font-family="Calibri" font-size="7.5" fill="rgb(255,255,255)" text-anchor="middle">1</text>
<polygon points="182.8,335.6 190.8,335.6 190.8,343.6 182.8,343.6" fill="rgb(0,205,0)"/><text xml:space="preserve" x="186.8" y="342.433" font-family="Calibri" font-size="7.5" fill="rgb(255,255,255)" text-anchor="middle">1</text>
<polygon points="200.8,335.6 208.8,335.6 208.8,343.6 200.8,343.6" fill="rgb(11,71,137)"/>
<polygon points="208.8,335.6 216.8,335.6 216.8,343.6 208.8,343.6" fill="rgb(17,96,138)"/>
<polygon points="216.8,335.6 224.8,335.6 224.8,343.6 216.8,343.6" fill="rgb(9,65,137)"/>
<polygon points="224.8,335.6 232.8,335.6 232.8,343.6 224.8,343.6" fill="rgb(2,38,135)"/>
<polygon points="232.8,335.6 240.8,335.6 240.8,343.6 232.8,343.6" fill="rgb(1,32,135)"/>
<polygon points="240.8,335.6 248.8,335.6 248.8,343.6 240.8,343.6" fill="rgb(2,38,135)"/>
<polygon points="248.8,335.6 256.8,335.6 256.8,343.6 248.8,343.6" fill="rgb(3,41,135)"/>
<polygon points="256.8,335.6 264.8,335.6 264.8,343.6 256.8,343.6" fill="rgb(2,38,135)"/>
<polygon points="274.8,335.6 282.8,335.6 282.8,343.6 274.8,343.6" fill="rgb(255,255,255)"/>
<polygon points="282.8,335.6 290.8,335.6 290.8,343.6 282.8,343.6" fill="rgb(255,255,255)"/>
<polygon points="290.8,335.6 298.8,335.6 298.8,343.6 290.8,343.6" fill="rgb(255,255,255)"/>
<polygon points="298.8,335.6 306.8,335.6 306.8,343.6 298.8,343.6" fill="rgb(255,255,255)"/>
<polygon points="306.8,335.6 314.8,335.6 314.8,343.6 306.8,343.6" fill="rgb(255,255,255)"/>
<polygon points="314.8,335.6 322.8,335.6 322.8,343.6 314.8,343.6" fill="rgb(255,255,255)"/>
<polygon points="322.8,335.6 330.8,335.6 330.8,343.6 322.8,343.6" fill="rgb(255,255,255)"/>
<polygon points="330.8,335.6 338.8,335.6 338.8,343.6 330.8,343.6" fill="rgb(255,255,255)"/>
<polygon points="126.8,343.6 134.8,343.6 134.8,351.6 126.8,351.6" fill="rgb(0,205,0)"/><text xml:space="preserve" x="130.8" y="350.433" font-family="Calibri" font-size="7.5" fill="rgb(255,255,255)" text-anchor="middle">1</text>
<polygon points="134.8,343.6 142.8,343.6 142.8,351.6 134.8,351.6" fill="rgb(127,230,0)"/><text xml:space="preserve" x="138.8" y="350.433" font-family="Calibri" font-size="7.5" fill="rgb(0,0,0)" text-anchor="middle">2</text>
<polygon points="142.8,343.6 150.8,343.6 150.8,351.6 142.8,351.6" fill="rgb(127,230,0)"/><text xml:space="preserve" x="146.8" y="350.433" font-family="Calibri" font-size="7.5" fill="rgb(0,0,0)" text-anchor="middle">2</text>
<polygon points="150.8,343.6 158.8,343.6 158.8,351.6 150.8,351.6" fill="rgb(0,205,0)"/><text xml:space="preserve" x="154.8" y="350.433" font-family="Calibri" font-size="7.5" fill="rgb(255,255,255)" text-anchor="middle">1</text>
<polygon points="158.8,343.6 166.8,343.6 166.8,351.6 158.8,351.6" fill="rgb(0,205,0)"/><text xml:space="preserve" x="162.8" y="350.433" font-family="Calibri" font-size="7.5" fill="rgb(255,255,255)" text-anchor="middle">1</text>
<polygon points="166.8,343.6 174.8,343.6 174.8,351.6 166.8,351.6" fill="rgb(0,205,0)"/><text xml:space="preserve" x="170.8" y="350.433" font-family="Calibri" font-size="7.5" fill="rgb(255,255,255)" text-anchor="middle">1</text>
<polygon points="174.8,343.6 182.8,343.6 182.8,351.6 174.8,351.6" fill="rgb(0,205,0)"/><text xml:space="preserve" x="178.8" y="350.433" font-family="Calibri" font-size="7.5" fill="rgb(255,255,255)" text-anchor="middle">1</text>
<polygon points="182.8,343.6 190.8,343.6 190.8,351.6 182.8,351.6" fill="rgb(0,205,0)"/><text xml:space="preserve" x="186.8" y="350.433" font-family="Calibri" font-size="7.5" fill="rgb(255,255,255)" text-anchor="middle">1</text>
<polygon points="200.8,343.6 208.8,343.6 208.8,351.6 200.8,351.6" fill="rgb(8,59,136)"/>
<polygon points="208.8,343.6 216.8,343.6 216.8,351.6 208.8,351.6" fill="rgb(14,84,138)"/>
<polygon points="216.8,343.6 224.8,343.6 224.8,351.6 216.8,351.6" fill="rgb(11,71,137)"/>
<polygon points="224.8,343.6 232.8,343.6 232.8,351.6 224.8,351.6" fill="rgb(5,50,136)"/>
<polygon points="232.8,343.6 240.8,343.6 240.8,351.6 232.8,351.6" fill="rgb(4,44,136)"/>
<polygon points="240.8,343.6 248.8,343.6 248.8,351.6 240.8,351.6" fill="rgb(3,39,135)"/>
<polygon points="248.8,343.6 256.8,343.6 256.8,351.6 248.8,351.6" fill="rgb(2,35,135)"/>
<polygon points="256.8,343.6 264.8,343.6 264.8,351.6 256.8,351.6" fill="rgb(2,37,135)"/>
<polygon points="274.8,343.6 282.8,343.6 282.8,351.6 274.8,351.6" fill="rgb(205,0,205)"/>
<polygon points="282.8,343.6 290.8,343.6 290.8,351.6 282.8,351.6" fill="rgb(255,255,255)"/>
<polygon points="290.8,343.6 298.8,343.6 298.8,351.6 290.8,351.6" fill="rgb(255,255,255)"/>
<polygon points="298.8,343.6 306.8,343.6 306.8,351.6 298.8,351.6" fill="rgb(255,255,255)"/>
<polygon points="306.8,343.6 314.8,343.6 314.8,351.6 306.8,351.6" fill="rgb(255,255,255)"/>
<polygon points="314.8,343.6 322.8,343.6 322.8,351.6 314.8,351.6" fill="rgb(255,255,255)"/>
<polygon points="322.8,343.6 330.8,343.6 330.8,351.6 322.8,351.6" fill="rgb(255,255,255)"/>
<polygon points="330.8,343.6 338.8,343.6 338.8,351.6 330.8,351.6" fill="rgb(255,255,255)"/>
<polygon points="126.8,351.6 134.8,351.6 134.8,359.6 126.8,359.6" fill="rgb(0,205,0)"/><text xml:space="preserve" x="130.8" y="358.433" font-family="Calibri" font-size="7.5" fill="rgb(255,255,255)" text-anchor="middle">1</text>
<polygon points="134.8,351.6 142.8,351.6 142.8,359.6 134.8,359.6" fill="rgb(127,230,0)"/><text xml:space="preserve" x="138.8" y="358.433" font-family="Calibri" font-size="7.5" fill="rgb(0,0,0)" text-anchor="middle">2</text>
<polygon points="142.8,351.6 150.8,351.6 150.8,359.6 142.8,359.6" fill="rgb(127,230,0)"/><text xml:space="preserve" x="146.8" y="358.433" font-family="Calibri" font-size="7.5" fill="rgb(0,0,0)" text-anchor="middle">2</text>
<polygon points="150.8,351.6 158.8,351.6 158.8,359.6 150.8,359.6" fill="rgb(0,205,0)"/><text xml:space="preserve" x="154.8" y="358.433" font-family="Calibri" font-size="7.5" fill="rgb(255,255,255)" text-anchor="middle">1</text>
<polygon points="158.8,351.6 166.8,351.6 166.8,359.6 158.8,359.6" fill="rgb(0,205,0)"/><text xml:space="preserve" x="162.8" y="358.433" font-family="Calibri" font-size="7.5" fill="rgb(255,255,255)" text-anchor="middle">1</text>
<polygon points="166.8,351.6 174.8,351.6 174.8,359.6 166.8,359.6" fill="rgb(0,205,0)"/><text xml:space="preserve" x="170.8" y="358.433" font-family="Calibri" font-size="7.5" fill="rgb(255,255,255)" text-anchor="middle">1</text>
<polygon points="174.8,351.6 182.8,351.6 182.8,359.6 174.8,359.6" fill="rgb(0,205,0)"/><text xml:space="preserve" x="178.8" y="358.433" font-family="Calibri" font-size="7.5" fill="rgb(255,255,255)" text-anchor="middle">1</text>
<polygon points="182.8,351.6 190.8,351.6 190.8,359.6 182.8,359.6" fill="rgb(0,205,0)"/><text xml:space="preserve" x="186.8" y="358.433" font-family="Calibri" font-size="7.5" fill="rgb(255,255,255)" text-anchor="middle">1</text>
<polygon points="200.8,351.6 208.8,351.6 208.8,359.6 200.8,359.6" fill="rgb(14,82,138)"/>
<polygon points="208.8,351.6 216.8,351.6 216.8,359.6 208.8,359.6" fill="rgb(17,97,139)"/>
<polygon points="216.8,351.6 224.8,351.6 224.8,359.6 216.8,359.6" fill="rgb(8,59,136)"/>
<polygon points="224.8,351.6 232.8,351.6 232.8,359.6 224.8,359.6" fill="rgb(4,46,136)"/>
<polygon points="232.8,351.6 240.8,351.6 240.8,359.6 232.8,359.6" fill="rgb(2,35,135)"/>
<polygon points="240.8,351.6 248.8,351.6 248.8,359.6 240.8,359.6" fill="rgb(1,33,135)"/>
<polygon points="248.8,351.6 256.8,351.6 256.8,359.6 248.8,359.6" fill="rgb(1,32,135)"/>
<polygon points="256.8,351.6 264.8,351.6 264.8,359.6 256.8,359.6" fill="rgb(1,34,135)"/>
<polygon points="274.8,351.6 282.8,351.6 282.8,359.6 274.8,359.6" fill="rgb(205,0,205)"/>
<polygon points="282.8,351.6 290.8,351.6 290.8,359.6 282.8,359.6" fill="rgb(255,255,255)"/>
<polygon points="290.8,351.6 298.8,351.6 298.8,359.6 290.8,359.6" fill="rgb(255,255,255)"/>
<polygon points="298.8,351.6 306.8,351.6 306.8,359.6 298.8,359.6" fill="rgb(255,255,255)"/>
<polygon points="306.8,351.6 314.8,351.6 314.8,359.6 306.8,359.6" fill="rgb(255,255,255)"/>
<polygon points="314.8,351.6 322.8,351.6 322.8,359.6 314.8,359.6" fill="rgb(255,255,255)"/>
<polygon points="322.8,351.6 330.8,351.6 330.8,359.6 322.8,359.6" fill="rgb(255,255,255)"/>
<polygon points="330.8,351.6 338.8,351.6 338.8,359.6 330.8,359.6" fill="rgb(255,255,255)"/>
<polygon points="126.8,359.6 134.8,359.6 134.8,367.6 126.8,367.6" fill="rgb(0,205,0)"/><text xml:space="preserve" x="130.8" y="366.433" font-family="Calibri" font-size="7.5" fill="rgb(255,255,255)" text-anchor="middle">1</text>
<polygon points="134.8,359.6 142.8,359.6 142.8,367.6 134.8,367.6" fill="rgb(127,230,0)"/><text xml:space="preserve" x="138.8" y="366.433" font-family="Calibri" font-size="7.5" fill="rgb(0,0,0)" text-anchor="middle">2</text>
<polygon points="142.8,359.6 150.8,359.6 150.8,367.6 142.8,367.6" fill="rgb(127,230,0)"/><text xml:space="preserve" x="146.8" y="366.433" font-family="Calibri" font-size="7.5" fill="rgb(0,0,0)" text-anchor="middle">2</text>
<polygon points="150.8,359.6 158.8,359.6 158.8,367.6 150.8,367.6" fill="rgb(0,205,0)"/><text xml:space="preserve" x="154.8" y="366.433" font-family="Calibri" font-size="7.5" fill="rgb(255,255,255)" text-anchor="middle">1</text>
<polygon points="158.8,359.6 166.8,359.6 166.8,367.6 158.8,367.6" fill="rgb(0,205,0)"/><text xml:space="preserve" x="162.8" y="366.433" font-family="Calibri" font-size="7.5" fill="rgb(255,255,255)" text-anchor="middle">1</text>
<polygon points="166.8,359.6 174.8,359.6 174.8,367.6 166.8,367.6" fill="rgb(0,205,0)"/><text xml:space="preserve" x="170.8" y="366.433" font-family="Calibri" font-size="7.5" fill="rgb(255,255,255)" text-anchor="middle">1</text>
<polygon points="174.8,359.6 182.8,359.6 182.8,367.6 174.8,367.6" fill="rgb(0,205,0)"/><text xml:space="preserve" x="178.8" y="366.433" font-family="Calibri" font-size="7.5" fill="rgb(255,255,255)" text-anchor="middle">1</text>
<polygon points="182.8,359.6 190.8,359.6 190.8,367.6 182.8,367.6" fill="rgb(0,205,0)"/><text xml:space="preserve" x="186.8" y="366.433" font-family="Calibri" font-size="7.5" fill="rgb(255,255,255)" text-anchor="middle">1</text>
<polygon points="200.8,359.6 208.8,359.6 208.8,367.6 200.8,367.6" fill="rgb(7,57,136)"/>
<polygon points="208.8,359.6 216.8,359.6 216.8,367.6 208.8,367.6" fill="rgb(16,92,138)"/>
<polygon points="216.8,359.6 224.8,359.6 224.8,367.6 216.8,367.6" fill="rgb(12,75,137)"/>
<polygon points="224.8,359.6 232.8,359.6 232.8,367.6 224.8,367.6" fill="rgb(5,47,136)"/>
<polygon points="232.8,359.6 240.8,359.6 240.8,367.6 232.8,367.6" fill="rgb(5,50,136)"/>
<polygon points="240.8,359.6 248.8,359.6 248.8,367.6 240.8,367.6" fill="rgb(0,28,135)"/>
<polygon points="248.8,359.6 256.8,359.6 256.8,367.6 248.8,367.6" fill="rgb(1,33,135)"/>
<polygon points="256.8,359.6 264.8,359.6 264.8,367.6 256.8,367.6" fill="rgb(5,47,136)"/>
<polygon points="274.8,359.6 282.8,359.6 282.8,367.6 274.8,367.6" fill="rgb(255,255,255)"/>
<polygon points="282.8,359.6 290.8,359.6 290.8,367.6 282.8,367.6" fill="rgb(255,255,255)"/>
<polygon points="290.8,359.6 298.8,359.6 298.8,367.6 290.8,367.6" fill="rgb(255,255,255)"/>
<polygon points="298.8,359.6 306.8,359.6 306.8,367.6 298.8,367.6" fill="rgb(255,255,255)"/>
<polygon points="306.8,359.6 314.8,359.6 314.8,367.6 306.8,367.6" fill="rgb(255,255,255)"/>
<polygon points="314.8,359.6 322.8,359.6 322.8,367.6 314.8,367.6" fill="rgb(255,255,255)"/>
<polygon points="322.8,359.6 330.8,359.6 330.8,367.6 322.8,367.6" fill="rgb(255,255,255)"/>
<polygon points="330.8,359.6 338.8,359.6 338.8,367.6 330.8,367.6" fill="rgb(255,255,255)"/>
<polygon points="126.8,335.6 190.8,335.6 190.8,367.6 126.8,367.6" fill="none" stroke="black" stroke-width="1"/>
<polygon points="200.8,335.6 264.8,335.6 264.8,367.6 200.8,367.6" fill="none" stroke="black" stroke-width="1"/>
<polygon points="274.8,335.6 338.8,335.6 338.8,367.6 274.8,367.6" fill="none" stroke="black" stroke-width="1"/>
<text xml:space="preserve" x="179.4" y="400.6" font-family="Calibri" font-size="8" text-anchor="middle">ClusterAssignment</text>
<polygon points="129.4,407.6 149.4,407.6 149.4,427.6 129.4,427.6" fill="rgb(0,205,0)"/><polygon points="129.4,407.6 149.4,407.6 149.4,427.6 129.4,427.6" fill="none" stroke="black" stroke-width="1"/><text xml:space="preserve" x="139.4" y="420.433" font-family="Calibri" font-size="7.5" fill="rgb(255,255,255)" text-anchor="middle">1.0</text>
<polygon points="149.4,407.6 169.4,407.6 169.4,427.6 149.4,427.6" fill="rgb(127,230,0)"/><polygon points="149.4,407.6 169.4,407.6 169.4,427.6 149.4,427.6" fill="none" stroke="black" stroke-width="1"/><text xml:space="preserve" x="159.4" y="420.433" font-family="Calibri" font-size="7.5" fill="rgb(0,0,0)" text-anchor="middle">2.0</text>
<polygon points="169.4,407.6 189.4,407.6 189.4,427.6 169.4,427.6" fill="rgb(255,255,0)"/><polygon points="169.4,407.6 189.4,407.6 189.4,427.6 169.4,427.6" fill="none" stroke="black" stroke-width="1"/><text xml:space="preserve" x="179.4" y="420.433" font-family="Calibri" font-size="7.5" fill="rgb(0,0,0)" text-anchor="middle">3.0</text>
<polygon points="189.4,407.6 209.4,407.6 209.4,427.6 189.4,427.6" fill="rgb(230,127,0)"/><polygon points="189.4,407.6 209.4,407.6 209.4,427.6 189.4,427.6" fill="none" stroke="black" stroke-width="1"/><text xml:space="preserve" x="199.4" y="420.433" font-family="Calibri" font-size="7.5" fill="rgb(0,0,0)" text-anchor="middle">4.0</text>
<polygon points="209.4,407.6 229.4,407.6 229.4,427.6 209.4,427.6" fill="rgb(205,0,0)"/><polygon points="209.4,407.6 229.4,407.6 229.4,427.6 209.4,427.6" fill="none" stroke="black" stroke-width="1"/><text xml:space="preserve" x="219.4" y="420.433" font-family="Calibri" font-size="7.5" fill="rgb(255,255,255)" text-anchor="middle">5.0</text>
<text xml:space="preserve" x="179.4" y="460.6" font-family="Calibri" font-size="8" text-anchor="middle">Expression</text>
<polygon points="129.4,467.6 149.4,467.6 149.4,487.6 129.4,487.6" fill="rgb(0,27,135)"/><polygon points="129.4,467.6 149.4,467.6 149.4,487.6 129.4,487.6" fill="none" stroke="black" stroke-width="1"/><text xml:space="preserve" x="139.4" y="480.433" font-family="Calibri" font-size="7.5" fill="rgb(255,255,255)" text-anchor="middle">0.0</text>
<polygon points="149.4,467.6 169.4,467.6 169.4,487.6 149.4,487.6" fill="rgb(24,123,140)"/><polygon points="149.4,467.6 169.4,467.6 169.4,487.6 149.4,487.6" fill="none" stroke="black" stroke-width="1"/><text xml:space="preserve" x="159.4" y="480.433" font-family="Calibri" font-size="7.5" fill="rgb(255,255,255)" text-anchor="middle">0.8</text>
<polygon points="169.4,467.6 189.4,467.6 189.4,487.6 169.4,487.6" fill="rgb(49,219,146)"/><polygon points="169.4,467.6 189.4,467.6 189.4,487.6 169.4,487.6" fill="none" stroke="black" stroke-width="1"/><text xml:space="preserve" x="179.4" y="480.433" font-family="Calibri" font-size="7.5" fill="rgb(0,0,0)" text-anchor="middle">1.5</text>
<polygon points="189.4,467.6 209.4,467.6 209.4,487.6 189.4,487.6" fill="rgb(150,206,73)"/><polygon points="189.4,467.6 209.4,467.6 209.4,487.6 189.4,487.6" fill="none" stroke="black" stroke-width="1"/><text xml:space="preserve" x="199.4" y="480.433" font-family="Calibri" font-size="7.5" fill="rgb(0,0,0)" text-anchor="middle">2.2</text>
<polygon points="209.4,467.6 229.4,467.6 229.4,487.6 209.4,487.6" fill="rgb(252,194,1)"/><polygon points="209.4,467.6 229.4,467.6 229.4,487.6 209.4,487.6" fill="none" stroke="black" stroke-width="1"/><text xml:space="preserve" x="219.4" y="480.433" font-family="Calibri" font-size="7.5" fill="rgb(0,0,0)" text-anchor="middle">3.0</text>
<text xml:space="preserve" x="179.4" y="520.6" font-family="Calibri" font-size="8" text-anchor="middle">PANTHERclass</text>
<polygon points="129.4,527.6 149.4,527.6 149.4,547.6 129.4,547.6" fill="rgb(255,255,255)"/><polygon points="129.4,527.6 149.4,527.6 149.4,547.6 129.4,547.6" fill="none" stroke="black" stroke-width="1"/><text xml:space="preserve" x="139.4" y="540.433" font-family="Calibri" font-size="7.5" fill="rgb(0,0,0)" text-anchor="middle">0.0</text>
<polygon points="149.4,527.6 169.4,527.6 169.4,547.6 149.4,547.6" fill="rgb(242,191,242)"/><polygon points="149.4,527.6 169.4,527.6 169.4,547.6 149.4,547.6" fill="none" stroke="black" stroke-width="1"/><text xml:space="preserve" x="159.4" y="540.433" font-family="Calibri" font-size="7.5" fill="rgb(0,0,0)" text-anchor="middle">0.2</text>
<polygon points="169.4,527.6 189.4,527.6 189.4,547.6 169.4,547.6" fill="rgb(230,127,230)"/><polygon points="169.4,527.6 189.4,527.6 189.4,547.6 169.4,547.6" fill="none" stroke="black" stroke-width="1"/><text xml:space="preserve" x="179.4" y="540.433" font-family="Calibri" font-size="7.5" fill="rgb(0,0,0)" text-anchor="middle">0.5</text>
<polygon points="189.4,527.6 209.4,527.6 209.4,547.6 189.4,547.6" fill="rgb(217,63,217)"/><polygon points="189.4,527.6 209.4,527.6 209.4,547.6 189.4,547.6" fill="none" stroke="black" stroke-width="1"/><text xml:space="preserve" x="199.4" y="540.433" font-family="Calibri" font-size="7.5" fill="rgb(255,255,255)" text-anchor="middle">0.8</text>
<polygon points="209.4,527.6 229.4,527.6 229.4,547.6 209.4,547.6" fill="rgb(205,0,205)"/><polygon points="209.4,527.6 229.4,527.6 229.4,547.6 209.4,547.6" fill="none" stroke="black" stroke-width="1"/><text xml:space="preserve" x="219.4" y="540.433" font-family="Calibri" font-size="7.5" fill="rgb(255,255,255)" text-anchor="middle">1.0</text>
</svg>
