<?xml version="1.0" standalone="no"?><!DOCTYPE svg PUBLIC "-//W3C//DTD SVG 1.1//EN" "http://www.w3.org/Graphics/SVG/1.1/DTD/svg11.dtd">
<svg width="347.4" height="591.6" version="1.1" xmlns="http://www.w3.org/2000/svg">
<text xml:space="preserve" x="111.4" y="342.6" font-family="Calibri" font-size="8" text-anchor="end">C5orf58</text>
<text xml:space="preserve" x="111.4" y="350.6" font-family="Calibri" font-size="8" text-anchor="end">RFTN1</text>
<text xml:space="preserve" x="111.4" y="358.6" font-family="Calibri" font-size="8" text-anchor="end">LINC01777</text>
<text xml:space="preserve" x="111.4" y="366.6" font-family="Calibri" font-size="8" text-anchor="end">LYPD6B</text>
<text xml:space="preserve" x="111.4" y="374.6" font-family="Calibri" font-size="8" text-anchor="end">PDE2A</text>
<text xml:space="preserve" x="111.4" y="382.6" font-family="Calibri" font-size="8" text-anchor="end">NKX1-1</text>
<text xml:space="preserve" x="111.4" y="390.6" font-family="Calibri" font-size="8" text-anchor="end">CPA4</text>
<text xml:space="preserve" x="122.4" y="331.6" font-family="Calibri" font-size="8" transform="rotate(270 122.4 331.6)">c2</text>
<text xml:space="preserve" x="130.4" y="331.6" font-family="Calibri" font-size="8" transform="rotate(270 130.4 331.6)">c3</text>
<text xml:space="preserve" x="138.4" y="331.6" font-family="Calibri" font-size="8" transform="rotate(270 138.4 331.6)">c6</text>
<text xml:space="preserve" x="146.4" y="331.6" font-family="Calibri" font-size="8" transform="rotate(270 146.4 331.6)">c4</text>
<text xml:space="preserve" x="154.4" y="331.6" font-family="Calibri" font-size="8" transform="rotate(270 154.4 331.6)">c1</text>
<text xml:space="preserve" x="162.4" y="331.6" font-family="Calibri" font-size="8" transform="rotate(270 162.4 331.6)">c5</text>
<text xml:space="preserve" x="170.4" y="331.6" font-family="Calibri" font-size="8" transform="rotate(270 170.4 331.6)">c7</text>
<text xml:space="preserve" x="178.4" y="331.6" font-family="Calibri" font-size="8" transform="rotate(270 178.4 331.6)">c8</text>
<text xml:space="preserve" x="196.4" y="331.6" font-family="Calibri" font-size="8" transform="rotate(270 196.4 331.6)">c2_mean</text>
<text xml:space="preserve" x="204.4" y="331.6" font-family="Calibri" font-size="8" transform="rotate(270 204.4 331.6)">c3_mean</text>
<text xml:space="preserve" x="212.4" y="331.6" font-family="Calibri" font-size="8" transform="rotate(270 212.4 331.6)">c6_mean</text>
<text xml:space="preserve" x="220.4" y="331.6" font-family="Calibri" font-size="8" transform="rotate(270 220.4 331.6)">c4_mean</text>
<text xml:space="preserve" x="228.4" y="331.6" font-family="Calibri" font-size="8" transform="rotate(270 228.4 331.6)">c1_mean</text>
<text xml:space="preserve" x="236.4" y="331.6" font-family="Calibri" font-size="8" transform="rotate(270 236.4 331.6)">c5_mean</text>
<text xml:space="preserve" x="244.4" y="331.6" font-family="Calibri" font-size="8" transform="rotate(270 244.4 331.6)">c7_mean</text>
<text xml:space="preserve" x="252.4" y="331.6" font-family="Calibri" font-size="8" transform="rotate(270 252.4 331.6)">c8_mean</text>
<text xml:space="preserve" x="270.4" y="331.6" font-family="Calibri" font-size="8" transform="rotate(270 270.4 331.6)">transcription_factor</text>
<text xml:space="preserve" x="278.4" y="331.6" font-family="Calibri" font-size="8" transform="rotate(270 278.4 331.6)">transmembrane_signal_receptor</text>
<text xml:space="preserve" x="286.4" y="331.6" font-family="Calibri" font-size="8" transform="rotate(270 286.4 331.6)">growth_factor</text>
<text xml:space="preserve" x="294.4" y="331.6" font-family="Calibri" font-size="8" transform="rotate(270 294.4 331.6)">peptide_hormone</text>
<text xml:space="preserve" x="302.4" y="331.6" font-family="Calibri" font-size="8" transform="rotate(270 302.4 331.6)">cytoskeletal_protein</text>
<text xml:space="preserve" x="310.4" y="331.6" font-family="Calibri" font-size="8" transform="rotate(270 310.4 331.6)">ion_channel</text>
<text xml:space="preserve" x="318.4" y="331.6" font-family="Calibri" font-size="8" transform="rotate(270 318.4 331.6)">integrin</text>
<text xml:space="preserve" x="326.4" y="331.6" font-family="Calibri" font-size="8" transform="rotate(270 326.4 331.6)">extracellular_matrix_protein</text>
<polygon points="115.4,335.6 123.4,335.6 123.4,343.6 115.4,343.6" fill="rgb(0,205,0)"/><text xml:space="preserve" x="119.4" y="342.433" font-family="Calibri" font-size="7.5" fill="rgb(255,255,255)" text-anchor="middle">1</text>
<polygon points="123.4,335.6 131.4,335.6 131.4,343.6 123.4,343.6" fill="rgb(255,255,0)"/><text xml:space="preserve" x="127.4" y="342.433" font-family="Calibri" font-size="7.5" fill="rgb(0,0,0)" text-anchor="middle">3</text>
<polygon points="131.4,335.6 139.4,335.6 139.4,343.6 131.4,343.6" fill="rgb(230,127,0)"/><text xml:space="preserve" x="135.4" y="342.433" font-family="Calibri" font-size="7.5" fill="rgb(0,0,0)" text-anchor="middle">4</text>
<polygon points="139.4,335.6 147.4,335.6 147.4,343.6 139.4,343.6" fill="rgb(0,205,0)"/><text xml:space="preserve" x="143.4" y="342.433" font-family="Calibri" font-size="7.5" fill="rgb(255,255,255)" text-anchor="middle">1</text>
<polygon points="147.4,335.6 155.4,335.6 155.4,343.6 147.4,343.6" fill="rgb(0,205,0)"/><text xml:space="preserve" x="151.4" y="342.433" font-family="Calibri" font-size="7.5" fill="rgb(255,255,255)" text-anchor="middle">1</text>
<polygon points="155.4,335.6 163.4,335.6 163.4,343.6 155.4,343.6" fill="rgb(0,205,0)"/><text xml:space="preserve" x="159.4" y="342.433" font-family="Calibri" font-size="7.5" fill="rgb(255,255,255)" text-anchor="middle">1</text>
<polygon points="163.4,335.6 171.4,335.6 171.4,343.6 163.4,343.6" fill="rgb(0,205,0)"/><text xml:space="preserve" x="167.4" y="342.433" font-family="Calibri" font-size="7.5" fill="rgb(255,255,255)" text-anchor="middle">1</text>
<polygon points="171.4,335.6 179.4,335.6 179.4,343.6 171.4,343.6" fill="rgb(0,205,0)"/><text xml:space="preserve" x="175.4" y="342.433" font-family="Calibri" font-size="7.5" fill="rgb(255,255,255)" text-anchor="middle">1</text>
<polygon points="189.4,335.6 197.4,335.6 197.4,343.6 189.4,343.6" fill="rgb(3,39,135)"/>
<polygon points="197.4,335.6 205.4,335.6 205.4,343.6 197.4,343.6" fill="rgb(16,93,138)"/>
<polygon points="205.4,335.6 213.4,335.6 213.4,343.6 205.4,343.6" fill="rgb(33,158,142)"/>
<polygon points="213.4,335.6 221.4,335.6 221.4,343.6 213.4,343.6" fill="rgb(4,44,136)"/>
<polygon points="221.4,335.6 229.4,335.6 229.4,343.6 221.4,343.6" fill="rgb(4,44,136)"/>
<polygon points="229.4,335.6 237.4,335.6 237.4,343.6 229.4,343.6" fill="rgb(0,28,135)"/>
<polygon points="237.4,335.6 245.4,335.6 245.4,343.6 237.4,343.6" fill="rgb(0,28,135)"/>
<polygon points="245.4,335.6 253.4,335.6 253.4,343.6 245.4,343.6" fill="rgb(0,29,135)"/>
<polygon points="263.4,335.6 271.4,335.6 271.4,343.6 263.4,343.6" fill="rgb(255,255,255)"/>
<polygon points="271.4,335.6 279.4,335.6 279.4,343.6 271.4,343.6" fill="rgb(255,255,255)"/>
<polygon points="279.4,335.6 287.4,335.6 287.4,343.6 279.4,343.6" fill="rgb(255,255,255)"/>
<polygon points="287.4,335.6 295.4,335.6 295.4,343.6 287.4,343.6" fill="rgb(255,255,255)"/>
<polygon points="295.4,335.6 303.4,335.6 303.4,343.6 295.4,343.6" fill="rgb(255,255,255)"/>
<polygon points="303.4,335.6 311.4,335.6 311.4,343.6 303.4,343.6" fill="rgb(255,255,255)"/>
<polygon points="311.4,335.6 319.4,335.6 319.4,343.6 311.4,343.6" fill="rgb(255,255,255)"/>
<polygon points="319.4,335.6 327.4,335.6 327.4,343.6 319.4,343.6" fill="rgb(255,255,255)"/>
<polygon points="115.4,343.6 123.4,343.6 123.4,351.6 115.4,351.6" fill="rgb(0,205,0)"/><text xml:space="preserve" x="119.4" y="350.433" font-family="Calibri" font-size="7.5" fill="rgb(255,255,255)" text-anchor="middle">1</text>
<polygon points="123.4,343.6 131.4,343.6 131.4,351.6 123.4,351.6" fill="rgb(255,255,0)"/><text xml:space="preserve" x="127.4" y="350.433" font-family="Calibri" font-size="7.5" fill="rgb(0,0,0)" text-anchor="middle">3</text>
<polygon points="131.4,343.6 139.4,343.6 139.4,351.6 131.4,351.6" fill="rgb(230,127,0)"/><text xml:space="preserve" x="135.4" y="350.433" font-family="Calibri" font-size="7.5" fill="rgb(0,0,0)" text-anchor="middle">4</text>
<polygon points="139.4,343.6 147.4,343.6 147.4,351.6 139.4,351.6" fill="rgb(0,205,0)"/><text xml:space="preserve" x="143.4" y="350.433" font-family="Calibri" font-size="7.5" fill="rgb(255,255,255)" text-anchor="middle">1</text>
<polygon points="147.4,343.6 155.4,343.6 155.4,351.6 147.4,351.6" fill="rgb(0,205,0)"/><text xml:space="preserve" x="151.4" y="350.433" font-family="Calibri" font-size="7.5" fill="rgb(255,255,255)" text-anchor="middle">1</text>
<polygon points="155.4,343.6 163.4,343.6 163.4,351.6 155.4,351.6" fill="rgb(0,205,0)"/><text xml:space="preserve" x="159.4" y="350.433" font-family="Calibri" font-size="7.5" fill="rgb(255,255,255)" text-anchor="middle">1</text>
<polygon points="163.4,343.6 171.4,343.6 171.4,351.6 163.4,351.6" fill="rgb(0,205,0)"/><text xml:space="preserve" x="167.4" y="350.433" font-family="Calibri" font-size="7.5" fill="rgb(255,255,255)" text-anchor="middle">1</text>
<polygon points="171.4,343.6 179.4,343.6 179.4,351.6 171.4,351.6" fill="rgb(0,205,0)"/><text xml:space="preserve" x="175.4" y="350.433" font-family="Calibri" font-size="7.5" fill="rgb(255,255,255)" text-anchor="middle">1</text>
<polygon points="189.4,343.6 197.4,343.6 197.4,351.6 189.4,351.6" fill="rgb(6,52,136)"/>
<polygon points="197.4,343.6 205.4,343.6 205.4,351.6 197.4,351.6" fill="rgb(15,85,138)"/>
<polygon points="205.4,343.6 213.4,343.6 213.4,351.6 205.4,351.6" fill="rgb(30,147,141)"/>
<polygon points="213.4,343.6 221.4,343.6 221.4,351.6 213.4,351.6" fill="rgb(7,55,136)"/>
<polygon points="221.4,343.6 229.4,343.6 229.4,351.6 221.4,351.6" fill="rgb(4,43,135)"/>
<polygon points="229.4,343.6 237.4,343.6 237.4,351.6 229.4,351.6" fill="rgb(4,44,136)"/>
<polygon points="237.4,343.6 245.4,343.6 245.4,351.6 237.4,351.6" fill="rgb(4,43,135)"/>
<polygon points="245.4,343.6 253.4,343.6 253.4,351.6 245.4,351.6" fill="rgb(5,48,136)"/>
<polygon points="263.4,343.6 271.4,343.6 271.4,351.6 263.4,351.6" fill="rgb(255,255,255)"/>
<polygon points="271.4,343.6 279.4,343.6 279.4,351.6 271.4,351.6" fill="rgb(255,255,255)"/>
<polygon points="279.4,343.6 287.4,343.6 287.4,351.6 279.4,351.6" fill="rgb(255,255,255)"/>
<polygon points="287.4,343.6 295.4,343.6 295.4,351.6 287.4,351.6" fill="rgb(255,255,255)"/>
<polygon points="295.4,343.6 303.4,343.6 303.4,351.6 295.4,351.6" fill="rgb(255,255,255)"/>
<polygon points="303.4,343.6 311.4,343.6 311.4,351.6 303.4,351.6" fill="rgb(255,255,255)"/>
<polygon points="311.4,343.6 319.4,343.6 319.4,351.6 311.4,351.6" fill="rgb(255,255,255)"/>
<polygon points="319.4,343.6 327.4,343.6 327.4,351.6 319.4,351.6" fill="rgb(255,255,255)"/>
<polygon points="115.4,351.6 123.4,351.6 123.4,359.6 115.4,359.6" fill="rgb(0,205,0)"/><text xml:space="preserve" x="119.4" y="358.433" font-family="Calibri" font-size="7.5" fill="rgb(255,255,255)" text-anchor="middle">1</text>
<polygon points="123.4,351.6 131.4,351.6 131.4,359.6 123.4,359.6" fill="rgb(255,255,0)"/><text xml:space="preserve" x="127.4" y="358.433" font-family="Calibri" font-size="7.5" fill="rgb(0,0,0)" text-anchor="middle">3</text>
<polygon points="131.4,351.6 139.4,351.6 139.4,359.6 131.4,359.6" fill="rgb(230,127,0)"/><text xml:space="preserve" x="135.4" y="358.433" font-family="Calibri" font-size="7.5" fill="rgb(0,0,0)" text-anchor="middle">4</text>
<polygon points="139.4,351.6 147.4,351.6 147.4,359.6 139.4,359.6" fill="rgb(0,205,0)"/><text xml:space="preserve" x="143.4" y="358.433" font-family="Calibri" font-size="7.5" fill="rgb(255,255,255)" text-anchor="middle">1</text>
<polygon points="147.4,351.6 155.4,351.6 155.4,359.6 147.4,359.6" fill="rgb(0,205,0)"/><text xml:space="preserve" x="151.4" y="358.433" font-family="Calibri" font-size="7.5" fill="rgb(255,255,255)" text-anchor="middle">1</text>
<polygon points="155.4,351.6 163.4,351.6 163.4,359.6 155.4,359.6" fill="rgb(0,205,0)"/><text xml:space="preserve" x="159.4" y="358.433" font-family="Calibri" font-size="7.5" fill="rgb(255,255,255)" text-anchor="middle">1</text>
<polygon points="163.4,351.6 171.4,351.6 171.4,359.6 163.4,359.6" fill="rgb(0,205,0)"/><text xml:space="preserve" x="167.4" y="358.433" font-family="Calibri" font-size="7.5" fill="rgb(255,255,255)" text-anchor="middle">1</text>
<polygon points="171.4,351.6 179.4,351.6 179.4,359.6 171.4,359.6" fill="rgb(0,205,0)"/><text xml:space="preserve" x="175.4" y="358.433" font-family="Calibri" font-size="7.5" fill="rgb(255,255,255)" text-anchor="middle">1</text>
<polygon points="189.4,351.6 197.4,351.6 197.4,359.6 189.4,359.6" fill="rgb(4,44,136)"/>
<polygon points="197.4,351.6 205.4,351.6 205.4,359.6 197.4,359.6" fill="rgb(18,98,139)"/>
<polygon points="205.4,351.6 213.4,351.6 213.4,359.6 205.4,359.6" fill="rgb(24,121,140)"/>
<polygon points="213.4,351.6 221.4,351.6 221.4,359.6 213.4,359.6" fill="rgb(3,39,135)"/>
<polygon points="221.4,351.6 229.4,351.6 229.4,359.6 221.4,359.6" fill="rgb(1,32,135)"/>
<polygon points="229.4,351.6 237.4,351.6 237.4,359.6 229.4,359.6" fill="rgb(0,27,135)"/>
<polygon points="237.4,351.6 245.4,351.6 245.4,359.6 237.4,359.6" fill="rgb(0,27,135)"/>
<polygon points="245.4,351.6 253.4,351.6 253.4,359.6 245.4,359.6" fill="rgb(0,30,135)"/>
<polygon points="263.4,351.6 271.4,351.6 271.4,359.6 263.4,359.6" fill="rgb(255,255,255)"/>
<polygon points="271.4,351.6 279.4,351.6 279.4,359.6 271.4,359.6" fill="rgb(255,255,255)"/>
<polygon points="279.4,351.6 287.4,351.6 287.4,359.6 279.4,359.6" fill="rgb(255,255,255)"/>
<polygon points="287.4,351.6 295.4,351.6 295.4,359.6 287.4,359.6" fill="rgb(255,255,255)"/>
<polygon points="295.4,351.6 303.4,351.6 303.4,359.6 295.4,359.6" fill="rgb(255,255,255)"/>
<polygon points="303.4,351.6 311.4,351.6 311.4,359.6 303.4,359.6" fill="rgb(255,255,255)"/>
<polygon points="311.4,351.6 319.4,351.6 319.4,359.6 311.4,359.6" fill="rgb(255,255,255)"/>
<polygon points="319.4,351.6 327.4,351.6 327.4,359.6 319.4,359.6" fill="rgb(255,255,255)"/>
<polygon points="115.4,359.6 123.4,359.6 123.4,367.6 115.4,367.6" fill="rgb(0,205,0)"/><text xml:space="preserve" x="119.4" y="366.433" font-family="Calibri" font-size="7.5" fill="rgb(255,255,255)" text-anchor="middle">1</text>
<polygon points="123.4,359.6 131.4,359.6 131.4,367.6 123.4,367.6" fill="rgb(255,255,0)"/><text xml:space="preserve" x="127.4" y="366.433" font-family="Calibri" font-size="7.5" fill="rgb(0,0,0)" text-anchor="middle">3</text>
<polygon points="131.4,359.6 139.4,359.6 139.4,367.6 131.4,367.6" fill="rgb(230,127,0)"/><text xml:space="preserve" x="135.4" y="366.433" font-family="Calibri" font-size="7.5" fill="rgb(0,0,0)" text-anchor="middle">4</text>
<polygon points="139.4,359.6 147.4,359.6 147.4,367.6 139.4,367.6" fill="rgb(0,205,0)"/><text xml:space="preserve" x="143.4" y="366.433" font-family="Calibri" font-size="7.5" fill="rgb(255,255,255)" text-anchor="middle">1</text>
<polygon points="147.4,359.6 155.4,359.6 155.4,367.6 147.4,367.6" fill="rgb(0,205,0)"/><text xml:space="preserve" x="151.4" y="366.433" font-family="Calibri" font-size="7.5" fill="rgb(255,255,255)" text-anchor="middle">1</text>
<polygon points="155.4,359.6 163.4,359.6 163.4,367.6 155.4,367.6" fill="rgb(0,205,0)"/><text xml:space="preserve" x="159.4" y="366.433" font-family="Calibri" font-size="7.5" fill="rgb(255,255,255)" text-anchor="middle">1</text>
<polygon points="163.4,359.6 171.4,359.6 171.4,367.6 163.4,367.6" fill="rgb(0,205,0)"/><text xml:space="preserve" x="167.4" y="366.433" font-family="Calibri" font-size="7.5" fill="rgb(255,255,255)" text-anchor="middle">1</text>
<polygon points="171.4,359.6 179.4,359.6 179.4,367.6 171.4,367.6" fill="rgb(0,205,0)"/><text xml:space="preserve" x="175.4" y="366.433" font-family="Calibri" font-size="7.5" fill="rgb(255,255,255)" text-anchor="middle">1</text>
<polygon points="189.4,359.6 197.4,359.6 197.4,367.6 189.4,367.6" fill="rgb(3,39,135)"/>
<polygon points="197.4,359.6 205.4,359.6 205.4,367.6 197.4,367.6" fill="rgb(17,94,138)"/>
<polygon points="205.4,359.6 213.4,359.6 213.4,367.6 205.4,367.6" fill="rgb(30,146,141)"/>
<polygon points="213.4,359.6 221.4,359.6 221.4,367.6 213.4,367.6" fill="rgb(11,70,137)"/>
<polygon points="221.4,359.6 229.4,359.6 229.4,367.6 221.4,367.6" fill="rgb(8,59,136)"/>
<polygon points="229.4,359.6 237.4,359.6 237.4,367.6 229.4,367.6" fill="rgb(2,37,135)"/>
<polygon points="237.4,359.6 245.4,359.6 245.4,367.6 237.4,367.6" fill="rgb(2,37,135)"/>
<polygon points="245.4,359.6 253.4,359.6 253.4,367.6 245.4,367.6" fill="rgb(0,28,135)"/>
<polygon points="263.4,359.6 271.4,359.6 271.4,367.6 263.4,367.6" fill="rgb(255,255,255)"/>
<polygon points="271.4,359.6 279.4,359.6 279.4,367.6 271.4,367.6" fill="rgb(255,255,255)"/>
<polygon points="279.4,359.6 287.4,359.6 287.4,367.6 279.4,367.6" fill="rgb(255,255,255)"/>
<polygon points="287.4,359.6 295.4,359.6 295.4,367.6 287.4,367.6" fill="rgb(255,255,255)"/>
<polygon points="295.4,359.6 303.4,359.6 303.4,367.6 295.4,367.6" fill="rgb(255,255,255)"/>
<polygon points="303.4,359.6 311.4,359.6 311.4,367.6 303.4,367.6" fill="rgb(255,255,255)"/>
<polygon points="311.4,359.6 319.4,359.6 319.4,367.6 311.4,367.6" fill="rgb(255,255,255)"/>
<polygon points="319.4,359.6 327.4,359.6 327.4,367.6 319.4,367.6" fill="rgb(255,255,255)"/>
<polygon points="115.4,367.6 123.4,367.6 123.4,375.6 115.4,375.6" fill="rgb(0,205,0)"/><text xml:space="preserve" x="119.4" y="374.433" font-family="Calibri" font-size="7.5" fill="rgb(255,255,255)" text-anchor="middle">1</text>
<polygon points="123.4,367.6 131.4,367.6 131.4,375.6 123.4,375.6" fill="rgb(255,255,0)"/><text xml:space="preserve" x="127.4" y="374.433" font-family="Calibri" font-size="7.5" fill="rgb(0,0,0)" text-anchor="middle">3</text>
<polygon points="131.4,367.6 139.4,367.6 139.4,375.6 131.4,375.6" fill="rgb(230,127,0)"/><text xml:space="preserve" x="135.4" y="374.433" font-family="Calibri" font-size="7.5" fill="rgb(0,0,0)" text-anchor="middle">4</text>
<polygon points="139.4,367.6 147.4,367.6 147.4,375.6 139.4,375.6" fill="rgb(0,205,0)"/><text xml:space="preserve" x="143.4" y="374.433" font-family="Calibri" font-size="7.5" fill="rgb(255,255,255)" text-anchor="middle">1</text>
<polygon points="147.4,367.6 155.4,367.6 155.4,375.6 147.4,375.6" fill="rgb(0,205,0)"/><text xml:space="preserve" x="151.4" y="374.433" font-family="Calibri" font-size="7.5" fill="rgb(255,255,255)" text-anchor="middle">1</text>
<polygon points="155.4,367.6 163.4,367.6 163.4,375.6 155.4,375.6" fill="rgb(0,205,0)"/><text xml:space="preserve" x="159.4" y="374.433" font-family="Calibri" font-size="7.5" fill="rgb(255,255,255)" text-anchor="middle">1</text>
<polygon points="163.4,367.6 171.4,367.6 171.4,375.6 163.4,375.6" fill="rgb(0,205,0)"/><text xml:space="preserve" x="167.4" y="374.433" font-family="Calibri" font-size="7.5" fill="rgb(255,255,255)" text-anchor="middle">1</text>
<polygon points="171.4,367.6 179.4,367.6 179.4,375.6 171.4,375.6" fill="rgb(0,205,0)"/><text xml:space="preserve" x="175.4" y="374.433" font-family="Calibri" font-size="7.5" fill="rgb(255,255,255)" text-anchor="middle">1</text>
<polygon points="189.4,367.6 197.4,367.6 197.4,375.6 189.4,375.6" fill="rgb(5,48,136)"/>
<polygon points="197.4,367.6 205.4,367.6 205.4,375.6 197.4,375.6" fill="rgb(22,114,139)"/>
<polygon points="205.4,367.6 213.4,367.6 213.4,375.6 205.4,375.6" fill="rgb(21,112,139)"/>
<polygon points="213.4,367.6 221.4,367.6 221.4,375.6 213.4,375.6" fill="rgb(8,60,136)"/>
<polygon points="221.4,367.6 229.4,367.6 229.4,375.6 221.4,375.6" fill="rgb(6,53,136)"/>
<polygon points="229.4,367.6 237.4,367.6 237.4,375.6 229.4,375.6" fill="rgb(2,35,135)"/>
<polygon points="237.4,367.6 245.4,367.6 245.4,375.6 237.4,375.6" fill="rgb(3,39,135)"/>
<polygon points="245.4,367.6 253.4,367.6 253.4,375.6 245.4,375.6" fill="rgb(1,33,135)"/>
<polygon points="263.4,367.6 271.4,367.6 271.4,375.6 263.4,375.6" fill="rgb(255,255,255)"/>
<polygon points="271.4,367.6 279.4,367.6 279.4,375.6 271.4,375.6" fill="rgb(255,255,255)"/>
<polygon points="279.4,367.6 287.4,367.6 287.4,375.6 279.4,375.6" fill="rgb(255,255,255)"/>
<polygon points="287.4,367.6 295.4,367.6 295.4,375.6 287.4,375.6" fill="rgb(255,255,255)"/>
<polygon points="295.4,367.6 303.4,367.6 303.4,375.6 295.4,375.6" fill="rgb(255,255,255)"/>
<polygon points="303.4,367.6 311.4,367.6 311.4,375.6 303.4,375.6" fill="rgb(255,255,255)"/>
<polygon points="311.4,367.6 319.4,367.6 319.4,375.6 311.4,375.6" fill="rgb(255,255,255)"/>
<polygon points="319.4,367.6 327.4,367.6 327.4,375.6 319.4,375.6" fill="rgb(255,255,255)"/>
<polygon points="115.4,375.6 123.4,375.6 123.4,383.6 115.4,383.6" fill="rgb(0,205,0)"/><text xml:space="preserve" x="119.4" y="382.433" font-family="Calibri" font-size="7.5" fill="rgb(255,255,255)" text-anchor="middle">1</text>
<polygon points="123.4,375.6 131.4,375.6 131.4,383.6 123.4,383.6" fill="rgb(255,255,0)"/><text xml:space="preserve" x="127.4" y="382.433" font-family="Calibri" font-size="7.5" fill="rgb(0,0,0)" text-anchor="middle">3</text>
<polygon points="131.4,375.6 139.4,375.6 139.4,383.6 131.4,383.6" fill="rgb(230,127,0)"/><text xml:space="preserve" x="135.4" y="382.433" font-family="Calibri" font-size="7.5" fill="rgb(0,0,0)" text-anchor="middle">4</text>
<polygon points="139.4,375.6 147.4,375.6 147.4,383.6 139.4,383.6" fill="rgb(0,205,0)"/><text xml:space="preserve" x="143.4" y="382.433" font-family="Calibri" font-size="7.5" fill="rgb(255,255,255)" text-anchor="middle">1</text>
<polygon points="147.4,375.6 155.4,375.6 155.4,383.6 147.4,383.6" fill="rgb(0,205,0)"/><text xml:space="preserve" x="151.4" y="382.433" font-family="Calibri" font-size="7.5" fill="rgb(255,255,255)" text-anchor="middle">1</text>
<polygon points="155.4,375.6 163.4,375.6 163.4,383.6 155.4,383.6" fill="rgb(0,205,0)"/><text xml:space="preserve" x="159.4" y="382.433" font-family="Calibri" font-size="7.5" fill="rgb(255,255,255)" text-anchor="middle">1</text>
<polygon points="163.4,375.6 171.4,375.6 171.4,383.6 163.4,383.6" fill="rgb(0,205,0)"/><text xml:space="preserve" x="167.4" y="382.433" font-family="Calibri" font-size="7.5" fill="rgb(255,255,255)" text-anchor="middle">1</text>
<polygon points="171.4,375.6 179.4,375.6 179.4,383.6 171.4,383.6" fill="rgb(0,205,0)"/><text xml:space="preserve" x="175.4" y="382.433" font-family="Calibri" font-size="7.5" fill="rgb(255,255,255)" text-anchor="middle">1</text>
<polygon points="189.4,375.6 197.4,375.6 197.4,383.6 189.4,383.6" fill="rgb(2,37,135)"/>
<polygon points="197.4,375.6 205.4,375.6 205.4,383.6 197.4,383.6" fill="rgb(22,116,140)"/>
<polygon points="205.4,375.6 213.4,375.6 213.4,383.6 205.4,383.6" fill="rgb(22,114,139)"/>
<polygon points="213.4,375.6 221.4,375.6 221.4,383.6 213.4,383.6" fill="rgb(0,28,135)"/>
<polygon points="221.4,375.6 229.4,375.6 229.4,383.6 221.4,383.6" fill="rgb(1,32,135)"/>
<polygon points="229.4,375.6 237.4,375.6 237.4,383.6 229.4,383.6" fill="rgb(0,27,135)"/>
<polygon points="237.4,375.6 245.4,375.6 245.4,383.6 237.4,383.6" fill="rgb(0,28,135)"/>
<polygon points="245.4,375.6 253.4,375.6 253.4,383.6 245.4,383.6" fill="rgb(0,28,135)"/>
<polygon points="263.4,375.6 271.4,375.6 271.4,383.6 263.4,383.6" fill="rgb(205,0,205)"/>
<polygon points="271.4,375.6 279.4,375.6 279.4,383.6 271.4,383.6" fill="rgb(255,255,255)"/>
<polygon points="279.4,375.6 287.4,375.6 287.4,383.6 279.4,383.6" fill="rgb(255,255,255)"/>
<polygon points="287.4,375.6 295.4,375.6 295.4,383.6 287.4,383.6" fill="rgb(255,255,255)"/>
<polygon points="295.4,375.6 303.4,375.6 303.4,383.6 295.4,383.6" fill="rgb(255,255,255)"/>
<polygon points="303.4,375.6 311.4,375.6 311.4,383.6 303.4,383.6" fill="rgb(255,255,255)"/>
<polygon points="311.4,375.6 319.4,375.6 319.4,383.6 311.4,383.6" fill="rgb(255,255,255)"/>
<polygon points="319.4,375.6 327.4,375.6 327.4,383.6 319.4,383.6" fill="rgb(255,255,255)"/>
<polygon points="115.4,383.6 123.4,383.6 123.4,391.6 115.4,391.6" fill="rgb(0,205,0)"/><text xml:space="preserve" x="119.4" y="390.433" font-family="Calibri" font-size="7.5" fill="rgb(255,255,255)" text-anchor="middle">1</text>
<polygon points="123.4,383.6 131.4,383.6 131.4,391.6 123.4,391.6" fill="rgb(255,255,0)"/><text xml:space="preserve" x="127.4" y="390.433" font-family="Calibri" font-size="7.5" fill="rgb(0,0,0)" text-anchor="middle">3</text>
<polygon points="131.4,383.6 139.4,383.6 139.4,391.6 131.4,391.6" fill="rgb(230,127,0)"/><text xml:space="preserve" x="135.4" y="390.433" font-family="Calibri" font-size="7.5" fill="rgb(0,0,0)" text-anchor="middle">4</text>
<polygon points="139.4,383.6 147.4,383.6 147.4,391.6 139.4,391.6" fill="rgb(0,205,0)"/><text xml:space="preserve" x="143.4" y="390.433" font-family="Calibri" font-size="7.5" fill="rgb(255,255,255)" text-anchor="middle">1</text>
<polygon points="147.4,383.6 155.4,383.6 155.4,391.6 147.4,391.6" fill="rgb(0,205,0)"/><text xml:space="preserve" x="151.4" y="390.433" font-family="Calibri" font-size="7.5" fill="rgb(255,255,255)" text-anchor="middle">1</text>
<polygon points="155.4,383.6 163.4,383.6 163.4,391.6 155.4,391.6" fill="rgb(0,205,0)"/><text xml:space="preserve" x="159.4" y="390.433" font-family="Calibri" font-size="7.5" fill="rgb(255,255,255)" text-anchor="middle">1</text>
<polygon points="163.4,383.6 171.4,383.6 171.4,391.6 163.4,391.6" fill="rgb(0,205,0)"/><text xml:space="preserve" x="167.4" y="390.433" font-family="Calibri" font-size="7.5" fill="rgb(255,255,255)" text-anchor="middle">1</text>
<polygon points="171.4,383.6 179.4,383.6 179.4,391.6 171.4,391.6" fill="rgb(0,205,0)"/><text xml:space="preserve" x="175.4" y="390.433" font-family="Calibri" font-size="7.5" fill="rgb(255,255,255)" text-anchor="middle">1</text>
<polygon points="189.4,383.6 197.4,383.6 197.4,391.6 189.4,391.6" fill="rgb(10,67,137)"/>
<polygon points="197.4,383.6 205.4,383.6 205.4,391.6 197.4,391.6" fill="rgb(22,114,139)"/>
<polygon points="205.4,383.6 213.4,383.6 213.4,391.6 205.4,391.6" fill="rgb(22,114,139)"/>
<polygon points="213.4,383.6 221.4,383.6 221.4,391.6 213.4,391.6" fill="rgb(2,38,135)"/>
<polygon points="221.4,383.6 229.4,383.6 229.4,391.6 221.4,391.6" fill="rgb(4,44,136)"/>
<polygon points="229.4,383.6 237.4,383.6 237.4,391.6 229.4,391.6" fill="rgb(0,30,135)"/>
<polygon points="237.4,383.6 245.4,383.6 245.4,391.6 237.4,391.6" fill="rgb(4,44,136)"/>
<polygon points="245.4,383.6 253.4,383.6 253.4,391.6 245.4,391.6" fill="rgb(2,38,135)"/>
<polygon points="263.4,383.6 271.4,383.6 271.4,391.6 263.4,391.6" fill="rgb(255,255,255)"/>
<polygon points="271.4,383.6 279.4,383.6 279.4,391.6 271.4,391.6" fill="rgb(255,255,255)"/>
<polygon points="279.4,383.6 287.4,383.6 287.4,391.6 279.4,391.6" fill="rgb(255,255,255)"/>
<polygon points="287.4,383.6 295.4,383.6 295.4,391.6 287.4,391.6" fill="rgb(255,255,255)"/>
<polygon points="295.4,383.6 303.4,383.6 303.4,391.6 295.4,391.6" fill="rgb(255,255,255)"/>
<polygon points="303.4,383.6 311.4,383.6 311.4,391.6 303.4,391.6" fill="rgb(255,255,255)"/>
<polygon points="311.4,383.6 319.4,383.6 319.4,391.6 311.4,391.6" fill="rgb(255,255,255)"/>
<polygon points="319.4,383.6 327.4,383.6 327.4,391.6 319.4,391.6" fill="rgb(255,255,255)"/>
<polygon points="115.4,335.6 179.4,335.6 179.4,391.6 115.4,391.6" fill="none" stroke="black" stroke-width="1"/>
<polygon points="189.4,335.6 253.4,335.6 253.4,391.6 189.4,391.6" fill="none" stroke="black" stroke-width="1"/>
<polygon points="263.4,335.6 327.4,335.6 327.4,391.6 263.4,391.6" fill="none" stroke="black" stroke-width="1"/>
<text xml:space="preserve" x="173.7" y="424.6" font-family="Calibri" font-size="8" text-anchor="middle">ClusterAssignment</text>
<polygon points="123.7,431.6 143.7,431.6 143.7,451.6 123.7,451.6" fill="rgb(0,205,0)"/><polygon points="123.7,431.6 143.7,431.6 143.7,451.6 123.7,451.6" fill="none" stroke="black" stroke-width="1"/><text xml:space="preserve" x="133.7" y="444.433" font-family="Calibri" font-size="7.5" fill="rgb(255,255,255)" text-anchor="middle">1.0</text>
<polygon points="143.7,431.6 163.7,431.6 163.7,451.6 143.7,451.6" fill="rgb(127,230,0)"/><polygon points="143.7,431.6 163.7,431.6 163.7,451.6 143.7,451.6" fill="none" stroke="black" stroke-width="1"/><text xml:space="preserve" x="153.7" y="444.433" font-family="Calibri" font-size="7.5" fill="rgb(0,0,0)" text-anchor="middle">2.0</text>
<polygon points="163.7,431.6 183.7,431.6 183.7,451.6 163.7,451.6" fill="rgb(255,255,0)"/><polygon points="163.7,431.6 183.7,431.6 183.7,451.6 163.7,451.6" fill="none" stroke="black" stroke-width="1"/><text xml:space="preserve" x="173.7" y="444.433" font-family="Calibri" font-size="7.5" fill="rgb(0,0,0)" text-anchor="middle">3.0</text>
<polygon points="183.7,431.6 203.7,431.6 203.7,451.6 183.7,451.6" fill="rgb(230,127,0)"/><polygon points="183.7,431.6 203.7,431.6 203.7,451.6 183.7,451.6" fill="none" stroke="black" stroke-width="1"/><text xml:space="preserve" x="193.7" y="444.433" font-family="Calibri" font-size="7.5" fill="rgb(0,0,0)" text-anchor="middle">4.0</text>
<polygon points="203.7,431.6 223.7,431.6 223.7,451.6 203.7,451.6" fill="rgb(205,0,0)"/><polygon points="203.7,431.6 223.7,431.6 223.7,451.6 203.7,451.6" fill="none" stroke="black" stroke-width="1"/><text xml:space="preserve" x="213.7" y="444.433" font-family="Calibri" font-size="7.5" fill="rgb(255,255,255)" text-anchor="middle">5.0</text>
<text xml:space="preserve" x="173.7" y="484.6" font-family="Calibri" font-size="8" text-anchor="middle">Expression</text>
<polygon points="123.7,491.6 143.7,491.6 143.7,511.6 123.7,511.6" fill="rgb(0,27,135)"/><polygon points="123.7,491.6 143.7,491.6 143.7,511.6 123.7,511.6" fill="none" stroke="black" stroke-width="1"/><text xml:space="preserve" x="133.7" y="504.433" font-family="Calibri" font-size="7.5" fill="rgb(255,255,255)" text-anchor="middle">0.0</text>
<polygon points="143.7,491.6 163.7,491.6 163.7,511.6 143.7,511.6" fill="rgb(24,123,140)"/><polygon points="143.7,491.6 163.7,491.6 163.7,511.6 143.7,511.6" fill="none" stroke="black" stroke-width="1"/><text xml:space="preserve" x="153.7" y="504.433" font-family="Calibri" font-size="7.5" fill="rgb(255,255,255)" text-anchor="middle">0.8</text>
<polygon points="163.7,491.6 183.7,491.6 183.7,511.6 163.7,511.6" fill="rgb(49,219,146)"/><polygon points="163.7,491.6 183.7,491.6 183.7,511.6 163.7,511.6" fill="none" stroke="black" stroke-width="1"/><text xml:space="preserve" x="173.7" y="504.433" font-family="Calibri" font-size="7.5" fill="rgb(0,0,0)" text-anchor="middle">1.5</text>
<polygon points="183.7,491.6 203.7,491.6 203.7,511.6 183.7,511.6" fill="rgb(150,206,73)"/><polygon points="183.7,491.6 203.7,491.6 203.7,511.6 183.7,511.6" fill="none" stroke="black" stroke-width="1"/><text xml:space="preserve" x="193.7" y="504.433" font-family="Calibri" font-size="7.5" fill="rgb(0,0,0)" text-anchor="middle">2.2</text>
<polygon points="203.7,491.6 223.7,491.6 223.7,511.6 203.7,511.6" fill="rgb(252,194,1)"/><polygon points="203.7,491.6 223.7,491.6 223.7,511.6 203.7,511.6" fill="none" stroke="black" stroke-width="1"/><text xml:space="preserve" x="213.7" y="504.433" font-family="Calibri" font-size="7.5" fill="rgb(0,0,0)" text-anchor="middle">3.0</text>
<text xml:space="preserve" x="173.7" y="544.6" font-family="Calibri" font-size="8" text-anchor="middle">PANTHERclass</text>
<polygon points="123.7,551.6 143.7,551.6 143.7,571.6 123.7,571.6" fill="rgb(255,255,255)"/><polygon points="123.7,551.6 143.7,551.6 143.7,571.6 123.7,571.6" fill="none" stroke="black" stroke-width="1"/><text xml:space="preserve" x="133.7" y="564.433" font-family="Calibri" font-size="7.5" fill="rgb(0,0,0)" text-anchor="middle">0.0</text>
<polygon points="143.7,551.6 163.7,551.6 163.7,571.6 143.7,571.6" fill="rgb(242,191,242)"/><polygon points="143.7,551.6 163.7,551.6 163.7,571.6 143.7,571.6" fill="none" stroke="black" stroke-width="1"/><text xml:space="preserve" x="153.7" y="564.433" font-family="Calibri" font-size="7.5" fill="rgb(0,0,0)" text-anchor="middle">0.2</text>
<polygon points="163.7,551.6 183.7,551.6 183.7,571.6 163.7,571.6" fill="rgb(230,127,230)"/><polygon points="163.7,551.6 183.7,551.6 183.7,571.6 163.7,571.6" fill="none" stroke="black" stroke-width="1"/><text xml:space="preserve" x="173.7" y="564.433" font-family="Calibri" font-size="7.5" fill="rgb(0,0,0)" text-anchor="middle">0.5</text>
<polygon points="183.7,551.6 203.7,551.6 203.7,571.6 183.7,571.6" fill="rgb(217,63,217)"/><polygon points="183.7,551.6 203.7,551.6 203.7,571.6 183.7,571.6" fill="none" stroke="black" stroke-width="1"/><text xml:space="preserve" x="193.7" y="564.433" font-family="Calibri" font-size="7.5" fill="rgb(255,255,255)" text-anchor="middle">0.8</text>
<polygon points="203.7,551.6 223.7,551.6 223.7,571.6 203.7,571.6" fill="rgb(205,0,205)"/><polygon points="203.7,551.6 223.7,551.6 223.7,571.6 203.7,571.6" fill="none" stroke="black" stroke-width="1"/><text xml:space="preserve" x="213.7" y="564.433" font-family="Calibri" font-size="7.5" fill="rgb(255,255,255)" text-anchor="middle">1.0</text>
</svg>
