<?xml version="1.0" standalone="no"?><!DOCTYPE svg PUBLIC "-//W3C//DTD SVG 1.1//EN" "http://www.w3.org/Graphics/SVG/1.1/DTD/svg11.dtd">
<svg width="338.4" height="567.6" version="1.1" xmlns="http://www.w3.org/2000/svg">
<text xml:space="preserve" x="102.4" y="342.6" font-family="Calibri" font-size="8" text-anchor="end">CHCHD10</text>
<text xml:space="preserve" x="102.4" y="350.6" font-family="Calibri" font-size="8" text-anchor="end">NPTX2</text>
<text xml:space="preserve" x="102.4" y="358.6" font-family="Calibri" font-size="8" text-anchor="end">TENT5A</text>
<text xml:space="preserve" x="102.4" y="366.6" font-family="Calibri" font-size="8" text-anchor="end">ECEL1</text>
<text xml:space="preserve" x="113.4" y="331.6" font-family="Calibri" font-size="8" transform="rotate(270 113.4 331.6)">c2</text>
<text xml:space="preserve" x="121.4" y="331.6" font-family="Calibri" font-size="8" transform="rotate(270 121.4 331.6)">c3</text>
<text xml:space="preserve" x="129.4" y="331.6" font-family="Calibri" font-size="8" transform="rotate(270 129.4 331.6)">c6</text>
<text xml:space="preserve" x="137.4" y="331.6" font-family="Calibri" font-size="8" transform="rotate(270 137.4 331.6)">c4</text>
<text xml:space="preserve" x="145.4" y="331.6" font-family="Calibri" font-size="8" transform="rotate(270 145.4 331.6)">c1</text>
<text xml:space="preserve" x="153.4" y="331.6" font-family="Calibri" font-size="8" transform="rotate(270 153.4 331.6)">c5</text>
<text xml:space="preserve" x="161.4" y="331.6" font-family="Calibri" font-size="8" transform="rotate(270 161.4 331.6)">c7</text>
<text xml:space="preserve" x="169.4" y="331.6" font-family="Calibri" font-size="8" transform="rotate(270 169.4 331.6)">c8</text>
<text xml:space="preserve" x="187.4" y="331.6" font-family="Calibri" font-size="8" transform="rotate(270 187.4 331.6)">c2_mean</text>
<text xml:space="preserve" x="195.4" y="331.6" font-family="Calibri" font-size="8" transform="rotate(270 195.4 331.6)">c3_mean</text>
<text xml:space="preserve" x="203.4" y="331.6" font-family="Calibri" font-size="8" transform="rotate(270 203.4 331.6)">c6_mean</text>
<text xml:space="preserve" x="211.4" y="331.6" font-family="Calibri" font-size="8" transform="rotate(270 211.4 331.6)">c4_mean</text>
<text xml:space="preserve" x="219.4" y="331.6" font-family="Calibri" font-size="8" transform="rotate(270 219.4 331.6)">c1_mean</text>
<text xml:space="preserve" x="227.4" y="331.6" font-family="Calibri" font-size="8" transform="rotate(270 227.4 331.6)">c5_mean</text>
<text xml:space="preserve" x="235.4" y="331.6" font-family="Calibri" font-size="8" transform="rotate(270 235.4 331.6)">c7_mean</text>
<text xml:space="preserve" x="243.4" y="331.6" font-family="Calibri" font-size="8" transform="rotate(270 243.4 331.6)">c8_mean</text>
<text xml:space="preserve" x="261.4" y="331.6" font-family="Calibri" font-size="8" transform="rotate(270 261.4 331.6)">transcription_factor</text>
<text xml:space="preserve" x="269.4" y="331.6" font-family="Calibri" font-size="8" transform="rotate(270 269.4 331.6)">transmembrane_signal_receptor</text>
<text xml:space="preserve" x="277.4" y="331.6" font-family="Calibri" font-size="8" transform="rotate(270 277.4 331.6)">growth_factor</text>
<text xml:space="preserve" x="285.4" y="331.6" font-family="Calibri" font-size="8" transform="rotate(270 285.4 331.6)">peptide_hormone</text>
<text xml:space="preserve" x="293.4" y="331.6" font-family="Calibri" font-size="8" transform="rotate(270 293.4 331.6)">cytoskeletal_protein</text>
<text xml:space="preserve" x="301.4" y="331.6" font-family="Calibri" font-size="8" transform="rotate(270 301.4 331.6)">ion_channel</text>
<text xml:space="preserve" x="309.4" y="331.6" font-family="Calibri" font-size="8" transform="rotate(270 309.4 331.6)">integrin</text>
<text xml:space="preserve" x="317.4" y="331.6" font-family="Calibri" font-size="8" transform="rotate(270 317.4 331.6)">extracellular_matrix_protein</text>
<polygon points="106.4,335.6 114.4,335.6 114.4,343.6 106.4,343.6" fill="rgb(230,127,0)"/><text xml:space="preserve" x="110.4" y="342.433" font-family="Calibri" font-size="7.5" fill="rgb(0,0,0)" text-anchor="middle">4</text>
<polygon points="114.4,335.6 122.4,335.6 122.4,343.6 114.4,343.6" fill="rgb(230,127,0)"/><text xml:space="preserve" x="118.4" y="342.433" font-family="Calibri" font-size="7.5" fill="rgb(0,0,0)" text-anchor="middle">4</text>
<polygon points="122.4,335.6 130.4,335.6 130.4,343.6 122.4,343.6" fill="rgb(230,127,0)"/><text xml:space="preserve" x="126.4" y="342.433" font-family="Calibri" font-size="7.5" fill="rgb(0,0,0)" text-anchor="middle">4</text>
<polygon points="130.4,335.6 138.4,335.6 138.4,343.6 130.4,343.6" fill="rgb(230,127,0)"/><text xml:space="preserve" x="134.4" y="342.433" font-family="Calibri" font-size="7.5" fill="rgb(0,0,0)" text-anchor="middle">4</text>
<polygon points="138.4,335.6 146.4,335.6 146.4,343.6 138.4,343.6" fill="rgb(230,127,0)"/><text xml:space="preserve" x="142.4" y="342.433" font-family="Calibri" font-size="7.5" fill="rgb(0,0,0)" text-anchor="middle">4</text>
<polygon points="146.4,335.6 154.4,335.6 154.4,343.6 146.4,343.6" fill="rgb(0,205,0)"/><text xml:space="preserve" x="150.4" y="342.433" font-family="Calibri" font-size="7.5" fill="rgb(255,255,255)" text-anchor="middle">1</text>
<polygon points="154.4,335.6 162.4,335.6 162.4,343.6 154.4,343.6" fill="rgb(0,205,0)"/><text xml:space="preserve" x="158.4" y="342.433" font-family="Calibri" font-size="7.5" fill="rgb(255,255,255)" text-anchor="middle">1</text>
<polygon points="162.4,335.6 170.4,335.6 170.4,343.6 162.4,343.6" fill="rgb(0,205,0)"/><text xml:space="preserve" x="166.4" y="342.433" font-family="Calibri" font-size="7.5" fill="rgb(255,255,255)" text-anchor="middle">1</text>
<polygon points="180.4,335.6 188.4,335.6 188.4,343.6 180.4,343.6" fill="rgb(25,126,140)"/>
<polygon points="188.4,335.6 196.4,335.6 196.4,343.6 188.4,343.6" fill="rgb(29,142,141)"/>
<polygon points="196.4,335.6 204.4,335.6 204.4,343.6 196.4,343.6" fill="rgb(24,121,140)"/>
<polygon points="204.4,335.6 212.4,335.6 212.4,343.6 204.4,343.6" fill="rgb(17,94,138)"/>
<polygon points="212.4,335.6 220.4,335.6 220.4,343.6 212.4,343.6" fill="rgb(19,105,139)"/>
<polygon points="220.4,335.6 228.4,335.6 228.4,343.6 220.4,343.6" fill="rgb(3,41,135)"/>
<polygon points="228.4,335.6 236.4,335.6 236.4,343.6 228.4,343.6" fill="rgb(3,41,135)"/>
<polygon points="236.4,335.6 244.4,335.6 244.4,343.6 236.4,343.6" fill="rgb(2,35,135)"/>
<polygon points="254.4,335.6 262.4,335.6 262.4,343.6 254.4,343.6" fill="rgb(255,255,255)"/>
<polygon points="262.4,335.6 270.4,335.6 270.4,343.6 262.4,343.6" fill="rgb(255,255,255)"/>
<polygon points="270.4,335.6 278.4,335.6 278.4,343.6 270.4,343.6" fill="rgb(255,255,255)"/>
<polygon points="278.4,335.6 286.4,335.6 286.4,343.6 278.4,343.6" fill="rgb(255,255,255)"/>
<polygon points="286.4,335.6 294.4,335.6 294.4,343.6 286.4,343.6" fill="rgb(255,255,255)"/>
<polygon points="294.4,335.6 302.4,335.6 302.4,343.6 294.4,343.6" fill="rgb(255,255,255)"/>
<polygon points="302.4,335.6 310.4,335.6 310.4,343.6 302.4,343.6" fill="rgb(255,255,255)"/>
<polygon points="310.4,335.6 318.4,335.6 318.4,343.6 310.4,343.6" fill="rgb(255,255,255)"/>
<polygon points="106.4,343.6 114.4,343.6 114.4,351.6 106.4,351.6" fill="rgb(230,127,0)"/><text xml:space="preserve" x="110.4" y="350.433" font-family="Calibri" font-size="7.5" fill="rgb(0,0,0)" text-anchor="middle">4</text>
<polygon points="114.4,343.6 122.4,343.6 122.4,351.6 114.4,351.6" fill="rgb(230,127,0)"/><text xml:space="preserve" x="118.4" y="350.433" font-family="Calibri" font-size="7.5" fill="rgb(0,0,0)" text-anchor="middle">4</text>
<polygon points="122.4,343.6 130.4,343.6 130.4,351.6 122.4,351.6" fill="rgb(230,127,0)"/><text xml:space="preserve" x="126.4" y="350.433" font-family="Calibri" font-size="7.5" fill="rgb(0,0,0)" text-anchor="middle">4</text>
<polygon points="130.4,343.6 138.4,343.6 138.4,351.6 130.4,351.6" fill="rgb(230,127,0)"/><text xml:space="preserve" x="134.4" y="350.433" font-family="Calibri" font-size="7.5" fill="rgb(0,0,0)" text-anchor="middle">4</text>
<polygon points="138.4,343.6 146.4,343.6 146.4,351.6 138.4,351.6" fill="rgb(230,127,0)"/><text xml:space="preserve" x="142.4" y="350.433" font-family="Calibri" font-size="7.5" fill="rgb(0,0,0)" text-anchor="middle">4</text>
<polygon points="146.4,343.6 154.4,343.6 154.4,351.6 146.4,351.6" fill="rgb(0,205,0)"/><text xml:space="preserve" x="150.4" y="350.433" font-family="Calibri" font-size="7.5" fill="rgb(255,255,255)" text-anchor="middle">1</text>
<polygon points="154.4,343.6 162.4,343.6 162.4,351.6 154.4,351.6" fill="rgb(0,205,0)"/><text xml:space="preserve" x="158.4" y="350.433" font-family="Calibri" font-size="7.5" fill="rgb(255,255,255)" text-anchor="middle">1</text>
<polygon points="162.4,343.6 170.4,343.6 170.4,351.6 162.4,351.6" fill="rgb(0,205,0)"/><text xml:space="preserve" x="166.4" y="350.433" font-family="Calibri" font-size="7.5" fill="rgb(255,255,255)" text-anchor="middle">1</text>
<polygon points="180.4,343.6 188.4,343.6 188.4,351.6 180.4,351.6" fill="rgb(24,124,140)"/>
<polygon points="188.4,343.6 196.4,343.6 196.4,351.6 188.4,351.6" fill="rgb(37,175,143)"/>
<polygon points="196.4,343.6 204.4,343.6 204.4,351.6 196.4,351.6" fill="rgb(42,194,144)"/>
<polygon points="204.4,343.6 212.4,343.6 212.4,351.6 204.4,351.6" fill="rgb(22,116,140)"/>
<polygon points="212.4,343.6 220.4,343.6 220.4,351.6 212.4,351.6" fill="rgb(16,89,138)"/>
<polygon points="220.4,343.6 228.4,343.6 228.4,351.6 220.4,351.6" fill="rgb(3,41,135)"/>
<polygon points="228.4,343.6 236.4,343.6 236.4,351.6 228.4,351.6" fill="rgb(2,35,135)"/>
<polygon points="236.4,343.6 244.4,343.6 244.4,351.6 236.4,351.6" fill="rgb(1,32,135)"/>
<polygon points="254.4,343.6 262.4,343.6 262.4,351.6 254.4,351.6" fill="rgb(255,255,255)"/>
<polygon points="262.4,343.6 270.4,343.6 270.4,351.6 262.4,351.6" fill="rgb(255,255,255)"/>
<polygon points="270.4,343.6 278.4,343.6 278.4,351.6 270.4,351.6" fill="rgb(255,255,255)"/>
<polygon points="278.4,343.6 286.4,343.6 286.4,351.6 278.4,351.6" fill="rgb(255,255,255)"/>
<polygon points="286.4,343.6 294.4,343.6 294.4,351.6 286.4,351.6" fill="rgb(255,255,255)"/>
<polygon points="294.4,343.6 302.4,343.6 302.4,351.6 294.4,351.6" fill="rgb(255,255,255)"/>
<polygon points="302.4,343.6 310.4,343.6 310.4,351.6 302.4,351.6" fill="rgb(255,255,255)"/>
<polygon points="310.4,343.6 318.4,343.6 318.4,351.6 310.4,351.6" fill="rgb(255,255,255)"/>
<polygon points="106.4,351.6 114.4,351.6 114.4,359.6 106.4,359.6" fill="rgb(230,127,0)"/><text xml:space="preserve" x="110.4" y="358.433" font-family="Calibri" font-size="7.5" fill="rgb(0,0,0)" text-anchor="middle">4</text>
<polygon points="114.4,351.6 122.4,351.6 122.4,359.6 114.4,359.6" fill="rgb(230,127,0)"/><text xml:space="preserve" x="118.4" y="358.433" font-family="Calibri" font-size="7.5" fill="rgb(0,0,0)" text-anchor="middle">4</text>
<polygon points="122.4,351.6 130.4,351.6 130.4,359.6 122.4,359.6" fill="rgb(230,127,0)"/><text xml:space="preserve" x="126.4" y="358.433" font-family="Calibri" font-size="7.5" fill="rgb(0,0,0)" text-anchor="middle">4</text>
<polygon points="130.4,351.6 138.4,351.6 138.4,359.6 130.4,359.6" fill="rgb(230,127,0)"/><text xml:space="preserve" x="134.4" y="358.433" font-family="Calibri" font-size="7.5" fill="rgb(0,0,0)" text-anchor="middle">4</text>
<polygon points="138.4,351.6 146.4,351.6 146.4,359.6 138.4,359.6" fill="rgb(230,127,0)"/><text xml:space="preserve" x="142.4" y="358.433" font-family="Calibri" font-size="7.5" fill="rgb(0,0,0)" text-anchor="middle">4</text>
<polygon points="146.4,351.6 154.4,351.6 154.4,359.6 146.4,359.6" fill="rgb(0,205,0)"/><text xml:space="preserve" x="150.4" y="358.433" font-family="Calibri" font-size="7.5" fill="rgb(255,255,255)" text-anchor="middle">1</text>
<polygon points="154.4,351.6 162.4,351.6 162.4,359.6 154.4,359.6" fill="rgb(0,205,0)"/><text xml:space="preserve" x="158.4" y="358.433" font-family="Calibri" font-size="7.5" fill="rgb(255,255,255)" text-anchor="middle">1</text>
<polygon points="162.4,351.6 170.4,351.6 170.4,359.6 162.4,359.6" fill="rgb(0,205,0)"/><text xml:space="preserve" x="166.4" y="358.433" font-family="Calibri" font-size="7.5" fill="rgb(255,255,255)" text-anchor="middle">1</text>
<polygon points="180.4,351.6 188.4,351.6 188.4,359.6 180.4,359.6" fill="rgb(33,157,142)"/>
<polygon points="188.4,351.6 196.4,351.6 196.4,359.6 188.4,359.6" fill="rgb(34,162,142)"/>
<polygon points="196.4,351.6 204.4,351.6 204.4,359.6 196.4,359.6" fill="rgb(23,119,140)"/>
<polygon points="204.4,351.6 212.4,351.6 212.4,359.6 204.4,359.6" fill="rgb(14,82,138)"/>
<polygon points="212.4,351.6 220.4,351.6 220.4,359.6 212.4,359.6" fill="rgb(20,107,139)"/>
<polygon points="220.4,351.6 228.4,351.6 228.4,359.6 220.4,359.6" fill="rgb(5,47,136)"/>
<polygon points="228.4,351.6 236.4,351.6 236.4,359.6 228.4,359.6" fill="rgb(4,46,136)"/>
<polygon points="236.4,351.6 244.4,351.6 244.4,359.6 236.4,359.6" fill="rgb(2,37,135)"/>
<polygon points="254.4,351.6 262.4,351.6 262.4,359.6 254.4,359.6" fill="rgb(255,255,255)"/>
<polygon points="262.4,351.6 270.4,351.6 270.4,359.6 262.4,359.6" fill="rgb(255,255,255)"/>
<polygon points="270.4,351.6 278.4,351.6 278.4,359.6 270.4,359.6" fill="rgb(255,255,255)"/>
<polygon points="278.4,351.6 286.4,351.6 286.4,359.6 278.4,359.6" fill="rgb(255,255,255)"/>
<polygon points="286.4,351.6 294.4,351.6 294.4,359.6 286.4,359.6" fill="rgb(255,255,255)"/>
<polygon points="294.4,351.6 302.4,351.6 302.4,359.6 294.4,359.6" fill="rgb(255,255,255)"/>
<polygon points="302.4,351.6 310.4,351.6 310.4,359.6 302.4,359.6" fill="rgb(255,255,255)"/>
<polygon points="310.4,351.6 318.4,351.6 318.4,359.6 310.4,359.6" fill="rgb(255,255,255)"/>
<polygon points="106.4,359.6 114.4,359.6 114.4,367.6 106.4,367.6" fill="rgb(230,127,0)"/><text xml:space="preserve" x="110.4" y="366.433" font-family="Calibri" font-size="7.5" fill="rgb(0,0,0)" text-anchor="middle">4</text>
<polygon points="114.4,359.6 122.4,359.6 122.4,367.6 114.4,367.6" fill="rgb(230,127,0)"/><text xml:space="preserve" x="118.4" y="366.433" font-family="Calibri" font-size="7.5" fill="rgb(0,0,0)" text-anchor="middle">4</text>
<polygon points="122.4,359.6 130.4,359.6 130.4,367.6 122.4,367.6" fill="rgb(230,127,0)"/><text xml:space="preserve" x="126.4" y="366.433" font-family="Calibri" font-size="7.5" fill="rgb(0,0,0)" text-anchor="middle">4</text>
<polygon points="130.4,359.6 138.4,359.6 138.4,367.6 130.4,367.6" fill="rgb(230,127,0)"/><text xml:space="preserve" x="134.4" y="366.433" font-family="Calibri" font-size="7.5" fill="rgb(0,0,0)" text-anchor="middle">4</text>
<polygon points="138.4,359.6 146.4,359.6 146.4,367.6 138.4,367.6" fill="rgb(230,127,0)"/><text xml:space="preserve" x="142.4" y="366.433" font-family="Calibri" font-size="7.5" fill="rgb(0,0,0)" text-anchor="middle">4</text>
<polygon points="146.4,359.6 154.4,359.6 154.4,367.6 146.4,367.6" fill="rgb(0,205,0)"/><text xml:space="preserve" x="150.4" y="366.433" font-family="Calibri" font-size="7.5" fill="rgb(255,255,255)" text-anchor="middle">1</text>
<polygon points="154.4,359.6 162.4,359.6 162.4,367.6 154.4,367.6" fill="rgb(0,205,0)"/><text xml:space="preserve" x="158.4" y="366.433" font-family="Calibri" font-size="7.5" fill="rgb(255,255,255)" text-anchor="middle">1</text>
<polygon points="162.4,359.6 170.4,359.6 170.4,367.6 162.4,367.6" fill="rgb(0,205,0)"/><text xml:space="preserve" x="166.4" y="366.433" font-family="Calibri" font-size="7.5" fill="rgb(255,255,255)" text-anchor="middle">1</text>
<polygon points="180.4,359.6 188.4,359.6 188.4,367.6 180.4,367.6" fill="rgb(19,102,139)"/>
<polygon points="188.4,359.6 196.4,359.6 196.4,367.6 188.4,367.6" fill="rgb(33,158,142)"/>
<polygon points="196.4,359.6 204.4,359.6 204.4,367.6 196.4,367.6" fill="rgb(25,126,140)"/>
<polygon points="204.4,359.6 212.4,359.6 212.4,367.6 204.4,367.6" fill="rgb(17,96,138)"/>
<polygon points="212.4,359.6 220.4,359.6 220.4,367.6 212.4,367.6" fill="rgb(18,99,139)"/>
<polygon points="220.4,359.6 228.4,359.6 228.4,367.6 220.4,367.6" fill="rgb(0,29,135)"/>
<polygon points="228.4,359.6 236.4,359.6 236.4,367.6 228.4,367.6" fill="rgb(4,43,135)"/>
<polygon points="236.4,359.6 244.4,359.6 244.4,367.6 236.4,367.6" fill="rgb(2,37,135)"/>
<polygon points="254.4,359.6 262.4,359.6 262.4,367.6 254.4,367.6" fill="rgb(255,255,255)"/>
<polygon points="262.4,359.6 270.4,359.6 270.4,367.6 262.4,367.6" fill="rgb(255,255,255)"/>
<polygon points="270.4,359.6 278.4,359.6 278.4,367.6 270.4,367.6" fill="rgb(255,255,255)"/>
<polygon points="278.4,359.6 286.4,359.6 286.4,367.6 278.4,367.6" fill="rgb(255,255,255)"/>
<polygon points="286.4,359.6 294.4,359.6 294.4,367.6 286.4,367.6" fill="rgb(255,255,255)"/>
<polygon points="294.4,359.6 302.4,359.6 302.4,367.6 294.4,367.6" fill="rgb(255,255,255)"/>
<polygon points="302.4,359.6 310.4,359.6 310.4,367.6 302.4,367.6" fill="rgb(255,255,255)"/>
<polygon points="310.4,359.6 318.4,359.6 318.4,367.6 310.4,367.6" fill="rgb(255,255,255)"/>
<polygon points="106.4,335.6 170.4,335.6 170.4,367.6 106.4,367.6" fill="none" stroke="black" stroke-width="1"/>
<polygon points="180.4,335.6 244.4,335.6 244.4,367.6 180.4,367.6" fill="none" stroke="black" stroke-width="1"/>
<polygon points="254.4,335.6 318.4,335.6 318.4,367.6 254.4,367.6" fill="none" stroke="black" stroke-width="1"/>
<text xml:space="preserve" x="169.2" y="400.6" font-family="Calibri" font-size="8" text-anchor="middle">ClusterAssignment</text>
<polygon points="119.2,407.6 139.2,407.6 139.2,427.6 119.2,427.6" fill="rgb(0,205,0)"/><polygon points="119.2,407.6 139.2,407.6 139.2,427.6 119.2,427.6" fill="none" stroke="black" stroke-width="1"/><text xml:space="preserve" x="129.2" y="420.433" font-family="Calibri" font-size="7.5" fill="rgb(255,255,255)" text-anchor="middle">1.0</text>
<polygon points="139.2,407.6 159.2,407.6 159.2,427.6 139.2,427.6" fill="rgb(127,230,0)"/><polygon points="139.2,407.6 159.2,407.6 159.2,427.6 139.2,427.6" fill="none" stroke="black" stroke-width="1"/><text xml:space="preserve" x="149.2" y="420.433" font-family="Calibri" font-size="7.5" fill="rgb(0,0,0)" text-anchor="middle">2.0</text>
<polygon points="159.2,407.6 179.2,407.6 179.2,427.6 159.2,427.6" fill="rgb(255,255,0)"/><polygon points="159.2,407.6 179.2,407.6 179.2,427.6 159.2,427.6" fill="none" stroke="black" stroke-width="1"/><text xml:space="preserve" x="169.2" y="420.433" font-family="Calibri" font-size="7.5" fill="rgb(0,0,0)" text-anchor="middle">3.0</text>
<polygon points="179.2,407.6 199.2,407.6 199.2,427.6 179.2,427.6" fill="rgb(230,127,0)"/><polygon points="179.2,407.6 199.2,407.6 199.2,427.6 179.2,427.6" fill="none" stroke="black" stroke-width="1"/><text xml:space="preserve" x="189.2" y="420.433" font-family="Calibri" font-size="7.5" fill="rgb(0,0,0)" text-anchor="middle">4.0</text>
<polygon points="199.2,407.6 219.2,407.6 219.2,427.6 199.2,427.6" fill="rgb(205,0,0)"/><polygon points="199.2,407.6 219.2,407.6 219.2,427.6 199.2,427.6" fill="none" stroke="black" stroke-width="1"/><text xml:space="preserve" x="209.2" y="420.433" font-family="Calibri" font-size="7.5" fill="rgb(255,255,255)" text-anchor="middle">5.0</text>
<text xml:space="preserve" x="169.2" y="460.6" font-family="Calibri" font-size="8" text-anchor="middle">Expression</text>
<polygon points="119.2,467.6 139.2,467.6 139.2,487.6 119.2,487.6" fill="rgb(0,27,135)"/><polygon points="119.2,467.6 139.2,467.6 139.2,487.6 119.2,487.6" fill="none" stroke="black" stroke-width="1"/><text xml:space="preserve" x="129.2" y="480.433" font-family="Calibri" font-size="7.5" fill="rgb(255,255,255)" text-anchor="middle">0.0</text>
<polygon points="139.2,467.6 159.2,467.6 159.2,487.6 139.2,487.6" fill="rgb(24,123,140)"/><polygon points="139.2,467.6 159.2,467.6 159.2,487.6 139.2,487.6" fill="none" stroke="black" stroke-width="1"/><text xml:space="preserve" x="149.2" y="480.433" font-family="Calibri" font-size="7.5" fill="rgb(255,255,255)" text-anchor="middle">0.8</text>
<polygon points="159.2,467.6 179.2,467.6 179.2,487.6 159.2,487.6" fill="rgb(49,219,146)"/><polygon points="159.2,467.6 179.2,467.6 179.2,487.6 159.2,487.6" fill="none" stroke="black" stroke-width="1"/><text xml:space="preserve" x="169.2" y="480.433" font-family="Calibri" font-size="7.5" fill="rgb(0,0,0)" text-anchor="middle">1.5</text>
<polygon points="179.2,467.6 199.2,467.6 199.2,487.6 179.2,487.6" fill="rgb(150,206,73)"/><polygon points="179.2,467.6 199.2,467.6 199.2,487.6 179.2,487.6" fill="none" stroke="black" stroke-width="1"/><text xml:space="preserve" x="189.2" y="480.433" font-family="Calibri" font-size="7.5" fill="rgb(0,0,0)" text-anchor="middle">2.2</text>
<polygon points="199.2,467.6 219.2,467.6 219.2,487.6 199.2,487.6" fill="rgb(252,194,1)"/><polygon points="199.2,467.6 219.2,467.6 219.2,487.6 199.2,487.6" fill="none" stroke="black" stroke-width="1"/><text xml:space="preserve" x="209.2" y="480.433" font-family="Calibri" font-size="7.5" fill="rgb(0,0,0)" text-anchor="middle">3.0</text>
<text xml:space="preserve" x="169.2" y="520.6" font-family="Calibri" font-size="8" text-anchor="middle">PANTHERclass</text>
<polygon points="119.2,527.6 139.2,527.6 139.2,547.6 119.2,547.6" fill="rgb(255,255,255)"/><polygon points="119.2,527.6 139.2,527.6 139.2,547.6 119.2,547.6" fill="none" stroke="black" stroke-width="1"/><text xml:space="preserve" x="129.2" y="540.433" font-family="Calibri" font-size="7.5" fill="rgb(0,0,0)" text-anchor="middle">0.0</text>
<polygon points="139.2,527.6 159.2,527.6 159.2,547.6 139.2,547.6" fill="rgb(242,191,242)"/><polygon points="139.2,527.6 159.2,527.6 159.2,547.6 139.2,547.6" fill="none" stroke="black" stroke-width="1"/><text xml:space="preserve" x="149.2" y="540.433" font-family="Calibri" font-size="7.5" fill="rgb(0,0,0)" text-anchor="middle">0.2</text>
<polygon points="159.2,527.6 179.2,527.6 179.2,547.6 159.2,547.6" fill="rgb(230,127,230)"/><polygon points="159.2,527.6 179.2,527.6 179.2,547.6 159.2,547.6" fill="none" stroke="black" stroke-width="1"/><text xml:space="preserve" x="169.2" y="540.433" font-family="Calibri" font-size="7.5" fill="rgb(0,0,0)" text-anchor="middle">0.5</text>
<polygon points="179.2,527.6 199.2,527.6 199.2,547.6 179.2,547.6" fill="rgb(217,63,217)"/><polygon points="179.2,527.6 199.2,527.6 199.2,547.6 179.2,547.6" fill="none" stroke="black" stroke-width="1"/><text xml:space="preserve" x="189.2" y="540.433" font-family="Calibri" font-size="7.5" fill="rgb(255,255,255)" text-anchor="middle">0.8</text>
<polygon points="199.2,527.6 219.2,527.6 219.2,547.6 199.2,547.6" fill="rgb(205,0,205)"/><polygon points="199.2,527.6 219.2,527.6 219.2,547.6 199.2,547.6" fill="none" stroke="black" stroke-width="1"/><text xml:space="preserve" x="209.2" y="540.433" font-family="Calibri" font-size="7.5" fill="rgb(255,255,255)" text-anchor="middle">1.0</text>
</svg>
