<?xml version="1.0" standalone="no"?><!DOCTYPE svg PUBLIC "-//W3C//DTD SVG 1.1//EN" "http://www.w3.org/Graphics/SVG/1.1/DTD/svg11.dtd">
<svg width="355.2" height="591.6" version="1.1" xmlns="http://www.w3.org/2000/svg">
<text xml:space="preserve" x="119.2" y="342.6" font-family="Calibri" font-size="8" text-anchor="end">ANXA2</text>
<text xml:space="preserve" x="119.2" y="350.6" font-family="Calibri" font-size="8" text-anchor="end">SYTL5</text>
<text xml:space="preserve" x="119.2" y="358.6" font-family="Calibri" font-size="8" text-anchor="end">UNC5B-AS1</text>
<text xml:space="preserve" x="119.2" y="366.6" font-family="Calibri" font-size="8" text-anchor="end">STC1</text>
<text xml:space="preserve" x="119.2" y="374.6" font-family="Calibri" font-size="8" text-anchor="end">CYTOR</text>
<text xml:space="preserve" x="119.2" y="382.6" font-family="Calibri" font-size="8" text-anchor="end">GDF15</text>
<text xml:space="preserve" x="119.2" y="390.6" font-family="Calibri" font-size="8" text-anchor="end">GEM</text>
<text xml:space="preserve" x="130.2" y="331.6" font-family="Calibri" font-size="8" transform="rotate(270 130.2 331.6)">c2</text>
<text xml:space="preserve" x="138.2" y="331.6" font-family="Calibri" font-size="8" transform="rotate(270 138.2 331.6)">c3</text>
<text xml:space="preserve" x="146.2" y="331.6" font-family="Calibri" font-size="8" transform="rotate(270 146.2 331.6)">c6</text>
<text xml:space="preserve" x="154.2" y="331.6" font-family="Calibri" font-size="8" transform="rotate(270 154.2 331.6)">c4</text>
<text xml:space="preserve" x="162.2" y="331.6" font-family="Calibri" font-size="8" transform="rotate(270 162.2 331.6)">c1</text>
<text xml:space="preserve" x="170.2" y="331.6" font-family="Calibri" font-size="8" transform="rotate(270 170.2 331.6)">c5</text>
<text xml:space="preserve" x="178.2" y="331.6" font-family="Calibri" font-size="8" transform="rotate(270 178.2 331.6)">c7</text>
<text xml:space="preserve" x="186.2" y="331.6" font-family="Calibri" font-size="8" transform="rotate(270 186.2 331.6)">c8</text>
<text xml:space="preserve" x="204.2" y="331.6" font-family="Calibri" font-size="8" transform="rotate(270 204.2 331.6)">c2_mean</text>
<text xml:space="preserve" x="212.2" y="331.6" font-family="Calibri" font-size="8" transform="rotate(270 212.2 331.6)">c3_mean</text>
<text xml:space="preserve" x="220.2" y="331.6" font-family="Calibri" font-size="8" transform="rotate(270 220.2 331.6)">c6_mean</text>
<text xml:space="preserve" x="228.2" y="331.6" font-family="Calibri" font-size="8" transform="rotate(270 228.2 331.6)">c4_mean</text>
<text xml:space="preserve" x="236.2" y="331.6" font-family="Calibri" font-size="8" transform="rotate(270 236.2 331.6)">c1_mean</text>
<text xml:space="preserve" x="244.2" y="331.6" font-family="Calibri" font-size="8" transform="rotate(270 244.2 331.6)">c5_mean</text>
<text xml:space="preserve" x="252.2" y="331.6" font-family="Calibri" font-size="8" transform="rotate(270 252.2 331.6)">c7_mean</text>
<text xml:space="preserve" x="260.2" y="331.6" font-family="Calibri" font-size="8" transform="rotate(270 260.2 331.6)">c8_mean</text>
<text xml:space="preserve" x="278.2" y="331.6" font-family="Calibri" font-size="8" transform="rotate(270 278.2 331.6)">transcription_factor</text>
<text xml:space="preserve" x="286.2" y="331.6" font-family="Calibri" font-size="8" transform="rotate(270 286.2 331.6)">transmembrane_signal_receptor</text>
<text xml:space="preserve" x="294.2" y="331.6" font-family="Calibri" font-size="8" transform="rotate(270 294.2 331.6)">growth_factor</text>
<text xml:space="preserve" x="302.2" y="331.6" font-family="Calibri" font-size="8" transform="rotate(270 302.2 331.6)">peptide_hormone</text>
<text xml:space="preserve" x="310.2" y="331.6" font-family="Calibri" font-size="8" transform="rotate(270 310.2 331.6)">cytoskeletal_protein</text>
<text xml:space="preserve" x="318.2" y="331.6" font-family="Calibri" font-size="8" transform="rotate(270 318.2 331.6)">ion_channel</text>
<text xml:space="preserve" x="326.2" y="331.6" font-family="Calibri" font-size="8" transform="rotate(270 326.2 331.6)">integrin</text>
<text xml:space="preserve" x="334.2" y="331.6" font-family="Calibri" font-size="8" transform="rotate(270 334.2 331.6)">extracellular_matrix_protein</text>
<polygon points="123.2,335.6 131.2,335.6 131.2,343.6 123.2,343.6" fill="rgb(205,0,0)"/><text xml:space="preserve" x="127.2" y="342.433" font-family="Calibri" font-size="7.5" fill="rgb(255,255,255)" text-anchor="middle">5</text>
<polygon points="131.2,335.6 139.2,335.6 139.2,343.6 131.2,343.6" fill="rgb(230,127,0)"/><text xml:space="preserve" x="135.2" y="342.433" font-family="Calibri" font-size="7.5" fill="rgb(0,0,0)" text-anchor="middle">4</text>
<polygon points="139.2,335.6 147.2,335.6 147.2,343.6 139.2,343.6" fill="rgb(0,205,0)"/><text xml:space="preserve" x="143.2" y="342.433" font-family="Calibri" font-size="7.5" fill="rgb(255,255,255)" text-anchor="middle">1</text>
<polygon points="147.2,335.6 155.2,335.6 155.2,343.6 147.2,343.6" fill="rgb(0,205,0)"/><text xml:space="preserve" x="151.2" y="342.433" font-family="Calibri" font-size="7.5" fill="rgb(255,255,255)" text-anchor="middle">1</text>
<polygon points="155.2,335.6 163.2,335.6 163.2,343.6 155.2,343.6" fill="rgb(0,205,0)"/><text xml:space="preserve" x="159.2" y="342.433" font-family="Calibri" font-size="7.5" fill="rgb(255,255,255)" text-anchor="middle">1</text>
<polygon points="163.2,335.6 171.2,335.6 171.2,343.6 163.2,343.6" fill="rgb(0,205,0)"/><text xml:space="preserve" x="167.2" y="342.433" font-family="Calibri" font-size="7.5" fill="rgb(255,255,255)" text-anchor="middle">1</text>
<polygon points="171.2,335.6 179.2,335.6 179.2,343.6 171.2,343.6" fill="rgb(0,205,0)"/><text xml:space="preserve" x="175.2" y="342.433" font-family="Calibri" font-size="7.5" fill="rgb(255,255,255)" text-anchor="middle">1</text>
<polygon points="179.2,335.6 187.2,335.6 187.2,343.6 179.2,343.6" fill="rgb(0,205,0)"/><text xml:space="preserve" x="183.2" y="342.433" font-family="Calibri" font-size="7.5" fill="rgb(255,255,255)" text-anchor="middle">1</text>
<polygon points="197.2,335.6 205.2,335.6 205.2,343.6 197.2,343.6" fill="rgb(42,194,144)"/>
<polygon points="205.2,335.6 213.2,335.6 213.2,343.6 205.2,343.6" fill="rgb(20,108,139)"/>
<polygon points="213.2,335.6 221.2,335.6 221.2,343.6 213.2,343.6" fill="rgb(6,53,136)"/>
<polygon points="221.2,335.6 229.2,335.6 229.2,343.6 221.2,343.6" fill="rgb(5,48,136)"/>
<polygon points="229.2,335.6 237.2,335.6 237.2,343.6 229.2,343.6" fill="rgb(1,34,135)"/>
<polygon points="237.2,335.6 245.2,335.6 245.2,343.6 237.2,343.6" fill="rgb(1,33,135)"/>
<polygon points="245.2,335.6 253.2,335.6 253.2,343.6 245.2,343.6" fill="rgb(0,30,135)"/>
<polygon points="253.2,335.6 261.2,335.6 261.2,343.6 253.2,343.6" fill="rgb(1,32,135)"/>
<polygon points="271.2,335.6 279.2,335.6 279.2,343.6 271.2,343.6" fill="rgb(255,255,255)"/>
<polygon points="279.2,335.6 287.2,335.6 287.2,343.6 279.2,343.6" fill="rgb(255,255,255)"/>
<polygon points="287.2,335.6 295.2,335.6 295.2,343.6 287.2,343.6" fill="rgb(255,255,255)"/>
<polygon points="295.2,335.6 303.2,335.6 303.2,343.6 295.2,343.6" fill="rgb(255,255,255)"/>
<polygon points="303.2,335.6 311.2,335.6 311.2,343.6 303.2,343.6" fill="rgb(255,255,255)"/>
<polygon points="311.2,335.6 319.2,335.6 319.2,343.6 311.2,343.6" fill="rgb(255,255,255)"/>
<polygon points="319.2,335.6 327.2,335.6 327.2,343.6 319.2,343.6" fill="rgb(255,255,255)"/>
<polygon points="327.2,335.6 335.2,335.6 335.2,343.6 327.2,343.6" fill="rgb(255,255,255)"/>
<polygon points="123.2,343.6 131.2,343.6 131.2,351.6 123.2,351.6" fill="rgb(205,0,0)"/><text xml:space="preserve" x="127.2" y="350.433" font-family="Calibri" font-size="7.5" fill="rgb(255,255,255)" text-anchor="middle">5</text>
<polygon points="131.2,343.6 139.2,343.6 139.2,351.6 131.2,351.6" fill="rgb(230,127,0)"/><text xml:space="preserve" x="135.2" y="350.433" font-family="Calibri" font-size="7.5" fill="rgb(0,0,0)" text-anchor="middle">4</text>
<polygon points="139.2,343.6 147.2,343.6 147.2,351.6 139.2,351.6" fill="rgb(0,205,0)"/><text xml:space="preserve" x="143.2" y="350.433" font-family="Calibri" font-size="7.5" fill="rgb(255,255,255)" text-anchor="middle">1</text>
<polygon points="147.2,343.6 155.2,343.6 155.2,351.6 147.2,351.6" fill="rgb(0,205,0)"/><text xml:space="preserve" x="151.2" y="350.433" font-family="Calibri" font-size="7.5" fill="rgb(255,255,255)" text-anchor="middle">1</text>
<polygon points="155.2,343.6 163.2,343.6 163.2,351.6 155.2,351.6" fill="rgb(0,205,0)"/><text xml:space="preserve" x="159.2" y="350.433" font-family="Calibri" font-size="7.5" fill="rgb(255,255,255)" text-anchor="middle">1</text>
<polygon points="163.2,343.6 171.2,343.6 171.2,351.6 163.2,351.6" fill="rgb(0,205,0)"/><text xml:space="preserve" x="167.2" y="350.433" font-family="Calibri" font-size="7.5" fill="rgb(255,255,255)" text-anchor="middle">1</text>
<polygon points="171.2,343.6 179.2,343.6 179.2,351.6 171.2,351.6" fill="rgb(0,205,0)"/><text xml:space="preserve" x="175.2" y="350.433" font-family="Calibri" font-size="7.5" fill="rgb(255,255,255)" text-anchor="middle">1</text>
<polygon points="179.2,343.6 187.2,343.6 187.2,351.6 179.2,351.6" fill="rgb(0,205,0)"/><text xml:space="preserve" x="183.2" y="350.433" font-family="Calibri" font-size="7.5" fill="rgb(255,255,255)" text-anchor="middle">1</text>
<polygon points="197.2,343.6 205.2,343.6 205.2,351.6 197.2,351.6" fill="rgb(57,218,140)"/>
<polygon points="205.2,343.6 213.2,343.6 213.2,351.6 205.2,351.6" fill="rgb(27,134,141)"/>
<polygon points="213.2,343.6 221.2,343.6 221.2,351.6 213.2,351.6" fill="rgb(4,46,136)"/>
<polygon points="221.2,343.6 229.2,343.6 229.2,351.6 221.2,351.6" fill="rgb(4,46,136)"/>
<polygon points="229.2,343.6 237.2,343.6 237.2,351.6 229.2,351.6" fill="rgb(1,33,135)"/>
<polygon points="237.2,343.6 245.2,343.6 245.2,351.6 237.2,351.6" fill="rgb(0,29,135)"/>
<polygon points="245.2,343.6 253.2,343.6 253.2,351.6 245.2,351.6" fill="rgb(0,29,135)"/>
<polygon points="253.2,343.6 261.2,343.6 261.2,351.6 253.2,351.6" fill="rgb(0,30,135)"/>
<polygon points="271.2,343.6 279.2,343.6 279.2,351.6 271.2,351.6" fill="rgb(255,255,255)"/>
<polygon points="279.2,343.6 287.2,343.6 287.2,351.6 279.2,351.6" fill="rgb(255,255,255)"/>
<polygon points="287.2,343.6 295.2,343.6 295.2,351.6 287.2,351.6" fill="rgb(255,255,255)"/>
<polygon points="295.2,343.6 303.2,343.6 303.2,351.6 295.2,351.6" fill="rgb(255,255,255)"/>
<polygon points="303.2,343.6 311.2,343.6 311.2,351.6 303.2,351.6" fill="rgb(255,255,255)"/>
<polygon points="311.2,343.6 319.2,343.6 319.2,351.6 311.2,351.6" fill="rgb(255,255,255)"/>
<polygon points="319.2,343.6 327.2,343.6 327.2,351.6 319.2,351.6" fill="rgb(255,255,255)"/>
<polygon points="327.2,343.6 335.2,343.6 335.2,351.6 327.2,351.6" fill="rgb(255,255,255)"/>
<polygon points="123.2,351.6 131.2,351.6 131.2,359.6 123.2,359.6" fill="rgb(205,0,0)"/><text xml:space="preserve" x="127.2" y="358.433" font-family="Calibri" font-size="7.5" fill="rgb(255,255,255)" text-anchor="middle">5</text>
<polygon points="131.2,351.6 139.2,351.6 139.2,359.6 131.2,359.6" fill="rgb(230,127,0)"/><text xml:space="preserve" x="135.2" y="358.433" font-family="Calibri" font-size="7.5" fill="rgb(0,0,0)" text-anchor="middle">4</text>
<polygon points="139.2,351.6 147.2,351.6 147.2,359.6 139.2,359.6" fill="rgb(0,205,0)"/><text xml:space="preserve" x="143.2" y="358.433" font-family="Calibri" font-size="7.5" fill="rgb(255,255,255)" text-anchor="middle">1</text>
<polygon points="147.2,351.6 155.2,351.6 155.2,359.6 147.2,359.6" fill="rgb(0,205,0)"/><text xml:space="preserve" x="151.2" y="358.433" font-family="Calibri" font-size="7.5" fill="rgb(255,255,255)" text-anchor="middle">1</text>
<polygon points="155.2,351.6 163.2,351.6 163.2,359.6 155.2,359.6" fill="rgb(0,205,0)"/><text xml:space="preserve" x="159.2" y="358.433" font-family="Calibri" font-size="7.5" fill="rgb(255,255,255)" text-anchor="middle">1</text>
<polygon points="163.2,351.6 171.2,351.6 171.2,359.6 163.2,359.6" fill="rgb(0,205,0)"/><text xml:space="preserve" x="167.2" y="358.433" font-family="Calibri" font-size="7.5" fill="rgb(255,255,255)" text-anchor="middle">1</text>
<polygon points="171.2,351.6 179.2,351.6 179.2,359.6 171.2,359.6" fill="rgb(0,205,0)"/><text xml:space="preserve" x="175.2" y="358.433" font-family="Calibri" font-size="7.5" fill="rgb(255,255,255)" text-anchor="middle">1</text>
<polygon points="179.2,351.6 187.2,351.6 187.2,359.6 179.2,359.6" fill="rgb(0,205,0)"/><text xml:space="preserve" x="183.2" y="358.433" font-family="Calibri" font-size="7.5" fill="rgb(255,255,255)" text-anchor="middle">1</text>
<polygon points="197.2,351.6 205.2,351.6 205.2,359.6 197.2,359.6" fill="rgb(82,214,121)"/>
<polygon points="205.2,351.6 213.2,351.6 213.2,359.6 205.2,359.6" fill="rgb(29,140,141)"/>
<polygon points="213.2,351.6 221.2,351.6 221.2,359.6 213.2,359.6" fill="rgb(7,57,136)"/>
<polygon points="221.2,351.6 229.2,351.6 229.2,359.6 221.2,359.6" fill="rgb(11,73,137)"/>
<polygon points="229.2,351.6 237.2,351.6 237.2,359.6 229.2,359.6" fill="rgb(4,44,136)"/>
<polygon points="237.2,351.6 245.2,351.6 245.2,359.6 237.2,359.6" fill="rgb(7,55,136)"/>
<polygon points="245.2,351.6 253.2,351.6 253.2,359.6 245.2,359.6" fill="rgb(1,32,135)"/>
<polygon points="253.2,351.6 261.2,351.6 261.2,359.6 253.2,359.6" fill="rgb(1,32,135)"/>
<polygon points="271.2,351.6 279.2,351.6 279.2,359.6 271.2,359.6" fill="rgb(255,255,255)"/>
<polygon points="279.2,351.6 287.2,351.6 287.2,359.6 279.2,359.6" fill="rgb(255,255,255)"/>
<polygon points="287.2,351.6 295.2,351.6 295.2,359.6 287.2,359.6" fill="rgb(255,255,255)"/>
<polygon points="295.2,351.6 303.2,351.6 303.2,359.6 295.2,359.6" fill="rgb(255,255,255)"/>
<polygon points="303.2,351.6 311.2,351.6 311.2,359.6 303.2,359.6" fill="rgb(255,255,255)"/>
<polygon points="311.2,351.6 319.2,351.6 319.2,359.6 311.2,359.6" fill="rgb(255,255,255)"/>
<polygon points="319.2,351.6 327.2,351.6 327.2,359.6 319.2,359.6" fill="rgb(255,255,255)"/>
<polygon points="327.2,351.6 335.2,351.6 335.2,359.6 327.2,359.6" fill="rgb(255,255,255)"/>
<polygon points="123.2,359.6 131.2,359.6 131.2,367.6 123.2,367.6" fill="rgb(205,0,0)"/><text xml:space="preserve" x="127.2" y="366.433" font-family="Calibri" font-size="7.5" fill="rgb(255,255,255)" text-anchor="middle">5</text>
<polygon points="131.2,359.6 139.2,359.6 139.2,367.6 131.2,367.6" fill="rgb(230,127,0)"/><text xml:space="preserve" x="135.2" y="366.433" font-family="Calibri" font-size="7.5" fill="rgb(0,0,0)" text-anchor="middle">4</text>
<polygon points="139.2,359.6 147.2,359.6 147.2,367.6 139.2,367.6" fill="rgb(0,205,0)"/><text xml:space="preserve" x="143.2" y="366.433" font-family="Calibri" font-size="7.5" fill="rgb(255,255,255)" text-anchor="middle">1</text>
<polygon points="147.2,359.6 155.2,359.6 155.2,367.6 147.2,367.6" fill="rgb(0,205,0)"/><text xml:space="preserve" x="151.2" y="366.433" font-family="Calibri" font-size="7.5" fill="rgb(255,255,255)" text-anchor="middle">1</text>
<polygon points="155.2,359.6 163.2,359.6 163.2,367.6 155.2,367.6" fill="rgb(0,205,0)"/><text xml:space="preserve" x="159.2" y="366.433" font-family="Calibri" font-size="7.5" fill="rgb(255,255,255)" text-anchor="middle">1</text>
<polygon points="163.2,359.6 171.2,359.6 171.2,367.6 163.2,367.6" fill="rgb(0,205,0)"/><text xml:space="preserve" x="167.2" y="366.433" font-family="Calibri" font-size="7.5" fill="rgb(255,255,255)" text-anchor="middle">1</text>
<polygon points="171.2,359.6 179.2,359.6 179.2,367.6 171.2,367.6" fill="rgb(0,205,0)"/><text xml:space="preserve" x="175.2" y="366.433" font-family="Calibri" font-size="7.5" fill="rgb(255,255,255)" text-anchor="middle">1</text>
<polygon points="179.2,359.6 187.2,359.6 187.2,367.6 179.2,367.6" fill="rgb(0,205,0)"/><text xml:space="preserve" x="183.2" y="366.433" font-family="Calibri" font-size="7.5" fill="rgb(255,255,255)" text-anchor="middle">1</text>
<polygon points="197.2,359.6 205.2,359.6 205.2,367.6 197.2,367.6" fill="rgb(40,184,144)"/>
<polygon points="205.2,359.6 213.2,359.6 213.2,367.6 205.2,367.6" fill="rgb(29,142,141)"/>
<polygon points="213.2,359.6 221.2,359.6 221.2,367.6 213.2,367.6" fill="rgb(7,55,136)"/>
<polygon points="221.2,359.6 229.2,359.6 229.2,367.6 221.2,367.6" fill="rgb(7,55,136)"/>
<polygon points="229.2,359.6 237.2,359.6 237.2,367.6 229.2,367.6" fill="rgb(3,41,135)"/>
<polygon points="237.2,359.6 245.2,359.6 245.2,367.6 237.2,367.6" fill="rgb(0,30,135)"/>
<polygon points="245.2,359.6 253.2,359.6 253.2,367.6 245.2,367.6" fill="rgb(0,29,135)"/>
<polygon points="253.2,359.6 261.2,359.6 261.2,367.6 253.2,367.6" fill="rgb(0,29,135)"/>
<polygon points="271.2,359.6 279.2,359.6 279.2,367.6 271.2,367.6" fill="rgb(255,255,255)"/>
<polygon points="279.2,359.6 287.2,359.6 287.2,367.6 279.2,367.6" fill="rgb(255,255,255)"/>
<polygon points="287.2,359.6 295.2,359.6 295.2,367.6 287.2,367.6" fill="rgb(255,255,255)"/>
<polygon points="295.2,359.6 303.2,359.6 303.2,367.6 295.2,367.6" fill="rgb(205,0,205)"/>
<polygon points="303.2,359.6 311.2,359.6 311.2,367.6 303.2,367.6" fill="rgb(255,255,255)"/>
<polygon points="311.2,359.6 319.2,359.6 319.2,367.6 311.2,367.6" fill="rgb(255,255,255)"/>
<polygon points="319.2,359.6 327.2,359.6 327.2,367.6 319.2,367.6" fill="rgb(255,255,255)"/>
<polygon points="327.2,359.6 335.2,359.6 335.2,367.6 327.2,367.6" fill="rgb(255,255,255)"/>
<polygon points="123.2,367.6 131.2,367.6 131.2,375.6 123.2,375.6" fill="rgb(205,0,0)"/><text xml:space="preserve" x="127.2" y="374.433" font-family="Calibri" font-size="7.5" fill="rgb(255,255,255)" text-anchor="middle">5</text>
<polygon points="131.2,367.6 139.2,367.6 139.2,375.6 131.2,375.6" fill="rgb(230,127,0)"/><text xml:space="preserve" x="135.2" y="374.433" font-family="Calibri" font-size="7.5" fill="rgb(0,0,0)" text-anchor="middle">4</text>
<polygon points="139.2,367.6 147.2,367.6 147.2,375.6 139.2,375.6" fill="rgb(0,205,0)"/><text xml:space="preserve" x="143.2" y="374.433" font-family="Calibri" font-size="7.5" fill="rgb(255,255,255)" text-anchor="middle">1</text>
<polygon points="147.2,367.6 155.2,367.6 155.2,375.6 147.2,375.6" fill="rgb(0,205,0)"/><text xml:space="preserve" x="151.2" y="374.433" font-family="Calibri" font-size="7.5" fill="rgb(255,255,255)" text-anchor="middle">1</text>
<polygon points="155.2,367.6 163.2,367.6 163.2,375.6 155.2,375.6" fill="rgb(0,205,0)"/><text xml:space="preserve" x="159.2" y="374.433" font-family="Calibri" font-size="7.5" fill="rgb(255,255,255)" text-anchor="middle">1</text>
<polygon points="163.2,367.6 171.2,367.6 171.2,375.6 163.2,375.6" fill="rgb(0,205,0)"/><text xml:space="preserve" x="167.2" y="374.433" font-family="Calibri" font-size="7.5" fill="rgb(255,255,255)" text-anchor="middle">1</text>
<polygon points="171.2,367.6 179.2,367.6 179.2,375.6 171.2,375.6" fill="rgb(0,205,0)"/><text xml:space="preserve" x="175.2" y="374.433" font-family="Calibri" font-size="7.5" fill="rgb(255,255,255)" text-anchor="middle">1</text>
<polygon points="179.2,367.6 187.2,367.6 187.2,375.6 179.2,375.6" fill="rgb(0,205,0)"/><text xml:space="preserve" x="183.2" y="374.433" font-family="Calibri" font-size="7.5" fill="rgb(255,255,255)" text-anchor="middle">1</text>
<polygon points="197.2,367.6 205.2,367.6 205.2,375.6 197.2,375.6" fill="rgb(48,216,145)"/>
<polygon points="205.2,367.6 213.2,367.6 213.2,375.6 205.2,375.6" fill="rgb(22,116,140)"/>
<polygon points="213.2,367.6 221.2,367.6 221.2,375.6 213.2,375.6" fill="rgb(6,51,136)"/>
<polygon points="221.2,367.6 229.2,367.6 229.2,375.6 221.2,375.6" fill="rgb(9,65,137)"/>
<polygon points="229.2,367.6 237.2,367.6 237.2,375.6 229.2,375.6" fill="rgb(4,43,135)"/>
<polygon points="237.2,367.6 245.2,367.6 245.2,375.6 237.2,375.6" fill="rgb(4,43,135)"/>
<polygon points="245.2,367.6 253.2,367.6 253.2,375.6 245.2,375.6" fill="rgb(0,28,135)"/>
<polygon points="253.2,367.6 261.2,367.6 261.2,375.6 253.2,375.6" fill="rgb(0,28,135)"/>
<polygon points="271.2,367.6 279.2,367.6 279.2,375.6 271.2,375.6" fill="rgb(255,255,255)"/>
<polygon points="279.2,367.6 287.2,367.6 287.2,375.6 279.2,375.6" fill="rgb(255,255,255)"/>
<polygon points="287.2,367.6 295.2,367.6 295.2,375.6 287.2,375.6" fill="rgb(255,255,255)"/>
<polygon points="295.2,367.6 303.2,367.6 303.2,375.6 295.2,375.6" fill="rgb(255,255,255)"/>
<polygon points="303.2,367.6 311.2,367.6 311.2,375.6 303.2,375.6" fill="rgb(255,255,255)"/>
<polygon points="311.2,367.6 319.2,367.6 319.2,375.6 311.2,375.6" fill="rgb(255,255,255)"/>
<polygon points="319.2,367.6 327.2,367.6 327.2,375.6 319.2,375.6" fill="rgb(255,255,255)"/>
<polygon points="327.2,367.6 335.2,367.6 335.2,375.6 327.2,375.6" fill="rgb(255,255,255)"/>
<polygon points="123.2,375.6 131.2,375.6 131.2,383.6 123.2,383.6" fill="rgb(205,0,0)"/><text xml:space="preserve" x="127.2" y="382.433" font-family="Calibri" font-size="7.5" fill="rgb(255,255,255)" text-anchor="middle">5</text>
<polygon points="131.2,375.6 139.2,375.6 139.2,383.6 131.2,383.6" fill="rgb(230,127,0)"/><text xml:space="preserve" x="135.2" y="382.433" font-family="Calibri" font-size="7.5" fill="rgb(0,0,0)" text-anchor="middle">4</text>
<polygon points="139.2,375.6 147.2,375.6 147.2,383.6 139.2,383.6" fill="rgb(0,205,0)"/><text xml:space="preserve" x="143.2" y="382.433" font-family="Calibri" font-size="7.5" fill="rgb(255,255,255)" text-anchor="middle">1</text>
<polygon points="147.2,375.6 155.2,375.6 155.2,383.6 147.2,383.6" fill="rgb(0,205,0)"/><text xml:space="preserve" x="151.2" y="382.433" font-family="Calibri" font-size="7.5" fill="rgb(255,255,255)" text-anchor="middle">1</text>
<polygon points="155.2,375.6 163.2,375.6 163.2,383.6 155.2,383.6" fill="rgb(0,205,0)"/><text xml:space="preserve" x="159.2" y="382.433" font-family="Calibri" font-size="7.5" fill="rgb(255,255,255)" text-anchor="middle">1</text>
<polygon points="163.2,375.6 171.2,375.6 171.2,383.6 163.2,383.6" fill="rgb(0,205,0)"/><text xml:space="preserve" x="167.2" y="382.433" font-family="Calibri" font-size="7.5" fill="rgb(255,255,255)" text-anchor="middle">1</text>
<polygon points="171.2,375.6 179.2,375.6 179.2,383.6 171.2,383.6" fill="rgb(0,205,0)"/><text xml:space="preserve" x="175.2" y="382.433" font-family="Calibri" font-size="7.5" fill="rgb(255,255,255)" text-anchor="middle">1</text>
<polygon points="179.2,375.6 187.2,375.6 187.2,383.6 179.2,383.6" fill="rgb(0,205,0)"/><text xml:space="preserve" x="183.2" y="382.433" font-family="Calibri" font-size="7.5" fill="rgb(255,255,255)" text-anchor="middle">1</text>
<polygon points="197.2,375.6 205.2,375.6 205.2,383.6 197.2,383.6" fill="rgb(151,206,72)"/>
<polygon points="205.2,375.6 213.2,375.6 213.2,383.6 205.2,383.6" fill="rgb(21,110,139)"/>
<polygon points="213.2,375.6 221.2,375.6 221.2,383.6 213.2,383.6" fill="rgb(6,52,136)"/>
<polygon points="221.2,375.6 229.2,375.6 229.2,383.6 221.2,383.6" fill="rgb(3,41,135)"/>
<polygon points="229.2,375.6 237.2,375.6 237.2,383.6 229.2,383.6" fill="rgb(1,32,135)"/>
<polygon points="237.2,375.6 245.2,375.6 245.2,383.6 237.2,383.6" fill="rgb(0,29,135)"/>
<polygon points="245.2,375.6 253.2,375.6 253.2,383.6 245.2,383.6" fill="rgb(0,29,135)"/>
<polygon points="253.2,375.6 261.2,375.6 261.2,383.6 253.2,383.6" fill="rgb(0,30,135)"/>
<polygon points="271.2,375.6 279.2,375.6 279.2,383.6 271.2,383.6" fill="rgb(255,255,255)"/>
<polygon points="279.2,375.6 287.2,375.6 287.2,383.6 279.2,383.6" fill="rgb(255,255,255)"/>
<polygon points="287.2,375.6 295.2,375.6 295.2,383.6 287.2,383.6" fill="rgb(205,0,205)"/>
<polygon points="295.2,375.6 303.2,375.6 303.2,383.6 295.2,383.6" fill="rgb(255,255,255)"/>
<polygon points="303.2,375.6 311.2,375.6 311.2,383.6 303.2,383.6" fill="rgb(255,255,255)"/>
<polygon points="311.2,375.6 319.2,375.6 319.2,383.6 311.2,383.6" fill="rgb(255,255,255)"/>
<polygon points="319.2,375.6 327.2,375.6 327.2,383.6 319.2,383.6" fill="rgb(255,255,255)"/>
<polygon points="327.2,375.6 335.2,375.6 335.2,383.6 327.2,383.6" fill="rgb(255,255,255)"/>
<polygon points="123.2,383.6 131.2,383.6 131.2,391.6 123.2,391.6" fill="rgb(205,0,0)"/><text xml:space="preserve" x="127.2" y="390.433" font-family="Calibri" font-size="7.5" fill="rgb(255,255,255)" text-anchor="middle">5</text>
<polygon points="131.2,383.6 139.2,383.6 139.2,391.6 131.2,391.6" fill="rgb(230,127,0)"/><text xml:space="preserve" x="135.2" y="390.433" font-family="Calibri" font-size="7.5" fill="rgb(0,0,0)" text-anchor="middle">4</text>
<polygon points="139.2,383.6 147.2,383.6 147.2,391.6 139.2,391.6" fill="rgb(0,205,0)"/><text xml:space="preserve" x="143.2" y="390.433" font-family="Calibri" font-size="7.5" fill="rgb(255,255,255)" text-anchor="middle">1</text>
<polygon points="147.2,383.6 155.2,383.6 155.2,391.6 147.2,391.6" fill="rgb(0,205,0)"/><text xml:space="preserve" x="151.2" y="390.433" font-family="Calibri" font-size="7.5" fill="rgb(255,255,255)" text-anchor="middle">1</text>
<polygon points="155.2,383.6 163.2,383.6 163.2,391.6 155.2,391.6" fill="rgb(0,205,0)"/><text xml:space="preserve" x="159.2" y="390.433" font-family="Calibri" font-size="7.5" fill="rgb(255,255,255)" text-anchor="middle">1</text>
<polygon points="163.2,383.6 171.2,383.6 171.2,391.6 163.2,391.6" fill="rgb(0,205,0)"/><text xml:space="preserve" x="167.2" y="390.433" font-family="Calibri" font-size="7.5" fill="rgb(255,255,255)" text-anchor="middle">1</text>
<polygon points="171.2,383.6 179.2,383.6 179.2,391.6 171.2,391.6" fill="rgb(0,205,0)"/><text xml:space="preserve" x="175.2" y="390.433" font-family="Calibri" font-size="7.5" fill="rgb(255,255,255)" text-anchor="middle">1</text>
<polygon points="179.2,383.6 187.2,383.6 187.2,391.6 179.2,391.6" fill="rgb(0,205,0)"/><text xml:space="preserve" x="183.2" y="390.433" font-family="Calibri" font-size="7.5" fill="rgb(255,255,255)" text-anchor="middle">1</text>
<polygon points="197.2,383.6 205.2,383.6 205.2,391.6 197.2,391.6" fill="rgb(45,206,145)"/>
<polygon points="205.2,383.6 213.2,383.6 213.2,391.6 205.2,391.6" fill="rgb(36,169,143)"/>
<polygon points="213.2,383.6 221.2,383.6 221.2,391.6 213.2,391.6" fill="rgb(10,69,137)"/>
<polygon points="221.2,383.6 229.2,383.6 229.2,391.6 221.2,391.6" fill="rgb(12,76,137)"/>
<polygon points="229.2,383.6 237.2,383.6 237.2,391.6 229.2,391.6" fill="rgb(2,37,135)"/>
<polygon points="237.2,383.6 245.2,383.6 245.2,391.6 237.2,391.6" fill="rgb(1,32,135)"/>
<polygon points="245.2,383.6 253.2,383.6 253.2,391.6 245.2,391.6" fill="rgb(1,32,135)"/>
<polygon points="253.2,383.6 261.2,383.6 261.2,391.6 253.2,391.6" fill="rgb(2,37,135)"/>
<polygon points="271.2,383.6 279.2,383.6 279.2,391.6 271.2,391.6" fill="rgb(255,255,255)"/>
<polygon points="279.2,383.6 287.2,383.6 287.2,391.6 279.2,391.6" fill="rgb(255,255,255)"/>
<polygon points="287.2,383.6 295.2,383.6 295.2,391.6 287.2,391.6" fill="rgb(255,255,255)"/>
<polygon points="295.2,383.6 303.2,383.6 303.2,391.6 295.2,391.6" fill="rgb(255,255,255)"/>
<polygon points="303.2,383.6 311.2,383.6 311.2,391.6 303.2,391.6" fill="rgb(255,255,255)"/>
<polygon points="311.2,383.6 319.2,383.6 319.2,391.6 311.2,391.6" fill="rgb(255,255,255)"/>
<polygon points="319.2,383.6 327.2,383.6 327.2,391.6 319.2,391.6" fill="rgb(255,255,255)"/>
<polygon points="327.2,383.6 335.2,383.6 335.2,391.6 327.2,391.6" fill="rgb(255,255,255)"/>
<polygon points="123.2,335.6 187.2,335.6 187.2,391.6 123.2,391.6" fill="none" stroke="black" stroke-width="1"/>
<polygon points="197.2,335.6 261.2,335.6 261.2,391.6 197.2,391.6" fill="none" stroke="black" stroke-width="1"/>
<polygon points="271.2,335.6 335.2,335.6 335.2,391.6 271.2,391.6" fill="none" stroke="black" stroke-width="1"/>
<text xml:space="preserve" x="177.6" y="424.6" font-family="Calibri" font-size="8" text-anchor="middle">ClusterAssignment</text>
<polygon points="127.6,431.6 147.6,431.6 147.6,451.6 127.6,451.6" fill="rgb(0,205,0)"/><polygon points="127.6,431.6 147.6,431.6 147.6,451.6 127.6,451.6" fill="none" stroke="black" stroke-width="1"/><text xml:space="preserve" x="137.6" y="444.433" font-family="Calibri" font-size="7.5" fill="rgb(255,255,255)" text-anchor="middle">1.0</text>
<polygon points="147.6,431.6 167.6,431.6 167.6,451.6 147.6,451.6" fill="rgb(127,230,0)"/><polygon points="147.6,431.6 167.6,431.6 167.6,451.6 147.6,451.6" fill="none" stroke="black" stroke-width="1"/><text xml:space="preserve" x="157.6" y="444.433" font-family="Calibri" font-size="7.5" fill="rgb(0,0,0)" text-anchor="middle">2.0</text>
<polygon points="167.6,431.6 187.6,431.6 187.6,451.6 167.6,451.6" fill="rgb(255,255,0)"/><polygon points="167.6,431.6 187.6,431.6 187.6,451.6 167.6,451.6" fill="none" stroke="black" stroke-width="1"/><text xml:space="preserve" x="177.6" y="444.433" font-family="Calibri" font-size="7.5" fill="rgb(0,0,0)" text-anchor="middle">3.0</text>
<polygon points="187.6,431.6 207.6,431.6 207.6,451.6 187.6,451.6" fill="rgb(230,127,0)"/><polygon points="187.6,431.6 207.6,431.6 207.6,451.6 187.6,451.6" fill="none" stroke="black" stroke-width="1"/><text xml:space="preserve" x="197.6" y="444.433" font-family="Calibri" font-size="7.5" fill="rgb(0,0,0)" text-anchor="middle">4.0</text>
<polygon points="207.6,431.6 227.6,431.6 227.6,451.6 207.6,451.6" fill="rgb(205,0,0)"/><polygon points="207.6,431.6 227.6,431.6 227.6,451.6 207.6,451.6" fill="none" stroke="black" stroke-width="1"/><text xml:space="preserve" x="217.6" y="444.433" font-family="Calibri" font-size="7.5" fill="rgb(255,255,255)" text-anchor="middle">5.0</text>
<text xml:space="preserve" x="177.6" y="484.6" font-family="Calibri" font-size="8" text-anchor="middle">Expression</text>
<polygon points="127.6,491.6 147.6,491.6 147.6,511.6 127.6,511.6" fill="rgb(0,27,135)"/><polygon points="127.6,491.6 147.6,491.6 147.6,511.6 127.6,511.6" fill="none" stroke="black" stroke-width="1"/><text xml:space="preserve" x="137.6" y="504.433" font-family="Calibri" font-size="7.5" fill="rgb(255,255,255)" text-anchor="middle">0.0</text>
<polygon points="147.6,491.6 167.6,491.6 167.6,511.6 147.6,511.6" fill="rgb(24,123,140)"/><polygon points="147.6,491.6 167.6,491.6 167.6,511.6 147.6,511.6" fill="none" stroke="black" stroke-width="1"/><text xml:space="preserve" x="157.6" y="504.433" font-family="Calibri" font-size="7.5" fill="rgb(255,255,255)" text-anchor="middle">0.8</text>
<polygon points="167.6,491.6 187.6,491.6 187.6,511.6 167.6,511.6" fill="rgb(49,219,146)"/><polygon points="167.6,491.6 187.6,491.6 187.6,511.6 167.6,511.6" fill="none" stroke="black" stroke-width="1"/><text xml:space="preserve" x="177.6" y="504.433" font-family="Calibri" font-size="7.5" fill="rgb(0,0,0)" text-anchor="middle">1.5</text>
<polygon points="187.6,491.6 207.6,491.6 207.6,511.6 187.6,511.6" fill="rgb(150,206,73)"/><polygon points="187.6,491.6 207.6,491.6 207.6,511.6 187.6,511.6" fill="none" stroke="black" stroke-width="1"/><text xml:space="preserve" x="197.6" y="504.433" font-family="Calibri" font-size="7.5" fill="rgb(0,0,0)" text-anchor="middle">2.2</text>
<polygon points="207.6,491.6 227.6,491.6 227.6,511.6 207.6,511.6" fill="rgb(252,194,1)"/><polygon points="207.6,491.6 227.6,491.6 227.6,511.6 207.6,511.6" fill="none" stroke="black" stroke-width="1"/><text xml:space="preserve" x="217.6" y="504.433" font-family="Calibri" font-size="7.5" fill="rgb(0,0,0)" text-anchor="middle">3.0</text>
<text xml:space="preserve" x="177.6" y="544.6" font-family="Calibri" font-size="8" text-anchor="middle">PANTHERclass</text>
<polygon points="127.6,551.6 147.6,551.6 147.6,571.6 127.6,571.6" fill="rgb(255,255,255)"/><polygon points="127.6,551.6 147.6,551.6 147.6,571.6 127.6,571.6" fill="none" stroke="black" stroke-width="1"/><text xml:space="preserve" x="137.6" y="564.433" font-family="Calibri" font-size="7.5" fill="rgb(0,0,0)" text-anchor="middle">0.0</text>
<polygon points="147.6,551.6 167.6,551.6 167.6,571.6 147.6,571.6" fill="rgb(242,191,242)"/><polygon points="147.6,551.6 167.6,551.6 167.6,571.6 147.6,571.6" fill="none" stroke="black" stroke-width="1"/><text xml:space="preserve" x="157.6" y="564.433" font-family="Calibri" font-size="7.5" fill="rgb(0,0,0)" text-anchor="middle">0.2</text>
<polygon points="167.6,551.6 187.6,551.6 187.6,571.6 167.6,571.6" fill="rgb(230,127,230)"/><polygon points="167.6,551.6 187.6,551.6 187.6,571.6 167.6,571.6" fill="none" stroke="black" stroke-width="1"/><text xml:space="preserve" x="177.6" y="564.433" font-family="Calibri" font-size="7.5" fill="rgb(0,0,0)" text-anchor="middle">0.5</text>
<polygon points="187.6,551.6 207.6,551.6 207.6,571.6 187.6,571.6" fill="rgb(217,63,217)"/><polygon points="187.6,551.6 207.6,551.6 207.6,571.6 187.6,571.6" fill="none" stroke="black" stroke-width="1"/><text xml:space="preserve" x="197.6" y="564.433" font-family="Calibri" font-size="7.5" fill="rgb(255,255,255)" text-anchor="middle">0.8</text>
<polygon points="207.6,551.6 227.6,551.6 227.6,571.6 207.6,571.6" fill="rgb(205,0,205)"/><polygon points="207.6,551.6 227.6,551.6 227.6,571.6 207.6,571.6" fill="none" stroke="black" stroke-width="1"/><text xml:space="preserve" x="217.6" y="564.433" font-family="Calibri" font-size="7.5" fill="rgb(255,255,255)" text-anchor="middle">1.0</text>
</svg>
