<?xml version="1.0" standalone="no"?><!DOCTYPE svg PUBLIC "-//W3C//DTD SVG 1.1//EN" "http://www.w3.org/Graphics/SVG/1.1/DTD/svg11.dtd">
<svg width="320.7" height="559.6" version="1.1" xmlns="http://www.w3.org/2000/svg">
<text xml:space="preserve" x="84.7" y="342.6" font-family="Calibri" font-size="8" text-anchor="end">PCSK5</text>
<text xml:space="preserve" x="84.7" y="350.6" font-family="Calibri" font-size="8" text-anchor="end">STXBP6</text>
<text xml:space="preserve" x="84.7" y="358.6" font-family="Calibri" font-size="8" text-anchor="end">RPH3A</text>
<text xml:space="preserve" x="95.7" y="331.6" font-family="Calibri" font-size="8" transform="rotate(270 95.7 331.6)">c2</text>
<text xml:space="preserve" x="103.7" y="331.6" font-family="Calibri" font-size="8" transform="rotate(270 103.7 331.6)">c3</text>
<text xml:space="preserve" x="111.7" y="331.6" font-family="Calibri" font-size="8" transform="rotate(270 111.7 331.6)">c6</text>
<text xml:space="preserve" x="119.7" y="331.6" font-family="Calibri" font-size="8" transform="rotate(270 119.7 331.6)">c4</text>
<text xml:space="preserve" x="127.7" y="331.6" font-family="Calibri" font-size="8" transform="rotate(270 127.7 331.6)">c1</text>
<text xml:space="preserve" x="135.7" y="331.6" font-family="Calibri" font-size="8" transform="rotate(270 135.7 331.6)">c5</text>
<text xml:space="preserve" x="143.7" y="331.6" font-family="Calibri" font-size="8" transform="rotate(270 143.7 331.6)">c7</text>
<text xml:space="preserve" x="151.7" y="331.6" font-family="Calibri" font-size="8" transform="rotate(270 151.7 331.6)">c8</text>
<text xml:space="preserve" x="169.7" y="331.6" font-family="Calibri" font-size="8" transform="rotate(270 169.7 331.6)">c2_mean</text>
<text xml:space="preserve" x="177.7" y="331.6" font-family="Calibri" font-size="8" transform="rotate(270 177.7 331.6)">c3_mean</text>
<text xml:space="preserve" x="185.7" y="331.6" font-family="Calibri" font-size="8" transform="rotate(270 185.7 331.6)">c6_mean</text>
<text xml:space="preserve" x="193.7" y="331.6" font-family="Calibri" font-size="8" transform="rotate(270 193.7 331.6)">c4_mean</text>
<text xml:space="preserve" x="201.7" y="331.6" font-family="Calibri" font-size="8" transform="rotate(270 201.7 331.6)">c1_mean</text>
<text xml:space="preserve" x="209.7" y="331.6" font-family="Calibri" font-size="8" transform="rotate(270 209.7 331.6)">c5_mean</text>
<text xml:space="preserve" x="217.7" y="331.6" font-family="Calibri" font-size="8" transform="rotate(270 217.7 331.6)">c7_mean</text>
<text xml:space="preserve" x="225.7" y="331.6" font-family="Calibri" font-size="8" transform="rotate(270 225.7 331.6)">c8_mean</text>
<text xml:space="preserve" x="243.7" y="331.6" font-family="Calibri" font-size="8" transform="rotate(270 243.7 331.6)">transcription_factor</text>
<text xml:space="preserve" x="251.7" y="331.6" font-family="Calibri" font-size="8" transform="rotate(270 251.7 331.6)">transmembrane_signal_receptor</text>
<text xml:space="preserve" x="259.7" y="331.6" font-family="Calibri" font-size="8" transform="rotate(270 259.7 331.6)">growth_factor</text>
<text xml:space="preserve" x="267.7" y="331.6" font-family="Calibri" font-size="8" transform="rotate(270 267.7 331.6)">peptide_hormone</text>
<text xml:space="preserve" x="275.7" y="331.6" font-family="Calibri" font-size="8" transform="rotate(270 275.7 331.6)">cytoskeletal_protein</text>
<text xml:space="preserve" x="283.7" y="331.6" font-family="Calibri" font-size="8" transform="rotate(270 283.7 331.6)">ion_channel</text>
<text xml:space="preserve" x="291.7" y="331.6" font-family="Calibri" font-size="8" transform="rotate(270 291.7 331.6)">integrin</text>
<text xml:space="preserve" x="299.7" y="331.6" font-family="Calibri" font-size="8" transform="rotate(270 299.7 331.6)">extracellular_matrix_protein</text>
<polygon points="88.7,335.6 96.7,335.6 96.7,343.6 88.7,343.6" fill="rgb(127,230,0)"/><text xml:space="preserve" x="92.7" y="342.433" font-family="Calibri" font-size="7.5" fill="rgb(0,0,0)" text-anchor="middle">2</text>
<polygon points="96.7,335.6 104.7,335.6 104.7,343.6 96.7,343.6" fill="rgb(127,230,0)"/><text xml:space="preserve" x="100.7" y="342.433" font-family="Calibri" font-size="7.5" fill="rgb(0,0,0)" text-anchor="middle">2</text>
<polygon points="104.7,335.6 112.7,335.6 112.7,343.6 104.7,343.6" fill="rgb(127,230,0)"/><text xml:space="preserve" x="108.7" y="342.433" font-family="Calibri" font-size="7.5" fill="rgb(0,0,0)" text-anchor="middle">2</text>
<polygon points="112.7,335.6 120.7,335.6 120.7,343.6 112.7,343.6" fill="rgb(230,127,0)"/><text xml:space="preserve" x="116.7" y="342.433" font-family="Calibri" font-size="7.5" fill="rgb(0,0,0)" text-anchor="middle">4</text>
<polygon points="120.7,335.6 128.7,335.6 128.7,343.6 120.7,343.6" fill="rgb(230,127,0)"/><text xml:space="preserve" x="124.7" y="342.433" font-family="Calibri" font-size="7.5" fill="rgb(0,0,0)" text-anchor="middle">4</text>
<polygon points="128.7,335.6 136.7,335.6 136.7,343.6 128.7,343.6" fill="rgb(230,127,0)"/><text xml:space="preserve" x="132.7" y="342.433" font-family="Calibri" font-size="7.5" fill="rgb(0,0,0)" text-anchor="middle">4</text>
<polygon points="136.7,335.6 144.7,335.6 144.7,343.6 136.7,343.6" fill="rgb(127,230,0)"/><text xml:space="preserve" x="140.7" y="342.433" font-family="Calibri" font-size="7.5" fill="rgb(0,0,0)" text-anchor="middle">2</text>
<polygon points="144.7,335.6 152.7,335.6 152.7,343.6 144.7,343.6" fill="rgb(127,230,0)"/><text xml:space="preserve" x="148.7" y="342.433" font-family="Calibri" font-size="7.5" fill="rgb(0,0,0)" text-anchor="middle">2</text>
<polygon points="162.7,335.6 170.7,335.6 170.7,343.6 162.7,343.6" fill="rgb(7,55,136)"/>
<polygon points="170.7,335.6 178.7,335.6 178.7,343.6 170.7,343.6" fill="rgb(4,46,136)"/>
<polygon points="178.7,335.6 186.7,335.6 186.7,343.6 178.7,343.6" fill="rgb(10,66,137)"/>
<polygon points="186.7,335.6 194.7,335.6 194.7,343.6 186.7,343.6" fill="rgb(32,153,142)"/>
<polygon points="194.7,335.6 202.7,335.6 202.7,343.6 194.7,343.6" fill="rgb(15,85,138)"/>
<polygon points="202.7,335.6 210.7,335.6 210.7,343.6 202.7,343.6" fill="rgb(26,131,141)"/>
<polygon points="210.7,335.6 218.7,335.6 218.7,343.6 210.7,343.6" fill="rgb(7,57,136)"/>
<polygon points="218.7,335.6 226.7,335.6 226.7,343.6 218.7,343.6" fill="rgb(4,44,136)"/>
<polygon points="236.7,335.6 244.7,335.6 244.7,343.6 236.7,343.6" fill="rgb(255,255,255)"/>
<polygon points="244.7,335.6 252.7,335.6 252.7,343.6 244.7,343.6" fill="rgb(255,255,255)"/>
<polygon points="252.7,335.6 260.7,335.6 260.7,343.6 252.7,343.6" fill="rgb(255,255,255)"/>
<polygon points="260.7,335.6 268.7,335.6 268.7,343.6 260.7,343.6" fill="rgb(255,255,255)"/>
<polygon points="268.7,335.6 276.7,335.6 276.7,343.6 268.7,343.6" fill="rgb(255,255,255)"/>
<polygon points="276.7,335.6 284.7,335.6 284.7,343.6 276.7,343.6" fill="rgb(255,255,255)"/>
<polygon points="284.7,335.6 292.7,335.6 292.7,343.6 284.7,343.6" fill="rgb(255,255,255)"/>
<polygon points="292.7,335.6 300.7,335.6 300.7,343.6 292.7,343.6" fill="rgb(255,255,255)"/>
<polygon points="88.7,343.6 96.7,343.6 96.7,351.6 88.7,351.6" fill="rgb(127,230,0)"/><text xml:space="preserve" x="92.7" y="350.433" font-family="Calibri" font-size="7.5" fill="rgb(0,0,0)" text-anchor="middle">2</text>
<polygon points="96.7,343.6 104.7,343.6 104.7,351.6 96.7,351.6" fill="rgb(127,230,0)"/><text xml:space="preserve" x="100.7" y="350.433" font-family="Calibri" font-size="7.5" fill="rgb(0,0,0)" text-anchor="middle">2</text>
<polygon points="104.7,343.6 112.7,343.6 112.7,351.6 104.7,351.6" fill="rgb(127,230,0)"/><text xml:space="preserve" x="108.7" y="350.433" font-family="Calibri" font-size="7.5" fill="rgb(0,0,0)" text-anchor="middle">2</text>
<polygon points="112.7,343.6 120.7,343.6 120.7,351.6 112.7,351.6" fill="rgb(230,127,0)"/><text xml:space="preserve" x="116.7" y="350.433" font-family="Calibri" font-size="7.5" fill="rgb(0,0,0)" text-anchor="middle">4</text>
<polygon points="120.7,343.6 128.7,343.6 128.7,351.6 120.7,351.6" fill="rgb(230,127,0)"/><text xml:space="preserve" x="124.7" y="350.433" font-family="Calibri" font-size="7.5" fill="rgb(0,0,0)" text-anchor="middle">4</text>
<polygon points="128.7,343.6 136.7,343.6 136.7,351.6 128.7,351.6" fill="rgb(230,127,0)"/><text xml:space="preserve" x="132.7" y="350.433" font-family="Calibri" font-size="7.5" fill="rgb(0,0,0)" text-anchor="middle">4</text>
<polygon points="136.7,343.6 144.7,343.6 144.7,351.6 136.7,351.6" fill="rgb(127,230,0)"/><text xml:space="preserve" x="140.7" y="350.433" font-family="Calibri" font-size="7.5" fill="rgb(0,0,0)" text-anchor="middle">2</text>
<polygon points="144.7,343.6 152.7,343.6 152.7,351.6 144.7,351.6" fill="rgb(127,230,0)"/><text xml:space="preserve" x="148.7" y="350.433" font-family="Calibri" font-size="7.5" fill="rgb(0,0,0)" text-anchor="middle">2</text>
<polygon points="162.7,343.6 170.7,343.6 170.7,351.6 162.7,351.6" fill="rgb(2,37,135)"/>
<polygon points="170.7,343.6 178.7,343.6 178.7,351.6 170.7,351.6" fill="rgb(7,56,136)"/>
<polygon points="178.7,343.6 186.7,343.6 186.7,351.6 178.7,351.6" fill="rgb(9,65,137)"/>
<polygon points="186.7,343.6 194.7,343.6 194.7,351.6 186.7,351.6" fill="rgb(38,178,143)"/>
<polygon points="194.7,343.6 202.7,343.6 202.7,351.6 194.7,351.6" fill="rgb(19,105,139)"/>
<polygon points="202.7,343.6 210.7,343.6 210.7,351.6 202.7,351.6" fill="rgb(24,123,140)"/>
<polygon points="210.7,343.6 218.7,343.6 218.7,351.6 210.7,351.6" fill="rgb(13,79,138)"/>
<polygon points="218.7,343.6 226.7,343.6 226.7,351.6 218.7,351.6" fill="rgb(12,76,137)"/>
<polygon points="236.7,343.6 244.7,343.6 244.7,351.6 236.7,351.6" fill="rgb(255,255,255)"/>
<polygon points="244.7,343.6 252.7,343.6 252.7,351.6 244.7,351.6" fill="rgb(255,255,255)"/>
<polygon points="252.7,343.6 260.7,343.6 260.7,351.6 252.7,351.6" fill="rgb(255,255,255)"/>
<polygon points="260.7,343.6 268.7,343.6 268.7,351.6 260.7,351.6" fill="rgb(255,255,255)"/>
<polygon points="268.7,343.6 276.7,343.6 276.7,351.6 268.7,351.6" fill="rgb(255,255,255)"/>
<polygon points="276.7,343.6 284.7,343.6 284.7,351.6 276.7,351.6" fill="rgb(255,255,255)"/>
<polygon points="284.7,343.6 292.7,343.6 292.7,351.6 284.7,351.6" fill="rgb(255,255,255)"/>
<polygon points="292.7,343.6 300.7,343.6 300.7,351.6 292.7,351.6" fill="rgb(255,255,255)"/>
<polygon points="88.7,351.6 96.7,351.6 96.7,359.6 88.7,359.6" fill="rgb(127,230,0)"/><text xml:space="preserve" x="92.7" y="358.433" font-family="Calibri" font-size="7.5" fill="rgb(0,0,0)" text-anchor="middle">2</text>
<polygon points="96.7,351.6 104.7,351.6 104.7,359.6 96.7,359.6" fill="rgb(127,230,0)"/><text xml:space="preserve" x="100.7" y="358.433" font-family="Calibri" font-size="7.5" fill="rgb(0,0,0)" text-anchor="middle">2</text>
<polygon points="104.7,351.6 112.7,351.6 112.7,359.6 104.7,359.6" fill="rgb(127,230,0)"/><text xml:space="preserve" x="108.7" y="358.433" font-family="Calibri" font-size="7.5" fill="rgb(0,0,0)" text-anchor="middle">2</text>
<polygon points="112.7,351.6 120.7,351.6 120.7,359.6 112.7,359.6" fill="rgb(230,127,0)"/><text xml:space="preserve" x="116.7" y="358.433" font-family="Calibri" font-size="7.5" fill="rgb(0,0,0)" text-anchor="middle">4</text>
<polygon points="120.7,351.6 128.7,351.6 128.7,359.6 120.7,359.6" fill="rgb(230,127,0)"/><text xml:space="preserve" x="124.7" y="358.433" font-family="Calibri" font-size="7.5" fill="rgb(0,0,0)" text-anchor="middle">4</text>
<polygon points="128.7,351.6 136.7,351.6 136.7,359.6 128.7,359.6" fill="rgb(230,127,0)"/><text xml:space="preserve" x="132.7" y="358.433" font-family="Calibri" font-size="7.5" fill="rgb(0,0,0)" text-anchor="middle">4</text>
<polygon points="136.7,351.6 144.7,351.6 144.7,359.6 136.7,359.6" fill="rgb(127,230,0)"/><text xml:space="preserve" x="140.7" y="358.433" font-family="Calibri" font-size="7.5" fill="rgb(0,0,0)" text-anchor="middle">2</text>
<polygon points="144.7,351.6 152.7,351.6 152.7,359.6 144.7,359.6" fill="rgb(127,230,0)"/><text xml:space="preserve" x="148.7" y="358.433" font-family="Calibri" font-size="7.5" fill="rgb(0,0,0)" text-anchor="middle">2</text>
<polygon points="162.7,351.6 170.7,351.6 170.7,359.6 162.7,359.6" fill="rgb(15,87,138)"/>
<polygon points="170.7,351.6 178.7,351.6 178.7,359.6 170.7,359.6" fill="rgb(4,43,135)"/>
<polygon points="178.7,351.6 186.7,351.6 186.7,359.6 178.7,359.6" fill="rgb(1,33,135)"/>
<polygon points="186.7,351.6 194.7,351.6 194.7,359.6 186.7,359.6" fill="rgb(33,160,142)"/>
<polygon points="194.7,351.6 202.7,351.6 202.7,359.6 194.7,359.6" fill="rgb(19,102,139)"/>
<polygon points="202.7,351.6 210.7,351.6 210.7,359.6 202.7,359.6" fill="rgb(24,121,140)"/>
<polygon points="210.7,351.6 218.7,351.6 218.7,359.6 210.7,359.6" fill="rgb(3,42,135)"/>
<polygon points="218.7,351.6 226.7,351.6 226.7,359.6 218.7,359.6" fill="rgb(1,33,135)"/>
<polygon points="236.7,351.6 244.7,351.6 244.7,359.6 236.7,359.6" fill="rgb(255,255,255)"/>
<polygon points="244.7,351.6 252.7,351.6 252.7,359.6 244.7,359.6" fill="rgb(255,255,255)"/>
<polygon points="252.7,351.6 260.7,351.6 260.7,359.6 252.7,359.6" fill="rgb(255,255,255)"/>
<polygon points="260.7,351.6 268.7,351.6 268.7,359.6 260.7,359.6" fill="rgb(255,255,255)"/>
<polygon points="268.7,351.6 276.7,351.6 276.7,359.6 268.7,359.6" fill="rgb(255,255,255)"/>
<polygon points="276.7,351.6 284.7,351.6 284.7,359.6 276.7,359.6" fill="rgb(255,255,255)"/>
<polygon points="284.7,351.6 292.7,351.6 292.7,359.6 284.7,359.6" fill="rgb(255,255,255)"/>
<polygon points="292.7,351.6 300.7,351.6 300.7,359.6 292.7,359.6" fill="rgb(255,255,255)"/>
<polygon points="88.7,335.6 152.7,335.6 152.7,359.6 88.7,359.6" fill="none" stroke="black" stroke-width="1"/>
<polygon points="162.7,335.6 226.7,335.6 226.7,359.6 162.7,359.6" fill="none" stroke="black" stroke-width="1"/>
<polygon points="236.7,335.6 300.7,335.6 300.7,359.6 236.7,359.6" fill="none" stroke="black" stroke-width="1"/>
<text xml:space="preserve" x="160.35" y="392.6" font-family="Calibri" font-size="8" text-anchor="middle">ClusterAssignment</text>
<polygon points="110.35,399.6 130.35,399.6 130.35,419.6 110.35,419.6" fill="rgb(0,205,0)"/><polygon points="110.35,399.6 130.35,399.6 130.35,419.6 110.35,419.6" fill="none" stroke="black" stroke-width="1"/><text xml:space="preserve" x="120.35" y="412.433" font-family="Calibri" font-size="7.5" fill="rgb(255,255,255)" text-anchor="middle">1.0</text>
<polygon points="130.35,399.6 150.35,399.6 150.35,419.6 130.35,419.6" fill="rgb(127,230,0)"/><polygon points="130.35,399.6 150.35,399.6 150.35,419.6 130.35,419.6" fill="none" stroke="black" stroke-width="1"/><text xml:space="preserve" x="140.35" y="412.433" font-family="Calibri" font-size="7.5" fill="rgb(0,0,0)" text-anchor="middle">2.0</text>
<polygon points="150.35,399.6 170.35,399.6 170.35,419.6 150.35,419.6" fill="rgb(255,255,0)"/><polygon points="150.35,399.6 170.35,399.6 170.35,419.6 150.35,419.6" fill="none" stroke="black" stroke-width="1"/><text xml:space="preserve" x="160.35" y="412.433" font-family="Calibri" font-size="7.5" fill="rgb(0,0,0)" text-anchor="middle">3.0</text>
<polygon points="170.35,399.6 190.35,399.6 190.35,419.6 170.35,419.6" fill="rgb(230,127,0)"/><polygon points="170.35,399.6 190.35,399.6 190.35,419.6 170.35,419.6" fill="none" stroke="black" stroke-width="1"/><text xml:space="preserve" x="180.35" y="412.433" font-family="Calibri" font-size="7.5" fill="rgb(0,0,0)" text-anchor="middle">4.0</text>
<polygon points="190.35,399.6 210.35,399.6 210.35,419.6 190.35,419.6" fill="rgb(205,0,0)"/><polygon points="190.35,399.6 210.35,399.6 210.35,419.6 190.35,419.6" fill="none" stroke="black" stroke-width="1"/><text xml:space="preserve" x="200.35" y="412.433" font-family="Calibri" font-size="7.5" fill="rgb(255,255,255)" text-anchor="middle">5.0</text>
<text xml:space="preserve" x="160.35" y="452.6" font-family="Calibri" font-size="8" text-anchor="middle">Expression</text>
<polygon points="110.35,459.6 130.35,459.6 130.35,479.6 110.35,479.6" fill="rgb(0,27,135)"/><polygon points="110.35,459.6 130.35,459.6 130.35,479.6 110.35,479.6" fill="none" stroke="black" stroke-width="1"/><text xml:space="preserve" x="120.35" y="472.433" font-family="Calibri" font-size="7.5" fill="rgb(255,255,255)" text-anchor="middle">0.0</text>
<polygon points="130.35,459.6 150.35,459.6 150.35,479.6 130.35,479.6" fill="rgb(24,123,140)"/><polygon points="130.35,459.6 150.35,459.6 150.35,479.6 130.35,479.6" fill="none" stroke="black" stroke-width="1"/><text xml:space="preserve" x="140.35" y="472.433" font-family="Calibri" font-size="7.5" fill="rgb(255,255,255)" text-anchor="middle">0.8</text>
<polygon points="150.35,459.6 170.35,459.6 170.35,479.6 150.35,479.6" fill="rgb(49,219,146)"/><polygon points="150.35,459.6 170.35,459.6 170.35,479.6 150.35,479.6" fill="none" stroke="black" stroke-width="1"/><text xml:space="preserve" x="160.35" y="472.433" font-family="Calibri" font-size="7.5" fill="rgb(0,0,0)" text-anchor="middle">1.5</text>
<polygon points="170.35,459.6 190.35,459.6 190.35,479.6 170.35,479.6" fill="rgb(150,206,73)"/><polygon points="170.35,459.6 190.35,459.6 190.35,479.6 170.35,479.6" fill="none" stroke="black" stroke-width="1"/><text xml:space="preserve" x="180.35" y="472.433" font-family="Calibri" font-size="7.5" fill="rgb(0,0,0)" text-anchor="middle">2.2</text>
<polygon points="190.35,459.6 210.35,459.6 210.35,479.6 190.35,479.6" fill="rgb(252,194,1)"/><polygon points="190.35,459.6 210.35,459.6 210.35,479.6 190.35,479.6" fill="none" stroke="black" stroke-width="1"/><text xml:space="preserve" x="200.35" y="472.433" font-family="Calibri" font-size="7.5" fill="rgb(0,0,0)" text-anchor="middle">3.0</text>
<text xml:space="preserve" x="160.35" y="512.6" font-family="Calibri" font-size="8" text-anchor="middle">PANTHERclass</text>
<polygon points="110.35,519.6 130.35,519.6 130.35,539.6 110.35,539.6" fill="rgb(255,255,255)"/><polygon points="110.35,519.6 130.35,519.6 130.35,539.6 110.35,539.6" fill="none" stroke="black" stroke-width="1"/><text xml:space="preserve" x="120.35" y="532.433" font-family="Calibri" font-size="7.5" fill="rgb(0,0,0)" text-anchor="middle">0.0</text>
<polygon points="130.35,519.6 150.35,519.6 150.35,539.6 130.35,539.6" fill="rgb(242,191,242)"/><polygon points="130.35,519.6 150.35,519.6 150.35,539.6 130.35,539.6" fill="none" stroke="black" stroke-width="1"/><text xml:space="preserve" x="140.35" y="532.433" font-family="Calibri" font-size="7.5" fill="rgb(0,0,0)" text-anchor="middle">0.2</text>
<polygon points="150.35,519.6 170.35,519.6 170.35,539.6 150.35,539.6" fill="rgb(230,127,230)"/><polygon points="150.35,519.6 170.35,519.6 170.35,539.6 150.35,539.6" fill="none" stroke="black" stroke-width="1"/><text xml:space="preserve" x="160.35" y="532.433" font-family="Calibri" font-size="7.5" fill="rgb(0,0,0)" text-anchor="middle">0.5</text>
<polygon points="170.35,519.6 190.35,519.6 190.35,539.6 170.35,539.6" fill="rgb(217,63,217)"/><polygon points="170.35,519.6 190.35,519.6 190.35,539.6 170.35,539.6" fill="none" stroke="black" stroke-width="1"/><text xml:space="preserve" x="180.35" y="532.433" font-family="Calibri" font-size="7.5" fill="rgb(255,255,255)" text-anchor="middle">0.8</text>
<polygon points="190.35,519.6 210.35,519.6 210.35,539.6 190.35,539.6" fill="rgb(205,0,205)"/><polygon points="190.35,519.6 210.35,519.6 210.35,539.6 190.35,539.6" fill="none" stroke="black" stroke-width="1"/><text xml:space="preserve" x="200.35" y="532.433" font-family="Calibri" font-size="7.5" fill="rgb(255,255,255)" text-anchor="middle">1.0</text>
</svg>
