<?xml version="1.0" standalone="no"?><!DOCTYPE svg PUBLIC "-//W3C//DTD SVG 1.1//EN" "http://www.w3.org/Graphics/SVG/1.1/DTD/svg11.dtd">
<svg width="323.1" height="631.6" version="1.1" xmlns="http://www.w3.org/2000/svg">
<text xml:space="preserve" x="87.1" y="342.6" font-family="Calibri" font-size="8" text-anchor="end">AP2M1</text>
<text xml:space="preserve" x="87.1" y="350.6" font-family="Calibri" font-size="8" text-anchor="end">OAZ1</text>
<text xml:space="preserve" x="87.1" y="358.6" font-family="Calibri" font-size="8" text-anchor="end">LDHB</text>
<text xml:space="preserve" x="87.1" y="366.6" font-family="Calibri" font-size="8" text-anchor="end">CCT2</text>
<text xml:space="preserve" x="87.1" y="374.6" font-family="Calibri" font-size="8" text-anchor="end">CHMP5</text>
<text xml:space="preserve" x="87.1" y="382.6" font-family="Calibri" font-size="8" text-anchor="end">KLC1</text>
<text xml:space="preserve" x="87.1" y="390.6" font-family="Calibri" font-size="8" text-anchor="end">TERF2IP</text>
<text xml:space="preserve" x="87.1" y="398.6" font-family="Calibri" font-size="8" text-anchor="end">STRAP</text>
<text xml:space="preserve" x="87.1" y="406.6" font-family="Calibri" font-size="8" text-anchor="end">SET</text>
<text xml:space="preserve" x="87.1" y="414.6" font-family="Calibri" font-size="8" text-anchor="end">SEPT7</text>
<text xml:space="preserve" x="87.1" y="422.6" font-family="Calibri" font-size="8" text-anchor="end">SEC61B</text>
<text xml:space="preserve" x="87.1" y="430.6" font-family="Calibri" font-size="8" text-anchor="end">PSMB1</text>
<text xml:space="preserve" x="98.1" y="331.6" font-family="Calibri" font-size="8" transform="rotate(270 98.1 331.6)">c2</text>
<text xml:space="preserve" x="106.1" y="331.6" font-family="Calibri" font-size="8" transform="rotate(270 106.1 331.6)">c3</text>
<text xml:space="preserve" x="114.1" y="331.6" font-family="Calibri" font-size="8" transform="rotate(270 114.1 331.6)">c6</text>
<text xml:space="preserve" x="122.1" y="331.6" font-family="Calibri" font-size="8" transform="rotate(270 122.1 331.6)">c4</text>
<text xml:space="preserve" x="130.1" y="331.6" font-family="Calibri" font-size="8" transform="rotate(270 130.1 331.6)">c1</text>
<text xml:space="preserve" x="138.1" y="331.6" font-family="Calibri" font-size="8" transform="rotate(270 138.1 331.6)">c5</text>
<text xml:space="preserve" x="146.1" y="331.6" font-family="Calibri" font-size="8" transform="rotate(270 146.1 331.6)">c7</text>
<text xml:space="preserve" x="154.1" y="331.6" font-family="Calibri" font-size="8" transform="rotate(270 154.1 331.6)">c8</text>
<text xml:space="preserve" x="172.1" y="331.6" font-family="Calibri" font-size="8" transform="rotate(270 172.1 331.6)">c2_mean</text>
<text xml:space="preserve" x="180.1" y="331.6" font-family="Calibri" font-size="8" transform="rotate(270 180.1 331.6)">c3_mean</text>
<text xml:space="preserve" x="188.1" y="331.6" font-family="Calibri" font-size="8" transform="rotate(270 188.1 331.6)">c6_mean</text>
<text xml:space="preserve" x="196.1" y="331.6" font-family="Calibri" font-size="8" transform="rotate(270 196.1 331.6)">c4_mean</text>
<text xml:space="preserve" x="204.1" y="331.6" font-family="Calibri" font-size="8" transform="rotate(270 204.1 331.6)">c1_mean</text>
<text xml:space="preserve" x="212.1" y="331.6" font-family="Calibri" font-size="8" transform="rotate(270 212.1 331.6)">c5_mean</text>
<text xml:space="preserve" x="220.1" y="331.6" font-family="Calibri" font-size="8" transform="rotate(270 220.1 331.6)">c7_mean</text>
<text xml:space="preserve" x="228.1" y="331.6" font-family="Calibri" font-size="8" transform="rotate(270 228.1 331.6)">c8_mean</text>
<text xml:space="preserve" x="246.1" y="331.6" font-family="Calibri" font-size="8" transform="rotate(270 246.1 331.6)">transcription_factor</text>
<text xml:space="preserve" x="254.1" y="331.6" font-family="Calibri" font-size="8" transform="rotate(270 254.1 331.6)">transmembrane_signal_receptor</text>
<text xml:space="preserve" x="262.1" y="331.6" font-family="Calibri" font-size="8" transform="rotate(270 262.1 331.6)">growth_factor</text>
<text xml:space="preserve" x="270.1" y="331.6" font-family="Calibri" font-size="8" transform="rotate(270 270.1 331.6)">peptide_hormone</text>
<text xml:space="preserve" x="278.1" y="331.6" font-family="Calibri" font-size="8" transform="rotate(270 278.1 331.6)">cytoskeletal_protein</text>
<text xml:space="preserve" x="286.1" y="331.6" font-family="Calibri" font-size="8" transform="rotate(270 286.1 331.6)">ion_channel</text>
<text xml:space="preserve" x="294.1" y="331.6" font-family="Calibri" font-size="8" transform="rotate(270 294.1 331.6)">integrin</text>
<text xml:space="preserve" x="302.1" y="331.6" font-family="Calibri" font-size="8" transform="rotate(270 302.1 331.6)">extracellular_matrix_protein</text>
<polygon points="91.1,335.6 99.1,335.6 99.1,343.6 91.1,343.6" fill="rgb(255,255,0)"/><text xml:space="preserve" x="95.1" y="342.433" font-family="Calibri" font-size="7.5" fill="rgb(0,0,0)" text-anchor="middle">3</text>
<polygon points="99.1,335.6 107.1,335.6 107.1,343.6 99.1,343.6" fill="rgb(127,230,0)"/><text xml:space="preserve" x="103.1" y="342.433" font-family="Calibri" font-size="7.5" fill="rgb(0,0,0)" text-anchor="middle">2</text>
<polygon points="107.1,335.6 115.1,335.6 115.1,343.6 107.1,343.6" fill="rgb(127,230,0)"/><text xml:space="preserve" x="111.1" y="342.433" font-family="Calibri" font-size="7.5" fill="rgb(0,0,0)" text-anchor="middle">2</text>
<polygon points="115.1,335.6 123.1,335.6 123.1,343.6 115.1,343.6" fill="rgb(127,230,0)"/><text xml:space="preserve" x="119.1" y="342.433" font-family="Calibri" font-size="7.5" fill="rgb(0,0,0)" text-anchor="middle">2</text>
<polygon points="123.1,335.6 131.1,335.6 131.1,343.6 123.1,343.6" fill="rgb(205,0,0)"/><text xml:space="preserve" x="127.1" y="342.433" font-family="Calibri" font-size="7.5" fill="rgb(255,255,255)" text-anchor="middle">5</text>
<polygon points="131.1,335.6 139.1,335.6 139.1,343.6 131.1,343.6" fill="rgb(230,127,0)"/><text xml:space="preserve" x="135.1" y="342.433" font-family="Calibri" font-size="7.5" fill="rgb(0,0,0)" text-anchor="middle">4</text>
<polygon points="139.1,335.6 147.1,335.6 147.1,343.6 139.1,343.6" fill="rgb(230,127,0)"/><text xml:space="preserve" x="143.1" y="342.433" font-family="Calibri" font-size="7.5" fill="rgb(0,0,0)" text-anchor="middle">4</text>
<polygon points="147.1,335.6 155.1,335.6 155.1,343.6 147.1,343.6" fill="rgb(255,255,0)"/><text xml:space="preserve" x="151.1" y="342.433" font-family="Calibri" font-size="7.5" fill="rgb(0,0,0)" text-anchor="middle">3</text>
<polygon points="165.1,335.6 173.1,335.6 173.1,343.6 165.1,343.6" fill="rgb(17,94,138)"/>
<polygon points="173.1,335.6 181.1,335.6 181.1,343.6 173.1,343.6" fill="rgb(13,80,138)"/>
<polygon points="181.1,335.6 189.1,335.6 189.1,343.6 181.1,343.6" fill="rgb(12,75,137)"/>
<polygon points="189.1,335.6 197.1,335.6 197.1,343.6 189.1,343.6" fill="rgb(12,75,137)"/>
<polygon points="197.1,335.6 205.1,335.6 205.1,343.6 197.1,343.6" fill="rgb(24,121,140)"/>
<polygon points="205.1,335.6 213.1,335.6 213.1,343.6 205.1,343.6" fill="rgb(24,123,140)"/>
<polygon points="213.1,335.6 221.1,335.6 221.1,343.6 213.1,343.6" fill="rgb(33,160,142)"/>
<polygon points="221.1,335.6 229.1,335.6 229.1,343.6 221.1,343.6" fill="rgb(10,67,137)"/>
<polygon points="239.1,335.6 247.1,335.6 247.1,343.6 239.1,343.6" fill="rgb(255,255,255)"/>
<polygon points="247.1,335.6 255.1,335.6 255.1,343.6 247.1,343.6" fill="rgb(255,255,255)"/>
<polygon points="255.1,335.6 263.1,335.6 263.1,343.6 255.1,343.6" fill="rgb(255,255,255)"/>
<polygon points="263.1,335.6 271.1,335.6 271.1,343.6 263.1,343.6" fill="rgb(255,255,255)"/>
<polygon points="271.1,335.6 279.1,335.6 279.1,343.6 271.1,343.6" fill="rgb(255,255,255)"/>
<polygon points="279.1,335.6 287.1,335.6 287.1,343.6 279.1,343.6" fill="rgb(255,255,255)"/>
<polygon points="287.1,335.6 295.1,335.6 295.1,343.6 287.1,343.6" fill="rgb(255,255,255)"/>
<polygon points="295.1,335.6 303.1,335.6 303.1,343.6 295.1,343.6" fill="rgb(255,255,255)"/>
<polygon points="91.1,343.6 99.1,343.6 99.1,351.6 91.1,351.6" fill="rgb(255,255,0)"/><text xml:space="preserve" x="95.1" y="350.433" font-family="Calibri" font-size="7.5" fill="rgb(0,0,0)" text-anchor="middle">3</text>
<polygon points="99.1,343.6 107.1,343.6 107.1,351.6 99.1,351.6" fill="rgb(127,230,0)"/><text xml:space="preserve" x="103.1" y="350.433" font-family="Calibri" font-size="7.5" fill="rgb(0,0,0)" text-anchor="middle">2</text>
<polygon points="107.1,343.6 115.1,343.6 115.1,351.6 107.1,351.6" fill="rgb(127,230,0)"/><text xml:space="preserve" x="111.1" y="350.433" font-family="Calibri" font-size="7.5" fill="rgb(0,0,0)" text-anchor="middle">2</text>
<polygon points="115.1,343.6 123.1,343.6 123.1,351.6 115.1,351.6" fill="rgb(127,230,0)"/><text xml:space="preserve" x="119.1" y="350.433" font-family="Calibri" font-size="7.5" fill="rgb(0,0,0)" text-anchor="middle">2</text>
<polygon points="123.1,343.6 131.1,343.6 131.1,351.6 123.1,351.6" fill="rgb(205,0,0)"/><text xml:space="preserve" x="127.1" y="350.433" font-family="Calibri" font-size="7.5" fill="rgb(255,255,255)" text-anchor="middle">5</text>
<polygon points="131.1,343.6 139.1,343.6 139.1,351.6 131.1,351.6" fill="rgb(230,127,0)"/><text xml:space="preserve" x="135.1" y="350.433" font-family="Calibri" font-size="7.5" fill="rgb(0,0,0)" text-anchor="middle">4</text>
<polygon points="139.1,343.6 147.1,343.6 147.1,351.6 139.1,351.6" fill="rgb(230,127,0)"/><text xml:space="preserve" x="143.1" y="350.433" font-family="Calibri" font-size="7.5" fill="rgb(0,0,0)" text-anchor="middle">4</text>
<polygon points="147.1,343.6 155.1,343.6 155.1,351.6 147.1,351.6" fill="rgb(255,255,0)"/><text xml:space="preserve" x="151.1" y="350.433" font-family="Calibri" font-size="7.5" fill="rgb(0,0,0)" text-anchor="middle">3</text>
<polygon points="165.1,343.6 173.1,343.6 173.1,351.6 165.1,351.6" fill="rgb(15,88,138)"/>
<polygon points="173.1,343.6 181.1,343.6 181.1,351.6 173.1,351.6" fill="rgb(12,74,137)"/>
<polygon points="181.1,343.6 189.1,343.6 189.1,351.6 181.1,351.6" fill="rgb(12,74,137)"/>
<polygon points="189.1,343.6 197.1,343.6 197.1,351.6 189.1,351.6" fill="rgb(10,69,137)"/>
<polygon points="197.1,343.6 205.1,343.6 205.1,351.6 197.1,351.6" fill="rgb(39,181,143)"/>
<polygon points="205.1,343.6 213.1,343.6 213.1,351.6 205.1,351.6" fill="rgb(38,179,143)"/>
<polygon points="213.1,343.6 221.1,343.6 221.1,351.6 213.1,351.6" fill="rgb(19,103,139)"/>
<polygon points="221.1,343.6 229.1,343.6 229.1,351.6 221.1,351.6" fill="rgb(10,67,137)"/>
<polygon points="239.1,343.6 247.1,343.6 247.1,351.6 239.1,351.6" fill="rgb(255,255,255)"/>
<polygon points="247.1,343.6 255.1,343.6 255.1,351.6 247.1,351.6" fill="rgb(255,255,255)"/>
<polygon points="255.1,343.6 263.1,343.6 263.1,351.6 255.1,351.6" fill="rgb(255,255,255)"/>
<polygon points="263.1,343.6 271.1,343.6 271.1,351.6 263.1,351.6" fill="rgb(255,255,255)"/>
<polygon points="271.1,343.6 279.1,343.6 279.1,351.6 271.1,351.6" fill="rgb(255,255,255)"/>
<polygon points="279.1,343.6 287.1,343.6 287.1,351.6 279.1,351.6" fill="rgb(255,255,255)"/>
<polygon points="287.1,343.6 295.1,343.6 295.1,351.6 287.1,351.6" fill="rgb(255,255,255)"/>
<polygon points="295.1,343.6 303.1,343.6 303.1,351.6 295.1,351.6" fill="rgb(255,255,255)"/>
<polygon points="91.1,351.6 99.1,351.6 99.1,359.6 91.1,359.6" fill="rgb(255,255,0)"/><text xml:space="preserve" x="95.1" y="358.433" font-family="Calibri" font-size="7.5" fill="rgb(0,0,0)" text-anchor="middle">3</text>
<polygon points="99.1,351.6 107.1,351.6 107.1,359.6 99.1,359.6" fill="rgb(127,230,0)"/><text xml:space="preserve" x="103.1" y="358.433" font-family="Calibri" font-size="7.5" fill="rgb(0,0,0)" text-anchor="middle">2</text>
<polygon points="107.1,351.6 115.1,351.6 115.1,359.6 107.1,359.6" fill="rgb(127,230,0)"/><text xml:space="preserve" x="111.1" y="358.433" font-family="Calibri" font-size="7.5" fill="rgb(0,0,0)" text-anchor="middle">2</text>
<polygon points="115.1,351.6 123.1,351.6 123.1,359.6 115.1,359.6" fill="rgb(127,230,0)"/><text xml:space="preserve" x="119.1" y="358.433" font-family="Calibri" font-size="7.5" fill="rgb(0,0,0)" text-anchor="middle">2</text>
<polygon points="123.1,351.6 131.1,351.6 131.1,359.6 123.1,359.6" fill="rgb(205,0,0)"/><text xml:space="preserve" x="127.1" y="358.433" font-family="Calibri" font-size="7.5" fill="rgb(255,255,255)" text-anchor="middle">5</text>
<polygon points="131.1,351.6 139.1,351.6 139.1,359.6 131.1,359.6" fill="rgb(230,127,0)"/><text xml:space="preserve" x="135.1" y="358.433" font-family="Calibri" font-size="7.5" fill="rgb(0,0,0)" text-anchor="middle">4</text>
<polygon points="139.1,351.6 147.1,351.6 147.1,359.6 139.1,359.6" fill="rgb(230,127,0)"/><text xml:space="preserve" x="143.1" y="358.433" font-family="Calibri" font-size="7.5" fill="rgb(0,0,0)" text-anchor="middle">4</text>
<polygon points="147.1,351.6 155.1,351.6 155.1,359.6 147.1,359.6" fill="rgb(255,255,0)"/><text xml:space="preserve" x="151.1" y="358.433" font-family="Calibri" font-size="7.5" fill="rgb(0,0,0)" text-anchor="middle">3</text>
<polygon points="165.1,351.6 173.1,351.6 173.1,359.6 165.1,359.6" fill="rgb(13,79,138)"/>
<polygon points="173.1,351.6 181.1,351.6 181.1,359.6 173.1,359.6" fill="rgb(12,74,137)"/>
<polygon points="181.1,351.6 189.1,351.6 189.1,359.6 181.1,359.6" fill="rgb(12,75,137)"/>
<polygon points="189.1,351.6 197.1,351.6 197.1,359.6 189.1,359.6" fill="rgb(14,82,138)"/>
<polygon points="197.1,351.6 205.1,351.6 205.1,359.6 197.1,359.6" fill="rgb(25,128,140)"/>
<polygon points="205.1,351.6 213.1,351.6 213.1,359.6 205.1,359.6" fill="rgb(26,130,140)"/>
<polygon points="213.1,351.6 221.1,351.6 221.1,359.6 213.1,359.6" fill="rgb(38,178,143)"/>
<polygon points="221.1,351.6 229.1,351.6 229.1,359.6 221.1,359.6" fill="rgb(11,73,137)"/>
<polygon points="239.1,351.6 247.1,351.6 247.1,359.6 239.1,359.6" fill="rgb(255,255,255)"/>
<polygon points="247.1,351.6 255.1,351.6 255.1,359.6 247.1,359.6" fill="rgb(255,255,255)"/>
<polygon points="255.1,351.6 263.1,351.6 263.1,359.6 255.1,359.6" fill="rgb(255,255,255)"/>
<polygon points="263.1,351.6 271.1,351.6 271.1,359.6 263.1,359.6" fill="rgb(255,255,255)"/>
<polygon points="271.1,351.6 279.1,351.6 279.1,359.6 271.1,359.6" fill="rgb(255,255,255)"/>
<polygon points="279.1,351.6 287.1,351.6 287.1,359.6 279.1,359.6" fill="rgb(255,255,255)"/>
<polygon points="287.1,351.6 295.1,351.6 295.1,359.6 287.1,359.6" fill="rgb(255,255,255)"/>
<polygon points="295.1,351.6 303.1,351.6 303.1,359.6 295.1,359.6" fill="rgb(255,255,255)"/>
<polygon points="91.1,359.6 99.1,359.6 99.1,367.6 91.1,367.6" fill="rgb(255,255,0)"/><text xml:space="preserve" x="95.1" y="366.433" font-family="Calibri" font-size="7.5" fill="rgb(0,0,0)" text-anchor="middle">3</text>
<polygon points="99.1,359.6 107.1,359.6 107.1,367.6 99.1,367.6" fill="rgb(127,230,0)"/><text xml:space="preserve" x="103.1" y="366.433" font-family="Calibri" font-size="7.5" fill="rgb(0,0,0)" text-anchor="middle">2</text>
<polygon points="107.1,359.6 115.1,359.6 115.1,367.6 107.1,367.6" fill="rgb(127,230,0)"/><text xml:space="preserve" x="111.1" y="366.433" font-family="Calibri" font-size="7.5" fill="rgb(0,0,0)" text-anchor="middle">2</text>
<polygon points="115.1,359.6 123.1,359.6 123.1,367.6 115.1,367.6" fill="rgb(127,230,0)"/><text xml:space="preserve" x="119.1" y="366.433" font-family="Calibri" font-size="7.5" fill="rgb(0,0,0)" text-anchor="middle">2</text>
<polygon points="123.1,359.6 131.1,359.6 131.1,367.6 123.1,367.6" fill="rgb(205,0,0)"/><text xml:space="preserve" x="127.1" y="366.433" font-family="Calibri" font-size="7.5" fill="rgb(255,255,255)" text-anchor="middle">5</text>
<polygon points="131.1,359.6 139.1,359.6 139.1,367.6 131.1,367.6" fill="rgb(230,127,0)"/><text xml:space="preserve" x="135.1" y="366.433" font-family="Calibri" font-size="7.5" fill="rgb(0,0,0)" text-anchor="middle">4</text>
<polygon points="139.1,359.6 147.1,359.6 147.1,367.6 139.1,367.6" fill="rgb(230,127,0)"/><text xml:space="preserve" x="143.1" y="366.433" font-family="Calibri" font-size="7.5" fill="rgb(0,0,0)" text-anchor="middle">4</text>
<polygon points="147.1,359.6 155.1,359.6 155.1,367.6 147.1,367.6" fill="rgb(255,255,0)"/><text xml:space="preserve" x="151.1" y="366.433" font-family="Calibri" font-size="7.5" fill="rgb(0,0,0)" text-anchor="middle">3</text>
<polygon points="165.1,359.6 173.1,359.6 173.1,367.6 165.1,367.6" fill="rgb(14,82,138)"/>
<polygon points="173.1,359.6 181.1,359.6 181.1,367.6 173.1,367.6" fill="rgb(11,71,137)"/>
<polygon points="181.1,359.6 189.1,359.6 189.1,367.6 181.1,367.6" fill="rgb(11,71,137)"/>
<polygon points="189.1,359.6 197.1,359.6 197.1,367.6 189.1,367.6" fill="rgb(11,73,137)"/>
<polygon points="197.1,359.6 205.1,359.6 205.1,367.6 197.1,367.6" fill="rgb(40,184,144)"/>
<polygon points="205.1,359.6 213.1,359.6 213.1,367.6 205.1,367.6" fill="rgb(34,162,142)"/>
<polygon points="213.1,359.6 221.1,359.6 221.1,367.6 213.1,367.6" fill="rgb(20,106,139)"/>
<polygon points="221.1,359.6 229.1,359.6 229.1,367.6 221.1,367.6" fill="rgb(11,70,137)"/>
<polygon points="239.1,359.6 247.1,359.6 247.1,367.6 239.1,367.6" fill="rgb(255,255,255)"/>
<polygon points="247.1,359.6 255.1,359.6 255.1,367.6 247.1,367.6" fill="rgb(255,255,255)"/>
<polygon points="255.1,359.6 263.1,359.6 263.1,367.6 255.1,367.6" fill="rgb(255,255,255)"/>
<polygon points="263.1,359.6 271.1,359.6 271.1,367.6 263.1,367.6" fill="rgb(255,255,255)"/>
<polygon points="271.1,359.6 279.1,359.6 279.1,367.6 271.1,367.6" fill="rgb(255,255,255)"/>
<polygon points="279.1,359.6 287.1,359.6 287.1,367.6 279.1,367.6" fill="rgb(255,255,255)"/>
<polygon points="287.1,359.6 295.1,359.6 295.1,367.6 287.1,367.6" fill="rgb(255,255,255)"/>
<polygon points="295.1,359.6 303.1,359.6 303.1,367.6 295.1,367.6" fill="rgb(255,255,255)"/>
<polygon points="91.1,367.6 99.1,367.6 99.1,375.6 91.1,375.6" fill="rgb(255,255,0)"/><text xml:space="preserve" x="95.1" y="374.433" font-family="Calibri" font-size="7.5" fill="rgb(0,0,0)" text-anchor="middle">3</text>
<polygon points="99.1,367.6 107.1,367.6 107.1,375.6 99.1,375.6" fill="rgb(127,230,0)"/><text xml:space="preserve" x="103.1" y="374.433" font-family="Calibri" font-size="7.5" fill="rgb(0,0,0)" text-anchor="middle">2</text>
<polygon points="107.1,367.6 115.1,367.6 115.1,375.6 107.1,375.6" fill="rgb(127,230,0)"/><text xml:space="preserve" x="111.1" y="374.433" font-family="Calibri" font-size="7.5" fill="rgb(0,0,0)" text-anchor="middle">2</text>
<polygon points="115.1,367.6 123.1,367.6 123.1,375.6 115.1,375.6" fill="rgb(127,230,0)"/><text xml:space="preserve" x="119.1" y="374.433" font-family="Calibri" font-size="7.5" fill="rgb(0,0,0)" text-anchor="middle">2</text>
<polygon points="123.1,367.6 131.1,367.6 131.1,375.6 123.1,375.6" fill="rgb(205,0,0)"/><text xml:space="preserve" x="127.1" y="374.433" font-family="Calibri" font-size="7.5" fill="rgb(255,255,255)" text-anchor="middle">5</text>
<polygon points="131.1,367.6 139.1,367.6 139.1,375.6 131.1,375.6" fill="rgb(230,127,0)"/><text xml:space="preserve" x="135.1" y="374.433" font-family="Calibri" font-size="7.5" fill="rgb(0,0,0)" text-anchor="middle">4</text>
<polygon points="139.1,367.6 147.1,367.6 147.1,375.6 139.1,375.6" fill="rgb(230,127,0)"/><text xml:space="preserve" x="143.1" y="374.433" font-family="Calibri" font-size="7.5" fill="rgb(0,0,0)" text-anchor="middle">4</text>
<polygon points="147.1,367.6 155.1,367.6 155.1,375.6 147.1,375.6" fill="rgb(255,255,0)"/><text xml:space="preserve" x="151.1" y="374.433" font-family="Calibri" font-size="7.5" fill="rgb(0,0,0)" text-anchor="middle">3</text>
<polygon points="165.1,367.6 173.1,367.6 173.1,375.6 165.1,375.6" fill="rgb(17,97,139)"/>
<polygon points="173.1,367.6 181.1,367.6 181.1,375.6 173.1,375.6" fill="rgb(9,65,137)"/>
<polygon points="181.1,367.6 189.1,367.6 189.1,375.6 181.1,375.6" fill="rgb(8,60,136)"/>
<polygon points="189.1,367.6 197.1,367.6 197.1,375.6 189.1,375.6" fill="rgb(8,61,136)"/>
<polygon points="197.1,367.6 205.1,367.6 205.1,375.6 197.1,375.6" fill="rgb(35,165,142)"/>
<polygon points="205.1,367.6 213.1,367.6 213.1,375.6 205.1,375.6" fill="rgb(35,166,142)"/>
<polygon points="213.1,367.6 221.1,367.6 221.1,375.6 213.1,375.6" fill="rgb(30,144,141)"/>
<polygon points="221.1,367.6 229.1,367.6 229.1,375.6 221.1,375.6" fill="rgb(7,57,136)"/>
<polygon points="239.1,367.6 247.1,367.6 247.1,375.6 239.1,375.6" fill="rgb(255,255,255)"/>
<polygon points="247.1,367.6 255.1,367.6 255.1,375.6 247.1,375.6" fill="rgb(255,255,255)"/>
<polygon points="255.1,367.6 263.1,367.6 263.1,375.6 255.1,375.6" fill="rgb(255,255,255)"/>
<polygon points="263.1,367.6 271.1,367.6 271.1,375.6 263.1,375.6" fill="rgb(255,255,255)"/>
<polygon points="271.1,367.6 279.1,367.6 279.1,375.6 271.1,375.6" fill="rgb(255,255,255)"/>
<polygon points="279.1,367.6 287.1,367.6 287.1,375.6 279.1,375.6" fill="rgb(255,255,255)"/>
<polygon points="287.1,367.6 295.1,367.6 295.1,375.6 287.1,375.6" fill="rgb(255,255,255)"/>
<polygon points="295.1,367.6 303.1,367.6 303.1,375.6 295.1,375.6" fill="rgb(255,255,255)"/>
<polygon points="91.1,375.6 99.1,375.6 99.1,383.6 91.1,383.6" fill="rgb(255,255,0)"/><text xml:space="preserve" x="95.1" y="382.433" font-family="Calibri" font-size="7.5" fill="rgb(0,0,0)" text-anchor="middle">3</text>
<polygon points="99.1,375.6 107.1,375.6 107.1,383.6 99.1,383.6" fill="rgb(127,230,0)"/><text xml:space="preserve" x="103.1" y="382.433" font-family="Calibri" font-size="7.5" fill="rgb(0,0,0)" text-anchor="middle">2</text>
<polygon points="107.1,375.6 115.1,375.6 115.1,383.6 107.1,383.6" fill="rgb(127,230,0)"/><text xml:space="preserve" x="111.1" y="382.433" font-family="Calibri" font-size="7.5" fill="rgb(0,0,0)" text-anchor="middle">2</text>
<polygon points="115.1,375.6 123.1,375.6 123.1,383.6 115.1,383.6" fill="rgb(127,230,0)"/><text xml:space="preserve" x="119.1" y="382.433" font-family="Calibri" font-size="7.5" fill="rgb(0,0,0)" text-anchor="middle">2</text>
<polygon points="123.1,375.6 131.1,375.6 131.1,383.6 123.1,383.6" fill="rgb(205,0,0)"/><text xml:space="preserve" x="127.1" y="382.433" font-family="Calibri" font-size="7.5" fill="rgb(255,255,255)" text-anchor="middle">5</text>
<polygon points="131.1,375.6 139.1,375.6 139.1,383.6 131.1,383.6" fill="rgb(230,127,0)"/><text xml:space="preserve" x="135.1" y="382.433" font-family="Calibri" font-size="7.5" fill="rgb(0,0,0)" text-anchor="middle">4</text>
<polygon points="139.1,375.6 147.1,375.6 147.1,383.6 139.1,383.6" fill="rgb(230,127,0)"/><text xml:space="preserve" x="143.1" y="382.433" font-family="Calibri" font-size="7.5" fill="rgb(0,0,0)" text-anchor="middle">4</text>
<polygon points="147.1,375.6 155.1,375.6 155.1,383.6 147.1,383.6" fill="rgb(255,255,0)"/><text xml:space="preserve" x="151.1" y="382.433" font-family="Calibri" font-size="7.5" fill="rgb(0,0,0)" text-anchor="middle">3</text>
<polygon points="165.1,375.6 173.1,375.6 173.1,383.6 165.1,383.6" fill="rgb(22,114,139)"/>
<polygon points="173.1,375.6 181.1,375.6 181.1,383.6 173.1,383.6" fill="rgb(11,73,137)"/>
<polygon points="181.1,375.6 189.1,375.6 189.1,383.6 181.1,383.6" fill="rgb(12,74,137)"/>
<polygon points="189.1,375.6 197.1,375.6 197.1,383.6 189.1,383.6" fill="rgb(8,61,136)"/>
<polygon points="197.1,375.6 205.1,375.6 205.1,383.6 197.1,383.6" fill="rgb(34,162,142)"/>
<polygon points="205.1,375.6 213.1,375.6 213.1,383.6 205.1,383.6" fill="rgb(32,152,142)"/>
<polygon points="213.1,375.6 221.1,375.6 221.1,383.6 213.1,383.6" fill="rgb(29,143,141)"/>
<polygon points="221.1,375.6 229.1,375.6 229.1,383.6 221.1,383.6" fill="rgb(8,61,136)"/>
<polygon points="239.1,375.6 247.1,375.6 247.1,383.6 239.1,383.6" fill="rgb(255,255,255)"/>
<polygon points="247.1,375.6 255.1,375.6 255.1,383.6 247.1,383.6" fill="rgb(255,255,255)"/>
<polygon points="255.1,375.6 263.1,375.6 263.1,383.6 255.1,383.6" fill="rgb(255,255,255)"/>
<polygon points="263.1,375.6 271.1,375.6 271.1,383.6 263.1,383.6" fill="rgb(255,255,255)"/>
<polygon points="271.1,375.6 279.1,375.6 279.1,383.6 271.1,383.6" fill="rgb(255,255,255)"/>
<polygon points="279.1,375.6 287.1,375.6 287.1,383.6 279.1,383.6" fill="rgb(255,255,255)"/>
<polygon points="287.1,375.6 295.1,375.6 295.1,383.6 287.1,383.6" fill="rgb(255,255,255)"/>
<polygon points="295.1,375.6 303.1,375.6 303.1,383.6 295.1,383.6" fill="rgb(255,255,255)"/>
<polygon points="91.1,383.6 99.1,383.6 99.1,391.6 91.1,391.6" fill="rgb(255,255,0)"/><text xml:space="preserve" x="95.1" y="390.433" font-family="Calibri" font-size="7.5" fill="rgb(0,0,0)" text-anchor="middle">3</text>
<polygon points="99.1,383.6 107.1,383.6 107.1,391.6 99.1,391.6" fill="rgb(127,230,0)"/><text xml:space="preserve" x="103.1" y="390.433" font-family="Calibri" font-size="7.5" fill="rgb(0,0,0)" text-anchor="middle">2</text>
<polygon points="107.1,383.6 115.1,383.6 115.1,391.6 107.1,391.6" fill="rgb(127,230,0)"/><text xml:space="preserve" x="111.1" y="390.433" font-family="Calibri" font-size="7.5" fill="rgb(0,0,0)" text-anchor="middle">2</text>
<polygon points="115.1,383.6 123.1,383.6 123.1,391.6 115.1,391.6" fill="rgb(127,230,0)"/><text xml:space="preserve" x="119.1" y="390.433" font-family="Calibri" font-size="7.5" fill="rgb(0,0,0)" text-anchor="middle">2</text>
<polygon points="123.1,383.6 131.1,383.6 131.1,391.6 123.1,391.6" fill="rgb(205,0,0)"/><text xml:space="preserve" x="127.1" y="390.433" font-family="Calibri" font-size="7.5" fill="rgb(255,255,255)" text-anchor="middle">5</text>
<polygon points="131.1,383.6 139.1,383.6 139.1,391.6 131.1,391.6" fill="rgb(230,127,0)"/><text xml:space="preserve" x="135.1" y="390.433" font-family="Calibri" font-size="7.5" fill="rgb(0,0,0)" text-anchor="middle">4</text>
<polygon points="139.1,383.6 147.1,383.6 147.1,391.6 139.1,391.6" fill="rgb(230,127,0)"/><text xml:space="preserve" x="143.1" y="390.433" font-family="Calibri" font-size="7.5" fill="rgb(0,0,0)" text-anchor="middle">4</text>
<polygon points="147.1,383.6 155.1,383.6 155.1,391.6 147.1,391.6" fill="rgb(255,255,0)"/><text xml:space="preserve" x="151.1" y="390.433" font-family="Calibri" font-size="7.5" fill="rgb(0,0,0)" text-anchor="middle">3</text>
<polygon points="165.1,383.6 173.1,383.6 173.1,391.6 165.1,391.6" fill="rgb(22,114,139)"/>
<polygon points="173.1,383.6 181.1,383.6 181.1,391.6 173.1,391.6" fill="rgb(12,74,137)"/>
<polygon points="181.1,383.6 189.1,383.6 189.1,391.6 181.1,391.6" fill="rgb(13,79,138)"/>
<polygon points="189.1,383.6 197.1,383.6 197.1,391.6 189.1,391.6" fill="rgb(8,60,136)"/>
<polygon points="197.1,383.6 205.1,383.6 205.1,391.6 197.1,391.6" fill="rgb(33,160,142)"/>
<polygon points="205.1,383.6 213.1,383.6 213.1,391.6 205.1,391.6" fill="rgb(38,178,143)"/>
<polygon points="213.1,383.6 221.1,383.6 221.1,391.6 213.1,391.6" fill="rgb(32,156,142)"/>
<polygon points="221.1,383.6 229.1,383.6 229.1,391.6 221.1,391.6" fill="rgb(9,64,137)"/>
<polygon points="239.1,383.6 247.1,383.6 247.1,391.6 239.1,391.6" fill="rgb(255,255,255)"/>
<polygon points="247.1,383.6 255.1,383.6 255.1,391.6 247.1,391.6" fill="rgb(255,255,255)"/>
<polygon points="255.1,383.6 263.1,383.6 263.1,391.6 255.1,391.6" fill="rgb(255,255,255)"/>
<polygon points="263.1,383.6 271.1,383.6 271.1,391.6 263.1,391.6" fill="rgb(255,255,255)"/>
<polygon points="271.1,383.6 279.1,383.6 279.1,391.6 271.1,391.6" fill="rgb(255,255,255)"/>
<polygon points="279.1,383.6 287.1,383.6 287.1,391.6 279.1,391.6" fill="rgb(255,255,255)"/>
<polygon points="287.1,383.6 295.1,383.6 295.1,391.6 287.1,391.6" fill="rgb(255,255,255)"/>
<polygon points="295.1,383.6 303.1,383.6 303.1,391.6 295.1,391.6" fill="rgb(255,255,255)"/>
<polygon points="91.1,391.6 99.1,391.6 99.1,399.6 91.1,399.6" fill="rgb(255,255,0)"/><text xml:space="preserve" x="95.1" y="398.433" font-family="Calibri" font-size="7.5" fill="rgb(0,0,0)" text-anchor="middle">3</text>
<polygon points="99.1,391.6 107.1,391.6 107.1,399.6 99.1,399.6" fill="rgb(127,230,0)"/><text xml:space="preserve" x="103.1" y="398.433" font-family="Calibri" font-size="7.5" fill="rgb(0,0,0)" text-anchor="middle">2</text>
<polygon points="107.1,391.6 115.1,391.6 115.1,399.6 107.1,399.6" fill="rgb(127,230,0)"/><text xml:space="preserve" x="111.1" y="398.433" font-family="Calibri" font-size="7.5" fill="rgb(0,0,0)" text-anchor="middle">2</text>
<polygon points="115.1,391.6 123.1,391.6 123.1,399.6 115.1,399.6" fill="rgb(127,230,0)"/><text xml:space="preserve" x="119.1" y="398.433" font-family="Calibri" font-size="7.5" fill="rgb(0,0,0)" text-anchor="middle">2</text>
<polygon points="123.1,391.6 131.1,391.6 131.1,399.6 123.1,399.6" fill="rgb(205,0,0)"/><text xml:space="preserve" x="127.1" y="398.433" font-family="Calibri" font-size="7.5" fill="rgb(255,255,255)" text-anchor="middle">5</text>
<polygon points="131.1,391.6 139.1,391.6 139.1,399.6 131.1,399.6" fill="rgb(230,127,0)"/><text xml:space="preserve" x="135.1" y="398.433" font-family="Calibri" font-size="7.5" fill="rgb(0,0,0)" text-anchor="middle">4</text>
<polygon points="139.1,391.6 147.1,391.6 147.1,399.6 139.1,399.6" fill="rgb(230,127,0)"/><text xml:space="preserve" x="143.1" y="398.433" font-family="Calibri" font-size="7.5" fill="rgb(0,0,0)" text-anchor="middle">4</text>
<polygon points="147.1,391.6 155.1,391.6 155.1,399.6 147.1,399.6" fill="rgb(255,255,0)"/><text xml:space="preserve" x="151.1" y="398.433" font-family="Calibri" font-size="7.5" fill="rgb(0,0,0)" text-anchor="middle">3</text>
<polygon points="165.1,391.6 173.1,391.6 173.1,399.6 165.1,399.6" fill="rgb(14,83,138)"/>
<polygon points="173.1,391.6 181.1,391.6 181.1,399.6 173.1,399.6" fill="rgb(12,74,137)"/>
<polygon points="181.1,391.6 189.1,391.6 189.1,399.6 181.1,399.6" fill="rgb(12,75,137)"/>
<polygon points="189.1,391.6 197.1,391.6 197.1,399.6 189.1,399.6" fill="rgb(11,73,137)"/>
<polygon points="197.1,391.6 205.1,391.6 205.1,399.6 197.1,399.6" fill="rgb(40,187,144)"/>
<polygon points="205.1,391.6 213.1,391.6 213.1,399.6 205.1,399.6" fill="rgb(34,162,142)"/>
<polygon points="213.1,391.6 221.1,391.6 221.1,399.6 213.1,399.6" fill="rgb(19,105,139)"/>
<polygon points="221.1,391.6 229.1,391.6 229.1,399.6 221.1,399.6" fill="rgb(11,70,137)"/>
<polygon points="239.1,391.6 247.1,391.6 247.1,399.6 239.1,399.6" fill="rgb(255,255,255)"/>
<polygon points="247.1,391.6 255.1,391.6 255.1,399.6 247.1,399.6" fill="rgb(255,255,255)"/>
<polygon points="255.1,391.6 263.1,391.6 263.1,399.6 255.1,399.6" fill="rgb(255,255,255)"/>
<polygon points="263.1,391.6 271.1,391.6 271.1,399.6 263.1,399.6" fill="rgb(255,255,255)"/>
<polygon points="271.1,391.6 279.1,391.6 279.1,399.6 271.1,399.6" fill="rgb(255,255,255)"/>
<polygon points="279.1,391.6 287.1,391.6 287.1,399.6 279.1,399.6" fill="rgb(255,255,255)"/>
<polygon points="287.1,391.6 295.1,391.6 295.1,399.6 287.1,399.6" fill="rgb(255,255,255)"/>
<polygon points="295.1,391.6 303.1,391.6 303.1,399.6 295.1,399.6" fill="rgb(255,255,255)"/>
<polygon points="91.1,399.6 99.1,399.6 99.1,407.6 91.1,407.6" fill="rgb(255,255,0)"/><text xml:space="preserve" x="95.1" y="406.433" font-family="Calibri" font-size="7.5" fill="rgb(0,0,0)" text-anchor="middle">3</text>
<polygon points="99.1,399.6 107.1,399.6 107.1,407.6 99.1,407.6" fill="rgb(127,230,0)"/><text xml:space="preserve" x="103.1" y="406.433" font-family="Calibri" font-size="7.5" fill="rgb(0,0,0)" text-anchor="middle">2</text>
<polygon points="107.1,399.6 115.1,399.6 115.1,407.6 107.1,407.6" fill="rgb(127,230,0)"/><text xml:space="preserve" x="111.1" y="406.433" font-family="Calibri" font-size="7.5" fill="rgb(0,0,0)" text-anchor="middle">2</text>
<polygon points="115.1,399.6 123.1,399.6 123.1,407.6 115.1,407.6" fill="rgb(127,230,0)"/><text xml:space="preserve" x="119.1" y="406.433" font-family="Calibri" font-size="7.5" fill="rgb(0,0,0)" text-anchor="middle">2</text>
<polygon points="123.1,399.6 131.1,399.6 131.1,407.6 123.1,407.6" fill="rgb(205,0,0)"/><text xml:space="preserve" x="127.1" y="406.433" font-family="Calibri" font-size="7.5" fill="rgb(255,255,255)" text-anchor="middle">5</text>
<polygon points="131.1,399.6 139.1,399.6 139.1,407.6 131.1,407.6" fill="rgb(230,127,0)"/><text xml:space="preserve" x="135.1" y="406.433" font-family="Calibri" font-size="7.5" fill="rgb(0,0,0)" text-anchor="middle">4</text>
<polygon points="139.1,399.6 147.1,399.6 147.1,407.6 139.1,407.6" fill="rgb(230,127,0)"/><text xml:space="preserve" x="143.1" y="406.433" font-family="Calibri" font-size="7.5" fill="rgb(0,0,0)" text-anchor="middle">4</text>
<polygon points="147.1,399.6 155.1,399.6 155.1,407.6 147.1,407.6" fill="rgb(255,255,0)"/><text xml:space="preserve" x="151.1" y="406.433" font-family="Calibri" font-size="7.5" fill="rgb(0,0,0)" text-anchor="middle">3</text>
<polygon points="165.1,399.6 173.1,399.6 173.1,407.6 165.1,407.6" fill="rgb(16,91,138)"/>
<polygon points="173.1,399.6 181.1,399.6 181.1,407.6 173.1,407.6" fill="rgb(11,73,137)"/>
<polygon points="181.1,399.6 189.1,399.6 189.1,407.6 181.1,407.6" fill="rgb(11,73,137)"/>
<polygon points="189.1,399.6 197.1,399.6 197.1,407.6 189.1,407.6" fill="rgb(11,70,137)"/>
<polygon points="197.1,399.6 205.1,399.6 205.1,407.6 197.1,407.6" fill="rgb(39,180,143)"/>
<polygon points="205.1,399.6 213.1,399.6 213.1,407.6 205.1,407.6" fill="rgb(34,162,142)"/>
<polygon points="213.1,399.6 221.1,399.6 221.1,407.6 213.1,407.6" fill="rgb(20,107,139)"/>
<polygon points="221.1,399.6 229.1,399.6 229.1,407.6 221.1,407.6" fill="rgb(11,73,137)"/>
<polygon points="239.1,399.6 247.1,399.6 247.1,407.6 239.1,407.6" fill="rgb(255,255,255)"/>
<polygon points="247.1,399.6 255.1,399.6 255.1,407.6 247.1,407.6" fill="rgb(255,255,255)"/>
<polygon points="255.1,399.6 263.1,399.6 263.1,407.6 255.1,407.6" fill="rgb(255,255,255)"/>
<polygon points="263.1,399.6 271.1,399.6 271.1,407.6 263.1,407.6" fill="rgb(255,255,255)"/>
<polygon points="271.1,399.6 279.1,399.6 279.1,407.6 271.1,407.6" fill="rgb(255,255,255)"/>
<polygon points="279.1,399.6 287.1,399.6 287.1,407.6 279.1,407.6" fill="rgb(255,255,255)"/>
<polygon points="287.1,399.6 295.1,399.6 295.1,407.6 287.1,407.6" fill="rgb(255,255,255)"/>
<polygon points="295.1,399.6 303.1,399.6 303.1,407.6 295.1,407.6" fill="rgb(255,255,255)"/>
<polygon points="91.1,407.6 99.1,407.6 99.1,415.6 91.1,415.6" fill="rgb(255,255,0)"/><text xml:space="preserve" x="95.1" y="414.433" font-family="Calibri" font-size="7.5" fill="rgb(0,0,0)" text-anchor="middle">3</text>
<polygon points="99.1,407.6 107.1,407.6 107.1,415.6 99.1,415.6" fill="rgb(127,230,0)"/><text xml:space="preserve" x="103.1" y="414.433" font-family="Calibri" font-size="7.5" fill="rgb(0,0,0)" text-anchor="middle">2</text>
<polygon points="107.1,407.6 115.1,407.6 115.1,415.6 107.1,415.6" fill="rgb(127,230,0)"/><text xml:space="preserve" x="111.1" y="414.433" font-family="Calibri" font-size="7.5" fill="rgb(0,0,0)" text-anchor="middle">2</text>
<polygon points="115.1,407.6 123.1,407.6 123.1,415.6 115.1,415.6" fill="rgb(127,230,0)"/><text xml:space="preserve" x="119.1" y="414.433" font-family="Calibri" font-size="7.5" fill="rgb(0,0,0)" text-anchor="middle">2</text>
<polygon points="123.1,407.6 131.1,407.6 131.1,415.6 123.1,415.6" fill="rgb(205,0,0)"/><text xml:space="preserve" x="127.1" y="414.433" font-family="Calibri" font-size="7.5" fill="rgb(255,255,255)" text-anchor="middle">5</text>
<polygon points="131.1,407.6 139.1,407.6 139.1,415.6 131.1,415.6" fill="rgb(230,127,0)"/><text xml:space="preserve" x="135.1" y="414.433" font-family="Calibri" font-size="7.5" fill="rgb(0,0,0)" text-anchor="middle">4</text>
<polygon points="139.1,407.6 147.1,407.6 147.1,415.6 139.1,415.6" fill="rgb(230,127,0)"/><text xml:space="preserve" x="143.1" y="414.433" font-family="Calibri" font-size="7.5" fill="rgb(0,0,0)" text-anchor="middle">4</text>
<polygon points="147.1,407.6 155.1,407.6 155.1,415.6 147.1,415.6" fill="rgb(255,255,0)"/><text xml:space="preserve" x="151.1" y="414.433" font-family="Calibri" font-size="7.5" fill="rgb(0,0,0)" text-anchor="middle">3</text>
<polygon points="165.1,407.6 173.1,407.6 173.1,415.6 165.1,415.6" fill="rgb(14,82,138)"/>
<polygon points="173.1,407.6 181.1,407.6 181.1,415.6 173.1,415.6" fill="rgb(12,74,137)"/>
<polygon points="181.1,407.6 189.1,407.6 189.1,415.6 181.1,415.6" fill="rgb(11,73,137)"/>
<polygon points="189.1,407.6 197.1,407.6 197.1,415.6 189.1,415.6" fill="rgb(11,71,137)"/>
<polygon points="197.1,407.6 205.1,407.6 205.1,415.6 197.1,415.6" fill="rgb(40,184,144)"/>
<polygon points="205.1,407.6 213.1,407.6 213.1,415.6 205.1,415.6" fill="rgb(36,169,143)"/>
<polygon points="213.1,407.6 221.1,407.6 221.1,415.6 213.1,415.6" fill="rgb(20,106,139)"/>
<polygon points="221.1,407.6 229.1,407.6 229.1,415.6 221.1,415.6" fill="rgb(11,71,137)"/>
<polygon points="239.1,407.6 247.1,407.6 247.1,415.6 239.1,415.6" fill="rgb(255,255,255)"/>
<polygon points="247.1,407.6 255.1,407.6 255.1,415.6 247.1,415.6" fill="rgb(255,255,255)"/>
<polygon points="255.1,407.6 263.1,407.6 263.1,415.6 255.1,415.6" fill="rgb(255,255,255)"/>
<polygon points="263.1,407.6 271.1,407.6 271.1,415.6 263.1,415.6" fill="rgb(255,255,255)"/>
<polygon points="271.1,407.6 279.1,407.6 279.1,415.6 271.1,415.6" fill="rgb(255,255,255)"/>
<polygon points="279.1,407.6 287.1,407.6 287.1,415.6 279.1,415.6" fill="rgb(255,255,255)"/>
<polygon points="287.1,407.6 295.1,407.6 295.1,415.6 287.1,415.6" fill="rgb(255,255,255)"/>
<polygon points="295.1,407.6 303.1,407.6 303.1,415.6 295.1,415.6" fill="rgb(255,255,255)"/>
<polygon points="91.1,415.6 99.1,415.6 99.1,423.6 91.1,423.6" fill="rgb(255,255,0)"/><text xml:space="preserve" x="95.1" y="422.433" font-family="Calibri" font-size="7.5" fill="rgb(0,0,0)" text-anchor="middle">3</text>
<polygon points="99.1,415.6 107.1,415.6 107.1,423.6 99.1,423.6" fill="rgb(127,230,0)"/><text xml:space="preserve" x="103.1" y="422.433" font-family="Calibri" font-size="7.5" fill="rgb(0,0,0)" text-anchor="middle">2</text>
<polygon points="107.1,415.6 115.1,415.6 115.1,423.6 107.1,423.6" fill="rgb(127,230,0)"/><text xml:space="preserve" x="111.1" y="422.433" font-family="Calibri" font-size="7.5" fill="rgb(0,0,0)" text-anchor="middle">2</text>
<polygon points="115.1,415.6 123.1,415.6 123.1,423.6 115.1,423.6" fill="rgb(127,230,0)"/><text xml:space="preserve" x="119.1" y="422.433" font-family="Calibri" font-size="7.5" fill="rgb(0,0,0)" text-anchor="middle">2</text>
<polygon points="123.1,415.6 131.1,415.6 131.1,423.6 123.1,423.6" fill="rgb(205,0,0)"/><text xml:space="preserve" x="127.1" y="422.433" font-family="Calibri" font-size="7.5" fill="rgb(255,255,255)" text-anchor="middle">5</text>
<polygon points="131.1,415.6 139.1,415.6 139.1,423.6 131.1,423.6" fill="rgb(230,127,0)"/><text xml:space="preserve" x="135.1" y="422.433" font-family="Calibri" font-size="7.5" fill="rgb(0,0,0)" text-anchor="middle">4</text>
<polygon points="139.1,415.6 147.1,415.6 147.1,423.6 139.1,423.6" fill="rgb(230,127,0)"/><text xml:space="preserve" x="143.1" y="422.433" font-family="Calibri" font-size="7.5" fill="rgb(0,0,0)" text-anchor="middle">4</text>
<polygon points="147.1,415.6 155.1,415.6 155.1,423.6 147.1,423.6" fill="rgb(255,255,0)"/><text xml:space="preserve" x="151.1" y="422.433" font-family="Calibri" font-size="7.5" fill="rgb(0,0,0)" text-anchor="middle">3</text>
<polygon points="165.1,415.6 173.1,415.6 173.1,423.6 165.1,423.6" fill="rgb(18,98,139)"/>
<polygon points="173.1,415.6 181.1,415.6 181.1,423.6 173.1,423.6" fill="rgb(9,65,137)"/>
<polygon points="181.1,415.6 189.1,415.6 189.1,423.6 181.1,423.6" fill="rgb(8,60,136)"/>
<polygon points="189.1,415.6 197.1,415.6 197.1,423.6 189.1,423.6" fill="rgb(7,57,136)"/>
<polygon points="197.1,415.6 205.1,415.6 205.1,423.6 197.1,423.6" fill="rgb(28,137,141)"/>
<polygon points="205.1,415.6 213.1,415.6 213.1,423.6 205.1,423.6" fill="rgb(25,125,140)"/>
<polygon points="213.1,415.6 221.1,415.6 221.1,423.6 213.1,423.6" fill="rgb(14,84,138)"/>
<polygon points="221.1,415.6 229.1,415.6 229.1,423.6 221.1,423.6" fill="rgb(8,60,136)"/>
<polygon points="239.1,415.6 247.1,415.6 247.1,423.6 239.1,423.6" fill="rgb(255,255,255)"/>
<polygon points="247.1,415.6 255.1,415.6 255.1,423.6 247.1,423.6" fill="rgb(255,255,255)"/>
<polygon points="255.1,415.6 263.1,415.6 263.1,423.6 255.1,423.6" fill="rgb(255,255,255)"/>
<polygon points="263.1,415.6 271.1,415.6 271.1,423.6 263.1,423.6" fill="rgb(255,255,255)"/>
<polygon points="271.1,415.6 279.1,415.6 279.1,423.6 271.1,423.6" fill="rgb(255,255,255)"/>
<polygon points="279.1,415.6 287.1,415.6 287.1,423.6 279.1,423.6" fill="rgb(255,255,255)"/>
<polygon points="287.1,415.6 295.1,415.6 295.1,423.6 287.1,423.6" fill="rgb(255,255,255)"/>
<polygon points="295.1,415.6 303.1,415.6 303.1,423.6 295.1,423.6" fill="rgb(255,255,255)"/>
<polygon points="91.1,423.6 99.1,423.6 99.1,431.6 91.1,431.6" fill="rgb(255,255,0)"/><text xml:space="preserve" x="95.1" y="430.433" font-family="Calibri" font-size="7.5" fill="rgb(0,0,0)" text-anchor="middle">3</text>
<polygon points="99.1,423.6 107.1,423.6 107.1,431.6 99.1,431.6" fill="rgb(127,230,0)"/><text xml:space="preserve" x="103.1" y="430.433" font-family="Calibri" font-size="7.5" fill="rgb(0,0,0)" text-anchor="middle">2</text>
<polygon points="107.1,423.6 115.1,423.6 115.1,431.6 107.1,431.6" fill="rgb(127,230,0)"/><text xml:space="preserve" x="111.1" y="430.433" font-family="Calibri" font-size="7.5" fill="rgb(0,0,0)" text-anchor="middle">2</text>
<polygon points="115.1,423.6 123.1,423.6 123.1,431.6 115.1,431.6" fill="rgb(127,230,0)"/><text xml:space="preserve" x="119.1" y="430.433" font-family="Calibri" font-size="7.5" fill="rgb(0,0,0)" text-anchor="middle">2</text>
<polygon points="123.1,423.6 131.1,423.6 131.1,431.6 123.1,431.6" fill="rgb(205,0,0)"/><text xml:space="preserve" x="127.1" y="430.433" font-family="Calibri" font-size="7.5" fill="rgb(255,255,255)" text-anchor="middle">5</text>
<polygon points="131.1,423.6 139.1,423.6 139.1,431.6 131.1,431.6" fill="rgb(230,127,0)"/><text xml:space="preserve" x="135.1" y="430.433" font-family="Calibri" font-size="7.5" fill="rgb(0,0,0)" text-anchor="middle">4</text>
<polygon points="139.1,423.6 147.1,423.6 147.1,431.6 139.1,431.6" fill="rgb(230,127,0)"/><text xml:space="preserve" x="143.1" y="430.433" font-family="Calibri" font-size="7.5" fill="rgb(0,0,0)" text-anchor="middle">4</text>
<polygon points="147.1,423.6 155.1,423.6 155.1,431.6 147.1,431.6" fill="rgb(255,255,0)"/><text xml:space="preserve" x="151.1" y="430.433" font-family="Calibri" font-size="7.5" fill="rgb(0,0,0)" text-anchor="middle">3</text>
<polygon points="165.1,423.6 173.1,423.6 173.1,431.6 165.1,431.6" fill="rgb(17,96,138)"/>
<polygon points="173.1,423.6 181.1,423.6 181.1,431.6 173.1,431.6" fill="rgb(11,71,137)"/>
<polygon points="181.1,423.6 189.1,423.6 189.1,431.6 181.1,431.6" fill="rgb(10,67,137)"/>
<polygon points="189.1,423.6 197.1,423.6 197.1,431.6 189.1,431.6" fill="rgb(9,64,137)"/>
<polygon points="197.1,423.6 205.1,423.6 205.1,431.6 197.1,431.6" fill="rgb(32,156,142)"/>
<polygon points="205.1,423.6 213.1,423.6 213.1,431.6 205.1,431.6" fill="rgb(28,138,141)"/>
<polygon points="213.1,423.6 221.1,423.6 221.1,431.6 213.1,431.6" fill="rgb(16,92,138)"/>
<polygon points="221.1,423.6 229.1,423.6 229.1,431.6 221.1,431.6" fill="rgb(9,62,137)"/>
<polygon points="239.1,423.6 247.1,423.6 247.1,431.6 239.1,431.6" fill="rgb(255,255,255)"/>
<polygon points="247.1,423.6 255.1,423.6 255.1,431.6 247.1,431.6" fill="rgb(255,255,255)"/>
<polygon points="255.1,423.6 263.1,423.6 263.1,431.6 255.1,431.6" fill="rgb(255,255,255)"/>
<polygon points="263.1,423.6 271.1,423.6 271.1,431.6 263.1,431.6" fill="rgb(255,255,255)"/>
<polygon points="271.1,423.6 279.1,423.6 279.1,431.6 271.1,431.6" fill="rgb(255,255,255)"/>
<polygon points="279.1,423.6 287.1,423.6 287.1,431.6 279.1,431.6" fill="rgb(255,255,255)"/>
<polygon points="287.1,423.6 295.1,423.6 295.1,431.6 287.1,431.6" fill="rgb(255,255,255)"/>
<polygon points="295.1,423.6 303.1,423.6 303.1,431.6 295.1,431.6" fill="rgb(255,255,255)"/>
<polygon points="91.1,335.6 155.1,335.6 155.1,431.6 91.1,431.6" fill="none" stroke="black" stroke-width="1"/>
<polygon points="165.1,335.6 229.1,335.6 229.1,431.6 165.1,431.6" fill="none" stroke="black" stroke-width="1"/>
<polygon points="239.1,335.6 303.1,335.6 303.1,431.6 239.1,431.6" fill="none" stroke="black" stroke-width="1"/>
<text xml:space="preserve" x="161.55" y="464.6" font-family="Calibri" font-size="8" text-anchor="middle">ClusterAssignment</text>
<polygon points="111.55,471.6 131.55,471.6 131.55,491.6 111.55,491.6" fill="rgb(0,205,0)"/><polygon points="111.55,471.6 131.55,471.6 131.55,491.6 111.55,491.6" fill="none" stroke="black" stroke-width="1"/><text xml:space="preserve" x="121.55" y="484.433" font-family="Calibri" font-size="7.5" fill="rgb(255,255,255)" text-anchor="middle">1.0</text>
<polygon points="131.55,471.6 151.55,471.6 151.55,491.6 131.55,491.6" fill="rgb(127,230,0)"/><polygon points="131.55,471.6 151.55,471.6 151.55,491.6 131.55,491.6" fill="none" stroke="black" stroke-width="1"/><text xml:space="preserve" x="141.55" y="484.433" font-family="Calibri" font-size="7.5" fill="rgb(0,0,0)" text-anchor="middle">2.0</text>
<polygon points="151.55,471.6 171.55,471.6 171.55,491.6 151.55,491.6" fill="rgb(255,255,0)"/><polygon points="151.55,471.6 171.55,471.6 171.55,491.6 151.55,491.6" fill="none" stroke="black" stroke-width="1"/><text xml:space="preserve" x="161.55" y="484.433" font-family="Calibri" font-size="7.5" fill="rgb(0,0,0)" text-anchor="middle">3.0</text>
<polygon points="171.55,471.6 191.55,471.6 191.55,491.6 171.55,491.6" fill="rgb(230,127,0)"/><polygon points="171.55,471.6 191.55,471.6 191.55,491.6 171.55,491.6" fill="none" stroke="black" stroke-width="1"/><text xml:space="preserve" x="181.55" y="484.433" font-family="Calibri" font-size="7.5" fill="rgb(0,0,0)" text-anchor="middle">4.0</text>
<polygon points="191.55,471.6 211.55,471.6 211.55,491.6 191.55,491.6" fill="rgb(205,0,0)"/><polygon points="191.55,471.6 211.55,471.6 211.55,491.6 191.55,491.6" fill="none" stroke="black" stroke-width="1"/><text xml:space="preserve" x="201.55" y="484.433" font-family="Calibri" font-size="7.5" fill="rgb(255,255,255)" text-anchor="middle">5.0</text>
<text xml:space="preserve" x="161.55" y="524.6" font-family="Calibri" font-size="8" text-anchor="middle">Expression</text>
<polygon points="111.55,531.6 131.55,531.6 131.55,551.6 111.55,551.6" fill="rgb(0,27,135)"/><polygon points="111.55,531.6 131.55,531.6 131.55,551.6 111.55,551.6" fill="none" stroke="black" stroke-width="1"/><text xml:space="preserve" x="121.55" y="544.433" font-family="Calibri" font-size="7.5" fill="rgb(255,255,255)" text-anchor="middle">0.0</text>
<polygon points="131.55,531.6 151.55,531.6 151.55,551.6 131.55,551.6" fill="rgb(24,123,140)"/><polygon points="131.55,531.6 151.55,531.6 151.55,551.6 131.55,551.6" fill="none" stroke="black" stroke-width="1"/><text xml:space="preserve" x="141.55" y="544.433" font-family="Calibri" font-size="7.5" fill="rgb(255,255,255)" text-anchor="middle">0.8</text>
<polygon points="151.55,531.6 171.55,531.6 171.55,551.6 151.55,551.6" fill="rgb(49,219,146)"/><polygon points="151.55,531.6 171.55,531.6 171.55,551.6 151.55,551.6" fill="none" stroke="black" stroke-width="1"/><text xml:space="preserve" x="161.55" y="544.433" font-family="Calibri" font-size="7.5" fill="rgb(0,0,0)" text-anchor="middle">1.5</text>
<polygon points="171.55,531.6 191.55,531.6 191.55,551.6 171.55,551.6" fill="rgb(150,206,73)"/><polygon points="171.55,531.6 191.55,531.6 191.55,551.6 171.55,551.6" fill="none" stroke="black" stroke-width="1"/><text xml:space="preserve" x="181.55" y="544.433" font-family="Calibri" font-size="7.5" fill="rgb(0,0,0)" text-anchor="middle">2.2</text>
<polygon points="191.55,531.6 211.55,531.6 211.55,551.6 191.55,551.6" fill="rgb(252,194,1)"/><polygon points="191.55,531.6 211.55,531.6 211.55,551.6 191.55,551.6" fill="none" stroke="black" stroke-width="1"/><text xml:space="preserve" x="201.55" y="544.433" font-family="Calibri" font-size="7.5" fill="rgb(0,0,0)" text-anchor="middle">3.0</text>
<text xml:space="preserve" x="161.55" y="584.6" font-family="Calibri" font-size="8" text-anchor="middle">PANTHERclass</text>
<polygon points="111.55,591.6 131.55,591.6 131.55,611.6 111.55,611.6" fill="rgb(255,255,255)"/><polygon points="111.55,591.6 131.55,591.6 131.55,611.6 111.55,611.6" fill="none" stroke="black" stroke-width="1"/><text xml:space="preserve" x="121.55" y="604.433" font-family="Calibri" font-size="7.5" fill="rgb(0,0,0)" text-anchor="middle">0.0</text>
<polygon points="131.55,591.6 151.55,591.6 151.55,611.6 131.55,611.6" fill="rgb(242,191,242)"/><polygon points="131.55,591.6 151.55,591.6 151.55,611.6 131.55,611.6" fill="none" stroke="black" stroke-width="1"/><text xml:space="preserve" x="141.55" y="604.433" font-family="Calibri" font-size="7.5" fill="rgb(0,0,0)" text-anchor="middle">0.2</text>
<polygon points="151.55,591.6 171.55,591.6 171.55,611.6 151.55,611.6" fill="rgb(230,127,230)"/><polygon points="151.55,591.6 171.55,591.6 171.55,611.6 151.55,611.6" fill="none" stroke="black" stroke-width="1"/><text xml:space="preserve" x="161.55" y="604.433" font-family="Calibri" font-size="7.5" fill="rgb(0,0,0)" text-anchor="middle">0.5</text>
<polygon points="171.55,591.6 191.55,591.6 191.55,611.6 171.55,611.6" fill="rgb(217,63,217)"/><polygon points="171.55,591.6 191.55,591.6 191.55,611.6 171.55,611.6" fill="none" stroke="black" stroke-width="1"/><text xml:space="preserve" x="181.55" y="604.433" font-family="Calibri" font-size="7.5" fill="rgb(255,255,255)" text-anchor="middle">0.8</text>
<polygon points="191.55,591.6 211.55,591.6 211.55,611.6 191.55,611.6" fill="rgb(205,0,205)"/><polygon points="191.55,591.6 211.55,591.6 211.55,611.6 191.55,611.6" fill="none" stroke="black" stroke-width="1"/><text xml:space="preserve" x="201.55" y="604.433" font-family="Calibri" font-size="7.5" fill="rgb(255,255,255)" text-anchor="middle">1.0</text>
</svg>
