<?xml version="1.0" standalone="no"?><!DOCTYPE svg PUBLIC "-//W3C//DTD SVG 1.1//EN" "http://www.w3.org/Graphics/SVG/1.1/DTD/svg11.dtd">
<svg width="359.4" height="583.6" version="1.1" xmlns="http://www.w3.org/2000/svg">
<text xml:space="preserve" x="123.4" y="342.6" font-family="Calibri" font-size="8" text-anchor="end">AC010931.2</text>
<text xml:space="preserve" x="123.4" y="350.6" font-family="Calibri" font-size="8" text-anchor="end">DMBX1</text>
<text xml:space="preserve" x="123.4" y="358.6" font-family="Calibri" font-size="8" text-anchor="end">LAMP5</text>
<text xml:space="preserve" x="123.4" y="366.6" font-family="Calibri" font-size="8" text-anchor="end">PRAG1</text>
<text xml:space="preserve" x="123.4" y="374.6" font-family="Calibri" font-size="8" text-anchor="end">AL512380.1</text>
<text xml:space="preserve" x="123.4" y="382.6" font-family="Calibri" font-size="8" text-anchor="end">INHBA-AS1</text>
<text xml:space="preserve" x="134.4" y="331.6" font-family="Calibri" font-size="8" transform="rotate(270 134.4 331.6)">c2</text>
<text xml:space="preserve" x="142.4" y="331.6" font-family="Calibri" font-size="8" transform="rotate(270 142.4 331.6)">c3</text>
<text xml:space="preserve" x="150.4" y="331.6" font-family="Calibri" font-size="8" transform="rotate(270 150.4 331.6)">c6</text>
<text xml:space="preserve" x="158.4" y="331.6" font-family="Calibri" font-size="8" transform="rotate(270 158.4 331.6)">c4</text>
<text xml:space="preserve" x="166.4" y="331.6" font-family="Calibri" font-size="8" transform="rotate(270 166.4 331.6)">c1</text>
<text xml:space="preserve" x="174.4" y="331.6" font-family="Calibri" font-size="8" transform="rotate(270 174.4 331.6)">c5</text>
<text xml:space="preserve" x="182.4" y="331.6" font-family="Calibri" font-size="8" transform="rotate(270 182.4 331.6)">c7</text>
<text xml:space="preserve" x="190.4" y="331.6" font-family="Calibri" font-size="8" transform="rotate(270 190.4 331.6)">c8</text>
<text xml:space="preserve" x="208.4" y="331.6" font-family="Calibri" font-size="8" transform="rotate(270 208.4 331.6)">c2_mean</text>
<text xml:space="preserve" x="216.4" y="331.6" font-family="Calibri" font-size="8" transform="rotate(270 216.4 331.6)">c3_mean</text>
<text xml:space="preserve" x="224.4" y="331.6" font-family="Calibri" font-size="8" transform="rotate(270 224.4 331.6)">c6_mean</text>
<text xml:space="preserve" x="232.4" y="331.6" font-family="Calibri" font-size="8" transform="rotate(270 232.4 331.6)">c4_mean</text>
<text xml:space="preserve" x="240.4" y="331.6" font-family="Calibri" font-size="8" transform="rotate(270 240.4 331.6)">c1_mean</text>
<text xml:space="preserve" x="248.4" y="331.6" font-family="Calibri" font-size="8" transform="rotate(270 248.4 331.6)">c5_mean</text>
<text xml:space="preserve" x="256.4" y="331.6" font-family="Calibri" font-size="8" transform="rotate(270 256.4 331.6)">c7_mean</text>
<text xml:space="preserve" x="264.4" y="331.6" font-family="Calibri" font-size="8" transform="rotate(270 264.4 331.6)">c8_mean</text>
<text xml:space="preserve" x="282.4" y="331.6" font-family="Calibri" font-size="8" transform="rotate(270 282.4 331.6)">transcription_factor</text>
<text xml:space="preserve" x="290.4" y="331.6" font-family="Calibri" font-size="8" transform="rotate(270 290.4 331.6)">transmembrane_signal_receptor</text>
<text xml:space="preserve" x="298.4" y="331.6" font-family="Calibri" font-size="8" transform="rotate(270 298.4 331.6)">growth_factor</text>
<text xml:space="preserve" x="306.4" y="331.6" font-family="Calibri" font-size="8" transform="rotate(270 306.4 331.6)">peptide_hormone</text>
<text xml:space="preserve" x="314.4" y="331.6" font-family="Calibri" font-size="8" transform="rotate(270 314.4 331.6)">cytoskeletal_protein</text>
<text xml:space="preserve" x="322.4" y="331.6" font-family="Calibri" font-size="8" transform="rotate(270 322.4 331.6)">ion_channel</text>
<text xml:space="preserve" x="330.4" y="331.6" font-family="Calibri" font-size="8" transform="rotate(270 330.4 331.6)">integrin</text>
<text xml:space="preserve" x="338.4" y="331.6" font-family="Calibri" font-size="8" transform="rotate(270 338.4 331.6)">extracellular_matrix_protein</text>
<polygon points="127.4,335.6 135.4,335.6 135.4,343.6 127.4,343.6" fill="rgb(0,205,0)"/><text xml:space="preserve" x="131.4" y="342.433" font-family="Calibri" font-size="7.5" fill="rgb(255,255,255)" text-anchor="middle">1</text>
<polygon points="135.4,335.6 143.4,335.6 143.4,343.6 135.4,343.6" fill="rgb(0,205,0)"/><text xml:space="preserve" x="139.4" y="342.433" font-family="Calibri" font-size="7.5" fill="rgb(255,255,255)" text-anchor="middle">1</text>
<polygon points="143.4,335.6 151.4,335.6 151.4,343.6 143.4,343.6" fill="rgb(0,205,0)"/><text xml:space="preserve" x="147.4" y="342.433" font-family="Calibri" font-size="7.5" fill="rgb(255,255,255)" text-anchor="middle">1</text>
<polygon points="151.4,335.6 159.4,335.6 159.4,343.6 151.4,343.6" fill="rgb(230,127,0)"/><text xml:space="preserve" x="155.4" y="342.433" font-family="Calibri" font-size="7.5" fill="rgb(0,0,0)" text-anchor="middle">4</text>
<polygon points="159.4,335.6 167.4,335.6 167.4,343.6 159.4,343.6" fill="rgb(230,127,0)"/><text xml:space="preserve" x="163.4" y="342.433" font-family="Calibri" font-size="7.5" fill="rgb(0,0,0)" text-anchor="middle">4</text>
<polygon points="167.4,335.6 175.4,335.6 175.4,343.6 167.4,343.6" fill="rgb(0,205,0)"/><text xml:space="preserve" x="171.4" y="342.433" font-family="Calibri" font-size="7.5" fill="rgb(255,255,255)" text-anchor="middle">1</text>
<polygon points="175.4,335.6 183.4,335.6 183.4,343.6 175.4,343.6" fill="rgb(0,205,0)"/><text xml:space="preserve" x="179.4" y="342.433" font-family="Calibri" font-size="7.5" fill="rgb(255,255,255)" text-anchor="middle">1</text>
<polygon points="183.4,335.6 191.4,335.6 191.4,343.6 183.4,343.6" fill="rgb(0,205,0)"/><text xml:space="preserve" x="187.4" y="342.433" font-family="Calibri" font-size="7.5" fill="rgb(255,255,255)" text-anchor="middle">1</text>
<polygon points="201.4,335.6 209.4,335.6 209.4,343.6 201.4,343.6" fill="rgb(5,48,136)"/>
<polygon points="209.4,335.6 217.4,335.6 217.4,343.6 209.4,343.6" fill="rgb(5,47,136)"/>
<polygon points="217.4,335.6 225.4,335.6 225.4,343.6 217.4,343.6" fill="rgb(2,35,135)"/>
<polygon points="225.4,335.6 233.4,335.6 233.4,343.6 225.4,343.6" fill="rgb(20,107,139)"/>
<polygon points="233.4,335.6 241.4,335.6 241.4,343.6 233.4,343.6" fill="rgb(28,138,141)"/>
<polygon points="241.4,335.6 249.4,335.6 249.4,343.6 241.4,343.6" fill="rgb(0,28,135)"/>
<polygon points="249.4,335.6 257.4,335.6 257.4,343.6 249.4,343.6" fill="rgb(0,28,135)"/>
<polygon points="257.4,335.6 265.4,335.6 265.4,343.6 257.4,343.6" fill="rgb(0,29,135)"/>
<polygon points="275.4,335.6 283.4,335.6 283.4,343.6 275.4,343.6" fill="rgb(255,255,255)"/>
<polygon points="283.4,335.6 291.4,335.6 291.4,343.6 283.4,343.6" fill="rgb(255,255,255)"/>
<polygon points="291.4,335.6 299.4,335.6 299.4,343.6 291.4,343.6" fill="rgb(255,255,255)"/>
<polygon points="299.4,335.6 307.4,335.6 307.4,343.6 299.4,343.6" fill="rgb(255,255,255)"/>
<polygon points="307.4,335.6 315.4,335.6 315.4,343.6 307.4,343.6" fill="rgb(255,255,255)"/>
<polygon points="315.4,335.6 323.4,335.6 323.4,343.6 315.4,343.6" fill="rgb(255,255,255)"/>
<polygon points="323.4,335.6 331.4,335.6 331.4,343.6 323.4,343.6" fill="rgb(255,255,255)"/>
<polygon points="331.4,335.6 339.4,335.6 339.4,343.6 331.4,343.6" fill="rgb(255,255,255)"/>
<polygon points="127.4,343.6 135.4,343.6 135.4,351.6 127.4,351.6" fill="rgb(0,205,0)"/><text xml:space="preserve" x="131.4" y="350.433" font-family="Calibri" font-size="7.5" fill="rgb(255,255,255)" text-anchor="middle">1</text>
<polygon points="135.4,343.6 143.4,343.6 143.4,351.6 135.4,351.6" fill="rgb(0,205,0)"/><text xml:space="preserve" x="139.4" y="350.433" font-family="Calibri" font-size="7.5" fill="rgb(255,255,255)" text-anchor="middle">1</text>
<polygon points="143.4,343.6 151.4,343.6 151.4,351.6 143.4,351.6" fill="rgb(0,205,0)"/><text xml:space="preserve" x="147.4" y="350.433" font-family="Calibri" font-size="7.5" fill="rgb(255,255,255)" text-anchor="middle">1</text>
<polygon points="151.4,343.6 159.4,343.6 159.4,351.6 151.4,351.6" fill="rgb(230,127,0)"/><text xml:space="preserve" x="155.4" y="350.433" font-family="Calibri" font-size="7.5" fill="rgb(0,0,0)" text-anchor="middle">4</text>
<polygon points="159.4,343.6 167.4,343.6 167.4,351.6 159.4,351.6" fill="rgb(230,127,0)"/><text xml:space="preserve" x="163.4" y="350.433" font-family="Calibri" font-size="7.5" fill="rgb(0,0,0)" text-anchor="middle">4</text>
<polygon points="167.4,343.6 175.4,343.6 175.4,351.6 167.4,351.6" fill="rgb(0,205,0)"/><text xml:space="preserve" x="171.4" y="350.433" font-family="Calibri" font-size="7.5" fill="rgb(255,255,255)" text-anchor="middle">1</text>
<polygon points="175.4,343.6 183.4,343.6 183.4,351.6 175.4,351.6" fill="rgb(0,205,0)"/><text xml:space="preserve" x="179.4" y="350.433" font-family="Calibri" font-size="7.5" fill="rgb(255,255,255)" text-anchor="middle">1</text>
<polygon points="183.4,343.6 191.4,343.6 191.4,351.6 183.4,351.6" fill="rgb(0,205,0)"/><text xml:space="preserve" x="187.4" y="350.433" font-family="Calibri" font-size="7.5" fill="rgb(255,255,255)" text-anchor="middle">1</text>
<polygon points="201.4,343.6 209.4,343.6 209.4,351.6 201.4,351.6" fill="rgb(7,56,136)"/>
<polygon points="209.4,343.6 217.4,343.6 217.4,351.6 209.4,351.6" fill="rgb(4,43,135)"/>
<polygon points="217.4,343.6 225.4,343.6 225.4,351.6 217.4,351.6" fill="rgb(0,29,135)"/>
<polygon points="225.4,343.6 233.4,343.6 233.4,351.6 225.4,351.6" fill="rgb(37,172,143)"/>
<polygon points="233.4,343.6 241.4,343.6 241.4,351.6 233.4,351.6" fill="rgb(20,107,139)"/>
<polygon points="241.4,343.6 249.4,343.6 249.4,351.6 241.4,351.6" fill="rgb(0,27,135)"/>
<polygon points="249.4,343.6 257.4,343.6 257.4,351.6 249.4,351.6" fill="rgb(0,27,135)"/>
<polygon points="257.4,343.6 265.4,343.6 265.4,351.6 257.4,351.6" fill="rgb(0,29,135)"/>
<polygon points="275.4,343.6 283.4,343.6 283.4,351.6 275.4,351.6" fill="rgb(205,0,205)"/>
<polygon points="283.4,343.6 291.4,343.6 291.4,351.6 283.4,351.6" fill="rgb(255,255,255)"/>
<polygon points="291.4,343.6 299.4,343.6 299.4,351.6 291.4,351.6" fill="rgb(255,255,255)"/>
<polygon points="299.4,343.6 307.4,343.6 307.4,351.6 299.4,351.6" fill="rgb(255,255,255)"/>
<polygon points="307.4,343.6 315.4,343.6 315.4,351.6 307.4,351.6" fill="rgb(255,255,255)"/>
<polygon points="315.4,343.6 323.4,343.6 323.4,351.6 315.4,351.6" fill="rgb(255,255,255)"/>
<polygon points="323.4,343.6 331.4,343.6 331.4,351.6 323.4,351.6" fill="rgb(255,255,255)"/>
<polygon points="331.4,343.6 339.4,343.6 339.4,351.6 331.4,351.6" fill="rgb(255,255,255)"/>
<polygon points="127.4,351.6 135.4,351.6 135.4,359.6 127.4,359.6" fill="rgb(0,205,0)"/><text xml:space="preserve" x="131.4" y="358.433" font-family="Calibri" font-size="7.5" fill="rgb(255,255,255)" text-anchor="middle">1</text>
<polygon points="135.4,351.6 143.4,351.6 143.4,359.6 135.4,359.6" fill="rgb(0,205,0)"/><text xml:space="preserve" x="139.4" y="358.433" font-family="Calibri" font-size="7.5" fill="rgb(255,255,255)" text-anchor="middle">1</text>
<polygon points="143.4,351.6 151.4,351.6 151.4,359.6 143.4,359.6" fill="rgb(0,205,0)"/><text xml:space="preserve" x="147.4" y="358.433" font-family="Calibri" font-size="7.5" fill="rgb(255,255,255)" text-anchor="middle">1</text>
<polygon points="151.4,351.6 159.4,351.6 159.4,359.6 151.4,359.6" fill="rgb(230,127,0)"/><text xml:space="preserve" x="155.4" y="358.433" font-family="Calibri" font-size="7.5" fill="rgb(0,0,0)" text-anchor="middle">4</text>
<polygon points="159.4,351.6 167.4,351.6 167.4,359.6 159.4,359.6" fill="rgb(230,127,0)"/><text xml:space="preserve" x="163.4" y="358.433" font-family="Calibri" font-size="7.5" fill="rgb(0,0,0)" text-anchor="middle">4</text>
<polygon points="167.4,351.6 175.4,351.6 175.4,359.6 167.4,359.6" fill="rgb(0,205,0)"/><text xml:space="preserve" x="171.4" y="358.433" font-family="Calibri" font-size="7.5" fill="rgb(255,255,255)" text-anchor="middle">1</text>
<polygon points="175.4,351.6 183.4,351.6 183.4,359.6 175.4,359.6" fill="rgb(0,205,0)"/><text xml:space="preserve" x="179.4" y="358.433" font-family="Calibri" font-size="7.5" fill="rgb(255,255,255)" text-anchor="middle">1</text>
<polygon points="183.4,351.6 191.4,351.6 191.4,359.6 183.4,359.6" fill="rgb(0,205,0)"/><text xml:space="preserve" x="187.4" y="358.433" font-family="Calibri" font-size="7.5" fill="rgb(255,255,255)" text-anchor="middle">1</text>
<polygon points="201.4,351.6 209.4,351.6 209.4,359.6 201.4,359.6" fill="rgb(9,65,137)"/>
<polygon points="209.4,351.6 217.4,351.6 217.4,359.6 209.4,359.6" fill="rgb(5,47,136)"/>
<polygon points="217.4,351.6 225.4,351.6 225.4,359.6 217.4,359.6" fill="rgb(0,30,135)"/>
<polygon points="225.4,351.6 233.4,351.6 233.4,359.6 225.4,359.6" fill="rgb(27,135,141)"/>
<polygon points="233.4,351.6 241.4,351.6 241.4,359.6 233.4,359.6" fill="rgb(25,128,140)"/>
<polygon points="241.4,351.6 249.4,351.6 249.4,359.6 241.4,359.6" fill="rgb(5,48,136)"/>
<polygon points="249.4,351.6 257.4,351.6 257.4,359.6 249.4,359.6" fill="rgb(6,52,136)"/>
<polygon points="257.4,351.6 265.4,351.6 265.4,359.6 257.4,359.6" fill="rgb(4,44,136)"/>
<polygon points="275.4,351.6 283.4,351.6 283.4,359.6 275.4,359.6" fill="rgb(255,255,255)"/>
<polygon points="283.4,351.6 291.4,351.6 291.4,359.6 283.4,359.6" fill="rgb(255,255,255)"/>
<polygon points="291.4,351.6 299.4,351.6 299.4,359.6 291.4,359.6" fill="rgb(255,255,255)"/>
<polygon points="299.4,351.6 307.4,351.6 307.4,359.6 299.4,359.6" fill="rgb(255,255,255)"/>
<polygon points="307.4,351.6 315.4,351.6 315.4,359.6 307.4,359.6" fill="rgb(255,255,255)"/>
<polygon points="315.4,351.6 323.4,351.6 323.4,359.6 315.4,359.6" fill="rgb(255,255,255)"/>
<polygon points="323.4,351.6 331.4,351.6 331.4,359.6 323.4,359.6" fill="rgb(255,255,255)"/>
<polygon points="331.4,351.6 339.4,351.6 339.4,359.6 331.4,359.6" fill="rgb(255,255,255)"/>
<polygon points="127.4,359.6 135.4,359.6 135.4,367.6 127.4,367.6" fill="rgb(0,205,0)"/><text xml:space="preserve" x="131.4" y="366.433" font-family="Calibri" font-size="7.5" fill="rgb(255,255,255)" text-anchor="middle">1</text>
<polygon points="135.4,359.6 143.4,359.6 143.4,367.6 135.4,367.6" fill="rgb(0,205,0)"/><text xml:space="preserve" x="139.4" y="366.433" font-family="Calibri" font-size="7.5" fill="rgb(255,255,255)" text-anchor="middle">1</text>
<polygon points="143.4,359.6 151.4,359.6 151.4,367.6 143.4,367.6" fill="rgb(0,205,0)"/><text xml:space="preserve" x="147.4" y="366.433" font-family="Calibri" font-size="7.5" fill="rgb(255,255,255)" text-anchor="middle">1</text>
<polygon points="151.4,359.6 159.4,359.6 159.4,367.6 151.4,367.6" fill="rgb(230,127,0)"/><text xml:space="preserve" x="155.4" y="366.433" font-family="Calibri" font-size="7.5" fill="rgb(0,0,0)" text-anchor="middle">4</text>
<polygon points="159.4,359.6 167.4,359.6 167.4,367.6 159.4,367.6" fill="rgb(230,127,0)"/><text xml:space="preserve" x="163.4" y="366.433" font-family="Calibri" font-size="7.5" fill="rgb(0,0,0)" text-anchor="middle">4</text>
<polygon points="167.4,359.6 175.4,359.6 175.4,367.6 167.4,367.6" fill="rgb(0,205,0)"/><text xml:space="preserve" x="171.4" y="366.433" font-family="Calibri" font-size="7.5" fill="rgb(255,255,255)" text-anchor="middle">1</text>
<polygon points="175.4,359.6 183.4,359.6 183.4,367.6 175.4,367.6" fill="rgb(0,205,0)"/><text xml:space="preserve" x="179.4" y="366.433" font-family="Calibri" font-size="7.5" fill="rgb(255,255,255)" text-anchor="middle">1</text>
<polygon points="183.4,359.6 191.4,359.6 191.4,367.6 183.4,367.6" fill="rgb(0,205,0)"/><text xml:space="preserve" x="187.4" y="366.433" font-family="Calibri" font-size="7.5" fill="rgb(255,255,255)" text-anchor="middle">1</text>
<polygon points="201.4,359.6 209.4,359.6 209.4,367.6 201.4,367.6" fill="rgb(9,62,137)"/>
<polygon points="209.4,359.6 217.4,359.6 217.4,367.6 209.4,367.6" fill="rgb(6,53,136)"/>
<polygon points="217.4,359.6 225.4,359.6 225.4,367.6 217.4,367.6" fill="rgb(6,52,136)"/>
<polygon points="225.4,359.6 233.4,359.6 233.4,367.6 225.4,367.6" fill="rgb(25,126,140)"/>
<polygon points="233.4,359.6 241.4,359.6 241.4,367.6 233.4,367.6" fill="rgb(19,105,139)"/>
<polygon points="241.4,359.6 249.4,359.6 249.4,367.6 241.4,367.6" fill="rgb(2,38,135)"/>
<polygon points="249.4,359.6 257.4,359.6 257.4,367.6 249.4,367.6" fill="rgb(3,41,135)"/>
<polygon points="257.4,359.6 265.4,359.6 265.4,367.6 257.4,367.6" fill="rgb(5,48,136)"/>
<polygon points="275.4,359.6 283.4,359.6 283.4,367.6 275.4,367.6" fill="rgb(255,255,255)"/>
<polygon points="283.4,359.6 291.4,359.6 291.4,367.6 283.4,367.6" fill="rgb(255,255,255)"/>
<polygon points="291.4,359.6 299.4,359.6 299.4,367.6 291.4,367.6" fill="rgb(255,255,255)"/>
<polygon points="299.4,359.6 307.4,359.6 307.4,367.6 299.4,367.6" fill="rgb(255,255,255)"/>
<polygon points="307.4,359.6 315.4,359.6 315.4,367.6 307.4,367.6" fill="rgb(255,255,255)"/>
<polygon points="315.4,359.6 323.4,359.6 323.4,367.6 315.4,367.6" fill="rgb(255,255,255)"/>
<polygon points="323.4,359.6 331.4,359.6 331.4,367.6 323.4,367.6" fill="rgb(255,255,255)"/>
<polygon points="331.4,359.6 339.4,359.6 339.4,367.6 331.4,367.6" fill="rgb(255,255,255)"/>
<polygon points="127.4,367.6 135.4,367.6 135.4,375.6 127.4,375.6" fill="rgb(0,205,0)"/><text xml:space="preserve" x="131.4" y="374.433" font-family="Calibri" font-size="7.5" fill="rgb(255,255,255)" text-anchor="middle">1</text>
<polygon points="135.4,367.6 143.4,367.6 143.4,375.6 135.4,375.6" fill="rgb(0,205,0)"/><text xml:space="preserve" x="139.4" y="374.433" font-family="Calibri" font-size="7.5" fill="rgb(255,255,255)" text-anchor="middle">1</text>
<polygon points="143.4,367.6 151.4,367.6 151.4,375.6 143.4,375.6" fill="rgb(0,205,0)"/><text xml:space="preserve" x="147.4" y="374.433" font-family="Calibri" font-size="7.5" fill="rgb(255,255,255)" text-anchor="middle">1</text>
<polygon points="151.4,367.6 159.4,367.6 159.4,375.6 151.4,375.6" fill="rgb(230,127,0)"/><text xml:space="preserve" x="155.4" y="374.433" font-family="Calibri" font-size="7.5" fill="rgb(0,0,0)" text-anchor="middle">4</text>
<polygon points="159.4,367.6 167.4,367.6 167.4,375.6 159.4,375.6" fill="rgb(230,127,0)"/><text xml:space="preserve" x="163.4" y="374.433" font-family="Calibri" font-size="7.5" fill="rgb(0,0,0)" text-anchor="middle">4</text>
<polygon points="167.4,367.6 175.4,367.6 175.4,375.6 167.4,375.6" fill="rgb(0,205,0)"/><text xml:space="preserve" x="171.4" y="374.433" font-family="Calibri" font-size="7.5" fill="rgb(255,255,255)" text-anchor="middle">1</text>
<polygon points="175.4,367.6 183.4,367.6 183.4,375.6 175.4,375.6" fill="rgb(0,205,0)"/><text xml:space="preserve" x="179.4" y="374.433" font-family="Calibri" font-size="7.5" fill="rgb(255,255,255)" text-anchor="middle">1</text>
<polygon points="183.4,367.6 191.4,367.6 191.4,375.6 183.4,375.6" fill="rgb(0,205,0)"/><text xml:space="preserve" x="187.4" y="374.433" font-family="Calibri" font-size="7.5" fill="rgb(255,255,255)" text-anchor="middle">1</text>
<polygon points="201.4,367.6 209.4,367.6 209.4,375.6 201.4,375.6" fill="rgb(11,70,137)"/>
<polygon points="209.4,367.6 217.4,367.6 217.4,375.6 209.4,375.6" fill="rgb(2,37,135)"/>
<polygon points="217.4,367.6 225.4,367.6 225.4,375.6 217.4,375.6" fill="rgb(0,30,135)"/>
<polygon points="225.4,367.6 233.4,367.6 233.4,375.6 225.4,375.6" fill="rgb(28,139,141)"/>
<polygon points="233.4,367.6 241.4,367.6 241.4,375.6 233.4,375.6" fill="rgb(17,96,138)"/>
<polygon points="241.4,367.6 249.4,367.6 249.4,375.6 241.4,375.6" fill="rgb(4,44,136)"/>
<polygon points="249.4,367.6 257.4,367.6 257.4,375.6 249.4,375.6" fill="rgb(8,59,136)"/>
<polygon points="257.4,367.6 265.4,367.6 265.4,375.6 257.4,375.6" fill="rgb(10,67,137)"/>
<polygon points="275.4,367.6 283.4,367.6 283.4,375.6 275.4,375.6" fill="rgb(255,255,255)"/>
<polygon points="283.4,367.6 291.4,367.6 291.4,375.6 283.4,375.6" fill="rgb(255,255,255)"/>
<polygon points="291.4,367.6 299.4,367.6 299.4,375.6 291.4,375.6" fill="rgb(255,255,255)"/>
<polygon points="299.4,367.6 307.4,367.6 307.4,375.6 299.4,375.6" fill="rgb(255,255,255)"/>
<polygon points="307.4,367.6 315.4,367.6 315.4,375.6 307.4,375.6" fill="rgb(255,255,255)"/>
<polygon points="315.4,367.6 323.4,367.6 323.4,375.6 315.4,375.6" fill="rgb(255,255,255)"/>
<polygon points="323.4,367.6 331.4,367.6 331.4,375.6 323.4,375.6" fill="rgb(255,255,255)"/>
<polygon points="331.4,367.6 339.4,367.6 339.4,375.6 331.4,375.6" fill="rgb(255,255,255)"/>
<polygon points="127.4,375.6 135.4,375.6 135.4,383.6 127.4,383.6" fill="rgb(0,205,0)"/><text xml:space="preserve" x="131.4" y="382.433" font-family="Calibri" font-size="7.5" fill="rgb(255,255,255)" text-anchor="middle">1</text>
<polygon points="135.4,375.6 143.4,375.6 143.4,383.6 135.4,383.6" fill="rgb(0,205,0)"/><text xml:space="preserve" x="139.4" y="382.433" font-family="Calibri" font-size="7.5" fill="rgb(255,255,255)" text-anchor="middle">1</text>
<polygon points="143.4,375.6 151.4,375.6 151.4,383.6 143.4,383.6" fill="rgb(0,205,0)"/><text xml:space="preserve" x="147.4" y="382.433" font-family="Calibri" font-size="7.5" fill="rgb(255,255,255)" text-anchor="middle">1</text>
<polygon points="151.4,375.6 159.4,375.6 159.4,383.6 151.4,383.6" fill="rgb(230,127,0)"/><text xml:space="preserve" x="155.4" y="382.433" font-family="Calibri" font-size="7.5" fill="rgb(0,0,0)" text-anchor="middle">4</text>
<polygon points="159.4,375.6 167.4,375.6 167.4,383.6 159.4,383.6" fill="rgb(230,127,0)"/><text xml:space="preserve" x="163.4" y="382.433" font-family="Calibri" font-size="7.5" fill="rgb(0,0,0)" text-anchor="middle">4</text>
<polygon points="167.4,375.6 175.4,375.6 175.4,383.6 167.4,383.6" fill="rgb(0,205,0)"/><text xml:space="preserve" x="171.4" y="382.433" font-family="Calibri" font-size="7.5" fill="rgb(255,255,255)" text-anchor="middle">1</text>
<polygon points="175.4,375.6 183.4,375.6 183.4,383.6 175.4,383.6" fill="rgb(0,205,0)"/><text xml:space="preserve" x="179.4" y="382.433" font-family="Calibri" font-size="7.5" fill="rgb(255,255,255)" text-anchor="middle">1</text>
<polygon points="183.4,375.6 191.4,375.6 191.4,383.6 183.4,383.6" fill="rgb(0,205,0)"/><text xml:space="preserve" x="187.4" y="382.433" font-family="Calibri" font-size="7.5" fill="rgb(255,255,255)" text-anchor="middle">1</text>
<polygon points="201.4,375.6 209.4,375.6 209.4,383.6 201.4,383.6" fill="rgb(16,89,138)"/>
<polygon points="209.4,375.6 217.4,375.6 217.4,383.6 209.4,383.6" fill="rgb(3,39,135)"/>
<polygon points="217.4,375.6 225.4,375.6 225.4,383.6 217.4,383.6" fill="rgb(0,28,135)"/>
<polygon points="225.4,375.6 233.4,375.6 233.4,383.6 225.4,383.6" fill="rgb(27,134,141)"/>
<polygon points="233.4,375.6 241.4,375.6 241.4,383.6 233.4,383.6" fill="rgb(22,115,140)"/>
<polygon points="241.4,375.6 249.4,375.6 249.4,383.6 241.4,383.6" fill="rgb(2,37,135)"/>
<polygon points="249.4,375.6 257.4,375.6 257.4,383.6 249.4,383.6" fill="rgb(0,28,135)"/>
<polygon points="257.4,375.6 265.4,375.6 265.4,383.6 257.4,383.6" fill="rgb(0,29,135)"/>
<polygon points="275.4,375.6 283.4,375.6 283.4,383.6 275.4,383.6" fill="rgb(255,255,255)"/>
<polygon points="283.4,375.6 291.4,375.6 291.4,383.6 283.4,383.6" fill="rgb(255,255,255)"/>
<polygon points="291.4,375.6 299.4,375.6 299.4,383.6 291.4,383.6" fill="rgb(255,255,255)"/>
<polygon points="299.4,375.6 307.4,375.6 307.4,383.6 299.4,383.6" fill="rgb(255,255,255)"/>
<polygon points="307.4,375.6 315.4,375.6 315.4,383.6 307.4,383.6" fill="rgb(255,255,255)"/>
<polygon points="315.4,375.6 323.4,375.6 323.4,383.6 315.4,383.6" fill="rgb(255,255,255)"/>
<polygon points="323.4,375.6 331.4,375.6 331.4,383.6 323.4,383.6" fill="rgb(255,255,255)"/>
<polygon points="331.4,375.6 339.4,375.6 339.4,383.6 331.4,383.6" fill="rgb(255,255,255)"/>
<polygon points="127.4,335.6 191.4,335.6 191.4,383.6 127.4,383.6" fill="none" stroke="black" stroke-width="1"/>
<polygon points="201.4,335.6 265.4,335.6 265.4,383.6 201.4,383.6" fill="none" stroke="black" stroke-width="1"/>
<polygon points="275.4,335.6 339.4,335.6 339.4,383.6 275.4,383.6" fill="none" stroke="black" stroke-width="1"/>
<text xml:space="preserve" x="179.7" y="416.6" font-family="Calibri" font-size="8" text-anchor="middle">ClusterAssignment</text>
<polygon points="129.7,423.6 149.7,423.6 149.7,443.6 129.7,443.6" fill="rgb(0,205,0)"/><polygon points="129.7,423.6 149.7,423.6 149.7,443.6 129.7,443.6" fill="none" stroke="black" stroke-width="1"/><text xml:space="preserve" x="139.7" y="436.433" font-family="Calibri" font-size="7.5" fill="rgb(255,255,255)" text-anchor="middle">1.0</text>
<polygon points="149.7,423.6 169.7,423.6 169.7,443.6 149.7,443.6" fill="rgb(127,230,0)"/><polygon points="149.7,423.6 169.7,423.6 169.7,443.6 149.7,443.6" fill="none" stroke="black" stroke-width="1"/><text xml:space="preserve" x="159.7" y="436.433" font-family="Calibri" font-size="7.5" fill="rgb(0,0,0)" text-anchor="middle">2.0</text>
<polygon points="169.7,423.6 189.7,423.6 189.7,443.6 169.7,443.6" fill="rgb(255,255,0)"/><polygon points="169.7,423.6 189.7,423.6 189.7,443.6 169.7,443.6" fill="none" stroke="black" stroke-width="1"/><text xml:space="preserve" x="179.7" y="436.433" font-family="Calibri" font-size="7.5" fill="rgb(0,0,0)" text-anchor="middle">3.0</text>
<polygon points="189.7,423.6 209.7,423.6 209.7,443.6 189.7,443.6" fill="rgb(230,127,0)"/><polygon points="189.7,423.6 209.7,423.6 209.7,443.6 189.7,443.6" fill="none" stroke="black" stroke-width="1"/><text xml:space="preserve" x="199.7" y="436.433" font-family="Calibri" font-size="7.5" fill="rgb(0,0,0)" text-anchor="middle">4.0</text>
<polygon points="209.7,423.6 229.7,423.6 229.7,443.6 209.7,443.6" fill="rgb(205,0,0)"/><polygon points="209.7,423.6 229.7,423.6 229.7,443.6 209.7,443.6" fill="none" stroke="black" stroke-width="1"/><text xml:space="preserve" x="219.7" y="436.433" font-family="Calibri" font-size="7.5" fill="rgb(255,255,255)" text-anchor="middle">5.0</text>
<text xml:space="preserve" x="179.7" y="476.6" font-family="Calibri" font-size="8" text-anchor="middle">Expression</text>
<polygon points="129.7,483.6 149.7,483.6 149.7,503.6 129.7,503.6" fill="rgb(0,27,135)"/><polygon points="129.7,483.6 149.7,483.6 149.7,503.6 129.7,503.6" fill="none" stroke="black" stroke-width="1"/><text xml:space="preserve" x="139.7" y="496.433" font-family="Calibri" font-size="7.5" fill="rgb(255,255,255)" text-anchor="middle">0.0</text>
<polygon points="149.7,483.6 169.7,483.6 169.7,503.6 149.7,503.6" fill="rgb(24,123,140)"/><polygon points="149.7,483.6 169.7,483.6 169.7,503.6 149.7,503.6" fill="none" stroke="black" stroke-width="1"/><text xml:space="preserve" x="159.7" y="496.433" font-family="Calibri" font-size="7.5" fill="rgb(255,255,255)" text-anchor="middle">0.8</text>
<polygon points="169.7,483.6 189.7,483.6 189.7,503.6 169.7,503.6" fill="rgb(49,219,146)"/><polygon points="169.7,483.6 189.7,483.6 189.7,503.6 169.7,503.6" fill="none" stroke="black" stroke-width="1"/><text xml:space="preserve" x="179.7" y="496.433" font-family="Calibri" font-size="7.5" fill="rgb(0,0,0)" text-anchor="middle">1.5</text>
<polygon points="189.7,483.6 209.7,483.6 209.7,503.6 189.7,503.6" fill="rgb(150,206,73)"/><polygon points="189.7,483.6 209.7,483.6 209.7,503.6 189.7,503.6" fill="none" stroke="black" stroke-width="1"/><text xml:space="preserve" x="199.7" y="496.433" font-family="Calibri" font-size="7.5" fill="rgb(0,0,0)" text-anchor="middle">2.2</text>
<polygon points="209.7,483.6 229.7,483.6 229.7,503.6 209.7,503.6" fill="rgb(252,194,1)"/><polygon points="209.7,483.6 229.7,483.6 229.7,503.6 209.7,503.6" fill="none" stroke="black" stroke-width="1"/><text xml:space="preserve" x="219.7" y="496.433" font-family="Calibri" font-size="7.5" fill="rgb(0,0,0)" text-anchor="middle">3.0</text>
<text xml:space="preserve" x="179.7" y="536.6" font-family="Calibri" font-size="8" text-anchor="middle">PANTHERclass</text>
<polygon points="129.7,543.6 149.7,543.6 149.7,563.6 129.7,563.6" fill="rgb(255,255,255)"/><polygon points="129.7,543.6 149.7,543.6 149.7,563.6 129.7,563.6" fill="none" stroke="black" stroke-width="1"/><text xml:space="preserve" x="139.7" y="556.433" font-family="Calibri" font-size="7.5" fill="rgb(0,0,0)" text-anchor="middle">0.0</text>
<polygon points="149.7,543.6 169.7,543.6 169.7,563.6 149.7,563.6" fill="rgb(242,191,242)"/><polygon points="149.7,543.6 169.7,543.6 169.7,563.6 149.7,563.6" fill="none" stroke="black" stroke-width="1"/><text xml:space="preserve" x="159.7" y="556.433" font-family="Calibri" font-size="7.5" fill="rgb(0,0,0)" text-anchor="middle">0.2</text>
<polygon points="169.7,543.6 189.7,543.6 189.7,563.6 169.7,563.6" fill="rgb(230,127,230)"/><polygon points="169.7,543.6 189.7,543.6 189.7,563.6 169.7,563.6" fill="none" stroke="black" stroke-width="1"/><text xml:space="preserve" x="179.7" y="556.433" font-family="Calibri" font-size="7.5" fill="rgb(0,0,0)" text-anchor="middle">0.5</text>
<polygon points="189.7,543.6 209.7,543.6 209.7,563.6 189.7,563.6" fill="rgb(217,63,217)"/><polygon points="189.7,543.6 209.7,543.6 209.7,563.6 189.7,563.6" fill="none" stroke="black" stroke-width="1"/><text xml:space="preserve" x="199.7" y="556.433" font-family="Calibri" font-size="7.5" fill="rgb(255,255,255)" text-anchor="middle">0.8</text>
<polygon points="209.7,543.6 229.7,543.6 229.7,563.6 209.7,563.6" fill="rgb(205,0,205)"/><polygon points="209.7,543.6 229.7,543.6 229.7,563.6 209.7,563.6" fill="none" stroke="black" stroke-width="1"/><text xml:space="preserve" x="219.7" y="556.433" font-family="Calibri" font-size="7.5" fill="rgb(255,255,255)" text-anchor="middle">1.0</text>
</svg>
