<?xml version="1.0" standalone="no"?><!DOCTYPE svg PUBLIC "-//W3C//DTD SVG 1.1//EN" "http://www.w3.org/Graphics/SVG/1.1/DTD/svg11.dtd">
<svg width="348.3" height="599.6" version="1.1" xmlns="http://www.w3.org/2000/svg">
<text xml:space="preserve" x="112.3" y="342.6" font-family="Calibri" font-size="8" text-anchor="end">ARPC3</text>
<text xml:space="preserve" x="112.3" y="350.6" font-family="Calibri" font-size="8" text-anchor="end">PSMA7</text>
<text xml:space="preserve" x="112.3" y="358.6" font-family="Calibri" font-size="8" text-anchor="end">ATP6V1G1</text>
<text xml:space="preserve" x="112.3" y="366.6" font-family="Calibri" font-size="8" text-anchor="end">ATP5MPL</text>
<text xml:space="preserve" x="112.3" y="374.6" font-family="Calibri" font-size="8" text-anchor="end">UQCRH</text>
<text xml:space="preserve" x="112.3" y="382.6" font-family="Calibri" font-size="8" text-anchor="end">RPL27</text>
<text xml:space="preserve" x="112.3" y="390.6" font-family="Calibri" font-size="8" text-anchor="end">CNN2</text>
<text xml:space="preserve" x="112.3" y="398.6" font-family="Calibri" font-size="8" text-anchor="end">INSM1</text>
<text xml:space="preserve" x="123.3" y="331.6" font-family="Calibri" font-size="8" transform="rotate(270 123.3 331.6)">c2</text>
<text xml:space="preserve" x="131.3" y="331.6" font-family="Calibri" font-size="8" transform="rotate(270 131.3 331.6)">c3</text>
<text xml:space="preserve" x="139.3" y="331.6" font-family="Calibri" font-size="8" transform="rotate(270 139.3 331.6)">c6</text>
<text xml:space="preserve" x="147.3" y="331.6" font-family="Calibri" font-size="8" transform="rotate(270 147.3 331.6)">c4</text>
<text xml:space="preserve" x="155.3" y="331.6" font-family="Calibri" font-size="8" transform="rotate(270 155.3 331.6)">c1</text>
<text xml:space="preserve" x="163.3" y="331.6" font-family="Calibri" font-size="8" transform="rotate(270 163.3 331.6)">c5</text>
<text xml:space="preserve" x="171.3" y="331.6" font-family="Calibri" font-size="8" transform="rotate(270 171.3 331.6)">c7</text>
<text xml:space="preserve" x="179.3" y="331.6" font-family="Calibri" font-size="8" transform="rotate(270 179.3 331.6)">c8</text>
<text xml:space="preserve" x="197.3" y="331.6" font-family="Calibri" font-size="8" transform="rotate(270 197.3 331.6)">c2_mean</text>
<text xml:space="preserve" x="205.3" y="331.6" font-family="Calibri" font-size="8" transform="rotate(270 205.3 331.6)">c3_mean</text>
<text xml:space="preserve" x="213.3" y="331.6" font-family="Calibri" font-size="8" transform="rotate(270 213.3 331.6)">c6_mean</text>
<text xml:space="preserve" x="221.3" y="331.6" font-family="Calibri" font-size="8" transform="rotate(270 221.3 331.6)">c4_mean</text>
<text xml:space="preserve" x="229.3" y="331.6" font-family="Calibri" font-size="8" transform="rotate(270 229.3 331.6)">c1_mean</text>
<text xml:space="preserve" x="237.3" y="331.6" font-family="Calibri" font-size="8" transform="rotate(270 237.3 331.6)">c5_mean</text>
<text xml:space="preserve" x="245.3" y="331.6" font-family="Calibri" font-size="8" transform="rotate(270 245.3 331.6)">c7_mean</text>
<text xml:space="preserve" x="253.3" y="331.6" font-family="Calibri" font-size="8" transform="rotate(270 253.3 331.6)">c8_mean</text>
<text xml:space="preserve" x="271.3" y="331.6" font-family="Calibri" font-size="8" transform="rotate(270 271.3 331.6)">transcription_factor</text>
<text xml:space="preserve" x="279.3" y="331.6" font-family="Calibri" font-size="8" transform="rotate(270 279.3 331.6)">transmembrane_signal_receptor</text>
<text xml:space="preserve" x="287.3" y="331.6" font-family="Calibri" font-size="8" transform="rotate(270 287.3 331.6)">growth_factor</text>
<text xml:space="preserve" x="295.3" y="331.6" font-family="Calibri" font-size="8" transform="rotate(270 295.3 331.6)">peptide_hormone</text>
<text xml:space="preserve" x="303.3" y="331.6" font-family="Calibri" font-size="8" transform="rotate(270 303.3 331.6)">cytoskeletal_protein</text>
<text xml:space="preserve" x="311.3" y="331.6" font-family="Calibri" font-size="8" transform="rotate(270 311.3 331.6)">ion_channel</text>
<text xml:space="preserve" x="319.3" y="331.6" font-family="Calibri" font-size="8" transform="rotate(270 319.3 331.6)">integrin</text>
<text xml:space="preserve" x="327.3" y="331.6" font-family="Calibri" font-size="8" transform="rotate(270 327.3 331.6)">extracellular_matrix_protein</text>
<polygon points="116.3,335.6 124.3,335.6 124.3,343.6 116.3,343.6" fill="rgb(127,230,0)"/><text xml:space="preserve" x="120.3" y="342.433" font-family="Calibri" font-size="7.5" fill="rgb(0,0,0)" text-anchor="middle">2</text>
<polygon points="124.3,335.6 132.3,335.6 132.3,343.6 124.3,343.6" fill="rgb(255,255,0)"/><text xml:space="preserve" x="128.3" y="342.433" font-family="Calibri" font-size="7.5" fill="rgb(0,0,0)" text-anchor="middle">3</text>
<polygon points="132.3,335.6 140.3,335.6 140.3,343.6 132.3,343.6" fill="rgb(230,127,0)"/><text xml:space="preserve" x="136.3" y="342.433" font-family="Calibri" font-size="7.5" fill="rgb(0,0,0)" text-anchor="middle">4</text>
<polygon points="140.3,335.6 148.3,335.6 148.3,343.6 140.3,343.6" fill="rgb(127,230,0)"/><text xml:space="preserve" x="144.3" y="342.433" font-family="Calibri" font-size="7.5" fill="rgb(0,0,0)" text-anchor="middle">2</text>
<polygon points="148.3,335.6 156.3,335.6 156.3,343.6 148.3,343.6" fill="rgb(127,230,0)"/><text xml:space="preserve" x="152.3" y="342.433" font-family="Calibri" font-size="7.5" fill="rgb(0,0,0)" text-anchor="middle">2</text>
<polygon points="156.3,335.6 164.3,335.6 164.3,343.6 156.3,343.6" fill="rgb(127,230,0)"/><text xml:space="preserve" x="160.3" y="342.433" font-family="Calibri" font-size="7.5" fill="rgb(0,0,0)" text-anchor="middle">2</text>
<polygon points="164.3,335.6 172.3,335.6 172.3,343.6 164.3,343.6" fill="rgb(127,230,0)"/><text xml:space="preserve" x="168.3" y="342.433" font-family="Calibri" font-size="7.5" fill="rgb(0,0,0)" text-anchor="middle">2</text>
<polygon points="172.3,335.6 180.3,335.6 180.3,343.6 172.3,343.6" fill="rgb(127,230,0)"/><text xml:space="preserve" x="176.3" y="342.433" font-family="Calibri" font-size="7.5" fill="rgb(0,0,0)" text-anchor="middle">2</text>
<polygon points="190.3,335.6 198.3,335.6 198.3,343.6 190.3,343.6" fill="rgb(13,78,137)"/>
<polygon points="198.3,335.6 206.3,335.6 206.3,343.6 198.3,343.6" fill="rgb(14,82,138)"/>
<polygon points="206.3,335.6 214.3,335.6 214.3,343.6 206.3,343.6" fill="rgb(34,161,142)"/>
<polygon points="214.3,335.6 222.3,335.6 222.3,343.6 214.3,343.6" fill="rgb(9,62,137)"/>
<polygon points="222.3,335.6 230.3,335.6 230.3,343.6 222.3,343.6" fill="rgb(12,75,137)"/>
<polygon points="230.3,335.6 238.3,335.6 238.3,343.6 230.3,343.6" fill="rgb(9,62,137)"/>
<polygon points="238.3,335.6 246.3,335.6 246.3,343.6 238.3,343.6" fill="rgb(10,67,137)"/>
<polygon points="246.3,335.6 254.3,335.6 254.3,343.6 246.3,343.6" fill="rgb(9,64,137)"/>
<polygon points="264.3,335.6 272.3,335.6 272.3,343.6 264.3,343.6" fill="rgb(255,255,255)"/>
<polygon points="272.3,335.6 280.3,335.6 280.3,343.6 272.3,343.6" fill="rgb(255,255,255)"/>
<polygon points="280.3,335.6 288.3,335.6 288.3,343.6 280.3,343.6" fill="rgb(255,255,255)"/>
<polygon points="288.3,335.6 296.3,335.6 296.3,343.6 288.3,343.6" fill="rgb(255,255,255)"/>
<polygon points="296.3,335.6 304.3,335.6 304.3,343.6 296.3,343.6" fill="rgb(205,0,205)"/>
<polygon points="304.3,335.6 312.3,335.6 312.3,343.6 304.3,343.6" fill="rgb(255,255,255)"/>
<polygon points="312.3,335.6 320.3,335.6 320.3,343.6 312.3,343.6" fill="rgb(255,255,255)"/>
<polygon points="320.3,335.6 328.3,335.6 328.3,343.6 320.3,343.6" fill="rgb(255,255,255)"/>
<polygon points="116.3,343.6 124.3,343.6 124.3,351.6 116.3,351.6" fill="rgb(127,230,0)"/><text xml:space="preserve" x="120.3" y="350.433" font-family="Calibri" font-size="7.5" fill="rgb(0,0,0)" text-anchor="middle">2</text>
<polygon points="124.3,343.6 132.3,343.6 132.3,351.6 124.3,351.6" fill="rgb(255,255,0)"/><text xml:space="preserve" x="128.3" y="350.433" font-family="Calibri" font-size="7.5" fill="rgb(0,0,0)" text-anchor="middle">3</text>
<polygon points="132.3,343.6 140.3,343.6 140.3,351.6 132.3,351.6" fill="rgb(230,127,0)"/><text xml:space="preserve" x="136.3" y="350.433" font-family="Calibri" font-size="7.5" fill="rgb(0,0,0)" text-anchor="middle">4</text>
<polygon points="140.3,343.6 148.3,343.6 148.3,351.6 140.3,351.6" fill="rgb(127,230,0)"/><text xml:space="preserve" x="144.3" y="350.433" font-family="Calibri" font-size="7.5" fill="rgb(0,0,0)" text-anchor="middle">2</text>
<polygon points="148.3,343.6 156.3,343.6 156.3,351.6 148.3,351.6" fill="rgb(127,230,0)"/><text xml:space="preserve" x="152.3" y="350.433" font-family="Calibri" font-size="7.5" fill="rgb(0,0,0)" text-anchor="middle">2</text>
<polygon points="156.3,343.6 164.3,343.6 164.3,351.6 156.3,351.6" fill="rgb(127,230,0)"/><text xml:space="preserve" x="160.3" y="350.433" font-family="Calibri" font-size="7.5" fill="rgb(0,0,0)" text-anchor="middle">2</text>
<polygon points="164.3,343.6 172.3,343.6 172.3,351.6 164.3,351.6" fill="rgb(127,230,0)"/><text xml:space="preserve" x="168.3" y="350.433" font-family="Calibri" font-size="7.5" fill="rgb(0,0,0)" text-anchor="middle">2</text>
<polygon points="172.3,343.6 180.3,343.6 180.3,351.6 172.3,351.6" fill="rgb(127,230,0)"/><text xml:space="preserve" x="176.3" y="350.433" font-family="Calibri" font-size="7.5" fill="rgb(0,0,0)" text-anchor="middle">2</text>
<polygon points="190.3,343.6 198.3,343.6 198.3,351.6 190.3,351.6" fill="rgb(13,78,137)"/>
<polygon points="198.3,343.6 206.3,343.6 206.3,351.6 198.3,351.6" fill="rgb(14,82,138)"/>
<polygon points="206.3,343.6 214.3,343.6 214.3,351.6 206.3,351.6" fill="rgb(33,157,142)"/>
<polygon points="214.3,343.6 222.3,343.6 222.3,351.6 214.3,351.6" fill="rgb(8,61,136)"/>
<polygon points="222.3,343.6 230.3,343.6 230.3,351.6 222.3,351.6" fill="rgb(12,75,137)"/>
<polygon points="230.3,343.6 238.3,343.6 238.3,351.6 230.3,351.6" fill="rgb(8,60,136)"/>
<polygon points="238.3,343.6 246.3,343.6 246.3,351.6 238.3,351.6" fill="rgb(10,66,137)"/>
<polygon points="246.3,343.6 254.3,343.6 254.3,351.6 246.3,351.6" fill="rgb(9,64,137)"/>
<polygon points="264.3,343.6 272.3,343.6 272.3,351.6 264.3,351.6" fill="rgb(255,255,255)"/>
<polygon points="272.3,343.6 280.3,343.6 280.3,351.6 272.3,351.6" fill="rgb(255,255,255)"/>
<polygon points="280.3,343.6 288.3,343.6 288.3,351.6 280.3,351.6" fill="rgb(255,255,255)"/>
<polygon points="288.3,343.6 296.3,343.6 296.3,351.6 288.3,351.6" fill="rgb(255,255,255)"/>
<polygon points="296.3,343.6 304.3,343.6 304.3,351.6 296.3,351.6" fill="rgb(255,255,255)"/>
<polygon points="304.3,343.6 312.3,343.6 312.3,351.6 304.3,351.6" fill="rgb(255,255,255)"/>
<polygon points="312.3,343.6 320.3,343.6 320.3,351.6 312.3,351.6" fill="rgb(255,255,255)"/>
<polygon points="320.3,343.6 328.3,343.6 328.3,351.6 320.3,351.6" fill="rgb(255,255,255)"/>
<polygon points="116.3,351.6 124.3,351.6 124.3,359.6 116.3,359.6" fill="rgb(127,230,0)"/><text xml:space="preserve" x="120.3" y="358.433" font-family="Calibri" font-size="7.5" fill="rgb(0,0,0)" text-anchor="middle">2</text>
<polygon points="124.3,351.6 132.3,351.6 132.3,359.6 124.3,359.6" fill="rgb(255,255,0)"/><text xml:space="preserve" x="128.3" y="358.433" font-family="Calibri" font-size="7.5" fill="rgb(0,0,0)" text-anchor="middle">3</text>
<polygon points="132.3,351.6 140.3,351.6 140.3,359.6 132.3,359.6" fill="rgb(230,127,0)"/><text xml:space="preserve" x="136.3" y="358.433" font-family="Calibri" font-size="7.5" fill="rgb(0,0,0)" text-anchor="middle">4</text>
<polygon points="140.3,351.6 148.3,351.6 148.3,359.6 140.3,359.6" fill="rgb(127,230,0)"/><text xml:space="preserve" x="144.3" y="358.433" font-family="Calibri" font-size="7.5" fill="rgb(0,0,0)" text-anchor="middle">2</text>
<polygon points="148.3,351.6 156.3,351.6 156.3,359.6 148.3,359.6" fill="rgb(127,230,0)"/><text xml:space="preserve" x="152.3" y="358.433" font-family="Calibri" font-size="7.5" fill="rgb(0,0,0)" text-anchor="middle">2</text>
<polygon points="156.3,351.6 164.3,351.6 164.3,359.6 156.3,359.6" fill="rgb(127,230,0)"/><text xml:space="preserve" x="160.3" y="358.433" font-family="Calibri" font-size="7.5" fill="rgb(0,0,0)" text-anchor="middle">2</text>
<polygon points="164.3,351.6 172.3,351.6 172.3,359.6 164.3,359.6" fill="rgb(127,230,0)"/><text xml:space="preserve" x="168.3" y="358.433" font-family="Calibri" font-size="7.5" fill="rgb(0,0,0)" text-anchor="middle">2</text>
<polygon points="172.3,351.6 180.3,351.6 180.3,359.6 172.3,359.6" fill="rgb(127,230,0)"/><text xml:space="preserve" x="176.3" y="358.433" font-family="Calibri" font-size="7.5" fill="rgb(0,0,0)" text-anchor="middle">2</text>
<polygon points="190.3,351.6 198.3,351.6 198.3,359.6 190.3,359.6" fill="rgb(13,79,138)"/>
<polygon points="198.3,351.6 206.3,351.6 206.3,359.6 198.3,359.6" fill="rgb(13,78,137)"/>
<polygon points="206.3,351.6 214.3,351.6 214.3,359.6 206.3,359.6" fill="rgb(29,140,141)"/>
<polygon points="214.3,351.6 222.3,351.6 222.3,359.6 214.3,359.6" fill="rgb(8,61,136)"/>
<polygon points="222.3,351.6 230.3,351.6 230.3,359.6 222.3,359.6" fill="rgb(12,76,137)"/>
<polygon points="230.3,351.6 238.3,351.6 238.3,359.6 230.3,359.6" fill="rgb(9,62,137)"/>
<polygon points="238.3,351.6 246.3,351.6 246.3,359.6 238.3,359.6" fill="rgb(10,67,137)"/>
<polygon points="246.3,351.6 254.3,351.6 254.3,359.6 246.3,359.6" fill="rgb(9,65,137)"/>
<polygon points="264.3,351.6 272.3,351.6 272.3,359.6 264.3,359.6" fill="rgb(255,255,255)"/>
<polygon points="272.3,351.6 280.3,351.6 280.3,359.6 272.3,359.6" fill="rgb(255,255,255)"/>
<polygon points="280.3,351.6 288.3,351.6 288.3,359.6 280.3,359.6" fill="rgb(255,255,255)"/>
<polygon points="288.3,351.6 296.3,351.6 296.3,359.6 288.3,359.6" fill="rgb(255,255,255)"/>
<polygon points="296.3,351.6 304.3,351.6 304.3,359.6 296.3,359.6" fill="rgb(255,255,255)"/>
<polygon points="304.3,351.6 312.3,351.6 312.3,359.6 304.3,359.6" fill="rgb(255,255,255)"/>
<polygon points="312.3,351.6 320.3,351.6 320.3,359.6 312.3,359.6" fill="rgb(255,255,255)"/>
<polygon points="320.3,351.6 328.3,351.6 328.3,359.6 320.3,359.6" fill="rgb(255,255,255)"/>
<polygon points="116.3,359.6 124.3,359.6 124.3,367.6 116.3,367.6" fill="rgb(127,230,0)"/><text xml:space="preserve" x="120.3" y="366.433" font-family="Calibri" font-size="7.5" fill="rgb(0,0,0)" text-anchor="middle">2</text>
<polygon points="124.3,359.6 132.3,359.6 132.3,367.6 124.3,367.6" fill="rgb(255,255,0)"/><text xml:space="preserve" x="128.3" y="366.433" font-family="Calibri" font-size="7.5" fill="rgb(0,0,0)" text-anchor="middle">3</text>
<polygon points="132.3,359.6 140.3,359.6 140.3,367.6 132.3,367.6" fill="rgb(230,127,0)"/><text xml:space="preserve" x="136.3" y="366.433" font-family="Calibri" font-size="7.5" fill="rgb(0,0,0)" text-anchor="middle">4</text>
<polygon points="140.3,359.6 148.3,359.6 148.3,367.6 140.3,367.6" fill="rgb(127,230,0)"/><text xml:space="preserve" x="144.3" y="366.433" font-family="Calibri" font-size="7.5" fill="rgb(0,0,0)" text-anchor="middle">2</text>
<polygon points="148.3,359.6 156.3,359.6 156.3,367.6 148.3,367.6" fill="rgb(127,230,0)"/><text xml:space="preserve" x="152.3" y="366.433" font-family="Calibri" font-size="7.5" fill="rgb(0,0,0)" text-anchor="middle">2</text>
<polygon points="156.3,359.6 164.3,359.6 164.3,367.6 156.3,367.6" fill="rgb(127,230,0)"/><text xml:space="preserve" x="160.3" y="366.433" font-family="Calibri" font-size="7.5" fill="rgb(0,0,0)" text-anchor="middle">2</text>
<polygon points="164.3,359.6 172.3,359.6 172.3,367.6 164.3,367.6" fill="rgb(127,230,0)"/><text xml:space="preserve" x="168.3" y="366.433" font-family="Calibri" font-size="7.5" fill="rgb(0,0,0)" text-anchor="middle">2</text>
<polygon points="172.3,359.6 180.3,359.6 180.3,367.6 172.3,367.6" fill="rgb(127,230,0)"/><text xml:space="preserve" x="176.3" y="366.433" font-family="Calibri" font-size="7.5" fill="rgb(0,0,0)" text-anchor="middle">2</text>
<polygon points="190.3,359.6 198.3,359.6 198.3,367.6 190.3,367.6" fill="rgb(12,75,137)"/>
<polygon points="198.3,359.6 206.3,359.6 206.3,367.6 198.3,367.6" fill="rgb(12,75,137)"/>
<polygon points="206.3,359.6 214.3,359.6 214.3,367.6 206.3,367.6" fill="rgb(30,146,141)"/>
<polygon points="214.3,359.6 222.3,359.6 222.3,367.6 214.3,367.6" fill="rgb(9,62,137)"/>
<polygon points="222.3,359.6 230.3,359.6 230.3,367.6 222.3,367.6" fill="rgb(12,74,137)"/>
<polygon points="230.3,359.6 238.3,359.6 238.3,367.6 230.3,367.6" fill="rgb(8,61,136)"/>
<polygon points="238.3,359.6 246.3,359.6 246.3,367.6 238.3,367.6" fill="rgb(9,65,137)"/>
<polygon points="246.3,359.6 254.3,359.6 254.3,367.6 246.3,367.6" fill="rgb(9,62,137)"/>
<polygon points="264.3,359.6 272.3,359.6 272.3,367.6 264.3,367.6" fill="rgb(255,255,255)"/>
<polygon points="272.3,359.6 280.3,359.6 280.3,367.6 272.3,367.6" fill="rgb(255,255,255)"/>
<polygon points="280.3,359.6 288.3,359.6 288.3,367.6 280.3,367.6" fill="rgb(255,255,255)"/>
<polygon points="288.3,359.6 296.3,359.6 296.3,367.6 288.3,367.6" fill="rgb(255,255,255)"/>
<polygon points="296.3,359.6 304.3,359.6 304.3,367.6 296.3,367.6" fill="rgb(255,255,255)"/>
<polygon points="304.3,359.6 312.3,359.6 312.3,367.6 304.3,367.6" fill="rgb(255,255,255)"/>
<polygon points="312.3,359.6 320.3,359.6 320.3,367.6 312.3,367.6" fill="rgb(255,255,255)"/>
<polygon points="320.3,359.6 328.3,359.6 328.3,367.6 320.3,367.6" fill="rgb(255,255,255)"/>
<polygon points="116.3,367.6 124.3,367.6 124.3,375.6 116.3,375.6" fill="rgb(127,230,0)"/><text xml:space="preserve" x="120.3" y="374.433" font-family="Calibri" font-size="7.5" fill="rgb(0,0,0)" text-anchor="middle">2</text>
<polygon points="124.3,367.6 132.3,367.6 132.3,375.6 124.3,375.6" fill="rgb(255,255,0)"/><text xml:space="preserve" x="128.3" y="374.433" font-family="Calibri" font-size="7.5" fill="rgb(0,0,0)" text-anchor="middle">3</text>
<polygon points="132.3,367.6 140.3,367.6 140.3,375.6 132.3,375.6" fill="rgb(230,127,0)"/><text xml:space="preserve" x="136.3" y="374.433" font-family="Calibri" font-size="7.5" fill="rgb(0,0,0)" text-anchor="middle">4</text>
<polygon points="140.3,367.6 148.3,367.6 148.3,375.6 140.3,375.6" fill="rgb(127,230,0)"/><text xml:space="preserve" x="144.3" y="374.433" font-family="Calibri" font-size="7.5" fill="rgb(0,0,0)" text-anchor="middle">2</text>
<polygon points="148.3,367.6 156.3,367.6 156.3,375.6 148.3,375.6" fill="rgb(127,230,0)"/><text xml:space="preserve" x="152.3" y="374.433" font-family="Calibri" font-size="7.5" fill="rgb(0,0,0)" text-anchor="middle">2</text>
<polygon points="156.3,367.6 164.3,367.6 164.3,375.6 156.3,375.6" fill="rgb(127,230,0)"/><text xml:space="preserve" x="160.3" y="374.433" font-family="Calibri" font-size="7.5" fill="rgb(0,0,0)" text-anchor="middle">2</text>
<polygon points="164.3,367.6 172.3,367.6 172.3,375.6 164.3,375.6" fill="rgb(127,230,0)"/><text xml:space="preserve" x="168.3" y="374.433" font-family="Calibri" font-size="7.5" fill="rgb(0,0,0)" text-anchor="middle">2</text>
<polygon points="172.3,367.6 180.3,367.6 180.3,375.6 172.3,375.6" fill="rgb(127,230,0)"/><text xml:space="preserve" x="176.3" y="374.433" font-family="Calibri" font-size="7.5" fill="rgb(0,0,0)" text-anchor="middle">2</text>
<polygon points="190.3,367.6 198.3,367.6 198.3,375.6 190.3,375.6" fill="rgb(15,87,138)"/>
<polygon points="198.3,367.6 206.3,367.6 206.3,375.6 198.3,375.6" fill="rgb(12,75,137)"/>
<polygon points="206.3,367.6 214.3,367.6 214.3,375.6 206.3,375.6" fill="rgb(31,148,141)"/>
<polygon points="214.3,367.6 222.3,367.6 222.3,375.6 214.3,375.6" fill="rgb(8,59,136)"/>
<polygon points="222.3,367.6 230.3,367.6 230.3,375.6 222.3,375.6" fill="rgb(11,71,137)"/>
<polygon points="230.3,367.6 238.3,367.6 238.3,375.6 230.3,375.6" fill="rgb(7,56,136)"/>
<polygon points="238.3,367.6 246.3,367.6 246.3,375.6 238.3,375.6" fill="rgb(10,67,137)"/>
<polygon points="246.3,367.6 254.3,367.6 254.3,375.6 246.3,375.6" fill="rgb(8,59,136)"/>
<polygon points="264.3,367.6 272.3,367.6 272.3,375.6 264.3,375.6" fill="rgb(255,255,255)"/>
<polygon points="272.3,367.6 280.3,367.6 280.3,375.6 272.3,375.6" fill="rgb(255,255,255)"/>
<polygon points="280.3,367.6 288.3,367.6 288.3,375.6 280.3,375.6" fill="rgb(255,255,255)"/>
<polygon points="288.3,367.6 296.3,367.6 296.3,375.6 288.3,375.6" fill="rgb(255,255,255)"/>
<polygon points="296.3,367.6 304.3,367.6 304.3,375.6 296.3,375.6" fill="rgb(255,255,255)"/>
<polygon points="304.3,367.6 312.3,367.6 312.3,375.6 304.3,375.6" fill="rgb(255,255,255)"/>
<polygon points="312.3,367.6 320.3,367.6 320.3,375.6 312.3,375.6" fill="rgb(255,255,255)"/>
<polygon points="320.3,367.6 328.3,367.6 328.3,375.6 320.3,375.6" fill="rgb(255,255,255)"/>
<polygon points="116.3,375.6 124.3,375.6 124.3,383.6 116.3,383.6" fill="rgb(127,230,0)"/><text xml:space="preserve" x="120.3" y="382.433" font-family="Calibri" font-size="7.5" fill="rgb(0,0,0)" text-anchor="middle">2</text>
<polygon points="124.3,375.6 132.3,375.6 132.3,383.6 124.3,383.6" fill="rgb(255,255,0)"/><text xml:space="preserve" x="128.3" y="382.433" font-family="Calibri" font-size="7.5" fill="rgb(0,0,0)" text-anchor="middle">3</text>
<polygon points="132.3,375.6 140.3,375.6 140.3,383.6 132.3,383.6" fill="rgb(230,127,0)"/><text xml:space="preserve" x="136.3" y="382.433" font-family="Calibri" font-size="7.5" fill="rgb(0,0,0)" text-anchor="middle">4</text>
<polygon points="140.3,375.6 148.3,375.6 148.3,383.6 140.3,383.6" fill="rgb(127,230,0)"/><text xml:space="preserve" x="144.3" y="382.433" font-family="Calibri" font-size="7.5" fill="rgb(0,0,0)" text-anchor="middle">2</text>
<polygon points="148.3,375.6 156.3,375.6 156.3,383.6 148.3,383.6" fill="rgb(127,230,0)"/><text xml:space="preserve" x="152.3" y="382.433" font-family="Calibri" font-size="7.5" fill="rgb(0,0,0)" text-anchor="middle">2</text>
<polygon points="156.3,375.6 164.3,375.6 164.3,383.6 156.3,383.6" fill="rgb(127,230,0)"/><text xml:space="preserve" x="160.3" y="382.433" font-family="Calibri" font-size="7.5" fill="rgb(0,0,0)" text-anchor="middle">2</text>
<polygon points="164.3,375.6 172.3,375.6 172.3,383.6 164.3,383.6" fill="rgb(127,230,0)"/><text xml:space="preserve" x="168.3" y="382.433" font-family="Calibri" font-size="7.5" fill="rgb(0,0,0)" text-anchor="middle">2</text>
<polygon points="172.3,375.6 180.3,375.6 180.3,383.6 172.3,383.6" fill="rgb(127,230,0)"/><text xml:space="preserve" x="176.3" y="382.433" font-family="Calibri" font-size="7.5" fill="rgb(0,0,0)" text-anchor="middle">2</text>
<polygon points="190.3,375.6 198.3,375.6 198.3,383.6 190.3,383.6" fill="rgb(12,75,137)"/>
<polygon points="198.3,375.6 206.3,375.6 206.3,383.6 198.3,383.6" fill="rgb(11,73,137)"/>
<polygon points="206.3,375.6 214.3,375.6 214.3,383.6 206.3,383.6" fill="rgb(28,138,141)"/>
<polygon points="214.3,375.6 222.3,375.6 222.3,383.6 214.3,383.6" fill="rgb(8,60,136)"/>
<polygon points="222.3,375.6 230.3,375.6 230.3,383.6 222.3,383.6" fill="rgb(12,74,137)"/>
<polygon points="230.3,375.6 238.3,375.6 238.3,383.6 230.3,383.6" fill="rgb(8,59,136)"/>
<polygon points="238.3,375.6 246.3,375.6 246.3,383.6 238.3,383.6" fill="rgb(9,64,137)"/>
<polygon points="246.3,375.6 254.3,375.6 254.3,383.6 246.3,383.6" fill="rgb(8,60,136)"/>
<polygon points="264.3,375.6 272.3,375.6 272.3,383.6 264.3,383.6" fill="rgb(255,255,255)"/>
<polygon points="272.3,375.6 280.3,375.6 280.3,383.6 272.3,383.6" fill="rgb(255,255,255)"/>
<polygon points="280.3,375.6 288.3,375.6 288.3,383.6 280.3,383.6" fill="rgb(255,255,255)"/>
<polygon points="288.3,375.6 296.3,375.6 296.3,383.6 288.3,383.6" fill="rgb(255,255,255)"/>
<polygon points="296.3,375.6 304.3,375.6 304.3,383.6 296.3,383.6" fill="rgb(255,255,255)"/>
<polygon points="304.3,375.6 312.3,375.6 312.3,383.6 304.3,383.6" fill="rgb(255,255,255)"/>
<polygon points="312.3,375.6 320.3,375.6 320.3,383.6 312.3,383.6" fill="rgb(255,255,255)"/>
<polygon points="320.3,375.6 328.3,375.6 328.3,383.6 320.3,383.6" fill="rgb(255,255,255)"/>
<polygon points="116.3,383.6 124.3,383.6 124.3,391.6 116.3,391.6" fill="rgb(127,230,0)"/><text xml:space="preserve" x="120.3" y="390.433" font-family="Calibri" font-size="7.5" fill="rgb(0,0,0)" text-anchor="middle">2</text>
<polygon points="124.3,383.6 132.3,383.6 132.3,391.6 124.3,391.6" fill="rgb(255,255,0)"/><text xml:space="preserve" x="128.3" y="390.433" font-family="Calibri" font-size="7.5" fill="rgb(0,0,0)" text-anchor="middle">3</text>
<polygon points="132.3,383.6 140.3,383.6 140.3,391.6 132.3,391.6" fill="rgb(230,127,0)"/><text xml:space="preserve" x="136.3" y="390.433" font-family="Calibri" font-size="7.5" fill="rgb(0,0,0)" text-anchor="middle">4</text>
<polygon points="140.3,383.6 148.3,383.6 148.3,391.6 140.3,391.6" fill="rgb(127,230,0)"/><text xml:space="preserve" x="144.3" y="390.433" font-family="Calibri" font-size="7.5" fill="rgb(0,0,0)" text-anchor="middle">2</text>
<polygon points="148.3,383.6 156.3,383.6 156.3,391.6 148.3,391.6" fill="rgb(127,230,0)"/><text xml:space="preserve" x="152.3" y="390.433" font-family="Calibri" font-size="7.5" fill="rgb(0,0,0)" text-anchor="middle">2</text>
<polygon points="156.3,383.6 164.3,383.6 164.3,391.6 156.3,391.6" fill="rgb(127,230,0)"/><text xml:space="preserve" x="160.3" y="390.433" font-family="Calibri" font-size="7.5" fill="rgb(0,0,0)" text-anchor="middle">2</text>
<polygon points="164.3,383.6 172.3,383.6 172.3,391.6 164.3,391.6" fill="rgb(127,230,0)"/><text xml:space="preserve" x="168.3" y="390.433" font-family="Calibri" font-size="7.5" fill="rgb(0,0,0)" text-anchor="middle">2</text>
<polygon points="172.3,383.6 180.3,383.6 180.3,391.6 172.3,391.6" fill="rgb(127,230,0)"/><text xml:space="preserve" x="176.3" y="390.433" font-family="Calibri" font-size="7.5" fill="rgb(0,0,0)" text-anchor="middle">2</text>
<polygon points="190.3,383.6 198.3,383.6 198.3,391.6 190.3,391.6" fill="rgb(17,94,138)"/>
<polygon points="198.3,383.6 206.3,383.6 206.3,391.6 198.3,391.6" fill="rgb(17,94,138)"/>
<polygon points="206.3,383.6 214.3,383.6 214.3,391.6 206.3,391.6" fill="rgb(24,121,140)"/>
<polygon points="214.3,383.6 222.3,383.6 222.3,391.6 214.3,391.6" fill="rgb(5,50,136)"/>
<polygon points="222.3,383.6 230.3,383.6 230.3,391.6 222.3,391.6" fill="rgb(7,56,136)"/>
<polygon points="230.3,383.6 238.3,383.6 238.3,391.6 230.3,391.6" fill="rgb(8,61,136)"/>
<polygon points="238.3,383.6 246.3,383.6 246.3,391.6 238.3,391.6" fill="rgb(13,78,137)"/>
<polygon points="246.3,383.6 254.3,383.6 254.3,391.6 246.3,391.6" fill="rgb(10,69,137)"/>
<polygon points="264.3,383.6 272.3,383.6 272.3,391.6 264.3,391.6" fill="rgb(255,255,255)"/>
<polygon points="272.3,383.6 280.3,383.6 280.3,391.6 272.3,391.6" fill="rgb(255,255,255)"/>
<polygon points="280.3,383.6 288.3,383.6 288.3,391.6 280.3,391.6" fill="rgb(255,255,255)"/>
<polygon points="288.3,383.6 296.3,383.6 296.3,391.6 288.3,391.6" fill="rgb(255,255,255)"/>
<polygon points="296.3,383.6 304.3,383.6 304.3,391.6 296.3,391.6" fill="rgb(255,255,255)"/>
<polygon points="304.3,383.6 312.3,383.6 312.3,391.6 304.3,391.6" fill="rgb(255,255,255)"/>
<polygon points="312.3,383.6 320.3,383.6 320.3,391.6 312.3,391.6" fill="rgb(255,255,255)"/>
<polygon points="320.3,383.6 328.3,383.6 328.3,391.6 320.3,391.6" fill="rgb(255,255,255)"/>
<polygon points="116.3,391.6 124.3,391.6 124.3,399.6 116.3,399.6" fill="rgb(127,230,0)"/><text xml:space="preserve" x="120.3" y="398.433" font-family="Calibri" font-size="7.5" fill="rgb(0,0,0)" text-anchor="middle">2</text>
<polygon points="124.3,391.6 132.3,391.6 132.3,399.6 124.3,399.6" fill="rgb(255,255,0)"/><text xml:space="preserve" x="128.3" y="398.433" font-family="Calibri" font-size="7.5" fill="rgb(0,0,0)" text-anchor="middle">3</text>
<polygon points="132.3,391.6 140.3,391.6 140.3,399.6 132.3,399.6" fill="rgb(230,127,0)"/><text xml:space="preserve" x="136.3" y="398.433" font-family="Calibri" font-size="7.5" fill="rgb(0,0,0)" text-anchor="middle">4</text>
<polygon points="140.3,391.6 148.3,391.6 148.3,399.6 140.3,399.6" fill="rgb(127,230,0)"/><text xml:space="preserve" x="144.3" y="398.433" font-family="Calibri" font-size="7.5" fill="rgb(0,0,0)" text-anchor="middle">2</text>
<polygon points="148.3,391.6 156.3,391.6 156.3,399.6 148.3,399.6" fill="rgb(127,230,0)"/><text xml:space="preserve" x="152.3" y="398.433" font-family="Calibri" font-size="7.5" fill="rgb(0,0,0)" text-anchor="middle">2</text>
<polygon points="156.3,391.6 164.3,391.6 164.3,399.6 156.3,399.6" fill="rgb(127,230,0)"/><text xml:space="preserve" x="160.3" y="398.433" font-family="Calibri" font-size="7.5" fill="rgb(0,0,0)" text-anchor="middle">2</text>
<polygon points="164.3,391.6 172.3,391.6 172.3,399.6 164.3,399.6" fill="rgb(127,230,0)"/><text xml:space="preserve" x="168.3" y="398.433" font-family="Calibri" font-size="7.5" fill="rgb(0,0,0)" text-anchor="middle">2</text>
<polygon points="172.3,391.6 180.3,391.6 180.3,399.6 172.3,399.6" fill="rgb(127,230,0)"/><text xml:space="preserve" x="176.3" y="398.433" font-family="Calibri" font-size="7.5" fill="rgb(0,0,0)" text-anchor="middle">2</text>
<polygon points="190.3,391.6 198.3,391.6 198.3,399.6 190.3,399.6" fill="rgb(10,67,137)"/>
<polygon points="198.3,391.6 206.3,391.6 206.3,399.6 198.3,399.6" fill="rgb(15,87,138)"/>
<polygon points="206.3,391.6 214.3,391.6 214.3,399.6 206.3,399.6" fill="rgb(25,128,140)"/>
<polygon points="214.3,391.6 222.3,391.6 222.3,399.6 214.3,399.6" fill="rgb(7,55,136)"/>
<polygon points="222.3,391.6 230.3,391.6 230.3,399.6 222.3,399.6" fill="rgb(3,42,135)"/>
<polygon points="230.3,391.6 238.3,391.6 238.3,399.6 230.3,399.6" fill="rgb(12,75,137)"/>
<polygon points="238.3,391.6 246.3,391.6 246.3,399.6 238.3,399.6" fill="rgb(6,52,136)"/>
<polygon points="246.3,391.6 254.3,391.6 254.3,399.6 246.3,399.6" fill="rgb(6,51,136)"/>
<polygon points="264.3,391.6 272.3,391.6 272.3,399.6 264.3,399.6" fill="rgb(205,0,205)"/>
<polygon points="272.3,391.6 280.3,391.6 280.3,399.6 272.3,399.6" fill="rgb(255,255,255)"/>
<polygon points="280.3,391.6 288.3,391.6 288.3,399.6 280.3,399.6" fill="rgb(255,255,255)"/>
<polygon points="288.3,391.6 296.3,391.6 296.3,399.6 288.3,399.6" fill="rgb(255,255,255)"/>
<polygon points="296.3,391.6 304.3,391.6 304.3,399.6 296.3,399.6" fill="rgb(255,255,255)"/>
<polygon points="304.3,391.6 312.3,391.6 312.3,399.6 304.3,399.6" fill="rgb(255,255,255)"/>
<polygon points="312.3,391.6 320.3,391.6 320.3,399.6 312.3,399.6" fill="rgb(255,255,255)"/>
<polygon points="320.3,391.6 328.3,391.6 328.3,399.6 320.3,399.6" fill="rgb(255,255,255)"/>
<polygon points="116.3,335.6 180.3,335.6 180.3,399.6 116.3,399.6" fill="none" stroke="black" stroke-width="1"/>
<polygon points="190.3,335.6 254.3,335.6 254.3,399.6 190.3,399.6" fill="none" stroke="black" stroke-width="1"/>
<polygon points="264.3,335.6 328.3,335.6 328.3,399.6 264.3,399.6" fill="none" stroke="black" stroke-width="1"/>
<text xml:space="preserve" x="174.15" y="432.6" font-family="Calibri" font-size="8" text-anchor="middle">ClusterAssignment</text>
<polygon points="124.15,439.6 144.15,439.6 144.15,459.6 124.15,459.6" fill="rgb(0,205,0)"/><polygon points="124.15,439.6 144.15,439.6 144.15,459.6 124.15,459.6" fill="none" stroke="black" stroke-width="1"/><text xml:space="preserve" x="134.15" y="452.433" font-family="Calibri" font-size="7.5" fill="rgb(255,255,255)" text-anchor="middle">1.0</text>
<polygon points="144.15,439.6 164.15,439.6 164.15,459.6 144.15,459.6" fill="rgb(127,230,0)"/><polygon points="144.15,439.6 164.15,439.6 164.15,459.6 144.15,459.6" fill="none" stroke="black" stroke-width="1"/><text xml:space="preserve" x="154.15" y="452.433" font-family="Calibri" font-size="7.5" fill="rgb(0,0,0)" text-anchor="middle">2.0</text>
<polygon points="164.15,439.6 184.15,439.6 184.15,459.6 164.15,459.6" fill="rgb(255,255,0)"/><polygon points="164.15,439.6 184.15,439.6 184.15,459.6 164.15,459.6" fill="none" stroke="black" stroke-width="1"/><text xml:space="preserve" x="174.15" y="452.433" font-family="Calibri" font-size="7.5" fill="rgb(0,0,0)" text-anchor="middle">3.0</text>
<polygon points="184.15,439.6 204.15,439.6 204.15,459.6 184.15,459.6" fill="rgb(230,127,0)"/><polygon points="184.15,439.6 204.15,439.6 204.15,459.6 184.15,459.6" fill="none" stroke="black" stroke-width="1"/><text xml:space="preserve" x="194.15" y="452.433" font-family="Calibri" font-size="7.5" fill="rgb(0,0,0)" text-anchor="middle">4.0</text>
<polygon points="204.15,439.6 224.15,439.6 224.15,459.6 204.15,459.6" fill="rgb(205,0,0)"/><polygon points="204.15,439.6 224.15,439.6 224.15,459.6 204.15,459.6" fill="none" stroke="black" stroke-width="1"/><text xml:space="preserve" x="214.15" y="452.433" font-family="Calibri" font-size="7.5" fill="rgb(255,255,255)" text-anchor="middle">5.0</text>
<text xml:space="preserve" x="174.15" y="492.6" font-family="Calibri" font-size="8" text-anchor="middle">Expression</text>
<polygon points="124.15,499.6 144.15,499.6 144.15,519.6 124.15,519.6" fill="rgb(0,27,135)"/><polygon points="124.15,499.6 144.15,499.6 144.15,519.6 124.15,519.6" fill="none" stroke="black" stroke-width="1"/><text xml:space="preserve" x="134.15" y="512.433" font-family="Calibri" font-size="7.5" fill="rgb(255,255,255)" text-anchor="middle">0.0</text>
<polygon points="144.15,499.6 164.15,499.6 164.15,519.6 144.15,519.6" fill="rgb(24,123,140)"/><polygon points="144.15,499.6 164.15,499.6 164.15,519.6 144.15,519.6" fill="none" stroke="black" stroke-width="1"/><text xml:space="preserve" x="154.15" y="512.433" font-family="Calibri" font-size="7.5" fill="rgb(255,255,255)" text-anchor="middle">0.8</text>
<polygon points="164.15,499.6 184.15,499.6 184.15,519.6 164.15,519.6" fill="rgb(49,219,146)"/><polygon points="164.15,499.6 184.15,499.6 184.15,519.6 164.15,519.6" fill="none" stroke="black" stroke-width="1"/><text xml:space="preserve" x="174.15" y="512.433" font-family="Calibri" font-size="7.5" fill="rgb(0,0,0)" text-anchor="middle">1.5</text>
<polygon points="184.15,499.6 204.15,499.6 204.15,519.6 184.15,519.6" fill="rgb(150,206,73)"/><polygon points="184.15,499.6 204.15,499.6 204.15,519.6 184.15,519.6" fill="none" stroke="black" stroke-width="1"/><text xml:space="preserve" x="194.15" y="512.433" font-family="Calibri" font-size="7.5" fill="rgb(0,0,0)" text-anchor="middle">2.2</text>
<polygon points="204.15,499.6 224.15,499.6 224.15,519.6 204.15,519.6" fill="rgb(252,194,1)"/><polygon points="204.15,499.6 224.15,499.6 224.15,519.6 204.15,519.6" fill="none" stroke="black" stroke-width="1"/><text xml:space="preserve" x="214.15" y="512.433" font-family="Calibri" font-size="7.5" fill="rgb(0,0,0)" text-anchor="middle">3.0</text>
<text xml:space="preserve" x="174.15" y="552.6" font-family="Calibri" font-size="8" text-anchor="middle">PANTHERclass</text>
<polygon points="124.15,559.6 144.15,559.6 144.15,579.6 124.15,579.6" fill="rgb(255,255,255)"/><polygon points="124.15,559.6 144.15,559.6 144.15,579.6 124.15,579.6" fill="none" stroke="black" stroke-width="1"/><text xml:space="preserve" x="134.15" y="572.433" font-family="Calibri" font-size="7.5" fill="rgb(0,0,0)" text-anchor="middle">0.0</text>
<polygon points="144.15,559.6 164.15,559.6 164.15,579.6 144.15,579.6" fill="rgb(242,191,242)"/><polygon points="144.15,559.6 164.15,559.6 164.15,579.6 144.15,579.6" fill="none" stroke="black" stroke-width="1"/><text xml:space="preserve" x="154.15" y="572.433" font-family="Calibri" font-size="7.5" fill="rgb(0,0,0)" text-anchor="middle">0.2</text>
<polygon points="164.15,559.6 184.15,559.6 184.15,579.6 164.15,579.6" fill="rgb(230,127,230)"/><polygon points="164.15,559.6 184.15,559.6 184.15,579.6 164.15,579.6" fill="none" stroke="black" stroke-width="1"/><text xml:space="preserve" x="174.15" y="572.433" font-family="Calibri" font-size="7.5" fill="rgb(0,0,0)" text-anchor="middle">0.5</text>
<polygon points="184.15,559.6 204.15,559.6 204.15,579.6 184.15,579.6" fill="rgb(217,63,217)"/><polygon points="184.15,559.6 204.15,559.6 204.15,579.6 184.15,579.6" fill="none" stroke="black" stroke-width="1"/><text xml:space="preserve" x="194.15" y="572.433" font-family="Calibri" font-size="7.5" fill="rgb(255,255,255)" text-anchor="middle">0.8</text>
<polygon points="204.15,559.6 224.15,559.6 224.15,579.6 204.15,579.6" fill="rgb(205,0,205)"/><polygon points="204.15,559.6 224.15,559.6 224.15,579.6 204.15,579.6" fill="none" stroke="black" stroke-width="1"/><text xml:space="preserve" x="214.15" y="572.433" font-family="Calibri" font-size="7.5" fill="rgb(255,255,255)" text-anchor="middle">1.0</text>
</svg>
