<?xml version="1.0" standalone="no"?><!DOCTYPE svg PUBLIC "-//W3C//DTD SVG 1.1//EN" "http://www.w3.org/Graphics/SVG/1.1/DTD/svg11.dtd">
<svg width="344.4" height="599.6" version="1.1" xmlns="http://www.w3.org/2000/svg">
<text xml:space="preserve" x="108.4" y="342.6" font-family="Calibri" font-size="8" text-anchor="end">ADAMTS9</text>
<text xml:space="preserve" x="108.4" y="350.6" font-family="Calibri" font-size="8" text-anchor="end">BARHL2</text>
<text xml:space="preserve" x="108.4" y="358.6" font-family="Calibri" font-size="8" text-anchor="end">TRPC6</text>
<text xml:space="preserve" x="108.4" y="366.6" font-family="Calibri" font-size="8" text-anchor="end">GUCA1C</text>
<text xml:space="preserve" x="108.4" y="374.6" font-family="Calibri" font-size="8" text-anchor="end">BARHL1</text>
<text xml:space="preserve" x="108.4" y="382.6" font-family="Calibri" font-size="8" text-anchor="end">CRH</text>
<text xml:space="preserve" x="108.4" y="390.6" font-family="Calibri" font-size="8" text-anchor="end">WIF1</text>
<text xml:space="preserve" x="108.4" y="398.6" font-family="Calibri" font-size="8" text-anchor="end">EYA4</text>
<text xml:space="preserve" x="119.4" y="331.6" font-family="Calibri" font-size="8" transform="rotate(270 119.4 331.6)">c2</text>
<text xml:space="preserve" x="127.4" y="331.6" font-family="Calibri" font-size="8" transform="rotate(270 127.4 331.6)">c3</text>
<text xml:space="preserve" x="135.4" y="331.6" font-family="Calibri" font-size="8" transform="rotate(270 135.4 331.6)">c6</text>
<text xml:space="preserve" x="143.4" y="331.6" font-family="Calibri" font-size="8" transform="rotate(270 143.4 331.6)">c4</text>
<text xml:space="preserve" x="151.4" y="331.6" font-family="Calibri" font-size="8" transform="rotate(270 151.4 331.6)">c1</text>
<text xml:space="preserve" x="159.4" y="331.6" font-family="Calibri" font-size="8" transform="rotate(270 159.4 331.6)">c5</text>
<text xml:space="preserve" x="167.4" y="331.6" font-family="Calibri" font-size="8" transform="rotate(270 167.4 331.6)">c7</text>
<text xml:space="preserve" x="175.4" y="331.6" font-family="Calibri" font-size="8" transform="rotate(270 175.4 331.6)">c8</text>
<text xml:space="preserve" x="193.4" y="331.6" font-family="Calibri" font-size="8" transform="rotate(270 193.4 331.6)">c2_mean</text>
<text xml:space="preserve" x="201.4" y="331.6" font-family="Calibri" font-size="8" transform="rotate(270 201.4 331.6)">c3_mean</text>
<text xml:space="preserve" x="209.4" y="331.6" font-family="Calibri" font-size="8" transform="rotate(270 209.4 331.6)">c6_mean</text>
<text xml:space="preserve" x="217.4" y="331.6" font-family="Calibri" font-size="8" transform="rotate(270 217.4 331.6)">c4_mean</text>
<text xml:space="preserve" x="225.4" y="331.6" font-family="Calibri" font-size="8" transform="rotate(270 225.4 331.6)">c1_mean</text>
<text xml:space="preserve" x="233.4" y="331.6" font-family="Calibri" font-size="8" transform="rotate(270 233.4 331.6)">c5_mean</text>
<text xml:space="preserve" x="241.4" y="331.6" font-family="Calibri" font-size="8" transform="rotate(270 241.4 331.6)">c7_mean</text>
<text xml:space="preserve" x="249.4" y="331.6" font-family="Calibri" font-size="8" transform="rotate(270 249.4 331.6)">c8_mean</text>
<text xml:space="preserve" x="267.4" y="331.6" font-family="Calibri" font-size="8" transform="rotate(270 267.4 331.6)">transcription_factor</text>
<text xml:space="preserve" x="275.4" y="331.6" font-family="Calibri" font-size="8" transform="rotate(270 275.4 331.6)">transmembrane_signal_receptor</text>
<text xml:space="preserve" x="283.4" y="331.6" font-family="Calibri" font-size="8" transform="rotate(270 283.4 331.6)">growth_factor</text>
<text xml:space="preserve" x="291.4" y="331.6" font-family="Calibri" font-size="8" transform="rotate(270 291.4 331.6)">peptide_hormone</text>
<text xml:space="preserve" x="299.4" y="331.6" font-family="Calibri" font-size="8" transform="rotate(270 299.4 331.6)">cytoskeletal_protein</text>
<text xml:space="preserve" x="307.4" y="331.6" font-family="Calibri" font-size="8" transform="rotate(270 307.4 331.6)">ion_channel</text>
<text xml:space="preserve" x="315.4" y="331.6" font-family="Calibri" font-size="8" transform="rotate(270 315.4 331.6)">integrin</text>
<text xml:space="preserve" x="323.4" y="331.6" font-family="Calibri" font-size="8" transform="rotate(270 323.4 331.6)">extracellular_matrix_protein</text>
<polygon points="112.4,335.6 120.4,335.6 120.4,343.6 112.4,343.6" fill="rgb(0,205,0)"/><text xml:space="preserve" x="116.4" y="342.433" font-family="Calibri" font-size="7.5" fill="rgb(255,255,255)" text-anchor="middle">1</text>
<polygon points="120.4,335.6 128.4,335.6 128.4,343.6 120.4,343.6" fill="rgb(0,205,0)"/><text xml:space="preserve" x="124.4" y="342.433" font-family="Calibri" font-size="7.5" fill="rgb(255,255,255)" text-anchor="middle">1</text>
<polygon points="128.4,335.6 136.4,335.6 136.4,343.6 128.4,343.6" fill="rgb(0,205,0)"/><text xml:space="preserve" x="132.4" y="342.433" font-family="Calibri" font-size="7.5" fill="rgb(255,255,255)" text-anchor="middle">1</text>
<polygon points="136.4,335.6 144.4,335.6 144.4,343.6 136.4,343.6" fill="rgb(0,205,0)"/><text xml:space="preserve" x="140.4" y="342.433" font-family="Calibri" font-size="7.5" fill="rgb(255,255,255)" text-anchor="middle">1</text>
<polygon points="144.4,335.6 152.4,335.6 152.4,343.6 144.4,343.6" fill="rgb(0,205,0)"/><text xml:space="preserve" x="148.4" y="342.433" font-family="Calibri" font-size="7.5" fill="rgb(255,255,255)" text-anchor="middle">1</text>
<polygon points="152.4,335.6 160.4,335.6 160.4,343.6 152.4,343.6" fill="rgb(205,0,0)"/><text xml:space="preserve" x="156.4" y="342.433" font-family="Calibri" font-size="7.5" fill="rgb(255,255,255)" text-anchor="middle">5</text>
<polygon points="160.4,335.6 168.4,335.6 168.4,343.6 160.4,343.6" fill="rgb(0,205,0)"/><text xml:space="preserve" x="164.4" y="342.433" font-family="Calibri" font-size="7.5" fill="rgb(255,255,255)" text-anchor="middle">1</text>
<polygon points="168.4,335.6 176.4,335.6 176.4,343.6 168.4,343.6" fill="rgb(0,205,0)"/><text xml:space="preserve" x="172.4" y="342.433" font-family="Calibri" font-size="7.5" fill="rgb(255,255,255)" text-anchor="middle">1</text>
<polygon points="186.4,335.6 194.4,335.6 194.4,343.6 186.4,343.6" fill="rgb(2,37,135)"/>
<polygon points="194.4,335.6 202.4,335.6 202.4,343.6 194.4,343.6" fill="rgb(4,44,136)"/>
<polygon points="202.4,335.6 210.4,335.6 210.4,343.6 202.4,343.6" fill="rgb(0,30,135)"/>
<polygon points="210.4,335.6 218.4,335.6 218.4,343.6 210.4,343.6" fill="rgb(2,38,135)"/>
<polygon points="218.4,335.6 226.4,335.6 226.4,343.6 218.4,343.6" fill="rgb(1,32,135)"/>
<polygon points="226.4,335.6 234.4,335.6 234.4,343.6 226.4,343.6" fill="rgb(85,214,119)"/>
<polygon points="234.4,335.6 242.4,335.6 242.4,343.6 234.4,343.6" fill="rgb(6,51,136)"/>
<polygon points="242.4,335.6 250.4,335.6 250.4,343.6 242.4,343.6" fill="rgb(2,38,135)"/>
<polygon points="260.4,335.6 268.4,335.6 268.4,343.6 260.4,343.6" fill="rgb(255,255,255)"/>
<polygon points="268.4,335.6 276.4,335.6 276.4,343.6 268.4,343.6" fill="rgb(255,255,255)"/>
<polygon points="276.4,335.6 284.4,335.6 284.4,343.6 276.4,343.6" fill="rgb(255,255,255)"/>
<polygon points="284.4,335.6 292.4,335.6 292.4,343.6 284.4,343.6" fill="rgb(255,255,255)"/>
<polygon points="292.4,335.6 300.4,335.6 300.4,343.6 292.4,343.6" fill="rgb(255,255,255)"/>
<polygon points="300.4,335.6 308.4,335.6 308.4,343.6 300.4,343.6" fill="rgb(255,255,255)"/>
<polygon points="308.4,335.6 316.4,335.6 316.4,343.6 308.4,343.6" fill="rgb(255,255,255)"/>
<polygon points="316.4,335.6 324.4,335.6 324.4,343.6 316.4,343.6" fill="rgb(255,255,255)"/>
<polygon points="112.4,343.6 120.4,343.6 120.4,351.6 112.4,351.6" fill="rgb(0,205,0)"/><text xml:space="preserve" x="116.4" y="350.433" font-family="Calibri" font-size="7.5" fill="rgb(255,255,255)" text-anchor="middle">1</text>
<polygon points="120.4,343.6 128.4,343.6 128.4,351.6 120.4,351.6" fill="rgb(0,205,0)"/><text xml:space="preserve" x="124.4" y="350.433" font-family="Calibri" font-size="7.5" fill="rgb(255,255,255)" text-anchor="middle">1</text>
<polygon points="128.4,343.6 136.4,343.6 136.4,351.6 128.4,351.6" fill="rgb(0,205,0)"/><text xml:space="preserve" x="132.4" y="350.433" font-family="Calibri" font-size="7.5" fill="rgb(255,255,255)" text-anchor="middle">1</text>
<polygon points="136.4,343.6 144.4,343.6 144.4,351.6 136.4,351.6" fill="rgb(0,205,0)"/><text xml:space="preserve" x="140.4" y="350.433" font-family="Calibri" font-size="7.5" fill="rgb(255,255,255)" text-anchor="middle">1</text>
<polygon points="144.4,343.6 152.4,343.6 152.4,351.6 144.4,351.6" fill="rgb(0,205,0)"/><text xml:space="preserve" x="148.4" y="350.433" font-family="Calibri" font-size="7.5" fill="rgb(255,255,255)" text-anchor="middle">1</text>
<polygon points="152.4,343.6 160.4,343.6 160.4,351.6 152.4,351.6" fill="rgb(205,0,0)"/><text xml:space="preserve" x="156.4" y="350.433" font-family="Calibri" font-size="7.5" fill="rgb(255,255,255)" text-anchor="middle">5</text>
<polygon points="160.4,343.6 168.4,343.6 168.4,351.6 160.4,351.6" fill="rgb(0,205,0)"/><text xml:space="preserve" x="164.4" y="350.433" font-family="Calibri" font-size="7.5" fill="rgb(255,255,255)" text-anchor="middle">1</text>
<polygon points="168.4,343.6 176.4,343.6 176.4,351.6 168.4,351.6" fill="rgb(0,205,0)"/><text xml:space="preserve" x="172.4" y="350.433" font-family="Calibri" font-size="7.5" fill="rgb(255,255,255)" text-anchor="middle">1</text>
<polygon points="186.4,343.6 194.4,343.6 194.4,351.6 186.4,351.6" fill="rgb(0,30,135)"/>
<polygon points="194.4,343.6 202.4,343.6 202.4,351.6 194.4,351.6" fill="rgb(0,29,135)"/>
<polygon points="202.4,343.6 210.4,343.6 210.4,351.6 202.4,351.6" fill="rgb(0,27,135)"/>
<polygon points="210.4,343.6 218.4,343.6 218.4,351.6 210.4,351.6" fill="rgb(0,30,135)"/>
<polygon points="218.4,343.6 226.4,343.6 226.4,351.6 218.4,351.6" fill="rgb(1,34,135)"/>
<polygon points="226.4,343.6 234.4,343.6 234.4,351.6 226.4,351.6" fill="rgb(252,194,1)"/>
<polygon points="234.4,343.6 242.4,343.6 242.4,351.6 234.4,351.6" fill="rgb(4,43,135)"/>
<polygon points="242.4,343.6 250.4,343.6 250.4,351.6 242.4,351.6" fill="rgb(2,37,135)"/>
<polygon points="260.4,343.6 268.4,343.6 268.4,351.6 260.4,351.6" fill="rgb(205,0,205)"/>
<polygon points="268.4,343.6 276.4,343.6 276.4,351.6 268.4,351.6" fill="rgb(255,255,255)"/>
<polygon points="276.4,343.6 284.4,343.6 284.4,351.6 276.4,351.6" fill="rgb(255,255,255)"/>
<polygon points="284.4,343.6 292.4,343.6 292.4,351.6 284.4,351.6" fill="rgb(255,255,255)"/>
<polygon points="292.4,343.6 300.4,343.6 300.4,351.6 292.4,351.6" fill="rgb(255,255,255)"/>
<polygon points="300.4,343.6 308.4,343.6 308.4,351.6 300.4,351.6" fill="rgb(255,255,255)"/>
<polygon points="308.4,343.6 316.4,343.6 316.4,351.6 308.4,351.6" fill="rgb(255,255,255)"/>
<polygon points="316.4,343.6 324.4,343.6 324.4,351.6 316.4,351.6" fill="rgb(255,255,255)"/>
<polygon points="112.4,351.6 120.4,351.6 120.4,359.6 112.4,359.6" fill="rgb(0,205,0)"/><text xml:space="preserve" x="116.4" y="358.433" font-family="Calibri" font-size="7.5" fill="rgb(255,255,255)" text-anchor="middle">1</text>
<polygon points="120.4,351.6 128.4,351.6 128.4,359.6 120.4,359.6" fill="rgb(0,205,0)"/><text xml:space="preserve" x="124.4" y="358.433" font-family="Calibri" font-size="7.5" fill="rgb(255,255,255)" text-anchor="middle">1</text>
<polygon points="128.4,351.6 136.4,351.6 136.4,359.6 128.4,359.6" fill="rgb(0,205,0)"/><text xml:space="preserve" x="132.4" y="358.433" font-family="Calibri" font-size="7.5" fill="rgb(255,255,255)" text-anchor="middle">1</text>
<polygon points="136.4,351.6 144.4,351.6 144.4,359.6 136.4,359.6" fill="rgb(0,205,0)"/><text xml:space="preserve" x="140.4" y="358.433" font-family="Calibri" font-size="7.5" fill="rgb(255,255,255)" text-anchor="middle">1</text>
<polygon points="144.4,351.6 152.4,351.6 152.4,359.6 144.4,359.6" fill="rgb(0,205,0)"/><text xml:space="preserve" x="148.4" y="358.433" font-family="Calibri" font-size="7.5" fill="rgb(255,255,255)" text-anchor="middle">1</text>
<polygon points="152.4,351.6 160.4,351.6 160.4,359.6 152.4,359.6" fill="rgb(205,0,0)"/><text xml:space="preserve" x="156.4" y="358.433" font-family="Calibri" font-size="7.5" fill="rgb(255,255,255)" text-anchor="middle">5</text>
<polygon points="160.4,351.6 168.4,351.6 168.4,359.6 160.4,359.6" fill="rgb(0,205,0)"/><text xml:space="preserve" x="164.4" y="358.433" font-family="Calibri" font-size="7.5" fill="rgb(255,255,255)" text-anchor="middle">1</text>
<polygon points="168.4,351.6 176.4,351.6 176.4,359.6 168.4,359.6" fill="rgb(0,205,0)"/><text xml:space="preserve" x="172.4" y="358.433" font-family="Calibri" font-size="7.5" fill="rgb(255,255,255)" text-anchor="middle">1</text>
<polygon points="186.4,351.6 194.4,351.6 194.4,359.6 186.4,359.6" fill="rgb(0,28,135)"/>
<polygon points="194.4,351.6 202.4,351.6 202.4,359.6 194.4,359.6" fill="rgb(0,27,135)"/>
<polygon points="202.4,351.6 210.4,351.6 210.4,359.6 202.4,359.6" fill="rgb(0,27,135)"/>
<polygon points="210.4,351.6 218.4,351.6 218.4,359.6 210.4,359.6" fill="rgb(0,30,135)"/>
<polygon points="218.4,351.6 226.4,351.6 226.4,359.6 218.4,359.6" fill="rgb(0,29,135)"/>
<polygon points="226.4,351.6 234.4,351.6 234.4,359.6 226.4,359.6" fill="rgb(97,213,111)"/>
<polygon points="234.4,351.6 242.4,351.6 242.4,359.6 234.4,359.6" fill="rgb(4,46,136)"/>
<polygon points="242.4,351.6 250.4,351.6 250.4,359.6 242.4,359.6" fill="rgb(2,35,135)"/>
<polygon points="260.4,351.6 268.4,351.6 268.4,359.6 260.4,359.6" fill="rgb(255,255,255)"/>
<polygon points="268.4,351.6 276.4,351.6 276.4,359.6 268.4,359.6" fill="rgb(255,255,255)"/>
<polygon points="276.4,351.6 284.4,351.6 284.4,359.6 276.4,359.6" fill="rgb(255,255,255)"/>
<polygon points="284.4,351.6 292.4,351.6 292.4,359.6 284.4,359.6" fill="rgb(255,255,255)"/>
<polygon points="292.4,351.6 300.4,351.6 300.4,359.6 292.4,359.6" fill="rgb(255,255,255)"/>
<polygon points="300.4,351.6 308.4,351.6 308.4,359.6 300.4,359.6" fill="rgb(205,0,205)"/>
<polygon points="308.4,351.6 316.4,351.6 316.4,359.6 308.4,359.6" fill="rgb(255,255,255)"/>
<polygon points="316.4,351.6 324.4,351.6 324.4,359.6 316.4,359.6" fill="rgb(255,255,255)"/>
<polygon points="112.4,359.6 120.4,359.6 120.4,367.6 112.4,367.6" fill="rgb(0,205,0)"/><text xml:space="preserve" x="116.4" y="366.433" font-family="Calibri" font-size="7.5" fill="rgb(255,255,255)" text-anchor="middle">1</text>
<polygon points="120.4,359.6 128.4,359.6 128.4,367.6 120.4,367.6" fill="rgb(0,205,0)"/><text xml:space="preserve" x="124.4" y="366.433" font-family="Calibri" font-size="7.5" fill="rgb(255,255,255)" text-anchor="middle">1</text>
<polygon points="128.4,359.6 136.4,359.6 136.4,367.6 128.4,367.6" fill="rgb(0,205,0)"/><text xml:space="preserve" x="132.4" y="366.433" font-family="Calibri" font-size="7.5" fill="rgb(255,255,255)" text-anchor="middle">1</text>
<polygon points="136.4,359.6 144.4,359.6 144.4,367.6 136.4,367.6" fill="rgb(0,205,0)"/><text xml:space="preserve" x="140.4" y="366.433" font-family="Calibri" font-size="7.5" fill="rgb(255,255,255)" text-anchor="middle">1</text>
<polygon points="144.4,359.6 152.4,359.6 152.4,367.6 144.4,367.6" fill="rgb(0,205,0)"/><text xml:space="preserve" x="148.4" y="366.433" font-family="Calibri" font-size="7.5" fill="rgb(255,255,255)" text-anchor="middle">1</text>
<polygon points="152.4,359.6 160.4,359.6 160.4,367.6 152.4,367.6" fill="rgb(205,0,0)"/><text xml:space="preserve" x="156.4" y="366.433" font-family="Calibri" font-size="7.5" fill="rgb(255,255,255)" text-anchor="middle">5</text>
<polygon points="160.4,359.6 168.4,359.6 168.4,367.6 160.4,367.6" fill="rgb(0,205,0)"/><text xml:space="preserve" x="164.4" y="366.433" font-family="Calibri" font-size="7.5" fill="rgb(255,255,255)" text-anchor="middle">1</text>
<polygon points="168.4,359.6 176.4,359.6 176.4,367.6 168.4,367.6" fill="rgb(0,205,0)"/><text xml:space="preserve" x="172.4" y="366.433" font-family="Calibri" font-size="7.5" fill="rgb(255,255,255)" text-anchor="middle">1</text>
<polygon points="186.4,359.6 194.4,359.6 194.4,367.6 186.4,367.6" fill="rgb(0,29,135)"/>
<polygon points="194.4,359.6 202.4,359.6 202.4,367.6 194.4,367.6" fill="rgb(0,28,135)"/>
<polygon points="202.4,359.6 210.4,359.6 210.4,367.6 202.4,367.6" fill="rgb(0,27,135)"/>
<polygon points="210.4,359.6 218.4,359.6 218.4,367.6 210.4,367.6" fill="rgb(0,27,135)"/>
<polygon points="218.4,359.6 226.4,359.6 226.4,367.6 218.4,367.6" fill="rgb(0,28,135)"/>
<polygon points="226.4,359.6 234.4,359.6 234.4,367.6 226.4,367.6" fill="rgb(193,201,42)"/>
<polygon points="234.4,359.6 242.4,359.6 242.4,367.6 234.4,367.6" fill="rgb(14,82,138)"/>
<polygon points="242.4,359.6 250.4,359.6 250.4,367.6 242.4,367.6" fill="rgb(5,48,136)"/>
<polygon points="260.4,359.6 268.4,359.6 268.4,367.6 260.4,367.6" fill="rgb(255,255,255)"/>
<polygon points="268.4,359.6 276.4,359.6 276.4,367.6 268.4,367.6" fill="rgb(255,255,255)"/>
<polygon points="276.4,359.6 284.4,359.6 284.4,367.6 276.4,367.6" fill="rgb(255,255,255)"/>
<polygon points="284.4,359.6 292.4,359.6 292.4,367.6 284.4,367.6" fill="rgb(255,255,255)"/>
<polygon points="292.4,359.6 300.4,359.6 300.4,367.6 292.4,367.6" fill="rgb(255,255,255)"/>
<polygon points="300.4,359.6 308.4,359.6 308.4,367.6 300.4,367.6" fill="rgb(255,255,255)"/>
<polygon points="308.4,359.6 316.4,359.6 316.4,367.6 308.4,367.6" fill="rgb(255,255,255)"/>
<polygon points="316.4,359.6 324.4,359.6 324.4,367.6 316.4,367.6" fill="rgb(255,255,255)"/>
<polygon points="112.4,367.6 120.4,367.6 120.4,375.6 112.4,375.6" fill="rgb(0,205,0)"/><text xml:space="preserve" x="116.4" y="374.433" font-family="Calibri" font-size="7.5" fill="rgb(255,255,255)" text-anchor="middle">1</text>
<polygon points="120.4,367.6 128.4,367.6 128.4,375.6 120.4,375.6" fill="rgb(0,205,0)"/><text xml:space="preserve" x="124.4" y="374.433" font-family="Calibri" font-size="7.5" fill="rgb(255,255,255)" text-anchor="middle">1</text>
<polygon points="128.4,367.6 136.4,367.6 136.4,375.6 128.4,375.6" fill="rgb(0,205,0)"/><text xml:space="preserve" x="132.4" y="374.433" font-family="Calibri" font-size="7.5" fill="rgb(255,255,255)" text-anchor="middle">1</text>
<polygon points="136.4,367.6 144.4,367.6 144.4,375.6 136.4,375.6" fill="rgb(0,205,0)"/><text xml:space="preserve" x="140.4" y="374.433" font-family="Calibri" font-size="7.5" fill="rgb(255,255,255)" text-anchor="middle">1</text>
<polygon points="144.4,367.6 152.4,367.6 152.4,375.6 144.4,375.6" fill="rgb(0,205,0)"/><text xml:space="preserve" x="148.4" y="374.433" font-family="Calibri" font-size="7.5" fill="rgb(255,255,255)" text-anchor="middle">1</text>
<polygon points="152.4,367.6 160.4,367.6 160.4,375.6 152.4,375.6" fill="rgb(205,0,0)"/><text xml:space="preserve" x="156.4" y="374.433" font-family="Calibri" font-size="7.5" fill="rgb(255,255,255)" text-anchor="middle">5</text>
<polygon points="160.4,367.6 168.4,367.6 168.4,375.6 160.4,375.6" fill="rgb(0,205,0)"/><text xml:space="preserve" x="164.4" y="374.433" font-family="Calibri" font-size="7.5" fill="rgb(255,255,255)" text-anchor="middle">1</text>
<polygon points="168.4,367.6 176.4,367.6 176.4,375.6 168.4,375.6" fill="rgb(0,205,0)"/><text xml:space="preserve" x="172.4" y="374.433" font-family="Calibri" font-size="7.5" fill="rgb(255,255,255)" text-anchor="middle">1</text>
<polygon points="186.4,367.6 194.4,367.6 194.4,375.6 186.4,375.6" fill="rgb(0,30,135)"/>
<polygon points="194.4,367.6 202.4,367.6 202.4,375.6 194.4,375.6" fill="rgb(0,29,135)"/>
<polygon points="202.4,367.6 210.4,367.6 210.4,375.6 202.4,375.6" fill="rgb(0,27,135)"/>
<polygon points="210.4,367.6 218.4,367.6 218.4,375.6 210.4,375.6" fill="rgb(1,34,135)"/>
<polygon points="218.4,367.6 226.4,367.6 226.4,375.6 218.4,375.6" fill="rgb(1,33,135)"/>
<polygon points="226.4,367.6 234.4,367.6 234.4,375.6 226.4,375.6" fill="rgb(252,194,1)"/>
<polygon points="234.4,367.6 242.4,367.6 242.4,375.6 234.4,375.6" fill="rgb(3,42,135)"/>
<polygon points="242.4,367.6 250.4,367.6 250.4,375.6 242.4,375.6" fill="rgb(3,41,135)"/>
<polygon points="260.4,367.6 268.4,367.6 268.4,375.6 260.4,375.6" fill="rgb(205,0,205)"/>
<polygon points="268.4,367.6 276.4,367.6 276.4,375.6 268.4,375.6" fill="rgb(255,255,255)"/>
<polygon points="276.4,367.6 284.4,367.6 284.4,375.6 276.4,375.6" fill="rgb(255,255,255)"/>
<polygon points="284.4,367.6 292.4,367.6 292.4,375.6 284.4,375.6" fill="rgb(255,255,255)"/>
<polygon points="292.4,367.6 300.4,367.6 300.4,375.6 292.4,375.6" fill="rgb(255,255,255)"/>
<polygon points="300.4,367.6 308.4,367.6 308.4,375.6 300.4,375.6" fill="rgb(255,255,255)"/>
<polygon points="308.4,367.6 316.4,367.6 316.4,375.6 308.4,375.6" fill="rgb(255,255,255)"/>
<polygon points="316.4,367.6 324.4,367.6 324.4,375.6 316.4,375.6" fill="rgb(255,255,255)"/>
<polygon points="112.4,375.6 120.4,375.6 120.4,383.6 112.4,383.6" fill="rgb(0,205,0)"/><text xml:space="preserve" x="116.4" y="382.433" font-family="Calibri" font-size="7.5" fill="rgb(255,255,255)" text-anchor="middle">1</text>
<polygon points="120.4,375.6 128.4,375.6 128.4,383.6 120.4,383.6" fill="rgb(0,205,0)"/><text xml:space="preserve" x="124.4" y="382.433" font-family="Calibri" font-size="7.5" fill="rgb(255,255,255)" text-anchor="middle">1</text>
<polygon points="128.4,375.6 136.4,375.6 136.4,383.6 128.4,383.6" fill="rgb(0,205,0)"/><text xml:space="preserve" x="132.4" y="382.433" font-family="Calibri" font-size="7.5" fill="rgb(255,255,255)" text-anchor="middle">1</text>
<polygon points="136.4,375.6 144.4,375.6 144.4,383.6 136.4,383.6" fill="rgb(0,205,0)"/><text xml:space="preserve" x="140.4" y="382.433" font-family="Calibri" font-size="7.5" fill="rgb(255,255,255)" text-anchor="middle">1</text>
<polygon points="144.4,375.6 152.4,375.6 152.4,383.6 144.4,383.6" fill="rgb(0,205,0)"/><text xml:space="preserve" x="148.4" y="382.433" font-family="Calibri" font-size="7.5" fill="rgb(255,255,255)" text-anchor="middle">1</text>
<polygon points="152.4,375.6 160.4,375.6 160.4,383.6 152.4,383.6" fill="rgb(205,0,0)"/><text xml:space="preserve" x="156.4" y="382.433" font-family="Calibri" font-size="7.5" fill="rgb(255,255,255)" text-anchor="middle">5</text>
<polygon points="160.4,375.6 168.4,375.6 168.4,383.6 160.4,383.6" fill="rgb(0,205,0)"/><text xml:space="preserve" x="164.4" y="382.433" font-family="Calibri" font-size="7.5" fill="rgb(255,255,255)" text-anchor="middle">1</text>
<polygon points="168.4,375.6 176.4,375.6 176.4,383.6 168.4,383.6" fill="rgb(0,205,0)"/><text xml:space="preserve" x="172.4" y="382.433" font-family="Calibri" font-size="7.5" fill="rgb(255,255,255)" text-anchor="middle">1</text>
<polygon points="186.4,375.6 194.4,375.6 194.4,383.6 186.4,383.6" fill="rgb(11,73,137)"/>
<polygon points="194.4,375.6 202.4,375.6 202.4,383.6 194.4,383.6" fill="rgb(1,33,135)"/>
<polygon points="202.4,375.6 210.4,375.6 210.4,383.6 202.4,383.6" fill="rgb(0,29,135)"/>
<polygon points="210.4,375.6 218.4,375.6 218.4,383.6 210.4,383.6" fill="rgb(0,29,135)"/>
<polygon points="218.4,375.6 226.4,375.6 226.4,383.6 218.4,383.6" fill="rgb(0,28,135)"/>
<polygon points="226.4,375.6 234.4,375.6 234.4,383.6 226.4,383.6" fill="rgb(78,215,124)"/>
<polygon points="234.4,375.6 242.4,375.6 242.4,383.6 234.4,383.6" fill="rgb(0,28,135)"/>
<polygon points="242.4,375.6 250.4,375.6 250.4,383.6 242.4,383.6" fill="rgb(0,28,135)"/>
<polygon points="260.4,375.6 268.4,375.6 268.4,383.6 260.4,383.6" fill="rgb(255,255,255)"/>
<polygon points="268.4,375.6 276.4,375.6 276.4,383.6 268.4,383.6" fill="rgb(255,255,255)"/>
<polygon points="276.4,375.6 284.4,375.6 284.4,383.6 276.4,383.6" fill="rgb(255,255,255)"/>
<polygon points="284.4,375.6 292.4,375.6 292.4,383.6 284.4,383.6" fill="rgb(205,0,205)"/>
<polygon points="292.4,375.6 300.4,375.6 300.4,383.6 292.4,383.6" fill="rgb(255,255,255)"/>
<polygon points="300.4,375.6 308.4,375.6 308.4,383.6 300.4,383.6" fill="rgb(255,255,255)"/>
<polygon points="308.4,375.6 316.4,375.6 316.4,383.6 308.4,383.6" fill="rgb(255,255,255)"/>
<polygon points="316.4,375.6 324.4,375.6 324.4,383.6 316.4,383.6" fill="rgb(255,255,255)"/>
<polygon points="112.4,383.6 120.4,383.6 120.4,391.6 112.4,391.6" fill="rgb(0,205,0)"/><text xml:space="preserve" x="116.4" y="390.433" font-family="Calibri" font-size="7.5" fill="rgb(255,255,255)" text-anchor="middle">1</text>
<polygon points="120.4,383.6 128.4,383.6 128.4,391.6 120.4,391.6" fill="rgb(0,205,0)"/><text xml:space="preserve" x="124.4" y="390.433" font-family="Calibri" font-size="7.5" fill="rgb(255,255,255)" text-anchor="middle">1</text>
<polygon points="128.4,383.6 136.4,383.6 136.4,391.6 128.4,391.6" fill="rgb(0,205,0)"/><text xml:space="preserve" x="132.4" y="390.433" font-family="Calibri" font-size="7.5" fill="rgb(255,255,255)" text-anchor="middle">1</text>
<polygon points="136.4,383.6 144.4,383.6 144.4,391.6 136.4,391.6" fill="rgb(0,205,0)"/><text xml:space="preserve" x="140.4" y="390.433" font-family="Calibri" font-size="7.5" fill="rgb(255,255,255)" text-anchor="middle">1</text>
<polygon points="144.4,383.6 152.4,383.6 152.4,391.6 144.4,391.6" fill="rgb(0,205,0)"/><text xml:space="preserve" x="148.4" y="390.433" font-family="Calibri" font-size="7.5" fill="rgb(255,255,255)" text-anchor="middle">1</text>
<polygon points="152.4,383.6 160.4,383.6 160.4,391.6 152.4,391.6" fill="rgb(205,0,0)"/><text xml:space="preserve" x="156.4" y="390.433" font-family="Calibri" font-size="7.5" fill="rgb(255,255,255)" text-anchor="middle">5</text>
<polygon points="160.4,383.6 168.4,383.6 168.4,391.6 160.4,391.6" fill="rgb(0,205,0)"/><text xml:space="preserve" x="164.4" y="390.433" font-family="Calibri" font-size="7.5" fill="rgb(255,255,255)" text-anchor="middle">1</text>
<polygon points="168.4,383.6 176.4,383.6 176.4,391.6 168.4,391.6" fill="rgb(0,205,0)"/><text xml:space="preserve" x="172.4" y="390.433" font-family="Calibri" font-size="7.5" fill="rgb(255,255,255)" text-anchor="middle">1</text>
<polygon points="186.4,383.6 194.4,383.6 194.4,391.6 186.4,391.6" fill="rgb(1,32,135)"/>
<polygon points="194.4,383.6 202.4,383.6 202.4,391.6 194.4,391.6" fill="rgb(0,29,135)"/>
<polygon points="202.4,383.6 210.4,383.6 210.4,391.6 202.4,391.6" fill="rgb(0,27,135)"/>
<polygon points="210.4,383.6 218.4,383.6 218.4,391.6 210.4,391.6" fill="rgb(1,32,135)"/>
<polygon points="218.4,383.6 226.4,383.6 226.4,391.6 218.4,391.6" fill="rgb(0,30,135)"/>
<polygon points="226.4,383.6 234.4,383.6 234.4,391.6 226.4,391.6" fill="rgb(113,211,99)"/>
<polygon points="234.4,383.6 242.4,383.6 242.4,391.6 234.4,391.6" fill="rgb(14,84,138)"/>
<polygon points="242.4,383.6 250.4,383.6 250.4,391.6 242.4,391.6" fill="rgb(1,32,135)"/>
<polygon points="260.4,383.6 268.4,383.6 268.4,391.6 260.4,391.6" fill="rgb(255,255,255)"/>
<polygon points="268.4,383.6 276.4,383.6 276.4,391.6 268.4,391.6" fill="rgb(255,255,255)"/>
<polygon points="276.4,383.6 284.4,383.6 284.4,391.6 276.4,391.6" fill="rgb(255,255,255)"/>
<polygon points="284.4,383.6 292.4,383.6 292.4,391.6 284.4,391.6" fill="rgb(255,255,255)"/>
<polygon points="292.4,383.6 300.4,383.6 300.4,391.6 292.4,391.6" fill="rgb(255,255,255)"/>
<polygon points="300.4,383.6 308.4,383.6 308.4,391.6 300.4,391.6" fill="rgb(255,255,255)"/>
<polygon points="308.4,383.6 316.4,383.6 316.4,391.6 308.4,391.6" fill="rgb(255,255,255)"/>
<polygon points="316.4,383.6 324.4,383.6 324.4,391.6 316.4,391.6" fill="rgb(255,255,255)"/>
<polygon points="112.4,391.6 120.4,391.6 120.4,399.6 112.4,399.6" fill="rgb(0,205,0)"/><text xml:space="preserve" x="116.4" y="398.433" font-family="Calibri" font-size="7.5" fill="rgb(255,255,255)" text-anchor="middle">1</text>
<polygon points="120.4,391.6 128.4,391.6 128.4,399.6 120.4,399.6" fill="rgb(0,205,0)"/><text xml:space="preserve" x="124.4" y="398.433" font-family="Calibri" font-size="7.5" fill="rgb(255,255,255)" text-anchor="middle">1</text>
<polygon points="128.4,391.6 136.4,391.6 136.4,399.6 128.4,399.6" fill="rgb(0,205,0)"/><text xml:space="preserve" x="132.4" y="398.433" font-family="Calibri" font-size="7.5" fill="rgb(255,255,255)" text-anchor="middle">1</text>
<polygon points="136.4,391.6 144.4,391.6 144.4,399.6 136.4,399.6" fill="rgb(0,205,0)"/><text xml:space="preserve" x="140.4" y="398.433" font-family="Calibri" font-size="7.5" fill="rgb(255,255,255)" text-anchor="middle">1</text>
<polygon points="144.4,391.6 152.4,391.6 152.4,399.6 144.4,399.6" fill="rgb(0,205,0)"/><text xml:space="preserve" x="148.4" y="398.433" font-family="Calibri" font-size="7.5" fill="rgb(255,255,255)" text-anchor="middle">1</text>
<polygon points="152.4,391.6 160.4,391.6 160.4,399.6 152.4,399.6" fill="rgb(205,0,0)"/><text xml:space="preserve" x="156.4" y="398.433" font-family="Calibri" font-size="7.5" fill="rgb(255,255,255)" text-anchor="middle">5</text>
<polygon points="160.4,391.6 168.4,391.6 168.4,399.6 160.4,399.6" fill="rgb(0,205,0)"/><text xml:space="preserve" x="164.4" y="398.433" font-family="Calibri" font-size="7.5" fill="rgb(255,255,255)" text-anchor="middle">1</text>
<polygon points="168.4,391.6 176.4,391.6 176.4,399.6 168.4,399.6" fill="rgb(0,205,0)"/><text xml:space="preserve" x="172.4" y="398.433" font-family="Calibri" font-size="7.5" fill="rgb(255,255,255)" text-anchor="middle">1</text>
<polygon points="186.4,391.6 194.4,391.6 194.4,399.6 186.4,399.6" fill="rgb(0,29,135)"/>
<polygon points="194.4,391.6 202.4,391.6 202.4,399.6 194.4,399.6" fill="rgb(0,27,135)"/>
<polygon points="202.4,391.6 210.4,391.6 210.4,399.6 202.4,399.6" fill="rgb(0,28,135)"/>
<polygon points="210.4,391.6 218.4,391.6 218.4,399.6 210.4,399.6" fill="rgb(10,67,137)"/>
<polygon points="218.4,391.6 226.4,391.6 226.4,399.6 218.4,399.6" fill="rgb(0,29,135)"/>
<polygon points="226.4,391.6 234.4,391.6 234.4,399.6 226.4,399.6" fill="rgb(63,217,135)"/>
<polygon points="234.4,391.6 242.4,391.6 242.4,399.6 234.4,399.6" fill="rgb(1,34,135)"/>
<polygon points="242.4,391.6 250.4,391.6 250.4,399.6 242.4,399.6" fill="rgb(1,34,135)"/>
<polygon points="260.4,391.6 268.4,391.6 268.4,399.6 260.4,399.6" fill="rgb(255,255,255)"/>
<polygon points="268.4,391.6 276.4,391.6 276.4,399.6 268.4,399.6" fill="rgb(255,255,255)"/>
<polygon points="276.4,391.6 284.4,391.6 284.4,399.6 276.4,399.6" fill="rgb(255,255,255)"/>
<polygon points="284.4,391.6 292.4,391.6 292.4,399.6 284.4,399.6" fill="rgb(255,255,255)"/>
<polygon points="292.4,391.6 300.4,391.6 300.4,399.6 292.4,399.6" fill="rgb(255,255,255)"/>
<polygon points="300.4,391.6 308.4,391.6 308.4,399.6 300.4,399.6" fill="rgb(255,255,255)"/>
<polygon points="308.4,391.6 316.4,391.6 316.4,399.6 308.4,399.6" fill="rgb(255,255,255)"/>
<polygon points="316.4,391.6 324.4,391.6 324.4,399.6 316.4,399.6" fill="rgb(255,255,255)"/>
<polygon points="112.4,335.6 176.4,335.6 176.4,399.6 112.4,399.6" fill="none" stroke="black" stroke-width="1"/>
<polygon points="186.4,335.6 250.4,335.6 250.4,399.6 186.4,399.6" fill="none" stroke="black" stroke-width="1"/>
<polygon points="260.4,335.6 324.4,335.6 324.4,399.6 260.4,399.6" fill="none" stroke="black" stroke-width="1"/>
<text xml:space="preserve" x="172.2" y="432.6" font-family="Calibri" font-size="8" text-anchor="middle">ClusterAssignment</text>
<polygon points="122.2,439.6 142.2,439.6 142.2,459.6 122.2,459.6" fill="rgb(0,205,0)"/><polygon points="122.2,439.6 142.2,439.6 142.2,459.6 122.2,459.6" fill="none" stroke="black" stroke-width="1"/><text xml:space="preserve" x="132.2" y="452.433" font-family="Calibri" font-size="7.5" fill="rgb(255,255,255)" text-anchor="middle">1.0</text>
<polygon points="142.2,439.6 162.2,439.6 162.2,459.6 142.2,459.6" fill="rgb(127,230,0)"/><polygon points="142.2,439.6 162.2,439.6 162.2,459.6 142.2,459.6" fill="none" stroke="black" stroke-width="1"/><text xml:space="preserve" x="152.2" y="452.433" font-family="Calibri" font-size="7.5" fill="rgb(0,0,0)" text-anchor="middle">2.0</text>
<polygon points="162.2,439.6 182.2,439.6 182.2,459.6 162.2,459.6" fill="rgb(255,255,0)"/><polygon points="162.2,439.6 182.2,439.6 182.2,459.6 162.2,459.6" fill="none" stroke="black" stroke-width="1"/><text xml:space="preserve" x="172.2" y="452.433" font-family="Calibri" font-size="7.5" fill="rgb(0,0,0)" text-anchor="middle">3.0</text>
<polygon points="182.2,439.6 202.2,439.6 202.2,459.6 182.2,459.6" fill="rgb(230,127,0)"/><polygon points="182.2,439.6 202.2,439.6 202.2,459.6 182.2,459.6" fill="none" stroke="black" stroke-width="1"/><text xml:space="preserve" x="192.2" y="452.433" font-family="Calibri" font-size="7.5" fill="rgb(0,0,0)" text-anchor="middle">4.0</text>
<polygon points="202.2,439.6 222.2,439.6 222.2,459.6 202.2,459.6" fill="rgb(205,0,0)"/><polygon points="202.2,439.6 222.2,439.6 222.2,459.6 202.2,459.6" fill="none" stroke="black" stroke-width="1"/><text xml:space="preserve" x="212.2" y="452.433" font-family="Calibri" font-size="7.5" fill="rgb(255,255,255)" text-anchor="middle">5.0</text>
<text xml:space="preserve" x="172.2" y="492.6" font-family="Calibri" font-size="8" text-anchor="middle">Expression</text>
<polygon points="122.2,499.6 142.2,499.6 142.2,519.6 122.2,519.6" fill="rgb(0,27,135)"/><polygon points="122.2,499.6 142.2,499.6 142.2,519.6 122.2,519.6" fill="none" stroke="black" stroke-width="1"/><text xml:space="preserve" x="132.2" y="512.433" font-family="Calibri" font-size="7.5" fill="rgb(255,255,255)" text-anchor="middle">0.0</text>
<polygon points="142.2,499.6 162.2,499.6 162.2,519.6 142.2,519.6" fill="rgb(24,123,140)"/><polygon points="142.2,499.6 162.2,499.6 162.2,519.6 142.2,519.6" fill="none" stroke="black" stroke-width="1"/><text xml:space="preserve" x="152.2" y="512.433" font-family="Calibri" font-size="7.5" fill="rgb(255,255,255)" text-anchor="middle">0.8</text>
<polygon points="162.2,499.6 182.2,499.6 182.2,519.6 162.2,519.6" fill="rgb(49,219,146)"/><polygon points="162.2,499.6 182.2,499.6 182.2,519.6 162.2,519.6" fill="none" stroke="black" stroke-width="1"/><text xml:space="preserve" x="172.2" y="512.433" font-family="Calibri" font-size="7.5" fill="rgb(0,0,0)" text-anchor="middle">1.5</text>
<polygon points="182.2,499.6 202.2,499.6 202.2,519.6 182.2,519.6" fill="rgb(150,206,73)"/><polygon points="182.2,499.6 202.2,499.6 202.2,519.6 182.2,519.6" fill="none" stroke="black" stroke-width="1"/><text xml:space="preserve" x="192.2" y="512.433" font-family="Calibri" font-size="7.5" fill="rgb(0,0,0)" text-anchor="middle">2.2</text>
<polygon points="202.2,499.6 222.2,499.6 222.2,519.6 202.2,519.6" fill="rgb(252,194,1)"/><polygon points="202.2,499.6 222.2,499.6 222.2,519.6 202.2,519.6" fill="none" stroke="black" stroke-width="1"/><text xml:space="preserve" x="212.2" y="512.433" font-family="Calibri" font-size="7.5" fill="rgb(0,0,0)" text-anchor="middle">3.0</text>
<text xml:space="preserve" x="172.2" y="552.6" font-family="Calibri" font-size="8" text-anchor="middle">PANTHERclass</text>
<polygon points="122.2,559.6 142.2,559.6 142.2,579.6 122.2,579.6" fill="rgb(255,255,255)"/><polygon points="122.2,559.6 142.2,559.6 142.2,579.6 122.2,579.6" fill="none" stroke="black" stroke-width="1"/><text xml:space="preserve" x="132.2" y="572.433" font-family="Calibri" font-size="7.5" fill="rgb(0,0,0)" text-anchor="middle">0.0</text>
<polygon points="142.2,559.6 162.2,559.6 162.2,579.6 142.2,579.6" fill="rgb(242,191,242)"/><polygon points="142.2,559.6 162.2,559.6 162.2,579.6 142.2,579.6" fill="none" stroke="black" stroke-width="1"/><text xml:space="preserve" x="152.2" y="572.433" font-family="Calibri" font-size="7.5" fill="rgb(0,0,0)" text-anchor="middle">0.2</text>
<polygon points="162.2,559.6 182.2,559.6 182.2,579.6 162.2,579.6" fill="rgb(230,127,230)"/><polygon points="162.2,559.6 182.2,559.6 182.2,579.6 162.2,579.6" fill="none" stroke="black" stroke-width="1"/><text xml:space="preserve" x="172.2" y="572.433" font-family="Calibri" font-size="7.5" fill="rgb(0,0,0)" text-anchor="middle">0.5</text>
<polygon points="182.2,559.6 202.2,559.6 202.2,579.6 182.2,579.6" fill="rgb(217,63,217)"/><polygon points="182.2,559.6 202.2,559.6 202.2,579.6 182.2,579.6" fill="none" stroke="black" stroke-width="1"/><text xml:space="preserve" x="192.2" y="572.433" font-family="Calibri" font-size="7.5" fill="rgb(255,255,255)" text-anchor="middle">0.8</text>
<polygon points="202.2,559.6 222.2,559.6 222.2,579.6 202.2,579.6" fill="rgb(205,0,205)"/><polygon points="202.2,559.6 222.2,559.6 222.2,579.6 202.2,579.6" fill="none" stroke="black" stroke-width="1"/><text xml:space="preserve" x="212.2" y="572.433" font-family="Calibri" font-size="7.5" fill="rgb(255,255,255)" text-anchor="middle">1.0</text>
</svg>
