<?xml version="1.0" standalone="no"?><!DOCTYPE svg PUBLIC "-//W3C//DTD SVG 1.1//EN" "http://www.w3.org/Graphics/SVG/1.1/DTD/svg11.dtd">
<svg width="333" height="583.6" version="1.1" xmlns="http://www.w3.org/2000/svg">
<text xml:space="preserve" x="97" y="342.6" font-family="Calibri" font-size="8" text-anchor="end">PCDH8</text>
<text xml:space="preserve" x="97" y="350.6" font-family="Calibri" font-size="8" text-anchor="end">RBFOX1</text>
<text xml:space="preserve" x="97" y="358.6" font-family="Calibri" font-size="8" text-anchor="end">SLC8A1</text>
<text xml:space="preserve" x="97" y="366.6" font-family="Calibri" font-size="8" text-anchor="end">SHD</text>
<text xml:space="preserve" x="97" y="374.6" font-family="Calibri" font-size="8" text-anchor="end">ZNF521</text>
<text xml:space="preserve" x="97" y="382.6" font-family="Calibri" font-size="8" text-anchor="end">ST6GAL2</text>
<text xml:space="preserve" x="108" y="331.6" font-family="Calibri" font-size="8" transform="rotate(270 108 331.6)">c2</text>
<text xml:space="preserve" x="116" y="331.6" font-family="Calibri" font-size="8" transform="rotate(270 116 331.6)">c3</text>
<text xml:space="preserve" x="124" y="331.6" font-family="Calibri" font-size="8" transform="rotate(270 124 331.6)">c6</text>
<text xml:space="preserve" x="132" y="331.6" font-family="Calibri" font-size="8" transform="rotate(270 132 331.6)">c4</text>
<text xml:space="preserve" x="140" y="331.6" font-family="Calibri" font-size="8" transform="rotate(270 140 331.6)">c1</text>
<text xml:space="preserve" x="148" y="331.6" font-family="Calibri" font-size="8" transform="rotate(270 148 331.6)">c5</text>
<text xml:space="preserve" x="156" y="331.6" font-family="Calibri" font-size="8" transform="rotate(270 156 331.6)">c7</text>
<text xml:space="preserve" x="164" y="331.6" font-family="Calibri" font-size="8" transform="rotate(270 164 331.6)">c8</text>
<text xml:space="preserve" x="182" y="331.6" font-family="Calibri" font-size="8" transform="rotate(270 182 331.6)">c2_mean</text>
<text xml:space="preserve" x="190" y="331.6" font-family="Calibri" font-size="8" transform="rotate(270 190 331.6)">c3_mean</text>
<text xml:space="preserve" x="198" y="331.6" font-family="Calibri" font-size="8" transform="rotate(270 198 331.6)">c6_mean</text>
<text xml:space="preserve" x="206" y="331.6" font-family="Calibri" font-size="8" transform="rotate(270 206 331.6)">c4_mean</text>
<text xml:space="preserve" x="214" y="331.6" font-family="Calibri" font-size="8" transform="rotate(270 214 331.6)">c1_mean</text>
<text xml:space="preserve" x="222" y="331.6" font-family="Calibri" font-size="8" transform="rotate(270 222 331.6)">c5_mean</text>
<text xml:space="preserve" x="230" y="331.6" font-family="Calibri" font-size="8" transform="rotate(270 230 331.6)">c7_mean</text>
<text xml:space="preserve" x="238" y="331.6" font-family="Calibri" font-size="8" transform="rotate(270 238 331.6)">c8_mean</text>
<text xml:space="preserve" x="256" y="331.6" font-family="Calibri" font-size="8" transform="rotate(270 256 331.6)">transcription_factor</text>
<text xml:space="preserve" x="264" y="331.6" font-family="Calibri" font-size="8" transform="rotate(270 264 331.6)">transmembrane_signal_receptor</text>
<text xml:space="preserve" x="272" y="331.6" font-family="Calibri" font-size="8" transform="rotate(270 272 331.6)">growth_factor</text>
<text xml:space="preserve" x="280" y="331.6" font-family="Calibri" font-size="8" transform="rotate(270 280 331.6)">peptide_hormone</text>
<text xml:space="preserve" x="288" y="331.6" font-family="Calibri" font-size="8" transform="rotate(270 288 331.6)">cytoskeletal_protein</text>
<text xml:space="preserve" x="296" y="331.6" font-family="Calibri" font-size="8" transform="rotate(270 296 331.6)">ion_channel</text>
<text xml:space="preserve" x="304" y="331.6" font-family="Calibri" font-size="8" transform="rotate(270 304 331.6)">integrin</text>
<text xml:space="preserve" x="312" y="331.6" font-family="Calibri" font-size="8" transform="rotate(270 312 331.6)">extracellular_matrix_protein</text>
<polygon points="101,335.6 109,335.6 109,343.6 101,343.6" fill="rgb(127,230,0)"/><text xml:space="preserve" x="105" y="342.433" font-family="Calibri" font-size="7.5" fill="rgb(0,0,0)" text-anchor="middle">2</text>
<polygon points="109,335.6 117,335.6 117,343.6 109,343.6" fill="rgb(127,230,0)"/><text xml:space="preserve" x="113" y="342.433" font-family="Calibri" font-size="7.5" fill="rgb(0,0,0)" text-anchor="middle">2</text>
<polygon points="117,335.6 125,335.6 125,343.6 117,343.6" fill="rgb(127,230,0)"/><text xml:space="preserve" x="121" y="342.433" font-family="Calibri" font-size="7.5" fill="rgb(0,0,0)" text-anchor="middle">2</text>
<polygon points="125,335.6 133,335.6 133,343.6 125,343.6" fill="rgb(230,127,0)"/><text xml:space="preserve" x="129" y="342.433" font-family="Calibri" font-size="7.5" fill="rgb(0,0,0)" text-anchor="middle">4</text>
<polygon points="133,335.6 141,335.6 141,343.6 133,343.6" fill="rgb(230,127,0)"/><text xml:space="preserve" x="137" y="342.433" font-family="Calibri" font-size="7.5" fill="rgb(0,0,0)" text-anchor="middle">4</text>
<polygon points="141,335.6 149,335.6 149,343.6 141,343.6" fill="rgb(230,127,0)"/><text xml:space="preserve" x="145" y="342.433" font-family="Calibri" font-size="7.5" fill="rgb(0,0,0)" text-anchor="middle">4</text>
<polygon points="149,335.6 157,335.6 157,343.6 149,343.6" fill="rgb(230,127,0)"/><text xml:space="preserve" x="153" y="342.433" font-family="Calibri" font-size="7.5" fill="rgb(0,0,0)" text-anchor="middle">4</text>
<polygon points="157,335.6 165,335.6 165,343.6 157,343.6" fill="rgb(230,127,0)"/><text xml:space="preserve" x="161" y="342.433" font-family="Calibri" font-size="7.5" fill="rgb(0,0,0)" text-anchor="middle">4</text>
<polygon points="175,335.6 183,335.6 183,343.6 175,343.6" fill="rgb(5,50,136)"/>
<polygon points="183,335.6 191,335.6 191,343.6 183,343.6" fill="rgb(6,53,136)"/>
<polygon points="191,335.6 199,335.6 199,343.6 191,343.6" fill="rgb(2,38,135)"/>
<polygon points="199,335.6 207,335.6 207,343.6 199,343.6" fill="rgb(26,129,140)"/>
<polygon points="207,335.6 215,335.6 215,343.6 207,343.6" fill="rgb(28,137,141)"/>
<polygon points="215,335.6 223,335.6 223,343.6 215,343.6" fill="rgb(34,161,142)"/>
<polygon points="223,335.6 231,335.6 231,343.6 223,343.6" fill="rgb(16,89,138)"/>
<polygon points="231,335.6 239,335.6 239,343.6 231,343.6" fill="rgb(24,123,140)"/>
<polygon points="249,335.6 257,335.6 257,343.6 249,343.6" fill="rgb(255,255,255)"/>
<polygon points="257,335.6 265,335.6 265,343.6 257,343.6" fill="rgb(255,255,255)"/>
<polygon points="265,335.6 273,335.6 273,343.6 265,343.6" fill="rgb(255,255,255)"/>
<polygon points="273,335.6 281,335.6 281,343.6 273,343.6" fill="rgb(255,255,255)"/>
<polygon points="281,335.6 289,335.6 289,343.6 281,343.6" fill="rgb(255,255,255)"/>
<polygon points="289,335.6 297,335.6 297,343.6 289,343.6" fill="rgb(255,255,255)"/>
<polygon points="297,335.6 305,335.6 305,343.6 297,343.6" fill="rgb(255,255,255)"/>
<polygon points="305,335.6 313,335.6 313,343.6 305,343.6" fill="rgb(255,255,255)"/>
<polygon points="101,343.6 109,343.6 109,351.6 101,351.6" fill="rgb(127,230,0)"/><text xml:space="preserve" x="105" y="350.433" font-family="Calibri" font-size="7.5" fill="rgb(0,0,0)" text-anchor="middle">2</text>
<polygon points="109,343.6 117,343.6 117,351.6 109,351.6" fill="rgb(127,230,0)"/><text xml:space="preserve" x="113" y="350.433" font-family="Calibri" font-size="7.5" fill="rgb(0,0,0)" text-anchor="middle">2</text>
<polygon points="117,343.6 125,343.6 125,351.6 117,351.6" fill="rgb(127,230,0)"/><text xml:space="preserve" x="121" y="350.433" font-family="Calibri" font-size="7.5" fill="rgb(0,0,0)" text-anchor="middle">2</text>
<polygon points="125,343.6 133,343.6 133,351.6 125,351.6" fill="rgb(230,127,0)"/><text xml:space="preserve" x="129" y="350.433" font-family="Calibri" font-size="7.5" fill="rgb(0,0,0)" text-anchor="middle">4</text>
<polygon points="133,343.6 141,343.6 141,351.6 133,351.6" fill="rgb(230,127,0)"/><text xml:space="preserve" x="137" y="350.433" font-family="Calibri" font-size="7.5" fill="rgb(0,0,0)" text-anchor="middle">4</text>
<polygon points="141,343.6 149,343.6 149,351.6 141,351.6" fill="rgb(230,127,0)"/><text xml:space="preserve" x="145" y="350.433" font-family="Calibri" font-size="7.5" fill="rgb(0,0,0)" text-anchor="middle">4</text>
<polygon points="149,343.6 157,343.6 157,351.6 149,351.6" fill="rgb(230,127,0)"/><text xml:space="preserve" x="153" y="350.433" font-family="Calibri" font-size="7.5" fill="rgb(0,0,0)" text-anchor="middle">4</text>
<polygon points="157,343.6 165,343.6 165,351.6 157,351.6" fill="rgb(230,127,0)"/><text xml:space="preserve" x="161" y="350.433" font-family="Calibri" font-size="7.5" fill="rgb(0,0,0)" text-anchor="middle">4</text>
<polygon points="175,343.6 183,343.6 183,351.6 175,351.6" fill="rgb(11,71,137)"/>
<polygon points="183,343.6 191,343.6 191,351.6 183,351.6" fill="rgb(8,60,136)"/>
<polygon points="191,343.6 199,343.6 199,351.6 191,351.6" fill="rgb(15,85,138)"/>
<polygon points="199,343.6 207,343.6 207,351.6 199,351.6" fill="rgb(22,114,139)"/>
<polygon points="207,343.6 215,343.6 215,351.6 207,351.6" fill="rgb(29,143,141)"/>
<polygon points="215,343.6 223,343.6 223,351.6 215,351.6" fill="rgb(21,112,139)"/>
<polygon points="223,343.6 231,343.6 231,351.6 223,351.6" fill="rgb(32,153,142)"/>
<polygon points="231,343.6 239,343.6 239,351.6 231,351.6" fill="rgb(37,174,143)"/>
<polygon points="249,343.6 257,343.6 257,351.6 249,351.6" fill="rgb(255,255,255)"/>
<polygon points="257,343.6 265,343.6 265,351.6 257,351.6" fill="rgb(255,255,255)"/>
<polygon points="265,343.6 273,343.6 273,351.6 265,351.6" fill="rgb(255,255,255)"/>
<polygon points="273,343.6 281,343.6 281,351.6 273,351.6" fill="rgb(255,255,255)"/>
<polygon points="281,343.6 289,343.6 289,351.6 281,351.6" fill="rgb(255,255,255)"/>
<polygon points="289,343.6 297,343.6 297,351.6 289,351.6" fill="rgb(255,255,255)"/>
<polygon points="297,343.6 305,343.6 305,351.6 297,351.6" fill="rgb(255,255,255)"/>
<polygon points="305,343.6 313,343.6 313,351.6 305,351.6" fill="rgb(255,255,255)"/>
<polygon points="101,351.6 109,351.6 109,359.6 101,359.6" fill="rgb(127,230,0)"/><text xml:space="preserve" x="105" y="358.433" font-family="Calibri" font-size="7.5" fill="rgb(0,0,0)" text-anchor="middle">2</text>
<polygon points="109,351.6 117,351.6 117,359.6 109,359.6" fill="rgb(127,230,0)"/><text xml:space="preserve" x="113" y="358.433" font-family="Calibri" font-size="7.5" fill="rgb(0,0,0)" text-anchor="middle">2</text>
<polygon points="117,351.6 125,351.6 125,359.6 117,359.6" fill="rgb(127,230,0)"/><text xml:space="preserve" x="121" y="358.433" font-family="Calibri" font-size="7.5" fill="rgb(0,0,0)" text-anchor="middle">2</text>
<polygon points="125,351.6 133,351.6 133,359.6 125,359.6" fill="rgb(230,127,0)"/><text xml:space="preserve" x="129" y="358.433" font-family="Calibri" font-size="7.5" fill="rgb(0,0,0)" text-anchor="middle">4</text>
<polygon points="133,351.6 141,351.6 141,359.6 133,359.6" fill="rgb(230,127,0)"/><text xml:space="preserve" x="137" y="358.433" font-family="Calibri" font-size="7.5" fill="rgb(0,0,0)" text-anchor="middle">4</text>
<polygon points="141,351.6 149,351.6 149,359.6 141,359.6" fill="rgb(230,127,0)"/><text xml:space="preserve" x="145" y="358.433" font-family="Calibri" font-size="7.5" fill="rgb(0,0,0)" text-anchor="middle">4</text>
<polygon points="149,351.6 157,351.6 157,359.6 149,359.6" fill="rgb(230,127,0)"/><text xml:space="preserve" x="153" y="358.433" font-family="Calibri" font-size="7.5" fill="rgb(0,0,0)" text-anchor="middle">4</text>
<polygon points="157,351.6 165,351.6 165,359.6 157,359.6" fill="rgb(230,127,0)"/><text xml:space="preserve" x="161" y="358.433" font-family="Calibri" font-size="7.5" fill="rgb(0,0,0)" text-anchor="middle">4</text>
<polygon points="175,351.6 183,351.6 183,359.6 175,359.6" fill="rgb(9,62,137)"/>
<polygon points="183,351.6 191,351.6 191,359.6 183,359.6" fill="rgb(10,67,137)"/>
<polygon points="191,351.6 199,351.6 199,359.6 191,359.6" fill="rgb(11,70,137)"/>
<polygon points="199,351.6 207,351.6 207,359.6 199,359.6" fill="rgb(25,128,140)"/>
<polygon points="207,351.6 215,351.6 215,359.6 207,359.6" fill="rgb(22,114,139)"/>
<polygon points="215,351.6 223,351.6 223,359.6 215,359.6" fill="rgb(31,149,142)"/>
<polygon points="223,351.6 231,351.6 231,359.6 223,359.6" fill="rgb(25,125,140)"/>
<polygon points="231,351.6 239,351.6 239,359.6 231,359.6" fill="rgb(28,138,141)"/>
<polygon points="249,351.6 257,351.6 257,359.6 249,359.6" fill="rgb(255,255,255)"/>
<polygon points="257,351.6 265,351.6 265,359.6 257,359.6" fill="rgb(255,255,255)"/>
<polygon points="265,351.6 273,351.6 273,359.6 265,359.6" fill="rgb(255,255,255)"/>
<polygon points="273,351.6 281,351.6 281,359.6 273,359.6" fill="rgb(255,255,255)"/>
<polygon points="281,351.6 289,351.6 289,359.6 281,359.6" fill="rgb(255,255,255)"/>
<polygon points="289,351.6 297,351.6 297,359.6 289,359.6" fill="rgb(255,255,255)"/>
<polygon points="297,351.6 305,351.6 305,359.6 297,359.6" fill="rgb(255,255,255)"/>
<polygon points="305,351.6 313,351.6 313,359.6 305,359.6" fill="rgb(255,255,255)"/>
<polygon points="101,359.6 109,359.6 109,367.6 101,367.6" fill="rgb(127,230,0)"/><text xml:space="preserve" x="105" y="366.433" font-family="Calibri" font-size="7.5" fill="rgb(0,0,0)" text-anchor="middle">2</text>
<polygon points="109,359.6 117,359.6 117,367.6 109,367.6" fill="rgb(127,230,0)"/><text xml:space="preserve" x="113" y="366.433" font-family="Calibri" font-size="7.5" fill="rgb(0,0,0)" text-anchor="middle">2</text>
<polygon points="117,359.6 125,359.6 125,367.6 117,367.6" fill="rgb(127,230,0)"/><text xml:space="preserve" x="121" y="366.433" font-family="Calibri" font-size="7.5" fill="rgb(0,0,0)" text-anchor="middle">2</text>
<polygon points="125,359.6 133,359.6 133,367.6 125,367.6" fill="rgb(230,127,0)"/><text xml:space="preserve" x="129" y="366.433" font-family="Calibri" font-size="7.5" fill="rgb(0,0,0)" text-anchor="middle">4</text>
<polygon points="133,359.6 141,359.6 141,367.6 133,367.6" fill="rgb(230,127,0)"/><text xml:space="preserve" x="137" y="366.433" font-family="Calibri" font-size="7.5" fill="rgb(0,0,0)" text-anchor="middle">4</text>
<polygon points="141,359.6 149,359.6 149,367.6 141,367.6" fill="rgb(230,127,0)"/><text xml:space="preserve" x="145" y="366.433" font-family="Calibri" font-size="7.5" fill="rgb(0,0,0)" text-anchor="middle">4</text>
<polygon points="149,359.6 157,359.6 157,367.6 149,367.6" fill="rgb(230,127,0)"/><text xml:space="preserve" x="153" y="366.433" font-family="Calibri" font-size="7.5" fill="rgb(0,0,0)" text-anchor="middle">4</text>
<polygon points="157,359.6 165,359.6 165,367.6 157,367.6" fill="rgb(230,127,0)"/><text xml:space="preserve" x="161" y="366.433" font-family="Calibri" font-size="7.5" fill="rgb(0,0,0)" text-anchor="middle">4</text>
<polygon points="175,359.6 183,359.6 183,367.6 175,367.6" fill="rgb(6,52,136)"/>
<polygon points="183,359.6 191,359.6 191,367.6 183,367.6" fill="rgb(16,91,138)"/>
<polygon points="191,359.6 199,359.6 199,367.6 191,367.6" fill="rgb(11,73,137)"/>
<polygon points="199,359.6 207,359.6 207,367.6 199,367.6" fill="rgb(31,148,141)"/>
<polygon points="207,359.6 215,359.6 215,367.6 207,367.6" fill="rgb(20,106,139)"/>
<polygon points="215,359.6 223,359.6 223,367.6 215,367.6" fill="rgb(25,126,140)"/>
<polygon points="223,359.6 231,359.6 231,367.6 223,367.6" fill="rgb(28,137,141)"/>
<polygon points="231,359.6 239,359.6 239,367.6 231,367.6" fill="rgb(32,152,142)"/>
<polygon points="249,359.6 257,359.6 257,367.6 249,367.6" fill="rgb(255,255,255)"/>
<polygon points="257,359.6 265,359.6 265,367.6 257,367.6" fill="rgb(255,255,255)"/>
<polygon points="265,359.6 273,359.6 273,367.6 265,367.6" fill="rgb(255,255,255)"/>
<polygon points="273,359.6 281,359.6 281,367.6 273,367.6" fill="rgb(255,255,255)"/>
<polygon points="281,359.6 289,359.6 289,367.6 281,367.6" fill="rgb(255,255,255)"/>
<polygon points="289,359.6 297,359.6 297,367.6 289,367.6" fill="rgb(255,255,255)"/>
<polygon points="297,359.6 305,359.6 305,367.6 297,367.6" fill="rgb(255,255,255)"/>
<polygon points="305,359.6 313,359.6 313,367.6 305,367.6" fill="rgb(255,255,255)"/>
<polygon points="101,367.6 109,367.6 109,375.6 101,375.6" fill="rgb(127,230,0)"/><text xml:space="preserve" x="105" y="374.433" font-family="Calibri" font-size="7.5" fill="rgb(0,0,0)" text-anchor="middle">2</text>
<polygon points="109,367.6 117,367.6 117,375.6 109,375.6" fill="rgb(127,230,0)"/><text xml:space="preserve" x="113" y="374.433" font-family="Calibri" font-size="7.5" fill="rgb(0,0,0)" text-anchor="middle">2</text>
<polygon points="117,367.6 125,367.6 125,375.6 117,375.6" fill="rgb(127,230,0)"/><text xml:space="preserve" x="121" y="374.433" font-family="Calibri" font-size="7.5" fill="rgb(0,0,0)" text-anchor="middle">2</text>
<polygon points="125,367.6 133,367.6 133,375.6 125,375.6" fill="rgb(230,127,0)"/><text xml:space="preserve" x="129" y="374.433" font-family="Calibri" font-size="7.5" fill="rgb(0,0,0)" text-anchor="middle">4</text>
<polygon points="133,367.6 141,367.6 141,375.6 133,375.6" fill="rgb(230,127,0)"/><text xml:space="preserve" x="137" y="374.433" font-family="Calibri" font-size="7.5" fill="rgb(0,0,0)" text-anchor="middle">4</text>
<polygon points="141,367.6 149,367.6 149,375.6 141,375.6" fill="rgb(230,127,0)"/><text xml:space="preserve" x="145" y="374.433" font-family="Calibri" font-size="7.5" fill="rgb(0,0,0)" text-anchor="middle">4</text>
<polygon points="149,367.6 157,367.6 157,375.6 149,375.6" fill="rgb(230,127,0)"/><text xml:space="preserve" x="153" y="374.433" font-family="Calibri" font-size="7.5" fill="rgb(0,0,0)" text-anchor="middle">4</text>
<polygon points="157,367.6 165,367.6 165,375.6 157,375.6" fill="rgb(230,127,0)"/><text xml:space="preserve" x="161" y="374.433" font-family="Calibri" font-size="7.5" fill="rgb(0,0,0)" text-anchor="middle">4</text>
<polygon points="175,367.6 183,367.6 183,375.6 175,375.6" fill="rgb(10,69,137)"/>
<polygon points="183,367.6 191,367.6 191,375.6 183,375.6" fill="rgb(6,51,136)"/>
<polygon points="191,367.6 199,367.6 199,375.6 191,375.6" fill="rgb(3,42,135)"/>
<polygon points="199,367.6 207,367.6 207,375.6 199,375.6" fill="rgb(23,117,140)"/>
<polygon points="207,367.6 215,367.6 215,375.6 207,375.6" fill="rgb(18,99,139)"/>
<polygon points="215,367.6 223,367.6 223,375.6 215,375.6" fill="rgb(19,103,139)"/>
<polygon points="223,367.6 231,367.6 231,375.6 223,375.6" fill="rgb(31,149,142)"/>
<polygon points="231,367.6 239,367.6 239,375.6 231,375.6" fill="rgb(32,152,142)"/>
<polygon points="249,367.6 257,367.6 257,375.6 249,375.6" fill="rgb(205,0,205)"/>
<polygon points="257,367.6 265,367.6 265,375.6 257,375.6" fill="rgb(255,255,255)"/>
<polygon points="265,367.6 273,367.6 273,375.6 265,375.6" fill="rgb(255,255,255)"/>
<polygon points="273,367.6 281,367.6 281,375.6 273,375.6" fill="rgb(255,255,255)"/>
<polygon points="281,367.6 289,367.6 289,375.6 281,375.6" fill="rgb(255,255,255)"/>
<polygon points="289,367.6 297,367.6 297,375.6 289,375.6" fill="rgb(255,255,255)"/>
<polygon points="297,367.6 305,367.6 305,375.6 297,375.6" fill="rgb(255,255,255)"/>
<polygon points="305,367.6 313,367.6 313,375.6 305,375.6" fill="rgb(255,255,255)"/>
<polygon points="101,375.6 109,375.6 109,383.6 101,383.6" fill="rgb(127,230,0)"/><text xml:space="preserve" x="105" y="382.433" font-family="Calibri" font-size="7.5" fill="rgb(0,0,0)" text-anchor="middle">2</text>
<polygon points="109,375.6 117,375.6 117,383.6 109,383.6" fill="rgb(127,230,0)"/><text xml:space="preserve" x="113" y="382.433" font-family="Calibri" font-size="7.5" fill="rgb(0,0,0)" text-anchor="middle">2</text>
<polygon points="117,375.6 125,375.6 125,383.6 117,383.6" fill="rgb(127,230,0)"/><text xml:space="preserve" x="121" y="382.433" font-family="Calibri" font-size="7.5" fill="rgb(0,0,0)" text-anchor="middle">2</text>
<polygon points="125,375.6 133,375.6 133,383.6 125,383.6" fill="rgb(230,127,0)"/><text xml:space="preserve" x="129" y="382.433" font-family="Calibri" font-size="7.5" fill="rgb(0,0,0)" text-anchor="middle">4</text>
<polygon points="133,375.6 141,375.6 141,383.6 133,383.6" fill="rgb(230,127,0)"/><text xml:space="preserve" x="137" y="382.433" font-family="Calibri" font-size="7.5" fill="rgb(0,0,0)" text-anchor="middle">4</text>
<polygon points="141,375.6 149,375.6 149,383.6 141,383.6" fill="rgb(230,127,0)"/><text xml:space="preserve" x="145" y="382.433" font-family="Calibri" font-size="7.5" fill="rgb(0,0,0)" text-anchor="middle">4</text>
<polygon points="149,375.6 157,375.6 157,383.6 149,383.6" fill="rgb(230,127,0)"/><text xml:space="preserve" x="153" y="382.433" font-family="Calibri" font-size="7.5" fill="rgb(0,0,0)" text-anchor="middle">4</text>
<polygon points="157,375.6 165,375.6 165,383.6 157,383.6" fill="rgb(230,127,0)"/><text xml:space="preserve" x="161" y="382.433" font-family="Calibri" font-size="7.5" fill="rgb(0,0,0)" text-anchor="middle">4</text>
<polygon points="175,375.6 183,375.6 183,383.6 175,383.6" fill="rgb(10,69,137)"/>
<polygon points="183,375.6 191,375.6 191,383.6 183,383.6" fill="rgb(11,73,137)"/>
<polygon points="191,375.6 199,375.6 199,383.6 191,383.6" fill="rgb(15,85,138)"/>
<polygon points="199,375.6 207,375.6 207,383.6 199,383.6" fill="rgb(30,144,141)"/>
<polygon points="207,375.6 215,375.6 215,383.6 207,383.6" fill="rgb(22,115,140)"/>
<polygon points="215,375.6 223,375.6 223,383.6 215,383.6" fill="rgb(37,172,143)"/>
<polygon points="223,375.6 231,375.6 231,383.6 223,383.6" fill="rgb(26,130,140)"/>
<polygon points="231,375.6 239,375.6 239,383.6 231,383.6" fill="rgb(25,126,140)"/>
<polygon points="249,375.6 257,375.6 257,383.6 249,383.6" fill="rgb(255,255,255)"/>
<polygon points="257,375.6 265,375.6 265,383.6 257,383.6" fill="rgb(255,255,255)"/>
<polygon points="265,375.6 273,375.6 273,383.6 265,383.6" fill="rgb(255,255,255)"/>
<polygon points="273,375.6 281,375.6 281,383.6 273,383.6" fill="rgb(255,255,255)"/>
<polygon points="281,375.6 289,375.6 289,383.6 281,383.6" fill="rgb(255,255,255)"/>
<polygon points="289,375.6 297,375.6 297,383.6 289,383.6" fill="rgb(255,255,255)"/>
<polygon points="297,375.6 305,375.6 305,383.6 297,383.6" fill="rgb(255,255,255)"/>
<polygon points="305,375.6 313,375.6 313,383.6 305,383.6" fill="rgb(255,255,255)"/>
<polygon points="101,335.6 165,335.6 165,383.6 101,383.6" fill="none" stroke="black" stroke-width="1"/>
<polygon points="175,335.6 239,335.6 239,383.6 175,383.6" fill="none" stroke="black" stroke-width="1"/>
<polygon points="249,335.6 313,335.6 313,383.6 249,383.6" fill="none" stroke="black" stroke-width="1"/>
<text xml:space="preserve" x="166.5" y="416.6" font-family="Calibri" font-size="8" text-anchor="middle">ClusterAssignment</text>
<polygon points="116.5,423.6 136.5,423.6 136.5,443.6 116.5,443.6" fill="rgb(0,205,0)"/><polygon points="116.5,423.6 136.5,423.6 136.5,443.6 116.5,443.6" fill="none" stroke="black" stroke-width="1"/><text xml:space="preserve" x="126.5" y="436.433" font-family="Calibri" font-size="7.5" fill="rgb(255,255,255)" text-anchor="middle">1.0</text>
<polygon points="136.5,423.6 156.5,423.6 156.5,443.6 136.5,443.6" fill="rgb(127,230,0)"/><polygon points="136.5,423.6 156.5,423.6 156.5,443.6 136.5,443.6" fill="none" stroke="black" stroke-width="1"/><text xml:space="preserve" x="146.5" y="436.433" font-family="Calibri" font-size="7.5" fill="rgb(0,0,0)" text-anchor="middle">2.0</text>
<polygon points="156.5,423.6 176.5,423.6 176.5,443.6 156.5,443.6" fill="rgb(255,255,0)"/><polygon points="156.5,423.6 176.5,423.6 176.5,443.6 156.5,443.6" fill="none" stroke="black" stroke-width="1"/><text xml:space="preserve" x="166.5" y="436.433" font-family="Calibri" font-size="7.5" fill="rgb(0,0,0)" text-anchor="middle">3.0</text>
<polygon points="176.5,423.6 196.5,423.6 196.5,443.6 176.5,443.6" fill="rgb(230,127,0)"/><polygon points="176.5,423.6 196.5,423.6 196.5,443.6 176.5,443.6" fill="none" stroke="black" stroke-width="1"/><text xml:space="preserve" x="186.5" y="436.433" font-family="Calibri" font-size="7.5" fill="rgb(0,0,0)" text-anchor="middle">4.0</text>
<polygon points="196.5,423.6 216.5,423.6 216.5,443.6 196.5,443.6" fill="rgb(205,0,0)"/><polygon points="196.5,423.6 216.5,423.6 216.5,443.6 196.5,443.6" fill="none" stroke="black" stroke-width="1"/><text xml:space="preserve" x="206.5" y="436.433" font-family="Calibri" font-size="7.5" fill="rgb(255,255,255)" text-anchor="middle">5.0</text>
<text xml:space="preserve" x="166.5" y="476.6" font-family="Calibri" font-size="8" text-anchor="middle">Expression</text>
<polygon points="116.5,483.6 136.5,483.6 136.5,503.6 116.5,503.6" fill="rgb(0,27,135)"/><polygon points="116.5,483.6 136.5,483.6 136.5,503.6 116.5,503.6" fill="none" stroke="black" stroke-width="1"/><text xml:space="preserve" x="126.5" y="496.433" font-family="Calibri" font-size="7.5" fill="rgb(255,255,255)" text-anchor="middle">0.0</text>
<polygon points="136.5,483.6 156.5,483.6 156.5,503.6 136.5,503.6" fill="rgb(24,123,140)"/><polygon points="136.5,483.6 156.5,483.6 156.5,503.6 136.5,503.6" fill="none" stroke="black" stroke-width="1"/><text xml:space="preserve" x="146.5" y="496.433" font-family="Calibri" font-size="7.5" fill="rgb(255,255,255)" text-anchor="middle">0.8</text>
<polygon points="156.5,483.6 176.5,483.6 176.5,503.6 156.5,503.6" fill="rgb(49,219,146)"/><polygon points="156.5,483.6 176.5,483.6 176.5,503.6 156.5,503.6" fill="none" stroke="black" stroke-width="1"/><text xml:space="preserve" x="166.5" y="496.433" font-family="Calibri" font-size="7.5" fill="rgb(0,0,0)" text-anchor="middle">1.5</text>
<polygon points="176.5,483.6 196.5,483.6 196.5,503.6 176.5,503.6" fill="rgb(150,206,73)"/><polygon points="176.5,483.6 196.5,483.6 196.5,503.6 176.5,503.6" fill="none" stroke="black" stroke-width="1"/><text xml:space="preserve" x="186.5" y="496.433" font-family="Calibri" font-size="7.5" fill="rgb(0,0,0)" text-anchor="middle">2.2</text>
<polygon points="196.5,483.6 216.5,483.6 216.5,503.6 196.5,503.6" fill="rgb(252,194,1)"/><polygon points="196.5,483.6 216.5,483.6 216.5,503.6 196.5,503.6" fill="none" stroke="black" stroke-width="1"/><text xml:space="preserve" x="206.5" y="496.433" font-family="Calibri" font-size="7.5" fill="rgb(0,0,0)" text-anchor="middle">3.0</text>
<text xml:space="preserve" x="166.5" y="536.6" font-family="Calibri" font-size="8" text-anchor="middle">PANTHERclass</text>
<polygon points="116.5,543.6 136.5,543.6 136.5,563.6 116.5,563.6" fill="rgb(255,255,255)"/><polygon points="116.5,543.6 136.5,543.6 136.5,563.6 116.5,563.6" fill="none" stroke="black" stroke-width="1"/><text xml:space="preserve" x="126.5" y="556.433" font-family="Calibri" font-size="7.5" fill="rgb(0,0,0)" text-anchor="middle">0.0</text>
<polygon points="136.5,543.6 156.5,543.6 156.5,563.6 136.5,563.6" fill="rgb(242,191,242)"/><polygon points="136.5,543.6 156.5,543.6 156.5,563.6 136.5,563.6" fill="none" stroke="black" stroke-width="1"/><text xml:space="preserve" x="146.5" y="556.433" font-family="Calibri" font-size="7.5" fill="rgb(0,0,0)" text-anchor="middle">0.2</text>
<polygon points="156.5,543.6 176.5,543.6 176.5,563.6 156.5,563.6" fill="rgb(230,127,230)"/><polygon points="156.5,543.6 176.5,543.6 176.5,563.6 156.5,563.6" fill="none" stroke="black" stroke-width="1"/><text xml:space="preserve" x="166.5" y="556.433" font-family="Calibri" font-size="7.5" fill="rgb(0,0,0)" text-anchor="middle">0.5</text>
<polygon points="176.5,543.6 196.5,543.6 196.5,563.6 176.5,563.6" fill="rgb(217,63,217)"/><polygon points="176.5,543.6 196.5,543.6 196.5,563.6 176.5,563.6" fill="none" stroke="black" stroke-width="1"/><text xml:space="preserve" x="186.5" y="556.433" font-family="Calibri" font-size="7.5" fill="rgb(255,255,255)" text-anchor="middle">0.8</text>
<polygon points="196.5,543.6 216.5,543.6 216.5,563.6 196.5,563.6" fill="rgb(205,0,205)"/><polygon points="196.5,543.6 216.5,543.6 216.5,563.6 196.5,563.6" fill="none" stroke="black" stroke-width="1"/><text xml:space="preserve" x="206.5" y="556.433" font-family="Calibri" font-size="7.5" fill="rgb(255,255,255)" text-anchor="middle">1.0</text>
</svg>
