<?xml version="1.0" standalone="no"?><!DOCTYPE svg PUBLIC "-//W3C//DTD SVG 1.1//EN" "http://www.w3.org/Graphics/SVG/1.1/DTD/svg11.dtd">
<svg width="329.7" height="575.6" version="1.1" xmlns="http://www.w3.org/2000/svg">
<text xml:space="preserve" x="93.7" y="342.6" font-family="Calibri" font-size="8" text-anchor="end">HMX2</text>
<text xml:space="preserve" x="93.7" y="350.6" font-family="Calibri" font-size="8" text-anchor="end">LHX1-DT</text>
<text xml:space="preserve" x="93.7" y="358.6" font-family="Calibri" font-size="8" text-anchor="end">LHX1</text>
<text xml:space="preserve" x="93.7" y="366.6" font-family="Calibri" font-size="8" text-anchor="end">POU4F3</text>
<text xml:space="preserve" x="93.7" y="374.6" font-family="Calibri" font-size="8" text-anchor="end">NOS1</text>
<text xml:space="preserve" x="104.7" y="331.6" font-family="Calibri" font-size="8" transform="rotate(270 104.7 331.6)">c2</text>
<text xml:space="preserve" x="112.7" y="331.6" font-family="Calibri" font-size="8" transform="rotate(270 112.7 331.6)">c3</text>
<text xml:space="preserve" x="120.7" y="331.6" font-family="Calibri" font-size="8" transform="rotate(270 120.7 331.6)">c6</text>
<text xml:space="preserve" x="128.7" y="331.6" font-family="Calibri" font-size="8" transform="rotate(270 128.7 331.6)">c4</text>
<text xml:space="preserve" x="136.7" y="331.6" font-family="Calibri" font-size="8" transform="rotate(270 136.7 331.6)">c1</text>
<text xml:space="preserve" x="144.7" y="331.6" font-family="Calibri" font-size="8" transform="rotate(270 144.7 331.6)">c5</text>
<text xml:space="preserve" x="152.7" y="331.6" font-family="Calibri" font-size="8" transform="rotate(270 152.7 331.6)">c7</text>
<text xml:space="preserve" x="160.7" y="331.6" font-family="Calibri" font-size="8" transform="rotate(270 160.7 331.6)">c8</text>
<text xml:space="preserve" x="178.7" y="331.6" font-family="Calibri" font-size="8" transform="rotate(270 178.7 331.6)">c2_mean</text>
<text xml:space="preserve" x="186.7" y="331.6" font-family="Calibri" font-size="8" transform="rotate(270 186.7 331.6)">c3_mean</text>
<text xml:space="preserve" x="194.7" y="331.6" font-family="Calibri" font-size="8" transform="rotate(270 194.7 331.6)">c6_mean</text>
<text xml:space="preserve" x="202.7" y="331.6" font-family="Calibri" font-size="8" transform="rotate(270 202.7 331.6)">c4_mean</text>
<text xml:space="preserve" x="210.7" y="331.6" font-family="Calibri" font-size="8" transform="rotate(270 210.7 331.6)">c1_mean</text>
<text xml:space="preserve" x="218.7" y="331.6" font-family="Calibri" font-size="8" transform="rotate(270 218.7 331.6)">c5_mean</text>
<text xml:space="preserve" x="226.7" y="331.6" font-family="Calibri" font-size="8" transform="rotate(270 226.7 331.6)">c7_mean</text>
<text xml:space="preserve" x="234.7" y="331.6" font-family="Calibri" font-size="8" transform="rotate(270 234.7 331.6)">c8_mean</text>
<text xml:space="preserve" x="252.7" y="331.6" font-family="Calibri" font-size="8" transform="rotate(270 252.7 331.6)">transcription_factor</text>
<text xml:space="preserve" x="260.7" y="331.6" font-family="Calibri" font-size="8" transform="rotate(270 260.7 331.6)">transmembrane_signal_receptor</text>
<text xml:space="preserve" x="268.7" y="331.6" font-family="Calibri" font-size="8" transform="rotate(270 268.7 331.6)">growth_factor</text>
<text xml:space="preserve" x="276.7" y="331.6" font-family="Calibri" font-size="8" transform="rotate(270 276.7 331.6)">peptide_hormone</text>
<text xml:space="preserve" x="284.7" y="331.6" font-family="Calibri" font-size="8" transform="rotate(270 284.7 331.6)">cytoskeletal_protein</text>
<text xml:space="preserve" x="292.7" y="331.6" font-family="Calibri" font-size="8" transform="rotate(270 292.7 331.6)">ion_channel</text>
<text xml:space="preserve" x="300.7" y="331.6" font-family="Calibri" font-size="8" transform="rotate(270 300.7 331.6)">integrin</text>
<text xml:space="preserve" x="308.7" y="331.6" font-family="Calibri" font-size="8" transform="rotate(270 308.7 331.6)">extracellular_matrix_protein</text>
<polygon points="97.7,335.6 105.7,335.6 105.7,343.6 97.7,343.6" fill="rgb(0,205,0)"/><text xml:space="preserve" x="101.7" y="342.433" font-family="Calibri" font-size="7.5" fill="rgb(255,255,255)" text-anchor="middle">1</text>
<polygon points="105.7,335.6 113.7,335.6 113.7,343.6 105.7,343.6" fill="rgb(0,205,0)"/><text xml:space="preserve" x="109.7" y="342.433" font-family="Calibri" font-size="7.5" fill="rgb(255,255,255)" text-anchor="middle">1</text>
<polygon points="113.7,335.6 121.7,335.6 121.7,343.6 113.7,343.6" fill="rgb(0,205,0)"/><text xml:space="preserve" x="117.7" y="342.433" font-family="Calibri" font-size="7.5" fill="rgb(255,255,255)" text-anchor="middle">1</text>
<polygon points="121.7,335.6 129.7,335.6 129.7,343.6 121.7,343.6" fill="rgb(205,0,0)"/><text xml:space="preserve" x="125.7" y="342.433" font-family="Calibri" font-size="7.5" fill="rgb(255,255,255)" text-anchor="middle">5</text>
<polygon points="129.7,335.6 137.7,335.6 137.7,343.6 129.7,343.6" fill="rgb(205,0,0)"/><text xml:space="preserve" x="133.7" y="342.433" font-family="Calibri" font-size="7.5" fill="rgb(255,255,255)" text-anchor="middle">5</text>
<polygon points="137.7,335.6 145.7,335.6 145.7,343.6 137.7,343.6" fill="rgb(0,205,0)"/><text xml:space="preserve" x="141.7" y="342.433" font-family="Calibri" font-size="7.5" fill="rgb(255,255,255)" text-anchor="middle">1</text>
<polygon points="145.7,335.6 153.7,335.6 153.7,343.6 145.7,343.6" fill="rgb(0,205,0)"/><text xml:space="preserve" x="149.7" y="342.433" font-family="Calibri" font-size="7.5" fill="rgb(255,255,255)" text-anchor="middle">1</text>
<polygon points="153.7,335.6 161.7,335.6 161.7,343.6 153.7,343.6" fill="rgb(0,205,0)"/><text xml:space="preserve" x="157.7" y="342.433" font-family="Calibri" font-size="7.5" fill="rgb(255,255,255)" text-anchor="middle">1</text>
<polygon points="171.7,335.6 179.7,335.6 179.7,343.6 171.7,343.6" fill="rgb(2,38,135)"/>
<polygon points="179.7,335.6 187.7,335.6 187.7,343.6 179.7,343.6" fill="rgb(3,39,135)"/>
<polygon points="187.7,335.6 195.7,335.6 195.7,343.6 187.7,343.6" fill="rgb(0,28,135)"/>
<polygon points="195.7,335.6 203.7,335.6 203.7,343.6 195.7,343.6" fill="rgb(86,214,118)"/>
<polygon points="203.7,335.6 211.7,335.6 211.7,343.6 203.7,343.6" fill="rgb(96,213,112)"/>
<polygon points="211.7,335.6 219.7,335.6 219.7,343.6 211.7,343.6" fill="rgb(0,29,135)"/>
<polygon points="219.7,335.6 227.7,335.6 227.7,343.6 219.7,343.6" fill="rgb(0,30,135)"/>
<polygon points="227.7,335.6 235.7,335.6 235.7,343.6 227.7,343.6" fill="rgb(0,29,135)"/>
<polygon points="245.7,335.6 253.7,335.6 253.7,343.6 245.7,343.6" fill="rgb(205,0,205)"/>
<polygon points="253.7,335.6 261.7,335.6 261.7,343.6 253.7,343.6" fill="rgb(255,255,255)"/>
<polygon points="261.7,335.6 269.7,335.6 269.7,343.6 261.7,343.6" fill="rgb(255,255,255)"/>
<polygon points="269.7,335.6 277.7,335.6 277.7,343.6 269.7,343.6" fill="rgb(255,255,255)"/>
<polygon points="277.7,335.6 285.7,335.6 285.7,343.6 277.7,343.6" fill="rgb(255,255,255)"/>
<polygon points="285.7,335.6 293.7,335.6 293.7,343.6 285.7,343.6" fill="rgb(255,255,255)"/>
<polygon points="293.7,335.6 301.7,335.6 301.7,343.6 293.7,343.6" fill="rgb(255,255,255)"/>
<polygon points="301.7,335.6 309.7,335.6 309.7,343.6 301.7,343.6" fill="rgb(255,255,255)"/>
<polygon points="97.7,343.6 105.7,343.6 105.7,351.6 97.7,351.6" fill="rgb(0,205,0)"/><text xml:space="preserve" x="101.7" y="350.433" font-family="Calibri" font-size="7.5" fill="rgb(255,255,255)" text-anchor="middle">1</text>
<polygon points="105.7,343.6 113.7,343.6 113.7,351.6 105.7,351.6" fill="rgb(0,205,0)"/><text xml:space="preserve" x="109.7" y="350.433" font-family="Calibri" font-size="7.5" fill="rgb(255,255,255)" text-anchor="middle">1</text>
<polygon points="113.7,343.6 121.7,343.6 121.7,351.6 113.7,351.6" fill="rgb(0,205,0)"/><text xml:space="preserve" x="117.7" y="350.433" font-family="Calibri" font-size="7.5" fill="rgb(255,255,255)" text-anchor="middle">1</text>
<polygon points="121.7,343.6 129.7,343.6 129.7,351.6 121.7,351.6" fill="rgb(205,0,0)"/><text xml:space="preserve" x="125.7" y="350.433" font-family="Calibri" font-size="7.5" fill="rgb(255,255,255)" text-anchor="middle">5</text>
<polygon points="129.7,343.6 137.7,343.6 137.7,351.6 129.7,351.6" fill="rgb(205,0,0)"/><text xml:space="preserve" x="133.7" y="350.433" font-family="Calibri" font-size="7.5" fill="rgb(255,255,255)" text-anchor="middle">5</text>
<polygon points="137.7,343.6 145.7,343.6 145.7,351.6 137.7,351.6" fill="rgb(0,205,0)"/><text xml:space="preserve" x="141.7" y="350.433" font-family="Calibri" font-size="7.5" fill="rgb(255,255,255)" text-anchor="middle">1</text>
<polygon points="145.7,343.6 153.7,343.6 153.7,351.6 145.7,351.6" fill="rgb(0,205,0)"/><text xml:space="preserve" x="149.7" y="350.433" font-family="Calibri" font-size="7.5" fill="rgb(255,255,255)" text-anchor="middle">1</text>
<polygon points="153.7,343.6 161.7,343.6 161.7,351.6 153.7,351.6" fill="rgb(0,205,0)"/><text xml:space="preserve" x="157.7" y="350.433" font-family="Calibri" font-size="7.5" fill="rgb(255,255,255)" text-anchor="middle">1</text>
<polygon points="171.7,343.6 179.7,343.6 179.7,351.6 171.7,351.6" fill="rgb(3,42,135)"/>
<polygon points="179.7,343.6 187.7,343.6 187.7,351.6 179.7,351.6" fill="rgb(2,38,135)"/>
<polygon points="187.7,343.6 195.7,343.6 195.7,351.6 187.7,351.6" fill="rgb(0,28,135)"/>
<polygon points="195.7,343.6 203.7,343.6 203.7,351.6 195.7,351.6" fill="rgb(42,193,144)"/>
<polygon points="203.7,343.6 211.7,343.6 211.7,351.6 203.7,351.6" fill="rgb(46,210,145)"/>
<polygon points="211.7,343.6 219.7,343.6 219.7,351.6 211.7,351.6" fill="rgb(0,29,135)"/>
<polygon points="219.7,343.6 227.7,343.6 227.7,351.6 219.7,351.6" fill="rgb(1,32,135)"/>
<polygon points="227.7,343.6 235.7,343.6 235.7,351.6 227.7,351.6" fill="rgb(0,30,135)"/>
<polygon points="245.7,343.6 253.7,343.6 253.7,351.6 245.7,351.6" fill="rgb(255,255,255)"/>
<polygon points="253.7,343.6 261.7,343.6 261.7,351.6 253.7,351.6" fill="rgb(255,255,255)"/>
<polygon points="261.7,343.6 269.7,343.6 269.7,351.6 261.7,351.6" fill="rgb(255,255,255)"/>
<polygon points="269.7,343.6 277.7,343.6 277.7,351.6 269.7,351.6" fill="rgb(255,255,255)"/>
<polygon points="277.7,343.6 285.7,343.6 285.7,351.6 277.7,351.6" fill="rgb(255,255,255)"/>
<polygon points="285.7,343.6 293.7,343.6 293.7,351.6 285.7,351.6" fill="rgb(255,255,255)"/>
<polygon points="293.7,343.6 301.7,343.6 301.7,351.6 293.7,351.6" fill="rgb(255,255,255)"/>
<polygon points="301.7,343.6 309.7,343.6 309.7,351.6 301.7,351.6" fill="rgb(255,255,255)"/>
<polygon points="97.7,351.6 105.7,351.6 105.7,359.6 97.7,359.6" fill="rgb(0,205,0)"/><text xml:space="preserve" x="101.7" y="358.433" font-family="Calibri" font-size="7.5" fill="rgb(255,255,255)" text-anchor="middle">1</text>
<polygon points="105.7,351.6 113.7,351.6 113.7,359.6 105.7,359.6" fill="rgb(0,205,0)"/><text xml:space="preserve" x="109.7" y="358.433" font-family="Calibri" font-size="7.5" fill="rgb(255,255,255)" text-anchor="middle">1</text>
<polygon points="113.7,351.6 121.7,351.6 121.7,359.6 113.7,359.6" fill="rgb(0,205,0)"/><text xml:space="preserve" x="117.7" y="358.433" font-family="Calibri" font-size="7.5" fill="rgb(255,255,255)" text-anchor="middle">1</text>
<polygon points="121.7,351.6 129.7,351.6 129.7,359.6 121.7,359.6" fill="rgb(205,0,0)"/><text xml:space="preserve" x="125.7" y="358.433" font-family="Calibri" font-size="7.5" fill="rgb(255,255,255)" text-anchor="middle">5</text>
<polygon points="129.7,351.6 137.7,351.6 137.7,359.6 129.7,359.6" fill="rgb(205,0,0)"/><text xml:space="preserve" x="133.7" y="358.433" font-family="Calibri" font-size="7.5" fill="rgb(255,255,255)" text-anchor="middle">5</text>
<polygon points="137.7,351.6 145.7,351.6 145.7,359.6 137.7,359.6" fill="rgb(0,205,0)"/><text xml:space="preserve" x="141.7" y="358.433" font-family="Calibri" font-size="7.5" fill="rgb(255,255,255)" text-anchor="middle">1</text>
<polygon points="145.7,351.6 153.7,351.6 153.7,359.6 145.7,359.6" fill="rgb(0,205,0)"/><text xml:space="preserve" x="149.7" y="358.433" font-family="Calibri" font-size="7.5" fill="rgb(255,255,255)" text-anchor="middle">1</text>
<polygon points="153.7,351.6 161.7,351.6 161.7,359.6 153.7,359.6" fill="rgb(0,205,0)"/><text xml:space="preserve" x="157.7" y="358.433" font-family="Calibri" font-size="7.5" fill="rgb(255,255,255)" text-anchor="middle">1</text>
<polygon points="171.7,351.6 179.7,351.6 179.7,359.6 171.7,359.6" fill="rgb(6,51,136)"/>
<polygon points="179.7,351.6 187.7,351.6 187.7,359.6 179.7,359.6" fill="rgb(3,39,135)"/>
<polygon points="187.7,351.6 195.7,351.6 195.7,359.6 187.7,359.6" fill="rgb(0,28,135)"/>
<polygon points="195.7,351.6 203.7,351.6 203.7,359.6 195.7,359.6" fill="rgb(43,195,144)"/>
<polygon points="203.7,351.6 211.7,351.6 211.7,359.6 203.7,359.6" fill="rgb(50,218,145)"/>
<polygon points="211.7,351.6 219.7,351.6 219.7,359.6 211.7,359.6" fill="rgb(0,28,135)"/>
<polygon points="219.7,351.6 227.7,351.6 227.7,359.6 219.7,359.6" fill="rgb(1,33,135)"/>
<polygon points="227.7,351.6 235.7,351.6 235.7,359.6 227.7,359.6" fill="rgb(0,30,135)"/>
<polygon points="245.7,351.6 253.7,351.6 253.7,359.6 245.7,359.6" fill="rgb(205,0,205)"/>
<polygon points="253.7,351.6 261.7,351.6 261.7,359.6 253.7,359.6" fill="rgb(255,255,255)"/>
<polygon points="261.7,351.6 269.7,351.6 269.7,359.6 261.7,359.6" fill="rgb(255,255,255)"/>
<polygon points="269.7,351.6 277.7,351.6 277.7,359.6 269.7,359.6" fill="rgb(255,255,255)"/>
<polygon points="277.7,351.6 285.7,351.6 285.7,359.6 277.7,359.6" fill="rgb(255,255,255)"/>
<polygon points="285.7,351.6 293.7,351.6 293.7,359.6 285.7,359.6" fill="rgb(255,255,255)"/>
<polygon points="293.7,351.6 301.7,351.6 301.7,359.6 293.7,359.6" fill="rgb(255,255,255)"/>
<polygon points="301.7,351.6 309.7,351.6 309.7,359.6 301.7,359.6" fill="rgb(255,255,255)"/>
<polygon points="97.7,359.6 105.7,359.6 105.7,367.6 97.7,367.6" fill="rgb(0,205,0)"/><text xml:space="preserve" x="101.7" y="366.433" font-family="Calibri" font-size="7.5" fill="rgb(255,255,255)" text-anchor="middle">1</text>
<polygon points="105.7,359.6 113.7,359.6 113.7,367.6 105.7,367.6" fill="rgb(0,205,0)"/><text xml:space="preserve" x="109.7" y="366.433" font-family="Calibri" font-size="7.5" fill="rgb(255,255,255)" text-anchor="middle">1</text>
<polygon points="113.7,359.6 121.7,359.6 121.7,367.6 113.7,367.6" fill="rgb(0,205,0)"/><text xml:space="preserve" x="117.7" y="366.433" font-family="Calibri" font-size="7.5" fill="rgb(255,255,255)" text-anchor="middle">1</text>
<polygon points="121.7,359.6 129.7,359.6 129.7,367.6 121.7,367.6" fill="rgb(205,0,0)"/><text xml:space="preserve" x="125.7" y="366.433" font-family="Calibri" font-size="7.5" fill="rgb(255,255,255)" text-anchor="middle">5</text>
<polygon points="129.7,359.6 137.7,359.6 137.7,367.6 129.7,367.6" fill="rgb(205,0,0)"/><text xml:space="preserve" x="133.7" y="366.433" font-family="Calibri" font-size="7.5" fill="rgb(255,255,255)" text-anchor="middle">5</text>
<polygon points="137.7,359.6 145.7,359.6 145.7,367.6 137.7,367.6" fill="rgb(0,205,0)"/><text xml:space="preserve" x="141.7" y="366.433" font-family="Calibri" font-size="7.5" fill="rgb(255,255,255)" text-anchor="middle">1</text>
<polygon points="145.7,359.6 153.7,359.6 153.7,367.6 145.7,367.6" fill="rgb(0,205,0)"/><text xml:space="preserve" x="149.7" y="366.433" font-family="Calibri" font-size="7.5" fill="rgb(255,255,255)" text-anchor="middle">1</text>
<polygon points="153.7,359.6 161.7,359.6 161.7,367.6 153.7,367.6" fill="rgb(0,205,0)"/><text xml:space="preserve" x="157.7" y="366.433" font-family="Calibri" font-size="7.5" fill="rgb(255,255,255)" text-anchor="middle">1</text>
<polygon points="171.7,359.6 179.7,359.6 179.7,367.6 171.7,367.6" fill="rgb(8,59,136)"/>
<polygon points="179.7,359.6 187.7,359.6 187.7,367.6 179.7,367.6" fill="rgb(7,55,136)"/>
<polygon points="187.7,359.6 195.7,359.6 195.7,367.6 187.7,367.6" fill="rgb(0,27,135)"/>
<polygon points="195.7,359.6 203.7,359.6 203.7,367.6 195.7,367.6" fill="rgb(207,199,32)"/>
<polygon points="203.7,359.6 211.7,359.6 211.7,367.6 203.7,367.6" fill="rgb(54,218,142)"/>
<polygon points="211.7,359.6 219.7,359.6 219.7,367.6 211.7,367.6" fill="rgb(0,28,135)"/>
<polygon points="219.7,359.6 227.7,359.6 227.7,367.6 219.7,367.6" fill="rgb(0,28,135)"/>
<polygon points="227.7,359.6 235.7,359.6 235.7,367.6 227.7,367.6" fill="rgb(0,30,135)"/>
<polygon points="245.7,359.6 253.7,359.6 253.7,367.6 245.7,367.6" fill="rgb(205,0,205)"/>
<polygon points="253.7,359.6 261.7,359.6 261.7,367.6 253.7,367.6" fill="rgb(255,255,255)"/>
<polygon points="261.7,359.6 269.7,359.6 269.7,367.6 261.7,367.6" fill="rgb(255,255,255)"/>
<polygon points="269.7,359.6 277.7,359.6 277.7,367.6 269.7,367.6" fill="rgb(255,255,255)"/>
<polygon points="277.7,359.6 285.7,359.6 285.7,367.6 277.7,367.6" fill="rgb(255,255,255)"/>
<polygon points="285.7,359.6 293.7,359.6 293.7,367.6 285.7,367.6" fill="rgb(255,255,255)"/>
<polygon points="293.7,359.6 301.7,359.6 301.7,367.6 293.7,367.6" fill="rgb(255,255,255)"/>
<polygon points="301.7,359.6 309.7,359.6 309.7,367.6 301.7,367.6" fill="rgb(255,255,255)"/>
<polygon points="97.7,367.6 105.7,367.6 105.7,375.6 97.7,375.6" fill="rgb(0,205,0)"/><text xml:space="preserve" x="101.7" y="374.433" font-family="Calibri" font-size="7.5" fill="rgb(255,255,255)" text-anchor="middle">1</text>
<polygon points="105.7,367.6 113.7,367.6 113.7,375.6 105.7,375.6" fill="rgb(0,205,0)"/><text xml:space="preserve" x="109.7" y="374.433" font-family="Calibri" font-size="7.5" fill="rgb(255,255,255)" text-anchor="middle">1</text>
<polygon points="113.7,367.6 121.7,367.6 121.7,375.6 113.7,375.6" fill="rgb(0,205,0)"/><text xml:space="preserve" x="117.7" y="374.433" font-family="Calibri" font-size="7.5" fill="rgb(255,255,255)" text-anchor="middle">1</text>
<polygon points="121.7,367.6 129.7,367.6 129.7,375.6 121.7,375.6" fill="rgb(205,0,0)"/><text xml:space="preserve" x="125.7" y="374.433" font-family="Calibri" font-size="7.5" fill="rgb(255,255,255)" text-anchor="middle">5</text>
<polygon points="129.7,367.6 137.7,367.6 137.7,375.6 129.7,375.6" fill="rgb(205,0,0)"/><text xml:space="preserve" x="133.7" y="374.433" font-family="Calibri" font-size="7.5" fill="rgb(255,255,255)" text-anchor="middle">5</text>
<polygon points="137.7,367.6 145.7,367.6 145.7,375.6 137.7,375.6" fill="rgb(0,205,0)"/><text xml:space="preserve" x="141.7" y="374.433" font-family="Calibri" font-size="7.5" fill="rgb(255,255,255)" text-anchor="middle">1</text>
<polygon points="145.7,367.6 153.7,367.6 153.7,375.6 145.7,375.6" fill="rgb(0,205,0)"/><text xml:space="preserve" x="149.7" y="374.433" font-family="Calibri" font-size="7.5" fill="rgb(255,255,255)" text-anchor="middle">1</text>
<polygon points="153.7,367.6 161.7,367.6 161.7,375.6 153.7,375.6" fill="rgb(0,205,0)"/><text xml:space="preserve" x="157.7" y="374.433" font-family="Calibri" font-size="7.5" fill="rgb(255,255,255)" text-anchor="middle">1</text>
<polygon points="171.7,367.6 179.7,367.6 179.7,375.6 171.7,375.6" fill="rgb(1,34,135)"/>
<polygon points="179.7,367.6 187.7,367.6 187.7,375.6 179.7,375.6" fill="rgb(3,39,135)"/>
<polygon points="187.7,367.6 195.7,367.6 195.7,375.6 187.7,375.6" fill="rgb(5,47,136)"/>
<polygon points="195.7,367.6 203.7,367.6 203.7,375.6 195.7,375.6" fill="rgb(43,195,144)"/>
<polygon points="203.7,367.6 211.7,367.6 211.7,375.6 203.7,375.6" fill="rgb(43,198,144)"/>
<polygon points="211.7,367.6 219.7,367.6 219.7,375.6 211.7,375.6" fill="rgb(0,29,135)"/>
<polygon points="219.7,367.6 227.7,367.6 227.7,375.6 219.7,375.6" fill="rgb(0,30,135)"/>
<polygon points="227.7,367.6 235.7,367.6 235.7,375.6 227.7,375.6" fill="rgb(0,30,135)"/>
<polygon points="245.7,367.6 253.7,367.6 253.7,375.6 245.7,375.6" fill="rgb(255,255,255)"/>
<polygon points="253.7,367.6 261.7,367.6 261.7,375.6 253.7,375.6" fill="rgb(255,255,255)"/>
<polygon points="261.7,367.6 269.7,367.6 269.7,375.6 261.7,375.6" fill="rgb(255,255,255)"/>
<polygon points="269.7,367.6 277.7,367.6 277.7,375.6 269.7,375.6" fill="rgb(255,255,255)"/>
<polygon points="277.7,367.6 285.7,367.6 285.7,375.6 277.7,375.6" fill="rgb(255,255,255)"/>
<polygon points="285.7,367.6 293.7,367.6 293.7,375.6 285.7,375.6" fill="rgb(255,255,255)"/>
<polygon points="293.7,367.6 301.7,367.6 301.7,375.6 293.7,375.6" fill="rgb(255,255,255)"/>
<polygon points="301.7,367.6 309.7,367.6 309.7,375.6 301.7,375.6" fill="rgb(255,255,255)"/>
<polygon points="97.7,335.6 161.7,335.6 161.7,375.6 97.7,375.6" fill="none" stroke="black" stroke-width="1"/>
<polygon points="171.7,335.6 235.7,335.6 235.7,375.6 171.7,375.6" fill="none" stroke="black" stroke-width="1"/>
<polygon points="245.7,335.6 309.7,335.6 309.7,375.6 245.7,375.6" fill="none" stroke="black" stroke-width="1"/>
<text xml:space="preserve" x="164.85" y="408.6" font-family="Calibri" font-size="8" text-anchor="middle">ClusterAssignment</text>
<polygon points="114.85,415.6 134.85,415.6 134.85,435.6 114.85,435.6" fill="rgb(0,205,0)"/><polygon points="114.85,415.6 134.85,415.6 134.85,435.6 114.85,435.6" fill="none" stroke="black" stroke-width="1"/><text xml:space="preserve" x="124.85" y="428.433" font-family="Calibri" font-size="7.5" fill="rgb(255,255,255)" text-anchor="middle">1.0</text>
<polygon points="134.85,415.6 154.85,415.6 154.85,435.6 134.85,435.6" fill="rgb(127,230,0)"/><polygon points="134.85,415.6 154.85,415.6 154.85,435.6 134.85,435.6" fill="none" stroke="black" stroke-width="1"/><text xml:space="preserve" x="144.85" y="428.433" font-family="Calibri" font-size="7.5" fill="rgb(0,0,0)" text-anchor="middle">2.0</text>
<polygon points="154.85,415.6 174.85,415.6 174.85,435.6 154.85,435.6" fill="rgb(255,255,0)"/><polygon points="154.85,415.6 174.85,415.6 174.85,435.6 154.85,435.6" fill="none" stroke="black" stroke-width="1"/><text xml:space="preserve" x="164.85" y="428.433" font-family="Calibri" font-size="7.5" fill="rgb(0,0,0)" text-anchor="middle">3.0</text>
<polygon points="174.85,415.6 194.85,415.6 194.85,435.6 174.85,435.6" fill="rgb(230,127,0)"/><polygon points="174.85,415.6 194.85,415.6 194.85,435.6 174.85,435.6" fill="none" stroke="black" stroke-width="1"/><text xml:space="preserve" x="184.85" y="428.433" font-family="Calibri" font-size="7.5" fill="rgb(0,0,0)" text-anchor="middle">4.0</text>
<polygon points="194.85,415.6 214.85,415.6 214.85,435.6 194.85,435.6" fill="rgb(205,0,0)"/><polygon points="194.85,415.6 214.85,415.6 214.85,435.6 194.85,435.6" fill="none" stroke="black" stroke-width="1"/><text xml:space="preserve" x="204.85" y="428.433" font-family="Calibri" font-size="7.5" fill="rgb(255,255,255)" text-anchor="middle">5.0</text>
<text xml:space="preserve" x="164.85" y="468.6" font-family="Calibri" font-size="8" text-anchor="middle">Expression</text>
<polygon points="114.85,475.6 134.85,475.6 134.85,495.6 114.85,495.6" fill="rgb(0,27,135)"/><polygon points="114.85,475.6 134.85,475.6 134.85,495.6 114.85,495.6" fill="none" stroke="black" stroke-width="1"/><text xml:space="preserve" x="124.85" y="488.433" font-family="Calibri" font-size="7.5" fill="rgb(255,255,255)" text-anchor="middle">0.0</text>
<polygon points="134.85,475.6 154.85,475.6 154.85,495.6 134.85,495.6" fill="rgb(24,123,140)"/><polygon points="134.85,475.6 154.85,475.6 154.85,495.6 134.85,495.6" fill="none" stroke="black" stroke-width="1"/><text xml:space="preserve" x="144.85" y="488.433" font-family="Calibri" font-size="7.5" fill="rgb(255,255,255)" text-anchor="middle">0.8</text>
<polygon points="154.85,475.6 174.85,475.6 174.85,495.6 154.85,495.6" fill="rgb(49,219,146)"/><polygon points="154.85,475.6 174.85,475.6 174.85,495.6 154.85,495.6" fill="none" stroke="black" stroke-width="1"/><text xml:space="preserve" x="164.85" y="488.433" font-family="Calibri" font-size="7.5" fill="rgb(0,0,0)" text-anchor="middle">1.5</text>
<polygon points="174.85,475.6 194.85,475.6 194.85,495.6 174.85,495.6" fill="rgb(150,206,73)"/><polygon points="174.85,475.6 194.85,475.6 194.85,495.6 174.85,495.6" fill="none" stroke="black" stroke-width="1"/><text xml:space="preserve" x="184.85" y="488.433" font-family="Calibri" font-size="7.5" fill="rgb(0,0,0)" text-anchor="middle">2.2</text>
<polygon points="194.85,475.6 214.85,475.6 214.85,495.6 194.85,495.6" fill="rgb(252,194,1)"/><polygon points="194.85,475.6 214.85,475.6 214.85,495.6 194.85,495.6" fill="none" stroke="black" stroke-width="1"/><text xml:space="preserve" x="204.85" y="488.433" font-family="Calibri" font-size="7.5" fill="rgb(0,0,0)" text-anchor="middle">3.0</text>
<text xml:space="preserve" x="164.85" y="528.6" font-family="Calibri" font-size="8" text-anchor="middle">PANTHERclass</text>
<polygon points="114.85,535.6 134.85,535.6 134.85,555.6 114.85,555.6" fill="rgb(255,255,255)"/><polygon points="114.85,535.6 134.85,535.6 134.85,555.6 114.85,555.6" fill="none" stroke="black" stroke-width="1"/><text xml:space="preserve" x="124.85" y="548.433" font-family="Calibri" font-size="7.5" fill="rgb(0,0,0)" text-anchor="middle">0.0</text>
<polygon points="134.85,535.6 154.85,535.6 154.85,555.6 134.85,555.6" fill="rgb(242,191,242)"/><polygon points="134.85,535.6 154.85,535.6 154.85,555.6 134.85,555.6" fill="none" stroke="black" stroke-width="1"/><text xml:space="preserve" x="144.85" y="548.433" font-family="Calibri" font-size="7.5" fill="rgb(0,0,0)" text-anchor="middle">0.2</text>
<polygon points="154.85,535.6 174.85,535.6 174.85,555.6 154.85,555.6" fill="rgb(230,127,230)"/><polygon points="154.85,535.6 174.85,535.6 174.85,555.6 154.85,555.6" fill="none" stroke="black" stroke-width="1"/><text xml:space="preserve" x="164.85" y="548.433" font-family="Calibri" font-size="7.5" fill="rgb(0,0,0)" text-anchor="middle">0.5</text>
<polygon points="174.85,535.6 194.85,535.6 194.85,555.6 174.85,555.6" fill="rgb(217,63,217)"/><polygon points="174.85,535.6 194.85,535.6 194.85,555.6 174.85,555.6" fill="none" stroke="black" stroke-width="1"/><text xml:space="preserve" x="184.85" y="548.433" font-family="Calibri" font-size="7.5" fill="rgb(255,255,255)" text-anchor="middle">0.8</text>
<polygon points="194.85,535.6 214.85,535.6 214.85,555.6 194.85,555.6" fill="rgb(205,0,205)"/><polygon points="194.85,535.6 214.85,535.6 214.85,555.6 194.85,555.6" fill="none" stroke="black" stroke-width="1"/><text xml:space="preserve" x="204.85" y="548.433" font-family="Calibri" font-size="7.5" fill="rgb(255,255,255)" text-anchor="middle">1.0</text>
</svg>
