<?xml version="1.0" standalone="no"?><!DOCTYPE svg PUBLIC "-//W3C//DTD SVG 1.1//EN" "http://www.w3.org/Graphics/SVG/1.1/DTD/svg11.dtd">
<svg width="296.1" height="567.6" version="1.1" xmlns="http://www.w3.org/2000/svg">
<text xml:space="preserve" x="108.1" y="342.6" font-family="Calibri" font-size="8" text-anchor="end">KCNK1</text>
<text xml:space="preserve" x="108.1" y="350.6" font-family="Calibri" font-size="8" text-anchor="end">Z97200.1</text>
<text xml:space="preserve" x="108.1" y="358.6" font-family="Calibri" font-size="8" text-anchor="end">TMEM173</text>
<text xml:space="preserve" x="108.1" y="366.6" font-family="Calibri" font-size="8" text-anchor="end">PMCH</text>
<text xml:space="preserve" x="119.1" y="331.6" font-family="Calibri" font-size="8" transform="rotate(270 119.1 331.6)">c3</text>
<text xml:space="preserve" x="127.1" y="331.6" font-family="Calibri" font-size="8" transform="rotate(270 127.1 331.6)">c1</text>
<text xml:space="preserve" x="135.1" y="331.6" font-family="Calibri" font-size="8" transform="rotate(270 135.1 331.6)">c4</text>
<text xml:space="preserve" x="143.1" y="331.6" font-family="Calibri" font-size="8" transform="rotate(270 143.1 331.6)">c5</text>
<text xml:space="preserve" x="151.1" y="331.6" font-family="Calibri" font-size="8" transform="rotate(270 151.1 331.6)">c2</text>
<text xml:space="preserve" x="169.1" y="331.6" font-family="Calibri" font-size="8" transform="rotate(270 169.1 331.6)">c3_mean</text>
<text xml:space="preserve" x="177.1" y="331.6" font-family="Calibri" font-size="8" transform="rotate(270 177.1 331.6)">c1_mean</text>
<text xml:space="preserve" x="185.1" y="331.6" font-family="Calibri" font-size="8" transform="rotate(270 185.1 331.6)">c4_mean</text>
<text xml:space="preserve" x="193.1" y="331.6" font-family="Calibri" font-size="8" transform="rotate(270 193.1 331.6)">c5_mean</text>
<text xml:space="preserve" x="201.1" y="331.6" font-family="Calibri" font-size="8" transform="rotate(270 201.1 331.6)">c2_mean</text>
<text xml:space="preserve" x="219.1" y="331.6" font-family="Calibri" font-size="8" transform="rotate(270 219.1 331.6)">transcription_factor</text>
<text xml:space="preserve" x="227.1" y="331.6" font-family="Calibri" font-size="8" transform="rotate(270 227.1 331.6)">transmembrane_signal_receptor</text>
<text xml:space="preserve" x="235.1" y="331.6" font-family="Calibri" font-size="8" transform="rotate(270 235.1 331.6)">growth_factor</text>
<text xml:space="preserve" x="243.1" y="331.6" font-family="Calibri" font-size="8" transform="rotate(270 243.1 331.6)">peptide_hormone</text>
<text xml:space="preserve" x="251.1" y="331.6" font-family="Calibri" font-size="8" transform="rotate(270 251.1 331.6)">cytoskeletal_protein</text>
<text xml:space="preserve" x="259.1" y="331.6" font-family="Calibri" font-size="8" transform="rotate(270 259.1 331.6)">ion_channel</text>
<text xml:space="preserve" x="267.1" y="331.6" font-family="Calibri" font-size="8" transform="rotate(270 267.1 331.6)">integrin</text>
<text xml:space="preserve" x="275.1" y="331.6" font-family="Calibri" font-size="8" transform="rotate(270 275.1 331.6)">extracellular_matrix_protein</text>
<polygon points="112.1,335.6 120.1,335.6 120.1,343.6 112.1,343.6" fill="rgb(205,0,0)"/><text xml:space="preserve" x="116.1" y="342.433" font-family="Calibri" font-size="7.5" fill="rgb(255,255,255)" text-anchor="middle">4</text>
<polygon points="120.1,335.6 128.1,335.6 128.1,343.6 120.1,343.6" fill="rgb(238,170,0)"/><text xml:space="preserve" x="124.1" y="342.433" font-family="Calibri" font-size="7.5" fill="rgb(0,0,0)" text-anchor="middle">3</text>
<polygon points="128.1,335.6 136.1,335.6 136.1,343.6 128.1,343.6" fill="rgb(0,205,0)"/><text xml:space="preserve" x="132.1" y="342.433" font-family="Calibri" font-size="7.5" fill="rgb(255,255,255)" text-anchor="middle">1</text>
<polygon points="136.1,335.6 144.1,335.6 144.1,343.6 136.1,343.6" fill="rgb(0,205,0)"/><text xml:space="preserve" x="140.1" y="342.433" font-family="Calibri" font-size="7.5" fill="rgb(255,255,255)" text-anchor="middle">1</text>
<polygon points="144.1,335.6 152.1,335.6 152.1,343.6 144.1,343.6" fill="rgb(0,205,0)"/><text xml:space="preserve" x="148.1" y="342.433" font-family="Calibri" font-size="7.5" fill="rgb(255,255,255)" text-anchor="middle">1</text>
<polygon points="162.1,335.6 170.1,335.6 170.1,343.6 162.1,343.6" fill="rgb(37,172,143)"/>
<polygon points="170.1,335.6 178.1,335.6 178.1,343.6 170.1,343.6" fill="rgb(36,171,143)"/>
<polygon points="178.1,335.6 186.1,335.6 186.1,343.6 178.1,343.6" fill="rgb(7,56,136)"/>
<polygon points="186.1,335.6 194.1,335.6 194.1,343.6 186.1,343.6" fill="rgb(2,35,135)"/>
<polygon points="194.1,335.6 202.1,335.6 202.1,343.6 194.1,343.6" fill="rgb(11,73,137)"/>
<polygon points="212.1,335.6 220.1,335.6 220.1,343.6 212.1,343.6" fill="rgb(255,255,255)"/>
<polygon points="220.1,335.6 228.1,335.6 228.1,343.6 220.1,343.6" fill="rgb(255,255,255)"/>
<polygon points="228.1,335.6 236.1,335.6 236.1,343.6 228.1,343.6" fill="rgb(255,255,255)"/>
<polygon points="236.1,335.6 244.1,335.6 244.1,343.6 236.1,343.6" fill="rgb(255,255,255)"/>
<polygon points="244.1,335.6 252.1,335.6 252.1,343.6 244.1,343.6" fill="rgb(255,255,255)"/>
<polygon points="252.1,335.6 260.1,335.6 260.1,343.6 252.1,343.6" fill="rgb(205,0,205)"/>
<polygon points="260.1,335.6 268.1,335.6 268.1,343.6 260.1,343.6" fill="rgb(255,255,255)"/>
<polygon points="268.1,335.6 276.1,335.6 276.1,343.6 268.1,343.6" fill="rgb(255,255,255)"/>
<polygon points="112.1,343.6 120.1,343.6 120.1,351.6 112.1,351.6" fill="rgb(205,0,0)"/><text xml:space="preserve" x="116.1" y="350.433" font-family="Calibri" font-size="7.5" fill="rgb(255,255,255)" text-anchor="middle">4</text>
<polygon points="120.1,343.6 128.1,343.6 128.1,351.6 120.1,351.6" fill="rgb(238,170,0)"/><text xml:space="preserve" x="124.1" y="350.433" font-family="Calibri" font-size="7.5" fill="rgb(0,0,0)" text-anchor="middle">3</text>
<polygon points="128.1,343.6 136.1,343.6 136.1,351.6 128.1,351.6" fill="rgb(0,205,0)"/><text xml:space="preserve" x="132.1" y="350.433" font-family="Calibri" font-size="7.5" fill="rgb(255,255,255)" text-anchor="middle">1</text>
<polygon points="136.1,343.6 144.1,343.6 144.1,351.6 136.1,351.6" fill="rgb(0,205,0)"/><text xml:space="preserve" x="140.1" y="350.433" font-family="Calibri" font-size="7.5" fill="rgb(255,255,255)" text-anchor="middle">1</text>
<polygon points="144.1,343.6 152.1,343.6 152.1,351.6 144.1,351.6" fill="rgb(0,205,0)"/><text xml:space="preserve" x="148.1" y="350.433" font-family="Calibri" font-size="7.5" fill="rgb(255,255,255)" text-anchor="middle">1</text>
<polygon points="162.1,343.6 170.1,343.6 170.1,351.6 162.1,351.6" fill="rgb(45,203,145)"/>
<polygon points="170.1,343.6 178.1,343.6 178.1,351.6 170.1,351.6" fill="rgb(38,176,143)"/>
<polygon points="178.1,343.6 186.1,343.6 186.1,351.6 178.1,351.6" fill="rgb(0,30,135)"/>
<polygon points="186.1,343.6 194.1,343.6 194.1,351.6 186.1,351.6" fill="rgb(0,27,135)"/>
<polygon points="194.1,343.6 202.1,343.6 202.1,351.6 194.1,351.6" fill="rgb(0,27,135)"/>
<polygon points="212.1,343.6 220.1,343.6 220.1,351.6 212.1,351.6" fill="rgb(255,255,255)"/>
<polygon points="220.1,343.6 228.1,343.6 228.1,351.6 220.1,351.6" fill="rgb(255,255,255)"/>
<polygon points="228.1,343.6 236.1,343.6 236.1,351.6 228.1,351.6" fill="rgb(255,255,255)"/>
<polygon points="236.1,343.6 244.1,343.6 244.1,351.6 236.1,351.6" fill="rgb(255,255,255)"/>
<polygon points="244.1,343.6 252.1,343.6 252.1,351.6 244.1,351.6" fill="rgb(255,255,255)"/>
<polygon points="252.1,343.6 260.1,343.6 260.1,351.6 252.1,351.6" fill="rgb(255,255,255)"/>
<polygon points="260.1,343.6 268.1,343.6 268.1,351.6 260.1,351.6" fill="rgb(255,255,255)"/>
<polygon points="268.1,343.6 276.1,343.6 276.1,351.6 268.1,351.6" fill="rgb(255,255,255)"/>
<polygon points="112.1,351.6 120.1,351.6 120.1,359.6 112.1,359.6" fill="rgb(205,0,0)"/><text xml:space="preserve" x="116.1" y="358.433" font-family="Calibri" font-size="7.5" fill="rgb(255,255,255)" text-anchor="middle">4</text>
<polygon points="120.1,351.6 128.1,351.6 128.1,359.6 120.1,359.6" fill="rgb(238,170,0)"/><text xml:space="preserve" x="124.1" y="358.433" font-family="Calibri" font-size="7.5" fill="rgb(0,0,0)" text-anchor="middle">3</text>
<polygon points="128.1,351.6 136.1,351.6 136.1,359.6 128.1,359.6" fill="rgb(0,205,0)"/><text xml:space="preserve" x="132.1" y="358.433" font-family="Calibri" font-size="7.5" fill="rgb(255,255,255)" text-anchor="middle">1</text>
<polygon points="136.1,351.6 144.1,351.6 144.1,359.6 136.1,359.6" fill="rgb(0,205,0)"/><text xml:space="preserve" x="140.1" y="358.433" font-family="Calibri" font-size="7.5" fill="rgb(255,255,255)" text-anchor="middle">1</text>
<polygon points="144.1,351.6 152.1,351.6 152.1,359.6 144.1,359.6" fill="rgb(0,205,0)"/><text xml:space="preserve" x="148.1" y="358.433" font-family="Calibri" font-size="7.5" fill="rgb(255,255,255)" text-anchor="middle">1</text>
<polygon points="162.1,351.6 170.1,351.6 170.1,359.6 162.1,359.6" fill="rgb(62,217,136)"/>
<polygon points="170.1,351.6 178.1,351.6 178.1,359.6 170.1,359.6" fill="rgb(35,165,142)"/>
<polygon points="178.1,351.6 186.1,351.6 186.1,359.6 178.1,359.6" fill="rgb(3,41,135)"/>
<polygon points="186.1,351.6 194.1,351.6 194.1,359.6 186.1,359.6" fill="rgb(9,64,137)"/>
<polygon points="194.1,351.6 202.1,351.6 202.1,359.6 194.1,359.6" fill="rgb(9,65,137)"/>
<polygon points="212.1,351.6 220.1,351.6 220.1,359.6 212.1,359.6" fill="rgb(255,255,255)"/>
<polygon points="220.1,351.6 228.1,351.6 228.1,359.6 220.1,359.6" fill="rgb(255,255,255)"/>
<polygon points="228.1,351.6 236.1,351.6 236.1,359.6 228.1,359.6" fill="rgb(255,255,255)"/>
<polygon points="236.1,351.6 244.1,351.6 244.1,359.6 236.1,359.6" fill="rgb(255,255,255)"/>
<polygon points="244.1,351.6 252.1,351.6 252.1,359.6 244.1,359.6" fill="rgb(255,255,255)"/>
<polygon points="252.1,351.6 260.1,351.6 260.1,359.6 252.1,359.6" fill="rgb(255,255,255)"/>
<polygon points="260.1,351.6 268.1,351.6 268.1,359.6 260.1,359.6" fill="rgb(255,255,255)"/>
<polygon points="268.1,351.6 276.1,351.6 276.1,359.6 268.1,359.6" fill="rgb(255,255,255)"/>
<polygon points="112.1,359.6 120.1,359.6 120.1,367.6 112.1,367.6" fill="rgb(205,0,0)"/><text xml:space="preserve" x="116.1" y="366.433" font-family="Calibri" font-size="7.5" fill="rgb(255,255,255)" text-anchor="middle">4</text>
<polygon points="120.1,359.6 128.1,359.6 128.1,367.6 120.1,367.6" fill="rgb(238,170,0)"/><text xml:space="preserve" x="124.1" y="366.433" font-family="Calibri" font-size="7.5" fill="rgb(0,0,0)" text-anchor="middle">3</text>
<polygon points="128.1,359.6 136.1,359.6 136.1,367.6 128.1,367.6" fill="rgb(0,205,0)"/><text xml:space="preserve" x="132.1" y="366.433" font-family="Calibri" font-size="7.5" fill="rgb(255,255,255)" text-anchor="middle">1</text>
<polygon points="136.1,359.6 144.1,359.6 144.1,367.6 136.1,367.6" fill="rgb(0,205,0)"/><text xml:space="preserve" x="140.1" y="366.433" font-family="Calibri" font-size="7.5" fill="rgb(255,255,255)" text-anchor="middle">1</text>
<polygon points="144.1,359.6 152.1,359.6 152.1,367.6 144.1,367.6" fill="rgb(0,205,0)"/><text xml:space="preserve" x="148.1" y="366.433" font-family="Calibri" font-size="7.5" fill="rgb(255,255,255)" text-anchor="middle">1</text>
<polygon points="162.1,359.6 170.1,359.6 170.1,367.6 162.1,367.6" fill="rgb(85,214,119)"/>
<polygon points="170.1,359.6 178.1,359.6 178.1,367.6 170.1,367.6" fill="rgb(34,163,142)"/>
<polygon points="178.1,359.6 186.1,359.6 186.1,367.6 178.1,367.6" fill="rgb(0,27,135)"/>
<polygon points="186.1,359.6 194.1,359.6 194.1,367.6 186.1,367.6" fill="rgb(0,27,135)"/>
<polygon points="194.1,359.6 202.1,359.6 202.1,367.6 194.1,367.6" fill="rgb(0,27,135)"/>
<polygon points="212.1,359.6 220.1,359.6 220.1,367.6 212.1,367.6" fill="rgb(255,255,255)"/>
<polygon points="220.1,359.6 228.1,359.6 228.1,367.6 220.1,367.6" fill="rgb(255,255,255)"/>
<polygon points="228.1,359.6 236.1,359.6 236.1,367.6 228.1,367.6" fill="rgb(255,255,255)"/>
<polygon points="236.1,359.6 244.1,359.6 244.1,367.6 236.1,367.6" fill="rgb(205,0,205)"/>
<polygon points="244.1,359.6 252.1,359.6 252.1,367.6 244.1,367.6" fill="rgb(255,255,255)"/>
<polygon points="252.1,359.6 260.1,359.6 260.1,367.6 252.1,367.6" fill="rgb(255,255,255)"/>
<polygon points="260.1,359.6 268.1,359.6 268.1,367.6 260.1,367.6" fill="rgb(255,255,255)"/>
<polygon points="268.1,359.6 276.1,359.6 276.1,367.6 268.1,367.6" fill="rgb(255,255,255)"/>
<polygon points="112.1,335.6 152.1,335.6 152.1,367.6 112.1,367.6" fill="none" stroke="black" stroke-width="1"/>
<polygon points="162.1,335.6 202.1,335.6 202.1,367.6 162.1,367.6" fill="none" stroke="black" stroke-width="1"/>
<polygon points="212.1,335.6 276.1,335.6 276.1,367.6 212.1,367.6" fill="none" stroke="black" stroke-width="1"/>
<text xml:space="preserve" x="148.05" y="400.6" font-family="Calibri" font-size="8" text-anchor="middle">ClusterAssignment</text>
<polygon points="108.05,407.6 128.05,407.6 128.05,427.6 108.05,427.6" fill="rgb(0,205,0)"/><polygon points="108.05,407.6 128.05,407.6 128.05,427.6 108.05,427.6" fill="none" stroke="black" stroke-width="1"/><text xml:space="preserve" x="118.05" y="420.433" font-family="Calibri" font-size="7.5" fill="rgb(255,255,255)" text-anchor="middle">1.0</text>
<polygon points="128.05,407.6 148.05,407.6 148.05,427.6 128.05,427.6" fill="rgb(170,238,0)"/><polygon points="128.05,407.6 148.05,407.6 148.05,427.6 128.05,427.6" fill="none" stroke="black" stroke-width="1"/><text xml:space="preserve" x="138.05" y="420.433" font-family="Calibri" font-size="7.5" fill="rgb(0,0,0)" text-anchor="middle">2.0</text>
<polygon points="148.05,407.6 168.05,407.6 168.05,427.6 148.05,427.6" fill="rgb(238,170,0)"/><polygon points="148.05,407.6 168.05,407.6 168.05,427.6 148.05,427.6" fill="none" stroke="black" stroke-width="1"/><text xml:space="preserve" x="158.05" y="420.433" font-family="Calibri" font-size="7.5" fill="rgb(0,0,0)" text-anchor="middle">3.0</text>
<polygon points="168.05,407.6 188.05,407.6 188.05,427.6 168.05,427.6" fill="rgb(205,0,0)"/><polygon points="168.05,407.6 188.05,407.6 188.05,427.6 168.05,427.6" fill="none" stroke="black" stroke-width="1"/><text xml:space="preserve" x="178.05" y="420.433" font-family="Calibri" font-size="7.5" fill="rgb(255,255,255)" text-anchor="middle">4.0</text>
<text xml:space="preserve" x="148.05" y="460.6" font-family="Calibri" font-size="8" text-anchor="middle">Expression</text>
<polygon points="108.05,467.6 128.05,467.6 128.05,487.6 108.05,487.6" fill="rgb(0,27,135)"/><polygon points="108.05,467.6 128.05,467.6 128.05,487.6 108.05,487.6" fill="none" stroke="black" stroke-width="1"/><text xml:space="preserve" x="118.05" y="480.433" font-family="Calibri" font-size="7.5" fill="rgb(255,255,255)" text-anchor="middle">0.0</text>
<polygon points="128.05,467.6 148.05,467.6 148.05,487.6 128.05,487.6" fill="rgb(32,155,142)"/><polygon points="128.05,467.6 148.05,467.6 148.05,487.6 128.05,487.6" fill="none" stroke="black" stroke-width="1"/><text xml:space="preserve" x="138.05" y="480.433" font-family="Calibri" font-size="7.5" fill="rgb(255,255,255)" text-anchor="middle">1.0</text>
<polygon points="148.05,467.6 168.05,467.6 168.05,487.6 148.05,487.6" fill="rgb(116,210,97)"/><polygon points="148.05,467.6 168.05,467.6 168.05,487.6 148.05,487.6" fill="none" stroke="black" stroke-width="1"/><text xml:space="preserve" x="158.05" y="480.433" font-family="Calibri" font-size="7.5" fill="rgb(0,0,0)" text-anchor="middle">2.0</text>
<polygon points="168.05,467.6 188.05,467.6 188.05,487.6 168.05,487.6" fill="rgb(252,194,1)"/><polygon points="168.05,467.6 188.05,467.6 188.05,487.6 168.05,487.6" fill="none" stroke="black" stroke-width="1"/><text xml:space="preserve" x="178.05" y="480.433" font-family="Calibri" font-size="7.5" fill="rgb(0,0,0)" text-anchor="middle">3.0</text>
<text xml:space="preserve" x="148.05" y="520.6" font-family="Calibri" font-size="8" text-anchor="middle">PANTHERclass</text>
<polygon points="108.05,527.6 128.05,527.6 128.05,547.6 108.05,547.6" fill="rgb(255,255,255)"/><polygon points="108.05,527.6 128.05,527.6 128.05,547.6 108.05,547.6" fill="none" stroke="black" stroke-width="1"/><text xml:space="preserve" x="118.05" y="540.433" font-family="Calibri" font-size="7.5" fill="rgb(0,0,0)" text-anchor="middle">0.0</text>
<polygon points="128.05,527.6 148.05,527.6 148.05,547.6 128.05,547.6" fill="rgb(238,170,238)"/><polygon points="128.05,527.6 148.05,527.6 148.05,547.6 128.05,547.6" fill="none" stroke="black" stroke-width="1"/><text xml:space="preserve" x="138.05" y="540.433" font-family="Calibri" font-size="7.5" fill="rgb(0,0,0)" text-anchor="middle">0.3</text>
<polygon points="148.05,527.6 168.05,527.6 168.05,547.6 148.05,547.6" fill="rgb(221,84,221)"/><polygon points="148.05,527.6 168.05,527.6 168.05,547.6 148.05,547.6" fill="none" stroke="black" stroke-width="1"/><text xml:space="preserve" x="158.05" y="540.433" font-family="Calibri" font-size="7.5" fill="rgb(0,0,0)" text-anchor="middle">0.7</text>
<polygon points="168.05,527.6 188.05,527.6 188.05,547.6 168.05,547.6" fill="rgb(205,0,205)"/><polygon points="168.05,527.6 188.05,527.6 188.05,547.6 168.05,547.6" fill="none" stroke="black" stroke-width="1"/><text xml:space="preserve" x="178.05" y="540.433" font-family="Calibri" font-size="7.5" fill="rgb(255,255,255)" text-anchor="middle">1.0</text>
</svg>
