<?xml version="1.0" standalone="no"?><!DOCTYPE svg PUBLIC "-//W3C//DTD SVG 1.1//EN" "http://www.w3.org/Graphics/SVG/1.1/DTD/svg11.dtd">
<svg width="283.2" height="591.6" version="1.1" xmlns="http://www.w3.org/2000/svg">
<text xml:space="preserve" x="95.2" y="342.6" font-family="Calibri" font-size="8" text-anchor="end">ALKAL2</text>
<text xml:space="preserve" x="95.2" y="350.6" font-family="Calibri" font-size="8" text-anchor="end">TPD52L1</text>
<text xml:space="preserve" x="95.2" y="358.6" font-family="Calibri" font-size="8" text-anchor="end">S1PR1</text>
<text xml:space="preserve" x="95.2" y="366.6" font-family="Calibri" font-size="8" text-anchor="end">QRFPR</text>
<text xml:space="preserve" x="95.2" y="374.6" font-family="Calibri" font-size="8" text-anchor="end">POPDC3</text>
<text xml:space="preserve" x="95.2" y="382.6" font-family="Calibri" font-size="8" text-anchor="end">DIO3</text>
<text xml:space="preserve" x="95.2" y="390.6" font-family="Calibri" font-size="8" text-anchor="end">DIO3OS</text>
<text xml:space="preserve" x="106.2" y="331.6" font-family="Calibri" font-size="8" transform="rotate(270 106.2 331.6)">c3</text>
<text xml:space="preserve" x="114.2" y="331.6" font-family="Calibri" font-size="8" transform="rotate(270 114.2 331.6)">c1</text>
<text xml:space="preserve" x="122.2" y="331.6" font-family="Calibri" font-size="8" transform="rotate(270 122.2 331.6)">c4</text>
<text xml:space="preserve" x="130.2" y="331.6" font-family="Calibri" font-size="8" transform="rotate(270 130.2 331.6)">c5</text>
<text xml:space="preserve" x="138.2" y="331.6" font-family="Calibri" font-size="8" transform="rotate(270 138.2 331.6)">c2</text>
<text xml:space="preserve" x="156.2" y="331.6" font-family="Calibri" font-size="8" transform="rotate(270 156.2 331.6)">c3_mean</text>
<text xml:space="preserve" x="164.2" y="331.6" font-family="Calibri" font-size="8" transform="rotate(270 164.2 331.6)">c1_mean</text>
<text xml:space="preserve" x="172.2" y="331.6" font-family="Calibri" font-size="8" transform="rotate(270 172.2 331.6)">c4_mean</text>
<text xml:space="preserve" x="180.2" y="331.6" font-family="Calibri" font-size="8" transform="rotate(270 180.2 331.6)">c5_mean</text>
<text xml:space="preserve" x="188.2" y="331.6" font-family="Calibri" font-size="8" transform="rotate(270 188.2 331.6)">c2_mean</text>
<text xml:space="preserve" x="206.2" y="331.6" font-family="Calibri" font-size="8" transform="rotate(270 206.2 331.6)">transcription_factor</text>
<text xml:space="preserve" x="214.2" y="331.6" font-family="Calibri" font-size="8" transform="rotate(270 214.2 331.6)">transmembrane_signal_receptor</text>
<text xml:space="preserve" x="222.2" y="331.6" font-family="Calibri" font-size="8" transform="rotate(270 222.2 331.6)">growth_factor</text>
<text xml:space="preserve" x="230.2" y="331.6" font-family="Calibri" font-size="8" transform="rotate(270 230.2 331.6)">peptide_hormone</text>
<text xml:space="preserve" x="238.2" y="331.6" font-family="Calibri" font-size="8" transform="rotate(270 238.2 331.6)">cytoskeletal_protein</text>
<text xml:space="preserve" x="246.2" y="331.6" font-family="Calibri" font-size="8" transform="rotate(270 246.2 331.6)">ion_channel</text>
<text xml:space="preserve" x="254.2" y="331.6" font-family="Calibri" font-size="8" transform="rotate(270 254.2 331.6)">integrin</text>
<text xml:space="preserve" x="262.2" y="331.6" font-family="Calibri" font-size="8" transform="rotate(270 262.2 331.6)">extracellular_matrix_protein</text>
<polygon points="99.2,335.6 107.2,335.6 107.2,343.6 99.2,343.6" fill="rgb(205,0,0)"/><text xml:space="preserve" x="103.2" y="342.433" font-family="Calibri" font-size="7.5" fill="rgb(255,255,255)" text-anchor="middle">4</text>
<polygon points="107.2,335.6 115.2,335.6 115.2,343.6 107.2,343.6" fill="rgb(205,0,0)"/><text xml:space="preserve" x="111.2" y="342.433" font-family="Calibri" font-size="7.5" fill="rgb(255,255,255)" text-anchor="middle">4</text>
<polygon points="115.2,335.6 123.2,335.6 123.2,343.6 115.2,343.6" fill="rgb(0,205,0)"/><text xml:space="preserve" x="119.2" y="342.433" font-family="Calibri" font-size="7.5" fill="rgb(255,255,255)" text-anchor="middle">1</text>
<polygon points="123.2,335.6 131.2,335.6 131.2,343.6 123.2,343.6" fill="rgb(0,205,0)"/><text xml:space="preserve" x="127.2" y="342.433" font-family="Calibri" font-size="7.5" fill="rgb(255,255,255)" text-anchor="middle">1</text>
<polygon points="131.2,335.6 139.2,335.6 139.2,343.6 131.2,343.6" fill="rgb(0,205,0)"/><text xml:space="preserve" x="135.2" y="342.433" font-family="Calibri" font-size="7.5" fill="rgb(255,255,255)" text-anchor="middle">1</text>
<polygon points="149.2,335.6 157.2,335.6 157.2,343.6 149.2,343.6" fill="rgb(34,161,142)"/>
<polygon points="157.2,335.6 165.2,335.6 165.2,343.6 157.2,343.6" fill="rgb(51,218,144)"/>
<polygon points="165.2,335.6 173.2,335.6 173.2,343.6 165.2,343.6" fill="rgb(3,42,135)"/>
<polygon points="173.2,335.6 181.2,335.6 181.2,343.6 173.2,343.6" fill="rgb(7,56,136)"/>
<polygon points="181.2,335.6 189.2,335.6 189.2,343.6 181.2,343.6" fill="rgb(13,80,138)"/>
<polygon points="199.2,335.6 207.2,335.6 207.2,343.6 199.2,343.6" fill="rgb(255,255,255)"/>
<polygon points="207.2,335.6 215.2,335.6 215.2,343.6 207.2,343.6" fill="rgb(255,255,255)"/>
<polygon points="215.2,335.6 223.2,335.6 223.2,343.6 215.2,343.6" fill="rgb(255,255,255)"/>
<polygon points="223.2,335.6 231.2,335.6 231.2,343.6 223.2,343.6" fill="rgb(255,255,255)"/>
<polygon points="231.2,335.6 239.2,335.6 239.2,343.6 231.2,343.6" fill="rgb(255,255,255)"/>
<polygon points="239.2,335.6 247.2,335.6 247.2,343.6 239.2,343.6" fill="rgb(255,255,255)"/>
<polygon points="247.2,335.6 255.2,335.6 255.2,343.6 247.2,343.6" fill="rgb(255,255,255)"/>
<polygon points="255.2,335.6 263.2,335.6 263.2,343.6 255.2,343.6" fill="rgb(255,255,255)"/>
<polygon points="99.2,343.6 107.2,343.6 107.2,351.6 99.2,351.6" fill="rgb(205,0,0)"/><text xml:space="preserve" x="103.2" y="350.433" font-family="Calibri" font-size="7.5" fill="rgb(255,255,255)" text-anchor="middle">4</text>
<polygon points="107.2,343.6 115.2,343.6 115.2,351.6 107.2,351.6" fill="rgb(205,0,0)"/><text xml:space="preserve" x="111.2" y="350.433" font-family="Calibri" font-size="7.5" fill="rgb(255,255,255)" text-anchor="middle">4</text>
<polygon points="115.2,343.6 123.2,343.6 123.2,351.6 115.2,351.6" fill="rgb(0,205,0)"/><text xml:space="preserve" x="119.2" y="350.433" font-family="Calibri" font-size="7.5" fill="rgb(255,255,255)" text-anchor="middle">1</text>
<polygon points="123.2,343.6 131.2,343.6 131.2,351.6 123.2,351.6" fill="rgb(0,205,0)"/><text xml:space="preserve" x="127.2" y="350.433" font-family="Calibri" font-size="7.5" fill="rgb(255,255,255)" text-anchor="middle">1</text>
<polygon points="131.2,343.6 139.2,343.6 139.2,351.6 131.2,351.6" fill="rgb(0,205,0)"/><text xml:space="preserve" x="135.2" y="350.433" font-family="Calibri" font-size="7.5" fill="rgb(255,255,255)" text-anchor="middle">1</text>
<polygon points="149.2,343.6 157.2,343.6 157.2,351.6 149.2,351.6" fill="rgb(48,217,145)"/>
<polygon points="157.2,343.6 165.2,343.6 165.2,351.6 157.2,351.6" fill="rgb(122,209,93)"/>
<polygon points="165.2,343.6 173.2,343.6 173.2,351.6 165.2,351.6" fill="rgb(5,48,136)"/>
<polygon points="173.2,343.6 181.2,343.6 181.2,351.6 173.2,351.6" fill="rgb(7,57,136)"/>
<polygon points="181.2,343.6 189.2,343.6 189.2,351.6 181.2,351.6" fill="rgb(7,55,136)"/>
<polygon points="199.2,343.6 207.2,343.6 207.2,351.6 199.2,351.6" fill="rgb(255,255,255)"/>
<polygon points="207.2,343.6 215.2,343.6 215.2,351.6 207.2,351.6" fill="rgb(255,255,255)"/>
<polygon points="215.2,343.6 223.2,343.6 223.2,351.6 215.2,351.6" fill="rgb(255,255,255)"/>
<polygon points="223.2,343.6 231.2,343.6 231.2,351.6 223.2,351.6" fill="rgb(255,255,255)"/>
<polygon points="231.2,343.6 239.2,343.6 239.2,351.6 231.2,351.6" fill="rgb(255,255,255)"/>
<polygon points="239.2,343.6 247.2,343.6 247.2,351.6 239.2,351.6" fill="rgb(255,255,255)"/>
<polygon points="247.2,343.6 255.2,343.6 255.2,351.6 247.2,351.6" fill="rgb(255,255,255)"/>
<polygon points="255.2,343.6 263.2,343.6 263.2,351.6 255.2,351.6" fill="rgb(255,255,255)"/>
<polygon points="99.2,351.6 107.2,351.6 107.2,359.6 99.2,359.6" fill="rgb(205,0,0)"/><text xml:space="preserve" x="103.2" y="358.433" font-family="Calibri" font-size="7.5" fill="rgb(255,255,255)" text-anchor="middle">4</text>
<polygon points="107.2,351.6 115.2,351.6 115.2,359.6 107.2,359.6" fill="rgb(205,0,0)"/><text xml:space="preserve" x="111.2" y="358.433" font-family="Calibri" font-size="7.5" fill="rgb(255,255,255)" text-anchor="middle">4</text>
<polygon points="115.2,351.6 123.2,351.6 123.2,359.6 115.2,359.6" fill="rgb(0,205,0)"/><text xml:space="preserve" x="119.2" y="358.433" font-family="Calibri" font-size="7.5" fill="rgb(255,255,255)" text-anchor="middle">1</text>
<polygon points="123.2,351.6 131.2,351.6 131.2,359.6 123.2,359.6" fill="rgb(0,205,0)"/><text xml:space="preserve" x="127.2" y="358.433" font-family="Calibri" font-size="7.5" fill="rgb(255,255,255)" text-anchor="middle">1</text>
<polygon points="131.2,351.6 139.2,351.6 139.2,359.6 131.2,359.6" fill="rgb(0,205,0)"/><text xml:space="preserve" x="135.2" y="358.433" font-family="Calibri" font-size="7.5" fill="rgb(255,255,255)" text-anchor="middle">1</text>
<polygon points="149.2,351.6 157.2,351.6 157.2,359.6 149.2,359.6" fill="rgb(162,205,64)"/>
<polygon points="157.2,351.6 165.2,351.6 165.2,359.6 157.2,359.6" fill="rgb(47,213,145)"/>
<polygon points="165.2,351.6 173.2,351.6 173.2,359.6 165.2,359.6" fill="rgb(1,32,135)"/>
<polygon points="173.2,351.6 181.2,351.6 181.2,359.6 173.2,359.6" fill="rgb(2,37,135)"/>
<polygon points="181.2,351.6 189.2,351.6 189.2,359.6 181.2,359.6" fill="rgb(1,34,135)"/>
<polygon points="199.2,351.6 207.2,351.6 207.2,359.6 199.2,359.6" fill="rgb(255,255,255)"/>
<polygon points="207.2,351.6 215.2,351.6 215.2,359.6 207.2,359.6" fill="rgb(255,255,255)"/>
<polygon points="215.2,351.6 223.2,351.6 223.2,359.6 215.2,359.6" fill="rgb(255,255,255)"/>
<polygon points="223.2,351.6 231.2,351.6 231.2,359.6 223.2,359.6" fill="rgb(255,255,255)"/>
<polygon points="231.2,351.6 239.2,351.6 239.2,359.6 231.2,359.6" fill="rgb(255,255,255)"/>
<polygon points="239.2,351.6 247.2,351.6 247.2,359.6 239.2,359.6" fill="rgb(255,255,255)"/>
<polygon points="247.2,351.6 255.2,351.6 255.2,359.6 247.2,359.6" fill="rgb(255,255,255)"/>
<polygon points="255.2,351.6 263.2,351.6 263.2,359.6 255.2,359.6" fill="rgb(255,255,255)"/>
<polygon points="99.2,359.6 107.2,359.6 107.2,367.6 99.2,367.6" fill="rgb(205,0,0)"/><text xml:space="preserve" x="103.2" y="366.433" font-family="Calibri" font-size="7.5" fill="rgb(255,255,255)" text-anchor="middle">4</text>
<polygon points="107.2,359.6 115.2,359.6 115.2,367.6 107.2,367.6" fill="rgb(205,0,0)"/><text xml:space="preserve" x="111.2" y="366.433" font-family="Calibri" font-size="7.5" fill="rgb(255,255,255)" text-anchor="middle">4</text>
<polygon points="115.2,359.6 123.2,359.6 123.2,367.6 115.2,367.6" fill="rgb(0,205,0)"/><text xml:space="preserve" x="119.2" y="366.433" font-family="Calibri" font-size="7.5" fill="rgb(255,255,255)" text-anchor="middle">1</text>
<polygon points="123.2,359.6 131.2,359.6 131.2,367.6 123.2,367.6" fill="rgb(0,205,0)"/><text xml:space="preserve" x="127.2" y="366.433" font-family="Calibri" font-size="7.5" fill="rgb(255,255,255)" text-anchor="middle">1</text>
<polygon points="131.2,359.6 139.2,359.6 139.2,367.6 131.2,367.6" fill="rgb(0,205,0)"/><text xml:space="preserve" x="135.2" y="366.433" font-family="Calibri" font-size="7.5" fill="rgb(255,255,255)" text-anchor="middle">1</text>
<polygon points="149.2,359.6 157.2,359.6 157.2,367.6 149.2,367.6" fill="rgb(39,183,143)"/>
<polygon points="157.2,359.6 165.2,359.6 165.2,367.6 157.2,367.6" fill="rgb(65,217,134)"/>
<polygon points="165.2,359.6 173.2,359.6 173.2,367.6 165.2,367.6" fill="rgb(0,27,135)"/>
<polygon points="173.2,359.6 181.2,359.6 181.2,367.6 173.2,367.6" fill="rgb(0,27,135)"/>
<polygon points="181.2,359.6 189.2,359.6 189.2,367.6 181.2,367.6" fill="rgb(17,96,138)"/>
<polygon points="199.2,359.6 207.2,359.6 207.2,367.6 199.2,367.6" fill="rgb(255,255,255)"/>
<polygon points="207.2,359.6 215.2,359.6 215.2,367.6 207.2,367.6" fill="rgb(255,255,255)"/>
<polygon points="215.2,359.6 223.2,359.6 223.2,367.6 215.2,367.6" fill="rgb(255,255,255)"/>
<polygon points="223.2,359.6 231.2,359.6 231.2,367.6 223.2,367.6" fill="rgb(255,255,255)"/>
<polygon points="231.2,359.6 239.2,359.6 239.2,367.6 231.2,367.6" fill="rgb(255,255,255)"/>
<polygon points="239.2,359.6 247.2,359.6 247.2,367.6 239.2,367.6" fill="rgb(255,255,255)"/>
<polygon points="247.2,359.6 255.2,359.6 255.2,367.6 247.2,367.6" fill="rgb(255,255,255)"/>
<polygon points="255.2,359.6 263.2,359.6 263.2,367.6 255.2,367.6" fill="rgb(255,255,255)"/>
<polygon points="99.2,367.6 107.2,367.6 107.2,375.6 99.2,375.6" fill="rgb(205,0,0)"/><text xml:space="preserve" x="103.2" y="374.433" font-family="Calibri" font-size="7.5" fill="rgb(255,255,255)" text-anchor="middle">4</text>
<polygon points="107.2,367.6 115.2,367.6 115.2,375.6 107.2,375.6" fill="rgb(205,0,0)"/><text xml:space="preserve" x="111.2" y="374.433" font-family="Calibri" font-size="7.5" fill="rgb(255,255,255)" text-anchor="middle">4</text>
<polygon points="115.2,367.6 123.2,367.6 123.2,375.6 115.2,375.6" fill="rgb(0,205,0)"/><text xml:space="preserve" x="119.2" y="374.433" font-family="Calibri" font-size="7.5" fill="rgb(255,255,255)" text-anchor="middle">1</text>
<polygon points="123.2,367.6 131.2,367.6 131.2,375.6 123.2,375.6" fill="rgb(0,205,0)"/><text xml:space="preserve" x="127.2" y="374.433" font-family="Calibri" font-size="7.5" fill="rgb(255,255,255)" text-anchor="middle">1</text>
<polygon points="131.2,367.6 139.2,367.6 139.2,375.6 131.2,375.6" fill="rgb(0,205,0)"/><text xml:space="preserve" x="135.2" y="374.433" font-family="Calibri" font-size="7.5" fill="rgb(255,255,255)" text-anchor="middle">1</text>
<polygon points="149.2,367.6 157.2,367.6 157.2,375.6 149.2,375.6" fill="rgb(34,163,142)"/>
<polygon points="157.2,367.6 165.2,367.6 165.2,375.6 157.2,375.6" fill="rgb(47,213,145)"/>
<polygon points="165.2,367.6 173.2,367.6 173.2,375.6 165.2,375.6" fill="rgb(8,60,136)"/>
<polygon points="173.2,367.6 181.2,367.6 181.2,375.6 173.2,375.6" fill="rgb(4,44,136)"/>
<polygon points="181.2,367.6 189.2,367.6 189.2,375.6 181.2,375.6" fill="rgb(9,65,137)"/>
<polygon points="199.2,367.6 207.2,367.6 207.2,375.6 199.2,375.6" fill="rgb(255,255,255)"/>
<polygon points="207.2,367.6 215.2,367.6 215.2,375.6 207.2,375.6" fill="rgb(255,255,255)"/>
<polygon points="215.2,367.6 223.2,367.6 223.2,375.6 215.2,375.6" fill="rgb(255,255,255)"/>
<polygon points="223.2,367.6 231.2,367.6 231.2,375.6 223.2,375.6" fill="rgb(255,255,255)"/>
<polygon points="231.2,367.6 239.2,367.6 239.2,375.6 231.2,375.6" fill="rgb(255,255,255)"/>
<polygon points="239.2,367.6 247.2,367.6 247.2,375.6 239.2,375.6" fill="rgb(255,255,255)"/>
<polygon points="247.2,367.6 255.2,367.6 255.2,375.6 247.2,375.6" fill="rgb(255,255,255)"/>
<polygon points="255.2,367.6 263.2,367.6 263.2,375.6 255.2,375.6" fill="rgb(255,255,255)"/>
<polygon points="99.2,375.6 107.2,375.6 107.2,383.6 99.2,383.6" fill="rgb(205,0,0)"/><text xml:space="preserve" x="103.2" y="382.433" font-family="Calibri" font-size="7.5" fill="rgb(255,255,255)" text-anchor="middle">4</text>
<polygon points="107.2,375.6 115.2,375.6 115.2,383.6 107.2,383.6" fill="rgb(205,0,0)"/><text xml:space="preserve" x="111.2" y="382.433" font-family="Calibri" font-size="7.5" fill="rgb(255,255,255)" text-anchor="middle">4</text>
<polygon points="115.2,375.6 123.2,375.6 123.2,383.6 115.2,383.6" fill="rgb(0,205,0)"/><text xml:space="preserve" x="119.2" y="382.433" font-family="Calibri" font-size="7.5" fill="rgb(255,255,255)" text-anchor="middle">1</text>
<polygon points="123.2,375.6 131.2,375.6 131.2,383.6 123.2,383.6" fill="rgb(0,205,0)"/><text xml:space="preserve" x="127.2" y="382.433" font-family="Calibri" font-size="7.5" fill="rgb(255,255,255)" text-anchor="middle">1</text>
<polygon points="131.2,375.6 139.2,375.6 139.2,383.6 131.2,383.6" fill="rgb(0,205,0)"/><text xml:space="preserve" x="135.2" y="382.433" font-family="Calibri" font-size="7.5" fill="rgb(255,255,255)" text-anchor="middle">1</text>
<polygon points="149.2,375.6 157.2,375.6 157.2,383.6 149.2,383.6" fill="rgb(42,193,144)"/>
<polygon points="157.2,375.6 165.2,375.6 165.2,383.6 157.2,383.6" fill="rgb(99,212,110)"/>
<polygon points="165.2,375.6 173.2,375.6 173.2,383.6 165.2,383.6" fill="rgb(7,57,136)"/>
<polygon points="173.2,375.6 181.2,375.6 181.2,383.6 173.2,383.6" fill="rgb(1,33,135)"/>
<polygon points="181.2,375.6 189.2,375.6 189.2,383.6 181.2,383.6" fill="rgb(2,37,135)"/>
<polygon points="199.2,375.6 207.2,375.6 207.2,383.6 199.2,383.6" fill="rgb(255,255,255)"/>
<polygon points="207.2,375.6 215.2,375.6 215.2,383.6 207.2,383.6" fill="rgb(255,255,255)"/>
<polygon points="215.2,375.6 223.2,375.6 223.2,383.6 215.2,383.6" fill="rgb(255,255,255)"/>
<polygon points="223.2,375.6 231.2,375.6 231.2,383.6 223.2,383.6" fill="rgb(255,255,255)"/>
<polygon points="231.2,375.6 239.2,375.6 239.2,383.6 231.2,383.6" fill="rgb(255,255,255)"/>
<polygon points="239.2,375.6 247.2,375.6 247.2,383.6 239.2,383.6" fill="rgb(255,255,255)"/>
<polygon points="247.2,375.6 255.2,375.6 255.2,383.6 247.2,383.6" fill="rgb(255,255,255)"/>
<polygon points="255.2,375.6 263.2,375.6 263.2,383.6 255.2,383.6" fill="rgb(255,255,255)"/>
<polygon points="99.2,383.6 107.2,383.6 107.2,391.6 99.2,391.6" fill="rgb(205,0,0)"/><text xml:space="preserve" x="103.2" y="390.433" font-family="Calibri" font-size="7.5" fill="rgb(255,255,255)" text-anchor="middle">4</text>
<polygon points="107.2,383.6 115.2,383.6 115.2,391.6 107.2,391.6" fill="rgb(205,0,0)"/><text xml:space="preserve" x="111.2" y="390.433" font-family="Calibri" font-size="7.5" fill="rgb(255,255,255)" text-anchor="middle">4</text>
<polygon points="115.2,383.6 123.2,383.6 123.2,391.6 115.2,391.6" fill="rgb(0,205,0)"/><text xml:space="preserve" x="119.2" y="390.433" font-family="Calibri" font-size="7.5" fill="rgb(255,255,255)" text-anchor="middle">1</text>
<polygon points="123.2,383.6 131.2,383.6 131.2,391.6 123.2,391.6" fill="rgb(0,205,0)"/><text xml:space="preserve" x="127.2" y="390.433" font-family="Calibri" font-size="7.5" fill="rgb(255,255,255)" text-anchor="middle">1</text>
<polygon points="131.2,383.6 139.2,383.6 139.2,391.6 131.2,391.6" fill="rgb(0,205,0)"/><text xml:space="preserve" x="135.2" y="390.433" font-family="Calibri" font-size="7.5" fill="rgb(255,255,255)" text-anchor="middle">1</text>
<polygon points="149.2,383.6 157.2,383.6 157.2,391.6 149.2,391.6" fill="rgb(37,174,143)"/>
<polygon points="157.2,383.6 165.2,383.6 165.2,391.6 157.2,391.6" fill="rgb(45,204,145)"/>
<polygon points="165.2,383.6 173.2,383.6 173.2,391.6 165.2,391.6" fill="rgb(8,59,136)"/>
<polygon points="173.2,383.6 181.2,383.6 181.2,391.6 173.2,391.6" fill="rgb(1,34,135)"/>
<polygon points="181.2,383.6 189.2,383.6 189.2,391.6 181.2,391.6" fill="rgb(1,33,135)"/>
<polygon points="199.2,383.6 207.2,383.6 207.2,391.6 199.2,391.6" fill="rgb(255,255,255)"/>
<polygon points="207.2,383.6 215.2,383.6 215.2,391.6 207.2,391.6" fill="rgb(255,255,255)"/>
<polygon points="215.2,383.6 223.2,383.6 223.2,391.6 215.2,391.6" fill="rgb(255,255,255)"/>
<polygon points="223.2,383.6 231.2,383.6 231.2,391.6 223.2,391.6" fill="rgb(255,255,255)"/>
<polygon points="231.2,383.6 239.2,383.6 239.2,391.6 231.2,391.6" fill="rgb(255,255,255)"/>
<polygon points="239.2,383.6 247.2,383.6 247.2,391.6 239.2,391.6" fill="rgb(255,255,255)"/>
<polygon points="247.2,383.6 255.2,383.6 255.2,391.6 247.2,391.6" fill="rgb(255,255,255)"/>
<polygon points="255.2,383.6 263.2,383.6 263.2,391.6 255.2,391.6" fill="rgb(255,255,255)"/>
<polygon points="99.2,335.6 139.2,335.6 139.2,391.6 99.2,391.6" fill="none" stroke="black" stroke-width="1"/>
<polygon points="149.2,335.6 189.2,335.6 189.2,391.6 149.2,391.6" fill="none" stroke="black" stroke-width="1"/>
<polygon points="199.2,335.6 263.2,335.6 263.2,391.6 199.2,391.6" fill="none" stroke="black" stroke-width="1"/>
<text xml:space="preserve" x="141.6" y="424.6" font-family="Calibri" font-size="8" text-anchor="middle">ClusterAssignment</text>
<polygon points="101.6,431.6 121.6,431.6 121.6,451.6 101.6,451.6" fill="rgb(0,205,0)"/><polygon points="101.6,431.6 121.6,431.6 121.6,451.6 101.6,451.6" fill="none" stroke="black" stroke-width="1"/><text xml:space="preserve" x="111.6" y="444.433" font-family="Calibri" font-size="7.5" fill="rgb(255,255,255)" text-anchor="middle">1.0</text>
<polygon points="121.6,431.6 141.6,431.6 141.6,451.6 121.6,451.6" fill="rgb(170,238,0)"/><polygon points="121.6,431.6 141.6,431.6 141.6,451.6 121.6,451.6" fill="none" stroke="black" stroke-width="1"/><text xml:space="preserve" x="131.6" y="444.433" font-family="Calibri" font-size="7.5" fill="rgb(0,0,0)" text-anchor="middle">2.0</text>
<polygon points="141.6,431.6 161.6,431.6 161.6,451.6 141.6,451.6" fill="rgb(238,170,0)"/><polygon points="141.6,431.6 161.6,431.6 161.6,451.6 141.6,451.6" fill="none" stroke="black" stroke-width="1"/><text xml:space="preserve" x="151.6" y="444.433" font-family="Calibri" font-size="7.5" fill="rgb(0,0,0)" text-anchor="middle">3.0</text>
<polygon points="161.6,431.6 181.6,431.6 181.6,451.6 161.6,451.6" fill="rgb(205,0,0)"/><polygon points="161.6,431.6 181.6,431.6 181.6,451.6 161.6,451.6" fill="none" stroke="black" stroke-width="1"/><text xml:space="preserve" x="171.6" y="444.433" font-family="Calibri" font-size="7.5" fill="rgb(255,255,255)" text-anchor="middle">4.0</text>
<text xml:space="preserve" x="141.6" y="484.6" font-family="Calibri" font-size="8" text-anchor="middle">Expression</text>
<polygon points="101.6,491.6 121.6,491.6 121.6,511.6 101.6,511.6" fill="rgb(0,27,135)"/><polygon points="101.6,491.6 121.6,491.6 121.6,511.6 101.6,511.6" fill="none" stroke="black" stroke-width="1"/><text xml:space="preserve" x="111.6" y="504.433" font-family="Calibri" font-size="7.5" fill="rgb(255,255,255)" text-anchor="middle">0.0</text>
<polygon points="121.6,491.6 141.6,491.6 141.6,511.6 121.6,511.6" fill="rgb(32,155,142)"/><polygon points="121.6,491.6 141.6,491.6 141.6,511.6 121.6,511.6" fill="none" stroke="black" stroke-width="1"/><text xml:space="preserve" x="131.6" y="504.433" font-family="Calibri" font-size="7.5" fill="rgb(255,255,255)" text-anchor="middle">1.0</text>
<polygon points="141.6,491.6 161.6,491.6 161.6,511.6 141.6,511.6" fill="rgb(116,210,97)"/><polygon points="141.6,491.6 161.6,491.6 161.6,511.6 141.6,511.6" fill="none" stroke="black" stroke-width="1"/><text xml:space="preserve" x="151.6" y="504.433" font-family="Calibri" font-size="7.5" fill="rgb(0,0,0)" text-anchor="middle">2.0</text>
<polygon points="161.6,491.6 181.6,491.6 181.6,511.6 161.6,511.6" fill="rgb(252,194,1)"/><polygon points="161.6,491.6 181.6,491.6 181.6,511.6 161.6,511.6" fill="none" stroke="black" stroke-width="1"/><text xml:space="preserve" x="171.6" y="504.433" font-family="Calibri" font-size="7.5" fill="rgb(0,0,0)" text-anchor="middle">3.0</text>
<text xml:space="preserve" x="141.6" y="544.6" font-family="Calibri" font-size="8" text-anchor="middle">PANTHERclass</text>
<polygon points="101.6,551.6 121.6,551.6 121.6,571.6 101.6,571.6" fill="rgb(255,255,255)"/><polygon points="101.6,551.6 121.6,551.6 121.6,571.6 101.6,571.6" fill="none" stroke="black" stroke-width="1"/><text xml:space="preserve" x="111.6" y="564.433" font-family="Calibri" font-size="7.5" fill="rgb(0,0,0)" text-anchor="middle">0.0</text>
<polygon points="121.6,551.6 141.6,551.6 141.6,571.6 121.6,571.6" fill="rgb(238,170,238)"/><polygon points="121.6,551.6 141.6,551.6 141.6,571.6 121.6,571.6" fill="none" stroke="black" stroke-width="1"/><text xml:space="preserve" x="131.6" y="564.433" font-family="Calibri" font-size="7.5" fill="rgb(0,0,0)" text-anchor="middle">0.3</text>
<polygon points="141.6,551.6 161.6,551.6 161.6,571.6 141.6,571.6" fill="rgb(221,84,221)"/><polygon points="141.6,551.6 161.6,551.6 161.6,571.6 141.6,571.6" fill="none" stroke="black" stroke-width="1"/><text xml:space="preserve" x="151.6" y="564.433" font-family="Calibri" font-size="7.5" fill="rgb(0,0,0)" text-anchor="middle">0.7</text>
<polygon points="161.6,551.6 181.6,551.6 181.6,571.6 161.6,571.6" fill="rgb(205,0,205)"/><polygon points="161.6,551.6 181.6,551.6 181.6,571.6 161.6,571.6" fill="none" stroke="black" stroke-width="1"/><text xml:space="preserve" x="171.6" y="564.433" font-family="Calibri" font-size="7.5" fill="rgb(255,255,255)" text-anchor="middle">1.0</text>
</svg>
