<?xml version="1.0" standalone="no"?><!DOCTYPE svg PUBLIC "-//W3C//DTD SVG 1.1//EN" "http://www.w3.org/Graphics/SVG/1.1/DTD/svg11.dtd">
<svg width="283.5" height="575.6" version="1.1" xmlns="http://www.w3.org/2000/svg">
<text xml:space="preserve" x="95.5" y="342.6" font-family="Calibri" font-size="8" text-anchor="end">ATP5MG</text>
<text xml:space="preserve" x="95.5" y="350.6" font-family="Calibri" font-size="8" text-anchor="end">LGALS3</text>
<text xml:space="preserve" x="95.5" y="358.6" font-family="Calibri" font-size="8" text-anchor="end">STC1</text>
<text xml:space="preserve" x="95.5" y="366.6" font-family="Calibri" font-size="8" text-anchor="end">PRSS12</text>
<text xml:space="preserve" x="95.5" y="374.6" font-family="Calibri" font-size="8" text-anchor="end">ATP5PF</text>
<text xml:space="preserve" x="106.5" y="331.6" font-family="Calibri" font-size="8" transform="rotate(270 106.5 331.6)">c3</text>
<text xml:space="preserve" x="114.5" y="331.6" font-family="Calibri" font-size="8" transform="rotate(270 114.5 331.6)">c1</text>
<text xml:space="preserve" x="122.5" y="331.6" font-family="Calibri" font-size="8" transform="rotate(270 122.5 331.6)">c4</text>
<text xml:space="preserve" x="130.5" y="331.6" font-family="Calibri" font-size="8" transform="rotate(270 130.5 331.6)">c5</text>
<text xml:space="preserve" x="138.5" y="331.6" font-family="Calibri" font-size="8" transform="rotate(270 138.5 331.6)">c2</text>
<text xml:space="preserve" x="156.5" y="331.6" font-family="Calibri" font-size="8" transform="rotate(270 156.5 331.6)">c3_mean</text>
<text xml:space="preserve" x="164.5" y="331.6" font-family="Calibri" font-size="8" transform="rotate(270 164.5 331.6)">c1_mean</text>
<text xml:space="preserve" x="172.5" y="331.6" font-family="Calibri" font-size="8" transform="rotate(270 172.5 331.6)">c4_mean</text>
<text xml:space="preserve" x="180.5" y="331.6" font-family="Calibri" font-size="8" transform="rotate(270 180.5 331.6)">c5_mean</text>
<text xml:space="preserve" x="188.5" y="331.6" font-family="Calibri" font-size="8" transform="rotate(270 188.5 331.6)">c2_mean</text>
<text xml:space="preserve" x="206.5" y="331.6" font-family="Calibri" font-size="8" transform="rotate(270 206.5 331.6)">transcription_factor</text>
<text xml:space="preserve" x="214.5" y="331.6" font-family="Calibri" font-size="8" transform="rotate(270 214.5 331.6)">transmembrane_signal_receptor</text>
<text xml:space="preserve" x="222.5" y="331.6" font-family="Calibri" font-size="8" transform="rotate(270 222.5 331.6)">growth_factor</text>
<text xml:space="preserve" x="230.5" y="331.6" font-family="Calibri" font-size="8" transform="rotate(270 230.5 331.6)">peptide_hormone</text>
<text xml:space="preserve" x="238.5" y="331.6" font-family="Calibri" font-size="8" transform="rotate(270 238.5 331.6)">cytoskeletal_protein</text>
<text xml:space="preserve" x="246.5" y="331.6" font-family="Calibri" font-size="8" transform="rotate(270 246.5 331.6)">ion_channel</text>
<text xml:space="preserve" x="254.5" y="331.6" font-family="Calibri" font-size="8" transform="rotate(270 254.5 331.6)">integrin</text>
<text xml:space="preserve" x="262.5" y="331.6" font-family="Calibri" font-size="8" transform="rotate(270 262.5 331.6)">extracellular_matrix_protein</text>
<polygon points="99.5,335.6 107.5,335.6 107.5,343.6 99.5,343.6" fill="rgb(170,238,0)"/><text xml:space="preserve" x="103.5" y="342.433" font-family="Calibri" font-size="7.5" fill="rgb(0,0,0)" text-anchor="middle">2</text>
<polygon points="107.5,335.6 115.5,335.6 115.5,343.6 107.5,343.6" fill="rgb(205,0,0)"/><text xml:space="preserve" x="111.5" y="342.433" font-family="Calibri" font-size="7.5" fill="rgb(255,255,255)" text-anchor="middle">4</text>
<polygon points="115.5,335.6 123.5,335.6 123.5,343.6 115.5,343.6" fill="rgb(205,0,0)"/><text xml:space="preserve" x="119.5" y="342.433" font-family="Calibri" font-size="7.5" fill="rgb(255,255,255)" text-anchor="middle">4</text>
<polygon points="123.5,335.6 131.5,335.6 131.5,343.6 123.5,343.6" fill="rgb(0,205,0)"/><text xml:space="preserve" x="127.5" y="342.433" font-family="Calibri" font-size="7.5" fill="rgb(255,255,255)" text-anchor="middle">1</text>
<polygon points="131.5,335.6 139.5,335.6 139.5,343.6 131.5,343.6" fill="rgb(0,205,0)"/><text xml:space="preserve" x="135.5" y="342.433" font-family="Calibri" font-size="7.5" fill="rgb(255,255,255)" text-anchor="middle">1</text>
<polygon points="149.5,335.6 157.5,335.6 157.5,343.6 149.5,343.6" fill="rgb(11,73,137)"/>
<polygon points="157.5,335.6 165.5,335.6 165.5,343.6 157.5,343.6" fill="rgb(48,215,145)"/>
<polygon points="165.5,335.6 173.5,335.6 173.5,343.6 165.5,343.6" fill="rgb(44,199,144)"/>
<polygon points="173.5,335.6 181.5,335.6 181.5,343.6 173.5,343.6" fill="rgb(11,73,137)"/>
<polygon points="181.5,335.6 189.5,335.6 189.5,343.6 181.5,343.6" fill="rgb(10,69,137)"/>
<polygon points="199.5,335.6 207.5,335.6 207.5,343.6 199.5,343.6" fill="rgb(255,255,255)"/>
<polygon points="207.5,335.6 215.5,335.6 215.5,343.6 207.5,343.6" fill="rgb(255,255,255)"/>
<polygon points="215.5,335.6 223.5,335.6 223.5,343.6 215.5,343.6" fill="rgb(255,255,255)"/>
<polygon points="223.5,335.6 231.5,335.6 231.5,343.6 223.5,343.6" fill="rgb(255,255,255)"/>
<polygon points="231.5,335.6 239.5,335.6 239.5,343.6 231.5,343.6" fill="rgb(255,255,255)"/>
<polygon points="239.5,335.6 247.5,335.6 247.5,343.6 239.5,343.6" fill="rgb(255,255,255)"/>
<polygon points="247.5,335.6 255.5,335.6 255.5,343.6 247.5,343.6" fill="rgb(255,255,255)"/>
<polygon points="255.5,335.6 263.5,335.6 263.5,343.6 255.5,343.6" fill="rgb(255,255,255)"/>
<polygon points="99.5,343.6 107.5,343.6 107.5,351.6 99.5,351.6" fill="rgb(170,238,0)"/><text xml:space="preserve" x="103.5" y="350.433" font-family="Calibri" font-size="7.5" fill="rgb(0,0,0)" text-anchor="middle">2</text>
<polygon points="107.5,343.6 115.5,343.6 115.5,351.6 107.5,351.6" fill="rgb(205,0,0)"/><text xml:space="preserve" x="111.5" y="350.433" font-family="Calibri" font-size="7.5" fill="rgb(255,255,255)" text-anchor="middle">4</text>
<polygon points="115.5,343.6 123.5,343.6 123.5,351.6 115.5,351.6" fill="rgb(205,0,0)"/><text xml:space="preserve" x="119.5" y="350.433" font-family="Calibri" font-size="7.5" fill="rgb(255,255,255)" text-anchor="middle">4</text>
<polygon points="123.5,343.6 131.5,343.6 131.5,351.6 123.5,351.6" fill="rgb(0,205,0)"/><text xml:space="preserve" x="127.5" y="350.433" font-family="Calibri" font-size="7.5" fill="rgb(255,255,255)" text-anchor="middle">1</text>
<polygon points="131.5,343.6 139.5,343.6 139.5,351.6 131.5,351.6" fill="rgb(0,205,0)"/><text xml:space="preserve" x="135.5" y="350.433" font-family="Calibri" font-size="7.5" fill="rgb(255,255,255)" text-anchor="middle">1</text>
<polygon points="149.5,343.6 157.5,343.6 157.5,351.6 149.5,351.6" fill="rgb(16,91,138)"/>
<polygon points="157.5,343.6 165.5,343.6 165.5,351.6 157.5,351.6" fill="rgb(113,211,99)"/>
<polygon points="165.5,343.6 173.5,343.6 173.5,351.6 165.5,351.6" fill="rgb(43,198,144)"/>
<polygon points="173.5,343.6 181.5,343.6 181.5,351.6 173.5,351.6" fill="rgb(2,38,135)"/>
<polygon points="181.5,343.6 189.5,343.6 189.5,351.6 181.5,351.6" fill="rgb(5,48,136)"/>
<polygon points="199.5,343.6 207.5,343.6 207.5,351.6 199.5,351.6" fill="rgb(255,255,255)"/>
<polygon points="207.5,343.6 215.5,343.6 215.5,351.6 207.5,351.6" fill="rgb(255,255,255)"/>
<polygon points="215.5,343.6 223.5,343.6 223.5,351.6 215.5,351.6" fill="rgb(255,255,255)"/>
<polygon points="223.5,343.6 231.5,343.6 231.5,351.6 223.5,351.6" fill="rgb(255,255,255)"/>
<polygon points="231.5,343.6 239.5,343.6 239.5,351.6 231.5,351.6" fill="rgb(255,255,255)"/>
<polygon points="239.5,343.6 247.5,343.6 247.5,351.6 239.5,351.6" fill="rgb(255,255,255)"/>
<polygon points="247.5,343.6 255.5,343.6 255.5,351.6 247.5,351.6" fill="rgb(255,255,255)"/>
<polygon points="255.5,343.6 263.5,343.6 263.5,351.6 255.5,351.6" fill="rgb(205,0,205)"/>
<polygon points="99.5,351.6 107.5,351.6 107.5,359.6 99.5,359.6" fill="rgb(170,238,0)"/><text xml:space="preserve" x="103.5" y="358.433" font-family="Calibri" font-size="7.5" fill="rgb(0,0,0)" text-anchor="middle">2</text>
<polygon points="107.5,351.6 115.5,351.6 115.5,359.6 107.5,359.6" fill="rgb(205,0,0)"/><text xml:space="preserve" x="111.5" y="358.433" font-family="Calibri" font-size="7.5" fill="rgb(255,255,255)" text-anchor="middle">4</text>
<polygon points="115.5,351.6 123.5,351.6 123.5,359.6 115.5,359.6" fill="rgb(205,0,0)"/><text xml:space="preserve" x="119.5" y="358.433" font-family="Calibri" font-size="7.5" fill="rgb(255,255,255)" text-anchor="middle">4</text>
<polygon points="123.5,351.6 131.5,351.6 131.5,359.6 123.5,359.6" fill="rgb(0,205,0)"/><text xml:space="preserve" x="127.5" y="358.433" font-family="Calibri" font-size="7.5" fill="rgb(255,255,255)" text-anchor="middle">1</text>
<polygon points="131.5,351.6 139.5,351.6 139.5,359.6 131.5,359.6" fill="rgb(0,205,0)"/><text xml:space="preserve" x="135.5" y="358.433" font-family="Calibri" font-size="7.5" fill="rgb(255,255,255)" text-anchor="middle">1</text>
<polygon points="149.5,351.6 157.5,351.6 157.5,359.6 149.5,359.6" fill="rgb(16,92,138)"/>
<polygon points="157.5,351.6 165.5,351.6 165.5,359.6 157.5,359.6" fill="rgb(252,194,1)"/>
<polygon points="165.5,351.6 173.5,351.6 173.5,359.6 165.5,359.6" fill="rgb(203,200,35)"/>
<polygon points="173.5,351.6 181.5,351.6 181.5,359.6 173.5,359.6" fill="rgb(10,67,137)"/>
<polygon points="181.5,351.6 189.5,351.6 189.5,359.6 181.5,359.6" fill="rgb(11,71,137)"/>
<polygon points="199.5,351.6 207.5,351.6 207.5,359.6 199.5,359.6" fill="rgb(255,255,255)"/>
<polygon points="207.5,351.6 215.5,351.6 215.5,359.6 207.5,359.6" fill="rgb(255,255,255)"/>
<polygon points="215.5,351.6 223.5,351.6 223.5,359.6 215.5,359.6" fill="rgb(255,255,255)"/>
<polygon points="223.5,351.6 231.5,351.6 231.5,359.6 223.5,359.6" fill="rgb(205,0,205)"/>
<polygon points="231.5,351.6 239.5,351.6 239.5,359.6 231.5,359.6" fill="rgb(255,255,255)"/>
<polygon points="239.5,351.6 247.5,351.6 247.5,359.6 239.5,359.6" fill="rgb(255,255,255)"/>
<polygon points="247.5,351.6 255.5,351.6 255.5,359.6 247.5,359.6" fill="rgb(255,255,255)"/>
<polygon points="255.5,351.6 263.5,351.6 263.5,359.6 255.5,359.6" fill="rgb(255,255,255)"/>
<polygon points="99.5,359.6 107.5,359.6 107.5,367.6 99.5,367.6" fill="rgb(170,238,0)"/><text xml:space="preserve" x="103.5" y="366.433" font-family="Calibri" font-size="7.5" fill="rgb(0,0,0)" text-anchor="middle">2</text>
<polygon points="107.5,359.6 115.5,359.6 115.5,367.6 107.5,367.6" fill="rgb(205,0,0)"/><text xml:space="preserve" x="111.5" y="366.433" font-family="Calibri" font-size="7.5" fill="rgb(255,255,255)" text-anchor="middle">4</text>
<polygon points="115.5,359.6 123.5,359.6 123.5,367.6 115.5,367.6" fill="rgb(205,0,0)"/><text xml:space="preserve" x="119.5" y="366.433" font-family="Calibri" font-size="7.5" fill="rgb(255,255,255)" text-anchor="middle">4</text>
<polygon points="123.5,359.6 131.5,359.6 131.5,367.6 123.5,367.6" fill="rgb(0,205,0)"/><text xml:space="preserve" x="127.5" y="366.433" font-family="Calibri" font-size="7.5" fill="rgb(255,255,255)" text-anchor="middle">1</text>
<polygon points="131.5,359.6 139.5,359.6 139.5,367.6 131.5,367.6" fill="rgb(0,205,0)"/><text xml:space="preserve" x="135.5" y="366.433" font-family="Calibri" font-size="7.5" fill="rgb(255,255,255)" text-anchor="middle">1</text>
<polygon points="149.5,359.6 157.5,359.6 157.5,367.6 149.5,367.6" fill="rgb(12,74,137)"/>
<polygon points="157.5,359.6 165.5,359.6 165.5,367.6 157.5,367.6" fill="rgb(46,208,145)"/>
<polygon points="165.5,359.6 173.5,359.6 173.5,367.6 165.5,367.6" fill="rgb(38,179,143)"/>
<polygon points="173.5,359.6 181.5,359.6 181.5,367.6 173.5,367.6" fill="rgb(7,56,136)"/>
<polygon points="181.5,359.6 189.5,359.6 189.5,367.6 181.5,367.6" fill="rgb(4,46,136)"/>
<polygon points="199.5,359.6 207.5,359.6 207.5,367.6 199.5,367.6" fill="rgb(255,255,255)"/>
<polygon points="207.5,359.6 215.5,359.6 215.5,367.6 207.5,367.6" fill="rgb(255,255,255)"/>
<polygon points="215.5,359.6 223.5,359.6 223.5,367.6 215.5,367.6" fill="rgb(255,255,255)"/>
<polygon points="223.5,359.6 231.5,359.6 231.5,367.6 223.5,367.6" fill="rgb(255,255,255)"/>
<polygon points="231.5,359.6 239.5,359.6 239.5,367.6 231.5,367.6" fill="rgb(255,255,255)"/>
<polygon points="239.5,359.6 247.5,359.6 247.5,367.6 239.5,367.6" fill="rgb(255,255,255)"/>
<polygon points="247.5,359.6 255.5,359.6 255.5,367.6 247.5,367.6" fill="rgb(255,255,255)"/>
<polygon points="255.5,359.6 263.5,359.6 263.5,367.6 255.5,367.6" fill="rgb(255,255,255)"/>
<polygon points="99.5,367.6 107.5,367.6 107.5,375.6 99.5,375.6" fill="rgb(170,238,0)"/><text xml:space="preserve" x="103.5" y="374.433" font-family="Calibri" font-size="7.5" fill="rgb(0,0,0)" text-anchor="middle">2</text>
<polygon points="107.5,367.6 115.5,367.6 115.5,375.6 107.5,375.6" fill="rgb(205,0,0)"/><text xml:space="preserve" x="111.5" y="374.433" font-family="Calibri" font-size="7.5" fill="rgb(255,255,255)" text-anchor="middle">4</text>
<polygon points="115.5,367.6 123.5,367.6 123.5,375.6 115.5,375.6" fill="rgb(205,0,0)"/><text xml:space="preserve" x="119.5" y="374.433" font-family="Calibri" font-size="7.5" fill="rgb(255,255,255)" text-anchor="middle">4</text>
<polygon points="123.5,367.6 131.5,367.6 131.5,375.6 123.5,375.6" fill="rgb(0,205,0)"/><text xml:space="preserve" x="127.5" y="374.433" font-family="Calibri" font-size="7.5" fill="rgb(255,255,255)" text-anchor="middle">1</text>
<polygon points="131.5,367.6 139.5,367.6 139.5,375.6 131.5,375.6" fill="rgb(0,205,0)"/><text xml:space="preserve" x="135.5" y="374.433" font-family="Calibri" font-size="7.5" fill="rgb(255,255,255)" text-anchor="middle">1</text>
<polygon points="149.5,367.6 157.5,367.6 157.5,375.6 149.5,375.6" fill="rgb(10,67,137)"/>
<polygon points="157.5,367.6 165.5,367.6 165.5,375.6 157.5,375.6" fill="rgb(44,202,145)"/>
<polygon points="165.5,367.6 173.5,367.6 173.5,375.6 165.5,375.6" fill="rgb(42,194,144)"/>
<polygon points="173.5,367.6 181.5,367.6 181.5,375.6 173.5,375.6" fill="rgb(10,66,137)"/>
<polygon points="181.5,367.6 189.5,367.6 189.5,375.6 181.5,375.6" fill="rgb(10,66,137)"/>
<polygon points="199.5,367.6 207.5,367.6 207.5,375.6 199.5,375.6" fill="rgb(255,255,255)"/>
<polygon points="207.5,367.6 215.5,367.6 215.5,375.6 207.5,375.6" fill="rgb(255,255,255)"/>
<polygon points="215.5,367.6 223.5,367.6 223.5,375.6 215.5,375.6" fill="rgb(255,255,255)"/>
<polygon points="223.5,367.6 231.5,367.6 231.5,375.6 223.5,375.6" fill="rgb(255,255,255)"/>
<polygon points="231.5,367.6 239.5,367.6 239.5,375.6 231.5,375.6" fill="rgb(255,255,255)"/>
<polygon points="239.5,367.6 247.5,367.6 247.5,375.6 239.5,375.6" fill="rgb(255,255,255)"/>
<polygon points="247.5,367.6 255.5,367.6 255.5,375.6 247.5,375.6" fill="rgb(255,255,255)"/>
<polygon points="255.5,367.6 263.5,367.6 263.5,375.6 255.5,375.6" fill="rgb(255,255,255)"/>
<polygon points="99.5,335.6 139.5,335.6 139.5,375.6 99.5,375.6" fill="none" stroke="black" stroke-width="1"/>
<polygon points="149.5,335.6 189.5,335.6 189.5,375.6 149.5,375.6" fill="none" stroke="black" stroke-width="1"/>
<polygon points="199.5,335.6 263.5,335.6 263.5,375.6 199.5,375.6" fill="none" stroke="black" stroke-width="1"/>
<text xml:space="preserve" x="141.75" y="408.6" font-family="Calibri" font-size="8" text-anchor="middle">ClusterAssignment</text>
<polygon points="101.75,415.6 121.75,415.6 121.75,435.6 101.75,435.6" fill="rgb(0,205,0)"/><polygon points="101.75,415.6 121.75,415.6 121.75,435.6 101.75,435.6" fill="none" stroke="black" stroke-width="1"/><text xml:space="preserve" x="111.75" y="428.433" font-family="Calibri" font-size="7.5" fill="rgb(255,255,255)" text-anchor="middle">1.0</text>
<polygon points="121.75,415.6 141.75,415.6 141.75,435.6 121.75,435.6" fill="rgb(170,238,0)"/><polygon points="121.75,415.6 141.75,415.6 141.75,435.6 121.75,435.6" fill="none" stroke="black" stroke-width="1"/><text xml:space="preserve" x="131.75" y="428.433" font-family="Calibri" font-size="7.5" fill="rgb(0,0,0)" text-anchor="middle">2.0</text>
<polygon points="141.75,415.6 161.75,415.6 161.75,435.6 141.75,435.6" fill="rgb(238,170,0)"/><polygon points="141.75,415.6 161.75,415.6 161.75,435.6 141.75,435.6" fill="none" stroke="black" stroke-width="1"/><text xml:space="preserve" x="151.75" y="428.433" font-family="Calibri" font-size="7.5" fill="rgb(0,0,0)" text-anchor="middle">3.0</text>
<polygon points="161.75,415.6 181.75,415.6 181.75,435.6 161.75,435.6" fill="rgb(205,0,0)"/><polygon points="161.75,415.6 181.75,415.6 181.75,435.6 161.75,435.6" fill="none" stroke="black" stroke-width="1"/><text xml:space="preserve" x="171.75" y="428.433" font-family="Calibri" font-size="7.5" fill="rgb(255,255,255)" text-anchor="middle">4.0</text>
<text xml:space="preserve" x="141.75" y="468.6" font-family="Calibri" font-size="8" text-anchor="middle">Expression</text>
<polygon points="101.75,475.6 121.75,475.6 121.75,495.6 101.75,495.6" fill="rgb(0,27,135)"/><polygon points="101.75,475.6 121.75,475.6 121.75,495.6 101.75,495.6" fill="none" stroke="black" stroke-width="1"/><text xml:space="preserve" x="111.75" y="488.433" font-family="Calibri" font-size="7.5" fill="rgb(255,255,255)" text-anchor="middle">0.0</text>
<polygon points="121.75,475.6 141.75,475.6 141.75,495.6 121.75,495.6" fill="rgb(32,155,142)"/><polygon points="121.75,475.6 141.75,475.6 141.75,495.6 121.75,495.6" fill="none" stroke="black" stroke-width="1"/><text xml:space="preserve" x="131.75" y="488.433" font-family="Calibri" font-size="7.5" fill="rgb(255,255,255)" text-anchor="middle">1.0</text>
<polygon points="141.75,475.6 161.75,475.6 161.75,495.6 141.75,495.6" fill="rgb(116,210,97)"/><polygon points="141.75,475.6 161.75,475.6 161.75,495.6 141.75,495.6" fill="none" stroke="black" stroke-width="1"/><text xml:space="preserve" x="151.75" y="488.433" font-family="Calibri" font-size="7.5" fill="rgb(0,0,0)" text-anchor="middle">2.0</text>
<polygon points="161.75,475.6 181.75,475.6 181.75,495.6 161.75,495.6" fill="rgb(252,194,1)"/><polygon points="161.75,475.6 181.75,475.6 181.75,495.6 161.75,495.6" fill="none" stroke="black" stroke-width="1"/><text xml:space="preserve" x="171.75" y="488.433" font-family="Calibri" font-size="7.5" fill="rgb(0,0,0)" text-anchor="middle">3.0</text>
<text xml:space="preserve" x="141.75" y="528.6" font-family="Calibri" font-size="8" text-anchor="middle">PANTHERclass</text>
<polygon points="101.75,535.6 121.75,535.6 121.75,555.6 101.75,555.6" fill="rgb(255,255,255)"/><polygon points="101.75,535.6 121.75,535.6 121.75,555.6 101.75,555.6" fill="none" stroke="black" stroke-width="1"/><text xml:space="preserve" x="111.75" y="548.433" font-family="Calibri" font-size="7.5" fill="rgb(0,0,0)" text-anchor="middle">0.0</text>
<polygon points="121.75,535.6 141.75,535.6 141.75,555.6 121.75,555.6" fill="rgb(238,170,238)"/><polygon points="121.75,535.6 141.75,535.6 141.75,555.6 121.75,555.6" fill="none" stroke="black" stroke-width="1"/><text xml:space="preserve" x="131.75" y="548.433" font-family="Calibri" font-size="7.5" fill="rgb(0,0,0)" text-anchor="middle">0.3</text>
<polygon points="141.75,535.6 161.75,535.6 161.75,555.6 141.75,555.6" fill="rgb(221,84,221)"/><polygon points="141.75,535.6 161.75,535.6 161.75,555.6 141.75,555.6" fill="none" stroke="black" stroke-width="1"/><text xml:space="preserve" x="151.75" y="548.433" font-family="Calibri" font-size="7.5" fill="rgb(0,0,0)" text-anchor="middle">0.7</text>
<polygon points="161.75,535.6 181.75,535.6 181.75,555.6 161.75,555.6" fill="rgb(205,0,205)"/><polygon points="161.75,535.6 181.75,535.6 181.75,555.6 161.75,555.6" fill="none" stroke="black" stroke-width="1"/><text xml:space="preserve" x="171.75" y="548.433" font-family="Calibri" font-size="7.5" fill="rgb(255,255,255)" text-anchor="middle">1.0</text>
</svg>
