<?xml version="1.0" standalone="no"?><!DOCTYPE svg PUBLIC "-//W3C//DTD SVG 1.1//EN" "http://www.w3.org/Graphics/SVG/1.1/DTD/svg11.dtd">
<svg width="270.3" height="567.6" version="1.1" xmlns="http://www.w3.org/2000/svg">
<text xml:space="preserve" x="82.3" y="342.6" font-family="Calibri" font-size="8" text-anchor="end">CHMP5</text>
<text xml:space="preserve" x="82.3" y="350.6" font-family="Calibri" font-size="8" text-anchor="end">SSTR1</text>
<text xml:space="preserve" x="82.3" y="358.6" font-family="Calibri" font-size="8" text-anchor="end">UQCRH</text>
<text xml:space="preserve" x="82.3" y="366.6" font-family="Calibri" font-size="8" text-anchor="end">KLC1</text>
<text xml:space="preserve" x="93.3" y="331.6" font-family="Calibri" font-size="8" transform="rotate(270 93.3 331.6)">c3</text>
<text xml:space="preserve" x="101.3" y="331.6" font-family="Calibri" font-size="8" transform="rotate(270 101.3 331.6)">c1</text>
<text xml:space="preserve" x="109.3" y="331.6" font-family="Calibri" font-size="8" transform="rotate(270 109.3 331.6)">c4</text>
<text xml:space="preserve" x="117.3" y="331.6" font-family="Calibri" font-size="8" transform="rotate(270 117.3 331.6)">c5</text>
<text xml:space="preserve" x="125.3" y="331.6" font-family="Calibri" font-size="8" transform="rotate(270 125.3 331.6)">c2</text>
<text xml:space="preserve" x="143.3" y="331.6" font-family="Calibri" font-size="8" transform="rotate(270 143.3 331.6)">c3_mean</text>
<text xml:space="preserve" x="151.3" y="331.6" font-family="Calibri" font-size="8" transform="rotate(270 151.3 331.6)">c1_mean</text>
<text xml:space="preserve" x="159.3" y="331.6" font-family="Calibri" font-size="8" transform="rotate(270 159.3 331.6)">c4_mean</text>
<text xml:space="preserve" x="167.3" y="331.6" font-family="Calibri" font-size="8" transform="rotate(270 167.3 331.6)">c5_mean</text>
<text xml:space="preserve" x="175.3" y="331.6" font-family="Calibri" font-size="8" transform="rotate(270 175.3 331.6)">c2_mean</text>
<text xml:space="preserve" x="193.3" y="331.6" font-family="Calibri" font-size="8" transform="rotate(270 193.3 331.6)">transcription_factor</text>
<text xml:space="preserve" x="201.3" y="331.6" font-family="Calibri" font-size="8" transform="rotate(270 201.3 331.6)">transmembrane_signal_receptor</text>
<text xml:space="preserve" x="209.3" y="331.6" font-family="Calibri" font-size="8" transform="rotate(270 209.3 331.6)">growth_factor</text>
<text xml:space="preserve" x="217.3" y="331.6" font-family="Calibri" font-size="8" transform="rotate(270 217.3 331.6)">peptide_hormone</text>
<text xml:space="preserve" x="225.3" y="331.6" font-family="Calibri" font-size="8" transform="rotate(270 225.3 331.6)">cytoskeletal_protein</text>
<text xml:space="preserve" x="233.3" y="331.6" font-family="Calibri" font-size="8" transform="rotate(270 233.3 331.6)">ion_channel</text>
<text xml:space="preserve" x="241.3" y="331.6" font-family="Calibri" font-size="8" transform="rotate(270 241.3 331.6)">integrin</text>
<text xml:space="preserve" x="249.3" y="331.6" font-family="Calibri" font-size="8" transform="rotate(270 249.3 331.6)">extracellular_matrix_protein</text>
<polygon points="86.3,335.6 94.3,335.6 94.3,343.6 86.3,343.6" fill="rgb(205,0,0)"/><text xml:space="preserve" x="90.3" y="342.433" font-family="Calibri" font-size="7.5" fill="rgb(255,255,255)" text-anchor="middle">4</text>
<polygon points="94.3,335.6 102.3,335.6 102.3,343.6 94.3,343.6" fill="rgb(238,170,0)"/><text xml:space="preserve" x="98.3" y="342.433" font-family="Calibri" font-size="7.5" fill="rgb(0,0,0)" text-anchor="middle">3</text>
<polygon points="102.3,335.6 110.3,335.6 110.3,343.6 102.3,343.6" fill="rgb(205,0,0)"/><text xml:space="preserve" x="106.3" y="342.433" font-family="Calibri" font-size="7.5" fill="rgb(255,255,255)" text-anchor="middle">4</text>
<polygon points="110.3,335.6 118.3,335.6 118.3,343.6 110.3,343.6" fill="rgb(0,205,0)"/><text xml:space="preserve" x="114.3" y="342.433" font-family="Calibri" font-size="7.5" fill="rgb(255,255,255)" text-anchor="middle">1</text>
<polygon points="118.3,335.6 126.3,335.6 126.3,343.6 118.3,343.6" fill="rgb(0,205,0)"/><text xml:space="preserve" x="122.3" y="342.433" font-family="Calibri" font-size="7.5" fill="rgb(255,255,255)" text-anchor="middle">1</text>
<polygon points="136.3,335.6 144.3,335.6 144.3,343.6 136.3,343.6" fill="rgb(39,180,143)"/>
<polygon points="144.3,335.6 152.3,335.6 152.3,343.6 144.3,343.6" fill="rgb(39,183,143)"/>
<polygon points="152.3,335.6 160.3,335.6 160.3,343.6 152.3,343.6" fill="rgb(38,179,143)"/>
<polygon points="160.3,335.6 168.3,335.6 168.3,343.6 160.3,343.6" fill="rgb(7,55,136)"/>
<polygon points="168.3,335.6 176.3,335.6 176.3,343.6 168.3,343.6" fill="rgb(6,53,136)"/>
<polygon points="186.3,335.6 194.3,335.6 194.3,343.6 186.3,343.6" fill="rgb(255,255,255)"/>
<polygon points="194.3,335.6 202.3,335.6 202.3,343.6 194.3,343.6" fill="rgb(255,255,255)"/>
<polygon points="202.3,335.6 210.3,335.6 210.3,343.6 202.3,343.6" fill="rgb(255,255,255)"/>
<polygon points="210.3,335.6 218.3,335.6 218.3,343.6 210.3,343.6" fill="rgb(255,255,255)"/>
<polygon points="218.3,335.6 226.3,335.6 226.3,343.6 218.3,343.6" fill="rgb(255,255,255)"/>
<polygon points="226.3,335.6 234.3,335.6 234.3,343.6 226.3,343.6" fill="rgb(255,255,255)"/>
<polygon points="234.3,335.6 242.3,335.6 242.3,343.6 234.3,343.6" fill="rgb(255,255,255)"/>
<polygon points="242.3,335.6 250.3,335.6 250.3,343.6 242.3,343.6" fill="rgb(255,255,255)"/>
<polygon points="86.3,343.6 94.3,343.6 94.3,351.6 86.3,351.6" fill="rgb(205,0,0)"/><text xml:space="preserve" x="90.3" y="350.433" font-family="Calibri" font-size="7.5" fill="rgb(255,255,255)" text-anchor="middle">4</text>
<polygon points="94.3,343.6 102.3,343.6 102.3,351.6 94.3,351.6" fill="rgb(238,170,0)"/><text xml:space="preserve" x="98.3" y="350.433" font-family="Calibri" font-size="7.5" fill="rgb(0,0,0)" text-anchor="middle">3</text>
<polygon points="102.3,343.6 110.3,343.6 110.3,351.6 102.3,351.6" fill="rgb(205,0,0)"/><text xml:space="preserve" x="106.3" y="350.433" font-family="Calibri" font-size="7.5" fill="rgb(255,255,255)" text-anchor="middle">4</text>
<polygon points="110.3,343.6 118.3,343.6 118.3,351.6 110.3,351.6" fill="rgb(0,205,0)"/><text xml:space="preserve" x="114.3" y="350.433" font-family="Calibri" font-size="7.5" fill="rgb(255,255,255)" text-anchor="middle">1</text>
<polygon points="118.3,343.6 126.3,343.6 126.3,351.6 118.3,351.6" fill="rgb(0,205,0)"/><text xml:space="preserve" x="122.3" y="350.433" font-family="Calibri" font-size="7.5" fill="rgb(255,255,255)" text-anchor="middle">1</text>
<polygon points="136.3,343.6 144.3,343.6 144.3,351.6 136.3,351.6" fill="rgb(41,189,144)"/>
<polygon points="144.3,343.6 152.3,343.6 152.3,351.6 144.3,351.6" fill="rgb(18,98,139)"/>
<polygon points="152.3,343.6 160.3,343.6 160.3,351.6 152.3,351.6" fill="rgb(54,218,142)"/>
<polygon points="160.3,343.6 168.3,343.6 168.3,351.6 160.3,351.6" fill="rgb(12,75,137)"/>
<polygon points="168.3,343.6 176.3,343.6 176.3,351.6 168.3,351.6" fill="rgb(7,55,136)"/>
<polygon points="186.3,343.6 194.3,343.6 194.3,351.6 186.3,351.6" fill="rgb(255,255,255)"/>
<polygon points="194.3,343.6 202.3,343.6 202.3,351.6 194.3,351.6" fill="rgb(255,255,255)"/>
<polygon points="202.3,343.6 210.3,343.6 210.3,351.6 202.3,351.6" fill="rgb(255,255,255)"/>
<polygon points="210.3,343.6 218.3,343.6 218.3,351.6 210.3,351.6" fill="rgb(255,255,255)"/>
<polygon points="218.3,343.6 226.3,343.6 226.3,351.6 218.3,351.6" fill="rgb(255,255,255)"/>
<polygon points="226.3,343.6 234.3,343.6 234.3,351.6 226.3,351.6" fill="rgb(255,255,255)"/>
<polygon points="234.3,343.6 242.3,343.6 242.3,351.6 234.3,351.6" fill="rgb(255,255,255)"/>
<polygon points="242.3,343.6 250.3,343.6 250.3,351.6 242.3,351.6" fill="rgb(255,255,255)"/>
<polygon points="86.3,351.6 94.3,351.6 94.3,359.6 86.3,359.6" fill="rgb(205,0,0)"/><text xml:space="preserve" x="90.3" y="358.433" font-family="Calibri" font-size="7.5" fill="rgb(255,255,255)" text-anchor="middle">4</text>
<polygon points="94.3,351.6 102.3,351.6 102.3,359.6 94.3,359.6" fill="rgb(238,170,0)"/><text xml:space="preserve" x="98.3" y="358.433" font-family="Calibri" font-size="7.5" fill="rgb(0,0,0)" text-anchor="middle">3</text>
<polygon points="102.3,351.6 110.3,351.6 110.3,359.6 102.3,359.6" fill="rgb(205,0,0)"/><text xml:space="preserve" x="106.3" y="358.433" font-family="Calibri" font-size="7.5" fill="rgb(255,255,255)" text-anchor="middle">4</text>
<polygon points="110.3,351.6 118.3,351.6 118.3,359.6 110.3,359.6" fill="rgb(0,205,0)"/><text xml:space="preserve" x="114.3" y="358.433" font-family="Calibri" font-size="7.5" fill="rgb(255,255,255)" text-anchor="middle">1</text>
<polygon points="118.3,351.6 126.3,351.6 126.3,359.6 118.3,359.6" fill="rgb(0,205,0)"/><text xml:space="preserve" x="122.3" y="358.433" font-family="Calibri" font-size="7.5" fill="rgb(255,255,255)" text-anchor="middle">1</text>
<polygon points="136.3,351.6 144.3,351.6 144.3,359.6 136.3,359.6" fill="rgb(40,184,144)"/>
<polygon points="144.3,351.6 152.3,351.6 152.3,359.6 144.3,359.6" fill="rgb(34,161,142)"/>
<polygon points="152.3,351.6 160.3,351.6 160.3,359.6 152.3,359.6" fill="rgb(38,176,143)"/>
<polygon points="160.3,351.6 168.3,351.6 168.3,359.6 160.3,359.6" fill="rgb(8,59,136)"/>
<polygon points="168.3,351.6 176.3,351.6 176.3,359.6 168.3,359.6" fill="rgb(7,55,136)"/>
<polygon points="186.3,351.6 194.3,351.6 194.3,359.6 186.3,359.6" fill="rgb(255,255,255)"/>
<polygon points="194.3,351.6 202.3,351.6 202.3,359.6 194.3,359.6" fill="rgb(255,255,255)"/>
<polygon points="202.3,351.6 210.3,351.6 210.3,359.6 202.3,359.6" fill="rgb(255,255,255)"/>
<polygon points="210.3,351.6 218.3,351.6 218.3,359.6 210.3,359.6" fill="rgb(255,255,255)"/>
<polygon points="218.3,351.6 226.3,351.6 226.3,359.6 218.3,359.6" fill="rgb(255,255,255)"/>
<polygon points="226.3,351.6 234.3,351.6 234.3,359.6 226.3,359.6" fill="rgb(255,255,255)"/>
<polygon points="234.3,351.6 242.3,351.6 242.3,359.6 234.3,359.6" fill="rgb(255,255,255)"/>
<polygon points="242.3,351.6 250.3,351.6 250.3,359.6 242.3,359.6" fill="rgb(255,255,255)"/>
<polygon points="86.3,359.6 94.3,359.6 94.3,367.6 86.3,367.6" fill="rgb(205,0,0)"/><text xml:space="preserve" x="90.3" y="366.433" font-family="Calibri" font-size="7.5" fill="rgb(255,255,255)" text-anchor="middle">4</text>
<polygon points="94.3,359.6 102.3,359.6 102.3,367.6 94.3,367.6" fill="rgb(238,170,0)"/><text xml:space="preserve" x="98.3" y="366.433" font-family="Calibri" font-size="7.5" fill="rgb(0,0,0)" text-anchor="middle">3</text>
<polygon points="102.3,359.6 110.3,359.6 110.3,367.6 102.3,367.6" fill="rgb(205,0,0)"/><text xml:space="preserve" x="106.3" y="366.433" font-family="Calibri" font-size="7.5" fill="rgb(255,255,255)" text-anchor="middle">4</text>
<polygon points="110.3,359.6 118.3,359.6 118.3,367.6 110.3,367.6" fill="rgb(0,205,0)"/><text xml:space="preserve" x="114.3" y="366.433" font-family="Calibri" font-size="7.5" fill="rgb(255,255,255)" text-anchor="middle">1</text>
<polygon points="118.3,359.6 126.3,359.6 126.3,367.6 118.3,367.6" fill="rgb(0,205,0)"/><text xml:space="preserve" x="122.3" y="366.433" font-family="Calibri" font-size="7.5" fill="rgb(255,255,255)" text-anchor="middle">1</text>
<polygon points="136.3,359.6 144.3,359.6 144.3,367.6 136.3,367.6" fill="rgb(39,183,143)"/>
<polygon points="144.3,359.6 152.3,359.6 152.3,367.6 144.3,367.6" fill="rgb(38,178,143)"/>
<polygon points="152.3,359.6 160.3,359.6 160.3,367.6 152.3,367.6" fill="rgb(38,179,143)"/>
<polygon points="160.3,359.6 168.3,359.6 168.3,367.6 160.3,367.6" fill="rgb(7,55,136)"/>
<polygon points="168.3,359.6 176.3,359.6 176.3,367.6 168.3,367.6" fill="rgb(7,56,136)"/>
<polygon points="186.3,359.6 194.3,359.6 194.3,367.6 186.3,367.6" fill="rgb(255,255,255)"/>
<polygon points="194.3,359.6 202.3,359.6 202.3,367.6 194.3,367.6" fill="rgb(255,255,255)"/>
<polygon points="202.3,359.6 210.3,359.6 210.3,367.6 202.3,367.6" fill="rgb(255,255,255)"/>
<polygon points="210.3,359.6 218.3,359.6 218.3,367.6 210.3,367.6" fill="rgb(255,255,255)"/>
<polygon points="218.3,359.6 226.3,359.6 226.3,367.6 218.3,367.6" fill="rgb(255,255,255)"/>
<polygon points="226.3,359.6 234.3,359.6 234.3,367.6 226.3,367.6" fill="rgb(255,255,255)"/>
<polygon points="234.3,359.6 242.3,359.6 242.3,367.6 234.3,367.6" fill="rgb(255,255,255)"/>
<polygon points="242.3,359.6 250.3,359.6 250.3,367.6 242.3,367.6" fill="rgb(255,255,255)"/>
<polygon points="86.3,335.6 126.3,335.6 126.3,367.6 86.3,367.6" fill="none" stroke="black" stroke-width="1"/>
<polygon points="136.3,335.6 176.3,335.6 176.3,367.6 136.3,367.6" fill="none" stroke="black" stroke-width="1"/>
<polygon points="186.3,335.6 250.3,335.6 250.3,367.6 186.3,367.6" fill="none" stroke="black" stroke-width="1"/>
<text xml:space="preserve" x="135.15" y="400.6" font-family="Calibri" font-size="8" text-anchor="middle">ClusterAssignment</text>
<polygon points="95.15,407.6 115.15,407.6 115.15,427.6 95.15,427.6" fill="rgb(0,205,0)"/><polygon points="95.15,407.6 115.15,407.6 115.15,427.6 95.15,427.6" fill="none" stroke="black" stroke-width="1"/><text xml:space="preserve" x="105.15" y="420.433" font-family="Calibri" font-size="7.5" fill="rgb(255,255,255)" text-anchor="middle">1.0</text>
<polygon points="115.15,407.6 135.15,407.6 135.15,427.6 115.15,427.6" fill="rgb(170,238,0)"/><polygon points="115.15,407.6 135.15,407.6 135.15,427.6 115.15,427.6" fill="none" stroke="black" stroke-width="1"/><text xml:space="preserve" x="125.15" y="420.433" font-family="Calibri" font-size="7.5" fill="rgb(0,0,0)" text-anchor="middle">2.0</text>
<polygon points="135.15,407.6 155.15,407.6 155.15,427.6 135.15,427.6" fill="rgb(238,170,0)"/><polygon points="135.15,407.6 155.15,407.6 155.15,427.6 135.15,427.6" fill="none" stroke="black" stroke-width="1"/><text xml:space="preserve" x="145.15" y="420.433" font-family="Calibri" font-size="7.5" fill="rgb(0,0,0)" text-anchor="middle">3.0</text>
<polygon points="155.15,407.6 175.15,407.6 175.15,427.6 155.15,427.6" fill="rgb(205,0,0)"/><polygon points="155.15,407.6 175.15,407.6 175.15,427.6 155.15,427.6" fill="none" stroke="black" stroke-width="1"/><text xml:space="preserve" x="165.15" y="420.433" font-family="Calibri" font-size="7.5" fill="rgb(255,255,255)" text-anchor="middle">4.0</text>
<text xml:space="preserve" x="135.15" y="460.6" font-family="Calibri" font-size="8" text-anchor="middle">Expression</text>
<polygon points="95.15,467.6 115.15,467.6 115.15,487.6 95.15,487.6" fill="rgb(0,27,135)"/><polygon points="95.15,467.6 115.15,467.6 115.15,487.6 95.15,487.6" fill="none" stroke="black" stroke-width="1"/><text xml:space="preserve" x="105.15" y="480.433" font-family="Calibri" font-size="7.5" fill="rgb(255,255,255)" text-anchor="middle">0.0</text>
<polygon points="115.15,467.6 135.15,467.6 135.15,487.6 115.15,487.6" fill="rgb(32,155,142)"/><polygon points="115.15,467.6 135.15,467.6 135.15,487.6 115.15,487.6" fill="none" stroke="black" stroke-width="1"/><text xml:space="preserve" x="125.15" y="480.433" font-family="Calibri" font-size="7.5" fill="rgb(255,255,255)" text-anchor="middle">1.0</text>
<polygon points="135.15,467.6 155.15,467.6 155.15,487.6 135.15,487.6" fill="rgb(116,210,97)"/><polygon points="135.15,467.6 155.15,467.6 155.15,487.6 135.15,487.6" fill="none" stroke="black" stroke-width="1"/><text xml:space="preserve" x="145.15" y="480.433" font-family="Calibri" font-size="7.5" fill="rgb(0,0,0)" text-anchor="middle">2.0</text>
<polygon points="155.15,467.6 175.15,467.6 175.15,487.6 155.15,487.6" fill="rgb(252,194,1)"/><polygon points="155.15,467.6 175.15,467.6 175.15,487.6 155.15,487.6" fill="none" stroke="black" stroke-width="1"/><text xml:space="preserve" x="165.15" y="480.433" font-family="Calibri" font-size="7.5" fill="rgb(0,0,0)" text-anchor="middle">3.0</text>
<text xml:space="preserve" x="135.15" y="520.6" font-family="Calibri" font-size="8" text-anchor="middle">PANTHERclass</text>
<polygon points="95.15,527.6 115.15,527.6 115.15,547.6 95.15,547.6" fill="rgb(255,255,255)"/><polygon points="95.15,527.6 115.15,527.6 115.15,547.6 95.15,547.6" fill="none" stroke="black" stroke-width="1"/><text xml:space="preserve" x="105.15" y="540.433" font-family="Calibri" font-size="7.5" fill="rgb(0,0,0)" text-anchor="middle">0.0</text>
<polygon points="115.15,527.6 135.15,527.6 135.15,547.6 115.15,547.6" fill="rgb(238,170,238)"/><polygon points="115.15,527.6 135.15,527.6 135.15,547.6 115.15,547.6" fill="none" stroke="black" stroke-width="1"/><text xml:space="preserve" x="125.15" y="540.433" font-family="Calibri" font-size="7.5" fill="rgb(0,0,0)" text-anchor="middle">0.3</text>
<polygon points="135.15,527.6 155.15,527.6 155.15,547.6 135.15,547.6" fill="rgb(221,84,221)"/><polygon points="135.15,527.6 155.15,527.6 155.15,547.6 135.15,547.6" fill="none" stroke="black" stroke-width="1"/><text xml:space="preserve" x="145.15" y="540.433" font-family="Calibri" font-size="7.5" fill="rgb(0,0,0)" text-anchor="middle">0.7</text>
<polygon points="155.15,527.6 175.15,527.6 175.15,547.6 155.15,547.6" fill="rgb(205,0,205)"/><polygon points="155.15,527.6 175.15,527.6 175.15,547.6 155.15,547.6" fill="none" stroke="black" stroke-width="1"/><text xml:space="preserve" x="165.15" y="540.433" font-family="Calibri" font-size="7.5" fill="rgb(255,255,255)" text-anchor="middle">1.0</text>
</svg>
