<?xml version="1.0" standalone="no"?><!DOCTYPE svg PUBLIC "-//W3C//DTD SVG 1.1//EN" "http://www.w3.org/Graphics/SVG/1.1/DTD/svg11.dtd">
<svg width="295.2" height="615.6" version="1.1" xmlns="http://www.w3.org/2000/svg">
<text xml:space="preserve" x="107.2" y="342.6" font-family="Calibri" font-size="8" text-anchor="end">AURKAIP1</text>
<text xml:space="preserve" x="107.2" y="350.6" font-family="Calibri" font-size="8" text-anchor="end">FOSL2</text>
<text xml:space="preserve" x="107.2" y="358.6" font-family="Calibri" font-size="8" text-anchor="end">NDUFV2</text>
<text xml:space="preserve" x="107.2" y="366.6" font-family="Calibri" font-size="8" text-anchor="end">NDUFB7</text>
<text xml:space="preserve" x="107.2" y="374.6" font-family="Calibri" font-size="8" text-anchor="end">ELOB</text>
<text xml:space="preserve" x="107.2" y="382.6" font-family="Calibri" font-size="8" text-anchor="end">COX6C</text>
<text xml:space="preserve" x="107.2" y="390.6" font-family="Calibri" font-size="8" text-anchor="end">TERF2IP</text>
<text xml:space="preserve" x="107.2" y="398.6" font-family="Calibri" font-size="8" text-anchor="end">HSPD1</text>
<text xml:space="preserve" x="107.2" y="406.6" font-family="Calibri" font-size="8" text-anchor="end">PSMC1</text>
<text xml:space="preserve" x="107.2" y="414.6" font-family="Calibri" font-size="8" text-anchor="end">HNRNPA1</text>
<text xml:space="preserve" x="118.2" y="331.6" font-family="Calibri" font-size="8" transform="rotate(270 118.2 331.6)">c3</text>
<text xml:space="preserve" x="126.2" y="331.6" font-family="Calibri" font-size="8" transform="rotate(270 126.2 331.6)">c1</text>
<text xml:space="preserve" x="134.2" y="331.6" font-family="Calibri" font-size="8" transform="rotate(270 134.2 331.6)">c4</text>
<text xml:space="preserve" x="142.2" y="331.6" font-family="Calibri" font-size="8" transform="rotate(270 142.2 331.6)">c5</text>
<text xml:space="preserve" x="150.2" y="331.6" font-family="Calibri" font-size="8" transform="rotate(270 150.2 331.6)">c2</text>
<text xml:space="preserve" x="168.2" y="331.6" font-family="Calibri" font-size="8" transform="rotate(270 168.2 331.6)">c3_mean</text>
<text xml:space="preserve" x="176.2" y="331.6" font-family="Calibri" font-size="8" transform="rotate(270 176.2 331.6)">c1_mean</text>
<text xml:space="preserve" x="184.2" y="331.6" font-family="Calibri" font-size="8" transform="rotate(270 184.2 331.6)">c4_mean</text>
<text xml:space="preserve" x="192.2" y="331.6" font-family="Calibri" font-size="8" transform="rotate(270 192.2 331.6)">c5_mean</text>
<text xml:space="preserve" x="200.2" y="331.6" font-family="Calibri" font-size="8" transform="rotate(270 200.2 331.6)">c2_mean</text>
<text xml:space="preserve" x="218.2" y="331.6" font-family="Calibri" font-size="8" transform="rotate(270 218.2 331.6)">transcription_factor</text>
<text xml:space="preserve" x="226.2" y="331.6" font-family="Calibri" font-size="8" transform="rotate(270 226.2 331.6)">transmembrane_signal_receptor</text>
<text xml:space="preserve" x="234.2" y="331.6" font-family="Calibri" font-size="8" transform="rotate(270 234.2 331.6)">growth_factor</text>
<text xml:space="preserve" x="242.2" y="331.6" font-family="Calibri" font-size="8" transform="rotate(270 242.2 331.6)">peptide_hormone</text>
<text xml:space="preserve" x="250.2" y="331.6" font-family="Calibri" font-size="8" transform="rotate(270 250.2 331.6)">cytoskeletal_protein</text>
<text xml:space="preserve" x="258.2" y="331.6" font-family="Calibri" font-size="8" transform="rotate(270 258.2 331.6)">ion_channel</text>
<text xml:space="preserve" x="266.2" y="331.6" font-family="Calibri" font-size="8" transform="rotate(270 266.2 331.6)">integrin</text>
<text xml:space="preserve" x="274.2" y="331.6" font-family="Calibri" font-size="8" transform="rotate(270 274.2 331.6)">extracellular_matrix_protein</text>
<polygon points="111.2,335.6 119.2,335.6 119.2,343.6 111.2,343.6" fill="rgb(205,0,0)"/><text xml:space="preserve" x="115.2" y="342.433" font-family="Calibri" font-size="7.5" fill="rgb(255,255,255)" text-anchor="middle">4</text>
<polygon points="119.2,335.6 127.2,335.6 127.2,343.6 119.2,343.6" fill="rgb(238,170,0)"/><text xml:space="preserve" x="123.2" y="342.433" font-family="Calibri" font-size="7.5" fill="rgb(0,0,0)" text-anchor="middle">3</text>
<polygon points="127.2,335.6 135.2,335.6 135.2,343.6 127.2,343.6" fill="rgb(238,170,0)"/><text xml:space="preserve" x="131.2" y="342.433" font-family="Calibri" font-size="7.5" fill="rgb(0,0,0)" text-anchor="middle">3</text>
<polygon points="135.2,335.6 143.2,335.6 143.2,343.6 135.2,343.6" fill="rgb(0,205,0)"/><text xml:space="preserve" x="139.2" y="342.433" font-family="Calibri" font-size="7.5" fill="rgb(255,255,255)" text-anchor="middle">1</text>
<polygon points="143.2,335.6 151.2,335.6 151.2,343.6 143.2,343.6" fill="rgb(0,205,0)"/><text xml:space="preserve" x="147.2" y="342.433" font-family="Calibri" font-size="7.5" fill="rgb(255,255,255)" text-anchor="middle">1</text>
<polygon points="161.2,335.6 169.2,335.6 169.2,343.6 161.2,343.6" fill="rgb(42,193,144)"/>
<polygon points="169.2,335.6 177.2,335.6 177.2,343.6 169.2,343.6" fill="rgb(33,157,142)"/>
<polygon points="177.2,335.6 185.2,335.6 185.2,343.6 177.2,343.6" fill="rgb(24,123,140)"/>
<polygon points="185.2,335.6 193.2,335.6 193.2,343.6 185.2,343.6" fill="rgb(8,59,136)"/>
<polygon points="193.2,335.6 201.2,335.6 201.2,343.6 193.2,343.6" fill="rgb(7,56,136)"/>
<polygon points="211.2,335.6 219.2,335.6 219.2,343.6 211.2,343.6" fill="rgb(255,255,255)"/>
<polygon points="219.2,335.6 227.2,335.6 227.2,343.6 219.2,343.6" fill="rgb(255,255,255)"/>
<polygon points="227.2,335.6 235.2,335.6 235.2,343.6 227.2,343.6" fill="rgb(255,255,255)"/>
<polygon points="235.2,335.6 243.2,335.6 243.2,343.6 235.2,343.6" fill="rgb(255,255,255)"/>
<polygon points="243.2,335.6 251.2,335.6 251.2,343.6 243.2,343.6" fill="rgb(255,255,255)"/>
<polygon points="251.2,335.6 259.2,335.6 259.2,343.6 251.2,343.6" fill="rgb(255,255,255)"/>
<polygon points="259.2,335.6 267.2,335.6 267.2,343.6 259.2,343.6" fill="rgb(255,255,255)"/>
<polygon points="267.2,335.6 275.2,335.6 275.2,343.6 267.2,343.6" fill="rgb(255,255,255)"/>
<polygon points="111.2,343.6 119.2,343.6 119.2,351.6 111.2,351.6" fill="rgb(205,0,0)"/><text xml:space="preserve" x="115.2" y="350.433" font-family="Calibri" font-size="7.5" fill="rgb(255,255,255)" text-anchor="middle">4</text>
<polygon points="119.2,343.6 127.2,343.6 127.2,351.6 119.2,351.6" fill="rgb(238,170,0)"/><text xml:space="preserve" x="123.2" y="350.433" font-family="Calibri" font-size="7.5" fill="rgb(0,0,0)" text-anchor="middle">3</text>
<polygon points="127.2,343.6 135.2,343.6 135.2,351.6 127.2,351.6" fill="rgb(238,170,0)"/><text xml:space="preserve" x="131.2" y="350.433" font-family="Calibri" font-size="7.5" fill="rgb(0,0,0)" text-anchor="middle">3</text>
<polygon points="135.2,343.6 143.2,343.6 143.2,351.6 135.2,351.6" fill="rgb(0,205,0)"/><text xml:space="preserve" x="139.2" y="350.433" font-family="Calibri" font-size="7.5" fill="rgb(255,255,255)" text-anchor="middle">1</text>
<polygon points="143.2,343.6 151.2,343.6 151.2,351.6 143.2,351.6" fill="rgb(0,205,0)"/><text xml:space="preserve" x="147.2" y="350.433" font-family="Calibri" font-size="7.5" fill="rgb(255,255,255)" text-anchor="middle">1</text>
<polygon points="161.2,343.6 169.2,343.6 169.2,351.6 161.2,351.6" fill="rgb(43,198,144)"/>
<polygon points="169.2,343.6 177.2,343.6 177.2,351.6 169.2,351.6" fill="rgb(31,151,142)"/>
<polygon points="177.2,343.6 185.2,343.6 185.2,351.6 177.2,351.6" fill="rgb(18,98,139)"/>
<polygon points="185.2,343.6 193.2,343.6 193.2,351.6 185.2,351.6" fill="rgb(4,46,136)"/>
<polygon points="193.2,343.6 201.2,343.6 201.2,351.6 193.2,351.6" fill="rgb(3,42,135)"/>
<polygon points="211.2,343.6 219.2,343.6 219.2,351.6 211.2,351.6" fill="rgb(205,0,205)"/>
<polygon points="219.2,343.6 227.2,343.6 227.2,351.6 219.2,351.6" fill="rgb(255,255,255)"/>
<polygon points="227.2,343.6 235.2,343.6 235.2,351.6 227.2,351.6" fill="rgb(255,255,255)"/>
<polygon points="235.2,343.6 243.2,343.6 243.2,351.6 235.2,351.6" fill="rgb(255,255,255)"/>
<polygon points="243.2,343.6 251.2,343.6 251.2,351.6 243.2,351.6" fill="rgb(255,255,255)"/>
<polygon points="251.2,343.6 259.2,343.6 259.2,351.6 251.2,351.6" fill="rgb(255,255,255)"/>
<polygon points="259.2,343.6 267.2,343.6 267.2,351.6 259.2,351.6" fill="rgb(255,255,255)"/>
<polygon points="267.2,343.6 275.2,343.6 275.2,351.6 267.2,351.6" fill="rgb(255,255,255)"/>
<polygon points="111.2,351.6 119.2,351.6 119.2,359.6 111.2,359.6" fill="rgb(205,0,0)"/><text xml:space="preserve" x="115.2" y="358.433" font-family="Calibri" font-size="7.5" fill="rgb(255,255,255)" text-anchor="middle">4</text>
<polygon points="119.2,351.6 127.2,351.6 127.2,359.6 119.2,359.6" fill="rgb(238,170,0)"/><text xml:space="preserve" x="123.2" y="358.433" font-family="Calibri" font-size="7.5" fill="rgb(0,0,0)" text-anchor="middle">3</text>
<polygon points="127.2,351.6 135.2,351.6 135.2,359.6 127.2,359.6" fill="rgb(238,170,0)"/><text xml:space="preserve" x="131.2" y="358.433" font-family="Calibri" font-size="7.5" fill="rgb(0,0,0)" text-anchor="middle">3</text>
<polygon points="135.2,351.6 143.2,351.6 143.2,359.6 135.2,359.6" fill="rgb(0,205,0)"/><text xml:space="preserve" x="139.2" y="358.433" font-family="Calibri" font-size="7.5" fill="rgb(255,255,255)" text-anchor="middle">1</text>
<polygon points="143.2,351.6 151.2,351.6 151.2,359.6 143.2,359.6" fill="rgb(0,205,0)"/><text xml:space="preserve" x="147.2" y="358.433" font-family="Calibri" font-size="7.5" fill="rgb(255,255,255)" text-anchor="middle">1</text>
<polygon points="161.2,351.6 169.2,351.6 169.2,359.6 161.2,359.6" fill="rgb(40,185,144)"/>
<polygon points="169.2,351.6 177.2,351.6 177.2,359.6 169.2,359.6" fill="rgb(36,171,143)"/>
<polygon points="177.2,351.6 185.2,351.6 185.2,359.6 177.2,359.6" fill="rgb(37,172,143)"/>
<polygon points="185.2,351.6 193.2,351.6 193.2,359.6 185.2,359.6" fill="rgb(7,56,136)"/>
<polygon points="193.2,351.6 201.2,351.6 201.2,359.6 193.2,359.6" fill="rgb(7,56,136)"/>
<polygon points="211.2,351.6 219.2,351.6 219.2,359.6 211.2,359.6" fill="rgb(255,255,255)"/>
<polygon points="219.2,351.6 227.2,351.6 227.2,359.6 219.2,359.6" fill="rgb(255,255,255)"/>
<polygon points="227.2,351.6 235.2,351.6 235.2,359.6 227.2,359.6" fill="rgb(255,255,255)"/>
<polygon points="235.2,351.6 243.2,351.6 243.2,359.6 235.2,359.6" fill="rgb(255,255,255)"/>
<polygon points="243.2,351.6 251.2,351.6 251.2,359.6 243.2,359.6" fill="rgb(255,255,255)"/>
<polygon points="251.2,351.6 259.2,351.6 259.2,359.6 251.2,359.6" fill="rgb(255,255,255)"/>
<polygon points="259.2,351.6 267.2,351.6 267.2,359.6 259.2,359.6" fill="rgb(255,255,255)"/>
<polygon points="267.2,351.6 275.2,351.6 275.2,359.6 267.2,359.6" fill="rgb(255,255,255)"/>
<polygon points="111.2,359.6 119.2,359.6 119.2,367.6 111.2,367.6" fill="rgb(205,0,0)"/><text xml:space="preserve" x="115.2" y="366.433" font-family="Calibri" font-size="7.5" fill="rgb(255,255,255)" text-anchor="middle">4</text>
<polygon points="119.2,359.6 127.2,359.6 127.2,367.6 119.2,367.6" fill="rgb(238,170,0)"/><text xml:space="preserve" x="123.2" y="366.433" font-family="Calibri" font-size="7.5" fill="rgb(0,0,0)" text-anchor="middle">3</text>
<polygon points="127.2,359.6 135.2,359.6 135.2,367.6 127.2,367.6" fill="rgb(238,170,0)"/><text xml:space="preserve" x="131.2" y="366.433" font-family="Calibri" font-size="7.5" fill="rgb(0,0,0)" text-anchor="middle">3</text>
<polygon points="135.2,359.6 143.2,359.6 143.2,367.6 135.2,367.6" fill="rgb(0,205,0)"/><text xml:space="preserve" x="139.2" y="366.433" font-family="Calibri" font-size="7.5" fill="rgb(255,255,255)" text-anchor="middle">1</text>
<polygon points="143.2,359.6 151.2,359.6 151.2,367.6 143.2,367.6" fill="rgb(0,205,0)"/><text xml:space="preserve" x="147.2" y="366.433" font-family="Calibri" font-size="7.5" fill="rgb(255,255,255)" text-anchor="middle">1</text>
<polygon points="161.2,359.6 169.2,359.6 169.2,367.6 161.2,367.6" fill="rgb(41,189,144)"/>
<polygon points="169.2,359.6 177.2,359.6 177.2,367.6 169.2,367.6" fill="rgb(33,158,142)"/>
<polygon points="177.2,359.6 185.2,359.6 185.2,367.6 177.2,367.6" fill="rgb(36,170,143)"/>
<polygon points="185.2,359.6 193.2,359.6 193.2,367.6 185.2,367.6" fill="rgb(8,59,136)"/>
<polygon points="193.2,359.6 201.2,359.6 201.2,367.6 193.2,367.6" fill="rgb(7,56,136)"/>
<polygon points="211.2,359.6 219.2,359.6 219.2,367.6 211.2,367.6" fill="rgb(255,255,255)"/>
<polygon points="219.2,359.6 227.2,359.6 227.2,367.6 219.2,367.6" fill="rgb(255,255,255)"/>
<polygon points="227.2,359.6 235.2,359.6 235.2,367.6 227.2,367.6" fill="rgb(255,255,255)"/>
<polygon points="235.2,359.6 243.2,359.6 243.2,367.6 235.2,367.6" fill="rgb(255,255,255)"/>
<polygon points="243.2,359.6 251.2,359.6 251.2,367.6 243.2,367.6" fill="rgb(255,255,255)"/>
<polygon points="251.2,359.6 259.2,359.6 259.2,367.6 251.2,367.6" fill="rgb(255,255,255)"/>
<polygon points="259.2,359.6 267.2,359.6 267.2,367.6 259.2,367.6" fill="rgb(255,255,255)"/>
<polygon points="267.2,359.6 275.2,359.6 275.2,367.6 267.2,367.6" fill="rgb(255,255,255)"/>
<polygon points="111.2,367.6 119.2,367.6 119.2,375.6 111.2,375.6" fill="rgb(205,0,0)"/><text xml:space="preserve" x="115.2" y="374.433" font-family="Calibri" font-size="7.5" fill="rgb(255,255,255)" text-anchor="middle">4</text>
<polygon points="119.2,367.6 127.2,367.6 127.2,375.6 119.2,375.6" fill="rgb(238,170,0)"/><text xml:space="preserve" x="123.2" y="374.433" font-family="Calibri" font-size="7.5" fill="rgb(0,0,0)" text-anchor="middle">3</text>
<polygon points="127.2,367.6 135.2,367.6 135.2,375.6 127.2,375.6" fill="rgb(238,170,0)"/><text xml:space="preserve" x="131.2" y="374.433" font-family="Calibri" font-size="7.5" fill="rgb(0,0,0)" text-anchor="middle">3</text>
<polygon points="135.2,367.6 143.2,367.6 143.2,375.6 135.2,375.6" fill="rgb(0,205,0)"/><text xml:space="preserve" x="139.2" y="374.433" font-family="Calibri" font-size="7.5" fill="rgb(255,255,255)" text-anchor="middle">1</text>
<polygon points="143.2,367.6 151.2,367.6 151.2,375.6 143.2,375.6" fill="rgb(0,205,0)"/><text xml:space="preserve" x="147.2" y="374.433" font-family="Calibri" font-size="7.5" fill="rgb(255,255,255)" text-anchor="middle">1</text>
<polygon points="161.2,367.6 169.2,367.6 169.2,375.6 161.2,375.6" fill="rgb(61,217,137)"/>
<polygon points="169.2,367.6 177.2,367.6 177.2,375.6 169.2,375.6" fill="rgb(36,171,143)"/>
<polygon points="177.2,367.6 185.2,367.6 185.2,375.6 177.2,375.6" fill="rgb(30,144,141)"/>
<polygon points="185.2,367.6 193.2,367.6 193.2,375.6 185.2,375.6" fill="rgb(10,66,137)"/>
<polygon points="193.2,367.6 201.2,367.6 201.2,375.6 193.2,375.6" fill="rgb(9,64,137)"/>
<polygon points="211.2,367.6 219.2,367.6 219.2,375.6 211.2,375.6" fill="rgb(255,255,255)"/>
<polygon points="219.2,367.6 227.2,367.6 227.2,375.6 219.2,375.6" fill="rgb(255,255,255)"/>
<polygon points="227.2,367.6 235.2,367.6 235.2,375.6 227.2,375.6" fill="rgb(255,255,255)"/>
<polygon points="235.2,367.6 243.2,367.6 243.2,375.6 235.2,375.6" fill="rgb(255,255,255)"/>
<polygon points="243.2,367.6 251.2,367.6 251.2,375.6 243.2,375.6" fill="rgb(255,255,255)"/>
<polygon points="251.2,367.6 259.2,367.6 259.2,375.6 251.2,375.6" fill="rgb(255,255,255)"/>
<polygon points="259.2,367.6 267.2,367.6 267.2,375.6 259.2,375.6" fill="rgb(255,255,255)"/>
<polygon points="267.2,367.6 275.2,367.6 275.2,375.6 267.2,375.6" fill="rgb(255,255,255)"/>
<polygon points="111.2,375.6 119.2,375.6 119.2,383.6 111.2,383.6" fill="rgb(205,0,0)"/><text xml:space="preserve" x="115.2" y="382.433" font-family="Calibri" font-size="7.5" fill="rgb(255,255,255)" text-anchor="middle">4</text>
<polygon points="119.2,375.6 127.2,375.6 127.2,383.6 119.2,383.6" fill="rgb(238,170,0)"/><text xml:space="preserve" x="123.2" y="382.433" font-family="Calibri" font-size="7.5" fill="rgb(0,0,0)" text-anchor="middle">3</text>
<polygon points="127.2,375.6 135.2,375.6 135.2,383.6 127.2,383.6" fill="rgb(238,170,0)"/><text xml:space="preserve" x="131.2" y="382.433" font-family="Calibri" font-size="7.5" fill="rgb(0,0,0)" text-anchor="middle">3</text>
<polygon points="135.2,375.6 143.2,375.6 143.2,383.6 135.2,383.6" fill="rgb(0,205,0)"/><text xml:space="preserve" x="139.2" y="382.433" font-family="Calibri" font-size="7.5" fill="rgb(255,255,255)" text-anchor="middle">1</text>
<polygon points="143.2,375.6 151.2,375.6 151.2,383.6 143.2,383.6" fill="rgb(0,205,0)"/><text xml:space="preserve" x="147.2" y="382.433" font-family="Calibri" font-size="7.5" fill="rgb(255,255,255)" text-anchor="middle">1</text>
<polygon points="161.2,375.6 169.2,375.6 169.2,383.6 161.2,383.6" fill="rgb(42,192,144)"/>
<polygon points="169.2,375.6 177.2,375.6 177.2,383.6 169.2,383.6" fill="rgb(33,158,142)"/>
<polygon points="177.2,375.6 185.2,375.6 185.2,383.6 177.2,383.6" fill="rgb(35,167,143)"/>
<polygon points="185.2,375.6 193.2,375.6 193.2,383.6 185.2,383.6" fill="rgb(7,56,136)"/>
<polygon points="193.2,375.6 201.2,375.6 201.2,383.6 193.2,383.6" fill="rgb(7,56,136)"/>
<polygon points="211.2,375.6 219.2,375.6 219.2,383.6 211.2,383.6" fill="rgb(255,255,255)"/>
<polygon points="219.2,375.6 227.2,375.6 227.2,383.6 219.2,383.6" fill="rgb(255,255,255)"/>
<polygon points="227.2,375.6 235.2,375.6 235.2,383.6 227.2,383.6" fill="rgb(255,255,255)"/>
<polygon points="235.2,375.6 243.2,375.6 243.2,383.6 235.2,383.6" fill="rgb(255,255,255)"/>
<polygon points="243.2,375.6 251.2,375.6 251.2,383.6 243.2,383.6" fill="rgb(255,255,255)"/>
<polygon points="251.2,375.6 259.2,375.6 259.2,383.6 251.2,383.6" fill="rgb(255,255,255)"/>
<polygon points="259.2,375.6 267.2,375.6 267.2,383.6 259.2,383.6" fill="rgb(255,255,255)"/>
<polygon points="267.2,375.6 275.2,375.6 275.2,383.6 267.2,383.6" fill="rgb(255,255,255)"/>
<polygon points="111.2,383.6 119.2,383.6 119.2,391.6 111.2,391.6" fill="rgb(205,0,0)"/><text xml:space="preserve" x="115.2" y="390.433" font-family="Calibri" font-size="7.5" fill="rgb(255,255,255)" text-anchor="middle">4</text>
<polygon points="119.2,383.6 127.2,383.6 127.2,391.6 119.2,391.6" fill="rgb(238,170,0)"/><text xml:space="preserve" x="123.2" y="390.433" font-family="Calibri" font-size="7.5" fill="rgb(0,0,0)" text-anchor="middle">3</text>
<polygon points="127.2,383.6 135.2,383.6 135.2,391.6 127.2,391.6" fill="rgb(238,170,0)"/><text xml:space="preserve" x="131.2" y="390.433" font-family="Calibri" font-size="7.5" fill="rgb(0,0,0)" text-anchor="middle">3</text>
<polygon points="135.2,383.6 143.2,383.6 143.2,391.6 135.2,391.6" fill="rgb(0,205,0)"/><text xml:space="preserve" x="139.2" y="390.433" font-family="Calibri" font-size="7.5" fill="rgb(255,255,255)" text-anchor="middle">1</text>
<polygon points="143.2,383.6 151.2,383.6 151.2,391.6 143.2,391.6" fill="rgb(0,205,0)"/><text xml:space="preserve" x="147.2" y="390.433" font-family="Calibri" font-size="7.5" fill="rgb(255,255,255)" text-anchor="middle">1</text>
<polygon points="161.2,383.6 169.2,383.6 169.2,391.6 161.2,391.6" fill="rgb(38,176,143)"/>
<polygon points="169.2,383.6 177.2,383.6 177.2,391.6 169.2,391.6" fill="rgb(13,80,138)"/>
<polygon points="177.2,383.6 185.2,383.6 185.2,391.6 177.2,391.6" fill="rgb(24,124,140)"/>
<polygon points="185.2,383.6 193.2,383.6 193.2,391.6 185.2,391.6" fill="rgb(7,57,136)"/>
<polygon points="193.2,383.6 201.2,383.6 201.2,391.6 193.2,391.6" fill="rgb(7,56,136)"/>
<polygon points="211.2,383.6 219.2,383.6 219.2,391.6 211.2,391.6" fill="rgb(255,255,255)"/>
<polygon points="219.2,383.6 227.2,383.6 227.2,391.6 219.2,391.6" fill="rgb(255,255,255)"/>
<polygon points="227.2,383.6 235.2,383.6 235.2,391.6 227.2,391.6" fill="rgb(255,255,255)"/>
<polygon points="235.2,383.6 243.2,383.6 243.2,391.6 235.2,391.6" fill="rgb(255,255,255)"/>
<polygon points="243.2,383.6 251.2,383.6 251.2,391.6 243.2,391.6" fill="rgb(255,255,255)"/>
<polygon points="251.2,383.6 259.2,383.6 259.2,391.6 251.2,391.6" fill="rgb(255,255,255)"/>
<polygon points="259.2,383.6 267.2,383.6 267.2,391.6 259.2,391.6" fill="rgb(255,255,255)"/>
<polygon points="267.2,383.6 275.2,383.6 275.2,391.6 267.2,391.6" fill="rgb(255,255,255)"/>
<polygon points="111.2,391.6 119.2,391.6 119.2,399.6 111.2,399.6" fill="rgb(205,0,0)"/><text xml:space="preserve" x="115.2" y="398.433" font-family="Calibri" font-size="7.5" fill="rgb(255,255,255)" text-anchor="middle">4</text>
<polygon points="119.2,391.6 127.2,391.6 127.2,399.6 119.2,399.6" fill="rgb(238,170,0)"/><text xml:space="preserve" x="123.2" y="398.433" font-family="Calibri" font-size="7.5" fill="rgb(0,0,0)" text-anchor="middle">3</text>
<polygon points="127.2,391.6 135.2,391.6 135.2,399.6 127.2,399.6" fill="rgb(238,170,0)"/><text xml:space="preserve" x="131.2" y="398.433" font-family="Calibri" font-size="7.5" fill="rgb(0,0,0)" text-anchor="middle">3</text>
<polygon points="135.2,391.6 143.2,391.6 143.2,399.6 135.2,399.6" fill="rgb(0,205,0)"/><text xml:space="preserve" x="139.2" y="398.433" font-family="Calibri" font-size="7.5" fill="rgb(255,255,255)" text-anchor="middle">1</text>
<polygon points="143.2,391.6 151.2,391.6 151.2,399.6 143.2,399.6" fill="rgb(0,205,0)"/><text xml:space="preserve" x="147.2" y="398.433" font-family="Calibri" font-size="7.5" fill="rgb(255,255,255)" text-anchor="middle">1</text>
<polygon points="161.2,391.6 169.2,391.6 169.2,399.6 161.2,399.6" fill="rgb(37,174,143)"/>
<polygon points="169.2,391.6 177.2,391.6 177.2,399.6 169.2,399.6" fill="rgb(12,74,137)"/>
<polygon points="177.2,391.6 185.2,391.6 185.2,399.6 177.2,399.6" fill="rgb(23,120,140)"/>
<polygon points="185.2,391.6 193.2,391.6 193.2,399.6 185.2,399.6" fill="rgb(7,55,136)"/>
<polygon points="193.2,391.6 201.2,391.6 201.2,399.6 193.2,399.6" fill="rgb(6,52,136)"/>
<polygon points="211.2,391.6 219.2,391.6 219.2,399.6 211.2,399.6" fill="rgb(255,255,255)"/>
<polygon points="219.2,391.6 227.2,391.6 227.2,399.6 219.2,399.6" fill="rgb(255,255,255)"/>
<polygon points="227.2,391.6 235.2,391.6 235.2,399.6 227.2,399.6" fill="rgb(255,255,255)"/>
<polygon points="235.2,391.6 243.2,391.6 243.2,399.6 235.2,399.6" fill="rgb(255,255,255)"/>
<polygon points="243.2,391.6 251.2,391.6 251.2,399.6 243.2,399.6" fill="rgb(255,255,255)"/>
<polygon points="251.2,391.6 259.2,391.6 259.2,399.6 251.2,399.6" fill="rgb(255,255,255)"/>
<polygon points="259.2,391.6 267.2,391.6 267.2,399.6 259.2,399.6" fill="rgb(255,255,255)"/>
<polygon points="267.2,391.6 275.2,391.6 275.2,399.6 267.2,399.6" fill="rgb(255,255,255)"/>
<polygon points="111.2,399.6 119.2,399.6 119.2,407.6 111.2,407.6" fill="rgb(205,0,0)"/><text xml:space="preserve" x="115.2" y="406.433" font-family="Calibri" font-size="7.5" fill="rgb(255,255,255)" text-anchor="middle">4</text>
<polygon points="119.2,399.6 127.2,399.6 127.2,407.6 119.2,407.6" fill="rgb(238,170,0)"/><text xml:space="preserve" x="123.2" y="406.433" font-family="Calibri" font-size="7.5" fill="rgb(0,0,0)" text-anchor="middle">3</text>
<polygon points="127.2,399.6 135.2,399.6 135.2,407.6 127.2,407.6" fill="rgb(238,170,0)"/><text xml:space="preserve" x="131.2" y="406.433" font-family="Calibri" font-size="7.5" fill="rgb(0,0,0)" text-anchor="middle">3</text>
<polygon points="135.2,399.6 143.2,399.6 143.2,407.6 135.2,407.6" fill="rgb(0,205,0)"/><text xml:space="preserve" x="139.2" y="406.433" font-family="Calibri" font-size="7.5" fill="rgb(255,255,255)" text-anchor="middle">1</text>
<polygon points="143.2,399.6 151.2,399.6 151.2,407.6 143.2,407.6" fill="rgb(0,205,0)"/><text xml:space="preserve" x="147.2" y="406.433" font-family="Calibri" font-size="7.5" fill="rgb(255,255,255)" text-anchor="middle">1</text>
<polygon points="161.2,399.6 169.2,399.6 169.2,407.6 161.2,407.6" fill="rgb(38,179,143)"/>
<polygon points="169.2,399.6 177.2,399.6 177.2,407.6 169.2,407.6" fill="rgb(13,80,138)"/>
<polygon points="177.2,399.6 185.2,399.6 185.2,407.6 177.2,407.6" fill="rgb(25,126,140)"/>
<polygon points="185.2,399.6 193.2,399.6 193.2,407.6 185.2,407.6" fill="rgb(6,53,136)"/>
<polygon points="193.2,399.6 201.2,399.6 201.2,407.6 193.2,407.6" fill="rgb(6,53,136)"/>
<polygon points="211.2,399.6 219.2,399.6 219.2,407.6 211.2,407.6" fill="rgb(255,255,255)"/>
<polygon points="219.2,399.6 227.2,399.6 227.2,407.6 219.2,407.6" fill="rgb(255,255,255)"/>
<polygon points="227.2,399.6 235.2,399.6 235.2,407.6 227.2,407.6" fill="rgb(255,255,255)"/>
<polygon points="235.2,399.6 243.2,399.6 243.2,407.6 235.2,407.6" fill="rgb(255,255,255)"/>
<polygon points="243.2,399.6 251.2,399.6 251.2,407.6 243.2,407.6" fill="rgb(255,255,255)"/>
<polygon points="251.2,399.6 259.2,399.6 259.2,407.6 251.2,407.6" fill="rgb(255,255,255)"/>
<polygon points="259.2,399.6 267.2,399.6 267.2,407.6 259.2,407.6" fill="rgb(255,255,255)"/>
<polygon points="267.2,399.6 275.2,399.6 275.2,407.6 267.2,407.6" fill="rgb(255,255,255)"/>
<polygon points="111.2,407.6 119.2,407.6 119.2,415.6 111.2,415.6" fill="rgb(205,0,0)"/><text xml:space="preserve" x="115.2" y="414.433" font-family="Calibri" font-size="7.5" fill="rgb(255,255,255)" text-anchor="middle">4</text>
<polygon points="119.2,407.6 127.2,407.6 127.2,415.6 119.2,415.6" fill="rgb(238,170,0)"/><text xml:space="preserve" x="123.2" y="414.433" font-family="Calibri" font-size="7.5" fill="rgb(0,0,0)" text-anchor="middle">3</text>
<polygon points="127.2,407.6 135.2,407.6 135.2,415.6 127.2,415.6" fill="rgb(238,170,0)"/><text xml:space="preserve" x="131.2" y="414.433" font-family="Calibri" font-size="7.5" fill="rgb(0,0,0)" text-anchor="middle">3</text>
<polygon points="135.2,407.6 143.2,407.6 143.2,415.6 135.2,415.6" fill="rgb(0,205,0)"/><text xml:space="preserve" x="139.2" y="414.433" font-family="Calibri" font-size="7.5" fill="rgb(255,255,255)" text-anchor="middle">1</text>
<polygon points="143.2,407.6 151.2,407.6 151.2,415.6 143.2,415.6" fill="rgb(0,205,0)"/><text xml:space="preserve" x="147.2" y="414.433" font-family="Calibri" font-size="7.5" fill="rgb(255,255,255)" text-anchor="middle">1</text>
<polygon points="161.2,407.6 169.2,407.6 169.2,415.6 161.2,415.6" fill="rgb(37,172,143)"/>
<polygon points="169.2,407.6 177.2,407.6 177.2,415.6 169.2,415.6" fill="rgb(12,75,137)"/>
<polygon points="177.2,407.6 185.2,407.6 185.2,415.6 177.2,415.6" fill="rgb(24,123,140)"/>
<polygon points="185.2,407.6 193.2,407.6 193.2,415.6 185.2,415.6" fill="rgb(8,59,136)"/>
<polygon points="193.2,407.6 201.2,407.6 201.2,415.6 193.2,415.6" fill="rgb(7,55,136)"/>
<polygon points="211.2,407.6 219.2,407.6 219.2,415.6 211.2,415.6" fill="rgb(255,255,255)"/>
<polygon points="219.2,407.6 227.2,407.6 227.2,415.6 219.2,415.6" fill="rgb(255,255,255)"/>
<polygon points="227.2,407.6 235.2,407.6 235.2,415.6 227.2,415.6" fill="rgb(255,255,255)"/>
<polygon points="235.2,407.6 243.2,407.6 243.2,415.6 235.2,415.6" fill="rgb(255,255,255)"/>
<polygon points="243.2,407.6 251.2,407.6 251.2,415.6 243.2,415.6" fill="rgb(255,255,255)"/>
<polygon points="251.2,407.6 259.2,407.6 259.2,415.6 251.2,415.6" fill="rgb(255,255,255)"/>
<polygon points="259.2,407.6 267.2,407.6 267.2,415.6 259.2,415.6" fill="rgb(255,255,255)"/>
<polygon points="267.2,407.6 275.2,407.6 275.2,415.6 267.2,415.6" fill="rgb(255,255,255)"/>
<polygon points="111.2,335.6 151.2,335.6 151.2,415.6 111.2,415.6" fill="none" stroke="black" stroke-width="1"/>
<polygon points="161.2,335.6 201.2,335.6 201.2,415.6 161.2,415.6" fill="none" stroke="black" stroke-width="1"/>
<polygon points="211.2,335.6 275.2,335.6 275.2,415.6 211.2,415.6" fill="none" stroke="black" stroke-width="1"/>
<text xml:space="preserve" x="147.6" y="448.6" font-family="Calibri" font-size="8" text-anchor="middle">ClusterAssignment</text>
<polygon points="107.6,455.6 127.6,455.6 127.6,475.6 107.6,475.6" fill="rgb(0,205,0)"/><polygon points="107.6,455.6 127.6,455.6 127.6,475.6 107.6,475.6" fill="none" stroke="black" stroke-width="1"/><text xml:space="preserve" x="117.6" y="468.433" font-family="Calibri" font-size="7.5" fill="rgb(255,255,255)" text-anchor="middle">1.0</text>
<polygon points="127.6,455.6 147.6,455.6 147.6,475.6 127.6,475.6" fill="rgb(170,238,0)"/><polygon points="127.6,455.6 147.6,455.6 147.6,475.6 127.6,475.6" fill="none" stroke="black" stroke-width="1"/><text xml:space="preserve" x="137.6" y="468.433" font-family="Calibri" font-size="7.5" fill="rgb(0,0,0)" text-anchor="middle">2.0</text>
<polygon points="147.6,455.6 167.6,455.6 167.6,475.6 147.6,475.6" fill="rgb(238,170,0)"/><polygon points="147.6,455.6 167.6,455.6 167.6,475.6 147.6,475.6" fill="none" stroke="black" stroke-width="1"/><text xml:space="preserve" x="157.6" y="468.433" font-family="Calibri" font-size="7.5" fill="rgb(0,0,0)" text-anchor="middle">3.0</text>
<polygon points="167.6,455.6 187.6,455.6 187.6,475.6 167.6,475.6" fill="rgb(205,0,0)"/><polygon points="167.6,455.6 187.6,455.6 187.6,475.6 167.6,475.6" fill="none" stroke="black" stroke-width="1"/><text xml:space="preserve" x="177.6" y="468.433" font-family="Calibri" font-size="7.5" fill="rgb(255,255,255)" text-anchor="middle">4.0</text>
<text xml:space="preserve" x="147.6" y="508.6" font-family="Calibri" font-size="8" text-anchor="middle">Expression</text>
<polygon points="107.6,515.6 127.6,515.6 127.6,535.6 107.6,535.6" fill="rgb(0,27,135)"/><polygon points="107.6,515.6 127.6,515.6 127.6,535.6 107.6,535.6" fill="none" stroke="black" stroke-width="1"/><text xml:space="preserve" x="117.6" y="528.433" font-family="Calibri" font-size="7.5" fill="rgb(255,255,255)" text-anchor="middle">0.0</text>
<polygon points="127.6,515.6 147.6,515.6 147.6,535.6 127.6,535.6" fill="rgb(32,155,142)"/><polygon points="127.6,515.6 147.6,515.6 147.6,535.6 127.6,535.6" fill="none" stroke="black" stroke-width="1"/><text xml:space="preserve" x="137.6" y="528.433" font-family="Calibri" font-size="7.5" fill="rgb(255,255,255)" text-anchor="middle">1.0</text>
<polygon points="147.6,515.6 167.6,515.6 167.6,535.6 147.6,535.6" fill="rgb(116,210,97)"/><polygon points="147.6,515.6 167.6,515.6 167.6,535.6 147.6,535.6" fill="none" stroke="black" stroke-width="1"/><text xml:space="preserve" x="157.6" y="528.433" font-family="Calibri" font-size="7.5" fill="rgb(0,0,0)" text-anchor="middle">2.0</text>
<polygon points="167.6,515.6 187.6,515.6 187.6,535.6 167.6,535.6" fill="rgb(252,194,1)"/><polygon points="167.6,515.6 187.6,515.6 187.6,535.6 167.6,535.6" fill="none" stroke="black" stroke-width="1"/><text xml:space="preserve" x="177.6" y="528.433" font-family="Calibri" font-size="7.5" fill="rgb(0,0,0)" text-anchor="middle">3.0</text>
<text xml:space="preserve" x="147.6" y="568.6" font-family="Calibri" font-size="8" text-anchor="middle">PANTHERclass</text>
<polygon points="107.6,575.6 127.6,575.6 127.6,595.6 107.6,595.6" fill="rgb(255,255,255)"/><polygon points="107.6,575.6 127.6,575.6 127.6,595.6 107.6,595.6" fill="none" stroke="black" stroke-width="1"/><text xml:space="preserve" x="117.6" y="588.433" font-family="Calibri" font-size="7.5" fill="rgb(0,0,0)" text-anchor="middle">0.0</text>
<polygon points="127.6,575.6 147.6,575.6 147.6,595.6 127.6,595.6" fill="rgb(238,170,238)"/><polygon points="127.6,575.6 147.6,575.6 147.6,595.6 127.6,595.6" fill="none" stroke="black" stroke-width="1"/><text xml:space="preserve" x="137.6" y="588.433" font-family="Calibri" font-size="7.5" fill="rgb(0,0,0)" text-anchor="middle">0.3</text>
<polygon points="147.6,575.6 167.6,575.6 167.6,595.6 147.6,595.6" fill="rgb(221,84,221)"/><polygon points="147.6,575.6 167.6,575.6 167.6,595.6 147.6,595.6" fill="none" stroke="black" stroke-width="1"/><text xml:space="preserve" x="157.6" y="588.433" font-family="Calibri" font-size="7.5" fill="rgb(0,0,0)" text-anchor="middle">0.7</text>
<polygon points="167.6,575.6 187.6,575.6 187.6,595.6 167.6,595.6" fill="rgb(205,0,205)"/><polygon points="167.6,575.6 187.6,575.6 187.6,595.6 167.6,595.6" fill="none" stroke="black" stroke-width="1"/><text xml:space="preserve" x="177.6" y="588.433" font-family="Calibri" font-size="7.5" fill="rgb(255,255,255)" text-anchor="middle">1.0</text>
</svg>
