<?xml version="1.0" standalone="no"?><!DOCTYPE svg PUBLIC "-//W3C//DTD SVG 1.1//EN" "http://www.w3.org/Graphics/SVG/1.1/DTD/svg11.dtd">
<svg width="299.7" height="583.6" version="1.1" xmlns="http://www.w3.org/2000/svg">
<text xml:space="preserve" x="111.7" y="342.6" font-family="Calibri" font-size="8" text-anchor="end">CEBPD</text>
<text xml:space="preserve" x="111.7" y="350.6" font-family="Calibri" font-size="8" text-anchor="end">MROH9</text>
<text xml:space="preserve" x="111.7" y="358.6" font-family="Calibri" font-size="8" text-anchor="end">LINC02430</text>
<text xml:space="preserve" x="111.7" y="366.6" font-family="Calibri" font-size="8" text-anchor="end">COL24A1</text>
<text xml:space="preserve" x="111.7" y="374.6" font-family="Calibri" font-size="8" text-anchor="end">LINC01626</text>
<text xml:space="preserve" x="111.7" y="382.6" font-family="Calibri" font-size="8" text-anchor="end">LINC01638</text>
<text xml:space="preserve" x="122.7" y="331.6" font-family="Calibri" font-size="8" transform="rotate(270 122.7 331.6)">c3</text>
<text xml:space="preserve" x="130.7" y="331.6" font-family="Calibri" font-size="8" transform="rotate(270 130.7 331.6)">c1</text>
<text xml:space="preserve" x="138.7" y="331.6" font-family="Calibri" font-size="8" transform="rotate(270 138.7 331.6)">c4</text>
<text xml:space="preserve" x="146.7" y="331.6" font-family="Calibri" font-size="8" transform="rotate(270 146.7 331.6)">c5</text>
<text xml:space="preserve" x="154.7" y="331.6" font-family="Calibri" font-size="8" transform="rotate(270 154.7 331.6)">c2</text>
<text xml:space="preserve" x="172.7" y="331.6" font-family="Calibri" font-size="8" transform="rotate(270 172.7 331.6)">c3_mean</text>
<text xml:space="preserve" x="180.7" y="331.6" font-family="Calibri" font-size="8" transform="rotate(270 180.7 331.6)">c1_mean</text>
<text xml:space="preserve" x="188.7" y="331.6" font-family="Calibri" font-size="8" transform="rotate(270 188.7 331.6)">c4_mean</text>
<text xml:space="preserve" x="196.7" y="331.6" font-family="Calibri" font-size="8" transform="rotate(270 196.7 331.6)">c5_mean</text>
<text xml:space="preserve" x="204.7" y="331.6" font-family="Calibri" font-size="8" transform="rotate(270 204.7 331.6)">c2_mean</text>
<text xml:space="preserve" x="222.7" y="331.6" font-family="Calibri" font-size="8" transform="rotate(270 222.7 331.6)">transcription_factor</text>
<text xml:space="preserve" x="230.7" y="331.6" font-family="Calibri" font-size="8" transform="rotate(270 230.7 331.6)">transmembrane_signal_receptor</text>
<text xml:space="preserve" x="238.7" y="331.6" font-family="Calibri" font-size="8" transform="rotate(270 238.7 331.6)">growth_factor</text>
<text xml:space="preserve" x="246.7" y="331.6" font-family="Calibri" font-size="8" transform="rotate(270 246.7 331.6)">peptide_hormone</text>
<text xml:space="preserve" x="254.7" y="331.6" font-family="Calibri" font-size="8" transform="rotate(270 254.7 331.6)">cytoskeletal_protein</text>
<text xml:space="preserve" x="262.7" y="331.6" font-family="Calibri" font-size="8" transform="rotate(270 262.7 331.6)">ion_channel</text>
<text xml:space="preserve" x="270.7" y="331.6" font-family="Calibri" font-size="8" transform="rotate(270 270.7 331.6)">integrin</text>
<text xml:space="preserve" x="278.7" y="331.6" font-family="Calibri" font-size="8" transform="rotate(270 278.7 331.6)">extracellular_matrix_protein</text>
<polygon points="115.7,335.6 123.7,335.6 123.7,343.6 115.7,343.6" fill="rgb(238,170,0)"/><text xml:space="preserve" x="119.7" y="342.433" font-family="Calibri" font-size="7.5" fill="rgb(0,0,0)" text-anchor="middle">3</text>
<polygon points="123.7,335.6 131.7,335.6 131.7,343.6 123.7,343.6" fill="rgb(0,205,0)"/><text xml:space="preserve" x="127.7" y="342.433" font-family="Calibri" font-size="7.5" fill="rgb(255,255,255)" text-anchor="middle">1</text>
<polygon points="131.7,335.6 139.7,335.6 139.7,343.6 131.7,343.6" fill="rgb(0,205,0)"/><text xml:space="preserve" x="135.7" y="342.433" font-family="Calibri" font-size="7.5" fill="rgb(255,255,255)" text-anchor="middle">1</text>
<polygon points="139.7,335.6 147.7,335.6 147.7,343.6 139.7,343.6" fill="rgb(0,205,0)"/><text xml:space="preserve" x="143.7" y="342.433" font-family="Calibri" font-size="7.5" fill="rgb(255,255,255)" text-anchor="middle">1</text>
<polygon points="147.7,335.6 155.7,335.6 155.7,343.6 147.7,343.6" fill="rgb(0,205,0)"/><text xml:space="preserve" x="151.7" y="342.433" font-family="Calibri" font-size="7.5" fill="rgb(255,255,255)" text-anchor="middle">1</text>
<polygon points="165.7,335.6 173.7,335.6 173.7,343.6 165.7,343.6" fill="rgb(24,124,140)"/>
<polygon points="173.7,335.6 181.7,335.6 181.7,343.6 173.7,343.6" fill="rgb(3,41,135)"/>
<polygon points="181.7,335.6 189.7,335.6 189.7,343.6 181.7,343.6" fill="rgb(4,44,136)"/>
<polygon points="189.7,335.6 197.7,335.6 197.7,343.6 189.7,343.6" fill="rgb(5,50,136)"/>
<polygon points="197.7,335.6 205.7,335.6 205.7,343.6 197.7,343.6" fill="rgb(2,35,135)"/>
<polygon points="215.7,335.6 223.7,335.6 223.7,343.6 215.7,343.6" fill="rgb(205,0,205)"/>
<polygon points="223.7,335.6 231.7,335.6 231.7,343.6 223.7,343.6" fill="rgb(255,255,255)"/>
<polygon points="231.7,335.6 239.7,335.6 239.7,343.6 231.7,343.6" fill="rgb(255,255,255)"/>
<polygon points="239.7,335.6 247.7,335.6 247.7,343.6 239.7,343.6" fill="rgb(255,255,255)"/>
<polygon points="247.7,335.6 255.7,335.6 255.7,343.6 247.7,343.6" fill="rgb(255,255,255)"/>
<polygon points="255.7,335.6 263.7,335.6 263.7,343.6 255.7,343.6" fill="rgb(255,255,255)"/>
<polygon points="263.7,335.6 271.7,335.6 271.7,343.6 263.7,343.6" fill="rgb(255,255,255)"/>
<polygon points="271.7,335.6 279.7,335.6 279.7,343.6 271.7,343.6" fill="rgb(255,255,255)"/>
<polygon points="115.7,343.6 123.7,343.6 123.7,351.6 115.7,351.6" fill="rgb(238,170,0)"/><text xml:space="preserve" x="119.7" y="350.433" font-family="Calibri" font-size="7.5" fill="rgb(0,0,0)" text-anchor="middle">3</text>
<polygon points="123.7,343.6 131.7,343.6 131.7,351.6 123.7,351.6" fill="rgb(0,205,0)"/><text xml:space="preserve" x="127.7" y="350.433" font-family="Calibri" font-size="7.5" fill="rgb(255,255,255)" text-anchor="middle">1</text>
<polygon points="131.7,343.6 139.7,343.6 139.7,351.6 131.7,351.6" fill="rgb(0,205,0)"/><text xml:space="preserve" x="135.7" y="350.433" font-family="Calibri" font-size="7.5" fill="rgb(255,255,255)" text-anchor="middle">1</text>
<polygon points="139.7,343.6 147.7,343.6 147.7,351.6 139.7,351.6" fill="rgb(0,205,0)"/><text xml:space="preserve" x="143.7" y="350.433" font-family="Calibri" font-size="7.5" fill="rgb(255,255,255)" text-anchor="middle">1</text>
<polygon points="147.7,343.6 155.7,343.6 155.7,351.6 147.7,351.6" fill="rgb(0,205,0)"/><text xml:space="preserve" x="151.7" y="350.433" font-family="Calibri" font-size="7.5" fill="rgb(255,255,255)" text-anchor="middle">1</text>
<polygon points="165.7,343.6 173.7,343.6 173.7,351.6 165.7,351.6" fill="rgb(33,157,142)"/>
<polygon points="173.7,343.6 181.7,343.6 181.7,351.6 173.7,351.6" fill="rgb(0,27,135)"/>
<polygon points="181.7,343.6 189.7,343.6 189.7,351.6 181.7,351.6" fill="rgb(0,27,135)"/>
<polygon points="189.7,343.6 197.7,343.6 197.7,351.6 189.7,351.6" fill="rgb(0,27,135)"/>
<polygon points="197.7,343.6 205.7,343.6 205.7,351.6 197.7,351.6" fill="rgb(0,27,135)"/>
<polygon points="215.7,343.6 223.7,343.6 223.7,351.6 215.7,351.6" fill="rgb(255,255,255)"/>
<polygon points="223.7,343.6 231.7,343.6 231.7,351.6 223.7,351.6" fill="rgb(255,255,255)"/>
<polygon points="231.7,343.6 239.7,343.6 239.7,351.6 231.7,351.6" fill="rgb(255,255,255)"/>
<polygon points="239.7,343.6 247.7,343.6 247.7,351.6 239.7,351.6" fill="rgb(255,255,255)"/>
<polygon points="247.7,343.6 255.7,343.6 255.7,351.6 247.7,351.6" fill="rgb(255,255,255)"/>
<polygon points="255.7,343.6 263.7,343.6 263.7,351.6 255.7,351.6" fill="rgb(255,255,255)"/>
<polygon points="263.7,343.6 271.7,343.6 271.7,351.6 263.7,351.6" fill="rgb(255,255,255)"/>
<polygon points="271.7,343.6 279.7,343.6 279.7,351.6 271.7,351.6" fill="rgb(255,255,255)"/>
<polygon points="115.7,351.6 123.7,351.6 123.7,359.6 115.7,359.6" fill="rgb(238,170,0)"/><text xml:space="preserve" x="119.7" y="358.433" font-family="Calibri" font-size="7.5" fill="rgb(0,0,0)" text-anchor="middle">3</text>
<polygon points="123.7,351.6 131.7,351.6 131.7,359.6 123.7,359.6" fill="rgb(0,205,0)"/><text xml:space="preserve" x="127.7" y="358.433" font-family="Calibri" font-size="7.5" fill="rgb(255,255,255)" text-anchor="middle">1</text>
<polygon points="131.7,351.6 139.7,351.6 139.7,359.6 131.7,359.6" fill="rgb(0,205,0)"/><text xml:space="preserve" x="135.7" y="358.433" font-family="Calibri" font-size="7.5" fill="rgb(255,255,255)" text-anchor="middle">1</text>
<polygon points="139.7,351.6 147.7,351.6 147.7,359.6 139.7,359.6" fill="rgb(0,205,0)"/><text xml:space="preserve" x="143.7" y="358.433" font-family="Calibri" font-size="7.5" fill="rgb(255,255,255)" text-anchor="middle">1</text>
<polygon points="147.7,351.6 155.7,351.6 155.7,359.6 147.7,359.6" fill="rgb(0,205,0)"/><text xml:space="preserve" x="151.7" y="358.433" font-family="Calibri" font-size="7.5" fill="rgb(255,255,255)" text-anchor="middle">1</text>
<polygon points="165.7,351.6 173.7,351.6 173.7,359.6 165.7,359.6" fill="rgb(32,153,142)"/>
<polygon points="173.7,351.6 181.7,351.6 181.7,359.6 173.7,359.6" fill="rgb(0,27,135)"/>
<polygon points="181.7,351.6 189.7,351.6 189.7,359.6 181.7,359.6" fill="rgb(0,27,135)"/>
<polygon points="189.7,351.6 197.7,351.6 197.7,359.6 189.7,359.6" fill="rgb(0,27,135)"/>
<polygon points="197.7,351.6 205.7,351.6 205.7,359.6 197.7,359.6" fill="rgb(0,27,135)"/>
<polygon points="215.7,351.6 223.7,351.6 223.7,359.6 215.7,359.6" fill="rgb(255,255,255)"/>
<polygon points="223.7,351.6 231.7,351.6 231.7,359.6 223.7,359.6" fill="rgb(255,255,255)"/>
<polygon points="231.7,351.6 239.7,351.6 239.7,359.6 231.7,359.6" fill="rgb(255,255,255)"/>
<polygon points="239.7,351.6 247.7,351.6 247.7,359.6 239.7,359.6" fill="rgb(255,255,255)"/>
<polygon points="247.7,351.6 255.7,351.6 255.7,359.6 247.7,359.6" fill="rgb(255,255,255)"/>
<polygon points="255.7,351.6 263.7,351.6 263.7,359.6 255.7,359.6" fill="rgb(255,255,255)"/>
<polygon points="263.7,351.6 271.7,351.6 271.7,359.6 263.7,359.6" fill="rgb(255,255,255)"/>
<polygon points="271.7,351.6 279.7,351.6 279.7,359.6 271.7,359.6" fill="rgb(255,255,255)"/>
<polygon points="115.7,359.6 123.7,359.6 123.7,367.6 115.7,367.6" fill="rgb(238,170,0)"/><text xml:space="preserve" x="119.7" y="366.433" font-family="Calibri" font-size="7.5" fill="rgb(0,0,0)" text-anchor="middle">3</text>
<polygon points="123.7,359.6 131.7,359.6 131.7,367.6 123.7,367.6" fill="rgb(0,205,0)"/><text xml:space="preserve" x="127.7" y="366.433" font-family="Calibri" font-size="7.5" fill="rgb(255,255,255)" text-anchor="middle">1</text>
<polygon points="131.7,359.6 139.7,359.6 139.7,367.6 131.7,367.6" fill="rgb(0,205,0)"/><text xml:space="preserve" x="135.7" y="366.433" font-family="Calibri" font-size="7.5" fill="rgb(255,255,255)" text-anchor="middle">1</text>
<polygon points="139.7,359.6 147.7,359.6 147.7,367.6 139.7,367.6" fill="rgb(0,205,0)"/><text xml:space="preserve" x="143.7" y="366.433" font-family="Calibri" font-size="7.5" fill="rgb(255,255,255)" text-anchor="middle">1</text>
<polygon points="147.7,359.6 155.7,359.6 155.7,367.6 147.7,367.6" fill="rgb(0,205,0)"/><text xml:space="preserve" x="151.7" y="366.433" font-family="Calibri" font-size="7.5" fill="rgb(255,255,255)" text-anchor="middle">1</text>
<polygon points="165.7,359.6 173.7,359.6 173.7,367.6 165.7,367.6" fill="rgb(27,133,141)"/>
<polygon points="173.7,359.6 181.7,359.6 181.7,367.6 173.7,367.6" fill="rgb(2,37,135)"/>
<polygon points="181.7,359.6 189.7,359.6 189.7,367.6 181.7,367.6" fill="rgb(2,35,135)"/>
<polygon points="189.7,359.6 197.7,359.6 197.7,367.6 189.7,367.6" fill="rgb(1,32,135)"/>
<polygon points="197.7,359.6 205.7,359.6 205.7,367.6 197.7,367.6" fill="rgb(0,27,135)"/>
<polygon points="215.7,359.6 223.7,359.6 223.7,367.6 215.7,367.6" fill="rgb(255,255,255)"/>
<polygon points="223.7,359.6 231.7,359.6 231.7,367.6 223.7,367.6" fill="rgb(255,255,255)"/>
<polygon points="231.7,359.6 239.7,359.6 239.7,367.6 231.7,367.6" fill="rgb(255,255,255)"/>
<polygon points="239.7,359.6 247.7,359.6 247.7,367.6 239.7,367.6" fill="rgb(255,255,255)"/>
<polygon points="247.7,359.6 255.7,359.6 255.7,367.6 247.7,367.6" fill="rgb(255,255,255)"/>
<polygon points="255.7,359.6 263.7,359.6 263.7,367.6 255.7,367.6" fill="rgb(255,255,255)"/>
<polygon points="263.7,359.6 271.7,359.6 271.7,367.6 263.7,367.6" fill="rgb(255,255,255)"/>
<polygon points="271.7,359.6 279.7,359.6 279.7,367.6 271.7,367.6" fill="rgb(205,0,205)"/>
<polygon points="115.7,367.6 123.7,367.6 123.7,375.6 115.7,375.6" fill="rgb(238,170,0)"/><text xml:space="preserve" x="119.7" y="374.433" font-family="Calibri" font-size="7.5" fill="rgb(0,0,0)" text-anchor="middle">3</text>
<polygon points="123.7,367.6 131.7,367.6 131.7,375.6 123.7,375.6" fill="rgb(0,205,0)"/><text xml:space="preserve" x="127.7" y="374.433" font-family="Calibri" font-size="7.5" fill="rgb(255,255,255)" text-anchor="middle">1</text>
<polygon points="131.7,367.6 139.7,367.6 139.7,375.6 131.7,375.6" fill="rgb(0,205,0)"/><text xml:space="preserve" x="135.7" y="374.433" font-family="Calibri" font-size="7.5" fill="rgb(255,255,255)" text-anchor="middle">1</text>
<polygon points="139.7,367.6 147.7,367.6 147.7,375.6 139.7,375.6" fill="rgb(0,205,0)"/><text xml:space="preserve" x="143.7" y="374.433" font-family="Calibri" font-size="7.5" fill="rgb(255,255,255)" text-anchor="middle">1</text>
<polygon points="147.7,367.6 155.7,367.6 155.7,375.6 147.7,375.6" fill="rgb(0,205,0)"/><text xml:space="preserve" x="151.7" y="374.433" font-family="Calibri" font-size="7.5" fill="rgb(255,255,255)" text-anchor="middle">1</text>
<polygon points="165.7,367.6 173.7,367.6 173.7,375.6 165.7,375.6" fill="rgb(32,152,142)"/>
<polygon points="173.7,367.6 181.7,367.6 181.7,375.6 173.7,375.6" fill="rgb(0,27,135)"/>
<polygon points="181.7,367.6 189.7,367.6 189.7,375.6 181.7,375.6" fill="rgb(0,27,135)"/>
<polygon points="189.7,367.6 197.7,367.6 197.7,375.6 189.7,375.6" fill="rgb(0,27,135)"/>
<polygon points="197.7,367.6 205.7,367.6 205.7,375.6 197.7,375.6" fill="rgb(0,27,135)"/>
<polygon points="215.7,367.6 223.7,367.6 223.7,375.6 215.7,375.6" fill="rgb(255,255,255)"/>
<polygon points="223.7,367.6 231.7,367.6 231.7,375.6 223.7,375.6" fill="rgb(255,255,255)"/>
<polygon points="231.7,367.6 239.7,367.6 239.7,375.6 231.7,375.6" fill="rgb(255,255,255)"/>
<polygon points="239.7,367.6 247.7,367.6 247.7,375.6 239.7,375.6" fill="rgb(255,255,255)"/>
<polygon points="247.7,367.6 255.7,367.6 255.7,375.6 247.7,375.6" fill="rgb(255,255,255)"/>
<polygon points="255.7,367.6 263.7,367.6 263.7,375.6 255.7,375.6" fill="rgb(255,255,255)"/>
<polygon points="263.7,367.6 271.7,367.6 271.7,375.6 263.7,375.6" fill="rgb(255,255,255)"/>
<polygon points="271.7,367.6 279.7,367.6 279.7,375.6 271.7,375.6" fill="rgb(255,255,255)"/>
<polygon points="115.7,375.6 123.7,375.6 123.7,383.6 115.7,383.6" fill="rgb(238,170,0)"/><text xml:space="preserve" x="119.7" y="382.433" font-family="Calibri" font-size="7.5" fill="rgb(0,0,0)" text-anchor="middle">3</text>
<polygon points="123.7,375.6 131.7,375.6 131.7,383.6 123.7,383.6" fill="rgb(0,205,0)"/><text xml:space="preserve" x="127.7" y="382.433" font-family="Calibri" font-size="7.5" fill="rgb(255,255,255)" text-anchor="middle">1</text>
<polygon points="131.7,375.6 139.7,375.6 139.7,383.6 131.7,383.6" fill="rgb(0,205,0)"/><text xml:space="preserve" x="135.7" y="382.433" font-family="Calibri" font-size="7.5" fill="rgb(255,255,255)" text-anchor="middle">1</text>
<polygon points="139.7,375.6 147.7,375.6 147.7,383.6 139.7,383.6" fill="rgb(0,205,0)"/><text xml:space="preserve" x="143.7" y="382.433" font-family="Calibri" font-size="7.5" fill="rgb(255,255,255)" text-anchor="middle">1</text>
<polygon points="147.7,375.6 155.7,375.6 155.7,383.6 147.7,383.6" fill="rgb(0,205,0)"/><text xml:space="preserve" x="151.7" y="382.433" font-family="Calibri" font-size="7.5" fill="rgb(255,255,255)" text-anchor="middle">1</text>
<polygon points="165.7,375.6 173.7,375.6 173.7,383.6 165.7,383.6" fill="rgb(29,143,141)"/>
<polygon points="173.7,375.6 181.7,375.6 181.7,383.6 173.7,383.6" fill="rgb(3,42,135)"/>
<polygon points="181.7,375.6 189.7,375.6 189.7,383.6 181.7,383.6" fill="rgb(0,30,135)"/>
<polygon points="189.7,375.6 197.7,375.6 197.7,383.6 189.7,383.6" fill="rgb(6,53,136)"/>
<polygon points="197.7,375.6 205.7,375.6 205.7,383.6 197.7,383.6" fill="rgb(4,44,136)"/>
<polygon points="215.7,375.6 223.7,375.6 223.7,383.6 215.7,383.6" fill="rgb(255,255,255)"/>
<polygon points="223.7,375.6 231.7,375.6 231.7,383.6 223.7,383.6" fill="rgb(255,255,255)"/>
<polygon points="231.7,375.6 239.7,375.6 239.7,383.6 231.7,383.6" fill="rgb(255,255,255)"/>
<polygon points="239.7,375.6 247.7,375.6 247.7,383.6 239.7,383.6" fill="rgb(255,255,255)"/>
<polygon points="247.7,375.6 255.7,375.6 255.7,383.6 247.7,383.6" fill="rgb(255,255,255)"/>
<polygon points="255.7,375.6 263.7,375.6 263.7,383.6 255.7,383.6" fill="rgb(255,255,255)"/>
<polygon points="263.7,375.6 271.7,375.6 271.7,383.6 263.7,383.6" fill="rgb(255,255,255)"/>
<polygon points="271.7,375.6 279.7,375.6 279.7,383.6 271.7,383.6" fill="rgb(255,255,255)"/>
<polygon points="115.7,335.6 155.7,335.6 155.7,383.6 115.7,383.6" fill="none" stroke="black" stroke-width="1"/>
<polygon points="165.7,335.6 205.7,335.6 205.7,383.6 165.7,383.6" fill="none" stroke="black" stroke-width="1"/>
<polygon points="215.7,335.6 279.7,335.6 279.7,383.6 215.7,383.6" fill="none" stroke="black" stroke-width="1"/>
<text xml:space="preserve" x="149.85" y="416.6" font-family="Calibri" font-size="8" text-anchor="middle">ClusterAssignment</text>
<polygon points="109.85,423.6 129.85,423.6 129.85,443.6 109.85,443.6" fill="rgb(0,205,0)"/><polygon points="109.85,423.6 129.85,423.6 129.85,443.6 109.85,443.6" fill="none" stroke="black" stroke-width="1"/><text xml:space="preserve" x="119.85" y="436.433" font-family="Calibri" font-size="7.5" fill="rgb(255,255,255)" text-anchor="middle">1.0</text>
<polygon points="129.85,423.6 149.85,423.6 149.85,443.6 129.85,443.6" fill="rgb(170,238,0)"/><polygon points="129.85,423.6 149.85,423.6 149.85,443.6 129.85,443.6" fill="none" stroke="black" stroke-width="1"/><text xml:space="preserve" x="139.85" y="436.433" font-family="Calibri" font-size="7.5" fill="rgb(0,0,0)" text-anchor="middle">2.0</text>
<polygon points="149.85,423.6 169.85,423.6 169.85,443.6 149.85,443.6" fill="rgb(238,170,0)"/><polygon points="149.85,423.6 169.85,423.6 169.85,443.6 149.85,443.6" fill="none" stroke="black" stroke-width="1"/><text xml:space="preserve" x="159.85" y="436.433" font-family="Calibri" font-size="7.5" fill="rgb(0,0,0)" text-anchor="middle">3.0</text>
<polygon points="169.85,423.6 189.85,423.6 189.85,443.6 169.85,443.6" fill="rgb(205,0,0)"/><polygon points="169.85,423.6 189.85,423.6 189.85,443.6 169.85,443.6" fill="none" stroke="black" stroke-width="1"/><text xml:space="preserve" x="179.85" y="436.433" font-family="Calibri" font-size="7.5" fill="rgb(255,255,255)" text-anchor="middle">4.0</text>
<text xml:space="preserve" x="149.85" y="476.6" font-family="Calibri" font-size="8" text-anchor="middle">Expression</text>
<polygon points="109.85,483.6 129.85,483.6 129.85,503.6 109.85,503.6" fill="rgb(0,27,135)"/><polygon points="109.85,483.6 129.85,483.6 129.85,503.6 109.85,503.6" fill="none" stroke="black" stroke-width="1"/><text xml:space="preserve" x="119.85" y="496.433" font-family="Calibri" font-size="7.5" fill="rgb(255,255,255)" text-anchor="middle">0.0</text>
<polygon points="129.85,483.6 149.85,483.6 149.85,503.6 129.85,503.6" fill="rgb(32,155,142)"/><polygon points="129.85,483.6 149.85,483.6 149.85,503.6 129.85,503.6" fill="none" stroke="black" stroke-width="1"/><text xml:space="preserve" x="139.85" y="496.433" font-family="Calibri" font-size="7.5" fill="rgb(255,255,255)" text-anchor="middle">1.0</text>
<polygon points="149.85,483.6 169.85,483.6 169.85,503.6 149.85,503.6" fill="rgb(116,210,97)"/><polygon points="149.85,483.6 169.85,483.6 169.85,503.6 149.85,503.6" fill="none" stroke="black" stroke-width="1"/><text xml:space="preserve" x="159.85" y="496.433" font-family="Calibri" font-size="7.5" fill="rgb(0,0,0)" text-anchor="middle">2.0</text>
<polygon points="169.85,483.6 189.85,483.6 189.85,503.6 169.85,503.6" fill="rgb(252,194,1)"/><polygon points="169.85,483.6 189.85,483.6 189.85,503.6 169.85,503.6" fill="none" stroke="black" stroke-width="1"/><text xml:space="preserve" x="179.85" y="496.433" font-family="Calibri" font-size="7.5" fill="rgb(0,0,0)" text-anchor="middle">3.0</text>
<text xml:space="preserve" x="149.85" y="536.6" font-family="Calibri" font-size="8" text-anchor="middle">PANTHERclass</text>
<polygon points="109.85,543.6 129.85,543.6 129.85,563.6 109.85,563.6" fill="rgb(255,255,255)"/><polygon points="109.85,543.6 129.85,543.6 129.85,563.6 109.85,563.6" fill="none" stroke="black" stroke-width="1"/><text xml:space="preserve" x="119.85" y="556.433" font-family="Calibri" font-size="7.5" fill="rgb(0,0,0)" text-anchor="middle">0.0</text>
<polygon points="129.85,543.6 149.85,543.6 149.85,563.6 129.85,563.6" fill="rgb(238,170,238)"/><polygon points="129.85,543.6 149.85,543.6 149.85,563.6 129.85,563.6" fill="none" stroke="black" stroke-width="1"/><text xml:space="preserve" x="139.85" y="556.433" font-family="Calibri" font-size="7.5" fill="rgb(0,0,0)" text-anchor="middle">0.3</text>
<polygon points="149.85,543.6 169.85,543.6 169.85,563.6 149.85,563.6" fill="rgb(221,84,221)"/><polygon points="149.85,543.6 169.85,543.6 169.85,563.6 149.85,563.6" fill="none" stroke="black" stroke-width="1"/><text xml:space="preserve" x="159.85" y="556.433" font-family="Calibri" font-size="7.5" fill="rgb(0,0,0)" text-anchor="middle">0.7</text>
<polygon points="169.85,543.6 189.85,543.6 189.85,563.6 169.85,563.6" fill="rgb(205,0,205)"/><polygon points="169.85,543.6 189.85,543.6 189.85,563.6 169.85,563.6" fill="none" stroke="black" stroke-width="1"/><text xml:space="preserve" x="179.85" y="556.433" font-family="Calibri" font-size="7.5" fill="rgb(255,255,255)" text-anchor="middle">1.0</text>
</svg>
