<?xml version="1.0" standalone="no"?><!DOCTYPE svg PUBLIC "-//W3C//DTD SVG 1.1//EN" "http://www.w3.org/Graphics/SVG/1.1/DTD/svg11.dtd">
<svg width="285.6" height="559.6" version="1.1" xmlns="http://www.w3.org/2000/svg">
<text xml:space="preserve" x="97.6" y="342.6" font-family="Calibri" font-size="8" text-anchor="end">CPS1</text>
<text xml:space="preserve" x="97.6" y="350.6" font-family="Calibri" font-size="8" text-anchor="end">SDR16C5</text>
<text xml:space="preserve" x="97.6" y="358.6" font-family="Calibri" font-size="8" text-anchor="end">GULP1</text>
<text xml:space="preserve" x="108.6" y="331.6" font-family="Calibri" font-size="8" transform="rotate(270 108.6 331.6)">c3</text>
<text xml:space="preserve" x="116.6" y="331.6" font-family="Calibri" font-size="8" transform="rotate(270 116.6 331.6)">c1</text>
<text xml:space="preserve" x="124.6" y="331.6" font-family="Calibri" font-size="8" transform="rotate(270 124.6 331.6)">c4</text>
<text xml:space="preserve" x="132.6" y="331.6" font-family="Calibri" font-size="8" transform="rotate(270 132.6 331.6)">c5</text>
<text xml:space="preserve" x="140.6" y="331.6" font-family="Calibri" font-size="8" transform="rotate(270 140.6 331.6)">c2</text>
<text xml:space="preserve" x="158.6" y="331.6" font-family="Calibri" font-size="8" transform="rotate(270 158.6 331.6)">c3_mean</text>
<text xml:space="preserve" x="166.6" y="331.6" font-family="Calibri" font-size="8" transform="rotate(270 166.6 331.6)">c1_mean</text>
<text xml:space="preserve" x="174.6" y="331.6" font-family="Calibri" font-size="8" transform="rotate(270 174.6 331.6)">c4_mean</text>
<text xml:space="preserve" x="182.6" y="331.6" font-family="Calibri" font-size="8" transform="rotate(270 182.6 331.6)">c5_mean</text>
<text xml:space="preserve" x="190.6" y="331.6" font-family="Calibri" font-size="8" transform="rotate(270 190.6 331.6)">c2_mean</text>
<text xml:space="preserve" x="208.6" y="331.6" font-family="Calibri" font-size="8" transform="rotate(270 208.6 331.6)">transcription_factor</text>
<text xml:space="preserve" x="216.6" y="331.6" font-family="Calibri" font-size="8" transform="rotate(270 216.6 331.6)">transmembrane_signal_receptor</text>
<text xml:space="preserve" x="224.6" y="331.6" font-family="Calibri" font-size="8" transform="rotate(270 224.6 331.6)">growth_factor</text>
<text xml:space="preserve" x="232.6" y="331.6" font-family="Calibri" font-size="8" transform="rotate(270 232.6 331.6)">peptide_hormone</text>
<text xml:space="preserve" x="240.6" y="331.6" font-family="Calibri" font-size="8" transform="rotate(270 240.6 331.6)">cytoskeletal_protein</text>
<text xml:space="preserve" x="248.6" y="331.6" font-family="Calibri" font-size="8" transform="rotate(270 248.6 331.6)">ion_channel</text>
<text xml:space="preserve" x="256.6" y="331.6" font-family="Calibri" font-size="8" transform="rotate(270 256.6 331.6)">integrin</text>
<text xml:space="preserve" x="264.6" y="331.6" font-family="Calibri" font-size="8" transform="rotate(270 264.6 331.6)">extracellular_matrix_protein</text>
<polygon points="101.6,335.6 109.6,335.6 109.6,343.6 101.6,343.6" fill="rgb(170,238,0)"/><text xml:space="preserve" x="105.6" y="342.433" font-family="Calibri" font-size="7.5" fill="rgb(0,0,0)" text-anchor="middle">2</text>
<polygon points="109.6,335.6 117.6,335.6 117.6,343.6 109.6,343.6" fill="rgb(170,238,0)"/><text xml:space="preserve" x="113.6" y="342.433" font-family="Calibri" font-size="7.5" fill="rgb(0,0,0)" text-anchor="middle">2</text>
<polygon points="117.6,335.6 125.6,335.6 125.6,343.6 117.6,343.6" fill="rgb(0,205,0)"/><text xml:space="preserve" x="121.6" y="342.433" font-family="Calibri" font-size="7.5" fill="rgb(255,255,255)" text-anchor="middle">1</text>
<polygon points="125.6,335.6 133.6,335.6 133.6,343.6 125.6,343.6" fill="rgb(0,205,0)"/><text xml:space="preserve" x="129.6" y="342.433" font-family="Calibri" font-size="7.5" fill="rgb(255,255,255)" text-anchor="middle">1</text>
<polygon points="133.6,335.6 141.6,335.6 141.6,343.6 133.6,343.6" fill="rgb(0,205,0)"/><text xml:space="preserve" x="137.6" y="342.433" font-family="Calibri" font-size="7.5" fill="rgb(255,255,255)" text-anchor="middle">1</text>
<polygon points="151.6,335.6 159.6,335.6 159.6,343.6 151.6,343.6" fill="rgb(9,64,137)"/>
<polygon points="159.6,335.6 167.6,335.6 167.6,343.6 159.6,343.6" fill="rgb(22,115,140)"/>
<polygon points="167.6,335.6 175.6,335.6 175.6,343.6 167.6,343.6" fill="rgb(3,39,135)"/>
<polygon points="175.6,335.6 183.6,335.6 183.6,343.6 175.6,343.6" fill="rgb(6,51,136)"/>
<polygon points="183.6,335.6 191.6,335.6 191.6,343.6 183.6,343.6" fill="rgb(7,55,136)"/>
<polygon points="201.6,335.6 209.6,335.6 209.6,343.6 201.6,343.6" fill="rgb(255,255,255)"/>
<polygon points="209.6,335.6 217.6,335.6 217.6,343.6 209.6,343.6" fill="rgb(255,255,255)"/>
<polygon points="217.6,335.6 225.6,335.6 225.6,343.6 217.6,343.6" fill="rgb(255,255,255)"/>
<polygon points="225.6,335.6 233.6,335.6 233.6,343.6 225.6,343.6" fill="rgb(255,255,255)"/>
<polygon points="233.6,335.6 241.6,335.6 241.6,343.6 233.6,343.6" fill="rgb(255,255,255)"/>
<polygon points="241.6,335.6 249.6,335.6 249.6,343.6 241.6,343.6" fill="rgb(255,255,255)"/>
<polygon points="249.6,335.6 257.6,335.6 257.6,343.6 249.6,343.6" fill="rgb(255,255,255)"/>
<polygon points="257.6,335.6 265.6,335.6 265.6,343.6 257.6,343.6" fill="rgb(255,255,255)"/>
<polygon points="101.6,343.6 109.6,343.6 109.6,351.6 101.6,351.6" fill="rgb(170,238,0)"/><text xml:space="preserve" x="105.6" y="350.433" font-family="Calibri" font-size="7.5" fill="rgb(0,0,0)" text-anchor="middle">2</text>
<polygon points="109.6,343.6 117.6,343.6 117.6,351.6 109.6,351.6" fill="rgb(170,238,0)"/><text xml:space="preserve" x="113.6" y="350.433" font-family="Calibri" font-size="7.5" fill="rgb(0,0,0)" text-anchor="middle">2</text>
<polygon points="117.6,343.6 125.6,343.6 125.6,351.6 117.6,351.6" fill="rgb(0,205,0)"/><text xml:space="preserve" x="121.6" y="350.433" font-family="Calibri" font-size="7.5" fill="rgb(255,255,255)" text-anchor="middle">1</text>
<polygon points="125.6,343.6 133.6,343.6 133.6,351.6 125.6,351.6" fill="rgb(0,205,0)"/><text xml:space="preserve" x="129.6" y="350.433" font-family="Calibri" font-size="7.5" fill="rgb(255,255,255)" text-anchor="middle">1</text>
<polygon points="133.6,343.6 141.6,343.6 141.6,351.6 133.6,351.6" fill="rgb(0,205,0)"/><text xml:space="preserve" x="137.6" y="350.433" font-family="Calibri" font-size="7.5" fill="rgb(255,255,255)" text-anchor="middle">1</text>
<polygon points="151.6,343.6 159.6,343.6 159.6,351.6 151.6,351.6" fill="rgb(23,120,140)"/>
<polygon points="159.6,343.6 167.6,343.6 167.6,351.6 159.6,351.6" fill="rgb(14,84,138)"/>
<polygon points="167.6,343.6 175.6,343.6 175.6,351.6 167.6,351.6" fill="rgb(8,61,136)"/>
<polygon points="175.6,343.6 183.6,343.6 183.6,351.6 175.6,351.6" fill="rgb(0,28,135)"/>
<polygon points="183.6,343.6 191.6,343.6 191.6,351.6 183.6,351.6" fill="rgb(1,34,135)"/>
<polygon points="201.6,343.6 209.6,343.6 209.6,351.6 201.6,351.6" fill="rgb(255,255,255)"/>
<polygon points="209.6,343.6 217.6,343.6 217.6,351.6 209.6,351.6" fill="rgb(255,255,255)"/>
<polygon points="217.6,343.6 225.6,343.6 225.6,351.6 217.6,351.6" fill="rgb(255,255,255)"/>
<polygon points="225.6,343.6 233.6,343.6 233.6,351.6 225.6,351.6" fill="rgb(255,255,255)"/>
<polygon points="233.6,343.6 241.6,343.6 241.6,351.6 233.6,351.6" fill="rgb(255,255,255)"/>
<polygon points="241.6,343.6 249.6,343.6 249.6,351.6 241.6,351.6" fill="rgb(255,255,255)"/>
<polygon points="249.6,343.6 257.6,343.6 257.6,351.6 249.6,351.6" fill="rgb(255,255,255)"/>
<polygon points="257.6,343.6 265.6,343.6 265.6,351.6 257.6,351.6" fill="rgb(255,255,255)"/>
<polygon points="101.6,351.6 109.6,351.6 109.6,359.6 101.6,359.6" fill="rgb(170,238,0)"/><text xml:space="preserve" x="105.6" y="358.433" font-family="Calibri" font-size="7.5" fill="rgb(0,0,0)" text-anchor="middle">2</text>
<polygon points="109.6,351.6 117.6,351.6 117.6,359.6 109.6,359.6" fill="rgb(170,238,0)"/><text xml:space="preserve" x="113.6" y="358.433" font-family="Calibri" font-size="7.5" fill="rgb(0,0,0)" text-anchor="middle">2</text>
<polygon points="117.6,351.6 125.6,351.6 125.6,359.6 117.6,359.6" fill="rgb(0,205,0)"/><text xml:space="preserve" x="121.6" y="358.433" font-family="Calibri" font-size="7.5" fill="rgb(255,255,255)" text-anchor="middle">1</text>
<polygon points="125.6,351.6 133.6,351.6 133.6,359.6 125.6,359.6" fill="rgb(0,205,0)"/><text xml:space="preserve" x="129.6" y="358.433" font-family="Calibri" font-size="7.5" fill="rgb(255,255,255)" text-anchor="middle">1</text>
<polygon points="133.6,351.6 141.6,351.6 141.6,359.6 133.6,359.6" fill="rgb(0,205,0)"/><text xml:space="preserve" x="137.6" y="358.433" font-family="Calibri" font-size="7.5" fill="rgb(255,255,255)" text-anchor="middle">1</text>
<polygon points="151.6,351.6 159.6,351.6 159.6,359.6 151.6,359.6" fill="rgb(18,99,139)"/>
<polygon points="159.6,351.6 167.6,351.6 167.6,359.6 159.6,359.6" fill="rgb(24,121,140)"/>
<polygon points="167.6,351.6 175.6,351.6 175.6,359.6 167.6,359.6" fill="rgb(1,34,135)"/>
<polygon points="175.6,351.6 183.6,351.6 183.6,359.6 175.6,359.6" fill="rgb(7,56,136)"/>
<polygon points="183.6,351.6 191.6,351.6 191.6,359.6 183.6,359.6" fill="rgb(3,41,135)"/>
<polygon points="201.6,351.6 209.6,351.6 209.6,359.6 201.6,359.6" fill="rgb(255,255,255)"/>
<polygon points="209.6,351.6 217.6,351.6 217.6,359.6 209.6,359.6" fill="rgb(255,255,255)"/>
<polygon points="217.6,351.6 225.6,351.6 225.6,359.6 217.6,359.6" fill="rgb(255,255,255)"/>
<polygon points="225.6,351.6 233.6,351.6 233.6,359.6 225.6,359.6" fill="rgb(255,255,255)"/>
<polygon points="233.6,351.6 241.6,351.6 241.6,359.6 233.6,359.6" fill="rgb(255,255,255)"/>
<polygon points="241.6,351.6 249.6,351.6 249.6,359.6 241.6,359.6" fill="rgb(255,255,255)"/>
<polygon points="249.6,351.6 257.6,351.6 257.6,359.6 249.6,359.6" fill="rgb(255,255,255)"/>
<polygon points="257.6,351.6 265.6,351.6 265.6,359.6 257.6,359.6" fill="rgb(255,255,255)"/>
<polygon points="101.6,335.6 141.6,335.6 141.6,359.6 101.6,359.6" fill="none" stroke="black" stroke-width="1"/>
<polygon points="151.6,335.6 191.6,335.6 191.6,359.6 151.6,359.6" fill="none" stroke="black" stroke-width="1"/>
<polygon points="201.6,335.6 265.6,335.6 265.6,359.6 201.6,359.6" fill="none" stroke="black" stroke-width="1"/>
<text xml:space="preserve" x="142.8" y="392.6" font-family="Calibri" font-size="8" text-anchor="middle">ClusterAssignment</text>
<polygon points="102.8,399.6 122.8,399.6 122.8,419.6 102.8,419.6" fill="rgb(0,205,0)"/><polygon points="102.8,399.6 122.8,399.6 122.8,419.6 102.8,419.6" fill="none" stroke="black" stroke-width="1"/><text xml:space="preserve" x="112.8" y="412.433" font-family="Calibri" font-size="7.5" fill="rgb(255,255,255)" text-anchor="middle">1.0</text>
<polygon points="122.8,399.6 142.8,399.6 142.8,419.6 122.8,419.6" fill="rgb(170,238,0)"/><polygon points="122.8,399.6 142.8,399.6 142.8,419.6 122.8,419.6" fill="none" stroke="black" stroke-width="1"/><text xml:space="preserve" x="132.8" y="412.433" font-family="Calibri" font-size="7.5" fill="rgb(0,0,0)" text-anchor="middle">2.0</text>
<polygon points="142.8,399.6 162.8,399.6 162.8,419.6 142.8,419.6" fill="rgb(238,170,0)"/><polygon points="142.8,399.6 162.8,399.6 162.8,419.6 142.8,419.6" fill="none" stroke="black" stroke-width="1"/><text xml:space="preserve" x="152.8" y="412.433" font-family="Calibri" font-size="7.5" fill="rgb(0,0,0)" text-anchor="middle">3.0</text>
<polygon points="162.8,399.6 182.8,399.6 182.8,419.6 162.8,419.6" fill="rgb(205,0,0)"/><polygon points="162.8,399.6 182.8,399.6 182.8,419.6 162.8,419.6" fill="none" stroke="black" stroke-width="1"/><text xml:space="preserve" x="172.8" y="412.433" font-family="Calibri" font-size="7.5" fill="rgb(255,255,255)" text-anchor="middle">4.0</text>
<text xml:space="preserve" x="142.8" y="452.6" font-family="Calibri" font-size="8" text-anchor="middle">Expression</text>
<polygon points="102.8,459.6 122.8,459.6 122.8,479.6 102.8,479.6" fill="rgb(0,27,135)"/><polygon points="102.8,459.6 122.8,459.6 122.8,479.6 102.8,479.6" fill="none" stroke="black" stroke-width="1"/><text xml:space="preserve" x="112.8" y="472.433" font-family="Calibri" font-size="7.5" fill="rgb(255,255,255)" text-anchor="middle">0.0</text>
<polygon points="122.8,459.6 142.8,459.6 142.8,479.6 122.8,479.6" fill="rgb(32,155,142)"/><polygon points="122.8,459.6 142.8,459.6 142.8,479.6 122.8,479.6" fill="none" stroke="black" stroke-width="1"/><text xml:space="preserve" x="132.8" y="472.433" font-family="Calibri" font-size="7.5" fill="rgb(255,255,255)" text-anchor="middle">1.0</text>
<polygon points="142.8,459.6 162.8,459.6 162.8,479.6 142.8,479.6" fill="rgb(116,210,97)"/><polygon points="142.8,459.6 162.8,459.6 162.8,479.6 142.8,479.6" fill="none" stroke="black" stroke-width="1"/><text xml:space="preserve" x="152.8" y="472.433" font-family="Calibri" font-size="7.5" fill="rgb(0,0,0)" text-anchor="middle">2.0</text>
<polygon points="162.8,459.6 182.8,459.6 182.8,479.6 162.8,479.6" fill="rgb(252,194,1)"/><polygon points="162.8,459.6 182.8,459.6 182.8,479.6 162.8,479.6" fill="none" stroke="black" stroke-width="1"/><text xml:space="preserve" x="172.8" y="472.433" font-family="Calibri" font-size="7.5" fill="rgb(0,0,0)" text-anchor="middle">3.0</text>
<text xml:space="preserve" x="142.8" y="512.6" font-family="Calibri" font-size="8" text-anchor="middle">PANTHERclass</text>
<polygon points="102.8,519.6 122.8,519.6 122.8,539.6 102.8,539.6" fill="rgb(255,255,255)"/><polygon points="102.8,519.6 122.8,519.6 122.8,539.6 102.8,539.6" fill="none" stroke="black" stroke-width="1"/><text xml:space="preserve" x="112.8" y="532.433" font-family="Calibri" font-size="7.5" fill="rgb(0,0,0)" text-anchor="middle">0.0</text>
<polygon points="122.8,519.6 142.8,519.6 142.8,539.6 122.8,539.6" fill="rgb(238,170,238)"/><polygon points="122.8,519.6 142.8,519.6 142.8,539.6 122.8,539.6" fill="none" stroke="black" stroke-width="1"/><text xml:space="preserve" x="132.8" y="532.433" font-family="Calibri" font-size="7.5" fill="rgb(0,0,0)" text-anchor="middle">0.3</text>
<polygon points="142.8,519.6 162.8,519.6 162.8,539.6 142.8,539.6" fill="rgb(221,84,221)"/><polygon points="142.8,519.6 162.8,519.6 162.8,539.6 142.8,539.6" fill="none" stroke="black" stroke-width="1"/><text xml:space="preserve" x="152.8" y="532.433" font-family="Calibri" font-size="7.5" fill="rgb(0,0,0)" text-anchor="middle">0.7</text>
<polygon points="162.8,519.6 182.8,519.6 182.8,539.6 162.8,539.6" fill="rgb(205,0,205)"/><polygon points="162.8,519.6 182.8,519.6 182.8,539.6 162.8,539.6" fill="none" stroke="black" stroke-width="1"/><text xml:space="preserve" x="172.8" y="532.433" font-family="Calibri" font-size="7.5" fill="rgb(255,255,255)" text-anchor="middle">1.0</text>
</svg>
