<?xml version="1.0" standalone="no"?><!DOCTYPE svg PUBLIC "-//W3C//DTD SVG 1.1//EN" "http://www.w3.org/Graphics/SVG/1.1/DTD/svg11.dtd">
<svg width="313.2" height="623.6" version="1.1" xmlns="http://www.w3.org/2000/svg">
<text xml:space="preserve" x="125.2" y="342.6" font-family="Calibri" font-size="8" text-anchor="end">AC078880.5</text>
<text xml:space="preserve" x="125.2" y="350.6" font-family="Calibri" font-size="8" text-anchor="end">FOXQ1</text>
<text xml:space="preserve" x="125.2" y="358.6" font-family="Calibri" font-size="8" text-anchor="end">MTNR1B</text>
<text xml:space="preserve" x="125.2" y="366.6" font-family="Calibri" font-size="8" text-anchor="end">GABRE</text>
<text xml:space="preserve" x="125.2" y="374.6" font-family="Calibri" font-size="8" text-anchor="end">SULF1</text>
<text xml:space="preserve" x="125.2" y="382.6" font-family="Calibri" font-size="8" text-anchor="end">TBX3</text>
<text xml:space="preserve" x="125.2" y="390.6" font-family="Calibri" font-size="8" text-anchor="end">IL1RAPL2</text>
<text xml:space="preserve" x="125.2" y="398.6" font-family="Calibri" font-size="8" text-anchor="end">SALL1</text>
<text xml:space="preserve" x="125.2" y="406.6" font-family="Calibri" font-size="8" text-anchor="end">HS3ST1</text>
<text xml:space="preserve" x="125.2" y="414.6" font-family="Calibri" font-size="8" text-anchor="end">PRDM14</text>
<text xml:space="preserve" x="125.2" y="422.6" font-family="Calibri" font-size="8" text-anchor="end">CDH20</text>
<text xml:space="preserve" x="136.2" y="331.6" font-family="Calibri" font-size="8" transform="rotate(270 136.2 331.6)">c3</text>
<text xml:space="preserve" x="144.2" y="331.6" font-family="Calibri" font-size="8" transform="rotate(270 144.2 331.6)">c1</text>
<text xml:space="preserve" x="152.2" y="331.6" font-family="Calibri" font-size="8" transform="rotate(270 152.2 331.6)">c4</text>
<text xml:space="preserve" x="160.2" y="331.6" font-family="Calibri" font-size="8" transform="rotate(270 160.2 331.6)">c5</text>
<text xml:space="preserve" x="168.2" y="331.6" font-family="Calibri" font-size="8" transform="rotate(270 168.2 331.6)">c2</text>
<text xml:space="preserve" x="186.2" y="331.6" font-family="Calibri" font-size="8" transform="rotate(270 186.2 331.6)">c3_mean</text>
<text xml:space="preserve" x="194.2" y="331.6" font-family="Calibri" font-size="8" transform="rotate(270 194.2 331.6)">c1_mean</text>
<text xml:space="preserve" x="202.2" y="331.6" font-family="Calibri" font-size="8" transform="rotate(270 202.2 331.6)">c4_mean</text>
<text xml:space="preserve" x="210.2" y="331.6" font-family="Calibri" font-size="8" transform="rotate(270 210.2 331.6)">c5_mean</text>
<text xml:space="preserve" x="218.2" y="331.6" font-family="Calibri" font-size="8" transform="rotate(270 218.2 331.6)">c2_mean</text>
<text xml:space="preserve" x="236.2" y="331.6" font-family="Calibri" font-size="8" transform="rotate(270 236.2 331.6)">transcription_factor</text>
<text xml:space="preserve" x="244.2" y="331.6" font-family="Calibri" font-size="8" transform="rotate(270 244.2 331.6)">transmembrane_signal_receptor</text>
<text xml:space="preserve" x="252.2" y="331.6" font-family="Calibri" font-size="8" transform="rotate(270 252.2 331.6)">growth_factor</text>
<text xml:space="preserve" x="260.2" y="331.6" font-family="Calibri" font-size="8" transform="rotate(270 260.2 331.6)">peptide_hormone</text>
<text xml:space="preserve" x="268.2" y="331.6" font-family="Calibri" font-size="8" transform="rotate(270 268.2 331.6)">cytoskeletal_protein</text>
<text xml:space="preserve" x="276.2" y="331.6" font-family="Calibri" font-size="8" transform="rotate(270 276.2 331.6)">ion_channel</text>
<text xml:space="preserve" x="284.2" y="331.6" font-family="Calibri" font-size="8" transform="rotate(270 284.2 331.6)">integrin</text>
<text xml:space="preserve" x="292.2" y="331.6" font-family="Calibri" font-size="8" transform="rotate(270 292.2 331.6)">extracellular_matrix_protein</text>
<polygon points="129.2,335.6 137.2,335.6 137.2,343.6 129.2,343.6" fill="rgb(0,205,0)"/><text xml:space="preserve" x="133.2" y="342.433" font-family="Calibri" font-size="7.5" fill="rgb(255,255,255)" text-anchor="middle">1</text>
<polygon points="137.2,335.6 145.2,335.6 145.2,343.6 137.2,343.6" fill="rgb(0,205,0)"/><text xml:space="preserve" x="141.2" y="342.433" font-family="Calibri" font-size="7.5" fill="rgb(255,255,255)" text-anchor="middle">1</text>
<polygon points="145.2,335.6 153.2,335.6 153.2,343.6 145.2,343.6" fill="rgb(205,0,0)"/><text xml:space="preserve" x="149.2" y="342.433" font-family="Calibri" font-size="7.5" fill="rgb(255,255,255)" text-anchor="middle">4</text>
<polygon points="153.2,335.6 161.2,335.6 161.2,343.6 153.2,343.6" fill="rgb(0,205,0)"/><text xml:space="preserve" x="157.2" y="342.433" font-family="Calibri" font-size="7.5" fill="rgb(255,255,255)" text-anchor="middle">1</text>
<polygon points="161.2,335.6 169.2,335.6 169.2,343.6 161.2,343.6" fill="rgb(0,205,0)"/><text xml:space="preserve" x="165.2" y="342.433" font-family="Calibri" font-size="7.5" fill="rgb(255,255,255)" text-anchor="middle">1</text>
<polygon points="179.2,335.6 187.2,335.6 187.2,343.6 179.2,343.6" fill="rgb(0,27,135)"/>
<polygon points="187.2,335.6 195.2,335.6 195.2,343.6 187.2,343.6" fill="rgb(0,27,135)"/>
<polygon points="195.2,335.6 203.2,335.6 203.2,343.6 195.2,343.6" fill="rgb(38,178,143)"/>
<polygon points="203.2,335.6 211.2,335.6 211.2,343.6 203.2,343.6" fill="rgb(0,27,135)"/>
<polygon points="211.2,335.6 219.2,335.6 219.2,343.6 211.2,343.6" fill="rgb(0,27,135)"/>
<polygon points="229.2,335.6 237.2,335.6 237.2,343.6 229.2,343.6" fill="rgb(255,255,255)"/>
<polygon points="237.2,335.6 245.2,335.6 245.2,343.6 237.2,343.6" fill="rgb(255,255,255)"/>
<polygon points="245.2,335.6 253.2,335.6 253.2,343.6 245.2,343.6" fill="rgb(255,255,255)"/>
<polygon points="253.2,335.6 261.2,335.6 261.2,343.6 253.2,343.6" fill="rgb(255,255,255)"/>
<polygon points="261.2,335.6 269.2,335.6 269.2,343.6 261.2,343.6" fill="rgb(255,255,255)"/>
<polygon points="269.2,335.6 277.2,335.6 277.2,343.6 269.2,343.6" fill="rgb(255,255,255)"/>
<polygon points="277.2,335.6 285.2,335.6 285.2,343.6 277.2,343.6" fill="rgb(255,255,255)"/>
<polygon points="285.2,335.6 293.2,335.6 293.2,343.6 285.2,343.6" fill="rgb(255,255,255)"/>
<polygon points="129.2,343.6 137.2,343.6 137.2,351.6 129.2,351.6" fill="rgb(0,205,0)"/><text xml:space="preserve" x="133.2" y="350.433" font-family="Calibri" font-size="7.5" fill="rgb(255,255,255)" text-anchor="middle">1</text>
<polygon points="137.2,343.6 145.2,343.6 145.2,351.6 137.2,351.6" fill="rgb(0,205,0)"/><text xml:space="preserve" x="141.2" y="350.433" font-family="Calibri" font-size="7.5" fill="rgb(255,255,255)" text-anchor="middle">1</text>
<polygon points="145.2,343.6 153.2,343.6 153.2,351.6 145.2,351.6" fill="rgb(205,0,0)"/><text xml:space="preserve" x="149.2" y="350.433" font-family="Calibri" font-size="7.5" fill="rgb(255,255,255)" text-anchor="middle">4</text>
<polygon points="153.2,343.6 161.2,343.6 161.2,351.6 153.2,351.6" fill="rgb(0,205,0)"/><text xml:space="preserve" x="157.2" y="350.433" font-family="Calibri" font-size="7.5" fill="rgb(255,255,255)" text-anchor="middle">1</text>
<polygon points="161.2,343.6 169.2,343.6 169.2,351.6 161.2,351.6" fill="rgb(0,205,0)"/><text xml:space="preserve" x="165.2" y="350.433" font-family="Calibri" font-size="7.5" fill="rgb(255,255,255)" text-anchor="middle">1</text>
<polygon points="179.2,343.6 187.2,343.6 187.2,351.6 179.2,351.6" fill="rgb(5,50,136)"/>
<polygon points="187.2,343.6 195.2,343.6 195.2,351.6 187.2,351.6" fill="rgb(0,27,135)"/>
<polygon points="195.2,343.6 203.2,343.6 203.2,351.6 195.2,351.6" fill="rgb(45,203,145)"/>
<polygon points="203.2,343.6 211.2,343.6 211.2,351.6 203.2,351.6" fill="rgb(0,27,135)"/>
<polygon points="211.2,343.6 219.2,343.6 219.2,351.6 211.2,351.6" fill="rgb(0,27,135)"/>
<polygon points="229.2,343.6 237.2,343.6 237.2,351.6 229.2,351.6" fill="rgb(205,0,205)"/>
<polygon points="237.2,343.6 245.2,343.6 245.2,351.6 237.2,351.6" fill="rgb(255,255,255)"/>
<polygon points="245.2,343.6 253.2,343.6 253.2,351.6 245.2,351.6" fill="rgb(255,255,255)"/>
<polygon points="253.2,343.6 261.2,343.6 261.2,351.6 253.2,351.6" fill="rgb(255,255,255)"/>
<polygon points="261.2,343.6 269.2,343.6 269.2,351.6 261.2,351.6" fill="rgb(255,255,255)"/>
<polygon points="269.2,343.6 277.2,343.6 277.2,351.6 269.2,351.6" fill="rgb(255,255,255)"/>
<polygon points="277.2,343.6 285.2,343.6 285.2,351.6 277.2,351.6" fill="rgb(255,255,255)"/>
<polygon points="285.2,343.6 293.2,343.6 293.2,351.6 285.2,351.6" fill="rgb(255,255,255)"/>
<polygon points="129.2,351.6 137.2,351.6 137.2,359.6 129.2,359.6" fill="rgb(0,205,0)"/><text xml:space="preserve" x="133.2" y="358.433" font-family="Calibri" font-size="7.5" fill="rgb(255,255,255)" text-anchor="middle">1</text>
<polygon points="137.2,351.6 145.2,351.6 145.2,359.6 137.2,359.6" fill="rgb(0,205,0)"/><text xml:space="preserve" x="141.2" y="358.433" font-family="Calibri" font-size="7.5" fill="rgb(255,255,255)" text-anchor="middle">1</text>
<polygon points="145.2,351.6 153.2,351.6 153.2,359.6 145.2,359.6" fill="rgb(205,0,0)"/><text xml:space="preserve" x="149.2" y="358.433" font-family="Calibri" font-size="7.5" fill="rgb(255,255,255)" text-anchor="middle">4</text>
<polygon points="153.2,351.6 161.2,351.6 161.2,359.6 153.2,359.6" fill="rgb(0,205,0)"/><text xml:space="preserve" x="157.2" y="358.433" font-family="Calibri" font-size="7.5" fill="rgb(255,255,255)" text-anchor="middle">1</text>
<polygon points="161.2,351.6 169.2,351.6 169.2,359.6 161.2,359.6" fill="rgb(0,205,0)"/><text xml:space="preserve" x="165.2" y="358.433" font-family="Calibri" font-size="7.5" fill="rgb(255,255,255)" text-anchor="middle">1</text>
<polygon points="179.2,351.6 187.2,351.6 187.2,359.6 179.2,359.6" fill="rgb(0,27,135)"/>
<polygon points="187.2,351.6 195.2,351.6 195.2,359.6 187.2,359.6" fill="rgb(3,39,135)"/>
<polygon points="195.2,351.6 203.2,351.6 203.2,359.6 195.2,359.6" fill="rgb(57,218,140)"/>
<polygon points="203.2,351.6 211.2,351.6 211.2,359.6 203.2,359.6" fill="rgb(0,27,135)"/>
<polygon points="211.2,351.6 219.2,351.6 219.2,359.6 211.2,359.6" fill="rgb(0,27,135)"/>
<polygon points="229.2,351.6 237.2,351.6 237.2,359.6 229.2,359.6" fill="rgb(255,255,255)"/>
<polygon points="237.2,351.6 245.2,351.6 245.2,359.6 237.2,359.6" fill="rgb(255,255,255)"/>
<polygon points="245.2,351.6 253.2,351.6 253.2,359.6 245.2,359.6" fill="rgb(255,255,255)"/>
<polygon points="253.2,351.6 261.2,351.6 261.2,359.6 253.2,359.6" fill="rgb(255,255,255)"/>
<polygon points="261.2,351.6 269.2,351.6 269.2,359.6 261.2,359.6" fill="rgb(255,255,255)"/>
<polygon points="269.2,351.6 277.2,351.6 277.2,359.6 269.2,359.6" fill="rgb(255,255,255)"/>
<polygon points="277.2,351.6 285.2,351.6 285.2,359.6 277.2,359.6" fill="rgb(255,255,255)"/>
<polygon points="285.2,351.6 293.2,351.6 293.2,359.6 285.2,359.6" fill="rgb(255,255,255)"/>
<polygon points="129.2,359.6 137.2,359.6 137.2,367.6 129.2,367.6" fill="rgb(0,205,0)"/><text xml:space="preserve" x="133.2" y="366.433" font-family="Calibri" font-size="7.5" fill="rgb(255,255,255)" text-anchor="middle">1</text>
<polygon points="137.2,359.6 145.2,359.6 145.2,367.6 137.2,367.6" fill="rgb(0,205,0)"/><text xml:space="preserve" x="141.2" y="366.433" font-family="Calibri" font-size="7.5" fill="rgb(255,255,255)" text-anchor="middle">1</text>
<polygon points="145.2,359.6 153.2,359.6 153.2,367.6 145.2,367.6" fill="rgb(205,0,0)"/><text xml:space="preserve" x="149.2" y="366.433" font-family="Calibri" font-size="7.5" fill="rgb(255,255,255)" text-anchor="middle">4</text>
<polygon points="153.2,359.6 161.2,359.6 161.2,367.6 153.2,367.6" fill="rgb(0,205,0)"/><text xml:space="preserve" x="157.2" y="366.433" font-family="Calibri" font-size="7.5" fill="rgb(255,255,255)" text-anchor="middle">1</text>
<polygon points="161.2,359.6 169.2,359.6 169.2,367.6 161.2,367.6" fill="rgb(0,205,0)"/><text xml:space="preserve" x="165.2" y="366.433" font-family="Calibri" font-size="7.5" fill="rgb(255,255,255)" text-anchor="middle">1</text>
<polygon points="179.2,359.6 187.2,359.6 187.2,367.6 179.2,367.6" fill="rgb(7,56,136)"/>
<polygon points="187.2,359.6 195.2,359.6 195.2,367.6 187.2,367.6" fill="rgb(15,85,138)"/>
<polygon points="195.2,359.6 203.2,359.6 203.2,367.6 195.2,367.6" fill="rgb(43,198,144)"/>
<polygon points="203.2,359.6 211.2,359.6 211.2,367.6 203.2,367.6" fill="rgb(1,34,135)"/>
<polygon points="211.2,359.6 219.2,359.6 219.2,367.6 211.2,367.6" fill="rgb(2,38,135)"/>
<polygon points="229.2,359.6 237.2,359.6 237.2,367.6 229.2,367.6" fill="rgb(255,255,255)"/>
<polygon points="237.2,359.6 245.2,359.6 245.2,367.6 237.2,367.6" fill="rgb(205,0,205)"/>
<polygon points="245.2,359.6 253.2,359.6 253.2,367.6 245.2,367.6" fill="rgb(255,255,255)"/>
<polygon points="253.2,359.6 261.2,359.6 261.2,367.6 253.2,367.6" fill="rgb(255,255,255)"/>
<polygon points="261.2,359.6 269.2,359.6 269.2,367.6 261.2,367.6" fill="rgb(255,255,255)"/>
<polygon points="269.2,359.6 277.2,359.6 277.2,367.6 269.2,367.6" fill="rgb(205,0,205)"/>
<polygon points="277.2,359.6 285.2,359.6 285.2,367.6 277.2,367.6" fill="rgb(255,255,255)"/>
<polygon points="285.2,359.6 293.2,359.6 293.2,367.6 285.2,367.6" fill="rgb(255,255,255)"/>
<polygon points="129.2,367.6 137.2,367.6 137.2,375.6 129.2,375.6" fill="rgb(0,205,0)"/><text xml:space="preserve" x="133.2" y="374.433" font-family="Calibri" font-size="7.5" fill="rgb(255,255,255)" text-anchor="middle">1</text>
<polygon points="137.2,367.6 145.2,367.6 145.2,375.6 137.2,375.6" fill="rgb(0,205,0)"/><text xml:space="preserve" x="141.2" y="374.433" font-family="Calibri" font-size="7.5" fill="rgb(255,255,255)" text-anchor="middle">1</text>
<polygon points="145.2,367.6 153.2,367.6 153.2,375.6 145.2,375.6" fill="rgb(205,0,0)"/><text xml:space="preserve" x="149.2" y="374.433" font-family="Calibri" font-size="7.5" fill="rgb(255,255,255)" text-anchor="middle">4</text>
<polygon points="153.2,367.6 161.2,367.6 161.2,375.6 153.2,375.6" fill="rgb(0,205,0)"/><text xml:space="preserve" x="157.2" y="374.433" font-family="Calibri" font-size="7.5" fill="rgb(255,255,255)" text-anchor="middle">1</text>
<polygon points="161.2,367.6 169.2,367.6 169.2,375.6 161.2,375.6" fill="rgb(0,205,0)"/><text xml:space="preserve" x="165.2" y="374.433" font-family="Calibri" font-size="7.5" fill="rgb(255,255,255)" text-anchor="middle">1</text>
<polygon points="179.2,367.6 187.2,367.6 187.2,375.6 179.2,375.6" fill="rgb(0,28,135)"/>
<polygon points="187.2,367.6 195.2,367.6 195.2,375.6 187.2,375.6" fill="rgb(16,93,138)"/>
<polygon points="195.2,367.6 203.2,367.6 203.2,375.6 195.2,375.6" fill="rgb(93,213,114)"/>
<polygon points="203.2,367.6 211.2,367.6 211.2,375.6 203.2,375.6" fill="rgb(9,62,137)"/>
<polygon points="211.2,367.6 219.2,367.6 219.2,375.6 211.2,375.6" fill="rgb(6,51,136)"/>
<polygon points="229.2,367.6 237.2,367.6 237.2,375.6 229.2,375.6" fill="rgb(255,255,255)"/>
<polygon points="237.2,367.6 245.2,367.6 245.2,375.6 237.2,375.6" fill="rgb(255,255,255)"/>
<polygon points="245.2,367.6 253.2,367.6 253.2,375.6 245.2,375.6" fill="rgb(255,255,255)"/>
<polygon points="253.2,367.6 261.2,367.6 261.2,375.6 253.2,375.6" fill="rgb(255,255,255)"/>
<polygon points="261.2,367.6 269.2,367.6 269.2,375.6 261.2,375.6" fill="rgb(255,255,255)"/>
<polygon points="269.2,367.6 277.2,367.6 277.2,375.6 269.2,375.6" fill="rgb(255,255,255)"/>
<polygon points="277.2,367.6 285.2,367.6 285.2,375.6 277.2,375.6" fill="rgb(255,255,255)"/>
<polygon points="285.2,367.6 293.2,367.6 293.2,375.6 285.2,375.6" fill="rgb(255,255,255)"/>
<polygon points="129.2,375.6 137.2,375.6 137.2,383.6 129.2,383.6" fill="rgb(0,205,0)"/><text xml:space="preserve" x="133.2" y="382.433" font-family="Calibri" font-size="7.5" fill="rgb(255,255,255)" text-anchor="middle">1</text>
<polygon points="137.2,375.6 145.2,375.6 145.2,383.6 137.2,383.6" fill="rgb(0,205,0)"/><text xml:space="preserve" x="141.2" y="382.433" font-family="Calibri" font-size="7.5" fill="rgb(255,255,255)" text-anchor="middle">1</text>
<polygon points="145.2,375.6 153.2,375.6 153.2,383.6 145.2,383.6" fill="rgb(205,0,0)"/><text xml:space="preserve" x="149.2" y="382.433" font-family="Calibri" font-size="7.5" fill="rgb(255,255,255)" text-anchor="middle">4</text>
<polygon points="153.2,375.6 161.2,375.6 161.2,383.6 153.2,383.6" fill="rgb(0,205,0)"/><text xml:space="preserve" x="157.2" y="382.433" font-family="Calibri" font-size="7.5" fill="rgb(255,255,255)" text-anchor="middle">1</text>
<polygon points="161.2,375.6 169.2,375.6 169.2,383.6 161.2,383.6" fill="rgb(0,205,0)"/><text xml:space="preserve" x="165.2" y="382.433" font-family="Calibri" font-size="7.5" fill="rgb(255,255,255)" text-anchor="middle">1</text>
<polygon points="179.2,375.6 187.2,375.6 187.2,383.6 179.2,383.6" fill="rgb(3,39,135)"/>
<polygon points="187.2,375.6 195.2,375.6 195.2,383.6 187.2,383.6" fill="rgb(4,46,136)"/>
<polygon points="195.2,375.6 203.2,375.6 203.2,383.6 195.2,383.6" fill="rgb(170,204,59)"/>
<polygon points="203.2,375.6 211.2,375.6 211.2,383.6 203.2,383.6" fill="rgb(1,32,135)"/>
<polygon points="211.2,375.6 219.2,375.6 219.2,383.6 211.2,383.6" fill="rgb(2,38,135)"/>
<polygon points="229.2,375.6 237.2,375.6 237.2,383.6 229.2,383.6" fill="rgb(205,0,205)"/>
<polygon points="237.2,375.6 245.2,375.6 245.2,383.6 237.2,383.6" fill="rgb(255,255,255)"/>
<polygon points="245.2,375.6 253.2,375.6 253.2,383.6 245.2,383.6" fill="rgb(255,255,255)"/>
<polygon points="253.2,375.6 261.2,375.6 261.2,383.6 253.2,383.6" fill="rgb(255,255,255)"/>
<polygon points="261.2,375.6 269.2,375.6 269.2,383.6 261.2,383.6" fill="rgb(255,255,255)"/>
<polygon points="269.2,375.6 277.2,375.6 277.2,383.6 269.2,383.6" fill="rgb(255,255,255)"/>
<polygon points="277.2,375.6 285.2,375.6 285.2,383.6 277.2,383.6" fill="rgb(255,255,255)"/>
<polygon points="285.2,375.6 293.2,375.6 293.2,383.6 285.2,383.6" fill="rgb(255,255,255)"/>
<polygon points="129.2,383.6 137.2,383.6 137.2,391.6 129.2,391.6" fill="rgb(0,205,0)"/><text xml:space="preserve" x="133.2" y="390.433" font-family="Calibri" font-size="7.5" fill="rgb(255,255,255)" text-anchor="middle">1</text>
<polygon points="137.2,383.6 145.2,383.6 145.2,391.6 137.2,391.6" fill="rgb(0,205,0)"/><text xml:space="preserve" x="141.2" y="390.433" font-family="Calibri" font-size="7.5" fill="rgb(255,255,255)" text-anchor="middle">1</text>
<polygon points="145.2,383.6 153.2,383.6 153.2,391.6 145.2,391.6" fill="rgb(205,0,0)"/><text xml:space="preserve" x="149.2" y="390.433" font-family="Calibri" font-size="7.5" fill="rgb(255,255,255)" text-anchor="middle">4</text>
<polygon points="153.2,383.6 161.2,383.6 161.2,391.6 153.2,391.6" fill="rgb(0,205,0)"/><text xml:space="preserve" x="157.2" y="390.433" font-family="Calibri" font-size="7.5" fill="rgb(255,255,255)" text-anchor="middle">1</text>
<polygon points="161.2,383.6 169.2,383.6 169.2,391.6 161.2,391.6" fill="rgb(0,205,0)"/><text xml:space="preserve" x="165.2" y="390.433" font-family="Calibri" font-size="7.5" fill="rgb(255,255,255)" text-anchor="middle">1</text>
<polygon points="179.2,383.6 187.2,383.6 187.2,391.6 179.2,391.6" fill="rgb(1,32,135)"/>
<polygon points="187.2,383.6 195.2,383.6 195.2,391.6 187.2,391.6" fill="rgb(1,32,135)"/>
<polygon points="195.2,383.6 203.2,383.6 203.2,391.6 195.2,391.6" fill="rgb(72,216,129)"/>
<polygon points="203.2,383.6 211.2,383.6 211.2,391.6 203.2,391.6" fill="rgb(1,32,135)"/>
<polygon points="211.2,383.6 219.2,383.6 219.2,391.6 211.2,391.6" fill="rgb(2,38,135)"/>
<polygon points="229.2,383.6 237.2,383.6 237.2,391.6 229.2,391.6" fill="rgb(255,255,255)"/>
<polygon points="237.2,383.6 245.2,383.6 245.2,391.6 237.2,391.6" fill="rgb(205,0,205)"/>
<polygon points="245.2,383.6 253.2,383.6 253.2,391.6 245.2,391.6" fill="rgb(255,255,255)"/>
<polygon points="253.2,383.6 261.2,383.6 261.2,391.6 253.2,391.6" fill="rgb(255,255,255)"/>
<polygon points="261.2,383.6 269.2,383.6 269.2,391.6 261.2,391.6" fill="rgb(255,255,255)"/>
<polygon points="269.2,383.6 277.2,383.6 277.2,391.6 269.2,391.6" fill="rgb(255,255,255)"/>
<polygon points="277.2,383.6 285.2,383.6 285.2,391.6 277.2,391.6" fill="rgb(255,255,255)"/>
<polygon points="285.2,383.6 293.2,383.6 293.2,391.6 285.2,391.6" fill="rgb(255,255,255)"/>
<polygon points="129.2,391.6 137.2,391.6 137.2,399.6 129.2,399.6" fill="rgb(0,205,0)"/><text xml:space="preserve" x="133.2" y="398.433" font-family="Calibri" font-size="7.5" fill="rgb(255,255,255)" text-anchor="middle">1</text>
<polygon points="137.2,391.6 145.2,391.6 145.2,399.6 137.2,399.6" fill="rgb(0,205,0)"/><text xml:space="preserve" x="141.2" y="398.433" font-family="Calibri" font-size="7.5" fill="rgb(255,255,255)" text-anchor="middle">1</text>
<polygon points="145.2,391.6 153.2,391.6 153.2,399.6 145.2,399.6" fill="rgb(205,0,0)"/><text xml:space="preserve" x="149.2" y="398.433" font-family="Calibri" font-size="7.5" fill="rgb(255,255,255)" text-anchor="middle">4</text>
<polygon points="153.2,391.6 161.2,391.6 161.2,399.6 153.2,399.6" fill="rgb(0,205,0)"/><text xml:space="preserve" x="157.2" y="398.433" font-family="Calibri" font-size="7.5" fill="rgb(255,255,255)" text-anchor="middle">1</text>
<polygon points="161.2,391.6 169.2,391.6 169.2,399.6 161.2,399.6" fill="rgb(0,205,0)"/><text xml:space="preserve" x="165.2" y="398.433" font-family="Calibri" font-size="7.5" fill="rgb(255,255,255)" text-anchor="middle">1</text>
<polygon points="179.2,391.6 187.2,391.6 187.2,399.6 179.2,399.6" fill="rgb(0,29,135)"/>
<polygon points="187.2,391.6 195.2,391.6 195.2,399.6 187.2,399.6" fill="rgb(0,30,135)"/>
<polygon points="195.2,391.6 203.2,391.6 203.2,399.6 195.2,399.6" fill="rgb(44,199,144)"/>
<polygon points="203.2,391.6 211.2,391.6 211.2,399.6 203.2,399.6" fill="rgb(6,51,136)"/>
<polygon points="211.2,391.6 219.2,391.6 219.2,399.6 211.2,399.6" fill="rgb(7,55,136)"/>
<polygon points="229.2,391.6 237.2,391.6 237.2,399.6 229.2,399.6" fill="rgb(205,0,205)"/>
<polygon points="237.2,391.6 245.2,391.6 245.2,399.6 237.2,399.6" fill="rgb(255,255,255)"/>
<polygon points="245.2,391.6 253.2,391.6 253.2,399.6 245.2,399.6" fill="rgb(255,255,255)"/>
<polygon points="253.2,391.6 261.2,391.6 261.2,399.6 253.2,399.6" fill="rgb(255,255,255)"/>
<polygon points="261.2,391.6 269.2,391.6 269.2,399.6 261.2,399.6" fill="rgb(255,255,255)"/>
<polygon points="269.2,391.6 277.2,391.6 277.2,399.6 269.2,399.6" fill="rgb(255,255,255)"/>
<polygon points="277.2,391.6 285.2,391.6 285.2,399.6 277.2,399.6" fill="rgb(255,255,255)"/>
<polygon points="285.2,391.6 293.2,391.6 293.2,399.6 285.2,399.6" fill="rgb(255,255,255)"/>
<polygon points="129.2,399.6 137.2,399.6 137.2,407.6 129.2,407.6" fill="rgb(0,205,0)"/><text xml:space="preserve" x="133.2" y="406.433" font-family="Calibri" font-size="7.5" fill="rgb(255,255,255)" text-anchor="middle">1</text>
<polygon points="137.2,399.6 145.2,399.6 145.2,407.6 137.2,407.6" fill="rgb(0,205,0)"/><text xml:space="preserve" x="141.2" y="406.433" font-family="Calibri" font-size="7.5" fill="rgb(255,255,255)" text-anchor="middle">1</text>
<polygon points="145.2,399.6 153.2,399.6 153.2,407.6 145.2,407.6" fill="rgb(205,0,0)"/><text xml:space="preserve" x="149.2" y="406.433" font-family="Calibri" font-size="7.5" fill="rgb(255,255,255)" text-anchor="middle">4</text>
<polygon points="153.2,399.6 161.2,399.6 161.2,407.6 153.2,407.6" fill="rgb(0,205,0)"/><text xml:space="preserve" x="157.2" y="406.433" font-family="Calibri" font-size="7.5" fill="rgb(255,255,255)" text-anchor="middle">1</text>
<polygon points="161.2,399.6 169.2,399.6 169.2,407.6 161.2,407.6" fill="rgb(0,205,0)"/><text xml:space="preserve" x="165.2" y="406.433" font-family="Calibri" font-size="7.5" fill="rgb(255,255,255)" text-anchor="middle">1</text>
<polygon points="179.2,399.6 187.2,399.6 187.2,407.6 179.2,407.6" fill="rgb(10,69,137)"/>
<polygon points="187.2,399.6 195.2,399.6 195.2,407.6 187.2,407.6" fill="rgb(7,55,136)"/>
<polygon points="195.2,399.6 203.2,399.6 203.2,407.6 195.2,407.6" fill="rgb(43,197,144)"/>
<polygon points="203.2,399.6 211.2,399.6 211.2,407.6 203.2,407.6" fill="rgb(7,56,136)"/>
<polygon points="211.2,399.6 219.2,399.6 219.2,407.6 211.2,407.6" fill="rgb(4,46,136)"/>
<polygon points="229.2,399.6 237.2,399.6 237.2,407.6 229.2,407.6" fill="rgb(255,255,255)"/>
<polygon points="237.2,399.6 245.2,399.6 245.2,407.6 237.2,407.6" fill="rgb(255,255,255)"/>
<polygon points="245.2,399.6 253.2,399.6 253.2,407.6 245.2,407.6" fill="rgb(255,255,255)"/>
<polygon points="253.2,399.6 261.2,399.6 261.2,407.6 253.2,407.6" fill="rgb(255,255,255)"/>
<polygon points="261.2,399.6 269.2,399.6 269.2,407.6 261.2,407.6" fill="rgb(255,255,255)"/>
<polygon points="269.2,399.6 277.2,399.6 277.2,407.6 269.2,407.6" fill="rgb(255,255,255)"/>
<polygon points="277.2,399.6 285.2,399.6 285.2,407.6 277.2,407.6" fill="rgb(255,255,255)"/>
<polygon points="285.2,399.6 293.2,399.6 293.2,407.6 285.2,407.6" fill="rgb(255,255,255)"/>
<polygon points="129.2,407.6 137.2,407.6 137.2,415.6 129.2,415.6" fill="rgb(0,205,0)"/><text xml:space="preserve" x="133.2" y="414.433" font-family="Calibri" font-size="7.5" fill="rgb(255,255,255)" text-anchor="middle">1</text>
<polygon points="137.2,407.6 145.2,407.6 145.2,415.6 137.2,415.6" fill="rgb(0,205,0)"/><text xml:space="preserve" x="141.2" y="414.433" font-family="Calibri" font-size="7.5" fill="rgb(255,255,255)" text-anchor="middle">1</text>
<polygon points="145.2,407.6 153.2,407.6 153.2,415.6 145.2,415.6" fill="rgb(205,0,0)"/><text xml:space="preserve" x="149.2" y="414.433" font-family="Calibri" font-size="7.5" fill="rgb(255,255,255)" text-anchor="middle">4</text>
<polygon points="153.2,407.6 161.2,407.6 161.2,415.6 153.2,415.6" fill="rgb(0,205,0)"/><text xml:space="preserve" x="157.2" y="414.433" font-family="Calibri" font-size="7.5" fill="rgb(255,255,255)" text-anchor="middle">1</text>
<polygon points="161.2,407.6 169.2,407.6 169.2,415.6 161.2,415.6" fill="rgb(0,205,0)"/><text xml:space="preserve" x="165.2" y="414.433" font-family="Calibri" font-size="7.5" fill="rgb(255,255,255)" text-anchor="middle">1</text>
<polygon points="179.2,407.6 187.2,407.6 187.2,415.6 179.2,415.6" fill="rgb(3,39,135)"/>
<polygon points="187.2,407.6 195.2,407.6 195.2,415.6 187.2,415.6" fill="rgb(0,30,135)"/>
<polygon points="195.2,407.6 203.2,407.6 203.2,415.6 195.2,415.6" fill="rgb(42,192,144)"/>
<polygon points="203.2,407.6 211.2,407.6 211.2,415.6 203.2,415.6" fill="rgb(0,27,135)"/>
<polygon points="211.2,407.6 219.2,407.6 219.2,415.6 211.2,415.6" fill="rgb(0,27,135)"/>
<polygon points="229.2,407.6 237.2,407.6 237.2,415.6 229.2,415.6" fill="rgb(205,0,205)"/>
<polygon points="237.2,407.6 245.2,407.6 245.2,415.6 237.2,415.6" fill="rgb(255,255,255)"/>
<polygon points="245.2,407.6 253.2,407.6 253.2,415.6 245.2,415.6" fill="rgb(255,255,255)"/>
<polygon points="253.2,407.6 261.2,407.6 261.2,415.6 253.2,415.6" fill="rgb(255,255,255)"/>
<polygon points="261.2,407.6 269.2,407.6 269.2,415.6 261.2,415.6" fill="rgb(255,255,255)"/>
<polygon points="269.2,407.6 277.2,407.6 277.2,415.6 269.2,415.6" fill="rgb(255,255,255)"/>
<polygon points="277.2,407.6 285.2,407.6 285.2,415.6 277.2,415.6" fill="rgb(255,255,255)"/>
<polygon points="285.2,407.6 293.2,407.6 293.2,415.6 285.2,415.6" fill="rgb(255,255,255)"/>
<polygon points="129.2,415.6 137.2,415.6 137.2,423.6 129.2,423.6" fill="rgb(0,205,0)"/><text xml:space="preserve" x="133.2" y="422.433" font-family="Calibri" font-size="7.5" fill="rgb(255,255,255)" text-anchor="middle">1</text>
<polygon points="137.2,415.6 145.2,415.6 145.2,423.6 137.2,423.6" fill="rgb(0,205,0)"/><text xml:space="preserve" x="141.2" y="422.433" font-family="Calibri" font-size="7.5" fill="rgb(255,255,255)" text-anchor="middle">1</text>
<polygon points="145.2,415.6 153.2,415.6 153.2,423.6 145.2,423.6" fill="rgb(205,0,0)"/><text xml:space="preserve" x="149.2" y="422.433" font-family="Calibri" font-size="7.5" fill="rgb(255,255,255)" text-anchor="middle">4</text>
<polygon points="153.2,415.6 161.2,415.6 161.2,423.6 153.2,423.6" fill="rgb(0,205,0)"/><text xml:space="preserve" x="157.2" y="422.433" font-family="Calibri" font-size="7.5" fill="rgb(255,255,255)" text-anchor="middle">1</text>
<polygon points="161.2,415.6 169.2,415.6 169.2,423.6 161.2,423.6" fill="rgb(0,205,0)"/><text xml:space="preserve" x="165.2" y="422.433" font-family="Calibri" font-size="7.5" fill="rgb(255,255,255)" text-anchor="middle">1</text>
<polygon points="179.2,415.6 187.2,415.6 187.2,423.6 179.2,423.6" fill="rgb(2,37,135)"/>
<polygon points="187.2,415.6 195.2,415.6 195.2,423.6 187.2,423.6" fill="rgb(2,35,135)"/>
<polygon points="195.2,415.6 203.2,415.6 203.2,423.6 195.2,423.6" fill="rgb(48,216,145)"/>
<polygon points="203.2,415.6 211.2,415.6 211.2,423.6 203.2,423.6" fill="rgb(8,60,136)"/>
<polygon points="211.2,415.6 219.2,415.6 219.2,423.6 211.2,423.6" fill="rgb(16,89,138)"/>
<polygon points="229.2,415.6 237.2,415.6 237.2,423.6 229.2,423.6" fill="rgb(255,255,255)"/>
<polygon points="237.2,415.6 245.2,415.6 245.2,423.6 237.2,423.6" fill="rgb(255,255,255)"/>
<polygon points="245.2,415.6 253.2,415.6 253.2,423.6 245.2,423.6" fill="rgb(255,255,255)"/>
<polygon points="253.2,415.6 261.2,415.6 261.2,423.6 253.2,423.6" fill="rgb(255,255,255)"/>
<polygon points="261.2,415.6 269.2,415.6 269.2,423.6 261.2,423.6" fill="rgb(255,255,255)"/>
<polygon points="269.2,415.6 277.2,415.6 277.2,423.6 269.2,423.6" fill="rgb(255,255,255)"/>
<polygon points="277.2,415.6 285.2,415.6 285.2,423.6 277.2,423.6" fill="rgb(255,255,255)"/>
<polygon points="285.2,415.6 293.2,415.6 293.2,423.6 285.2,423.6" fill="rgb(255,255,255)"/>
<polygon points="129.2,335.6 169.2,335.6 169.2,423.6 129.2,423.6" fill="none" stroke="black" stroke-width="1"/>
<polygon points="179.2,335.6 219.2,335.6 219.2,423.6 179.2,423.6" fill="none" stroke="black" stroke-width="1"/>
<polygon points="229.2,335.6 293.2,335.6 293.2,423.6 229.2,423.6" fill="none" stroke="black" stroke-width="1"/>
<text xml:space="preserve" x="156.6" y="456.6" font-family="Calibri" font-size="8" text-anchor="middle">ClusterAssignment</text>
<polygon points="116.6,463.6 136.6,463.6 136.6,483.6 116.6,483.6" fill="rgb(0,205,0)"/><polygon points="116.6,463.6 136.6,463.6 136.6,483.6 116.6,483.6" fill="none" stroke="black" stroke-width="1"/><text xml:space="preserve" x="126.6" y="476.433" font-family="Calibri" font-size="7.5" fill="rgb(255,255,255)" text-anchor="middle">1.0</text>
<polygon points="136.6,463.6 156.6,463.6 156.6,483.6 136.6,483.6" fill="rgb(170,238,0)"/><polygon points="136.6,463.6 156.6,463.6 156.6,483.6 136.6,483.6" fill="none" stroke="black" stroke-width="1"/><text xml:space="preserve" x="146.6" y="476.433" font-family="Calibri" font-size="7.5" fill="rgb(0,0,0)" text-anchor="middle">2.0</text>
<polygon points="156.6,463.6 176.6,463.6 176.6,483.6 156.6,483.6" fill="rgb(238,170,0)"/><polygon points="156.6,463.6 176.6,463.6 176.6,483.6 156.6,483.6" fill="none" stroke="black" stroke-width="1"/><text xml:space="preserve" x="166.6" y="476.433" font-family="Calibri" font-size="7.5" fill="rgb(0,0,0)" text-anchor="middle">3.0</text>
<polygon points="176.6,463.6 196.6,463.6 196.6,483.6 176.6,483.6" fill="rgb(205,0,0)"/><polygon points="176.6,463.6 196.6,463.6 196.6,483.6 176.6,483.6" fill="none" stroke="black" stroke-width="1"/><text xml:space="preserve" x="186.6" y="476.433" font-family="Calibri" font-size="7.5" fill="rgb(255,255,255)" text-anchor="middle">4.0</text>
<text xml:space="preserve" x="156.6" y="516.6" font-family="Calibri" font-size="8" text-anchor="middle">Expression</text>
<polygon points="116.6,523.6 136.6,523.6 136.6,543.6 116.6,543.6" fill="rgb(0,27,135)"/><polygon points="116.6,523.6 136.6,523.6 136.6,543.6 116.6,543.6" fill="none" stroke="black" stroke-width="1"/><text xml:space="preserve" x="126.6" y="536.433" font-family="Calibri" font-size="7.5" fill="rgb(255,255,255)" text-anchor="middle">0.0</text>
<polygon points="136.6,523.6 156.6,523.6 156.6,543.6 136.6,543.6" fill="rgb(32,155,142)"/><polygon points="136.6,523.6 156.6,523.6 156.6,543.6 136.6,543.6" fill="none" stroke="black" stroke-width="1"/><text xml:space="preserve" x="146.6" y="536.433" font-family="Calibri" font-size="7.5" fill="rgb(255,255,255)" text-anchor="middle">1.0</text>
<polygon points="156.6,523.6 176.6,523.6 176.6,543.6 156.6,543.6" fill="rgb(116,210,97)"/><polygon points="156.6,523.6 176.6,523.6 176.6,543.6 156.6,543.6" fill="none" stroke="black" stroke-width="1"/><text xml:space="preserve" x="166.6" y="536.433" font-family="Calibri" font-size="7.5" fill="rgb(0,0,0)" text-anchor="middle">2.0</text>
<polygon points="176.6,523.6 196.6,523.6 196.6,543.6 176.6,543.6" fill="rgb(252,194,1)"/><polygon points="176.6,523.6 196.6,523.6 196.6,543.6 176.6,543.6" fill="none" stroke="black" stroke-width="1"/><text xml:space="preserve" x="186.6" y="536.433" font-family="Calibri" font-size="7.5" fill="rgb(0,0,0)" text-anchor="middle">3.0</text>
<text xml:space="preserve" x="156.6" y="576.6" font-family="Calibri" font-size="8" text-anchor="middle">PANTHERclass</text>
<polygon points="116.6,583.6 136.6,583.6 136.6,603.6 116.6,603.6" fill="rgb(255,255,255)"/><polygon points="116.6,583.6 136.6,583.6 136.6,603.6 116.6,603.6" fill="none" stroke="black" stroke-width="1"/><text xml:space="preserve" x="126.6" y="596.433" font-family="Calibri" font-size="7.5" fill="rgb(0,0,0)" text-anchor="middle">0.0</text>
<polygon points="136.6,583.6 156.6,583.6 156.6,603.6 136.6,603.6" fill="rgb(238,170,238)"/><polygon points="136.6,583.6 156.6,583.6 156.6,603.6 136.6,603.6" fill="none" stroke="black" stroke-width="1"/><text xml:space="preserve" x="146.6" y="596.433" font-family="Calibri" font-size="7.5" fill="rgb(0,0,0)" text-anchor="middle">0.3</text>
<polygon points="156.6,583.6 176.6,583.6 176.6,603.6 156.6,603.6" fill="rgb(221,84,221)"/><polygon points="156.6,583.6 176.6,583.6 176.6,603.6 156.6,603.6" fill="none" stroke="black" stroke-width="1"/><text xml:space="preserve" x="166.6" y="596.433" font-family="Calibri" font-size="7.5" fill="rgb(0,0,0)" text-anchor="middle">0.7</text>
<polygon points="176.6,583.6 196.6,583.6 196.6,603.6 176.6,603.6" fill="rgb(205,0,205)"/><polygon points="176.6,583.6 196.6,583.6 196.6,603.6 176.6,603.6" fill="none" stroke="black" stroke-width="1"/><text xml:space="preserve" x="186.6" y="596.433" font-family="Calibri" font-size="7.5" fill="rgb(255,255,255)" text-anchor="middle">1.0</text>
</svg>
