<?xml version="1.0" standalone="no"?><!DOCTYPE svg PUBLIC "-//W3C//DTD SVG 1.1//EN" "http://www.w3.org/Graphics/SVG/1.1/DTD/svg11.dtd">
<svg width="313.2" height="559.6" version="1.1" xmlns="http://www.w3.org/2000/svg">
<text xml:space="preserve" x="125.2" y="342.6" font-family="Calibri" font-size="8" text-anchor="end">AC007848.2</text>
<text xml:space="preserve" x="125.2" y="350.6" font-family="Calibri" font-size="8" text-anchor="end">ETV1</text>
<text xml:space="preserve" x="125.2" y="358.6" font-family="Calibri" font-size="8" text-anchor="end">CDH7</text>
<text xml:space="preserve" x="136.2" y="331.6" font-family="Calibri" font-size="8" transform="rotate(270 136.2 331.6)">c3</text>
<text xml:space="preserve" x="144.2" y="331.6" font-family="Calibri" font-size="8" transform="rotate(270 144.2 331.6)">c1</text>
<text xml:space="preserve" x="152.2" y="331.6" font-family="Calibri" font-size="8" transform="rotate(270 152.2 331.6)">c4</text>
<text xml:space="preserve" x="160.2" y="331.6" font-family="Calibri" font-size="8" transform="rotate(270 160.2 331.6)">c5</text>
<text xml:space="preserve" x="168.2" y="331.6" font-family="Calibri" font-size="8" transform="rotate(270 168.2 331.6)">c2</text>
<text xml:space="preserve" x="186.2" y="331.6" font-family="Calibri" font-size="8" transform="rotate(270 186.2 331.6)">c3_mean</text>
<text xml:space="preserve" x="194.2" y="331.6" font-family="Calibri" font-size="8" transform="rotate(270 194.2 331.6)">c1_mean</text>
<text xml:space="preserve" x="202.2" y="331.6" font-family="Calibri" font-size="8" transform="rotate(270 202.2 331.6)">c4_mean</text>
<text xml:space="preserve" x="210.2" y="331.6" font-family="Calibri" font-size="8" transform="rotate(270 210.2 331.6)">c5_mean</text>
<text xml:space="preserve" x="218.2" y="331.6" font-family="Calibri" font-size="8" transform="rotate(270 218.2 331.6)">c2_mean</text>
<text xml:space="preserve" x="236.2" y="331.6" font-family="Calibri" font-size="8" transform="rotate(270 236.2 331.6)">transcription_factor</text>
<text xml:space="preserve" x="244.2" y="331.6" font-family="Calibri" font-size="8" transform="rotate(270 244.2 331.6)">transmembrane_signal_receptor</text>
<text xml:space="preserve" x="252.2" y="331.6" font-family="Calibri" font-size="8" transform="rotate(270 252.2 331.6)">growth_factor</text>
<text xml:space="preserve" x="260.2" y="331.6" font-family="Calibri" font-size="8" transform="rotate(270 260.2 331.6)">peptide_hormone</text>
<text xml:space="preserve" x="268.2" y="331.6" font-family="Calibri" font-size="8" transform="rotate(270 268.2 331.6)">cytoskeletal_protein</text>
<text xml:space="preserve" x="276.2" y="331.6" font-family="Calibri" font-size="8" transform="rotate(270 276.2 331.6)">ion_channel</text>
<text xml:space="preserve" x="284.2" y="331.6" font-family="Calibri" font-size="8" transform="rotate(270 284.2 331.6)">integrin</text>
<text xml:space="preserve" x="292.2" y="331.6" font-family="Calibri" font-size="8" transform="rotate(270 292.2 331.6)">extracellular_matrix_protein</text>
<polygon points="129.2,335.6 137.2,335.6 137.2,343.6 129.2,343.6" fill="rgb(0,205,0)"/><text xml:space="preserve" x="133.2" y="342.433" font-family="Calibri" font-size="7.5" fill="rgb(255,255,255)" text-anchor="middle">1</text>
<polygon points="137.2,335.6 145.2,335.6 145.2,343.6 137.2,343.6" fill="rgb(0,205,0)"/><text xml:space="preserve" x="141.2" y="342.433" font-family="Calibri" font-size="7.5" fill="rgb(255,255,255)" text-anchor="middle">1</text>
<polygon points="145.2,335.6 153.2,335.6 153.2,343.6 145.2,343.6" fill="rgb(238,170,0)"/><text xml:space="preserve" x="149.2" y="342.433" font-family="Calibri" font-size="7.5" fill="rgb(0,0,0)" text-anchor="middle">3</text>
<polygon points="153.2,335.6 161.2,335.6 161.2,343.6 153.2,343.6" fill="rgb(238,170,0)"/><text xml:space="preserve" x="157.2" y="342.433" font-family="Calibri" font-size="7.5" fill="rgb(0,0,0)" text-anchor="middle">3</text>
<polygon points="161.2,335.6 169.2,335.6 169.2,343.6 161.2,343.6" fill="rgb(238,170,0)"/><text xml:space="preserve" x="165.2" y="342.433" font-family="Calibri" font-size="7.5" fill="rgb(0,0,0)" text-anchor="middle">3</text>
<polygon points="179.2,335.6 187.2,335.6 187.2,343.6 179.2,343.6" fill="rgb(8,59,136)"/>
<polygon points="187.2,335.6 195.2,335.6 195.2,343.6 187.2,343.6" fill="rgb(1,34,135)"/>
<polygon points="195.2,335.6 203.2,335.6 203.2,343.6 195.2,343.6" fill="rgb(30,147,141)"/>
<polygon points="203.2,335.6 211.2,335.6 211.2,343.6 203.2,343.6" fill="rgb(28,139,141)"/>
<polygon points="211.2,335.6 219.2,335.6 219.2,343.6 211.2,343.6" fill="rgb(31,151,142)"/>
<polygon points="229.2,335.6 237.2,335.6 237.2,343.6 229.2,343.6" fill="rgb(255,255,255)"/>
<polygon points="237.2,335.6 245.2,335.6 245.2,343.6 237.2,343.6" fill="rgb(255,255,255)"/>
<polygon points="245.2,335.6 253.2,335.6 253.2,343.6 245.2,343.6" fill="rgb(255,255,255)"/>
<polygon points="253.2,335.6 261.2,335.6 261.2,343.6 253.2,343.6" fill="rgb(255,255,255)"/>
<polygon points="261.2,335.6 269.2,335.6 269.2,343.6 261.2,343.6" fill="rgb(255,255,255)"/>
<polygon points="269.2,335.6 277.2,335.6 277.2,343.6 269.2,343.6" fill="rgb(255,255,255)"/>
<polygon points="277.2,335.6 285.2,335.6 285.2,343.6 277.2,343.6" fill="rgb(255,255,255)"/>
<polygon points="285.2,335.6 293.2,335.6 293.2,343.6 285.2,343.6" fill="rgb(255,255,255)"/>
<polygon points="129.2,343.6 137.2,343.6 137.2,351.6 129.2,351.6" fill="rgb(0,205,0)"/><text xml:space="preserve" x="133.2" y="350.433" font-family="Calibri" font-size="7.5" fill="rgb(255,255,255)" text-anchor="middle">1</text>
<polygon points="137.2,343.6 145.2,343.6 145.2,351.6 137.2,351.6" fill="rgb(0,205,0)"/><text xml:space="preserve" x="141.2" y="350.433" font-family="Calibri" font-size="7.5" fill="rgb(255,255,255)" text-anchor="middle">1</text>
<polygon points="145.2,343.6 153.2,343.6 153.2,351.6 145.2,351.6" fill="rgb(238,170,0)"/><text xml:space="preserve" x="149.2" y="350.433" font-family="Calibri" font-size="7.5" fill="rgb(0,0,0)" text-anchor="middle">3</text>
<polygon points="153.2,343.6 161.2,343.6 161.2,351.6 153.2,351.6" fill="rgb(238,170,0)"/><text xml:space="preserve" x="157.2" y="350.433" font-family="Calibri" font-size="7.5" fill="rgb(0,0,0)" text-anchor="middle">3</text>
<polygon points="161.2,343.6 169.2,343.6 169.2,351.6 161.2,351.6" fill="rgb(238,170,0)"/><text xml:space="preserve" x="165.2" y="350.433" font-family="Calibri" font-size="7.5" fill="rgb(0,0,0)" text-anchor="middle">3</text>
<polygon points="179.2,343.6 187.2,343.6 187.2,351.6 179.2,351.6" fill="rgb(5,47,136)"/>
<polygon points="187.2,343.6 195.2,343.6 195.2,351.6 187.2,351.6" fill="rgb(2,38,135)"/>
<polygon points="195.2,343.6 203.2,343.6 203.2,351.6 195.2,351.6" fill="rgb(22,114,139)"/>
<polygon points="203.2,343.6 211.2,343.6 211.2,351.6 203.2,351.6" fill="rgb(34,163,142)"/>
<polygon points="211.2,343.6 219.2,343.6 219.2,351.6 211.2,351.6" fill="rgb(14,82,138)"/>
<polygon points="229.2,343.6 237.2,343.6 237.2,351.6 229.2,351.6" fill="rgb(205,0,205)"/>
<polygon points="237.2,343.6 245.2,343.6 245.2,351.6 237.2,351.6" fill="rgb(255,255,255)"/>
<polygon points="245.2,343.6 253.2,343.6 253.2,351.6 245.2,351.6" fill="rgb(255,255,255)"/>
<polygon points="253.2,343.6 261.2,343.6 261.2,351.6 253.2,351.6" fill="rgb(255,255,255)"/>
<polygon points="261.2,343.6 269.2,343.6 269.2,351.6 261.2,351.6" fill="rgb(255,255,255)"/>
<polygon points="269.2,343.6 277.2,343.6 277.2,351.6 269.2,351.6" fill="rgb(255,255,255)"/>
<polygon points="277.2,343.6 285.2,343.6 285.2,351.6 277.2,351.6" fill="rgb(255,255,255)"/>
<polygon points="285.2,343.6 293.2,343.6 293.2,351.6 285.2,351.6" fill="rgb(255,255,255)"/>
<polygon points="129.2,351.6 137.2,351.6 137.2,359.6 129.2,359.6" fill="rgb(0,205,0)"/><text xml:space="preserve" x="133.2" y="358.433" font-family="Calibri" font-size="7.5" fill="rgb(255,255,255)" text-anchor="middle">1</text>
<polygon points="137.2,351.6 145.2,351.6 145.2,359.6 137.2,359.6" fill="rgb(0,205,0)"/><text xml:space="preserve" x="141.2" y="358.433" font-family="Calibri" font-size="7.5" fill="rgb(255,255,255)" text-anchor="middle">1</text>
<polygon points="145.2,351.6 153.2,351.6 153.2,359.6 145.2,359.6" fill="rgb(238,170,0)"/><text xml:space="preserve" x="149.2" y="358.433" font-family="Calibri" font-size="7.5" fill="rgb(0,0,0)" text-anchor="middle">3</text>
<polygon points="153.2,351.6 161.2,351.6 161.2,359.6 153.2,359.6" fill="rgb(238,170,0)"/><text xml:space="preserve" x="157.2" y="358.433" font-family="Calibri" font-size="7.5" fill="rgb(0,0,0)" text-anchor="middle">3</text>
<polygon points="161.2,351.6 169.2,351.6 169.2,359.6 161.2,359.6" fill="rgb(238,170,0)"/><text xml:space="preserve" x="165.2" y="358.433" font-family="Calibri" font-size="7.5" fill="rgb(0,0,0)" text-anchor="middle">3</text>
<polygon points="179.2,351.6 187.2,351.6 187.2,359.6 179.2,359.6" fill="rgb(2,38,135)"/>
<polygon points="187.2,351.6 195.2,351.6 195.2,359.6 187.2,359.6" fill="rgb(2,37,135)"/>
<polygon points="195.2,351.6 203.2,351.6 203.2,359.6 195.2,359.6" fill="rgb(26,130,140)"/>
<polygon points="203.2,351.6 211.2,351.6 211.2,359.6 203.2,359.6" fill="rgb(40,185,144)"/>
<polygon points="211.2,351.6 219.2,351.6 219.2,359.6 211.2,359.6" fill="rgb(17,94,138)"/>
<polygon points="229.2,351.6 237.2,351.6 237.2,359.6 229.2,359.6" fill="rgb(255,255,255)"/>
<polygon points="237.2,351.6 245.2,351.6 245.2,359.6 237.2,359.6" fill="rgb(255,255,255)"/>
<polygon points="245.2,351.6 253.2,351.6 253.2,359.6 245.2,359.6" fill="rgb(255,255,255)"/>
<polygon points="253.2,351.6 261.2,351.6 261.2,359.6 253.2,359.6" fill="rgb(255,255,255)"/>
<polygon points="261.2,351.6 269.2,351.6 269.2,359.6 261.2,359.6" fill="rgb(255,255,255)"/>
<polygon points="269.2,351.6 277.2,351.6 277.2,359.6 269.2,359.6" fill="rgb(255,255,255)"/>
<polygon points="277.2,351.6 285.2,351.6 285.2,359.6 277.2,359.6" fill="rgb(255,255,255)"/>
<polygon points="285.2,351.6 293.2,351.6 293.2,359.6 285.2,359.6" fill="rgb(255,255,255)"/>
<polygon points="129.2,335.6 169.2,335.6 169.2,359.6 129.2,359.6" fill="none" stroke="black" stroke-width="1"/>
<polygon points="179.2,335.6 219.2,335.6 219.2,359.6 179.2,359.6" fill="none" stroke="black" stroke-width="1"/>
<polygon points="229.2,335.6 293.2,335.6 293.2,359.6 229.2,359.6" fill="none" stroke="black" stroke-width="1"/>
<text xml:space="preserve" x="156.6" y="392.6" font-family="Calibri" font-size="8" text-anchor="middle">ClusterAssignment</text>
<polygon points="116.6,399.6 136.6,399.6 136.6,419.6 116.6,419.6" fill="rgb(0,205,0)"/><polygon points="116.6,399.6 136.6,399.6 136.6,419.6 116.6,419.6" fill="none" stroke="black" stroke-width="1"/><text xml:space="preserve" x="126.6" y="412.433" font-family="Calibri" font-size="7.5" fill="rgb(255,255,255)" text-anchor="middle">1.0</text>
<polygon points="136.6,399.6 156.6,399.6 156.6,419.6 136.6,419.6" fill="rgb(170,238,0)"/><polygon points="136.6,399.6 156.6,399.6 156.6,419.6 136.6,419.6" fill="none" stroke="black" stroke-width="1"/><text xml:space="preserve" x="146.6" y="412.433" font-family="Calibri" font-size="7.5" fill="rgb(0,0,0)" text-anchor="middle">2.0</text>
<polygon points="156.6,399.6 176.6,399.6 176.6,419.6 156.6,419.6" fill="rgb(238,170,0)"/><polygon points="156.6,399.6 176.6,399.6 176.6,419.6 156.6,419.6" fill="none" stroke="black" stroke-width="1"/><text xml:space="preserve" x="166.6" y="412.433" font-family="Calibri" font-size="7.5" fill="rgb(0,0,0)" text-anchor="middle">3.0</text>
<polygon points="176.6,399.6 196.6,399.6 196.6,419.6 176.6,419.6" fill="rgb(205,0,0)"/><polygon points="176.6,399.6 196.6,399.6 196.6,419.6 176.6,419.6" fill="none" stroke="black" stroke-width="1"/><text xml:space="preserve" x="186.6" y="412.433" font-family="Calibri" font-size="7.5" fill="rgb(255,255,255)" text-anchor="middle">4.0</text>
<text xml:space="preserve" x="156.6" y="452.6" font-family="Calibri" font-size="8" text-anchor="middle">Expression</text>
<polygon points="116.6,459.6 136.6,459.6 136.6,479.6 116.6,479.6" fill="rgb(0,27,135)"/><polygon points="116.6,459.6 136.6,459.6 136.6,479.6 116.6,479.6" fill="none" stroke="black" stroke-width="1"/><text xml:space="preserve" x="126.6" y="472.433" font-family="Calibri" font-size="7.5" fill="rgb(255,255,255)" text-anchor="middle">0.0</text>
<polygon points="136.6,459.6 156.6,459.6 156.6,479.6 136.6,479.6" fill="rgb(32,155,142)"/><polygon points="136.6,459.6 156.6,459.6 156.6,479.6 136.6,479.6" fill="none" stroke="black" stroke-width="1"/><text xml:space="preserve" x="146.6" y="472.433" font-family="Calibri" font-size="7.5" fill="rgb(255,255,255)" text-anchor="middle">1.0</text>
<polygon points="156.6,459.6 176.6,459.6 176.6,479.6 156.6,479.6" fill="rgb(116,210,97)"/><polygon points="156.6,459.6 176.6,459.6 176.6,479.6 156.6,479.6" fill="none" stroke="black" stroke-width="1"/><text xml:space="preserve" x="166.6" y="472.433" font-family="Calibri" font-size="7.5" fill="rgb(0,0,0)" text-anchor="middle">2.0</text>
<polygon points="176.6,459.6 196.6,459.6 196.6,479.6 176.6,479.6" fill="rgb(252,194,1)"/><polygon points="176.6,459.6 196.6,459.6 196.6,479.6 176.6,479.6" fill="none" stroke="black" stroke-width="1"/><text xml:space="preserve" x="186.6" y="472.433" font-family="Calibri" font-size="7.5" fill="rgb(0,0,0)" text-anchor="middle">3.0</text>
<text xml:space="preserve" x="156.6" y="512.6" font-family="Calibri" font-size="8" text-anchor="middle">PANTHERclass</text>
<polygon points="116.6,519.6 136.6,519.6 136.6,539.6 116.6,539.6" fill="rgb(255,255,255)"/><polygon points="116.6,519.6 136.6,519.6 136.6,539.6 116.6,539.6" fill="none" stroke="black" stroke-width="1"/><text xml:space="preserve" x="126.6" y="532.433" font-family="Calibri" font-size="7.5" fill="rgb(0,0,0)" text-anchor="middle">0.0</text>
<polygon points="136.6,519.6 156.6,519.6 156.6,539.6 136.6,539.6" fill="rgb(238,170,238)"/><polygon points="136.6,519.6 156.6,519.6 156.6,539.6 136.6,539.6" fill="none" stroke="black" stroke-width="1"/><text xml:space="preserve" x="146.6" y="532.433" font-family="Calibri" font-size="7.5" fill="rgb(0,0,0)" text-anchor="middle">0.3</text>
<polygon points="156.6,519.6 176.6,519.6 176.6,539.6 156.6,539.6" fill="rgb(221,84,221)"/><polygon points="156.6,519.6 176.6,519.6 176.6,539.6 156.6,539.6" fill="none" stroke="black" stroke-width="1"/><text xml:space="preserve" x="166.6" y="532.433" font-family="Calibri" font-size="7.5" fill="rgb(0,0,0)" text-anchor="middle">0.7</text>
<polygon points="176.6,519.6 196.6,519.6 196.6,539.6 176.6,539.6" fill="rgb(205,0,205)"/><polygon points="176.6,519.6 196.6,519.6 196.6,539.6 176.6,539.6" fill="none" stroke="black" stroke-width="1"/><text xml:space="preserve" x="186.6" y="532.433" font-family="Calibri" font-size="7.5" fill="rgb(255,255,255)" text-anchor="middle">1.0</text>
</svg>
