<?xml version="1.0" standalone="no"?><!DOCTYPE svg PUBLIC "-//W3C//DTD SVG 1.1//EN" "http://www.w3.org/Graphics/SVG/1.1/DTD/svg11.dtd">
<svg width="299.4" height="583.6" version="1.1" xmlns="http://www.w3.org/2000/svg">
<text xml:space="preserve" x="111.4" y="342.6" font-family="Calibri" font-size="8" text-anchor="end">FOXB1</text>
<text xml:space="preserve" x="111.4" y="350.6" font-family="Calibri" font-size="8" text-anchor="end">LINC01378</text>
<text xml:space="preserve" x="111.4" y="358.6" font-family="Calibri" font-size="8" text-anchor="end">RPL14</text>
<text xml:space="preserve" x="111.4" y="366.6" font-family="Calibri" font-size="8" text-anchor="end">PAX6</text>
<text xml:space="preserve" x="111.4" y="374.6" font-family="Calibri" font-size="8" text-anchor="end">PRR27</text>
<text xml:space="preserve" x="111.4" y="382.6" font-family="Calibri" font-size="8" text-anchor="end">GPC5-AS1</text>
<text xml:space="preserve" x="122.4" y="331.6" font-family="Calibri" font-size="8" transform="rotate(270 122.4 331.6)">c3</text>
<text xml:space="preserve" x="130.4" y="331.6" font-family="Calibri" font-size="8" transform="rotate(270 130.4 331.6)">c1</text>
<text xml:space="preserve" x="138.4" y="331.6" font-family="Calibri" font-size="8" transform="rotate(270 138.4 331.6)">c4</text>
<text xml:space="preserve" x="146.4" y="331.6" font-family="Calibri" font-size="8" transform="rotate(270 146.4 331.6)">c5</text>
<text xml:space="preserve" x="154.4" y="331.6" font-family="Calibri" font-size="8" transform="rotate(270 154.4 331.6)">c2</text>
<text xml:space="preserve" x="172.4" y="331.6" font-family="Calibri" font-size="8" transform="rotate(270 172.4 331.6)">c3_mean</text>
<text xml:space="preserve" x="180.4" y="331.6" font-family="Calibri" font-size="8" transform="rotate(270 180.4 331.6)">c1_mean</text>
<text xml:space="preserve" x="188.4" y="331.6" font-family="Calibri" font-size="8" transform="rotate(270 188.4 331.6)">c4_mean</text>
<text xml:space="preserve" x="196.4" y="331.6" font-family="Calibri" font-size="8" transform="rotate(270 196.4 331.6)">c5_mean</text>
<text xml:space="preserve" x="204.4" y="331.6" font-family="Calibri" font-size="8" transform="rotate(270 204.4 331.6)">c2_mean</text>
<text xml:space="preserve" x="222.4" y="331.6" font-family="Calibri" font-size="8" transform="rotate(270 222.4 331.6)">transcription_factor</text>
<text xml:space="preserve" x="230.4" y="331.6" font-family="Calibri" font-size="8" transform="rotate(270 230.4 331.6)">transmembrane_signal_receptor</text>
<text xml:space="preserve" x="238.4" y="331.6" font-family="Calibri" font-size="8" transform="rotate(270 238.4 331.6)">growth_factor</text>
<text xml:space="preserve" x="246.4" y="331.6" font-family="Calibri" font-size="8" transform="rotate(270 246.4 331.6)">peptide_hormone</text>
<text xml:space="preserve" x="254.4" y="331.6" font-family="Calibri" font-size="8" transform="rotate(270 254.4 331.6)">cytoskeletal_protein</text>
<text xml:space="preserve" x="262.4" y="331.6" font-family="Calibri" font-size="8" transform="rotate(270 262.4 331.6)">ion_channel</text>
<text xml:space="preserve" x="270.4" y="331.6" font-family="Calibri" font-size="8" transform="rotate(270 270.4 331.6)">integrin</text>
<text xml:space="preserve" x="278.4" y="331.6" font-family="Calibri" font-size="8" transform="rotate(270 278.4 331.6)">extracellular_matrix_protein</text>
<polygon points="115.4,335.6 123.4,335.6 123.4,343.6 115.4,343.6" fill="rgb(0,205,0)"/><text xml:space="preserve" x="119.4" y="342.433" font-family="Calibri" font-size="7.5" fill="rgb(255,255,255)" text-anchor="middle">1</text>
<polygon points="123.4,335.6 131.4,335.6 131.4,343.6 123.4,343.6" fill="rgb(0,205,0)"/><text xml:space="preserve" x="127.4" y="342.433" font-family="Calibri" font-size="7.5" fill="rgb(255,255,255)" text-anchor="middle">1</text>
<polygon points="131.4,335.6 139.4,335.6 139.4,343.6 131.4,343.6" fill="rgb(0,205,0)"/><text xml:space="preserve" x="135.4" y="342.433" font-family="Calibri" font-size="7.5" fill="rgb(255,255,255)" text-anchor="middle">1</text>
<polygon points="139.4,335.6 147.4,335.6 147.4,343.6 139.4,343.6" fill="rgb(238,170,0)"/><text xml:space="preserve" x="143.4" y="342.433" font-family="Calibri" font-size="7.5" fill="rgb(0,0,0)" text-anchor="middle">3</text>
<polygon points="147.4,335.6 155.4,335.6 155.4,343.6 147.4,343.6" fill="rgb(0,205,0)"/><text xml:space="preserve" x="151.4" y="342.433" font-family="Calibri" font-size="7.5" fill="rgb(255,255,255)" text-anchor="middle">1</text>
<polygon points="165.4,335.6 173.4,335.6 173.4,343.6 165.4,343.6" fill="rgb(0,27,135)"/>
<polygon points="173.4,335.6 181.4,335.6 181.4,343.6 173.4,343.6" fill="rgb(0,27,135)"/>
<polygon points="181.4,335.6 189.4,335.6 189.4,343.6 181.4,343.6" fill="rgb(0,27,135)"/>
<polygon points="189.4,335.6 197.4,335.6 197.4,343.6 189.4,343.6" fill="rgb(35,166,142)"/>
<polygon points="197.4,335.6 205.4,335.6 205.4,343.6 197.4,343.6" fill="rgb(6,52,136)"/>
<polygon points="215.4,335.6 223.4,335.6 223.4,343.6 215.4,343.6" fill="rgb(205,0,205)"/>
<polygon points="223.4,335.6 231.4,335.6 231.4,343.6 223.4,343.6" fill="rgb(255,255,255)"/>
<polygon points="231.4,335.6 239.4,335.6 239.4,343.6 231.4,343.6" fill="rgb(255,255,255)"/>
<polygon points="239.4,335.6 247.4,335.6 247.4,343.6 239.4,343.6" fill="rgb(255,255,255)"/>
<polygon points="247.4,335.6 255.4,335.6 255.4,343.6 247.4,343.6" fill="rgb(255,255,255)"/>
<polygon points="255.4,335.6 263.4,335.6 263.4,343.6 255.4,343.6" fill="rgb(255,255,255)"/>
<polygon points="263.4,335.6 271.4,335.6 271.4,343.6 263.4,343.6" fill="rgb(255,255,255)"/>
<polygon points="271.4,335.6 279.4,335.6 279.4,343.6 271.4,343.6" fill="rgb(255,255,255)"/>
<polygon points="115.4,343.6 123.4,343.6 123.4,351.6 115.4,351.6" fill="rgb(0,205,0)"/><text xml:space="preserve" x="119.4" y="350.433" font-family="Calibri" font-size="7.5" fill="rgb(255,255,255)" text-anchor="middle">1</text>
<polygon points="123.4,343.6 131.4,343.6 131.4,351.6 123.4,351.6" fill="rgb(0,205,0)"/><text xml:space="preserve" x="127.4" y="350.433" font-family="Calibri" font-size="7.5" fill="rgb(255,255,255)" text-anchor="middle">1</text>
<polygon points="131.4,343.6 139.4,343.6 139.4,351.6 131.4,351.6" fill="rgb(0,205,0)"/><text xml:space="preserve" x="135.4" y="350.433" font-family="Calibri" font-size="7.5" fill="rgb(255,255,255)" text-anchor="middle">1</text>
<polygon points="139.4,343.6 147.4,343.6 147.4,351.6 139.4,351.6" fill="rgb(238,170,0)"/><text xml:space="preserve" x="143.4" y="350.433" font-family="Calibri" font-size="7.5" fill="rgb(0,0,0)" text-anchor="middle">3</text>
<polygon points="147.4,343.6 155.4,343.6 155.4,351.6 147.4,351.6" fill="rgb(0,205,0)"/><text xml:space="preserve" x="151.4" y="350.433" font-family="Calibri" font-size="7.5" fill="rgb(255,255,255)" text-anchor="middle">1</text>
<polygon points="165.4,343.6 173.4,343.6 173.4,351.6 165.4,351.6" fill="rgb(0,27,135)"/>
<polygon points="173.4,343.6 181.4,343.6 181.4,351.6 173.4,351.6" fill="rgb(0,27,135)"/>
<polygon points="181.4,343.6 189.4,343.6 189.4,351.6 181.4,351.6" fill="rgb(0,27,135)"/>
<polygon points="189.4,343.6 197.4,343.6 197.4,351.6 189.4,351.6" fill="rgb(29,140,141)"/>
<polygon points="197.4,343.6 205.4,343.6 205.4,351.6 197.4,351.6" fill="rgb(0,27,135)"/>
<polygon points="215.4,343.6 223.4,343.6 223.4,351.6 215.4,351.6" fill="rgb(255,255,255)"/>
<polygon points="223.4,343.6 231.4,343.6 231.4,351.6 223.4,351.6" fill="rgb(255,255,255)"/>
<polygon points="231.4,343.6 239.4,343.6 239.4,351.6 231.4,351.6" fill="rgb(255,255,255)"/>
<polygon points="239.4,343.6 247.4,343.6 247.4,351.6 239.4,351.6" fill="rgb(255,255,255)"/>
<polygon points="247.4,343.6 255.4,343.6 255.4,351.6 247.4,351.6" fill="rgb(255,255,255)"/>
<polygon points="255.4,343.6 263.4,343.6 263.4,351.6 255.4,351.6" fill="rgb(255,255,255)"/>
<polygon points="263.4,343.6 271.4,343.6 271.4,351.6 263.4,351.6" fill="rgb(255,255,255)"/>
<polygon points="271.4,343.6 279.4,343.6 279.4,351.6 271.4,351.6" fill="rgb(255,255,255)"/>
<polygon points="115.4,351.6 123.4,351.6 123.4,359.6 115.4,359.6" fill="rgb(0,205,0)"/><text xml:space="preserve" x="119.4" y="358.433" font-family="Calibri" font-size="7.5" fill="rgb(255,255,255)" text-anchor="middle">1</text>
<polygon points="123.4,351.6 131.4,351.6 131.4,359.6 123.4,359.6" fill="rgb(0,205,0)"/><text xml:space="preserve" x="127.4" y="358.433" font-family="Calibri" font-size="7.5" fill="rgb(255,255,255)" text-anchor="middle">1</text>
<polygon points="131.4,351.6 139.4,351.6 139.4,359.6 131.4,359.6" fill="rgb(0,205,0)"/><text xml:space="preserve" x="135.4" y="358.433" font-family="Calibri" font-size="7.5" fill="rgb(255,255,255)" text-anchor="middle">1</text>
<polygon points="139.4,351.6 147.4,351.6 147.4,359.6 139.4,359.6" fill="rgb(238,170,0)"/><text xml:space="preserve" x="143.4" y="358.433" font-family="Calibri" font-size="7.5" fill="rgb(0,0,0)" text-anchor="middle">3</text>
<polygon points="147.4,351.6 155.4,351.6 155.4,359.6 147.4,359.6" fill="rgb(0,205,0)"/><text xml:space="preserve" x="151.4" y="358.433" font-family="Calibri" font-size="7.5" fill="rgb(255,255,255)" text-anchor="middle">1</text>
<polygon points="165.4,351.6 173.4,351.6 173.4,359.6 165.4,359.6" fill="rgb(9,62,137)"/>
<polygon points="173.4,351.6 181.4,351.6 181.4,359.6 173.4,359.6" fill="rgb(8,60,136)"/>
<polygon points="181.4,351.6 189.4,351.6 189.4,359.6 181.4,359.6" fill="rgb(11,70,137)"/>
<polygon points="189.4,351.6 197.4,351.6 197.4,359.6 189.4,359.6" fill="rgb(55,218,141)"/>
<polygon points="197.4,351.6 205.4,351.6 205.4,359.6 197.4,359.6" fill="rgb(9,62,137)"/>
<polygon points="215.4,351.6 223.4,351.6 223.4,359.6 215.4,359.6" fill="rgb(255,255,255)"/>
<polygon points="223.4,351.6 231.4,351.6 231.4,359.6 223.4,359.6" fill="rgb(255,255,255)"/>
<polygon points="231.4,351.6 239.4,351.6 239.4,359.6 231.4,359.6" fill="rgb(255,255,255)"/>
<polygon points="239.4,351.6 247.4,351.6 247.4,359.6 239.4,359.6" fill="rgb(255,255,255)"/>
<polygon points="247.4,351.6 255.4,351.6 255.4,359.6 247.4,359.6" fill="rgb(255,255,255)"/>
<polygon points="255.4,351.6 263.4,351.6 263.4,359.6 255.4,359.6" fill="rgb(255,255,255)"/>
<polygon points="263.4,351.6 271.4,351.6 271.4,359.6 263.4,359.6" fill="rgb(255,255,255)"/>
<polygon points="271.4,351.6 279.4,351.6 279.4,359.6 271.4,359.6" fill="rgb(255,255,255)"/>
<polygon points="115.4,359.6 123.4,359.6 123.4,367.6 115.4,367.6" fill="rgb(0,205,0)"/><text xml:space="preserve" x="119.4" y="366.433" font-family="Calibri" font-size="7.5" fill="rgb(255,255,255)" text-anchor="middle">1</text>
<polygon points="123.4,359.6 131.4,359.6 131.4,367.6 123.4,367.6" fill="rgb(0,205,0)"/><text xml:space="preserve" x="127.4" y="366.433" font-family="Calibri" font-size="7.5" fill="rgb(255,255,255)" text-anchor="middle">1</text>
<polygon points="131.4,359.6 139.4,359.6 139.4,367.6 131.4,367.6" fill="rgb(0,205,0)"/><text xml:space="preserve" x="135.4" y="366.433" font-family="Calibri" font-size="7.5" fill="rgb(255,255,255)" text-anchor="middle">1</text>
<polygon points="139.4,359.6 147.4,359.6 147.4,367.6 139.4,367.6" fill="rgb(238,170,0)"/><text xml:space="preserve" x="143.4" y="366.433" font-family="Calibri" font-size="7.5" fill="rgb(0,0,0)" text-anchor="middle">3</text>
<polygon points="147.4,359.6 155.4,359.6 155.4,367.6 147.4,367.6" fill="rgb(0,205,0)"/><text xml:space="preserve" x="151.4" y="366.433" font-family="Calibri" font-size="7.5" fill="rgb(255,255,255)" text-anchor="middle">1</text>
<polygon points="165.4,359.6 173.4,359.6 173.4,367.6 165.4,367.6" fill="rgb(1,32,135)"/>
<polygon points="173.4,359.6 181.4,359.6 181.4,367.6 173.4,367.6" fill="rgb(0,28,135)"/>
<polygon points="181.4,359.6 189.4,359.6 189.4,367.6 181.4,367.6" fill="rgb(1,32,135)"/>
<polygon points="189.4,359.6 197.4,359.6 197.4,367.6 189.4,367.6" fill="rgb(42,193,144)"/>
<polygon points="197.4,359.6 205.4,359.6 205.4,367.6 197.4,367.6" fill="rgb(7,55,136)"/>
<polygon points="215.4,359.6 223.4,359.6 223.4,367.6 215.4,367.6" fill="rgb(205,0,205)"/>
<polygon points="223.4,359.6 231.4,359.6 231.4,367.6 223.4,367.6" fill="rgb(255,255,255)"/>
<polygon points="231.4,359.6 239.4,359.6 239.4,367.6 231.4,367.6" fill="rgb(255,255,255)"/>
<polygon points="239.4,359.6 247.4,359.6 247.4,367.6 239.4,367.6" fill="rgb(255,255,255)"/>
<polygon points="247.4,359.6 255.4,359.6 255.4,367.6 247.4,367.6" fill="rgb(255,255,255)"/>
<polygon points="255.4,359.6 263.4,359.6 263.4,367.6 255.4,367.6" fill="rgb(255,255,255)"/>
<polygon points="263.4,359.6 271.4,359.6 271.4,367.6 263.4,367.6" fill="rgb(255,255,255)"/>
<polygon points="271.4,359.6 279.4,359.6 279.4,367.6 271.4,367.6" fill="rgb(255,255,255)"/>
<polygon points="115.4,367.6 123.4,367.6 123.4,375.6 115.4,375.6" fill="rgb(0,205,0)"/><text xml:space="preserve" x="119.4" y="374.433" font-family="Calibri" font-size="7.5" fill="rgb(255,255,255)" text-anchor="middle">1</text>
<polygon points="123.4,367.6 131.4,367.6 131.4,375.6 123.4,375.6" fill="rgb(0,205,0)"/><text xml:space="preserve" x="127.4" y="374.433" font-family="Calibri" font-size="7.5" fill="rgb(255,255,255)" text-anchor="middle">1</text>
<polygon points="131.4,367.6 139.4,367.6 139.4,375.6 131.4,375.6" fill="rgb(0,205,0)"/><text xml:space="preserve" x="135.4" y="374.433" font-family="Calibri" font-size="7.5" fill="rgb(255,255,255)" text-anchor="middle">1</text>
<polygon points="139.4,367.6 147.4,367.6 147.4,375.6 139.4,375.6" fill="rgb(238,170,0)"/><text xml:space="preserve" x="143.4" y="374.433" font-family="Calibri" font-size="7.5" fill="rgb(0,0,0)" text-anchor="middle">3</text>
<polygon points="147.4,367.6 155.4,367.6 155.4,375.6 147.4,375.6" fill="rgb(0,205,0)"/><text xml:space="preserve" x="151.4" y="374.433" font-family="Calibri" font-size="7.5" fill="rgb(255,255,255)" text-anchor="middle">1</text>
<polygon points="165.4,367.6 173.4,367.6 173.4,375.6 165.4,375.6" fill="rgb(10,69,137)"/>
<polygon points="173.4,367.6 181.4,367.6 181.4,375.6 173.4,375.6" fill="rgb(0,27,135)"/>
<polygon points="181.4,367.6 189.4,367.6 189.4,375.6 181.4,375.6" fill="rgb(0,27,135)"/>
<polygon points="189.4,367.6 197.4,367.6 197.4,375.6 189.4,375.6" fill="rgb(36,171,143)"/>
<polygon points="197.4,367.6 205.4,367.6 205.4,375.6 197.4,375.6" fill="rgb(8,59,136)"/>
<polygon points="215.4,367.6 223.4,367.6 223.4,375.6 215.4,375.6" fill="rgb(255,255,255)"/>
<polygon points="223.4,367.6 231.4,367.6 231.4,375.6 223.4,375.6" fill="rgb(255,255,255)"/>
<polygon points="231.4,367.6 239.4,367.6 239.4,375.6 231.4,375.6" fill="rgb(255,255,255)"/>
<polygon points="239.4,367.6 247.4,367.6 247.4,375.6 239.4,375.6" fill="rgb(255,255,255)"/>
<polygon points="247.4,367.6 255.4,367.6 255.4,375.6 247.4,375.6" fill="rgb(255,255,255)"/>
<polygon points="255.4,367.6 263.4,367.6 263.4,375.6 255.4,375.6" fill="rgb(255,255,255)"/>
<polygon points="263.4,367.6 271.4,367.6 271.4,375.6 263.4,375.6" fill="rgb(255,255,255)"/>
<polygon points="271.4,367.6 279.4,367.6 279.4,375.6 271.4,375.6" fill="rgb(255,255,255)"/>
<polygon points="115.4,375.6 123.4,375.6 123.4,383.6 115.4,383.6" fill="rgb(0,205,0)"/><text xml:space="preserve" x="119.4" y="382.433" font-family="Calibri" font-size="7.5" fill="rgb(255,255,255)" text-anchor="middle">1</text>
<polygon points="123.4,375.6 131.4,375.6 131.4,383.6 123.4,383.6" fill="rgb(0,205,0)"/><text xml:space="preserve" x="127.4" y="382.433" font-family="Calibri" font-size="7.5" fill="rgb(255,255,255)" text-anchor="middle">1</text>
<polygon points="131.4,375.6 139.4,375.6 139.4,383.6 131.4,383.6" fill="rgb(0,205,0)"/><text xml:space="preserve" x="135.4" y="382.433" font-family="Calibri" font-size="7.5" fill="rgb(255,255,255)" text-anchor="middle">1</text>
<polygon points="139.4,375.6 147.4,375.6 147.4,383.6 139.4,383.6" fill="rgb(238,170,0)"/><text xml:space="preserve" x="143.4" y="382.433" font-family="Calibri" font-size="7.5" fill="rgb(0,0,0)" text-anchor="middle">3</text>
<polygon points="147.4,375.6 155.4,375.6 155.4,383.6 147.4,383.6" fill="rgb(0,205,0)"/><text xml:space="preserve" x="151.4" y="382.433" font-family="Calibri" font-size="7.5" fill="rgb(255,255,255)" text-anchor="middle">1</text>
<polygon points="165.4,375.6 173.4,375.6 173.4,383.6 165.4,383.6" fill="rgb(0,27,135)"/>
<polygon points="173.4,375.6 181.4,375.6 181.4,383.6 173.4,383.6" fill="rgb(0,27,135)"/>
<polygon points="181.4,375.6 189.4,375.6 189.4,383.6 181.4,383.6" fill="rgb(0,27,135)"/>
<polygon points="189.4,375.6 197.4,375.6 197.4,383.6 189.4,383.6" fill="rgb(28,138,141)"/>
<polygon points="197.4,375.6 205.4,375.6 205.4,383.6 197.4,383.6" fill="rgb(10,69,137)"/>
<polygon points="215.4,375.6 223.4,375.6 223.4,383.6 215.4,383.6" fill="rgb(255,255,255)"/>
<polygon points="223.4,375.6 231.4,375.6 231.4,383.6 223.4,383.6" fill="rgb(255,255,255)"/>
<polygon points="231.4,375.6 239.4,375.6 239.4,383.6 231.4,383.6" fill="rgb(255,255,255)"/>
<polygon points="239.4,375.6 247.4,375.6 247.4,383.6 239.4,383.6" fill="rgb(255,255,255)"/>
<polygon points="247.4,375.6 255.4,375.6 255.4,383.6 247.4,383.6" fill="rgb(255,255,255)"/>
<polygon points="255.4,375.6 263.4,375.6 263.4,383.6 255.4,383.6" fill="rgb(255,255,255)"/>
<polygon points="263.4,375.6 271.4,375.6 271.4,383.6 263.4,383.6" fill="rgb(255,255,255)"/>
<polygon points="271.4,375.6 279.4,375.6 279.4,383.6 271.4,383.6" fill="rgb(255,255,255)"/>
<polygon points="115.4,335.6 155.4,335.6 155.4,383.6 115.4,383.6" fill="none" stroke="black" stroke-width="1"/>
<polygon points="165.4,335.6 205.4,335.6 205.4,383.6 165.4,383.6" fill="none" stroke="black" stroke-width="1"/>
<polygon points="215.4,335.6 279.4,335.6 279.4,383.6 215.4,383.6" fill="none" stroke="black" stroke-width="1"/>
<text xml:space="preserve" x="149.7" y="416.6" font-family="Calibri" font-size="8" text-anchor="middle">ClusterAssignment</text>
<polygon points="109.7,423.6 129.7,423.6 129.7,443.6 109.7,443.6" fill="rgb(0,205,0)"/><polygon points="109.7,423.6 129.7,423.6 129.7,443.6 109.7,443.6" fill="none" stroke="black" stroke-width="1"/><text xml:space="preserve" x="119.7" y="436.433" font-family="Calibri" font-size="7.5" fill="rgb(255,255,255)" text-anchor="middle">1.0</text>
<polygon points="129.7,423.6 149.7,423.6 149.7,443.6 129.7,443.6" fill="rgb(170,238,0)"/><polygon points="129.7,423.6 149.7,423.6 149.7,443.6 129.7,443.6" fill="none" stroke="black" stroke-width="1"/><text xml:space="preserve" x="139.7" y="436.433" font-family="Calibri" font-size="7.5" fill="rgb(0,0,0)" text-anchor="middle">2.0</text>
<polygon points="149.7,423.6 169.7,423.6 169.7,443.6 149.7,443.6" fill="rgb(238,170,0)"/><polygon points="149.7,423.6 169.7,423.6 169.7,443.6 149.7,443.6" fill="none" stroke="black" stroke-width="1"/><text xml:space="preserve" x="159.7" y="436.433" font-family="Calibri" font-size="7.5" fill="rgb(0,0,0)" text-anchor="middle">3.0</text>
<polygon points="169.7,423.6 189.7,423.6 189.7,443.6 169.7,443.6" fill="rgb(205,0,0)"/><polygon points="169.7,423.6 189.7,423.6 189.7,443.6 169.7,443.6" fill="none" stroke="black" stroke-width="1"/><text xml:space="preserve" x="179.7" y="436.433" font-family="Calibri" font-size="7.5" fill="rgb(255,255,255)" text-anchor="middle">4.0</text>
<text xml:space="preserve" x="149.7" y="476.6" font-family="Calibri" font-size="8" text-anchor="middle">Expression</text>
<polygon points="109.7,483.6 129.7,483.6 129.7,503.6 109.7,503.6" fill="rgb(0,27,135)"/><polygon points="109.7,483.6 129.7,483.6 129.7,503.6 109.7,503.6" fill="none" stroke="black" stroke-width="1"/><text xml:space="preserve" x="119.7" y="496.433" font-family="Calibri" font-size="7.5" fill="rgb(255,255,255)" text-anchor="middle">0.0</text>
<polygon points="129.7,483.6 149.7,483.6 149.7,503.6 129.7,503.6" fill="rgb(32,155,142)"/><polygon points="129.7,483.6 149.7,483.6 149.7,503.6 129.7,503.6" fill="none" stroke="black" stroke-width="1"/><text xml:space="preserve" x="139.7" y="496.433" font-family="Calibri" font-size="7.5" fill="rgb(255,255,255)" text-anchor="middle">1.0</text>
<polygon points="149.7,483.6 169.7,483.6 169.7,503.6 149.7,503.6" fill="rgb(116,210,97)"/><polygon points="149.7,483.6 169.7,483.6 169.7,503.6 149.7,503.6" fill="none" stroke="black" stroke-width="1"/><text xml:space="preserve" x="159.7" y="496.433" font-family="Calibri" font-size="7.5" fill="rgb(0,0,0)" text-anchor="middle">2.0</text>
<polygon points="169.7,483.6 189.7,483.6 189.7,503.6 169.7,503.6" fill="rgb(252,194,1)"/><polygon points="169.7,483.6 189.7,483.6 189.7,503.6 169.7,503.6" fill="none" stroke="black" stroke-width="1"/><text xml:space="preserve" x="179.7" y="496.433" font-family="Calibri" font-size="7.5" fill="rgb(0,0,0)" text-anchor="middle">3.0</text>
<text xml:space="preserve" x="149.7" y="536.6" font-family="Calibri" font-size="8" text-anchor="middle">PANTHERclass</text>
<polygon points="109.7,543.6 129.7,543.6 129.7,563.6 109.7,563.6" fill="rgb(255,255,255)"/><polygon points="109.7,543.6 129.7,543.6 129.7,563.6 109.7,563.6" fill="none" stroke="black" stroke-width="1"/><text xml:space="preserve" x="119.7" y="556.433" font-family="Calibri" font-size="7.5" fill="rgb(0,0,0)" text-anchor="middle">0.0</text>
<polygon points="129.7,543.6 149.7,543.6 149.7,563.6 129.7,563.6" fill="rgb(238,170,238)"/><polygon points="129.7,543.6 149.7,543.6 149.7,563.6 129.7,563.6" fill="none" stroke="black" stroke-width="1"/><text xml:space="preserve" x="139.7" y="556.433" font-family="Calibri" font-size="7.5" fill="rgb(0,0,0)" text-anchor="middle">0.3</text>
<polygon points="149.7,543.6 169.7,543.6 169.7,563.6 149.7,563.6" fill="rgb(221,84,221)"/><polygon points="149.7,543.6 169.7,543.6 169.7,563.6 149.7,563.6" fill="none" stroke="black" stroke-width="1"/><text xml:space="preserve" x="159.7" y="556.433" font-family="Calibri" font-size="7.5" fill="rgb(0,0,0)" text-anchor="middle">0.7</text>
<polygon points="169.7,543.6 189.7,543.6 189.7,563.6 169.7,563.6" fill="rgb(205,0,205)"/><polygon points="169.7,543.6 189.7,543.6 189.7,563.6 169.7,563.6" fill="none" stroke="black" stroke-width="1"/><text xml:space="preserve" x="179.7" y="556.433" font-family="Calibri" font-size="7.5" fill="rgb(255,255,255)" text-anchor="middle">1.0</text>
</svg>
