<?xml version="1.0" standalone="no"?><!DOCTYPE svg PUBLIC "-//W3C//DTD SVG 1.1//EN" "http://www.w3.org/Graphics/SVG/1.1/DTD/svg11.dtd">
<svg width="311.4" height="639.6" version="1.1" xmlns="http://www.w3.org/2000/svg">
<text xml:space="preserve" x="123.4" y="342.6" font-family="Calibri" font-size="8" text-anchor="end">AC027243.2</text>
<text xml:space="preserve" x="123.4" y="350.6" font-family="Calibri" font-size="8" text-anchor="end">RDH10</text>
<text xml:space="preserve" x="123.4" y="358.6" font-family="Calibri" font-size="8" text-anchor="end">MIR4500HG</text>
<text xml:space="preserve" x="123.4" y="366.6" font-family="Calibri" font-size="8" text-anchor="end">LRP1B</text>
<text xml:space="preserve" x="123.4" y="374.6" font-family="Calibri" font-size="8" text-anchor="end">CPNE8</text>
<text xml:space="preserve" x="123.4" y="382.6" font-family="Calibri" font-size="8" text-anchor="end">KCNIP4</text>
<text xml:space="preserve" x="123.4" y="390.6" font-family="Calibri" font-size="8" text-anchor="end">TRMT9B</text>
<text xml:space="preserve" x="123.4" y="398.6" font-family="Calibri" font-size="8" text-anchor="end">RXRG</text>
<text xml:space="preserve" x="123.4" y="406.6" font-family="Calibri" font-size="8" text-anchor="end">NHSL2</text>
<text xml:space="preserve" x="123.4" y="414.6" font-family="Calibri" font-size="8" text-anchor="end">RFX6</text>
<text xml:space="preserve" x="123.4" y="422.6" font-family="Calibri" font-size="8" text-anchor="end">CPNE4</text>
<text xml:space="preserve" x="123.4" y="430.6" font-family="Calibri" font-size="8" text-anchor="end">SEL1L3</text>
<text xml:space="preserve" x="123.4" y="438.6" font-family="Calibri" font-size="8" text-anchor="end">FGD5</text>
<text xml:space="preserve" x="134.4" y="331.6" font-family="Calibri" font-size="8" transform="rotate(270 134.4 331.6)">c3</text>
<text xml:space="preserve" x="142.4" y="331.6" font-family="Calibri" font-size="8" transform="rotate(270 142.4 331.6)">c1</text>
<text xml:space="preserve" x="150.4" y="331.6" font-family="Calibri" font-size="8" transform="rotate(270 150.4 331.6)">c4</text>
<text xml:space="preserve" x="158.4" y="331.6" font-family="Calibri" font-size="8" transform="rotate(270 158.4 331.6)">c5</text>
<text xml:space="preserve" x="166.4" y="331.6" font-family="Calibri" font-size="8" transform="rotate(270 166.4 331.6)">c2</text>
<text xml:space="preserve" x="184.4" y="331.6" font-family="Calibri" font-size="8" transform="rotate(270 184.4 331.6)">c3_mean</text>
<text xml:space="preserve" x="192.4" y="331.6" font-family="Calibri" font-size="8" transform="rotate(270 192.4 331.6)">c1_mean</text>
<text xml:space="preserve" x="200.4" y="331.6" font-family="Calibri" font-size="8" transform="rotate(270 200.4 331.6)">c4_mean</text>
<text xml:space="preserve" x="208.4" y="331.6" font-family="Calibri" font-size="8" transform="rotate(270 208.4 331.6)">c5_mean</text>
<text xml:space="preserve" x="216.4" y="331.6" font-family="Calibri" font-size="8" transform="rotate(270 216.4 331.6)">c2_mean</text>
<text xml:space="preserve" x="234.4" y="331.6" font-family="Calibri" font-size="8" transform="rotate(270 234.4 331.6)">transcription_factor</text>
<text xml:space="preserve" x="242.4" y="331.6" font-family="Calibri" font-size="8" transform="rotate(270 242.4 331.6)">transmembrane_signal_receptor</text>
<text xml:space="preserve" x="250.4" y="331.6" font-family="Calibri" font-size="8" transform="rotate(270 250.4 331.6)">growth_factor</text>
<text xml:space="preserve" x="258.4" y="331.6" font-family="Calibri" font-size="8" transform="rotate(270 258.4 331.6)">peptide_hormone</text>
<text xml:space="preserve" x="266.4" y="331.6" font-family="Calibri" font-size="8" transform="rotate(270 266.4 331.6)">cytoskeletal_protein</text>
<text xml:space="preserve" x="274.4" y="331.6" font-family="Calibri" font-size="8" transform="rotate(270 274.4 331.6)">ion_channel</text>
<text xml:space="preserve" x="282.4" y="331.6" font-family="Calibri" font-size="8" transform="rotate(270 282.4 331.6)">integrin</text>
<text xml:space="preserve" x="290.4" y="331.6" font-family="Calibri" font-size="8" transform="rotate(270 290.4 331.6)">extracellular_matrix_protein</text>
<polygon points="127.4,335.6 135.4,335.6 135.4,343.6 127.4,343.6" fill="rgb(170,238,0)"/><text xml:space="preserve" x="131.4" y="342.433" font-family="Calibri" font-size="7.5" fill="rgb(0,0,0)" text-anchor="middle">2</text>
<polygon points="135.4,335.6 143.4,335.6 143.4,343.6 135.4,343.6" fill="rgb(170,238,0)"/><text xml:space="preserve" x="139.4" y="342.433" font-family="Calibri" font-size="7.5" fill="rgb(0,0,0)" text-anchor="middle">2</text>
<polygon points="143.4,335.6 151.4,335.6 151.4,343.6 143.4,343.6" fill="rgb(205,0,0)"/><text xml:space="preserve" x="147.4" y="342.433" font-family="Calibri" font-size="7.5" fill="rgb(255,255,255)" text-anchor="middle">4</text>
<polygon points="151.4,335.6 159.4,335.6 159.4,343.6 151.4,343.6" fill="rgb(170,238,0)"/><text xml:space="preserve" x="155.4" y="342.433" font-family="Calibri" font-size="7.5" fill="rgb(0,0,0)" text-anchor="middle">2</text>
<polygon points="159.4,335.6 167.4,335.6 167.4,343.6 159.4,343.6" fill="rgb(170,238,0)"/><text xml:space="preserve" x="163.4" y="342.433" font-family="Calibri" font-size="7.5" fill="rgb(0,0,0)" text-anchor="middle">2</text>
<polygon points="177.4,335.6 185.4,335.6 185.4,343.6 177.4,343.6" fill="rgb(14,82,138)"/>
<polygon points="185.4,335.6 193.4,335.6 193.4,343.6 185.4,343.6" fill="rgb(19,105,139)"/>
<polygon points="193.4,335.6 201.4,335.6 201.4,343.6 193.4,343.6" fill="rgb(48,215,145)"/>
<polygon points="201.4,335.6 209.4,335.6 209.4,343.6 201.4,343.6" fill="rgb(9,65,137)"/>
<polygon points="209.4,335.6 217.4,335.6 217.4,343.6 209.4,343.6" fill="rgb(11,73,137)"/>
<polygon points="227.4,335.6 235.4,335.6 235.4,343.6 227.4,343.6" fill="rgb(255,255,255)"/>
<polygon points="235.4,335.6 243.4,335.6 243.4,343.6 235.4,343.6" fill="rgb(255,255,255)"/>
<polygon points="243.4,335.6 251.4,335.6 251.4,343.6 243.4,343.6" fill="rgb(255,255,255)"/>
<polygon points="251.4,335.6 259.4,335.6 259.4,343.6 251.4,343.6" fill="rgb(255,255,255)"/>
<polygon points="259.4,335.6 267.4,335.6 267.4,343.6 259.4,343.6" fill="rgb(255,255,255)"/>
<polygon points="267.4,335.6 275.4,335.6 275.4,343.6 267.4,343.6" fill="rgb(255,255,255)"/>
<polygon points="275.4,335.6 283.4,335.6 283.4,343.6 275.4,343.6" fill="rgb(255,255,255)"/>
<polygon points="283.4,335.6 291.4,335.6 291.4,343.6 283.4,343.6" fill="rgb(255,255,255)"/>
<polygon points="127.4,343.6 135.4,343.6 135.4,351.6 127.4,351.6" fill="rgb(170,238,0)"/><text xml:space="preserve" x="131.4" y="350.433" font-family="Calibri" font-size="7.5" fill="rgb(0,0,0)" text-anchor="middle">2</text>
<polygon points="135.4,343.6 143.4,343.6 143.4,351.6 135.4,351.6" fill="rgb(170,238,0)"/><text xml:space="preserve" x="139.4" y="350.433" font-family="Calibri" font-size="7.5" fill="rgb(0,0,0)" text-anchor="middle">2</text>
<polygon points="143.4,343.6 151.4,343.6 151.4,351.6 143.4,351.6" fill="rgb(205,0,0)"/><text xml:space="preserve" x="147.4" y="350.433" font-family="Calibri" font-size="7.5" fill="rgb(255,255,255)" text-anchor="middle">4</text>
<polygon points="151.4,343.6 159.4,343.6 159.4,351.6 151.4,351.6" fill="rgb(170,238,0)"/><text xml:space="preserve" x="155.4" y="350.433" font-family="Calibri" font-size="7.5" fill="rgb(0,0,0)" text-anchor="middle">2</text>
<polygon points="159.4,343.6 167.4,343.6 167.4,351.6 159.4,351.6" fill="rgb(170,238,0)"/><text xml:space="preserve" x="163.4" y="350.433" font-family="Calibri" font-size="7.5" fill="rgb(0,0,0)" text-anchor="middle">2</text>
<polygon points="177.4,343.6 185.4,343.6 185.4,351.6 177.4,351.6" fill="rgb(8,60,136)"/>
<polygon points="185.4,343.6 193.4,343.6 193.4,351.6 185.4,351.6" fill="rgb(5,47,136)"/>
<polygon points="193.4,343.6 201.4,343.6 201.4,351.6 193.4,351.6" fill="rgb(47,213,145)"/>
<polygon points="201.4,343.6 209.4,343.6 209.4,351.6 201.4,351.6" fill="rgb(17,94,138)"/>
<polygon points="209.4,343.6 217.4,343.6 217.4,351.6 209.4,351.6" fill="rgb(14,84,138)"/>
<polygon points="227.4,343.6 235.4,343.6 235.4,351.6 227.4,351.6" fill="rgb(255,255,255)"/>
<polygon points="235.4,343.6 243.4,343.6 243.4,351.6 235.4,351.6" fill="rgb(255,255,255)"/>
<polygon points="243.4,343.6 251.4,343.6 251.4,351.6 243.4,351.6" fill="rgb(255,255,255)"/>
<polygon points="251.4,343.6 259.4,343.6 259.4,351.6 251.4,351.6" fill="rgb(255,255,255)"/>
<polygon points="259.4,343.6 267.4,343.6 267.4,351.6 259.4,351.6" fill="rgb(255,255,255)"/>
<polygon points="267.4,343.6 275.4,343.6 275.4,351.6 267.4,351.6" fill="rgb(255,255,255)"/>
<polygon points="275.4,343.6 283.4,343.6 283.4,351.6 275.4,351.6" fill="rgb(255,255,255)"/>
<polygon points="283.4,343.6 291.4,343.6 291.4,351.6 283.4,351.6" fill="rgb(255,255,255)"/>
<polygon points="127.4,351.6 135.4,351.6 135.4,359.6 127.4,359.6" fill="rgb(170,238,0)"/><text xml:space="preserve" x="131.4" y="358.433" font-family="Calibri" font-size="7.5" fill="rgb(0,0,0)" text-anchor="middle">2</text>
<polygon points="135.4,351.6 143.4,351.6 143.4,359.6 135.4,359.6" fill="rgb(170,238,0)"/><text xml:space="preserve" x="139.4" y="358.433" font-family="Calibri" font-size="7.5" fill="rgb(0,0,0)" text-anchor="middle">2</text>
<polygon points="143.4,351.6 151.4,351.6 151.4,359.6 143.4,359.6" fill="rgb(205,0,0)"/><text xml:space="preserve" x="147.4" y="358.433" font-family="Calibri" font-size="7.5" fill="rgb(255,255,255)" text-anchor="middle">4</text>
<polygon points="151.4,351.6 159.4,351.6 159.4,359.6 151.4,359.6" fill="rgb(170,238,0)"/><text xml:space="preserve" x="155.4" y="358.433" font-family="Calibri" font-size="7.5" fill="rgb(0,0,0)" text-anchor="middle">2</text>
<polygon points="159.4,351.6 167.4,351.6 167.4,359.6 159.4,359.6" fill="rgb(170,238,0)"/><text xml:space="preserve" x="163.4" y="358.433" font-family="Calibri" font-size="7.5" fill="rgb(0,0,0)" text-anchor="middle">2</text>
<polygon points="177.4,351.6 185.4,351.6 185.4,359.6 177.4,359.6" fill="rgb(13,79,138)"/>
<polygon points="185.4,351.6 193.4,351.6 193.4,359.6 185.4,359.6" fill="rgb(10,66,137)"/>
<polygon points="193.4,351.6 201.4,351.6 201.4,359.6 193.4,359.6" fill="rgb(38,179,143)"/>
<polygon points="201.4,351.6 209.4,351.6 209.4,359.6 201.4,359.6" fill="rgb(4,46,136)"/>
<polygon points="209.4,351.6 217.4,351.6 217.4,359.6 209.4,359.6" fill="rgb(16,91,138)"/>
<polygon points="227.4,351.6 235.4,351.6 235.4,359.6 227.4,359.6" fill="rgb(255,255,255)"/>
<polygon points="235.4,351.6 243.4,351.6 243.4,359.6 235.4,359.6" fill="rgb(255,255,255)"/>
<polygon points="243.4,351.6 251.4,351.6 251.4,359.6 243.4,359.6" fill="rgb(255,255,255)"/>
<polygon points="251.4,351.6 259.4,351.6 259.4,359.6 251.4,359.6" fill="rgb(255,255,255)"/>
<polygon points="259.4,351.6 267.4,351.6 267.4,359.6 259.4,359.6" fill="rgb(255,255,255)"/>
<polygon points="267.4,351.6 275.4,351.6 275.4,359.6 267.4,359.6" fill="rgb(255,255,255)"/>
<polygon points="275.4,351.6 283.4,351.6 283.4,359.6 275.4,359.6" fill="rgb(255,255,255)"/>
<polygon points="283.4,351.6 291.4,351.6 291.4,359.6 283.4,359.6" fill="rgb(255,255,255)"/>
<polygon points="127.4,359.6 135.4,359.6 135.4,367.6 127.4,367.6" fill="rgb(170,238,0)"/><text xml:space="preserve" x="131.4" y="366.433" font-family="Calibri" font-size="7.5" fill="rgb(0,0,0)" text-anchor="middle">2</text>
<polygon points="135.4,359.6 143.4,359.6 143.4,367.6 135.4,367.6" fill="rgb(170,238,0)"/><text xml:space="preserve" x="139.4" y="366.433" font-family="Calibri" font-size="7.5" fill="rgb(0,0,0)" text-anchor="middle">2</text>
<polygon points="143.4,359.6 151.4,359.6 151.4,367.6 143.4,367.6" fill="rgb(205,0,0)"/><text xml:space="preserve" x="147.4" y="366.433" font-family="Calibri" font-size="7.5" fill="rgb(255,255,255)" text-anchor="middle">4</text>
<polygon points="151.4,359.6 159.4,359.6 159.4,367.6 151.4,367.6" fill="rgb(170,238,0)"/><text xml:space="preserve" x="155.4" y="366.433" font-family="Calibri" font-size="7.5" fill="rgb(0,0,0)" text-anchor="middle">2</text>
<polygon points="159.4,359.6 167.4,359.6 167.4,367.6 159.4,367.6" fill="rgb(170,238,0)"/><text xml:space="preserve" x="163.4" y="366.433" font-family="Calibri" font-size="7.5" fill="rgb(0,0,0)" text-anchor="middle">2</text>
<polygon points="177.4,359.6 185.4,359.6 185.4,367.6 177.4,367.6" fill="rgb(5,50,136)"/>
<polygon points="185.4,359.6 193.4,359.6 193.4,367.6 185.4,367.6" fill="rgb(6,51,136)"/>
<polygon points="193.4,359.6 201.4,359.6 201.4,367.6 193.4,367.6" fill="rgb(58,217,139)"/>
<polygon points="201.4,359.6 209.4,359.6 209.4,367.6 201.4,367.6" fill="rgb(19,105,139)"/>
<polygon points="209.4,359.6 217.4,359.6 217.4,367.6 209.4,367.6" fill="rgb(14,84,138)"/>
<polygon points="227.4,359.6 235.4,359.6 235.4,367.6 227.4,367.6" fill="rgb(255,255,255)"/>
<polygon points="235.4,359.6 243.4,359.6 243.4,367.6 235.4,367.6" fill="rgb(255,255,255)"/>
<polygon points="243.4,359.6 251.4,359.6 251.4,367.6 243.4,367.6" fill="rgb(255,255,255)"/>
<polygon points="251.4,359.6 259.4,359.6 259.4,367.6 251.4,367.6" fill="rgb(255,255,255)"/>
<polygon points="259.4,359.6 267.4,359.6 267.4,367.6 259.4,367.6" fill="rgb(255,255,255)"/>
<polygon points="267.4,359.6 275.4,359.6 275.4,367.6 267.4,367.6" fill="rgb(255,255,255)"/>
<polygon points="275.4,359.6 283.4,359.6 283.4,367.6 275.4,367.6" fill="rgb(255,255,255)"/>
<polygon points="283.4,359.6 291.4,359.6 291.4,367.6 283.4,367.6" fill="rgb(255,255,255)"/>
<polygon points="127.4,367.6 135.4,367.6 135.4,375.6 127.4,375.6" fill="rgb(170,238,0)"/><text xml:space="preserve" x="131.4" y="374.433" font-family="Calibri" font-size="7.5" fill="rgb(0,0,0)" text-anchor="middle">2</text>
<polygon points="135.4,367.6 143.4,367.6 143.4,375.6 135.4,375.6" fill="rgb(170,238,0)"/><text xml:space="preserve" x="139.4" y="374.433" font-family="Calibri" font-size="7.5" fill="rgb(0,0,0)" text-anchor="middle">2</text>
<polygon points="143.4,367.6 151.4,367.6 151.4,375.6 143.4,375.6" fill="rgb(205,0,0)"/><text xml:space="preserve" x="147.4" y="374.433" font-family="Calibri" font-size="7.5" fill="rgb(255,255,255)" text-anchor="middle">4</text>
<polygon points="151.4,367.6 159.4,367.6 159.4,375.6 151.4,375.6" fill="rgb(170,238,0)"/><text xml:space="preserve" x="155.4" y="374.433" font-family="Calibri" font-size="7.5" fill="rgb(0,0,0)" text-anchor="middle">2</text>
<polygon points="159.4,367.6 167.4,367.6 167.4,375.6 159.4,375.6" fill="rgb(170,238,0)"/><text xml:space="preserve" x="163.4" y="374.433" font-family="Calibri" font-size="7.5" fill="rgb(0,0,0)" text-anchor="middle">2</text>
<polygon points="177.4,367.6 185.4,367.6 185.4,375.6 177.4,375.6" fill="rgb(9,65,137)"/>
<polygon points="185.4,367.6 193.4,367.6 193.4,375.6 185.4,375.6" fill="rgb(14,83,138)"/>
<polygon points="193.4,367.6 201.4,367.6 201.4,375.6 193.4,375.6" fill="rgb(44,201,144)"/>
<polygon points="201.4,367.6 209.4,367.6 209.4,375.6 201.4,375.6" fill="rgb(13,78,137)"/>
<polygon points="209.4,367.6 217.4,367.6 217.4,375.6 209.4,375.6" fill="rgb(14,82,138)"/>
<polygon points="227.4,367.6 235.4,367.6 235.4,375.6 227.4,375.6" fill="rgb(255,255,255)"/>
<polygon points="235.4,367.6 243.4,367.6 243.4,375.6 235.4,375.6" fill="rgb(255,255,255)"/>
<polygon points="243.4,367.6 251.4,367.6 251.4,375.6 243.4,375.6" fill="rgb(255,255,255)"/>
<polygon points="251.4,367.6 259.4,367.6 259.4,375.6 251.4,375.6" fill="rgb(255,255,255)"/>
<polygon points="259.4,367.6 267.4,367.6 267.4,375.6 259.4,375.6" fill="rgb(255,255,255)"/>
<polygon points="267.4,367.6 275.4,367.6 275.4,375.6 267.4,375.6" fill="rgb(255,255,255)"/>
<polygon points="275.4,367.6 283.4,367.6 283.4,375.6 275.4,375.6" fill="rgb(255,255,255)"/>
<polygon points="283.4,367.6 291.4,367.6 291.4,375.6 283.4,375.6" fill="rgb(255,255,255)"/>
<polygon points="127.4,375.6 135.4,375.6 135.4,383.6 127.4,383.6" fill="rgb(170,238,0)"/><text xml:space="preserve" x="131.4" y="382.433" font-family="Calibri" font-size="7.5" fill="rgb(0,0,0)" text-anchor="middle">2</text>
<polygon points="135.4,375.6 143.4,375.6 143.4,383.6 135.4,383.6" fill="rgb(170,238,0)"/><text xml:space="preserve" x="139.4" y="382.433" font-family="Calibri" font-size="7.5" fill="rgb(0,0,0)" text-anchor="middle">2</text>
<polygon points="143.4,375.6 151.4,375.6 151.4,383.6 143.4,383.6" fill="rgb(205,0,0)"/><text xml:space="preserve" x="147.4" y="382.433" font-family="Calibri" font-size="7.5" fill="rgb(255,255,255)" text-anchor="middle">4</text>
<polygon points="151.4,375.6 159.4,375.6 159.4,383.6 151.4,383.6" fill="rgb(170,238,0)"/><text xml:space="preserve" x="155.4" y="382.433" font-family="Calibri" font-size="7.5" fill="rgb(0,0,0)" text-anchor="middle">2</text>
<polygon points="159.4,375.6 167.4,375.6 167.4,383.6 159.4,383.6" fill="rgb(170,238,0)"/><text xml:space="preserve" x="163.4" y="382.433" font-family="Calibri" font-size="7.5" fill="rgb(0,0,0)" text-anchor="middle">2</text>
<polygon points="177.4,375.6 185.4,375.6 185.4,383.6 177.4,383.6" fill="rgb(18,101,139)"/>
<polygon points="185.4,375.6 193.4,375.6 193.4,383.6 185.4,383.6" fill="rgb(3,39,135)"/>
<polygon points="193.4,375.6 201.4,375.6 201.4,383.6 193.4,383.6" fill="rgb(40,184,144)"/>
<polygon points="201.4,375.6 209.4,375.6 209.4,383.6 201.4,383.6" fill="rgb(22,114,139)"/>
<polygon points="209.4,375.6 217.4,375.6 217.4,383.6 209.4,383.6" fill="rgb(12,74,137)"/>
<polygon points="227.4,375.6 235.4,375.6 235.4,383.6 227.4,383.6" fill="rgb(255,255,255)"/>
<polygon points="235.4,375.6 243.4,375.6 243.4,383.6 235.4,383.6" fill="rgb(255,255,255)"/>
<polygon points="243.4,375.6 251.4,375.6 251.4,383.6 243.4,383.6" fill="rgb(255,255,255)"/>
<polygon points="251.4,375.6 259.4,375.6 259.4,383.6 251.4,383.6" fill="rgb(255,255,255)"/>
<polygon points="259.4,375.6 267.4,375.6 267.4,383.6 259.4,383.6" fill="rgb(255,255,255)"/>
<polygon points="267.4,375.6 275.4,375.6 275.4,383.6 267.4,383.6" fill="rgb(205,0,205)"/>
<polygon points="275.4,375.6 283.4,375.6 283.4,383.6 275.4,383.6" fill="rgb(255,255,255)"/>
<polygon points="283.4,375.6 291.4,375.6 291.4,383.6 283.4,383.6" fill="rgb(255,255,255)"/>
<polygon points="127.4,383.6 135.4,383.6 135.4,391.6 127.4,391.6" fill="rgb(170,238,0)"/><text xml:space="preserve" x="131.4" y="390.433" font-family="Calibri" font-size="7.5" fill="rgb(0,0,0)" text-anchor="middle">2</text>
<polygon points="135.4,383.6 143.4,383.6 143.4,391.6 135.4,391.6" fill="rgb(170,238,0)"/><text xml:space="preserve" x="139.4" y="390.433" font-family="Calibri" font-size="7.5" fill="rgb(0,0,0)" text-anchor="middle">2</text>
<polygon points="143.4,383.6 151.4,383.6 151.4,391.6 143.4,391.6" fill="rgb(205,0,0)"/><text xml:space="preserve" x="147.4" y="390.433" font-family="Calibri" font-size="7.5" fill="rgb(255,255,255)" text-anchor="middle">4</text>
<polygon points="151.4,383.6 159.4,383.6 159.4,391.6 151.4,391.6" fill="rgb(170,238,0)"/><text xml:space="preserve" x="155.4" y="390.433" font-family="Calibri" font-size="7.5" fill="rgb(0,0,0)" text-anchor="middle">2</text>
<polygon points="159.4,383.6 167.4,383.6 167.4,391.6 159.4,391.6" fill="rgb(170,238,0)"/><text xml:space="preserve" x="163.4" y="390.433" font-family="Calibri" font-size="7.5" fill="rgb(0,0,0)" text-anchor="middle">2</text>
<polygon points="177.4,383.6 185.4,383.6 185.4,391.6 177.4,391.6" fill="rgb(19,103,139)"/>
<polygon points="185.4,383.6 193.4,383.6 193.4,391.6 185.4,391.6" fill="rgb(19,103,139)"/>
<polygon points="193.4,383.6 201.4,383.6 201.4,391.6 193.4,391.6" fill="rgb(46,210,145)"/>
<polygon points="201.4,383.6 209.4,383.6 209.4,391.6 201.4,391.6" fill="rgb(15,87,138)"/>
<polygon points="209.4,383.6 217.4,383.6 217.4,391.6 209.4,391.6" fill="rgb(18,101,139)"/>
<polygon points="227.4,383.6 235.4,383.6 235.4,391.6 227.4,391.6" fill="rgb(255,255,255)"/>
<polygon points="235.4,383.6 243.4,383.6 243.4,391.6 235.4,391.6" fill="rgb(255,255,255)"/>
<polygon points="243.4,383.6 251.4,383.6 251.4,391.6 243.4,391.6" fill="rgb(255,255,255)"/>
<polygon points="251.4,383.6 259.4,383.6 259.4,391.6 251.4,391.6" fill="rgb(255,255,255)"/>
<polygon points="259.4,383.6 267.4,383.6 267.4,391.6 259.4,391.6" fill="rgb(255,255,255)"/>
<polygon points="267.4,383.6 275.4,383.6 275.4,391.6 267.4,391.6" fill="rgb(255,255,255)"/>
<polygon points="275.4,383.6 283.4,383.6 283.4,391.6 275.4,391.6" fill="rgb(255,255,255)"/>
<polygon points="283.4,383.6 291.4,383.6 291.4,391.6 283.4,391.6" fill="rgb(255,255,255)"/>
<polygon points="127.4,391.6 135.4,391.6 135.4,399.6 127.4,399.6" fill="rgb(170,238,0)"/><text xml:space="preserve" x="131.4" y="398.433" font-family="Calibri" font-size="7.5" fill="rgb(0,0,0)" text-anchor="middle">2</text>
<polygon points="135.4,391.6 143.4,391.6 143.4,399.6 135.4,399.6" fill="rgb(170,238,0)"/><text xml:space="preserve" x="139.4" y="398.433" font-family="Calibri" font-size="7.5" fill="rgb(0,0,0)" text-anchor="middle">2</text>
<polygon points="143.4,391.6 151.4,391.6 151.4,399.6 143.4,399.6" fill="rgb(205,0,0)"/><text xml:space="preserve" x="147.4" y="398.433" font-family="Calibri" font-size="7.5" fill="rgb(255,255,255)" text-anchor="middle">4</text>
<polygon points="151.4,391.6 159.4,391.6 159.4,399.6 151.4,399.6" fill="rgb(170,238,0)"/><text xml:space="preserve" x="155.4" y="398.433" font-family="Calibri" font-size="7.5" fill="rgb(0,0,0)" text-anchor="middle">2</text>
<polygon points="159.4,391.6 167.4,391.6 167.4,399.6 159.4,399.6" fill="rgb(170,238,0)"/><text xml:space="preserve" x="163.4" y="398.433" font-family="Calibri" font-size="7.5" fill="rgb(0,0,0)" text-anchor="middle">2</text>
<polygon points="177.4,391.6 185.4,391.6 185.4,399.6 177.4,399.6" fill="rgb(11,73,137)"/>
<polygon points="185.4,391.6 193.4,391.6 193.4,399.6 185.4,399.6" fill="rgb(15,85,138)"/>
<polygon points="193.4,391.6 201.4,391.6 201.4,399.6 193.4,399.6" fill="rgb(48,215,145)"/>
<polygon points="201.4,391.6 209.4,391.6 209.4,399.6 201.4,399.6" fill="rgb(6,51,136)"/>
<polygon points="209.4,391.6 217.4,391.6 217.4,399.6 209.4,399.6" fill="rgb(27,135,141)"/>
<polygon points="227.4,391.6 235.4,391.6 235.4,399.6 227.4,399.6" fill="rgb(205,0,205)"/>
<polygon points="235.4,391.6 243.4,391.6 243.4,399.6 235.4,399.6" fill="rgb(255,255,255)"/>
<polygon points="243.4,391.6 251.4,391.6 251.4,399.6 243.4,399.6" fill="rgb(255,255,255)"/>
<polygon points="251.4,391.6 259.4,391.6 259.4,399.6 251.4,399.6" fill="rgb(255,255,255)"/>
<polygon points="259.4,391.6 267.4,391.6 267.4,399.6 259.4,399.6" fill="rgb(255,255,255)"/>
<polygon points="267.4,391.6 275.4,391.6 275.4,399.6 267.4,399.6" fill="rgb(255,255,255)"/>
<polygon points="275.4,391.6 283.4,391.6 283.4,399.6 275.4,399.6" fill="rgb(255,255,255)"/>
<polygon points="283.4,391.6 291.4,391.6 291.4,399.6 283.4,399.6" fill="rgb(255,255,255)"/>
<polygon points="127.4,399.6 135.4,399.6 135.4,407.6 127.4,407.6" fill="rgb(170,238,0)"/><text xml:space="preserve" x="131.4" y="406.433" font-family="Calibri" font-size="7.5" fill="rgb(0,0,0)" text-anchor="middle">2</text>
<polygon points="135.4,399.6 143.4,399.6 143.4,407.6 135.4,407.6" fill="rgb(170,238,0)"/><text xml:space="preserve" x="139.4" y="406.433" font-family="Calibri" font-size="7.5" fill="rgb(0,0,0)" text-anchor="middle">2</text>
<polygon points="143.4,399.6 151.4,399.6 151.4,407.6 143.4,407.6" fill="rgb(205,0,0)"/><text xml:space="preserve" x="147.4" y="406.433" font-family="Calibri" font-size="7.5" fill="rgb(255,255,255)" text-anchor="middle">4</text>
<polygon points="151.4,399.6 159.4,399.6 159.4,407.6 151.4,407.6" fill="rgb(170,238,0)"/><text xml:space="preserve" x="155.4" y="406.433" font-family="Calibri" font-size="7.5" fill="rgb(0,0,0)" text-anchor="middle">2</text>
<polygon points="159.4,399.6 167.4,399.6 167.4,407.6 159.4,407.6" fill="rgb(170,238,0)"/><text xml:space="preserve" x="163.4" y="406.433" font-family="Calibri" font-size="7.5" fill="rgb(0,0,0)" text-anchor="middle">2</text>
<polygon points="177.4,399.6 185.4,399.6 185.4,407.6 177.4,407.6" fill="rgb(10,69,137)"/>
<polygon points="185.4,399.6 193.4,399.6 193.4,407.6 185.4,407.6" fill="rgb(19,105,139)"/>
<polygon points="193.4,399.6 201.4,399.6 201.4,407.6 193.4,407.6" fill="rgb(38,179,143)"/>
<polygon points="201.4,399.6 209.4,399.6 209.4,407.6 201.4,407.6" fill="rgb(6,52,136)"/>
<polygon points="209.4,399.6 217.4,399.6 217.4,407.6 209.4,407.6" fill="rgb(15,87,138)"/>
<polygon points="227.4,399.6 235.4,399.6 235.4,407.6 227.4,407.6" fill="rgb(255,255,255)"/>
<polygon points="235.4,399.6 243.4,399.6 243.4,407.6 235.4,407.6" fill="rgb(255,255,255)"/>
<polygon points="243.4,399.6 251.4,399.6 251.4,407.6 243.4,407.6" fill="rgb(255,255,255)"/>
<polygon points="251.4,399.6 259.4,399.6 259.4,407.6 251.4,407.6" fill="rgb(255,255,255)"/>
<polygon points="259.4,399.6 267.4,399.6 267.4,407.6 259.4,407.6" fill="rgb(255,255,255)"/>
<polygon points="267.4,399.6 275.4,399.6 275.4,407.6 267.4,407.6" fill="rgb(255,255,255)"/>
<polygon points="275.4,399.6 283.4,399.6 283.4,407.6 275.4,407.6" fill="rgb(255,255,255)"/>
<polygon points="283.4,399.6 291.4,399.6 291.4,407.6 283.4,407.6" fill="rgb(255,255,255)"/>
<polygon points="127.4,407.6 135.4,407.6 135.4,415.6 127.4,415.6" fill="rgb(170,238,0)"/><text xml:space="preserve" x="131.4" y="414.433" font-family="Calibri" font-size="7.5" fill="rgb(0,0,0)" text-anchor="middle">2</text>
<polygon points="135.4,407.6 143.4,407.6 143.4,415.6 135.4,415.6" fill="rgb(170,238,0)"/><text xml:space="preserve" x="139.4" y="414.433" font-family="Calibri" font-size="7.5" fill="rgb(0,0,0)" text-anchor="middle">2</text>
<polygon points="143.4,407.6 151.4,407.6 151.4,415.6 143.4,415.6" fill="rgb(205,0,0)"/><text xml:space="preserve" x="147.4" y="414.433" font-family="Calibri" font-size="7.5" fill="rgb(255,255,255)" text-anchor="middle">4</text>
<polygon points="151.4,407.6 159.4,407.6 159.4,415.6 151.4,415.6" fill="rgb(170,238,0)"/><text xml:space="preserve" x="155.4" y="414.433" font-family="Calibri" font-size="7.5" fill="rgb(0,0,0)" text-anchor="middle">2</text>
<polygon points="159.4,407.6 167.4,407.6 167.4,415.6 159.4,415.6" fill="rgb(170,238,0)"/><text xml:space="preserve" x="163.4" y="414.433" font-family="Calibri" font-size="7.5" fill="rgb(0,0,0)" text-anchor="middle">2</text>
<polygon points="177.4,407.6 185.4,407.6 185.4,415.6 177.4,415.6" fill="rgb(14,82,138)"/>
<polygon points="185.4,407.6 193.4,407.6 193.4,415.6 185.4,415.6" fill="rgb(22,116,140)"/>
<polygon points="193.4,407.6 201.4,407.6 201.4,415.6 193.4,415.6" fill="rgb(123,209,92)"/>
<polygon points="201.4,407.6 209.4,407.6 209.4,415.6 201.4,415.6" fill="rgb(11,70,137)"/>
<polygon points="209.4,407.6 217.4,407.6 217.4,415.6 209.4,415.6" fill="rgb(27,134,141)"/>
<polygon points="227.4,407.6 235.4,407.6 235.4,415.6 227.4,415.6" fill="rgb(205,0,205)"/>
<polygon points="235.4,407.6 243.4,407.6 243.4,415.6 235.4,415.6" fill="rgb(255,255,255)"/>
<polygon points="243.4,407.6 251.4,407.6 251.4,415.6 243.4,415.6" fill="rgb(255,255,255)"/>
<polygon points="251.4,407.6 259.4,407.6 259.4,415.6 251.4,415.6" fill="rgb(255,255,255)"/>
<polygon points="259.4,407.6 267.4,407.6 267.4,415.6 259.4,415.6" fill="rgb(255,255,255)"/>
<polygon points="267.4,407.6 275.4,407.6 275.4,415.6 267.4,415.6" fill="rgb(255,255,255)"/>
<polygon points="275.4,407.6 283.4,407.6 283.4,415.6 275.4,415.6" fill="rgb(255,255,255)"/>
<polygon points="283.4,407.6 291.4,407.6 291.4,415.6 283.4,415.6" fill="rgb(255,255,255)"/>
<polygon points="127.4,415.6 135.4,415.6 135.4,423.6 127.4,423.6" fill="rgb(170,238,0)"/><text xml:space="preserve" x="131.4" y="422.433" font-family="Calibri" font-size="7.5" fill="rgb(0,0,0)" text-anchor="middle">2</text>
<polygon points="135.4,415.6 143.4,415.6 143.4,423.6 135.4,423.6" fill="rgb(170,238,0)"/><text xml:space="preserve" x="139.4" y="422.433" font-family="Calibri" font-size="7.5" fill="rgb(0,0,0)" text-anchor="middle">2</text>
<polygon points="143.4,415.6 151.4,415.6 151.4,423.6 143.4,423.6" fill="rgb(205,0,0)"/><text xml:space="preserve" x="147.4" y="422.433" font-family="Calibri" font-size="7.5" fill="rgb(255,255,255)" text-anchor="middle">4</text>
<polygon points="151.4,415.6 159.4,415.6 159.4,423.6 151.4,423.6" fill="rgb(170,238,0)"/><text xml:space="preserve" x="155.4" y="422.433" font-family="Calibri" font-size="7.5" fill="rgb(0,0,0)" text-anchor="middle">2</text>
<polygon points="159.4,415.6 167.4,415.6 167.4,423.6 159.4,423.6" fill="rgb(170,238,0)"/><text xml:space="preserve" x="163.4" y="422.433" font-family="Calibri" font-size="7.5" fill="rgb(0,0,0)" text-anchor="middle">2</text>
<polygon points="177.4,415.6 185.4,415.6 185.4,423.6 177.4,423.6" fill="rgb(25,128,140)"/>
<polygon points="185.4,415.6 193.4,415.6 193.4,423.6 185.4,423.6" fill="rgb(13,78,137)"/>
<polygon points="193.4,415.6 201.4,415.6 201.4,423.6 193.4,423.6" fill="rgb(80,215,123)"/>
<polygon points="201.4,415.6 209.4,415.6 209.4,423.6 201.4,423.6" fill="rgb(9,62,137)"/>
<polygon points="209.4,415.6 217.4,415.6 217.4,423.6 209.4,423.6" fill="rgb(17,94,138)"/>
<polygon points="227.4,415.6 235.4,415.6 235.4,423.6 227.4,423.6" fill="rgb(255,255,255)"/>
<polygon points="235.4,415.6 243.4,415.6 243.4,423.6 235.4,423.6" fill="rgb(255,255,255)"/>
<polygon points="243.4,415.6 251.4,415.6 251.4,423.6 243.4,423.6" fill="rgb(255,255,255)"/>
<polygon points="251.4,415.6 259.4,415.6 259.4,423.6 251.4,423.6" fill="rgb(255,255,255)"/>
<polygon points="259.4,415.6 267.4,415.6 267.4,423.6 259.4,423.6" fill="rgb(255,255,255)"/>
<polygon points="267.4,415.6 275.4,415.6 275.4,423.6 267.4,423.6" fill="rgb(255,255,255)"/>
<polygon points="275.4,415.6 283.4,415.6 283.4,423.6 275.4,423.6" fill="rgb(255,255,255)"/>
<polygon points="283.4,415.6 291.4,415.6 291.4,423.6 283.4,423.6" fill="rgb(255,255,255)"/>
<polygon points="127.4,423.6 135.4,423.6 135.4,431.6 127.4,431.6" fill="rgb(170,238,0)"/><text xml:space="preserve" x="131.4" y="430.433" font-family="Calibri" font-size="7.5" fill="rgb(0,0,0)" text-anchor="middle">2</text>
<polygon points="135.4,423.6 143.4,423.6 143.4,431.6 135.4,431.6" fill="rgb(170,238,0)"/><text xml:space="preserve" x="139.4" y="430.433" font-family="Calibri" font-size="7.5" fill="rgb(0,0,0)" text-anchor="middle">2</text>
<polygon points="143.4,423.6 151.4,423.6 151.4,431.6 143.4,431.6" fill="rgb(205,0,0)"/><text xml:space="preserve" x="147.4" y="430.433" font-family="Calibri" font-size="7.5" fill="rgb(255,255,255)" text-anchor="middle">4</text>
<polygon points="151.4,423.6 159.4,423.6 159.4,431.6 151.4,431.6" fill="rgb(170,238,0)"/><text xml:space="preserve" x="155.4" y="430.433" font-family="Calibri" font-size="7.5" fill="rgb(0,0,0)" text-anchor="middle">2</text>
<polygon points="159.4,423.6 167.4,423.6 167.4,431.6 159.4,431.6" fill="rgb(170,238,0)"/><text xml:space="preserve" x="163.4" y="430.433" font-family="Calibri" font-size="7.5" fill="rgb(0,0,0)" text-anchor="middle">2</text>
<polygon points="177.4,423.6 185.4,423.6 185.4,431.6 177.4,431.6" fill="rgb(10,66,137)"/>
<polygon points="185.4,423.6 193.4,423.6 193.4,431.6 185.4,431.6" fill="rgb(16,91,138)"/>
<polygon points="193.4,423.6 201.4,423.6 201.4,431.6 193.4,431.6" fill="rgb(48,217,145)"/>
<polygon points="201.4,423.6 209.4,423.6 209.4,431.6 201.4,431.6" fill="rgb(20,108,139)"/>
<polygon points="209.4,423.6 217.4,423.6 217.4,431.6 209.4,431.6" fill="rgb(18,98,139)"/>
<polygon points="227.4,423.6 235.4,423.6 235.4,431.6 227.4,431.6" fill="rgb(255,255,255)"/>
<polygon points="235.4,423.6 243.4,423.6 243.4,431.6 235.4,431.6" fill="rgb(255,255,255)"/>
<polygon points="243.4,423.6 251.4,423.6 251.4,431.6 243.4,431.6" fill="rgb(255,255,255)"/>
<polygon points="251.4,423.6 259.4,423.6 259.4,431.6 251.4,431.6" fill="rgb(255,255,255)"/>
<polygon points="259.4,423.6 267.4,423.6 267.4,431.6 259.4,431.6" fill="rgb(255,255,255)"/>
<polygon points="267.4,423.6 275.4,423.6 275.4,431.6 267.4,431.6" fill="rgb(255,255,255)"/>
<polygon points="275.4,423.6 283.4,423.6 283.4,431.6 275.4,431.6" fill="rgb(255,255,255)"/>
<polygon points="283.4,423.6 291.4,423.6 291.4,431.6 283.4,431.6" fill="rgb(255,255,255)"/>
<polygon points="127.4,431.6 135.4,431.6 135.4,439.6 127.4,439.6" fill="rgb(170,238,0)"/><text xml:space="preserve" x="131.4" y="438.433" font-family="Calibri" font-size="7.5" fill="rgb(0,0,0)" text-anchor="middle">2</text>
<polygon points="135.4,431.6 143.4,431.6 143.4,439.6 135.4,439.6" fill="rgb(170,238,0)"/><text xml:space="preserve" x="139.4" y="438.433" font-family="Calibri" font-size="7.5" fill="rgb(0,0,0)" text-anchor="middle">2</text>
<polygon points="143.4,431.6 151.4,431.6 151.4,439.6 143.4,439.6" fill="rgb(205,0,0)"/><text xml:space="preserve" x="147.4" y="438.433" font-family="Calibri" font-size="7.5" fill="rgb(255,255,255)" text-anchor="middle">4</text>
<polygon points="151.4,431.6 159.4,431.6 159.4,439.6 151.4,439.6" fill="rgb(170,238,0)"/><text xml:space="preserve" x="155.4" y="438.433" font-family="Calibri" font-size="7.5" fill="rgb(0,0,0)" text-anchor="middle">2</text>
<polygon points="159.4,431.6 167.4,431.6 167.4,439.6 159.4,439.6" fill="rgb(170,238,0)"/><text xml:space="preserve" x="163.4" y="438.433" font-family="Calibri" font-size="7.5" fill="rgb(0,0,0)" text-anchor="middle">2</text>
<polygon points="177.4,431.6 185.4,431.6 185.4,439.6 177.4,439.6" fill="rgb(10,67,137)"/>
<polygon points="185.4,431.6 193.4,431.6 193.4,439.6 185.4,439.6" fill="rgb(10,67,137)"/>
<polygon points="193.4,431.6 201.4,431.6 201.4,439.6 193.4,439.6" fill="rgb(126,209,90)"/>
<polygon points="201.4,431.6 209.4,431.6 209.4,439.6 201.4,439.6" fill="rgb(16,92,138)"/>
<polygon points="209.4,431.6 217.4,431.6 217.4,439.6 209.4,439.6" fill="rgb(8,59,136)"/>
<polygon points="227.4,431.6 235.4,431.6 235.4,439.6 227.4,439.6" fill="rgb(255,255,255)"/>
<polygon points="235.4,431.6 243.4,431.6 243.4,439.6 235.4,439.6" fill="rgb(255,255,255)"/>
<polygon points="243.4,431.6 251.4,431.6 251.4,439.6 243.4,439.6" fill="rgb(255,255,255)"/>
<polygon points="251.4,431.6 259.4,431.6 259.4,439.6 251.4,439.6" fill="rgb(255,255,255)"/>
<polygon points="259.4,431.6 267.4,431.6 267.4,439.6 259.4,439.6" fill="rgb(255,255,255)"/>
<polygon points="267.4,431.6 275.4,431.6 275.4,439.6 267.4,439.6" fill="rgb(255,255,255)"/>
<polygon points="275.4,431.6 283.4,431.6 283.4,439.6 275.4,439.6" fill="rgb(255,255,255)"/>
<polygon points="283.4,431.6 291.4,431.6 291.4,439.6 283.4,439.6" fill="rgb(255,255,255)"/>
<polygon points="127.4,335.6 167.4,335.6 167.4,439.6 127.4,439.6" fill="none" stroke="black" stroke-width="1"/>
<polygon points="177.4,335.6 217.4,335.6 217.4,439.6 177.4,439.6" fill="none" stroke="black" stroke-width="1"/>
<polygon points="227.4,335.6 291.4,335.6 291.4,439.6 227.4,439.6" fill="none" stroke="black" stroke-width="1"/>
<text xml:space="preserve" x="155.7" y="472.6" font-family="Calibri" font-size="8" text-anchor="middle">ClusterAssignment</text>
<polygon points="115.7,479.6 135.7,479.6 135.7,499.6 115.7,499.6" fill="rgb(0,205,0)"/><polygon points="115.7,479.6 135.7,479.6 135.7,499.6 115.7,499.6" fill="none" stroke="black" stroke-width="1"/><text xml:space="preserve" x="125.7" y="492.433" font-family="Calibri" font-size="7.5" fill="rgb(255,255,255)" text-anchor="middle">1.0</text>
<polygon points="135.7,479.6 155.7,479.6 155.7,499.6 135.7,499.6" fill="rgb(170,238,0)"/><polygon points="135.7,479.6 155.7,479.6 155.7,499.6 135.7,499.6" fill="none" stroke="black" stroke-width="1"/><text xml:space="preserve" x="145.7" y="492.433" font-family="Calibri" font-size="7.5" fill="rgb(0,0,0)" text-anchor="middle">2.0</text>
<polygon points="155.7,479.6 175.7,479.6 175.7,499.6 155.7,499.6" fill="rgb(238,170,0)"/><polygon points="155.7,479.6 175.7,479.6 175.7,499.6 155.7,499.6" fill="none" stroke="black" stroke-width="1"/><text xml:space="preserve" x="165.7" y="492.433" font-family="Calibri" font-size="7.5" fill="rgb(0,0,0)" text-anchor="middle">3.0</text>
<polygon points="175.7,479.6 195.7,479.6 195.7,499.6 175.7,499.6" fill="rgb(205,0,0)"/><polygon points="175.7,479.6 195.7,479.6 195.7,499.6 175.7,499.6" fill="none" stroke="black" stroke-width="1"/><text xml:space="preserve" x="185.7" y="492.433" font-family="Calibri" font-size="7.5" fill="rgb(255,255,255)" text-anchor="middle">4.0</text>
<text xml:space="preserve" x="155.7" y="532.6" font-family="Calibri" font-size="8" text-anchor="middle">Expression</text>
<polygon points="115.7,539.6 135.7,539.6 135.7,559.6 115.7,559.6" fill="rgb(0,27,135)"/><polygon points="115.7,539.6 135.7,539.6 135.7,559.6 115.7,559.6" fill="none" stroke="black" stroke-width="1"/><text xml:space="preserve" x="125.7" y="552.433" font-family="Calibri" font-size="7.5" fill="rgb(255,255,255)" text-anchor="middle">0.0</text>
<polygon points="135.7,539.6 155.7,539.6 155.7,559.6 135.7,559.6" fill="rgb(32,155,142)"/><polygon points="135.7,539.6 155.7,539.6 155.7,559.6 135.7,559.6" fill="none" stroke="black" stroke-width="1"/><text xml:space="preserve" x="145.7" y="552.433" font-family="Calibri" font-size="7.5" fill="rgb(255,255,255)" text-anchor="middle">1.0</text>
<polygon points="155.7,539.6 175.7,539.6 175.7,559.6 155.7,559.6" fill="rgb(116,210,97)"/><polygon points="155.7,539.6 175.7,539.6 175.7,559.6 155.7,559.6" fill="none" stroke="black" stroke-width="1"/><text xml:space="preserve" x="165.7" y="552.433" font-family="Calibri" font-size="7.5" fill="rgb(0,0,0)" text-anchor="middle">2.0</text>
<polygon points="175.7,539.6 195.7,539.6 195.7,559.6 175.7,559.6" fill="rgb(252,194,1)"/><polygon points="175.7,539.6 195.7,539.6 195.7,559.6 175.7,559.6" fill="none" stroke="black" stroke-width="1"/><text xml:space="preserve" x="185.7" y="552.433" font-family="Calibri" font-size="7.5" fill="rgb(0,0,0)" text-anchor="middle">3.0</text>
<text xml:space="preserve" x="155.7" y="592.6" font-family="Calibri" font-size="8" text-anchor="middle">PANTHERclass</text>
<polygon points="115.7,599.6 135.7,599.6 135.7,619.6 115.7,619.6" fill="rgb(255,255,255)"/><polygon points="115.7,599.6 135.7,599.6 135.7,619.6 115.7,619.6" fill="none" stroke="black" stroke-width="1"/><text xml:space="preserve" x="125.7" y="612.433" font-family="Calibri" font-size="7.5" fill="rgb(0,0,0)" text-anchor="middle">0.0</text>
<polygon points="135.7,599.6 155.7,599.6 155.7,619.6 135.7,619.6" fill="rgb(238,170,238)"/><polygon points="135.7,599.6 155.7,599.6 155.7,619.6 135.7,619.6" fill="none" stroke="black" stroke-width="1"/><text xml:space="preserve" x="145.7" y="612.433" font-family="Calibri" font-size="7.5" fill="rgb(0,0,0)" text-anchor="middle">0.3</text>
<polygon points="155.7,599.6 175.7,599.6 175.7,619.6 155.7,619.6" fill="rgb(221,84,221)"/><polygon points="155.7,599.6 175.7,599.6 175.7,619.6 155.7,619.6" fill="none" stroke="black" stroke-width="1"/><text xml:space="preserve" x="165.7" y="612.433" font-family="Calibri" font-size="7.5" fill="rgb(0,0,0)" text-anchor="middle">0.7</text>
<polygon points="175.7,599.6 195.7,599.6 195.7,619.6 175.7,619.6" fill="rgb(205,0,205)"/><polygon points="175.7,599.6 195.7,599.6 195.7,619.6 175.7,619.6" fill="none" stroke="black" stroke-width="1"/><text xml:space="preserve" x="185.7" y="612.433" font-family="Calibri" font-size="7.5" fill="rgb(255,255,255)" text-anchor="middle">1.0</text>
</svg>
