<?xml version="1.0" standalone="no"?><!DOCTYPE svg PUBLIC "-//W3C//DTD SVG 1.1//EN" "http://www.w3.org/Graphics/SVG/1.1/DTD/svg11.dtd">
<svg width="308.4" height="583.6" version="1.1" xmlns="http://www.w3.org/2000/svg">
<text xml:space="preserve" x="120.4" y="342.6" font-family="Calibri" font-size="8" text-anchor="end">AL355537.2</text>
<text xml:space="preserve" x="120.4" y="350.6" font-family="Calibri" font-size="8" text-anchor="end">FAM19A4</text>
<text xml:space="preserve" x="120.4" y="358.6" font-family="Calibri" font-size="8" text-anchor="end">ZPBP</text>
<text xml:space="preserve" x="120.4" y="366.6" font-family="Calibri" font-size="8" text-anchor="end">CPNE4</text>
<text xml:space="preserve" x="120.4" y="374.6" font-family="Calibri" font-size="8" text-anchor="end">PRKCH</text>
<text xml:space="preserve" x="120.4" y="382.6" font-family="Calibri" font-size="8" text-anchor="end">AL359220.1</text>
<text xml:space="preserve" x="131.4" y="331.6" font-family="Calibri" font-size="8" transform="rotate(270 131.4 331.6)">c3</text>
<text xml:space="preserve" x="139.4" y="331.6" font-family="Calibri" font-size="8" transform="rotate(270 139.4 331.6)">c1</text>
<text xml:space="preserve" x="147.4" y="331.6" font-family="Calibri" font-size="8" transform="rotate(270 147.4 331.6)">c5</text>
<text xml:space="preserve" x="155.4" y="331.6" font-family="Calibri" font-size="8" transform="rotate(270 155.4 331.6)">c4</text>
<text xml:space="preserve" x="163.4" y="331.6" font-family="Calibri" font-size="8" transform="rotate(270 163.4 331.6)">c2</text>
<text xml:space="preserve" x="181.4" y="331.6" font-family="Calibri" font-size="8" transform="rotate(270 181.4 331.6)">c3_mean</text>
<text xml:space="preserve" x="189.4" y="331.6" font-family="Calibri" font-size="8" transform="rotate(270 189.4 331.6)">c1_mean</text>
<text xml:space="preserve" x="197.4" y="331.6" font-family="Calibri" font-size="8" transform="rotate(270 197.4 331.6)">c5_mean</text>
<text xml:space="preserve" x="205.4" y="331.6" font-family="Calibri" font-size="8" transform="rotate(270 205.4 331.6)">c4_mean</text>
<text xml:space="preserve" x="213.4" y="331.6" font-family="Calibri" font-size="8" transform="rotate(270 213.4 331.6)">c2_mean</text>
<text xml:space="preserve" x="231.4" y="331.6" font-family="Calibri" font-size="8" transform="rotate(270 231.4 331.6)">transcription_factor</text>
<text xml:space="preserve" x="239.4" y="331.6" font-family="Calibri" font-size="8" transform="rotate(270 239.4 331.6)">transmembrane_signal_receptor</text>
<text xml:space="preserve" x="247.4" y="331.6" font-family="Calibri" font-size="8" transform="rotate(270 247.4 331.6)">growth_factor</text>
<text xml:space="preserve" x="255.4" y="331.6" font-family="Calibri" font-size="8" transform="rotate(270 255.4 331.6)">peptide_hormone</text>
<text xml:space="preserve" x="263.4" y="331.6" font-family="Calibri" font-size="8" transform="rotate(270 263.4 331.6)">cytoskeletal_protein</text>
<text xml:space="preserve" x="271.4" y="331.6" font-family="Calibri" font-size="8" transform="rotate(270 271.4 331.6)">ion_channel</text>
<text xml:space="preserve" x="279.4" y="331.6" font-family="Calibri" font-size="8" transform="rotate(270 279.4 331.6)">integrin</text>
<text xml:space="preserve" x="287.4" y="331.6" font-family="Calibri" font-size="8" transform="rotate(270 287.4 331.6)">extracellular_matrix_protein</text>
<polygon points="124.4,335.6 132.4,335.6 132.4,343.6 124.4,343.6" fill="rgb(127,230,0)"/><text xml:space="preserve" x="128.4" y="342.433" font-family="Calibri" font-size="7.5" fill="rgb(0,0,0)" text-anchor="middle">2</text>
<polygon points="132.4,335.6 140.4,335.6 140.4,343.6 132.4,343.6" fill="rgb(127,230,0)"/><text xml:space="preserve" x="136.4" y="342.433" font-family="Calibri" font-size="7.5" fill="rgb(0,0,0)" text-anchor="middle">2</text>
<polygon points="140.4,335.6 148.4,335.6 148.4,343.6 140.4,343.6" fill="rgb(230,127,0)"/><text xml:space="preserve" x="144.4" y="342.433" font-family="Calibri" font-size="7.5" fill="rgb(0,0,0)" text-anchor="middle">4</text>
<polygon points="148.4,335.6 156.4,335.6 156.4,343.6 148.4,343.6" fill="rgb(127,230,0)"/><text xml:space="preserve" x="152.4" y="342.433" font-family="Calibri" font-size="7.5" fill="rgb(0,0,0)" text-anchor="middle">2</text>
<polygon points="156.4,335.6 164.4,335.6 164.4,343.6 156.4,343.6" fill="rgb(127,230,0)"/><text xml:space="preserve" x="160.4" y="342.433" font-family="Calibri" font-size="7.5" fill="rgb(0,0,0)" text-anchor="middle">2</text>
<polygon points="174.4,335.6 182.4,335.6 182.4,343.6 174.4,343.6" fill="rgb(0,27,135)"/>
<polygon points="182.4,335.6 190.4,335.6 190.4,343.6 182.4,343.6" fill="rgb(1,32,135)"/>
<polygon points="190.4,335.6 198.4,335.6 198.4,343.6 190.4,343.6" fill="rgb(45,206,145)"/>
<polygon points="198.4,335.6 206.4,335.6 206.4,343.6 198.4,343.6" fill="rgb(19,103,139)"/>
<polygon points="206.4,335.6 214.4,335.6 214.4,343.6 206.4,343.6" fill="rgb(9,62,137)"/>
<polygon points="224.4,335.6 232.4,335.6 232.4,343.6 224.4,343.6" fill="rgb(255,255,255)"/>
<polygon points="232.4,335.6 240.4,335.6 240.4,343.6 232.4,343.6" fill="rgb(255,255,255)"/>
<polygon points="240.4,335.6 248.4,335.6 248.4,343.6 240.4,343.6" fill="rgb(255,255,255)"/>
<polygon points="248.4,335.6 256.4,335.6 256.4,343.6 248.4,343.6" fill="rgb(255,255,255)"/>
<polygon points="256.4,335.6 264.4,335.6 264.4,343.6 256.4,343.6" fill="rgb(255,255,255)"/>
<polygon points="264.4,335.6 272.4,335.6 272.4,343.6 264.4,343.6" fill="rgb(255,255,255)"/>
<polygon points="272.4,335.6 280.4,335.6 280.4,343.6 272.4,343.6" fill="rgb(255,255,255)"/>
<polygon points="280.4,335.6 288.4,335.6 288.4,343.6 280.4,343.6" fill="rgb(255,255,255)"/>
<polygon points="124.4,343.6 132.4,343.6 132.4,351.6 124.4,351.6" fill="rgb(127,230,0)"/><text xml:space="preserve" x="128.4" y="350.433" font-family="Calibri" font-size="7.5" fill="rgb(0,0,0)" text-anchor="middle">2</text>
<polygon points="132.4,343.6 140.4,343.6 140.4,351.6 132.4,351.6" fill="rgb(127,230,0)"/><text xml:space="preserve" x="136.4" y="350.433" font-family="Calibri" font-size="7.5" fill="rgb(0,0,0)" text-anchor="middle">2</text>
<polygon points="140.4,343.6 148.4,343.6 148.4,351.6 140.4,351.6" fill="rgb(230,127,0)"/><text xml:space="preserve" x="144.4" y="350.433" font-family="Calibri" font-size="7.5" fill="rgb(0,0,0)" text-anchor="middle">4</text>
<polygon points="148.4,343.6 156.4,343.6 156.4,351.6 148.4,351.6" fill="rgb(127,230,0)"/><text xml:space="preserve" x="152.4" y="350.433" font-family="Calibri" font-size="7.5" fill="rgb(0,0,0)" text-anchor="middle">2</text>
<polygon points="156.4,343.6 164.4,343.6 164.4,351.6 156.4,351.6" fill="rgb(127,230,0)"/><text xml:space="preserve" x="160.4" y="350.433" font-family="Calibri" font-size="7.5" fill="rgb(0,0,0)" text-anchor="middle">2</text>
<polygon points="174.4,343.6 182.4,343.6 182.4,351.6 174.4,351.6" fill="rgb(4,46,136)"/>
<polygon points="182.4,343.6 190.4,343.6 190.4,351.6 182.4,351.6" fill="rgb(9,65,137)"/>
<polygon points="190.4,343.6 198.4,343.6 198.4,351.6 190.4,351.6" fill="rgb(31,148,141)"/>
<polygon points="198.4,343.6 206.4,343.6 206.4,351.6 198.4,351.6" fill="rgb(0,29,135)"/>
<polygon points="206.4,343.6 214.4,343.6 214.4,351.6 206.4,351.6" fill="rgb(2,37,135)"/>
<polygon points="224.4,343.6 232.4,343.6 232.4,351.6 224.4,351.6" fill="rgb(255,255,255)"/>
<polygon points="232.4,343.6 240.4,343.6 240.4,351.6 232.4,351.6" fill="rgb(255,255,255)"/>
<polygon points="240.4,343.6 248.4,343.6 248.4,351.6 240.4,351.6" fill="rgb(255,255,255)"/>
<polygon points="248.4,343.6 256.4,343.6 256.4,351.6 248.4,351.6" fill="rgb(255,255,255)"/>
<polygon points="256.4,343.6 264.4,343.6 264.4,351.6 256.4,351.6" fill="rgb(255,255,255)"/>
<polygon points="264.4,343.6 272.4,343.6 272.4,351.6 264.4,351.6" fill="rgb(255,255,255)"/>
<polygon points="272.4,343.6 280.4,343.6 280.4,351.6 272.4,351.6" fill="rgb(255,255,255)"/>
<polygon points="280.4,343.6 288.4,343.6 288.4,351.6 280.4,351.6" fill="rgb(255,255,255)"/>
<polygon points="124.4,351.6 132.4,351.6 132.4,359.6 124.4,359.6" fill="rgb(127,230,0)"/><text xml:space="preserve" x="128.4" y="358.433" font-family="Calibri" font-size="7.5" fill="rgb(0,0,0)" text-anchor="middle">2</text>
<polygon points="132.4,351.6 140.4,351.6 140.4,359.6 132.4,359.6" fill="rgb(127,230,0)"/><text xml:space="preserve" x="136.4" y="358.433" font-family="Calibri" font-size="7.5" fill="rgb(0,0,0)" text-anchor="middle">2</text>
<polygon points="140.4,351.6 148.4,351.6 148.4,359.6 140.4,359.6" fill="rgb(230,127,0)"/><text xml:space="preserve" x="144.4" y="358.433" font-family="Calibri" font-size="7.5" fill="rgb(0,0,0)" text-anchor="middle">4</text>
<polygon points="148.4,351.6 156.4,351.6 156.4,359.6 148.4,359.6" fill="rgb(127,230,0)"/><text xml:space="preserve" x="152.4" y="358.433" font-family="Calibri" font-size="7.5" fill="rgb(0,0,0)" text-anchor="middle">2</text>
<polygon points="156.4,351.6 164.4,351.6 164.4,359.6 156.4,359.6" fill="rgb(127,230,0)"/><text xml:space="preserve" x="160.4" y="358.433" font-family="Calibri" font-size="7.5" fill="rgb(0,0,0)" text-anchor="middle">2</text>
<polygon points="174.4,351.6 182.4,351.6 182.4,359.6 174.4,359.6" fill="rgb(0,27,135)"/>
<polygon points="182.4,351.6 190.4,351.6 190.4,359.6 182.4,359.6" fill="rgb(0,27,135)"/>
<polygon points="190.4,351.6 198.4,351.6 198.4,359.6 190.4,359.6" fill="rgb(25,128,140)"/>
<polygon points="198.4,351.6 206.4,351.6 206.4,359.6 198.4,359.6" fill="rgb(9,64,137)"/>
<polygon points="206.4,351.6 214.4,351.6 214.4,359.6 206.4,359.6" fill="rgb(0,27,135)"/>
<polygon points="224.4,351.6 232.4,351.6 232.4,359.6 224.4,359.6" fill="rgb(255,255,255)"/>
<polygon points="232.4,351.6 240.4,351.6 240.4,359.6 232.4,359.6" fill="rgb(255,255,255)"/>
<polygon points="240.4,351.6 248.4,351.6 248.4,359.6 240.4,359.6" fill="rgb(255,255,255)"/>
<polygon points="248.4,351.6 256.4,351.6 256.4,359.6 248.4,359.6" fill="rgb(255,255,255)"/>
<polygon points="256.4,351.6 264.4,351.6 264.4,359.6 256.4,359.6" fill="rgb(255,255,255)"/>
<polygon points="264.4,351.6 272.4,351.6 272.4,359.6 264.4,359.6" fill="rgb(255,255,255)"/>
<polygon points="272.4,351.6 280.4,351.6 280.4,359.6 272.4,359.6" fill="rgb(255,255,255)"/>
<polygon points="280.4,351.6 288.4,351.6 288.4,359.6 280.4,359.6" fill="rgb(255,255,255)"/>
<polygon points="124.4,359.6 132.4,359.6 132.4,367.6 124.4,367.6" fill="rgb(127,230,0)"/><text xml:space="preserve" x="128.4" y="366.433" font-family="Calibri" font-size="7.5" fill="rgb(0,0,0)" text-anchor="middle">2</text>
<polygon points="132.4,359.6 140.4,359.6 140.4,367.6 132.4,367.6" fill="rgb(127,230,0)"/><text xml:space="preserve" x="136.4" y="366.433" font-family="Calibri" font-size="7.5" fill="rgb(0,0,0)" text-anchor="middle">2</text>
<polygon points="140.4,359.6 148.4,359.6 148.4,367.6 140.4,367.6" fill="rgb(230,127,0)"/><text xml:space="preserve" x="144.4" y="366.433" font-family="Calibri" font-size="7.5" fill="rgb(0,0,0)" text-anchor="middle">4</text>
<polygon points="148.4,359.6 156.4,359.6 156.4,367.6 148.4,367.6" fill="rgb(127,230,0)"/><text xml:space="preserve" x="152.4" y="366.433" font-family="Calibri" font-size="7.5" fill="rgb(0,0,0)" text-anchor="middle">2</text>
<polygon points="156.4,359.6 164.4,359.6 164.4,367.6 156.4,367.6" fill="rgb(127,230,0)"/><text xml:space="preserve" x="160.4" y="366.433" font-family="Calibri" font-size="7.5" fill="rgb(0,0,0)" text-anchor="middle">2</text>
<polygon points="174.4,359.6 182.4,359.6 182.4,367.6 174.4,367.6" fill="rgb(2,35,135)"/>
<polygon points="182.4,359.6 190.4,359.6 190.4,367.6 182.4,367.6" fill="rgb(3,42,135)"/>
<polygon points="190.4,359.6 198.4,359.6 198.4,367.6 190.4,367.6" fill="rgb(30,146,141)"/>
<polygon points="198.4,359.6 206.4,359.6 206.4,367.6 198.4,367.6" fill="rgb(2,37,135)"/>
<polygon points="206.4,359.6 214.4,359.6 214.4,367.6 206.4,367.6" fill="rgb(4,44,136)"/>
<polygon points="224.4,359.6 232.4,359.6 232.4,367.6 224.4,367.6" fill="rgb(255,255,255)"/>
<polygon points="232.4,359.6 240.4,359.6 240.4,367.6 232.4,367.6" fill="rgb(255,255,255)"/>
<polygon points="240.4,359.6 248.4,359.6 248.4,367.6 240.4,367.6" fill="rgb(255,255,255)"/>
<polygon points="248.4,359.6 256.4,359.6 256.4,367.6 248.4,367.6" fill="rgb(255,255,255)"/>
<polygon points="256.4,359.6 264.4,359.6 264.4,367.6 256.4,367.6" fill="rgb(255,255,255)"/>
<polygon points="264.4,359.6 272.4,359.6 272.4,367.6 264.4,367.6" fill="rgb(255,255,255)"/>
<polygon points="272.4,359.6 280.4,359.6 280.4,367.6 272.4,367.6" fill="rgb(255,255,255)"/>
<polygon points="280.4,359.6 288.4,359.6 288.4,367.6 280.4,367.6" fill="rgb(255,255,255)"/>
<polygon points="124.4,367.6 132.4,367.6 132.4,375.6 124.4,375.6" fill="rgb(127,230,0)"/><text xml:space="preserve" x="128.4" y="374.433" font-family="Calibri" font-size="7.5" fill="rgb(0,0,0)" text-anchor="middle">2</text>
<polygon points="132.4,367.6 140.4,367.6 140.4,375.6 132.4,375.6" fill="rgb(127,230,0)"/><text xml:space="preserve" x="136.4" y="374.433" font-family="Calibri" font-size="7.5" fill="rgb(0,0,0)" text-anchor="middle">2</text>
<polygon points="140.4,367.6 148.4,367.6 148.4,375.6 140.4,375.6" fill="rgb(230,127,0)"/><text xml:space="preserve" x="144.4" y="374.433" font-family="Calibri" font-size="7.5" fill="rgb(0,0,0)" text-anchor="middle">4</text>
<polygon points="148.4,367.6 156.4,367.6 156.4,375.6 148.4,375.6" fill="rgb(127,230,0)"/><text xml:space="preserve" x="152.4" y="374.433" font-family="Calibri" font-size="7.5" fill="rgb(0,0,0)" text-anchor="middle">2</text>
<polygon points="156.4,367.6 164.4,367.6 164.4,375.6 156.4,375.6" fill="rgb(127,230,0)"/><text xml:space="preserve" x="160.4" y="374.433" font-family="Calibri" font-size="7.5" fill="rgb(0,0,0)" text-anchor="middle">2</text>
<polygon points="174.4,367.6 182.4,367.6 182.4,375.6 174.4,375.6" fill="rgb(8,60,136)"/>
<polygon points="182.4,367.6 190.4,367.6 190.4,375.6 182.4,375.6" fill="rgb(2,37,135)"/>
<polygon points="190.4,367.6 198.4,367.6 198.4,375.6 190.4,375.6" fill="rgb(30,147,141)"/>
<polygon points="198.4,367.6 206.4,367.6 206.4,375.6 198.4,375.6" fill="rgb(0,30,135)"/>
<polygon points="206.4,367.6 214.4,367.6 214.4,375.6 206.4,375.6" fill="rgb(0,28,135)"/>
<polygon points="224.4,367.6 232.4,367.6 232.4,375.6 224.4,375.6" fill="rgb(255,255,255)"/>
<polygon points="232.4,367.6 240.4,367.6 240.4,375.6 232.4,375.6" fill="rgb(255,255,255)"/>
<polygon points="240.4,367.6 248.4,367.6 248.4,375.6 240.4,375.6" fill="rgb(255,255,255)"/>
<polygon points="248.4,367.6 256.4,367.6 256.4,375.6 248.4,375.6" fill="rgb(255,255,255)"/>
<polygon points="256.4,367.6 264.4,367.6 264.4,375.6 256.4,375.6" fill="rgb(255,255,255)"/>
<polygon points="264.4,367.6 272.4,367.6 272.4,375.6 264.4,375.6" fill="rgb(255,255,255)"/>
<polygon points="272.4,367.6 280.4,367.6 280.4,375.6 272.4,375.6" fill="rgb(255,255,255)"/>
<polygon points="280.4,367.6 288.4,367.6 288.4,375.6 280.4,375.6" fill="rgb(255,255,255)"/>
<polygon points="124.4,375.6 132.4,375.6 132.4,383.6 124.4,383.6" fill="rgb(127,230,0)"/><text xml:space="preserve" x="128.4" y="382.433" font-family="Calibri" font-size="7.5" fill="rgb(0,0,0)" text-anchor="middle">2</text>
<polygon points="132.4,375.6 140.4,375.6 140.4,383.6 132.4,383.6" fill="rgb(127,230,0)"/><text xml:space="preserve" x="136.4" y="382.433" font-family="Calibri" font-size="7.5" fill="rgb(0,0,0)" text-anchor="middle">2</text>
<polygon points="140.4,375.6 148.4,375.6 148.4,383.6 140.4,383.6" fill="rgb(230,127,0)"/><text xml:space="preserve" x="144.4" y="382.433" font-family="Calibri" font-size="7.5" fill="rgb(0,0,0)" text-anchor="middle">4</text>
<polygon points="148.4,375.6 156.4,375.6 156.4,383.6 148.4,383.6" fill="rgb(127,230,0)"/><text xml:space="preserve" x="152.4" y="382.433" font-family="Calibri" font-size="7.5" fill="rgb(0,0,0)" text-anchor="middle">2</text>
<polygon points="156.4,375.6 164.4,375.6 164.4,383.6 156.4,383.6" fill="rgb(127,230,0)"/><text xml:space="preserve" x="160.4" y="382.433" font-family="Calibri" font-size="7.5" fill="rgb(0,0,0)" text-anchor="middle">2</text>
<polygon points="174.4,375.6 182.4,375.6 182.4,383.6 174.4,383.6" fill="rgb(5,50,136)"/>
<polygon points="182.4,375.6 190.4,375.6 190.4,383.6 182.4,383.6" fill="rgb(3,41,135)"/>
<polygon points="190.4,375.6 198.4,375.6 198.4,383.6 190.4,383.6" fill="rgb(42,193,144)"/>
<polygon points="198.4,375.6 206.4,375.6 206.4,383.6 198.4,383.6" fill="rgb(0,28,135)"/>
<polygon points="206.4,375.6 214.4,375.6 214.4,383.6 206.4,383.6" fill="rgb(1,32,135)"/>
<polygon points="224.4,375.6 232.4,375.6 232.4,383.6 224.4,383.6" fill="rgb(255,255,255)"/>
<polygon points="232.4,375.6 240.4,375.6 240.4,383.6 232.4,383.6" fill="rgb(255,255,255)"/>
<polygon points="240.4,375.6 248.4,375.6 248.4,383.6 240.4,383.6" fill="rgb(255,255,255)"/>
<polygon points="248.4,375.6 256.4,375.6 256.4,383.6 248.4,383.6" fill="rgb(255,255,255)"/>
<polygon points="256.4,375.6 264.4,375.6 264.4,383.6 256.4,383.6" fill="rgb(255,255,255)"/>
<polygon points="264.4,375.6 272.4,375.6 272.4,383.6 264.4,383.6" fill="rgb(255,255,255)"/>
<polygon points="272.4,375.6 280.4,375.6 280.4,383.6 272.4,383.6" fill="rgb(255,255,255)"/>
<polygon points="280.4,375.6 288.4,375.6 288.4,383.6 280.4,383.6" fill="rgb(255,255,255)"/>
<polygon points="124.4,335.6 164.4,335.6 164.4,383.6 124.4,383.6" fill="none" stroke="black" stroke-width="1"/>
<polygon points="174.4,335.6 214.4,335.6 214.4,383.6 174.4,383.6" fill="none" stroke="black" stroke-width="1"/>
<polygon points="224.4,335.6 288.4,335.6 288.4,383.6 224.4,383.6" fill="none" stroke="black" stroke-width="1"/>
<text xml:space="preserve" x="154.2" y="416.6" font-family="Calibri" font-size="8" text-anchor="middle">ClusterAssignment</text>
<polygon points="104.2,423.6 124.2,423.6 124.2,443.6 104.2,443.6" fill="rgb(0,205,0)"/><polygon points="104.2,423.6 124.2,423.6 124.2,443.6 104.2,443.6" fill="none" stroke="black" stroke-width="1"/><text xml:space="preserve" x="114.2" y="436.433" font-family="Calibri" font-size="7.5" fill="rgb(255,255,255)" text-anchor="middle">1.0</text>
<polygon points="124.2,423.6 144.2,423.6 144.2,443.6 124.2,443.6" fill="rgb(127,230,0)"/><polygon points="124.2,423.6 144.2,423.6 144.2,443.6 124.2,443.6" fill="none" stroke="black" stroke-width="1"/><text xml:space="preserve" x="134.2" y="436.433" font-family="Calibri" font-size="7.5" fill="rgb(0,0,0)" text-anchor="middle">2.0</text>
<polygon points="144.2,423.6 164.2,423.6 164.2,443.6 144.2,443.6" fill="rgb(255,255,0)"/><polygon points="144.2,423.6 164.2,423.6 164.2,443.6 144.2,443.6" fill="none" stroke="black" stroke-width="1"/><text xml:space="preserve" x="154.2" y="436.433" font-family="Calibri" font-size="7.5" fill="rgb(0,0,0)" text-anchor="middle">3.0</text>
<polygon points="164.2,423.6 184.2,423.6 184.2,443.6 164.2,443.6" fill="rgb(230,127,0)"/><polygon points="164.2,423.6 184.2,423.6 184.2,443.6 164.2,443.6" fill="none" stroke="black" stroke-width="1"/><text xml:space="preserve" x="174.2" y="436.433" font-family="Calibri" font-size="7.5" fill="rgb(0,0,0)" text-anchor="middle">4.0</text>
<polygon points="184.2,423.6 204.2,423.6 204.2,443.6 184.2,443.6" fill="rgb(205,0,0)"/><polygon points="184.2,423.6 204.2,423.6 204.2,443.6 184.2,443.6" fill="none" stroke="black" stroke-width="1"/><text xml:space="preserve" x="194.2" y="436.433" font-family="Calibri" font-size="7.5" fill="rgb(255,255,255)" text-anchor="middle">5.0</text>
<text xml:space="preserve" x="154.2" y="476.6" font-family="Calibri" font-size="8" text-anchor="middle">Expression</text>
<polygon points="104.2,483.6 124.2,483.6 124.2,503.6 104.2,503.6" fill="rgb(0,27,135)"/><polygon points="104.2,483.6 124.2,483.6 124.2,503.6 104.2,503.6" fill="none" stroke="black" stroke-width="1"/><text xml:space="preserve" x="114.2" y="496.433" font-family="Calibri" font-size="7.5" fill="rgb(255,255,255)" text-anchor="middle">0.0</text>
<polygon points="124.2,483.6 144.2,483.6 144.2,503.6 124.2,503.6" fill="rgb(24,123,140)"/><polygon points="124.2,483.6 144.2,483.6 144.2,503.6 124.2,503.6" fill="none" stroke="black" stroke-width="1"/><text xml:space="preserve" x="134.2" y="496.433" font-family="Calibri" font-size="7.5" fill="rgb(255,255,255)" text-anchor="middle">0.8</text>
<polygon points="144.2,483.6 164.2,483.6 164.2,503.6 144.2,503.6" fill="rgb(49,219,146)"/><polygon points="144.2,483.6 164.2,483.6 164.2,503.6 144.2,503.6" fill="none" stroke="black" stroke-width="1"/><text xml:space="preserve" x="154.2" y="496.433" font-family="Calibri" font-size="7.5" fill="rgb(0,0,0)" text-anchor="middle">1.5</text>
<polygon points="164.2,483.6 184.2,483.6 184.2,503.6 164.2,503.6" fill="rgb(150,206,73)"/><polygon points="164.2,483.6 184.2,483.6 184.2,503.6 164.2,503.6" fill="none" stroke="black" stroke-width="1"/><text xml:space="preserve" x="174.2" y="496.433" font-family="Calibri" font-size="7.5" fill="rgb(0,0,0)" text-anchor="middle">2.2</text>
<polygon points="184.2,483.6 204.2,483.6 204.2,503.6 184.2,503.6" fill="rgb(252,194,1)"/><polygon points="184.2,483.6 204.2,483.6 204.2,503.6 184.2,503.6" fill="none" stroke="black" stroke-width="1"/><text xml:space="preserve" x="194.2" y="496.433" font-family="Calibri" font-size="7.5" fill="rgb(0,0,0)" text-anchor="middle">3.0</text>
<text xml:space="preserve" x="154.2" y="536.6" font-family="Calibri" font-size="8" text-anchor="middle">PANTHERclass</text>
<polygon points="104.2,543.6 124.2,543.6 124.2,563.6 104.2,563.6" fill="rgb(255,255,255)"/><polygon points="104.2,543.6 124.2,543.6 124.2,563.6 104.2,563.6" fill="none" stroke="black" stroke-width="1"/><text xml:space="preserve" x="114.2" y="556.433" font-family="Calibri" font-size="7.5" fill="rgb(0,0,0)" text-anchor="middle">0.0</text>
<polygon points="124.2,543.6 144.2,543.6 144.2,563.6 124.2,563.6" fill="rgb(242,191,242)"/><polygon points="124.2,543.6 144.2,543.6 144.2,563.6 124.2,563.6" fill="none" stroke="black" stroke-width="1"/><text xml:space="preserve" x="134.2" y="556.433" font-family="Calibri" font-size="7.5" fill="rgb(0,0,0)" text-anchor="middle">0.2</text>
<polygon points="144.2,543.6 164.2,543.6 164.2,563.6 144.2,563.6" fill="rgb(230,127,230)"/><polygon points="144.2,543.6 164.2,543.6 164.2,563.6 144.2,563.6" fill="none" stroke="black" stroke-width="1"/><text xml:space="preserve" x="154.2" y="556.433" font-family="Calibri" font-size="7.5" fill="rgb(0,0,0)" text-anchor="middle">0.5</text>
<polygon points="164.2,543.6 184.2,543.6 184.2,563.6 164.2,563.6" fill="rgb(217,63,217)"/><polygon points="164.2,543.6 184.2,543.6 184.2,563.6 164.2,563.6" fill="none" stroke="black" stroke-width="1"/><text xml:space="preserve" x="174.2" y="556.433" font-family="Calibri" font-size="7.5" fill="rgb(255,255,255)" text-anchor="middle">0.8</text>
<polygon points="184.2,543.6 204.2,543.6 204.2,563.6 184.2,563.6" fill="rgb(205,0,205)"/><polygon points="184.2,543.6 204.2,543.6 204.2,563.6 184.2,563.6" fill="none" stroke="black" stroke-width="1"/><text xml:space="preserve" x="194.2" y="556.433" font-family="Calibri" font-size="7.5" fill="rgb(255,255,255)" text-anchor="middle">1.0</text>
</svg>
