<?xml version="1.0" standalone="no"?><!DOCTYPE svg PUBLIC "-//W3C//DTD SVG 1.1//EN" "http://www.w3.org/Graphics/SVG/1.1/DTD/svg11.dtd">
<svg width="291.3" height="615.6" version="1.1" xmlns="http://www.w3.org/2000/svg">
<text xml:space="preserve" x="103.3" y="342.6" font-family="Calibri" font-size="8" text-anchor="end">AGTR2</text>
<text xml:space="preserve" x="103.3" y="350.6" font-family="Calibri" font-size="8" text-anchor="end">HOXA10</text>
<text xml:space="preserve" x="103.3" y="358.6" font-family="Calibri" font-size="8" text-anchor="end">CHMP2B</text>
<text xml:space="preserve" x="103.3" y="366.6" font-family="Calibri" font-size="8" text-anchor="end">FAM181B</text>
<text xml:space="preserve" x="103.3" y="374.6" font-family="Calibri" font-size="8" text-anchor="end">CBLN2</text>
<text xml:space="preserve" x="103.3" y="382.6" font-family="Calibri" font-size="8" text-anchor="end">CALB1</text>
<text xml:space="preserve" x="103.3" y="390.6" font-family="Calibri" font-size="8" text-anchor="end">CXCL12</text>
<text xml:space="preserve" x="103.3" y="398.6" font-family="Calibri" font-size="8" text-anchor="end">NDNF</text>
<text xml:space="preserve" x="103.3" y="406.6" font-family="Calibri" font-size="8" text-anchor="end">HOXD9</text>
<text xml:space="preserve" x="103.3" y="414.6" font-family="Calibri" font-size="8" text-anchor="end">CRH</text>
<text xml:space="preserve" x="114.3" y="331.6" font-family="Calibri" font-size="8" transform="rotate(270 114.3 331.6)">c3</text>
<text xml:space="preserve" x="122.3" y="331.6" font-family="Calibri" font-size="8" transform="rotate(270 122.3 331.6)">c1</text>
<text xml:space="preserve" x="130.3" y="331.6" font-family="Calibri" font-size="8" transform="rotate(270 130.3 331.6)">c5</text>
<text xml:space="preserve" x="138.3" y="331.6" font-family="Calibri" font-size="8" transform="rotate(270 138.3 331.6)">c4</text>
<text xml:space="preserve" x="146.3" y="331.6" font-family="Calibri" font-size="8" transform="rotate(270 146.3 331.6)">c2</text>
<text xml:space="preserve" x="164.3" y="331.6" font-family="Calibri" font-size="8" transform="rotate(270 164.3 331.6)">c3_mean</text>
<text xml:space="preserve" x="172.3" y="331.6" font-family="Calibri" font-size="8" transform="rotate(270 172.3 331.6)">c1_mean</text>
<text xml:space="preserve" x="180.3" y="331.6" font-family="Calibri" font-size="8" transform="rotate(270 180.3 331.6)">c5_mean</text>
<text xml:space="preserve" x="188.3" y="331.6" font-family="Calibri" font-size="8" transform="rotate(270 188.3 331.6)">c4_mean</text>
<text xml:space="preserve" x="196.3" y="331.6" font-family="Calibri" font-size="8" transform="rotate(270 196.3 331.6)">c2_mean</text>
<text xml:space="preserve" x="214.3" y="331.6" font-family="Calibri" font-size="8" transform="rotate(270 214.3 331.6)">transcription_factor</text>
<text xml:space="preserve" x="222.3" y="331.6" font-family="Calibri" font-size="8" transform="rotate(270 222.3 331.6)">transmembrane_signal_receptor</text>
<text xml:space="preserve" x="230.3" y="331.6" font-family="Calibri" font-size="8" transform="rotate(270 230.3 331.6)">growth_factor</text>
<text xml:space="preserve" x="238.3" y="331.6" font-family="Calibri" font-size="8" transform="rotate(270 238.3 331.6)">peptide_hormone</text>
<text xml:space="preserve" x="246.3" y="331.6" font-family="Calibri" font-size="8" transform="rotate(270 246.3 331.6)">cytoskeletal_protein</text>
<text xml:space="preserve" x="254.3" y="331.6" font-family="Calibri" font-size="8" transform="rotate(270 254.3 331.6)">ion_channel</text>
<text xml:space="preserve" x="262.3" y="331.6" font-family="Calibri" font-size="8" transform="rotate(270 262.3 331.6)">integrin</text>
<text xml:space="preserve" x="270.3" y="331.6" font-family="Calibri" font-size="8" transform="rotate(270 270.3 331.6)">extracellular_matrix_protein</text>
<polygon points="107.3,335.6 115.3,335.6 115.3,343.6 107.3,343.6" fill="rgb(127,230,0)"/><text xml:space="preserve" x="111.3" y="342.433" font-family="Calibri" font-size="7.5" fill="rgb(0,0,0)" text-anchor="middle">2</text>
<polygon points="115.3,335.6 123.3,335.6 123.3,343.6 115.3,343.6" fill="rgb(127,230,0)"/><text xml:space="preserve" x="119.3" y="342.433" font-family="Calibri" font-size="7.5" fill="rgb(0,0,0)" text-anchor="middle">2</text>
<polygon points="123.3,335.6 131.3,335.6 131.3,343.6 123.3,343.6" fill="rgb(127,230,0)"/><text xml:space="preserve" x="127.3" y="342.433" font-family="Calibri" font-size="7.5" fill="rgb(0,0,0)" text-anchor="middle">2</text>
<polygon points="131.3,335.6 139.3,335.6 139.3,343.6 131.3,343.6" fill="rgb(230,127,0)"/><text xml:space="preserve" x="135.3" y="342.433" font-family="Calibri" font-size="7.5" fill="rgb(0,0,0)" text-anchor="middle">4</text>
<polygon points="139.3,335.6 147.3,335.6 147.3,343.6 139.3,343.6" fill="rgb(205,0,0)"/><text xml:space="preserve" x="143.3" y="342.433" font-family="Calibri" font-size="7.5" fill="rgb(255,255,255)" text-anchor="middle">5</text>
<polygon points="157.3,335.6 165.3,335.6 165.3,343.6 157.3,343.6" fill="rgb(0,27,135)"/>
<polygon points="165.3,335.6 173.3,335.6 173.3,343.6 165.3,343.6" fill="rgb(1,33,135)"/>
<polygon points="173.3,335.6 181.3,335.6 181.3,343.6 173.3,343.6" fill="rgb(0,28,135)"/>
<polygon points="181.3,335.6 189.3,335.6 189.3,343.6 181.3,343.6" fill="rgb(12,76,137)"/>
<polygon points="189.3,335.6 197.3,335.6 197.3,343.6 189.3,343.6" fill="rgb(55,218,141)"/>
<polygon points="207.3,335.6 215.3,335.6 215.3,343.6 207.3,343.6" fill="rgb(255,255,255)"/>
<polygon points="215.3,335.6 223.3,335.6 223.3,343.6 215.3,343.6" fill="rgb(255,255,255)"/>
<polygon points="223.3,335.6 231.3,335.6 231.3,343.6 223.3,343.6" fill="rgb(255,255,255)"/>
<polygon points="231.3,335.6 239.3,335.6 239.3,343.6 231.3,343.6" fill="rgb(255,255,255)"/>
<polygon points="239.3,335.6 247.3,335.6 247.3,343.6 239.3,343.6" fill="rgb(255,255,255)"/>
<polygon points="247.3,335.6 255.3,335.6 255.3,343.6 247.3,343.6" fill="rgb(255,255,255)"/>
<polygon points="255.3,335.6 263.3,335.6 263.3,343.6 255.3,343.6" fill="rgb(255,255,255)"/>
<polygon points="263.3,335.6 271.3,335.6 271.3,343.6 263.3,343.6" fill="rgb(255,255,255)"/>
<polygon points="107.3,343.6 115.3,343.6 115.3,351.6 107.3,351.6" fill="rgb(127,230,0)"/><text xml:space="preserve" x="111.3" y="350.433" font-family="Calibri" font-size="7.5" fill="rgb(0,0,0)" text-anchor="middle">2</text>
<polygon points="115.3,343.6 123.3,343.6 123.3,351.6 115.3,351.6" fill="rgb(127,230,0)"/><text xml:space="preserve" x="119.3" y="350.433" font-family="Calibri" font-size="7.5" fill="rgb(0,0,0)" text-anchor="middle">2</text>
<polygon points="123.3,343.6 131.3,343.6 131.3,351.6 123.3,351.6" fill="rgb(127,230,0)"/><text xml:space="preserve" x="127.3" y="350.433" font-family="Calibri" font-size="7.5" fill="rgb(0,0,0)" text-anchor="middle">2</text>
<polygon points="131.3,343.6 139.3,343.6 139.3,351.6 131.3,351.6" fill="rgb(230,127,0)"/><text xml:space="preserve" x="135.3" y="350.433" font-family="Calibri" font-size="7.5" fill="rgb(0,0,0)" text-anchor="middle">4</text>
<polygon points="139.3,343.6 147.3,343.6 147.3,351.6 139.3,351.6" fill="rgb(205,0,0)"/><text xml:space="preserve" x="143.3" y="350.433" font-family="Calibri" font-size="7.5" fill="rgb(255,255,255)" text-anchor="middle">5</text>
<polygon points="157.3,343.6 165.3,343.6 165.3,351.6 157.3,351.6" fill="rgb(1,32,135)"/>
<polygon points="165.3,343.6 173.3,343.6 173.3,351.6 165.3,351.6" fill="rgb(0,29,135)"/>
<polygon points="173.3,343.6 181.3,343.6 181.3,351.6 173.3,351.6" fill="rgb(0,30,135)"/>
<polygon points="181.3,343.6 189.3,343.6 189.3,351.6 181.3,351.6" fill="rgb(18,99,139)"/>
<polygon points="189.3,343.6 197.3,343.6 197.3,351.6 189.3,351.6" fill="rgb(78,215,124)"/>
<polygon points="207.3,343.6 215.3,343.6 215.3,351.6 207.3,351.6" fill="rgb(205,0,205)"/>
<polygon points="215.3,343.6 223.3,343.6 223.3,351.6 215.3,351.6" fill="rgb(255,255,255)"/>
<polygon points="223.3,343.6 231.3,343.6 231.3,351.6 223.3,351.6" fill="rgb(255,255,255)"/>
<polygon points="231.3,343.6 239.3,343.6 239.3,351.6 231.3,351.6" fill="rgb(255,255,255)"/>
<polygon points="239.3,343.6 247.3,343.6 247.3,351.6 239.3,351.6" fill="rgb(255,255,255)"/>
<polygon points="247.3,343.6 255.3,343.6 255.3,351.6 247.3,351.6" fill="rgb(255,255,255)"/>
<polygon points="255.3,343.6 263.3,343.6 263.3,351.6 255.3,351.6" fill="rgb(255,255,255)"/>
<polygon points="263.3,343.6 271.3,343.6 271.3,351.6 263.3,351.6" fill="rgb(255,255,255)"/>
<polygon points="107.3,351.6 115.3,351.6 115.3,359.6 107.3,359.6" fill="rgb(127,230,0)"/><text xml:space="preserve" x="111.3" y="358.433" font-family="Calibri" font-size="7.5" fill="rgb(0,0,0)" text-anchor="middle">2</text>
<polygon points="115.3,351.6 123.3,351.6 123.3,359.6 115.3,359.6" fill="rgb(127,230,0)"/><text xml:space="preserve" x="119.3" y="358.433" font-family="Calibri" font-size="7.5" fill="rgb(0,0,0)" text-anchor="middle">2</text>
<polygon points="123.3,351.6 131.3,351.6 131.3,359.6 123.3,359.6" fill="rgb(127,230,0)"/><text xml:space="preserve" x="127.3" y="358.433" font-family="Calibri" font-size="7.5" fill="rgb(0,0,0)" text-anchor="middle">2</text>
<polygon points="131.3,351.6 139.3,351.6 139.3,359.6 131.3,359.6" fill="rgb(230,127,0)"/><text xml:space="preserve" x="135.3" y="358.433" font-family="Calibri" font-size="7.5" fill="rgb(0,0,0)" text-anchor="middle">4</text>
<polygon points="139.3,351.6 147.3,351.6 147.3,359.6 139.3,359.6" fill="rgb(205,0,0)"/><text xml:space="preserve" x="143.3" y="358.433" font-family="Calibri" font-size="7.5" fill="rgb(255,255,255)" text-anchor="middle">5</text>
<polygon points="157.3,351.6 165.3,351.6 165.3,359.6 157.3,359.6" fill="rgb(11,73,137)"/>
<polygon points="165.3,351.6 173.3,351.6 173.3,359.6 165.3,359.6" fill="rgb(8,60,136)"/>
<polygon points="173.3,351.6 181.3,351.6 181.3,359.6 173.3,359.6" fill="rgb(9,62,137)"/>
<polygon points="181.3,351.6 189.3,351.6 189.3,359.6 181.3,359.6" fill="rgb(39,183,143)"/>
<polygon points="189.3,351.6 197.3,351.6 197.3,359.6 189.3,359.6" fill="rgb(49,219,146)"/>
<polygon points="207.3,351.6 215.3,351.6 215.3,359.6 207.3,359.6" fill="rgb(255,255,255)"/>
<polygon points="215.3,351.6 223.3,351.6 223.3,359.6 215.3,359.6" fill="rgb(255,255,255)"/>
<polygon points="223.3,351.6 231.3,351.6 231.3,359.6 223.3,359.6" fill="rgb(255,255,255)"/>
<polygon points="231.3,351.6 239.3,351.6 239.3,359.6 231.3,359.6" fill="rgb(255,255,255)"/>
<polygon points="239.3,351.6 247.3,351.6 247.3,359.6 239.3,359.6" fill="rgb(255,255,255)"/>
<polygon points="247.3,351.6 255.3,351.6 255.3,359.6 247.3,359.6" fill="rgb(255,255,255)"/>
<polygon points="255.3,351.6 263.3,351.6 263.3,359.6 255.3,359.6" fill="rgb(255,255,255)"/>
<polygon points="263.3,351.6 271.3,351.6 271.3,359.6 263.3,359.6" fill="rgb(255,255,255)"/>
<polygon points="107.3,359.6 115.3,359.6 115.3,367.6 107.3,367.6" fill="rgb(127,230,0)"/><text xml:space="preserve" x="111.3" y="366.433" font-family="Calibri" font-size="7.5" fill="rgb(0,0,0)" text-anchor="middle">2</text>
<polygon points="115.3,359.6 123.3,359.6 123.3,367.6 115.3,367.6" fill="rgb(127,230,0)"/><text xml:space="preserve" x="119.3" y="366.433" font-family="Calibri" font-size="7.5" fill="rgb(0,0,0)" text-anchor="middle">2</text>
<polygon points="123.3,359.6 131.3,359.6 131.3,367.6 123.3,367.6" fill="rgb(127,230,0)"/><text xml:space="preserve" x="127.3" y="366.433" font-family="Calibri" font-size="7.5" fill="rgb(0,0,0)" text-anchor="middle">2</text>
<polygon points="131.3,359.6 139.3,359.6 139.3,367.6 131.3,367.6" fill="rgb(230,127,0)"/><text xml:space="preserve" x="135.3" y="366.433" font-family="Calibri" font-size="7.5" fill="rgb(0,0,0)" text-anchor="middle">4</text>
<polygon points="139.3,359.6 147.3,359.6 147.3,367.6 139.3,367.6" fill="rgb(205,0,0)"/><text xml:space="preserve" x="143.3" y="366.433" font-family="Calibri" font-size="7.5" fill="rgb(255,255,255)" text-anchor="middle">5</text>
<polygon points="157.3,359.6 165.3,359.6 165.3,367.6 157.3,367.6" fill="rgb(2,35,135)"/>
<polygon points="165.3,359.6 173.3,359.6 173.3,367.6 165.3,367.6" fill="rgb(1,33,135)"/>
<polygon points="173.3,359.6 181.3,359.6 181.3,367.6 173.3,367.6" fill="rgb(5,47,136)"/>
<polygon points="181.3,359.6 189.3,359.6 189.3,367.6 181.3,367.6" fill="rgb(27,135,141)"/>
<polygon points="189.3,359.6 197.3,359.6 197.3,367.6 189.3,367.6" fill="rgb(46,207,145)"/>
<polygon points="207.3,359.6 215.3,359.6 215.3,367.6 207.3,367.6" fill="rgb(255,255,255)"/>
<polygon points="215.3,359.6 223.3,359.6 223.3,367.6 215.3,367.6" fill="rgb(255,255,255)"/>
<polygon points="223.3,359.6 231.3,359.6 231.3,367.6 223.3,367.6" fill="rgb(255,255,255)"/>
<polygon points="231.3,359.6 239.3,359.6 239.3,367.6 231.3,367.6" fill="rgb(255,255,255)"/>
<polygon points="239.3,359.6 247.3,359.6 247.3,367.6 239.3,367.6" fill="rgb(255,255,255)"/>
<polygon points="247.3,359.6 255.3,359.6 255.3,367.6 247.3,367.6" fill="rgb(255,255,255)"/>
<polygon points="255.3,359.6 263.3,359.6 263.3,367.6 255.3,367.6" fill="rgb(255,255,255)"/>
<polygon points="263.3,359.6 271.3,359.6 271.3,367.6 263.3,367.6" fill="rgb(255,255,255)"/>
<polygon points="107.3,367.6 115.3,367.6 115.3,375.6 107.3,375.6" fill="rgb(127,230,0)"/><text xml:space="preserve" x="111.3" y="374.433" font-family="Calibri" font-size="7.5" fill="rgb(0,0,0)" text-anchor="middle">2</text>
<polygon points="115.3,367.6 123.3,367.6 123.3,375.6 115.3,375.6" fill="rgb(127,230,0)"/><text xml:space="preserve" x="119.3" y="374.433" font-family="Calibri" font-size="7.5" fill="rgb(0,0,0)" text-anchor="middle">2</text>
<polygon points="123.3,367.6 131.3,367.6 131.3,375.6 123.3,375.6" fill="rgb(127,230,0)"/><text xml:space="preserve" x="127.3" y="374.433" font-family="Calibri" font-size="7.5" fill="rgb(0,0,0)" text-anchor="middle">2</text>
<polygon points="131.3,367.6 139.3,367.6 139.3,375.6 131.3,375.6" fill="rgb(230,127,0)"/><text xml:space="preserve" x="135.3" y="374.433" font-family="Calibri" font-size="7.5" fill="rgb(0,0,0)" text-anchor="middle">4</text>
<polygon points="139.3,367.6 147.3,367.6 147.3,375.6 139.3,375.6" fill="rgb(205,0,0)"/><text xml:space="preserve" x="143.3" y="374.433" font-family="Calibri" font-size="7.5" fill="rgb(255,255,255)" text-anchor="middle">5</text>
<polygon points="157.3,367.6 165.3,367.6 165.3,375.6 157.3,375.6" fill="rgb(4,46,136)"/>
<polygon points="165.3,367.6 173.3,367.6 173.3,375.6 165.3,375.6" fill="rgb(5,50,136)"/>
<polygon points="173.3,367.6 181.3,367.6 181.3,375.6 173.3,375.6" fill="rgb(18,101,139)"/>
<polygon points="181.3,367.6 189.3,367.6 189.3,375.6 181.3,375.6" fill="rgb(36,171,143)"/>
<polygon points="189.3,367.6 197.3,367.6 197.3,375.6 189.3,375.6" fill="rgb(81,214,122)"/>
<polygon points="207.3,367.6 215.3,367.6 215.3,375.6 207.3,375.6" fill="rgb(255,255,255)"/>
<polygon points="215.3,367.6 223.3,367.6 223.3,375.6 215.3,375.6" fill="rgb(255,255,255)"/>
<polygon points="223.3,367.6 231.3,367.6 231.3,375.6 223.3,375.6" fill="rgb(255,255,255)"/>
<polygon points="231.3,367.6 239.3,367.6 239.3,375.6 231.3,375.6" fill="rgb(255,255,255)"/>
<polygon points="239.3,367.6 247.3,367.6 247.3,375.6 239.3,375.6" fill="rgb(255,255,255)"/>
<polygon points="247.3,367.6 255.3,367.6 255.3,375.6 247.3,375.6" fill="rgb(255,255,255)"/>
<polygon points="255.3,367.6 263.3,367.6 263.3,375.6 255.3,375.6" fill="rgb(255,255,255)"/>
<polygon points="263.3,367.6 271.3,367.6 271.3,375.6 263.3,375.6" fill="rgb(255,255,255)"/>
<polygon points="107.3,375.6 115.3,375.6 115.3,383.6 107.3,383.6" fill="rgb(127,230,0)"/><text xml:space="preserve" x="111.3" y="382.433" font-family="Calibri" font-size="7.5" fill="rgb(0,0,0)" text-anchor="middle">2</text>
<polygon points="115.3,375.6 123.3,375.6 123.3,383.6 115.3,383.6" fill="rgb(127,230,0)"/><text xml:space="preserve" x="119.3" y="382.433" font-family="Calibri" font-size="7.5" fill="rgb(0,0,0)" text-anchor="middle">2</text>
<polygon points="123.3,375.6 131.3,375.6 131.3,383.6 123.3,383.6" fill="rgb(127,230,0)"/><text xml:space="preserve" x="127.3" y="382.433" font-family="Calibri" font-size="7.5" fill="rgb(0,0,0)" text-anchor="middle">2</text>
<polygon points="131.3,375.6 139.3,375.6 139.3,383.6 131.3,383.6" fill="rgb(230,127,0)"/><text xml:space="preserve" x="135.3" y="382.433" font-family="Calibri" font-size="7.5" fill="rgb(0,0,0)" text-anchor="middle">4</text>
<polygon points="139.3,375.6 147.3,375.6 147.3,383.6 139.3,383.6" fill="rgb(205,0,0)"/><text xml:space="preserve" x="143.3" y="382.433" font-family="Calibri" font-size="7.5" fill="rgb(255,255,255)" text-anchor="middle">5</text>
<polygon points="157.3,375.6 165.3,375.6 165.3,383.6 157.3,383.6" fill="rgb(3,39,135)"/>
<polygon points="165.3,375.6 173.3,375.6 173.3,383.6 165.3,383.6" fill="rgb(7,55,136)"/>
<polygon points="173.3,375.6 181.3,375.6 181.3,383.6 173.3,383.6" fill="rgb(6,53,136)"/>
<polygon points="181.3,375.6 189.3,375.6 189.3,383.6 181.3,383.6" fill="rgb(25,126,140)"/>
<polygon points="189.3,375.6 197.3,375.6 197.3,383.6 189.3,383.6" fill="rgb(47,213,145)"/>
<polygon points="207.3,375.6 215.3,375.6 215.3,383.6 207.3,383.6" fill="rgb(255,255,255)"/>
<polygon points="215.3,375.6 223.3,375.6 223.3,383.6 215.3,383.6" fill="rgb(255,255,255)"/>
<polygon points="223.3,375.6 231.3,375.6 231.3,383.6 223.3,383.6" fill="rgb(255,255,255)"/>
<polygon points="231.3,375.6 239.3,375.6 239.3,383.6 231.3,383.6" fill="rgb(255,255,255)"/>
<polygon points="239.3,375.6 247.3,375.6 247.3,383.6 239.3,383.6" fill="rgb(255,255,255)"/>
<polygon points="247.3,375.6 255.3,375.6 255.3,383.6 247.3,383.6" fill="rgb(255,255,255)"/>
<polygon points="255.3,375.6 263.3,375.6 263.3,383.6 255.3,383.6" fill="rgb(255,255,255)"/>
<polygon points="263.3,375.6 271.3,375.6 271.3,383.6 263.3,383.6" fill="rgb(255,255,255)"/>
<polygon points="107.3,383.6 115.3,383.6 115.3,391.6 107.3,391.6" fill="rgb(127,230,0)"/><text xml:space="preserve" x="111.3" y="390.433" font-family="Calibri" font-size="7.5" fill="rgb(0,0,0)" text-anchor="middle">2</text>
<polygon points="115.3,383.6 123.3,383.6 123.3,391.6 115.3,391.6" fill="rgb(127,230,0)"/><text xml:space="preserve" x="119.3" y="390.433" font-family="Calibri" font-size="7.5" fill="rgb(0,0,0)" text-anchor="middle">2</text>
<polygon points="123.3,383.6 131.3,383.6 131.3,391.6 123.3,391.6" fill="rgb(127,230,0)"/><text xml:space="preserve" x="127.3" y="390.433" font-family="Calibri" font-size="7.5" fill="rgb(0,0,0)" text-anchor="middle">2</text>
<polygon points="131.3,383.6 139.3,383.6 139.3,391.6 131.3,391.6" fill="rgb(230,127,0)"/><text xml:space="preserve" x="135.3" y="390.433" font-family="Calibri" font-size="7.5" fill="rgb(0,0,0)" text-anchor="middle">4</text>
<polygon points="139.3,383.6 147.3,383.6 147.3,391.6 139.3,391.6" fill="rgb(205,0,0)"/><text xml:space="preserve" x="143.3" y="390.433" font-family="Calibri" font-size="7.5" fill="rgb(255,255,255)" text-anchor="middle">5</text>
<polygon points="157.3,383.6 165.3,383.6 165.3,391.6 157.3,391.6" fill="rgb(0,28,135)"/>
<polygon points="165.3,383.6 173.3,383.6 173.3,391.6 165.3,391.6" fill="rgb(0,27,135)"/>
<polygon points="173.3,383.6 181.3,383.6 181.3,391.6 173.3,391.6" fill="rgb(3,39,135)"/>
<polygon points="181.3,383.6 189.3,383.6 189.3,391.6 181.3,391.6" fill="rgb(34,163,142)"/>
<polygon points="189.3,383.6 197.3,383.6 197.3,391.6 189.3,391.6" fill="rgb(65,217,134)"/>
<polygon points="207.3,383.6 215.3,383.6 215.3,391.6 207.3,391.6" fill="rgb(255,255,255)"/>
<polygon points="215.3,383.6 223.3,383.6 223.3,391.6 215.3,391.6" fill="rgb(255,255,255)"/>
<polygon points="223.3,383.6 231.3,383.6 231.3,391.6 223.3,391.6" fill="rgb(205,0,205)"/>
<polygon points="231.3,383.6 239.3,383.6 239.3,391.6 231.3,391.6" fill="rgb(255,255,255)"/>
<polygon points="239.3,383.6 247.3,383.6 247.3,391.6 239.3,391.6" fill="rgb(255,255,255)"/>
<polygon points="247.3,383.6 255.3,383.6 255.3,391.6 247.3,391.6" fill="rgb(255,255,255)"/>
<polygon points="255.3,383.6 263.3,383.6 263.3,391.6 255.3,391.6" fill="rgb(255,255,255)"/>
<polygon points="263.3,383.6 271.3,383.6 271.3,391.6 263.3,391.6" fill="rgb(255,255,255)"/>
<polygon points="107.3,391.6 115.3,391.6 115.3,399.6 107.3,399.6" fill="rgb(127,230,0)"/><text xml:space="preserve" x="111.3" y="398.433" font-family="Calibri" font-size="7.5" fill="rgb(0,0,0)" text-anchor="middle">2</text>
<polygon points="115.3,391.6 123.3,391.6 123.3,399.6 115.3,399.6" fill="rgb(127,230,0)"/><text xml:space="preserve" x="119.3" y="398.433" font-family="Calibri" font-size="7.5" fill="rgb(0,0,0)" text-anchor="middle">2</text>
<polygon points="123.3,391.6 131.3,391.6 131.3,399.6 123.3,399.6" fill="rgb(127,230,0)"/><text xml:space="preserve" x="127.3" y="398.433" font-family="Calibri" font-size="7.5" fill="rgb(0,0,0)" text-anchor="middle">2</text>
<polygon points="131.3,391.6 139.3,391.6 139.3,399.6 131.3,399.6" fill="rgb(230,127,0)"/><text xml:space="preserve" x="135.3" y="398.433" font-family="Calibri" font-size="7.5" fill="rgb(0,0,0)" text-anchor="middle">4</text>
<polygon points="139.3,391.6 147.3,391.6 147.3,399.6 139.3,399.6" fill="rgb(205,0,0)"/><text xml:space="preserve" x="143.3" y="398.433" font-family="Calibri" font-size="7.5" fill="rgb(255,255,255)" text-anchor="middle">5</text>
<polygon points="157.3,391.6 165.3,391.6 165.3,399.6 157.3,399.6" fill="rgb(0,29,135)"/>
<polygon points="165.3,391.6 173.3,391.6 173.3,399.6 165.3,399.6" fill="rgb(1,32,135)"/>
<polygon points="173.3,391.6 181.3,391.6 181.3,399.6 173.3,399.6" fill="rgb(0,28,135)"/>
<polygon points="181.3,391.6 189.3,391.6 189.3,399.6 181.3,399.6" fill="rgb(29,143,141)"/>
<polygon points="189.3,391.6 197.3,391.6 197.3,399.6 189.3,399.6" fill="rgb(85,214,119)"/>
<polygon points="207.3,391.6 215.3,391.6 215.3,399.6 207.3,399.6" fill="rgb(255,255,255)"/>
<polygon points="215.3,391.6 223.3,391.6 223.3,399.6 215.3,399.6" fill="rgb(255,255,255)"/>
<polygon points="223.3,391.6 231.3,391.6 231.3,399.6 223.3,399.6" fill="rgb(255,255,255)"/>
<polygon points="231.3,391.6 239.3,391.6 239.3,399.6 231.3,399.6" fill="rgb(255,255,255)"/>
<polygon points="239.3,391.6 247.3,391.6 247.3,399.6 239.3,399.6" fill="rgb(255,255,255)"/>
<polygon points="247.3,391.6 255.3,391.6 255.3,399.6 247.3,399.6" fill="rgb(255,255,255)"/>
<polygon points="255.3,391.6 263.3,391.6 263.3,399.6 255.3,399.6" fill="rgb(255,255,255)"/>
<polygon points="263.3,391.6 271.3,391.6 271.3,399.6 263.3,399.6" fill="rgb(255,255,255)"/>
<polygon points="107.3,399.6 115.3,399.6 115.3,407.6 107.3,407.6" fill="rgb(127,230,0)"/><text xml:space="preserve" x="111.3" y="406.433" font-family="Calibri" font-size="7.5" fill="rgb(0,0,0)" text-anchor="middle">2</text>
<polygon points="115.3,399.6 123.3,399.6 123.3,407.6 115.3,407.6" fill="rgb(127,230,0)"/><text xml:space="preserve" x="119.3" y="406.433" font-family="Calibri" font-size="7.5" fill="rgb(0,0,0)" text-anchor="middle">2</text>
<polygon points="123.3,399.6 131.3,399.6 131.3,407.6 123.3,407.6" fill="rgb(127,230,0)"/><text xml:space="preserve" x="127.3" y="406.433" font-family="Calibri" font-size="7.5" fill="rgb(0,0,0)" text-anchor="middle">2</text>
<polygon points="131.3,399.6 139.3,399.6 139.3,407.6 131.3,407.6" fill="rgb(230,127,0)"/><text xml:space="preserve" x="135.3" y="406.433" font-family="Calibri" font-size="7.5" fill="rgb(0,0,0)" text-anchor="middle">4</text>
<polygon points="139.3,399.6 147.3,399.6 147.3,407.6 139.3,407.6" fill="rgb(205,0,0)"/><text xml:space="preserve" x="143.3" y="406.433" font-family="Calibri" font-size="7.5" fill="rgb(255,255,255)" text-anchor="middle">5</text>
<polygon points="157.3,399.6 165.3,399.6 165.3,407.6 157.3,407.6" fill="rgb(1,33,135)"/>
<polygon points="165.3,399.6 173.3,399.6 173.3,407.6 165.3,407.6" fill="rgb(0,28,135)"/>
<polygon points="173.3,399.6 181.3,399.6 181.3,407.6 173.3,407.6" fill="rgb(1,32,135)"/>
<polygon points="181.3,399.6 189.3,399.6 189.3,407.6 181.3,407.6" fill="rgb(13,80,138)"/>
<polygon points="189.3,399.6 197.3,399.6 197.3,407.6 189.3,407.6" fill="rgb(48,215,145)"/>
<polygon points="207.3,399.6 215.3,399.6 215.3,407.6 207.3,407.6" fill="rgb(205,0,205)"/>
<polygon points="215.3,399.6 223.3,399.6 223.3,407.6 215.3,407.6" fill="rgb(255,255,255)"/>
<polygon points="223.3,399.6 231.3,399.6 231.3,407.6 223.3,407.6" fill="rgb(255,255,255)"/>
<polygon points="231.3,399.6 239.3,399.6 239.3,407.6 231.3,407.6" fill="rgb(255,255,255)"/>
<polygon points="239.3,399.6 247.3,399.6 247.3,407.6 239.3,407.6" fill="rgb(255,255,255)"/>
<polygon points="247.3,399.6 255.3,399.6 255.3,407.6 247.3,407.6" fill="rgb(255,255,255)"/>
<polygon points="255.3,399.6 263.3,399.6 263.3,407.6 255.3,407.6" fill="rgb(255,255,255)"/>
<polygon points="263.3,399.6 271.3,399.6 271.3,407.6 263.3,407.6" fill="rgb(255,255,255)"/>
<polygon points="107.3,407.6 115.3,407.6 115.3,415.6 107.3,415.6" fill="rgb(127,230,0)"/><text xml:space="preserve" x="111.3" y="414.433" font-family="Calibri" font-size="7.5" fill="rgb(0,0,0)" text-anchor="middle">2</text>
<polygon points="115.3,407.6 123.3,407.6 123.3,415.6 115.3,415.6" fill="rgb(127,230,0)"/><text xml:space="preserve" x="119.3" y="414.433" font-family="Calibri" font-size="7.5" fill="rgb(0,0,0)" text-anchor="middle">2</text>
<polygon points="123.3,407.6 131.3,407.6 131.3,415.6 123.3,415.6" fill="rgb(127,230,0)"/><text xml:space="preserve" x="127.3" y="414.433" font-family="Calibri" font-size="7.5" fill="rgb(0,0,0)" text-anchor="middle">2</text>
<polygon points="131.3,407.6 139.3,407.6 139.3,415.6 131.3,415.6" fill="rgb(230,127,0)"/><text xml:space="preserve" x="135.3" y="414.433" font-family="Calibri" font-size="7.5" fill="rgb(0,0,0)" text-anchor="middle">4</text>
<polygon points="139.3,407.6 147.3,407.6 147.3,415.6 139.3,415.6" fill="rgb(205,0,0)"/><text xml:space="preserve" x="143.3" y="414.433" font-family="Calibri" font-size="7.5" fill="rgb(255,255,255)" text-anchor="middle">5</text>
<polygon points="157.3,407.6 165.3,407.6 165.3,415.6 157.3,415.6" fill="rgb(0,28,135)"/>
<polygon points="165.3,407.6 173.3,407.6 173.3,415.6 165.3,415.6" fill="rgb(0,29,135)"/>
<polygon points="173.3,407.6 181.3,407.6 181.3,415.6 173.3,415.6" fill="rgb(0,27,135)"/>
<polygon points="181.3,407.6 189.3,407.6 189.3,415.6 181.3,415.6" fill="rgb(13,78,137)"/>
<polygon points="189.3,407.6 197.3,407.6 197.3,415.6 189.3,415.6" fill="rgb(252,194,1)"/>
<polygon points="207.3,407.6 215.3,407.6 215.3,415.6 207.3,415.6" fill="rgb(255,255,255)"/>
<polygon points="215.3,407.6 223.3,407.6 223.3,415.6 215.3,415.6" fill="rgb(255,255,255)"/>
<polygon points="223.3,407.6 231.3,407.6 231.3,415.6 223.3,415.6" fill="rgb(255,255,255)"/>
<polygon points="231.3,407.6 239.3,407.6 239.3,415.6 231.3,415.6" fill="rgb(205,0,205)"/>
<polygon points="239.3,407.6 247.3,407.6 247.3,415.6 239.3,415.6" fill="rgb(255,255,255)"/>
<polygon points="247.3,407.6 255.3,407.6 255.3,415.6 247.3,415.6" fill="rgb(255,255,255)"/>
<polygon points="255.3,407.6 263.3,407.6 263.3,415.6 255.3,415.6" fill="rgb(255,255,255)"/>
<polygon points="263.3,407.6 271.3,407.6 271.3,415.6 263.3,415.6" fill="rgb(255,255,255)"/>
<polygon points="107.3,335.6 147.3,335.6 147.3,415.6 107.3,415.6" fill="none" stroke="black" stroke-width="1"/>
<polygon points="157.3,335.6 197.3,335.6 197.3,415.6 157.3,415.6" fill="none" stroke="black" stroke-width="1"/>
<polygon points="207.3,335.6 271.3,335.6 271.3,415.6 207.3,415.6" fill="none" stroke="black" stroke-width="1"/>
<text xml:space="preserve" x="145.65" y="448.6" font-family="Calibri" font-size="8" text-anchor="middle">ClusterAssignment</text>
<polygon points="95.65,455.6 115.65,455.6 115.65,475.6 95.65,475.6" fill="rgb(0,205,0)"/><polygon points="95.65,455.6 115.65,455.6 115.65,475.6 95.65,475.6" fill="none" stroke="black" stroke-width="1"/><text xml:space="preserve" x="105.65" y="468.433" font-family="Calibri" font-size="7.5" fill="rgb(255,255,255)" text-anchor="middle">1.0</text>
<polygon points="115.65,455.6 135.65,455.6 135.65,475.6 115.65,475.6" fill="rgb(127,230,0)"/><polygon points="115.65,455.6 135.65,455.6 135.65,475.6 115.65,475.6" fill="none" stroke="black" stroke-width="1"/><text xml:space="preserve" x="125.65" y="468.433" font-family="Calibri" font-size="7.5" fill="rgb(0,0,0)" text-anchor="middle">2.0</text>
<polygon points="135.65,455.6 155.65,455.6 155.65,475.6 135.65,475.6" fill="rgb(255,255,0)"/><polygon points="135.65,455.6 155.65,455.6 155.65,475.6 135.65,475.6" fill="none" stroke="black" stroke-width="1"/><text xml:space="preserve" x="145.65" y="468.433" font-family="Calibri" font-size="7.5" fill="rgb(0,0,0)" text-anchor="middle">3.0</text>
<polygon points="155.65,455.6 175.65,455.6 175.65,475.6 155.65,475.6" fill="rgb(230,127,0)"/><polygon points="155.65,455.6 175.65,455.6 175.65,475.6 155.65,475.6" fill="none" stroke="black" stroke-width="1"/><text xml:space="preserve" x="165.65" y="468.433" font-family="Calibri" font-size="7.5" fill="rgb(0,0,0)" text-anchor="middle">4.0</text>
<polygon points="175.65,455.6 195.65,455.6 195.65,475.6 175.65,475.6" fill="rgb(205,0,0)"/><polygon points="175.65,455.6 195.65,455.6 195.65,475.6 175.65,475.6" fill="none" stroke="black" stroke-width="1"/><text xml:space="preserve" x="185.65" y="468.433" font-family="Calibri" font-size="7.5" fill="rgb(255,255,255)" text-anchor="middle">5.0</text>
<text xml:space="preserve" x="145.65" y="508.6" font-family="Calibri" font-size="8" text-anchor="middle">Expression</text>
<polygon points="95.65,515.6 115.65,515.6 115.65,535.6 95.65,535.6" fill="rgb(0,27,135)"/><polygon points="95.65,515.6 115.65,515.6 115.65,535.6 95.65,535.6" fill="none" stroke="black" stroke-width="1"/><text xml:space="preserve" x="105.65" y="528.433" font-family="Calibri" font-size="7.5" fill="rgb(255,255,255)" text-anchor="middle">0.0</text>
<polygon points="115.65,515.6 135.65,515.6 135.65,535.6 115.65,535.6" fill="rgb(24,123,140)"/><polygon points="115.65,515.6 135.65,515.6 135.65,535.6 115.65,535.6" fill="none" stroke="black" stroke-width="1"/><text xml:space="preserve" x="125.65" y="528.433" font-family="Calibri" font-size="7.5" fill="rgb(255,255,255)" text-anchor="middle">0.8</text>
<polygon points="135.65,515.6 155.65,515.6 155.65,535.6 135.65,535.6" fill="rgb(49,219,146)"/><polygon points="135.65,515.6 155.65,515.6 155.65,535.6 135.65,535.6" fill="none" stroke="black" stroke-width="1"/><text xml:space="preserve" x="145.65" y="528.433" font-family="Calibri" font-size="7.5" fill="rgb(0,0,0)" text-anchor="middle">1.5</text>
<polygon points="155.65,515.6 175.65,515.6 175.65,535.6 155.65,535.6" fill="rgb(150,206,73)"/><polygon points="155.65,515.6 175.65,515.6 175.65,535.6 155.65,535.6" fill="none" stroke="black" stroke-width="1"/><text xml:space="preserve" x="165.65" y="528.433" font-family="Calibri" font-size="7.5" fill="rgb(0,0,0)" text-anchor="middle">2.2</text>
<polygon points="175.65,515.6 195.65,515.6 195.65,535.6 175.65,535.6" fill="rgb(252,194,1)"/><polygon points="175.65,515.6 195.65,515.6 195.65,535.6 175.65,535.6" fill="none" stroke="black" stroke-width="1"/><text xml:space="preserve" x="185.65" y="528.433" font-family="Calibri" font-size="7.5" fill="rgb(0,0,0)" text-anchor="middle">3.0</text>
<text xml:space="preserve" x="145.65" y="568.6" font-family="Calibri" font-size="8" text-anchor="middle">PANTHERclass</text>
<polygon points="95.65,575.6 115.65,575.6 115.65,595.6 95.65,595.6" fill="rgb(255,255,255)"/><polygon points="95.65,575.6 115.65,575.6 115.65,595.6 95.65,595.6" fill="none" stroke="black" stroke-width="1"/><text xml:space="preserve" x="105.65" y="588.433" font-family="Calibri" font-size="7.5" fill="rgb(0,0,0)" text-anchor="middle">0.0</text>
<polygon points="115.65,575.6 135.65,575.6 135.65,595.6 115.65,595.6" fill="rgb(242,191,242)"/><polygon points="115.65,575.6 135.65,575.6 135.65,595.6 115.65,595.6" fill="none" stroke="black" stroke-width="1"/><text xml:space="preserve" x="125.65" y="588.433" font-family="Calibri" font-size="7.5" fill="rgb(0,0,0)" text-anchor="middle">0.2</text>
<polygon points="135.65,575.6 155.65,575.6 155.65,595.6 135.65,595.6" fill="rgb(230,127,230)"/><polygon points="135.65,575.6 155.65,575.6 155.65,595.6 135.65,595.6" fill="none" stroke="black" stroke-width="1"/><text xml:space="preserve" x="145.65" y="588.433" font-family="Calibri" font-size="7.5" fill="rgb(0,0,0)" text-anchor="middle">0.5</text>
<polygon points="155.65,575.6 175.65,575.6 175.65,595.6 155.65,595.6" fill="rgb(217,63,217)"/><polygon points="155.65,575.6 175.65,575.6 175.65,595.6 155.65,595.6" fill="none" stroke="black" stroke-width="1"/><text xml:space="preserve" x="165.65" y="588.433" font-family="Calibri" font-size="7.5" fill="rgb(255,255,255)" text-anchor="middle">0.8</text>
<polygon points="175.65,575.6 195.65,575.6 195.65,595.6 175.65,595.6" fill="rgb(205,0,205)"/><polygon points="175.65,575.6 195.65,575.6 195.65,595.6 175.65,595.6" fill="none" stroke="black" stroke-width="1"/><text xml:space="preserve" x="185.65" y="588.433" font-family="Calibri" font-size="7.5" fill="rgb(255,255,255)" text-anchor="middle">1.0</text>
</svg>
