<?xml version="1.0" standalone="no"?><!DOCTYPE svg PUBLIC "-//W3C//DTD SVG 1.1//EN" "http://www.w3.org/Graphics/SVG/1.1/DTD/svg11.dtd">
<svg width="328.6" height="655.6" version="1.1" xmlns="http://www.w3.org/2000/svg">
<text xml:space="preserve" x="124.6" y="342.6" font-family="Calibri" font-size="8" text-anchor="end">AC010478.1</text>
<text xml:space="preserve" x="124.6" y="350.6" font-family="Calibri" font-size="8" text-anchor="end">FAR2</text>
<text xml:space="preserve" x="124.6" y="358.6" font-family="Calibri" font-size="8" text-anchor="end">TMC3</text>
<text xml:space="preserve" x="124.6" y="366.6" font-family="Calibri" font-size="8" text-anchor="end">MET</text>
<text xml:space="preserve" x="124.6" y="374.6" font-family="Calibri" font-size="8" text-anchor="end">OPRK1</text>
<text xml:space="preserve" x="124.6" y="382.6" font-family="Calibri" font-size="8" text-anchor="end">NKX6-1</text>
<text xml:space="preserve" x="124.6" y="390.6" font-family="Calibri" font-size="8" text-anchor="end">NFIB</text>
<text xml:space="preserve" x="124.6" y="398.6" font-family="Calibri" font-size="8" text-anchor="end">MSN</text>
<text xml:space="preserve" x="124.6" y="406.6" font-family="Calibri" font-size="8" text-anchor="end">MOXD1</text>
<text xml:space="preserve" x="124.6" y="414.6" font-family="Calibri" font-size="8" text-anchor="end">TMEFF2</text>
<text xml:space="preserve" x="124.6" y="422.6" font-family="Calibri" font-size="8" text-anchor="end">RET</text>
<text xml:space="preserve" x="124.6" y="430.6" font-family="Calibri" font-size="8" text-anchor="end">SLC18A3</text>
<text xml:space="preserve" x="124.6" y="438.6" font-family="Calibri" font-size="8" text-anchor="end">HCN1</text>
<text xml:space="preserve" x="124.6" y="446.6" font-family="Calibri" font-size="8" text-anchor="end">TAC1</text>
<text xml:space="preserve" x="124.6" y="454.6" font-family="Calibri" font-size="8" text-anchor="end">CLIC1</text>
<text xml:space="preserve" x="135.6" y="331.6" font-family="Calibri" font-size="8" transform="rotate(270 135.6 331.6)">c2</text>
<text xml:space="preserve" x="143.6" y="331.6" font-family="Calibri" font-size="8" transform="rotate(270 143.6 331.6)">c5</text>
<text xml:space="preserve" x="151.6" y="331.6" font-family="Calibri" font-size="8" transform="rotate(270 151.6 331.6)">c3</text>
<text xml:space="preserve" x="159.6" y="331.6" font-family="Calibri" font-size="8" transform="rotate(270 159.6 331.6)">c1</text>
<text xml:space="preserve" x="167.6" y="331.6" font-family="Calibri" font-size="8" transform="rotate(270 167.6 331.6)">c6</text>
<text xml:space="preserve" x="175.6" y="331.6" font-family="Calibri" font-size="8" transform="rotate(270 175.6 331.6)">c4</text>
<text xml:space="preserve" x="193.6" y="331.6" font-family="Calibri" font-size="8" transform="rotate(270 193.6 331.6)">c2_mean</text>
<text xml:space="preserve" x="201.6" y="331.6" font-family="Calibri" font-size="8" transform="rotate(270 201.6 331.6)">c5_mean</text>
<text xml:space="preserve" x="209.6" y="331.6" font-family="Calibri" font-size="8" transform="rotate(270 209.6 331.6)">c3_mean</text>
<text xml:space="preserve" x="217.6" y="331.6" font-family="Calibri" font-size="8" transform="rotate(270 217.6 331.6)">c1_mean</text>
<text xml:space="preserve" x="225.6" y="331.6" font-family="Calibri" font-size="8" transform="rotate(270 225.6 331.6)">c6_mean</text>
<text xml:space="preserve" x="233.6" y="331.6" font-family="Calibri" font-size="8" transform="rotate(270 233.6 331.6)">c4_mean</text>
<text xml:space="preserve" x="251.6" y="331.6" font-family="Calibri" font-size="8" transform="rotate(270 251.6 331.6)">transcription_factor</text>
<text xml:space="preserve" x="259.6" y="331.6" font-family="Calibri" font-size="8" transform="rotate(270 259.6 331.6)">transmembrane_signal_receptor</text>
<text xml:space="preserve" x="267.6" y="331.6" font-family="Calibri" font-size="8" transform="rotate(270 267.6 331.6)">growth_factor</text>
<text xml:space="preserve" x="275.6" y="331.6" font-family="Calibri" font-size="8" transform="rotate(270 275.6 331.6)">peptide_hormone</text>
<text xml:space="preserve" x="283.6" y="331.6" font-family="Calibri" font-size="8" transform="rotate(270 283.6 331.6)">cytoskeletal_protein</text>
<text xml:space="preserve" x="291.6" y="331.6" font-family="Calibri" font-size="8" transform="rotate(270 291.6 331.6)">ion_channel</text>
<text xml:space="preserve" x="299.6" y="331.6" font-family="Calibri" font-size="8" transform="rotate(270 299.6 331.6)">integrin</text>
<text xml:space="preserve" x="307.6" y="331.6" font-family="Calibri" font-size="8" transform="rotate(270 307.6 331.6)">extracellular_matrix_protein</text>
<polygon points="128.6,335.6 136.6,335.6 136.6,343.6 128.6,343.6" fill="rgb(230,127,0)"/><text xml:space="preserve" x="132.6" y="342.433" font-family="Calibri" font-size="7.5" fill="rgb(0,0,0)" text-anchor="middle">4</text>
<polygon points="136.6,335.6 144.6,335.6 144.6,343.6 136.6,343.6" fill="rgb(230,127,0)"/><text xml:space="preserve" x="140.6" y="342.433" font-family="Calibri" font-size="7.5" fill="rgb(0,0,0)" text-anchor="middle">4</text>
<polygon points="144.6,335.6 152.6,335.6 152.6,343.6 144.6,343.6" fill="rgb(230,127,0)"/><text xml:space="preserve" x="148.6" y="342.433" font-family="Calibri" font-size="7.5" fill="rgb(0,0,0)" text-anchor="middle">4</text>
<polygon points="152.6,335.6 160.6,335.6 160.6,343.6 152.6,343.6" fill="rgb(230,127,0)"/><text xml:space="preserve" x="156.6" y="342.433" font-family="Calibri" font-size="7.5" fill="rgb(0,0,0)" text-anchor="middle">4</text>
<polygon points="160.6,335.6 168.6,335.6 168.6,343.6 160.6,343.6" fill="rgb(230,127,0)"/><text xml:space="preserve" x="164.6" y="342.433" font-family="Calibri" font-size="7.5" fill="rgb(0,0,0)" text-anchor="middle">4</text>
<polygon points="168.6,335.6 176.6,335.6 176.6,343.6 168.6,343.6" fill="rgb(205,0,0)"/><text xml:space="preserve" x="172.6" y="342.433" font-family="Calibri" font-size="7.5" fill="rgb(255,255,255)" text-anchor="middle">5</text>
<polygon points="186.6,335.6 194.6,335.6 194.6,343.6 186.6,343.6" fill="rgb(29,140,141)"/>
<polygon points="194.6,335.6 202.6,335.6 202.6,343.6 194.6,343.6" fill="rgb(35,165,142)"/>
<polygon points="202.6,335.6 210.6,335.6 210.6,343.6 202.6,343.6" fill="rgb(39,183,143)"/>
<polygon points="210.6,335.6 218.6,335.6 218.6,343.6 210.6,343.6" fill="rgb(39,181,143)"/>
<polygon points="218.6,335.6 226.6,335.6 226.6,343.6 218.6,343.6" fill="rgb(35,166,142)"/>
<polygon points="226.6,335.6 234.6,335.6 234.6,343.6 226.6,343.6" fill="rgb(48,215,145)"/>
<polygon points="244.6,335.6 252.6,335.6 252.6,343.6 244.6,343.6" fill="rgb(255,255,255)"/>
<polygon points="252.6,335.6 260.6,335.6 260.6,343.6 252.6,343.6" fill="rgb(255,255,255)"/>
<polygon points="260.6,335.6 268.6,335.6 268.6,343.6 260.6,343.6" fill="rgb(255,255,255)"/>
<polygon points="268.6,335.6 276.6,335.6 276.6,343.6 268.6,343.6" fill="rgb(255,255,255)"/>
<polygon points="276.6,335.6 284.6,335.6 284.6,343.6 276.6,343.6" fill="rgb(255,255,255)"/>
<polygon points="284.6,335.6 292.6,335.6 292.6,343.6 284.6,343.6" fill="rgb(255,255,255)"/>
<polygon points="292.6,335.6 300.6,335.6 300.6,343.6 292.6,343.6" fill="rgb(255,255,255)"/>
<polygon points="300.6,335.6 308.6,335.6 308.6,343.6 300.6,343.6" fill="rgb(255,255,255)"/>
<polygon points="128.6,343.6 136.6,343.6 136.6,351.6 128.6,351.6" fill="rgb(230,127,0)"/><text xml:space="preserve" x="132.6" y="350.433" font-family="Calibri" font-size="7.5" fill="rgb(0,0,0)" text-anchor="middle">4</text>
<polygon points="136.6,343.6 144.6,343.6 144.6,351.6 136.6,351.6" fill="rgb(230,127,0)"/><text xml:space="preserve" x="140.6" y="350.433" font-family="Calibri" font-size="7.5" fill="rgb(0,0,0)" text-anchor="middle">4</text>
<polygon points="144.6,343.6 152.6,343.6 152.6,351.6 144.6,351.6" fill="rgb(230,127,0)"/><text xml:space="preserve" x="148.6" y="350.433" font-family="Calibri" font-size="7.5" fill="rgb(0,0,0)" text-anchor="middle">4</text>
<polygon points="152.6,343.6 160.6,343.6 160.6,351.6 152.6,351.6" fill="rgb(230,127,0)"/><text xml:space="preserve" x="156.6" y="350.433" font-family="Calibri" font-size="7.5" fill="rgb(0,0,0)" text-anchor="middle">4</text>
<polygon points="160.6,343.6 168.6,343.6 168.6,351.6 160.6,351.6" fill="rgb(230,127,0)"/><text xml:space="preserve" x="164.6" y="350.433" font-family="Calibri" font-size="7.5" fill="rgb(0,0,0)" text-anchor="middle">4</text>
<polygon points="168.6,343.6 176.6,343.6 176.6,351.6 168.6,351.6" fill="rgb(205,0,0)"/><text xml:space="preserve" x="172.6" y="350.433" font-family="Calibri" font-size="7.5" fill="rgb(255,255,255)" text-anchor="middle">5</text>
<polygon points="186.6,343.6 194.6,343.6 194.6,351.6 186.6,351.6" fill="rgb(21,111,139)"/>
<polygon points="194.6,343.6 202.6,343.6 202.6,351.6 194.6,351.6" fill="rgb(24,121,140)"/>
<polygon points="202.6,343.6 210.6,343.6 210.6,351.6 202.6,351.6" fill="rgb(31,151,142)"/>
<polygon points="210.6,343.6 218.6,343.6 218.6,351.6 210.6,351.6" fill="rgb(30,144,141)"/>
<polygon points="218.6,343.6 226.6,343.6 226.6,351.6 218.6,351.6" fill="rgb(28,138,141)"/>
<polygon points="226.6,343.6 234.6,343.6 234.6,351.6 226.6,351.6" fill="rgb(49,219,146)"/>
<polygon points="244.6,343.6 252.6,343.6 252.6,351.6 244.6,351.6" fill="rgb(255,255,255)"/>
<polygon points="252.6,343.6 260.6,343.6 260.6,351.6 252.6,351.6" fill="rgb(255,255,255)"/>
<polygon points="260.6,343.6 268.6,343.6 268.6,351.6 260.6,351.6" fill="rgb(255,255,255)"/>
<polygon points="268.6,343.6 276.6,343.6 276.6,351.6 268.6,351.6" fill="rgb(255,255,255)"/>
<polygon points="276.6,343.6 284.6,343.6 284.6,351.6 276.6,351.6" fill="rgb(255,255,255)"/>
<polygon points="284.6,343.6 292.6,343.6 292.6,351.6 284.6,351.6" fill="rgb(255,255,255)"/>
<polygon points="292.6,343.6 300.6,343.6 300.6,351.6 292.6,351.6" fill="rgb(255,255,255)"/>
<polygon points="300.6,343.6 308.6,343.6 308.6,351.6 300.6,351.6" fill="rgb(255,255,255)"/>
<polygon points="128.6,351.6 136.6,351.6 136.6,359.6 128.6,359.6" fill="rgb(230,127,0)"/><text xml:space="preserve" x="132.6" y="358.433" font-family="Calibri" font-size="7.5" fill="rgb(0,0,0)" text-anchor="middle">4</text>
<polygon points="136.6,351.6 144.6,351.6 144.6,359.6 136.6,359.6" fill="rgb(230,127,0)"/><text xml:space="preserve" x="140.6" y="358.433" font-family="Calibri" font-size="7.5" fill="rgb(0,0,0)" text-anchor="middle">4</text>
<polygon points="144.6,351.6 152.6,351.6 152.6,359.6 144.6,359.6" fill="rgb(230,127,0)"/><text xml:space="preserve" x="148.6" y="358.433" font-family="Calibri" font-size="7.5" fill="rgb(0,0,0)" text-anchor="middle">4</text>
<polygon points="152.6,351.6 160.6,351.6 160.6,359.6 152.6,359.6" fill="rgb(230,127,0)"/><text xml:space="preserve" x="156.6" y="358.433" font-family="Calibri" font-size="7.5" fill="rgb(0,0,0)" text-anchor="middle">4</text>
<polygon points="160.6,351.6 168.6,351.6 168.6,359.6 160.6,359.6" fill="rgb(230,127,0)"/><text xml:space="preserve" x="164.6" y="358.433" font-family="Calibri" font-size="7.5" fill="rgb(0,0,0)" text-anchor="middle">4</text>
<polygon points="168.6,351.6 176.6,351.6 176.6,359.6 168.6,359.6" fill="rgb(205,0,0)"/><text xml:space="preserve" x="172.6" y="358.433" font-family="Calibri" font-size="7.5" fill="rgb(255,255,255)" text-anchor="middle">5</text>
<polygon points="186.6,351.6 194.6,351.6 194.6,359.6 186.6,359.6" fill="rgb(14,82,138)"/>
<polygon points="194.6,351.6 202.6,351.6 202.6,359.6 194.6,359.6" fill="rgb(18,99,139)"/>
<polygon points="202.6,351.6 210.6,351.6 210.6,359.6 202.6,359.6" fill="rgb(31,149,142)"/>
<polygon points="210.6,351.6 218.6,351.6 218.6,359.6 210.6,359.6" fill="rgb(27,134,141)"/>
<polygon points="218.6,351.6 226.6,351.6 226.6,359.6 218.6,359.6" fill="rgb(32,152,142)"/>
<polygon points="226.6,351.6 234.6,351.6 234.6,359.6 226.6,359.6" fill="rgb(131,208,87)"/>
<polygon points="244.6,351.6 252.6,351.6 252.6,359.6 244.6,359.6" fill="rgb(255,255,255)"/>
<polygon points="252.6,351.6 260.6,351.6 260.6,359.6 252.6,359.6" fill="rgb(255,255,255)"/>
<polygon points="260.6,351.6 268.6,351.6 268.6,359.6 260.6,359.6" fill="rgb(255,255,255)"/>
<polygon points="268.6,351.6 276.6,351.6 276.6,359.6 268.6,359.6" fill="rgb(255,255,255)"/>
<polygon points="276.6,351.6 284.6,351.6 284.6,359.6 276.6,359.6" fill="rgb(255,255,255)"/>
<polygon points="284.6,351.6 292.6,351.6 292.6,359.6 284.6,359.6" fill="rgb(205,0,205)"/>
<polygon points="292.6,351.6 300.6,351.6 300.6,359.6 292.6,359.6" fill="rgb(255,255,255)"/>
<polygon points="300.6,351.6 308.6,351.6 308.6,359.6 300.6,359.6" fill="rgb(255,255,255)"/>
<polygon points="128.6,359.6 136.6,359.6 136.6,367.6 128.6,367.6" fill="rgb(230,127,0)"/><text xml:space="preserve" x="132.6" y="366.433" font-family="Calibri" font-size="7.5" fill="rgb(0,0,0)" text-anchor="middle">4</text>
<polygon points="136.6,359.6 144.6,359.6 144.6,367.6 136.6,367.6" fill="rgb(230,127,0)"/><text xml:space="preserve" x="140.6" y="366.433" font-family="Calibri" font-size="7.5" fill="rgb(0,0,0)" text-anchor="middle">4</text>
<polygon points="144.6,359.6 152.6,359.6 152.6,367.6 144.6,367.6" fill="rgb(230,127,0)"/><text xml:space="preserve" x="148.6" y="366.433" font-family="Calibri" font-size="7.5" fill="rgb(0,0,0)" text-anchor="middle">4</text>
<polygon points="152.6,359.6 160.6,359.6 160.6,367.6 152.6,367.6" fill="rgb(230,127,0)"/><text xml:space="preserve" x="156.6" y="366.433" font-family="Calibri" font-size="7.5" fill="rgb(0,0,0)" text-anchor="middle">4</text>
<polygon points="160.6,359.6 168.6,359.6 168.6,367.6 160.6,367.6" fill="rgb(230,127,0)"/><text xml:space="preserve" x="164.6" y="366.433" font-family="Calibri" font-size="7.5" fill="rgb(0,0,0)" text-anchor="middle">4</text>
<polygon points="168.6,359.6 176.6,359.6 176.6,367.6 168.6,367.6" fill="rgb(205,0,0)"/><text xml:space="preserve" x="172.6" y="366.433" font-family="Calibri" font-size="7.5" fill="rgb(255,255,255)" text-anchor="middle">5</text>
<polygon points="186.6,359.6 194.6,359.6 194.6,367.6 186.6,367.6" fill="rgb(47,213,145)"/>
<polygon points="194.6,359.6 202.6,359.6 202.6,367.6 194.6,367.6" fill="rgb(36,171,143)"/>
<polygon points="202.6,359.6 210.6,359.6 210.6,367.6 202.6,367.6" fill="rgb(43,198,144)"/>
<polygon points="210.6,359.6 218.6,359.6 218.6,367.6 210.6,367.6" fill="rgb(59,217,138)"/>
<polygon points="218.6,359.6 226.6,359.6 226.6,367.6 218.6,367.6" fill="rgb(40,185,144)"/>
<polygon points="226.6,359.6 234.6,359.6 234.6,367.6 226.6,367.6" fill="rgb(49,219,146)"/>
<polygon points="244.6,359.6 252.6,359.6 252.6,367.6 244.6,367.6" fill="rgb(255,255,255)"/>
<polygon points="252.6,359.6 260.6,359.6 260.6,367.6 252.6,367.6" fill="rgb(205,0,205)"/>
<polygon points="260.6,359.6 268.6,359.6 268.6,367.6 260.6,367.6" fill="rgb(255,255,255)"/>
<polygon points="268.6,359.6 276.6,359.6 276.6,367.6 268.6,367.6" fill="rgb(255,255,255)"/>
<polygon points="276.6,359.6 284.6,359.6 284.6,367.6 276.6,367.6" fill="rgb(255,255,255)"/>
<polygon points="284.6,359.6 292.6,359.6 292.6,367.6 284.6,367.6" fill="rgb(255,255,255)"/>
<polygon points="292.6,359.6 300.6,359.6 300.6,367.6 292.6,367.6" fill="rgb(255,255,255)"/>
<polygon points="300.6,359.6 308.6,359.6 308.6,367.6 300.6,367.6" fill="rgb(255,255,255)"/>
<polygon points="128.6,367.6 136.6,367.6 136.6,375.6 128.6,375.6" fill="rgb(230,127,0)"/><text xml:space="preserve" x="132.6" y="374.433" font-family="Calibri" font-size="7.5" fill="rgb(0,0,0)" text-anchor="middle">4</text>
<polygon points="136.6,367.6 144.6,367.6 144.6,375.6 136.6,375.6" fill="rgb(230,127,0)"/><text xml:space="preserve" x="140.6" y="374.433" font-family="Calibri" font-size="7.5" fill="rgb(0,0,0)" text-anchor="middle">4</text>
<polygon points="144.6,367.6 152.6,367.6 152.6,375.6 144.6,375.6" fill="rgb(230,127,0)"/><text xml:space="preserve" x="148.6" y="374.433" font-family="Calibri" font-size="7.5" fill="rgb(0,0,0)" text-anchor="middle">4</text>
<polygon points="152.6,367.6 160.6,367.6 160.6,375.6 152.6,375.6" fill="rgb(230,127,0)"/><text xml:space="preserve" x="156.6" y="374.433" font-family="Calibri" font-size="7.5" fill="rgb(0,0,0)" text-anchor="middle">4</text>
<polygon points="160.6,367.6 168.6,367.6 168.6,375.6 160.6,375.6" fill="rgb(230,127,0)"/><text xml:space="preserve" x="164.6" y="374.433" font-family="Calibri" font-size="7.5" fill="rgb(0,0,0)" text-anchor="middle">4</text>
<polygon points="168.6,367.6 176.6,367.6 176.6,375.6 168.6,375.6" fill="rgb(205,0,0)"/><text xml:space="preserve" x="172.6" y="374.433" font-family="Calibri" font-size="7.5" fill="rgb(255,255,255)" text-anchor="middle">5</text>
<polygon points="186.6,367.6 194.6,367.6 194.6,375.6 186.6,375.6" fill="rgb(18,98,139)"/>
<polygon points="194.6,367.6 202.6,367.6 202.6,375.6 194.6,375.6" fill="rgb(38,176,143)"/>
<polygon points="202.6,367.6 210.6,367.6 210.6,375.6 202.6,375.6" fill="rgb(53,218,143)"/>
<polygon points="210.6,367.6 218.6,367.6 218.6,375.6 210.6,375.6" fill="rgb(48,216,145)"/>
<polygon points="218.6,367.6 226.6,367.6 226.6,375.6 218.6,375.6" fill="rgb(45,204,145)"/>
<polygon points="226.6,367.6 234.6,367.6 234.6,375.6 226.6,375.6" fill="rgb(74,215,127)"/>
<polygon points="244.6,367.6 252.6,367.6 252.6,375.6 244.6,375.6" fill="rgb(255,255,255)"/>
<polygon points="252.6,367.6 260.6,367.6 260.6,375.6 252.6,375.6" fill="rgb(255,255,255)"/>
<polygon points="260.6,367.6 268.6,367.6 268.6,375.6 260.6,375.6" fill="rgb(255,255,255)"/>
<polygon points="268.6,367.6 276.6,367.6 276.6,375.6 268.6,375.6" fill="rgb(255,255,255)"/>
<polygon points="276.6,367.6 284.6,367.6 284.6,375.6 276.6,375.6" fill="rgb(255,255,255)"/>
<polygon points="284.6,367.6 292.6,367.6 292.6,375.6 284.6,375.6" fill="rgb(255,255,255)"/>
<polygon points="292.6,367.6 300.6,367.6 300.6,375.6 292.6,375.6" fill="rgb(255,255,255)"/>
<polygon points="300.6,367.6 308.6,367.6 308.6,375.6 300.6,375.6" fill="rgb(255,255,255)"/>
<polygon points="128.6,375.6 136.6,375.6 136.6,383.6 128.6,383.6" fill="rgb(230,127,0)"/><text xml:space="preserve" x="132.6" y="382.433" font-family="Calibri" font-size="7.5" fill="rgb(0,0,0)" text-anchor="middle">4</text>
<polygon points="136.6,375.6 144.6,375.6 144.6,383.6 136.6,383.6" fill="rgb(230,127,0)"/><text xml:space="preserve" x="140.6" y="382.433" font-family="Calibri" font-size="7.5" fill="rgb(0,0,0)" text-anchor="middle">4</text>
<polygon points="144.6,375.6 152.6,375.6 152.6,383.6 144.6,383.6" fill="rgb(230,127,0)"/><text xml:space="preserve" x="148.6" y="382.433" font-family="Calibri" font-size="7.5" fill="rgb(0,0,0)" text-anchor="middle">4</text>
<polygon points="152.6,375.6 160.6,375.6 160.6,383.6 152.6,383.6" fill="rgb(230,127,0)"/><text xml:space="preserve" x="156.6" y="382.433" font-family="Calibri" font-size="7.5" fill="rgb(0,0,0)" text-anchor="middle">4</text>
<polygon points="160.6,375.6 168.6,375.6 168.6,383.6 160.6,383.6" fill="rgb(230,127,0)"/><text xml:space="preserve" x="164.6" y="382.433" font-family="Calibri" font-size="7.5" fill="rgb(0,0,0)" text-anchor="middle">4</text>
<polygon points="168.6,375.6 176.6,375.6 176.6,383.6 168.6,383.6" fill="rgb(205,0,0)"/><text xml:space="preserve" x="172.6" y="382.433" font-family="Calibri" font-size="7.5" fill="rgb(255,255,255)" text-anchor="middle">5</text>
<polygon points="186.6,375.6 194.6,375.6 194.6,383.6 186.6,383.6" fill="rgb(54,218,142)"/>
<polygon points="194.6,375.6 202.6,375.6 202.6,383.6 194.6,383.6" fill="rgb(46,210,145)"/>
<polygon points="202.6,375.6 210.6,375.6 210.6,383.6 202.6,383.6" fill="rgb(57,218,140)"/>
<polygon points="210.6,375.6 218.6,375.6 218.6,383.6 210.6,383.6" fill="rgb(82,214,121)"/>
<polygon points="218.6,375.6 226.6,375.6 226.6,383.6 218.6,383.6" fill="rgb(84,214,120)"/>
<polygon points="226.6,375.6 234.6,375.6 234.6,383.6 226.6,383.6" fill="rgb(74,215,127)"/>
<polygon points="244.6,375.6 252.6,375.6 252.6,383.6 244.6,383.6" fill="rgb(205,0,205)"/>
<polygon points="252.6,375.6 260.6,375.6 260.6,383.6 252.6,383.6" fill="rgb(255,255,255)"/>
<polygon points="260.6,375.6 268.6,375.6 268.6,383.6 260.6,383.6" fill="rgb(255,255,255)"/>
<polygon points="268.6,375.6 276.6,375.6 276.6,383.6 268.6,383.6" fill="rgb(255,255,255)"/>
<polygon points="276.6,375.6 284.6,375.6 284.6,383.6 276.6,383.6" fill="rgb(255,255,255)"/>
<polygon points="284.6,375.6 292.6,375.6 292.6,383.6 284.6,383.6" fill="rgb(255,255,255)"/>
<polygon points="292.6,375.6 300.6,375.6 300.6,383.6 292.6,383.6" fill="rgb(255,255,255)"/>
<polygon points="300.6,375.6 308.6,375.6 308.6,383.6 300.6,383.6" fill="rgb(255,255,255)"/>
<polygon points="128.6,383.6 136.6,383.6 136.6,391.6 128.6,391.6" fill="rgb(230,127,0)"/><text xml:space="preserve" x="132.6" y="390.433" font-family="Calibri" font-size="7.5" fill="rgb(0,0,0)" text-anchor="middle">4</text>
<polygon points="136.6,383.6 144.6,383.6 144.6,391.6 136.6,391.6" fill="rgb(230,127,0)"/><text xml:space="preserve" x="140.6" y="390.433" font-family="Calibri" font-size="7.5" fill="rgb(0,0,0)" text-anchor="middle">4</text>
<polygon points="144.6,383.6 152.6,383.6 152.6,391.6 144.6,391.6" fill="rgb(230,127,0)"/><text xml:space="preserve" x="148.6" y="390.433" font-family="Calibri" font-size="7.5" fill="rgb(0,0,0)" text-anchor="middle">4</text>
<polygon points="152.6,383.6 160.6,383.6 160.6,391.6 152.6,391.6" fill="rgb(230,127,0)"/><text xml:space="preserve" x="156.6" y="390.433" font-family="Calibri" font-size="7.5" fill="rgb(0,0,0)" text-anchor="middle">4</text>
<polygon points="160.6,383.6 168.6,383.6 168.6,391.6 160.6,391.6" fill="rgb(230,127,0)"/><text xml:space="preserve" x="164.6" y="390.433" font-family="Calibri" font-size="7.5" fill="rgb(0,0,0)" text-anchor="middle">4</text>
<polygon points="168.6,383.6 176.6,383.6 176.6,391.6 168.6,391.6" fill="rgb(205,0,0)"/><text xml:space="preserve" x="172.6" y="390.433" font-family="Calibri" font-size="7.5" fill="rgb(255,255,255)" text-anchor="middle">5</text>
<polygon points="186.6,383.6 194.6,383.6 194.6,391.6 186.6,391.6" fill="rgb(16,91,138)"/>
<polygon points="194.6,383.6 202.6,383.6 202.6,391.6 194.6,391.6" fill="rgb(39,180,143)"/>
<polygon points="202.6,383.6 210.6,383.6 210.6,391.6 202.6,391.6" fill="rgb(46,208,145)"/>
<polygon points="210.6,383.6 218.6,383.6 218.6,391.6 210.6,391.6" fill="rgb(57,218,140)"/>
<polygon points="218.6,383.6 226.6,383.6 226.6,391.6 218.6,391.6" fill="rgb(65,217,134)"/>
<polygon points="226.6,383.6 234.6,383.6 234.6,391.6 226.6,391.6" fill="rgb(112,211,100)"/>
<polygon points="244.6,383.6 252.6,383.6 252.6,391.6 244.6,391.6" fill="rgb(205,0,205)"/>
<polygon points="252.6,383.6 260.6,383.6 260.6,391.6 252.6,391.6" fill="rgb(255,255,255)"/>
<polygon points="260.6,383.6 268.6,383.6 268.6,391.6 260.6,391.6" fill="rgb(255,255,255)"/>
<polygon points="268.6,383.6 276.6,383.6 276.6,391.6 268.6,391.6" fill="rgb(255,255,255)"/>
<polygon points="276.6,383.6 284.6,383.6 284.6,391.6 276.6,391.6" fill="rgb(255,255,255)"/>
<polygon points="284.6,383.6 292.6,383.6 292.6,391.6 284.6,391.6" fill="rgb(255,255,255)"/>
<polygon points="292.6,383.6 300.6,383.6 300.6,391.6 292.6,391.6" fill="rgb(255,255,255)"/>
<polygon points="300.6,383.6 308.6,383.6 308.6,391.6 300.6,391.6" fill="rgb(255,255,255)"/>
<polygon points="128.6,391.6 136.6,391.6 136.6,399.6 128.6,399.6" fill="rgb(230,127,0)"/><text xml:space="preserve" x="132.6" y="398.433" font-family="Calibri" font-size="7.5" fill="rgb(0,0,0)" text-anchor="middle">4</text>
<polygon points="136.6,391.6 144.6,391.6 144.6,399.6 136.6,399.6" fill="rgb(230,127,0)"/><text xml:space="preserve" x="140.6" y="398.433" font-family="Calibri" font-size="7.5" fill="rgb(0,0,0)" text-anchor="middle">4</text>
<polygon points="144.6,391.6 152.6,391.6 152.6,399.6 144.6,399.6" fill="rgb(230,127,0)"/><text xml:space="preserve" x="148.6" y="398.433" font-family="Calibri" font-size="7.5" fill="rgb(0,0,0)" text-anchor="middle">4</text>
<polygon points="152.6,391.6 160.6,391.6 160.6,399.6 152.6,399.6" fill="rgb(230,127,0)"/><text xml:space="preserve" x="156.6" y="398.433" font-family="Calibri" font-size="7.5" fill="rgb(0,0,0)" text-anchor="middle">4</text>
<polygon points="160.6,391.6 168.6,391.6 168.6,399.6 160.6,399.6" fill="rgb(230,127,0)"/><text xml:space="preserve" x="164.6" y="398.433" font-family="Calibri" font-size="7.5" fill="rgb(0,0,0)" text-anchor="middle">4</text>
<polygon points="168.6,391.6 176.6,391.6 176.6,399.6 168.6,399.6" fill="rgb(205,0,0)"/><text xml:space="preserve" x="172.6" y="398.433" font-family="Calibri" font-size="7.5" fill="rgb(255,255,255)" text-anchor="middle">5</text>
<polygon points="186.6,391.6 194.6,391.6 194.6,399.6 186.6,399.6" fill="rgb(31,151,142)"/>
<polygon points="194.6,391.6 202.6,391.6 202.6,399.6 194.6,399.6" fill="rgb(30,144,141)"/>
<polygon points="202.6,391.6 210.6,391.6 210.6,399.6 202.6,399.6" fill="rgb(34,162,142)"/>
<polygon points="210.6,391.6 218.6,391.6 218.6,399.6 210.6,399.6" fill="rgb(37,174,143)"/>
<polygon points="218.6,391.6 226.6,391.6 226.6,399.6 218.6,399.6" fill="rgb(39,180,143)"/>
<polygon points="226.6,391.6 234.6,391.6 234.6,399.6 226.6,399.6" fill="rgb(55,218,141)"/>
<polygon points="244.6,391.6 252.6,391.6 252.6,399.6 244.6,399.6" fill="rgb(255,255,255)"/>
<polygon points="252.6,391.6 260.6,391.6 260.6,399.6 252.6,399.6" fill="rgb(255,255,255)"/>
<polygon points="260.6,391.6 268.6,391.6 268.6,399.6 260.6,399.6" fill="rgb(255,255,255)"/>
<polygon points="268.6,391.6 276.6,391.6 276.6,399.6 268.6,399.6" fill="rgb(255,255,255)"/>
<polygon points="276.6,391.6 284.6,391.6 284.6,399.6 276.6,399.6" fill="rgb(205,0,205)"/>
<polygon points="284.6,391.6 292.6,391.6 292.6,399.6 284.6,399.6" fill="rgb(255,255,255)"/>
<polygon points="292.6,391.6 300.6,391.6 300.6,399.6 292.6,399.6" fill="rgb(255,255,255)"/>
<polygon points="300.6,391.6 308.6,391.6 308.6,399.6 300.6,399.6" fill="rgb(255,255,255)"/>
<polygon points="128.6,399.6 136.6,399.6 136.6,407.6 128.6,407.6" fill="rgb(230,127,0)"/><text xml:space="preserve" x="132.6" y="406.433" font-family="Calibri" font-size="7.5" fill="rgb(0,0,0)" text-anchor="middle">4</text>
<polygon points="136.6,399.6 144.6,399.6 144.6,407.6 136.6,407.6" fill="rgb(230,127,0)"/><text xml:space="preserve" x="140.6" y="406.433" font-family="Calibri" font-size="7.5" fill="rgb(0,0,0)" text-anchor="middle">4</text>
<polygon points="144.6,399.6 152.6,399.6 152.6,407.6 144.6,407.6" fill="rgb(230,127,0)"/><text xml:space="preserve" x="148.6" y="406.433" font-family="Calibri" font-size="7.5" fill="rgb(0,0,0)" text-anchor="middle">4</text>
<polygon points="152.6,399.6 160.6,399.6 160.6,407.6 152.6,407.6" fill="rgb(230,127,0)"/><text xml:space="preserve" x="156.6" y="406.433" font-family="Calibri" font-size="7.5" fill="rgb(0,0,0)" text-anchor="middle">4</text>
<polygon points="160.6,399.6 168.6,399.6 168.6,407.6 160.6,407.6" fill="rgb(230,127,0)"/><text xml:space="preserve" x="164.6" y="406.433" font-family="Calibri" font-size="7.5" fill="rgb(0,0,0)" text-anchor="middle">4</text>
<polygon points="168.6,399.6 176.6,399.6 176.6,407.6 168.6,407.6" fill="rgb(205,0,0)"/><text xml:space="preserve" x="172.6" y="406.433" font-family="Calibri" font-size="7.5" fill="rgb(255,255,255)" text-anchor="middle">5</text>
<polygon points="186.6,399.6 194.6,399.6 194.6,407.6 186.6,407.6" fill="rgb(28,138,141)"/>
<polygon points="194.6,399.6 202.6,399.6 202.6,407.6 194.6,407.6" fill="rgb(37,174,143)"/>
<polygon points="202.6,399.6 210.6,399.6 210.6,407.6 202.6,407.6" fill="rgb(44,202,145)"/>
<polygon points="210.6,399.6 218.6,399.6 218.6,407.6 210.6,407.6" fill="rgb(41,188,144)"/>
<polygon points="218.6,399.6 226.6,399.6 226.6,407.6 218.6,407.6" fill="rgb(38,176,143)"/>
<polygon points="226.6,399.6 234.6,399.6 234.6,407.6 226.6,407.6" fill="rgb(59,217,138)"/>
<polygon points="244.6,399.6 252.6,399.6 252.6,407.6 244.6,407.6" fill="rgb(255,255,255)"/>
<polygon points="252.6,399.6 260.6,399.6 260.6,407.6 252.6,407.6" fill="rgb(255,255,255)"/>
<polygon points="260.6,399.6 268.6,399.6 268.6,407.6 260.6,407.6" fill="rgb(255,255,255)"/>
<polygon points="268.6,399.6 276.6,399.6 276.6,407.6 268.6,407.6" fill="rgb(255,255,255)"/>
<polygon points="276.6,399.6 284.6,399.6 284.6,407.6 276.6,407.6" fill="rgb(255,255,255)"/>
<polygon points="284.6,399.6 292.6,399.6 292.6,407.6 284.6,407.6" fill="rgb(255,255,255)"/>
<polygon points="292.6,399.6 300.6,399.6 300.6,407.6 292.6,407.6" fill="rgb(255,255,255)"/>
<polygon points="300.6,399.6 308.6,399.6 308.6,407.6 300.6,407.6" fill="rgb(255,255,255)"/>
<polygon points="128.6,407.6 136.6,407.6 136.6,415.6 128.6,415.6" fill="rgb(230,127,0)"/><text xml:space="preserve" x="132.6" y="414.433" font-family="Calibri" font-size="7.5" fill="rgb(0,0,0)" text-anchor="middle">4</text>
<polygon points="136.6,407.6 144.6,407.6 144.6,415.6 136.6,415.6" fill="rgb(230,127,0)"/><text xml:space="preserve" x="140.6" y="414.433" font-family="Calibri" font-size="7.5" fill="rgb(0,0,0)" text-anchor="middle">4</text>
<polygon points="144.6,407.6 152.6,407.6 152.6,415.6 144.6,415.6" fill="rgb(230,127,0)"/><text xml:space="preserve" x="148.6" y="414.433" font-family="Calibri" font-size="7.5" fill="rgb(0,0,0)" text-anchor="middle">4</text>
<polygon points="152.6,407.6 160.6,407.6 160.6,415.6 152.6,415.6" fill="rgb(230,127,0)"/><text xml:space="preserve" x="156.6" y="414.433" font-family="Calibri" font-size="7.5" fill="rgb(0,0,0)" text-anchor="middle">4</text>
<polygon points="160.6,407.6 168.6,407.6 168.6,415.6 160.6,415.6" fill="rgb(230,127,0)"/><text xml:space="preserve" x="164.6" y="414.433" font-family="Calibri" font-size="7.5" fill="rgb(0,0,0)" text-anchor="middle">4</text>
<polygon points="168.6,407.6 176.6,407.6 176.6,415.6 168.6,415.6" fill="rgb(205,0,0)"/><text xml:space="preserve" x="172.6" y="414.433" font-family="Calibri" font-size="7.5" fill="rgb(255,255,255)" text-anchor="middle">5</text>
<polygon points="186.6,407.6 194.6,407.6 194.6,415.6 186.6,415.6" fill="rgb(27,135,141)"/>
<polygon points="194.6,407.6 202.6,407.6 202.6,415.6 194.6,415.6" fill="rgb(30,147,141)"/>
<polygon points="202.6,407.6 210.6,407.6 210.6,415.6 202.6,415.6" fill="rgb(38,179,143)"/>
<polygon points="210.6,407.6 218.6,407.6 218.6,415.6 210.6,415.6" fill="rgb(33,158,142)"/>
<polygon points="218.6,407.6 226.6,407.6 226.6,415.6 218.6,415.6" fill="rgb(33,158,142)"/>
<polygon points="226.6,407.6 234.6,407.6 234.6,415.6 226.6,415.6" fill="rgb(48,216,145)"/>
<polygon points="244.6,407.6 252.6,407.6 252.6,415.6 244.6,415.6" fill="rgb(255,255,255)"/>
<polygon points="252.6,407.6 260.6,407.6 260.6,415.6 252.6,415.6" fill="rgb(255,255,255)"/>
<polygon points="260.6,407.6 268.6,407.6 268.6,415.6 260.6,415.6" fill="rgb(255,255,255)"/>
<polygon points="268.6,407.6 276.6,407.6 276.6,415.6 268.6,415.6" fill="rgb(255,255,255)"/>
<polygon points="276.6,407.6 284.6,407.6 284.6,415.6 276.6,415.6" fill="rgb(255,255,255)"/>
<polygon points="284.6,407.6 292.6,407.6 292.6,415.6 284.6,415.6" fill="rgb(255,255,255)"/>
<polygon points="292.6,407.6 300.6,407.6 300.6,415.6 292.6,415.6" fill="rgb(255,255,255)"/>
<polygon points="300.6,407.6 308.6,407.6 308.6,415.6 300.6,415.6" fill="rgb(255,255,255)"/>
<polygon points="128.6,415.6 136.6,415.6 136.6,423.6 128.6,423.6" fill="rgb(230,127,0)"/><text xml:space="preserve" x="132.6" y="422.433" font-family="Calibri" font-size="7.5" fill="rgb(0,0,0)" text-anchor="middle">4</text>
<polygon points="136.6,415.6 144.6,415.6 144.6,423.6 136.6,423.6" fill="rgb(230,127,0)"/><text xml:space="preserve" x="140.6" y="422.433" font-family="Calibri" font-size="7.5" fill="rgb(0,0,0)" text-anchor="middle">4</text>
<polygon points="144.6,415.6 152.6,415.6 152.6,423.6 144.6,423.6" fill="rgb(230,127,0)"/><text xml:space="preserve" x="148.6" y="422.433" font-family="Calibri" font-size="7.5" fill="rgb(0,0,0)" text-anchor="middle">4</text>
<polygon points="152.6,415.6 160.6,415.6 160.6,423.6 152.6,423.6" fill="rgb(230,127,0)"/><text xml:space="preserve" x="156.6" y="422.433" font-family="Calibri" font-size="7.5" fill="rgb(0,0,0)" text-anchor="middle">4</text>
<polygon points="160.6,415.6 168.6,415.6 168.6,423.6 160.6,423.6" fill="rgb(230,127,0)"/><text xml:space="preserve" x="164.6" y="422.433" font-family="Calibri" font-size="7.5" fill="rgb(0,0,0)" text-anchor="middle">4</text>
<polygon points="168.6,415.6 176.6,415.6 176.6,423.6 168.6,423.6" fill="rgb(205,0,0)"/><text xml:space="preserve" x="172.6" y="422.433" font-family="Calibri" font-size="7.5" fill="rgb(255,255,255)" text-anchor="middle">5</text>
<polygon points="186.6,415.6 194.6,415.6 194.6,423.6 186.6,423.6" fill="rgb(21,111,139)"/>
<polygon points="194.6,415.6 202.6,415.6 202.6,423.6 194.6,423.6" fill="rgb(29,140,141)"/>
<polygon points="202.6,415.6 210.6,415.6 210.6,423.6 202.6,423.6" fill="rgb(35,167,143)"/>
<polygon points="210.6,415.6 218.6,415.6 218.6,423.6 210.6,423.6" fill="rgb(35,167,143)"/>
<polygon points="218.6,415.6 226.6,415.6 226.6,423.6 218.6,423.6" fill="rgb(35,165,142)"/>
<polygon points="226.6,415.6 234.6,415.6 234.6,423.6 226.6,423.6" fill="rgb(61,217,137)"/>
<polygon points="244.6,415.6 252.6,415.6 252.6,423.6 244.6,423.6" fill="rgb(255,255,255)"/>
<polygon points="252.6,415.6 260.6,415.6 260.6,423.6 252.6,423.6" fill="rgb(205,0,205)"/>
<polygon points="260.6,415.6 268.6,415.6 268.6,423.6 260.6,423.6" fill="rgb(255,255,255)"/>
<polygon points="268.6,415.6 276.6,415.6 276.6,423.6 268.6,423.6" fill="rgb(255,255,255)"/>
<polygon points="276.6,415.6 284.6,415.6 284.6,423.6 276.6,423.6" fill="rgb(255,255,255)"/>
<polygon points="284.6,415.6 292.6,415.6 292.6,423.6 284.6,423.6" fill="rgb(255,255,255)"/>
<polygon points="292.6,415.6 300.6,415.6 300.6,423.6 292.6,423.6" fill="rgb(255,255,255)"/>
<polygon points="300.6,415.6 308.6,415.6 308.6,423.6 300.6,423.6" fill="rgb(255,255,255)"/>
<polygon points="128.6,423.6 136.6,423.6 136.6,431.6 128.6,431.6" fill="rgb(230,127,0)"/><text xml:space="preserve" x="132.6" y="430.433" font-family="Calibri" font-size="7.5" fill="rgb(0,0,0)" text-anchor="middle">4</text>
<polygon points="136.6,423.6 144.6,423.6 144.6,431.6 136.6,431.6" fill="rgb(230,127,0)"/><text xml:space="preserve" x="140.6" y="430.433" font-family="Calibri" font-size="7.5" fill="rgb(0,0,0)" text-anchor="middle">4</text>
<polygon points="144.6,423.6 152.6,423.6 152.6,431.6 144.6,431.6" fill="rgb(230,127,0)"/><text xml:space="preserve" x="148.6" y="430.433" font-family="Calibri" font-size="7.5" fill="rgb(0,0,0)" text-anchor="middle">4</text>
<polygon points="152.6,423.6 160.6,423.6 160.6,431.6 152.6,431.6" fill="rgb(230,127,0)"/><text xml:space="preserve" x="156.6" y="430.433" font-family="Calibri" font-size="7.5" fill="rgb(0,0,0)" text-anchor="middle">4</text>
<polygon points="160.6,423.6 168.6,423.6 168.6,431.6 160.6,431.6" fill="rgb(230,127,0)"/><text xml:space="preserve" x="164.6" y="430.433" font-family="Calibri" font-size="7.5" fill="rgb(0,0,0)" text-anchor="middle">4</text>
<polygon points="168.6,423.6 176.6,423.6 176.6,431.6 168.6,431.6" fill="rgb(205,0,0)"/><text xml:space="preserve" x="172.6" y="430.433" font-family="Calibri" font-size="7.5" fill="rgb(255,255,255)" text-anchor="middle">5</text>
<polygon points="186.6,423.6 194.6,423.6 194.6,431.6 186.6,431.6" fill="rgb(41,190,144)"/>
<polygon points="194.6,423.6 202.6,423.6 202.6,431.6 194.6,431.6" fill="rgb(46,208,145)"/>
<polygon points="202.6,423.6 210.6,423.6 210.6,431.6 202.6,431.6" fill="rgb(46,210,145)"/>
<polygon points="210.6,423.6 218.6,423.6 218.6,431.6 210.6,431.6" fill="rgb(44,202,145)"/>
<polygon points="218.6,423.6 226.6,423.6 226.6,431.6 218.6,431.6" fill="rgb(48,216,145)"/>
<polygon points="226.6,423.6 234.6,423.6 234.6,431.6 226.6,431.6" fill="rgb(73,216,128)"/>
<polygon points="244.6,423.6 252.6,423.6 252.6,431.6 244.6,431.6" fill="rgb(255,255,255)"/>
<polygon points="252.6,423.6 260.6,423.6 260.6,431.6 252.6,431.6" fill="rgb(255,255,255)"/>
<polygon points="260.6,423.6 268.6,423.6 268.6,431.6 260.6,431.6" fill="rgb(255,255,255)"/>
<polygon points="268.6,423.6 276.6,423.6 276.6,431.6 268.6,431.6" fill="rgb(255,255,255)"/>
<polygon points="276.6,423.6 284.6,423.6 284.6,431.6 276.6,431.6" fill="rgb(255,255,255)"/>
<polygon points="284.6,423.6 292.6,423.6 292.6,431.6 284.6,431.6" fill="rgb(255,255,255)"/>
<polygon points="292.6,423.6 300.6,423.6 300.6,431.6 292.6,431.6" fill="rgb(255,255,255)"/>
<polygon points="300.6,423.6 308.6,423.6 308.6,431.6 300.6,431.6" fill="rgb(255,255,255)"/>
<polygon points="128.6,431.6 136.6,431.6 136.6,439.6 128.6,439.6" fill="rgb(230,127,0)"/><text xml:space="preserve" x="132.6" y="438.433" font-family="Calibri" font-size="7.5" fill="rgb(0,0,0)" text-anchor="middle">4</text>
<polygon points="136.6,431.6 144.6,431.6 144.6,439.6 136.6,439.6" fill="rgb(230,127,0)"/><text xml:space="preserve" x="140.6" y="438.433" font-family="Calibri" font-size="7.5" fill="rgb(0,0,0)" text-anchor="middle">4</text>
<polygon points="144.6,431.6 152.6,431.6 152.6,439.6 144.6,439.6" fill="rgb(230,127,0)"/><text xml:space="preserve" x="148.6" y="438.433" font-family="Calibri" font-size="7.5" fill="rgb(0,0,0)" text-anchor="middle">4</text>
<polygon points="152.6,431.6 160.6,431.6 160.6,439.6 152.6,439.6" fill="rgb(230,127,0)"/><text xml:space="preserve" x="156.6" y="438.433" font-family="Calibri" font-size="7.5" fill="rgb(0,0,0)" text-anchor="middle">4</text>
<polygon points="160.6,431.6 168.6,431.6 168.6,439.6 160.6,439.6" fill="rgb(230,127,0)"/><text xml:space="preserve" x="164.6" y="438.433" font-family="Calibri" font-size="7.5" fill="rgb(0,0,0)" text-anchor="middle">4</text>
<polygon points="168.6,431.6 176.6,431.6 176.6,439.6 168.6,439.6" fill="rgb(205,0,0)"/><text xml:space="preserve" x="172.6" y="438.433" font-family="Calibri" font-size="7.5" fill="rgb(255,255,255)" text-anchor="middle">5</text>
<polygon points="186.6,431.6 194.6,431.6 194.6,439.6 186.6,439.6" fill="rgb(16,92,138)"/>
<polygon points="194.6,431.6 202.6,431.6 202.6,439.6 194.6,439.6" fill="rgb(18,98,139)"/>
<polygon points="202.6,431.6 210.6,431.6 210.6,439.6 202.6,439.6" fill="rgb(33,157,142)"/>
<polygon points="210.6,431.6 218.6,431.6 218.6,439.6 210.6,439.6" fill="rgb(33,157,142)"/>
<polygon points="218.6,431.6 226.6,431.6 226.6,439.6 218.6,439.6" fill="rgb(33,160,142)"/>
<polygon points="226.6,431.6 234.6,431.6 234.6,439.6 226.6,439.6" fill="rgb(77,215,125)"/>
<polygon points="244.6,431.6 252.6,431.6 252.6,439.6 244.6,439.6" fill="rgb(255,255,255)"/>
<polygon points="252.6,431.6 260.6,431.6 260.6,439.6 252.6,439.6" fill="rgb(255,255,255)"/>
<polygon points="260.6,431.6 268.6,431.6 268.6,439.6 260.6,439.6" fill="rgb(255,255,255)"/>
<polygon points="268.6,431.6 276.6,431.6 276.6,439.6 268.6,439.6" fill="rgb(255,255,255)"/>
<polygon points="276.6,431.6 284.6,431.6 284.6,439.6 276.6,439.6" fill="rgb(255,255,255)"/>
<polygon points="284.6,431.6 292.6,431.6 292.6,439.6 284.6,439.6" fill="rgb(205,0,205)"/>
<polygon points="292.6,431.6 300.6,431.6 300.6,439.6 292.6,439.6" fill="rgb(255,255,255)"/>
<polygon points="300.6,431.6 308.6,431.6 308.6,439.6 300.6,439.6" fill="rgb(255,255,255)"/>
<polygon points="128.6,439.6 136.6,439.6 136.6,447.6 128.6,447.6" fill="rgb(230,127,0)"/><text xml:space="preserve" x="132.6" y="446.433" font-family="Calibri" font-size="7.5" fill="rgb(0,0,0)" text-anchor="middle">4</text>
<polygon points="136.6,439.6 144.6,439.6 144.6,447.6 136.6,447.6" fill="rgb(230,127,0)"/><text xml:space="preserve" x="140.6" y="446.433" font-family="Calibri" font-size="7.5" fill="rgb(0,0,0)" text-anchor="middle">4</text>
<polygon points="144.6,439.6 152.6,439.6 152.6,447.6 144.6,447.6" fill="rgb(230,127,0)"/><text xml:space="preserve" x="148.6" y="446.433" font-family="Calibri" font-size="7.5" fill="rgb(0,0,0)" text-anchor="middle">4</text>
<polygon points="152.6,439.6 160.6,439.6 160.6,447.6 152.6,447.6" fill="rgb(230,127,0)"/><text xml:space="preserve" x="156.6" y="446.433" font-family="Calibri" font-size="7.5" fill="rgb(0,0,0)" text-anchor="middle">4</text>
<polygon points="160.6,439.6 168.6,439.6 168.6,447.6 160.6,447.6" fill="rgb(230,127,0)"/><text xml:space="preserve" x="164.6" y="446.433" font-family="Calibri" font-size="7.5" fill="rgb(0,0,0)" text-anchor="middle">4</text>
<polygon points="168.6,439.6 176.6,439.6 176.6,447.6 168.6,447.6" fill="rgb(205,0,0)"/><text xml:space="preserve" x="172.6" y="446.433" font-family="Calibri" font-size="7.5" fill="rgb(255,255,255)" text-anchor="middle">5</text>
<polygon points="186.6,439.6 194.6,439.6 194.6,447.6 186.6,447.6" fill="rgb(11,70,137)"/>
<polygon points="194.6,439.6 202.6,439.6 202.6,447.6 194.6,447.6" fill="rgb(40,185,144)"/>
<polygon points="202.6,439.6 210.6,439.6 210.6,447.6 202.6,447.6" fill="rgb(86,214,118)"/>
<polygon points="210.6,439.6 218.6,439.6 218.6,447.6 210.6,447.6" fill="rgb(40,185,144)"/>
<polygon points="218.6,439.6 226.6,439.6 226.6,447.6 218.6,447.6" fill="rgb(24,124,140)"/>
<polygon points="226.6,439.6 234.6,439.6 234.6,447.6 226.6,447.6" fill="rgb(189,201,45)"/>
<polygon points="244.6,439.6 252.6,439.6 252.6,447.6 244.6,447.6" fill="rgb(255,255,255)"/>
<polygon points="252.6,439.6 260.6,439.6 260.6,447.6 252.6,447.6" fill="rgb(255,255,255)"/>
<polygon points="260.6,439.6 268.6,439.6 268.6,447.6 260.6,447.6" fill="rgb(255,255,255)"/>
<polygon points="268.6,439.6 276.6,439.6 276.6,447.6 268.6,447.6" fill="rgb(255,255,255)"/>
<polygon points="276.6,439.6 284.6,439.6 284.6,447.6 276.6,447.6" fill="rgb(255,255,255)"/>
<polygon points="284.6,439.6 292.6,439.6 292.6,447.6 284.6,447.6" fill="rgb(255,255,255)"/>
<polygon points="292.6,439.6 300.6,439.6 300.6,447.6 292.6,447.6" fill="rgb(255,255,255)"/>
<polygon points="300.6,439.6 308.6,439.6 308.6,447.6 300.6,447.6" fill="rgb(255,255,255)"/>
<polygon points="128.6,447.6 136.6,447.6 136.6,455.6 128.6,455.6" fill="rgb(230,127,0)"/><text xml:space="preserve" x="132.6" y="454.433" font-family="Calibri" font-size="7.5" fill="rgb(0,0,0)" text-anchor="middle">4</text>
<polygon points="136.6,447.6 144.6,447.6 144.6,455.6 136.6,455.6" fill="rgb(230,127,0)"/><text xml:space="preserve" x="140.6" y="454.433" font-family="Calibri" font-size="7.5" fill="rgb(0,0,0)" text-anchor="middle">4</text>
<polygon points="144.6,447.6 152.6,447.6 152.6,455.6 144.6,455.6" fill="rgb(230,127,0)"/><text xml:space="preserve" x="148.6" y="454.433" font-family="Calibri" font-size="7.5" fill="rgb(0,0,0)" text-anchor="middle">4</text>
<polygon points="152.6,447.6 160.6,447.6 160.6,455.6 152.6,455.6" fill="rgb(230,127,0)"/><text xml:space="preserve" x="156.6" y="454.433" font-family="Calibri" font-size="7.5" fill="rgb(0,0,0)" text-anchor="middle">4</text>
<polygon points="160.6,447.6 168.6,447.6 168.6,455.6 160.6,455.6" fill="rgb(230,127,0)"/><text xml:space="preserve" x="164.6" y="454.433" font-family="Calibri" font-size="7.5" fill="rgb(0,0,0)" text-anchor="middle">4</text>
<polygon points="168.6,447.6 176.6,447.6 176.6,455.6 168.6,455.6" fill="rgb(205,0,0)"/><text xml:space="preserve" x="172.6" y="454.433" font-family="Calibri" font-size="7.5" fill="rgb(255,255,255)" text-anchor="middle">5</text>
<polygon points="186.6,447.6 194.6,447.6 194.6,455.6 186.6,455.6" fill="rgb(29,143,141)"/>
<polygon points="194.6,447.6 202.6,447.6 202.6,455.6 194.6,455.6" fill="rgb(35,167,143)"/>
<polygon points="202.6,447.6 210.6,447.6 210.6,455.6 202.6,455.6" fill="rgb(35,165,142)"/>
<polygon points="210.6,447.6 218.6,447.6 218.6,455.6 210.6,455.6" fill="rgb(34,161,142)"/>
<polygon points="218.6,447.6 226.6,447.6 226.6,455.6 218.6,455.6" fill="rgb(34,163,142)"/>
<polygon points="226.6,447.6 234.6,447.6 234.6,455.6 226.6,455.6" fill="rgb(51,218,144)"/>
<polygon points="244.6,447.6 252.6,447.6 252.6,455.6 244.6,455.6" fill="rgb(255,255,255)"/>
<polygon points="252.6,447.6 260.6,447.6 260.6,455.6 252.6,455.6" fill="rgb(255,255,255)"/>
<polygon points="260.6,447.6 268.6,447.6 268.6,455.6 260.6,455.6" fill="rgb(255,255,255)"/>
<polygon points="268.6,447.6 276.6,447.6 276.6,455.6 268.6,455.6" fill="rgb(255,255,255)"/>
<polygon points="276.6,447.6 284.6,447.6 284.6,455.6 276.6,455.6" fill="rgb(255,255,255)"/>
<polygon points="284.6,447.6 292.6,447.6 292.6,455.6 284.6,455.6" fill="rgb(205,0,205)"/>
<polygon points="292.6,447.6 300.6,447.6 300.6,455.6 292.6,455.6" fill="rgb(255,255,255)"/>
<polygon points="300.6,447.6 308.6,447.6 308.6,455.6 300.6,455.6" fill="rgb(255,255,255)"/>
<polygon points="128.6,335.6 176.6,335.6 176.6,455.6 128.6,455.6" fill="none" stroke="black" stroke-width="1"/>
<polygon points="186.6,335.6 234.6,335.6 234.6,455.6 186.6,455.6" fill="none" stroke="black" stroke-width="1"/>
<polygon points="244.6,335.6 308.6,335.6 308.6,455.6 244.6,455.6" fill="none" stroke="black" stroke-width="1"/>
<text xml:space="preserve" x="164.3" y="488.6" font-family="Calibri" font-size="8" text-anchor="middle">ClusterAssignment</text>
<polygon points="114.3,495.6 134.3,495.6 134.3,515.6 114.3,515.6" fill="rgb(0,205,0)"/><polygon points="114.3,495.6 134.3,495.6 134.3,515.6 114.3,515.6" fill="none" stroke="black" stroke-width="1"/><text xml:space="preserve" x="124.3" y="508.433" font-family="Calibri" font-size="7.5" fill="rgb(255,255,255)" text-anchor="middle">1.0</text>
<polygon points="134.3,495.6 154.3,495.6 154.3,515.6 134.3,515.6" fill="rgb(127,230,0)"/><polygon points="134.3,495.6 154.3,495.6 154.3,515.6 134.3,515.6" fill="none" stroke="black" stroke-width="1"/><text xml:space="preserve" x="144.3" y="508.433" font-family="Calibri" font-size="7.5" fill="rgb(0,0,0)" text-anchor="middle">2.0</text>
<polygon points="154.3,495.6 174.3,495.6 174.3,515.6 154.3,515.6" fill="rgb(255,255,0)"/><polygon points="154.3,495.6 174.3,495.6 174.3,515.6 154.3,515.6" fill="none" stroke="black" stroke-width="1"/><text xml:space="preserve" x="164.3" y="508.433" font-family="Calibri" font-size="7.5" fill="rgb(0,0,0)" text-anchor="middle">3.0</text>
<polygon points="174.3,495.6 194.3,495.6 194.3,515.6 174.3,515.6" fill="rgb(230,127,0)"/><polygon points="174.3,495.6 194.3,495.6 194.3,515.6 174.3,515.6" fill="none" stroke="black" stroke-width="1"/><text xml:space="preserve" x="184.3" y="508.433" font-family="Calibri" font-size="7.5" fill="rgb(0,0,0)" text-anchor="middle">4.0</text>
<polygon points="194.3,495.6 214.3,495.6 214.3,515.6 194.3,515.6" fill="rgb(205,0,0)"/><polygon points="194.3,495.6 214.3,495.6 214.3,515.6 194.3,515.6" fill="none" stroke="black" stroke-width="1"/><text xml:space="preserve" x="204.3" y="508.433" font-family="Calibri" font-size="7.5" fill="rgb(255,255,255)" text-anchor="middle">5.0</text>
<text xml:space="preserve" x="164.3" y="548.6" font-family="Calibri" font-size="8" text-anchor="middle">Expression</text>
<polygon points="114.3,555.6 134.3,555.6 134.3,575.6 114.3,575.6" fill="rgb(0,27,135)"/><polygon points="114.3,555.6 134.3,555.6 134.3,575.6 114.3,575.6" fill="none" stroke="black" stroke-width="1"/><text xml:space="preserve" x="124.3" y="568.433" font-family="Calibri" font-size="7.5" fill="rgb(255,255,255)" text-anchor="middle">0.0</text>
<polygon points="134.3,555.6 154.3,555.6 154.3,575.6 134.3,575.6" fill="rgb(24,123,140)"/><polygon points="134.3,555.6 154.3,555.6 154.3,575.6 134.3,575.6" fill="none" stroke="black" stroke-width="1"/><text xml:space="preserve" x="144.3" y="568.433" font-family="Calibri" font-size="7.5" fill="rgb(255,255,255)" text-anchor="middle">0.8</text>
<polygon points="154.3,555.6 174.3,555.6 174.3,575.6 154.3,575.6" fill="rgb(49,219,146)"/><polygon points="154.3,555.6 174.3,555.6 174.3,575.6 154.3,575.6" fill="none" stroke="black" stroke-width="1"/><text xml:space="preserve" x="164.3" y="568.433" font-family="Calibri" font-size="7.5" fill="rgb(0,0,0)" text-anchor="middle">1.5</text>
<polygon points="174.3,555.6 194.3,555.6 194.3,575.6 174.3,575.6" fill="rgb(150,206,73)"/><polygon points="174.3,555.6 194.3,555.6 194.3,575.6 174.3,575.6" fill="none" stroke="black" stroke-width="1"/><text xml:space="preserve" x="184.3" y="568.433" font-family="Calibri" font-size="7.5" fill="rgb(0,0,0)" text-anchor="middle">2.2</text>
<polygon points="194.3,555.6 214.3,555.6 214.3,575.6 194.3,575.6" fill="rgb(252,194,1)"/><polygon points="194.3,555.6 214.3,555.6 214.3,575.6 194.3,575.6" fill="none" stroke="black" stroke-width="1"/><text xml:space="preserve" x="204.3" y="568.433" font-family="Calibri" font-size="7.5" fill="rgb(0,0,0)" text-anchor="middle">3.0</text>
<text xml:space="preserve" x="164.3" y="608.6" font-family="Calibri" font-size="8" text-anchor="middle">PANTHERclass</text>
<polygon points="114.3,615.6 134.3,615.6 134.3,635.6 114.3,635.6" fill="rgb(255,255,255)"/><polygon points="114.3,615.6 134.3,615.6 134.3,635.6 114.3,635.6" fill="none" stroke="black" stroke-width="1"/><text xml:space="preserve" x="124.3" y="628.433" font-family="Calibri" font-size="7.5" fill="rgb(0,0,0)" text-anchor="middle">0.0</text>
<polygon points="134.3,615.6 154.3,615.6 154.3,635.6 134.3,635.6" fill="rgb(242,191,242)"/><polygon points="134.3,615.6 154.3,615.6 154.3,635.6 134.3,635.6" fill="none" stroke="black" stroke-width="1"/><text xml:space="preserve" x="144.3" y="628.433" font-family="Calibri" font-size="7.5" fill="rgb(0,0,0)" text-anchor="middle">0.2</text>
<polygon points="154.3,615.6 174.3,615.6 174.3,635.6 154.3,635.6" fill="rgb(230,127,230)"/><polygon points="154.3,615.6 174.3,615.6 174.3,635.6 154.3,635.6" fill="none" stroke="black" stroke-width="1"/><text xml:space="preserve" x="164.3" y="628.433" font-family="Calibri" font-size="7.5" fill="rgb(0,0,0)" text-anchor="middle">0.5</text>
<polygon points="174.3,615.6 194.3,615.6 194.3,635.6 174.3,635.6" fill="rgb(217,63,217)"/><polygon points="174.3,615.6 194.3,615.6 194.3,635.6 174.3,635.6" fill="none" stroke="black" stroke-width="1"/><text xml:space="preserve" x="184.3" y="628.433" font-family="Calibri" font-size="7.5" fill="rgb(255,255,255)" text-anchor="middle">0.8</text>
<polygon points="194.3,615.6 214.3,615.6 214.3,635.6 194.3,635.6" fill="rgb(205,0,205)"/><polygon points="194.3,615.6 214.3,615.6 214.3,635.6 194.3,635.6" fill="none" stroke="black" stroke-width="1"/><text xml:space="preserve" x="204.3" y="628.433" font-family="Calibri" font-size="7.5" fill="rgb(255,255,255)" text-anchor="middle">1.0</text>
</svg>
