<?xml version="1.0" standalone="no"?><!DOCTYPE svg PUBLIC "-//W3C//DTD SVG 1.1//EN" "http://www.w3.org/Graphics/SVG/1.1/DTD/svg11.dtd">
<svg width="315.9" height="559.6" version="1.1" xmlns="http://www.w3.org/2000/svg">
<text xml:space="preserve" x="79.9" y="342.6" font-family="Calibri" font-size="8" text-anchor="end">AP1S2</text>
<text xml:space="preserve" x="79.9" y="350.6" font-family="Calibri" font-size="8" text-anchor="end">PBX3</text>
<text xml:space="preserve" x="79.9" y="358.6" font-family="Calibri" font-size="8" text-anchor="end">HOXA5</text>
<text xml:space="preserve" x="90.9" y="331.6" font-family="Calibri" font-size="8" transform="rotate(270 90.9 331.6)">c5</text>
<text xml:space="preserve" x="98.9" y="331.6" font-family="Calibri" font-size="8" transform="rotate(270 98.9 331.6)">c4</text>
<text xml:space="preserve" x="106.9" y="331.6" font-family="Calibri" font-size="8" transform="rotate(270 106.9 331.6)">c1</text>
<text xml:space="preserve" x="114.9" y="331.6" font-family="Calibri" font-size="8" transform="rotate(270 114.9 331.6)">c8</text>
<text xml:space="preserve" x="122.9" y="331.6" font-family="Calibri" font-size="8" transform="rotate(270 122.9 331.6)">c3</text>
<text xml:space="preserve" x="130.9" y="331.6" font-family="Calibri" font-size="8" transform="rotate(270 130.9 331.6)">c6</text>
<text xml:space="preserve" x="138.9" y="331.6" font-family="Calibri" font-size="8" transform="rotate(270 138.9 331.6)">c2</text>
<text xml:space="preserve" x="146.9" y="331.6" font-family="Calibri" font-size="8" transform="rotate(270 146.9 331.6)">c7</text>
<text xml:space="preserve" x="164.9" y="331.6" font-family="Calibri" font-size="8" transform="rotate(270 164.9 331.6)">c5_mean</text>
<text xml:space="preserve" x="172.9" y="331.6" font-family="Calibri" font-size="8" transform="rotate(270 172.9 331.6)">c4_mean</text>
<text xml:space="preserve" x="180.9" y="331.6" font-family="Calibri" font-size="8" transform="rotate(270 180.9 331.6)">c1_mean</text>
<text xml:space="preserve" x="188.9" y="331.6" font-family="Calibri" font-size="8" transform="rotate(270 188.9 331.6)">c8_mean</text>
<text xml:space="preserve" x="196.9" y="331.6" font-family="Calibri" font-size="8" transform="rotate(270 196.9 331.6)">c3_mean</text>
<text xml:space="preserve" x="204.9" y="331.6" font-family="Calibri" font-size="8" transform="rotate(270 204.9 331.6)">c6_mean</text>
<text xml:space="preserve" x="212.9" y="331.6" font-family="Calibri" font-size="8" transform="rotate(270 212.9 331.6)">c2_mean</text>
<text xml:space="preserve" x="220.9" y="331.6" font-family="Calibri" font-size="8" transform="rotate(270 220.9 331.6)">c7_mean</text>
<text xml:space="preserve" x="238.9" y="331.6" font-family="Calibri" font-size="8" transform="rotate(270 238.9 331.6)">transcription_factor</text>
<text xml:space="preserve" x="246.9" y="331.6" font-family="Calibri" font-size="8" transform="rotate(270 246.9 331.6)">transmembrane_signal_receptor</text>
<text xml:space="preserve" x="254.9" y="331.6" font-family="Calibri" font-size="8" transform="rotate(270 254.9 331.6)">growth_factor</text>
<text xml:space="preserve" x="262.9" y="331.6" font-family="Calibri" font-size="8" transform="rotate(270 262.9 331.6)">peptide_hormone</text>
<text xml:space="preserve" x="270.9" y="331.6" font-family="Calibri" font-size="8" transform="rotate(270 270.9 331.6)">cytoskeletal_protein</text>
<text xml:space="preserve" x="278.9" y="331.6" font-family="Calibri" font-size="8" transform="rotate(270 278.9 331.6)">ion_channel</text>
<text xml:space="preserve" x="286.9" y="331.6" font-family="Calibri" font-size="8" transform="rotate(270 286.9 331.6)">integrin</text>
<text xml:space="preserve" x="294.9" y="331.6" font-family="Calibri" font-size="8" transform="rotate(270 294.9 331.6)">extracellular_matrix_protein</text>
<polygon points="83.9,335.6 91.9,335.6 91.9,343.6 83.9,343.6" fill="rgb(255,255,0)"/><text xml:space="preserve" x="87.9" y="342.433" font-family="Calibri" font-size="7.5" fill="rgb(0,0,0)" text-anchor="middle">2</text>
<polygon points="91.9,335.6 99.9,335.6 99.9,343.6 91.9,343.6" fill="rgb(255,255,0)"/><text xml:space="preserve" x="95.9" y="342.433" font-family="Calibri" font-size="7.5" fill="rgb(0,0,0)" text-anchor="middle">2</text>
<polygon points="99.9,335.6 107.9,335.6 107.9,343.6 99.9,343.6" fill="rgb(255,255,0)"/><text xml:space="preserve" x="103.9" y="342.433" font-family="Calibri" font-size="7.5" fill="rgb(0,0,0)" text-anchor="middle">2</text>
<polygon points="107.9,335.6 115.9,335.6 115.9,343.6 107.9,343.6" fill="rgb(205,0,0)"/><text xml:space="preserve" x="111.9" y="342.433" font-family="Calibri" font-size="7.5" fill="rgb(255,255,255)" text-anchor="middle">3</text>
<polygon points="115.9,335.6 123.9,335.6 123.9,343.6 115.9,343.6" fill="rgb(205,0,0)"/><text xml:space="preserve" x="119.9" y="342.433" font-family="Calibri" font-size="7.5" fill="rgb(255,255,255)" text-anchor="middle">3</text>
<polygon points="123.9,335.6 131.9,335.6 131.9,343.6 123.9,343.6" fill="rgb(255,255,0)"/><text xml:space="preserve" x="127.9" y="342.433" font-family="Calibri" font-size="7.5" fill="rgb(0,0,0)" text-anchor="middle">2</text>
<polygon points="131.9,335.6 139.9,335.6 139.9,343.6 131.9,343.6" fill="rgb(255,255,0)"/><text xml:space="preserve" x="135.9" y="342.433" font-family="Calibri" font-size="7.5" fill="rgb(0,0,0)" text-anchor="middle">2</text>
<polygon points="139.9,335.6 147.9,335.6 147.9,343.6 139.9,343.6" fill="rgb(205,0,0)"/><text xml:space="preserve" x="143.9" y="342.433" font-family="Calibri" font-size="7.5" fill="rgb(255,255,255)" text-anchor="middle">3</text>
<polygon points="157.9,335.6 165.9,335.6 165.9,343.6 157.9,343.6" fill="rgb(29,142,141)"/>
<polygon points="165.9,335.6 173.9,335.6 173.9,343.6 165.9,343.6" fill="rgb(20,108,139)"/>
<polygon points="173.9,335.6 181.9,335.6 181.9,343.6 173.9,343.6" fill="rgb(20,108,139)"/>
<polygon points="181.9,335.6 189.9,335.6 189.9,343.6 181.9,343.6" fill="rgb(170,204,59)"/>
<polygon points="189.9,335.6 197.9,335.6 197.9,343.6 189.9,343.6" fill="rgb(147,206,75)"/>
<polygon points="197.9,335.6 205.9,335.6 205.9,343.6 197.9,343.6" fill="rgb(20,108,139)"/>
<polygon points="205.9,335.6 213.9,335.6 213.9,343.6 205.9,343.6" fill="rgb(35,166,142)"/>
<polygon points="213.9,335.6 221.9,335.6 221.9,343.6 213.9,343.6" fill="rgb(252,194,1)"/>
<polygon points="231.9,335.6 239.9,335.6 239.9,343.6 231.9,343.6" fill="rgb(255,255,255)"/>
<polygon points="239.9,335.6 247.9,335.6 247.9,343.6 239.9,343.6" fill="rgb(255,255,255)"/>
<polygon points="247.9,335.6 255.9,335.6 255.9,343.6 247.9,343.6" fill="rgb(255,255,255)"/>
<polygon points="255.9,335.6 263.9,335.6 263.9,343.6 255.9,343.6" fill="rgb(255,255,255)"/>
<polygon points="263.9,335.6 271.9,335.6 271.9,343.6 263.9,343.6" fill="rgb(255,255,255)"/>
<polygon points="271.9,335.6 279.9,335.6 279.9,343.6 271.9,343.6" fill="rgb(255,255,255)"/>
<polygon points="279.9,335.6 287.9,335.6 287.9,343.6 279.9,343.6" fill="rgb(255,255,255)"/>
<polygon points="287.9,335.6 295.9,335.6 295.9,343.6 287.9,343.6" fill="rgb(255,255,255)"/>
<polygon points="83.9,343.6 91.9,343.6 91.9,351.6 83.9,351.6" fill="rgb(255,255,0)"/><text xml:space="preserve" x="87.9" y="350.433" font-family="Calibri" font-size="7.5" fill="rgb(0,0,0)" text-anchor="middle">2</text>
<polygon points="91.9,343.6 99.9,343.6 99.9,351.6 91.9,351.6" fill="rgb(255,255,0)"/><text xml:space="preserve" x="95.9" y="350.433" font-family="Calibri" font-size="7.5" fill="rgb(0,0,0)" text-anchor="middle">2</text>
<polygon points="99.9,343.6 107.9,343.6 107.9,351.6 99.9,351.6" fill="rgb(255,255,0)"/><text xml:space="preserve" x="103.9" y="350.433" font-family="Calibri" font-size="7.5" fill="rgb(0,0,0)" text-anchor="middle">2</text>
<polygon points="107.9,343.6 115.9,343.6 115.9,351.6 107.9,351.6" fill="rgb(205,0,0)"/><text xml:space="preserve" x="111.9" y="350.433" font-family="Calibri" font-size="7.5" fill="rgb(255,255,255)" text-anchor="middle">3</text>
<polygon points="115.9,343.6 123.9,343.6 123.9,351.6 115.9,351.6" fill="rgb(205,0,0)"/><text xml:space="preserve" x="119.9" y="350.433" font-family="Calibri" font-size="7.5" fill="rgb(255,255,255)" text-anchor="middle">3</text>
<polygon points="123.9,343.6 131.9,343.6 131.9,351.6 123.9,351.6" fill="rgb(255,255,0)"/><text xml:space="preserve" x="127.9" y="350.433" font-family="Calibri" font-size="7.5" fill="rgb(0,0,0)" text-anchor="middle">2</text>
<polygon points="131.9,343.6 139.9,343.6 139.9,351.6 131.9,351.6" fill="rgb(255,255,0)"/><text xml:space="preserve" x="135.9" y="350.433" font-family="Calibri" font-size="7.5" fill="rgb(0,0,0)" text-anchor="middle">2</text>
<polygon points="139.9,343.6 147.9,343.6 147.9,351.6 139.9,351.6" fill="rgb(205,0,0)"/><text xml:space="preserve" x="143.9" y="350.433" font-family="Calibri" font-size="7.5" fill="rgb(255,255,255)" text-anchor="middle">3</text>
<polygon points="157.9,343.6 165.9,343.6 165.9,351.6 157.9,351.6" fill="rgb(12,75,137)"/>
<polygon points="165.9,343.6 173.9,343.6 173.9,351.6 165.9,351.6" fill="rgb(19,105,139)"/>
<polygon points="173.9,343.6 181.9,343.6 181.9,351.6 173.9,351.6" fill="rgb(18,99,139)"/>
<polygon points="181.9,343.6 189.9,343.6 189.9,351.6 181.9,351.6" fill="rgb(154,206,70)"/>
<polygon points="189.9,343.6 197.9,343.6 197.9,351.6 189.9,351.6" fill="rgb(109,211,102)"/>
<polygon points="197.9,343.6 205.9,343.6 205.9,351.6 197.9,351.6" fill="rgb(16,93,138)"/>
<polygon points="205.9,343.6 213.9,343.6 213.9,351.6 205.9,351.6" fill="rgb(34,161,142)"/>
<polygon points="213.9,343.6 221.9,343.6 221.9,351.6 213.9,351.6" fill="rgb(252,194,1)"/>
<polygon points="231.9,343.6 239.9,343.6 239.9,351.6 231.9,351.6" fill="rgb(205,0,205)"/>
<polygon points="239.9,343.6 247.9,343.6 247.9,351.6 239.9,351.6" fill="rgb(255,255,255)"/>
<polygon points="247.9,343.6 255.9,343.6 255.9,351.6 247.9,351.6" fill="rgb(255,255,255)"/>
<polygon points="255.9,343.6 263.9,343.6 263.9,351.6 255.9,351.6" fill="rgb(255,255,255)"/>
<polygon points="263.9,343.6 271.9,343.6 271.9,351.6 263.9,351.6" fill="rgb(255,255,255)"/>
<polygon points="271.9,343.6 279.9,343.6 279.9,351.6 271.9,351.6" fill="rgb(255,255,255)"/>
<polygon points="279.9,343.6 287.9,343.6 287.9,351.6 279.9,351.6" fill="rgb(255,255,255)"/>
<polygon points="287.9,343.6 295.9,343.6 295.9,351.6 287.9,351.6" fill="rgb(255,255,255)"/>
<polygon points="83.9,351.6 91.9,351.6 91.9,359.6 83.9,359.6" fill="rgb(255,255,0)"/><text xml:space="preserve" x="87.9" y="358.433" font-family="Calibri" font-size="7.5" fill="rgb(0,0,0)" text-anchor="middle">2</text>
<polygon points="91.9,351.6 99.9,351.6 99.9,359.6 91.9,359.6" fill="rgb(255,255,0)"/><text xml:space="preserve" x="95.9" y="358.433" font-family="Calibri" font-size="7.5" fill="rgb(0,0,0)" text-anchor="middle">2</text>
<polygon points="99.9,351.6 107.9,351.6 107.9,359.6 99.9,359.6" fill="rgb(255,255,0)"/><text xml:space="preserve" x="103.9" y="358.433" font-family="Calibri" font-size="7.5" fill="rgb(0,0,0)" text-anchor="middle">2</text>
<polygon points="107.9,351.6 115.9,351.6 115.9,359.6 107.9,359.6" fill="rgb(205,0,0)"/><text xml:space="preserve" x="111.9" y="358.433" font-family="Calibri" font-size="7.5" fill="rgb(255,255,255)" text-anchor="middle">3</text>
<polygon points="115.9,351.6 123.9,351.6 123.9,359.6 115.9,359.6" fill="rgb(205,0,0)"/><text xml:space="preserve" x="119.9" y="358.433" font-family="Calibri" font-size="7.5" fill="rgb(255,255,255)" text-anchor="middle">3</text>
<polygon points="123.9,351.6 131.9,351.6 131.9,359.6 123.9,359.6" fill="rgb(255,255,0)"/><text xml:space="preserve" x="127.9" y="358.433" font-family="Calibri" font-size="7.5" fill="rgb(0,0,0)" text-anchor="middle">2</text>
<polygon points="131.9,351.6 139.9,351.6 139.9,359.6 131.9,359.6" fill="rgb(255,255,0)"/><text xml:space="preserve" x="135.9" y="358.433" font-family="Calibri" font-size="7.5" fill="rgb(0,0,0)" text-anchor="middle">2</text>
<polygon points="139.9,351.6 147.9,351.6 147.9,359.6 139.9,359.6" fill="rgb(205,0,0)"/><text xml:space="preserve" x="143.9" y="358.433" font-family="Calibri" font-size="7.5" fill="rgb(255,255,255)" text-anchor="middle">3</text>
<polygon points="157.9,351.6 165.9,351.6 165.9,359.6 157.9,359.6" fill="rgb(25,128,140)"/>
<polygon points="165.9,351.6 173.9,351.6 173.9,359.6 165.9,359.6" fill="rgb(18,101,139)"/>
<polygon points="173.9,351.6 181.9,351.6 181.9,359.6 173.9,359.6" fill="rgb(32,153,142)"/>
<polygon points="181.9,351.6 189.9,351.6 189.9,359.6 181.9,359.6" fill="rgb(252,194,1)"/>
<polygon points="189.9,351.6 197.9,351.6 197.9,359.6 189.9,359.6" fill="rgb(252,194,1)"/>
<polygon points="197.9,351.6 205.9,351.6 205.9,359.6 197.9,359.6" fill="rgb(27,133,141)"/>
<polygon points="205.9,351.6 213.9,351.6 213.9,359.6 205.9,359.6" fill="rgb(14,84,138)"/>
<polygon points="213.9,351.6 221.9,351.6 221.9,359.6 213.9,359.6" fill="rgb(165,204,62)"/>
<polygon points="231.9,351.6 239.9,351.6 239.9,359.6 231.9,359.6" fill="rgb(205,0,205)"/>
<polygon points="239.9,351.6 247.9,351.6 247.9,359.6 239.9,359.6" fill="rgb(255,255,255)"/>
<polygon points="247.9,351.6 255.9,351.6 255.9,359.6 247.9,359.6" fill="rgb(255,255,255)"/>
<polygon points="255.9,351.6 263.9,351.6 263.9,359.6 255.9,359.6" fill="rgb(255,255,255)"/>
<polygon points="263.9,351.6 271.9,351.6 271.9,359.6 263.9,359.6" fill="rgb(255,255,255)"/>
<polygon points="271.9,351.6 279.9,351.6 279.9,359.6 271.9,359.6" fill="rgb(255,255,255)"/>
<polygon points="279.9,351.6 287.9,351.6 287.9,359.6 279.9,359.6" fill="rgb(255,255,255)"/>
<polygon points="287.9,351.6 295.9,351.6 295.9,359.6 287.9,359.6" fill="rgb(255,255,255)"/>
<polygon points="83.9,335.6 147.9,335.6 147.9,359.6 83.9,359.6" fill="none" stroke="black" stroke-width="1"/>
<polygon points="157.9,335.6 221.9,335.6 221.9,359.6 157.9,359.6" fill="none" stroke="black" stroke-width="1"/>
<polygon points="231.9,335.6 295.9,335.6 295.9,359.6 231.9,359.6" fill="none" stroke="black" stroke-width="1"/>
<text xml:space="preserve" x="157.95" y="392.6" font-family="Calibri" font-size="8" text-anchor="middle">ClusterAssignment</text>
<polygon points="127.95,399.6 147.95,399.6 147.95,419.6 127.95,419.6" fill="rgb(0,205,0)"/><polygon points="127.95,399.6 147.95,399.6 147.95,419.6 127.95,419.6" fill="none" stroke="black" stroke-width="1"/><text xml:space="preserve" x="137.95" y="412.433" font-family="Calibri" font-size="7.5" fill="rgb(255,255,255)" text-anchor="middle">1.0</text>
<polygon points="147.95,399.6 167.95,399.6 167.95,419.6 147.95,419.6" fill="rgb(255,255,0)"/><polygon points="147.95,399.6 167.95,399.6 167.95,419.6 147.95,419.6" fill="none" stroke="black" stroke-width="1"/><text xml:space="preserve" x="157.95" y="412.433" font-family="Calibri" font-size="7.5" fill="rgb(0,0,0)" text-anchor="middle">2.0</text>
<polygon points="167.95,399.6 187.95,399.6 187.95,419.6 167.95,419.6" fill="rgb(205,0,0)"/><polygon points="167.95,399.6 187.95,399.6 187.95,419.6 167.95,419.6" fill="none" stroke="black" stroke-width="1"/><text xml:space="preserve" x="177.95" y="412.433" font-family="Calibri" font-size="7.5" fill="rgb(255,255,255)" text-anchor="middle">3.0</text>
<text xml:space="preserve" x="157.95" y="452.6" font-family="Calibri" font-size="8" text-anchor="middle">Expression</text>
<polygon points="127.95,459.6 147.95,459.6 147.95,479.6 127.95,479.6" fill="rgb(0,27,135)"/><polygon points="127.95,459.6 147.95,459.6 147.95,479.6 127.95,479.6" fill="none" stroke="black" stroke-width="1"/><text xml:space="preserve" x="137.95" y="472.433" font-family="Calibri" font-size="7.5" fill="rgb(255,255,255)" text-anchor="middle">0.0</text>
<polygon points="147.95,459.6 167.95,459.6 167.95,479.6 147.95,479.6" fill="rgb(49,219,146)"/><polygon points="147.95,459.6 167.95,459.6 167.95,479.6 147.95,479.6" fill="none" stroke="black" stroke-width="1"/><text xml:space="preserve" x="157.95" y="472.433" font-family="Calibri" font-size="7.5" fill="rgb(0,0,0)" text-anchor="middle">1.5</text>
<polygon points="167.95,459.6 187.95,459.6 187.95,479.6 167.95,479.6" fill="rgb(252,194,1)"/><polygon points="167.95,459.6 187.95,459.6 187.95,479.6 167.95,479.6" fill="none" stroke="black" stroke-width="1"/><text xml:space="preserve" x="177.95" y="472.433" font-family="Calibri" font-size="7.5" fill="rgb(0,0,0)" text-anchor="middle">3.0</text>
<text xml:space="preserve" x="157.95" y="512.6" font-family="Calibri" font-size="8" text-anchor="middle">PANTHERclass</text>
<polygon points="127.95,519.6 147.95,519.6 147.95,539.6 127.95,539.6" fill="rgb(255,255,255)"/><polygon points="127.95,519.6 147.95,519.6 147.95,539.6 127.95,539.6" fill="none" stroke="black" stroke-width="1"/><text xml:space="preserve" x="137.95" y="532.433" font-family="Calibri" font-size="7.5" fill="rgb(0,0,0)" text-anchor="middle">0.0</text>
<polygon points="147.95,519.6 167.95,519.6 167.95,539.6 147.95,539.6" fill="rgb(230,127,230)"/><polygon points="147.95,519.6 167.95,519.6 167.95,539.6 147.95,539.6" fill="none" stroke="black" stroke-width="1"/><text xml:space="preserve" x="157.95" y="532.433" font-family="Calibri" font-size="7.5" fill="rgb(0,0,0)" text-anchor="middle">0.5</text>
<polygon points="167.95,519.6 187.95,519.6 187.95,539.6 167.95,539.6" fill="rgb(205,0,205)"/><polygon points="167.95,519.6 187.95,519.6 187.95,539.6 167.95,539.6" fill="none" stroke="black" stroke-width="1"/><text xml:space="preserve" x="177.95" y="532.433" font-family="Calibri" font-size="7.5" fill="rgb(255,255,255)" text-anchor="middle">1.0</text>
</svg>
