<?xml version="1.0" standalone="no"?><!DOCTYPE svg PUBLIC "-//W3C//DTD SVG 1.1//EN" "http://www.w3.org/Graphics/SVG/1.1/DTD/svg11.dtd">
<svg width="348.3" height="559.6" version="1.1" xmlns="http://www.w3.org/2000/svg">
<text xml:space="preserve" x="112.3" y="342.6" font-family="Calibri" font-size="8" text-anchor="end">LINC00682</text>
<text xml:space="preserve" x="112.3" y="350.6" font-family="Calibri" font-size="8" text-anchor="end">PHOX2B</text>
<text xml:space="preserve" x="112.3" y="358.6" font-family="Calibri" font-size="8" text-anchor="end">PHOX2A</text>
<text xml:space="preserve" x="123.3" y="331.6" font-family="Calibri" font-size="8" transform="rotate(270 123.3 331.6)">c5</text>
<text xml:space="preserve" x="131.3" y="331.6" font-family="Calibri" font-size="8" transform="rotate(270 131.3 331.6)">c4</text>
<text xml:space="preserve" x="139.3" y="331.6" font-family="Calibri" font-size="8" transform="rotate(270 139.3 331.6)">c1</text>
<text xml:space="preserve" x="147.3" y="331.6" font-family="Calibri" font-size="8" transform="rotate(270 147.3 331.6)">c8</text>
<text xml:space="preserve" x="155.3" y="331.6" font-family="Calibri" font-size="8" transform="rotate(270 155.3 331.6)">c3</text>
<text xml:space="preserve" x="163.3" y="331.6" font-family="Calibri" font-size="8" transform="rotate(270 163.3 331.6)">c6</text>
<text xml:space="preserve" x="171.3" y="331.6" font-family="Calibri" font-size="8" transform="rotate(270 171.3 331.6)">c2</text>
<text xml:space="preserve" x="179.3" y="331.6" font-family="Calibri" font-size="8" transform="rotate(270 179.3 331.6)">c7</text>
<text xml:space="preserve" x="197.3" y="331.6" font-family="Calibri" font-size="8" transform="rotate(270 197.3 331.6)">c5_mean</text>
<text xml:space="preserve" x="205.3" y="331.6" font-family="Calibri" font-size="8" transform="rotate(270 205.3 331.6)">c4_mean</text>
<text xml:space="preserve" x="213.3" y="331.6" font-family="Calibri" font-size="8" transform="rotate(270 213.3 331.6)">c1_mean</text>
<text xml:space="preserve" x="221.3" y="331.6" font-family="Calibri" font-size="8" transform="rotate(270 221.3 331.6)">c8_mean</text>
<text xml:space="preserve" x="229.3" y="331.6" font-family="Calibri" font-size="8" transform="rotate(270 229.3 331.6)">c3_mean</text>
<text xml:space="preserve" x="237.3" y="331.6" font-family="Calibri" font-size="8" transform="rotate(270 237.3 331.6)">c6_mean</text>
<text xml:space="preserve" x="245.3" y="331.6" font-family="Calibri" font-size="8" transform="rotate(270 245.3 331.6)">c2_mean</text>
<text xml:space="preserve" x="253.3" y="331.6" font-family="Calibri" font-size="8" transform="rotate(270 253.3 331.6)">c7_mean</text>
<text xml:space="preserve" x="271.3" y="331.6" font-family="Calibri" font-size="8" transform="rotate(270 271.3 331.6)">transcription_factor</text>
<text xml:space="preserve" x="279.3" y="331.6" font-family="Calibri" font-size="8" transform="rotate(270 279.3 331.6)">transmembrane_signal_receptor</text>
<text xml:space="preserve" x="287.3" y="331.6" font-family="Calibri" font-size="8" transform="rotate(270 287.3 331.6)">growth_factor</text>
<text xml:space="preserve" x="295.3" y="331.6" font-family="Calibri" font-size="8" transform="rotate(270 295.3 331.6)">peptide_hormone</text>
<text xml:space="preserve" x="303.3" y="331.6" font-family="Calibri" font-size="8" transform="rotate(270 303.3 331.6)">cytoskeletal_protein</text>
<text xml:space="preserve" x="311.3" y="331.6" font-family="Calibri" font-size="8" transform="rotate(270 311.3 331.6)">ion_channel</text>
<text xml:space="preserve" x="319.3" y="331.6" font-family="Calibri" font-size="8" transform="rotate(270 319.3 331.6)">integrin</text>
<text xml:space="preserve" x="327.3" y="331.6" font-family="Calibri" font-size="8" transform="rotate(270 327.3 331.6)">extracellular_matrix_protein</text>
<polygon points="116.3,335.6 124.3,335.6 124.3,343.6 116.3,343.6" fill="rgb(0,205,0)"/><text xml:space="preserve" x="120.3" y="342.433" font-family="Calibri" font-size="7.5" fill="rgb(255,255,255)" text-anchor="middle">1</text>
<polygon points="124.3,335.6 132.3,335.6 132.3,343.6 124.3,343.6" fill="rgb(205,0,0)"/><text xml:space="preserve" x="128.3" y="342.433" font-family="Calibri" font-size="7.5" fill="rgb(255,255,255)" text-anchor="middle">3</text>
<polygon points="132.3,335.6 140.3,335.6 140.3,343.6 132.3,343.6" fill="rgb(205,0,0)"/><text xml:space="preserve" x="136.3" y="342.433" font-family="Calibri" font-size="7.5" fill="rgb(255,255,255)" text-anchor="middle">3</text>
<polygon points="140.3,335.6 148.3,335.6 148.3,343.6 140.3,343.6" fill="rgb(255,255,0)"/><text xml:space="preserve" x="144.3" y="342.433" font-family="Calibri" font-size="7.5" fill="rgb(0,0,0)" text-anchor="middle">2</text>
<polygon points="148.3,335.6 156.3,335.6 156.3,343.6 148.3,343.6" fill="rgb(0,205,0)"/><text xml:space="preserve" x="152.3" y="342.433" font-family="Calibri" font-size="7.5" fill="rgb(255,255,255)" text-anchor="middle">1</text>
<polygon points="156.3,335.6 164.3,335.6 164.3,343.6 156.3,343.6" fill="rgb(0,205,0)"/><text xml:space="preserve" x="160.3" y="342.433" font-family="Calibri" font-size="7.5" fill="rgb(255,255,255)" text-anchor="middle">1</text>
<polygon points="164.3,335.6 172.3,335.6 172.3,343.6 164.3,343.6" fill="rgb(0,205,0)"/><text xml:space="preserve" x="168.3" y="342.433" font-family="Calibri" font-size="7.5" fill="rgb(255,255,255)" text-anchor="middle">1</text>
<polygon points="172.3,335.6 180.3,335.6 180.3,343.6 172.3,343.6" fill="rgb(0,205,0)"/><text xml:space="preserve" x="176.3" y="342.433" font-family="Calibri" font-size="7.5" fill="rgb(255,255,255)" text-anchor="middle">1</text>
<polygon points="190.3,335.6 198.3,335.6 198.3,343.6 190.3,343.6" fill="rgb(5,48,136)"/>
<polygon points="198.3,335.6 206.3,335.6 206.3,343.6 198.3,343.6" fill="rgb(252,194,1)"/>
<polygon points="206.3,335.6 214.3,335.6 214.3,343.6 206.3,343.6" fill="rgb(189,201,45)"/>
<polygon points="214.3,335.6 222.3,335.6 222.3,343.6 214.3,343.6" fill="rgb(28,139,141)"/>
<polygon points="222.3,335.6 230.3,335.6 230.3,343.6 222.3,343.6" fill="rgb(1,33,135)"/>
<polygon points="230.3,335.6 238.3,335.6 238.3,343.6 230.3,343.6" fill="rgb(9,62,137)"/>
<polygon points="238.3,335.6 246.3,335.6 246.3,343.6 238.3,343.6" fill="rgb(7,56,136)"/>
<polygon points="246.3,335.6 254.3,335.6 254.3,343.6 246.3,343.6" fill="rgb(0,30,135)"/>
<polygon points="264.3,335.6 272.3,335.6 272.3,343.6 264.3,343.6" fill="rgb(255,255,255)"/>
<polygon points="272.3,335.6 280.3,335.6 280.3,343.6 272.3,343.6" fill="rgb(255,255,255)"/>
<polygon points="280.3,335.6 288.3,335.6 288.3,343.6 280.3,343.6" fill="rgb(255,255,255)"/>
<polygon points="288.3,335.6 296.3,335.6 296.3,343.6 288.3,343.6" fill="rgb(255,255,255)"/>
<polygon points="296.3,335.6 304.3,335.6 304.3,343.6 296.3,343.6" fill="rgb(255,255,255)"/>
<polygon points="304.3,335.6 312.3,335.6 312.3,343.6 304.3,343.6" fill="rgb(255,255,255)"/>
<polygon points="312.3,335.6 320.3,335.6 320.3,343.6 312.3,343.6" fill="rgb(255,255,255)"/>
<polygon points="320.3,335.6 328.3,335.6 328.3,343.6 320.3,343.6" fill="rgb(255,255,255)"/>
<polygon points="116.3,343.6 124.3,343.6 124.3,351.6 116.3,351.6" fill="rgb(0,205,0)"/><text xml:space="preserve" x="120.3" y="350.433" font-family="Calibri" font-size="7.5" fill="rgb(255,255,255)" text-anchor="middle">1</text>
<polygon points="124.3,343.6 132.3,343.6 132.3,351.6 124.3,351.6" fill="rgb(205,0,0)"/><text xml:space="preserve" x="128.3" y="350.433" font-family="Calibri" font-size="7.5" fill="rgb(255,255,255)" text-anchor="middle">3</text>
<polygon points="132.3,343.6 140.3,343.6 140.3,351.6 132.3,351.6" fill="rgb(205,0,0)"/><text xml:space="preserve" x="136.3" y="350.433" font-family="Calibri" font-size="7.5" fill="rgb(255,255,255)" text-anchor="middle">3</text>
<polygon points="140.3,343.6 148.3,343.6 148.3,351.6 140.3,351.6" fill="rgb(255,255,0)"/><text xml:space="preserve" x="144.3" y="350.433" font-family="Calibri" font-size="7.5" fill="rgb(0,0,0)" text-anchor="middle">2</text>
<polygon points="148.3,343.6 156.3,343.6 156.3,351.6 148.3,351.6" fill="rgb(0,205,0)"/><text xml:space="preserve" x="152.3" y="350.433" font-family="Calibri" font-size="7.5" fill="rgb(255,255,255)" text-anchor="middle">1</text>
<polygon points="156.3,343.6 164.3,343.6 164.3,351.6 156.3,351.6" fill="rgb(0,205,0)"/><text xml:space="preserve" x="160.3" y="350.433" font-family="Calibri" font-size="7.5" fill="rgb(255,255,255)" text-anchor="middle">1</text>
<polygon points="164.3,343.6 172.3,343.6 172.3,351.6 164.3,351.6" fill="rgb(0,205,0)"/><text xml:space="preserve" x="168.3" y="350.433" font-family="Calibri" font-size="7.5" fill="rgb(255,255,255)" text-anchor="middle">1</text>
<polygon points="172.3,343.6 180.3,343.6 180.3,351.6 172.3,351.6" fill="rgb(0,205,0)"/><text xml:space="preserve" x="176.3" y="350.433" font-family="Calibri" font-size="7.5" fill="rgb(255,255,255)" text-anchor="middle">1</text>
<polygon points="190.3,343.6 198.3,343.6 198.3,351.6 190.3,351.6" fill="rgb(6,52,136)"/>
<polygon points="198.3,343.6 206.3,343.6 206.3,351.6 198.3,351.6" fill="rgb(252,194,1)"/>
<polygon points="206.3,343.6 214.3,343.6 214.3,351.6 206.3,351.6" fill="rgb(252,194,1)"/>
<polygon points="214.3,343.6 222.3,343.6 222.3,351.6 214.3,351.6" fill="rgb(42,193,144)"/>
<polygon points="222.3,343.6 230.3,343.6 230.3,351.6 222.3,351.6" fill="rgb(1,32,135)"/>
<polygon points="230.3,343.6 238.3,343.6 238.3,351.6 230.3,351.6" fill="rgb(12,74,137)"/>
<polygon points="238.3,343.6 246.3,343.6 246.3,351.6 238.3,351.6" fill="rgb(10,66,137)"/>
<polygon points="246.3,343.6 254.3,343.6 254.3,351.6 246.3,351.6" fill="rgb(0,30,135)"/>
<polygon points="264.3,343.6 272.3,343.6 272.3,351.6 264.3,351.6" fill="rgb(205,0,205)"/>
<polygon points="272.3,343.6 280.3,343.6 280.3,351.6 272.3,351.6" fill="rgb(255,255,255)"/>
<polygon points="280.3,343.6 288.3,343.6 288.3,351.6 280.3,351.6" fill="rgb(255,255,255)"/>
<polygon points="288.3,343.6 296.3,343.6 296.3,351.6 288.3,351.6" fill="rgb(255,255,255)"/>
<polygon points="296.3,343.6 304.3,343.6 304.3,351.6 296.3,351.6" fill="rgb(255,255,255)"/>
<polygon points="304.3,343.6 312.3,343.6 312.3,351.6 304.3,351.6" fill="rgb(255,255,255)"/>
<polygon points="312.3,343.6 320.3,343.6 320.3,351.6 312.3,351.6" fill="rgb(255,255,255)"/>
<polygon points="320.3,343.6 328.3,343.6 328.3,351.6 320.3,351.6" fill="rgb(255,255,255)"/>
<polygon points="116.3,351.6 124.3,351.6 124.3,359.6 116.3,359.6" fill="rgb(0,205,0)"/><text xml:space="preserve" x="120.3" y="358.433" font-family="Calibri" font-size="7.5" fill="rgb(255,255,255)" text-anchor="middle">1</text>
<polygon points="124.3,351.6 132.3,351.6 132.3,359.6 124.3,359.6" fill="rgb(205,0,0)"/><text xml:space="preserve" x="128.3" y="358.433" font-family="Calibri" font-size="7.5" fill="rgb(255,255,255)" text-anchor="middle">3</text>
<polygon points="132.3,351.6 140.3,351.6 140.3,359.6 132.3,359.6" fill="rgb(205,0,0)"/><text xml:space="preserve" x="136.3" y="358.433" font-family="Calibri" font-size="7.5" fill="rgb(255,255,255)" text-anchor="middle">3</text>
<polygon points="140.3,351.6 148.3,351.6 148.3,359.6 140.3,359.6" fill="rgb(255,255,0)"/><text xml:space="preserve" x="144.3" y="358.433" font-family="Calibri" font-size="7.5" fill="rgb(0,0,0)" text-anchor="middle">2</text>
<polygon points="148.3,351.6 156.3,351.6 156.3,359.6 148.3,359.6" fill="rgb(0,205,0)"/><text xml:space="preserve" x="152.3" y="358.433" font-family="Calibri" font-size="7.5" fill="rgb(255,255,255)" text-anchor="middle">1</text>
<polygon points="156.3,351.6 164.3,351.6 164.3,359.6 156.3,359.6" fill="rgb(0,205,0)"/><text xml:space="preserve" x="160.3" y="358.433" font-family="Calibri" font-size="7.5" fill="rgb(255,255,255)" text-anchor="middle">1</text>
<polygon points="164.3,351.6 172.3,351.6 172.3,359.6 164.3,359.6" fill="rgb(0,205,0)"/><text xml:space="preserve" x="168.3" y="358.433" font-family="Calibri" font-size="7.5" fill="rgb(255,255,255)" text-anchor="middle">1</text>
<polygon points="172.3,351.6 180.3,351.6 180.3,359.6 172.3,359.6" fill="rgb(0,205,0)"/><text xml:space="preserve" x="176.3" y="358.433" font-family="Calibri" font-size="7.5" fill="rgb(255,255,255)" text-anchor="middle">1</text>
<polygon points="190.3,351.6 198.3,351.6 198.3,359.6 190.3,359.6" fill="rgb(6,53,136)"/>
<polygon points="198.3,351.6 206.3,351.6 206.3,359.6 198.3,359.6" fill="rgb(252,194,1)"/>
<polygon points="206.3,351.6 214.3,351.6 214.3,359.6 206.3,359.6" fill="rgb(252,194,1)"/>
<polygon points="214.3,351.6 222.3,351.6 222.3,359.6 214.3,359.6" fill="rgb(31,151,142)"/>
<polygon points="222.3,351.6 230.3,351.6 230.3,359.6 222.3,359.6" fill="rgb(0,30,135)"/>
<polygon points="230.3,351.6 238.3,351.6 238.3,359.6 230.3,359.6" fill="rgb(9,62,137)"/>
<polygon points="238.3,351.6 246.3,351.6 246.3,359.6 238.3,359.6" fill="rgb(6,52,136)"/>
<polygon points="246.3,351.6 254.3,351.6 254.3,359.6 246.3,359.6" fill="rgb(0,29,135)"/>
<polygon points="264.3,351.6 272.3,351.6 272.3,359.6 264.3,359.6" fill="rgb(205,0,205)"/>
<polygon points="272.3,351.6 280.3,351.6 280.3,359.6 272.3,359.6" fill="rgb(255,255,255)"/>
<polygon points="280.3,351.6 288.3,351.6 288.3,359.6 280.3,359.6" fill="rgb(255,255,255)"/>
<polygon points="288.3,351.6 296.3,351.6 296.3,359.6 288.3,359.6" fill="rgb(255,255,255)"/>
<polygon points="296.3,351.6 304.3,351.6 304.3,359.6 296.3,359.6" fill="rgb(255,255,255)"/>
<polygon points="304.3,351.6 312.3,351.6 312.3,359.6 304.3,359.6" fill="rgb(255,255,255)"/>
<polygon points="312.3,351.6 320.3,351.6 320.3,359.6 312.3,359.6" fill="rgb(255,255,255)"/>
<polygon points="320.3,351.6 328.3,351.6 328.3,359.6 320.3,359.6" fill="rgb(255,255,255)"/>
<polygon points="116.3,335.6 180.3,335.6 180.3,359.6 116.3,359.6" fill="none" stroke="black" stroke-width="1"/>
<polygon points="190.3,335.6 254.3,335.6 254.3,359.6 190.3,359.6" fill="none" stroke="black" stroke-width="1"/>
<polygon points="264.3,335.6 328.3,335.6 328.3,359.6 264.3,359.6" fill="none" stroke="black" stroke-width="1"/>
<text xml:space="preserve" x="174.15" y="392.6" font-family="Calibri" font-size="8" text-anchor="middle">ClusterAssignment</text>
<polygon points="144.15,399.6 164.15,399.6 164.15,419.6 144.15,419.6" fill="rgb(0,205,0)"/><polygon points="144.15,399.6 164.15,399.6 164.15,419.6 144.15,419.6" fill="none" stroke="black" stroke-width="1"/><text xml:space="preserve" x="154.15" y="412.433" font-family="Calibri" font-size="7.5" fill="rgb(255,255,255)" text-anchor="middle">1.0</text>
<polygon points="164.15,399.6 184.15,399.6 184.15,419.6 164.15,419.6" fill="rgb(255,255,0)"/><polygon points="164.15,399.6 184.15,399.6 184.15,419.6 164.15,419.6" fill="none" stroke="black" stroke-width="1"/><text xml:space="preserve" x="174.15" y="412.433" font-family="Calibri" font-size="7.5" fill="rgb(0,0,0)" text-anchor="middle">2.0</text>
<polygon points="184.15,399.6 204.15,399.6 204.15,419.6 184.15,419.6" fill="rgb(205,0,0)"/><polygon points="184.15,399.6 204.15,399.6 204.15,419.6 184.15,419.6" fill="none" stroke="black" stroke-width="1"/><text xml:space="preserve" x="194.15" y="412.433" font-family="Calibri" font-size="7.5" fill="rgb(255,255,255)" text-anchor="middle">3.0</text>
<text xml:space="preserve" x="174.15" y="452.6" font-family="Calibri" font-size="8" text-anchor="middle">Expression</text>
<polygon points="144.15,459.6 164.15,459.6 164.15,479.6 144.15,479.6" fill="rgb(0,27,135)"/><polygon points="144.15,459.6 164.15,459.6 164.15,479.6 144.15,479.6" fill="none" stroke="black" stroke-width="1"/><text xml:space="preserve" x="154.15" y="472.433" font-family="Calibri" font-size="7.5" fill="rgb(255,255,255)" text-anchor="middle">0.0</text>
<polygon points="164.15,459.6 184.15,459.6 184.15,479.6 164.15,479.6" fill="rgb(49,219,146)"/><polygon points="164.15,459.6 184.15,459.6 184.15,479.6 164.15,479.6" fill="none" stroke="black" stroke-width="1"/><text xml:space="preserve" x="174.15" y="472.433" font-family="Calibri" font-size="7.5" fill="rgb(0,0,0)" text-anchor="middle">1.5</text>
<polygon points="184.15,459.6 204.15,459.6 204.15,479.6 184.15,479.6" fill="rgb(252,194,1)"/><polygon points="184.15,459.6 204.15,459.6 204.15,479.6 184.15,479.6" fill="none" stroke="black" stroke-width="1"/><text xml:space="preserve" x="194.15" y="472.433" font-family="Calibri" font-size="7.5" fill="rgb(0,0,0)" text-anchor="middle">3.0</text>
<text xml:space="preserve" x="174.15" y="512.6" font-family="Calibri" font-size="8" text-anchor="middle">PANTHERclass</text>
<polygon points="144.15,519.6 164.15,519.6 164.15,539.6 144.15,539.6" fill="rgb(255,255,255)"/><polygon points="144.15,519.6 164.15,519.6 164.15,539.6 144.15,539.6" fill="none" stroke="black" stroke-width="1"/><text xml:space="preserve" x="154.15" y="532.433" font-family="Calibri" font-size="7.5" fill="rgb(0,0,0)" text-anchor="middle">0.0</text>
<polygon points="164.15,519.6 184.15,519.6 184.15,539.6 164.15,539.6" fill="rgb(230,127,230)"/><polygon points="164.15,519.6 184.15,519.6 184.15,539.6 164.15,539.6" fill="none" stroke="black" stroke-width="1"/><text xml:space="preserve" x="174.15" y="532.433" font-family="Calibri" font-size="7.5" fill="rgb(0,0,0)" text-anchor="middle">0.5</text>
<polygon points="184.15,519.6 204.15,519.6 204.15,539.6 184.15,539.6" fill="rgb(205,0,205)"/><polygon points="184.15,519.6 204.15,519.6 204.15,539.6 184.15,539.6" fill="none" stroke="black" stroke-width="1"/><text xml:space="preserve" x="194.15" y="532.433" font-family="Calibri" font-size="7.5" fill="rgb(255,255,255)" text-anchor="middle">1.0</text>
</svg>
