<?xml version="1.0" standalone="no"?><!DOCTYPE svg PUBLIC "-//W3C//DTD SVG 1.1//EN" "http://www.w3.org/Graphics/SVG/1.1/DTD/svg11.dtd">
<svg width="298.8" height="559.6" version="1.1" xmlns="http://www.w3.org/2000/svg">
<text xml:space="preserve" x="62.8" y="342.6" font-family="Calibri" font-size="8" text-anchor="end">SLIT2</text>
<text xml:space="preserve" x="62.8" y="350.6" font-family="Calibri" font-size="8" text-anchor="end">VGF</text>
<text xml:space="preserve" x="62.8" y="358.6" font-family="Calibri" font-size="8" text-anchor="end">SYT1</text>
<text xml:space="preserve" x="73.8" y="331.6" font-family="Calibri" font-size="8" transform="rotate(270 73.8 331.6)">c5</text>
<text xml:space="preserve" x="81.8" y="331.6" font-family="Calibri" font-size="8" transform="rotate(270 81.8 331.6)">c4</text>
<text xml:space="preserve" x="89.8" y="331.6" font-family="Calibri" font-size="8" transform="rotate(270 89.8 331.6)">c1</text>
<text xml:space="preserve" x="97.8" y="331.6" font-family="Calibri" font-size="8" transform="rotate(270 97.8 331.6)">c8</text>
<text xml:space="preserve" x="105.8" y="331.6" font-family="Calibri" font-size="8" transform="rotate(270 105.8 331.6)">c3</text>
<text xml:space="preserve" x="113.8" y="331.6" font-family="Calibri" font-size="8" transform="rotate(270 113.8 331.6)">c6</text>
<text xml:space="preserve" x="121.8" y="331.6" font-family="Calibri" font-size="8" transform="rotate(270 121.8 331.6)">c2</text>
<text xml:space="preserve" x="129.8" y="331.6" font-family="Calibri" font-size="8" transform="rotate(270 129.8 331.6)">c7</text>
<text xml:space="preserve" x="147.8" y="331.6" font-family="Calibri" font-size="8" transform="rotate(270 147.8 331.6)">c5_mean</text>
<text xml:space="preserve" x="155.8" y="331.6" font-family="Calibri" font-size="8" transform="rotate(270 155.8 331.6)">c4_mean</text>
<text xml:space="preserve" x="163.8" y="331.6" font-family="Calibri" font-size="8" transform="rotate(270 163.8 331.6)">c1_mean</text>
<text xml:space="preserve" x="171.8" y="331.6" font-family="Calibri" font-size="8" transform="rotate(270 171.8 331.6)">c8_mean</text>
<text xml:space="preserve" x="179.8" y="331.6" font-family="Calibri" font-size="8" transform="rotate(270 179.8 331.6)">c3_mean</text>
<text xml:space="preserve" x="187.8" y="331.6" font-family="Calibri" font-size="8" transform="rotate(270 187.8 331.6)">c6_mean</text>
<text xml:space="preserve" x="195.8" y="331.6" font-family="Calibri" font-size="8" transform="rotate(270 195.8 331.6)">c2_mean</text>
<text xml:space="preserve" x="203.8" y="331.6" font-family="Calibri" font-size="8" transform="rotate(270 203.8 331.6)">c7_mean</text>
<text xml:space="preserve" x="221.8" y="331.6" font-family="Calibri" font-size="8" transform="rotate(270 221.8 331.6)">transcription_factor</text>
<text xml:space="preserve" x="229.8" y="331.6" font-family="Calibri" font-size="8" transform="rotate(270 229.8 331.6)">transmembrane_signal_receptor</text>
<text xml:space="preserve" x="237.8" y="331.6" font-family="Calibri" font-size="8" transform="rotate(270 237.8 331.6)">growth_factor</text>
<text xml:space="preserve" x="245.8" y="331.6" font-family="Calibri" font-size="8" transform="rotate(270 245.8 331.6)">peptide_hormone</text>
<text xml:space="preserve" x="253.8" y="331.6" font-family="Calibri" font-size="8" transform="rotate(270 253.8 331.6)">cytoskeletal_protein</text>
<text xml:space="preserve" x="261.8" y="331.6" font-family="Calibri" font-size="8" transform="rotate(270 261.8 331.6)">ion_channel</text>
<text xml:space="preserve" x="269.8" y="331.6" font-family="Calibri" font-size="8" transform="rotate(270 269.8 331.6)">integrin</text>
<text xml:space="preserve" x="277.8" y="331.6" font-family="Calibri" font-size="8" transform="rotate(270 277.8 331.6)">extracellular_matrix_protein</text>
<polygon points="66.8,335.6 74.8,335.6 74.8,343.6 66.8,343.6" fill="rgb(255,255,0)"/><text xml:space="preserve" x="70.8" y="342.433" font-family="Calibri" font-size="7.5" fill="rgb(0,0,0)" text-anchor="middle">2</text>
<polygon points="74.8,335.6 82.8,335.6 82.8,343.6 74.8,343.6" fill="rgb(205,0,0)"/><text xml:space="preserve" x="78.8" y="342.433" font-family="Calibri" font-size="7.5" fill="rgb(255,255,255)" text-anchor="middle">3</text>
<polygon points="82.8,335.6 90.8,335.6 90.8,343.6 82.8,343.6" fill="rgb(205,0,0)"/><text xml:space="preserve" x="86.8" y="342.433" font-family="Calibri" font-size="7.5" fill="rgb(255,255,255)" text-anchor="middle">3</text>
<polygon points="90.8,335.6 98.8,335.6 98.8,343.6 90.8,343.6" fill="rgb(255,255,0)"/><text xml:space="preserve" x="94.8" y="342.433" font-family="Calibri" font-size="7.5" fill="rgb(0,0,0)" text-anchor="middle">2</text>
<polygon points="98.8,335.6 106.8,335.6 106.8,343.6 98.8,343.6" fill="rgb(255,255,0)"/><text xml:space="preserve" x="102.8" y="342.433" font-family="Calibri" font-size="7.5" fill="rgb(0,0,0)" text-anchor="middle">2</text>
<polygon points="106.8,335.6 114.8,335.6 114.8,343.6 106.8,343.6" fill="rgb(205,0,0)"/><text xml:space="preserve" x="110.8" y="342.433" font-family="Calibri" font-size="7.5" fill="rgb(255,255,255)" text-anchor="middle">3</text>
<polygon points="114.8,335.6 122.8,335.6 122.8,343.6 114.8,343.6" fill="rgb(205,0,0)"/><text xml:space="preserve" x="118.8" y="342.433" font-family="Calibri" font-size="7.5" fill="rgb(255,255,255)" text-anchor="middle">3</text>
<polygon points="122.8,335.6 130.8,335.6 130.8,343.6 122.8,343.6" fill="rgb(255,255,0)"/><text xml:space="preserve" x="126.8" y="342.433" font-family="Calibri" font-size="7.5" fill="rgb(0,0,0)" text-anchor="middle">2</text>
<polygon points="140.8,335.6 148.8,335.6 148.8,343.6 140.8,343.6" fill="rgb(33,160,142)"/>
<polygon points="148.8,335.6 156.8,335.6 156.8,343.6 148.8,343.6" fill="rgb(252,194,1)"/>
<polygon points="156.8,335.6 164.8,335.6 164.8,343.6 156.8,343.6" fill="rgb(252,194,1)"/>
<polygon points="164.8,335.6 172.8,335.6 172.8,343.6 164.8,343.6" fill="rgb(25,128,140)"/>
<polygon points="172.8,335.6 180.8,335.6 180.8,343.6 172.8,343.6" fill="rgb(32,156,142)"/>
<polygon points="180.8,335.6 188.8,335.6 188.8,343.6 180.8,343.6" fill="rgb(252,194,1)"/>
<polygon points="188.8,335.6 196.8,335.6 196.8,343.6 188.8,343.6" fill="rgb(88,214,117)"/>
<polygon points="196.8,335.6 204.8,335.6 204.8,343.6 196.8,343.6" fill="rgb(14,84,138)"/>
<polygon points="214.8,335.6 222.8,335.6 222.8,343.6 214.8,343.6" fill="rgb(255,255,255)"/>
<polygon points="222.8,335.6 230.8,335.6 230.8,343.6 222.8,343.6" fill="rgb(255,255,255)"/>
<polygon points="230.8,335.6 238.8,335.6 238.8,343.6 230.8,343.6" fill="rgb(255,255,255)"/>
<polygon points="238.8,335.6 246.8,335.6 246.8,343.6 238.8,343.6" fill="rgb(255,255,255)"/>
<polygon points="246.8,335.6 254.8,335.6 254.8,343.6 246.8,343.6" fill="rgb(255,255,255)"/>
<polygon points="254.8,335.6 262.8,335.6 262.8,343.6 254.8,343.6" fill="rgb(255,255,255)"/>
<polygon points="262.8,335.6 270.8,335.6 270.8,343.6 262.8,343.6" fill="rgb(255,255,255)"/>
<polygon points="270.8,335.6 278.8,335.6 278.8,343.6 270.8,343.6" fill="rgb(255,255,255)"/>
<polygon points="66.8,343.6 74.8,343.6 74.8,351.6 66.8,351.6" fill="rgb(255,255,0)"/><text xml:space="preserve" x="70.8" y="350.433" font-family="Calibri" font-size="7.5" fill="rgb(0,0,0)" text-anchor="middle">2</text>
<polygon points="74.8,343.6 82.8,343.6 82.8,351.6 74.8,351.6" fill="rgb(205,0,0)"/><text xml:space="preserve" x="78.8" y="350.433" font-family="Calibri" font-size="7.5" fill="rgb(255,255,255)" text-anchor="middle">3</text>
<polygon points="82.8,343.6 90.8,343.6 90.8,351.6 82.8,351.6" fill="rgb(205,0,0)"/><text xml:space="preserve" x="86.8" y="350.433" font-family="Calibri" font-size="7.5" fill="rgb(255,255,255)" text-anchor="middle">3</text>
<polygon points="90.8,343.6 98.8,343.6 98.8,351.6 90.8,351.6" fill="rgb(255,255,0)"/><text xml:space="preserve" x="94.8" y="350.433" font-family="Calibri" font-size="7.5" fill="rgb(0,0,0)" text-anchor="middle">2</text>
<polygon points="98.8,343.6 106.8,343.6 106.8,351.6 98.8,351.6" fill="rgb(255,255,0)"/><text xml:space="preserve" x="102.8" y="350.433" font-family="Calibri" font-size="7.5" fill="rgb(0,0,0)" text-anchor="middle">2</text>
<polygon points="106.8,343.6 114.8,343.6 114.8,351.6 106.8,351.6" fill="rgb(205,0,0)"/><text xml:space="preserve" x="110.8" y="350.433" font-family="Calibri" font-size="7.5" fill="rgb(255,255,255)" text-anchor="middle">3</text>
<polygon points="114.8,343.6 122.8,343.6 122.8,351.6 114.8,351.6" fill="rgb(205,0,0)"/><text xml:space="preserve" x="118.8" y="350.433" font-family="Calibri" font-size="7.5" fill="rgb(255,255,255)" text-anchor="middle">3</text>
<polygon points="122.8,343.6 130.8,343.6 130.8,351.6 122.8,351.6" fill="rgb(255,255,0)"/><text xml:space="preserve" x="126.8" y="350.433" font-family="Calibri" font-size="7.5" fill="rgb(0,0,0)" text-anchor="middle">2</text>
<polygon points="140.8,343.6 148.8,343.6 148.8,351.6 140.8,351.6" fill="rgb(26,129,140)"/>
<polygon points="148.8,343.6 156.8,343.6 156.8,351.6 148.8,351.6" fill="rgb(88,214,117)"/>
<polygon points="156.8,343.6 164.8,343.6 164.8,351.6 156.8,351.6" fill="rgb(119,210,95)"/>
<polygon points="164.8,343.6 172.8,343.6 172.8,351.6 164.8,351.6" fill="rgb(16,92,138)"/>
<polygon points="172.8,343.6 180.8,343.6 180.8,351.6 172.8,351.6" fill="rgb(15,85,138)"/>
<polygon points="180.8,343.6 188.8,343.6 188.8,351.6 180.8,351.6" fill="rgb(155,205,69)"/>
<polygon points="188.8,343.6 196.8,343.6 196.8,351.6 188.8,351.6" fill="rgb(162,205,64)"/>
<polygon points="196.8,343.6 204.8,343.6 204.8,351.6 196.8,351.6" fill="rgb(17,94,138)"/>
<polygon points="214.8,343.6 222.8,343.6 222.8,351.6 214.8,351.6" fill="rgb(255,255,255)"/>
<polygon points="222.8,343.6 230.8,343.6 230.8,351.6 222.8,351.6" fill="rgb(255,255,255)"/>
<polygon points="230.8,343.6 238.8,343.6 238.8,351.6 230.8,351.6" fill="rgb(205,0,205)"/>
<polygon points="238.8,343.6 246.8,343.6 246.8,351.6 238.8,351.6" fill="rgb(205,0,205)"/>
<polygon points="246.8,343.6 254.8,343.6 254.8,351.6 246.8,351.6" fill="rgb(255,255,255)"/>
<polygon points="254.8,343.6 262.8,343.6 262.8,351.6 254.8,351.6" fill="rgb(255,255,255)"/>
<polygon points="262.8,343.6 270.8,343.6 270.8,351.6 262.8,351.6" fill="rgb(255,255,255)"/>
<polygon points="270.8,343.6 278.8,343.6 278.8,351.6 270.8,351.6" fill="rgb(255,255,255)"/>
<polygon points="66.8,351.6 74.8,351.6 74.8,359.6 66.8,359.6" fill="rgb(255,255,0)"/><text xml:space="preserve" x="70.8" y="358.433" font-family="Calibri" font-size="7.5" fill="rgb(0,0,0)" text-anchor="middle">2</text>
<polygon points="74.8,351.6 82.8,351.6 82.8,359.6 74.8,359.6" fill="rgb(205,0,0)"/><text xml:space="preserve" x="78.8" y="358.433" font-family="Calibri" font-size="7.5" fill="rgb(255,255,255)" text-anchor="middle">3</text>
<polygon points="82.8,351.6 90.8,351.6 90.8,359.6 82.8,359.6" fill="rgb(205,0,0)"/><text xml:space="preserve" x="86.8" y="358.433" font-family="Calibri" font-size="7.5" fill="rgb(255,255,255)" text-anchor="middle">3</text>
<polygon points="90.8,351.6 98.8,351.6 98.8,359.6 90.8,359.6" fill="rgb(255,255,0)"/><text xml:space="preserve" x="94.8" y="358.433" font-family="Calibri" font-size="7.5" fill="rgb(0,0,0)" text-anchor="middle">2</text>
<polygon points="98.8,351.6 106.8,351.6 106.8,359.6 98.8,359.6" fill="rgb(255,255,0)"/><text xml:space="preserve" x="102.8" y="358.433" font-family="Calibri" font-size="7.5" fill="rgb(0,0,0)" text-anchor="middle">2</text>
<polygon points="106.8,351.6 114.8,351.6 114.8,359.6 106.8,359.6" fill="rgb(205,0,0)"/><text xml:space="preserve" x="110.8" y="358.433" font-family="Calibri" font-size="7.5" fill="rgb(255,255,255)" text-anchor="middle">3</text>
<polygon points="114.8,351.6 122.8,351.6 122.8,359.6 114.8,359.6" fill="rgb(205,0,0)"/><text xml:space="preserve" x="118.8" y="358.433" font-family="Calibri" font-size="7.5" fill="rgb(255,255,255)" text-anchor="middle">3</text>
<polygon points="122.8,351.6 130.8,351.6 130.8,359.6 122.8,359.6" fill="rgb(255,255,0)"/><text xml:space="preserve" x="126.8" y="358.433" font-family="Calibri" font-size="7.5" fill="rgb(0,0,0)" text-anchor="middle">2</text>
<polygon points="140.8,351.6 148.8,351.6 148.8,359.6 140.8,359.6" fill="rgb(41,188,144)"/>
<polygon points="148.8,351.6 156.8,351.6 156.8,359.6 148.8,359.6" fill="rgb(252,194,1)"/>
<polygon points="156.8,351.6 164.8,351.6 164.8,359.6 156.8,359.6" fill="rgb(215,198,27)"/>
<polygon points="164.8,351.6 172.8,351.6 172.8,359.6 164.8,359.6" fill="rgb(23,117,140)"/>
<polygon points="172.8,351.6 180.8,351.6 180.8,359.6 172.8,359.6" fill="rgb(24,123,140)"/>
<polygon points="180.8,351.6 188.8,351.6 188.8,359.6 180.8,359.6" fill="rgb(252,194,1)"/>
<polygon points="188.8,351.6 196.8,351.6 196.8,359.6 188.8,359.6" fill="rgb(252,194,1)"/>
<polygon points="196.8,351.6 204.8,351.6 204.8,359.6 196.8,359.6" fill="rgb(25,126,140)"/>
<polygon points="214.8,351.6 222.8,351.6 222.8,359.6 214.8,359.6" fill="rgb(255,255,255)"/>
<polygon points="222.8,351.6 230.8,351.6 230.8,359.6 222.8,359.6" fill="rgb(255,255,255)"/>
<polygon points="230.8,351.6 238.8,351.6 238.8,359.6 230.8,359.6" fill="rgb(255,255,255)"/>
<polygon points="238.8,351.6 246.8,351.6 246.8,359.6 238.8,359.6" fill="rgb(255,255,255)"/>
<polygon points="246.8,351.6 254.8,351.6 254.8,359.6 246.8,359.6" fill="rgb(255,255,255)"/>
<polygon points="254.8,351.6 262.8,351.6 262.8,359.6 254.8,359.6" fill="rgb(255,255,255)"/>
<polygon points="262.8,351.6 270.8,351.6 270.8,359.6 262.8,359.6" fill="rgb(255,255,255)"/>
<polygon points="270.8,351.6 278.8,351.6 278.8,359.6 270.8,359.6" fill="rgb(255,255,255)"/>
<polygon points="66.8,335.6 130.8,335.6 130.8,359.6 66.8,359.6" fill="none" stroke="black" stroke-width="1"/>
<polygon points="140.8,335.6 204.8,335.6 204.8,359.6 140.8,359.6" fill="none" stroke="black" stroke-width="1"/>
<polygon points="214.8,335.6 278.8,335.6 278.8,359.6 214.8,359.6" fill="none" stroke="black" stroke-width="1"/>
<text xml:space="preserve" x="149.4" y="392.6" font-family="Calibri" font-size="8" text-anchor="middle">ClusterAssignment</text>
<polygon points="119.4,399.6 139.4,399.6 139.4,419.6 119.4,419.6" fill="rgb(0,205,0)"/><polygon points="119.4,399.6 139.4,399.6 139.4,419.6 119.4,419.6" fill="none" stroke="black" stroke-width="1"/><text xml:space="preserve" x="129.4" y="412.433" font-family="Calibri" font-size="7.5" fill="rgb(255,255,255)" text-anchor="middle">1.0</text>
<polygon points="139.4,399.6 159.4,399.6 159.4,419.6 139.4,419.6" fill="rgb(255,255,0)"/><polygon points="139.4,399.6 159.4,399.6 159.4,419.6 139.4,419.6" fill="none" stroke="black" stroke-width="1"/><text xml:space="preserve" x="149.4" y="412.433" font-family="Calibri" font-size="7.5" fill="rgb(0,0,0)" text-anchor="middle">2.0</text>
<polygon points="159.4,399.6 179.4,399.6 179.4,419.6 159.4,419.6" fill="rgb(205,0,0)"/><polygon points="159.4,399.6 179.4,399.6 179.4,419.6 159.4,419.6" fill="none" stroke="black" stroke-width="1"/><text xml:space="preserve" x="169.4" y="412.433" font-family="Calibri" font-size="7.5" fill="rgb(255,255,255)" text-anchor="middle">3.0</text>
<text xml:space="preserve" x="149.4" y="452.6" font-family="Calibri" font-size="8" text-anchor="middle">Expression</text>
<polygon points="119.4,459.6 139.4,459.6 139.4,479.6 119.4,479.6" fill="rgb(0,27,135)"/><polygon points="119.4,459.6 139.4,459.6 139.4,479.6 119.4,479.6" fill="none" stroke="black" stroke-width="1"/><text xml:space="preserve" x="129.4" y="472.433" font-family="Calibri" font-size="7.5" fill="rgb(255,255,255)" text-anchor="middle">0.0</text>
<polygon points="139.4,459.6 159.4,459.6 159.4,479.6 139.4,479.6" fill="rgb(49,219,146)"/><polygon points="139.4,459.6 159.4,459.6 159.4,479.6 139.4,479.6" fill="none" stroke="black" stroke-width="1"/><text xml:space="preserve" x="149.4" y="472.433" font-family="Calibri" font-size="7.5" fill="rgb(0,0,0)" text-anchor="middle">1.5</text>
<polygon points="159.4,459.6 179.4,459.6 179.4,479.6 159.4,479.6" fill="rgb(252,194,1)"/><polygon points="159.4,459.6 179.4,459.6 179.4,479.6 159.4,479.6" fill="none" stroke="black" stroke-width="1"/><text xml:space="preserve" x="169.4" y="472.433" font-family="Calibri" font-size="7.5" fill="rgb(0,0,0)" text-anchor="middle">3.0</text>
<text xml:space="preserve" x="149.4" y="512.6" font-family="Calibri" font-size="8" text-anchor="middle">PANTHERclass</text>
<polygon points="119.4,519.6 139.4,519.6 139.4,539.6 119.4,539.6" fill="rgb(255,255,255)"/><polygon points="119.4,519.6 139.4,519.6 139.4,539.6 119.4,539.6" fill="none" stroke="black" stroke-width="1"/><text xml:space="preserve" x="129.4" y="532.433" font-family="Calibri" font-size="7.5" fill="rgb(0,0,0)" text-anchor="middle">0.0</text>
<polygon points="139.4,519.6 159.4,519.6 159.4,539.6 139.4,539.6" fill="rgb(230,127,230)"/><polygon points="139.4,519.6 159.4,519.6 159.4,539.6 139.4,539.6" fill="none" stroke="black" stroke-width="1"/><text xml:space="preserve" x="149.4" y="532.433" font-family="Calibri" font-size="7.5" fill="rgb(0,0,0)" text-anchor="middle">0.5</text>
<polygon points="159.4,519.6 179.4,519.6 179.4,539.6 159.4,539.6" fill="rgb(205,0,205)"/><polygon points="159.4,519.6 179.4,519.6 179.4,539.6 159.4,539.6" fill="none" stroke="black" stroke-width="1"/><text xml:space="preserve" x="169.4" y="532.433" font-family="Calibri" font-size="7.5" fill="rgb(255,255,255)" text-anchor="middle">1.0</text>
</svg>
