<?xml version="1.0" standalone="no"?><!DOCTYPE svg PUBLIC "-//W3C//DTD SVG 1.1//EN" "http://www.w3.org/Graphics/SVG/1.1/DTD/svg11.dtd">
<svg width="297.3" height="559.6" version="1.1" xmlns="http://www.w3.org/2000/svg">
<text xml:space="preserve" x="61.3" y="342.6" font-family="Calibri" font-size="8" text-anchor="end">FRZB</text>
<text xml:space="preserve" x="61.3" y="350.6" font-family="Calibri" font-size="8" text-anchor="end">ISL2</text>
<text xml:space="preserve" x="61.3" y="358.6" font-family="Calibri" font-size="8" text-anchor="end">IRX6</text>
<text xml:space="preserve" x="72.3" y="331.6" font-family="Calibri" font-size="8" transform="rotate(270 72.3 331.6)">c5</text>
<text xml:space="preserve" x="80.3" y="331.6" font-family="Calibri" font-size="8" transform="rotate(270 80.3 331.6)">c4</text>
<text xml:space="preserve" x="88.3" y="331.6" font-family="Calibri" font-size="8" transform="rotate(270 88.3 331.6)">c1</text>
<text xml:space="preserve" x="96.3" y="331.6" font-family="Calibri" font-size="8" transform="rotate(270 96.3 331.6)">c8</text>
<text xml:space="preserve" x="104.3" y="331.6" font-family="Calibri" font-size="8" transform="rotate(270 104.3 331.6)">c3</text>
<text xml:space="preserve" x="112.3" y="331.6" font-family="Calibri" font-size="8" transform="rotate(270 112.3 331.6)">c6</text>
<text xml:space="preserve" x="120.3" y="331.6" font-family="Calibri" font-size="8" transform="rotate(270 120.3 331.6)">c2</text>
<text xml:space="preserve" x="128.3" y="331.6" font-family="Calibri" font-size="8" transform="rotate(270 128.3 331.6)">c7</text>
<text xml:space="preserve" x="146.3" y="331.6" font-family="Calibri" font-size="8" transform="rotate(270 146.3 331.6)">c5_mean</text>
<text xml:space="preserve" x="154.3" y="331.6" font-family="Calibri" font-size="8" transform="rotate(270 154.3 331.6)">c4_mean</text>
<text xml:space="preserve" x="162.3" y="331.6" font-family="Calibri" font-size="8" transform="rotate(270 162.3 331.6)">c1_mean</text>
<text xml:space="preserve" x="170.3" y="331.6" font-family="Calibri" font-size="8" transform="rotate(270 170.3 331.6)">c8_mean</text>
<text xml:space="preserve" x="178.3" y="331.6" font-family="Calibri" font-size="8" transform="rotate(270 178.3 331.6)">c3_mean</text>
<text xml:space="preserve" x="186.3" y="331.6" font-family="Calibri" font-size="8" transform="rotate(270 186.3 331.6)">c6_mean</text>
<text xml:space="preserve" x="194.3" y="331.6" font-family="Calibri" font-size="8" transform="rotate(270 194.3 331.6)">c2_mean</text>
<text xml:space="preserve" x="202.3" y="331.6" font-family="Calibri" font-size="8" transform="rotate(270 202.3 331.6)">c7_mean</text>
<text xml:space="preserve" x="220.3" y="331.6" font-family="Calibri" font-size="8" transform="rotate(270 220.3 331.6)">transcription_factor</text>
<text xml:space="preserve" x="228.3" y="331.6" font-family="Calibri" font-size="8" transform="rotate(270 228.3 331.6)">transmembrane_signal_receptor</text>
<text xml:space="preserve" x="236.3" y="331.6" font-family="Calibri" font-size="8" transform="rotate(270 236.3 331.6)">growth_factor</text>
<text xml:space="preserve" x="244.3" y="331.6" font-family="Calibri" font-size="8" transform="rotate(270 244.3 331.6)">peptide_hormone</text>
<text xml:space="preserve" x="252.3" y="331.6" font-family="Calibri" font-size="8" transform="rotate(270 252.3 331.6)">cytoskeletal_protein</text>
<text xml:space="preserve" x="260.3" y="331.6" font-family="Calibri" font-size="8" transform="rotate(270 260.3 331.6)">ion_channel</text>
<text xml:space="preserve" x="268.3" y="331.6" font-family="Calibri" font-size="8" transform="rotate(270 268.3 331.6)">integrin</text>
<text xml:space="preserve" x="276.3" y="331.6" font-family="Calibri" font-size="8" transform="rotate(270 276.3 331.6)">extracellular_matrix_protein</text>
<polygon points="65.3,335.6 73.3,335.6 73.3,343.6 65.3,343.6" fill="rgb(0,205,0)"/><text xml:space="preserve" x="69.3" y="342.433" font-family="Calibri" font-size="7.5" fill="rgb(255,255,255)" text-anchor="middle">1</text>
<polygon points="73.3,335.6 81.3,335.6 81.3,343.6 73.3,343.6" fill="rgb(0,205,0)"/><text xml:space="preserve" x="77.3" y="342.433" font-family="Calibri" font-size="7.5" fill="rgb(255,255,255)" text-anchor="middle">1</text>
<polygon points="81.3,335.6 89.3,335.6 89.3,343.6 81.3,343.6" fill="rgb(0,205,0)"/><text xml:space="preserve" x="85.3" y="342.433" font-family="Calibri" font-size="7.5" fill="rgb(255,255,255)" text-anchor="middle">1</text>
<polygon points="89.3,335.6 97.3,335.6 97.3,343.6 89.3,343.6" fill="rgb(0,205,0)"/><text xml:space="preserve" x="93.3" y="342.433" font-family="Calibri" font-size="7.5" fill="rgb(255,255,255)" text-anchor="middle">1</text>
<polygon points="97.3,335.6 105.3,335.6 105.3,343.6 97.3,343.6" fill="rgb(255,255,0)"/><text xml:space="preserve" x="101.3" y="342.433" font-family="Calibri" font-size="7.5" fill="rgb(0,0,0)" text-anchor="middle">2</text>
<polygon points="105.3,335.6 113.3,335.6 113.3,343.6 105.3,343.6" fill="rgb(205,0,0)"/><text xml:space="preserve" x="109.3" y="342.433" font-family="Calibri" font-size="7.5" fill="rgb(255,255,255)" text-anchor="middle">3</text>
<polygon points="113.3,335.6 121.3,335.6 121.3,343.6 113.3,343.6" fill="rgb(0,205,0)"/><text xml:space="preserve" x="117.3" y="342.433" font-family="Calibri" font-size="7.5" fill="rgb(255,255,255)" text-anchor="middle">1</text>
<polygon points="121.3,335.6 129.3,335.6 129.3,343.6 121.3,343.6" fill="rgb(0,205,0)"/><text xml:space="preserve" x="125.3" y="342.433" font-family="Calibri" font-size="7.5" fill="rgb(255,255,255)" text-anchor="middle">1</text>
<polygon points="139.3,335.6 147.3,335.6 147.3,343.6 139.3,343.6" fill="rgb(8,59,136)"/>
<polygon points="147.3,335.6 155.3,335.6 155.3,343.6 147.3,343.6" fill="rgb(3,39,135)"/>
<polygon points="155.3,335.6 163.3,335.6 163.3,343.6 155.3,343.6" fill="rgb(1,34,135)"/>
<polygon points="163.3,335.6 171.3,335.6 171.3,343.6 163.3,343.6" fill="rgb(2,37,135)"/>
<polygon points="171.3,335.6 179.3,335.6 179.3,343.6 171.3,343.6" fill="rgb(39,181,143)"/>
<polygon points="179.3,335.6 187.3,335.6 187.3,343.6 179.3,343.6" fill="rgb(130,209,87)"/>
<polygon points="187.3,335.6 195.3,335.6 195.3,343.6 187.3,343.6" fill="rgb(15,88,138)"/>
<polygon points="195.3,335.6 203.3,335.6 203.3,343.6 195.3,343.6" fill="rgb(17,97,139)"/>
<polygon points="213.3,335.6 221.3,335.6 221.3,343.6 213.3,343.6" fill="rgb(255,255,255)"/>
<polygon points="221.3,335.6 229.3,335.6 229.3,343.6 221.3,343.6" fill="rgb(205,0,205)"/>
<polygon points="229.3,335.6 237.3,335.6 237.3,343.6 229.3,343.6" fill="rgb(255,255,255)"/>
<polygon points="237.3,335.6 245.3,335.6 245.3,343.6 237.3,343.6" fill="rgb(255,255,255)"/>
<polygon points="245.3,335.6 253.3,335.6 253.3,343.6 245.3,343.6" fill="rgb(255,255,255)"/>
<polygon points="253.3,335.6 261.3,335.6 261.3,343.6 253.3,343.6" fill="rgb(255,255,255)"/>
<polygon points="261.3,335.6 269.3,335.6 269.3,343.6 261.3,343.6" fill="rgb(255,255,255)"/>
<polygon points="269.3,335.6 277.3,335.6 277.3,343.6 269.3,343.6" fill="rgb(255,255,255)"/>
<polygon points="65.3,343.6 73.3,343.6 73.3,351.6 65.3,351.6" fill="rgb(0,205,0)"/><text xml:space="preserve" x="69.3" y="350.433" font-family="Calibri" font-size="7.5" fill="rgb(255,255,255)" text-anchor="middle">1</text>
<polygon points="73.3,343.6 81.3,343.6 81.3,351.6 73.3,351.6" fill="rgb(0,205,0)"/><text xml:space="preserve" x="77.3" y="350.433" font-family="Calibri" font-size="7.5" fill="rgb(255,255,255)" text-anchor="middle">1</text>
<polygon points="81.3,343.6 89.3,343.6 89.3,351.6 81.3,351.6" fill="rgb(0,205,0)"/><text xml:space="preserve" x="85.3" y="350.433" font-family="Calibri" font-size="7.5" fill="rgb(255,255,255)" text-anchor="middle">1</text>
<polygon points="89.3,343.6 97.3,343.6 97.3,351.6 89.3,351.6" fill="rgb(0,205,0)"/><text xml:space="preserve" x="93.3" y="350.433" font-family="Calibri" font-size="7.5" fill="rgb(255,255,255)" text-anchor="middle">1</text>
<polygon points="97.3,343.6 105.3,343.6 105.3,351.6 97.3,351.6" fill="rgb(255,255,0)"/><text xml:space="preserve" x="101.3" y="350.433" font-family="Calibri" font-size="7.5" fill="rgb(0,0,0)" text-anchor="middle">2</text>
<polygon points="105.3,343.6 113.3,343.6 113.3,351.6 105.3,351.6" fill="rgb(205,0,0)"/><text xml:space="preserve" x="109.3" y="350.433" font-family="Calibri" font-size="7.5" fill="rgb(255,255,255)" text-anchor="middle">3</text>
<polygon points="113.3,343.6 121.3,343.6 121.3,351.6 113.3,351.6" fill="rgb(0,205,0)"/><text xml:space="preserve" x="117.3" y="350.433" font-family="Calibri" font-size="7.5" fill="rgb(255,255,255)" text-anchor="middle">1</text>
<polygon points="121.3,343.6 129.3,343.6 129.3,351.6 121.3,351.6" fill="rgb(0,205,0)"/><text xml:space="preserve" x="125.3" y="350.433" font-family="Calibri" font-size="7.5" fill="rgb(255,255,255)" text-anchor="middle">1</text>
<polygon points="139.3,343.6 147.3,343.6 147.3,351.6 139.3,351.6" fill="rgb(2,38,135)"/>
<polygon points="147.3,343.6 155.3,343.6 155.3,351.6 147.3,351.6" fill="rgb(0,29,135)"/>
<polygon points="155.3,343.6 163.3,343.6 163.3,351.6 155.3,351.6" fill="rgb(1,33,135)"/>
<polygon points="163.3,343.6 171.3,343.6 171.3,351.6 163.3,351.6" fill="rgb(1,33,135)"/>
<polygon points="171.3,343.6 179.3,343.6 179.3,351.6 171.3,351.6" fill="rgb(57,218,140)"/>
<polygon points="179.3,343.6 187.3,343.6 187.3,351.6 179.3,351.6" fill="rgb(113,211,99)"/>
<polygon points="187.3,343.6 195.3,343.6 195.3,351.6 187.3,351.6" fill="rgb(1,32,135)"/>
<polygon points="195.3,343.6 203.3,343.6 203.3,351.6 195.3,351.6" fill="rgb(0,29,135)"/>
<polygon points="213.3,343.6 221.3,343.6 221.3,351.6 213.3,351.6" fill="rgb(205,0,205)"/>
<polygon points="221.3,343.6 229.3,343.6 229.3,351.6 221.3,351.6" fill="rgb(255,255,255)"/>
<polygon points="229.3,343.6 237.3,343.6 237.3,351.6 229.3,351.6" fill="rgb(255,255,255)"/>
<polygon points="237.3,343.6 245.3,343.6 245.3,351.6 237.3,351.6" fill="rgb(255,255,255)"/>
<polygon points="245.3,343.6 253.3,343.6 253.3,351.6 245.3,351.6" fill="rgb(255,255,255)"/>
<polygon points="253.3,343.6 261.3,343.6 261.3,351.6 253.3,351.6" fill="rgb(255,255,255)"/>
<polygon points="261.3,343.6 269.3,343.6 269.3,351.6 261.3,351.6" fill="rgb(255,255,255)"/>
<polygon points="269.3,343.6 277.3,343.6 277.3,351.6 269.3,351.6" fill="rgb(255,255,255)"/>
<polygon points="65.3,351.6 73.3,351.6 73.3,359.6 65.3,359.6" fill="rgb(0,205,0)"/><text xml:space="preserve" x="69.3" y="358.433" font-family="Calibri" font-size="7.5" fill="rgb(255,255,255)" text-anchor="middle">1</text>
<polygon points="73.3,351.6 81.3,351.6 81.3,359.6 73.3,359.6" fill="rgb(0,205,0)"/><text xml:space="preserve" x="77.3" y="358.433" font-family="Calibri" font-size="7.5" fill="rgb(255,255,255)" text-anchor="middle">1</text>
<polygon points="81.3,351.6 89.3,351.6 89.3,359.6 81.3,359.6" fill="rgb(0,205,0)"/><text xml:space="preserve" x="85.3" y="358.433" font-family="Calibri" font-size="7.5" fill="rgb(255,255,255)" text-anchor="middle">1</text>
<polygon points="89.3,351.6 97.3,351.6 97.3,359.6 89.3,359.6" fill="rgb(0,205,0)"/><text xml:space="preserve" x="93.3" y="358.433" font-family="Calibri" font-size="7.5" fill="rgb(255,255,255)" text-anchor="middle">1</text>
<polygon points="97.3,351.6 105.3,351.6 105.3,359.6 97.3,359.6" fill="rgb(255,255,0)"/><text xml:space="preserve" x="101.3" y="358.433" font-family="Calibri" font-size="7.5" fill="rgb(0,0,0)" text-anchor="middle">2</text>
<polygon points="105.3,351.6 113.3,351.6 113.3,359.6 105.3,359.6" fill="rgb(205,0,0)"/><text xml:space="preserve" x="109.3" y="358.433" font-family="Calibri" font-size="7.5" fill="rgb(255,255,255)" text-anchor="middle">3</text>
<polygon points="113.3,351.6 121.3,351.6 121.3,359.6 113.3,359.6" fill="rgb(0,205,0)"/><text xml:space="preserve" x="117.3" y="358.433" font-family="Calibri" font-size="7.5" fill="rgb(255,255,255)" text-anchor="middle">1</text>
<polygon points="121.3,351.6 129.3,351.6 129.3,359.6 121.3,359.6" fill="rgb(0,205,0)"/><text xml:space="preserve" x="125.3" y="358.433" font-family="Calibri" font-size="7.5" fill="rgb(255,255,255)" text-anchor="middle">1</text>
<polygon points="139.3,351.6 147.3,351.6 147.3,359.6 139.3,359.6" fill="rgb(0,30,135)"/>
<polygon points="147.3,351.6 155.3,351.6 155.3,359.6 147.3,359.6" fill="rgb(1,32,135)"/>
<polygon points="155.3,351.6 163.3,351.6 163.3,359.6 155.3,359.6" fill="rgb(0,30,135)"/>
<polygon points="163.3,351.6 171.3,351.6 171.3,359.6 163.3,359.6" fill="rgb(0,30,135)"/>
<polygon points="171.3,351.6 179.3,351.6 179.3,359.6 171.3,359.6" fill="rgb(21,112,139)"/>
<polygon points="179.3,351.6 187.3,351.6 187.3,359.6 179.3,359.6" fill="rgb(103,212,107)"/>
<polygon points="187.3,351.6 195.3,351.6 195.3,359.6 187.3,359.6" fill="rgb(0,29,135)"/>
<polygon points="195.3,351.6 203.3,351.6 203.3,359.6 195.3,359.6" fill="rgb(2,37,135)"/>
<polygon points="213.3,351.6 221.3,351.6 221.3,359.6 213.3,359.6" fill="rgb(205,0,205)"/>
<polygon points="221.3,351.6 229.3,351.6 229.3,359.6 221.3,359.6" fill="rgb(255,255,255)"/>
<polygon points="229.3,351.6 237.3,351.6 237.3,359.6 229.3,359.6" fill="rgb(255,255,255)"/>
<polygon points="237.3,351.6 245.3,351.6 245.3,359.6 237.3,359.6" fill="rgb(255,255,255)"/>
<polygon points="245.3,351.6 253.3,351.6 253.3,359.6 245.3,359.6" fill="rgb(255,255,255)"/>
<polygon points="253.3,351.6 261.3,351.6 261.3,359.6 253.3,359.6" fill="rgb(255,255,255)"/>
<polygon points="261.3,351.6 269.3,351.6 269.3,359.6 261.3,359.6" fill="rgb(255,255,255)"/>
<polygon points="269.3,351.6 277.3,351.6 277.3,359.6 269.3,359.6" fill="rgb(255,255,255)"/>
<polygon points="65.3,335.6 129.3,335.6 129.3,359.6 65.3,359.6" fill="none" stroke="black" stroke-width="1"/>
<polygon points="139.3,335.6 203.3,335.6 203.3,359.6 139.3,359.6" fill="none" stroke="black" stroke-width="1"/>
<polygon points="213.3,335.6 277.3,335.6 277.3,359.6 213.3,359.6" fill="none" stroke="black" stroke-width="1"/>
<text xml:space="preserve" x="148.65" y="392.6" font-family="Calibri" font-size="8" text-anchor="middle">ClusterAssignment</text>
<polygon points="118.65,399.6 138.65,399.6 138.65,419.6 118.65,419.6" fill="rgb(0,205,0)"/><polygon points="118.65,399.6 138.65,399.6 138.65,419.6 118.65,419.6" fill="none" stroke="black" stroke-width="1"/><text xml:space="preserve" x="128.65" y="412.433" font-family="Calibri" font-size="7.5" fill="rgb(255,255,255)" text-anchor="middle">1.0</text>
<polygon points="138.65,399.6 158.65,399.6 158.65,419.6 138.65,419.6" fill="rgb(255,255,0)"/><polygon points="138.65,399.6 158.65,399.6 158.65,419.6 138.65,419.6" fill="none" stroke="black" stroke-width="1"/><text xml:space="preserve" x="148.65" y="412.433" font-family="Calibri" font-size="7.5" fill="rgb(0,0,0)" text-anchor="middle">2.0</text>
<polygon points="158.65,399.6 178.65,399.6 178.65,419.6 158.65,419.6" fill="rgb(205,0,0)"/><polygon points="158.65,399.6 178.65,399.6 178.65,419.6 158.65,419.6" fill="none" stroke="black" stroke-width="1"/><text xml:space="preserve" x="168.65" y="412.433" font-family="Calibri" font-size="7.5" fill="rgb(255,255,255)" text-anchor="middle">3.0</text>
<text xml:space="preserve" x="148.65" y="452.6" font-family="Calibri" font-size="8" text-anchor="middle">Expression</text>
<polygon points="118.65,459.6 138.65,459.6 138.65,479.6 118.65,479.6" fill="rgb(0,27,135)"/><polygon points="118.65,459.6 138.65,459.6 138.65,479.6 118.65,479.6" fill="none" stroke="black" stroke-width="1"/><text xml:space="preserve" x="128.65" y="472.433" font-family="Calibri" font-size="7.5" fill="rgb(255,255,255)" text-anchor="middle">0.0</text>
<polygon points="138.65,459.6 158.65,459.6 158.65,479.6 138.65,479.6" fill="rgb(49,219,146)"/><polygon points="138.65,459.6 158.65,459.6 158.65,479.6 138.65,479.6" fill="none" stroke="black" stroke-width="1"/><text xml:space="preserve" x="148.65" y="472.433" font-family="Calibri" font-size="7.5" fill="rgb(0,0,0)" text-anchor="middle">1.5</text>
<polygon points="158.65,459.6 178.65,459.6 178.65,479.6 158.65,479.6" fill="rgb(252,194,1)"/><polygon points="158.65,459.6 178.65,459.6 178.65,479.6 158.65,479.6" fill="none" stroke="black" stroke-width="1"/><text xml:space="preserve" x="168.65" y="472.433" font-family="Calibri" font-size="7.5" fill="rgb(0,0,0)" text-anchor="middle">3.0</text>
<text xml:space="preserve" x="148.65" y="512.6" font-family="Calibri" font-size="8" text-anchor="middle">PANTHERclass</text>
<polygon points="118.65,519.6 138.65,519.6 138.65,539.6 118.65,539.6" fill="rgb(255,255,255)"/><polygon points="118.65,519.6 138.65,519.6 138.65,539.6 118.65,539.6" fill="none" stroke="black" stroke-width="1"/><text xml:space="preserve" x="128.65" y="532.433" font-family="Calibri" font-size="7.5" fill="rgb(0,0,0)" text-anchor="middle">0.0</text>
<polygon points="138.65,519.6 158.65,519.6 158.65,539.6 138.65,539.6" fill="rgb(230,127,230)"/><polygon points="138.65,519.6 158.65,519.6 158.65,539.6 138.65,539.6" fill="none" stroke="black" stroke-width="1"/><text xml:space="preserve" x="148.65" y="532.433" font-family="Calibri" font-size="7.5" fill="rgb(0,0,0)" text-anchor="middle">0.5</text>
<polygon points="158.65,519.6 178.65,519.6 178.65,539.6 158.65,539.6" fill="rgb(205,0,205)"/><polygon points="158.65,519.6 178.65,519.6 178.65,539.6 158.65,539.6" fill="none" stroke="black" stroke-width="1"/><text xml:space="preserve" x="168.65" y="532.433" font-family="Calibri" font-size="7.5" fill="rgb(255,255,255)" text-anchor="middle">1.0</text>
</svg>
