<?xml version="1.0" standalone="no"?><!DOCTYPE svg PUBLIC "-//W3C//DTD SVG 1.1//EN" "http://www.w3.org/Graphics/SVG/1.1/DTD/svg11.dtd">
<svg width="344.4" height="559.6" version="1.1" xmlns="http://www.w3.org/2000/svg">
<text xml:space="preserve" x="108.4" y="342.6" font-family="Calibri" font-size="8" text-anchor="end">PURPL</text>
<text xml:space="preserve" x="108.4" y="350.6" font-family="Calibri" font-size="8" text-anchor="end">TNFRSF1A</text>
<text xml:space="preserve" x="108.4" y="358.6" font-family="Calibri" font-size="8" text-anchor="end">TAGLN2</text>
<text xml:space="preserve" x="119.4" y="331.6" font-family="Calibri" font-size="8" transform="rotate(270 119.4 331.6)">c5</text>
<text xml:space="preserve" x="127.4" y="331.6" font-family="Calibri" font-size="8" transform="rotate(270 127.4 331.6)">c4</text>
<text xml:space="preserve" x="135.4" y="331.6" font-family="Calibri" font-size="8" transform="rotate(270 135.4 331.6)">c1</text>
<text xml:space="preserve" x="143.4" y="331.6" font-family="Calibri" font-size="8" transform="rotate(270 143.4 331.6)">c8</text>
<text xml:space="preserve" x="151.4" y="331.6" font-family="Calibri" font-size="8" transform="rotate(270 151.4 331.6)">c3</text>
<text xml:space="preserve" x="159.4" y="331.6" font-family="Calibri" font-size="8" transform="rotate(270 159.4 331.6)">c6</text>
<text xml:space="preserve" x="167.4" y="331.6" font-family="Calibri" font-size="8" transform="rotate(270 167.4 331.6)">c2</text>
<text xml:space="preserve" x="175.4" y="331.6" font-family="Calibri" font-size="8" transform="rotate(270 175.4 331.6)">c7</text>
<text xml:space="preserve" x="193.4" y="331.6" font-family="Calibri" font-size="8" transform="rotate(270 193.4 331.6)">c5_mean</text>
<text xml:space="preserve" x="201.4" y="331.6" font-family="Calibri" font-size="8" transform="rotate(270 201.4 331.6)">c4_mean</text>
<text xml:space="preserve" x="209.4" y="331.6" font-family="Calibri" font-size="8" transform="rotate(270 209.4 331.6)">c1_mean</text>
<text xml:space="preserve" x="217.4" y="331.6" font-family="Calibri" font-size="8" transform="rotate(270 217.4 331.6)">c8_mean</text>
<text xml:space="preserve" x="225.4" y="331.6" font-family="Calibri" font-size="8" transform="rotate(270 225.4 331.6)">c3_mean</text>
<text xml:space="preserve" x="233.4" y="331.6" font-family="Calibri" font-size="8" transform="rotate(270 233.4 331.6)">c6_mean</text>
<text xml:space="preserve" x="241.4" y="331.6" font-family="Calibri" font-size="8" transform="rotate(270 241.4 331.6)">c2_mean</text>
<text xml:space="preserve" x="249.4" y="331.6" font-family="Calibri" font-size="8" transform="rotate(270 249.4 331.6)">c7_mean</text>
<text xml:space="preserve" x="267.4" y="331.6" font-family="Calibri" font-size="8" transform="rotate(270 267.4 331.6)">transcription_factor</text>
<text xml:space="preserve" x="275.4" y="331.6" font-family="Calibri" font-size="8" transform="rotate(270 275.4 331.6)">transmembrane_signal_receptor</text>
<text xml:space="preserve" x="283.4" y="331.6" font-family="Calibri" font-size="8" transform="rotate(270 283.4 331.6)">growth_factor</text>
<text xml:space="preserve" x="291.4" y="331.6" font-family="Calibri" font-size="8" transform="rotate(270 291.4 331.6)">peptide_hormone</text>
<text xml:space="preserve" x="299.4" y="331.6" font-family="Calibri" font-size="8" transform="rotate(270 299.4 331.6)">cytoskeletal_protein</text>
<text xml:space="preserve" x="307.4" y="331.6" font-family="Calibri" font-size="8" transform="rotate(270 307.4 331.6)">ion_channel</text>
<text xml:space="preserve" x="315.4" y="331.6" font-family="Calibri" font-size="8" transform="rotate(270 315.4 331.6)">integrin</text>
<text xml:space="preserve" x="323.4" y="331.6" font-family="Calibri" font-size="8" transform="rotate(270 323.4 331.6)">extracellular_matrix_protein</text>
<polygon points="112.4,335.6 120.4,335.6 120.4,343.6 112.4,343.6" fill="rgb(205,0,0)"/><text xml:space="preserve" x="116.4" y="342.433" font-family="Calibri" font-size="7.5" fill="rgb(255,255,255)" text-anchor="middle">3</text>
<polygon points="120.4,335.6 128.4,335.6 128.4,343.6 120.4,343.6" fill="rgb(255,255,0)"/><text xml:space="preserve" x="124.4" y="342.433" font-family="Calibri" font-size="7.5" fill="rgb(0,0,0)" text-anchor="middle">2</text>
<polygon points="128.4,335.6 136.4,335.6 136.4,343.6 128.4,343.6" fill="rgb(255,255,0)"/><text xml:space="preserve" x="132.4" y="342.433" font-family="Calibri" font-size="7.5" fill="rgb(0,0,0)" text-anchor="middle">2</text>
<polygon points="136.4,335.6 144.4,335.6 144.4,343.6 136.4,343.6" fill="rgb(255,255,0)"/><text xml:space="preserve" x="140.4" y="342.433" font-family="Calibri" font-size="7.5" fill="rgb(0,0,0)" text-anchor="middle">2</text>
<polygon points="144.4,335.6 152.4,335.6 152.4,343.6 144.4,343.6" fill="rgb(0,205,0)"/><text xml:space="preserve" x="148.4" y="342.433" font-family="Calibri" font-size="7.5" fill="rgb(255,255,255)" text-anchor="middle">1</text>
<polygon points="152.4,335.6 160.4,335.6 160.4,343.6 152.4,343.6" fill="rgb(0,205,0)"/><text xml:space="preserve" x="156.4" y="342.433" font-family="Calibri" font-size="7.5" fill="rgb(255,255,255)" text-anchor="middle">1</text>
<polygon points="160.4,335.6 168.4,335.6 168.4,343.6 160.4,343.6" fill="rgb(0,205,0)"/><text xml:space="preserve" x="164.4" y="342.433" font-family="Calibri" font-size="7.5" fill="rgb(255,255,255)" text-anchor="middle">1</text>
<polygon points="168.4,335.6 176.4,335.6 176.4,343.6 168.4,343.6" fill="rgb(0,205,0)"/><text xml:space="preserve" x="172.4" y="342.433" font-family="Calibri" font-size="7.5" fill="rgb(255,255,255)" text-anchor="middle">1</text>
<polygon points="186.4,335.6 194.4,335.6 194.4,343.6 186.4,343.6" fill="rgb(82,214,121)"/>
<polygon points="194.4,335.6 202.4,335.6 202.4,343.6 194.4,343.6" fill="rgb(32,152,142)"/>
<polygon points="202.4,335.6 210.4,335.6 210.4,343.6 202.4,343.6" fill="rgb(26,131,141)"/>
<polygon points="210.4,335.6 218.4,335.6 218.4,343.6 210.4,343.6" fill="rgb(42,192,144)"/>
<polygon points="218.4,335.6 226.4,335.6 226.4,343.6 218.4,343.6" fill="rgb(14,84,138)"/>
<polygon points="226.4,335.6 234.4,335.6 234.4,343.6 226.4,343.6" fill="rgb(8,59,136)"/>
<polygon points="234.4,335.6 242.4,335.6 242.4,343.6 234.4,343.6" fill="rgb(7,56,136)"/>
<polygon points="242.4,335.6 250.4,335.6 250.4,343.6 242.4,343.6" fill="rgb(9,62,137)"/>
<polygon points="260.4,335.6 268.4,335.6 268.4,343.6 260.4,343.6" fill="rgb(255,255,255)"/>
<polygon points="268.4,335.6 276.4,335.6 276.4,343.6 268.4,343.6" fill="rgb(255,255,255)"/>
<polygon points="276.4,335.6 284.4,335.6 284.4,343.6 276.4,343.6" fill="rgb(255,255,255)"/>
<polygon points="284.4,335.6 292.4,335.6 292.4,343.6 284.4,343.6" fill="rgb(255,255,255)"/>
<polygon points="292.4,335.6 300.4,335.6 300.4,343.6 292.4,343.6" fill="rgb(255,255,255)"/>
<polygon points="300.4,335.6 308.4,335.6 308.4,343.6 300.4,343.6" fill="rgb(255,255,255)"/>
<polygon points="308.4,335.6 316.4,335.6 316.4,343.6 308.4,343.6" fill="rgb(255,255,255)"/>
<polygon points="316.4,335.6 324.4,335.6 324.4,343.6 316.4,343.6" fill="rgb(255,255,255)"/>
<polygon points="112.4,343.6 120.4,343.6 120.4,351.6 112.4,351.6" fill="rgb(205,0,0)"/><text xml:space="preserve" x="116.4" y="350.433" font-family="Calibri" font-size="7.5" fill="rgb(255,255,255)" text-anchor="middle">3</text>
<polygon points="120.4,343.6 128.4,343.6 128.4,351.6 120.4,351.6" fill="rgb(255,255,0)"/><text xml:space="preserve" x="124.4" y="350.433" font-family="Calibri" font-size="7.5" fill="rgb(0,0,0)" text-anchor="middle">2</text>
<polygon points="128.4,343.6 136.4,343.6 136.4,351.6 128.4,351.6" fill="rgb(255,255,0)"/><text xml:space="preserve" x="132.4" y="350.433" font-family="Calibri" font-size="7.5" fill="rgb(0,0,0)" text-anchor="middle">2</text>
<polygon points="136.4,343.6 144.4,343.6 144.4,351.6 136.4,351.6" fill="rgb(255,255,0)"/><text xml:space="preserve" x="140.4" y="350.433" font-family="Calibri" font-size="7.5" fill="rgb(0,0,0)" text-anchor="middle">2</text>
<polygon points="144.4,343.6 152.4,343.6 152.4,351.6 144.4,351.6" fill="rgb(0,205,0)"/><text xml:space="preserve" x="148.4" y="350.433" font-family="Calibri" font-size="7.5" fill="rgb(255,255,255)" text-anchor="middle">1</text>
<polygon points="152.4,343.6 160.4,343.6 160.4,351.6 152.4,351.6" fill="rgb(0,205,0)"/><text xml:space="preserve" x="156.4" y="350.433" font-family="Calibri" font-size="7.5" fill="rgb(255,255,255)" text-anchor="middle">1</text>
<polygon points="160.4,343.6 168.4,343.6 168.4,351.6 160.4,351.6" fill="rgb(0,205,0)"/><text xml:space="preserve" x="164.4" y="350.433" font-family="Calibri" font-size="7.5" fill="rgb(255,255,255)" text-anchor="middle">1</text>
<polygon points="168.4,343.6 176.4,343.6 176.4,351.6 168.4,351.6" fill="rgb(0,205,0)"/><text xml:space="preserve" x="172.4" y="350.433" font-family="Calibri" font-size="7.5" fill="rgb(255,255,255)" text-anchor="middle">1</text>
<polygon points="186.4,343.6 194.4,343.6 194.4,351.6 186.4,351.6" fill="rgb(69,216,131)"/>
<polygon points="194.4,343.6 202.4,343.6 202.4,351.6 194.4,351.6" fill="rgb(18,98,139)"/>
<polygon points="202.4,343.6 210.4,343.6 210.4,351.6 202.4,351.6" fill="rgb(22,115,140)"/>
<polygon points="210.4,343.6 218.4,343.6 218.4,351.6 210.4,351.6" fill="rgb(26,129,140)"/>
<polygon points="218.4,343.6 226.4,343.6 226.4,351.6 218.4,351.6" fill="rgb(11,73,137)"/>
<polygon points="226.4,343.6 234.4,343.6 234.4,351.6 226.4,351.6" fill="rgb(8,60,136)"/>
<polygon points="234.4,343.6 242.4,343.6 242.4,351.6 234.4,351.6" fill="rgb(9,65,137)"/>
<polygon points="242.4,343.6 250.4,343.6 250.4,351.6 242.4,351.6" fill="rgb(8,60,136)"/>
<polygon points="260.4,343.6 268.4,343.6 268.4,351.6 260.4,351.6" fill="rgb(255,255,255)"/>
<polygon points="268.4,343.6 276.4,343.6 276.4,351.6 268.4,351.6" fill="rgb(205,0,205)"/>
<polygon points="276.4,343.6 284.4,343.6 284.4,351.6 276.4,351.6" fill="rgb(255,255,255)"/>
<polygon points="284.4,343.6 292.4,343.6 292.4,351.6 284.4,351.6" fill="rgb(255,255,255)"/>
<polygon points="292.4,343.6 300.4,343.6 300.4,351.6 292.4,351.6" fill="rgb(255,255,255)"/>
<polygon points="300.4,343.6 308.4,343.6 308.4,351.6 300.4,351.6" fill="rgb(255,255,255)"/>
<polygon points="308.4,343.6 316.4,343.6 316.4,351.6 308.4,351.6" fill="rgb(255,255,255)"/>
<polygon points="316.4,343.6 324.4,343.6 324.4,351.6 316.4,351.6" fill="rgb(255,255,255)"/>
<polygon points="112.4,351.6 120.4,351.6 120.4,359.6 112.4,359.6" fill="rgb(205,0,0)"/><text xml:space="preserve" x="116.4" y="358.433" font-family="Calibri" font-size="7.5" fill="rgb(255,255,255)" text-anchor="middle">3</text>
<polygon points="120.4,351.6 128.4,351.6 128.4,359.6 120.4,359.6" fill="rgb(255,255,0)"/><text xml:space="preserve" x="124.4" y="358.433" font-family="Calibri" font-size="7.5" fill="rgb(0,0,0)" text-anchor="middle">2</text>
<polygon points="128.4,351.6 136.4,351.6 136.4,359.6 128.4,359.6" fill="rgb(255,255,0)"/><text xml:space="preserve" x="132.4" y="358.433" font-family="Calibri" font-size="7.5" fill="rgb(0,0,0)" text-anchor="middle">2</text>
<polygon points="136.4,351.6 144.4,351.6 144.4,359.6 136.4,359.6" fill="rgb(255,255,0)"/><text xml:space="preserve" x="140.4" y="358.433" font-family="Calibri" font-size="7.5" fill="rgb(0,0,0)" text-anchor="middle">2</text>
<polygon points="144.4,351.6 152.4,351.6 152.4,359.6 144.4,359.6" fill="rgb(0,205,0)"/><text xml:space="preserve" x="148.4" y="358.433" font-family="Calibri" font-size="7.5" fill="rgb(255,255,255)" text-anchor="middle">1</text>
<polygon points="152.4,351.6 160.4,351.6 160.4,359.6 152.4,359.6" fill="rgb(0,205,0)"/><text xml:space="preserve" x="156.4" y="358.433" font-family="Calibri" font-size="7.5" fill="rgb(255,255,255)" text-anchor="middle">1</text>
<polygon points="160.4,351.6 168.4,351.6 168.4,359.6 160.4,359.6" fill="rgb(0,205,0)"/><text xml:space="preserve" x="164.4" y="358.433" font-family="Calibri" font-size="7.5" fill="rgb(255,255,255)" text-anchor="middle">1</text>
<polygon points="168.4,351.6 176.4,351.6 176.4,359.6 168.4,359.6" fill="rgb(0,205,0)"/><text xml:space="preserve" x="172.4" y="358.433" font-family="Calibri" font-size="7.5" fill="rgb(255,255,255)" text-anchor="middle">1</text>
<polygon points="186.4,351.6 194.4,351.6 194.4,359.6 186.4,359.6" fill="rgb(65,217,134)"/>
<polygon points="194.4,351.6 202.4,351.6 202.4,359.6 194.4,359.6" fill="rgb(44,199,144)"/>
<polygon points="202.4,351.6 210.4,351.6 210.4,359.6 202.4,359.6" fill="rgb(43,197,144)"/>
<polygon points="210.4,351.6 218.4,351.6 218.4,359.6 210.4,359.6" fill="rgb(57,218,140)"/>
<polygon points="218.4,351.6 226.4,351.6 226.4,359.6 218.4,359.6" fill="rgb(9,64,137)"/>
<polygon points="226.4,351.6 234.4,351.6 234.4,359.6 226.4,359.6" fill="rgb(10,67,137)"/>
<polygon points="234.4,351.6 242.4,351.6 242.4,359.6 234.4,359.6" fill="rgb(7,56,136)"/>
<polygon points="242.4,351.6 250.4,351.6 250.4,359.6 242.4,359.6" fill="rgb(7,56,136)"/>
<polygon points="260.4,351.6 268.4,351.6 268.4,359.6 260.4,359.6" fill="rgb(255,255,255)"/>
<polygon points="268.4,351.6 276.4,351.6 276.4,359.6 268.4,359.6" fill="rgb(255,255,255)"/>
<polygon points="276.4,351.6 284.4,351.6 284.4,359.6 276.4,359.6" fill="rgb(255,255,255)"/>
<polygon points="284.4,351.6 292.4,351.6 292.4,359.6 284.4,359.6" fill="rgb(255,255,255)"/>
<polygon points="292.4,351.6 300.4,351.6 300.4,359.6 292.4,359.6" fill="rgb(255,255,255)"/>
<polygon points="300.4,351.6 308.4,351.6 308.4,359.6 300.4,359.6" fill="rgb(255,255,255)"/>
<polygon points="308.4,351.6 316.4,351.6 316.4,359.6 308.4,359.6" fill="rgb(255,255,255)"/>
<polygon points="316.4,351.6 324.4,351.6 324.4,359.6 316.4,359.6" fill="rgb(255,255,255)"/>
<polygon points="112.4,335.6 176.4,335.6 176.4,359.6 112.4,359.6" fill="none" stroke="black" stroke-width="1"/>
<polygon points="186.4,335.6 250.4,335.6 250.4,359.6 186.4,359.6" fill="none" stroke="black" stroke-width="1"/>
<polygon points="260.4,335.6 324.4,335.6 324.4,359.6 260.4,359.6" fill="none" stroke="black" stroke-width="1"/>
<text xml:space="preserve" x="172.2" y="392.6" font-family="Calibri" font-size="8" text-anchor="middle">ClusterAssignment</text>
<polygon points="142.2,399.6 162.2,399.6 162.2,419.6 142.2,419.6" fill="rgb(0,205,0)"/><polygon points="142.2,399.6 162.2,399.6 162.2,419.6 142.2,419.6" fill="none" stroke="black" stroke-width="1"/><text xml:space="preserve" x="152.2" y="412.433" font-family="Calibri" font-size="7.5" fill="rgb(255,255,255)" text-anchor="middle">1.0</text>
<polygon points="162.2,399.6 182.2,399.6 182.2,419.6 162.2,419.6" fill="rgb(255,255,0)"/><polygon points="162.2,399.6 182.2,399.6 182.2,419.6 162.2,419.6" fill="none" stroke="black" stroke-width="1"/><text xml:space="preserve" x="172.2" y="412.433" font-family="Calibri" font-size="7.5" fill="rgb(0,0,0)" text-anchor="middle">2.0</text>
<polygon points="182.2,399.6 202.2,399.6 202.2,419.6 182.2,419.6" fill="rgb(205,0,0)"/><polygon points="182.2,399.6 202.2,399.6 202.2,419.6 182.2,419.6" fill="none" stroke="black" stroke-width="1"/><text xml:space="preserve" x="192.2" y="412.433" font-family="Calibri" font-size="7.5" fill="rgb(255,255,255)" text-anchor="middle">3.0</text>
<text xml:space="preserve" x="172.2" y="452.6" font-family="Calibri" font-size="8" text-anchor="middle">Expression</text>
<polygon points="142.2,459.6 162.2,459.6 162.2,479.6 142.2,479.6" fill="rgb(0,27,135)"/><polygon points="142.2,459.6 162.2,459.6 162.2,479.6 142.2,479.6" fill="none" stroke="black" stroke-width="1"/><text xml:space="preserve" x="152.2" y="472.433" font-family="Calibri" font-size="7.5" fill="rgb(255,255,255)" text-anchor="middle">0.0</text>
<polygon points="162.2,459.6 182.2,459.6 182.2,479.6 162.2,479.6" fill="rgb(49,219,146)"/><polygon points="162.2,459.6 182.2,459.6 182.2,479.6 162.2,479.6" fill="none" stroke="black" stroke-width="1"/><text xml:space="preserve" x="172.2" y="472.433" font-family="Calibri" font-size="7.5" fill="rgb(0,0,0)" text-anchor="middle">1.5</text>
<polygon points="182.2,459.6 202.2,459.6 202.2,479.6 182.2,479.6" fill="rgb(252,194,1)"/><polygon points="182.2,459.6 202.2,459.6 202.2,479.6 182.2,479.6" fill="none" stroke="black" stroke-width="1"/><text xml:space="preserve" x="192.2" y="472.433" font-family="Calibri" font-size="7.5" fill="rgb(0,0,0)" text-anchor="middle">3.0</text>
<text xml:space="preserve" x="172.2" y="512.6" font-family="Calibri" font-size="8" text-anchor="middle">PANTHERclass</text>
<polygon points="142.2,519.6 162.2,519.6 162.2,539.6 142.2,539.6" fill="rgb(255,255,255)"/><polygon points="142.2,519.6 162.2,519.6 162.2,539.6 142.2,539.6" fill="none" stroke="black" stroke-width="1"/><text xml:space="preserve" x="152.2" y="532.433" font-family="Calibri" font-size="7.5" fill="rgb(0,0,0)" text-anchor="middle">0.0</text>
<polygon points="162.2,519.6 182.2,519.6 182.2,539.6 162.2,539.6" fill="rgb(230,127,230)"/><polygon points="162.2,519.6 182.2,519.6 182.2,539.6 162.2,539.6" fill="none" stroke="black" stroke-width="1"/><text xml:space="preserve" x="172.2" y="532.433" font-family="Calibri" font-size="7.5" fill="rgb(0,0,0)" text-anchor="middle">0.5</text>
<polygon points="182.2,519.6 202.2,519.6 202.2,539.6 182.2,539.6" fill="rgb(205,0,205)"/><polygon points="182.2,519.6 202.2,519.6 202.2,539.6 182.2,539.6" fill="none" stroke="black" stroke-width="1"/><text xml:space="preserve" x="192.2" y="532.433" font-family="Calibri" font-size="7.5" fill="rgb(255,255,255)" text-anchor="middle">1.0</text>
</svg>
