<?xml version="1.0" standalone="no"?><!DOCTYPE svg PUBLIC "-//W3C//DTD SVG 1.1//EN" "http://www.w3.org/Graphics/SVG/1.1/DTD/svg11.dtd">
<svg width="281.9" height="559.6" version="1.1" xmlns="http://www.w3.org/2000/svg">
<text xml:space="preserve" x="61.9" y="342.6" font-family="Calibri" font-size="8" text-anchor="end">BEX4</text>
<text xml:space="preserve" x="61.9" y="350.6" font-family="Calibri" font-size="8" text-anchor="end">FTH1</text>
<text xml:space="preserve" x="61.9" y="358.6" font-family="Calibri" font-size="8" text-anchor="end">CCNI</text>
<text xml:space="preserve" x="72.9" y="331.6" font-family="Calibri" font-size="8" transform="rotate(270 72.9 331.6)">c3</text>
<text xml:space="preserve" x="80.9" y="331.6" font-family="Calibri" font-size="8" transform="rotate(270 80.9 331.6)">c1</text>
<text xml:space="preserve" x="88.9" y="331.6" font-family="Calibri" font-size="8" transform="rotate(270 88.9 331.6)">c4</text>
<text xml:space="preserve" x="96.9" y="331.6" font-family="Calibri" font-size="8" transform="rotate(270 96.9 331.6)">c5</text>
<text xml:space="preserve" x="104.9" y="331.6" font-family="Calibri" font-size="8" transform="rotate(270 104.9 331.6)">c2</text>
<text xml:space="preserve" x="112.9" y="331.6" font-family="Calibri" font-size="8" transform="rotate(270 112.9 331.6)">c6</text>
<text xml:space="preserve" x="120.9" y="331.6" font-family="Calibri" font-size="8" transform="rotate(270 120.9 331.6)">c7</text>
<text xml:space="preserve" x="138.9" y="331.6" font-family="Calibri" font-size="8" transform="rotate(270 138.9 331.6)">c3_mean</text>
<text xml:space="preserve" x="146.9" y="331.6" font-family="Calibri" font-size="8" transform="rotate(270 146.9 331.6)">c1_mean</text>
<text xml:space="preserve" x="154.9" y="331.6" font-family="Calibri" font-size="8" transform="rotate(270 154.9 331.6)">c4_mean</text>
<text xml:space="preserve" x="162.9" y="331.6" font-family="Calibri" font-size="8" transform="rotate(270 162.9 331.6)">c5_mean</text>
<text xml:space="preserve" x="170.9" y="331.6" font-family="Calibri" font-size="8" transform="rotate(270 170.9 331.6)">c2_mean</text>
<text xml:space="preserve" x="178.9" y="331.6" font-family="Calibri" font-size="8" transform="rotate(270 178.9 331.6)">c6_mean</text>
<text xml:space="preserve" x="186.9" y="331.6" font-family="Calibri" font-size="8" transform="rotate(270 186.9 331.6)">c7_mean</text>
<text xml:space="preserve" x="204.9" y="331.6" font-family="Calibri" font-size="8" transform="rotate(270 204.9 331.6)">transcription_factor</text>
<text xml:space="preserve" x="212.9" y="331.6" font-family="Calibri" font-size="8" transform="rotate(270 212.9 331.6)">transmembrane_signal_receptor</text>
<text xml:space="preserve" x="220.9" y="331.6" font-family="Calibri" font-size="8" transform="rotate(270 220.9 331.6)">growth_factor</text>
<text xml:space="preserve" x="228.9" y="331.6" font-family="Calibri" font-size="8" transform="rotate(270 228.9 331.6)">peptide_hormone</text>
<text xml:space="preserve" x="236.9" y="331.6" font-family="Calibri" font-size="8" transform="rotate(270 236.9 331.6)">cytoskeletal_protein</text>
<text xml:space="preserve" x="244.9" y="331.6" font-family="Calibri" font-size="8" transform="rotate(270 244.9 331.6)">ion_channel</text>
<text xml:space="preserve" x="252.9" y="331.6" font-family="Calibri" font-size="8" transform="rotate(270 252.9 331.6)">integrin</text>
<text xml:space="preserve" x="260.9" y="331.6" font-family="Calibri" font-size="8" transform="rotate(270 260.9 331.6)">extracellular_matrix_protein</text>
<polygon points="65.9,335.6 73.9,335.6 73.9,343.6 65.9,343.6" fill="rgb(230,127,0)"/><text xml:space="preserve" x="69.9" y="342.433" font-family="Calibri" font-size="7.5" fill="rgb(0,0,0)" text-anchor="middle">4</text>
<polygon points="73.9,335.6 81.9,335.6 81.9,343.6 73.9,343.6" fill="rgb(230,127,0)"/><text xml:space="preserve" x="77.9" y="342.433" font-family="Calibri" font-size="7.5" fill="rgb(0,0,0)" text-anchor="middle">4</text>
<polygon points="81.9,335.6 89.9,335.6 89.9,343.6 81.9,343.6" fill="rgb(205,0,0)"/><text xml:space="preserve" x="85.9" y="342.433" font-family="Calibri" font-size="7.5" fill="rgb(255,255,255)" text-anchor="middle">5</text>
<polygon points="89.9,335.6 97.9,335.6 97.9,343.6 89.9,343.6" fill="rgb(205,0,0)"/><text xml:space="preserve" x="93.9" y="342.433" font-family="Calibri" font-size="7.5" fill="rgb(255,255,255)" text-anchor="middle">5</text>
<polygon points="97.9,335.6 105.9,335.6 105.9,343.6 97.9,343.6" fill="rgb(127,230,0)"/><text xml:space="preserve" x="101.9" y="342.433" font-family="Calibri" font-size="7.5" fill="rgb(0,0,0)" text-anchor="middle">2</text>
<polygon points="105.9,335.6 113.9,335.6 113.9,343.6 105.9,343.6" fill="rgb(127,230,0)"/><text xml:space="preserve" x="109.9" y="342.433" font-family="Calibri" font-size="7.5" fill="rgb(0,0,0)" text-anchor="middle">2</text>
<polygon points="113.9,335.6 121.9,335.6 121.9,343.6 113.9,343.6" fill="rgb(205,0,0)"/><text xml:space="preserve" x="117.9" y="342.433" font-family="Calibri" font-size="7.5" fill="rgb(255,255,255)" text-anchor="middle">5</text>
<polygon points="131.9,335.6 139.9,335.6 139.9,343.6 131.9,343.6" fill="rgb(37,172,143)"/>
<polygon points="139.9,335.6 147.9,335.6 147.9,343.6 139.9,343.6" fill="rgb(38,178,143)"/>
<polygon points="147.9,335.6 155.9,335.6 155.9,343.6 147.9,343.6" fill="rgb(34,161,142)"/>
<polygon points="155.9,335.6 163.9,335.6 163.9,343.6 155.9,343.6" fill="rgb(34,161,142)"/>
<polygon points="163.9,335.6 171.9,335.6 171.9,343.6 163.9,343.6" fill="rgb(9,65,137)"/>
<polygon points="171.9,335.6 179.9,335.6 179.9,343.6 171.9,343.6" fill="rgb(8,61,136)"/>
<polygon points="179.9,335.6 187.9,335.6 187.9,343.6 179.9,343.6" fill="rgb(32,156,142)"/>
<polygon points="197.9,335.6 205.9,335.6 205.9,343.6 197.9,343.6" fill="rgb(255,255,255)"/>
<polygon points="205.9,335.6 213.9,335.6 213.9,343.6 205.9,343.6" fill="rgb(255,255,255)"/>
<polygon points="213.9,335.6 221.9,335.6 221.9,343.6 213.9,343.6" fill="rgb(255,255,255)"/>
<polygon points="221.9,335.6 229.9,335.6 229.9,343.6 221.9,343.6" fill="rgb(255,255,255)"/>
<polygon points="229.9,335.6 237.9,335.6 237.9,343.6 229.9,343.6" fill="rgb(255,255,255)"/>
<polygon points="237.9,335.6 245.9,335.6 245.9,343.6 237.9,343.6" fill="rgb(255,255,255)"/>
<polygon points="245.9,335.6 253.9,335.6 253.9,343.6 245.9,343.6" fill="rgb(255,255,255)"/>
<polygon points="253.9,335.6 261.9,335.6 261.9,343.6 253.9,343.6" fill="rgb(255,255,255)"/>
<polygon points="65.9,343.6 73.9,343.6 73.9,351.6 65.9,351.6" fill="rgb(230,127,0)"/><text xml:space="preserve" x="69.9" y="350.433" font-family="Calibri" font-size="7.5" fill="rgb(0,0,0)" text-anchor="middle">4</text>
<polygon points="73.9,343.6 81.9,343.6 81.9,351.6 73.9,351.6" fill="rgb(230,127,0)"/><text xml:space="preserve" x="77.9" y="350.433" font-family="Calibri" font-size="7.5" fill="rgb(0,0,0)" text-anchor="middle">4</text>
<polygon points="81.9,343.6 89.9,343.6 89.9,351.6 81.9,351.6" fill="rgb(205,0,0)"/><text xml:space="preserve" x="85.9" y="350.433" font-family="Calibri" font-size="7.5" fill="rgb(255,255,255)" text-anchor="middle">5</text>
<polygon points="89.9,343.6 97.9,343.6 97.9,351.6 89.9,351.6" fill="rgb(205,0,0)"/><text xml:space="preserve" x="93.9" y="350.433" font-family="Calibri" font-size="7.5" fill="rgb(255,255,255)" text-anchor="middle">5</text>
<polygon points="97.9,343.6 105.9,343.6 105.9,351.6 97.9,351.6" fill="rgb(127,230,0)"/><text xml:space="preserve" x="101.9" y="350.433" font-family="Calibri" font-size="7.5" fill="rgb(0,0,0)" text-anchor="middle">2</text>
<polygon points="105.9,343.6 113.9,343.6 113.9,351.6 105.9,351.6" fill="rgb(127,230,0)"/><text xml:space="preserve" x="109.9" y="350.433" font-family="Calibri" font-size="7.5" fill="rgb(0,0,0)" text-anchor="middle">2</text>
<polygon points="113.9,343.6 121.9,343.6 121.9,351.6 113.9,351.6" fill="rgb(205,0,0)"/><text xml:space="preserve" x="117.9" y="350.433" font-family="Calibri" font-size="7.5" fill="rgb(255,255,255)" text-anchor="middle">5</text>
<polygon points="131.9,343.6 139.9,343.6 139.9,351.6 131.9,351.6" fill="rgb(46,207,145)"/>
<polygon points="139.9,343.6 147.9,343.6 147.9,351.6 139.9,351.6" fill="rgb(47,213,145)"/>
<polygon points="147.9,343.6 155.9,343.6 155.9,351.6 147.9,351.6" fill="rgb(38,179,143)"/>
<polygon points="155.9,343.6 163.9,343.6 163.9,351.6 155.9,351.6" fill="rgb(40,187,144)"/>
<polygon points="163.9,343.6 171.9,343.6 171.9,351.6 163.9,351.6" fill="rgb(11,70,137)"/>
<polygon points="171.9,343.6 179.9,343.6 179.9,351.6 171.9,351.6" fill="rgb(10,66,137)"/>
<polygon points="179.9,343.6 187.9,343.6 187.9,351.6 179.9,351.6" fill="rgb(33,157,142)"/>
<polygon points="197.9,343.6 205.9,343.6 205.9,351.6 197.9,351.6" fill="rgb(255,255,255)"/>
<polygon points="205.9,343.6 213.9,343.6 213.9,351.6 205.9,351.6" fill="rgb(255,255,255)"/>
<polygon points="213.9,343.6 221.9,343.6 221.9,351.6 213.9,351.6" fill="rgb(255,255,255)"/>
<polygon points="221.9,343.6 229.9,343.6 229.9,351.6 221.9,351.6" fill="rgb(255,255,255)"/>
<polygon points="229.9,343.6 237.9,343.6 237.9,351.6 229.9,351.6" fill="rgb(255,255,255)"/>
<polygon points="237.9,343.6 245.9,343.6 245.9,351.6 237.9,351.6" fill="rgb(255,255,255)"/>
<polygon points="245.9,343.6 253.9,343.6 253.9,351.6 245.9,351.6" fill="rgb(255,255,255)"/>
<polygon points="253.9,343.6 261.9,343.6 261.9,351.6 253.9,351.6" fill="rgb(255,255,255)"/>
<polygon points="65.9,351.6 73.9,351.6 73.9,359.6 65.9,359.6" fill="rgb(230,127,0)"/><text xml:space="preserve" x="69.9" y="358.433" font-family="Calibri" font-size="7.5" fill="rgb(0,0,0)" text-anchor="middle">4</text>
<polygon points="73.9,351.6 81.9,351.6 81.9,359.6 73.9,359.6" fill="rgb(230,127,0)"/><text xml:space="preserve" x="77.9" y="358.433" font-family="Calibri" font-size="7.5" fill="rgb(0,0,0)" text-anchor="middle">4</text>
<polygon points="81.9,351.6 89.9,351.6 89.9,359.6 81.9,359.6" fill="rgb(205,0,0)"/><text xml:space="preserve" x="85.9" y="358.433" font-family="Calibri" font-size="7.5" fill="rgb(255,255,255)" text-anchor="middle">5</text>
<polygon points="89.9,351.6 97.9,351.6 97.9,359.6 89.9,359.6" fill="rgb(205,0,0)"/><text xml:space="preserve" x="93.9" y="358.433" font-family="Calibri" font-size="7.5" fill="rgb(255,255,255)" text-anchor="middle">5</text>
<polygon points="97.9,351.6 105.9,351.6 105.9,359.6 97.9,359.6" fill="rgb(127,230,0)"/><text xml:space="preserve" x="101.9" y="358.433" font-family="Calibri" font-size="7.5" fill="rgb(0,0,0)" text-anchor="middle">2</text>
<polygon points="105.9,351.6 113.9,351.6 113.9,359.6 105.9,359.6" fill="rgb(127,230,0)"/><text xml:space="preserve" x="109.9" y="358.433" font-family="Calibri" font-size="7.5" fill="rgb(0,0,0)" text-anchor="middle">2</text>
<polygon points="113.9,351.6 121.9,351.6 121.9,359.6 113.9,359.6" fill="rgb(205,0,0)"/><text xml:space="preserve" x="117.9" y="358.433" font-family="Calibri" font-size="7.5" fill="rgb(255,255,255)" text-anchor="middle">5</text>
<polygon points="131.9,351.6 139.9,351.6 139.9,359.6 131.9,359.6" fill="rgb(43,198,144)"/>
<polygon points="139.9,351.6 147.9,351.6 147.9,359.6 139.9,359.6" fill="rgb(45,204,145)"/>
<polygon points="147.9,351.6 155.9,351.6 155.9,359.6 147.9,359.6" fill="rgb(40,187,144)"/>
<polygon points="155.9,351.6 163.9,351.6 163.9,359.6 155.9,359.6" fill="rgb(40,185,144)"/>
<polygon points="163.9,351.6 171.9,351.6 171.9,359.6 163.9,359.6" fill="rgb(9,65,137)"/>
<polygon points="171.9,351.6 179.9,351.6 179.9,359.6 171.9,359.6" fill="rgb(10,67,137)"/>
<polygon points="179.9,351.6 187.9,351.6 187.9,359.6 179.9,359.6" fill="rgb(35,167,143)"/>
<polygon points="197.9,351.6 205.9,351.6 205.9,359.6 197.9,359.6" fill="rgb(255,255,255)"/>
<polygon points="205.9,351.6 213.9,351.6 213.9,359.6 205.9,359.6" fill="rgb(255,255,255)"/>
<polygon points="213.9,351.6 221.9,351.6 221.9,359.6 213.9,359.6" fill="rgb(255,255,255)"/>
<polygon points="221.9,351.6 229.9,351.6 229.9,359.6 221.9,359.6" fill="rgb(255,255,255)"/>
<polygon points="229.9,351.6 237.9,351.6 237.9,359.6 229.9,359.6" fill="rgb(255,255,255)"/>
<polygon points="237.9,351.6 245.9,351.6 245.9,359.6 237.9,359.6" fill="rgb(255,255,255)"/>
<polygon points="245.9,351.6 253.9,351.6 253.9,359.6 245.9,359.6" fill="rgb(255,255,255)"/>
<polygon points="253.9,351.6 261.9,351.6 261.9,359.6 253.9,359.6" fill="rgb(255,255,255)"/>
<polygon points="65.9,335.6 121.9,335.6 121.9,359.6 65.9,359.6" fill="none" stroke="black" stroke-width="1"/>
<polygon points="131.9,335.6 187.9,335.6 187.9,359.6 131.9,359.6" fill="none" stroke="black" stroke-width="1"/>
<polygon points="197.9,335.6 261.9,335.6 261.9,359.6 197.9,359.6" fill="none" stroke="black" stroke-width="1"/>
<text xml:space="preserve" x="140.95" y="392.6" font-family="Calibri" font-size="8" text-anchor="middle">ClusterAssignment</text>
<polygon points="90.95,399.6 110.95,399.6 110.95,419.6 90.95,419.6" fill="rgb(0,205,0)"/><polygon points="90.95,399.6 110.95,399.6 110.95,419.6 90.95,419.6" fill="none" stroke="black" stroke-width="1"/><text xml:space="preserve" x="100.95" y="412.433" font-family="Calibri" font-size="7.5" fill="rgb(255,255,255)" text-anchor="middle">1.0</text>
<polygon points="110.95,399.6 130.95,399.6 130.95,419.6 110.95,419.6" fill="rgb(127,230,0)"/><polygon points="110.95,399.6 130.95,399.6 130.95,419.6 110.95,419.6" fill="none" stroke="black" stroke-width="1"/><text xml:space="preserve" x="120.95" y="412.433" font-family="Calibri" font-size="7.5" fill="rgb(0,0,0)" text-anchor="middle">2.0</text>
<polygon points="130.95,399.6 150.95,399.6 150.95,419.6 130.95,419.6" fill="rgb(255,255,0)"/><polygon points="130.95,399.6 150.95,399.6 150.95,419.6 130.95,419.6" fill="none" stroke="black" stroke-width="1"/><text xml:space="preserve" x="140.95" y="412.433" font-family="Calibri" font-size="7.5" fill="rgb(0,0,0)" text-anchor="middle">3.0</text>
<polygon points="150.95,399.6 170.95,399.6 170.95,419.6 150.95,419.6" fill="rgb(230,127,0)"/><polygon points="150.95,399.6 170.95,399.6 170.95,419.6 150.95,419.6" fill="none" stroke="black" stroke-width="1"/><text xml:space="preserve" x="160.95" y="412.433" font-family="Calibri" font-size="7.5" fill="rgb(0,0,0)" text-anchor="middle">4.0</text>
<polygon points="170.95,399.6 190.95,399.6 190.95,419.6 170.95,419.6" fill="rgb(205,0,0)"/><polygon points="170.95,399.6 190.95,399.6 190.95,419.6 170.95,419.6" fill="none" stroke="black" stroke-width="1"/><text xml:space="preserve" x="180.95" y="412.433" font-family="Calibri" font-size="7.5" fill="rgb(255,255,255)" text-anchor="middle">5.0</text>
<text xml:space="preserve" x="140.95" y="452.6" font-family="Calibri" font-size="8" text-anchor="middle">Expression</text>
<polygon points="90.95,459.6 110.95,459.6 110.95,479.6 90.95,479.6" fill="rgb(0,27,135)"/><polygon points="90.95,459.6 110.95,459.6 110.95,479.6 90.95,479.6" fill="none" stroke="black" stroke-width="1"/><text xml:space="preserve" x="100.95" y="472.433" font-family="Calibri" font-size="7.5" fill="rgb(255,255,255)" text-anchor="middle">0.0</text>
<polygon points="110.95,459.6 130.95,459.6 130.95,479.6 110.95,479.6" fill="rgb(24,123,140)"/><polygon points="110.95,459.6 130.95,459.6 130.95,479.6 110.95,479.6" fill="none" stroke="black" stroke-width="1"/><text xml:space="preserve" x="120.95" y="472.433" font-family="Calibri" font-size="7.5" fill="rgb(255,255,255)" text-anchor="middle">0.8</text>
<polygon points="130.95,459.6 150.95,459.6 150.95,479.6 130.95,479.6" fill="rgb(49,219,146)"/><polygon points="130.95,459.6 150.95,459.6 150.95,479.6 130.95,479.6" fill="none" stroke="black" stroke-width="1"/><text xml:space="preserve" x="140.95" y="472.433" font-family="Calibri" font-size="7.5" fill="rgb(0,0,0)" text-anchor="middle">1.5</text>
<polygon points="150.95,459.6 170.95,459.6 170.95,479.6 150.95,479.6" fill="rgb(150,206,73)"/><polygon points="150.95,459.6 170.95,459.6 170.95,479.6 150.95,479.6" fill="none" stroke="black" stroke-width="1"/><text xml:space="preserve" x="160.95" y="472.433" font-family="Calibri" font-size="7.5" fill="rgb(0,0,0)" text-anchor="middle">2.2</text>
<polygon points="170.95,459.6 190.95,459.6 190.95,479.6 170.95,479.6" fill="rgb(252,194,1)"/><polygon points="170.95,459.6 190.95,459.6 190.95,479.6 170.95,479.6" fill="none" stroke="black" stroke-width="1"/><text xml:space="preserve" x="180.95" y="472.433" font-family="Calibri" font-size="7.5" fill="rgb(0,0,0)" text-anchor="middle">3.0</text>
<text xml:space="preserve" x="140.95" y="512.6" font-family="Calibri" font-size="8" text-anchor="middle">PANTHERclass</text>
<polygon points="90.95,519.6 110.95,519.6 110.95,539.6 90.95,539.6" fill="rgb(255,255,255)"/><polygon points="90.95,519.6 110.95,519.6 110.95,539.6 90.95,539.6" fill="none" stroke="black" stroke-width="1"/><text xml:space="preserve" x="100.95" y="532.433" font-family="Calibri" font-size="7.5" fill="rgb(0,0,0)" text-anchor="middle">0.0</text>
<polygon points="110.95,519.6 130.95,519.6 130.95,539.6 110.95,539.6" fill="rgb(242,191,242)"/><polygon points="110.95,519.6 130.95,519.6 130.95,539.6 110.95,539.6" fill="none" stroke="black" stroke-width="1"/><text xml:space="preserve" x="120.95" y="532.433" font-family="Calibri" font-size="7.5" fill="rgb(0,0,0)" text-anchor="middle">0.2</text>
<polygon points="130.95,519.6 150.95,519.6 150.95,539.6 130.95,539.6" fill="rgb(230,127,230)"/><polygon points="130.95,519.6 150.95,519.6 150.95,539.6 130.95,539.6" fill="none" stroke="black" stroke-width="1"/><text xml:space="preserve" x="140.95" y="532.433" font-family="Calibri" font-size="7.5" fill="rgb(0,0,0)" text-anchor="middle">0.5</text>
<polygon points="150.95,519.6 170.95,519.6 170.95,539.6 150.95,539.6" fill="rgb(217,63,217)"/><polygon points="150.95,519.6 170.95,519.6 170.95,539.6 150.95,539.6" fill="none" stroke="black" stroke-width="1"/><text xml:space="preserve" x="160.95" y="532.433" font-family="Calibri" font-size="7.5" fill="rgb(255,255,255)" text-anchor="middle">0.8</text>
<polygon points="170.95,519.6 190.95,519.6 190.95,539.6 170.95,539.6" fill="rgb(205,0,205)"/><polygon points="170.95,519.6 190.95,519.6 190.95,539.6 170.95,539.6" fill="none" stroke="black" stroke-width="1"/><text xml:space="preserve" x="180.95" y="532.433" font-family="Calibri" font-size="7.5" fill="rgb(255,255,255)" text-anchor="middle">1.0</text>
</svg>
