<?xml version="1.0" standalone="no"?><!DOCTYPE svg PUBLIC "-//W3C//DTD SVG 1.1//EN" "http://www.w3.org/Graphics/SVG/1.1/DTD/svg11.dtd">
<svg width="306.2" height="559.6" version="1.1" xmlns="http://www.w3.org/2000/svg">
<text xml:space="preserve" x="86.2" y="342.6" font-family="Calibri" font-size="8" text-anchor="end">ATP1B1</text>
<text xml:space="preserve" x="86.2" y="350.6" font-family="Calibri" font-size="8" text-anchor="end">PTPRD</text>
<text xml:space="preserve" x="86.2" y="358.6" font-family="Calibri" font-size="8" text-anchor="end">HSPA5</text>
<text xml:space="preserve" x="97.2" y="331.6" font-family="Calibri" font-size="8" transform="rotate(270 97.2 331.6)">c3</text>
<text xml:space="preserve" x="105.2" y="331.6" font-family="Calibri" font-size="8" transform="rotate(270 105.2 331.6)">c1</text>
<text xml:space="preserve" x="113.2" y="331.6" font-family="Calibri" font-size="8" transform="rotate(270 113.2 331.6)">c4</text>
<text xml:space="preserve" x="121.2" y="331.6" font-family="Calibri" font-size="8" transform="rotate(270 121.2 331.6)">c5</text>
<text xml:space="preserve" x="129.2" y="331.6" font-family="Calibri" font-size="8" transform="rotate(270 129.2 331.6)">c2</text>
<text xml:space="preserve" x="137.2" y="331.6" font-family="Calibri" font-size="8" transform="rotate(270 137.2 331.6)">c6</text>
<text xml:space="preserve" x="145.2" y="331.6" font-family="Calibri" font-size="8" transform="rotate(270 145.2 331.6)">c7</text>
<text xml:space="preserve" x="163.2" y="331.6" font-family="Calibri" font-size="8" transform="rotate(270 163.2 331.6)">c3_mean</text>
<text xml:space="preserve" x="171.2" y="331.6" font-family="Calibri" font-size="8" transform="rotate(270 171.2 331.6)">c1_mean</text>
<text xml:space="preserve" x="179.2" y="331.6" font-family="Calibri" font-size="8" transform="rotate(270 179.2 331.6)">c4_mean</text>
<text xml:space="preserve" x="187.2" y="331.6" font-family="Calibri" font-size="8" transform="rotate(270 187.2 331.6)">c5_mean</text>
<text xml:space="preserve" x="195.2" y="331.6" font-family="Calibri" font-size="8" transform="rotate(270 195.2 331.6)">c2_mean</text>
<text xml:space="preserve" x="203.2" y="331.6" font-family="Calibri" font-size="8" transform="rotate(270 203.2 331.6)">c6_mean</text>
<text xml:space="preserve" x="211.2" y="331.6" font-family="Calibri" font-size="8" transform="rotate(270 211.2 331.6)">c7_mean</text>
<text xml:space="preserve" x="229.2" y="331.6" font-family="Calibri" font-size="8" transform="rotate(270 229.2 331.6)">transcription_factor</text>
<text xml:space="preserve" x="237.2" y="331.6" font-family="Calibri" font-size="8" transform="rotate(270 237.2 331.6)">transmembrane_signal_receptor</text>
<text xml:space="preserve" x="245.2" y="331.6" font-family="Calibri" font-size="8" transform="rotate(270 245.2 331.6)">growth_factor</text>
<text xml:space="preserve" x="253.2" y="331.6" font-family="Calibri" font-size="8" transform="rotate(270 253.2 331.6)">peptide_hormone</text>
<text xml:space="preserve" x="261.2" y="331.6" font-family="Calibri" font-size="8" transform="rotate(270 261.2 331.6)">cytoskeletal_protein</text>
<text xml:space="preserve" x="269.2" y="331.6" font-family="Calibri" font-size="8" transform="rotate(270 269.2 331.6)">ion_channel</text>
<text xml:space="preserve" x="277.2" y="331.6" font-family="Calibri" font-size="8" transform="rotate(270 277.2 331.6)">integrin</text>
<text xml:space="preserve" x="285.2" y="331.6" font-family="Calibri" font-size="8" transform="rotate(270 285.2 331.6)">extracellular_matrix_protein</text>
<polygon points="90.2,335.6 98.2,335.6 98.2,343.6 90.2,343.6" fill="rgb(205,0,0)"/><text xml:space="preserve" x="94.2" y="342.433" font-family="Calibri" font-size="7.5" fill="rgb(255,255,255)" text-anchor="middle">5</text>
<polygon points="98.2,335.6 106.2,335.6 106.2,343.6 98.2,343.6" fill="rgb(230,127,0)"/><text xml:space="preserve" x="102.2" y="342.433" font-family="Calibri" font-size="7.5" fill="rgb(0,0,0)" text-anchor="middle">4</text>
<polygon points="106.2,335.6 114.2,335.6 114.2,343.6 106.2,343.6" fill="rgb(230,127,0)"/><text xml:space="preserve" x="110.2" y="342.433" font-family="Calibri" font-size="7.5" fill="rgb(0,0,0)" text-anchor="middle">4</text>
<polygon points="114.2,335.6 122.2,335.6 122.2,343.6 114.2,343.6" fill="rgb(230,127,0)"/><text xml:space="preserve" x="118.2" y="342.433" font-family="Calibri" font-size="7.5" fill="rgb(0,0,0)" text-anchor="middle">4</text>
<polygon points="122.2,335.6 130.2,335.6 130.2,343.6 122.2,343.6" fill="rgb(230,127,0)"/><text xml:space="preserve" x="126.2" y="342.433" font-family="Calibri" font-size="7.5" fill="rgb(0,0,0)" text-anchor="middle">4</text>
<polygon points="130.2,335.6 138.2,335.6 138.2,343.6 130.2,343.6" fill="rgb(230,127,0)"/><text xml:space="preserve" x="134.2" y="342.433" font-family="Calibri" font-size="7.5" fill="rgb(0,0,0)" text-anchor="middle">4</text>
<polygon points="138.2,335.6 146.2,335.6 146.2,343.6 138.2,343.6" fill="rgb(230,127,0)"/><text xml:space="preserve" x="142.2" y="342.433" font-family="Calibri" font-size="7.5" fill="rgb(0,0,0)" text-anchor="middle">4</text>
<polygon points="156.2,335.6 164.2,335.6 164.2,343.6 156.2,343.6" fill="rgb(252,194,1)"/>
<polygon points="164.2,335.6 172.2,335.6 172.2,343.6 164.2,343.6" fill="rgb(30,147,141)"/>
<polygon points="172.2,335.6 180.2,335.6 180.2,343.6 172.2,343.6" fill="rgb(28,138,141)"/>
<polygon points="180.2,335.6 188.2,335.6 188.2,343.6 180.2,343.6" fill="rgb(27,135,141)"/>
<polygon points="188.2,335.6 196.2,335.6 196.2,343.6 188.2,343.6" fill="rgb(25,126,140)"/>
<polygon points="196.2,335.6 204.2,335.6 204.2,343.6 196.2,343.6" fill="rgb(24,124,140)"/>
<polygon points="204.2,335.6 212.2,335.6 212.2,343.6 204.2,343.6" fill="rgb(24,123,140)"/>
<polygon points="222.2,335.6 230.2,335.6 230.2,343.6 222.2,343.6" fill="rgb(255,255,255)"/>
<polygon points="230.2,335.6 238.2,335.6 238.2,343.6 230.2,343.6" fill="rgb(255,255,255)"/>
<polygon points="238.2,335.6 246.2,335.6 246.2,343.6 238.2,343.6" fill="rgb(255,255,255)"/>
<polygon points="246.2,335.6 254.2,335.6 254.2,343.6 246.2,343.6" fill="rgb(255,255,255)"/>
<polygon points="254.2,335.6 262.2,335.6 262.2,343.6 254.2,343.6" fill="rgb(255,255,255)"/>
<polygon points="262.2,335.6 270.2,335.6 270.2,343.6 262.2,343.6" fill="rgb(255,255,255)"/>
<polygon points="270.2,335.6 278.2,335.6 278.2,343.6 270.2,343.6" fill="rgb(255,255,255)"/>
<polygon points="278.2,335.6 286.2,335.6 286.2,343.6 278.2,343.6" fill="rgb(255,255,255)"/>
<polygon points="90.2,343.6 98.2,343.6 98.2,351.6 90.2,351.6" fill="rgb(205,0,0)"/><text xml:space="preserve" x="94.2" y="350.433" font-family="Calibri" font-size="7.5" fill="rgb(255,255,255)" text-anchor="middle">5</text>
<polygon points="98.2,343.6 106.2,343.6 106.2,351.6 98.2,351.6" fill="rgb(230,127,0)"/><text xml:space="preserve" x="102.2" y="350.433" font-family="Calibri" font-size="7.5" fill="rgb(0,0,0)" text-anchor="middle">4</text>
<polygon points="106.2,343.6 114.2,343.6 114.2,351.6 106.2,351.6" fill="rgb(230,127,0)"/><text xml:space="preserve" x="110.2" y="350.433" font-family="Calibri" font-size="7.5" fill="rgb(0,0,0)" text-anchor="middle">4</text>
<polygon points="114.2,343.6 122.2,343.6 122.2,351.6 114.2,351.6" fill="rgb(230,127,0)"/><text xml:space="preserve" x="118.2" y="350.433" font-family="Calibri" font-size="7.5" fill="rgb(0,0,0)" text-anchor="middle">4</text>
<polygon points="122.2,343.6 130.2,343.6 130.2,351.6 122.2,351.6" fill="rgb(230,127,0)"/><text xml:space="preserve" x="126.2" y="350.433" font-family="Calibri" font-size="7.5" fill="rgb(0,0,0)" text-anchor="middle">4</text>
<polygon points="130.2,343.6 138.2,343.6 138.2,351.6 130.2,351.6" fill="rgb(230,127,0)"/><text xml:space="preserve" x="134.2" y="350.433" font-family="Calibri" font-size="7.5" fill="rgb(0,0,0)" text-anchor="middle">4</text>
<polygon points="138.2,343.6 146.2,343.6 146.2,351.6 138.2,351.6" fill="rgb(230,127,0)"/><text xml:space="preserve" x="142.2" y="350.433" font-family="Calibri" font-size="7.5" fill="rgb(0,0,0)" text-anchor="middle">4</text>
<polygon points="156.2,343.6 164.2,343.6 164.2,351.6 156.2,351.6" fill="rgb(252,194,1)"/>
<polygon points="164.2,343.6 172.2,343.6 172.2,351.6 164.2,351.6" fill="rgb(26,130,140)"/>
<polygon points="172.2,343.6 180.2,343.6 180.2,351.6 172.2,351.6" fill="rgb(22,116,140)"/>
<polygon points="180.2,343.6 188.2,343.6 188.2,351.6 180.2,351.6" fill="rgb(25,128,140)"/>
<polygon points="188.2,343.6 196.2,343.6 196.2,351.6 188.2,351.6" fill="rgb(27,135,141)"/>
<polygon points="196.2,343.6 204.2,343.6 204.2,351.6 196.2,351.6" fill="rgb(17,96,138)"/>
<polygon points="204.2,343.6 212.2,343.6 212.2,351.6 204.2,351.6" fill="rgb(26,131,141)"/>
<polygon points="222.2,343.6 230.2,343.6 230.2,351.6 222.2,351.6" fill="rgb(255,255,255)"/>
<polygon points="230.2,343.6 238.2,343.6 238.2,351.6 230.2,351.6" fill="rgb(255,255,255)"/>
<polygon points="238.2,343.6 246.2,343.6 246.2,351.6 238.2,351.6" fill="rgb(255,255,255)"/>
<polygon points="246.2,343.6 254.2,343.6 254.2,351.6 246.2,351.6" fill="rgb(255,255,255)"/>
<polygon points="254.2,343.6 262.2,343.6 262.2,351.6 254.2,351.6" fill="rgb(255,255,255)"/>
<polygon points="262.2,343.6 270.2,343.6 270.2,351.6 262.2,351.6" fill="rgb(255,255,255)"/>
<polygon points="270.2,343.6 278.2,343.6 278.2,351.6 270.2,351.6" fill="rgb(255,255,255)"/>
<polygon points="278.2,343.6 286.2,343.6 286.2,351.6 278.2,351.6" fill="rgb(255,255,255)"/>
<polygon points="90.2,351.6 98.2,351.6 98.2,359.6 90.2,359.6" fill="rgb(205,0,0)"/><text xml:space="preserve" x="94.2" y="358.433" font-family="Calibri" font-size="7.5" fill="rgb(255,255,255)" text-anchor="middle">5</text>
<polygon points="98.2,351.6 106.2,351.6 106.2,359.6 98.2,359.6" fill="rgb(230,127,0)"/><text xml:space="preserve" x="102.2" y="358.433" font-family="Calibri" font-size="7.5" fill="rgb(0,0,0)" text-anchor="middle">4</text>
<polygon points="106.2,351.6 114.2,351.6 114.2,359.6 106.2,359.6" fill="rgb(230,127,0)"/><text xml:space="preserve" x="110.2" y="358.433" font-family="Calibri" font-size="7.5" fill="rgb(0,0,0)" text-anchor="middle">4</text>
<polygon points="114.2,351.6 122.2,351.6 122.2,359.6 114.2,359.6" fill="rgb(230,127,0)"/><text xml:space="preserve" x="118.2" y="358.433" font-family="Calibri" font-size="7.5" fill="rgb(0,0,0)" text-anchor="middle">4</text>
<polygon points="122.2,351.6 130.2,351.6 130.2,359.6 122.2,359.6" fill="rgb(230,127,0)"/><text xml:space="preserve" x="126.2" y="358.433" font-family="Calibri" font-size="7.5" fill="rgb(0,0,0)" text-anchor="middle">4</text>
<polygon points="130.2,351.6 138.2,351.6 138.2,359.6 130.2,359.6" fill="rgb(230,127,0)"/><text xml:space="preserve" x="134.2" y="358.433" font-family="Calibri" font-size="7.5" fill="rgb(0,0,0)" text-anchor="middle">4</text>
<polygon points="138.2,351.6 146.2,351.6 146.2,359.6 138.2,359.6" fill="rgb(230,127,0)"/><text xml:space="preserve" x="142.2" y="358.433" font-family="Calibri" font-size="7.5" fill="rgb(0,0,0)" text-anchor="middle">4</text>
<polygon points="156.2,351.6 164.2,351.6 164.2,359.6 156.2,359.6" fill="rgb(252,194,1)"/>
<polygon points="164.2,351.6 172.2,351.6 172.2,359.6 164.2,359.6" fill="rgb(25,128,140)"/>
<polygon points="172.2,351.6 180.2,351.6 180.2,359.6 172.2,359.6" fill="rgb(21,112,139)"/>
<polygon points="180.2,351.6 188.2,351.6 188.2,359.6 180.2,359.6" fill="rgb(23,119,140)"/>
<polygon points="188.2,351.6 196.2,351.6 196.2,359.6 188.2,359.6" fill="rgb(24,121,140)"/>
<polygon points="196.2,351.6 204.2,351.6 204.2,359.6 196.2,359.6" fill="rgb(22,114,139)"/>
<polygon points="204.2,351.6 212.2,351.6 212.2,359.6 204.2,359.6" fill="rgb(19,103,139)"/>
<polygon points="222.2,351.6 230.2,351.6 230.2,359.6 222.2,359.6" fill="rgb(255,255,255)"/>
<polygon points="230.2,351.6 238.2,351.6 238.2,359.6 230.2,359.6" fill="rgb(255,255,255)"/>
<polygon points="238.2,351.6 246.2,351.6 246.2,359.6 238.2,359.6" fill="rgb(255,255,255)"/>
<polygon points="246.2,351.6 254.2,351.6 254.2,359.6 246.2,359.6" fill="rgb(255,255,255)"/>
<polygon points="254.2,351.6 262.2,351.6 262.2,359.6 254.2,359.6" fill="rgb(255,255,255)"/>
<polygon points="262.2,351.6 270.2,351.6 270.2,359.6 262.2,359.6" fill="rgb(255,255,255)"/>
<polygon points="270.2,351.6 278.2,351.6 278.2,359.6 270.2,359.6" fill="rgb(255,255,255)"/>
<polygon points="278.2,351.6 286.2,351.6 286.2,359.6 278.2,359.6" fill="rgb(255,255,255)"/>
<polygon points="90.2,335.6 146.2,335.6 146.2,359.6 90.2,359.6" fill="none" stroke="black" stroke-width="1"/>
<polygon points="156.2,335.6 212.2,335.6 212.2,359.6 156.2,359.6" fill="none" stroke="black" stroke-width="1"/>
<polygon points="222.2,335.6 286.2,335.6 286.2,359.6 222.2,359.6" fill="none" stroke="black" stroke-width="1"/>
<text xml:space="preserve" x="153.1" y="392.6" font-family="Calibri" font-size="8" text-anchor="middle">ClusterAssignment</text>
<polygon points="103.1,399.6 123.1,399.6 123.1,419.6 103.1,419.6" fill="rgb(0,205,0)"/><polygon points="103.1,399.6 123.1,399.6 123.1,419.6 103.1,419.6" fill="none" stroke="black" stroke-width="1"/><text xml:space="preserve" x="113.1" y="412.433" font-family="Calibri" font-size="7.5" fill="rgb(255,255,255)" text-anchor="middle">1.0</text>
<polygon points="123.1,399.6 143.1,399.6 143.1,419.6 123.1,419.6" fill="rgb(127,230,0)"/><polygon points="123.1,399.6 143.1,399.6 143.1,419.6 123.1,419.6" fill="none" stroke="black" stroke-width="1"/><text xml:space="preserve" x="133.1" y="412.433" font-family="Calibri" font-size="7.5" fill="rgb(0,0,0)" text-anchor="middle">2.0</text>
<polygon points="143.1,399.6 163.1,399.6 163.1,419.6 143.1,419.6" fill="rgb(255,255,0)"/><polygon points="143.1,399.6 163.1,399.6 163.1,419.6 143.1,419.6" fill="none" stroke="black" stroke-width="1"/><text xml:space="preserve" x="153.1" y="412.433" font-family="Calibri" font-size="7.5" fill="rgb(0,0,0)" text-anchor="middle">3.0</text>
<polygon points="163.1,399.6 183.1,399.6 183.1,419.6 163.1,419.6" fill="rgb(230,127,0)"/><polygon points="163.1,399.6 183.1,399.6 183.1,419.6 163.1,419.6" fill="none" stroke="black" stroke-width="1"/><text xml:space="preserve" x="173.1" y="412.433" font-family="Calibri" font-size="7.5" fill="rgb(0,0,0)" text-anchor="middle">4.0</text>
<polygon points="183.1,399.6 203.1,399.6 203.1,419.6 183.1,419.6" fill="rgb(205,0,0)"/><polygon points="183.1,399.6 203.1,399.6 203.1,419.6 183.1,419.6" fill="none" stroke="black" stroke-width="1"/><text xml:space="preserve" x="193.1" y="412.433" font-family="Calibri" font-size="7.5" fill="rgb(255,255,255)" text-anchor="middle">5.0</text>
<text xml:space="preserve" x="153.1" y="452.6" font-family="Calibri" font-size="8" text-anchor="middle">Expression</text>
<polygon points="103.1,459.6 123.1,459.6 123.1,479.6 103.1,479.6" fill="rgb(0,27,135)"/><polygon points="103.1,459.6 123.1,459.6 123.1,479.6 103.1,479.6" fill="none" stroke="black" stroke-width="1"/><text xml:space="preserve" x="113.1" y="472.433" font-family="Calibri" font-size="7.5" fill="rgb(255,255,255)" text-anchor="middle">0.0</text>
<polygon points="123.1,459.6 143.1,459.6 143.1,479.6 123.1,479.6" fill="rgb(24,123,140)"/><polygon points="123.1,459.6 143.1,459.6 143.1,479.6 123.1,479.6" fill="none" stroke="black" stroke-width="1"/><text xml:space="preserve" x="133.1" y="472.433" font-family="Calibri" font-size="7.5" fill="rgb(255,255,255)" text-anchor="middle">0.8</text>
<polygon points="143.1,459.6 163.1,459.6 163.1,479.6 143.1,479.6" fill="rgb(49,219,146)"/><polygon points="143.1,459.6 163.1,459.6 163.1,479.6 143.1,479.6" fill="none" stroke="black" stroke-width="1"/><text xml:space="preserve" x="153.1" y="472.433" font-family="Calibri" font-size="7.5" fill="rgb(0,0,0)" text-anchor="middle">1.5</text>
<polygon points="163.1,459.6 183.1,459.6 183.1,479.6 163.1,479.6" fill="rgb(150,206,73)"/><polygon points="163.1,459.6 183.1,459.6 183.1,479.6 163.1,479.6" fill="none" stroke="black" stroke-width="1"/><text xml:space="preserve" x="173.1" y="472.433" font-family="Calibri" font-size="7.5" fill="rgb(0,0,0)" text-anchor="middle">2.2</text>
<polygon points="183.1,459.6 203.1,459.6 203.1,479.6 183.1,479.6" fill="rgb(252,194,1)"/><polygon points="183.1,459.6 203.1,459.6 203.1,479.6 183.1,479.6" fill="none" stroke="black" stroke-width="1"/><text xml:space="preserve" x="193.1" y="472.433" font-family="Calibri" font-size="7.5" fill="rgb(0,0,0)" text-anchor="middle">3.0</text>
<text xml:space="preserve" x="153.1" y="512.6" font-family="Calibri" font-size="8" text-anchor="middle">PANTHERclass</text>
<polygon points="103.1,519.6 123.1,519.6 123.1,539.6 103.1,539.6" fill="rgb(255,255,255)"/><polygon points="103.1,519.6 123.1,519.6 123.1,539.6 103.1,539.6" fill="none" stroke="black" stroke-width="1"/><text xml:space="preserve" x="113.1" y="532.433" font-family="Calibri" font-size="7.5" fill="rgb(0,0,0)" text-anchor="middle">0.0</text>
<polygon points="123.1,519.6 143.1,519.6 143.1,539.6 123.1,539.6" fill="rgb(242,191,242)"/><polygon points="123.1,519.6 143.1,519.6 143.1,539.6 123.1,539.6" fill="none" stroke="black" stroke-width="1"/><text xml:space="preserve" x="133.1" y="532.433" font-family="Calibri" font-size="7.5" fill="rgb(0,0,0)" text-anchor="middle">0.2</text>
<polygon points="143.1,519.6 163.1,519.6 163.1,539.6 143.1,539.6" fill="rgb(230,127,230)"/><polygon points="143.1,519.6 163.1,519.6 163.1,539.6 143.1,539.6" fill="none" stroke="black" stroke-width="1"/><text xml:space="preserve" x="153.1" y="532.433" font-family="Calibri" font-size="7.5" fill="rgb(0,0,0)" text-anchor="middle">0.5</text>
<polygon points="163.1,519.6 183.1,519.6 183.1,539.6 163.1,539.6" fill="rgb(217,63,217)"/><polygon points="163.1,519.6 183.1,519.6 183.1,539.6 163.1,539.6" fill="none" stroke="black" stroke-width="1"/><text xml:space="preserve" x="173.1" y="532.433" font-family="Calibri" font-size="7.5" fill="rgb(255,255,255)" text-anchor="middle">0.8</text>
<polygon points="183.1,519.6 203.1,519.6 203.1,539.6 183.1,539.6" fill="rgb(205,0,205)"/><polygon points="183.1,519.6 203.1,519.6 203.1,539.6 183.1,539.6" fill="none" stroke="black" stroke-width="1"/><text xml:space="preserve" x="193.1" y="532.433" font-family="Calibri" font-size="7.5" fill="rgb(255,255,255)" text-anchor="middle">1.0</text>
</svg>
