<?xml version="1.0" standalone="no"?><!DOCTYPE svg PUBLIC "-//W3C//DTD SVG 1.1//EN" "http://www.w3.org/Graphics/SVG/1.1/DTD/svg11.dtd">
<svg width="340.4" height="567.6" version="1.1" xmlns="http://www.w3.org/2000/svg">
<text xml:space="preserve" x="120.4" y="342.6" font-family="Calibri" font-size="8" text-anchor="end">AL136373.1</text>
<text xml:space="preserve" x="120.4" y="350.6" font-family="Calibri" font-size="8" text-anchor="end">RBX1</text>
<text xml:space="preserve" x="120.4" y="358.6" font-family="Calibri" font-size="8" text-anchor="end">STARD13</text>
<text xml:space="preserve" x="120.4" y="366.6" font-family="Calibri" font-size="8" text-anchor="end">FAT1</text>
<text xml:space="preserve" x="131.4" y="331.6" font-family="Calibri" font-size="8" transform="rotate(270 131.4 331.6)">c3</text>
<text xml:space="preserve" x="139.4" y="331.6" font-family="Calibri" font-size="8" transform="rotate(270 139.4 331.6)">c1</text>
<text xml:space="preserve" x="147.4" y="331.6" font-family="Calibri" font-size="8" transform="rotate(270 147.4 331.6)">c4</text>
<text xml:space="preserve" x="155.4" y="331.6" font-family="Calibri" font-size="8" transform="rotate(270 155.4 331.6)">c5</text>
<text xml:space="preserve" x="163.4" y="331.6" font-family="Calibri" font-size="8" transform="rotate(270 163.4 331.6)">c2</text>
<text xml:space="preserve" x="171.4" y="331.6" font-family="Calibri" font-size="8" transform="rotate(270 171.4 331.6)">c6</text>
<text xml:space="preserve" x="179.4" y="331.6" font-family="Calibri" font-size="8" transform="rotate(270 179.4 331.6)">c7</text>
<text xml:space="preserve" x="197.4" y="331.6" font-family="Calibri" font-size="8" transform="rotate(270 197.4 331.6)">c3_mean</text>
<text xml:space="preserve" x="205.4" y="331.6" font-family="Calibri" font-size="8" transform="rotate(270 205.4 331.6)">c1_mean</text>
<text xml:space="preserve" x="213.4" y="331.6" font-family="Calibri" font-size="8" transform="rotate(270 213.4 331.6)">c4_mean</text>
<text xml:space="preserve" x="221.4" y="331.6" font-family="Calibri" font-size="8" transform="rotate(270 221.4 331.6)">c5_mean</text>
<text xml:space="preserve" x="229.4" y="331.6" font-family="Calibri" font-size="8" transform="rotate(270 229.4 331.6)">c2_mean</text>
<text xml:space="preserve" x="237.4" y="331.6" font-family="Calibri" font-size="8" transform="rotate(270 237.4 331.6)">c6_mean</text>
<text xml:space="preserve" x="245.4" y="331.6" font-family="Calibri" font-size="8" transform="rotate(270 245.4 331.6)">c7_mean</text>
<text xml:space="preserve" x="263.4" y="331.6" font-family="Calibri" font-size="8" transform="rotate(270 263.4 331.6)">transcription_factor</text>
<text xml:space="preserve" x="271.4" y="331.6" font-family="Calibri" font-size="8" transform="rotate(270 271.4 331.6)">transmembrane_signal_receptor</text>
<text xml:space="preserve" x="279.4" y="331.6" font-family="Calibri" font-size="8" transform="rotate(270 279.4 331.6)">growth_factor</text>
<text xml:space="preserve" x="287.4" y="331.6" font-family="Calibri" font-size="8" transform="rotate(270 287.4 331.6)">peptide_hormone</text>
<text xml:space="preserve" x="295.4" y="331.6" font-family="Calibri" font-size="8" transform="rotate(270 295.4 331.6)">cytoskeletal_protein</text>
<text xml:space="preserve" x="303.4" y="331.6" font-family="Calibri" font-size="8" transform="rotate(270 303.4 331.6)">ion_channel</text>
<text xml:space="preserve" x="311.4" y="331.6" font-family="Calibri" font-size="8" transform="rotate(270 311.4 331.6)">integrin</text>
<text xml:space="preserve" x="319.4" y="331.6" font-family="Calibri" font-size="8" transform="rotate(270 319.4 331.6)">extracellular_matrix_protein</text>
<polygon points="124.4,335.6 132.4,335.6 132.4,343.6 124.4,343.6" fill="rgb(127,230,0)"/><text xml:space="preserve" x="128.4" y="342.433" font-family="Calibri" font-size="7.5" fill="rgb(0,0,0)" text-anchor="middle">2</text>
<polygon points="132.4,335.6 140.4,335.6 140.4,343.6 132.4,343.6" fill="rgb(127,230,0)"/><text xml:space="preserve" x="136.4" y="342.433" font-family="Calibri" font-size="7.5" fill="rgb(0,0,0)" text-anchor="middle">2</text>
<polygon points="140.4,335.6 148.4,335.6 148.4,343.6 140.4,343.6" fill="rgb(127,230,0)"/><text xml:space="preserve" x="144.4" y="342.433" font-family="Calibri" font-size="7.5" fill="rgb(0,0,0)" text-anchor="middle">2</text>
<polygon points="148.4,335.6 156.4,335.6 156.4,343.6 148.4,343.6" fill="rgb(127,230,0)"/><text xml:space="preserve" x="152.4" y="342.433" font-family="Calibri" font-size="7.5" fill="rgb(0,0,0)" text-anchor="middle">2</text>
<polygon points="156.4,335.6 164.4,335.6 164.4,343.6 156.4,343.6" fill="rgb(230,127,0)"/><text xml:space="preserve" x="160.4" y="342.433" font-family="Calibri" font-size="7.5" fill="rgb(0,0,0)" text-anchor="middle">4</text>
<polygon points="164.4,335.6 172.4,335.6 172.4,343.6 164.4,343.6" fill="rgb(230,127,0)"/><text xml:space="preserve" x="168.4" y="342.433" font-family="Calibri" font-size="7.5" fill="rgb(0,0,0)" text-anchor="middle">4</text>
<polygon points="172.4,335.6 180.4,335.6 180.4,343.6 172.4,343.6" fill="rgb(127,230,0)"/><text xml:space="preserve" x="176.4" y="342.433" font-family="Calibri" font-size="7.5" fill="rgb(0,0,0)" text-anchor="middle">2</text>
<polygon points="190.4,335.6 198.4,335.6 198.4,343.6 190.4,343.6" fill="rgb(9,65,137)"/>
<polygon points="198.4,335.6 206.4,335.6 206.4,343.6 198.4,343.6" fill="rgb(13,79,138)"/>
<polygon points="206.4,335.6 214.4,335.6 214.4,343.6 206.4,343.6" fill="rgb(12,76,137)"/>
<polygon points="214.4,335.6 222.4,335.6 222.4,343.6 214.4,343.6" fill="rgb(5,48,136)"/>
<polygon points="222.4,335.6 230.4,335.6 230.4,343.6 222.4,343.6" fill="rgb(20,107,139)"/>
<polygon points="230.4,335.6 238.4,335.6 238.4,343.6 230.4,343.6" fill="rgb(28,138,141)"/>
<polygon points="238.4,335.6 246.4,335.6 246.4,343.6 238.4,343.6" fill="rgb(10,69,137)"/>
<polygon points="256.4,335.6 264.4,335.6 264.4,343.6 256.4,343.6" fill="rgb(255,255,255)"/>
<polygon points="264.4,335.6 272.4,335.6 272.4,343.6 264.4,343.6" fill="rgb(255,255,255)"/>
<polygon points="272.4,335.6 280.4,335.6 280.4,343.6 272.4,343.6" fill="rgb(255,255,255)"/>
<polygon points="280.4,335.6 288.4,335.6 288.4,343.6 280.4,343.6" fill="rgb(255,255,255)"/>
<polygon points="288.4,335.6 296.4,335.6 296.4,343.6 288.4,343.6" fill="rgb(255,255,255)"/>
<polygon points="296.4,335.6 304.4,335.6 304.4,343.6 296.4,343.6" fill="rgb(255,255,255)"/>
<polygon points="304.4,335.6 312.4,335.6 312.4,343.6 304.4,343.6" fill="rgb(255,255,255)"/>
<polygon points="312.4,335.6 320.4,335.6 320.4,343.6 312.4,343.6" fill="rgb(255,255,255)"/>
<polygon points="124.4,343.6 132.4,343.6 132.4,351.6 124.4,351.6" fill="rgb(127,230,0)"/><text xml:space="preserve" x="128.4" y="350.433" font-family="Calibri" font-size="7.5" fill="rgb(0,0,0)" text-anchor="middle">2</text>
<polygon points="132.4,343.6 140.4,343.6 140.4,351.6 132.4,351.6" fill="rgb(127,230,0)"/><text xml:space="preserve" x="136.4" y="350.433" font-family="Calibri" font-size="7.5" fill="rgb(0,0,0)" text-anchor="middle">2</text>
<polygon points="140.4,343.6 148.4,343.6 148.4,351.6 140.4,351.6" fill="rgb(127,230,0)"/><text xml:space="preserve" x="144.4" y="350.433" font-family="Calibri" font-size="7.5" fill="rgb(0,0,0)" text-anchor="middle">2</text>
<polygon points="148.4,343.6 156.4,343.6 156.4,351.6 148.4,351.6" fill="rgb(127,230,0)"/><text xml:space="preserve" x="152.4" y="350.433" font-family="Calibri" font-size="7.5" fill="rgb(0,0,0)" text-anchor="middle">2</text>
<polygon points="156.4,343.6 164.4,343.6 164.4,351.6 156.4,351.6" fill="rgb(230,127,0)"/><text xml:space="preserve" x="160.4" y="350.433" font-family="Calibri" font-size="7.5" fill="rgb(0,0,0)" text-anchor="middle">4</text>
<polygon points="164.4,343.6 172.4,343.6 172.4,351.6 164.4,351.6" fill="rgb(230,127,0)"/><text xml:space="preserve" x="168.4" y="350.433" font-family="Calibri" font-size="7.5" fill="rgb(0,0,0)" text-anchor="middle">4</text>
<polygon points="172.4,343.6 180.4,343.6 180.4,351.6 172.4,351.6" fill="rgb(127,230,0)"/><text xml:space="preserve" x="176.4" y="350.433" font-family="Calibri" font-size="7.5" fill="rgb(0,0,0)" text-anchor="middle">2</text>
<polygon points="190.4,343.6 198.4,343.6 198.4,351.6 190.4,351.6" fill="rgb(7,56,136)"/>
<polygon points="198.4,343.6 206.4,343.6 206.4,351.6 198.4,351.6" fill="rgb(8,59,136)"/>
<polygon points="206.4,343.6 214.4,343.6 214.4,351.6 206.4,351.6" fill="rgb(21,111,139)"/>
<polygon points="214.4,343.6 222.4,343.6 222.4,351.6 214.4,351.6" fill="rgb(12,75,137)"/>
<polygon points="222.4,343.6 230.4,343.6 230.4,351.6 222.4,351.6" fill="rgb(26,131,141)"/>
<polygon points="230.4,343.6 238.4,343.6 238.4,351.6 230.4,351.6" fill="rgb(29,143,141)"/>
<polygon points="238.4,343.6 246.4,343.6 246.4,351.6 238.4,351.6" fill="rgb(7,57,136)"/>
<polygon points="256.4,343.6 264.4,343.6 264.4,351.6 256.4,351.6" fill="rgb(255,255,255)"/>
<polygon points="264.4,343.6 272.4,343.6 272.4,351.6 264.4,351.6" fill="rgb(255,255,255)"/>
<polygon points="272.4,343.6 280.4,343.6 280.4,351.6 272.4,351.6" fill="rgb(255,255,255)"/>
<polygon points="280.4,343.6 288.4,343.6 288.4,351.6 280.4,351.6" fill="rgb(255,255,255)"/>
<polygon points="288.4,343.6 296.4,343.6 296.4,351.6 288.4,351.6" fill="rgb(255,255,255)"/>
<polygon points="296.4,343.6 304.4,343.6 304.4,351.6 296.4,351.6" fill="rgb(255,255,255)"/>
<polygon points="304.4,343.6 312.4,343.6 312.4,351.6 304.4,351.6" fill="rgb(255,255,255)"/>
<polygon points="312.4,343.6 320.4,343.6 320.4,351.6 312.4,351.6" fill="rgb(255,255,255)"/>
<polygon points="124.4,351.6 132.4,351.6 132.4,359.6 124.4,359.6" fill="rgb(127,230,0)"/><text xml:space="preserve" x="128.4" y="358.433" font-family="Calibri" font-size="7.5" fill="rgb(0,0,0)" text-anchor="middle">2</text>
<polygon points="132.4,351.6 140.4,351.6 140.4,359.6 132.4,359.6" fill="rgb(127,230,0)"/><text xml:space="preserve" x="136.4" y="358.433" font-family="Calibri" font-size="7.5" fill="rgb(0,0,0)" text-anchor="middle">2</text>
<polygon points="140.4,351.6 148.4,351.6 148.4,359.6 140.4,359.6" fill="rgb(127,230,0)"/><text xml:space="preserve" x="144.4" y="358.433" font-family="Calibri" font-size="7.5" fill="rgb(0,0,0)" text-anchor="middle">2</text>
<polygon points="148.4,351.6 156.4,351.6 156.4,359.6 148.4,359.6" fill="rgb(127,230,0)"/><text xml:space="preserve" x="152.4" y="358.433" font-family="Calibri" font-size="7.5" fill="rgb(0,0,0)" text-anchor="middle">2</text>
<polygon points="156.4,351.6 164.4,351.6 164.4,359.6 156.4,359.6" fill="rgb(230,127,0)"/><text xml:space="preserve" x="160.4" y="358.433" font-family="Calibri" font-size="7.5" fill="rgb(0,0,0)" text-anchor="middle">4</text>
<polygon points="164.4,351.6 172.4,351.6 172.4,359.6 164.4,359.6" fill="rgb(230,127,0)"/><text xml:space="preserve" x="168.4" y="358.433" font-family="Calibri" font-size="7.5" fill="rgb(0,0,0)" text-anchor="middle">4</text>
<polygon points="172.4,351.6 180.4,351.6 180.4,359.6 172.4,359.6" fill="rgb(127,230,0)"/><text xml:space="preserve" x="176.4" y="358.433" font-family="Calibri" font-size="7.5" fill="rgb(0,0,0)" text-anchor="middle">2</text>
<polygon points="190.4,351.6 198.4,351.6 198.4,359.6 190.4,359.6" fill="rgb(8,59,136)"/>
<polygon points="198.4,351.6 206.4,351.6 206.4,359.6 198.4,359.6" fill="rgb(8,61,136)"/>
<polygon points="206.4,351.6 214.4,351.6 214.4,359.6 206.4,359.6" fill="rgb(9,65,137)"/>
<polygon points="214.4,351.6 222.4,351.6 222.4,359.6 214.4,359.6" fill="rgb(16,93,138)"/>
<polygon points="222.4,351.6 230.4,351.6 230.4,359.6 222.4,359.6" fill="rgb(24,124,140)"/>
<polygon points="230.4,351.6 238.4,351.6 238.4,359.6 230.4,359.6" fill="rgb(22,115,140)"/>
<polygon points="238.4,351.6 246.4,351.6 246.4,359.6 238.4,359.6" fill="rgb(10,69,137)"/>
<polygon points="256.4,351.6 264.4,351.6 264.4,359.6 256.4,359.6" fill="rgb(255,255,255)"/>
<polygon points="264.4,351.6 272.4,351.6 272.4,359.6 264.4,359.6" fill="rgb(255,255,255)"/>
<polygon points="272.4,351.6 280.4,351.6 280.4,359.6 272.4,359.6" fill="rgb(255,255,255)"/>
<polygon points="280.4,351.6 288.4,351.6 288.4,359.6 280.4,359.6" fill="rgb(255,255,255)"/>
<polygon points="288.4,351.6 296.4,351.6 296.4,359.6 288.4,359.6" fill="rgb(255,255,255)"/>
<polygon points="296.4,351.6 304.4,351.6 304.4,359.6 296.4,359.6" fill="rgb(255,255,255)"/>
<polygon points="304.4,351.6 312.4,351.6 312.4,359.6 304.4,359.6" fill="rgb(255,255,255)"/>
<polygon points="312.4,351.6 320.4,351.6 320.4,359.6 312.4,359.6" fill="rgb(255,255,255)"/>
<polygon points="124.4,359.6 132.4,359.6 132.4,367.6 124.4,367.6" fill="rgb(127,230,0)"/><text xml:space="preserve" x="128.4" y="366.433" font-family="Calibri" font-size="7.5" fill="rgb(0,0,0)" text-anchor="middle">2</text>
<polygon points="132.4,359.6 140.4,359.6 140.4,367.6 132.4,367.6" fill="rgb(127,230,0)"/><text xml:space="preserve" x="136.4" y="366.433" font-family="Calibri" font-size="7.5" fill="rgb(0,0,0)" text-anchor="middle">2</text>
<polygon points="140.4,359.6 148.4,359.6 148.4,367.6 140.4,367.6" fill="rgb(127,230,0)"/><text xml:space="preserve" x="144.4" y="366.433" font-family="Calibri" font-size="7.5" fill="rgb(0,0,0)" text-anchor="middle">2</text>
<polygon points="148.4,359.6 156.4,359.6 156.4,367.6 148.4,367.6" fill="rgb(127,230,0)"/><text xml:space="preserve" x="152.4" y="366.433" font-family="Calibri" font-size="7.5" fill="rgb(0,0,0)" text-anchor="middle">2</text>
<polygon points="156.4,359.6 164.4,359.6 164.4,367.6 156.4,367.6" fill="rgb(230,127,0)"/><text xml:space="preserve" x="160.4" y="366.433" font-family="Calibri" font-size="7.5" fill="rgb(0,0,0)" text-anchor="middle">4</text>
<polygon points="164.4,359.6 172.4,359.6 172.4,367.6 164.4,367.6" fill="rgb(230,127,0)"/><text xml:space="preserve" x="168.4" y="366.433" font-family="Calibri" font-size="7.5" fill="rgb(0,0,0)" text-anchor="middle">4</text>
<polygon points="172.4,359.6 180.4,359.6 180.4,367.6 172.4,367.6" fill="rgb(127,230,0)"/><text xml:space="preserve" x="176.4" y="366.433" font-family="Calibri" font-size="7.5" fill="rgb(0,0,0)" text-anchor="middle">2</text>
<polygon points="190.4,359.6 198.4,359.6 198.4,367.6 190.4,367.6" fill="rgb(7,55,136)"/>
<polygon points="198.4,359.6 206.4,359.6 206.4,367.6 198.4,367.6" fill="rgb(7,57,136)"/>
<polygon points="206.4,359.6 214.4,359.6 214.4,367.6 206.4,367.6" fill="rgb(6,52,136)"/>
<polygon points="214.4,359.6 222.4,359.6 222.4,367.6 214.4,367.6" fill="rgb(12,75,137)"/>
<polygon points="222.4,359.6 230.4,359.6 230.4,367.6 222.4,367.6" fill="rgb(23,117,140)"/>
<polygon points="230.4,359.6 238.4,359.6 238.4,367.6 230.4,367.6" fill="rgb(25,128,140)"/>
<polygon points="238.4,359.6 246.4,359.6 246.4,367.6 238.4,367.6" fill="rgb(14,83,138)"/>
<polygon points="256.4,359.6 264.4,359.6 264.4,367.6 256.4,367.6" fill="rgb(255,255,255)"/>
<polygon points="264.4,359.6 272.4,359.6 272.4,367.6 264.4,367.6" fill="rgb(255,255,255)"/>
<polygon points="272.4,359.6 280.4,359.6 280.4,367.6 272.4,367.6" fill="rgb(255,255,255)"/>
<polygon points="280.4,359.6 288.4,359.6 288.4,367.6 280.4,367.6" fill="rgb(255,255,255)"/>
<polygon points="288.4,359.6 296.4,359.6 296.4,367.6 288.4,367.6" fill="rgb(255,255,255)"/>
<polygon points="296.4,359.6 304.4,359.6 304.4,367.6 296.4,367.6" fill="rgb(255,255,255)"/>
<polygon points="304.4,359.6 312.4,359.6 312.4,367.6 304.4,367.6" fill="rgb(255,255,255)"/>
<polygon points="312.4,359.6 320.4,359.6 320.4,367.6 312.4,367.6" fill="rgb(255,255,255)"/>
<polygon points="124.4,335.6 180.4,335.6 180.4,367.6 124.4,367.6" fill="none" stroke="black" stroke-width="1"/>
<polygon points="190.4,335.6 246.4,335.6 246.4,367.6 190.4,367.6" fill="none" stroke="black" stroke-width="1"/>
<polygon points="256.4,335.6 320.4,335.6 320.4,367.6 256.4,367.6" fill="none" stroke="black" stroke-width="1"/>
<text xml:space="preserve" x="170.2" y="400.6" font-family="Calibri" font-size="8" text-anchor="middle">ClusterAssignment</text>
<polygon points="120.2,407.6 140.2,407.6 140.2,427.6 120.2,427.6" fill="rgb(0,205,0)"/><polygon points="120.2,407.6 140.2,407.6 140.2,427.6 120.2,427.6" fill="none" stroke="black" stroke-width="1"/><text xml:space="preserve" x="130.2" y="420.433" font-family="Calibri" font-size="7.5" fill="rgb(255,255,255)" text-anchor="middle">1.0</text>
<polygon points="140.2,407.6 160.2,407.6 160.2,427.6 140.2,427.6" fill="rgb(127,230,0)"/><polygon points="140.2,407.6 160.2,407.6 160.2,427.6 140.2,427.6" fill="none" stroke="black" stroke-width="1"/><text xml:space="preserve" x="150.2" y="420.433" font-family="Calibri" font-size="7.5" fill="rgb(0,0,0)" text-anchor="middle">2.0</text>
<polygon points="160.2,407.6 180.2,407.6 180.2,427.6 160.2,427.6" fill="rgb(255,255,0)"/><polygon points="160.2,407.6 180.2,407.6 180.2,427.6 160.2,427.6" fill="none" stroke="black" stroke-width="1"/><text xml:space="preserve" x="170.2" y="420.433" font-family="Calibri" font-size="7.5" fill="rgb(0,0,0)" text-anchor="middle">3.0</text>
<polygon points="180.2,407.6 200.2,407.6 200.2,427.6 180.2,427.6" fill="rgb(230,127,0)"/><polygon points="180.2,407.6 200.2,407.6 200.2,427.6 180.2,427.6" fill="none" stroke="black" stroke-width="1"/><text xml:space="preserve" x="190.2" y="420.433" font-family="Calibri" font-size="7.5" fill="rgb(0,0,0)" text-anchor="middle">4.0</text>
<polygon points="200.2,407.6 220.2,407.6 220.2,427.6 200.2,427.6" fill="rgb(205,0,0)"/><polygon points="200.2,407.6 220.2,407.6 220.2,427.6 200.2,427.6" fill="none" stroke="black" stroke-width="1"/><text xml:space="preserve" x="210.2" y="420.433" font-family="Calibri" font-size="7.5" fill="rgb(255,255,255)" text-anchor="middle">5.0</text>
<text xml:space="preserve" x="170.2" y="460.6" font-family="Calibri" font-size="8" text-anchor="middle">Expression</text>
<polygon points="120.2,467.6 140.2,467.6 140.2,487.6 120.2,487.6" fill="rgb(0,27,135)"/><polygon points="120.2,467.6 140.2,467.6 140.2,487.6 120.2,487.6" fill="none" stroke="black" stroke-width="1"/><text xml:space="preserve" x="130.2" y="480.433" font-family="Calibri" font-size="7.5" fill="rgb(255,255,255)" text-anchor="middle">0.0</text>
<polygon points="140.2,467.6 160.2,467.6 160.2,487.6 140.2,487.6" fill="rgb(24,123,140)"/><polygon points="140.2,467.6 160.2,467.6 160.2,487.6 140.2,487.6" fill="none" stroke="black" stroke-width="1"/><text xml:space="preserve" x="150.2" y="480.433" font-family="Calibri" font-size="7.5" fill="rgb(255,255,255)" text-anchor="middle">0.8</text>
<polygon points="160.2,467.6 180.2,467.6 180.2,487.6 160.2,487.6" fill="rgb(49,219,146)"/><polygon points="160.2,467.6 180.2,467.6 180.2,487.6 160.2,487.6" fill="none" stroke="black" stroke-width="1"/><text xml:space="preserve" x="170.2" y="480.433" font-family="Calibri" font-size="7.5" fill="rgb(0,0,0)" text-anchor="middle">1.5</text>
<polygon points="180.2,467.6 200.2,467.6 200.2,487.6 180.2,487.6" fill="rgb(150,206,73)"/><polygon points="180.2,467.6 200.2,467.6 200.2,487.6 180.2,487.6" fill="none" stroke="black" stroke-width="1"/><text xml:space="preserve" x="190.2" y="480.433" font-family="Calibri" font-size="7.5" fill="rgb(0,0,0)" text-anchor="middle">2.2</text>
<polygon points="200.2,467.6 220.2,467.6 220.2,487.6 200.2,487.6" fill="rgb(252,194,1)"/><polygon points="200.2,467.6 220.2,467.6 220.2,487.6 200.2,487.6" fill="none" stroke="black" stroke-width="1"/><text xml:space="preserve" x="210.2" y="480.433" font-family="Calibri" font-size="7.5" fill="rgb(0,0,0)" text-anchor="middle">3.0</text>
<text xml:space="preserve" x="170.2" y="520.6" font-family="Calibri" font-size="8" text-anchor="middle">PANTHERclass</text>
<polygon points="120.2,527.6 140.2,527.6 140.2,547.6 120.2,547.6" fill="rgb(255,255,255)"/><polygon points="120.2,527.6 140.2,527.6 140.2,547.6 120.2,547.6" fill="none" stroke="black" stroke-width="1"/><text xml:space="preserve" x="130.2" y="540.433" font-family="Calibri" font-size="7.5" fill="rgb(0,0,0)" text-anchor="middle">0.0</text>
<polygon points="140.2,527.6 160.2,527.6 160.2,547.6 140.2,547.6" fill="rgb(242,191,242)"/><polygon points="140.2,527.6 160.2,527.6 160.2,547.6 140.2,547.6" fill="none" stroke="black" stroke-width="1"/><text xml:space="preserve" x="150.2" y="540.433" font-family="Calibri" font-size="7.5" fill="rgb(0,0,0)" text-anchor="middle">0.2</text>
<polygon points="160.2,527.6 180.2,527.6 180.2,547.6 160.2,547.6" fill="rgb(230,127,230)"/><polygon points="160.2,527.6 180.2,527.6 180.2,547.6 160.2,547.6" fill="none" stroke="black" stroke-width="1"/><text xml:space="preserve" x="170.2" y="540.433" font-family="Calibri" font-size="7.5" fill="rgb(0,0,0)" text-anchor="middle">0.5</text>
<polygon points="180.2,527.6 200.2,527.6 200.2,547.6 180.2,547.6" fill="rgb(217,63,217)"/><polygon points="180.2,527.6 200.2,527.6 200.2,547.6 180.2,547.6" fill="none" stroke="black" stroke-width="1"/><text xml:space="preserve" x="190.2" y="540.433" font-family="Calibri" font-size="7.5" fill="rgb(255,255,255)" text-anchor="middle">0.8</text>
<polygon points="200.2,527.6 220.2,527.6 220.2,547.6 200.2,547.6" fill="rgb(205,0,205)"/><polygon points="200.2,527.6 220.2,527.6 220.2,547.6 200.2,547.6" fill="none" stroke="black" stroke-width="1"/><text xml:space="preserve" x="210.2" y="540.433" font-family="Calibri" font-size="7.5" fill="rgb(255,255,255)" text-anchor="middle">1.0</text>
</svg>
