<?xml version="1.0" standalone="no"?><!DOCTYPE svg PUBLIC "-//W3C//DTD SVG 1.1//EN" "http://www.w3.org/Graphics/SVG/1.1/DTD/svg11.dtd">
<svg width="319.4" height="567.6" version="1.1" xmlns="http://www.w3.org/2000/svg">
<text xml:space="preserve" x="99.4" y="342.6" font-family="Calibri" font-size="8" text-anchor="end">C15orf61</text>
<text xml:space="preserve" x="99.4" y="350.6" font-family="Calibri" font-size="8" text-anchor="end">GALR1</text>
<text xml:space="preserve" x="99.4" y="358.6" font-family="Calibri" font-size="8" text-anchor="end">SKOR1</text>
<text xml:space="preserve" x="99.4" y="366.6" font-family="Calibri" font-size="8" text-anchor="end">GLRA3</text>
<text xml:space="preserve" x="110.4" y="331.6" font-family="Calibri" font-size="8" transform="rotate(270 110.4 331.6)">c3</text>
<text xml:space="preserve" x="118.4" y="331.6" font-family="Calibri" font-size="8" transform="rotate(270 118.4 331.6)">c1</text>
<text xml:space="preserve" x="126.4" y="331.6" font-family="Calibri" font-size="8" transform="rotate(270 126.4 331.6)">c4</text>
<text xml:space="preserve" x="134.4" y="331.6" font-family="Calibri" font-size="8" transform="rotate(270 134.4 331.6)">c5</text>
<text xml:space="preserve" x="142.4" y="331.6" font-family="Calibri" font-size="8" transform="rotate(270 142.4 331.6)">c2</text>
<text xml:space="preserve" x="150.4" y="331.6" font-family="Calibri" font-size="8" transform="rotate(270 150.4 331.6)">c6</text>
<text xml:space="preserve" x="158.4" y="331.6" font-family="Calibri" font-size="8" transform="rotate(270 158.4 331.6)">c7</text>
<text xml:space="preserve" x="176.4" y="331.6" font-family="Calibri" font-size="8" transform="rotate(270 176.4 331.6)">c3_mean</text>
<text xml:space="preserve" x="184.4" y="331.6" font-family="Calibri" font-size="8" transform="rotate(270 184.4 331.6)">c1_mean</text>
<text xml:space="preserve" x="192.4" y="331.6" font-family="Calibri" font-size="8" transform="rotate(270 192.4 331.6)">c4_mean</text>
<text xml:space="preserve" x="200.4" y="331.6" font-family="Calibri" font-size="8" transform="rotate(270 200.4 331.6)">c5_mean</text>
<text xml:space="preserve" x="208.4" y="331.6" font-family="Calibri" font-size="8" transform="rotate(270 208.4 331.6)">c2_mean</text>
<text xml:space="preserve" x="216.4" y="331.6" font-family="Calibri" font-size="8" transform="rotate(270 216.4 331.6)">c6_mean</text>
<text xml:space="preserve" x="224.4" y="331.6" font-family="Calibri" font-size="8" transform="rotate(270 224.4 331.6)">c7_mean</text>
<text xml:space="preserve" x="242.4" y="331.6" font-family="Calibri" font-size="8" transform="rotate(270 242.4 331.6)">transcription_factor</text>
<text xml:space="preserve" x="250.4" y="331.6" font-family="Calibri" font-size="8" transform="rotate(270 250.4 331.6)">transmembrane_signal_receptor</text>
<text xml:space="preserve" x="258.4" y="331.6" font-family="Calibri" font-size="8" transform="rotate(270 258.4 331.6)">growth_factor</text>
<text xml:space="preserve" x="266.4" y="331.6" font-family="Calibri" font-size="8" transform="rotate(270 266.4 331.6)">peptide_hormone</text>
<text xml:space="preserve" x="274.4" y="331.6" font-family="Calibri" font-size="8" transform="rotate(270 274.4 331.6)">cytoskeletal_protein</text>
<text xml:space="preserve" x="282.4" y="331.6" font-family="Calibri" font-size="8" transform="rotate(270 282.4 331.6)">ion_channel</text>
<text xml:space="preserve" x="290.4" y="331.6" font-family="Calibri" font-size="8" transform="rotate(270 290.4 331.6)">integrin</text>
<text xml:space="preserve" x="298.4" y="331.6" font-family="Calibri" font-size="8" transform="rotate(270 298.4 331.6)">extracellular_matrix_protein</text>
<polygon points="103.4,335.6 111.4,335.6 111.4,343.6 103.4,343.6" fill="rgb(127,230,0)"/><text xml:space="preserve" x="107.4" y="342.433" font-family="Calibri" font-size="7.5" fill="rgb(0,0,0)" text-anchor="middle">2</text>
<polygon points="111.4,335.6 119.4,335.6 119.4,343.6 111.4,343.6" fill="rgb(127,230,0)"/><text xml:space="preserve" x="115.4" y="342.433" font-family="Calibri" font-size="7.5" fill="rgb(0,0,0)" text-anchor="middle">2</text>
<polygon points="119.4,335.6 127.4,335.6 127.4,343.6 119.4,343.6" fill="rgb(255,255,0)"/><text xml:space="preserve" x="123.4" y="342.433" font-family="Calibri" font-size="7.5" fill="rgb(0,0,0)" text-anchor="middle">3</text>
<polygon points="127.4,335.6 135.4,335.6 135.4,343.6 127.4,343.6" fill="rgb(205,0,0)"/><text xml:space="preserve" x="131.4" y="342.433" font-family="Calibri" font-size="7.5" fill="rgb(255,255,255)" text-anchor="middle">5</text>
<polygon points="135.4,335.6 143.4,335.6 143.4,343.6 135.4,343.6" fill="rgb(205,0,0)"/><text xml:space="preserve" x="139.4" y="342.433" font-family="Calibri" font-size="7.5" fill="rgb(255,255,255)" text-anchor="middle">5</text>
<polygon points="143.4,335.6 151.4,335.6 151.4,343.6 143.4,343.6" fill="rgb(255,255,0)"/><text xml:space="preserve" x="147.4" y="342.433" font-family="Calibri" font-size="7.5" fill="rgb(0,0,0)" text-anchor="middle">3</text>
<polygon points="151.4,335.6 159.4,335.6 159.4,343.6 151.4,343.6" fill="rgb(205,0,0)"/><text xml:space="preserve" x="155.4" y="342.433" font-family="Calibri" font-size="7.5" fill="rgb(255,255,255)" text-anchor="middle">5</text>
<polygon points="169.4,335.6 177.4,335.6 177.4,343.6 169.4,343.6" fill="rgb(16,92,138)"/>
<polygon points="177.4,335.6 185.4,335.6 185.4,343.6 177.4,343.6" fill="rgb(19,102,139)"/>
<polygon points="185.4,335.6 193.4,335.6 193.4,343.6 185.4,343.6" fill="rgb(21,112,139)"/>
<polygon points="193.4,335.6 201.4,335.6 201.4,343.6 193.4,343.6" fill="rgb(33,158,142)"/>
<polygon points="201.4,335.6 209.4,335.6 209.4,343.6 201.4,343.6" fill="rgb(36,171,143)"/>
<polygon points="209.4,335.6 217.4,335.6 217.4,343.6 209.4,343.6" fill="rgb(22,114,139)"/>
<polygon points="217.4,335.6 225.4,335.6 225.4,343.6 217.4,343.6" fill="rgb(36,171,143)"/>
<polygon points="235.4,335.6 243.4,335.6 243.4,343.6 235.4,343.6" fill="rgb(255,255,255)"/>
<polygon points="243.4,335.6 251.4,335.6 251.4,343.6 243.4,343.6" fill="rgb(255,255,255)"/>
<polygon points="251.4,335.6 259.4,335.6 259.4,343.6 251.4,343.6" fill="rgb(255,255,255)"/>
<polygon points="259.4,335.6 267.4,335.6 267.4,343.6 259.4,343.6" fill="rgb(255,255,255)"/>
<polygon points="267.4,335.6 275.4,335.6 275.4,343.6 267.4,343.6" fill="rgb(255,255,255)"/>
<polygon points="275.4,335.6 283.4,335.6 283.4,343.6 275.4,343.6" fill="rgb(255,255,255)"/>
<polygon points="283.4,335.6 291.4,335.6 291.4,343.6 283.4,343.6" fill="rgb(255,255,255)"/>
<polygon points="291.4,335.6 299.4,335.6 299.4,343.6 291.4,343.6" fill="rgb(255,255,255)"/>
<polygon points="103.4,343.6 111.4,343.6 111.4,351.6 103.4,351.6" fill="rgb(127,230,0)"/><text xml:space="preserve" x="107.4" y="350.433" font-family="Calibri" font-size="7.5" fill="rgb(0,0,0)" text-anchor="middle">2</text>
<polygon points="111.4,343.6 119.4,343.6 119.4,351.6 111.4,351.6" fill="rgb(127,230,0)"/><text xml:space="preserve" x="115.4" y="350.433" font-family="Calibri" font-size="7.5" fill="rgb(0,0,0)" text-anchor="middle">2</text>
<polygon points="119.4,343.6 127.4,343.6 127.4,351.6 119.4,351.6" fill="rgb(255,255,0)"/><text xml:space="preserve" x="123.4" y="350.433" font-family="Calibri" font-size="7.5" fill="rgb(0,0,0)" text-anchor="middle">3</text>
<polygon points="127.4,343.6 135.4,343.6 135.4,351.6 127.4,351.6" fill="rgb(205,0,0)"/><text xml:space="preserve" x="131.4" y="350.433" font-family="Calibri" font-size="7.5" fill="rgb(255,255,255)" text-anchor="middle">5</text>
<polygon points="135.4,343.6 143.4,343.6 143.4,351.6 135.4,351.6" fill="rgb(205,0,0)"/><text xml:space="preserve" x="139.4" y="350.433" font-family="Calibri" font-size="7.5" fill="rgb(255,255,255)" text-anchor="middle">5</text>
<polygon points="143.4,343.6 151.4,343.6 151.4,351.6 143.4,351.6" fill="rgb(255,255,0)"/><text xml:space="preserve" x="147.4" y="350.433" font-family="Calibri" font-size="7.5" fill="rgb(0,0,0)" text-anchor="middle">3</text>
<polygon points="151.4,343.6 159.4,343.6 159.4,351.6 151.4,351.6" fill="rgb(205,0,0)"/><text xml:space="preserve" x="155.4" y="350.433" font-family="Calibri" font-size="7.5" fill="rgb(255,255,255)" text-anchor="middle">5</text>
<polygon points="169.4,343.6 177.4,343.6 177.4,351.6 169.4,351.6" fill="rgb(17,96,138)"/>
<polygon points="177.4,343.6 185.4,343.6 185.4,351.6 177.4,351.6" fill="rgb(15,87,138)"/>
<polygon points="185.4,343.6 193.4,343.6 193.4,351.6 185.4,351.6" fill="rgb(17,97,139)"/>
<polygon points="193.4,343.6 201.4,343.6 201.4,351.6 193.4,351.6" fill="rgb(45,203,145)"/>
<polygon points="201.4,343.6 209.4,343.6 209.4,351.6 201.4,351.6" fill="rgb(37,175,143)"/>
<polygon points="209.4,343.6 217.4,343.6 217.4,351.6 209.4,351.6" fill="rgb(20,107,139)"/>
<polygon points="217.4,343.6 225.4,343.6 225.4,351.6 217.4,351.6" fill="rgb(29,143,141)"/>
<polygon points="235.4,343.6 243.4,343.6 243.4,351.6 235.4,351.6" fill="rgb(255,255,255)"/>
<polygon points="243.4,343.6 251.4,343.6 251.4,351.6 243.4,351.6" fill="rgb(255,255,255)"/>
<polygon points="251.4,343.6 259.4,343.6 259.4,351.6 251.4,351.6" fill="rgb(255,255,255)"/>
<polygon points="259.4,343.6 267.4,343.6 267.4,351.6 259.4,351.6" fill="rgb(255,255,255)"/>
<polygon points="267.4,343.6 275.4,343.6 275.4,351.6 267.4,351.6" fill="rgb(255,255,255)"/>
<polygon points="275.4,343.6 283.4,343.6 283.4,351.6 275.4,351.6" fill="rgb(255,255,255)"/>
<polygon points="283.4,343.6 291.4,343.6 291.4,351.6 283.4,351.6" fill="rgb(255,255,255)"/>
<polygon points="291.4,343.6 299.4,343.6 299.4,351.6 291.4,351.6" fill="rgb(255,255,255)"/>
<polygon points="103.4,351.6 111.4,351.6 111.4,359.6 103.4,359.6" fill="rgb(127,230,0)"/><text xml:space="preserve" x="107.4" y="358.433" font-family="Calibri" font-size="7.5" fill="rgb(0,0,0)" text-anchor="middle">2</text>
<polygon points="111.4,351.6 119.4,351.6 119.4,359.6 111.4,359.6" fill="rgb(127,230,0)"/><text xml:space="preserve" x="115.4" y="358.433" font-family="Calibri" font-size="7.5" fill="rgb(0,0,0)" text-anchor="middle">2</text>
<polygon points="119.4,351.6 127.4,351.6 127.4,359.6 119.4,359.6" fill="rgb(255,255,0)"/><text xml:space="preserve" x="123.4" y="358.433" font-family="Calibri" font-size="7.5" fill="rgb(0,0,0)" text-anchor="middle">3</text>
<polygon points="127.4,351.6 135.4,351.6 135.4,359.6 127.4,359.6" fill="rgb(205,0,0)"/><text xml:space="preserve" x="131.4" y="358.433" font-family="Calibri" font-size="7.5" fill="rgb(255,255,255)" text-anchor="middle">5</text>
<polygon points="135.4,351.6 143.4,351.6 143.4,359.6 135.4,359.6" fill="rgb(205,0,0)"/><text xml:space="preserve" x="139.4" y="358.433" font-family="Calibri" font-size="7.5" fill="rgb(255,255,255)" text-anchor="middle">5</text>
<polygon points="143.4,351.6 151.4,351.6 151.4,359.6 143.4,359.6" fill="rgb(255,255,0)"/><text xml:space="preserve" x="147.4" y="358.433" font-family="Calibri" font-size="7.5" fill="rgb(0,0,0)" text-anchor="middle">3</text>
<polygon points="151.4,351.6 159.4,351.6 159.4,359.6 151.4,359.6" fill="rgb(205,0,0)"/><text xml:space="preserve" x="155.4" y="358.433" font-family="Calibri" font-size="7.5" fill="rgb(255,255,255)" text-anchor="middle">5</text>
<polygon points="169.4,351.6 177.4,351.6 177.4,359.6 169.4,359.6" fill="rgb(9,62,137)"/>
<polygon points="177.4,351.6 185.4,351.6 185.4,359.6 177.4,359.6" fill="rgb(6,52,136)"/>
<polygon points="185.4,351.6 193.4,351.6 193.4,359.6 185.4,359.6" fill="rgb(16,92,138)"/>
<polygon points="193.4,351.6 201.4,351.6 201.4,359.6 193.4,359.6" fill="rgb(63,217,135)"/>
<polygon points="201.4,351.6 209.4,351.6 209.4,359.6 201.4,359.6" fill="rgb(230,196,16)"/>
<polygon points="209.4,351.6 217.4,351.6 217.4,359.6 209.4,359.6" fill="rgb(18,101,139)"/>
<polygon points="217.4,351.6 225.4,351.6 225.4,359.6 217.4,359.6" fill="rgb(100,212,109)"/>
<polygon points="235.4,351.6 243.4,351.6 243.4,359.6 235.4,359.6" fill="rgb(205,0,205)"/>
<polygon points="243.4,351.6 251.4,351.6 251.4,359.6 243.4,359.6" fill="rgb(255,255,255)"/>
<polygon points="251.4,351.6 259.4,351.6 259.4,359.6 251.4,359.6" fill="rgb(255,255,255)"/>
<polygon points="259.4,351.6 267.4,351.6 267.4,359.6 259.4,359.6" fill="rgb(255,255,255)"/>
<polygon points="267.4,351.6 275.4,351.6 275.4,359.6 267.4,359.6" fill="rgb(255,255,255)"/>
<polygon points="275.4,351.6 283.4,351.6 283.4,359.6 275.4,359.6" fill="rgb(255,255,255)"/>
<polygon points="283.4,351.6 291.4,351.6 291.4,359.6 283.4,359.6" fill="rgb(255,255,255)"/>
<polygon points="291.4,351.6 299.4,351.6 299.4,359.6 291.4,359.6" fill="rgb(255,255,255)"/>
<polygon points="103.4,359.6 111.4,359.6 111.4,367.6 103.4,367.6" fill="rgb(127,230,0)"/><text xml:space="preserve" x="107.4" y="366.433" font-family="Calibri" font-size="7.5" fill="rgb(0,0,0)" text-anchor="middle">2</text>
<polygon points="111.4,359.6 119.4,359.6 119.4,367.6 111.4,367.6" fill="rgb(127,230,0)"/><text xml:space="preserve" x="115.4" y="366.433" font-family="Calibri" font-size="7.5" fill="rgb(0,0,0)" text-anchor="middle">2</text>
<polygon points="119.4,359.6 127.4,359.6 127.4,367.6 119.4,367.6" fill="rgb(255,255,0)"/><text xml:space="preserve" x="123.4" y="366.433" font-family="Calibri" font-size="7.5" fill="rgb(0,0,0)" text-anchor="middle">3</text>
<polygon points="127.4,359.6 135.4,359.6 135.4,367.6 127.4,367.6" fill="rgb(205,0,0)"/><text xml:space="preserve" x="131.4" y="366.433" font-family="Calibri" font-size="7.5" fill="rgb(255,255,255)" text-anchor="middle">5</text>
<polygon points="135.4,359.6 143.4,359.6 143.4,367.6 135.4,367.6" fill="rgb(205,0,0)"/><text xml:space="preserve" x="139.4" y="366.433" font-family="Calibri" font-size="7.5" fill="rgb(255,255,255)" text-anchor="middle">5</text>
<polygon points="143.4,359.6 151.4,359.6 151.4,367.6 143.4,367.6" fill="rgb(255,255,0)"/><text xml:space="preserve" x="147.4" y="366.433" font-family="Calibri" font-size="7.5" fill="rgb(0,0,0)" text-anchor="middle">3</text>
<polygon points="151.4,359.6 159.4,359.6 159.4,367.6 151.4,367.6" fill="rgb(205,0,0)"/><text xml:space="preserve" x="155.4" y="366.433" font-family="Calibri" font-size="7.5" fill="rgb(255,255,255)" text-anchor="middle">5</text>
<polygon points="169.4,359.6 177.4,359.6 177.4,367.6 169.4,367.6" fill="rgb(12,74,137)"/>
<polygon points="177.4,359.6 185.4,359.6 185.4,367.6 177.4,367.6" fill="rgb(9,64,137)"/>
<polygon points="185.4,359.6 193.4,359.6 193.4,367.6 185.4,367.6" fill="rgb(16,91,138)"/>
<polygon points="193.4,359.6 201.4,359.6 201.4,367.6 193.4,367.6" fill="rgb(32,152,142)"/>
<polygon points="201.4,359.6 209.4,359.6 209.4,367.6 201.4,367.6" fill="rgb(39,181,143)"/>
<polygon points="209.4,359.6 217.4,359.6 217.4,367.6 209.4,367.6" fill="rgb(20,106,139)"/>
<polygon points="217.4,359.6 225.4,359.6 225.4,367.6 217.4,367.6" fill="rgb(44,199,144)"/>
<polygon points="235.4,359.6 243.4,359.6 243.4,367.6 235.4,367.6" fill="rgb(255,255,255)"/>
<polygon points="243.4,359.6 251.4,359.6 251.4,367.6 243.4,367.6" fill="rgb(205,0,205)"/>
<polygon points="251.4,359.6 259.4,359.6 259.4,367.6 251.4,367.6" fill="rgb(255,255,255)"/>
<polygon points="259.4,359.6 267.4,359.6 267.4,367.6 259.4,367.6" fill="rgb(255,255,255)"/>
<polygon points="267.4,359.6 275.4,359.6 275.4,367.6 267.4,367.6" fill="rgb(255,255,255)"/>
<polygon points="275.4,359.6 283.4,359.6 283.4,367.6 275.4,367.6" fill="rgb(205,0,205)"/>
<polygon points="283.4,359.6 291.4,359.6 291.4,367.6 283.4,367.6" fill="rgb(255,255,255)"/>
<polygon points="291.4,359.6 299.4,359.6 299.4,367.6 291.4,367.6" fill="rgb(255,255,255)"/>
<polygon points="103.4,335.6 159.4,335.6 159.4,367.6 103.4,367.6" fill="none" stroke="black" stroke-width="1"/>
<polygon points="169.4,335.6 225.4,335.6 225.4,367.6 169.4,367.6" fill="none" stroke="black" stroke-width="1"/>
<polygon points="235.4,335.6 299.4,335.6 299.4,367.6 235.4,367.6" fill="none" stroke="black" stroke-width="1"/>
<text xml:space="preserve" x="159.7" y="400.6" font-family="Calibri" font-size="8" text-anchor="middle">ClusterAssignment</text>
<polygon points="109.7,407.6 129.7,407.6 129.7,427.6 109.7,427.6" fill="rgb(0,205,0)"/><polygon points="109.7,407.6 129.7,407.6 129.7,427.6 109.7,427.6" fill="none" stroke="black" stroke-width="1"/><text xml:space="preserve" x="119.7" y="420.433" font-family="Calibri" font-size="7.5" fill="rgb(255,255,255)" text-anchor="middle">1.0</text>
<polygon points="129.7,407.6 149.7,407.6 149.7,427.6 129.7,427.6" fill="rgb(127,230,0)"/><polygon points="129.7,407.6 149.7,407.6 149.7,427.6 129.7,427.6" fill="none" stroke="black" stroke-width="1"/><text xml:space="preserve" x="139.7" y="420.433" font-family="Calibri" font-size="7.5" fill="rgb(0,0,0)" text-anchor="middle">2.0</text>
<polygon points="149.7,407.6 169.7,407.6 169.7,427.6 149.7,427.6" fill="rgb(255,255,0)"/><polygon points="149.7,407.6 169.7,407.6 169.7,427.6 149.7,427.6" fill="none" stroke="black" stroke-width="1"/><text xml:space="preserve" x="159.7" y="420.433" font-family="Calibri" font-size="7.5" fill="rgb(0,0,0)" text-anchor="middle">3.0</text>
<polygon points="169.7,407.6 189.7,407.6 189.7,427.6 169.7,427.6" fill="rgb(230,127,0)"/><polygon points="169.7,407.6 189.7,407.6 189.7,427.6 169.7,427.6" fill="none" stroke="black" stroke-width="1"/><text xml:space="preserve" x="179.7" y="420.433" font-family="Calibri" font-size="7.5" fill="rgb(0,0,0)" text-anchor="middle">4.0</text>
<polygon points="189.7,407.6 209.7,407.6 209.7,427.6 189.7,427.6" fill="rgb(205,0,0)"/><polygon points="189.7,407.6 209.7,407.6 209.7,427.6 189.7,427.6" fill="none" stroke="black" stroke-width="1"/><text xml:space="preserve" x="199.7" y="420.433" font-family="Calibri" font-size="7.5" fill="rgb(255,255,255)" text-anchor="middle">5.0</text>
<text xml:space="preserve" x="159.7" y="460.6" font-family="Calibri" font-size="8" text-anchor="middle">Expression</text>
<polygon points="109.7,467.6 129.7,467.6 129.7,487.6 109.7,487.6" fill="rgb(0,27,135)"/><polygon points="109.7,467.6 129.7,467.6 129.7,487.6 109.7,487.6" fill="none" stroke="black" stroke-width="1"/><text xml:space="preserve" x="119.7" y="480.433" font-family="Calibri" font-size="7.5" fill="rgb(255,255,255)" text-anchor="middle">0.0</text>
<polygon points="129.7,467.6 149.7,467.6 149.7,487.6 129.7,487.6" fill="rgb(24,123,140)"/><polygon points="129.7,467.6 149.7,467.6 149.7,487.6 129.7,487.6" fill="none" stroke="black" stroke-width="1"/><text xml:space="preserve" x="139.7" y="480.433" font-family="Calibri" font-size="7.5" fill="rgb(255,255,255)" text-anchor="middle">0.8</text>
<polygon points="149.7,467.6 169.7,467.6 169.7,487.6 149.7,487.6" fill="rgb(49,219,146)"/><polygon points="149.7,467.6 169.7,467.6 169.7,487.6 149.7,487.6" fill="none" stroke="black" stroke-width="1"/><text xml:space="preserve" x="159.7" y="480.433" font-family="Calibri" font-size="7.5" fill="rgb(0,0,0)" text-anchor="middle">1.5</text>
<polygon points="169.7,467.6 189.7,467.6 189.7,487.6 169.7,487.6" fill="rgb(150,206,73)"/><polygon points="169.7,467.6 189.7,467.6 189.7,487.6 169.7,487.6" fill="none" stroke="black" stroke-width="1"/><text xml:space="preserve" x="179.7" y="480.433" font-family="Calibri" font-size="7.5" fill="rgb(0,0,0)" text-anchor="middle">2.2</text>
<polygon points="189.7,467.6 209.7,467.6 209.7,487.6 189.7,487.6" fill="rgb(252,194,1)"/><polygon points="189.7,467.6 209.7,467.6 209.7,487.6 189.7,487.6" fill="none" stroke="black" stroke-width="1"/><text xml:space="preserve" x="199.7" y="480.433" font-family="Calibri" font-size="7.5" fill="rgb(0,0,0)" text-anchor="middle">3.0</text>
<text xml:space="preserve" x="159.7" y="520.6" font-family="Calibri" font-size="8" text-anchor="middle">PANTHERclass</text>
<polygon points="109.7,527.6 129.7,527.6 129.7,547.6 109.7,547.6" fill="rgb(255,255,255)"/><polygon points="109.7,527.6 129.7,527.6 129.7,547.6 109.7,547.6" fill="none" stroke="black" stroke-width="1"/><text xml:space="preserve" x="119.7" y="540.433" font-family="Calibri" font-size="7.5" fill="rgb(0,0,0)" text-anchor="middle">0.0</text>
<polygon points="129.7,527.6 149.7,527.6 149.7,547.6 129.7,547.6" fill="rgb(242,191,242)"/><polygon points="129.7,527.6 149.7,527.6 149.7,547.6 129.7,547.6" fill="none" stroke="black" stroke-width="1"/><text xml:space="preserve" x="139.7" y="540.433" font-family="Calibri" font-size="7.5" fill="rgb(0,0,0)" text-anchor="middle">0.2</text>
<polygon points="149.7,527.6 169.7,527.6 169.7,547.6 149.7,547.6" fill="rgb(230,127,230)"/><polygon points="149.7,527.6 169.7,527.6 169.7,547.6 149.7,547.6" fill="none" stroke="black" stroke-width="1"/><text xml:space="preserve" x="159.7" y="540.433" font-family="Calibri" font-size="7.5" fill="rgb(0,0,0)" text-anchor="middle">0.5</text>
<polygon points="169.7,527.6 189.7,527.6 189.7,547.6 169.7,547.6" fill="rgb(217,63,217)"/><polygon points="169.7,527.6 189.7,527.6 189.7,547.6 169.7,547.6" fill="none" stroke="black" stroke-width="1"/><text xml:space="preserve" x="179.7" y="540.433" font-family="Calibri" font-size="7.5" fill="rgb(255,255,255)" text-anchor="middle">0.8</text>
<polygon points="189.7,527.6 209.7,527.6 209.7,547.6 189.7,547.6" fill="rgb(205,0,205)"/><polygon points="189.7,527.6 209.7,527.6 209.7,547.6 189.7,547.6" fill="none" stroke="black" stroke-width="1"/><text xml:space="preserve" x="199.7" y="540.433" font-family="Calibri" font-size="7.5" fill="rgb(255,255,255)" text-anchor="middle">1.0</text>
</svg>
