<?xml version="1.0" standalone="no"?><!DOCTYPE svg PUBLIC "-//W3C//DTD SVG 1.1//EN" "http://www.w3.org/Graphics/SVG/1.1/DTD/svg11.dtd">
<svg width="327.2" height="559.6" version="1.1" xmlns="http://www.w3.org/2000/svg">
<text xml:space="preserve" x="107.2" y="342.6" font-family="Calibri" font-size="8" text-anchor="end">AURKAIP1</text>
<text xml:space="preserve" x="107.2" y="350.6" font-family="Calibri" font-size="8" text-anchor="end">ROBO2</text>
<text xml:space="preserve" x="107.2" y="358.6" font-family="Calibri" font-size="8" text-anchor="end">GRM8</text>
<text xml:space="preserve" x="118.2" y="331.6" font-family="Calibri" font-size="8" transform="rotate(270 118.2 331.6)">c3</text>
<text xml:space="preserve" x="126.2" y="331.6" font-family="Calibri" font-size="8" transform="rotate(270 126.2 331.6)">c1</text>
<text xml:space="preserve" x="134.2" y="331.6" font-family="Calibri" font-size="8" transform="rotate(270 134.2 331.6)">c4</text>
<text xml:space="preserve" x="142.2" y="331.6" font-family="Calibri" font-size="8" transform="rotate(270 142.2 331.6)">c5</text>
<text xml:space="preserve" x="150.2" y="331.6" font-family="Calibri" font-size="8" transform="rotate(270 150.2 331.6)">c2</text>
<text xml:space="preserve" x="158.2" y="331.6" font-family="Calibri" font-size="8" transform="rotate(270 158.2 331.6)">c6</text>
<text xml:space="preserve" x="166.2" y="331.6" font-family="Calibri" font-size="8" transform="rotate(270 166.2 331.6)">c7</text>
<text xml:space="preserve" x="184.2" y="331.6" font-family="Calibri" font-size="8" transform="rotate(270 184.2 331.6)">c3_mean</text>
<text xml:space="preserve" x="192.2" y="331.6" font-family="Calibri" font-size="8" transform="rotate(270 192.2 331.6)">c1_mean</text>
<text xml:space="preserve" x="200.2" y="331.6" font-family="Calibri" font-size="8" transform="rotate(270 200.2 331.6)">c4_mean</text>
<text xml:space="preserve" x="208.2" y="331.6" font-family="Calibri" font-size="8" transform="rotate(270 208.2 331.6)">c5_mean</text>
<text xml:space="preserve" x="216.2" y="331.6" font-family="Calibri" font-size="8" transform="rotate(270 216.2 331.6)">c2_mean</text>
<text xml:space="preserve" x="224.2" y="331.6" font-family="Calibri" font-size="8" transform="rotate(270 224.2 331.6)">c6_mean</text>
<text xml:space="preserve" x="232.2" y="331.6" font-family="Calibri" font-size="8" transform="rotate(270 232.2 331.6)">c7_mean</text>
<text xml:space="preserve" x="250.2" y="331.6" font-family="Calibri" font-size="8" transform="rotate(270 250.2 331.6)">transcription_factor</text>
<text xml:space="preserve" x="258.2" y="331.6" font-family="Calibri" font-size="8" transform="rotate(270 258.2 331.6)">transmembrane_signal_receptor</text>
<text xml:space="preserve" x="266.2" y="331.6" font-family="Calibri" font-size="8" transform="rotate(270 266.2 331.6)">growth_factor</text>
<text xml:space="preserve" x="274.2" y="331.6" font-family="Calibri" font-size="8" transform="rotate(270 274.2 331.6)">peptide_hormone</text>
<text xml:space="preserve" x="282.2" y="331.6" font-family="Calibri" font-size="8" transform="rotate(270 282.2 331.6)">cytoskeletal_protein</text>
<text xml:space="preserve" x="290.2" y="331.6" font-family="Calibri" font-size="8" transform="rotate(270 290.2 331.6)">ion_channel</text>
<text xml:space="preserve" x="298.2" y="331.6" font-family="Calibri" font-size="8" transform="rotate(270 298.2 331.6)">integrin</text>
<text xml:space="preserve" x="306.2" y="331.6" font-family="Calibri" font-size="8" transform="rotate(270 306.2 331.6)">extracellular_matrix_protein</text>
<polygon points="111.2,335.6 119.2,335.6 119.2,343.6 111.2,343.6" fill="rgb(127,230,0)"/><text xml:space="preserve" x="115.2" y="342.433" font-family="Calibri" font-size="7.5" fill="rgb(0,0,0)" text-anchor="middle">2</text>
<polygon points="119.2,335.6 127.2,335.6 127.2,343.6 119.2,343.6" fill="rgb(127,230,0)"/><text xml:space="preserve" x="123.2" y="342.433" font-family="Calibri" font-size="7.5" fill="rgb(0,0,0)" text-anchor="middle">2</text>
<polygon points="127.2,335.6 135.2,335.6 135.2,343.6 127.2,343.6" fill="rgb(205,0,0)"/><text xml:space="preserve" x="131.2" y="342.433" font-family="Calibri" font-size="7.5" fill="rgb(255,255,255)" text-anchor="middle">5</text>
<polygon points="135.2,335.6 143.2,335.6 143.2,343.6 135.2,343.6" fill="rgb(127,230,0)"/><text xml:space="preserve" x="139.2" y="342.433" font-family="Calibri" font-size="7.5" fill="rgb(0,0,0)" text-anchor="middle">2</text>
<polygon points="143.2,335.6 151.2,335.6 151.2,343.6 143.2,343.6" fill="rgb(127,230,0)"/><text xml:space="preserve" x="147.2" y="342.433" font-family="Calibri" font-size="7.5" fill="rgb(0,0,0)" text-anchor="middle">2</text>
<polygon points="151.2,335.6 159.2,335.6 159.2,343.6 151.2,343.6" fill="rgb(127,230,0)"/><text xml:space="preserve" x="155.2" y="342.433" font-family="Calibri" font-size="7.5" fill="rgb(0,0,0)" text-anchor="middle">2</text>
<polygon points="159.2,335.6 167.2,335.6 167.2,343.6 159.2,343.6" fill="rgb(127,230,0)"/><text xml:space="preserve" x="163.2" y="342.433" font-family="Calibri" font-size="7.5" fill="rgb(0,0,0)" text-anchor="middle">2</text>
<polygon points="177.2,335.6 185.2,335.6 185.2,343.6 177.2,343.6" fill="rgb(7,57,136)"/>
<polygon points="185.2,335.6 193.2,335.6 193.2,343.6 185.2,343.6" fill="rgb(8,60,136)"/>
<polygon points="193.2,335.6 201.2,335.6 201.2,343.6 193.2,343.6" fill="rgb(31,151,142)"/>
<polygon points="201.2,335.6 209.2,335.6 209.2,343.6 201.2,343.6" fill="rgb(15,87,138)"/>
<polygon points="209.2,335.6 217.2,335.6 217.2,343.6 209.2,343.6" fill="rgb(8,59,136)"/>
<polygon points="217.2,335.6 225.2,335.6 225.2,343.6 217.2,343.6" fill="rgb(8,59,136)"/>
<polygon points="225.2,335.6 233.2,335.6 233.2,343.6 225.2,343.6" fill="rgb(8,61,136)"/>
<polygon points="243.2,335.6 251.2,335.6 251.2,343.6 243.2,343.6" fill="rgb(255,255,255)"/>
<polygon points="251.2,335.6 259.2,335.6 259.2,343.6 251.2,343.6" fill="rgb(255,255,255)"/>
<polygon points="259.2,335.6 267.2,335.6 267.2,343.6 259.2,343.6" fill="rgb(255,255,255)"/>
<polygon points="267.2,335.6 275.2,335.6 275.2,343.6 267.2,343.6" fill="rgb(255,255,255)"/>
<polygon points="275.2,335.6 283.2,335.6 283.2,343.6 275.2,343.6" fill="rgb(255,255,255)"/>
<polygon points="283.2,335.6 291.2,335.6 291.2,343.6 283.2,343.6" fill="rgb(255,255,255)"/>
<polygon points="291.2,335.6 299.2,335.6 299.2,343.6 291.2,343.6" fill="rgb(255,255,255)"/>
<polygon points="299.2,335.6 307.2,335.6 307.2,343.6 299.2,343.6" fill="rgb(255,255,255)"/>
<polygon points="111.2,343.6 119.2,343.6 119.2,351.6 111.2,351.6" fill="rgb(127,230,0)"/><text xml:space="preserve" x="115.2" y="350.433" font-family="Calibri" font-size="7.5" fill="rgb(0,0,0)" text-anchor="middle">2</text>
<polygon points="119.2,343.6 127.2,343.6 127.2,351.6 119.2,351.6" fill="rgb(127,230,0)"/><text xml:space="preserve" x="123.2" y="350.433" font-family="Calibri" font-size="7.5" fill="rgb(0,0,0)" text-anchor="middle">2</text>
<polygon points="127.2,343.6 135.2,343.6 135.2,351.6 127.2,351.6" fill="rgb(205,0,0)"/><text xml:space="preserve" x="131.2" y="350.433" font-family="Calibri" font-size="7.5" fill="rgb(255,255,255)" text-anchor="middle">5</text>
<polygon points="135.2,343.6 143.2,343.6 143.2,351.6 135.2,351.6" fill="rgb(127,230,0)"/><text xml:space="preserve" x="139.2" y="350.433" font-family="Calibri" font-size="7.5" fill="rgb(0,0,0)" text-anchor="middle">2</text>
<polygon points="143.2,343.6 151.2,343.6 151.2,351.6 143.2,351.6" fill="rgb(127,230,0)"/><text xml:space="preserve" x="147.2" y="350.433" font-family="Calibri" font-size="7.5" fill="rgb(0,0,0)" text-anchor="middle">2</text>
<polygon points="151.2,343.6 159.2,343.6 159.2,351.6 151.2,351.6" fill="rgb(127,230,0)"/><text xml:space="preserve" x="155.2" y="350.433" font-family="Calibri" font-size="7.5" fill="rgb(0,0,0)" text-anchor="middle">2</text>
<polygon points="159.2,343.6 167.2,343.6 167.2,351.6 159.2,351.6" fill="rgb(127,230,0)"/><text xml:space="preserve" x="163.2" y="350.433" font-family="Calibri" font-size="7.5" fill="rgb(0,0,0)" text-anchor="middle">2</text>
<polygon points="177.2,343.6 185.2,343.6 185.2,351.6 177.2,351.6" fill="rgb(17,94,138)"/>
<polygon points="185.2,343.6 193.2,343.6 193.2,351.6 185.2,351.6" fill="rgb(16,93,138)"/>
<polygon points="193.2,343.6 201.2,343.6 201.2,351.6 193.2,351.6" fill="rgb(37,174,143)"/>
<polygon points="201.2,343.6 209.2,343.6 209.2,351.6 201.2,351.6" fill="rgb(13,78,137)"/>
<polygon points="209.2,343.6 217.2,343.6 217.2,351.6 209.2,351.6" fill="rgb(1,34,135)"/>
<polygon points="217.2,343.6 225.2,343.6 225.2,351.6 217.2,351.6" fill="rgb(10,69,137)"/>
<polygon points="225.2,343.6 233.2,343.6 233.2,351.6 225.2,351.6" fill="rgb(7,56,136)"/>
<polygon points="243.2,343.6 251.2,343.6 251.2,351.6 243.2,351.6" fill="rgb(255,255,255)"/>
<polygon points="251.2,343.6 259.2,343.6 259.2,351.6 251.2,351.6" fill="rgb(255,255,255)"/>
<polygon points="259.2,343.6 267.2,343.6 267.2,351.6 259.2,351.6" fill="rgb(255,255,255)"/>
<polygon points="267.2,343.6 275.2,343.6 275.2,351.6 267.2,351.6" fill="rgb(255,255,255)"/>
<polygon points="275.2,343.6 283.2,343.6 283.2,351.6 275.2,351.6" fill="rgb(255,255,255)"/>
<polygon points="283.2,343.6 291.2,343.6 291.2,351.6 283.2,351.6" fill="rgb(255,255,255)"/>
<polygon points="291.2,343.6 299.2,343.6 299.2,351.6 291.2,351.6" fill="rgb(255,255,255)"/>
<polygon points="299.2,343.6 307.2,343.6 307.2,351.6 299.2,351.6" fill="rgb(255,255,255)"/>
<polygon points="111.2,351.6 119.2,351.6 119.2,359.6 111.2,359.6" fill="rgb(127,230,0)"/><text xml:space="preserve" x="115.2" y="358.433" font-family="Calibri" font-size="7.5" fill="rgb(0,0,0)" text-anchor="middle">2</text>
<polygon points="119.2,351.6 127.2,351.6 127.2,359.6 119.2,359.6" fill="rgb(127,230,0)"/><text xml:space="preserve" x="123.2" y="358.433" font-family="Calibri" font-size="7.5" fill="rgb(0,0,0)" text-anchor="middle">2</text>
<polygon points="127.2,351.6 135.2,351.6 135.2,359.6 127.2,359.6" fill="rgb(205,0,0)"/><text xml:space="preserve" x="131.2" y="358.433" font-family="Calibri" font-size="7.5" fill="rgb(255,255,255)" text-anchor="middle">5</text>
<polygon points="135.2,351.6 143.2,351.6 143.2,359.6 135.2,359.6" fill="rgb(127,230,0)"/><text xml:space="preserve" x="139.2" y="358.433" font-family="Calibri" font-size="7.5" fill="rgb(0,0,0)" text-anchor="middle">2</text>
<polygon points="143.2,351.6 151.2,351.6 151.2,359.6 143.2,359.6" fill="rgb(127,230,0)"/><text xml:space="preserve" x="147.2" y="358.433" font-family="Calibri" font-size="7.5" fill="rgb(0,0,0)" text-anchor="middle">2</text>
<polygon points="151.2,351.6 159.2,351.6 159.2,359.6 151.2,359.6" fill="rgb(127,230,0)"/><text xml:space="preserve" x="155.2" y="358.433" font-family="Calibri" font-size="7.5" fill="rgb(0,0,0)" text-anchor="middle">2</text>
<polygon points="159.2,351.6 167.2,351.6 167.2,359.6 159.2,359.6" fill="rgb(127,230,0)"/><text xml:space="preserve" x="163.2" y="358.433" font-family="Calibri" font-size="7.5" fill="rgb(0,0,0)" text-anchor="middle">2</text>
<polygon points="177.2,351.6 185.2,351.6 185.2,359.6 177.2,359.6" fill="rgb(6,52,136)"/>
<polygon points="185.2,351.6 193.2,351.6 193.2,359.6 185.2,359.6" fill="rgb(8,59,136)"/>
<polygon points="193.2,351.6 201.2,351.6 201.2,359.6 193.2,359.6" fill="rgb(31,151,142)"/>
<polygon points="201.2,351.6 209.2,351.6 209.2,359.6 201.2,359.6" fill="rgb(9,64,137)"/>
<polygon points="209.2,351.6 217.2,351.6 217.2,359.6 209.2,359.6" fill="rgb(2,37,135)"/>
<polygon points="217.2,351.6 225.2,351.6 225.2,359.6 217.2,359.6" fill="rgb(9,62,137)"/>
<polygon points="225.2,351.6 233.2,351.6 233.2,359.6 225.2,359.6" fill="rgb(18,98,139)"/>
<polygon points="243.2,351.6 251.2,351.6 251.2,359.6 243.2,359.6" fill="rgb(255,255,255)"/>
<polygon points="251.2,351.6 259.2,351.6 259.2,359.6 251.2,359.6" fill="rgb(255,255,255)"/>
<polygon points="259.2,351.6 267.2,351.6 267.2,359.6 259.2,359.6" fill="rgb(255,255,255)"/>
<polygon points="267.2,351.6 275.2,351.6 275.2,359.6 267.2,359.6" fill="rgb(255,255,255)"/>
<polygon points="275.2,351.6 283.2,351.6 283.2,359.6 275.2,359.6" fill="rgb(255,255,255)"/>
<polygon points="283.2,351.6 291.2,351.6 291.2,359.6 283.2,359.6" fill="rgb(255,255,255)"/>
<polygon points="291.2,351.6 299.2,351.6 299.2,359.6 291.2,359.6" fill="rgb(255,255,255)"/>
<polygon points="299.2,351.6 307.2,351.6 307.2,359.6 299.2,359.6" fill="rgb(255,255,255)"/>
<polygon points="111.2,335.6 167.2,335.6 167.2,359.6 111.2,359.6" fill="none" stroke="black" stroke-width="1"/>
<polygon points="177.2,335.6 233.2,335.6 233.2,359.6 177.2,359.6" fill="none" stroke="black" stroke-width="1"/>
<polygon points="243.2,335.6 307.2,335.6 307.2,359.6 243.2,359.6" fill="none" stroke="black" stroke-width="1"/>
<text xml:space="preserve" x="163.6" y="392.6" font-family="Calibri" font-size="8" text-anchor="middle">ClusterAssignment</text>
<polygon points="113.6,399.6 133.6,399.6 133.6,419.6 113.6,419.6" fill="rgb(0,205,0)"/><polygon points="113.6,399.6 133.6,399.6 133.6,419.6 113.6,419.6" fill="none" stroke="black" stroke-width="1"/><text xml:space="preserve" x="123.6" y="412.433" font-family="Calibri" font-size="7.5" fill="rgb(255,255,255)" text-anchor="middle">1.0</text>
<polygon points="133.6,399.6 153.6,399.6 153.6,419.6 133.6,419.6" fill="rgb(127,230,0)"/><polygon points="133.6,399.6 153.6,399.6 153.6,419.6 133.6,419.6" fill="none" stroke="black" stroke-width="1"/><text xml:space="preserve" x="143.6" y="412.433" font-family="Calibri" font-size="7.5" fill="rgb(0,0,0)" text-anchor="middle">2.0</text>
<polygon points="153.6,399.6 173.6,399.6 173.6,419.6 153.6,419.6" fill="rgb(255,255,0)"/><polygon points="153.6,399.6 173.6,399.6 173.6,419.6 153.6,419.6" fill="none" stroke="black" stroke-width="1"/><text xml:space="preserve" x="163.6" y="412.433" font-family="Calibri" font-size="7.5" fill="rgb(0,0,0)" text-anchor="middle">3.0</text>
<polygon points="173.6,399.6 193.6,399.6 193.6,419.6 173.6,419.6" fill="rgb(230,127,0)"/><polygon points="173.6,399.6 193.6,399.6 193.6,419.6 173.6,419.6" fill="none" stroke="black" stroke-width="1"/><text xml:space="preserve" x="183.6" y="412.433" font-family="Calibri" font-size="7.5" fill="rgb(0,0,0)" text-anchor="middle">4.0</text>
<polygon points="193.6,399.6 213.6,399.6 213.6,419.6 193.6,419.6" fill="rgb(205,0,0)"/><polygon points="193.6,399.6 213.6,399.6 213.6,419.6 193.6,419.6" fill="none" stroke="black" stroke-width="1"/><text xml:space="preserve" x="203.6" y="412.433" font-family="Calibri" font-size="7.5" fill="rgb(255,255,255)" text-anchor="middle">5.0</text>
<text xml:space="preserve" x="163.6" y="452.6" font-family="Calibri" font-size="8" text-anchor="middle">Expression</text>
<polygon points="113.6,459.6 133.6,459.6 133.6,479.6 113.6,479.6" fill="rgb(0,27,135)"/><polygon points="113.6,459.6 133.6,459.6 133.6,479.6 113.6,479.6" fill="none" stroke="black" stroke-width="1"/><text xml:space="preserve" x="123.6" y="472.433" font-family="Calibri" font-size="7.5" fill="rgb(255,255,255)" text-anchor="middle">0.0</text>
<polygon points="133.6,459.6 153.6,459.6 153.6,479.6 133.6,479.6" fill="rgb(24,123,140)"/><polygon points="133.6,459.6 153.6,459.6 153.6,479.6 133.6,479.6" fill="none" stroke="black" stroke-width="1"/><text xml:space="preserve" x="143.6" y="472.433" font-family="Calibri" font-size="7.5" fill="rgb(255,255,255)" text-anchor="middle">0.8</text>
<polygon points="153.6,459.6 173.6,459.6 173.6,479.6 153.6,479.6" fill="rgb(49,219,146)"/><polygon points="153.6,459.6 173.6,459.6 173.6,479.6 153.6,479.6" fill="none" stroke="black" stroke-width="1"/><text xml:space="preserve" x="163.6" y="472.433" font-family="Calibri" font-size="7.5" fill="rgb(0,0,0)" text-anchor="middle">1.5</text>
<polygon points="173.6,459.6 193.6,459.6 193.6,479.6 173.6,479.6" fill="rgb(150,206,73)"/><polygon points="173.6,459.6 193.6,459.6 193.6,479.6 173.6,479.6" fill="none" stroke="black" stroke-width="1"/><text xml:space="preserve" x="183.6" y="472.433" font-family="Calibri" font-size="7.5" fill="rgb(0,0,0)" text-anchor="middle">2.2</text>
<polygon points="193.6,459.6 213.6,459.6 213.6,479.6 193.6,479.6" fill="rgb(252,194,1)"/><polygon points="193.6,459.6 213.6,459.6 213.6,479.6 193.6,479.6" fill="none" stroke="black" stroke-width="1"/><text xml:space="preserve" x="203.6" y="472.433" font-family="Calibri" font-size="7.5" fill="rgb(0,0,0)" text-anchor="middle">3.0</text>
<text xml:space="preserve" x="163.6" y="512.6" font-family="Calibri" font-size="8" text-anchor="middle">PANTHERclass</text>
<polygon points="113.6,519.6 133.6,519.6 133.6,539.6 113.6,539.6" fill="rgb(255,255,255)"/><polygon points="113.6,519.6 133.6,519.6 133.6,539.6 113.6,539.6" fill="none" stroke="black" stroke-width="1"/><text xml:space="preserve" x="123.6" y="532.433" font-family="Calibri" font-size="7.5" fill="rgb(0,0,0)" text-anchor="middle">0.0</text>
<polygon points="133.6,519.6 153.6,519.6 153.6,539.6 133.6,539.6" fill="rgb(242,191,242)"/><polygon points="133.6,519.6 153.6,519.6 153.6,539.6 133.6,539.6" fill="none" stroke="black" stroke-width="1"/><text xml:space="preserve" x="143.6" y="532.433" font-family="Calibri" font-size="7.5" fill="rgb(0,0,0)" text-anchor="middle">0.2</text>
<polygon points="153.6,519.6 173.6,519.6 173.6,539.6 153.6,539.6" fill="rgb(230,127,230)"/><polygon points="153.6,519.6 173.6,519.6 173.6,539.6 153.6,539.6" fill="none" stroke="black" stroke-width="1"/><text xml:space="preserve" x="163.6" y="532.433" font-family="Calibri" font-size="7.5" fill="rgb(0,0,0)" text-anchor="middle">0.5</text>
<polygon points="173.6,519.6 193.6,519.6 193.6,539.6 173.6,539.6" fill="rgb(217,63,217)"/><polygon points="173.6,519.6 193.6,519.6 193.6,539.6 173.6,539.6" fill="none" stroke="black" stroke-width="1"/><text xml:space="preserve" x="183.6" y="532.433" font-family="Calibri" font-size="7.5" fill="rgb(255,255,255)" text-anchor="middle">0.8</text>
<polygon points="193.6,519.6 213.6,519.6 213.6,539.6 193.6,539.6" fill="rgb(205,0,205)"/><polygon points="193.6,519.6 213.6,519.6 213.6,539.6 193.6,539.6" fill="none" stroke="black" stroke-width="1"/><text xml:space="preserve" x="203.6" y="532.433" font-family="Calibri" font-size="7.5" fill="rgb(255,255,255)" text-anchor="middle">1.0</text>
</svg>
