<?xml version="1.0" standalone="no"?><!DOCTYPE svg PUBLIC "-//W3C//DTD SVG 1.1//EN" "http://www.w3.org/Graphics/SVG/1.1/DTD/svg11.dtd">
<svg width="298.4" height="559.6" version="1.1" xmlns="http://www.w3.org/2000/svg">
<text xml:space="preserve" x="78.4" y="342.6" font-family="Calibri" font-size="8" text-anchor="end">CALCR</text>
<text xml:space="preserve" x="78.4" y="350.6" font-family="Calibri" font-size="8" text-anchor="end">TCP10</text>
<text xml:space="preserve" x="78.4" y="358.6" font-family="Calibri" font-size="8" text-anchor="end">IGFBP7</text>
<text xml:space="preserve" x="89.4" y="331.6" font-family="Calibri" font-size="8" transform="rotate(270 89.4 331.6)">c3</text>
<text xml:space="preserve" x="97.4" y="331.6" font-family="Calibri" font-size="8" transform="rotate(270 97.4 331.6)">c1</text>
<text xml:space="preserve" x="105.4" y="331.6" font-family="Calibri" font-size="8" transform="rotate(270 105.4 331.6)">c4</text>
<text xml:space="preserve" x="113.4" y="331.6" font-family="Calibri" font-size="8" transform="rotate(270 113.4 331.6)">c5</text>
<text xml:space="preserve" x="121.4" y="331.6" font-family="Calibri" font-size="8" transform="rotate(270 121.4 331.6)">c2</text>
<text xml:space="preserve" x="129.4" y="331.6" font-family="Calibri" font-size="8" transform="rotate(270 129.4 331.6)">c6</text>
<text xml:space="preserve" x="137.4" y="331.6" font-family="Calibri" font-size="8" transform="rotate(270 137.4 331.6)">c7</text>
<text xml:space="preserve" x="155.4" y="331.6" font-family="Calibri" font-size="8" transform="rotate(270 155.4 331.6)">c3_mean</text>
<text xml:space="preserve" x="163.4" y="331.6" font-family="Calibri" font-size="8" transform="rotate(270 163.4 331.6)">c1_mean</text>
<text xml:space="preserve" x="171.4" y="331.6" font-family="Calibri" font-size="8" transform="rotate(270 171.4 331.6)">c4_mean</text>
<text xml:space="preserve" x="179.4" y="331.6" font-family="Calibri" font-size="8" transform="rotate(270 179.4 331.6)">c5_mean</text>
<text xml:space="preserve" x="187.4" y="331.6" font-family="Calibri" font-size="8" transform="rotate(270 187.4 331.6)">c2_mean</text>
<text xml:space="preserve" x="195.4" y="331.6" font-family="Calibri" font-size="8" transform="rotate(270 195.4 331.6)">c6_mean</text>
<text xml:space="preserve" x="203.4" y="331.6" font-family="Calibri" font-size="8" transform="rotate(270 203.4 331.6)">c7_mean</text>
<text xml:space="preserve" x="221.4" y="331.6" font-family="Calibri" font-size="8" transform="rotate(270 221.4 331.6)">transcription_factor</text>
<text xml:space="preserve" x="229.4" y="331.6" font-family="Calibri" font-size="8" transform="rotate(270 229.4 331.6)">transmembrane_signal_receptor</text>
<text xml:space="preserve" x="237.4" y="331.6" font-family="Calibri" font-size="8" transform="rotate(270 237.4 331.6)">growth_factor</text>
<text xml:space="preserve" x="245.4" y="331.6" font-family="Calibri" font-size="8" transform="rotate(270 245.4 331.6)">peptide_hormone</text>
<text xml:space="preserve" x="253.4" y="331.6" font-family="Calibri" font-size="8" transform="rotate(270 253.4 331.6)">cytoskeletal_protein</text>
<text xml:space="preserve" x="261.4" y="331.6" font-family="Calibri" font-size="8" transform="rotate(270 261.4 331.6)">ion_channel</text>
<text xml:space="preserve" x="269.4" y="331.6" font-family="Calibri" font-size="8" transform="rotate(270 269.4 331.6)">integrin</text>
<text xml:space="preserve" x="277.4" y="331.6" font-family="Calibri" font-size="8" transform="rotate(270 277.4 331.6)">extracellular_matrix_protein</text>
<polygon points="82.4,335.6 90.4,335.6 90.4,343.6 82.4,343.6" fill="rgb(0,205,0)"/><text xml:space="preserve" x="86.4" y="342.433" font-family="Calibri" font-size="7.5" fill="rgb(255,255,255)" text-anchor="middle">1</text>
<polygon points="90.4,335.6 98.4,335.6 98.4,343.6 90.4,343.6" fill="rgb(0,205,0)"/><text xml:space="preserve" x="94.4" y="342.433" font-family="Calibri" font-size="7.5" fill="rgb(255,255,255)" text-anchor="middle">1</text>
<polygon points="98.4,335.6 106.4,335.6 106.4,343.6 98.4,343.6" fill="rgb(0,205,0)"/><text xml:space="preserve" x="102.4" y="342.433" font-family="Calibri" font-size="7.5" fill="rgb(255,255,255)" text-anchor="middle">1</text>
<polygon points="106.4,335.6 114.4,335.6 114.4,343.6 106.4,343.6" fill="rgb(0,205,0)"/><text xml:space="preserve" x="110.4" y="342.433" font-family="Calibri" font-size="7.5" fill="rgb(255,255,255)" text-anchor="middle">1</text>
<polygon points="114.4,335.6 122.4,335.6 122.4,343.6 114.4,343.6" fill="rgb(230,127,0)"/><text xml:space="preserve" x="118.4" y="342.433" font-family="Calibri" font-size="7.5" fill="rgb(0,0,0)" text-anchor="middle">4</text>
<polygon points="122.4,335.6 130.4,335.6 130.4,343.6 122.4,343.6" fill="rgb(0,205,0)"/><text xml:space="preserve" x="126.4" y="342.433" font-family="Calibri" font-size="7.5" fill="rgb(255,255,255)" text-anchor="middle">1</text>
<polygon points="130.4,335.6 138.4,335.6 138.4,343.6 130.4,343.6" fill="rgb(0,205,0)"/><text xml:space="preserve" x="134.4" y="342.433" font-family="Calibri" font-size="7.5" fill="rgb(255,255,255)" text-anchor="middle">1</text>
<polygon points="148.4,335.6 156.4,335.6 156.4,343.6 148.4,343.6" fill="rgb(0,27,135)"/>
<polygon points="156.4,335.6 164.4,335.6 164.4,343.6 156.4,343.6" fill="rgb(0,27,135)"/>
<polygon points="164.4,335.6 172.4,335.6 172.4,343.6 164.4,343.6" fill="rgb(0,27,135)"/>
<polygon points="172.4,335.6 180.4,335.6 180.4,343.6 172.4,343.6" fill="rgb(4,44,136)"/>
<polygon points="180.4,335.6 188.4,335.6 188.4,343.6 180.4,343.6" fill="rgb(23,117,140)"/>
<polygon points="188.4,335.6 196.4,335.6 196.4,343.6 188.4,343.6" fill="rgb(4,44,136)"/>
<polygon points="196.4,335.6 204.4,335.6 204.4,343.6 196.4,343.6" fill="rgb(12,75,137)"/>
<polygon points="214.4,335.6 222.4,335.6 222.4,343.6 214.4,343.6" fill="rgb(255,255,255)"/>
<polygon points="222.4,335.6 230.4,335.6 230.4,343.6 222.4,343.6" fill="rgb(205,0,205)"/>
<polygon points="230.4,335.6 238.4,335.6 238.4,343.6 230.4,343.6" fill="rgb(255,255,255)"/>
<polygon points="238.4,335.6 246.4,335.6 246.4,343.6 238.4,343.6" fill="rgb(255,255,255)"/>
<polygon points="246.4,335.6 254.4,335.6 254.4,343.6 246.4,343.6" fill="rgb(255,255,255)"/>
<polygon points="254.4,335.6 262.4,335.6 262.4,343.6 254.4,343.6" fill="rgb(255,255,255)"/>
<polygon points="262.4,335.6 270.4,335.6 270.4,343.6 262.4,343.6" fill="rgb(255,255,255)"/>
<polygon points="270.4,335.6 278.4,335.6 278.4,343.6 270.4,343.6" fill="rgb(255,255,255)"/>
<polygon points="82.4,343.6 90.4,343.6 90.4,351.6 82.4,351.6" fill="rgb(0,205,0)"/><text xml:space="preserve" x="86.4" y="350.433" font-family="Calibri" font-size="7.5" fill="rgb(255,255,255)" text-anchor="middle">1</text>
<polygon points="90.4,343.6 98.4,343.6 98.4,351.6 90.4,351.6" fill="rgb(0,205,0)"/><text xml:space="preserve" x="94.4" y="350.433" font-family="Calibri" font-size="7.5" fill="rgb(255,255,255)" text-anchor="middle">1</text>
<polygon points="98.4,343.6 106.4,343.6 106.4,351.6 98.4,351.6" fill="rgb(0,205,0)"/><text xml:space="preserve" x="102.4" y="350.433" font-family="Calibri" font-size="7.5" fill="rgb(255,255,255)" text-anchor="middle">1</text>
<polygon points="106.4,343.6 114.4,343.6 114.4,351.6 106.4,351.6" fill="rgb(0,205,0)"/><text xml:space="preserve" x="110.4" y="350.433" font-family="Calibri" font-size="7.5" fill="rgb(255,255,255)" text-anchor="middle">1</text>
<polygon points="114.4,343.6 122.4,343.6 122.4,351.6 114.4,351.6" fill="rgb(230,127,0)"/><text xml:space="preserve" x="118.4" y="350.433" font-family="Calibri" font-size="7.5" fill="rgb(0,0,0)" text-anchor="middle">4</text>
<polygon points="122.4,343.6 130.4,343.6 130.4,351.6 122.4,351.6" fill="rgb(0,205,0)"/><text xml:space="preserve" x="126.4" y="350.433" font-family="Calibri" font-size="7.5" fill="rgb(255,255,255)" text-anchor="middle">1</text>
<polygon points="130.4,343.6 138.4,343.6 138.4,351.6 130.4,351.6" fill="rgb(0,205,0)"/><text xml:space="preserve" x="134.4" y="350.433" font-family="Calibri" font-size="7.5" fill="rgb(255,255,255)" text-anchor="middle">1</text>
<polygon points="148.4,343.6 156.4,343.6 156.4,351.6 148.4,351.6" fill="rgb(0,27,135)"/>
<polygon points="156.4,343.6 164.4,343.6 164.4,351.6 156.4,351.6" fill="rgb(0,27,135)"/>
<polygon points="164.4,343.6 172.4,343.6 172.4,351.6 164.4,351.6" fill="rgb(0,27,135)"/>
<polygon points="172.4,343.6 180.4,343.6 180.4,351.6 172.4,351.6" fill="rgb(0,27,135)"/>
<polygon points="180.4,343.6 188.4,343.6 188.4,351.6 180.4,351.6" fill="rgb(22,115,140)"/>
<polygon points="188.4,343.6 196.4,343.6 196.4,351.6 188.4,351.6" fill="rgb(6,53,136)"/>
<polygon points="196.4,343.6 204.4,343.6 204.4,351.6 196.4,351.6" fill="rgb(0,27,135)"/>
<polygon points="214.4,343.6 222.4,343.6 222.4,351.6 214.4,351.6" fill="rgb(255,255,255)"/>
<polygon points="222.4,343.6 230.4,343.6 230.4,351.6 222.4,351.6" fill="rgb(255,255,255)"/>
<polygon points="230.4,343.6 238.4,343.6 238.4,351.6 230.4,351.6" fill="rgb(255,255,255)"/>
<polygon points="238.4,343.6 246.4,343.6 246.4,351.6 238.4,351.6" fill="rgb(255,255,255)"/>
<polygon points="246.4,343.6 254.4,343.6 254.4,351.6 246.4,351.6" fill="rgb(255,255,255)"/>
<polygon points="254.4,343.6 262.4,343.6 262.4,351.6 254.4,351.6" fill="rgb(255,255,255)"/>
<polygon points="262.4,343.6 270.4,343.6 270.4,351.6 262.4,351.6" fill="rgb(255,255,255)"/>
<polygon points="270.4,343.6 278.4,343.6 278.4,351.6 270.4,351.6" fill="rgb(255,255,255)"/>
<polygon points="82.4,351.6 90.4,351.6 90.4,359.6 82.4,359.6" fill="rgb(0,205,0)"/><text xml:space="preserve" x="86.4" y="358.433" font-family="Calibri" font-size="7.5" fill="rgb(255,255,255)" text-anchor="middle">1</text>
<polygon points="90.4,351.6 98.4,351.6 98.4,359.6 90.4,359.6" fill="rgb(0,205,0)"/><text xml:space="preserve" x="94.4" y="358.433" font-family="Calibri" font-size="7.5" fill="rgb(255,255,255)" text-anchor="middle">1</text>
<polygon points="98.4,351.6 106.4,351.6 106.4,359.6 98.4,359.6" fill="rgb(0,205,0)"/><text xml:space="preserve" x="102.4" y="358.433" font-family="Calibri" font-size="7.5" fill="rgb(255,255,255)" text-anchor="middle">1</text>
<polygon points="106.4,351.6 114.4,351.6 114.4,359.6 106.4,359.6" fill="rgb(0,205,0)"/><text xml:space="preserve" x="110.4" y="358.433" font-family="Calibri" font-size="7.5" fill="rgb(255,255,255)" text-anchor="middle">1</text>
<polygon points="114.4,351.6 122.4,351.6 122.4,359.6 114.4,359.6" fill="rgb(230,127,0)"/><text xml:space="preserve" x="118.4" y="358.433" font-family="Calibri" font-size="7.5" fill="rgb(0,0,0)" text-anchor="middle">4</text>
<polygon points="122.4,351.6 130.4,351.6 130.4,359.6 122.4,359.6" fill="rgb(0,205,0)"/><text xml:space="preserve" x="126.4" y="358.433" font-family="Calibri" font-size="7.5" fill="rgb(255,255,255)" text-anchor="middle">1</text>
<polygon points="130.4,351.6 138.4,351.6 138.4,359.6 130.4,359.6" fill="rgb(0,205,0)"/><text xml:space="preserve" x="134.4" y="358.433" font-family="Calibri" font-size="7.5" fill="rgb(255,255,255)" text-anchor="middle">1</text>
<polygon points="148.4,351.6 156.4,351.6 156.4,359.6 148.4,359.6" fill="rgb(1,33,135)"/>
<polygon points="156.4,351.6 164.4,351.6 164.4,359.6 156.4,359.6" fill="rgb(0,30,135)"/>
<polygon points="164.4,351.6 172.4,351.6 172.4,359.6 164.4,359.6" fill="rgb(1,32,135)"/>
<polygon points="172.4,351.6 180.4,351.6 180.4,359.6 172.4,359.6" fill="rgb(10,66,137)"/>
<polygon points="180.4,351.6 188.4,351.6 188.4,359.6 180.4,359.6" fill="rgb(26,130,140)"/>
<polygon points="188.4,351.6 196.4,351.6 196.4,359.6 188.4,359.6" fill="rgb(3,39,135)"/>
<polygon points="196.4,351.6 204.4,351.6 204.4,359.6 196.4,359.6" fill="rgb(2,35,135)"/>
<polygon points="214.4,351.6 222.4,351.6 222.4,359.6 214.4,359.6" fill="rgb(255,255,255)"/>
<polygon points="222.4,351.6 230.4,351.6 230.4,359.6 222.4,359.6" fill="rgb(255,255,255)"/>
<polygon points="230.4,351.6 238.4,351.6 238.4,359.6 230.4,359.6" fill="rgb(255,255,255)"/>
<polygon points="238.4,351.6 246.4,351.6 246.4,359.6 238.4,359.6" fill="rgb(255,255,255)"/>
<polygon points="246.4,351.6 254.4,351.6 254.4,359.6 246.4,359.6" fill="rgb(255,255,255)"/>
<polygon points="254.4,351.6 262.4,351.6 262.4,359.6 254.4,359.6" fill="rgb(255,255,255)"/>
<polygon points="262.4,351.6 270.4,351.6 270.4,359.6 262.4,359.6" fill="rgb(255,255,255)"/>
<polygon points="270.4,351.6 278.4,351.6 278.4,359.6 270.4,359.6" fill="rgb(205,0,205)"/>
<polygon points="82.4,335.6 138.4,335.6 138.4,359.6 82.4,359.6" fill="none" stroke="black" stroke-width="1"/>
<polygon points="148.4,335.6 204.4,335.6 204.4,359.6 148.4,359.6" fill="none" stroke="black" stroke-width="1"/>
<polygon points="214.4,335.6 278.4,335.6 278.4,359.6 214.4,359.6" fill="none" stroke="black" stroke-width="1"/>
<text xml:space="preserve" x="149.2" y="392.6" font-family="Calibri" font-size="8" text-anchor="middle">ClusterAssignment</text>
<polygon points="99.2,399.6 119.2,399.6 119.2,419.6 99.2,419.6" fill="rgb(0,205,0)"/><polygon points="99.2,399.6 119.2,399.6 119.2,419.6 99.2,419.6" fill="none" stroke="black" stroke-width="1"/><text xml:space="preserve" x="109.2" y="412.433" font-family="Calibri" font-size="7.5" fill="rgb(255,255,255)" text-anchor="middle">1.0</text>
<polygon points="119.2,399.6 139.2,399.6 139.2,419.6 119.2,419.6" fill="rgb(127,230,0)"/><polygon points="119.2,399.6 139.2,399.6 139.2,419.6 119.2,419.6" fill="none" stroke="black" stroke-width="1"/><text xml:space="preserve" x="129.2" y="412.433" font-family="Calibri" font-size="7.5" fill="rgb(0,0,0)" text-anchor="middle">2.0</text>
<polygon points="139.2,399.6 159.2,399.6 159.2,419.6 139.2,419.6" fill="rgb(255,255,0)"/><polygon points="139.2,399.6 159.2,399.6 159.2,419.6 139.2,419.6" fill="none" stroke="black" stroke-width="1"/><text xml:space="preserve" x="149.2" y="412.433" font-family="Calibri" font-size="7.5" fill="rgb(0,0,0)" text-anchor="middle">3.0</text>
<polygon points="159.2,399.6 179.2,399.6 179.2,419.6 159.2,419.6" fill="rgb(230,127,0)"/><polygon points="159.2,399.6 179.2,399.6 179.2,419.6 159.2,419.6" fill="none" stroke="black" stroke-width="1"/><text xml:space="preserve" x="169.2" y="412.433" font-family="Calibri" font-size="7.5" fill="rgb(0,0,0)" text-anchor="middle">4.0</text>
<polygon points="179.2,399.6 199.2,399.6 199.2,419.6 179.2,419.6" fill="rgb(205,0,0)"/><polygon points="179.2,399.6 199.2,399.6 199.2,419.6 179.2,419.6" fill="none" stroke="black" stroke-width="1"/><text xml:space="preserve" x="189.2" y="412.433" font-family="Calibri" font-size="7.5" fill="rgb(255,255,255)" text-anchor="middle">5.0</text>
<text xml:space="preserve" x="149.2" y="452.6" font-family="Calibri" font-size="8" text-anchor="middle">Expression</text>
<polygon points="99.2,459.6 119.2,459.6 119.2,479.6 99.2,479.6" fill="rgb(0,27,135)"/><polygon points="99.2,459.6 119.2,459.6 119.2,479.6 99.2,479.6" fill="none" stroke="black" stroke-width="1"/><text xml:space="preserve" x="109.2" y="472.433" font-family="Calibri" font-size="7.5" fill="rgb(255,255,255)" text-anchor="middle">0.0</text>
<polygon points="119.2,459.6 139.2,459.6 139.2,479.6 119.2,479.6" fill="rgb(24,123,140)"/><polygon points="119.2,459.6 139.2,459.6 139.2,479.6 119.2,479.6" fill="none" stroke="black" stroke-width="1"/><text xml:space="preserve" x="129.2" y="472.433" font-family="Calibri" font-size="7.5" fill="rgb(255,255,255)" text-anchor="middle">0.8</text>
<polygon points="139.2,459.6 159.2,459.6 159.2,479.6 139.2,479.6" fill="rgb(49,219,146)"/><polygon points="139.2,459.6 159.2,459.6 159.2,479.6 139.2,479.6" fill="none" stroke="black" stroke-width="1"/><text xml:space="preserve" x="149.2" y="472.433" font-family="Calibri" font-size="7.5" fill="rgb(0,0,0)" text-anchor="middle">1.5</text>
<polygon points="159.2,459.6 179.2,459.6 179.2,479.6 159.2,479.6" fill="rgb(150,206,73)"/><polygon points="159.2,459.6 179.2,459.6 179.2,479.6 159.2,479.6" fill="none" stroke="black" stroke-width="1"/><text xml:space="preserve" x="169.2" y="472.433" font-family="Calibri" font-size="7.5" fill="rgb(0,0,0)" text-anchor="middle">2.2</text>
<polygon points="179.2,459.6 199.2,459.6 199.2,479.6 179.2,479.6" fill="rgb(252,194,1)"/><polygon points="179.2,459.6 199.2,459.6 199.2,479.6 179.2,479.6" fill="none" stroke="black" stroke-width="1"/><text xml:space="preserve" x="189.2" y="472.433" font-family="Calibri" font-size="7.5" fill="rgb(0,0,0)" text-anchor="middle">3.0</text>
<text xml:space="preserve" x="149.2" y="512.6" font-family="Calibri" font-size="8" text-anchor="middle">PANTHERclass</text>
<polygon points="99.2,519.6 119.2,519.6 119.2,539.6 99.2,539.6" fill="rgb(255,255,255)"/><polygon points="99.2,519.6 119.2,519.6 119.2,539.6 99.2,539.6" fill="none" stroke="black" stroke-width="1"/><text xml:space="preserve" x="109.2" y="532.433" font-family="Calibri" font-size="7.5" fill="rgb(0,0,0)" text-anchor="middle">0.0</text>
<polygon points="119.2,519.6 139.2,519.6 139.2,539.6 119.2,539.6" fill="rgb(242,191,242)"/><polygon points="119.2,519.6 139.2,519.6 139.2,539.6 119.2,539.6" fill="none" stroke="black" stroke-width="1"/><text xml:space="preserve" x="129.2" y="532.433" font-family="Calibri" font-size="7.5" fill="rgb(0,0,0)" text-anchor="middle">0.2</text>
<polygon points="139.2,519.6 159.2,519.6 159.2,539.6 139.2,539.6" fill="rgb(230,127,230)"/><polygon points="139.2,519.6 159.2,519.6 159.2,539.6 139.2,539.6" fill="none" stroke="black" stroke-width="1"/><text xml:space="preserve" x="149.2" y="532.433" font-family="Calibri" font-size="7.5" fill="rgb(0,0,0)" text-anchor="middle">0.5</text>
<polygon points="159.2,519.6 179.2,519.6 179.2,539.6 159.2,539.6" fill="rgb(217,63,217)"/><polygon points="159.2,519.6 179.2,519.6 179.2,539.6 159.2,539.6" fill="none" stroke="black" stroke-width="1"/><text xml:space="preserve" x="169.2" y="532.433" font-family="Calibri" font-size="7.5" fill="rgb(255,255,255)" text-anchor="middle">0.8</text>
<polygon points="179.2,519.6 199.2,519.6 199.2,539.6 179.2,539.6" fill="rgb(205,0,205)"/><polygon points="179.2,519.6 199.2,519.6 199.2,539.6 179.2,539.6" fill="none" stroke="black" stroke-width="1"/><text xml:space="preserve" x="189.2" y="532.433" font-family="Calibri" font-size="7.5" fill="rgb(255,255,255)" text-anchor="middle">1.0</text>
</svg>
