<?xml version="1.0" standalone="no"?><!DOCTYPE svg PUBLIC "-//W3C//DTD SVG 1.1//EN" "http://www.w3.org/Graphics/SVG/1.1/DTD/svg11.dtd">
<svg width="323.3" height="559.6" version="1.1" xmlns="http://www.w3.org/2000/svg">
<text xml:space="preserve" x="103.3" y="342.6" font-family="Calibri" font-size="8" text-anchor="end">ATP5F1E</text>
<text xml:space="preserve" x="103.3" y="350.6" font-family="Calibri" font-size="8" text-anchor="end">COX7A2</text>
<text xml:space="preserve" x="103.3" y="358.6" font-family="Calibri" font-size="8" text-anchor="end">ATP5MPL</text>
<text xml:space="preserve" x="114.3" y="331.6" font-family="Calibri" font-size="8" transform="rotate(270 114.3 331.6)">c3</text>
<text xml:space="preserve" x="122.3" y="331.6" font-family="Calibri" font-size="8" transform="rotate(270 122.3 331.6)">c1</text>
<text xml:space="preserve" x="130.3" y="331.6" font-family="Calibri" font-size="8" transform="rotate(270 130.3 331.6)">c4</text>
<text xml:space="preserve" x="138.3" y="331.6" font-family="Calibri" font-size="8" transform="rotate(270 138.3 331.6)">c5</text>
<text xml:space="preserve" x="146.3" y="331.6" font-family="Calibri" font-size="8" transform="rotate(270 146.3 331.6)">c2</text>
<text xml:space="preserve" x="154.3" y="331.6" font-family="Calibri" font-size="8" transform="rotate(270 154.3 331.6)">c6</text>
<text xml:space="preserve" x="162.3" y="331.6" font-family="Calibri" font-size="8" transform="rotate(270 162.3 331.6)">c7</text>
<text xml:space="preserve" x="180.3" y="331.6" font-family="Calibri" font-size="8" transform="rotate(270 180.3 331.6)">c3_mean</text>
<text xml:space="preserve" x="188.3" y="331.6" font-family="Calibri" font-size="8" transform="rotate(270 188.3 331.6)">c1_mean</text>
<text xml:space="preserve" x="196.3" y="331.6" font-family="Calibri" font-size="8" transform="rotate(270 196.3 331.6)">c4_mean</text>
<text xml:space="preserve" x="204.3" y="331.6" font-family="Calibri" font-size="8" transform="rotate(270 204.3 331.6)">c5_mean</text>
<text xml:space="preserve" x="212.3" y="331.6" font-family="Calibri" font-size="8" transform="rotate(270 212.3 331.6)">c2_mean</text>
<text xml:space="preserve" x="220.3" y="331.6" font-family="Calibri" font-size="8" transform="rotate(270 220.3 331.6)">c6_mean</text>
<text xml:space="preserve" x="228.3" y="331.6" font-family="Calibri" font-size="8" transform="rotate(270 228.3 331.6)">c7_mean</text>
<text xml:space="preserve" x="246.3" y="331.6" font-family="Calibri" font-size="8" transform="rotate(270 246.3 331.6)">transcription_factor</text>
<text xml:space="preserve" x="254.3" y="331.6" font-family="Calibri" font-size="8" transform="rotate(270 254.3 331.6)">transmembrane_signal_receptor</text>
<text xml:space="preserve" x="262.3" y="331.6" font-family="Calibri" font-size="8" transform="rotate(270 262.3 331.6)">growth_factor</text>
<text xml:space="preserve" x="270.3" y="331.6" font-family="Calibri" font-size="8" transform="rotate(270 270.3 331.6)">peptide_hormone</text>
<text xml:space="preserve" x="278.3" y="331.6" font-family="Calibri" font-size="8" transform="rotate(270 278.3 331.6)">cytoskeletal_protein</text>
<text xml:space="preserve" x="286.3" y="331.6" font-family="Calibri" font-size="8" transform="rotate(270 286.3 331.6)">ion_channel</text>
<text xml:space="preserve" x="294.3" y="331.6" font-family="Calibri" font-size="8" transform="rotate(270 294.3 331.6)">integrin</text>
<text xml:space="preserve" x="302.3" y="331.6" font-family="Calibri" font-size="8" transform="rotate(270 302.3 331.6)">extracellular_matrix_protein</text>
<polygon points="107.3,335.6 115.3,335.6 115.3,343.6 107.3,343.6" fill="rgb(127,230,0)"/><text xml:space="preserve" x="111.3" y="342.433" font-family="Calibri" font-size="7.5" fill="rgb(0,0,0)" text-anchor="middle">2</text>
<polygon points="115.3,335.6 123.3,335.6 123.3,343.6 115.3,343.6" fill="rgb(127,230,0)"/><text xml:space="preserve" x="119.3" y="342.433" font-family="Calibri" font-size="7.5" fill="rgb(0,0,0)" text-anchor="middle">2</text>
<polygon points="123.3,335.6 131.3,335.6 131.3,343.6 123.3,343.6" fill="rgb(205,0,0)"/><text xml:space="preserve" x="127.3" y="342.433" font-family="Calibri" font-size="7.5" fill="rgb(255,255,255)" text-anchor="middle">5</text>
<polygon points="131.3,335.6 139.3,335.6 139.3,343.6 131.3,343.6" fill="rgb(255,255,0)"/><text xml:space="preserve" x="135.3" y="342.433" font-family="Calibri" font-size="7.5" fill="rgb(0,0,0)" text-anchor="middle">3</text>
<polygon points="139.3,335.6 147.3,335.6 147.3,343.6 139.3,343.6" fill="rgb(205,0,0)"/><text xml:space="preserve" x="143.3" y="342.433" font-family="Calibri" font-size="7.5" fill="rgb(255,255,255)" text-anchor="middle">5</text>
<polygon points="147.3,335.6 155.3,335.6 155.3,343.6 147.3,343.6" fill="rgb(205,0,0)"/><text xml:space="preserve" x="151.3" y="342.433" font-family="Calibri" font-size="7.5" fill="rgb(255,255,255)" text-anchor="middle">5</text>
<polygon points="155.3,335.6 163.3,335.6 163.3,343.6 155.3,343.6" fill="rgb(127,230,0)"/><text xml:space="preserve" x="159.3" y="342.433" font-family="Calibri" font-size="7.5" fill="rgb(0,0,0)" text-anchor="middle">2</text>
<polygon points="173.3,335.6 181.3,335.6 181.3,343.6 173.3,343.6" fill="rgb(9,65,137)"/>
<polygon points="181.3,335.6 189.3,335.6 189.3,343.6 181.3,343.6" fill="rgb(10,69,137)"/>
<polygon points="189.3,335.6 197.3,335.6 197.3,343.6 189.3,343.6" fill="rgb(28,137,141)"/>
<polygon points="197.3,335.6 205.3,335.6 205.3,343.6 197.3,343.6" fill="rgb(16,93,138)"/>
<polygon points="205.3,335.6 213.3,335.6 213.3,343.6 205.3,343.6" fill="rgb(36,169,143)"/>
<polygon points="213.3,335.6 221.3,335.6 221.3,343.6 213.3,343.6" fill="rgb(39,181,143)"/>
<polygon points="221.3,335.6 229.3,335.6 229.3,343.6 221.3,343.6" fill="rgb(9,64,137)"/>
<polygon points="239.3,335.6 247.3,335.6 247.3,343.6 239.3,343.6" fill="rgb(255,255,255)"/>
<polygon points="247.3,335.6 255.3,335.6 255.3,343.6 247.3,343.6" fill="rgb(255,255,255)"/>
<polygon points="255.3,335.6 263.3,335.6 263.3,343.6 255.3,343.6" fill="rgb(255,255,255)"/>
<polygon points="263.3,335.6 271.3,335.6 271.3,343.6 263.3,343.6" fill="rgb(255,255,255)"/>
<polygon points="271.3,335.6 279.3,335.6 279.3,343.6 271.3,343.6" fill="rgb(255,255,255)"/>
<polygon points="279.3,335.6 287.3,335.6 287.3,343.6 279.3,343.6" fill="rgb(255,255,255)"/>
<polygon points="287.3,335.6 295.3,335.6 295.3,343.6 287.3,343.6" fill="rgb(255,255,255)"/>
<polygon points="295.3,335.6 303.3,335.6 303.3,343.6 295.3,343.6" fill="rgb(255,255,255)"/>
<polygon points="107.3,343.6 115.3,343.6 115.3,351.6 107.3,351.6" fill="rgb(127,230,0)"/><text xml:space="preserve" x="111.3" y="350.433" font-family="Calibri" font-size="7.5" fill="rgb(0,0,0)" text-anchor="middle">2</text>
<polygon points="115.3,343.6 123.3,343.6 123.3,351.6 115.3,351.6" fill="rgb(127,230,0)"/><text xml:space="preserve" x="119.3" y="350.433" font-family="Calibri" font-size="7.5" fill="rgb(0,0,0)" text-anchor="middle">2</text>
<polygon points="123.3,343.6 131.3,343.6 131.3,351.6 123.3,351.6" fill="rgb(205,0,0)"/><text xml:space="preserve" x="127.3" y="350.433" font-family="Calibri" font-size="7.5" fill="rgb(255,255,255)" text-anchor="middle">5</text>
<polygon points="131.3,343.6 139.3,343.6 139.3,351.6 131.3,351.6" fill="rgb(255,255,0)"/><text xml:space="preserve" x="135.3" y="350.433" font-family="Calibri" font-size="7.5" fill="rgb(0,0,0)" text-anchor="middle">3</text>
<polygon points="139.3,343.6 147.3,343.6 147.3,351.6 139.3,351.6" fill="rgb(205,0,0)"/><text xml:space="preserve" x="143.3" y="350.433" font-family="Calibri" font-size="7.5" fill="rgb(255,255,255)" text-anchor="middle">5</text>
<polygon points="147.3,343.6 155.3,343.6 155.3,351.6 147.3,351.6" fill="rgb(205,0,0)"/><text xml:space="preserve" x="151.3" y="350.433" font-family="Calibri" font-size="7.5" fill="rgb(255,255,255)" text-anchor="middle">5</text>
<polygon points="155.3,343.6 163.3,343.6 163.3,351.6 155.3,351.6" fill="rgb(127,230,0)"/><text xml:space="preserve" x="159.3" y="350.433" font-family="Calibri" font-size="7.5" fill="rgb(0,0,0)" text-anchor="middle">2</text>
<polygon points="173.3,343.6 181.3,343.6 181.3,351.6 173.3,351.6" fill="rgb(11,70,137)"/>
<polygon points="181.3,343.6 189.3,343.6 189.3,351.6 181.3,351.6" fill="rgb(12,74,137)"/>
<polygon points="189.3,343.6 197.3,343.6 197.3,351.6 189.3,351.6" fill="rgb(32,155,142)"/>
<polygon points="197.3,343.6 205.3,343.6 205.3,351.6 197.3,351.6" fill="rgb(19,102,139)"/>
<polygon points="205.3,343.6 213.3,343.6 213.3,351.6 205.3,351.6" fill="rgb(41,190,144)"/>
<polygon points="213.3,343.6 221.3,343.6 221.3,351.6 213.3,351.6" fill="rgb(44,201,144)"/>
<polygon points="221.3,343.6 229.3,343.6 229.3,351.6 221.3,351.6" fill="rgb(11,71,137)"/>
<polygon points="239.3,343.6 247.3,343.6 247.3,351.6 239.3,351.6" fill="rgb(255,255,255)"/>
<polygon points="247.3,343.6 255.3,343.6 255.3,351.6 247.3,351.6" fill="rgb(255,255,255)"/>
<polygon points="255.3,343.6 263.3,343.6 263.3,351.6 255.3,351.6" fill="rgb(255,255,255)"/>
<polygon points="263.3,343.6 271.3,343.6 271.3,351.6 263.3,351.6" fill="rgb(255,255,255)"/>
<polygon points="271.3,343.6 279.3,343.6 279.3,351.6 271.3,351.6" fill="rgb(255,255,255)"/>
<polygon points="279.3,343.6 287.3,343.6 287.3,351.6 279.3,351.6" fill="rgb(255,255,255)"/>
<polygon points="287.3,343.6 295.3,343.6 295.3,351.6 287.3,351.6" fill="rgb(255,255,255)"/>
<polygon points="295.3,343.6 303.3,343.6 303.3,351.6 295.3,351.6" fill="rgb(255,255,255)"/>
<polygon points="107.3,351.6 115.3,351.6 115.3,359.6 107.3,359.6" fill="rgb(127,230,0)"/><text xml:space="preserve" x="111.3" y="358.433" font-family="Calibri" font-size="7.5" fill="rgb(0,0,0)" text-anchor="middle">2</text>
<polygon points="115.3,351.6 123.3,351.6 123.3,359.6 115.3,359.6" fill="rgb(127,230,0)"/><text xml:space="preserve" x="119.3" y="358.433" font-family="Calibri" font-size="7.5" fill="rgb(0,0,0)" text-anchor="middle">2</text>
<polygon points="123.3,351.6 131.3,351.6 131.3,359.6 123.3,359.6" fill="rgb(205,0,0)"/><text xml:space="preserve" x="127.3" y="358.433" font-family="Calibri" font-size="7.5" fill="rgb(255,255,255)" text-anchor="middle">5</text>
<polygon points="131.3,351.6 139.3,351.6 139.3,359.6 131.3,359.6" fill="rgb(255,255,0)"/><text xml:space="preserve" x="135.3" y="358.433" font-family="Calibri" font-size="7.5" fill="rgb(0,0,0)" text-anchor="middle">3</text>
<polygon points="139.3,351.6 147.3,351.6 147.3,359.6 139.3,359.6" fill="rgb(205,0,0)"/><text xml:space="preserve" x="143.3" y="358.433" font-family="Calibri" font-size="7.5" fill="rgb(255,255,255)" text-anchor="middle">5</text>
<polygon points="147.3,351.6 155.3,351.6 155.3,359.6 147.3,359.6" fill="rgb(205,0,0)"/><text xml:space="preserve" x="151.3" y="358.433" font-family="Calibri" font-size="7.5" fill="rgb(255,255,255)" text-anchor="middle">5</text>
<polygon points="155.3,351.6 163.3,351.6 163.3,359.6 155.3,359.6" fill="rgb(127,230,0)"/><text xml:space="preserve" x="159.3" y="358.433" font-family="Calibri" font-size="7.5" fill="rgb(0,0,0)" text-anchor="middle">2</text>
<polygon points="173.3,351.6 181.3,351.6 181.3,359.6 173.3,359.6" fill="rgb(8,61,136)"/>
<polygon points="181.3,351.6 189.3,351.6 189.3,359.6 181.3,359.6" fill="rgb(9,62,137)"/>
<polygon points="189.3,351.6 197.3,351.6 197.3,359.6 189.3,359.6" fill="rgb(27,135,141)"/>
<polygon points="197.3,351.6 205.3,351.6 205.3,359.6 197.3,359.6" fill="rgb(16,89,138)"/>
<polygon points="205.3,351.6 213.3,351.6 213.3,359.6 205.3,359.6" fill="rgb(35,166,142)"/>
<polygon points="213.3,351.6 221.3,351.6 221.3,359.6 213.3,359.6" fill="rgb(36,171,143)"/>
<polygon points="221.3,351.6 229.3,351.6 229.3,359.6 221.3,359.6" fill="rgb(9,64,137)"/>
<polygon points="239.3,351.6 247.3,351.6 247.3,359.6 239.3,359.6" fill="rgb(255,255,255)"/>
<polygon points="247.3,351.6 255.3,351.6 255.3,359.6 247.3,359.6" fill="rgb(255,255,255)"/>
<polygon points="255.3,351.6 263.3,351.6 263.3,359.6 255.3,359.6" fill="rgb(255,255,255)"/>
<polygon points="263.3,351.6 271.3,351.6 271.3,359.6 263.3,359.6" fill="rgb(255,255,255)"/>
<polygon points="271.3,351.6 279.3,351.6 279.3,359.6 271.3,359.6" fill="rgb(255,255,255)"/>
<polygon points="279.3,351.6 287.3,351.6 287.3,359.6 279.3,359.6" fill="rgb(255,255,255)"/>
<polygon points="287.3,351.6 295.3,351.6 295.3,359.6 287.3,359.6" fill="rgb(255,255,255)"/>
<polygon points="295.3,351.6 303.3,351.6 303.3,359.6 295.3,359.6" fill="rgb(255,255,255)"/>
<polygon points="107.3,335.6 163.3,335.6 163.3,359.6 107.3,359.6" fill="none" stroke="black" stroke-width="1"/>
<polygon points="173.3,335.6 229.3,335.6 229.3,359.6 173.3,359.6" fill="none" stroke="black" stroke-width="1"/>
<polygon points="239.3,335.6 303.3,335.6 303.3,359.6 239.3,359.6" fill="none" stroke="black" stroke-width="1"/>
<text xml:space="preserve" x="161.65" y="392.6" font-family="Calibri" font-size="8" text-anchor="middle">ClusterAssignment</text>
<polygon points="111.65,399.6 131.65,399.6 131.65,419.6 111.65,419.6" fill="rgb(0,205,0)"/><polygon points="111.65,399.6 131.65,399.6 131.65,419.6 111.65,419.6" fill="none" stroke="black" stroke-width="1"/><text xml:space="preserve" x="121.65" y="412.433" font-family="Calibri" font-size="7.5" fill="rgb(255,255,255)" text-anchor="middle">1.0</text>
<polygon points="131.65,399.6 151.65,399.6 151.65,419.6 131.65,419.6" fill="rgb(127,230,0)"/><polygon points="131.65,399.6 151.65,399.6 151.65,419.6 131.65,419.6" fill="none" stroke="black" stroke-width="1"/><text xml:space="preserve" x="141.65" y="412.433" font-family="Calibri" font-size="7.5" fill="rgb(0,0,0)" text-anchor="middle">2.0</text>
<polygon points="151.65,399.6 171.65,399.6 171.65,419.6 151.65,419.6" fill="rgb(255,255,0)"/><polygon points="151.65,399.6 171.65,399.6 171.65,419.6 151.65,419.6" fill="none" stroke="black" stroke-width="1"/><text xml:space="preserve" x="161.65" y="412.433" font-family="Calibri" font-size="7.5" fill="rgb(0,0,0)" text-anchor="middle">3.0</text>
<polygon points="171.65,399.6 191.65,399.6 191.65,419.6 171.65,419.6" fill="rgb(230,127,0)"/><polygon points="171.65,399.6 191.65,399.6 191.65,419.6 171.65,419.6" fill="none" stroke="black" stroke-width="1"/><text xml:space="preserve" x="181.65" y="412.433" font-family="Calibri" font-size="7.5" fill="rgb(0,0,0)" text-anchor="middle">4.0</text>
<polygon points="191.65,399.6 211.65,399.6 211.65,419.6 191.65,419.6" fill="rgb(205,0,0)"/><polygon points="191.65,399.6 211.65,399.6 211.65,419.6 191.65,419.6" fill="none" stroke="black" stroke-width="1"/><text xml:space="preserve" x="201.65" y="412.433" font-family="Calibri" font-size="7.5" fill="rgb(255,255,255)" text-anchor="middle">5.0</text>
<text xml:space="preserve" x="161.65" y="452.6" font-family="Calibri" font-size="8" text-anchor="middle">Expression</text>
<polygon points="111.65,459.6 131.65,459.6 131.65,479.6 111.65,479.6" fill="rgb(0,27,135)"/><polygon points="111.65,459.6 131.65,459.6 131.65,479.6 111.65,479.6" fill="none" stroke="black" stroke-width="1"/><text xml:space="preserve" x="121.65" y="472.433" font-family="Calibri" font-size="7.5" fill="rgb(255,255,255)" text-anchor="middle">0.0</text>
<polygon points="131.65,459.6 151.65,459.6 151.65,479.6 131.65,479.6" fill="rgb(24,123,140)"/><polygon points="131.65,459.6 151.65,459.6 151.65,479.6 131.65,479.6" fill="none" stroke="black" stroke-width="1"/><text xml:space="preserve" x="141.65" y="472.433" font-family="Calibri" font-size="7.5" fill="rgb(255,255,255)" text-anchor="middle">0.8</text>
<polygon points="151.65,459.6 171.65,459.6 171.65,479.6 151.65,479.6" fill="rgb(49,219,146)"/><polygon points="151.65,459.6 171.65,459.6 171.65,479.6 151.65,479.6" fill="none" stroke="black" stroke-width="1"/><text xml:space="preserve" x="161.65" y="472.433" font-family="Calibri" font-size="7.5" fill="rgb(0,0,0)" text-anchor="middle">1.5</text>
<polygon points="171.65,459.6 191.65,459.6 191.65,479.6 171.65,479.6" fill="rgb(150,206,73)"/><polygon points="171.65,459.6 191.65,459.6 191.65,479.6 171.65,479.6" fill="none" stroke="black" stroke-width="1"/><text xml:space="preserve" x="181.65" y="472.433" font-family="Calibri" font-size="7.5" fill="rgb(0,0,0)" text-anchor="middle">2.2</text>
<polygon points="191.65,459.6 211.65,459.6 211.65,479.6 191.65,479.6" fill="rgb(252,194,1)"/><polygon points="191.65,459.6 211.65,459.6 211.65,479.6 191.65,479.6" fill="none" stroke="black" stroke-width="1"/><text xml:space="preserve" x="201.65" y="472.433" font-family="Calibri" font-size="7.5" fill="rgb(0,0,0)" text-anchor="middle">3.0</text>
<text xml:space="preserve" x="161.65" y="512.6" font-family="Calibri" font-size="8" text-anchor="middle">PANTHERclass</text>
<polygon points="111.65,519.6 131.65,519.6 131.65,539.6 111.65,539.6" fill="rgb(255,255,255)"/><polygon points="111.65,519.6 131.65,519.6 131.65,539.6 111.65,539.6" fill="none" stroke="black" stroke-width="1"/><text xml:space="preserve" x="121.65" y="532.433" font-family="Calibri" font-size="7.5" fill="rgb(0,0,0)" text-anchor="middle">0.0</text>
<polygon points="131.65,519.6 151.65,519.6 151.65,539.6 131.65,539.6" fill="rgb(242,191,242)"/><polygon points="131.65,519.6 151.65,519.6 151.65,539.6 131.65,539.6" fill="none" stroke="black" stroke-width="1"/><text xml:space="preserve" x="141.65" y="532.433" font-family="Calibri" font-size="7.5" fill="rgb(0,0,0)" text-anchor="middle">0.2</text>
<polygon points="151.65,519.6 171.65,519.6 171.65,539.6 151.65,539.6" fill="rgb(230,127,230)"/><polygon points="151.65,519.6 171.65,519.6 171.65,539.6 151.65,539.6" fill="none" stroke="black" stroke-width="1"/><text xml:space="preserve" x="161.65" y="532.433" font-family="Calibri" font-size="7.5" fill="rgb(0,0,0)" text-anchor="middle">0.5</text>
<polygon points="171.65,519.6 191.65,519.6 191.65,539.6 171.65,539.6" fill="rgb(217,63,217)"/><polygon points="171.65,519.6 191.65,519.6 191.65,539.6 171.65,539.6" fill="none" stroke="black" stroke-width="1"/><text xml:space="preserve" x="181.65" y="532.433" font-family="Calibri" font-size="7.5" fill="rgb(255,255,255)" text-anchor="middle">0.8</text>
<polygon points="191.65,519.6 211.65,519.6 211.65,539.6 191.65,539.6" fill="rgb(205,0,205)"/><polygon points="191.65,519.6 211.65,519.6 211.65,539.6 191.65,539.6" fill="none" stroke="black" stroke-width="1"/><text xml:space="preserve" x="201.65" y="532.433" font-family="Calibri" font-size="7.5" fill="rgb(255,255,255)" text-anchor="middle">1.0</text>
</svg>
