<?xml version="1.0" standalone="no"?><!DOCTYPE svg PUBLIC "-//W3C//DTD SVG 1.1//EN" "http://www.w3.org/Graphics/SVG/1.1/DTD/svg11.dtd">
<svg width="314" height="583.6" version="1.1" xmlns="http://www.w3.org/2000/svg">
<text xml:space="preserve" x="94" y="342.6" font-family="Calibri" font-size="8" text-anchor="end">BTG1</text>
<text xml:space="preserve" x="94" y="350.6" font-family="Calibri" font-size="8" text-anchor="end">SYT1</text>
<text xml:space="preserve" x="94" y="358.6" font-family="Calibri" font-size="8" text-anchor="end">MT-ND1</text>
<text xml:space="preserve" x="94" y="366.6" font-family="Calibri" font-size="8" text-anchor="end">MALAT1</text>
<text xml:space="preserve" x="94" y="374.6" font-family="Calibri" font-size="8" text-anchor="end">MT-ND2</text>
<text xml:space="preserve" x="94" y="382.6" font-family="Calibri" font-size="8" text-anchor="end">MT-ND4</text>
<text xml:space="preserve" x="105" y="331.6" font-family="Calibri" font-size="8" transform="rotate(270 105 331.6)">c3</text>
<text xml:space="preserve" x="113" y="331.6" font-family="Calibri" font-size="8" transform="rotate(270 113 331.6)">c1</text>
<text xml:space="preserve" x="121" y="331.6" font-family="Calibri" font-size="8" transform="rotate(270 121 331.6)">c4</text>
<text xml:space="preserve" x="129" y="331.6" font-family="Calibri" font-size="8" transform="rotate(270 129 331.6)">c5</text>
<text xml:space="preserve" x="137" y="331.6" font-family="Calibri" font-size="8" transform="rotate(270 137 331.6)">c2</text>
<text xml:space="preserve" x="145" y="331.6" font-family="Calibri" font-size="8" transform="rotate(270 145 331.6)">c6</text>
<text xml:space="preserve" x="153" y="331.6" font-family="Calibri" font-size="8" transform="rotate(270 153 331.6)">c7</text>
<text xml:space="preserve" x="171" y="331.6" font-family="Calibri" font-size="8" transform="rotate(270 171 331.6)">c3_mean</text>
<text xml:space="preserve" x="179" y="331.6" font-family="Calibri" font-size="8" transform="rotate(270 179 331.6)">c1_mean</text>
<text xml:space="preserve" x="187" y="331.6" font-family="Calibri" font-size="8" transform="rotate(270 187 331.6)">c4_mean</text>
<text xml:space="preserve" x="195" y="331.6" font-family="Calibri" font-size="8" transform="rotate(270 195 331.6)">c5_mean</text>
<text xml:space="preserve" x="203" y="331.6" font-family="Calibri" font-size="8" transform="rotate(270 203 331.6)">c2_mean</text>
<text xml:space="preserve" x="211" y="331.6" font-family="Calibri" font-size="8" transform="rotate(270 211 331.6)">c6_mean</text>
<text xml:space="preserve" x="219" y="331.6" font-family="Calibri" font-size="8" transform="rotate(270 219 331.6)">c7_mean</text>
<text xml:space="preserve" x="237" y="331.6" font-family="Calibri" font-size="8" transform="rotate(270 237 331.6)">transcription_factor</text>
<text xml:space="preserve" x="245" y="331.6" font-family="Calibri" font-size="8" transform="rotate(270 245 331.6)">transmembrane_signal_receptor</text>
<text xml:space="preserve" x="253" y="331.6" font-family="Calibri" font-size="8" transform="rotate(270 253 331.6)">growth_factor</text>
<text xml:space="preserve" x="261" y="331.6" font-family="Calibri" font-size="8" transform="rotate(270 261 331.6)">peptide_hormone</text>
<text xml:space="preserve" x="269" y="331.6" font-family="Calibri" font-size="8" transform="rotate(270 269 331.6)">cytoskeletal_protein</text>
<text xml:space="preserve" x="277" y="331.6" font-family="Calibri" font-size="8" transform="rotate(270 277 331.6)">ion_channel</text>
<text xml:space="preserve" x="285" y="331.6" font-family="Calibri" font-size="8" transform="rotate(270 285 331.6)">integrin</text>
<text xml:space="preserve" x="293" y="331.6" font-family="Calibri" font-size="8" transform="rotate(270 293 331.6)">extracellular_matrix_protein</text>
<polygon points="98,335.6 106,335.6 106,343.6 98,343.6" fill="rgb(205,0,0)"/><text xml:space="preserve" x="102" y="342.433" font-family="Calibri" font-size="7.5" fill="rgb(255,255,255)" text-anchor="middle">5</text>
<polygon points="106,335.6 114,335.6 114,343.6 106,343.6" fill="rgb(230,127,0)"/><text xml:space="preserve" x="110" y="342.433" font-family="Calibri" font-size="7.5" fill="rgb(0,0,0)" text-anchor="middle">4</text>
<polygon points="114,335.6 122,335.6 122,343.6 114,343.6" fill="rgb(255,255,0)"/><text xml:space="preserve" x="118" y="342.433" font-family="Calibri" font-size="7.5" fill="rgb(0,0,0)" text-anchor="middle">3</text>
<polygon points="122,335.6 130,335.6 130,343.6 122,343.6" fill="rgb(255,255,0)"/><text xml:space="preserve" x="126" y="342.433" font-family="Calibri" font-size="7.5" fill="rgb(0,0,0)" text-anchor="middle">3</text>
<polygon points="130,335.6 138,335.6 138,343.6 130,343.6" fill="rgb(255,255,0)"/><text xml:space="preserve" x="134" y="342.433" font-family="Calibri" font-size="7.5" fill="rgb(0,0,0)" text-anchor="middle">3</text>
<polygon points="138,335.6 146,335.6 146,343.6 138,343.6" fill="rgb(255,255,0)"/><text xml:space="preserve" x="142" y="342.433" font-family="Calibri" font-size="7.5" fill="rgb(0,0,0)" text-anchor="middle">3</text>
<polygon points="146,335.6 154,335.6 154,343.6 146,343.6" fill="rgb(255,255,0)"/><text xml:space="preserve" x="150" y="342.433" font-family="Calibri" font-size="7.5" fill="rgb(0,0,0)" text-anchor="middle">3</text>
<polygon points="164,335.6 172,335.6 172,343.6 164,343.6" fill="rgb(218,198,25)"/>
<polygon points="172,335.6 180,335.6 180,343.6 172,343.6" fill="rgb(23,117,140)"/>
<polygon points="180,335.6 188,335.6 188,343.6 180,343.6" fill="rgb(20,108,139)"/>
<polygon points="188,335.6 196,335.6 196,343.6 188,343.6" fill="rgb(19,105,139)"/>
<polygon points="196,335.6 204,335.6 204,343.6 196,343.6" fill="rgb(15,87,138)"/>
<polygon points="204,335.6 212,335.6 212,343.6 204,343.6" fill="rgb(17,97,139)"/>
<polygon points="212,335.6 220,335.6 220,343.6 212,343.6" fill="rgb(15,88,138)"/>
<polygon points="230,335.6 238,335.6 238,343.6 230,343.6" fill="rgb(255,255,255)"/>
<polygon points="238,335.6 246,335.6 246,343.6 238,343.6" fill="rgb(255,255,255)"/>
<polygon points="246,335.6 254,335.6 254,343.6 246,343.6" fill="rgb(255,255,255)"/>
<polygon points="254,335.6 262,335.6 262,343.6 254,343.6" fill="rgb(255,255,255)"/>
<polygon points="262,335.6 270,335.6 270,343.6 262,343.6" fill="rgb(255,255,255)"/>
<polygon points="270,335.6 278,335.6 278,343.6 270,343.6" fill="rgb(255,255,255)"/>
<polygon points="278,335.6 286,335.6 286,343.6 278,343.6" fill="rgb(255,255,255)"/>
<polygon points="286,335.6 294,335.6 294,343.6 286,343.6" fill="rgb(255,255,255)"/>
<polygon points="98,343.6 106,343.6 106,351.6 98,351.6" fill="rgb(205,0,0)"/><text xml:space="preserve" x="102" y="350.433" font-family="Calibri" font-size="7.5" fill="rgb(255,255,255)" text-anchor="middle">5</text>
<polygon points="106,343.6 114,343.6 114,351.6 106,351.6" fill="rgb(230,127,0)"/><text xml:space="preserve" x="110" y="350.433" font-family="Calibri" font-size="7.5" fill="rgb(0,0,0)" text-anchor="middle">4</text>
<polygon points="114,343.6 122,343.6 122,351.6 114,351.6" fill="rgb(255,255,0)"/><text xml:space="preserve" x="118" y="350.433" font-family="Calibri" font-size="7.5" fill="rgb(0,0,0)" text-anchor="middle">3</text>
<polygon points="122,343.6 130,343.6 130,351.6 122,351.6" fill="rgb(255,255,0)"/><text xml:space="preserve" x="126" y="350.433" font-family="Calibri" font-size="7.5" fill="rgb(0,0,0)" text-anchor="middle">3</text>
<polygon points="130,343.6 138,343.6 138,351.6 130,351.6" fill="rgb(255,255,0)"/><text xml:space="preserve" x="134" y="350.433" font-family="Calibri" font-size="7.5" fill="rgb(0,0,0)" text-anchor="middle">3</text>
<polygon points="138,343.6 146,343.6 146,351.6 138,351.6" fill="rgb(255,255,0)"/><text xml:space="preserve" x="142" y="350.433" font-family="Calibri" font-size="7.5" fill="rgb(0,0,0)" text-anchor="middle">3</text>
<polygon points="146,343.6 154,343.6 154,351.6 146,351.6" fill="rgb(255,255,0)"/><text xml:space="preserve" x="150" y="350.433" font-family="Calibri" font-size="7.5" fill="rgb(0,0,0)" text-anchor="middle">3</text>
<polygon points="164,343.6 172,343.6 172,351.6 164,351.6" fill="rgb(252,194,1)"/>
<polygon points="172,343.6 180,343.6 180,351.6 172,351.6" fill="rgb(25,126,140)"/>
<polygon points="180,343.6 188,343.6 188,351.6 180,351.6" fill="rgb(21,111,139)"/>
<polygon points="188,343.6 196,343.6 196,351.6 188,351.6" fill="rgb(18,101,139)"/>
<polygon points="196,343.6 204,343.6 204,351.6 196,351.6" fill="rgb(13,79,138)"/>
<polygon points="204,343.6 212,343.6 212,351.6 204,351.6" fill="rgb(16,93,138)"/>
<polygon points="212,343.6 220,343.6 220,351.6 212,351.6" fill="rgb(15,87,138)"/>
<polygon points="230,343.6 238,343.6 238,351.6 230,351.6" fill="rgb(255,255,255)"/>
<polygon points="238,343.6 246,343.6 246,351.6 238,351.6" fill="rgb(255,255,255)"/>
<polygon points="246,343.6 254,343.6 254,351.6 246,351.6" fill="rgb(255,255,255)"/>
<polygon points="254,343.6 262,343.6 262,351.6 254,351.6" fill="rgb(255,255,255)"/>
<polygon points="262,343.6 270,343.6 270,351.6 262,351.6" fill="rgb(255,255,255)"/>
<polygon points="270,343.6 278,343.6 278,351.6 270,351.6" fill="rgb(255,255,255)"/>
<polygon points="278,343.6 286,343.6 286,351.6 278,351.6" fill="rgb(255,255,255)"/>
<polygon points="286,343.6 294,343.6 294,351.6 286,351.6" fill="rgb(255,255,255)"/>
<polygon points="98,351.6 106,351.6 106,359.6 98,359.6" fill="rgb(205,0,0)"/><text xml:space="preserve" x="102" y="358.433" font-family="Calibri" font-size="7.5" fill="rgb(255,255,255)" text-anchor="middle">5</text>
<polygon points="106,351.6 114,351.6 114,359.6 106,359.6" fill="rgb(230,127,0)"/><text xml:space="preserve" x="110" y="358.433" font-family="Calibri" font-size="7.5" fill="rgb(0,0,0)" text-anchor="middle">4</text>
<polygon points="114,351.6 122,351.6 122,359.6 114,359.6" fill="rgb(255,255,0)"/><text xml:space="preserve" x="118" y="358.433" font-family="Calibri" font-size="7.5" fill="rgb(0,0,0)" text-anchor="middle">3</text>
<polygon points="122,351.6 130,351.6 130,359.6 122,359.6" fill="rgb(255,255,0)"/><text xml:space="preserve" x="126" y="358.433" font-family="Calibri" font-size="7.5" fill="rgb(0,0,0)" text-anchor="middle">3</text>
<polygon points="130,351.6 138,351.6 138,359.6 130,359.6" fill="rgb(255,255,0)"/><text xml:space="preserve" x="134" y="358.433" font-family="Calibri" font-size="7.5" fill="rgb(0,0,0)" text-anchor="middle">3</text>
<polygon points="138,351.6 146,351.6 146,359.6 138,359.6" fill="rgb(255,255,0)"/><text xml:space="preserve" x="142" y="358.433" font-family="Calibri" font-size="7.5" fill="rgb(0,0,0)" text-anchor="middle">3</text>
<polygon points="146,351.6 154,351.6 154,359.6 146,359.6" fill="rgb(255,255,0)"/><text xml:space="preserve" x="150" y="358.433" font-family="Calibri" font-size="7.5" fill="rgb(0,0,0)" text-anchor="middle">3</text>
<polygon points="164,351.6 172,351.6 172,359.6 164,359.6" fill="rgb(237,195,11)"/>
<polygon points="172,351.6 180,351.6 180,359.6 172,359.6" fill="rgb(24,124,140)"/>
<polygon points="180,351.6 188,351.6 188,359.6 180,359.6" fill="rgb(21,111,139)"/>
<polygon points="188,351.6 196,351.6 196,359.6 188,359.6" fill="rgb(20,108,139)"/>
<polygon points="196,351.6 204,351.6 204,359.6 196,359.6" fill="rgb(22,116,140)"/>
<polygon points="204,351.6 212,351.6 212,359.6 204,359.6" fill="rgb(21,110,139)"/>
<polygon points="212,351.6 220,351.6 220,359.6 212,359.6" fill="rgb(19,102,139)"/>
<polygon points="230,351.6 238,351.6 238,359.6 230,359.6" fill="rgb(255,255,255)"/>
<polygon points="238,351.6 246,351.6 246,359.6 238,359.6" fill="rgb(255,255,255)"/>
<polygon points="246,351.6 254,351.6 254,359.6 246,359.6" fill="rgb(255,255,255)"/>
<polygon points="254,351.6 262,351.6 262,359.6 254,359.6" fill="rgb(255,255,255)"/>
<polygon points="262,351.6 270,351.6 270,359.6 262,359.6" fill="rgb(255,255,255)"/>
<polygon points="270,351.6 278,351.6 278,359.6 270,359.6" fill="rgb(255,255,255)"/>
<polygon points="278,351.6 286,351.6 286,359.6 278,359.6" fill="rgb(255,255,255)"/>
<polygon points="286,351.6 294,351.6 294,359.6 286,359.6" fill="rgb(255,255,255)"/>
<polygon points="98,359.6 106,359.6 106,367.6 98,367.6" fill="rgb(205,0,0)"/><text xml:space="preserve" x="102" y="366.433" font-family="Calibri" font-size="7.5" fill="rgb(255,255,255)" text-anchor="middle">5</text>
<polygon points="106,359.6 114,359.6 114,367.6 106,367.6" fill="rgb(230,127,0)"/><text xml:space="preserve" x="110" y="366.433" font-family="Calibri" font-size="7.5" fill="rgb(0,0,0)" text-anchor="middle">4</text>
<polygon points="114,359.6 122,359.6 122,367.6 114,367.6" fill="rgb(255,255,0)"/><text xml:space="preserve" x="118" y="366.433" font-family="Calibri" font-size="7.5" fill="rgb(0,0,0)" text-anchor="middle">3</text>
<polygon points="122,359.6 130,359.6 130,367.6 122,367.6" fill="rgb(255,255,0)"/><text xml:space="preserve" x="126" y="366.433" font-family="Calibri" font-size="7.5" fill="rgb(0,0,0)" text-anchor="middle">3</text>
<polygon points="130,359.6 138,359.6 138,367.6 130,367.6" fill="rgb(255,255,0)"/><text xml:space="preserve" x="134" y="366.433" font-family="Calibri" font-size="7.5" fill="rgb(0,0,0)" text-anchor="middle">3</text>
<polygon points="138,359.6 146,359.6 146,367.6 138,367.6" fill="rgb(255,255,0)"/><text xml:space="preserve" x="142" y="366.433" font-family="Calibri" font-size="7.5" fill="rgb(0,0,0)" text-anchor="middle">3</text>
<polygon points="146,359.6 154,359.6 154,367.6 146,367.6" fill="rgb(255,255,0)"/><text xml:space="preserve" x="150" y="366.433" font-family="Calibri" font-size="7.5" fill="rgb(0,0,0)" text-anchor="middle">3</text>
<polygon points="164,359.6 172,359.6 172,367.6 164,367.6" fill="rgb(235,196,12)"/>
<polygon points="172,359.6 180,359.6 180,367.6 172,367.6" fill="rgb(23,120,140)"/>
<polygon points="180,359.6 188,359.6 188,367.6 180,367.6" fill="rgb(19,103,139)"/>
<polygon points="188,359.6 196,359.6 196,367.6 188,367.6" fill="rgb(16,93,138)"/>
<polygon points="196,359.6 204,359.6 204,367.6 196,367.6" fill="rgb(19,102,139)"/>
<polygon points="204,359.6 212,359.6 212,367.6 204,367.6" fill="rgb(18,99,139)"/>
<polygon points="212,359.6 220,359.6 220,367.6 212,367.6" fill="rgb(13,80,138)"/>
<polygon points="230,359.6 238,359.6 238,367.6 230,367.6" fill="rgb(255,255,255)"/>
<polygon points="238,359.6 246,359.6 246,367.6 238,367.6" fill="rgb(255,255,255)"/>
<polygon points="246,359.6 254,359.6 254,367.6 246,367.6" fill="rgb(255,255,255)"/>
<polygon points="254,359.6 262,359.6 262,367.6 254,367.6" fill="rgb(255,255,255)"/>
<polygon points="262,359.6 270,359.6 270,367.6 262,367.6" fill="rgb(255,255,255)"/>
<polygon points="270,359.6 278,359.6 278,367.6 270,367.6" fill="rgb(255,255,255)"/>
<polygon points="278,359.6 286,359.6 286,367.6 278,367.6" fill="rgb(255,255,255)"/>
<polygon points="286,359.6 294,359.6 294,367.6 286,367.6" fill="rgb(255,255,255)"/>
<polygon points="98,367.6 106,367.6 106,375.6 98,375.6" fill="rgb(205,0,0)"/><text xml:space="preserve" x="102" y="374.433" font-family="Calibri" font-size="7.5" fill="rgb(255,255,255)" text-anchor="middle">5</text>
<polygon points="106,367.6 114,367.6 114,375.6 106,375.6" fill="rgb(230,127,0)"/><text xml:space="preserve" x="110" y="374.433" font-family="Calibri" font-size="7.5" fill="rgb(0,0,0)" text-anchor="middle">4</text>
<polygon points="114,367.6 122,367.6 122,375.6 114,375.6" fill="rgb(255,255,0)"/><text xml:space="preserve" x="118" y="374.433" font-family="Calibri" font-size="7.5" fill="rgb(0,0,0)" text-anchor="middle">3</text>
<polygon points="122,367.6 130,367.6 130,375.6 122,375.6" fill="rgb(255,255,0)"/><text xml:space="preserve" x="126" y="374.433" font-family="Calibri" font-size="7.5" fill="rgb(0,0,0)" text-anchor="middle">3</text>
<polygon points="130,367.6 138,367.6 138,375.6 130,375.6" fill="rgb(255,255,0)"/><text xml:space="preserve" x="134" y="374.433" font-family="Calibri" font-size="7.5" fill="rgb(0,0,0)" text-anchor="middle">3</text>
<polygon points="138,367.6 146,367.6 146,375.6 138,375.6" fill="rgb(255,255,0)"/><text xml:space="preserve" x="142" y="374.433" font-family="Calibri" font-size="7.5" fill="rgb(0,0,0)" text-anchor="middle">3</text>
<polygon points="146,367.6 154,367.6 154,375.6 146,375.6" fill="rgb(255,255,0)"/><text xml:space="preserve" x="150" y="374.433" font-family="Calibri" font-size="7.5" fill="rgb(0,0,0)" text-anchor="middle">3</text>
<polygon points="164,367.6 172,367.6 172,375.6 164,375.6" fill="rgb(252,194,1)"/>
<polygon points="172,367.6 180,367.6 180,375.6 172,375.6" fill="rgb(25,125,140)"/>
<polygon points="180,367.6 188,367.6 188,375.6 180,375.6" fill="rgb(21,112,139)"/>
<polygon points="188,367.6 196,367.6 196,375.6 188,375.6" fill="rgb(20,108,139)"/>
<polygon points="196,367.6 204,367.6 204,375.6 196,375.6" fill="rgb(21,112,139)"/>
<polygon points="204,367.6 212,367.6 212,375.6 204,375.6" fill="rgb(21,111,139)"/>
<polygon points="212,367.6 220,367.6 220,375.6 212,375.6" fill="rgb(19,103,139)"/>
<polygon points="230,367.6 238,367.6 238,375.6 230,375.6" fill="rgb(255,255,255)"/>
<polygon points="238,367.6 246,367.6 246,375.6 238,375.6" fill="rgb(255,255,255)"/>
<polygon points="246,367.6 254,367.6 254,375.6 246,375.6" fill="rgb(255,255,255)"/>
<polygon points="254,367.6 262,367.6 262,375.6 254,375.6" fill="rgb(255,255,255)"/>
<polygon points="262,367.6 270,367.6 270,375.6 262,375.6" fill="rgb(255,255,255)"/>
<polygon points="270,367.6 278,367.6 278,375.6 270,375.6" fill="rgb(255,255,255)"/>
<polygon points="278,367.6 286,367.6 286,375.6 278,375.6" fill="rgb(255,255,255)"/>
<polygon points="286,367.6 294,367.6 294,375.6 286,375.6" fill="rgb(255,255,255)"/>
<polygon points="98,375.6 106,375.6 106,383.6 98,383.6" fill="rgb(205,0,0)"/><text xml:space="preserve" x="102" y="382.433" font-family="Calibri" font-size="7.5" fill="rgb(255,255,255)" text-anchor="middle">5</text>
<polygon points="106,375.6 114,375.6 114,383.6 106,383.6" fill="rgb(230,127,0)"/><text xml:space="preserve" x="110" y="382.433" font-family="Calibri" font-size="7.5" fill="rgb(0,0,0)" text-anchor="middle">4</text>
<polygon points="114,375.6 122,375.6 122,383.6 114,383.6" fill="rgb(255,255,0)"/><text xml:space="preserve" x="118" y="382.433" font-family="Calibri" font-size="7.5" fill="rgb(0,0,0)" text-anchor="middle">3</text>
<polygon points="122,375.6 130,375.6 130,383.6 122,383.6" fill="rgb(255,255,0)"/><text xml:space="preserve" x="126" y="382.433" font-family="Calibri" font-size="7.5" fill="rgb(0,0,0)" text-anchor="middle">3</text>
<polygon points="130,375.6 138,375.6 138,383.6 130,383.6" fill="rgb(255,255,0)"/><text xml:space="preserve" x="134" y="382.433" font-family="Calibri" font-size="7.5" fill="rgb(0,0,0)" text-anchor="middle">3</text>
<polygon points="138,375.6 146,375.6 146,383.6 138,383.6" fill="rgb(255,255,0)"/><text xml:space="preserve" x="142" y="382.433" font-family="Calibri" font-size="7.5" fill="rgb(0,0,0)" text-anchor="middle">3</text>
<polygon points="146,375.6 154,375.6 154,383.6 146,383.6" fill="rgb(255,255,0)"/><text xml:space="preserve" x="150" y="382.433" font-family="Calibri" font-size="7.5" fill="rgb(0,0,0)" text-anchor="middle">3</text>
<polygon points="164,375.6 172,375.6 172,383.6 164,383.6" fill="rgb(243,195,6)"/>
<polygon points="172,375.6 180,375.6 180,383.6 172,383.6" fill="rgb(24,123,140)"/>
<polygon points="180,375.6 188,375.6 188,383.6 180,383.6" fill="rgb(21,111,139)"/>
<polygon points="188,375.6 196,375.6 196,383.6 188,383.6" fill="rgb(20,108,139)"/>
<polygon points="196,375.6 204,375.6 204,383.6 196,383.6" fill="rgb(21,111,139)"/>
<polygon points="204,375.6 212,375.6 212,383.6 204,383.6" fill="rgb(21,110,139)"/>
<polygon points="212,375.6 220,375.6 220,383.6 212,383.6" fill="rgb(18,101,139)"/>
<polygon points="230,375.6 238,375.6 238,383.6 230,383.6" fill="rgb(255,255,255)"/>
<polygon points="238,375.6 246,375.6 246,383.6 238,383.6" fill="rgb(255,255,255)"/>
<polygon points="246,375.6 254,375.6 254,383.6 246,383.6" fill="rgb(255,255,255)"/>
<polygon points="254,375.6 262,375.6 262,383.6 254,383.6" fill="rgb(255,255,255)"/>
<polygon points="262,375.6 270,375.6 270,383.6 262,383.6" fill="rgb(255,255,255)"/>
<polygon points="270,375.6 278,375.6 278,383.6 270,383.6" fill="rgb(255,255,255)"/>
<polygon points="278,375.6 286,375.6 286,383.6 278,383.6" fill="rgb(255,255,255)"/>
<polygon points="286,375.6 294,375.6 294,383.6 286,383.6" fill="rgb(255,255,255)"/>
<polygon points="98,335.6 154,335.6 154,383.6 98,383.6" fill="none" stroke="black" stroke-width="1"/>
<polygon points="164,335.6 220,335.6 220,383.6 164,383.6" fill="none" stroke="black" stroke-width="1"/>
<polygon points="230,335.6 294,335.6 294,383.6 230,383.6" fill="none" stroke="black" stroke-width="1"/>
<text xml:space="preserve" x="157" y="416.6" font-family="Calibri" font-size="8" text-anchor="middle">ClusterAssignment</text>
<polygon points="107,423.6 127,423.6 127,443.6 107,443.6" fill="rgb(0,205,0)"/><polygon points="107,423.6 127,423.6 127,443.6 107,443.6" fill="none" stroke="black" stroke-width="1"/><text xml:space="preserve" x="117" y="436.433" font-family="Calibri" font-size="7.5" fill="rgb(255,255,255)" text-anchor="middle">1.0</text>
<polygon points="127,423.6 147,423.6 147,443.6 127,443.6" fill="rgb(127,230,0)"/><polygon points="127,423.6 147,423.6 147,443.6 127,443.6" fill="none" stroke="black" stroke-width="1"/><text xml:space="preserve" x="137" y="436.433" font-family="Calibri" font-size="7.5" fill="rgb(0,0,0)" text-anchor="middle">2.0</text>
<polygon points="147,423.6 167,423.6 167,443.6 147,443.6" fill="rgb(255,255,0)"/><polygon points="147,423.6 167,423.6 167,443.6 147,443.6" fill="none" stroke="black" stroke-width="1"/><text xml:space="preserve" x="157" y="436.433" font-family="Calibri" font-size="7.5" fill="rgb(0,0,0)" text-anchor="middle">3.0</text>
<polygon points="167,423.6 187,423.6 187,443.6 167,443.6" fill="rgb(230,127,0)"/><polygon points="167,423.6 187,423.6 187,443.6 167,443.6" fill="none" stroke="black" stroke-width="1"/><text xml:space="preserve" x="177" y="436.433" font-family="Calibri" font-size="7.5" fill="rgb(0,0,0)" text-anchor="middle">4.0</text>
<polygon points="187,423.6 207,423.6 207,443.6 187,443.6" fill="rgb(205,0,0)"/><polygon points="187,423.6 207,423.6 207,443.6 187,443.6" fill="none" stroke="black" stroke-width="1"/><text xml:space="preserve" x="197" y="436.433" font-family="Calibri" font-size="7.5" fill="rgb(255,255,255)" text-anchor="middle">5.0</text>
<text xml:space="preserve" x="157" y="476.6" font-family="Calibri" font-size="8" text-anchor="middle">Expression</text>
<polygon points="107,483.6 127,483.6 127,503.6 107,503.6" fill="rgb(0,27,135)"/><polygon points="107,483.6 127,483.6 127,503.6 107,503.6" fill="none" stroke="black" stroke-width="1"/><text xml:space="preserve" x="117" y="496.433" font-family="Calibri" font-size="7.5" fill="rgb(255,255,255)" text-anchor="middle">0.0</text>
<polygon points="127,483.6 147,483.6 147,503.6 127,503.6" fill="rgb(24,123,140)"/><polygon points="127,483.6 147,483.6 147,503.6 127,503.6" fill="none" stroke="black" stroke-width="1"/><text xml:space="preserve" x="137" y="496.433" font-family="Calibri" font-size="7.5" fill="rgb(255,255,255)" text-anchor="middle">0.8</text>
<polygon points="147,483.6 167,483.6 167,503.6 147,503.6" fill="rgb(49,219,146)"/><polygon points="147,483.6 167,483.6 167,503.6 147,503.6" fill="none" stroke="black" stroke-width="1"/><text xml:space="preserve" x="157" y="496.433" font-family="Calibri" font-size="7.5" fill="rgb(0,0,0)" text-anchor="middle">1.5</text>
<polygon points="167,483.6 187,483.6 187,503.6 167,503.6" fill="rgb(150,206,73)"/><polygon points="167,483.6 187,483.6 187,503.6 167,503.6" fill="none" stroke="black" stroke-width="1"/><text xml:space="preserve" x="177" y="496.433" font-family="Calibri" font-size="7.5" fill="rgb(0,0,0)" text-anchor="middle">2.2</text>
<polygon points="187,483.6 207,483.6 207,503.6 187,503.6" fill="rgb(252,194,1)"/><polygon points="187,483.6 207,483.6 207,503.6 187,503.6" fill="none" stroke="black" stroke-width="1"/><text xml:space="preserve" x="197" y="496.433" font-family="Calibri" font-size="7.5" fill="rgb(0,0,0)" text-anchor="middle">3.0</text>
<text xml:space="preserve" x="157" y="536.6" font-family="Calibri" font-size="8" text-anchor="middle">PANTHERclass</text>
<polygon points="107,543.6 127,543.6 127,563.6 107,563.6" fill="rgb(255,255,255)"/><polygon points="107,543.6 127,543.6 127,563.6 107,563.6" fill="none" stroke="black" stroke-width="1"/><text xml:space="preserve" x="117" y="556.433" font-family="Calibri" font-size="7.5" fill="rgb(0,0,0)" text-anchor="middle">0.0</text>
<polygon points="127,543.6 147,543.6 147,563.6 127,563.6" fill="rgb(242,191,242)"/><polygon points="127,543.6 147,543.6 147,563.6 127,563.6" fill="none" stroke="black" stroke-width="1"/><text xml:space="preserve" x="137" y="556.433" font-family="Calibri" font-size="7.5" fill="rgb(0,0,0)" text-anchor="middle">0.2</text>
<polygon points="147,543.6 167,543.6 167,563.6 147,563.6" fill="rgb(230,127,230)"/><polygon points="147,543.6 167,543.6 167,563.6 147,563.6" fill="none" stroke="black" stroke-width="1"/><text xml:space="preserve" x="157" y="556.433" font-family="Calibri" font-size="7.5" fill="rgb(0,0,0)" text-anchor="middle">0.5</text>
<polygon points="167,543.6 187,543.6 187,563.6 167,563.6" fill="rgb(217,63,217)"/><polygon points="167,543.6 187,543.6 187,563.6 167,563.6" fill="none" stroke="black" stroke-width="1"/><text xml:space="preserve" x="177" y="556.433" font-family="Calibri" font-size="7.5" fill="rgb(255,255,255)" text-anchor="middle">0.8</text>
<polygon points="187,543.6 207,543.6 207,563.6 187,563.6" fill="rgb(205,0,205)"/><polygon points="187,543.6 207,543.6 207,563.6 187,563.6" fill="none" stroke="black" stroke-width="1"/><text xml:space="preserve" x="197" y="556.433" font-family="Calibri" font-size="7.5" fill="rgb(255,255,255)" text-anchor="middle">1.0</text>
</svg>
