<?xml version="1.0" standalone="no"?><!DOCTYPE svg PUBLIC "-//W3C//DTD SVG 1.1//EN" "http://www.w3.org/Graphics/SVG/1.1/DTD/svg11.dtd">
<svg width="299" height="559.6" version="1.1" xmlns="http://www.w3.org/2000/svg">
<text xml:space="preserve" x="79" y="342.6" font-family="Calibri" font-size="8" text-anchor="end">EPHA5</text>
<text xml:space="preserve" x="79" y="350.6" font-family="Calibri" font-size="8" text-anchor="end">HOXB8</text>
<text xml:space="preserve" x="79" y="358.6" font-family="Calibri" font-size="8" text-anchor="end">HOXB7</text>
<text xml:space="preserve" x="90" y="331.6" font-family="Calibri" font-size="8" transform="rotate(270 90 331.6)">c3</text>
<text xml:space="preserve" x="98" y="331.6" font-family="Calibri" font-size="8" transform="rotate(270 98 331.6)">c1</text>
<text xml:space="preserve" x="106" y="331.6" font-family="Calibri" font-size="8" transform="rotate(270 106 331.6)">c4</text>
<text xml:space="preserve" x="114" y="331.6" font-family="Calibri" font-size="8" transform="rotate(270 114 331.6)">c5</text>
<text xml:space="preserve" x="122" y="331.6" font-family="Calibri" font-size="8" transform="rotate(270 122 331.6)">c2</text>
<text xml:space="preserve" x="130" y="331.6" font-family="Calibri" font-size="8" transform="rotate(270 130 331.6)">c6</text>
<text xml:space="preserve" x="138" y="331.6" font-family="Calibri" font-size="8" transform="rotate(270 138 331.6)">c7</text>
<text xml:space="preserve" x="156" y="331.6" font-family="Calibri" font-size="8" transform="rotate(270 156 331.6)">c3_mean</text>
<text xml:space="preserve" x="164" y="331.6" font-family="Calibri" font-size="8" transform="rotate(270 164 331.6)">c1_mean</text>
<text xml:space="preserve" x="172" y="331.6" font-family="Calibri" font-size="8" transform="rotate(270 172 331.6)">c4_mean</text>
<text xml:space="preserve" x="180" y="331.6" font-family="Calibri" font-size="8" transform="rotate(270 180 331.6)">c5_mean</text>
<text xml:space="preserve" x="188" y="331.6" font-family="Calibri" font-size="8" transform="rotate(270 188 331.6)">c2_mean</text>
<text xml:space="preserve" x="196" y="331.6" font-family="Calibri" font-size="8" transform="rotate(270 196 331.6)">c6_mean</text>
<text xml:space="preserve" x="204" y="331.6" font-family="Calibri" font-size="8" transform="rotate(270 204 331.6)">c7_mean</text>
<text xml:space="preserve" x="222" y="331.6" font-family="Calibri" font-size="8" transform="rotate(270 222 331.6)">transcription_factor</text>
<text xml:space="preserve" x="230" y="331.6" font-family="Calibri" font-size="8" transform="rotate(270 230 331.6)">transmembrane_signal_receptor</text>
<text xml:space="preserve" x="238" y="331.6" font-family="Calibri" font-size="8" transform="rotate(270 238 331.6)">growth_factor</text>
<text xml:space="preserve" x="246" y="331.6" font-family="Calibri" font-size="8" transform="rotate(270 246 331.6)">peptide_hormone</text>
<text xml:space="preserve" x="254" y="331.6" font-family="Calibri" font-size="8" transform="rotate(270 254 331.6)">cytoskeletal_protein</text>
<text xml:space="preserve" x="262" y="331.6" font-family="Calibri" font-size="8" transform="rotate(270 262 331.6)">ion_channel</text>
<text xml:space="preserve" x="270" y="331.6" font-family="Calibri" font-size="8" transform="rotate(270 270 331.6)">integrin</text>
<text xml:space="preserve" x="278" y="331.6" font-family="Calibri" font-size="8" transform="rotate(270 278 331.6)">extracellular_matrix_protein</text>
<polygon points="83,335.6 91,335.6 91,343.6 83,343.6" fill="rgb(230,127,0)"/><text xml:space="preserve" x="87" y="342.433" font-family="Calibri" font-size="7.5" fill="rgb(0,0,0)" text-anchor="middle">4</text>
<polygon points="91,335.6 99,335.6 99,343.6 91,343.6" fill="rgb(230,127,0)"/><text xml:space="preserve" x="95" y="342.433" font-family="Calibri" font-size="7.5" fill="rgb(0,0,0)" text-anchor="middle">4</text>
<polygon points="99,335.6 107,335.6 107,343.6 99,343.6" fill="rgb(205,0,0)"/><text xml:space="preserve" x="103" y="342.433" font-family="Calibri" font-size="7.5" fill="rgb(255,255,255)" text-anchor="middle">5</text>
<polygon points="107,335.6 115,335.6 115,343.6 107,343.6" fill="rgb(0,205,0)"/><text xml:space="preserve" x="111" y="342.433" font-family="Calibri" font-size="7.5" fill="rgb(255,255,255)" text-anchor="middle">1</text>
<polygon points="115,335.6 123,335.6 123,343.6 115,343.6" fill="rgb(0,205,0)"/><text xml:space="preserve" x="119" y="342.433" font-family="Calibri" font-size="7.5" fill="rgb(255,255,255)" text-anchor="middle">1</text>
<polygon points="123,335.6 131,335.6 131,343.6 123,343.6" fill="rgb(0,205,0)"/><text xml:space="preserve" x="127" y="342.433" font-family="Calibri" font-size="7.5" fill="rgb(255,255,255)" text-anchor="middle">1</text>
<polygon points="131,335.6 139,335.6 139,343.6 131,343.6" fill="rgb(0,205,0)"/><text xml:space="preserve" x="135" y="342.433" font-family="Calibri" font-size="7.5" fill="rgb(255,255,255)" text-anchor="middle">1</text>
<polygon points="149,335.6 157,335.6 157,343.6 149,343.6" fill="rgb(42,193,144)"/>
<polygon points="157,335.6 165,335.6 165,343.6 157,343.6" fill="rgb(37,172,143)"/>
<polygon points="165,335.6 173,335.6 173,343.6 165,343.6" fill="rgb(34,163,142)"/>
<polygon points="173,335.6 181,335.6 181,343.6 173,343.6" fill="rgb(5,48,136)"/>
<polygon points="181,335.6 189,335.6 189,343.6 181,343.6" fill="rgb(0,28,135)"/>
<polygon points="189,335.6 197,335.6 197,343.6 189,343.6" fill="rgb(3,41,135)"/>
<polygon points="197,335.6 205,335.6 205,343.6 197,343.6" fill="rgb(2,37,135)"/>
<polygon points="215,335.6 223,335.6 223,343.6 215,343.6" fill="rgb(255,255,255)"/>
<polygon points="223,335.6 231,335.6 231,343.6 223,343.6" fill="rgb(205,0,205)"/>
<polygon points="231,335.6 239,335.6 239,343.6 231,343.6" fill="rgb(255,255,255)"/>
<polygon points="239,335.6 247,335.6 247,343.6 239,343.6" fill="rgb(255,255,255)"/>
<polygon points="247,335.6 255,335.6 255,343.6 247,343.6" fill="rgb(255,255,255)"/>
<polygon points="255,335.6 263,335.6 263,343.6 255,343.6" fill="rgb(255,255,255)"/>
<polygon points="263,335.6 271,335.6 271,343.6 263,343.6" fill="rgb(255,255,255)"/>
<polygon points="271,335.6 279,335.6 279,343.6 271,343.6" fill="rgb(255,255,255)"/>
<polygon points="83,343.6 91,343.6 91,351.6 83,351.6" fill="rgb(230,127,0)"/><text xml:space="preserve" x="87" y="350.433" font-family="Calibri" font-size="7.5" fill="rgb(0,0,0)" text-anchor="middle">4</text>
<polygon points="91,343.6 99,343.6 99,351.6 91,351.6" fill="rgb(230,127,0)"/><text xml:space="preserve" x="95" y="350.433" font-family="Calibri" font-size="7.5" fill="rgb(0,0,0)" text-anchor="middle">4</text>
<polygon points="99,343.6 107,343.6 107,351.6 99,351.6" fill="rgb(205,0,0)"/><text xml:space="preserve" x="103" y="350.433" font-family="Calibri" font-size="7.5" fill="rgb(255,255,255)" text-anchor="middle">5</text>
<polygon points="107,343.6 115,343.6 115,351.6 107,351.6" fill="rgb(0,205,0)"/><text xml:space="preserve" x="111" y="350.433" font-family="Calibri" font-size="7.5" fill="rgb(255,255,255)" text-anchor="middle">1</text>
<polygon points="115,343.6 123,343.6 123,351.6 115,351.6" fill="rgb(0,205,0)"/><text xml:space="preserve" x="119" y="350.433" font-family="Calibri" font-size="7.5" fill="rgb(255,255,255)" text-anchor="middle">1</text>
<polygon points="123,343.6 131,343.6 131,351.6 123,351.6" fill="rgb(0,205,0)"/><text xml:space="preserve" x="127" y="350.433" font-family="Calibri" font-size="7.5" fill="rgb(255,255,255)" text-anchor="middle">1</text>
<polygon points="131,343.6 139,343.6 139,351.6 131,351.6" fill="rgb(0,205,0)"/><text xml:space="preserve" x="135" y="350.433" font-family="Calibri" font-size="7.5" fill="rgb(255,255,255)" text-anchor="middle">1</text>
<polygon points="149,343.6 157,343.6 157,351.6 149,351.6" fill="rgb(25,125,140)"/>
<polygon points="157,343.6 165,343.6 165,351.6 157,351.6" fill="rgb(24,121,140)"/>
<polygon points="165,343.6 173,343.6 173,351.6 165,351.6" fill="rgb(27,135,141)"/>
<polygon points="173,343.6 181,343.6 181,351.6 173,351.6" fill="rgb(3,41,135)"/>
<polygon points="181,343.6 189,343.6 189,351.6 181,351.6" fill="rgb(0,27,135)"/>
<polygon points="189,343.6 197,343.6 197,351.6 189,351.6" fill="rgb(0,27,135)"/>
<polygon points="197,343.6 205,343.6 205,351.6 197,351.6" fill="rgb(0,27,135)"/>
<polygon points="215,343.6 223,343.6 223,351.6 215,351.6" fill="rgb(205,0,205)"/>
<polygon points="223,343.6 231,343.6 231,351.6 223,351.6" fill="rgb(255,255,255)"/>
<polygon points="231,343.6 239,343.6 239,351.6 231,351.6" fill="rgb(255,255,255)"/>
<polygon points="239,343.6 247,343.6 247,351.6 239,351.6" fill="rgb(255,255,255)"/>
<polygon points="247,343.6 255,343.6 255,351.6 247,351.6" fill="rgb(255,255,255)"/>
<polygon points="255,343.6 263,343.6 263,351.6 255,351.6" fill="rgb(255,255,255)"/>
<polygon points="263,343.6 271,343.6 271,351.6 263,351.6" fill="rgb(255,255,255)"/>
<polygon points="271,343.6 279,343.6 279,351.6 271,351.6" fill="rgb(255,255,255)"/>
<polygon points="83,351.6 91,351.6 91,359.6 83,359.6" fill="rgb(230,127,0)"/><text xml:space="preserve" x="87" y="358.433" font-family="Calibri" font-size="7.5" fill="rgb(0,0,0)" text-anchor="middle">4</text>
<polygon points="91,351.6 99,351.6 99,359.6 91,359.6" fill="rgb(230,127,0)"/><text xml:space="preserve" x="95" y="358.433" font-family="Calibri" font-size="7.5" fill="rgb(0,0,0)" text-anchor="middle">4</text>
<polygon points="99,351.6 107,351.6 107,359.6 99,359.6" fill="rgb(205,0,0)"/><text xml:space="preserve" x="103" y="358.433" font-family="Calibri" font-size="7.5" fill="rgb(255,255,255)" text-anchor="middle">5</text>
<polygon points="107,351.6 115,351.6 115,359.6 107,359.6" fill="rgb(0,205,0)"/><text xml:space="preserve" x="111" y="358.433" font-family="Calibri" font-size="7.5" fill="rgb(255,255,255)" text-anchor="middle">1</text>
<polygon points="115,351.6 123,351.6 123,359.6 115,359.6" fill="rgb(0,205,0)"/><text xml:space="preserve" x="119" y="358.433" font-family="Calibri" font-size="7.5" fill="rgb(255,255,255)" text-anchor="middle">1</text>
<polygon points="123,351.6 131,351.6 131,359.6 123,359.6" fill="rgb(0,205,0)"/><text xml:space="preserve" x="127" y="358.433" font-family="Calibri" font-size="7.5" fill="rgb(255,255,255)" text-anchor="middle">1</text>
<polygon points="131,351.6 139,351.6 139,359.6 131,359.6" fill="rgb(0,205,0)"/><text xml:space="preserve" x="135" y="358.433" font-family="Calibri" font-size="7.5" fill="rgb(255,255,255)" text-anchor="middle">1</text>
<polygon points="149,351.6 157,351.6 157,359.6 149,359.6" fill="rgb(35,167,143)"/>
<polygon points="157,351.6 165,351.6 165,359.6 157,359.6" fill="rgb(36,169,143)"/>
<polygon points="165,351.6 173,351.6 173,359.6 165,359.6" fill="rgb(30,144,141)"/>
<polygon points="173,351.6 181,351.6 181,359.6 173,359.6" fill="rgb(4,44,136)"/>
<polygon points="181,351.6 189,351.6 189,359.6 181,359.6" fill="rgb(0,27,135)"/>
<polygon points="189,351.6 197,351.6 197,359.6 189,359.6" fill="rgb(0,28,135)"/>
<polygon points="197,351.6 205,351.6 205,359.6 197,359.6" fill="rgb(0,27,135)"/>
<polygon points="215,351.6 223,351.6 223,359.6 215,359.6" fill="rgb(205,0,205)"/>
<polygon points="223,351.6 231,351.6 231,359.6 223,359.6" fill="rgb(255,255,255)"/>
<polygon points="231,351.6 239,351.6 239,359.6 231,359.6" fill="rgb(255,255,255)"/>
<polygon points="239,351.6 247,351.6 247,359.6 239,359.6" fill="rgb(255,255,255)"/>
<polygon points="247,351.6 255,351.6 255,359.6 247,359.6" fill="rgb(255,255,255)"/>
<polygon points="255,351.6 263,351.6 263,359.6 255,359.6" fill="rgb(255,255,255)"/>
<polygon points="263,351.6 271,351.6 271,359.6 263,359.6" fill="rgb(255,255,255)"/>
<polygon points="271,351.6 279,351.6 279,359.6 271,359.6" fill="rgb(255,255,255)"/>
<polygon points="83,335.6 139,335.6 139,359.6 83,359.6" fill="none" stroke="black" stroke-width="1"/>
<polygon points="149,335.6 205,335.6 205,359.6 149,359.6" fill="none" stroke="black" stroke-width="1"/>
<polygon points="215,335.6 279,335.6 279,359.6 215,359.6" fill="none" stroke="black" stroke-width="1"/>
<text xml:space="preserve" x="149.5" y="392.6" font-family="Calibri" font-size="8" text-anchor="middle">ClusterAssignment</text>
<polygon points="99.5,399.6 119.5,399.6 119.5,419.6 99.5,419.6" fill="rgb(0,205,0)"/><polygon points="99.5,399.6 119.5,399.6 119.5,419.6 99.5,419.6" fill="none" stroke="black" stroke-width="1"/><text xml:space="preserve" x="109.5" y="412.433" font-family="Calibri" font-size="7.5" fill="rgb(255,255,255)" text-anchor="middle">1.0</text>
<polygon points="119.5,399.6 139.5,399.6 139.5,419.6 119.5,419.6" fill="rgb(127,230,0)"/><polygon points="119.5,399.6 139.5,399.6 139.5,419.6 119.5,419.6" fill="none" stroke="black" stroke-width="1"/><text xml:space="preserve" x="129.5" y="412.433" font-family="Calibri" font-size="7.5" fill="rgb(0,0,0)" text-anchor="middle">2.0</text>
<polygon points="139.5,399.6 159.5,399.6 159.5,419.6 139.5,419.6" fill="rgb(255,255,0)"/><polygon points="139.5,399.6 159.5,399.6 159.5,419.6 139.5,419.6" fill="none" stroke="black" stroke-width="1"/><text xml:space="preserve" x="149.5" y="412.433" font-family="Calibri" font-size="7.5" fill="rgb(0,0,0)" text-anchor="middle">3.0</text>
<polygon points="159.5,399.6 179.5,399.6 179.5,419.6 159.5,419.6" fill="rgb(230,127,0)"/><polygon points="159.5,399.6 179.5,399.6 179.5,419.6 159.5,419.6" fill="none" stroke="black" stroke-width="1"/><text xml:space="preserve" x="169.5" y="412.433" font-family="Calibri" font-size="7.5" fill="rgb(0,0,0)" text-anchor="middle">4.0</text>
<polygon points="179.5,399.6 199.5,399.6 199.5,419.6 179.5,419.6" fill="rgb(205,0,0)"/><polygon points="179.5,399.6 199.5,399.6 199.5,419.6 179.5,419.6" fill="none" stroke="black" stroke-width="1"/><text xml:space="preserve" x="189.5" y="412.433" font-family="Calibri" font-size="7.5" fill="rgb(255,255,255)" text-anchor="middle">5.0</text>
<text xml:space="preserve" x="149.5" y="452.6" font-family="Calibri" font-size="8" text-anchor="middle">Expression</text>
<polygon points="99.5,459.6 119.5,459.6 119.5,479.6 99.5,479.6" fill="rgb(0,27,135)"/><polygon points="99.5,459.6 119.5,459.6 119.5,479.6 99.5,479.6" fill="none" stroke="black" stroke-width="1"/><text xml:space="preserve" x="109.5" y="472.433" font-family="Calibri" font-size="7.5" fill="rgb(255,255,255)" text-anchor="middle">0.0</text>
<polygon points="119.5,459.6 139.5,459.6 139.5,479.6 119.5,479.6" fill="rgb(24,123,140)"/><polygon points="119.5,459.6 139.5,459.6 139.5,479.6 119.5,479.6" fill="none" stroke="black" stroke-width="1"/><text xml:space="preserve" x="129.5" y="472.433" font-family="Calibri" font-size="7.5" fill="rgb(255,255,255)" text-anchor="middle">0.8</text>
<polygon points="139.5,459.6 159.5,459.6 159.5,479.6 139.5,479.6" fill="rgb(49,219,146)"/><polygon points="139.5,459.6 159.5,459.6 159.5,479.6 139.5,479.6" fill="none" stroke="black" stroke-width="1"/><text xml:space="preserve" x="149.5" y="472.433" font-family="Calibri" font-size="7.5" fill="rgb(0,0,0)" text-anchor="middle">1.5</text>
<polygon points="159.5,459.6 179.5,459.6 179.5,479.6 159.5,479.6" fill="rgb(150,206,73)"/><polygon points="159.5,459.6 179.5,459.6 179.5,479.6 159.5,479.6" fill="none" stroke="black" stroke-width="1"/><text xml:space="preserve" x="169.5" y="472.433" font-family="Calibri" font-size="7.5" fill="rgb(0,0,0)" text-anchor="middle">2.2</text>
<polygon points="179.5,459.6 199.5,459.6 199.5,479.6 179.5,479.6" fill="rgb(252,194,1)"/><polygon points="179.5,459.6 199.5,459.6 199.5,479.6 179.5,479.6" fill="none" stroke="black" stroke-width="1"/><text xml:space="preserve" x="189.5" y="472.433" font-family="Calibri" font-size="7.5" fill="rgb(0,0,0)" text-anchor="middle">3.0</text>
<text xml:space="preserve" x="149.5" y="512.6" font-family="Calibri" font-size="8" text-anchor="middle">PANTHERclass</text>
<polygon points="99.5,519.6 119.5,519.6 119.5,539.6 99.5,539.6" fill="rgb(255,255,255)"/><polygon points="99.5,519.6 119.5,519.6 119.5,539.6 99.5,539.6" fill="none" stroke="black" stroke-width="1"/><text xml:space="preserve" x="109.5" y="532.433" font-family="Calibri" font-size="7.5" fill="rgb(0,0,0)" text-anchor="middle">0.0</text>
<polygon points="119.5,519.6 139.5,519.6 139.5,539.6 119.5,539.6" fill="rgb(242,191,242)"/><polygon points="119.5,519.6 139.5,519.6 139.5,539.6 119.5,539.6" fill="none" stroke="black" stroke-width="1"/><text xml:space="preserve" x="129.5" y="532.433" font-family="Calibri" font-size="7.5" fill="rgb(0,0,0)" text-anchor="middle">0.2</text>
<polygon points="139.5,519.6 159.5,519.6 159.5,539.6 139.5,539.6" fill="rgb(230,127,230)"/><polygon points="139.5,519.6 159.5,519.6 159.5,539.6 139.5,539.6" fill="none" stroke="black" stroke-width="1"/><text xml:space="preserve" x="149.5" y="532.433" font-family="Calibri" font-size="7.5" fill="rgb(0,0,0)" text-anchor="middle">0.5</text>
<polygon points="159.5,519.6 179.5,519.6 179.5,539.6 159.5,539.6" fill="rgb(217,63,217)"/><polygon points="159.5,519.6 179.5,519.6 179.5,539.6 159.5,539.6" fill="none" stroke="black" stroke-width="1"/><text xml:space="preserve" x="169.5" y="532.433" font-family="Calibri" font-size="7.5" fill="rgb(255,255,255)" text-anchor="middle">0.8</text>
<polygon points="179.5,519.6 199.5,519.6 199.5,539.6 179.5,539.6" fill="rgb(205,0,205)"/><polygon points="179.5,519.6 199.5,519.6 199.5,539.6 179.5,539.6" fill="none" stroke="black" stroke-width="1"/><text xml:space="preserve" x="189.5" y="532.433" font-family="Calibri" font-size="7.5" fill="rgb(255,255,255)" text-anchor="middle">1.0</text>
</svg>
