<?xml version="1.0" standalone="no"?><!DOCTYPE svg PUBLIC "-//W3C//DTD SVG 1.1//EN" "http://www.w3.org/Graphics/SVG/1.1/DTD/svg11.dtd">
<svg width="297.8" height="559.6" version="1.1" xmlns="http://www.w3.org/2000/svg">
<text xml:space="preserve" x="77.8" y="342.6" font-family="Calibri" font-size="8" text-anchor="end">ADCY2</text>
<text xml:space="preserve" x="77.8" y="350.6" font-family="Calibri" font-size="8" text-anchor="end">CHST2</text>
<text xml:space="preserve" x="77.8" y="358.6" font-family="Calibri" font-size="8" text-anchor="end">CDH13</text>
<text xml:space="preserve" x="88.8" y="331.6" font-family="Calibri" font-size="8" transform="rotate(270 88.8 331.6)">c3</text>
<text xml:space="preserve" x="96.8" y="331.6" font-family="Calibri" font-size="8" transform="rotate(270 96.8 331.6)">c1</text>
<text xml:space="preserve" x="104.8" y="331.6" font-family="Calibri" font-size="8" transform="rotate(270 104.8 331.6)">c4</text>
<text xml:space="preserve" x="112.8" y="331.6" font-family="Calibri" font-size="8" transform="rotate(270 112.8 331.6)">c5</text>
<text xml:space="preserve" x="120.8" y="331.6" font-family="Calibri" font-size="8" transform="rotate(270 120.8 331.6)">c2</text>
<text xml:space="preserve" x="128.8" y="331.6" font-family="Calibri" font-size="8" transform="rotate(270 128.8 331.6)">c6</text>
<text xml:space="preserve" x="136.8" y="331.6" font-family="Calibri" font-size="8" transform="rotate(270 136.8 331.6)">c7</text>
<text xml:space="preserve" x="154.8" y="331.6" font-family="Calibri" font-size="8" transform="rotate(270 154.8 331.6)">c3_mean</text>
<text xml:space="preserve" x="162.8" y="331.6" font-family="Calibri" font-size="8" transform="rotate(270 162.8 331.6)">c1_mean</text>
<text xml:space="preserve" x="170.8" y="331.6" font-family="Calibri" font-size="8" transform="rotate(270 170.8 331.6)">c4_mean</text>
<text xml:space="preserve" x="178.8" y="331.6" font-family="Calibri" font-size="8" transform="rotate(270 178.8 331.6)">c5_mean</text>
<text xml:space="preserve" x="186.8" y="331.6" font-family="Calibri" font-size="8" transform="rotate(270 186.8 331.6)">c2_mean</text>
<text xml:space="preserve" x="194.8" y="331.6" font-family="Calibri" font-size="8" transform="rotate(270 194.8 331.6)">c6_mean</text>
<text xml:space="preserve" x="202.8" y="331.6" font-family="Calibri" font-size="8" transform="rotate(270 202.8 331.6)">c7_mean</text>
<text xml:space="preserve" x="220.8" y="331.6" font-family="Calibri" font-size="8" transform="rotate(270 220.8 331.6)">transcription_factor</text>
<text xml:space="preserve" x="228.8" y="331.6" font-family="Calibri" font-size="8" transform="rotate(270 228.8 331.6)">transmembrane_signal_receptor</text>
<text xml:space="preserve" x="236.8" y="331.6" font-family="Calibri" font-size="8" transform="rotate(270 236.8 331.6)">growth_factor</text>
<text xml:space="preserve" x="244.8" y="331.6" font-family="Calibri" font-size="8" transform="rotate(270 244.8 331.6)">peptide_hormone</text>
<text xml:space="preserve" x="252.8" y="331.6" font-family="Calibri" font-size="8" transform="rotate(270 252.8 331.6)">cytoskeletal_protein</text>
<text xml:space="preserve" x="260.8" y="331.6" font-family="Calibri" font-size="8" transform="rotate(270 260.8 331.6)">ion_channel</text>
<text xml:space="preserve" x="268.8" y="331.6" font-family="Calibri" font-size="8" transform="rotate(270 268.8 331.6)">integrin</text>
<text xml:space="preserve" x="276.8" y="331.6" font-family="Calibri" font-size="8" transform="rotate(270 276.8 331.6)">extracellular_matrix_protein</text>
<polygon points="81.8,335.6 89.8,335.6 89.8,343.6 81.8,343.6" fill="rgb(127,230,0)"/><text xml:space="preserve" x="85.8" y="342.433" font-family="Calibri" font-size="7.5" fill="rgb(0,0,0)" text-anchor="middle">2</text>
<polygon points="89.8,335.6 97.8,335.6 97.8,343.6 89.8,343.6" fill="rgb(127,230,0)"/><text xml:space="preserve" x="93.8" y="342.433" font-family="Calibri" font-size="7.5" fill="rgb(0,0,0)" text-anchor="middle">2</text>
<polygon points="97.8,335.6 105.8,335.6 105.8,343.6 97.8,343.6" fill="rgb(255,255,0)"/><text xml:space="preserve" x="101.8" y="342.433" font-family="Calibri" font-size="7.5" fill="rgb(0,0,0)" text-anchor="middle">3</text>
<polygon points="105.8,335.6 113.8,335.6 113.8,343.6 105.8,343.6" fill="rgb(205,0,0)"/><text xml:space="preserve" x="109.8" y="342.433" font-family="Calibri" font-size="7.5" fill="rgb(255,255,255)" text-anchor="middle">5</text>
<polygon points="113.8,335.6 121.8,335.6 121.8,343.6 113.8,343.6" fill="rgb(205,0,0)"/><text xml:space="preserve" x="117.8" y="342.433" font-family="Calibri" font-size="7.5" fill="rgb(255,255,255)" text-anchor="middle">5</text>
<polygon points="121.8,335.6 129.8,335.6 129.8,343.6 121.8,343.6" fill="rgb(255,255,0)"/><text xml:space="preserve" x="125.8" y="342.433" font-family="Calibri" font-size="7.5" fill="rgb(0,0,0)" text-anchor="middle">3</text>
<polygon points="129.8,335.6 137.8,335.6 137.8,343.6 129.8,343.6" fill="rgb(230,127,0)"/><text xml:space="preserve" x="133.8" y="342.433" font-family="Calibri" font-size="7.5" fill="rgb(0,0,0)" text-anchor="middle">4</text>
<polygon points="147.8,335.6 155.8,335.6 155.8,343.6 147.8,343.6" fill="rgb(6,51,136)"/>
<polygon points="155.8,335.6 163.8,335.6 163.8,343.6 155.8,343.6" fill="rgb(6,52,136)"/>
<polygon points="163.8,335.6 171.8,335.6 171.8,343.6 163.8,343.6" fill="rgb(15,88,138)"/>
<polygon points="171.8,335.6 179.8,335.6 179.8,343.6 171.8,343.6" fill="rgb(35,165,142)"/>
<polygon points="179.8,335.6 187.8,335.6 187.8,343.6 179.8,343.6" fill="rgb(30,144,141)"/>
<polygon points="187.8,335.6 195.8,335.6 195.8,343.6 187.8,343.6" fill="rgb(16,91,138)"/>
<polygon points="195.8,335.6 203.8,335.6 203.8,343.6 195.8,343.6" fill="rgb(27,134,141)"/>
<polygon points="213.8,335.6 221.8,335.6 221.8,343.6 213.8,343.6" fill="rgb(255,255,255)"/>
<polygon points="221.8,335.6 229.8,335.6 229.8,343.6 221.8,343.6" fill="rgb(255,255,255)"/>
<polygon points="229.8,335.6 237.8,335.6 237.8,343.6 229.8,343.6" fill="rgb(255,255,255)"/>
<polygon points="237.8,335.6 245.8,335.6 245.8,343.6 237.8,343.6" fill="rgb(255,255,255)"/>
<polygon points="245.8,335.6 253.8,335.6 253.8,343.6 245.8,343.6" fill="rgb(255,255,255)"/>
<polygon points="253.8,335.6 261.8,335.6 261.8,343.6 253.8,343.6" fill="rgb(255,255,255)"/>
<polygon points="261.8,335.6 269.8,335.6 269.8,343.6 261.8,343.6" fill="rgb(255,255,255)"/>
<polygon points="269.8,335.6 277.8,335.6 277.8,343.6 269.8,343.6" fill="rgb(255,255,255)"/>
<polygon points="81.8,343.6 89.8,343.6 89.8,351.6 81.8,351.6" fill="rgb(127,230,0)"/><text xml:space="preserve" x="85.8" y="350.433" font-family="Calibri" font-size="7.5" fill="rgb(0,0,0)" text-anchor="middle">2</text>
<polygon points="89.8,343.6 97.8,343.6 97.8,351.6 89.8,351.6" fill="rgb(127,230,0)"/><text xml:space="preserve" x="93.8" y="350.433" font-family="Calibri" font-size="7.5" fill="rgb(0,0,0)" text-anchor="middle">2</text>
<polygon points="97.8,343.6 105.8,343.6 105.8,351.6 97.8,351.6" fill="rgb(255,255,0)"/><text xml:space="preserve" x="101.8" y="350.433" font-family="Calibri" font-size="7.5" fill="rgb(0,0,0)" text-anchor="middle">3</text>
<polygon points="105.8,343.6 113.8,343.6 113.8,351.6 105.8,351.6" fill="rgb(205,0,0)"/><text xml:space="preserve" x="109.8" y="350.433" font-family="Calibri" font-size="7.5" fill="rgb(255,255,255)" text-anchor="middle">5</text>
<polygon points="113.8,343.6 121.8,343.6 121.8,351.6 113.8,351.6" fill="rgb(205,0,0)"/><text xml:space="preserve" x="117.8" y="350.433" font-family="Calibri" font-size="7.5" fill="rgb(255,255,255)" text-anchor="middle">5</text>
<polygon points="121.8,343.6 129.8,343.6 129.8,351.6 121.8,351.6" fill="rgb(255,255,0)"/><text xml:space="preserve" x="125.8" y="350.433" font-family="Calibri" font-size="7.5" fill="rgb(0,0,0)" text-anchor="middle">3</text>
<polygon points="129.8,343.6 137.8,343.6 137.8,351.6 129.8,351.6" fill="rgb(230,127,0)"/><text xml:space="preserve" x="133.8" y="350.433" font-family="Calibri" font-size="7.5" fill="rgb(0,0,0)" text-anchor="middle">4</text>
<polygon points="147.8,343.6 155.8,343.6 155.8,351.6 147.8,351.6" fill="rgb(7,55,136)"/>
<polygon points="155.8,343.6 163.8,343.6 163.8,351.6 155.8,351.6" fill="rgb(8,59,136)"/>
<polygon points="163.8,343.6 171.8,343.6 171.8,351.6 163.8,351.6" fill="rgb(10,69,137)"/>
<polygon points="171.8,343.6 179.8,343.6 179.8,351.6 171.8,351.6" fill="rgb(29,142,141)"/>
<polygon points="179.8,343.6 187.8,343.6 187.8,351.6 179.8,351.6" fill="rgb(33,160,142)"/>
<polygon points="187.8,343.6 195.8,343.6 195.8,351.6 187.8,351.6" fill="rgb(16,91,138)"/>
<polygon points="195.8,343.6 203.8,343.6 203.8,351.6 195.8,351.6" fill="rgb(20,108,139)"/>
<polygon points="213.8,343.6 221.8,343.6 221.8,351.6 213.8,351.6" fill="rgb(255,255,255)"/>
<polygon points="221.8,343.6 229.8,343.6 229.8,351.6 221.8,351.6" fill="rgb(255,255,255)"/>
<polygon points="229.8,343.6 237.8,343.6 237.8,351.6 229.8,351.6" fill="rgb(255,255,255)"/>
<polygon points="237.8,343.6 245.8,343.6 245.8,351.6 237.8,351.6" fill="rgb(255,255,255)"/>
<polygon points="245.8,343.6 253.8,343.6 253.8,351.6 245.8,351.6" fill="rgb(255,255,255)"/>
<polygon points="253.8,343.6 261.8,343.6 261.8,351.6 253.8,351.6" fill="rgb(255,255,255)"/>
<polygon points="261.8,343.6 269.8,343.6 269.8,351.6 261.8,351.6" fill="rgb(255,255,255)"/>
<polygon points="269.8,343.6 277.8,343.6 277.8,351.6 269.8,351.6" fill="rgb(255,255,255)"/>
<polygon points="81.8,351.6 89.8,351.6 89.8,359.6 81.8,359.6" fill="rgb(127,230,0)"/><text xml:space="preserve" x="85.8" y="358.433" font-family="Calibri" font-size="7.5" fill="rgb(0,0,0)" text-anchor="middle">2</text>
<polygon points="89.8,351.6 97.8,351.6 97.8,359.6 89.8,359.6" fill="rgb(127,230,0)"/><text xml:space="preserve" x="93.8" y="358.433" font-family="Calibri" font-size="7.5" fill="rgb(0,0,0)" text-anchor="middle">2</text>
<polygon points="97.8,351.6 105.8,351.6 105.8,359.6 97.8,359.6" fill="rgb(255,255,0)"/><text xml:space="preserve" x="101.8" y="358.433" font-family="Calibri" font-size="7.5" fill="rgb(0,0,0)" text-anchor="middle">3</text>
<polygon points="105.8,351.6 113.8,351.6 113.8,359.6 105.8,359.6" fill="rgb(205,0,0)"/><text xml:space="preserve" x="109.8" y="358.433" font-family="Calibri" font-size="7.5" fill="rgb(255,255,255)" text-anchor="middle">5</text>
<polygon points="113.8,351.6 121.8,351.6 121.8,359.6 113.8,359.6" fill="rgb(205,0,0)"/><text xml:space="preserve" x="117.8" y="358.433" font-family="Calibri" font-size="7.5" fill="rgb(255,255,255)" text-anchor="middle">5</text>
<polygon points="121.8,351.6 129.8,351.6 129.8,359.6 121.8,359.6" fill="rgb(255,255,0)"/><text xml:space="preserve" x="125.8" y="358.433" font-family="Calibri" font-size="7.5" fill="rgb(0,0,0)" text-anchor="middle">3</text>
<polygon points="129.8,351.6 137.8,351.6 137.8,359.6 129.8,359.6" fill="rgb(230,127,0)"/><text xml:space="preserve" x="133.8" y="358.433" font-family="Calibri" font-size="7.5" fill="rgb(0,0,0)" text-anchor="middle">4</text>
<polygon points="147.8,351.6 155.8,351.6 155.8,359.6 147.8,359.6" fill="rgb(12,74,137)"/>
<polygon points="155.8,351.6 163.8,351.6 163.8,359.6 155.8,359.6" fill="rgb(12,76,137)"/>
<polygon points="163.8,351.6 171.8,351.6 171.8,359.6 163.8,359.6" fill="rgb(20,106,139)"/>
<polygon points="171.8,351.6 179.8,351.6 179.8,359.6 171.8,359.6" fill="rgb(43,197,144)"/>
<polygon points="179.8,351.6 187.8,351.6 187.8,359.6 179.8,359.6" fill="rgb(33,158,142)"/>
<polygon points="187.8,351.6 195.8,351.6 195.8,359.6 187.8,359.6" fill="rgb(18,99,139)"/>
<polygon points="195.8,351.6 203.8,351.6 203.8,359.6 195.8,359.6" fill="rgb(26,129,140)"/>
<polygon points="213.8,351.6 221.8,351.6 221.8,359.6 213.8,359.6" fill="rgb(255,255,255)"/>
<polygon points="221.8,351.6 229.8,351.6 229.8,359.6 221.8,359.6" fill="rgb(255,255,255)"/>
<polygon points="229.8,351.6 237.8,351.6 237.8,359.6 229.8,359.6" fill="rgb(255,255,255)"/>
<polygon points="237.8,351.6 245.8,351.6 245.8,359.6 237.8,359.6" fill="rgb(255,255,255)"/>
<polygon points="245.8,351.6 253.8,351.6 253.8,359.6 245.8,359.6" fill="rgb(255,255,255)"/>
<polygon points="253.8,351.6 261.8,351.6 261.8,359.6 253.8,359.6" fill="rgb(255,255,255)"/>
<polygon points="261.8,351.6 269.8,351.6 269.8,359.6 261.8,359.6" fill="rgb(255,255,255)"/>
<polygon points="269.8,351.6 277.8,351.6 277.8,359.6 269.8,359.6" fill="rgb(255,255,255)"/>
<polygon points="81.8,335.6 137.8,335.6 137.8,359.6 81.8,359.6" fill="none" stroke="black" stroke-width="1"/>
<polygon points="147.8,335.6 203.8,335.6 203.8,359.6 147.8,359.6" fill="none" stroke="black" stroke-width="1"/>
<polygon points="213.8,335.6 277.8,335.6 277.8,359.6 213.8,359.6" fill="none" stroke="black" stroke-width="1"/>
<text xml:space="preserve" x="148.9" y="392.6" font-family="Calibri" font-size="8" text-anchor="middle">ClusterAssignment</text>
<polygon points="98.9,399.6 118.9,399.6 118.9,419.6 98.9,419.6" fill="rgb(0,205,0)"/><polygon points="98.9,399.6 118.9,399.6 118.9,419.6 98.9,419.6" fill="none" stroke="black" stroke-width="1"/><text xml:space="preserve" x="108.9" y="412.433" font-family="Calibri" font-size="7.5" fill="rgb(255,255,255)" text-anchor="middle">1.0</text>
<polygon points="118.9,399.6 138.9,399.6 138.9,419.6 118.9,419.6" fill="rgb(127,230,0)"/><polygon points="118.9,399.6 138.9,399.6 138.9,419.6 118.9,419.6" fill="none" stroke="black" stroke-width="1"/><text xml:space="preserve" x="128.9" y="412.433" font-family="Calibri" font-size="7.5" fill="rgb(0,0,0)" text-anchor="middle">2.0</text>
<polygon points="138.9,399.6 158.9,399.6 158.9,419.6 138.9,419.6" fill="rgb(255,255,0)"/><polygon points="138.9,399.6 158.9,399.6 158.9,419.6 138.9,419.6" fill="none" stroke="black" stroke-width="1"/><text xml:space="preserve" x="148.9" y="412.433" font-family="Calibri" font-size="7.5" fill="rgb(0,0,0)" text-anchor="middle">3.0</text>
<polygon points="158.9,399.6 178.9,399.6 178.9,419.6 158.9,419.6" fill="rgb(230,127,0)"/><polygon points="158.9,399.6 178.9,399.6 178.9,419.6 158.9,419.6" fill="none" stroke="black" stroke-width="1"/><text xml:space="preserve" x="168.9" y="412.433" font-family="Calibri" font-size="7.5" fill="rgb(0,0,0)" text-anchor="middle">4.0</text>
<polygon points="178.9,399.6 198.9,399.6 198.9,419.6 178.9,419.6" fill="rgb(205,0,0)"/><polygon points="178.9,399.6 198.9,399.6 198.9,419.6 178.9,419.6" fill="none" stroke="black" stroke-width="1"/><text xml:space="preserve" x="188.9" y="412.433" font-family="Calibri" font-size="7.5" fill="rgb(255,255,255)" text-anchor="middle">5.0</text>
<text xml:space="preserve" x="148.9" y="452.6" font-family="Calibri" font-size="8" text-anchor="middle">Expression</text>
<polygon points="98.9,459.6 118.9,459.6 118.9,479.6 98.9,479.6" fill="rgb(0,27,135)"/><polygon points="98.9,459.6 118.9,459.6 118.9,479.6 98.9,479.6" fill="none" stroke="black" stroke-width="1"/><text xml:space="preserve" x="108.9" y="472.433" font-family="Calibri" font-size="7.5" fill="rgb(255,255,255)" text-anchor="middle">0.0</text>
<polygon points="118.9,459.6 138.9,459.6 138.9,479.6 118.9,479.6" fill="rgb(24,123,140)"/><polygon points="118.9,459.6 138.9,459.6 138.9,479.6 118.9,479.6" fill="none" stroke="black" stroke-width="1"/><text xml:space="preserve" x="128.9" y="472.433" font-family="Calibri" font-size="7.5" fill="rgb(255,255,255)" text-anchor="middle">0.8</text>
<polygon points="138.9,459.6 158.9,459.6 158.9,479.6 138.9,479.6" fill="rgb(49,219,146)"/><polygon points="138.9,459.6 158.9,459.6 158.9,479.6 138.9,479.6" fill="none" stroke="black" stroke-width="1"/><text xml:space="preserve" x="148.9" y="472.433" font-family="Calibri" font-size="7.5" fill="rgb(0,0,0)" text-anchor="middle">1.5</text>
<polygon points="158.9,459.6 178.9,459.6 178.9,479.6 158.9,479.6" fill="rgb(150,206,73)"/><polygon points="158.9,459.6 178.9,459.6 178.9,479.6 158.9,479.6" fill="none" stroke="black" stroke-width="1"/><text xml:space="preserve" x="168.9" y="472.433" font-family="Calibri" font-size="7.5" fill="rgb(0,0,0)" text-anchor="middle">2.2</text>
<polygon points="178.9,459.6 198.9,459.6 198.9,479.6 178.9,479.6" fill="rgb(252,194,1)"/><polygon points="178.9,459.6 198.9,459.6 198.9,479.6 178.9,479.6" fill="none" stroke="black" stroke-width="1"/><text xml:space="preserve" x="188.9" y="472.433" font-family="Calibri" font-size="7.5" fill="rgb(0,0,0)" text-anchor="middle">3.0</text>
<text xml:space="preserve" x="148.9" y="512.6" font-family="Calibri" font-size="8" text-anchor="middle">PANTHERclass</text>
<polygon points="98.9,519.6 118.9,519.6 118.9,539.6 98.9,539.6" fill="rgb(255,255,255)"/><polygon points="98.9,519.6 118.9,519.6 118.9,539.6 98.9,539.6" fill="none" stroke="black" stroke-width="1"/><text xml:space="preserve" x="108.9" y="532.433" font-family="Calibri" font-size="7.5" fill="rgb(0,0,0)" text-anchor="middle">0.0</text>
<polygon points="118.9,519.6 138.9,519.6 138.9,539.6 118.9,539.6" fill="rgb(242,191,242)"/><polygon points="118.9,519.6 138.9,519.6 138.9,539.6 118.9,539.6" fill="none" stroke="black" stroke-width="1"/><text xml:space="preserve" x="128.9" y="532.433" font-family="Calibri" font-size="7.5" fill="rgb(0,0,0)" text-anchor="middle">0.2</text>
<polygon points="138.9,519.6 158.9,519.6 158.9,539.6 138.9,539.6" fill="rgb(230,127,230)"/><polygon points="138.9,519.6 158.9,519.6 158.9,539.6 138.9,539.6" fill="none" stroke="black" stroke-width="1"/><text xml:space="preserve" x="148.9" y="532.433" font-family="Calibri" font-size="7.5" fill="rgb(0,0,0)" text-anchor="middle">0.5</text>
<polygon points="158.9,519.6 178.9,519.6 178.9,539.6 158.9,539.6" fill="rgb(217,63,217)"/><polygon points="158.9,519.6 178.9,519.6 178.9,539.6 158.9,539.6" fill="none" stroke="black" stroke-width="1"/><text xml:space="preserve" x="168.9" y="532.433" font-family="Calibri" font-size="7.5" fill="rgb(255,255,255)" text-anchor="middle">0.8</text>
<polygon points="178.9,519.6 198.9,519.6 198.9,539.6 178.9,539.6" fill="rgb(205,0,205)"/><polygon points="178.9,519.6 198.9,519.6 198.9,539.6 178.9,539.6" fill="none" stroke="black" stroke-width="1"/><text xml:space="preserve" x="188.9" y="532.433" font-family="Calibri" font-size="7.5" fill="rgb(255,255,255)" text-anchor="middle">1.0</text>
</svg>
