<?xml version="1.0" standalone="no"?><!DOCTYPE svg PUBLIC "-//W3C//DTD SVG 1.1//EN" "http://www.w3.org/Graphics/SVG/1.1/DTD/svg11.dtd">
<svg width="309.8" height="559.6" version="1.1" xmlns="http://www.w3.org/2000/svg">
<text xml:space="preserve" x="89.8" y="342.6" font-family="Calibri" font-size="8" text-anchor="end">C4orf48</text>
<text xml:space="preserve" x="89.8" y="350.6" font-family="Calibri" font-size="8" text-anchor="end">NDUFB3</text>
<text xml:space="preserve" x="89.8" y="358.6" font-family="Calibri" font-size="8" text-anchor="end">LSM7</text>
<text xml:space="preserve" x="100.8" y="331.6" font-family="Calibri" font-size="8" transform="rotate(270 100.8 331.6)">c3</text>
<text xml:space="preserve" x="108.8" y="331.6" font-family="Calibri" font-size="8" transform="rotate(270 108.8 331.6)">c1</text>
<text xml:space="preserve" x="116.8" y="331.6" font-family="Calibri" font-size="8" transform="rotate(270 116.8 331.6)">c4</text>
<text xml:space="preserve" x="124.8" y="331.6" font-family="Calibri" font-size="8" transform="rotate(270 124.8 331.6)">c5</text>
<text xml:space="preserve" x="132.8" y="331.6" font-family="Calibri" font-size="8" transform="rotate(270 132.8 331.6)">c2</text>
<text xml:space="preserve" x="140.8" y="331.6" font-family="Calibri" font-size="8" transform="rotate(270 140.8 331.6)">c6</text>
<text xml:space="preserve" x="148.8" y="331.6" font-family="Calibri" font-size="8" transform="rotate(270 148.8 331.6)">c7</text>
<text xml:space="preserve" x="166.8" y="331.6" font-family="Calibri" font-size="8" transform="rotate(270 166.8 331.6)">c3_mean</text>
<text xml:space="preserve" x="174.8" y="331.6" font-family="Calibri" font-size="8" transform="rotate(270 174.8 331.6)">c1_mean</text>
<text xml:space="preserve" x="182.8" y="331.6" font-family="Calibri" font-size="8" transform="rotate(270 182.8 331.6)">c4_mean</text>
<text xml:space="preserve" x="190.8" y="331.6" font-family="Calibri" font-size="8" transform="rotate(270 190.8 331.6)">c5_mean</text>
<text xml:space="preserve" x="198.8" y="331.6" font-family="Calibri" font-size="8" transform="rotate(270 198.8 331.6)">c2_mean</text>
<text xml:space="preserve" x="206.8" y="331.6" font-family="Calibri" font-size="8" transform="rotate(270 206.8 331.6)">c6_mean</text>
<text xml:space="preserve" x="214.8" y="331.6" font-family="Calibri" font-size="8" transform="rotate(270 214.8 331.6)">c7_mean</text>
<text xml:space="preserve" x="232.8" y="331.6" font-family="Calibri" font-size="8" transform="rotate(270 232.8 331.6)">transcription_factor</text>
<text xml:space="preserve" x="240.8" y="331.6" font-family="Calibri" font-size="8" transform="rotate(270 240.8 331.6)">transmembrane_signal_receptor</text>
<text xml:space="preserve" x="248.8" y="331.6" font-family="Calibri" font-size="8" transform="rotate(270 248.8 331.6)">growth_factor</text>
<text xml:space="preserve" x="256.8" y="331.6" font-family="Calibri" font-size="8" transform="rotate(270 256.8 331.6)">peptide_hormone</text>
<text xml:space="preserve" x="264.8" y="331.6" font-family="Calibri" font-size="8" transform="rotate(270 264.8 331.6)">cytoskeletal_protein</text>
<text xml:space="preserve" x="272.8" y="331.6" font-family="Calibri" font-size="8" transform="rotate(270 272.8 331.6)">ion_channel</text>
<text xml:space="preserve" x="280.8" y="331.6" font-family="Calibri" font-size="8" transform="rotate(270 280.8 331.6)">integrin</text>
<text xml:space="preserve" x="288.8" y="331.6" font-family="Calibri" font-size="8" transform="rotate(270 288.8 331.6)">extracellular_matrix_protein</text>
<polygon points="93.8,335.6 101.8,335.6 101.8,343.6 93.8,343.6" fill="rgb(0,205,0)"/><text xml:space="preserve" x="97.8" y="342.433" font-family="Calibri" font-size="7.5" fill="rgb(255,255,255)" text-anchor="middle">1</text>
<polygon points="101.8,335.6 109.8,335.6 109.8,343.6 101.8,343.6" fill="rgb(0,205,0)"/><text xml:space="preserve" x="105.8" y="342.433" font-family="Calibri" font-size="7.5" fill="rgb(255,255,255)" text-anchor="middle">1</text>
<polygon points="109.8,335.6 117.8,335.6 117.8,343.6 109.8,343.6" fill="rgb(230,127,0)"/><text xml:space="preserve" x="113.8" y="342.433" font-family="Calibri" font-size="7.5" fill="rgb(0,0,0)" text-anchor="middle">4</text>
<polygon points="117.8,335.6 125.8,335.6 125.8,343.6 117.8,343.6" fill="rgb(230,127,0)"/><text xml:space="preserve" x="121.8" y="342.433" font-family="Calibri" font-size="7.5" fill="rgb(0,0,0)" text-anchor="middle">4</text>
<polygon points="125.8,335.6 133.8,335.6 133.8,343.6 125.8,343.6" fill="rgb(230,127,0)"/><text xml:space="preserve" x="129.8" y="342.433" font-family="Calibri" font-size="7.5" fill="rgb(0,0,0)" text-anchor="middle">4</text>
<polygon points="133.8,335.6 141.8,335.6 141.8,343.6 133.8,343.6" fill="rgb(230,127,0)"/><text xml:space="preserve" x="137.8" y="342.433" font-family="Calibri" font-size="7.5" fill="rgb(0,0,0)" text-anchor="middle">4</text>
<polygon points="141.8,335.6 149.8,335.6 149.8,343.6 141.8,343.6" fill="rgb(127,230,0)"/><text xml:space="preserve" x="145.8" y="342.433" font-family="Calibri" font-size="7.5" fill="rgb(0,0,0)" text-anchor="middle">2</text>
<polygon points="159.8,335.6 167.8,335.6 167.8,343.6 159.8,343.6" fill="rgb(6,51,136)"/>
<polygon points="167.8,335.6 175.8,335.6 175.8,343.6 167.8,343.6" fill="rgb(6,52,136)"/>
<polygon points="175.8,335.6 183.8,335.6 183.8,343.6 175.8,343.6" fill="rgb(27,135,141)"/>
<polygon points="183.8,335.6 191.8,335.6 191.8,343.6 183.8,343.6" fill="rgb(30,144,141)"/>
<polygon points="191.8,335.6 199.8,335.6 199.8,343.6 191.8,343.6" fill="rgb(25,125,140)"/>
<polygon points="199.8,335.6 207.8,335.6 207.8,343.6 199.8,343.6" fill="rgb(24,121,140)"/>
<polygon points="207.8,335.6 215.8,335.6 215.8,343.6 207.8,343.6" fill="rgb(6,53,136)"/>
<polygon points="225.8,335.6 233.8,335.6 233.8,343.6 225.8,343.6" fill="rgb(255,255,255)"/>
<polygon points="233.8,335.6 241.8,335.6 241.8,343.6 233.8,343.6" fill="rgb(255,255,255)"/>
<polygon points="241.8,335.6 249.8,335.6 249.8,343.6 241.8,343.6" fill="rgb(255,255,255)"/>
<polygon points="249.8,335.6 257.8,335.6 257.8,343.6 249.8,343.6" fill="rgb(255,255,255)"/>
<polygon points="257.8,335.6 265.8,335.6 265.8,343.6 257.8,343.6" fill="rgb(255,255,255)"/>
<polygon points="265.8,335.6 273.8,335.6 273.8,343.6 265.8,343.6" fill="rgb(255,255,255)"/>
<polygon points="273.8,335.6 281.8,335.6 281.8,343.6 273.8,343.6" fill="rgb(255,255,255)"/>
<polygon points="281.8,335.6 289.8,335.6 289.8,343.6 281.8,343.6" fill="rgb(255,255,255)"/>
<polygon points="93.8,343.6 101.8,343.6 101.8,351.6 93.8,351.6" fill="rgb(0,205,0)"/><text xml:space="preserve" x="97.8" y="350.433" font-family="Calibri" font-size="7.5" fill="rgb(255,255,255)" text-anchor="middle">1</text>
<polygon points="101.8,343.6 109.8,343.6 109.8,351.6 101.8,351.6" fill="rgb(0,205,0)"/><text xml:space="preserve" x="105.8" y="350.433" font-family="Calibri" font-size="7.5" fill="rgb(255,255,255)" text-anchor="middle">1</text>
<polygon points="109.8,343.6 117.8,343.6 117.8,351.6 109.8,351.6" fill="rgb(230,127,0)"/><text xml:space="preserve" x="113.8" y="350.433" font-family="Calibri" font-size="7.5" fill="rgb(0,0,0)" text-anchor="middle">4</text>
<polygon points="117.8,343.6 125.8,343.6 125.8,351.6 117.8,351.6" fill="rgb(230,127,0)"/><text xml:space="preserve" x="121.8" y="350.433" font-family="Calibri" font-size="7.5" fill="rgb(0,0,0)" text-anchor="middle">4</text>
<polygon points="125.8,343.6 133.8,343.6 133.8,351.6 125.8,351.6" fill="rgb(230,127,0)"/><text xml:space="preserve" x="129.8" y="350.433" font-family="Calibri" font-size="7.5" fill="rgb(0,0,0)" text-anchor="middle">4</text>
<polygon points="133.8,343.6 141.8,343.6 141.8,351.6 133.8,351.6" fill="rgb(230,127,0)"/><text xml:space="preserve" x="137.8" y="350.433" font-family="Calibri" font-size="7.5" fill="rgb(0,0,0)" text-anchor="middle">4</text>
<polygon points="141.8,343.6 149.8,343.6 149.8,351.6 141.8,351.6" fill="rgb(127,230,0)"/><text xml:space="preserve" x="145.8" y="350.433" font-family="Calibri" font-size="7.5" fill="rgb(0,0,0)" text-anchor="middle">2</text>
<polygon points="159.8,343.6 167.8,343.6 167.8,351.6 159.8,351.6" fill="rgb(5,48,136)"/>
<polygon points="167.8,343.6 175.8,343.6 175.8,351.6 167.8,351.6" fill="rgb(5,50,136)"/>
<polygon points="175.8,343.6 183.8,343.6 183.8,351.6 175.8,351.6" fill="rgb(28,138,141)"/>
<polygon points="183.8,343.6 191.8,343.6 191.8,351.6 183.8,351.6" fill="rgb(31,148,141)"/>
<polygon points="191.8,343.6 199.8,343.6 199.8,351.6 191.8,351.6" fill="rgb(22,114,139)"/>
<polygon points="199.8,343.6 207.8,343.6 207.8,351.6 199.8,351.6" fill="rgb(22,115,140)"/>
<polygon points="207.8,343.6 215.8,343.6 215.8,351.6 207.8,351.6" fill="rgb(6,52,136)"/>
<polygon points="225.8,343.6 233.8,343.6 233.8,351.6 225.8,351.6" fill="rgb(255,255,255)"/>
<polygon points="233.8,343.6 241.8,343.6 241.8,351.6 233.8,351.6" fill="rgb(255,255,255)"/>
<polygon points="241.8,343.6 249.8,343.6 249.8,351.6 241.8,351.6" fill="rgb(255,255,255)"/>
<polygon points="249.8,343.6 257.8,343.6 257.8,351.6 249.8,351.6" fill="rgb(255,255,255)"/>
<polygon points="257.8,343.6 265.8,343.6 265.8,351.6 257.8,351.6" fill="rgb(255,255,255)"/>
<polygon points="265.8,343.6 273.8,343.6 273.8,351.6 265.8,351.6" fill="rgb(255,255,255)"/>
<polygon points="273.8,343.6 281.8,343.6 281.8,351.6 273.8,351.6" fill="rgb(255,255,255)"/>
<polygon points="281.8,343.6 289.8,343.6 289.8,351.6 281.8,351.6" fill="rgb(255,255,255)"/>
<polygon points="93.8,351.6 101.8,351.6 101.8,359.6 93.8,359.6" fill="rgb(0,205,0)"/><text xml:space="preserve" x="97.8" y="358.433" font-family="Calibri" font-size="7.5" fill="rgb(255,255,255)" text-anchor="middle">1</text>
<polygon points="101.8,351.6 109.8,351.6 109.8,359.6 101.8,359.6" fill="rgb(0,205,0)"/><text xml:space="preserve" x="105.8" y="358.433" font-family="Calibri" font-size="7.5" fill="rgb(255,255,255)" text-anchor="middle">1</text>
<polygon points="109.8,351.6 117.8,351.6 117.8,359.6 109.8,359.6" fill="rgb(230,127,0)"/><text xml:space="preserve" x="113.8" y="358.433" font-family="Calibri" font-size="7.5" fill="rgb(0,0,0)" text-anchor="middle">4</text>
<polygon points="117.8,351.6 125.8,351.6 125.8,359.6 117.8,359.6" fill="rgb(230,127,0)"/><text xml:space="preserve" x="121.8" y="358.433" font-family="Calibri" font-size="7.5" fill="rgb(0,0,0)" text-anchor="middle">4</text>
<polygon points="125.8,351.6 133.8,351.6 133.8,359.6 125.8,359.6" fill="rgb(230,127,0)"/><text xml:space="preserve" x="129.8" y="358.433" font-family="Calibri" font-size="7.5" fill="rgb(0,0,0)" text-anchor="middle">4</text>
<polygon points="133.8,351.6 141.8,351.6 141.8,359.6 133.8,359.6" fill="rgb(230,127,0)"/><text xml:space="preserve" x="137.8" y="358.433" font-family="Calibri" font-size="7.5" fill="rgb(0,0,0)" text-anchor="middle">4</text>
<polygon points="141.8,351.6 149.8,351.6 149.8,359.6 141.8,359.6" fill="rgb(127,230,0)"/><text xml:space="preserve" x="145.8" y="358.433" font-family="Calibri" font-size="7.5" fill="rgb(0,0,0)" text-anchor="middle">2</text>
<polygon points="159.8,351.6 167.8,351.6 167.8,359.6 159.8,359.6" fill="rgb(5,50,136)"/>
<polygon points="167.8,351.6 175.8,351.6 175.8,359.6 167.8,359.6" fill="rgb(6,52,136)"/>
<polygon points="175.8,351.6 183.8,351.6 183.8,359.6 175.8,359.6" fill="rgb(29,143,141)"/>
<polygon points="183.8,351.6 191.8,351.6 191.8,359.6 183.8,359.6" fill="rgb(32,156,142)"/>
<polygon points="191.8,351.6 199.8,351.6 199.8,359.6 191.8,359.6" fill="rgb(24,123,140)"/>
<polygon points="199.8,351.6 207.8,351.6 207.8,359.6 199.8,359.6" fill="rgb(24,121,140)"/>
<polygon points="207.8,351.6 215.8,351.6 215.8,359.6 207.8,359.6" fill="rgb(6,53,136)"/>
<polygon points="225.8,351.6 233.8,351.6 233.8,359.6 225.8,359.6" fill="rgb(255,255,255)"/>
<polygon points="233.8,351.6 241.8,351.6 241.8,359.6 233.8,359.6" fill="rgb(255,255,255)"/>
<polygon points="241.8,351.6 249.8,351.6 249.8,359.6 241.8,359.6" fill="rgb(255,255,255)"/>
<polygon points="249.8,351.6 257.8,351.6 257.8,359.6 249.8,359.6" fill="rgb(255,255,255)"/>
<polygon points="257.8,351.6 265.8,351.6 265.8,359.6 257.8,359.6" fill="rgb(255,255,255)"/>
<polygon points="265.8,351.6 273.8,351.6 273.8,359.6 265.8,359.6" fill="rgb(255,255,255)"/>
<polygon points="273.8,351.6 281.8,351.6 281.8,359.6 273.8,359.6" fill="rgb(255,255,255)"/>
<polygon points="281.8,351.6 289.8,351.6 289.8,359.6 281.8,359.6" fill="rgb(255,255,255)"/>
<polygon points="93.8,335.6 149.8,335.6 149.8,359.6 93.8,359.6" fill="none" stroke="black" stroke-width="1"/>
<polygon points="159.8,335.6 215.8,335.6 215.8,359.6 159.8,359.6" fill="none" stroke="black" stroke-width="1"/>
<polygon points="225.8,335.6 289.8,335.6 289.8,359.6 225.8,359.6" fill="none" stroke="black" stroke-width="1"/>
<text xml:space="preserve" x="154.9" y="392.6" font-family="Calibri" font-size="8" text-anchor="middle">ClusterAssignment</text>
<polygon points="104.9,399.6 124.9,399.6 124.9,419.6 104.9,419.6" fill="rgb(0,205,0)"/><polygon points="104.9,399.6 124.9,399.6 124.9,419.6 104.9,419.6" fill="none" stroke="black" stroke-width="1"/><text xml:space="preserve" x="114.9" y="412.433" font-family="Calibri" font-size="7.5" fill="rgb(255,255,255)" text-anchor="middle">1.0</text>
<polygon points="124.9,399.6 144.9,399.6 144.9,419.6 124.9,419.6" fill="rgb(127,230,0)"/><polygon points="124.9,399.6 144.9,399.6 144.9,419.6 124.9,419.6" fill="none" stroke="black" stroke-width="1"/><text xml:space="preserve" x="134.9" y="412.433" font-family="Calibri" font-size="7.5" fill="rgb(0,0,0)" text-anchor="middle">2.0</text>
<polygon points="144.9,399.6 164.9,399.6 164.9,419.6 144.9,419.6" fill="rgb(255,255,0)"/><polygon points="144.9,399.6 164.9,399.6 164.9,419.6 144.9,419.6" fill="none" stroke="black" stroke-width="1"/><text xml:space="preserve" x="154.9" y="412.433" font-family="Calibri" font-size="7.5" fill="rgb(0,0,0)" text-anchor="middle">3.0</text>
<polygon points="164.9,399.6 184.9,399.6 184.9,419.6 164.9,419.6" fill="rgb(230,127,0)"/><polygon points="164.9,399.6 184.9,399.6 184.9,419.6 164.9,419.6" fill="none" stroke="black" stroke-width="1"/><text xml:space="preserve" x="174.9" y="412.433" font-family="Calibri" font-size="7.5" fill="rgb(0,0,0)" text-anchor="middle">4.0</text>
<polygon points="184.9,399.6 204.9,399.6 204.9,419.6 184.9,419.6" fill="rgb(205,0,0)"/><polygon points="184.9,399.6 204.9,399.6 204.9,419.6 184.9,419.6" fill="none" stroke="black" stroke-width="1"/><text xml:space="preserve" x="194.9" y="412.433" font-family="Calibri" font-size="7.5" fill="rgb(255,255,255)" text-anchor="middle">5.0</text>
<text xml:space="preserve" x="154.9" y="452.6" font-family="Calibri" font-size="8" text-anchor="middle">Expression</text>
<polygon points="104.9,459.6 124.9,459.6 124.9,479.6 104.9,479.6" fill="rgb(0,27,135)"/><polygon points="104.9,459.6 124.9,459.6 124.9,479.6 104.9,479.6" fill="none" stroke="black" stroke-width="1"/><text xml:space="preserve" x="114.9" y="472.433" font-family="Calibri" font-size="7.5" fill="rgb(255,255,255)" text-anchor="middle">0.0</text>
<polygon points="124.9,459.6 144.9,459.6 144.9,479.6 124.9,479.6" fill="rgb(24,123,140)"/><polygon points="124.9,459.6 144.9,459.6 144.9,479.6 124.9,479.6" fill="none" stroke="black" stroke-width="1"/><text xml:space="preserve" x="134.9" y="472.433" font-family="Calibri" font-size="7.5" fill="rgb(255,255,255)" text-anchor="middle">0.8</text>
<polygon points="144.9,459.6 164.9,459.6 164.9,479.6 144.9,479.6" fill="rgb(49,219,146)"/><polygon points="144.9,459.6 164.9,459.6 164.9,479.6 144.9,479.6" fill="none" stroke="black" stroke-width="1"/><text xml:space="preserve" x="154.9" y="472.433" font-family="Calibri" font-size="7.5" fill="rgb(0,0,0)" text-anchor="middle">1.5</text>
<polygon points="164.9,459.6 184.9,459.6 184.9,479.6 164.9,479.6" fill="rgb(150,206,73)"/><polygon points="164.9,459.6 184.9,459.6 184.9,479.6 164.9,479.6" fill="none" stroke="black" stroke-width="1"/><text xml:space="preserve" x="174.9" y="472.433" font-family="Calibri" font-size="7.5" fill="rgb(0,0,0)" text-anchor="middle">2.2</text>
<polygon points="184.9,459.6 204.9,459.6 204.9,479.6 184.9,479.6" fill="rgb(252,194,1)"/><polygon points="184.9,459.6 204.9,459.6 204.9,479.6 184.9,479.6" fill="none" stroke="black" stroke-width="1"/><text xml:space="preserve" x="194.9" y="472.433" font-family="Calibri" font-size="7.5" fill="rgb(0,0,0)" text-anchor="middle">3.0</text>
<text xml:space="preserve" x="154.9" y="512.6" font-family="Calibri" font-size="8" text-anchor="middle">PANTHERclass</text>
<polygon points="104.9,519.6 124.9,519.6 124.9,539.6 104.9,539.6" fill="rgb(255,255,255)"/><polygon points="104.9,519.6 124.9,519.6 124.9,539.6 104.9,539.6" fill="none" stroke="black" stroke-width="1"/><text xml:space="preserve" x="114.9" y="532.433" font-family="Calibri" font-size="7.5" fill="rgb(0,0,0)" text-anchor="middle">0.0</text>
<polygon points="124.9,519.6 144.9,519.6 144.9,539.6 124.9,539.6" fill="rgb(242,191,242)"/><polygon points="124.9,519.6 144.9,519.6 144.9,539.6 124.9,539.6" fill="none" stroke="black" stroke-width="1"/><text xml:space="preserve" x="134.9" y="532.433" font-family="Calibri" font-size="7.5" fill="rgb(0,0,0)" text-anchor="middle">0.2</text>
<polygon points="144.9,519.6 164.9,519.6 164.9,539.6 144.9,539.6" fill="rgb(230,127,230)"/><polygon points="144.9,519.6 164.9,519.6 164.9,539.6 144.9,539.6" fill="none" stroke="black" stroke-width="1"/><text xml:space="preserve" x="154.9" y="532.433" font-family="Calibri" font-size="7.5" fill="rgb(0,0,0)" text-anchor="middle">0.5</text>
<polygon points="164.9,519.6 184.9,519.6 184.9,539.6 164.9,539.6" fill="rgb(217,63,217)"/><polygon points="164.9,519.6 184.9,519.6 184.9,539.6 164.9,539.6" fill="none" stroke="black" stroke-width="1"/><text xml:space="preserve" x="174.9" y="532.433" font-family="Calibri" font-size="7.5" fill="rgb(255,255,255)" text-anchor="middle">0.8</text>
<polygon points="184.9,519.6 204.9,519.6 204.9,539.6 184.9,539.6" fill="rgb(205,0,205)"/><polygon points="184.9,519.6 204.9,519.6 204.9,539.6 184.9,539.6" fill="none" stroke="black" stroke-width="1"/><text xml:space="preserve" x="194.9" y="532.433" font-family="Calibri" font-size="7.5" fill="rgb(255,255,255)" text-anchor="middle">1.0</text>
</svg>
