<?xml version="1.0" standalone="no"?><!DOCTYPE svg PUBLIC "-//W3C//DTD SVG 1.1//EN" "http://www.w3.org/Graphics/SVG/1.1/DTD/svg11.dtd">
<svg width="331.1" height="559.6" version="1.1" xmlns="http://www.w3.org/2000/svg">
<text xml:space="preserve" x="111.1" y="342.6" font-family="Calibri" font-size="8" text-anchor="end">GALP</text>
<text xml:space="preserve" x="111.1" y="350.6" font-family="Calibri" font-size="8" text-anchor="end">NPPB</text>
<text xml:space="preserve" x="111.1" y="358.6" font-family="Calibri" font-size="8" text-anchor="end">LINC01197</text>
<text xml:space="preserve" x="122.1" y="331.6" font-family="Calibri" font-size="8" transform="rotate(270 122.1 331.6)">c3</text>
<text xml:space="preserve" x="130.1" y="331.6" font-family="Calibri" font-size="8" transform="rotate(270 130.1 331.6)">c1</text>
<text xml:space="preserve" x="138.1" y="331.6" font-family="Calibri" font-size="8" transform="rotate(270 138.1 331.6)">c4</text>
<text xml:space="preserve" x="146.1" y="331.6" font-family="Calibri" font-size="8" transform="rotate(270 146.1 331.6)">c5</text>
<text xml:space="preserve" x="154.1" y="331.6" font-family="Calibri" font-size="8" transform="rotate(270 154.1 331.6)">c2</text>
<text xml:space="preserve" x="162.1" y="331.6" font-family="Calibri" font-size="8" transform="rotate(270 162.1 331.6)">c6</text>
<text xml:space="preserve" x="170.1" y="331.6" font-family="Calibri" font-size="8" transform="rotate(270 170.1 331.6)">c7</text>
<text xml:space="preserve" x="188.1" y="331.6" font-family="Calibri" font-size="8" transform="rotate(270 188.1 331.6)">c3_mean</text>
<text xml:space="preserve" x="196.1" y="331.6" font-family="Calibri" font-size="8" transform="rotate(270 196.1 331.6)">c1_mean</text>
<text xml:space="preserve" x="204.1" y="331.6" font-family="Calibri" font-size="8" transform="rotate(270 204.1 331.6)">c4_mean</text>
<text xml:space="preserve" x="212.1" y="331.6" font-family="Calibri" font-size="8" transform="rotate(270 212.1 331.6)">c5_mean</text>
<text xml:space="preserve" x="220.1" y="331.6" font-family="Calibri" font-size="8" transform="rotate(270 220.1 331.6)">c2_mean</text>
<text xml:space="preserve" x="228.1" y="331.6" font-family="Calibri" font-size="8" transform="rotate(270 228.1 331.6)">c6_mean</text>
<text xml:space="preserve" x="236.1" y="331.6" font-family="Calibri" font-size="8" transform="rotate(270 236.1 331.6)">c7_mean</text>
<text xml:space="preserve" x="254.1" y="331.6" font-family="Calibri" font-size="8" transform="rotate(270 254.1 331.6)">transcription_factor</text>
<text xml:space="preserve" x="262.1" y="331.6" font-family="Calibri" font-size="8" transform="rotate(270 262.1 331.6)">transmembrane_signal_receptor</text>
<text xml:space="preserve" x="270.1" y="331.6" font-family="Calibri" font-size="8" transform="rotate(270 270.1 331.6)">growth_factor</text>
<text xml:space="preserve" x="278.1" y="331.6" font-family="Calibri" font-size="8" transform="rotate(270 278.1 331.6)">peptide_hormone</text>
<text xml:space="preserve" x="286.1" y="331.6" font-family="Calibri" font-size="8" transform="rotate(270 286.1 331.6)">cytoskeletal_protein</text>
<text xml:space="preserve" x="294.1" y="331.6" font-family="Calibri" font-size="8" transform="rotate(270 294.1 331.6)">ion_channel</text>
<text xml:space="preserve" x="302.1" y="331.6" font-family="Calibri" font-size="8" transform="rotate(270 302.1 331.6)">integrin</text>
<text xml:space="preserve" x="310.1" y="331.6" font-family="Calibri" font-size="8" transform="rotate(270 310.1 331.6)">extracellular_matrix_protein</text>
<polygon points="115.1,335.6 123.1,335.6 123.1,343.6 115.1,343.6" fill="rgb(127,230,0)"/><text xml:space="preserve" x="119.1" y="342.433" font-family="Calibri" font-size="7.5" fill="rgb(0,0,0)" text-anchor="middle">2</text>
<polygon points="123.1,335.6 131.1,335.6 131.1,343.6 123.1,343.6" fill="rgb(127,230,0)"/><text xml:space="preserve" x="127.1" y="342.433" font-family="Calibri" font-size="7.5" fill="rgb(0,0,0)" text-anchor="middle">2</text>
<polygon points="131.1,335.6 139.1,335.6 139.1,343.6 131.1,343.6" fill="rgb(127,230,0)"/><text xml:space="preserve" x="135.1" y="342.433" font-family="Calibri" font-size="7.5" fill="rgb(0,0,0)" text-anchor="middle">2</text>
<polygon points="139.1,335.6 147.1,335.6 147.1,343.6 139.1,343.6" fill="rgb(127,230,0)"/><text xml:space="preserve" x="143.1" y="342.433" font-family="Calibri" font-size="7.5" fill="rgb(0,0,0)" text-anchor="middle">2</text>
<polygon points="147.1,335.6 155.1,335.6 155.1,343.6 147.1,343.6" fill="rgb(127,230,0)"/><text xml:space="preserve" x="151.1" y="342.433" font-family="Calibri" font-size="7.5" fill="rgb(0,0,0)" text-anchor="middle">2</text>
<polygon points="155.1,335.6 163.1,335.6 163.1,343.6 155.1,343.6" fill="rgb(205,0,0)"/><text xml:space="preserve" x="159.1" y="342.433" font-family="Calibri" font-size="7.5" fill="rgb(255,255,255)" text-anchor="middle">5</text>
<polygon points="163.1,335.6 171.1,335.6 171.1,343.6 163.1,343.6" fill="rgb(127,230,0)"/><text xml:space="preserve" x="167.1" y="342.433" font-family="Calibri" font-size="7.5" fill="rgb(0,0,0)" text-anchor="middle">2</text>
<polygon points="181.1,335.6 189.1,335.6 189.1,343.6 181.1,343.6" fill="rgb(10,66,137)"/>
<polygon points="189.1,335.6 197.1,335.6 197.1,343.6 189.1,343.6" fill="rgb(8,61,136)"/>
<polygon points="197.1,335.6 205.1,335.6 205.1,343.6 197.1,343.6" fill="rgb(1,33,135)"/>
<polygon points="205.1,335.6 213.1,335.6 213.1,343.6 205.1,343.6" fill="rgb(1,33,135)"/>
<polygon points="213.1,335.6 221.1,335.6 221.1,343.6 213.1,343.6" fill="rgb(4,46,136)"/>
<polygon points="221.1,335.6 229.1,335.6 229.1,343.6 221.1,343.6" fill="rgb(35,165,142)"/>
<polygon points="229.1,335.6 237.1,335.6 237.1,343.6 229.1,343.6" fill="rgb(15,87,138)"/>
<polygon points="247.1,335.6 255.1,335.6 255.1,343.6 247.1,343.6" fill="rgb(255,255,255)"/>
<polygon points="255.1,335.6 263.1,335.6 263.1,343.6 255.1,343.6" fill="rgb(255,255,255)"/>
<polygon points="263.1,335.6 271.1,335.6 271.1,343.6 263.1,343.6" fill="rgb(255,255,255)"/>
<polygon points="271.1,335.6 279.1,335.6 279.1,343.6 271.1,343.6" fill="rgb(255,255,255)"/>
<polygon points="279.1,335.6 287.1,335.6 287.1,343.6 279.1,343.6" fill="rgb(255,255,255)"/>
<polygon points="287.1,335.6 295.1,335.6 295.1,343.6 287.1,343.6" fill="rgb(255,255,255)"/>
<polygon points="295.1,335.6 303.1,335.6 303.1,343.6 295.1,343.6" fill="rgb(255,255,255)"/>
<polygon points="303.1,335.6 311.1,335.6 311.1,343.6 303.1,343.6" fill="rgb(255,255,255)"/>
<polygon points="115.1,343.6 123.1,343.6 123.1,351.6 115.1,351.6" fill="rgb(127,230,0)"/><text xml:space="preserve" x="119.1" y="350.433" font-family="Calibri" font-size="7.5" fill="rgb(0,0,0)" text-anchor="middle">2</text>
<polygon points="123.1,343.6 131.1,343.6 131.1,351.6 123.1,351.6" fill="rgb(127,230,0)"/><text xml:space="preserve" x="127.1" y="350.433" font-family="Calibri" font-size="7.5" fill="rgb(0,0,0)" text-anchor="middle">2</text>
<polygon points="131.1,343.6 139.1,343.6 139.1,351.6 131.1,351.6" fill="rgb(127,230,0)"/><text xml:space="preserve" x="135.1" y="350.433" font-family="Calibri" font-size="7.5" fill="rgb(0,0,0)" text-anchor="middle">2</text>
<polygon points="139.1,343.6 147.1,343.6 147.1,351.6 139.1,351.6" fill="rgb(127,230,0)"/><text xml:space="preserve" x="143.1" y="350.433" font-family="Calibri" font-size="7.5" fill="rgb(0,0,0)" text-anchor="middle">2</text>
<polygon points="147.1,343.6 155.1,343.6 155.1,351.6 147.1,351.6" fill="rgb(127,230,0)"/><text xml:space="preserve" x="151.1" y="350.433" font-family="Calibri" font-size="7.5" fill="rgb(0,0,0)" text-anchor="middle">2</text>
<polygon points="155.1,343.6 163.1,343.6 163.1,351.6 155.1,351.6" fill="rgb(205,0,0)"/><text xml:space="preserve" x="159.1" y="350.433" font-family="Calibri" font-size="7.5" fill="rgb(255,255,255)" text-anchor="middle">5</text>
<polygon points="163.1,343.6 171.1,343.6 171.1,351.6 163.1,351.6" fill="rgb(127,230,0)"/><text xml:space="preserve" x="167.1" y="350.433" font-family="Calibri" font-size="7.5" fill="rgb(0,0,0)" text-anchor="middle">2</text>
<polygon points="181.1,343.6 189.1,343.6 189.1,351.6 181.1,351.6" fill="rgb(10,69,137)"/>
<polygon points="189.1,343.6 197.1,343.6 197.1,351.6 189.1,351.6" fill="rgb(4,43,135)"/>
<polygon points="197.1,343.6 205.1,343.6 205.1,351.6 197.1,351.6" fill="rgb(4,44,136)"/>
<polygon points="205.1,343.6 213.1,343.6 213.1,351.6 205.1,351.6" fill="rgb(15,88,138)"/>
<polygon points="213.1,343.6 221.1,343.6 221.1,351.6 213.1,351.6" fill="rgb(15,88,138)"/>
<polygon points="221.1,343.6 229.1,343.6 229.1,351.6 221.1,351.6" fill="rgb(30,144,141)"/>
<polygon points="229.1,343.6 237.1,343.6 237.1,351.6 229.1,351.6" fill="rgb(8,60,136)"/>
<polygon points="247.1,343.6 255.1,343.6 255.1,351.6 247.1,351.6" fill="rgb(255,255,255)"/>
<polygon points="255.1,343.6 263.1,343.6 263.1,351.6 255.1,351.6" fill="rgb(255,255,255)"/>
<polygon points="263.1,343.6 271.1,343.6 271.1,351.6 263.1,351.6" fill="rgb(255,255,255)"/>
<polygon points="271.1,343.6 279.1,343.6 279.1,351.6 271.1,351.6" fill="rgb(255,255,255)"/>
<polygon points="279.1,343.6 287.1,343.6 287.1,351.6 279.1,351.6" fill="rgb(255,255,255)"/>
<polygon points="287.1,343.6 295.1,343.6 295.1,351.6 287.1,351.6" fill="rgb(255,255,255)"/>
<polygon points="295.1,343.6 303.1,343.6 303.1,351.6 295.1,351.6" fill="rgb(255,255,255)"/>
<polygon points="303.1,343.6 311.1,343.6 311.1,351.6 303.1,351.6" fill="rgb(255,255,255)"/>
<polygon points="115.1,351.6 123.1,351.6 123.1,359.6 115.1,359.6" fill="rgb(127,230,0)"/><text xml:space="preserve" x="119.1" y="358.433" font-family="Calibri" font-size="7.5" fill="rgb(0,0,0)" text-anchor="middle">2</text>
<polygon points="123.1,351.6 131.1,351.6 131.1,359.6 123.1,359.6" fill="rgb(127,230,0)"/><text xml:space="preserve" x="127.1" y="358.433" font-family="Calibri" font-size="7.5" fill="rgb(0,0,0)" text-anchor="middle">2</text>
<polygon points="131.1,351.6 139.1,351.6 139.1,359.6 131.1,359.6" fill="rgb(127,230,0)"/><text xml:space="preserve" x="135.1" y="358.433" font-family="Calibri" font-size="7.5" fill="rgb(0,0,0)" text-anchor="middle">2</text>
<polygon points="139.1,351.6 147.1,351.6 147.1,359.6 139.1,359.6" fill="rgb(127,230,0)"/><text xml:space="preserve" x="143.1" y="358.433" font-family="Calibri" font-size="7.5" fill="rgb(0,0,0)" text-anchor="middle">2</text>
<polygon points="147.1,351.6 155.1,351.6 155.1,359.6 147.1,359.6" fill="rgb(127,230,0)"/><text xml:space="preserve" x="151.1" y="358.433" font-family="Calibri" font-size="7.5" fill="rgb(0,0,0)" text-anchor="middle">2</text>
<polygon points="155.1,351.6 163.1,351.6 163.1,359.6 155.1,359.6" fill="rgb(205,0,0)"/><text xml:space="preserve" x="159.1" y="358.433" font-family="Calibri" font-size="7.5" fill="rgb(255,255,255)" text-anchor="middle">5</text>
<polygon points="163.1,351.6 171.1,351.6 171.1,359.6 163.1,359.6" fill="rgb(127,230,0)"/><text xml:space="preserve" x="167.1" y="358.433" font-family="Calibri" font-size="7.5" fill="rgb(0,0,0)" text-anchor="middle">2</text>
<polygon points="181.1,351.6 189.1,351.6 189.1,359.6 181.1,359.6" fill="rgb(1,34,135)"/>
<polygon points="189.1,351.6 197.1,351.6 197.1,359.6 189.1,359.6" fill="rgb(2,37,135)"/>
<polygon points="197.1,351.6 205.1,351.6 205.1,359.6 197.1,359.6" fill="rgb(9,65,137)"/>
<polygon points="205.1,351.6 213.1,351.6 213.1,359.6 205.1,359.6" fill="rgb(14,82,138)"/>
<polygon points="213.1,351.6 221.1,351.6 221.1,359.6 213.1,359.6" fill="rgb(8,59,136)"/>
<polygon points="221.1,351.6 229.1,351.6 229.1,359.6 221.1,359.6" fill="rgb(30,144,141)"/>
<polygon points="229.1,351.6 237.1,351.6 237.1,359.6 229.1,359.6" fill="rgb(9,65,137)"/>
<polygon points="247.1,351.6 255.1,351.6 255.1,359.6 247.1,359.6" fill="rgb(255,255,255)"/>
<polygon points="255.1,351.6 263.1,351.6 263.1,359.6 255.1,359.6" fill="rgb(255,255,255)"/>
<polygon points="263.1,351.6 271.1,351.6 271.1,359.6 263.1,359.6" fill="rgb(255,255,255)"/>
<polygon points="271.1,351.6 279.1,351.6 279.1,359.6 271.1,359.6" fill="rgb(255,255,255)"/>
<polygon points="279.1,351.6 287.1,351.6 287.1,359.6 279.1,359.6" fill="rgb(255,255,255)"/>
<polygon points="287.1,351.6 295.1,351.6 295.1,359.6 287.1,359.6" fill="rgb(255,255,255)"/>
<polygon points="295.1,351.6 303.1,351.6 303.1,359.6 295.1,359.6" fill="rgb(255,255,255)"/>
<polygon points="303.1,351.6 311.1,351.6 311.1,359.6 303.1,359.6" fill="rgb(255,255,255)"/>
<polygon points="115.1,335.6 171.1,335.6 171.1,359.6 115.1,359.6" fill="none" stroke="black" stroke-width="1"/>
<polygon points="181.1,335.6 237.1,335.6 237.1,359.6 181.1,359.6" fill="none" stroke="black" stroke-width="1"/>
<polygon points="247.1,335.6 311.1,335.6 311.1,359.6 247.1,359.6" fill="none" stroke="black" stroke-width="1"/>
<text xml:space="preserve" x="165.55" y="392.6" font-family="Calibri" font-size="8" text-anchor="middle">ClusterAssignment</text>
<polygon points="115.55,399.6 135.55,399.6 135.55,419.6 115.55,419.6" fill="rgb(0,205,0)"/><polygon points="115.55,399.6 135.55,399.6 135.55,419.6 115.55,419.6" fill="none" stroke="black" stroke-width="1"/><text xml:space="preserve" x="125.55" y="412.433" font-family="Calibri" font-size="7.5" fill="rgb(255,255,255)" text-anchor="middle">1.0</text>
<polygon points="135.55,399.6 155.55,399.6 155.55,419.6 135.55,419.6" fill="rgb(127,230,0)"/><polygon points="135.55,399.6 155.55,399.6 155.55,419.6 135.55,419.6" fill="none" stroke="black" stroke-width="1"/><text xml:space="preserve" x="145.55" y="412.433" font-family="Calibri" font-size="7.5" fill="rgb(0,0,0)" text-anchor="middle">2.0</text>
<polygon points="155.55,399.6 175.55,399.6 175.55,419.6 155.55,419.6" fill="rgb(255,255,0)"/><polygon points="155.55,399.6 175.55,399.6 175.55,419.6 155.55,419.6" fill="none" stroke="black" stroke-width="1"/><text xml:space="preserve" x="165.55" y="412.433" font-family="Calibri" font-size="7.5" fill="rgb(0,0,0)" text-anchor="middle">3.0</text>
<polygon points="175.55,399.6 195.55,399.6 195.55,419.6 175.55,419.6" fill="rgb(230,127,0)"/><polygon points="175.55,399.6 195.55,399.6 195.55,419.6 175.55,419.6" fill="none" stroke="black" stroke-width="1"/><text xml:space="preserve" x="185.55" y="412.433" font-family="Calibri" font-size="7.5" fill="rgb(0,0,0)" text-anchor="middle">4.0</text>
<polygon points="195.55,399.6 215.55,399.6 215.55,419.6 195.55,419.6" fill="rgb(205,0,0)"/><polygon points="195.55,399.6 215.55,399.6 215.55,419.6 195.55,419.6" fill="none" stroke="black" stroke-width="1"/><text xml:space="preserve" x="205.55" y="412.433" font-family="Calibri" font-size="7.5" fill="rgb(255,255,255)" text-anchor="middle">5.0</text>
<text xml:space="preserve" x="165.55" y="452.6" font-family="Calibri" font-size="8" text-anchor="middle">Expression</text>
<polygon points="115.55,459.6 135.55,459.6 135.55,479.6 115.55,479.6" fill="rgb(0,27,135)"/><polygon points="115.55,459.6 135.55,459.6 135.55,479.6 115.55,479.6" fill="none" stroke="black" stroke-width="1"/><text xml:space="preserve" x="125.55" y="472.433" font-family="Calibri" font-size="7.5" fill="rgb(255,255,255)" text-anchor="middle">0.0</text>
<polygon points="135.55,459.6 155.55,459.6 155.55,479.6 135.55,479.6" fill="rgb(24,123,140)"/><polygon points="135.55,459.6 155.55,459.6 155.55,479.6 135.55,479.6" fill="none" stroke="black" stroke-width="1"/><text xml:space="preserve" x="145.55" y="472.433" font-family="Calibri" font-size="7.5" fill="rgb(255,255,255)" text-anchor="middle">0.8</text>
<polygon points="155.55,459.6 175.55,459.6 175.55,479.6 155.55,479.6" fill="rgb(49,219,146)"/><polygon points="155.55,459.6 175.55,459.6 175.55,479.6 155.55,479.6" fill="none" stroke="black" stroke-width="1"/><text xml:space="preserve" x="165.55" y="472.433" font-family="Calibri" font-size="7.5" fill="rgb(0,0,0)" text-anchor="middle">1.5</text>
<polygon points="175.55,459.6 195.55,459.6 195.55,479.6 175.55,479.6" fill="rgb(150,206,73)"/><polygon points="175.55,459.6 195.55,459.6 195.55,479.6 175.55,479.6" fill="none" stroke="black" stroke-width="1"/><text xml:space="preserve" x="185.55" y="472.433" font-family="Calibri" font-size="7.5" fill="rgb(0,0,0)" text-anchor="middle">2.2</text>
<polygon points="195.55,459.6 215.55,459.6 215.55,479.6 195.55,479.6" fill="rgb(252,194,1)"/><polygon points="195.55,459.6 215.55,459.6 215.55,479.6 195.55,479.6" fill="none" stroke="black" stroke-width="1"/><text xml:space="preserve" x="205.55" y="472.433" font-family="Calibri" font-size="7.5" fill="rgb(0,0,0)" text-anchor="middle">3.0</text>
<text xml:space="preserve" x="165.55" y="512.6" font-family="Calibri" font-size="8" text-anchor="middle">PANTHERclass</text>
<polygon points="115.55,519.6 135.55,519.6 135.55,539.6 115.55,539.6" fill="rgb(255,255,255)"/><polygon points="115.55,519.6 135.55,519.6 135.55,539.6 115.55,539.6" fill="none" stroke="black" stroke-width="1"/><text xml:space="preserve" x="125.55" y="532.433" font-family="Calibri" font-size="7.5" fill="rgb(0,0,0)" text-anchor="middle">0.0</text>
<polygon points="135.55,519.6 155.55,519.6 155.55,539.6 135.55,539.6" fill="rgb(242,191,242)"/><polygon points="135.55,519.6 155.55,519.6 155.55,539.6 135.55,539.6" fill="none" stroke="black" stroke-width="1"/><text xml:space="preserve" x="145.55" y="532.433" font-family="Calibri" font-size="7.5" fill="rgb(0,0,0)" text-anchor="middle">0.2</text>
<polygon points="155.55,519.6 175.55,519.6 175.55,539.6 155.55,539.6" fill="rgb(230,127,230)"/><polygon points="155.55,519.6 175.55,519.6 175.55,539.6 155.55,539.6" fill="none" stroke="black" stroke-width="1"/><text xml:space="preserve" x="165.55" y="532.433" font-family="Calibri" font-size="7.5" fill="rgb(0,0,0)" text-anchor="middle">0.5</text>
<polygon points="175.55,519.6 195.55,519.6 195.55,539.6 175.55,539.6" fill="rgb(217,63,217)"/><polygon points="175.55,519.6 195.55,519.6 195.55,539.6 175.55,539.6" fill="none" stroke="black" stroke-width="1"/><text xml:space="preserve" x="185.55" y="532.433" font-family="Calibri" font-size="7.5" fill="rgb(255,255,255)" text-anchor="middle">0.8</text>
<polygon points="195.55,519.6 215.55,519.6 215.55,539.6 195.55,539.6" fill="rgb(205,0,205)"/><polygon points="195.55,519.6 215.55,519.6 215.55,539.6 195.55,539.6" fill="none" stroke="black" stroke-width="1"/><text xml:space="preserve" x="205.55" y="532.433" font-family="Calibri" font-size="7.5" fill="rgb(255,255,255)" text-anchor="middle">1.0</text>
</svg>
