<?xml version="1.0" standalone="no"?><!DOCTYPE svg PUBLIC "-//W3C//DTD SVG 1.1//EN" "http://www.w3.org/Graphics/SVG/1.1/DTD/svg11.dtd">
<svg width="312.5" height="583.6" version="1.1" xmlns="http://www.w3.org/2000/svg">
<text xml:space="preserve" x="92.5" y="342.6" font-family="Calibri" font-size="8" text-anchor="end">DCHS2</text>
<text xml:space="preserve" x="92.5" y="350.6" font-family="Calibri" font-size="8" text-anchor="end">NPTX1</text>
<text xml:space="preserve" x="92.5" y="358.6" font-family="Calibri" font-size="8" text-anchor="end">LHX4</text>
<text xml:space="preserve" x="92.5" y="366.6" font-family="Calibri" font-size="8" text-anchor="end">VSTM2B</text>
<text xml:space="preserve" x="92.5" y="374.6" font-family="Calibri" font-size="8" text-anchor="end">PCSK2</text>
<text xml:space="preserve" x="92.5" y="382.6" font-family="Calibri" font-size="8" text-anchor="end">IGFBP5</text>
<text xml:space="preserve" x="103.5" y="331.6" font-family="Calibri" font-size="8" transform="rotate(270 103.5 331.6)">c3</text>
<text xml:space="preserve" x="111.5" y="331.6" font-family="Calibri" font-size="8" transform="rotate(270 111.5 331.6)">c1</text>
<text xml:space="preserve" x="119.5" y="331.6" font-family="Calibri" font-size="8" transform="rotate(270 119.5 331.6)">c4</text>
<text xml:space="preserve" x="127.5" y="331.6" font-family="Calibri" font-size="8" transform="rotate(270 127.5 331.6)">c5</text>
<text xml:space="preserve" x="135.5" y="331.6" font-family="Calibri" font-size="8" transform="rotate(270 135.5 331.6)">c2</text>
<text xml:space="preserve" x="143.5" y="331.6" font-family="Calibri" font-size="8" transform="rotate(270 143.5 331.6)">c6</text>
<text xml:space="preserve" x="151.5" y="331.6" font-family="Calibri" font-size="8" transform="rotate(270 151.5 331.6)">c7</text>
<text xml:space="preserve" x="169.5" y="331.6" font-family="Calibri" font-size="8" transform="rotate(270 169.5 331.6)">c3_mean</text>
<text xml:space="preserve" x="177.5" y="331.6" font-family="Calibri" font-size="8" transform="rotate(270 177.5 331.6)">c1_mean</text>
<text xml:space="preserve" x="185.5" y="331.6" font-family="Calibri" font-size="8" transform="rotate(270 185.5 331.6)">c4_mean</text>
<text xml:space="preserve" x="193.5" y="331.6" font-family="Calibri" font-size="8" transform="rotate(270 193.5 331.6)">c5_mean</text>
<text xml:space="preserve" x="201.5" y="331.6" font-family="Calibri" font-size="8" transform="rotate(270 201.5 331.6)">c2_mean</text>
<text xml:space="preserve" x="209.5" y="331.6" font-family="Calibri" font-size="8" transform="rotate(270 209.5 331.6)">c6_mean</text>
<text xml:space="preserve" x="217.5" y="331.6" font-family="Calibri" font-size="8" transform="rotate(270 217.5 331.6)">c7_mean</text>
<text xml:space="preserve" x="235.5" y="331.6" font-family="Calibri" font-size="8" transform="rotate(270 235.5 331.6)">transcription_factor</text>
<text xml:space="preserve" x="243.5" y="331.6" font-family="Calibri" font-size="8" transform="rotate(270 243.5 331.6)">transmembrane_signal_receptor</text>
<text xml:space="preserve" x="251.5" y="331.6" font-family="Calibri" font-size="8" transform="rotate(270 251.5 331.6)">growth_factor</text>
<text xml:space="preserve" x="259.5" y="331.6" font-family="Calibri" font-size="8" transform="rotate(270 259.5 331.6)">peptide_hormone</text>
<text xml:space="preserve" x="267.5" y="331.6" font-family="Calibri" font-size="8" transform="rotate(270 267.5 331.6)">cytoskeletal_protein</text>
<text xml:space="preserve" x="275.5" y="331.6" font-family="Calibri" font-size="8" transform="rotate(270 275.5 331.6)">ion_channel</text>
<text xml:space="preserve" x="283.5" y="331.6" font-family="Calibri" font-size="8" transform="rotate(270 283.5 331.6)">integrin</text>
<text xml:space="preserve" x="291.5" y="331.6" font-family="Calibri" font-size="8" transform="rotate(270 291.5 331.6)">extracellular_matrix_protein</text>
<polygon points="96.5,335.6 104.5,335.6 104.5,343.6 96.5,343.6" fill="rgb(230,127,0)"/><text xml:space="preserve" x="100.5" y="342.433" font-family="Calibri" font-size="7.5" fill="rgb(0,0,0)" text-anchor="middle">4</text>
<polygon points="104.5,335.6 112.5,335.6 112.5,343.6 104.5,343.6" fill="rgb(230,127,0)"/><text xml:space="preserve" x="108.5" y="342.433" font-family="Calibri" font-size="7.5" fill="rgb(0,0,0)" text-anchor="middle">4</text>
<polygon points="112.5,335.6 120.5,335.6 120.5,343.6 112.5,343.6" fill="rgb(255,255,0)"/><text xml:space="preserve" x="116.5" y="342.433" font-family="Calibri" font-size="7.5" fill="rgb(0,0,0)" text-anchor="middle">3</text>
<polygon points="120.5,335.6 128.5,335.6 128.5,343.6 120.5,343.6" fill="rgb(205,0,0)"/><text xml:space="preserve" x="124.5" y="342.433" font-family="Calibri" font-size="7.5" fill="rgb(255,255,255)" text-anchor="middle">5</text>
<polygon points="128.5,335.6 136.5,335.6 136.5,343.6 128.5,343.6" fill="rgb(205,0,0)"/><text xml:space="preserve" x="132.5" y="342.433" font-family="Calibri" font-size="7.5" fill="rgb(255,255,255)" text-anchor="middle">5</text>
<polygon points="136.5,335.6 144.5,335.6 144.5,343.6 136.5,343.6" fill="rgb(205,0,0)"/><text xml:space="preserve" x="140.5" y="342.433" font-family="Calibri" font-size="7.5" fill="rgb(255,255,255)" text-anchor="middle">5</text>
<polygon points="144.5,335.6 152.5,335.6 152.5,343.6 144.5,343.6" fill="rgb(205,0,0)"/><text xml:space="preserve" x="148.5" y="342.433" font-family="Calibri" font-size="7.5" fill="rgb(255,255,255)" text-anchor="middle">5</text>
<polygon points="162.5,335.6 170.5,335.6 170.5,343.6 162.5,343.6" fill="rgb(32,153,142)"/>
<polygon points="170.5,335.6 178.5,335.6 178.5,343.6 170.5,343.6" fill="rgb(27,133,141)"/>
<polygon points="178.5,335.6 186.5,335.6 186.5,343.6 178.5,343.6" fill="rgb(16,92,138)"/>
<polygon points="186.5,335.6 194.5,335.6 194.5,343.6 186.5,343.6" fill="rgb(27,135,141)"/>
<polygon points="194.5,335.6 202.5,335.6 202.5,343.6 194.5,343.6" fill="rgb(43,195,144)"/>
<polygon points="202.5,335.6 210.5,335.6 210.5,343.6 202.5,343.6" fill="rgb(30,144,141)"/>
<polygon points="210.5,335.6 218.5,335.6 218.5,343.6 210.5,343.6" fill="rgb(38,178,143)"/>
<polygon points="228.5,335.6 236.5,335.6 236.5,343.6 228.5,343.6" fill="rgb(255,255,255)"/>
<polygon points="236.5,335.6 244.5,335.6 244.5,343.6 236.5,343.6" fill="rgb(255,255,255)"/>
<polygon points="244.5,335.6 252.5,335.6 252.5,343.6 244.5,343.6" fill="rgb(255,255,255)"/>
<polygon points="252.5,335.6 260.5,335.6 260.5,343.6 252.5,343.6" fill="rgb(255,255,255)"/>
<polygon points="260.5,335.6 268.5,335.6 268.5,343.6 260.5,343.6" fill="rgb(255,255,255)"/>
<polygon points="268.5,335.6 276.5,335.6 276.5,343.6 268.5,343.6" fill="rgb(255,255,255)"/>
<polygon points="276.5,335.6 284.5,335.6 284.5,343.6 276.5,343.6" fill="rgb(255,255,255)"/>
<polygon points="284.5,335.6 292.5,335.6 292.5,343.6 284.5,343.6" fill="rgb(255,255,255)"/>
<polygon points="96.5,343.6 104.5,343.6 104.5,351.6 96.5,351.6" fill="rgb(230,127,0)"/><text xml:space="preserve" x="100.5" y="350.433" font-family="Calibri" font-size="7.5" fill="rgb(0,0,0)" text-anchor="middle">4</text>
<polygon points="104.5,343.6 112.5,343.6 112.5,351.6 104.5,351.6" fill="rgb(230,127,0)"/><text xml:space="preserve" x="108.5" y="350.433" font-family="Calibri" font-size="7.5" fill="rgb(0,0,0)" text-anchor="middle">4</text>
<polygon points="112.5,343.6 120.5,343.6 120.5,351.6 112.5,351.6" fill="rgb(255,255,0)"/><text xml:space="preserve" x="116.5" y="350.433" font-family="Calibri" font-size="7.5" fill="rgb(0,0,0)" text-anchor="middle">3</text>
<polygon points="120.5,343.6 128.5,343.6 128.5,351.6 120.5,351.6" fill="rgb(205,0,0)"/><text xml:space="preserve" x="124.5" y="350.433" font-family="Calibri" font-size="7.5" fill="rgb(255,255,255)" text-anchor="middle">5</text>
<polygon points="128.5,343.6 136.5,343.6 136.5,351.6 128.5,351.6" fill="rgb(205,0,0)"/><text xml:space="preserve" x="132.5" y="350.433" font-family="Calibri" font-size="7.5" fill="rgb(255,255,255)" text-anchor="middle">5</text>
<polygon points="136.5,343.6 144.5,343.6 144.5,351.6 136.5,351.6" fill="rgb(205,0,0)"/><text xml:space="preserve" x="140.5" y="350.433" font-family="Calibri" font-size="7.5" fill="rgb(255,255,255)" text-anchor="middle">5</text>
<polygon points="144.5,343.6 152.5,343.6 152.5,351.6 144.5,351.6" fill="rgb(205,0,0)"/><text xml:space="preserve" x="148.5" y="350.433" font-family="Calibri" font-size="7.5" fill="rgb(255,255,255)" text-anchor="middle">5</text>
<polygon points="162.5,343.6 170.5,343.6 170.5,351.6 162.5,351.6" fill="rgb(29,142,141)"/>
<polygon points="170.5,343.6 178.5,343.6 178.5,351.6 170.5,351.6" fill="rgb(26,131,141)"/>
<polygon points="178.5,343.6 186.5,343.6 186.5,351.6 178.5,351.6" fill="rgb(23,120,140)"/>
<polygon points="186.5,343.6 194.5,343.6 194.5,351.6 186.5,351.6" fill="rgb(43,195,144)"/>
<polygon points="194.5,343.6 202.5,343.6 202.5,351.6 194.5,351.6" fill="rgb(46,207,145)"/>
<polygon points="202.5,343.6 210.5,343.6 210.5,351.6 202.5,351.6" fill="rgb(40,187,144)"/>
<polygon points="210.5,343.6 218.5,343.6 218.5,351.6 210.5,351.6" fill="rgb(45,206,145)"/>
<polygon points="228.5,343.6 236.5,343.6 236.5,351.6 228.5,351.6" fill="rgb(255,255,255)"/>
<polygon points="236.5,343.6 244.5,343.6 244.5,351.6 236.5,351.6" fill="rgb(255,255,255)"/>
<polygon points="244.5,343.6 252.5,343.6 252.5,351.6 244.5,351.6" fill="rgb(255,255,255)"/>
<polygon points="252.5,343.6 260.5,343.6 260.5,351.6 252.5,351.6" fill="rgb(255,255,255)"/>
<polygon points="260.5,343.6 268.5,343.6 268.5,351.6 260.5,351.6" fill="rgb(255,255,255)"/>
<polygon points="268.5,343.6 276.5,343.6 276.5,351.6 268.5,351.6" fill="rgb(255,255,255)"/>
<polygon points="276.5,343.6 284.5,343.6 284.5,351.6 276.5,351.6" fill="rgb(255,255,255)"/>
<polygon points="284.5,343.6 292.5,343.6 292.5,351.6 284.5,351.6" fill="rgb(255,255,255)"/>
<polygon points="96.5,351.6 104.5,351.6 104.5,359.6 96.5,359.6" fill="rgb(230,127,0)"/><text xml:space="preserve" x="100.5" y="358.433" font-family="Calibri" font-size="7.5" fill="rgb(0,0,0)" text-anchor="middle">4</text>
<polygon points="104.5,351.6 112.5,351.6 112.5,359.6 104.5,359.6" fill="rgb(230,127,0)"/><text xml:space="preserve" x="108.5" y="358.433" font-family="Calibri" font-size="7.5" fill="rgb(0,0,0)" text-anchor="middle">4</text>
<polygon points="112.5,351.6 120.5,351.6 120.5,359.6 112.5,359.6" fill="rgb(255,255,0)"/><text xml:space="preserve" x="116.5" y="358.433" font-family="Calibri" font-size="7.5" fill="rgb(0,0,0)" text-anchor="middle">3</text>
<polygon points="120.5,351.6 128.5,351.6 128.5,359.6 120.5,359.6" fill="rgb(205,0,0)"/><text xml:space="preserve" x="124.5" y="358.433" font-family="Calibri" font-size="7.5" fill="rgb(255,255,255)" text-anchor="middle">5</text>
<polygon points="128.5,351.6 136.5,351.6 136.5,359.6 128.5,359.6" fill="rgb(205,0,0)"/><text xml:space="preserve" x="132.5" y="358.433" font-family="Calibri" font-size="7.5" fill="rgb(255,255,255)" text-anchor="middle">5</text>
<polygon points="136.5,351.6 144.5,351.6 144.5,359.6 136.5,359.6" fill="rgb(205,0,0)"/><text xml:space="preserve" x="140.5" y="358.433" font-family="Calibri" font-size="7.5" fill="rgb(255,255,255)" text-anchor="middle">5</text>
<polygon points="144.5,351.6 152.5,351.6 152.5,359.6 144.5,359.6" fill="rgb(205,0,0)"/><text xml:space="preserve" x="148.5" y="358.433" font-family="Calibri" font-size="7.5" fill="rgb(255,255,255)" text-anchor="middle">5</text>
<polygon points="162.5,351.6 170.5,351.6 170.5,359.6 162.5,359.6" fill="rgb(47,211,145)"/>
<polygon points="170.5,351.6 178.5,351.6 178.5,359.6 170.5,359.6" fill="rgb(42,192,144)"/>
<polygon points="178.5,351.6 186.5,351.6 186.5,359.6 178.5,359.6" fill="rgb(24,123,140)"/>
<polygon points="186.5,351.6 194.5,351.6 194.5,359.6 186.5,359.6" fill="rgb(41,190,144)"/>
<polygon points="194.5,351.6 202.5,351.6 202.5,359.6 194.5,359.6" fill="rgb(33,160,142)"/>
<polygon points="202.5,351.6 210.5,351.6 210.5,359.6 202.5,359.6" fill="rgb(30,144,141)"/>
<polygon points="210.5,351.6 218.5,351.6 218.5,359.6 210.5,359.6" fill="rgb(37,175,143)"/>
<polygon points="228.5,351.6 236.5,351.6 236.5,359.6 228.5,359.6" fill="rgb(205,0,205)"/>
<polygon points="236.5,351.6 244.5,351.6 244.5,359.6 236.5,359.6" fill="rgb(255,255,255)"/>
<polygon points="244.5,351.6 252.5,351.6 252.5,359.6 244.5,359.6" fill="rgb(255,255,255)"/>
<polygon points="252.5,351.6 260.5,351.6 260.5,359.6 252.5,359.6" fill="rgb(255,255,255)"/>
<polygon points="260.5,351.6 268.5,351.6 268.5,359.6 260.5,359.6" fill="rgb(255,255,255)"/>
<polygon points="268.5,351.6 276.5,351.6 276.5,359.6 268.5,359.6" fill="rgb(255,255,255)"/>
<polygon points="276.5,351.6 284.5,351.6 284.5,359.6 276.5,359.6" fill="rgb(255,255,255)"/>
<polygon points="284.5,351.6 292.5,351.6 292.5,359.6 284.5,359.6" fill="rgb(255,255,255)"/>
<polygon points="96.5,359.6 104.5,359.6 104.5,367.6 96.5,367.6" fill="rgb(230,127,0)"/><text xml:space="preserve" x="100.5" y="366.433" font-family="Calibri" font-size="7.5" fill="rgb(0,0,0)" text-anchor="middle">4</text>
<polygon points="104.5,359.6 112.5,359.6 112.5,367.6 104.5,367.6" fill="rgb(230,127,0)"/><text xml:space="preserve" x="108.5" y="366.433" font-family="Calibri" font-size="7.5" fill="rgb(0,0,0)" text-anchor="middle">4</text>
<polygon points="112.5,359.6 120.5,359.6 120.5,367.6 112.5,367.6" fill="rgb(255,255,0)"/><text xml:space="preserve" x="116.5" y="366.433" font-family="Calibri" font-size="7.5" fill="rgb(0,0,0)" text-anchor="middle">3</text>
<polygon points="120.5,359.6 128.5,359.6 128.5,367.6 120.5,367.6" fill="rgb(205,0,0)"/><text xml:space="preserve" x="124.5" y="366.433" font-family="Calibri" font-size="7.5" fill="rgb(255,255,255)" text-anchor="middle">5</text>
<polygon points="128.5,359.6 136.5,359.6 136.5,367.6 128.5,367.6" fill="rgb(205,0,0)"/><text xml:space="preserve" x="132.5" y="366.433" font-family="Calibri" font-size="7.5" fill="rgb(255,255,255)" text-anchor="middle">5</text>
<polygon points="136.5,359.6 144.5,359.6 144.5,367.6 136.5,367.6" fill="rgb(205,0,0)"/><text xml:space="preserve" x="140.5" y="366.433" font-family="Calibri" font-size="7.5" fill="rgb(255,255,255)" text-anchor="middle">5</text>
<polygon points="144.5,359.6 152.5,359.6 152.5,367.6 144.5,367.6" fill="rgb(205,0,0)"/><text xml:space="preserve" x="148.5" y="366.433" font-family="Calibri" font-size="7.5" fill="rgb(255,255,255)" text-anchor="middle">5</text>
<polygon points="162.5,359.6 170.5,359.6 170.5,367.6 162.5,367.6" fill="rgb(40,185,144)"/>
<polygon points="170.5,359.6 178.5,359.6 178.5,367.6 170.5,367.6" fill="rgb(35,167,143)"/>
<polygon points="178.5,359.6 186.5,359.6 186.5,367.6 178.5,367.6" fill="rgb(24,123,140)"/>
<polygon points="186.5,359.6 194.5,359.6 194.5,367.6 186.5,367.6" fill="rgb(32,153,142)"/>
<polygon points="194.5,359.6 202.5,359.6 202.5,367.6 194.5,367.6" fill="rgb(44,201,144)"/>
<polygon points="202.5,359.6 210.5,359.6 210.5,367.6 202.5,367.6" fill="rgb(31,151,142)"/>
<polygon points="210.5,359.6 218.5,359.6 218.5,367.6 210.5,367.6" fill="rgb(40,187,144)"/>
<polygon points="228.5,359.6 236.5,359.6 236.5,367.6 228.5,367.6" fill="rgb(255,255,255)"/>
<polygon points="236.5,359.6 244.5,359.6 244.5,367.6 236.5,367.6" fill="rgb(255,255,255)"/>
<polygon points="244.5,359.6 252.5,359.6 252.5,367.6 244.5,367.6" fill="rgb(255,255,255)"/>
<polygon points="252.5,359.6 260.5,359.6 260.5,367.6 252.5,367.6" fill="rgb(255,255,255)"/>
<polygon points="260.5,359.6 268.5,359.6 268.5,367.6 260.5,367.6" fill="rgb(255,255,255)"/>
<polygon points="268.5,359.6 276.5,359.6 276.5,367.6 268.5,367.6" fill="rgb(255,255,255)"/>
<polygon points="276.5,359.6 284.5,359.6 284.5,367.6 276.5,367.6" fill="rgb(255,255,255)"/>
<polygon points="284.5,359.6 292.5,359.6 292.5,367.6 284.5,367.6" fill="rgb(255,255,255)"/>
<polygon points="96.5,367.6 104.5,367.6 104.5,375.6 96.5,375.6" fill="rgb(230,127,0)"/><text xml:space="preserve" x="100.5" y="374.433" font-family="Calibri" font-size="7.5" fill="rgb(0,0,0)" text-anchor="middle">4</text>
<polygon points="104.5,367.6 112.5,367.6 112.5,375.6 104.5,375.6" fill="rgb(230,127,0)"/><text xml:space="preserve" x="108.5" y="374.433" font-family="Calibri" font-size="7.5" fill="rgb(0,0,0)" text-anchor="middle">4</text>
<polygon points="112.5,367.6 120.5,367.6 120.5,375.6 112.5,375.6" fill="rgb(255,255,0)"/><text xml:space="preserve" x="116.5" y="374.433" font-family="Calibri" font-size="7.5" fill="rgb(0,0,0)" text-anchor="middle">3</text>
<polygon points="120.5,367.6 128.5,367.6 128.5,375.6 120.5,375.6" fill="rgb(205,0,0)"/><text xml:space="preserve" x="124.5" y="374.433" font-family="Calibri" font-size="7.5" fill="rgb(255,255,255)" text-anchor="middle">5</text>
<polygon points="128.5,367.6 136.5,367.6 136.5,375.6 128.5,375.6" fill="rgb(205,0,0)"/><text xml:space="preserve" x="132.5" y="374.433" font-family="Calibri" font-size="7.5" fill="rgb(255,255,255)" text-anchor="middle">5</text>
<polygon points="136.5,367.6 144.5,367.6 144.5,375.6 136.5,375.6" fill="rgb(205,0,0)"/><text xml:space="preserve" x="140.5" y="374.433" font-family="Calibri" font-size="7.5" fill="rgb(255,255,255)" text-anchor="middle">5</text>
<polygon points="144.5,367.6 152.5,367.6 152.5,375.6 144.5,375.6" fill="rgb(205,0,0)"/><text xml:space="preserve" x="148.5" y="374.433" font-family="Calibri" font-size="7.5" fill="rgb(255,255,255)" text-anchor="middle">5</text>
<polygon points="162.5,367.6 170.5,367.6 170.5,375.6 162.5,375.6" fill="rgb(29,142,141)"/>
<polygon points="170.5,367.6 178.5,367.6 178.5,375.6 170.5,375.6" fill="rgb(27,133,141)"/>
<polygon points="178.5,367.6 186.5,367.6 186.5,375.6 178.5,375.6" fill="rgb(18,98,139)"/>
<polygon points="186.5,367.6 194.5,367.6 194.5,375.6 186.5,375.6" fill="rgb(32,156,142)"/>
<polygon points="194.5,367.6 202.5,367.6 202.5,375.6 194.5,375.6" fill="rgb(39,180,143)"/>
<polygon points="202.5,367.6 210.5,367.6 210.5,375.6 202.5,375.6" fill="rgb(33,158,142)"/>
<polygon points="210.5,367.6 218.5,367.6 218.5,375.6 210.5,375.6" fill="rgb(34,161,142)"/>
<polygon points="228.5,367.6 236.5,367.6 236.5,375.6 228.5,375.6" fill="rgb(255,255,255)"/>
<polygon points="236.5,367.6 244.5,367.6 244.5,375.6 236.5,375.6" fill="rgb(255,255,255)"/>
<polygon points="244.5,367.6 252.5,367.6 252.5,375.6 244.5,375.6" fill="rgb(255,255,255)"/>
<polygon points="252.5,367.6 260.5,367.6 260.5,375.6 252.5,375.6" fill="rgb(255,255,255)"/>
<polygon points="260.5,367.6 268.5,367.6 268.5,375.6 260.5,375.6" fill="rgb(255,255,255)"/>
<polygon points="268.5,367.6 276.5,367.6 276.5,375.6 268.5,375.6" fill="rgb(255,255,255)"/>
<polygon points="276.5,367.6 284.5,367.6 284.5,375.6 276.5,375.6" fill="rgb(255,255,255)"/>
<polygon points="284.5,367.6 292.5,367.6 292.5,375.6 284.5,375.6" fill="rgb(255,255,255)"/>
<polygon points="96.5,375.6 104.5,375.6 104.5,383.6 96.5,383.6" fill="rgb(230,127,0)"/><text xml:space="preserve" x="100.5" y="382.433" font-family="Calibri" font-size="7.5" fill="rgb(0,0,0)" text-anchor="middle">4</text>
<polygon points="104.5,375.6 112.5,375.6 112.5,383.6 104.5,383.6" fill="rgb(230,127,0)"/><text xml:space="preserve" x="108.5" y="382.433" font-family="Calibri" font-size="7.5" fill="rgb(0,0,0)" text-anchor="middle">4</text>
<polygon points="112.5,375.6 120.5,375.6 120.5,383.6 112.5,383.6" fill="rgb(255,255,0)"/><text xml:space="preserve" x="116.5" y="382.433" font-family="Calibri" font-size="7.5" fill="rgb(0,0,0)" text-anchor="middle">3</text>
<polygon points="120.5,375.6 128.5,375.6 128.5,383.6 120.5,383.6" fill="rgb(205,0,0)"/><text xml:space="preserve" x="124.5" y="382.433" font-family="Calibri" font-size="7.5" fill="rgb(255,255,255)" text-anchor="middle">5</text>
<polygon points="128.5,375.6 136.5,375.6 136.5,383.6 128.5,383.6" fill="rgb(205,0,0)"/><text xml:space="preserve" x="132.5" y="382.433" font-family="Calibri" font-size="7.5" fill="rgb(255,255,255)" text-anchor="middle">5</text>
<polygon points="136.5,375.6 144.5,375.6 144.5,383.6 136.5,383.6" fill="rgb(205,0,0)"/><text xml:space="preserve" x="140.5" y="382.433" font-family="Calibri" font-size="7.5" fill="rgb(255,255,255)" text-anchor="middle">5</text>
<polygon points="144.5,375.6 152.5,375.6 152.5,383.6 144.5,383.6" fill="rgb(205,0,0)"/><text xml:space="preserve" x="148.5" y="382.433" font-family="Calibri" font-size="7.5" fill="rgb(255,255,255)" text-anchor="middle">5</text>
<polygon points="162.5,375.6 170.5,375.6 170.5,383.6 162.5,383.6" fill="rgb(24,124,140)"/>
<polygon points="170.5,375.6 178.5,375.6 178.5,383.6 170.5,383.6" fill="rgb(32,156,142)"/>
<polygon points="178.5,375.6 186.5,375.6 186.5,383.6 178.5,383.6" fill="rgb(22,115,140)"/>
<polygon points="186.5,375.6 194.5,375.6 194.5,383.6 186.5,383.6" fill="rgb(27,134,141)"/>
<polygon points="194.5,375.6 202.5,375.6 202.5,383.6 194.5,383.6" fill="rgb(34,162,142)"/>
<polygon points="202.5,375.6 210.5,375.6 210.5,383.6 202.5,383.6" fill="rgb(164,204,63)"/>
<polygon points="210.5,375.6 218.5,375.6 218.5,383.6 210.5,383.6" fill="rgb(37,172,143)"/>
<polygon points="228.5,375.6 236.5,375.6 236.5,383.6 228.5,383.6" fill="rgb(255,255,255)"/>
<polygon points="236.5,375.6 244.5,375.6 244.5,383.6 236.5,383.6" fill="rgb(255,255,255)"/>
<polygon points="244.5,375.6 252.5,375.6 252.5,383.6 244.5,383.6" fill="rgb(255,255,255)"/>
<polygon points="252.5,375.6 260.5,375.6 260.5,383.6 252.5,383.6" fill="rgb(255,255,255)"/>
<polygon points="260.5,375.6 268.5,375.6 268.5,383.6 260.5,383.6" fill="rgb(255,255,255)"/>
<polygon points="268.5,375.6 276.5,375.6 276.5,383.6 268.5,383.6" fill="rgb(255,255,255)"/>
<polygon points="276.5,375.6 284.5,375.6 284.5,383.6 276.5,383.6" fill="rgb(255,255,255)"/>
<polygon points="284.5,375.6 292.5,375.6 292.5,383.6 284.5,383.6" fill="rgb(255,255,255)"/>
<polygon points="96.5,335.6 152.5,335.6 152.5,383.6 96.5,383.6" fill="none" stroke="black" stroke-width="1"/>
<polygon points="162.5,335.6 218.5,335.6 218.5,383.6 162.5,383.6" fill="none" stroke="black" stroke-width="1"/>
<polygon points="228.5,335.6 292.5,335.6 292.5,383.6 228.5,383.6" fill="none" stroke="black" stroke-width="1"/>
<text xml:space="preserve" x="156.25" y="416.6" font-family="Calibri" font-size="8" text-anchor="middle">ClusterAssignment</text>
<polygon points="106.25,423.6 126.25,423.6 126.25,443.6 106.25,443.6" fill="rgb(0,205,0)"/><polygon points="106.25,423.6 126.25,423.6 126.25,443.6 106.25,443.6" fill="none" stroke="black" stroke-width="1"/><text xml:space="preserve" x="116.25" y="436.433" font-family="Calibri" font-size="7.5" fill="rgb(255,255,255)" text-anchor="middle">1.0</text>
<polygon points="126.25,423.6 146.25,423.6 146.25,443.6 126.25,443.6" fill="rgb(127,230,0)"/><polygon points="126.25,423.6 146.25,423.6 146.25,443.6 126.25,443.6" fill="none" stroke="black" stroke-width="1"/><text xml:space="preserve" x="136.25" y="436.433" font-family="Calibri" font-size="7.5" fill="rgb(0,0,0)" text-anchor="middle">2.0</text>
<polygon points="146.25,423.6 166.25,423.6 166.25,443.6 146.25,443.6" fill="rgb(255,255,0)"/><polygon points="146.25,423.6 166.25,423.6 166.25,443.6 146.25,443.6" fill="none" stroke="black" stroke-width="1"/><text xml:space="preserve" x="156.25" y="436.433" font-family="Calibri" font-size="7.5" fill="rgb(0,0,0)" text-anchor="middle">3.0</text>
<polygon points="166.25,423.6 186.25,423.6 186.25,443.6 166.25,443.6" fill="rgb(230,127,0)"/><polygon points="166.25,423.6 186.25,423.6 186.25,443.6 166.25,443.6" fill="none" stroke="black" stroke-width="1"/><text xml:space="preserve" x="176.25" y="436.433" font-family="Calibri" font-size="7.5" fill="rgb(0,0,0)" text-anchor="middle">4.0</text>
<polygon points="186.25,423.6 206.25,423.6 206.25,443.6 186.25,443.6" fill="rgb(205,0,0)"/><polygon points="186.25,423.6 206.25,423.6 206.25,443.6 186.25,443.6" fill="none" stroke="black" stroke-width="1"/><text xml:space="preserve" x="196.25" y="436.433" font-family="Calibri" font-size="7.5" fill="rgb(255,255,255)" text-anchor="middle">5.0</text>
<text xml:space="preserve" x="156.25" y="476.6" font-family="Calibri" font-size="8" text-anchor="middle">Expression</text>
<polygon points="106.25,483.6 126.25,483.6 126.25,503.6 106.25,503.6" fill="rgb(0,27,135)"/><polygon points="106.25,483.6 126.25,483.6 126.25,503.6 106.25,503.6" fill="none" stroke="black" stroke-width="1"/><text xml:space="preserve" x="116.25" y="496.433" font-family="Calibri" font-size="7.5" fill="rgb(255,255,255)" text-anchor="middle">0.0</text>
<polygon points="126.25,483.6 146.25,483.6 146.25,503.6 126.25,503.6" fill="rgb(24,123,140)"/><polygon points="126.25,483.6 146.25,483.6 146.25,503.6 126.25,503.6" fill="none" stroke="black" stroke-width="1"/><text xml:space="preserve" x="136.25" y="496.433" font-family="Calibri" font-size="7.5" fill="rgb(255,255,255)" text-anchor="middle">0.8</text>
<polygon points="146.25,483.6 166.25,483.6 166.25,503.6 146.25,503.6" fill="rgb(49,219,146)"/><polygon points="146.25,483.6 166.25,483.6 166.25,503.6 146.25,503.6" fill="none" stroke="black" stroke-width="1"/><text xml:space="preserve" x="156.25" y="496.433" font-family="Calibri" font-size="7.5" fill="rgb(0,0,0)" text-anchor="middle">1.5</text>
<polygon points="166.25,483.6 186.25,483.6 186.25,503.6 166.25,503.6" fill="rgb(150,206,73)"/><polygon points="166.25,483.6 186.25,483.6 186.25,503.6 166.25,503.6" fill="none" stroke="black" stroke-width="1"/><text xml:space="preserve" x="176.25" y="496.433" font-family="Calibri" font-size="7.5" fill="rgb(0,0,0)" text-anchor="middle">2.2</text>
<polygon points="186.25,483.6 206.25,483.6 206.25,503.6 186.25,503.6" fill="rgb(252,194,1)"/><polygon points="186.25,483.6 206.25,483.6 206.25,503.6 186.25,503.6" fill="none" stroke="black" stroke-width="1"/><text xml:space="preserve" x="196.25" y="496.433" font-family="Calibri" font-size="7.5" fill="rgb(0,0,0)" text-anchor="middle">3.0</text>
<text xml:space="preserve" x="156.25" y="536.6" font-family="Calibri" font-size="8" text-anchor="middle">PANTHERclass</text>
<polygon points="106.25,543.6 126.25,543.6 126.25,563.6 106.25,563.6" fill="rgb(255,255,255)"/><polygon points="106.25,543.6 126.25,543.6 126.25,563.6 106.25,563.6" fill="none" stroke="black" stroke-width="1"/><text xml:space="preserve" x="116.25" y="556.433" font-family="Calibri" font-size="7.5" fill="rgb(0,0,0)" text-anchor="middle">0.0</text>
<polygon points="126.25,543.6 146.25,543.6 146.25,563.6 126.25,563.6" fill="rgb(242,191,242)"/><polygon points="126.25,543.6 146.25,543.6 146.25,563.6 126.25,563.6" fill="none" stroke="black" stroke-width="1"/><text xml:space="preserve" x="136.25" y="556.433" font-family="Calibri" font-size="7.5" fill="rgb(0,0,0)" text-anchor="middle">0.2</text>
<polygon points="146.25,543.6 166.25,543.6 166.25,563.6 146.25,563.6" fill="rgb(230,127,230)"/><polygon points="146.25,543.6 166.25,543.6 166.25,563.6 146.25,563.6" fill="none" stroke="black" stroke-width="1"/><text xml:space="preserve" x="156.25" y="556.433" font-family="Calibri" font-size="7.5" fill="rgb(0,0,0)" text-anchor="middle">0.5</text>
<polygon points="166.25,543.6 186.25,543.6 186.25,563.6 166.25,563.6" fill="rgb(217,63,217)"/><polygon points="166.25,543.6 186.25,543.6 186.25,563.6 166.25,563.6" fill="none" stroke="black" stroke-width="1"/><text xml:space="preserve" x="176.25" y="556.433" font-family="Calibri" font-size="7.5" fill="rgb(255,255,255)" text-anchor="middle">0.8</text>
<polygon points="186.25,543.6 206.25,543.6 206.25,563.6 186.25,563.6" fill="rgb(205,0,205)"/><polygon points="186.25,543.6 206.25,543.6 206.25,563.6 186.25,563.6" fill="none" stroke="black" stroke-width="1"/><text xml:space="preserve" x="196.25" y="556.433" font-family="Calibri" font-size="7.5" fill="rgb(255,255,255)" text-anchor="middle">1.0</text>
</svg>
