<?xml version="1.0" standalone="no"?><!DOCTYPE svg PUBLIC "-//W3C//DTD SVG 1.1//EN" "http://www.w3.org/Graphics/SVG/1.1/DTD/svg11.dtd">
<svg width="307.4" height="591.6" version="1.1" xmlns="http://www.w3.org/2000/svg">
<text xml:space="preserve" x="87.4" y="342.6" font-family="Calibri" font-size="8" text-anchor="end">DACH2</text>
<text xml:space="preserve" x="87.4" y="350.6" font-family="Calibri" font-size="8" text-anchor="end">SSTR2</text>
<text xml:space="preserve" x="87.4" y="358.6" font-family="Calibri" font-size="8" text-anchor="end">UBE2D2</text>
<text xml:space="preserve" x="87.4" y="366.6" font-family="Calibri" font-size="8" text-anchor="end">NAP1L4</text>
<text xml:space="preserve" x="87.4" y="374.6" font-family="Calibri" font-size="8" text-anchor="end">EBF2</text>
<text xml:space="preserve" x="87.4" y="382.6" font-family="Calibri" font-size="8" text-anchor="end">XRCC5</text>
<text xml:space="preserve" x="87.4" y="390.6" font-family="Calibri" font-size="8" text-anchor="end">EVL</text>
<text xml:space="preserve" x="98.4" y="331.6" font-family="Calibri" font-size="8" transform="rotate(270 98.4 331.6)">c3</text>
<text xml:space="preserve" x="106.4" y="331.6" font-family="Calibri" font-size="8" transform="rotate(270 106.4 331.6)">c1</text>
<text xml:space="preserve" x="114.4" y="331.6" font-family="Calibri" font-size="8" transform="rotate(270 114.4 331.6)">c4</text>
<text xml:space="preserve" x="122.4" y="331.6" font-family="Calibri" font-size="8" transform="rotate(270 122.4 331.6)">c5</text>
<text xml:space="preserve" x="130.4" y="331.6" font-family="Calibri" font-size="8" transform="rotate(270 130.4 331.6)">c2</text>
<text xml:space="preserve" x="138.4" y="331.6" font-family="Calibri" font-size="8" transform="rotate(270 138.4 331.6)">c6</text>
<text xml:space="preserve" x="146.4" y="331.6" font-family="Calibri" font-size="8" transform="rotate(270 146.4 331.6)">c7</text>
<text xml:space="preserve" x="164.4" y="331.6" font-family="Calibri" font-size="8" transform="rotate(270 164.4 331.6)">c3_mean</text>
<text xml:space="preserve" x="172.4" y="331.6" font-family="Calibri" font-size="8" transform="rotate(270 172.4 331.6)">c1_mean</text>
<text xml:space="preserve" x="180.4" y="331.6" font-family="Calibri" font-size="8" transform="rotate(270 180.4 331.6)">c4_mean</text>
<text xml:space="preserve" x="188.4" y="331.6" font-family="Calibri" font-size="8" transform="rotate(270 188.4 331.6)">c5_mean</text>
<text xml:space="preserve" x="196.4" y="331.6" font-family="Calibri" font-size="8" transform="rotate(270 196.4 331.6)">c2_mean</text>
<text xml:space="preserve" x="204.4" y="331.6" font-family="Calibri" font-size="8" transform="rotate(270 204.4 331.6)">c6_mean</text>
<text xml:space="preserve" x="212.4" y="331.6" font-family="Calibri" font-size="8" transform="rotate(270 212.4 331.6)">c7_mean</text>
<text xml:space="preserve" x="230.4" y="331.6" font-family="Calibri" font-size="8" transform="rotate(270 230.4 331.6)">transcription_factor</text>
<text xml:space="preserve" x="238.4" y="331.6" font-family="Calibri" font-size="8" transform="rotate(270 238.4 331.6)">transmembrane_signal_receptor</text>
<text xml:space="preserve" x="246.4" y="331.6" font-family="Calibri" font-size="8" transform="rotate(270 246.4 331.6)">growth_factor</text>
<text xml:space="preserve" x="254.4" y="331.6" font-family="Calibri" font-size="8" transform="rotate(270 254.4 331.6)">peptide_hormone</text>
<text xml:space="preserve" x="262.4" y="331.6" font-family="Calibri" font-size="8" transform="rotate(270 262.4 331.6)">cytoskeletal_protein</text>
<text xml:space="preserve" x="270.4" y="331.6" font-family="Calibri" font-size="8" transform="rotate(270 270.4 331.6)">ion_channel</text>
<text xml:space="preserve" x="278.4" y="331.6" font-family="Calibri" font-size="8" transform="rotate(270 278.4 331.6)">integrin</text>
<text xml:space="preserve" x="286.4" y="331.6" font-family="Calibri" font-size="8" transform="rotate(270 286.4 331.6)">extracellular_matrix_protein</text>
<polygon points="91.4,335.6 99.4,335.6 99.4,343.6 91.4,343.6" fill="rgb(127,230,0)"/><text xml:space="preserve" x="95.4" y="342.433" font-family="Calibri" font-size="7.5" fill="rgb(0,0,0)" text-anchor="middle">2</text>
<polygon points="99.4,335.6 107.4,335.6 107.4,343.6 99.4,343.6" fill="rgb(127,230,0)"/><text xml:space="preserve" x="103.4" y="342.433" font-family="Calibri" font-size="7.5" fill="rgb(0,0,0)" text-anchor="middle">2</text>
<polygon points="107.4,335.6 115.4,335.6 115.4,343.6 107.4,343.6" fill="rgb(127,230,0)"/><text xml:space="preserve" x="111.4" y="342.433" font-family="Calibri" font-size="7.5" fill="rgb(0,0,0)" text-anchor="middle">2</text>
<polygon points="115.4,335.6 123.4,335.6 123.4,343.6 115.4,343.6" fill="rgb(127,230,0)"/><text xml:space="preserve" x="119.4" y="342.433" font-family="Calibri" font-size="7.5" fill="rgb(0,0,0)" text-anchor="middle">2</text>
<polygon points="123.4,335.6 131.4,335.6 131.4,343.6 123.4,343.6" fill="rgb(205,0,0)"/><text xml:space="preserve" x="127.4" y="342.433" font-family="Calibri" font-size="7.5" fill="rgb(255,255,255)" text-anchor="middle">5</text>
<polygon points="131.4,335.6 139.4,335.6 139.4,343.6 131.4,343.6" fill="rgb(205,0,0)"/><text xml:space="preserve" x="135.4" y="342.433" font-family="Calibri" font-size="7.5" fill="rgb(255,255,255)" text-anchor="middle">5</text>
<polygon points="139.4,335.6 147.4,335.6 147.4,343.6 139.4,343.6" fill="rgb(205,0,0)"/><text xml:space="preserve" x="143.4" y="342.433" font-family="Calibri" font-size="7.5" fill="rgb(255,255,255)" text-anchor="middle">5</text>
<polygon points="157.4,335.6 165.4,335.6 165.4,343.6 157.4,343.6" fill="rgb(10,69,137)"/>
<polygon points="165.4,335.6 173.4,335.6 173.4,343.6 165.4,343.6" fill="rgb(11,73,137)"/>
<polygon points="173.4,335.6 181.4,335.6 181.4,343.6 173.4,343.6" fill="rgb(12,74,137)"/>
<polygon points="181.4,335.6 189.4,335.6 189.4,343.6 181.4,343.6" fill="rgb(10,67,137)"/>
<polygon points="189.4,335.6 197.4,335.6 197.4,343.6 189.4,343.6" fill="rgb(32,155,142)"/>
<polygon points="197.4,335.6 205.4,335.6 205.4,343.6 197.4,343.6" fill="rgb(35,165,142)"/>
<polygon points="205.4,335.6 213.4,335.6 213.4,343.6 205.4,343.6" fill="rgb(33,158,142)"/>
<polygon points="223.4,335.6 231.4,335.6 231.4,343.6 223.4,343.6" fill="rgb(205,0,205)"/>
<polygon points="231.4,335.6 239.4,335.6 239.4,343.6 231.4,343.6" fill="rgb(255,255,255)"/>
<polygon points="239.4,335.6 247.4,335.6 247.4,343.6 239.4,343.6" fill="rgb(255,255,255)"/>
<polygon points="247.4,335.6 255.4,335.6 255.4,343.6 247.4,343.6" fill="rgb(255,255,255)"/>
<polygon points="255.4,335.6 263.4,335.6 263.4,343.6 255.4,343.6" fill="rgb(255,255,255)"/>
<polygon points="263.4,335.6 271.4,335.6 271.4,343.6 263.4,343.6" fill="rgb(255,255,255)"/>
<polygon points="271.4,335.6 279.4,335.6 279.4,343.6 271.4,343.6" fill="rgb(255,255,255)"/>
<polygon points="279.4,335.6 287.4,335.6 287.4,343.6 279.4,343.6" fill="rgb(255,255,255)"/>
<polygon points="91.4,343.6 99.4,343.6 99.4,351.6 91.4,351.6" fill="rgb(127,230,0)"/><text xml:space="preserve" x="95.4" y="350.433" font-family="Calibri" font-size="7.5" fill="rgb(0,0,0)" text-anchor="middle">2</text>
<polygon points="99.4,343.6 107.4,343.6 107.4,351.6 99.4,351.6" fill="rgb(127,230,0)"/><text xml:space="preserve" x="103.4" y="350.433" font-family="Calibri" font-size="7.5" fill="rgb(0,0,0)" text-anchor="middle">2</text>
<polygon points="107.4,343.6 115.4,343.6 115.4,351.6 107.4,351.6" fill="rgb(127,230,0)"/><text xml:space="preserve" x="111.4" y="350.433" font-family="Calibri" font-size="7.5" fill="rgb(0,0,0)" text-anchor="middle">2</text>
<polygon points="115.4,343.6 123.4,343.6 123.4,351.6 115.4,351.6" fill="rgb(127,230,0)"/><text xml:space="preserve" x="119.4" y="350.433" font-family="Calibri" font-size="7.5" fill="rgb(0,0,0)" text-anchor="middle">2</text>
<polygon points="123.4,343.6 131.4,343.6 131.4,351.6 123.4,351.6" fill="rgb(205,0,0)"/><text xml:space="preserve" x="127.4" y="350.433" font-family="Calibri" font-size="7.5" fill="rgb(255,255,255)" text-anchor="middle">5</text>
<polygon points="131.4,343.6 139.4,343.6 139.4,351.6 131.4,351.6" fill="rgb(205,0,0)"/><text xml:space="preserve" x="135.4" y="350.433" font-family="Calibri" font-size="7.5" fill="rgb(255,255,255)" text-anchor="middle">5</text>
<polygon points="139.4,343.6 147.4,343.6 147.4,351.6 139.4,351.6" fill="rgb(205,0,0)"/><text xml:space="preserve" x="143.4" y="350.433" font-family="Calibri" font-size="7.5" fill="rgb(255,255,255)" text-anchor="middle">5</text>
<polygon points="157.4,343.6 165.4,343.6 165.4,351.6 157.4,351.6" fill="rgb(10,66,137)"/>
<polygon points="165.4,343.6 173.4,343.6 173.4,351.6 165.4,351.6" fill="rgb(12,75,137)"/>
<polygon points="173.4,343.6 181.4,343.6 181.4,351.6 173.4,351.6" fill="rgb(9,65,137)"/>
<polygon points="181.4,343.6 189.4,343.6 189.4,351.6 181.4,351.6" fill="rgb(18,101,139)"/>
<polygon points="189.4,343.6 197.4,343.6 197.4,351.6 189.4,351.6" fill="rgb(31,151,142)"/>
<polygon points="197.4,343.6 205.4,343.6 205.4,351.6 197.4,351.6" fill="rgb(33,160,142)"/>
<polygon points="205.4,343.6 213.4,343.6 213.4,351.6 205.4,351.6" fill="rgb(32,155,142)"/>
<polygon points="223.4,343.6 231.4,343.6 231.4,351.6 223.4,351.6" fill="rgb(255,255,255)"/>
<polygon points="231.4,343.6 239.4,343.6 239.4,351.6 231.4,351.6" fill="rgb(255,255,255)"/>
<polygon points="239.4,343.6 247.4,343.6 247.4,351.6 239.4,351.6" fill="rgb(255,255,255)"/>
<polygon points="247.4,343.6 255.4,343.6 255.4,351.6 247.4,351.6" fill="rgb(255,255,255)"/>
<polygon points="255.4,343.6 263.4,343.6 263.4,351.6 255.4,351.6" fill="rgb(255,255,255)"/>
<polygon points="263.4,343.6 271.4,343.6 271.4,351.6 263.4,351.6" fill="rgb(255,255,255)"/>
<polygon points="271.4,343.6 279.4,343.6 279.4,351.6 271.4,351.6" fill="rgb(255,255,255)"/>
<polygon points="279.4,343.6 287.4,343.6 287.4,351.6 279.4,351.6" fill="rgb(255,255,255)"/>
<polygon points="91.4,351.6 99.4,351.6 99.4,359.6 91.4,359.6" fill="rgb(127,230,0)"/><text xml:space="preserve" x="95.4" y="358.433" font-family="Calibri" font-size="7.5" fill="rgb(0,0,0)" text-anchor="middle">2</text>
<polygon points="99.4,351.6 107.4,351.6 107.4,359.6 99.4,359.6" fill="rgb(127,230,0)"/><text xml:space="preserve" x="103.4" y="358.433" font-family="Calibri" font-size="7.5" fill="rgb(0,0,0)" text-anchor="middle">2</text>
<polygon points="107.4,351.6 115.4,351.6 115.4,359.6 107.4,359.6" fill="rgb(127,230,0)"/><text xml:space="preserve" x="111.4" y="358.433" font-family="Calibri" font-size="7.5" fill="rgb(0,0,0)" text-anchor="middle">2</text>
<polygon points="115.4,351.6 123.4,351.6 123.4,359.6 115.4,359.6" fill="rgb(127,230,0)"/><text xml:space="preserve" x="119.4" y="358.433" font-family="Calibri" font-size="7.5" fill="rgb(0,0,0)" text-anchor="middle">2</text>
<polygon points="123.4,351.6 131.4,351.6 131.4,359.6 123.4,359.6" fill="rgb(205,0,0)"/><text xml:space="preserve" x="127.4" y="358.433" font-family="Calibri" font-size="7.5" fill="rgb(255,255,255)" text-anchor="middle">5</text>
<polygon points="131.4,351.6 139.4,351.6 139.4,359.6 131.4,359.6" fill="rgb(205,0,0)"/><text xml:space="preserve" x="135.4" y="358.433" font-family="Calibri" font-size="7.5" fill="rgb(255,255,255)" text-anchor="middle">5</text>
<polygon points="139.4,351.6 147.4,351.6 147.4,359.6 139.4,359.6" fill="rgb(205,0,0)"/><text xml:space="preserve" x="143.4" y="358.433" font-family="Calibri" font-size="7.5" fill="rgb(255,255,255)" text-anchor="middle">5</text>
<polygon points="157.4,351.6 165.4,351.6 165.4,359.6 157.4,359.6" fill="rgb(6,53,136)"/>
<polygon points="165.4,351.6 173.4,351.6 173.4,359.6 165.4,359.6" fill="rgb(7,56,136)"/>
<polygon points="173.4,351.6 181.4,351.6 181.4,359.6 173.4,359.6" fill="rgb(15,87,138)"/>
<polygon points="181.4,351.6 189.4,351.6 189.4,359.6 181.4,359.6" fill="rgb(6,53,136)"/>
<polygon points="189.4,351.6 197.4,351.6 197.4,359.6 189.4,359.6" fill="rgb(31,151,142)"/>
<polygon points="197.4,351.6 205.4,351.6 205.4,359.6 197.4,359.6" fill="rgb(34,161,142)"/>
<polygon points="205.4,351.6 213.4,351.6 213.4,359.6 205.4,359.6" fill="rgb(35,165,142)"/>
<polygon points="223.4,351.6 231.4,351.6 231.4,359.6 223.4,359.6" fill="rgb(255,255,255)"/>
<polygon points="231.4,351.6 239.4,351.6 239.4,359.6 231.4,359.6" fill="rgb(255,255,255)"/>
<polygon points="239.4,351.6 247.4,351.6 247.4,359.6 239.4,359.6" fill="rgb(255,255,255)"/>
<polygon points="247.4,351.6 255.4,351.6 255.4,359.6 247.4,359.6" fill="rgb(255,255,255)"/>
<polygon points="255.4,351.6 263.4,351.6 263.4,359.6 255.4,359.6" fill="rgb(255,255,255)"/>
<polygon points="263.4,351.6 271.4,351.6 271.4,359.6 263.4,359.6" fill="rgb(255,255,255)"/>
<polygon points="271.4,351.6 279.4,351.6 279.4,359.6 271.4,359.6" fill="rgb(255,255,255)"/>
<polygon points="279.4,351.6 287.4,351.6 287.4,359.6 279.4,359.6" fill="rgb(255,255,255)"/>
<polygon points="91.4,359.6 99.4,359.6 99.4,367.6 91.4,367.6" fill="rgb(127,230,0)"/><text xml:space="preserve" x="95.4" y="366.433" font-family="Calibri" font-size="7.5" fill="rgb(0,0,0)" text-anchor="middle">2</text>
<polygon points="99.4,359.6 107.4,359.6 107.4,367.6 99.4,367.6" fill="rgb(127,230,0)"/><text xml:space="preserve" x="103.4" y="366.433" font-family="Calibri" font-size="7.5" fill="rgb(0,0,0)" text-anchor="middle">2</text>
<polygon points="107.4,359.6 115.4,359.6 115.4,367.6 107.4,367.6" fill="rgb(127,230,0)"/><text xml:space="preserve" x="111.4" y="366.433" font-family="Calibri" font-size="7.5" fill="rgb(0,0,0)" text-anchor="middle">2</text>
<polygon points="115.4,359.6 123.4,359.6 123.4,367.6 115.4,367.6" fill="rgb(127,230,0)"/><text xml:space="preserve" x="119.4" y="366.433" font-family="Calibri" font-size="7.5" fill="rgb(0,0,0)" text-anchor="middle">2</text>
<polygon points="123.4,359.6 131.4,359.6 131.4,367.6 123.4,367.6" fill="rgb(205,0,0)"/><text xml:space="preserve" x="127.4" y="366.433" font-family="Calibri" font-size="7.5" fill="rgb(255,255,255)" text-anchor="middle">5</text>
<polygon points="131.4,359.6 139.4,359.6 139.4,367.6 131.4,367.6" fill="rgb(205,0,0)"/><text xml:space="preserve" x="135.4" y="366.433" font-family="Calibri" font-size="7.5" fill="rgb(255,255,255)" text-anchor="middle">5</text>
<polygon points="139.4,359.6 147.4,359.6 147.4,367.6 139.4,367.6" fill="rgb(205,0,0)"/><text xml:space="preserve" x="143.4" y="366.433" font-family="Calibri" font-size="7.5" fill="rgb(255,255,255)" text-anchor="middle">5</text>
<polygon points="157.4,359.6 165.4,359.6 165.4,367.6 157.4,367.6" fill="rgb(6,52,136)"/>
<polygon points="165.4,359.6 173.4,359.6 173.4,367.6 165.4,367.6" fill="rgb(6,53,136)"/>
<polygon points="173.4,359.6 181.4,359.6 181.4,367.6 173.4,367.6" fill="rgb(15,88,138)"/>
<polygon points="181.4,359.6 189.4,359.6 189.4,367.6 181.4,367.6" fill="rgb(7,55,136)"/>
<polygon points="189.4,359.6 197.4,359.6 197.4,367.6 189.4,367.6" fill="rgb(31,148,141)"/>
<polygon points="197.4,359.6 205.4,359.6 205.4,367.6 197.4,367.6" fill="rgb(32,152,142)"/>
<polygon points="205.4,359.6 213.4,359.6 213.4,367.6 205.4,367.6" fill="rgb(35,165,142)"/>
<polygon points="223.4,359.6 231.4,359.6 231.4,367.6 223.4,367.6" fill="rgb(255,255,255)"/>
<polygon points="231.4,359.6 239.4,359.6 239.4,367.6 231.4,367.6" fill="rgb(255,255,255)"/>
<polygon points="239.4,359.6 247.4,359.6 247.4,367.6 239.4,367.6" fill="rgb(255,255,255)"/>
<polygon points="247.4,359.6 255.4,359.6 255.4,367.6 247.4,367.6" fill="rgb(255,255,255)"/>
<polygon points="255.4,359.6 263.4,359.6 263.4,367.6 255.4,367.6" fill="rgb(255,255,255)"/>
<polygon points="263.4,359.6 271.4,359.6 271.4,367.6 263.4,367.6" fill="rgb(255,255,255)"/>
<polygon points="271.4,359.6 279.4,359.6 279.4,367.6 271.4,367.6" fill="rgb(255,255,255)"/>
<polygon points="279.4,359.6 287.4,359.6 287.4,367.6 279.4,367.6" fill="rgb(255,255,255)"/>
<polygon points="91.4,367.6 99.4,367.6 99.4,375.6 91.4,375.6" fill="rgb(127,230,0)"/><text xml:space="preserve" x="95.4" y="374.433" font-family="Calibri" font-size="7.5" fill="rgb(0,0,0)" text-anchor="middle">2</text>
<polygon points="99.4,367.6 107.4,367.6 107.4,375.6 99.4,375.6" fill="rgb(127,230,0)"/><text xml:space="preserve" x="103.4" y="374.433" font-family="Calibri" font-size="7.5" fill="rgb(0,0,0)" text-anchor="middle">2</text>
<polygon points="107.4,367.6 115.4,367.6 115.4,375.6 107.4,375.6" fill="rgb(127,230,0)"/><text xml:space="preserve" x="111.4" y="374.433" font-family="Calibri" font-size="7.5" fill="rgb(0,0,0)" text-anchor="middle">2</text>
<polygon points="115.4,367.6 123.4,367.6 123.4,375.6 115.4,375.6" fill="rgb(127,230,0)"/><text xml:space="preserve" x="119.4" y="374.433" font-family="Calibri" font-size="7.5" fill="rgb(0,0,0)" text-anchor="middle">2</text>
<polygon points="123.4,367.6 131.4,367.6 131.4,375.6 123.4,375.6" fill="rgb(205,0,0)"/><text xml:space="preserve" x="127.4" y="374.433" font-family="Calibri" font-size="7.5" fill="rgb(255,255,255)" text-anchor="middle">5</text>
<polygon points="131.4,367.6 139.4,367.6 139.4,375.6 131.4,375.6" fill="rgb(205,0,0)"/><text xml:space="preserve" x="135.4" y="374.433" font-family="Calibri" font-size="7.5" fill="rgb(255,255,255)" text-anchor="middle">5</text>
<polygon points="139.4,367.6 147.4,367.6 147.4,375.6 139.4,375.6" fill="rgb(205,0,0)"/><text xml:space="preserve" x="143.4" y="374.433" font-family="Calibri" font-size="7.5" fill="rgb(255,255,255)" text-anchor="middle">5</text>
<polygon points="157.4,367.6 165.4,367.6 165.4,375.6 157.4,375.6" fill="rgb(11,70,137)"/>
<polygon points="165.4,367.6 173.4,367.6 173.4,375.6 165.4,375.6" fill="rgb(6,51,136)"/>
<polygon points="173.4,367.6 181.4,367.6 181.4,375.6 173.4,375.6" fill="rgb(4,46,136)"/>
<polygon points="181.4,367.6 189.4,367.6 189.4,375.6 181.4,375.6" fill="rgb(8,61,136)"/>
<polygon points="189.4,367.6 197.4,367.6 197.4,375.6 189.4,375.6" fill="rgb(46,207,145)"/>
<polygon points="197.4,367.6 205.4,367.6 205.4,375.6 197.4,375.6" fill="rgb(29,143,141)"/>
<polygon points="205.4,367.6 213.4,367.6 213.4,375.6 205.4,375.6" fill="rgb(101,212,108)"/>
<polygon points="223.4,367.6 231.4,367.6 231.4,375.6 223.4,375.6" fill="rgb(205,0,205)"/>
<polygon points="231.4,367.6 239.4,367.6 239.4,375.6 231.4,375.6" fill="rgb(255,255,255)"/>
<polygon points="239.4,367.6 247.4,367.6 247.4,375.6 239.4,375.6" fill="rgb(255,255,255)"/>
<polygon points="247.4,367.6 255.4,367.6 255.4,375.6 247.4,375.6" fill="rgb(255,255,255)"/>
<polygon points="255.4,367.6 263.4,367.6 263.4,375.6 255.4,375.6" fill="rgb(255,255,255)"/>
<polygon points="263.4,367.6 271.4,367.6 271.4,375.6 263.4,375.6" fill="rgb(255,255,255)"/>
<polygon points="271.4,367.6 279.4,367.6 279.4,375.6 271.4,375.6" fill="rgb(255,255,255)"/>
<polygon points="279.4,367.6 287.4,367.6 287.4,375.6 279.4,375.6" fill="rgb(255,255,255)"/>
<polygon points="91.4,375.6 99.4,375.6 99.4,383.6 91.4,383.6" fill="rgb(127,230,0)"/><text xml:space="preserve" x="95.4" y="382.433" font-family="Calibri" font-size="7.5" fill="rgb(0,0,0)" text-anchor="middle">2</text>
<polygon points="99.4,375.6 107.4,375.6 107.4,383.6 99.4,383.6" fill="rgb(127,230,0)"/><text xml:space="preserve" x="103.4" y="382.433" font-family="Calibri" font-size="7.5" fill="rgb(0,0,0)" text-anchor="middle">2</text>
<polygon points="107.4,375.6 115.4,375.6 115.4,383.6 107.4,383.6" fill="rgb(127,230,0)"/><text xml:space="preserve" x="111.4" y="382.433" font-family="Calibri" font-size="7.5" fill="rgb(0,0,0)" text-anchor="middle">2</text>
<polygon points="115.4,375.6 123.4,375.6 123.4,383.6 115.4,383.6" fill="rgb(127,230,0)"/><text xml:space="preserve" x="119.4" y="382.433" font-family="Calibri" font-size="7.5" fill="rgb(0,0,0)" text-anchor="middle">2</text>
<polygon points="123.4,375.6 131.4,375.6 131.4,383.6 123.4,383.6" fill="rgb(205,0,0)"/><text xml:space="preserve" x="127.4" y="382.433" font-family="Calibri" font-size="7.5" fill="rgb(255,255,255)" text-anchor="middle">5</text>
<polygon points="131.4,375.6 139.4,375.6 139.4,383.6 131.4,383.6" fill="rgb(205,0,0)"/><text xml:space="preserve" x="135.4" y="382.433" font-family="Calibri" font-size="7.5" fill="rgb(255,255,255)" text-anchor="middle">5</text>
<polygon points="139.4,375.6 147.4,375.6 147.4,383.6 139.4,383.6" fill="rgb(205,0,0)"/><text xml:space="preserve" x="143.4" y="382.433" font-family="Calibri" font-size="7.5" fill="rgb(255,255,255)" text-anchor="middle">5</text>
<polygon points="157.4,375.6 165.4,375.6 165.4,383.6 157.4,383.6" fill="rgb(6,52,136)"/>
<polygon points="165.4,375.6 173.4,375.6 173.4,383.6 165.4,383.6" fill="rgb(6,52,136)"/>
<polygon points="173.4,375.6 181.4,375.6 181.4,383.6 173.4,383.6" fill="rgb(14,84,138)"/>
<polygon points="181.4,375.6 189.4,375.6 189.4,383.6 181.4,383.6" fill="rgb(7,55,136)"/>
<polygon points="189.4,375.6 197.4,375.6 197.4,383.6 189.4,383.6" fill="rgb(30,147,141)"/>
<polygon points="197.4,375.6 205.4,375.6 205.4,383.6 197.4,383.6" fill="rgb(30,147,141)"/>
<polygon points="205.4,375.6 213.4,375.6 213.4,383.6 205.4,383.6" fill="rgb(32,155,142)"/>
<polygon points="223.4,375.6 231.4,375.6 231.4,383.6 223.4,383.6" fill="rgb(255,255,255)"/>
<polygon points="231.4,375.6 239.4,375.6 239.4,383.6 231.4,383.6" fill="rgb(255,255,255)"/>
<polygon points="239.4,375.6 247.4,375.6 247.4,383.6 239.4,383.6" fill="rgb(255,255,255)"/>
<polygon points="247.4,375.6 255.4,375.6 255.4,383.6 247.4,383.6" fill="rgb(255,255,255)"/>
<polygon points="255.4,375.6 263.4,375.6 263.4,383.6 255.4,383.6" fill="rgb(255,255,255)"/>
<polygon points="263.4,375.6 271.4,375.6 271.4,383.6 263.4,383.6" fill="rgb(255,255,255)"/>
<polygon points="271.4,375.6 279.4,375.6 279.4,383.6 271.4,383.6" fill="rgb(255,255,255)"/>
<polygon points="279.4,375.6 287.4,375.6 287.4,383.6 279.4,383.6" fill="rgb(255,255,255)"/>
<polygon points="91.4,383.6 99.4,383.6 99.4,391.6 91.4,391.6" fill="rgb(127,230,0)"/><text xml:space="preserve" x="95.4" y="390.433" font-family="Calibri" font-size="7.5" fill="rgb(0,0,0)" text-anchor="middle">2</text>
<polygon points="99.4,383.6 107.4,383.6 107.4,391.6 99.4,391.6" fill="rgb(127,230,0)"/><text xml:space="preserve" x="103.4" y="390.433" font-family="Calibri" font-size="7.5" fill="rgb(0,0,0)" text-anchor="middle">2</text>
<polygon points="107.4,383.6 115.4,383.6 115.4,391.6 107.4,391.6" fill="rgb(127,230,0)"/><text xml:space="preserve" x="111.4" y="390.433" font-family="Calibri" font-size="7.5" fill="rgb(0,0,0)" text-anchor="middle">2</text>
<polygon points="115.4,383.6 123.4,383.6 123.4,391.6 115.4,391.6" fill="rgb(127,230,0)"/><text xml:space="preserve" x="119.4" y="390.433" font-family="Calibri" font-size="7.5" fill="rgb(0,0,0)" text-anchor="middle">2</text>
<polygon points="123.4,383.6 131.4,383.6 131.4,391.6 123.4,391.6" fill="rgb(205,0,0)"/><text xml:space="preserve" x="127.4" y="390.433" font-family="Calibri" font-size="7.5" fill="rgb(255,255,255)" text-anchor="middle">5</text>
<polygon points="131.4,383.6 139.4,383.6 139.4,391.6 131.4,391.6" fill="rgb(205,0,0)"/><text xml:space="preserve" x="135.4" y="390.433" font-family="Calibri" font-size="7.5" fill="rgb(255,255,255)" text-anchor="middle">5</text>
<polygon points="139.4,383.6 147.4,383.6 147.4,391.6 139.4,391.6" fill="rgb(205,0,0)"/><text xml:space="preserve" x="143.4" y="390.433" font-family="Calibri" font-size="7.5" fill="rgb(255,255,255)" text-anchor="middle">5</text>
<polygon points="157.4,383.6 165.4,383.6 165.4,391.6 157.4,391.6" fill="rgb(6,53,136)"/>
<polygon points="165.4,383.6 173.4,383.6 173.4,391.6 165.4,391.6" fill="rgb(6,53,136)"/>
<polygon points="173.4,383.6 181.4,383.6 181.4,391.6 173.4,391.6" fill="rgb(15,88,138)"/>
<polygon points="181.4,383.6 189.4,383.6 189.4,391.6 181.4,391.6" fill="rgb(7,55,136)"/>
<polygon points="189.4,383.6 197.4,383.6 197.4,391.6 189.4,391.6" fill="rgb(31,149,142)"/>
<polygon points="197.4,383.6 205.4,383.6 205.4,391.6 197.4,391.6" fill="rgb(32,156,142)"/>
<polygon points="205.4,383.6 213.4,383.6 213.4,391.6 205.4,391.6" fill="rgb(33,160,142)"/>
<polygon points="223.4,383.6 231.4,383.6 231.4,391.6 223.4,391.6" fill="rgb(255,255,255)"/>
<polygon points="231.4,383.6 239.4,383.6 239.4,391.6 231.4,391.6" fill="rgb(255,255,255)"/>
<polygon points="239.4,383.6 247.4,383.6 247.4,391.6 239.4,391.6" fill="rgb(255,255,255)"/>
<polygon points="247.4,383.6 255.4,383.6 255.4,391.6 247.4,391.6" fill="rgb(255,255,255)"/>
<polygon points="255.4,383.6 263.4,383.6 263.4,391.6 255.4,391.6" fill="rgb(255,255,255)"/>
<polygon points="263.4,383.6 271.4,383.6 271.4,391.6 263.4,391.6" fill="rgb(255,255,255)"/>
<polygon points="271.4,383.6 279.4,383.6 279.4,391.6 271.4,391.6" fill="rgb(255,255,255)"/>
<polygon points="279.4,383.6 287.4,383.6 287.4,391.6 279.4,391.6" fill="rgb(255,255,255)"/>
<polygon points="91.4,335.6 147.4,335.6 147.4,391.6 91.4,391.6" fill="none" stroke="black" stroke-width="1"/>
<polygon points="157.4,335.6 213.4,335.6 213.4,391.6 157.4,391.6" fill="none" stroke="black" stroke-width="1"/>
<polygon points="223.4,335.6 287.4,335.6 287.4,391.6 223.4,391.6" fill="none" stroke="black" stroke-width="1"/>
<text xml:space="preserve" x="153.7" y="424.6" font-family="Calibri" font-size="8" text-anchor="middle">ClusterAssignment</text>
<polygon points="103.7,431.6 123.7,431.6 123.7,451.6 103.7,451.6" fill="rgb(0,205,0)"/><polygon points="103.7,431.6 123.7,431.6 123.7,451.6 103.7,451.6" fill="none" stroke="black" stroke-width="1"/><text xml:space="preserve" x="113.7" y="444.433" font-family="Calibri" font-size="7.5" fill="rgb(255,255,255)" text-anchor="middle">1.0</text>
<polygon points="123.7,431.6 143.7,431.6 143.7,451.6 123.7,451.6" fill="rgb(127,230,0)"/><polygon points="123.7,431.6 143.7,431.6 143.7,451.6 123.7,451.6" fill="none" stroke="black" stroke-width="1"/><text xml:space="preserve" x="133.7" y="444.433" font-family="Calibri" font-size="7.5" fill="rgb(0,0,0)" text-anchor="middle">2.0</text>
<polygon points="143.7,431.6 163.7,431.6 163.7,451.6 143.7,451.6" fill="rgb(255,255,0)"/><polygon points="143.7,431.6 163.7,431.6 163.7,451.6 143.7,451.6" fill="none" stroke="black" stroke-width="1"/><text xml:space="preserve" x="153.7" y="444.433" font-family="Calibri" font-size="7.5" fill="rgb(0,0,0)" text-anchor="middle">3.0</text>
<polygon points="163.7,431.6 183.7,431.6 183.7,451.6 163.7,451.6" fill="rgb(230,127,0)"/><polygon points="163.7,431.6 183.7,431.6 183.7,451.6 163.7,451.6" fill="none" stroke="black" stroke-width="1"/><text xml:space="preserve" x="173.7" y="444.433" font-family="Calibri" font-size="7.5" fill="rgb(0,0,0)" text-anchor="middle">4.0</text>
<polygon points="183.7,431.6 203.7,431.6 203.7,451.6 183.7,451.6" fill="rgb(205,0,0)"/><polygon points="183.7,431.6 203.7,431.6 203.7,451.6 183.7,451.6" fill="none" stroke="black" stroke-width="1"/><text xml:space="preserve" x="193.7" y="444.433" font-family="Calibri" font-size="7.5" fill="rgb(255,255,255)" text-anchor="middle">5.0</text>
<text xml:space="preserve" x="153.7" y="484.6" font-family="Calibri" font-size="8" text-anchor="middle">Expression</text>
<polygon points="103.7,491.6 123.7,491.6 123.7,511.6 103.7,511.6" fill="rgb(0,27,135)"/><polygon points="103.7,491.6 123.7,491.6 123.7,511.6 103.7,511.6" fill="none" stroke="black" stroke-width="1"/><text xml:space="preserve" x="113.7" y="504.433" font-family="Calibri" font-size="7.5" fill="rgb(255,255,255)" text-anchor="middle">0.0</text>
<polygon points="123.7,491.6 143.7,491.6 143.7,511.6 123.7,511.6" fill="rgb(24,123,140)"/><polygon points="123.7,491.6 143.7,491.6 143.7,511.6 123.7,511.6" fill="none" stroke="black" stroke-width="1"/><text xml:space="preserve" x="133.7" y="504.433" font-family="Calibri" font-size="7.5" fill="rgb(255,255,255)" text-anchor="middle">0.8</text>
<polygon points="143.7,491.6 163.7,491.6 163.7,511.6 143.7,511.6" fill="rgb(49,219,146)"/><polygon points="143.7,491.6 163.7,491.6 163.7,511.6 143.7,511.6" fill="none" stroke="black" stroke-width="1"/><text xml:space="preserve" x="153.7" y="504.433" font-family="Calibri" font-size="7.5" fill="rgb(0,0,0)" text-anchor="middle">1.5</text>
<polygon points="163.7,491.6 183.7,491.6 183.7,511.6 163.7,511.6" fill="rgb(150,206,73)"/><polygon points="163.7,491.6 183.7,491.6 183.7,511.6 163.7,511.6" fill="none" stroke="black" stroke-width="1"/><text xml:space="preserve" x="173.7" y="504.433" font-family="Calibri" font-size="7.5" fill="rgb(0,0,0)" text-anchor="middle">2.2</text>
<polygon points="183.7,491.6 203.7,491.6 203.7,511.6 183.7,511.6" fill="rgb(252,194,1)"/><polygon points="183.7,491.6 203.7,491.6 203.7,511.6 183.7,511.6" fill="none" stroke="black" stroke-width="1"/><text xml:space="preserve" x="193.7" y="504.433" font-family="Calibri" font-size="7.5" fill="rgb(0,0,0)" text-anchor="middle">3.0</text>
<text xml:space="preserve" x="153.7" y="544.6" font-family="Calibri" font-size="8" text-anchor="middle">PANTHERclass</text>
<polygon points="103.7,551.6 123.7,551.6 123.7,571.6 103.7,571.6" fill="rgb(255,255,255)"/><polygon points="103.7,551.6 123.7,551.6 123.7,571.6 103.7,571.6" fill="none" stroke="black" stroke-width="1"/><text xml:space="preserve" x="113.7" y="564.433" font-family="Calibri" font-size="7.5" fill="rgb(0,0,0)" text-anchor="middle">0.0</text>
<polygon points="123.7,551.6 143.7,551.6 143.7,571.6 123.7,571.6" fill="rgb(242,191,242)"/><polygon points="123.7,551.6 143.7,551.6 143.7,571.6 123.7,571.6" fill="none" stroke="black" stroke-width="1"/><text xml:space="preserve" x="133.7" y="564.433" font-family="Calibri" font-size="7.5" fill="rgb(0,0,0)" text-anchor="middle">0.2</text>
<polygon points="143.7,551.6 163.7,551.6 163.7,571.6 143.7,571.6" fill="rgb(230,127,230)"/><polygon points="143.7,551.6 163.7,551.6 163.7,571.6 143.7,571.6" fill="none" stroke="black" stroke-width="1"/><text xml:space="preserve" x="153.7" y="564.433" font-family="Calibri" font-size="7.5" fill="rgb(0,0,0)" text-anchor="middle">0.5</text>
<polygon points="163.7,551.6 183.7,551.6 183.7,571.6 163.7,571.6" fill="rgb(217,63,217)"/><polygon points="163.7,551.6 183.7,551.6 183.7,571.6 163.7,571.6" fill="none" stroke="black" stroke-width="1"/><text xml:space="preserve" x="173.7" y="564.433" font-family="Calibri" font-size="7.5" fill="rgb(255,255,255)" text-anchor="middle">0.8</text>
<polygon points="183.7,551.6 203.7,551.6 203.7,571.6 183.7,571.6" fill="rgb(205,0,205)"/><polygon points="183.7,551.6 203.7,551.6 203.7,571.6 183.7,571.6" fill="none" stroke="black" stroke-width="1"/><text xml:space="preserve" x="193.7" y="564.433" font-family="Calibri" font-size="7.5" fill="rgb(255,255,255)" text-anchor="middle">1.0</text>
</svg>
