<?xml version="1.0" standalone="no"?><!DOCTYPE svg PUBLIC "-//W3C//DTD SVG 1.1//EN" "http://www.w3.org/Graphics/SVG/1.1/DTD/svg11.dtd">
<svg width="344.9" height="591.6" version="1.1" xmlns="http://www.w3.org/2000/svg">
<text xml:space="preserve" x="124.9" y="342.6" font-family="Calibri" font-size="8" text-anchor="end">AC009087.1</text>
<text xml:space="preserve" x="124.9" y="350.6" font-family="Calibri" font-size="8" text-anchor="end">AC108488.2</text>
<text xml:space="preserve" x="124.9" y="358.6" font-family="Calibri" font-size="8" text-anchor="end">AC115837.2</text>
<text xml:space="preserve" x="124.9" y="366.6" font-family="Calibri" font-size="8" text-anchor="end">SPOCK3</text>
<text xml:space="preserve" x="124.9" y="374.6" font-family="Calibri" font-size="8" text-anchor="end">AC217774.1</text>
<text xml:space="preserve" x="124.9" y="382.6" font-family="Calibri" font-size="8" text-anchor="end">NR2F1</text>
<text xml:space="preserve" x="124.9" y="390.6" font-family="Calibri" font-size="8" text-anchor="end">AP000959.1</text>
<text xml:space="preserve" x="135.9" y="331.6" font-family="Calibri" font-size="8" transform="rotate(270 135.9 331.6)">c3</text>
<text xml:space="preserve" x="143.9" y="331.6" font-family="Calibri" font-size="8" transform="rotate(270 143.9 331.6)">c1</text>
<text xml:space="preserve" x="151.9" y="331.6" font-family="Calibri" font-size="8" transform="rotate(270 151.9 331.6)">c4</text>
<text xml:space="preserve" x="159.9" y="331.6" font-family="Calibri" font-size="8" transform="rotate(270 159.9 331.6)">c5</text>
<text xml:space="preserve" x="167.9" y="331.6" font-family="Calibri" font-size="8" transform="rotate(270 167.9 331.6)">c2</text>
<text xml:space="preserve" x="175.9" y="331.6" font-family="Calibri" font-size="8" transform="rotate(270 175.9 331.6)">c6</text>
<text xml:space="preserve" x="183.9" y="331.6" font-family="Calibri" font-size="8" transform="rotate(270 183.9 331.6)">c7</text>
<text xml:space="preserve" x="201.9" y="331.6" font-family="Calibri" font-size="8" transform="rotate(270 201.9 331.6)">c3_mean</text>
<text xml:space="preserve" x="209.9" y="331.6" font-family="Calibri" font-size="8" transform="rotate(270 209.9 331.6)">c1_mean</text>
<text xml:space="preserve" x="217.9" y="331.6" font-family="Calibri" font-size="8" transform="rotate(270 217.9 331.6)">c4_mean</text>
<text xml:space="preserve" x="225.9" y="331.6" font-family="Calibri" font-size="8" transform="rotate(270 225.9 331.6)">c5_mean</text>
<text xml:space="preserve" x="233.9" y="331.6" font-family="Calibri" font-size="8" transform="rotate(270 233.9 331.6)">c2_mean</text>
<text xml:space="preserve" x="241.9" y="331.6" font-family="Calibri" font-size="8" transform="rotate(270 241.9 331.6)">c6_mean</text>
<text xml:space="preserve" x="249.9" y="331.6" font-family="Calibri" font-size="8" transform="rotate(270 249.9 331.6)">c7_mean</text>
<text xml:space="preserve" x="267.9" y="331.6" font-family="Calibri" font-size="8" transform="rotate(270 267.9 331.6)">transcription_factor</text>
<text xml:space="preserve" x="275.9" y="331.6" font-family="Calibri" font-size="8" transform="rotate(270 275.9 331.6)">transmembrane_signal_receptor</text>
<text xml:space="preserve" x="283.9" y="331.6" font-family="Calibri" font-size="8" transform="rotate(270 283.9 331.6)">growth_factor</text>
<text xml:space="preserve" x="291.9" y="331.6" font-family="Calibri" font-size="8" transform="rotate(270 291.9 331.6)">peptide_hormone</text>
<text xml:space="preserve" x="299.9" y="331.6" font-family="Calibri" font-size="8" transform="rotate(270 299.9 331.6)">cytoskeletal_protein</text>
<text xml:space="preserve" x="307.9" y="331.6" font-family="Calibri" font-size="8" transform="rotate(270 307.9 331.6)">ion_channel</text>
<text xml:space="preserve" x="315.9" y="331.6" font-family="Calibri" font-size="8" transform="rotate(270 315.9 331.6)">integrin</text>
<text xml:space="preserve" x="323.9" y="331.6" font-family="Calibri" font-size="8" transform="rotate(270 323.9 331.6)">extracellular_matrix_protein</text>
<polygon points="128.9,335.6 136.9,335.6 136.9,343.6 128.9,343.6" fill="rgb(230,127,0)"/><text xml:space="preserve" x="132.9" y="342.433" font-family="Calibri" font-size="7.5" fill="rgb(0,0,0)" text-anchor="middle">4</text>
<polygon points="136.9,335.6 144.9,335.6 144.9,343.6 136.9,343.6" fill="rgb(0,205,0)"/><text xml:space="preserve" x="140.9" y="342.433" font-family="Calibri" font-size="7.5" fill="rgb(255,255,255)" text-anchor="middle">1</text>
<polygon points="144.9,335.6 152.9,335.6 152.9,343.6 144.9,343.6" fill="rgb(0,205,0)"/><text xml:space="preserve" x="148.9" y="342.433" font-family="Calibri" font-size="7.5" fill="rgb(255,255,255)" text-anchor="middle">1</text>
<polygon points="152.9,335.6 160.9,335.6 160.9,343.6 152.9,343.6" fill="rgb(0,205,0)"/><text xml:space="preserve" x="156.9" y="342.433" font-family="Calibri" font-size="7.5" fill="rgb(255,255,255)" text-anchor="middle">1</text>
<polygon points="160.9,335.6 168.9,335.6 168.9,343.6 160.9,343.6" fill="rgb(0,205,0)"/><text xml:space="preserve" x="164.9" y="342.433" font-family="Calibri" font-size="7.5" fill="rgb(255,255,255)" text-anchor="middle">1</text>
<polygon points="168.9,335.6 176.9,335.6 176.9,343.6 168.9,343.6" fill="rgb(0,205,0)"/><text xml:space="preserve" x="172.9" y="342.433" font-family="Calibri" font-size="7.5" fill="rgb(255,255,255)" text-anchor="middle">1</text>
<polygon points="176.9,335.6 184.9,335.6 184.9,343.6 176.9,343.6" fill="rgb(0,205,0)"/><text xml:space="preserve" x="180.9" y="342.433" font-family="Calibri" font-size="7.5" fill="rgb(255,255,255)" text-anchor="middle">1</text>
<polygon points="194.9,335.6 202.9,335.6 202.9,343.6 194.9,343.6" fill="rgb(26,130,140)"/>
<polygon points="202.9,335.6 210.9,335.6 210.9,343.6 202.9,343.6" fill="rgb(0,27,135)"/>
<polygon points="210.9,335.6 218.9,335.6 218.9,343.6 210.9,343.6" fill="rgb(0,27,135)"/>
<polygon points="218.9,335.6 226.9,335.6 226.9,343.6 218.9,343.6" fill="rgb(0,27,135)"/>
<polygon points="226.9,335.6 234.9,335.6 234.9,343.6 226.9,343.6" fill="rgb(0,27,135)"/>
<polygon points="234.9,335.6 242.9,335.6 242.9,343.6 234.9,343.6" fill="rgb(0,27,135)"/>
<polygon points="242.9,335.6 250.9,335.6 250.9,343.6 242.9,343.6" fill="rgb(0,27,135)"/>
<polygon points="260.9,335.6 268.9,335.6 268.9,343.6 260.9,343.6" fill="rgb(255,255,255)"/>
<polygon points="268.9,335.6 276.9,335.6 276.9,343.6 268.9,343.6" fill="rgb(255,255,255)"/>
<polygon points="276.9,335.6 284.9,335.6 284.9,343.6 276.9,343.6" fill="rgb(255,255,255)"/>
<polygon points="284.9,335.6 292.9,335.6 292.9,343.6 284.9,343.6" fill="rgb(255,255,255)"/>
<polygon points="292.9,335.6 300.9,335.6 300.9,343.6 292.9,343.6" fill="rgb(255,255,255)"/>
<polygon points="300.9,335.6 308.9,335.6 308.9,343.6 300.9,343.6" fill="rgb(255,255,255)"/>
<polygon points="308.9,335.6 316.9,335.6 316.9,343.6 308.9,343.6" fill="rgb(255,255,255)"/>
<polygon points="316.9,335.6 324.9,335.6 324.9,343.6 316.9,343.6" fill="rgb(255,255,255)"/>
<polygon points="128.9,343.6 136.9,343.6 136.9,351.6 128.9,351.6" fill="rgb(230,127,0)"/><text xml:space="preserve" x="132.9" y="350.433" font-family="Calibri" font-size="7.5" fill="rgb(0,0,0)" text-anchor="middle">4</text>
<polygon points="136.9,343.6 144.9,343.6 144.9,351.6 136.9,351.6" fill="rgb(0,205,0)"/><text xml:space="preserve" x="140.9" y="350.433" font-family="Calibri" font-size="7.5" fill="rgb(255,255,255)" text-anchor="middle">1</text>
<polygon points="144.9,343.6 152.9,343.6 152.9,351.6 144.9,351.6" fill="rgb(0,205,0)"/><text xml:space="preserve" x="148.9" y="350.433" font-family="Calibri" font-size="7.5" fill="rgb(255,255,255)" text-anchor="middle">1</text>
<polygon points="152.9,343.6 160.9,343.6 160.9,351.6 152.9,351.6" fill="rgb(0,205,0)"/><text xml:space="preserve" x="156.9" y="350.433" font-family="Calibri" font-size="7.5" fill="rgb(255,255,255)" text-anchor="middle">1</text>
<polygon points="160.9,343.6 168.9,343.6 168.9,351.6 160.9,351.6" fill="rgb(0,205,0)"/><text xml:space="preserve" x="164.9" y="350.433" font-family="Calibri" font-size="7.5" fill="rgb(255,255,255)" text-anchor="middle">1</text>
<polygon points="168.9,343.6 176.9,343.6 176.9,351.6 168.9,351.6" fill="rgb(0,205,0)"/><text xml:space="preserve" x="172.9" y="350.433" font-family="Calibri" font-size="7.5" fill="rgb(255,255,255)" text-anchor="middle">1</text>
<polygon points="176.9,343.6 184.9,343.6 184.9,351.6 176.9,351.6" fill="rgb(0,205,0)"/><text xml:space="preserve" x="180.9" y="350.433" font-family="Calibri" font-size="7.5" fill="rgb(255,255,255)" text-anchor="middle">1</text>
<polygon points="194.9,343.6 202.9,343.6 202.9,351.6 194.9,351.6" fill="rgb(26,130,140)"/>
<polygon points="202.9,343.6 210.9,343.6 210.9,351.6 202.9,351.6" fill="rgb(0,27,135)"/>
<polygon points="210.9,343.6 218.9,343.6 218.9,351.6 210.9,351.6" fill="rgb(0,27,135)"/>
<polygon points="218.9,343.6 226.9,343.6 226.9,351.6 218.9,351.6" fill="rgb(0,27,135)"/>
<polygon points="226.9,343.6 234.9,343.6 234.9,351.6 226.9,351.6" fill="rgb(0,27,135)"/>
<polygon points="234.9,343.6 242.9,343.6 242.9,351.6 234.9,351.6" fill="rgb(0,27,135)"/>
<polygon points="242.9,343.6 250.9,343.6 250.9,351.6 242.9,351.6" fill="rgb(0,27,135)"/>
<polygon points="260.9,343.6 268.9,343.6 268.9,351.6 260.9,351.6" fill="rgb(255,255,255)"/>
<polygon points="268.9,343.6 276.9,343.6 276.9,351.6 268.9,351.6" fill="rgb(255,255,255)"/>
<polygon points="276.9,343.6 284.9,343.6 284.9,351.6 276.9,351.6" fill="rgb(255,255,255)"/>
<polygon points="284.9,343.6 292.9,343.6 292.9,351.6 284.9,351.6" fill="rgb(255,255,255)"/>
<polygon points="292.9,343.6 300.9,343.6 300.9,351.6 292.9,351.6" fill="rgb(255,255,255)"/>
<polygon points="300.9,343.6 308.9,343.6 308.9,351.6 300.9,351.6" fill="rgb(255,255,255)"/>
<polygon points="308.9,343.6 316.9,343.6 316.9,351.6 308.9,351.6" fill="rgb(255,255,255)"/>
<polygon points="316.9,343.6 324.9,343.6 324.9,351.6 316.9,351.6" fill="rgb(255,255,255)"/>
<polygon points="128.9,351.6 136.9,351.6 136.9,359.6 128.9,359.6" fill="rgb(230,127,0)"/><text xml:space="preserve" x="132.9" y="358.433" font-family="Calibri" font-size="7.5" fill="rgb(0,0,0)" text-anchor="middle">4</text>
<polygon points="136.9,351.6 144.9,351.6 144.9,359.6 136.9,359.6" fill="rgb(0,205,0)"/><text xml:space="preserve" x="140.9" y="358.433" font-family="Calibri" font-size="7.5" fill="rgb(255,255,255)" text-anchor="middle">1</text>
<polygon points="144.9,351.6 152.9,351.6 152.9,359.6 144.9,359.6" fill="rgb(0,205,0)"/><text xml:space="preserve" x="148.9" y="358.433" font-family="Calibri" font-size="7.5" fill="rgb(255,255,255)" text-anchor="middle">1</text>
<polygon points="152.9,351.6 160.9,351.6 160.9,359.6 152.9,359.6" fill="rgb(0,205,0)"/><text xml:space="preserve" x="156.9" y="358.433" font-family="Calibri" font-size="7.5" fill="rgb(255,255,255)" text-anchor="middle">1</text>
<polygon points="160.9,351.6 168.9,351.6 168.9,359.6 160.9,359.6" fill="rgb(0,205,0)"/><text xml:space="preserve" x="164.9" y="358.433" font-family="Calibri" font-size="7.5" fill="rgb(255,255,255)" text-anchor="middle">1</text>
<polygon points="168.9,351.6 176.9,351.6 176.9,359.6 168.9,359.6" fill="rgb(0,205,0)"/><text xml:space="preserve" x="172.9" y="358.433" font-family="Calibri" font-size="7.5" fill="rgb(255,255,255)" text-anchor="middle">1</text>
<polygon points="176.9,351.6 184.9,351.6 184.9,359.6 176.9,359.6" fill="rgb(0,205,0)"/><text xml:space="preserve" x="180.9" y="358.433" font-family="Calibri" font-size="7.5" fill="rgb(255,255,255)" text-anchor="middle">1</text>
<polygon points="194.9,351.6 202.9,351.6 202.9,359.6 194.9,359.6" fill="rgb(25,125,140)"/>
<polygon points="202.9,351.6 210.9,351.6 210.9,359.6 202.9,359.6" fill="rgb(0,27,135)"/>
<polygon points="210.9,351.6 218.9,351.6 218.9,359.6 210.9,359.6" fill="rgb(0,27,135)"/>
<polygon points="218.9,351.6 226.9,351.6 226.9,359.6 218.9,359.6" fill="rgb(0,27,135)"/>
<polygon points="226.9,351.6 234.9,351.6 234.9,359.6 226.9,359.6" fill="rgb(0,27,135)"/>
<polygon points="234.9,351.6 242.9,351.6 242.9,359.6 234.9,359.6" fill="rgb(0,27,135)"/>
<polygon points="242.9,351.6 250.9,351.6 250.9,359.6 242.9,359.6" fill="rgb(0,27,135)"/>
<polygon points="260.9,351.6 268.9,351.6 268.9,359.6 260.9,359.6" fill="rgb(255,255,255)"/>
<polygon points="268.9,351.6 276.9,351.6 276.9,359.6 268.9,359.6" fill="rgb(255,255,255)"/>
<polygon points="276.9,351.6 284.9,351.6 284.9,359.6 276.9,359.6" fill="rgb(255,255,255)"/>
<polygon points="284.9,351.6 292.9,351.6 292.9,359.6 284.9,359.6" fill="rgb(255,255,255)"/>
<polygon points="292.9,351.6 300.9,351.6 300.9,359.6 292.9,359.6" fill="rgb(255,255,255)"/>
<polygon points="300.9,351.6 308.9,351.6 308.9,359.6 300.9,359.6" fill="rgb(255,255,255)"/>
<polygon points="308.9,351.6 316.9,351.6 316.9,359.6 308.9,359.6" fill="rgb(255,255,255)"/>
<polygon points="316.9,351.6 324.9,351.6 324.9,359.6 316.9,359.6" fill="rgb(255,255,255)"/>
<polygon points="128.9,359.6 136.9,359.6 136.9,367.6 128.9,367.6" fill="rgb(230,127,0)"/><text xml:space="preserve" x="132.9" y="366.433" font-family="Calibri" font-size="7.5" fill="rgb(0,0,0)" text-anchor="middle">4</text>
<polygon points="136.9,359.6 144.9,359.6 144.9,367.6 136.9,367.6" fill="rgb(0,205,0)"/><text xml:space="preserve" x="140.9" y="366.433" font-family="Calibri" font-size="7.5" fill="rgb(255,255,255)" text-anchor="middle">1</text>
<polygon points="144.9,359.6 152.9,359.6 152.9,367.6 144.9,367.6" fill="rgb(0,205,0)"/><text xml:space="preserve" x="148.9" y="366.433" font-family="Calibri" font-size="7.5" fill="rgb(255,255,255)" text-anchor="middle">1</text>
<polygon points="152.9,359.6 160.9,359.6 160.9,367.6 152.9,367.6" fill="rgb(0,205,0)"/><text xml:space="preserve" x="156.9" y="366.433" font-family="Calibri" font-size="7.5" fill="rgb(255,255,255)" text-anchor="middle">1</text>
<polygon points="160.9,359.6 168.9,359.6 168.9,367.6 160.9,367.6" fill="rgb(0,205,0)"/><text xml:space="preserve" x="164.9" y="366.433" font-family="Calibri" font-size="7.5" fill="rgb(255,255,255)" text-anchor="middle">1</text>
<polygon points="168.9,359.6 176.9,359.6 176.9,367.6 168.9,367.6" fill="rgb(0,205,0)"/><text xml:space="preserve" x="172.9" y="366.433" font-family="Calibri" font-size="7.5" fill="rgb(255,255,255)" text-anchor="middle">1</text>
<polygon points="176.9,359.6 184.9,359.6 184.9,367.6 176.9,367.6" fill="rgb(0,205,0)"/><text xml:space="preserve" x="180.9" y="366.433" font-family="Calibri" font-size="7.5" fill="rgb(255,255,255)" text-anchor="middle">1</text>
<polygon points="194.9,359.6 202.9,359.6 202.9,367.6 194.9,367.6" fill="rgb(29,140,141)"/>
<polygon points="202.9,359.6 210.9,359.6 210.9,367.6 202.9,367.6" fill="rgb(6,53,136)"/>
<polygon points="210.9,359.6 218.9,359.6 218.9,367.6 210.9,367.6" fill="rgb(14,82,138)"/>
<polygon points="218.9,359.6 226.9,359.6 226.9,367.6 218.9,367.6" fill="rgb(3,41,135)"/>
<polygon points="226.9,359.6 234.9,359.6 234.9,367.6 226.9,367.6" fill="rgb(2,35,135)"/>
<polygon points="234.9,359.6 242.9,359.6 242.9,367.6 234.9,367.6" fill="rgb(6,53,136)"/>
<polygon points="242.9,359.6 250.9,359.6 250.9,367.6 242.9,367.6" fill="rgb(5,47,136)"/>
<polygon points="260.9,359.6 268.9,359.6 268.9,367.6 260.9,367.6" fill="rgb(255,255,255)"/>
<polygon points="268.9,359.6 276.9,359.6 276.9,367.6 268.9,367.6" fill="rgb(255,255,255)"/>
<polygon points="276.9,359.6 284.9,359.6 284.9,367.6 276.9,367.6" fill="rgb(255,255,255)"/>
<polygon points="284.9,359.6 292.9,359.6 292.9,367.6 284.9,367.6" fill="rgb(255,255,255)"/>
<polygon points="292.9,359.6 300.9,359.6 300.9,367.6 292.9,367.6" fill="rgb(255,255,255)"/>
<polygon points="300.9,359.6 308.9,359.6 308.9,367.6 300.9,367.6" fill="rgb(255,255,255)"/>
<polygon points="308.9,359.6 316.9,359.6 316.9,367.6 308.9,367.6" fill="rgb(255,255,255)"/>
<polygon points="316.9,359.6 324.9,359.6 324.9,367.6 316.9,367.6" fill="rgb(255,255,255)"/>
<polygon points="128.9,367.6 136.9,367.6 136.9,375.6 128.9,375.6" fill="rgb(230,127,0)"/><text xml:space="preserve" x="132.9" y="374.433" font-family="Calibri" font-size="7.5" fill="rgb(0,0,0)" text-anchor="middle">4</text>
<polygon points="136.9,367.6 144.9,367.6 144.9,375.6 136.9,375.6" fill="rgb(0,205,0)"/><text xml:space="preserve" x="140.9" y="374.433" font-family="Calibri" font-size="7.5" fill="rgb(255,255,255)" text-anchor="middle">1</text>
<polygon points="144.9,367.6 152.9,367.6 152.9,375.6 144.9,375.6" fill="rgb(0,205,0)"/><text xml:space="preserve" x="148.9" y="374.433" font-family="Calibri" font-size="7.5" fill="rgb(255,255,255)" text-anchor="middle">1</text>
<polygon points="152.9,367.6 160.9,367.6 160.9,375.6 152.9,375.6" fill="rgb(0,205,0)"/><text xml:space="preserve" x="156.9" y="374.433" font-family="Calibri" font-size="7.5" fill="rgb(255,255,255)" text-anchor="middle">1</text>
<polygon points="160.9,367.6 168.9,367.6 168.9,375.6 160.9,375.6" fill="rgb(0,205,0)"/><text xml:space="preserve" x="164.9" y="374.433" font-family="Calibri" font-size="7.5" fill="rgb(255,255,255)" text-anchor="middle">1</text>
<polygon points="168.9,367.6 176.9,367.6 176.9,375.6 168.9,375.6" fill="rgb(0,205,0)"/><text xml:space="preserve" x="172.9" y="374.433" font-family="Calibri" font-size="7.5" fill="rgb(255,255,255)" text-anchor="middle">1</text>
<polygon points="176.9,367.6 184.9,367.6 184.9,375.6 176.9,375.6" fill="rgb(0,205,0)"/><text xml:space="preserve" x="180.9" y="374.433" font-family="Calibri" font-size="7.5" fill="rgb(255,255,255)" text-anchor="middle">1</text>
<polygon points="194.9,367.6 202.9,367.6 202.9,375.6 194.9,375.6" fill="rgb(22,114,139)"/>
<polygon points="202.9,367.6 210.9,367.6 210.9,375.6 202.9,375.6" fill="rgb(0,27,135)"/>
<polygon points="210.9,367.6 218.9,367.6 218.9,375.6 210.9,375.6" fill="rgb(0,27,135)"/>
<polygon points="218.9,367.6 226.9,367.6 226.9,375.6 218.9,375.6" fill="rgb(0,27,135)"/>
<polygon points="226.9,367.6 234.9,367.6 234.9,375.6 226.9,375.6" fill="rgb(0,27,135)"/>
<polygon points="234.9,367.6 242.9,367.6 242.9,375.6 234.9,375.6" fill="rgb(0,27,135)"/>
<polygon points="242.9,367.6 250.9,367.6 250.9,375.6 242.9,375.6" fill="rgb(0,27,135)"/>
<polygon points="260.9,367.6 268.9,367.6 268.9,375.6 260.9,375.6" fill="rgb(255,255,255)"/>
<polygon points="268.9,367.6 276.9,367.6 276.9,375.6 268.9,375.6" fill="rgb(255,255,255)"/>
<polygon points="276.9,367.6 284.9,367.6 284.9,375.6 276.9,375.6" fill="rgb(255,255,255)"/>
<polygon points="284.9,367.6 292.9,367.6 292.9,375.6 284.9,375.6" fill="rgb(255,255,255)"/>
<polygon points="292.9,367.6 300.9,367.6 300.9,375.6 292.9,375.6" fill="rgb(255,255,255)"/>
<polygon points="300.9,367.6 308.9,367.6 308.9,375.6 300.9,375.6" fill="rgb(255,255,255)"/>
<polygon points="308.9,367.6 316.9,367.6 316.9,375.6 308.9,375.6" fill="rgb(255,255,255)"/>
<polygon points="316.9,367.6 324.9,367.6 324.9,375.6 316.9,375.6" fill="rgb(255,255,255)"/>
<polygon points="128.9,375.6 136.9,375.6 136.9,383.6 128.9,383.6" fill="rgb(230,127,0)"/><text xml:space="preserve" x="132.9" y="382.433" font-family="Calibri" font-size="7.5" fill="rgb(0,0,0)" text-anchor="middle">4</text>
<polygon points="136.9,375.6 144.9,375.6 144.9,383.6 136.9,383.6" fill="rgb(0,205,0)"/><text xml:space="preserve" x="140.9" y="382.433" font-family="Calibri" font-size="7.5" fill="rgb(255,255,255)" text-anchor="middle">1</text>
<polygon points="144.9,375.6 152.9,375.6 152.9,383.6 144.9,383.6" fill="rgb(0,205,0)"/><text xml:space="preserve" x="148.9" y="382.433" font-family="Calibri" font-size="7.5" fill="rgb(255,255,255)" text-anchor="middle">1</text>
<polygon points="152.9,375.6 160.9,375.6 160.9,383.6 152.9,383.6" fill="rgb(0,205,0)"/><text xml:space="preserve" x="156.9" y="382.433" font-family="Calibri" font-size="7.5" fill="rgb(255,255,255)" text-anchor="middle">1</text>
<polygon points="160.9,375.6 168.9,375.6 168.9,383.6 160.9,383.6" fill="rgb(0,205,0)"/><text xml:space="preserve" x="164.9" y="382.433" font-family="Calibri" font-size="7.5" fill="rgb(255,255,255)" text-anchor="middle">1</text>
<polygon points="168.9,375.6 176.9,375.6 176.9,383.6 168.9,383.6" fill="rgb(0,205,0)"/><text xml:space="preserve" x="172.9" y="382.433" font-family="Calibri" font-size="7.5" fill="rgb(255,255,255)" text-anchor="middle">1</text>
<polygon points="176.9,375.6 184.9,375.6 184.9,383.6 176.9,383.6" fill="rgb(0,205,0)"/><text xml:space="preserve" x="180.9" y="382.433" font-family="Calibri" font-size="7.5" fill="rgb(255,255,255)" text-anchor="middle">1</text>
<polygon points="194.9,375.6 202.9,375.6 202.9,383.6 194.9,383.6" fill="rgb(32,155,142)"/>
<polygon points="202.9,375.6 210.9,375.6 210.9,383.6 202.9,383.6" fill="rgb(7,55,136)"/>
<polygon points="210.9,375.6 218.9,375.6 218.9,383.6 210.9,383.6" fill="rgb(5,48,136)"/>
<polygon points="218.9,375.6 226.9,375.6 226.9,383.6 218.9,383.6" fill="rgb(1,34,135)"/>
<polygon points="226.9,375.6 234.9,375.6 234.9,383.6 226.9,383.6" fill="rgb(0,28,135)"/>
<polygon points="234.9,375.6 242.9,375.6 242.9,383.6 234.9,383.6" fill="rgb(0,29,135)"/>
<polygon points="242.9,375.6 250.9,375.6 250.9,383.6 242.9,383.6" fill="rgb(0,28,135)"/>
<polygon points="260.9,375.6 268.9,375.6 268.9,383.6 260.9,383.6" fill="rgb(205,0,205)"/>
<polygon points="268.9,375.6 276.9,375.6 276.9,383.6 268.9,383.6" fill="rgb(255,255,255)"/>
<polygon points="276.9,375.6 284.9,375.6 284.9,383.6 276.9,383.6" fill="rgb(255,255,255)"/>
<polygon points="284.9,375.6 292.9,375.6 292.9,383.6 284.9,383.6" fill="rgb(255,255,255)"/>
<polygon points="292.9,375.6 300.9,375.6 300.9,383.6 292.9,383.6" fill="rgb(255,255,255)"/>
<polygon points="300.9,375.6 308.9,375.6 308.9,383.6 300.9,383.6" fill="rgb(255,255,255)"/>
<polygon points="308.9,375.6 316.9,375.6 316.9,383.6 308.9,383.6" fill="rgb(255,255,255)"/>
<polygon points="316.9,375.6 324.9,375.6 324.9,383.6 316.9,383.6" fill="rgb(255,255,255)"/>
<polygon points="128.9,383.6 136.9,383.6 136.9,391.6 128.9,391.6" fill="rgb(230,127,0)"/><text xml:space="preserve" x="132.9" y="390.433" font-family="Calibri" font-size="7.5" fill="rgb(0,0,0)" text-anchor="middle">4</text>
<polygon points="136.9,383.6 144.9,383.6 144.9,391.6 136.9,391.6" fill="rgb(0,205,0)"/><text xml:space="preserve" x="140.9" y="390.433" font-family="Calibri" font-size="7.5" fill="rgb(255,255,255)" text-anchor="middle">1</text>
<polygon points="144.9,383.6 152.9,383.6 152.9,391.6 144.9,391.6" fill="rgb(0,205,0)"/><text xml:space="preserve" x="148.9" y="390.433" font-family="Calibri" font-size="7.5" fill="rgb(255,255,255)" text-anchor="middle">1</text>
<polygon points="152.9,383.6 160.9,383.6 160.9,391.6 152.9,391.6" fill="rgb(0,205,0)"/><text xml:space="preserve" x="156.9" y="390.433" font-family="Calibri" font-size="7.5" fill="rgb(255,255,255)" text-anchor="middle">1</text>
<polygon points="160.9,383.6 168.9,383.6 168.9,391.6 160.9,391.6" fill="rgb(0,205,0)"/><text xml:space="preserve" x="164.9" y="390.433" font-family="Calibri" font-size="7.5" fill="rgb(255,255,255)" text-anchor="middle">1</text>
<polygon points="168.9,383.6 176.9,383.6 176.9,391.6 168.9,391.6" fill="rgb(0,205,0)"/><text xml:space="preserve" x="172.9" y="390.433" font-family="Calibri" font-size="7.5" fill="rgb(255,255,255)" text-anchor="middle">1</text>
<polygon points="176.9,383.6 184.9,383.6 184.9,391.6 176.9,391.6" fill="rgb(0,205,0)"/><text xml:space="preserve" x="180.9" y="390.433" font-family="Calibri" font-size="7.5" fill="rgb(255,255,255)" text-anchor="middle">1</text>
<polygon points="194.9,383.6 202.9,383.6 202.9,391.6 194.9,391.6" fill="rgb(42,192,144)"/>
<polygon points="202.9,383.6 210.9,383.6 210.9,391.6 202.9,391.6" fill="rgb(0,27,135)"/>
<polygon points="210.9,383.6 218.9,383.6 218.9,391.6 210.9,391.6" fill="rgb(0,27,135)"/>
<polygon points="218.9,383.6 226.9,383.6 226.9,391.6 218.9,391.6" fill="rgb(0,27,135)"/>
<polygon points="226.9,383.6 234.9,383.6 234.9,391.6 226.9,391.6" fill="rgb(0,27,135)"/>
<polygon points="234.9,383.6 242.9,383.6 242.9,391.6 234.9,391.6" fill="rgb(0,27,135)"/>
<polygon points="242.9,383.6 250.9,383.6 250.9,391.6 242.9,391.6" fill="rgb(0,27,135)"/>
<polygon points="260.9,383.6 268.9,383.6 268.9,391.6 260.9,391.6" fill="rgb(255,255,255)"/>
<polygon points="268.9,383.6 276.9,383.6 276.9,391.6 268.9,391.6" fill="rgb(255,255,255)"/>
<polygon points="276.9,383.6 284.9,383.6 284.9,391.6 276.9,391.6" fill="rgb(255,255,255)"/>
<polygon points="284.9,383.6 292.9,383.6 292.9,391.6 284.9,391.6" fill="rgb(255,255,255)"/>
<polygon points="292.9,383.6 300.9,383.6 300.9,391.6 292.9,391.6" fill="rgb(255,255,255)"/>
<polygon points="300.9,383.6 308.9,383.6 308.9,391.6 300.9,391.6" fill="rgb(255,255,255)"/>
<polygon points="308.9,383.6 316.9,383.6 316.9,391.6 308.9,391.6" fill="rgb(255,255,255)"/>
<polygon points="316.9,383.6 324.9,383.6 324.9,391.6 316.9,391.6" fill="rgb(255,255,255)"/>
<polygon points="128.9,335.6 184.9,335.6 184.9,391.6 128.9,391.6" fill="none" stroke="black" stroke-width="1"/>
<polygon points="194.9,335.6 250.9,335.6 250.9,391.6 194.9,391.6" fill="none" stroke="black" stroke-width="1"/>
<polygon points="260.9,335.6 324.9,335.6 324.9,391.6 260.9,391.6" fill="none" stroke="black" stroke-width="1"/>
<text xml:space="preserve" x="172.45" y="424.6" font-family="Calibri" font-size="8" text-anchor="middle">ClusterAssignment</text>
<polygon points="122.45,431.6 142.45,431.6 142.45,451.6 122.45,451.6" fill="rgb(0,205,0)"/><polygon points="122.45,431.6 142.45,431.6 142.45,451.6 122.45,451.6" fill="none" stroke="black" stroke-width="1"/><text xml:space="preserve" x="132.45" y="444.433" font-family="Calibri" font-size="7.5" fill="rgb(255,255,255)" text-anchor="middle">1.0</text>
<polygon points="142.45,431.6 162.45,431.6 162.45,451.6 142.45,451.6" fill="rgb(127,230,0)"/><polygon points="142.45,431.6 162.45,431.6 162.45,451.6 142.45,451.6" fill="none" stroke="black" stroke-width="1"/><text xml:space="preserve" x="152.45" y="444.433" font-family="Calibri" font-size="7.5" fill="rgb(0,0,0)" text-anchor="middle">2.0</text>
<polygon points="162.45,431.6 182.45,431.6 182.45,451.6 162.45,451.6" fill="rgb(255,255,0)"/><polygon points="162.45,431.6 182.45,431.6 182.45,451.6 162.45,451.6" fill="none" stroke="black" stroke-width="1"/><text xml:space="preserve" x="172.45" y="444.433" font-family="Calibri" font-size="7.5" fill="rgb(0,0,0)" text-anchor="middle">3.0</text>
<polygon points="182.45,431.6 202.45,431.6 202.45,451.6 182.45,451.6" fill="rgb(230,127,0)"/><polygon points="182.45,431.6 202.45,431.6 202.45,451.6 182.45,451.6" fill="none" stroke="black" stroke-width="1"/><text xml:space="preserve" x="192.45" y="444.433" font-family="Calibri" font-size="7.5" fill="rgb(0,0,0)" text-anchor="middle">4.0</text>
<polygon points="202.45,431.6 222.45,431.6 222.45,451.6 202.45,451.6" fill="rgb(205,0,0)"/><polygon points="202.45,431.6 222.45,431.6 222.45,451.6 202.45,451.6" fill="none" stroke="black" stroke-width="1"/><text xml:space="preserve" x="212.45" y="444.433" font-family="Calibri" font-size="7.5" fill="rgb(255,255,255)" text-anchor="middle">5.0</text>
<text xml:space="preserve" x="172.45" y="484.6" font-family="Calibri" font-size="8" text-anchor="middle">Expression</text>
<polygon points="122.45,491.6 142.45,491.6 142.45,511.6 122.45,511.6" fill="rgb(0,27,135)"/><polygon points="122.45,491.6 142.45,491.6 142.45,511.6 122.45,511.6" fill="none" stroke="black" stroke-width="1"/><text xml:space="preserve" x="132.45" y="504.433" font-family="Calibri" font-size="7.5" fill="rgb(255,255,255)" text-anchor="middle">0.0</text>
<polygon points="142.45,491.6 162.45,491.6 162.45,511.6 142.45,511.6" fill="rgb(24,123,140)"/><polygon points="142.45,491.6 162.45,491.6 162.45,511.6 142.45,511.6" fill="none" stroke="black" stroke-width="1"/><text xml:space="preserve" x="152.45" y="504.433" font-family="Calibri" font-size="7.5" fill="rgb(255,255,255)" text-anchor="middle">0.8</text>
<polygon points="162.45,491.6 182.45,491.6 182.45,511.6 162.45,511.6" fill="rgb(49,219,146)"/><polygon points="162.45,491.6 182.45,491.6 182.45,511.6 162.45,511.6" fill="none" stroke="black" stroke-width="1"/><text xml:space="preserve" x="172.45" y="504.433" font-family="Calibri" font-size="7.5" fill="rgb(0,0,0)" text-anchor="middle">1.5</text>
<polygon points="182.45,491.6 202.45,491.6 202.45,511.6 182.45,511.6" fill="rgb(150,206,73)"/><polygon points="182.45,491.6 202.45,491.6 202.45,511.6 182.45,511.6" fill="none" stroke="black" stroke-width="1"/><text xml:space="preserve" x="192.45" y="504.433" font-family="Calibri" font-size="7.5" fill="rgb(0,0,0)" text-anchor="middle">2.2</text>
<polygon points="202.45,491.6 222.45,491.6 222.45,511.6 202.45,511.6" fill="rgb(252,194,1)"/><polygon points="202.45,491.6 222.45,491.6 222.45,511.6 202.45,511.6" fill="none" stroke="black" stroke-width="1"/><text xml:space="preserve" x="212.45" y="504.433" font-family="Calibri" font-size="7.5" fill="rgb(0,0,0)" text-anchor="middle">3.0</text>
<text xml:space="preserve" x="172.45" y="544.6" font-family="Calibri" font-size="8" text-anchor="middle">PANTHERclass</text>
<polygon points="122.45,551.6 142.45,551.6 142.45,571.6 122.45,571.6" fill="rgb(255,255,255)"/><polygon points="122.45,551.6 142.45,551.6 142.45,571.6 122.45,571.6" fill="none" stroke="black" stroke-width="1"/><text xml:space="preserve" x="132.45" y="564.433" font-family="Calibri" font-size="7.5" fill="rgb(0,0,0)" text-anchor="middle">0.0</text>
<polygon points="142.45,551.6 162.45,551.6 162.45,571.6 142.45,571.6" fill="rgb(242,191,242)"/><polygon points="142.45,551.6 162.45,551.6 162.45,571.6 142.45,571.6" fill="none" stroke="black" stroke-width="1"/><text xml:space="preserve" x="152.45" y="564.433" font-family="Calibri" font-size="7.5" fill="rgb(0,0,0)" text-anchor="middle">0.2</text>
<polygon points="162.45,551.6 182.45,551.6 182.45,571.6 162.45,571.6" fill="rgb(230,127,230)"/><polygon points="162.45,551.6 182.45,551.6 182.45,571.6 162.45,571.6" fill="none" stroke="black" stroke-width="1"/><text xml:space="preserve" x="172.45" y="564.433" font-family="Calibri" font-size="7.5" fill="rgb(0,0,0)" text-anchor="middle">0.5</text>
<polygon points="182.45,551.6 202.45,551.6 202.45,571.6 182.45,571.6" fill="rgb(217,63,217)"/><polygon points="182.45,551.6 202.45,551.6 202.45,571.6 182.45,571.6" fill="none" stroke="black" stroke-width="1"/><text xml:space="preserve" x="192.45" y="564.433" font-family="Calibri" font-size="7.5" fill="rgb(255,255,255)" text-anchor="middle">0.8</text>
<polygon points="202.45,551.6 222.45,551.6 222.45,571.6 202.45,571.6" fill="rgb(205,0,205)"/><polygon points="202.45,551.6 222.45,551.6 222.45,571.6 202.45,571.6" fill="none" stroke="black" stroke-width="1"/><text xml:space="preserve" x="212.45" y="564.433" font-family="Calibri" font-size="7.5" fill="rgb(255,255,255)" text-anchor="middle">1.0</text>
</svg>
