<?xml version="1.0" standalone="no"?><!DOCTYPE svg PUBLIC "-//W3C//DTD SVG 1.1//EN" "http://www.w3.org/Graphics/SVG/1.1/DTD/svg11.dtd">
<svg width="311.6" height="591.6" version="1.1" xmlns="http://www.w3.org/2000/svg">
<text xml:space="preserve" x="91.6" y="342.6" font-family="Calibri" font-size="8" text-anchor="end">COL4A2</text>
<text xml:space="preserve" x="91.6" y="350.6" font-family="Calibri" font-size="8" text-anchor="end">PEG10</text>
<text xml:space="preserve" x="91.6" y="358.6" font-family="Calibri" font-size="8" text-anchor="end">VGF</text>
<text xml:space="preserve" x="91.6" y="366.6" font-family="Calibri" font-size="8" text-anchor="end">NNAT</text>
<text xml:space="preserve" x="91.6" y="374.6" font-family="Calibri" font-size="8" text-anchor="end">MDK</text>
<text xml:space="preserve" x="91.6" y="382.6" font-family="Calibri" font-size="8" text-anchor="end">MT-ND3</text>
<text xml:space="preserve" x="91.6" y="390.6" font-family="Calibri" font-size="8" text-anchor="end">MT-ND6</text>
<text xml:space="preserve" x="102.6" y="331.6" font-family="Calibri" font-size="8" transform="rotate(270 102.6 331.6)">c3</text>
<text xml:space="preserve" x="110.6" y="331.6" font-family="Calibri" font-size="8" transform="rotate(270 110.6 331.6)">c1</text>
<text xml:space="preserve" x="118.6" y="331.6" font-family="Calibri" font-size="8" transform="rotate(270 118.6 331.6)">c4</text>
<text xml:space="preserve" x="126.6" y="331.6" font-family="Calibri" font-size="8" transform="rotate(270 126.6 331.6)">c5</text>
<text xml:space="preserve" x="134.6" y="331.6" font-family="Calibri" font-size="8" transform="rotate(270 134.6 331.6)">c2</text>
<text xml:space="preserve" x="142.6" y="331.6" font-family="Calibri" font-size="8" transform="rotate(270 142.6 331.6)">c6</text>
<text xml:space="preserve" x="150.6" y="331.6" font-family="Calibri" font-size="8" transform="rotate(270 150.6 331.6)">c7</text>
<text xml:space="preserve" x="168.6" y="331.6" font-family="Calibri" font-size="8" transform="rotate(270 168.6 331.6)">c3_mean</text>
<text xml:space="preserve" x="176.6" y="331.6" font-family="Calibri" font-size="8" transform="rotate(270 176.6 331.6)">c1_mean</text>
<text xml:space="preserve" x="184.6" y="331.6" font-family="Calibri" font-size="8" transform="rotate(270 184.6 331.6)">c4_mean</text>
<text xml:space="preserve" x="192.6" y="331.6" font-family="Calibri" font-size="8" transform="rotate(270 192.6 331.6)">c5_mean</text>
<text xml:space="preserve" x="200.6" y="331.6" font-family="Calibri" font-size="8" transform="rotate(270 200.6 331.6)">c2_mean</text>
<text xml:space="preserve" x="208.6" y="331.6" font-family="Calibri" font-size="8" transform="rotate(270 208.6 331.6)">c6_mean</text>
<text xml:space="preserve" x="216.6" y="331.6" font-family="Calibri" font-size="8" transform="rotate(270 216.6 331.6)">c7_mean</text>
<text xml:space="preserve" x="234.6" y="331.6" font-family="Calibri" font-size="8" transform="rotate(270 234.6 331.6)">transcription_factor</text>
<text xml:space="preserve" x="242.6" y="331.6" font-family="Calibri" font-size="8" transform="rotate(270 242.6 331.6)">transmembrane_signal_receptor</text>
<text xml:space="preserve" x="250.6" y="331.6" font-family="Calibri" font-size="8" transform="rotate(270 250.6 331.6)">growth_factor</text>
<text xml:space="preserve" x="258.6" y="331.6" font-family="Calibri" font-size="8" transform="rotate(270 258.6 331.6)">peptide_hormone</text>
<text xml:space="preserve" x="266.6" y="331.6" font-family="Calibri" font-size="8" transform="rotate(270 266.6 331.6)">cytoskeletal_protein</text>
<text xml:space="preserve" x="274.6" y="331.6" font-family="Calibri" font-size="8" transform="rotate(270 274.6 331.6)">ion_channel</text>
<text xml:space="preserve" x="282.6" y="331.6" font-family="Calibri" font-size="8" transform="rotate(270 282.6 331.6)">integrin</text>
<text xml:space="preserve" x="290.6" y="331.6" font-family="Calibri" font-size="8" transform="rotate(270 290.6 331.6)">extracellular_matrix_protein</text>
<polygon points="95.6,335.6 103.6,335.6 103.6,343.6 95.6,343.6" fill="rgb(205,0,0)"/><text xml:space="preserve" x="99.6" y="342.433" font-family="Calibri" font-size="7.5" fill="rgb(255,255,255)" text-anchor="middle">5</text>
<polygon points="103.6,335.6 111.6,335.6 111.6,343.6 103.6,343.6" fill="rgb(255,255,0)"/><text xml:space="preserve" x="107.6" y="342.433" font-family="Calibri" font-size="7.5" fill="rgb(0,0,0)" text-anchor="middle">3</text>
<polygon points="111.6,335.6 119.6,335.6 119.6,343.6 111.6,343.6" fill="rgb(255,255,0)"/><text xml:space="preserve" x="115.6" y="342.433" font-family="Calibri" font-size="7.5" fill="rgb(0,0,0)" text-anchor="middle">3</text>
<polygon points="119.6,335.6 127.6,335.6 127.6,343.6 119.6,343.6" fill="rgb(255,255,0)"/><text xml:space="preserve" x="123.6" y="342.433" font-family="Calibri" font-size="7.5" fill="rgb(0,0,0)" text-anchor="middle">3</text>
<polygon points="127.6,335.6 135.6,335.6 135.6,343.6 127.6,343.6" fill="rgb(255,255,0)"/><text xml:space="preserve" x="131.6" y="342.433" font-family="Calibri" font-size="7.5" fill="rgb(0,0,0)" text-anchor="middle">3</text>
<polygon points="135.6,335.6 143.6,335.6 143.6,343.6 135.6,343.6" fill="rgb(255,255,0)"/><text xml:space="preserve" x="139.6" y="342.433" font-family="Calibri" font-size="7.5" fill="rgb(0,0,0)" text-anchor="middle">3</text>
<polygon points="143.6,335.6 151.6,335.6 151.6,343.6 143.6,343.6" fill="rgb(255,255,0)"/><text xml:space="preserve" x="147.6" y="342.433" font-family="Calibri" font-size="7.5" fill="rgb(0,0,0)" text-anchor="middle">3</text>
<polygon points="161.6,335.6 169.6,335.6 169.6,343.6 161.6,343.6" fill="rgb(105,212,105)"/>
<polygon points="169.6,335.6 177.6,335.6 177.6,343.6 169.6,343.6" fill="rgb(19,105,139)"/>
<polygon points="177.6,335.6 185.6,335.6 185.6,343.6 177.6,343.6" fill="rgb(16,93,138)"/>
<polygon points="185.6,335.6 193.6,335.6 193.6,343.6 185.6,343.6" fill="rgb(22,115,140)"/>
<polygon points="193.6,335.6 201.6,335.6 201.6,343.6 193.6,343.6" fill="rgb(18,99,139)"/>
<polygon points="201.6,335.6 209.6,335.6 209.6,343.6 201.6,343.6" fill="rgb(16,93,138)"/>
<polygon points="209.6,335.6 217.6,335.6 217.6,343.6 209.6,343.6" fill="rgb(17,96,138)"/>
<polygon points="227.6,335.6 235.6,335.6 235.6,343.6 227.6,343.6" fill="rgb(255,255,255)"/>
<polygon points="235.6,335.6 243.6,335.6 243.6,343.6 235.6,343.6" fill="rgb(255,255,255)"/>
<polygon points="243.6,335.6 251.6,335.6 251.6,343.6 243.6,343.6" fill="rgb(255,255,255)"/>
<polygon points="251.6,335.6 259.6,335.6 259.6,343.6 251.6,343.6" fill="rgb(255,255,255)"/>
<polygon points="259.6,335.6 267.6,335.6 267.6,343.6 259.6,343.6" fill="rgb(255,255,255)"/>
<polygon points="267.6,335.6 275.6,335.6 275.6,343.6 267.6,343.6" fill="rgb(255,255,255)"/>
<polygon points="275.6,335.6 283.6,335.6 283.6,343.6 275.6,343.6" fill="rgb(255,255,255)"/>
<polygon points="283.6,335.6 291.6,335.6 291.6,343.6 283.6,343.6" fill="rgb(205,0,205)"/>
<polygon points="95.6,343.6 103.6,343.6 103.6,351.6 95.6,351.6" fill="rgb(205,0,0)"/><text xml:space="preserve" x="99.6" y="350.433" font-family="Calibri" font-size="7.5" fill="rgb(255,255,255)" text-anchor="middle">5</text>
<polygon points="103.6,343.6 111.6,343.6 111.6,351.6 103.6,351.6" fill="rgb(255,255,0)"/><text xml:space="preserve" x="107.6" y="350.433" font-family="Calibri" font-size="7.5" fill="rgb(0,0,0)" text-anchor="middle">3</text>
<polygon points="111.6,343.6 119.6,343.6 119.6,351.6 111.6,351.6" fill="rgb(255,255,0)"/><text xml:space="preserve" x="115.6" y="350.433" font-family="Calibri" font-size="7.5" fill="rgb(0,0,0)" text-anchor="middle">3</text>
<polygon points="119.6,343.6 127.6,343.6 127.6,351.6 119.6,351.6" fill="rgb(255,255,0)"/><text xml:space="preserve" x="123.6" y="350.433" font-family="Calibri" font-size="7.5" fill="rgb(0,0,0)" text-anchor="middle">3</text>
<polygon points="127.6,343.6 135.6,343.6 135.6,351.6 127.6,351.6" fill="rgb(255,255,0)"/><text xml:space="preserve" x="131.6" y="350.433" font-family="Calibri" font-size="7.5" fill="rgb(0,0,0)" text-anchor="middle">3</text>
<polygon points="135.6,343.6 143.6,343.6 143.6,351.6 135.6,351.6" fill="rgb(255,255,0)"/><text xml:space="preserve" x="139.6" y="350.433" font-family="Calibri" font-size="7.5" fill="rgb(0,0,0)" text-anchor="middle">3</text>
<polygon points="143.6,343.6 151.6,343.6 151.6,351.6 143.6,351.6" fill="rgb(255,255,0)"/><text xml:space="preserve" x="147.6" y="350.433" font-family="Calibri" font-size="7.5" fill="rgb(0,0,0)" text-anchor="middle">3</text>
<polygon points="161.6,343.6 169.6,343.6 169.6,351.6 161.6,351.6" fill="rgb(155,205,69)"/>
<polygon points="169.6,343.6 177.6,343.6 177.6,351.6 169.6,351.6" fill="rgb(16,93,138)"/>
<polygon points="177.6,343.6 185.6,343.6 185.6,351.6 177.6,351.6" fill="rgb(19,102,139)"/>
<polygon points="185.6,343.6 193.6,343.6 193.6,351.6 185.6,351.6" fill="rgb(17,96,138)"/>
<polygon points="193.6,343.6 201.6,343.6 201.6,351.6 193.6,351.6" fill="rgb(21,111,139)"/>
<polygon points="201.6,343.6 209.6,343.6 209.6,351.6 201.6,351.6" fill="rgb(16,91,138)"/>
<polygon points="209.6,343.6 217.6,343.6 217.6,351.6 209.6,351.6" fill="rgb(17,94,138)"/>
<polygon points="227.6,343.6 235.6,343.6 235.6,351.6 227.6,351.6" fill="rgb(255,255,255)"/>
<polygon points="235.6,343.6 243.6,343.6 243.6,351.6 235.6,351.6" fill="rgb(255,255,255)"/>
<polygon points="243.6,343.6 251.6,343.6 251.6,351.6 243.6,351.6" fill="rgb(255,255,255)"/>
<polygon points="251.6,343.6 259.6,343.6 259.6,351.6 251.6,351.6" fill="rgb(255,255,255)"/>
<polygon points="259.6,343.6 267.6,343.6 267.6,351.6 259.6,351.6" fill="rgb(255,255,255)"/>
<polygon points="267.6,343.6 275.6,343.6 275.6,351.6 267.6,351.6" fill="rgb(255,255,255)"/>
<polygon points="275.6,343.6 283.6,343.6 283.6,351.6 275.6,351.6" fill="rgb(255,255,255)"/>
<polygon points="283.6,343.6 291.6,343.6 291.6,351.6 283.6,351.6" fill="rgb(255,255,255)"/>
<polygon points="95.6,351.6 103.6,351.6 103.6,359.6 95.6,359.6" fill="rgb(205,0,0)"/><text xml:space="preserve" x="99.6" y="358.433" font-family="Calibri" font-size="7.5" fill="rgb(255,255,255)" text-anchor="middle">5</text>
<polygon points="103.6,351.6 111.6,351.6 111.6,359.6 103.6,359.6" fill="rgb(255,255,0)"/><text xml:space="preserve" x="107.6" y="358.433" font-family="Calibri" font-size="7.5" fill="rgb(0,0,0)" text-anchor="middle">3</text>
<polygon points="111.6,351.6 119.6,351.6 119.6,359.6 111.6,359.6" fill="rgb(255,255,0)"/><text xml:space="preserve" x="115.6" y="358.433" font-family="Calibri" font-size="7.5" fill="rgb(0,0,0)" text-anchor="middle">3</text>
<polygon points="119.6,351.6 127.6,351.6 127.6,359.6 119.6,359.6" fill="rgb(255,255,0)"/><text xml:space="preserve" x="123.6" y="358.433" font-family="Calibri" font-size="7.5" fill="rgb(0,0,0)" text-anchor="middle">3</text>
<polygon points="127.6,351.6 135.6,351.6 135.6,359.6 127.6,359.6" fill="rgb(255,255,0)"/><text xml:space="preserve" x="131.6" y="358.433" font-family="Calibri" font-size="7.5" fill="rgb(0,0,0)" text-anchor="middle">3</text>
<polygon points="135.6,351.6 143.6,351.6 143.6,359.6 135.6,359.6" fill="rgb(255,255,0)"/><text xml:space="preserve" x="139.6" y="358.433" font-family="Calibri" font-size="7.5" fill="rgb(0,0,0)" text-anchor="middle">3</text>
<polygon points="143.6,351.6 151.6,351.6 151.6,359.6 143.6,359.6" fill="rgb(255,255,0)"/><text xml:space="preserve" x="147.6" y="358.433" font-family="Calibri" font-size="7.5" fill="rgb(0,0,0)" text-anchor="middle">3</text>
<polygon points="161.6,351.6 169.6,351.6 169.6,359.6 161.6,359.6" fill="rgb(162,205,64)"/>
<polygon points="169.6,351.6 177.6,351.6 177.6,359.6 169.6,359.6" fill="rgb(17,94,138)"/>
<polygon points="177.6,351.6 185.6,351.6 185.6,359.6 177.6,359.6" fill="rgb(15,87,138)"/>
<polygon points="185.6,351.6 193.6,351.6 193.6,359.6 185.6,359.6" fill="rgb(14,83,138)"/>
<polygon points="193.6,351.6 201.6,351.6 201.6,359.6 193.6,359.6" fill="rgb(14,84,138)"/>
<polygon points="201.6,351.6 209.6,351.6 209.6,359.6 201.6,359.6" fill="rgb(16,89,138)"/>
<polygon points="209.6,351.6 217.6,351.6 217.6,359.6 209.6,359.6" fill="rgb(13,80,138)"/>
<polygon points="227.6,351.6 235.6,351.6 235.6,359.6 227.6,359.6" fill="rgb(255,255,255)"/>
<polygon points="235.6,351.6 243.6,351.6 243.6,359.6 235.6,359.6" fill="rgb(255,255,255)"/>
<polygon points="243.6,351.6 251.6,351.6 251.6,359.6 243.6,359.6" fill="rgb(205,0,205)"/>
<polygon points="251.6,351.6 259.6,351.6 259.6,359.6 251.6,359.6" fill="rgb(205,0,205)"/>
<polygon points="259.6,351.6 267.6,351.6 267.6,359.6 259.6,359.6" fill="rgb(255,255,255)"/>
<polygon points="267.6,351.6 275.6,351.6 275.6,359.6 267.6,359.6" fill="rgb(255,255,255)"/>
<polygon points="275.6,351.6 283.6,351.6 283.6,359.6 275.6,359.6" fill="rgb(255,255,255)"/>
<polygon points="283.6,351.6 291.6,351.6 291.6,359.6 283.6,359.6" fill="rgb(255,255,255)"/>
<polygon points="95.6,359.6 103.6,359.6 103.6,367.6 95.6,367.6" fill="rgb(205,0,0)"/><text xml:space="preserve" x="99.6" y="366.433" font-family="Calibri" font-size="7.5" fill="rgb(255,255,255)" text-anchor="middle">5</text>
<polygon points="103.6,359.6 111.6,359.6 111.6,367.6 103.6,367.6" fill="rgb(255,255,0)"/><text xml:space="preserve" x="107.6" y="366.433" font-family="Calibri" font-size="7.5" fill="rgb(0,0,0)" text-anchor="middle">3</text>
<polygon points="111.6,359.6 119.6,359.6 119.6,367.6 111.6,367.6" fill="rgb(255,255,0)"/><text xml:space="preserve" x="115.6" y="366.433" font-family="Calibri" font-size="7.5" fill="rgb(0,0,0)" text-anchor="middle">3</text>
<polygon points="119.6,359.6 127.6,359.6 127.6,367.6 119.6,367.6" fill="rgb(255,255,0)"/><text xml:space="preserve" x="123.6" y="366.433" font-family="Calibri" font-size="7.5" fill="rgb(0,0,0)" text-anchor="middle">3</text>
<polygon points="127.6,359.6 135.6,359.6 135.6,367.6 127.6,367.6" fill="rgb(255,255,0)"/><text xml:space="preserve" x="131.6" y="366.433" font-family="Calibri" font-size="7.5" fill="rgb(0,0,0)" text-anchor="middle">3</text>
<polygon points="135.6,359.6 143.6,359.6 143.6,367.6 135.6,367.6" fill="rgb(255,255,0)"/><text xml:space="preserve" x="139.6" y="366.433" font-family="Calibri" font-size="7.5" fill="rgb(0,0,0)" text-anchor="middle">3</text>
<polygon points="143.6,359.6 151.6,359.6 151.6,367.6 143.6,367.6" fill="rgb(255,255,0)"/><text xml:space="preserve" x="147.6" y="366.433" font-family="Calibri" font-size="7.5" fill="rgb(0,0,0)" text-anchor="middle">3</text>
<polygon points="161.6,359.6 169.6,359.6 169.6,367.6 161.6,367.6" fill="rgb(241,195,8)"/>
<polygon points="169.6,359.6 177.6,359.6 177.6,367.6 169.6,367.6" fill="rgb(21,110,139)"/>
<polygon points="177.6,359.6 185.6,359.6 185.6,367.6 177.6,367.6" fill="rgb(20,108,139)"/>
<polygon points="185.6,359.6 193.6,359.6 193.6,367.6 185.6,367.6" fill="rgb(17,96,138)"/>
<polygon points="193.6,359.6 201.6,359.6 201.6,367.6 193.6,367.6" fill="rgb(19,105,139)"/>
<polygon points="201.6,359.6 209.6,359.6 209.6,367.6 201.6,367.6" fill="rgb(17,94,138)"/>
<polygon points="209.6,359.6 217.6,359.6 217.6,367.6 209.6,367.6" fill="rgb(16,93,138)"/>
<polygon points="227.6,359.6 235.6,359.6 235.6,367.6 227.6,367.6" fill="rgb(255,255,255)"/>
<polygon points="235.6,359.6 243.6,359.6 243.6,367.6 235.6,367.6" fill="rgb(255,255,255)"/>
<polygon points="243.6,359.6 251.6,359.6 251.6,367.6 243.6,367.6" fill="rgb(255,255,255)"/>
<polygon points="251.6,359.6 259.6,359.6 259.6,367.6 251.6,367.6" fill="rgb(255,255,255)"/>
<polygon points="259.6,359.6 267.6,359.6 267.6,367.6 259.6,367.6" fill="rgb(255,255,255)"/>
<polygon points="267.6,359.6 275.6,359.6 275.6,367.6 267.6,367.6" fill="rgb(255,255,255)"/>
<polygon points="275.6,359.6 283.6,359.6 283.6,367.6 275.6,367.6" fill="rgb(255,255,255)"/>
<polygon points="283.6,359.6 291.6,359.6 291.6,367.6 283.6,367.6" fill="rgb(255,255,255)"/>
<polygon points="95.6,367.6 103.6,367.6 103.6,375.6 95.6,375.6" fill="rgb(205,0,0)"/><text xml:space="preserve" x="99.6" y="374.433" font-family="Calibri" font-size="7.5" fill="rgb(255,255,255)" text-anchor="middle">5</text>
<polygon points="103.6,367.6 111.6,367.6 111.6,375.6 103.6,375.6" fill="rgb(255,255,0)"/><text xml:space="preserve" x="107.6" y="374.433" font-family="Calibri" font-size="7.5" fill="rgb(0,0,0)" text-anchor="middle">3</text>
<polygon points="111.6,367.6 119.6,367.6 119.6,375.6 111.6,375.6" fill="rgb(255,255,0)"/><text xml:space="preserve" x="115.6" y="374.433" font-family="Calibri" font-size="7.5" fill="rgb(0,0,0)" text-anchor="middle">3</text>
<polygon points="119.6,367.6 127.6,367.6 127.6,375.6 119.6,375.6" fill="rgb(255,255,0)"/><text xml:space="preserve" x="123.6" y="374.433" font-family="Calibri" font-size="7.5" fill="rgb(0,0,0)" text-anchor="middle">3</text>
<polygon points="127.6,367.6 135.6,367.6 135.6,375.6 127.6,375.6" fill="rgb(255,255,0)"/><text xml:space="preserve" x="131.6" y="374.433" font-family="Calibri" font-size="7.5" fill="rgb(0,0,0)" text-anchor="middle">3</text>
<polygon points="135.6,367.6 143.6,367.6 143.6,375.6 135.6,375.6" fill="rgb(255,255,0)"/><text xml:space="preserve" x="139.6" y="374.433" font-family="Calibri" font-size="7.5" fill="rgb(0,0,0)" text-anchor="middle">3</text>
<polygon points="143.6,367.6 151.6,367.6 151.6,375.6 143.6,375.6" fill="rgb(255,255,0)"/><text xml:space="preserve" x="147.6" y="374.433" font-family="Calibri" font-size="7.5" fill="rgb(0,0,0)" text-anchor="middle">3</text>
<polygon points="161.6,367.6 169.6,367.6 169.6,375.6 161.6,375.6" fill="rgb(195,201,41)"/>
<polygon points="169.6,367.6 177.6,367.6 177.6,375.6 169.6,375.6" fill="rgb(19,105,139)"/>
<polygon points="177.6,367.6 185.6,367.6 185.6,375.6 177.6,375.6" fill="rgb(14,83,138)"/>
<polygon points="185.6,367.6 193.6,367.6 193.6,375.6 185.6,375.6" fill="rgb(16,89,138)"/>
<polygon points="193.6,367.6 201.6,367.6 201.6,375.6 193.6,375.6" fill="rgb(13,79,138)"/>
<polygon points="201.6,367.6 209.6,367.6 209.6,375.6 201.6,375.6" fill="rgb(15,85,138)"/>
<polygon points="209.6,367.6 217.6,367.6 217.6,375.6 209.6,375.6" fill="rgb(10,69,137)"/>
<polygon points="227.6,367.6 235.6,367.6 235.6,375.6 227.6,375.6" fill="rgb(255,255,255)"/>
<polygon points="235.6,367.6 243.6,367.6 243.6,375.6 235.6,375.6" fill="rgb(255,255,255)"/>
<polygon points="243.6,367.6 251.6,367.6 251.6,375.6 243.6,375.6" fill="rgb(205,0,205)"/>
<polygon points="251.6,367.6 259.6,367.6 259.6,375.6 251.6,375.6" fill="rgb(255,255,255)"/>
<polygon points="259.6,367.6 267.6,367.6 267.6,375.6 259.6,375.6" fill="rgb(255,255,255)"/>
<polygon points="267.6,367.6 275.6,367.6 275.6,375.6 267.6,375.6" fill="rgb(255,255,255)"/>
<polygon points="275.6,367.6 283.6,367.6 283.6,375.6 275.6,375.6" fill="rgb(255,255,255)"/>
<polygon points="283.6,367.6 291.6,367.6 291.6,375.6 283.6,375.6" fill="rgb(255,255,255)"/>
<polygon points="95.6,375.6 103.6,375.6 103.6,383.6 95.6,383.6" fill="rgb(205,0,0)"/><text xml:space="preserve" x="99.6" y="382.433" font-family="Calibri" font-size="7.5" fill="rgb(255,255,255)" text-anchor="middle">5</text>
<polygon points="103.6,375.6 111.6,375.6 111.6,383.6 103.6,383.6" fill="rgb(255,255,0)"/><text xml:space="preserve" x="107.6" y="382.433" font-family="Calibri" font-size="7.5" fill="rgb(0,0,0)" text-anchor="middle">3</text>
<polygon points="111.6,375.6 119.6,375.6 119.6,383.6 111.6,383.6" fill="rgb(255,255,0)"/><text xml:space="preserve" x="115.6" y="382.433" font-family="Calibri" font-size="7.5" fill="rgb(0,0,0)" text-anchor="middle">3</text>
<polygon points="119.6,375.6 127.6,375.6 127.6,383.6 119.6,383.6" fill="rgb(255,255,0)"/><text xml:space="preserve" x="123.6" y="382.433" font-family="Calibri" font-size="7.5" fill="rgb(0,0,0)" text-anchor="middle">3</text>
<polygon points="127.6,375.6 135.6,375.6 135.6,383.6 127.6,383.6" fill="rgb(255,255,0)"/><text xml:space="preserve" x="131.6" y="382.433" font-family="Calibri" font-size="7.5" fill="rgb(0,0,0)" text-anchor="middle">3</text>
<polygon points="135.6,375.6 143.6,375.6 143.6,383.6 135.6,383.6" fill="rgb(255,255,0)"/><text xml:space="preserve" x="139.6" y="382.433" font-family="Calibri" font-size="7.5" fill="rgb(0,0,0)" text-anchor="middle">3</text>
<polygon points="143.6,375.6 151.6,375.6 151.6,383.6 143.6,383.6" fill="rgb(255,255,0)"/><text xml:space="preserve" x="147.6" y="382.433" font-family="Calibri" font-size="7.5" fill="rgb(0,0,0)" text-anchor="middle">3</text>
<polygon points="161.6,375.6 169.6,375.6 169.6,383.6 161.6,383.6" fill="rgb(166,204,61)"/>
<polygon points="169.6,375.6 177.6,375.6 177.6,383.6 169.6,383.6" fill="rgb(21,110,139)"/>
<polygon points="177.6,375.6 185.6,375.6 185.6,383.6 177.6,383.6" fill="rgb(19,103,139)"/>
<polygon points="185.6,375.6 193.6,375.6 193.6,383.6 185.6,383.6" fill="rgb(18,101,139)"/>
<polygon points="193.6,375.6 201.6,375.6 201.6,383.6 193.6,383.6" fill="rgb(20,106,139)"/>
<polygon points="201.6,375.6 209.6,375.6 209.6,383.6 201.6,383.6" fill="rgb(19,102,139)"/>
<polygon points="209.6,375.6 217.6,375.6 217.6,383.6 209.6,383.6" fill="rgb(18,98,139)"/>
<polygon points="227.6,375.6 235.6,375.6 235.6,383.6 227.6,383.6" fill="rgb(255,255,255)"/>
<polygon points="235.6,375.6 243.6,375.6 243.6,383.6 235.6,383.6" fill="rgb(255,255,255)"/>
<polygon points="243.6,375.6 251.6,375.6 251.6,383.6 243.6,383.6" fill="rgb(255,255,255)"/>
<polygon points="251.6,375.6 259.6,375.6 259.6,383.6 251.6,383.6" fill="rgb(255,255,255)"/>
<polygon points="259.6,375.6 267.6,375.6 267.6,383.6 259.6,383.6" fill="rgb(255,255,255)"/>
<polygon points="267.6,375.6 275.6,375.6 275.6,383.6 267.6,383.6" fill="rgb(255,255,255)"/>
<polygon points="275.6,375.6 283.6,375.6 283.6,383.6 275.6,383.6" fill="rgb(255,255,255)"/>
<polygon points="283.6,375.6 291.6,375.6 291.6,383.6 283.6,383.6" fill="rgb(255,255,255)"/>
<polygon points="95.6,383.6 103.6,383.6 103.6,391.6 95.6,391.6" fill="rgb(205,0,0)"/><text xml:space="preserve" x="99.6" y="390.433" font-family="Calibri" font-size="7.5" fill="rgb(255,255,255)" text-anchor="middle">5</text>
<polygon points="103.6,383.6 111.6,383.6 111.6,391.6 103.6,391.6" fill="rgb(255,255,0)"/><text xml:space="preserve" x="107.6" y="390.433" font-family="Calibri" font-size="7.5" fill="rgb(0,0,0)" text-anchor="middle">3</text>
<polygon points="111.6,383.6 119.6,383.6 119.6,391.6 111.6,391.6" fill="rgb(255,255,0)"/><text xml:space="preserve" x="115.6" y="390.433" font-family="Calibri" font-size="7.5" fill="rgb(0,0,0)" text-anchor="middle">3</text>
<polygon points="119.6,383.6 127.6,383.6 127.6,391.6 119.6,391.6" fill="rgb(255,255,0)"/><text xml:space="preserve" x="123.6" y="390.433" font-family="Calibri" font-size="7.5" fill="rgb(0,0,0)" text-anchor="middle">3</text>
<polygon points="127.6,383.6 135.6,383.6 135.6,391.6 127.6,391.6" fill="rgb(255,255,0)"/><text xml:space="preserve" x="131.6" y="390.433" font-family="Calibri" font-size="7.5" fill="rgb(0,0,0)" text-anchor="middle">3</text>
<polygon points="135.6,383.6 143.6,383.6 143.6,391.6 135.6,391.6" fill="rgb(255,255,0)"/><text xml:space="preserve" x="139.6" y="390.433" font-family="Calibri" font-size="7.5" fill="rgb(0,0,0)" text-anchor="middle">3</text>
<polygon points="143.6,383.6 151.6,383.6 151.6,391.6 143.6,391.6" fill="rgb(255,255,0)"/><text xml:space="preserve" x="147.6" y="390.433" font-family="Calibri" font-size="7.5" fill="rgb(0,0,0)" text-anchor="middle">3</text>
<polygon points="161.6,383.6 169.6,383.6 169.6,391.6 161.6,391.6" fill="rgb(105,212,105)"/>
<polygon points="169.6,383.6 177.6,383.6 177.6,391.6 169.6,391.6" fill="rgb(15,85,138)"/>
<polygon points="177.6,383.6 185.6,383.6 185.6,391.6 177.6,391.6" fill="rgb(19,105,139)"/>
<polygon points="185.6,383.6 193.6,383.6 193.6,391.6 185.6,391.6" fill="rgb(23,117,140)"/>
<polygon points="193.6,383.6 201.6,383.6 201.6,391.6 193.6,391.6" fill="rgb(19,103,139)"/>
<polygon points="201.6,383.6 209.6,383.6 209.6,391.6 201.6,391.6" fill="rgb(17,97,139)"/>
<polygon points="209.6,383.6 217.6,383.6 217.6,391.6 209.6,391.6" fill="rgb(19,105,139)"/>
<polygon points="227.6,383.6 235.6,383.6 235.6,391.6 227.6,391.6" fill="rgb(255,255,255)"/>
<polygon points="235.6,383.6 243.6,383.6 243.6,391.6 235.6,391.6" fill="rgb(255,255,255)"/>
<polygon points="243.6,383.6 251.6,383.6 251.6,391.6 243.6,391.6" fill="rgb(255,255,255)"/>
<polygon points="251.6,383.6 259.6,383.6 259.6,391.6 251.6,391.6" fill="rgb(255,255,255)"/>
<polygon points="259.6,383.6 267.6,383.6 267.6,391.6 259.6,391.6" fill="rgb(255,255,255)"/>
<polygon points="267.6,383.6 275.6,383.6 275.6,391.6 267.6,391.6" fill="rgb(255,255,255)"/>
<polygon points="275.6,383.6 283.6,383.6 283.6,391.6 275.6,391.6" fill="rgb(255,255,255)"/>
<polygon points="283.6,383.6 291.6,383.6 291.6,391.6 283.6,391.6" fill="rgb(255,255,255)"/>
<polygon points="95.6,335.6 151.6,335.6 151.6,391.6 95.6,391.6" fill="none" stroke="black" stroke-width="1"/>
<polygon points="161.6,335.6 217.6,335.6 217.6,391.6 161.6,391.6" fill="none" stroke="black" stroke-width="1"/>
<polygon points="227.6,335.6 291.6,335.6 291.6,391.6 227.6,391.6" fill="none" stroke="black" stroke-width="1"/>
<text xml:space="preserve" x="155.8" y="424.6" font-family="Calibri" font-size="8" text-anchor="middle">ClusterAssignment</text>
<polygon points="105.8,431.6 125.8,431.6 125.8,451.6 105.8,451.6" fill="rgb(0,205,0)"/><polygon points="105.8,431.6 125.8,431.6 125.8,451.6 105.8,451.6" fill="none" stroke="black" stroke-width="1"/><text xml:space="preserve" x="115.8" y="444.433" font-family="Calibri" font-size="7.5" fill="rgb(255,255,255)" text-anchor="middle">1.0</text>
<polygon points="125.8,431.6 145.8,431.6 145.8,451.6 125.8,451.6" fill="rgb(127,230,0)"/><polygon points="125.8,431.6 145.8,431.6 145.8,451.6 125.8,451.6" fill="none" stroke="black" stroke-width="1"/><text xml:space="preserve" x="135.8" y="444.433" font-family="Calibri" font-size="7.5" fill="rgb(0,0,0)" text-anchor="middle">2.0</text>
<polygon points="145.8,431.6 165.8,431.6 165.8,451.6 145.8,451.6" fill="rgb(255,255,0)"/><polygon points="145.8,431.6 165.8,431.6 165.8,451.6 145.8,451.6" fill="none" stroke="black" stroke-width="1"/><text xml:space="preserve" x="155.8" y="444.433" font-family="Calibri" font-size="7.5" fill="rgb(0,0,0)" text-anchor="middle">3.0</text>
<polygon points="165.8,431.6 185.8,431.6 185.8,451.6 165.8,451.6" fill="rgb(230,127,0)"/><polygon points="165.8,431.6 185.8,431.6 185.8,451.6 165.8,451.6" fill="none" stroke="black" stroke-width="1"/><text xml:space="preserve" x="175.8" y="444.433" font-family="Calibri" font-size="7.5" fill="rgb(0,0,0)" text-anchor="middle">4.0</text>
<polygon points="185.8,431.6 205.8,431.6 205.8,451.6 185.8,451.6" fill="rgb(205,0,0)"/><polygon points="185.8,431.6 205.8,431.6 205.8,451.6 185.8,451.6" fill="none" stroke="black" stroke-width="1"/><text xml:space="preserve" x="195.8" y="444.433" font-family="Calibri" font-size="7.5" fill="rgb(255,255,255)" text-anchor="middle">5.0</text>
<text xml:space="preserve" x="155.8" y="484.6" font-family="Calibri" font-size="8" text-anchor="middle">Expression</text>
<polygon points="105.8,491.6 125.8,491.6 125.8,511.6 105.8,511.6" fill="rgb(0,27,135)"/><polygon points="105.8,491.6 125.8,491.6 125.8,511.6 105.8,511.6" fill="none" stroke="black" stroke-width="1"/><text xml:space="preserve" x="115.8" y="504.433" font-family="Calibri" font-size="7.5" fill="rgb(255,255,255)" text-anchor="middle">0.0</text>
<polygon points="125.8,491.6 145.8,491.6 145.8,511.6 125.8,511.6" fill="rgb(24,123,140)"/><polygon points="125.8,491.6 145.8,491.6 145.8,511.6 125.8,511.6" fill="none" stroke="black" stroke-width="1"/><text xml:space="preserve" x="135.8" y="504.433" font-family="Calibri" font-size="7.5" fill="rgb(255,255,255)" text-anchor="middle">0.8</text>
<polygon points="145.8,491.6 165.8,491.6 165.8,511.6 145.8,511.6" fill="rgb(49,219,146)"/><polygon points="145.8,491.6 165.8,491.6 165.8,511.6 145.8,511.6" fill="none" stroke="black" stroke-width="1"/><text xml:space="preserve" x="155.8" y="504.433" font-family="Calibri" font-size="7.5" fill="rgb(0,0,0)" text-anchor="middle">1.5</text>
<polygon points="165.8,491.6 185.8,491.6 185.8,511.6 165.8,511.6" fill="rgb(150,206,73)"/><polygon points="165.8,491.6 185.8,491.6 185.8,511.6 165.8,511.6" fill="none" stroke="black" stroke-width="1"/><text xml:space="preserve" x="175.8" y="504.433" font-family="Calibri" font-size="7.5" fill="rgb(0,0,0)" text-anchor="middle">2.2</text>
<polygon points="185.8,491.6 205.8,491.6 205.8,511.6 185.8,511.6" fill="rgb(252,194,1)"/><polygon points="185.8,491.6 205.8,491.6 205.8,511.6 185.8,511.6" fill="none" stroke="black" stroke-width="1"/><text xml:space="preserve" x="195.8" y="504.433" font-family="Calibri" font-size="7.5" fill="rgb(0,0,0)" text-anchor="middle">3.0</text>
<text xml:space="preserve" x="155.8" y="544.6" font-family="Calibri" font-size="8" text-anchor="middle">PANTHERclass</text>
<polygon points="105.8,551.6 125.8,551.6 125.8,571.6 105.8,571.6" fill="rgb(255,255,255)"/><polygon points="105.8,551.6 125.8,551.6 125.8,571.6 105.8,571.6" fill="none" stroke="black" stroke-width="1"/><text xml:space="preserve" x="115.8" y="564.433" font-family="Calibri" font-size="7.5" fill="rgb(0,0,0)" text-anchor="middle">0.0</text>
<polygon points="125.8,551.6 145.8,551.6 145.8,571.6 125.8,571.6" fill="rgb(242,191,242)"/><polygon points="125.8,551.6 145.8,551.6 145.8,571.6 125.8,571.6" fill="none" stroke="black" stroke-width="1"/><text xml:space="preserve" x="135.8" y="564.433" font-family="Calibri" font-size="7.5" fill="rgb(0,0,0)" text-anchor="middle">0.2</text>
<polygon points="145.8,551.6 165.8,551.6 165.8,571.6 145.8,571.6" fill="rgb(230,127,230)"/><polygon points="145.8,551.6 165.8,551.6 165.8,571.6 145.8,571.6" fill="none" stroke="black" stroke-width="1"/><text xml:space="preserve" x="155.8" y="564.433" font-family="Calibri" font-size="7.5" fill="rgb(0,0,0)" text-anchor="middle">0.5</text>
<polygon points="165.8,551.6 185.8,551.6 185.8,571.6 165.8,571.6" fill="rgb(217,63,217)"/><polygon points="165.8,551.6 185.8,551.6 185.8,571.6 165.8,571.6" fill="none" stroke="black" stroke-width="1"/><text xml:space="preserve" x="175.8" y="564.433" font-family="Calibri" font-size="7.5" fill="rgb(255,255,255)" text-anchor="middle">0.8</text>
<polygon points="185.8,551.6 205.8,551.6 205.8,571.6 185.8,571.6" fill="rgb(205,0,205)"/><polygon points="185.8,551.6 205.8,551.6 205.8,571.6 185.8,571.6" fill="none" stroke="black" stroke-width="1"/><text xml:space="preserve" x="195.8" y="564.433" font-family="Calibri" font-size="7.5" fill="rgb(255,255,255)" text-anchor="middle">1.0</text>
</svg>
