<?xml version="1.0" standalone="no"?><!DOCTYPE svg PUBLIC "-//W3C//DTD SVG 1.1//EN" "http://www.w3.org/Graphics/SVG/1.1/DTD/svg11.dtd">
<svg width="338.3" height="575.6" version="1.1" xmlns="http://www.w3.org/2000/svg">
<text xml:space="preserve" x="118.3" y="342.6" font-family="Calibri" font-size="8" text-anchor="end">ARAP2</text>
<text xml:space="preserve" x="118.3" y="350.6" font-family="Calibri" font-size="8" text-anchor="end">CHST13</text>
<text xml:space="preserve" x="118.3" y="358.6" font-family="Calibri" font-size="8" text-anchor="end">SLC6A7</text>
<text xml:space="preserve" x="118.3" y="366.6" font-family="Calibri" font-size="8" text-anchor="end">PYY</text>
<text xml:space="preserve" x="118.3" y="374.6" font-family="Calibri" font-size="8" text-anchor="end">CEACAM21</text>
<text xml:space="preserve" x="129.3" y="331.6" font-family="Calibri" font-size="8" transform="rotate(270 129.3 331.6)">c3</text>
<text xml:space="preserve" x="137.3" y="331.6" font-family="Calibri" font-size="8" transform="rotate(270 137.3 331.6)">c1</text>
<text xml:space="preserve" x="145.3" y="331.6" font-family="Calibri" font-size="8" transform="rotate(270 145.3 331.6)">c4</text>
<text xml:space="preserve" x="153.3" y="331.6" font-family="Calibri" font-size="8" transform="rotate(270 153.3 331.6)">c5</text>
<text xml:space="preserve" x="161.3" y="331.6" font-family="Calibri" font-size="8" transform="rotate(270 161.3 331.6)">c2</text>
<text xml:space="preserve" x="169.3" y="331.6" font-family="Calibri" font-size="8" transform="rotate(270 169.3 331.6)">c6</text>
<text xml:space="preserve" x="177.3" y="331.6" font-family="Calibri" font-size="8" transform="rotate(270 177.3 331.6)">c7</text>
<text xml:space="preserve" x="195.3" y="331.6" font-family="Calibri" font-size="8" transform="rotate(270 195.3 331.6)">c3_mean</text>
<text xml:space="preserve" x="203.3" y="331.6" font-family="Calibri" font-size="8" transform="rotate(270 203.3 331.6)">c1_mean</text>
<text xml:space="preserve" x="211.3" y="331.6" font-family="Calibri" font-size="8" transform="rotate(270 211.3 331.6)">c4_mean</text>
<text xml:space="preserve" x="219.3" y="331.6" font-family="Calibri" font-size="8" transform="rotate(270 219.3 331.6)">c5_mean</text>
<text xml:space="preserve" x="227.3" y="331.6" font-family="Calibri" font-size="8" transform="rotate(270 227.3 331.6)">c2_mean</text>
<text xml:space="preserve" x="235.3" y="331.6" font-family="Calibri" font-size="8" transform="rotate(270 235.3 331.6)">c6_mean</text>
<text xml:space="preserve" x="243.3" y="331.6" font-family="Calibri" font-size="8" transform="rotate(270 243.3 331.6)">c7_mean</text>
<text xml:space="preserve" x="261.3" y="331.6" font-family="Calibri" font-size="8" transform="rotate(270 261.3 331.6)">transcription_factor</text>
<text xml:space="preserve" x="269.3" y="331.6" font-family="Calibri" font-size="8" transform="rotate(270 269.3 331.6)">transmembrane_signal_receptor</text>
<text xml:space="preserve" x="277.3" y="331.6" font-family="Calibri" font-size="8" transform="rotate(270 277.3 331.6)">growth_factor</text>
<text xml:space="preserve" x="285.3" y="331.6" font-family="Calibri" font-size="8" transform="rotate(270 285.3 331.6)">peptide_hormone</text>
<text xml:space="preserve" x="293.3" y="331.6" font-family="Calibri" font-size="8" transform="rotate(270 293.3 331.6)">cytoskeletal_protein</text>
<text xml:space="preserve" x="301.3" y="331.6" font-family="Calibri" font-size="8" transform="rotate(270 301.3 331.6)">ion_channel</text>
<text xml:space="preserve" x="309.3" y="331.6" font-family="Calibri" font-size="8" transform="rotate(270 309.3 331.6)">integrin</text>
<text xml:space="preserve" x="317.3" y="331.6" font-family="Calibri" font-size="8" transform="rotate(270 317.3 331.6)">extracellular_matrix_protein</text>
<polygon points="122.3,335.6 130.3,335.6 130.3,343.6 122.3,343.6" fill="rgb(0,205,0)"/><text xml:space="preserve" x="126.3" y="342.433" font-family="Calibri" font-size="7.5" fill="rgb(255,255,255)" text-anchor="middle">1</text>
<polygon points="130.3,335.6 138.3,335.6 138.3,343.6 130.3,343.6" fill="rgb(0,205,0)"/><text xml:space="preserve" x="134.3" y="342.433" font-family="Calibri" font-size="7.5" fill="rgb(255,255,255)" text-anchor="middle">1</text>
<polygon points="138.3,335.6 146.3,335.6 146.3,343.6 138.3,343.6" fill="rgb(0,205,0)"/><text xml:space="preserve" x="142.3" y="342.433" font-family="Calibri" font-size="7.5" fill="rgb(255,255,255)" text-anchor="middle">1</text>
<polygon points="146.3,335.6 154.3,335.6 154.3,343.6 146.3,343.6" fill="rgb(0,205,0)"/><text xml:space="preserve" x="150.3" y="342.433" font-family="Calibri" font-size="7.5" fill="rgb(255,255,255)" text-anchor="middle">1</text>
<polygon points="154.3,335.6 162.3,335.6 162.3,343.6 154.3,343.6" fill="rgb(127,230,0)"/><text xml:space="preserve" x="158.3" y="342.433" font-family="Calibri" font-size="7.5" fill="rgb(0,0,0)" text-anchor="middle">2</text>
<polygon points="162.3,335.6 170.3,335.6 170.3,343.6 162.3,343.6" fill="rgb(127,230,0)"/><text xml:space="preserve" x="166.3" y="342.433" font-family="Calibri" font-size="7.5" fill="rgb(0,0,0)" text-anchor="middle">2</text>
<polygon points="170.3,335.6 178.3,335.6 178.3,343.6 170.3,343.6" fill="rgb(127,230,0)"/><text xml:space="preserve" x="174.3" y="342.433" font-family="Calibri" font-size="7.5" fill="rgb(0,0,0)" text-anchor="middle">2</text>
<polygon points="188.3,335.6 196.3,335.6 196.3,343.6 188.3,343.6" fill="rgb(2,35,135)"/>
<polygon points="196.3,335.6 204.3,335.6 204.3,343.6 196.3,343.6" fill="rgb(1,33,135)"/>
<polygon points="204.3,335.6 212.3,335.6 212.3,343.6 204.3,343.6" fill="rgb(4,44,136)"/>
<polygon points="212.3,335.6 220.3,335.6 220.3,343.6 212.3,343.6" fill="rgb(4,44,136)"/>
<polygon points="220.3,335.6 228.3,335.6 228.3,343.6 220.3,343.6" fill="rgb(11,70,137)"/>
<polygon points="228.3,335.6 236.3,335.6 236.3,343.6 228.3,343.6" fill="rgb(15,88,138)"/>
<polygon points="236.3,335.6 244.3,335.6 244.3,343.6 236.3,343.6" fill="rgb(10,69,137)"/>
<polygon points="254.3,335.6 262.3,335.6 262.3,343.6 254.3,343.6" fill="rgb(255,255,255)"/>
<polygon points="262.3,335.6 270.3,335.6 270.3,343.6 262.3,343.6" fill="rgb(255,255,255)"/>
<polygon points="270.3,335.6 278.3,335.6 278.3,343.6 270.3,343.6" fill="rgb(255,255,255)"/>
<polygon points="278.3,335.6 286.3,335.6 286.3,343.6 278.3,343.6" fill="rgb(255,255,255)"/>
<polygon points="286.3,335.6 294.3,335.6 294.3,343.6 286.3,343.6" fill="rgb(255,255,255)"/>
<polygon points="294.3,335.6 302.3,335.6 302.3,343.6 294.3,343.6" fill="rgb(255,255,255)"/>
<polygon points="302.3,335.6 310.3,335.6 310.3,343.6 302.3,343.6" fill="rgb(255,255,255)"/>
<polygon points="310.3,335.6 318.3,335.6 318.3,343.6 310.3,343.6" fill="rgb(255,255,255)"/>
<polygon points="122.3,343.6 130.3,343.6 130.3,351.6 122.3,351.6" fill="rgb(0,205,0)"/><text xml:space="preserve" x="126.3" y="350.433" font-family="Calibri" font-size="7.5" fill="rgb(255,255,255)" text-anchor="middle">1</text>
<polygon points="130.3,343.6 138.3,343.6 138.3,351.6 130.3,351.6" fill="rgb(0,205,0)"/><text xml:space="preserve" x="134.3" y="350.433" font-family="Calibri" font-size="7.5" fill="rgb(255,255,255)" text-anchor="middle">1</text>
<polygon points="138.3,343.6 146.3,343.6 146.3,351.6 138.3,351.6" fill="rgb(0,205,0)"/><text xml:space="preserve" x="142.3" y="350.433" font-family="Calibri" font-size="7.5" fill="rgb(255,255,255)" text-anchor="middle">1</text>
<polygon points="146.3,343.6 154.3,343.6 154.3,351.6 146.3,351.6" fill="rgb(0,205,0)"/><text xml:space="preserve" x="150.3" y="350.433" font-family="Calibri" font-size="7.5" fill="rgb(255,255,255)" text-anchor="middle">1</text>
<polygon points="154.3,343.6 162.3,343.6 162.3,351.6 154.3,351.6" fill="rgb(127,230,0)"/><text xml:space="preserve" x="158.3" y="350.433" font-family="Calibri" font-size="7.5" fill="rgb(0,0,0)" text-anchor="middle">2</text>
<polygon points="162.3,343.6 170.3,343.6 170.3,351.6 162.3,351.6" fill="rgb(127,230,0)"/><text xml:space="preserve" x="166.3" y="350.433" font-family="Calibri" font-size="7.5" fill="rgb(0,0,0)" text-anchor="middle">2</text>
<polygon points="170.3,343.6 178.3,343.6 178.3,351.6 170.3,351.6" fill="rgb(127,230,0)"/><text xml:space="preserve" x="174.3" y="350.433" font-family="Calibri" font-size="7.5" fill="rgb(0,0,0)" text-anchor="middle">2</text>
<polygon points="188.3,343.6 196.3,343.6 196.3,351.6 188.3,351.6" fill="rgb(3,39,135)"/>
<polygon points="196.3,343.6 204.3,343.6 204.3,351.6 196.3,351.6" fill="rgb(2,37,135)"/>
<polygon points="204.3,343.6 212.3,343.6 212.3,351.6 204.3,351.6" fill="rgb(4,43,135)"/>
<polygon points="212.3,343.6 220.3,343.6 220.3,351.6 212.3,351.6" fill="rgb(5,47,136)"/>
<polygon points="220.3,343.6 228.3,343.6 228.3,351.6 220.3,351.6" fill="rgb(7,56,136)"/>
<polygon points="228.3,343.6 236.3,343.6 236.3,351.6 228.3,351.6" fill="rgb(19,105,139)"/>
<polygon points="236.3,343.6 244.3,343.6 244.3,351.6 236.3,351.6" fill="rgb(7,56,136)"/>
<polygon points="254.3,343.6 262.3,343.6 262.3,351.6 254.3,351.6" fill="rgb(255,255,255)"/>
<polygon points="262.3,343.6 270.3,343.6 270.3,351.6 262.3,351.6" fill="rgb(255,255,255)"/>
<polygon points="270.3,343.6 278.3,343.6 278.3,351.6 270.3,351.6" fill="rgb(255,255,255)"/>
<polygon points="278.3,343.6 286.3,343.6 286.3,351.6 278.3,351.6" fill="rgb(255,255,255)"/>
<polygon points="286.3,343.6 294.3,343.6 294.3,351.6 286.3,351.6" fill="rgb(255,255,255)"/>
<polygon points="294.3,343.6 302.3,343.6 302.3,351.6 294.3,351.6" fill="rgb(255,255,255)"/>
<polygon points="302.3,343.6 310.3,343.6 310.3,351.6 302.3,351.6" fill="rgb(255,255,255)"/>
<polygon points="310.3,343.6 318.3,343.6 318.3,351.6 310.3,351.6" fill="rgb(255,255,255)"/>
<polygon points="122.3,351.6 130.3,351.6 130.3,359.6 122.3,359.6" fill="rgb(0,205,0)"/><text xml:space="preserve" x="126.3" y="358.433" font-family="Calibri" font-size="7.5" fill="rgb(255,255,255)" text-anchor="middle">1</text>
<polygon points="130.3,351.6 138.3,351.6 138.3,359.6 130.3,359.6" fill="rgb(0,205,0)"/><text xml:space="preserve" x="134.3" y="358.433" font-family="Calibri" font-size="7.5" fill="rgb(255,255,255)" text-anchor="middle">1</text>
<polygon points="138.3,351.6 146.3,351.6 146.3,359.6 138.3,359.6" fill="rgb(0,205,0)"/><text xml:space="preserve" x="142.3" y="358.433" font-family="Calibri" font-size="7.5" fill="rgb(255,255,255)" text-anchor="middle">1</text>
<polygon points="146.3,351.6 154.3,351.6 154.3,359.6 146.3,359.6" fill="rgb(0,205,0)"/><text xml:space="preserve" x="150.3" y="358.433" font-family="Calibri" font-size="7.5" fill="rgb(255,255,255)" text-anchor="middle">1</text>
<polygon points="154.3,351.6 162.3,351.6 162.3,359.6 154.3,359.6" fill="rgb(127,230,0)"/><text xml:space="preserve" x="158.3" y="358.433" font-family="Calibri" font-size="7.5" fill="rgb(0,0,0)" text-anchor="middle">2</text>
<polygon points="162.3,351.6 170.3,351.6 170.3,359.6 162.3,359.6" fill="rgb(127,230,0)"/><text xml:space="preserve" x="166.3" y="358.433" font-family="Calibri" font-size="7.5" fill="rgb(0,0,0)" text-anchor="middle">2</text>
<polygon points="170.3,351.6 178.3,351.6 178.3,359.6 170.3,359.6" fill="rgb(127,230,0)"/><text xml:space="preserve" x="174.3" y="358.433" font-family="Calibri" font-size="7.5" fill="rgb(0,0,0)" text-anchor="middle">2</text>
<polygon points="188.3,351.6 196.3,351.6 196.3,359.6 188.3,359.6" fill="rgb(0,27,135)"/>
<polygon points="196.3,351.6 204.3,351.6 204.3,359.6 196.3,359.6" fill="rgb(0,27,135)"/>
<polygon points="204.3,351.6 212.3,351.6 212.3,359.6 204.3,359.6" fill="rgb(5,47,136)"/>
<polygon points="212.3,351.6 220.3,351.6 220.3,359.6 212.3,359.6" fill="rgb(7,57,136)"/>
<polygon points="220.3,351.6 228.3,351.6 228.3,359.6 220.3,359.6" fill="rgb(10,66,137)"/>
<polygon points="228.3,351.6 236.3,351.6 236.3,359.6 228.3,359.6" fill="rgb(16,89,138)"/>
<polygon points="236.3,351.6 244.3,351.6 244.3,359.6 236.3,359.6" fill="rgb(9,64,137)"/>
<polygon points="254.3,351.6 262.3,351.6 262.3,359.6 254.3,359.6" fill="rgb(255,255,255)"/>
<polygon points="262.3,351.6 270.3,351.6 270.3,359.6 262.3,359.6" fill="rgb(255,255,255)"/>
<polygon points="270.3,351.6 278.3,351.6 278.3,359.6 270.3,359.6" fill="rgb(255,255,255)"/>
<polygon points="278.3,351.6 286.3,351.6 286.3,359.6 278.3,359.6" fill="rgb(255,255,255)"/>
<polygon points="286.3,351.6 294.3,351.6 294.3,359.6 286.3,359.6" fill="rgb(255,255,255)"/>
<polygon points="294.3,351.6 302.3,351.6 302.3,359.6 294.3,359.6" fill="rgb(255,255,255)"/>
<polygon points="302.3,351.6 310.3,351.6 310.3,359.6 302.3,359.6" fill="rgb(255,255,255)"/>
<polygon points="310.3,351.6 318.3,351.6 318.3,359.6 310.3,359.6" fill="rgb(255,255,255)"/>
<polygon points="122.3,359.6 130.3,359.6 130.3,367.6 122.3,367.6" fill="rgb(0,205,0)"/><text xml:space="preserve" x="126.3" y="366.433" font-family="Calibri" font-size="7.5" fill="rgb(255,255,255)" text-anchor="middle">1</text>
<polygon points="130.3,359.6 138.3,359.6 138.3,367.6 130.3,367.6" fill="rgb(0,205,0)"/><text xml:space="preserve" x="134.3" y="366.433" font-family="Calibri" font-size="7.5" fill="rgb(255,255,255)" text-anchor="middle">1</text>
<polygon points="138.3,359.6 146.3,359.6 146.3,367.6 138.3,367.6" fill="rgb(0,205,0)"/><text xml:space="preserve" x="142.3" y="366.433" font-family="Calibri" font-size="7.5" fill="rgb(255,255,255)" text-anchor="middle">1</text>
<polygon points="146.3,359.6 154.3,359.6 154.3,367.6 146.3,367.6" fill="rgb(0,205,0)"/><text xml:space="preserve" x="150.3" y="366.433" font-family="Calibri" font-size="7.5" fill="rgb(255,255,255)" text-anchor="middle">1</text>
<polygon points="154.3,359.6 162.3,359.6 162.3,367.6 154.3,367.6" fill="rgb(127,230,0)"/><text xml:space="preserve" x="158.3" y="366.433" font-family="Calibri" font-size="7.5" fill="rgb(0,0,0)" text-anchor="middle">2</text>
<polygon points="162.3,359.6 170.3,359.6 170.3,367.6 162.3,367.6" fill="rgb(127,230,0)"/><text xml:space="preserve" x="166.3" y="366.433" font-family="Calibri" font-size="7.5" fill="rgb(0,0,0)" text-anchor="middle">2</text>
<polygon points="170.3,359.6 178.3,359.6 178.3,367.6 170.3,367.6" fill="rgb(127,230,0)"/><text xml:space="preserve" x="174.3" y="366.433" font-family="Calibri" font-size="7.5" fill="rgb(0,0,0)" text-anchor="middle">2</text>
<polygon points="188.3,359.6 196.3,359.6 196.3,367.6 188.3,367.6" fill="rgb(0,30,135)"/>
<polygon points="196.3,359.6 204.3,359.6 204.3,367.6 196.3,367.6" fill="rgb(2,35,135)"/>
<polygon points="204.3,359.6 212.3,359.6 212.3,367.6 204.3,367.6" fill="rgb(2,37,135)"/>
<polygon points="212.3,359.6 220.3,359.6 220.3,367.6 212.3,367.6" fill="rgb(7,55,136)"/>
<polygon points="220.3,359.6 228.3,359.6 228.3,367.6 220.3,367.6" fill="rgb(10,69,137)"/>
<polygon points="228.3,359.6 236.3,359.6 236.3,367.6 228.3,367.6" fill="rgb(16,91,138)"/>
<polygon points="236.3,359.6 244.3,359.6 244.3,367.6 236.3,367.6" fill="rgb(9,64,137)"/>
<polygon points="254.3,359.6 262.3,359.6 262.3,367.6 254.3,367.6" fill="rgb(255,255,255)"/>
<polygon points="262.3,359.6 270.3,359.6 270.3,367.6 262.3,367.6" fill="rgb(255,255,255)"/>
<polygon points="270.3,359.6 278.3,359.6 278.3,367.6 270.3,367.6" fill="rgb(255,255,255)"/>
<polygon points="278.3,359.6 286.3,359.6 286.3,367.6 278.3,367.6" fill="rgb(205,0,205)"/>
<polygon points="286.3,359.6 294.3,359.6 294.3,367.6 286.3,367.6" fill="rgb(255,255,255)"/>
<polygon points="294.3,359.6 302.3,359.6 302.3,367.6 294.3,367.6" fill="rgb(255,255,255)"/>
<polygon points="302.3,359.6 310.3,359.6 310.3,367.6 302.3,367.6" fill="rgb(255,255,255)"/>
<polygon points="310.3,359.6 318.3,359.6 318.3,367.6 310.3,367.6" fill="rgb(255,255,255)"/>
<polygon points="122.3,367.6 130.3,367.6 130.3,375.6 122.3,375.6" fill="rgb(0,205,0)"/><text xml:space="preserve" x="126.3" y="374.433" font-family="Calibri" font-size="7.5" fill="rgb(255,255,255)" text-anchor="middle">1</text>
<polygon points="130.3,367.6 138.3,367.6 138.3,375.6 130.3,375.6" fill="rgb(0,205,0)"/><text xml:space="preserve" x="134.3" y="374.433" font-family="Calibri" font-size="7.5" fill="rgb(255,255,255)" text-anchor="middle">1</text>
<polygon points="138.3,367.6 146.3,367.6 146.3,375.6 138.3,375.6" fill="rgb(0,205,0)"/><text xml:space="preserve" x="142.3" y="374.433" font-family="Calibri" font-size="7.5" fill="rgb(255,255,255)" text-anchor="middle">1</text>
<polygon points="146.3,367.6 154.3,367.6 154.3,375.6 146.3,375.6" fill="rgb(0,205,0)"/><text xml:space="preserve" x="150.3" y="374.433" font-family="Calibri" font-size="7.5" fill="rgb(255,255,255)" text-anchor="middle">1</text>
<polygon points="154.3,367.6 162.3,367.6 162.3,375.6 154.3,375.6" fill="rgb(127,230,0)"/><text xml:space="preserve" x="158.3" y="374.433" font-family="Calibri" font-size="7.5" fill="rgb(0,0,0)" text-anchor="middle">2</text>
<polygon points="162.3,367.6 170.3,367.6 170.3,375.6 162.3,375.6" fill="rgb(127,230,0)"/><text xml:space="preserve" x="166.3" y="374.433" font-family="Calibri" font-size="7.5" fill="rgb(0,0,0)" text-anchor="middle">2</text>
<polygon points="170.3,367.6 178.3,367.6 178.3,375.6 170.3,375.6" fill="rgb(127,230,0)"/><text xml:space="preserve" x="174.3" y="374.433" font-family="Calibri" font-size="7.5" fill="rgb(0,0,0)" text-anchor="middle">2</text>
<polygon points="188.3,367.6 196.3,367.6 196.3,375.6 188.3,375.6" fill="rgb(0,30,135)"/>
<polygon points="196.3,367.6 204.3,367.6 204.3,375.6 196.3,375.6" fill="rgb(1,33,135)"/>
<polygon points="204.3,367.6 212.3,367.6 212.3,375.6 204.3,375.6" fill="rgb(4,46,136)"/>
<polygon points="212.3,367.6 220.3,367.6 220.3,375.6 212.3,375.6" fill="rgb(4,44,136)"/>
<polygon points="220.3,367.6 228.3,367.6 228.3,375.6 220.3,375.6" fill="rgb(10,66,137)"/>
<polygon points="228.3,367.6 236.3,367.6 236.3,375.6 228.3,375.6" fill="rgb(12,74,137)"/>
<polygon points="236.3,367.6 244.3,367.6 244.3,375.6 236.3,375.6" fill="rgb(14,84,138)"/>
<polygon points="254.3,367.6 262.3,367.6 262.3,375.6 254.3,375.6" fill="rgb(255,255,255)"/>
<polygon points="262.3,367.6 270.3,367.6 270.3,375.6 262.3,375.6" fill="rgb(255,255,255)"/>
<polygon points="270.3,367.6 278.3,367.6 278.3,375.6 270.3,375.6" fill="rgb(255,255,255)"/>
<polygon points="278.3,367.6 286.3,367.6 286.3,375.6 278.3,375.6" fill="rgb(255,255,255)"/>
<polygon points="286.3,367.6 294.3,367.6 294.3,375.6 286.3,375.6" fill="rgb(255,255,255)"/>
<polygon points="294.3,367.6 302.3,367.6 302.3,375.6 294.3,375.6" fill="rgb(255,255,255)"/>
<polygon points="302.3,367.6 310.3,367.6 310.3,375.6 302.3,375.6" fill="rgb(255,255,255)"/>
<polygon points="310.3,367.6 318.3,367.6 318.3,375.6 310.3,375.6" fill="rgb(255,255,255)"/>
<polygon points="122.3,335.6 178.3,335.6 178.3,375.6 122.3,375.6" fill="none" stroke="black" stroke-width="1"/>
<polygon points="188.3,335.6 244.3,335.6 244.3,375.6 188.3,375.6" fill="none" stroke="black" stroke-width="1"/>
<polygon points="254.3,335.6 318.3,335.6 318.3,375.6 254.3,375.6" fill="none" stroke="black" stroke-width="1"/>
<text xml:space="preserve" x="169.15" y="408.6" font-family="Calibri" font-size="8" text-anchor="middle">ClusterAssignment</text>
<polygon points="119.15,415.6 139.15,415.6 139.15,435.6 119.15,435.6" fill="rgb(0,205,0)"/><polygon points="119.15,415.6 139.15,415.6 139.15,435.6 119.15,435.6" fill="none" stroke="black" stroke-width="1"/><text xml:space="preserve" x="129.15" y="428.433" font-family="Calibri" font-size="7.5" fill="rgb(255,255,255)" text-anchor="middle">1.0</text>
<polygon points="139.15,415.6 159.15,415.6 159.15,435.6 139.15,435.6" fill="rgb(127,230,0)"/><polygon points="139.15,415.6 159.15,415.6 159.15,435.6 139.15,435.6" fill="none" stroke="black" stroke-width="1"/><text xml:space="preserve" x="149.15" y="428.433" font-family="Calibri" font-size="7.5" fill="rgb(0,0,0)" text-anchor="middle">2.0</text>
<polygon points="159.15,415.6 179.15,415.6 179.15,435.6 159.15,435.6" fill="rgb(255,255,0)"/><polygon points="159.15,415.6 179.15,415.6 179.15,435.6 159.15,435.6" fill="none" stroke="black" stroke-width="1"/><text xml:space="preserve" x="169.15" y="428.433" font-family="Calibri" font-size="7.5" fill="rgb(0,0,0)" text-anchor="middle">3.0</text>
<polygon points="179.15,415.6 199.15,415.6 199.15,435.6 179.15,435.6" fill="rgb(230,127,0)"/><polygon points="179.15,415.6 199.15,415.6 199.15,435.6 179.15,435.6" fill="none" stroke="black" stroke-width="1"/><text xml:space="preserve" x="189.15" y="428.433" font-family="Calibri" font-size="7.5" fill="rgb(0,0,0)" text-anchor="middle">4.0</text>
<polygon points="199.15,415.6 219.15,415.6 219.15,435.6 199.15,435.6" fill="rgb(205,0,0)"/><polygon points="199.15,415.6 219.15,415.6 219.15,435.6 199.15,435.6" fill="none" stroke="black" stroke-width="1"/><text xml:space="preserve" x="209.15" y="428.433" font-family="Calibri" font-size="7.5" fill="rgb(255,255,255)" text-anchor="middle">5.0</text>
<text xml:space="preserve" x="169.15" y="468.6" font-family="Calibri" font-size="8" text-anchor="middle">Expression</text>
<polygon points="119.15,475.6 139.15,475.6 139.15,495.6 119.15,495.6" fill="rgb(0,27,135)"/><polygon points="119.15,475.6 139.15,475.6 139.15,495.6 119.15,495.6" fill="none" stroke="black" stroke-width="1"/><text xml:space="preserve" x="129.15" y="488.433" font-family="Calibri" font-size="7.5" fill="rgb(255,255,255)" text-anchor="middle">0.0</text>
<polygon points="139.15,475.6 159.15,475.6 159.15,495.6 139.15,495.6" fill="rgb(24,123,140)"/><polygon points="139.15,475.6 159.15,475.6 159.15,495.6 139.15,495.6" fill="none" stroke="black" stroke-width="1"/><text xml:space="preserve" x="149.15" y="488.433" font-family="Calibri" font-size="7.5" fill="rgb(255,255,255)" text-anchor="middle">0.8</text>
<polygon points="159.15,475.6 179.15,475.6 179.15,495.6 159.15,495.6" fill="rgb(49,219,146)"/><polygon points="159.15,475.6 179.15,475.6 179.15,495.6 159.15,495.6" fill="none" stroke="black" stroke-width="1"/><text xml:space="preserve" x="169.15" y="488.433" font-family="Calibri" font-size="7.5" fill="rgb(0,0,0)" text-anchor="middle">1.5</text>
<polygon points="179.15,475.6 199.15,475.6 199.15,495.6 179.15,495.6" fill="rgb(150,206,73)"/><polygon points="179.15,475.6 199.15,475.6 199.15,495.6 179.15,495.6" fill="none" stroke="black" stroke-width="1"/><text xml:space="preserve" x="189.15" y="488.433" font-family="Calibri" font-size="7.5" fill="rgb(0,0,0)" text-anchor="middle">2.2</text>
<polygon points="199.15,475.6 219.15,475.6 219.15,495.6 199.15,495.6" fill="rgb(252,194,1)"/><polygon points="199.15,475.6 219.15,475.6 219.15,495.6 199.15,495.6" fill="none" stroke="black" stroke-width="1"/><text xml:space="preserve" x="209.15" y="488.433" font-family="Calibri" font-size="7.5" fill="rgb(0,0,0)" text-anchor="middle">3.0</text>
<text xml:space="preserve" x="169.15" y="528.6" font-family="Calibri" font-size="8" text-anchor="middle">PANTHERclass</text>
<polygon points="119.15,535.6 139.15,535.6 139.15,555.6 119.15,555.6" fill="rgb(255,255,255)"/><polygon points="119.15,535.6 139.15,535.6 139.15,555.6 119.15,555.6" fill="none" stroke="black" stroke-width="1"/><text xml:space="preserve" x="129.15" y="548.433" font-family="Calibri" font-size="7.5" fill="rgb(0,0,0)" text-anchor="middle">0.0</text>
<polygon points="139.15,535.6 159.15,535.6 159.15,555.6 139.15,555.6" fill="rgb(242,191,242)"/><polygon points="139.15,535.6 159.15,535.6 159.15,555.6 139.15,555.6" fill="none" stroke="black" stroke-width="1"/><text xml:space="preserve" x="149.15" y="548.433" font-family="Calibri" font-size="7.5" fill="rgb(0,0,0)" text-anchor="middle">0.2</text>
<polygon points="159.15,535.6 179.15,535.6 179.15,555.6 159.15,555.6" fill="rgb(230,127,230)"/><polygon points="159.15,535.6 179.15,535.6 179.15,555.6 159.15,555.6" fill="none" stroke="black" stroke-width="1"/><text xml:space="preserve" x="169.15" y="548.433" font-family="Calibri" font-size="7.5" fill="rgb(0,0,0)" text-anchor="middle">0.5</text>
<polygon points="179.15,535.6 199.15,535.6 199.15,555.6 179.15,555.6" fill="rgb(217,63,217)"/><polygon points="179.15,535.6 199.15,535.6 199.15,555.6 179.15,555.6" fill="none" stroke="black" stroke-width="1"/><text xml:space="preserve" x="189.15" y="548.433" font-family="Calibri" font-size="7.5" fill="rgb(255,255,255)" text-anchor="middle">0.8</text>
<polygon points="199.15,535.6 219.15,535.6 219.15,555.6 199.15,555.6" fill="rgb(205,0,205)"/><polygon points="199.15,535.6 219.15,535.6 219.15,555.6 199.15,555.6" fill="none" stroke="black" stroke-width="1"/><text xml:space="preserve" x="209.15" y="548.433" font-family="Calibri" font-size="7.5" fill="rgb(255,255,255)" text-anchor="middle">1.0</text>
</svg>
