<?xml version="1.0" standalone="no"?><!DOCTYPE svg PUBLIC "-//W3C//DTD SVG 1.1//EN" "http://www.w3.org/Graphics/SVG/1.1/DTD/svg11.dtd">
<svg width="302.9" height="559.6" version="1.1" xmlns="http://www.w3.org/2000/svg">
<text xml:space="preserve" x="82.9" y="342.6" font-family="Calibri" font-size="8" text-anchor="end">CAPZB</text>
<text xml:space="preserve" x="82.9" y="350.6" font-family="Calibri" font-size="8" text-anchor="end">HIKESHI</text>
<text xml:space="preserve" x="82.9" y="358.6" font-family="Calibri" font-size="8" text-anchor="end">GNB2</text>
<text xml:space="preserve" x="93.9" y="331.6" font-family="Calibri" font-size="8" transform="rotate(270 93.9 331.6)">c3</text>
<text xml:space="preserve" x="101.9" y="331.6" font-family="Calibri" font-size="8" transform="rotate(270 101.9 331.6)">c1</text>
<text xml:space="preserve" x="109.9" y="331.6" font-family="Calibri" font-size="8" transform="rotate(270 109.9 331.6)">c4</text>
<text xml:space="preserve" x="117.9" y="331.6" font-family="Calibri" font-size="8" transform="rotate(270 117.9 331.6)">c5</text>
<text xml:space="preserve" x="125.9" y="331.6" font-family="Calibri" font-size="8" transform="rotate(270 125.9 331.6)">c2</text>
<text xml:space="preserve" x="133.9" y="331.6" font-family="Calibri" font-size="8" transform="rotate(270 133.9 331.6)">c6</text>
<text xml:space="preserve" x="141.9" y="331.6" font-family="Calibri" font-size="8" transform="rotate(270 141.9 331.6)">c7</text>
<text xml:space="preserve" x="159.9" y="331.6" font-family="Calibri" font-size="8" transform="rotate(270 159.9 331.6)">c3_mean</text>
<text xml:space="preserve" x="167.9" y="331.6" font-family="Calibri" font-size="8" transform="rotate(270 167.9 331.6)">c1_mean</text>
<text xml:space="preserve" x="175.9" y="331.6" font-family="Calibri" font-size="8" transform="rotate(270 175.9 331.6)">c4_mean</text>
<text xml:space="preserve" x="183.9" y="331.6" font-family="Calibri" font-size="8" transform="rotate(270 183.9 331.6)">c5_mean</text>
<text xml:space="preserve" x="191.9" y="331.6" font-family="Calibri" font-size="8" transform="rotate(270 191.9 331.6)">c2_mean</text>
<text xml:space="preserve" x="199.9" y="331.6" font-family="Calibri" font-size="8" transform="rotate(270 199.9 331.6)">c6_mean</text>
<text xml:space="preserve" x="207.9" y="331.6" font-family="Calibri" font-size="8" transform="rotate(270 207.9 331.6)">c7_mean</text>
<text xml:space="preserve" x="225.9" y="331.6" font-family="Calibri" font-size="8" transform="rotate(270 225.9 331.6)">transcription_factor</text>
<text xml:space="preserve" x="233.9" y="331.6" font-family="Calibri" font-size="8" transform="rotate(270 233.9 331.6)">transmembrane_signal_receptor</text>
<text xml:space="preserve" x="241.9" y="331.6" font-family="Calibri" font-size="8" transform="rotate(270 241.9 331.6)">growth_factor</text>
<text xml:space="preserve" x="249.9" y="331.6" font-family="Calibri" font-size="8" transform="rotate(270 249.9 331.6)">peptide_hormone</text>
<text xml:space="preserve" x="257.9" y="331.6" font-family="Calibri" font-size="8" transform="rotate(270 257.9 331.6)">cytoskeletal_protein</text>
<text xml:space="preserve" x="265.9" y="331.6" font-family="Calibri" font-size="8" transform="rotate(270 265.9 331.6)">ion_channel</text>
<text xml:space="preserve" x="273.9" y="331.6" font-family="Calibri" font-size="8" transform="rotate(270 273.9 331.6)">integrin</text>
<text xml:space="preserve" x="281.9" y="331.6" font-family="Calibri" font-size="8" transform="rotate(270 281.9 331.6)">extracellular_matrix_protein</text>
<polygon points="86.9,335.6 94.9,335.6 94.9,343.6 86.9,343.6" fill="rgb(0,205,0)"/><text xml:space="preserve" x="90.9" y="342.433" font-family="Calibri" font-size="7.5" fill="rgb(255,255,255)" text-anchor="middle">1</text>
<polygon points="94.9,335.6 102.9,335.6 102.9,343.6 94.9,343.6" fill="rgb(230,127,0)"/><text xml:space="preserve" x="98.9" y="342.433" font-family="Calibri" font-size="7.5" fill="rgb(0,0,0)" text-anchor="middle">4</text>
<polygon points="102.9,335.6 110.9,335.6 110.9,343.6 102.9,343.6" fill="rgb(230,127,0)"/><text xml:space="preserve" x="106.9" y="342.433" font-family="Calibri" font-size="7.5" fill="rgb(0,0,0)" text-anchor="middle">4</text>
<polygon points="110.9,335.6 118.9,335.6 118.9,343.6 110.9,343.6" fill="rgb(230,127,0)"/><text xml:space="preserve" x="114.9" y="342.433" font-family="Calibri" font-size="7.5" fill="rgb(0,0,0)" text-anchor="middle">4</text>
<polygon points="118.9,335.6 126.9,335.6 126.9,343.6 118.9,343.6" fill="rgb(230,127,0)"/><text xml:space="preserve" x="122.9" y="342.433" font-family="Calibri" font-size="7.5" fill="rgb(0,0,0)" text-anchor="middle">4</text>
<polygon points="126.9,335.6 134.9,335.6 134.9,343.6 126.9,343.6" fill="rgb(230,127,0)"/><text xml:space="preserve" x="130.9" y="342.433" font-family="Calibri" font-size="7.5" fill="rgb(0,0,0)" text-anchor="middle">4</text>
<polygon points="134.9,335.6 142.9,335.6 142.9,343.6 134.9,343.6" fill="rgb(127,230,0)"/><text xml:space="preserve" x="138.9" y="342.433" font-family="Calibri" font-size="7.5" fill="rgb(0,0,0)" text-anchor="middle">2</text>
<polygon points="152.9,335.6 160.9,335.6 160.9,343.6 152.9,343.6" fill="rgb(5,50,136)"/>
<polygon points="160.9,335.6 168.9,335.6 168.9,343.6 160.9,343.6" fill="rgb(31,148,141)"/>
<polygon points="168.9,335.6 176.9,335.6 176.9,343.6 168.9,343.6" fill="rgb(27,135,141)"/>
<polygon points="176.9,335.6 184.9,335.6 184.9,343.6 176.9,343.6" fill="rgb(29,140,141)"/>
<polygon points="184.9,335.6 192.9,335.6 192.9,343.6 184.9,343.6" fill="rgb(29,143,141)"/>
<polygon points="192.9,335.6 200.9,335.6 200.9,343.6 192.9,343.6" fill="rgb(24,124,140)"/>
<polygon points="200.9,335.6 208.9,335.6 208.9,343.6 200.9,343.6" fill="rgb(6,51,136)"/>
<polygon points="218.9,335.6 226.9,335.6 226.9,343.6 218.9,343.6" fill="rgb(255,255,255)"/>
<polygon points="226.9,335.6 234.9,335.6 234.9,343.6 226.9,343.6" fill="rgb(255,255,255)"/>
<polygon points="234.9,335.6 242.9,335.6 242.9,343.6 234.9,343.6" fill="rgb(255,255,255)"/>
<polygon points="242.9,335.6 250.9,335.6 250.9,343.6 242.9,343.6" fill="rgb(255,255,255)"/>
<polygon points="250.9,335.6 258.9,335.6 258.9,343.6 250.9,343.6" fill="rgb(255,255,255)"/>
<polygon points="258.9,335.6 266.9,335.6 266.9,343.6 258.9,343.6" fill="rgb(255,255,255)"/>
<polygon points="266.9,335.6 274.9,335.6 274.9,343.6 266.9,343.6" fill="rgb(255,255,255)"/>
<polygon points="274.9,335.6 282.9,335.6 282.9,343.6 274.9,343.6" fill="rgb(255,255,255)"/>
<polygon points="86.9,343.6 94.9,343.6 94.9,351.6 86.9,351.6" fill="rgb(0,205,0)"/><text xml:space="preserve" x="90.9" y="350.433" font-family="Calibri" font-size="7.5" fill="rgb(255,255,255)" text-anchor="middle">1</text>
<polygon points="94.9,343.6 102.9,343.6 102.9,351.6 94.9,351.6" fill="rgb(230,127,0)"/><text xml:space="preserve" x="98.9" y="350.433" font-family="Calibri" font-size="7.5" fill="rgb(0,0,0)" text-anchor="middle">4</text>
<polygon points="102.9,343.6 110.9,343.6 110.9,351.6 102.9,351.6" fill="rgb(230,127,0)"/><text xml:space="preserve" x="106.9" y="350.433" font-family="Calibri" font-size="7.5" fill="rgb(0,0,0)" text-anchor="middle">4</text>
<polygon points="110.9,343.6 118.9,343.6 118.9,351.6 110.9,351.6" fill="rgb(230,127,0)"/><text xml:space="preserve" x="114.9" y="350.433" font-family="Calibri" font-size="7.5" fill="rgb(0,0,0)" text-anchor="middle">4</text>
<polygon points="118.9,343.6 126.9,343.6 126.9,351.6 118.9,351.6" fill="rgb(230,127,0)"/><text xml:space="preserve" x="122.9" y="350.433" font-family="Calibri" font-size="7.5" fill="rgb(0,0,0)" text-anchor="middle">4</text>
<polygon points="126.9,343.6 134.9,343.6 134.9,351.6 126.9,351.6" fill="rgb(230,127,0)"/><text xml:space="preserve" x="130.9" y="350.433" font-family="Calibri" font-size="7.5" fill="rgb(0,0,0)" text-anchor="middle">4</text>
<polygon points="134.9,343.6 142.9,343.6 142.9,351.6 134.9,351.6" fill="rgb(127,230,0)"/><text xml:space="preserve" x="138.9" y="350.433" font-family="Calibri" font-size="7.5" fill="rgb(0,0,0)" text-anchor="middle">2</text>
<polygon points="152.9,343.6 160.9,343.6 160.9,351.6 152.9,351.6" fill="rgb(4,46,136)"/>
<polygon points="160.9,343.6 168.9,343.6 168.9,351.6 160.9,351.6" fill="rgb(28,137,141)"/>
<polygon points="168.9,343.6 176.9,343.6 176.9,351.6 168.9,351.6" fill="rgb(26,130,140)"/>
<polygon points="176.9,343.6 184.9,343.6 184.9,351.6 176.9,351.6" fill="rgb(27,135,141)"/>
<polygon points="184.9,343.6 192.9,343.6 192.9,351.6 184.9,351.6" fill="rgb(26,131,141)"/>
<polygon points="192.9,343.6 200.9,343.6 200.9,351.6 192.9,351.6" fill="rgb(25,125,140)"/>
<polygon points="200.9,343.6 208.9,343.6 208.9,351.6 200.9,351.6" fill="rgb(6,51,136)"/>
<polygon points="218.9,343.6 226.9,343.6 226.9,351.6 218.9,351.6" fill="rgb(255,255,255)"/>
<polygon points="226.9,343.6 234.9,343.6 234.9,351.6 226.9,351.6" fill="rgb(255,255,255)"/>
<polygon points="234.9,343.6 242.9,343.6 242.9,351.6 234.9,351.6" fill="rgb(255,255,255)"/>
<polygon points="242.9,343.6 250.9,343.6 250.9,351.6 242.9,351.6" fill="rgb(255,255,255)"/>
<polygon points="250.9,343.6 258.9,343.6 258.9,351.6 250.9,351.6" fill="rgb(255,255,255)"/>
<polygon points="258.9,343.6 266.9,343.6 266.9,351.6 258.9,351.6" fill="rgb(255,255,255)"/>
<polygon points="266.9,343.6 274.9,343.6 274.9,351.6 266.9,351.6" fill="rgb(255,255,255)"/>
<polygon points="274.9,343.6 282.9,343.6 282.9,351.6 274.9,351.6" fill="rgb(255,255,255)"/>
<polygon points="86.9,351.6 94.9,351.6 94.9,359.6 86.9,359.6" fill="rgb(0,205,0)"/><text xml:space="preserve" x="90.9" y="358.433" font-family="Calibri" font-size="7.5" fill="rgb(255,255,255)" text-anchor="middle">1</text>
<polygon points="94.9,351.6 102.9,351.6 102.9,359.6 94.9,359.6" fill="rgb(230,127,0)"/><text xml:space="preserve" x="98.9" y="358.433" font-family="Calibri" font-size="7.5" fill="rgb(0,0,0)" text-anchor="middle">4</text>
<polygon points="102.9,351.6 110.9,351.6 110.9,359.6 102.9,359.6" fill="rgb(230,127,0)"/><text xml:space="preserve" x="106.9" y="358.433" font-family="Calibri" font-size="7.5" fill="rgb(0,0,0)" text-anchor="middle">4</text>
<polygon points="110.9,351.6 118.9,351.6 118.9,359.6 110.9,359.6" fill="rgb(230,127,0)"/><text xml:space="preserve" x="114.9" y="358.433" font-family="Calibri" font-size="7.5" fill="rgb(0,0,0)" text-anchor="middle">4</text>
<polygon points="118.9,351.6 126.9,351.6 126.9,359.6 118.9,359.6" fill="rgb(230,127,0)"/><text xml:space="preserve" x="122.9" y="358.433" font-family="Calibri" font-size="7.5" fill="rgb(0,0,0)" text-anchor="middle">4</text>
<polygon points="126.9,351.6 134.9,351.6 134.9,359.6 126.9,359.6" fill="rgb(230,127,0)"/><text xml:space="preserve" x="130.9" y="358.433" font-family="Calibri" font-size="7.5" fill="rgb(0,0,0)" text-anchor="middle">4</text>
<polygon points="134.9,351.6 142.9,351.6 142.9,359.6 134.9,359.6" fill="rgb(127,230,0)"/><text xml:space="preserve" x="138.9" y="358.433" font-family="Calibri" font-size="7.5" fill="rgb(0,0,0)" text-anchor="middle">2</text>
<polygon points="152.9,351.6 160.9,351.6 160.9,359.6 152.9,359.6" fill="rgb(5,50,136)"/>
<polygon points="160.9,351.6 168.9,351.6 168.9,359.6 160.9,359.6" fill="rgb(30,144,141)"/>
<polygon points="168.9,351.6 176.9,351.6 176.9,359.6 168.9,359.6" fill="rgb(27,135,141)"/>
<polygon points="176.9,351.6 184.9,351.6 184.9,359.6 176.9,359.6" fill="rgb(27,133,141)"/>
<polygon points="184.9,351.6 192.9,351.6 192.9,359.6 184.9,359.6" fill="rgb(28,139,141)"/>
<polygon points="192.9,351.6 200.9,351.6 200.9,359.6 192.9,359.6" fill="rgb(27,135,141)"/>
<polygon points="200.9,351.6 208.9,351.6 208.9,359.6 200.9,359.6" fill="rgb(6,52,136)"/>
<polygon points="218.9,351.6 226.9,351.6 226.9,359.6 218.9,359.6" fill="rgb(255,255,255)"/>
<polygon points="226.9,351.6 234.9,351.6 234.9,359.6 226.9,359.6" fill="rgb(255,255,255)"/>
<polygon points="234.9,351.6 242.9,351.6 242.9,359.6 234.9,359.6" fill="rgb(255,255,255)"/>
<polygon points="242.9,351.6 250.9,351.6 250.9,359.6 242.9,359.6" fill="rgb(255,255,255)"/>
<polygon points="250.9,351.6 258.9,351.6 258.9,359.6 250.9,359.6" fill="rgb(255,255,255)"/>
<polygon points="258.9,351.6 266.9,351.6 266.9,359.6 258.9,359.6" fill="rgb(255,255,255)"/>
<polygon points="266.9,351.6 274.9,351.6 274.9,359.6 266.9,359.6" fill="rgb(255,255,255)"/>
<polygon points="274.9,351.6 282.9,351.6 282.9,359.6 274.9,359.6" fill="rgb(255,255,255)"/>
<polygon points="86.9,335.6 142.9,335.6 142.9,359.6 86.9,359.6" fill="none" stroke="black" stroke-width="1"/>
<polygon points="152.9,335.6 208.9,335.6 208.9,359.6 152.9,359.6" fill="none" stroke="black" stroke-width="1"/>
<polygon points="218.9,335.6 282.9,335.6 282.9,359.6 218.9,359.6" fill="none" stroke="black" stroke-width="1"/>
<text xml:space="preserve" x="151.45" y="392.6" font-family="Calibri" font-size="8" text-anchor="middle">ClusterAssignment</text>
<polygon points="101.45,399.6 121.45,399.6 121.45,419.6 101.45,419.6" fill="rgb(0,205,0)"/><polygon points="101.45,399.6 121.45,399.6 121.45,419.6 101.45,419.6" fill="none" stroke="black" stroke-width="1"/><text xml:space="preserve" x="111.45" y="412.433" font-family="Calibri" font-size="7.5" fill="rgb(255,255,255)" text-anchor="middle">1.0</text>
<polygon points="121.45,399.6 141.45,399.6 141.45,419.6 121.45,419.6" fill="rgb(127,230,0)"/><polygon points="121.45,399.6 141.45,399.6 141.45,419.6 121.45,419.6" fill="none" stroke="black" stroke-width="1"/><text xml:space="preserve" x="131.45" y="412.433" font-family="Calibri" font-size="7.5" fill="rgb(0,0,0)" text-anchor="middle">2.0</text>
<polygon points="141.45,399.6 161.45,399.6 161.45,419.6 141.45,419.6" fill="rgb(255,255,0)"/><polygon points="141.45,399.6 161.45,399.6 161.45,419.6 141.45,419.6" fill="none" stroke="black" stroke-width="1"/><text xml:space="preserve" x="151.45" y="412.433" font-family="Calibri" font-size="7.5" fill="rgb(0,0,0)" text-anchor="middle">3.0</text>
<polygon points="161.45,399.6 181.45,399.6 181.45,419.6 161.45,419.6" fill="rgb(230,127,0)"/><polygon points="161.45,399.6 181.45,399.6 181.45,419.6 161.45,419.6" fill="none" stroke="black" stroke-width="1"/><text xml:space="preserve" x="171.45" y="412.433" font-family="Calibri" font-size="7.5" fill="rgb(0,0,0)" text-anchor="middle">4.0</text>
<polygon points="181.45,399.6 201.45,399.6 201.45,419.6 181.45,419.6" fill="rgb(205,0,0)"/><polygon points="181.45,399.6 201.45,399.6 201.45,419.6 181.45,419.6" fill="none" stroke="black" stroke-width="1"/><text xml:space="preserve" x="191.45" y="412.433" font-family="Calibri" font-size="7.5" fill="rgb(255,255,255)" text-anchor="middle">5.0</text>
<text xml:space="preserve" x="151.45" y="452.6" font-family="Calibri" font-size="8" text-anchor="middle">Expression</text>
<polygon points="101.45,459.6 121.45,459.6 121.45,479.6 101.45,479.6" fill="rgb(0,27,135)"/><polygon points="101.45,459.6 121.45,459.6 121.45,479.6 101.45,479.6" fill="none" stroke="black" stroke-width="1"/><text xml:space="preserve" x="111.45" y="472.433" font-family="Calibri" font-size="7.5" fill="rgb(255,255,255)" text-anchor="middle">0.0</text>
<polygon points="121.45,459.6 141.45,459.6 141.45,479.6 121.45,479.6" fill="rgb(24,123,140)"/><polygon points="121.45,459.6 141.45,459.6 141.45,479.6 121.45,479.6" fill="none" stroke="black" stroke-width="1"/><text xml:space="preserve" x="131.45" y="472.433" font-family="Calibri" font-size="7.5" fill="rgb(255,255,255)" text-anchor="middle">0.8</text>
<polygon points="141.45,459.6 161.45,459.6 161.45,479.6 141.45,479.6" fill="rgb(49,219,146)"/><polygon points="141.45,459.6 161.45,459.6 161.45,479.6 141.45,479.6" fill="none" stroke="black" stroke-width="1"/><text xml:space="preserve" x="151.45" y="472.433" font-family="Calibri" font-size="7.5" fill="rgb(0,0,0)" text-anchor="middle">1.5</text>
<polygon points="161.45,459.6 181.45,459.6 181.45,479.6 161.45,479.6" fill="rgb(150,206,73)"/><polygon points="161.45,459.6 181.45,459.6 181.45,479.6 161.45,479.6" fill="none" stroke="black" stroke-width="1"/><text xml:space="preserve" x="171.45" y="472.433" font-family="Calibri" font-size="7.5" fill="rgb(0,0,0)" text-anchor="middle">2.2</text>
<polygon points="181.45,459.6 201.45,459.6 201.45,479.6 181.45,479.6" fill="rgb(252,194,1)"/><polygon points="181.45,459.6 201.45,459.6 201.45,479.6 181.45,479.6" fill="none" stroke="black" stroke-width="1"/><text xml:space="preserve" x="191.45" y="472.433" font-family="Calibri" font-size="7.5" fill="rgb(0,0,0)" text-anchor="middle">3.0</text>
<text xml:space="preserve" x="151.45" y="512.6" font-family="Calibri" font-size="8" text-anchor="middle">PANTHERclass</text>
<polygon points="101.45,519.6 121.45,519.6 121.45,539.6 101.45,539.6" fill="rgb(255,255,255)"/><polygon points="101.45,519.6 121.45,519.6 121.45,539.6 101.45,539.6" fill="none" stroke="black" stroke-width="1"/><text xml:space="preserve" x="111.45" y="532.433" font-family="Calibri" font-size="7.5" fill="rgb(0,0,0)" text-anchor="middle">0.0</text>
<polygon points="121.45,519.6 141.45,519.6 141.45,539.6 121.45,539.6" fill="rgb(242,191,242)"/><polygon points="121.45,519.6 141.45,519.6 141.45,539.6 121.45,539.6" fill="none" stroke="black" stroke-width="1"/><text xml:space="preserve" x="131.45" y="532.433" font-family="Calibri" font-size="7.5" fill="rgb(0,0,0)" text-anchor="middle">0.2</text>
<polygon points="141.45,519.6 161.45,519.6 161.45,539.6 141.45,539.6" fill="rgb(230,127,230)"/><polygon points="141.45,519.6 161.45,519.6 161.45,539.6 141.45,539.6" fill="none" stroke="black" stroke-width="1"/><text xml:space="preserve" x="151.45" y="532.433" font-family="Calibri" font-size="7.5" fill="rgb(0,0,0)" text-anchor="middle">0.5</text>
<polygon points="161.45,519.6 181.45,519.6 181.45,539.6 161.45,539.6" fill="rgb(217,63,217)"/><polygon points="161.45,519.6 181.45,519.6 181.45,539.6 161.45,539.6" fill="none" stroke="black" stroke-width="1"/><text xml:space="preserve" x="171.45" y="532.433" font-family="Calibri" font-size="7.5" fill="rgb(255,255,255)" text-anchor="middle">0.8</text>
<polygon points="181.45,519.6 201.45,519.6 201.45,539.6 181.45,539.6" fill="rgb(205,0,205)"/><polygon points="181.45,519.6 201.45,519.6 201.45,539.6 181.45,539.6" fill="none" stroke="black" stroke-width="1"/><text xml:space="preserve" x="191.45" y="532.433" font-family="Calibri" font-size="7.5" fill="rgb(255,255,255)" text-anchor="middle">1.0</text>
</svg>
