<?xml version="1.0" standalone="no"?><!DOCTYPE svg PUBLIC "-//W3C//DTD SVG 1.1//EN" "http://www.w3.org/Graphics/SVG/1.1/DTD/svg11.dtd">
<svg width="312" height="567.6" version="1.1" xmlns="http://www.w3.org/2000/svg">
<text xml:space="preserve" x="124" y="342.6" font-family="Calibri" font-size="8" text-anchor="end">AC093388.1</text>
<text xml:space="preserve" x="124" y="350.6" font-family="Calibri" font-size="8" text-anchor="end">DPEP1</text>
<text xml:space="preserve" x="124" y="358.6" font-family="Calibri" font-size="8" text-anchor="end">ENOX1-AS2</text>
<text xml:space="preserve" x="124" y="366.6" font-family="Calibri" font-size="8" text-anchor="end">AL590648.3</text>
<text xml:space="preserve" x="135" y="331.6" font-family="Calibri" font-size="8" transform="rotate(270 135 331.6)">c2</text>
<text xml:space="preserve" x="143" y="331.6" font-family="Calibri" font-size="8" transform="rotate(270 143 331.6)">c4</text>
<text xml:space="preserve" x="151" y="331.6" font-family="Calibri" font-size="8" transform="rotate(270 151 331.6)">c3</text>
<text xml:space="preserve" x="159" y="331.6" font-family="Calibri" font-size="8" transform="rotate(270 159 331.6)">c1</text>
<text xml:space="preserve" x="167" y="331.6" font-family="Calibri" font-size="8" transform="rotate(270 167 331.6)">c5</text>
<text xml:space="preserve" x="185" y="331.6" font-family="Calibri" font-size="8" transform="rotate(270 185 331.6)">c2_mean</text>
<text xml:space="preserve" x="193" y="331.6" font-family="Calibri" font-size="8" transform="rotate(270 193 331.6)">c4_mean</text>
<text xml:space="preserve" x="201" y="331.6" font-family="Calibri" font-size="8" transform="rotate(270 201 331.6)">c3_mean</text>
<text xml:space="preserve" x="209" y="331.6" font-family="Calibri" font-size="8" transform="rotate(270 209 331.6)">c1_mean</text>
<text xml:space="preserve" x="217" y="331.6" font-family="Calibri" font-size="8" transform="rotate(270 217 331.6)">c5_mean</text>
<text xml:space="preserve" x="235" y="331.6" font-family="Calibri" font-size="8" transform="rotate(270 235 331.6)">transcription_factor</text>
<text xml:space="preserve" x="243" y="331.6" font-family="Calibri" font-size="8" transform="rotate(270 243 331.6)">transmembrane_signal_receptor</text>
<text xml:space="preserve" x="251" y="331.6" font-family="Calibri" font-size="8" transform="rotate(270 251 331.6)">growth_factor</text>
<text xml:space="preserve" x="259" y="331.6" font-family="Calibri" font-size="8" transform="rotate(270 259 331.6)">peptide_hormone</text>
<text xml:space="preserve" x="267" y="331.6" font-family="Calibri" font-size="8" transform="rotate(270 267 331.6)">cytoskeletal_protein</text>
<text xml:space="preserve" x="275" y="331.6" font-family="Calibri" font-size="8" transform="rotate(270 275 331.6)">ion_channel</text>
<text xml:space="preserve" x="283" y="331.6" font-family="Calibri" font-size="8" transform="rotate(270 283 331.6)">integrin</text>
<text xml:space="preserve" x="291" y="331.6" font-family="Calibri" font-size="8" transform="rotate(270 291 331.6)">extracellular_matrix_protein</text>
<polygon points="128,335.6 136,335.6 136,343.6 128,343.6" fill="rgb(255,255,0)"/><text xml:space="preserve" x="132" y="342.433" font-family="Calibri" font-size="7.5" fill="rgb(0,0,0)" text-anchor="middle">3</text>
<polygon points="136,335.6 144,335.6 144,343.6 136,343.6" fill="rgb(0,205,0)"/><text xml:space="preserve" x="140" y="342.433" font-family="Calibri" font-size="7.5" fill="rgb(255,255,255)" text-anchor="middle">1</text>
<polygon points="144,335.6 152,335.6 152,343.6 144,343.6" fill="rgb(0,205,0)"/><text xml:space="preserve" x="148" y="342.433" font-family="Calibri" font-size="7.5" fill="rgb(255,255,255)" text-anchor="middle">1</text>
<polygon points="152,335.6 160,335.6 160,343.6 152,343.6" fill="rgb(127,230,0)"/><text xml:space="preserve" x="156" y="342.433" font-family="Calibri" font-size="7.5" fill="rgb(0,0,0)" text-anchor="middle">2</text>
<polygon points="160,335.6 168,335.6 168,343.6 160,343.6" fill="rgb(230,127,0)"/><text xml:space="preserve" x="164" y="342.433" font-family="Calibri" font-size="7.5" fill="rgb(0,0,0)" text-anchor="middle">4</text>
<polygon points="178,335.6 186,335.6 186,343.6 178,343.6" fill="rgb(78,215,124)"/>
<polygon points="186,335.6 194,335.6 194,343.6 186,343.6" fill="rgb(0,27,135)"/>
<polygon points="194,335.6 202,335.6 202,343.6 194,343.6" fill="rgb(0,27,135)"/>
<polygon points="202,335.6 210,335.6 210,343.6 202,343.6" fill="rgb(10,66,137)"/>
<polygon points="210,335.6 218,335.6 218,343.6 210,343.6" fill="rgb(49,219,146)"/>
<polygon points="228,335.6 236,335.6 236,343.6 228,343.6" fill="rgb(255,255,255)"/>
<polygon points="236,335.6 244,335.6 244,343.6 236,343.6" fill="rgb(255,255,255)"/>
<polygon points="244,335.6 252,335.6 252,343.6 244,343.6" fill="rgb(255,255,255)"/>
<polygon points="252,335.6 260,335.6 260,343.6 252,343.6" fill="rgb(255,255,255)"/>
<polygon points="260,335.6 268,335.6 268,343.6 260,343.6" fill="rgb(255,255,255)"/>
<polygon points="268,335.6 276,335.6 276,343.6 268,343.6" fill="rgb(255,255,255)"/>
<polygon points="276,335.6 284,335.6 284,343.6 276,343.6" fill="rgb(255,255,255)"/>
<polygon points="284,335.6 292,335.6 292,343.6 284,343.6" fill="rgb(255,255,255)"/>
<polygon points="128,343.6 136,343.6 136,351.6 128,351.6" fill="rgb(255,255,0)"/><text xml:space="preserve" x="132" y="350.433" font-family="Calibri" font-size="7.5" fill="rgb(0,0,0)" text-anchor="middle">3</text>
<polygon points="136,343.6 144,343.6 144,351.6 136,351.6" fill="rgb(0,205,0)"/><text xml:space="preserve" x="140" y="350.433" font-family="Calibri" font-size="7.5" fill="rgb(255,255,255)" text-anchor="middle">1</text>
<polygon points="144,343.6 152,343.6 152,351.6 144,351.6" fill="rgb(0,205,0)"/><text xml:space="preserve" x="148" y="350.433" font-family="Calibri" font-size="7.5" fill="rgb(255,255,255)" text-anchor="middle">1</text>
<polygon points="152,343.6 160,343.6 160,351.6 152,351.6" fill="rgb(127,230,0)"/><text xml:space="preserve" x="156" y="350.433" font-family="Calibri" font-size="7.5" fill="rgb(0,0,0)" text-anchor="middle">2</text>
<polygon points="160,343.6 168,343.6 168,351.6 160,351.6" fill="rgb(230,127,0)"/><text xml:space="preserve" x="164" y="350.433" font-family="Calibri" font-size="7.5" fill="rgb(0,0,0)" text-anchor="middle">4</text>
<polygon points="178,343.6 186,343.6 186,351.6 178,351.6" fill="rgb(154,206,70)"/>
<polygon points="186,343.6 194,343.6 194,351.6 186,351.6" fill="rgb(9,65,137)"/>
<polygon points="194,343.6 202,343.6 202,351.6 194,351.6" fill="rgb(0,27,135)"/>
<polygon points="202,343.6 210,343.6 210,351.6 202,351.6" fill="rgb(10,66,137)"/>
<polygon points="210,343.6 218,343.6 218,351.6 210,351.6" fill="rgb(95,213,113)"/>
<polygon points="228,343.6 236,343.6 236,351.6 228,351.6" fill="rgb(255,255,255)"/>
<polygon points="236,343.6 244,343.6 244,351.6 236,351.6" fill="rgb(255,255,255)"/>
<polygon points="244,343.6 252,343.6 252,351.6 244,351.6" fill="rgb(255,255,255)"/>
<polygon points="252,343.6 260,343.6 260,351.6 252,351.6" fill="rgb(255,255,255)"/>
<polygon points="260,343.6 268,343.6 268,351.6 260,351.6" fill="rgb(255,255,255)"/>
<polygon points="268,343.6 276,343.6 276,351.6 268,351.6" fill="rgb(255,255,255)"/>
<polygon points="276,343.6 284,343.6 284,351.6 276,351.6" fill="rgb(255,255,255)"/>
<polygon points="284,343.6 292,343.6 292,351.6 284,351.6" fill="rgb(255,255,255)"/>
<polygon points="128,351.6 136,351.6 136,359.6 128,359.6" fill="rgb(255,255,0)"/><text xml:space="preserve" x="132" y="358.433" font-family="Calibri" font-size="7.5" fill="rgb(0,0,0)" text-anchor="middle">3</text>
<polygon points="136,351.6 144,351.6 144,359.6 136,359.6" fill="rgb(0,205,0)"/><text xml:space="preserve" x="140" y="358.433" font-family="Calibri" font-size="7.5" fill="rgb(255,255,255)" text-anchor="middle">1</text>
<polygon points="144,351.6 152,351.6 152,359.6 144,359.6" fill="rgb(0,205,0)"/><text xml:space="preserve" x="148" y="358.433" font-family="Calibri" font-size="7.5" fill="rgb(255,255,255)" text-anchor="middle">1</text>
<polygon points="152,351.6 160,351.6 160,359.6 152,359.6" fill="rgb(127,230,0)"/><text xml:space="preserve" x="156" y="358.433" font-family="Calibri" font-size="7.5" fill="rgb(0,0,0)" text-anchor="middle">2</text>
<polygon points="160,351.6 168,351.6 168,359.6 160,359.6" fill="rgb(230,127,0)"/><text xml:space="preserve" x="164" y="358.433" font-family="Calibri" font-size="7.5" fill="rgb(0,0,0)" text-anchor="middle">4</text>
<polygon points="178,351.6 186,351.6 186,359.6 178,359.6" fill="rgb(164,204,63)"/>
<polygon points="186,351.6 194,351.6 194,359.6 186,359.6" fill="rgb(13,80,138)"/>
<polygon points="194,351.6 202,351.6 202,359.6 194,359.6" fill="rgb(0,27,135)"/>
<polygon points="202,351.6 210,351.6 210,359.6 202,359.6" fill="rgb(0,27,135)"/>
<polygon points="210,351.6 218,351.6 218,359.6 210,359.6" fill="rgb(49,219,146)"/>
<polygon points="228,351.6 236,351.6 236,359.6 228,359.6" fill="rgb(255,255,255)"/>
<polygon points="236,351.6 244,351.6 244,359.6 236,359.6" fill="rgb(255,255,255)"/>
<polygon points="244,351.6 252,351.6 252,359.6 244,359.6" fill="rgb(255,255,255)"/>
<polygon points="252,351.6 260,351.6 260,359.6 252,359.6" fill="rgb(255,255,255)"/>
<polygon points="260,351.6 268,351.6 268,359.6 260,359.6" fill="rgb(255,255,255)"/>
<polygon points="268,351.6 276,351.6 276,359.6 268,359.6" fill="rgb(255,255,255)"/>
<polygon points="276,351.6 284,351.6 284,359.6 276,359.6" fill="rgb(255,255,255)"/>
<polygon points="284,351.6 292,351.6 292,359.6 284,359.6" fill="rgb(255,255,255)"/>
<polygon points="128,359.6 136,359.6 136,367.6 128,367.6" fill="rgb(255,255,0)"/><text xml:space="preserve" x="132" y="366.433" font-family="Calibri" font-size="7.5" fill="rgb(0,0,0)" text-anchor="middle">3</text>
<polygon points="136,359.6 144,359.6 144,367.6 136,367.6" fill="rgb(0,205,0)"/><text xml:space="preserve" x="140" y="366.433" font-family="Calibri" font-size="7.5" fill="rgb(255,255,255)" text-anchor="middle">1</text>
<polygon points="144,359.6 152,359.6 152,367.6 144,367.6" fill="rgb(0,205,0)"/><text xml:space="preserve" x="148" y="366.433" font-family="Calibri" font-size="7.5" fill="rgb(255,255,255)" text-anchor="middle">1</text>
<polygon points="152,359.6 160,359.6 160,367.6 152,367.6" fill="rgb(127,230,0)"/><text xml:space="preserve" x="156" y="366.433" font-family="Calibri" font-size="7.5" fill="rgb(0,0,0)" text-anchor="middle">2</text>
<polygon points="160,359.6 168,359.6 168,367.6 160,367.6" fill="rgb(230,127,0)"/><text xml:space="preserve" x="164" y="366.433" font-family="Calibri" font-size="7.5" fill="rgb(0,0,0)" text-anchor="middle">4</text>
<polygon points="178,359.6 186,359.6 186,367.6 178,367.6" fill="rgb(89,214,117)"/>
<polygon points="186,359.6 194,359.6 194,367.6 186,367.6" fill="rgb(0,27,135)"/>
<polygon points="194,359.6 202,359.6 202,367.6 194,367.6" fill="rgb(0,27,135)"/>
<polygon points="202,359.6 210,359.6 210,367.6 202,367.6" fill="rgb(0,27,135)"/>
<polygon points="210,359.6 218,359.6 218,367.6 210,367.6" fill="rgb(181,202,51)"/>
<polygon points="228,359.6 236,359.6 236,367.6 228,367.6" fill="rgb(255,255,255)"/>
<polygon points="236,359.6 244,359.6 244,367.6 236,367.6" fill="rgb(255,255,255)"/>
<polygon points="244,359.6 252,359.6 252,367.6 244,367.6" fill="rgb(255,255,255)"/>
<polygon points="252,359.6 260,359.6 260,367.6 252,367.6" fill="rgb(255,255,255)"/>
<polygon points="260,359.6 268,359.6 268,367.6 260,367.6" fill="rgb(255,255,255)"/>
<polygon points="268,359.6 276,359.6 276,367.6 268,367.6" fill="rgb(255,255,255)"/>
<polygon points="276,359.6 284,359.6 284,367.6 276,367.6" fill="rgb(255,255,255)"/>
<polygon points="284,359.6 292,359.6 292,367.6 284,367.6" fill="rgb(255,255,255)"/>
<polygon points="128,335.6 168,335.6 168,367.6 128,367.6" fill="none" stroke="black" stroke-width="1"/>
<polygon points="178,335.6 218,335.6 218,367.6 178,367.6" fill="none" stroke="black" stroke-width="1"/>
<polygon points="228,335.6 292,335.6 292,367.6 228,367.6" fill="none" stroke="black" stroke-width="1"/>
<text xml:space="preserve" x="156" y="400.6" font-family="Calibri" font-size="8" text-anchor="middle">ClusterAssignment</text>
<polygon points="106,407.6 126,407.6 126,427.6 106,427.6" fill="rgb(0,205,0)"/><polygon points="106,407.6 126,407.6 126,427.6 106,427.6" fill="none" stroke="black" stroke-width="1"/><text xml:space="preserve" x="116" y="420.433" font-family="Calibri" font-size="7.5" fill="rgb(255,255,255)" text-anchor="middle">1.0</text>
<polygon points="126,407.6 146,407.6 146,427.6 126,427.6" fill="rgb(127,230,0)"/><polygon points="126,407.6 146,407.6 146,427.6 126,427.6" fill="none" stroke="black" stroke-width="1"/><text xml:space="preserve" x="136" y="420.433" font-family="Calibri" font-size="7.5" fill="rgb(0,0,0)" text-anchor="middle">2.0</text>
<polygon points="146,407.6 166,407.6 166,427.6 146,427.6" fill="rgb(255,255,0)"/><polygon points="146,407.6 166,407.6 166,427.6 146,427.6" fill="none" stroke="black" stroke-width="1"/><text xml:space="preserve" x="156" y="420.433" font-family="Calibri" font-size="7.5" fill="rgb(0,0,0)" text-anchor="middle">3.0</text>
<polygon points="166,407.6 186,407.6 186,427.6 166,427.6" fill="rgb(230,127,0)"/><polygon points="166,407.6 186,407.6 186,427.6 166,427.6" fill="none" stroke="black" stroke-width="1"/><text xml:space="preserve" x="176" y="420.433" font-family="Calibri" font-size="7.5" fill="rgb(0,0,0)" text-anchor="middle">4.0</text>
<polygon points="186,407.6 206,407.6 206,427.6 186,427.6" fill="rgb(205,0,0)"/><polygon points="186,407.6 206,407.6 206,427.6 186,427.6" fill="none" stroke="black" stroke-width="1"/><text xml:space="preserve" x="196" y="420.433" font-family="Calibri" font-size="7.5" fill="rgb(255,255,255)" text-anchor="middle">5.0</text>
<text xml:space="preserve" x="156" y="460.6" font-family="Calibri" font-size="8" text-anchor="middle">Expression</text>
<polygon points="106,467.6 126,467.6 126,487.6 106,487.6" fill="rgb(0,27,135)"/><polygon points="106,467.6 126,467.6 126,487.6 106,487.6" fill="none" stroke="black" stroke-width="1"/><text xml:space="preserve" x="116" y="480.433" font-family="Calibri" font-size="7.5" fill="rgb(255,255,255)" text-anchor="middle">0.0</text>
<polygon points="126,467.6 146,467.6 146,487.6 126,487.6" fill="rgb(24,123,140)"/><polygon points="126,467.6 146,467.6 146,487.6 126,487.6" fill="none" stroke="black" stroke-width="1"/><text xml:space="preserve" x="136" y="480.433" font-family="Calibri" font-size="7.5" fill="rgb(255,255,255)" text-anchor="middle">0.8</text>
<polygon points="146,467.6 166,467.6 166,487.6 146,487.6" fill="rgb(49,219,146)"/><polygon points="146,467.6 166,467.6 166,487.6 146,487.6" fill="none" stroke="black" stroke-width="1"/><text xml:space="preserve" x="156" y="480.433" font-family="Calibri" font-size="7.5" fill="rgb(0,0,0)" text-anchor="middle">1.5</text>
<polygon points="166,467.6 186,467.6 186,487.6 166,487.6" fill="rgb(150,206,73)"/><polygon points="166,467.6 186,467.6 186,487.6 166,487.6" fill="none" stroke="black" stroke-width="1"/><text xml:space="preserve" x="176" y="480.433" font-family="Calibri" font-size="7.5" fill="rgb(0,0,0)" text-anchor="middle">2.2</text>
<polygon points="186,467.6 206,467.6 206,487.6 186,487.6" fill="rgb(252,194,1)"/><polygon points="186,467.6 206,467.6 206,487.6 186,487.6" fill="none" stroke="black" stroke-width="1"/><text xml:space="preserve" x="196" y="480.433" font-family="Calibri" font-size="7.5" fill="rgb(0,0,0)" text-anchor="middle">3.0</text>
<text xml:space="preserve" x="156" y="520.6" font-family="Calibri" font-size="8" text-anchor="middle">PANTHERclass</text>
<polygon points="106,527.6 126,527.6 126,547.6 106,547.6" fill="rgb(255,255,255)"/><polygon points="106,527.6 126,527.6 126,547.6 106,547.6" fill="none" stroke="black" stroke-width="1"/><text xml:space="preserve" x="116" y="540.433" font-family="Calibri" font-size="7.5" fill="rgb(0,0,0)" text-anchor="middle">0.0</text>
<polygon points="126,527.6 146,527.6 146,547.6 126,547.6" fill="rgb(242,191,242)"/><polygon points="126,527.6 146,527.6 146,547.6 126,547.6" fill="none" stroke="black" stroke-width="1"/><text xml:space="preserve" x="136" y="540.433" font-family="Calibri" font-size="7.5" fill="rgb(0,0,0)" text-anchor="middle">0.2</text>
<polygon points="146,527.6 166,527.6 166,547.6 146,547.6" fill="rgb(230,127,230)"/><polygon points="146,527.6 166,527.6 166,547.6 146,547.6" fill="none" stroke="black" stroke-width="1"/><text xml:space="preserve" x="156" y="540.433" font-family="Calibri" font-size="7.5" fill="rgb(0,0,0)" text-anchor="middle">0.5</text>
<polygon points="166,527.6 186,527.6 186,547.6 166,547.6" fill="rgb(217,63,217)"/><polygon points="166,527.6 186,527.6 186,547.6 166,547.6" fill="none" stroke="black" stroke-width="1"/><text xml:space="preserve" x="176" y="540.433" font-family="Calibri" font-size="7.5" fill="rgb(255,255,255)" text-anchor="middle">0.8</text>
<polygon points="186,527.6 206,527.6 206,547.6 186,547.6" fill="rgb(205,0,205)"/><polygon points="186,527.6 206,527.6 206,547.6 186,547.6" fill="none" stroke="black" stroke-width="1"/><text xml:space="preserve" x="196" y="540.433" font-family="Calibri" font-size="7.5" fill="rgb(255,255,255)" text-anchor="middle">1.0</text>
</svg>
