<?xml version="1.0" standalone="no"?><!DOCTYPE svg PUBLIC "-//W3C//DTD SVG 1.1//EN" "http://www.w3.org/Graphics/SVG/1.1/DTD/svg11.dtd">
<svg width="308.1" height="631.6" version="1.1" xmlns="http://www.w3.org/2000/svg">
<text xml:space="preserve" x="120.1" y="342.6" font-family="Calibri" font-size="8" text-anchor="end">AL512328.1</text>
<text xml:space="preserve" x="120.1" y="350.6" font-family="Calibri" font-size="8" text-anchor="end">SPICE1</text>
<text xml:space="preserve" x="120.1" y="358.6" font-family="Calibri" font-size="8" text-anchor="end">PIK3AP1</text>
<text xml:space="preserve" x="120.1" y="366.6" font-family="Calibri" font-size="8" text-anchor="end">CACNG6</text>
<text xml:space="preserve" x="120.1" y="374.6" font-family="Calibri" font-size="8" text-anchor="end">ATOH8</text>
<text xml:space="preserve" x="120.1" y="382.6" font-family="Calibri" font-size="8" text-anchor="end">CH25H</text>
<text xml:space="preserve" x="120.1" y="390.6" font-family="Calibri" font-size="8" text-anchor="end">CP</text>
<text xml:space="preserve" x="120.1" y="398.6" font-family="Calibri" font-size="8" text-anchor="end">CNMD</text>
<text xml:space="preserve" x="120.1" y="406.6" font-family="Calibri" font-size="8" text-anchor="end">ANKFN1</text>
<text xml:space="preserve" x="120.1" y="414.6" font-family="Calibri" font-size="8" text-anchor="end">NUP62CL</text>
<text xml:space="preserve" x="120.1" y="422.6" font-family="Calibri" font-size="8" text-anchor="end">TLE6</text>
<text xml:space="preserve" x="120.1" y="430.6" font-family="Calibri" font-size="8" text-anchor="end">GALM</text>
<text xml:space="preserve" x="131.1" y="331.6" font-family="Calibri" font-size="8" transform="rotate(270 131.1 331.6)">c2</text>
<text xml:space="preserve" x="139.1" y="331.6" font-family="Calibri" font-size="8" transform="rotate(270 139.1 331.6)">c4</text>
<text xml:space="preserve" x="147.1" y="331.6" font-family="Calibri" font-size="8" transform="rotate(270 147.1 331.6)">c3</text>
<text xml:space="preserve" x="155.1" y="331.6" font-family="Calibri" font-size="8" transform="rotate(270 155.1 331.6)">c1</text>
<text xml:space="preserve" x="163.1" y="331.6" font-family="Calibri" font-size="8" transform="rotate(270 163.1 331.6)">c5</text>
<text xml:space="preserve" x="181.1" y="331.6" font-family="Calibri" font-size="8" transform="rotate(270 181.1 331.6)">c2_mean</text>
<text xml:space="preserve" x="189.1" y="331.6" font-family="Calibri" font-size="8" transform="rotate(270 189.1 331.6)">c4_mean</text>
<text xml:space="preserve" x="197.1" y="331.6" font-family="Calibri" font-size="8" transform="rotate(270 197.1 331.6)">c3_mean</text>
<text xml:space="preserve" x="205.1" y="331.6" font-family="Calibri" font-size="8" transform="rotate(270 205.1 331.6)">c1_mean</text>
<text xml:space="preserve" x="213.1" y="331.6" font-family="Calibri" font-size="8" transform="rotate(270 213.1 331.6)">c5_mean</text>
<text xml:space="preserve" x="231.1" y="331.6" font-family="Calibri" font-size="8" transform="rotate(270 231.1 331.6)">transcription_factor</text>
<text xml:space="preserve" x="239.1" y="331.6" font-family="Calibri" font-size="8" transform="rotate(270 239.1 331.6)">transmembrane_signal_receptor</text>
<text xml:space="preserve" x="247.1" y="331.6" font-family="Calibri" font-size="8" transform="rotate(270 247.1 331.6)">growth_factor</text>
<text xml:space="preserve" x="255.1" y="331.6" font-family="Calibri" font-size="8" transform="rotate(270 255.1 331.6)">peptide_hormone</text>
<text xml:space="preserve" x="263.1" y="331.6" font-family="Calibri" font-size="8" transform="rotate(270 263.1 331.6)">cytoskeletal_protein</text>
<text xml:space="preserve" x="271.1" y="331.6" font-family="Calibri" font-size="8" transform="rotate(270 271.1 331.6)">ion_channel</text>
<text xml:space="preserve" x="279.1" y="331.6" font-family="Calibri" font-size="8" transform="rotate(270 279.1 331.6)">integrin</text>
<text xml:space="preserve" x="287.1" y="331.6" font-family="Calibri" font-size="8" transform="rotate(270 287.1 331.6)">extracellular_matrix_protein</text>
<polygon points="124.1,335.6 132.1,335.6 132.1,343.6 124.1,343.6" fill="rgb(255,255,0)"/><text xml:space="preserve" x="128.1" y="342.433" font-family="Calibri" font-size="7.5" fill="rgb(0,0,0)" text-anchor="middle">3</text>
<polygon points="132.1,335.6 140.1,335.6 140.1,343.6 132.1,343.6" fill="rgb(127,230,0)"/><text xml:space="preserve" x="136.1" y="342.433" font-family="Calibri" font-size="7.5" fill="rgb(0,0,0)" text-anchor="middle">2</text>
<polygon points="140.1,335.6 148.1,335.6 148.1,343.6 140.1,343.6" fill="rgb(127,230,0)"/><text xml:space="preserve" x="144.1" y="342.433" font-family="Calibri" font-size="7.5" fill="rgb(0,0,0)" text-anchor="middle">2</text>
<polygon points="148.1,335.6 156.1,335.6 156.1,343.6 148.1,343.6" fill="rgb(230,127,0)"/><text xml:space="preserve" x="152.1" y="342.433" font-family="Calibri" font-size="7.5" fill="rgb(0,0,0)" text-anchor="middle">4</text>
<polygon points="156.1,335.6 164.1,335.6 164.1,343.6 156.1,343.6" fill="rgb(230,127,0)"/><text xml:space="preserve" x="160.1" y="342.433" font-family="Calibri" font-size="7.5" fill="rgb(0,0,0)" text-anchor="middle">4</text>
<polygon points="174.1,335.6 182.1,335.6 182.1,343.6 174.1,343.6" fill="rgb(135,208,84)"/>
<polygon points="182.1,335.6 190.1,335.6 190.1,343.6 182.1,343.6" fill="rgb(0,27,135)"/>
<polygon points="190.1,335.6 198.1,335.6 198.1,343.6 190.1,343.6" fill="rgb(18,99,139)"/>
<polygon points="198.1,335.6 206.1,335.6 206.1,343.6 198.1,343.6" fill="rgb(118,210,96)"/>
<polygon points="206.1,335.6 214.1,335.6 214.1,343.6 206.1,343.6" fill="rgb(136,208,83)"/>
<polygon points="224.1,335.6 232.1,335.6 232.1,343.6 224.1,343.6" fill="rgb(255,255,255)"/>
<polygon points="232.1,335.6 240.1,335.6 240.1,343.6 232.1,343.6" fill="rgb(255,255,255)"/>
<polygon points="240.1,335.6 248.1,335.6 248.1,343.6 240.1,343.6" fill="rgb(255,255,255)"/>
<polygon points="248.1,335.6 256.1,335.6 256.1,343.6 248.1,343.6" fill="rgb(255,255,255)"/>
<polygon points="256.1,335.6 264.1,335.6 264.1,343.6 256.1,343.6" fill="rgb(255,255,255)"/>
<polygon points="264.1,335.6 272.1,335.6 272.1,343.6 264.1,343.6" fill="rgb(255,255,255)"/>
<polygon points="272.1,335.6 280.1,335.6 280.1,343.6 272.1,343.6" fill="rgb(255,255,255)"/>
<polygon points="280.1,335.6 288.1,335.6 288.1,343.6 280.1,343.6" fill="rgb(255,255,255)"/>
<polygon points="124.1,343.6 132.1,343.6 132.1,351.6 124.1,351.6" fill="rgb(255,255,0)"/><text xml:space="preserve" x="128.1" y="350.433" font-family="Calibri" font-size="7.5" fill="rgb(0,0,0)" text-anchor="middle">3</text>
<polygon points="132.1,343.6 140.1,343.6 140.1,351.6 132.1,351.6" fill="rgb(127,230,0)"/><text xml:space="preserve" x="136.1" y="350.433" font-family="Calibri" font-size="7.5" fill="rgb(0,0,0)" text-anchor="middle">2</text>
<polygon points="140.1,343.6 148.1,343.6 148.1,351.6 140.1,351.6" fill="rgb(127,230,0)"/><text xml:space="preserve" x="144.1" y="350.433" font-family="Calibri" font-size="7.5" fill="rgb(0,0,0)" text-anchor="middle">2</text>
<polygon points="148.1,343.6 156.1,343.6 156.1,351.6 148.1,351.6" fill="rgb(230,127,0)"/><text xml:space="preserve" x="152.1" y="350.433" font-family="Calibri" font-size="7.5" fill="rgb(0,0,0)" text-anchor="middle">4</text>
<polygon points="156.1,343.6 164.1,343.6 164.1,351.6 156.1,351.6" fill="rgb(230,127,0)"/><text xml:space="preserve" x="160.1" y="350.433" font-family="Calibri" font-size="7.5" fill="rgb(0,0,0)" text-anchor="middle">4</text>
<polygon points="174.1,343.6 182.1,343.6 182.1,351.6 174.1,351.6" fill="rgb(47,213,145)"/>
<polygon points="182.1,343.6 190.1,343.6 190.1,351.6 182.1,351.6" fill="rgb(26,130,140)"/>
<polygon points="190.1,343.6 198.1,343.6 198.1,351.6 190.1,351.6" fill="rgb(32,153,142)"/>
<polygon points="198.1,343.6 206.1,343.6 206.1,351.6 198.1,351.6" fill="rgb(41,188,144)"/>
<polygon points="206.1,343.6 214.1,343.6 214.1,351.6 206.1,351.6" fill="rgb(100,212,109)"/>
<polygon points="224.1,343.6 232.1,343.6 232.1,351.6 224.1,351.6" fill="rgb(255,255,255)"/>
<polygon points="232.1,343.6 240.1,343.6 240.1,351.6 232.1,351.6" fill="rgb(255,255,255)"/>
<polygon points="240.1,343.6 248.1,343.6 248.1,351.6 240.1,351.6" fill="rgb(255,255,255)"/>
<polygon points="248.1,343.6 256.1,343.6 256.1,351.6 248.1,351.6" fill="rgb(255,255,255)"/>
<polygon points="256.1,343.6 264.1,343.6 264.1,351.6 256.1,351.6" fill="rgb(255,255,255)"/>
<polygon points="264.1,343.6 272.1,343.6 272.1,351.6 264.1,351.6" fill="rgb(255,255,255)"/>
<polygon points="272.1,343.6 280.1,343.6 280.1,351.6 272.1,351.6" fill="rgb(255,255,255)"/>
<polygon points="280.1,343.6 288.1,343.6 288.1,351.6 280.1,351.6" fill="rgb(255,255,255)"/>
<polygon points="124.1,351.6 132.1,351.6 132.1,359.6 124.1,359.6" fill="rgb(255,255,0)"/><text xml:space="preserve" x="128.1" y="358.433" font-family="Calibri" font-size="7.5" fill="rgb(0,0,0)" text-anchor="middle">3</text>
<polygon points="132.1,351.6 140.1,351.6 140.1,359.6 132.1,359.6" fill="rgb(127,230,0)"/><text xml:space="preserve" x="136.1" y="358.433" font-family="Calibri" font-size="7.5" fill="rgb(0,0,0)" text-anchor="middle">2</text>
<polygon points="140.1,351.6 148.1,351.6 148.1,359.6 140.1,359.6" fill="rgb(127,230,0)"/><text xml:space="preserve" x="144.1" y="358.433" font-family="Calibri" font-size="7.5" fill="rgb(0,0,0)" text-anchor="middle">2</text>
<polygon points="148.1,351.6 156.1,351.6 156.1,359.6 148.1,359.6" fill="rgb(230,127,0)"/><text xml:space="preserve" x="152.1" y="358.433" font-family="Calibri" font-size="7.5" fill="rgb(0,0,0)" text-anchor="middle">4</text>
<polygon points="156.1,351.6 164.1,351.6 164.1,359.6 156.1,359.6" fill="rgb(230,127,0)"/><text xml:space="preserve" x="160.1" y="358.433" font-family="Calibri" font-size="7.5" fill="rgb(0,0,0)" text-anchor="middle">4</text>
<polygon points="174.1,351.6 182.1,351.6 182.1,359.6 174.1,359.6" fill="rgb(54,218,142)"/>
<polygon points="182.1,351.6 190.1,351.6 190.1,359.6 182.1,359.6" fill="rgb(11,70,137)"/>
<polygon points="190.1,351.6 198.1,351.6 198.1,359.6 190.1,359.6" fill="rgb(24,121,140)"/>
<polygon points="198.1,351.6 206.1,351.6 206.1,359.6 198.1,359.6" fill="rgb(48,215,145)"/>
<polygon points="206.1,351.6 214.1,351.6 214.1,359.6 206.1,359.6" fill="rgb(62,217,136)"/>
<polygon points="224.1,351.6 232.1,351.6 232.1,359.6 224.1,359.6" fill="rgb(255,255,255)"/>
<polygon points="232.1,351.6 240.1,351.6 240.1,359.6 232.1,359.6" fill="rgb(255,255,255)"/>
<polygon points="240.1,351.6 248.1,351.6 248.1,359.6 240.1,359.6" fill="rgb(255,255,255)"/>
<polygon points="248.1,351.6 256.1,351.6 256.1,359.6 248.1,359.6" fill="rgb(255,255,255)"/>
<polygon points="256.1,351.6 264.1,351.6 264.1,359.6 256.1,359.6" fill="rgb(255,255,255)"/>
<polygon points="264.1,351.6 272.1,351.6 272.1,359.6 264.1,359.6" fill="rgb(255,255,255)"/>
<polygon points="272.1,351.6 280.1,351.6 280.1,359.6 272.1,359.6" fill="rgb(255,255,255)"/>
<polygon points="280.1,351.6 288.1,351.6 288.1,359.6 280.1,359.6" fill="rgb(255,255,255)"/>
<polygon points="124.1,359.6 132.1,359.6 132.1,367.6 124.1,367.6" fill="rgb(255,255,0)"/><text xml:space="preserve" x="128.1" y="366.433" font-family="Calibri" font-size="7.5" fill="rgb(0,0,0)" text-anchor="middle">3</text>
<polygon points="132.1,359.6 140.1,359.6 140.1,367.6 132.1,367.6" fill="rgb(127,230,0)"/><text xml:space="preserve" x="136.1" y="366.433" font-family="Calibri" font-size="7.5" fill="rgb(0,0,0)" text-anchor="middle">2</text>
<polygon points="140.1,359.6 148.1,359.6 148.1,367.6 140.1,367.6" fill="rgb(127,230,0)"/><text xml:space="preserve" x="144.1" y="366.433" font-family="Calibri" font-size="7.5" fill="rgb(0,0,0)" text-anchor="middle">2</text>
<polygon points="148.1,359.6 156.1,359.6 156.1,367.6 148.1,367.6" fill="rgb(230,127,0)"/><text xml:space="preserve" x="152.1" y="366.433" font-family="Calibri" font-size="7.5" fill="rgb(0,0,0)" text-anchor="middle">4</text>
<polygon points="156.1,359.6 164.1,359.6 164.1,367.6 156.1,367.6" fill="rgb(230,127,0)"/><text xml:space="preserve" x="160.1" y="366.433" font-family="Calibri" font-size="7.5" fill="rgb(0,0,0)" text-anchor="middle">4</text>
<polygon points="174.1,359.6 182.1,359.6 182.1,367.6 174.1,367.6" fill="rgb(132,208,86)"/>
<polygon points="182.1,359.6 190.1,359.6 190.1,367.6 182.1,367.6" fill="rgb(19,102,139)"/>
<polygon points="190.1,359.6 198.1,359.6 198.1,367.6 190.1,367.6" fill="rgb(11,71,137)"/>
<polygon points="198.1,359.6 206.1,359.6 206.1,367.6 198.1,367.6" fill="rgb(38,176,143)"/>
<polygon points="206.1,359.6 214.1,359.6 214.1,367.6 206.1,367.6" fill="rgb(127,209,89)"/>
<polygon points="224.1,359.6 232.1,359.6 232.1,367.6 224.1,367.6" fill="rgb(255,255,255)"/>
<polygon points="232.1,359.6 240.1,359.6 240.1,367.6 232.1,367.6" fill="rgb(255,255,255)"/>
<polygon points="240.1,359.6 248.1,359.6 248.1,367.6 240.1,367.6" fill="rgb(255,255,255)"/>
<polygon points="248.1,359.6 256.1,359.6 256.1,367.6 248.1,367.6" fill="rgb(255,255,255)"/>
<polygon points="256.1,359.6 264.1,359.6 264.1,367.6 256.1,367.6" fill="rgb(255,255,255)"/>
<polygon points="264.1,359.6 272.1,359.6 272.1,367.6 264.1,367.6" fill="rgb(205,0,205)"/>
<polygon points="272.1,359.6 280.1,359.6 280.1,367.6 272.1,367.6" fill="rgb(255,255,255)"/>
<polygon points="280.1,359.6 288.1,359.6 288.1,367.6 280.1,367.6" fill="rgb(255,255,255)"/>
<polygon points="124.1,367.6 132.1,367.6 132.1,375.6 124.1,375.6" fill="rgb(255,255,0)"/><text xml:space="preserve" x="128.1" y="374.433" font-family="Calibri" font-size="7.5" fill="rgb(0,0,0)" text-anchor="middle">3</text>
<polygon points="132.1,367.6 140.1,367.6 140.1,375.6 132.1,375.6" fill="rgb(127,230,0)"/><text xml:space="preserve" x="136.1" y="374.433" font-family="Calibri" font-size="7.5" fill="rgb(0,0,0)" text-anchor="middle">2</text>
<polygon points="140.1,367.6 148.1,367.6 148.1,375.6 140.1,375.6" fill="rgb(127,230,0)"/><text xml:space="preserve" x="144.1" y="374.433" font-family="Calibri" font-size="7.5" fill="rgb(0,0,0)" text-anchor="middle">2</text>
<polygon points="148.1,367.6 156.1,367.6 156.1,375.6 148.1,375.6" fill="rgb(230,127,0)"/><text xml:space="preserve" x="152.1" y="374.433" font-family="Calibri" font-size="7.5" fill="rgb(0,0,0)" text-anchor="middle">4</text>
<polygon points="156.1,367.6 164.1,367.6 164.1,375.6 156.1,375.6" fill="rgb(230,127,0)"/><text xml:space="preserve" x="160.1" y="374.433" font-family="Calibri" font-size="7.5" fill="rgb(0,0,0)" text-anchor="middle">4</text>
<polygon points="174.1,367.6 182.1,367.6 182.1,375.6 174.1,375.6" fill="rgb(104,212,106)"/>
<polygon points="182.1,367.6 190.1,367.6 190.1,375.6 182.1,375.6" fill="rgb(28,137,141)"/>
<polygon points="190.1,367.6 198.1,367.6 198.1,375.6 190.1,375.6" fill="rgb(16,93,138)"/>
<polygon points="198.1,367.6 206.1,367.6 206.1,375.6 198.1,375.6" fill="rgb(100,212,109)"/>
<polygon points="206.1,367.6 214.1,367.6 214.1,375.6 206.1,375.6" fill="rgb(42,193,144)"/>
<polygon points="224.1,367.6 232.1,367.6 232.1,375.6 224.1,375.6" fill="rgb(205,0,205)"/>
<polygon points="232.1,367.6 240.1,367.6 240.1,375.6 232.1,375.6" fill="rgb(255,255,255)"/>
<polygon points="240.1,367.6 248.1,367.6 248.1,375.6 240.1,375.6" fill="rgb(255,255,255)"/>
<polygon points="248.1,367.6 256.1,367.6 256.1,375.6 248.1,375.6" fill="rgb(255,255,255)"/>
<polygon points="256.1,367.6 264.1,367.6 264.1,375.6 256.1,375.6" fill="rgb(255,255,255)"/>
<polygon points="264.1,367.6 272.1,367.6 272.1,375.6 264.1,375.6" fill="rgb(255,255,255)"/>
<polygon points="272.1,367.6 280.1,367.6 280.1,375.6 272.1,375.6" fill="rgb(255,255,255)"/>
<polygon points="280.1,367.6 288.1,367.6 288.1,375.6 280.1,375.6" fill="rgb(255,255,255)"/>
<polygon points="124.1,375.6 132.1,375.6 132.1,383.6 124.1,383.6" fill="rgb(255,255,0)"/><text xml:space="preserve" x="128.1" y="382.433" font-family="Calibri" font-size="7.5" fill="rgb(0,0,0)" text-anchor="middle">3</text>
<polygon points="132.1,375.6 140.1,375.6 140.1,383.6 132.1,383.6" fill="rgb(127,230,0)"/><text xml:space="preserve" x="136.1" y="382.433" font-family="Calibri" font-size="7.5" fill="rgb(0,0,0)" text-anchor="middle">2</text>
<polygon points="140.1,375.6 148.1,375.6 148.1,383.6 140.1,383.6" fill="rgb(127,230,0)"/><text xml:space="preserve" x="144.1" y="382.433" font-family="Calibri" font-size="7.5" fill="rgb(0,0,0)" text-anchor="middle">2</text>
<polygon points="148.1,375.6 156.1,375.6 156.1,383.6 148.1,383.6" fill="rgb(230,127,0)"/><text xml:space="preserve" x="152.1" y="382.433" font-family="Calibri" font-size="7.5" fill="rgb(0,0,0)" text-anchor="middle">4</text>
<polygon points="156.1,375.6 164.1,375.6 164.1,383.6 156.1,383.6" fill="rgb(230,127,0)"/><text xml:space="preserve" x="160.1" y="382.433" font-family="Calibri" font-size="7.5" fill="rgb(0,0,0)" text-anchor="middle">4</text>
<polygon points="174.1,375.6 182.1,375.6 182.1,383.6 174.1,383.6" fill="rgb(88,214,117)"/>
<polygon points="182.1,375.6 190.1,375.6 190.1,383.6 182.1,383.6" fill="rgb(3,39,135)"/>
<polygon points="190.1,375.6 198.1,375.6 198.1,383.6 190.1,383.6" fill="rgb(23,117,140)"/>
<polygon points="198.1,375.6 206.1,375.6 206.1,383.6 198.1,383.6" fill="rgb(61,217,137)"/>
<polygon points="206.1,375.6 214.1,375.6 214.1,383.6 206.1,383.6" fill="rgb(69,216,131)"/>
<polygon points="224.1,375.6 232.1,375.6 232.1,383.6 224.1,383.6" fill="rgb(255,255,255)"/>
<polygon points="232.1,375.6 240.1,375.6 240.1,383.6 232.1,383.6" fill="rgb(255,255,255)"/>
<polygon points="240.1,375.6 248.1,375.6 248.1,383.6 240.1,383.6" fill="rgb(255,255,255)"/>
<polygon points="248.1,375.6 256.1,375.6 256.1,383.6 248.1,383.6" fill="rgb(255,255,255)"/>
<polygon points="256.1,375.6 264.1,375.6 264.1,383.6 256.1,383.6" fill="rgb(255,255,255)"/>
<polygon points="264.1,375.6 272.1,375.6 272.1,383.6 264.1,383.6" fill="rgb(255,255,255)"/>
<polygon points="272.1,375.6 280.1,375.6 280.1,383.6 272.1,383.6" fill="rgb(255,255,255)"/>
<polygon points="280.1,375.6 288.1,375.6 288.1,383.6 280.1,383.6" fill="rgb(255,255,255)"/>
<polygon points="124.1,383.6 132.1,383.6 132.1,391.6 124.1,391.6" fill="rgb(255,255,0)"/><text xml:space="preserve" x="128.1" y="390.433" font-family="Calibri" font-size="7.5" fill="rgb(0,0,0)" text-anchor="middle">3</text>
<polygon points="132.1,383.6 140.1,383.6 140.1,391.6 132.1,391.6" fill="rgb(127,230,0)"/><text xml:space="preserve" x="136.1" y="390.433" font-family="Calibri" font-size="7.5" fill="rgb(0,0,0)" text-anchor="middle">2</text>
<polygon points="140.1,383.6 148.1,383.6 148.1,391.6 140.1,391.6" fill="rgb(127,230,0)"/><text xml:space="preserve" x="144.1" y="390.433" font-family="Calibri" font-size="7.5" fill="rgb(0,0,0)" text-anchor="middle">2</text>
<polygon points="148.1,383.6 156.1,383.6 156.1,391.6 148.1,391.6" fill="rgb(230,127,0)"/><text xml:space="preserve" x="152.1" y="390.433" font-family="Calibri" font-size="7.5" fill="rgb(0,0,0)" text-anchor="middle">4</text>
<polygon points="156.1,383.6 164.1,383.6 164.1,391.6 156.1,391.6" fill="rgb(230,127,0)"/><text xml:space="preserve" x="160.1" y="390.433" font-family="Calibri" font-size="7.5" fill="rgb(0,0,0)" text-anchor="middle">4</text>
<polygon points="174.1,383.6 182.1,383.6 182.1,391.6 174.1,391.6" fill="rgb(46,210,145)"/>
<polygon points="182.1,383.6 190.1,383.6 190.1,391.6 182.1,391.6" fill="rgb(2,35,135)"/>
<polygon points="190.1,383.6 198.1,383.6 198.1,391.6 190.1,391.6" fill="rgb(32,156,142)"/>
<polygon points="198.1,383.6 206.1,383.6 206.1,391.6 198.1,391.6" fill="rgb(111,211,101)"/>
<polygon points="206.1,383.6 214.1,383.6 214.1,391.6 206.1,391.6" fill="rgb(141,207,80)"/>
<polygon points="224.1,383.6 232.1,383.6 232.1,391.6 224.1,391.6" fill="rgb(255,255,255)"/>
<polygon points="232.1,383.6 240.1,383.6 240.1,391.6 232.1,391.6" fill="rgb(255,255,255)"/>
<polygon points="240.1,383.6 248.1,383.6 248.1,391.6 240.1,391.6" fill="rgb(255,255,255)"/>
<polygon points="248.1,383.6 256.1,383.6 256.1,391.6 248.1,391.6" fill="rgb(255,255,255)"/>
<polygon points="256.1,383.6 264.1,383.6 264.1,391.6 256.1,391.6" fill="rgb(255,255,255)"/>
<polygon points="264.1,383.6 272.1,383.6 272.1,391.6 264.1,391.6" fill="rgb(255,255,255)"/>
<polygon points="272.1,383.6 280.1,383.6 280.1,391.6 272.1,391.6" fill="rgb(255,255,255)"/>
<polygon points="280.1,383.6 288.1,383.6 288.1,391.6 280.1,391.6" fill="rgb(255,255,255)"/>
<polygon points="124.1,391.6 132.1,391.6 132.1,399.6 124.1,399.6" fill="rgb(255,255,0)"/><text xml:space="preserve" x="128.1" y="398.433" font-family="Calibri" font-size="7.5" fill="rgb(0,0,0)" text-anchor="middle">3</text>
<polygon points="132.1,391.6 140.1,391.6 140.1,399.6 132.1,399.6" fill="rgb(127,230,0)"/><text xml:space="preserve" x="136.1" y="398.433" font-family="Calibri" font-size="7.5" fill="rgb(0,0,0)" text-anchor="middle">2</text>
<polygon points="140.1,391.6 148.1,391.6 148.1,399.6 140.1,399.6" fill="rgb(127,230,0)"/><text xml:space="preserve" x="144.1" y="398.433" font-family="Calibri" font-size="7.5" fill="rgb(0,0,0)" text-anchor="middle">2</text>
<polygon points="148.1,391.6 156.1,391.6 156.1,399.6 148.1,399.6" fill="rgb(230,127,0)"/><text xml:space="preserve" x="152.1" y="398.433" font-family="Calibri" font-size="7.5" fill="rgb(0,0,0)" text-anchor="middle">4</text>
<polygon points="156.1,391.6 164.1,391.6 164.1,399.6 156.1,399.6" fill="rgb(230,127,0)"/><text xml:space="preserve" x="160.1" y="398.433" font-family="Calibri" font-size="7.5" fill="rgb(0,0,0)" text-anchor="middle">4</text>
<polygon points="174.1,391.6 182.1,391.6 182.1,399.6 174.1,399.6" fill="rgb(247,194,3)"/>
<polygon points="182.1,391.6 190.1,391.6 190.1,399.6 182.1,399.6" fill="rgb(31,151,142)"/>
<polygon points="190.1,391.6 198.1,391.6 198.1,399.6 190.1,399.6" fill="rgb(17,96,138)"/>
<polygon points="198.1,391.6 206.1,391.6 206.1,399.6 198.1,399.6" fill="rgb(155,205,69)"/>
<polygon points="206.1,391.6 214.1,391.6 214.1,399.6 206.1,399.6" fill="rgb(200,200,37)"/>
<polygon points="224.1,391.6 232.1,391.6 232.1,399.6 224.1,399.6" fill="rgb(255,255,255)"/>
<polygon points="232.1,391.6 240.1,391.6 240.1,399.6 232.1,399.6" fill="rgb(255,255,255)"/>
<polygon points="240.1,391.6 248.1,391.6 248.1,399.6 240.1,399.6" fill="rgb(255,255,255)"/>
<polygon points="248.1,391.6 256.1,391.6 256.1,399.6 248.1,399.6" fill="rgb(255,255,255)"/>
<polygon points="256.1,391.6 264.1,391.6 264.1,399.6 256.1,399.6" fill="rgb(255,255,255)"/>
<polygon points="264.1,391.6 272.1,391.6 272.1,399.6 264.1,399.6" fill="rgb(255,255,255)"/>
<polygon points="272.1,391.6 280.1,391.6 280.1,399.6 272.1,399.6" fill="rgb(255,255,255)"/>
<polygon points="280.1,391.6 288.1,391.6 288.1,399.6 280.1,399.6" fill="rgb(255,255,255)"/>
<polygon points="124.1,399.6 132.1,399.6 132.1,407.6 124.1,407.6" fill="rgb(255,255,0)"/><text xml:space="preserve" x="128.1" y="406.433" font-family="Calibri" font-size="7.5" fill="rgb(0,0,0)" text-anchor="middle">3</text>
<polygon points="132.1,399.6 140.1,399.6 140.1,407.6 132.1,407.6" fill="rgb(127,230,0)"/><text xml:space="preserve" x="136.1" y="406.433" font-family="Calibri" font-size="7.5" fill="rgb(0,0,0)" text-anchor="middle">2</text>
<polygon points="140.1,399.6 148.1,399.6 148.1,407.6 140.1,407.6" fill="rgb(127,230,0)"/><text xml:space="preserve" x="144.1" y="406.433" font-family="Calibri" font-size="7.5" fill="rgb(0,0,0)" text-anchor="middle">2</text>
<polygon points="148.1,399.6 156.1,399.6 156.1,407.6 148.1,407.6" fill="rgb(230,127,0)"/><text xml:space="preserve" x="152.1" y="406.433" font-family="Calibri" font-size="7.5" fill="rgb(0,0,0)" text-anchor="middle">4</text>
<polygon points="156.1,399.6 164.1,399.6 164.1,407.6 156.1,407.6" fill="rgb(230,127,0)"/><text xml:space="preserve" x="160.1" y="406.433" font-family="Calibri" font-size="7.5" fill="rgb(0,0,0)" text-anchor="middle">4</text>
<polygon points="174.1,399.6 182.1,399.6 182.1,407.6 174.1,407.6" fill="rgb(112,211,100)"/>
<polygon points="182.1,399.6 190.1,399.6 190.1,407.6 182.1,407.6" fill="rgb(7,57,136)"/>
<polygon points="190.1,399.6 198.1,399.6 198.1,407.6 190.1,407.6" fill="rgb(8,61,136)"/>
<polygon points="198.1,399.6 206.1,399.6 206.1,407.6 198.1,407.6" fill="rgb(39,181,143)"/>
<polygon points="206.1,399.6 214.1,399.6 214.1,407.6 206.1,407.6" fill="rgb(43,195,144)"/>
<polygon points="224.1,399.6 232.1,399.6 232.1,407.6 224.1,407.6" fill="rgb(255,255,255)"/>
<polygon points="232.1,399.6 240.1,399.6 240.1,407.6 232.1,407.6" fill="rgb(255,255,255)"/>
<polygon points="240.1,399.6 248.1,399.6 248.1,407.6 240.1,407.6" fill="rgb(255,255,255)"/>
<polygon points="248.1,399.6 256.1,399.6 256.1,407.6 248.1,407.6" fill="rgb(255,255,255)"/>
<polygon points="256.1,399.6 264.1,399.6 264.1,407.6 256.1,407.6" fill="rgb(255,255,255)"/>
<polygon points="264.1,399.6 272.1,399.6 272.1,407.6 264.1,407.6" fill="rgb(255,255,255)"/>
<polygon points="272.1,399.6 280.1,399.6 280.1,407.6 272.1,407.6" fill="rgb(255,255,255)"/>
<polygon points="280.1,399.6 288.1,399.6 288.1,407.6 280.1,407.6" fill="rgb(255,255,255)"/>
<polygon points="124.1,407.6 132.1,407.6 132.1,415.6 124.1,415.6" fill="rgb(255,255,0)"/><text xml:space="preserve" x="128.1" y="414.433" font-family="Calibri" font-size="7.5" fill="rgb(0,0,0)" text-anchor="middle">3</text>
<polygon points="132.1,407.6 140.1,407.6 140.1,415.6 132.1,415.6" fill="rgb(127,230,0)"/><text xml:space="preserve" x="136.1" y="414.433" font-family="Calibri" font-size="7.5" fill="rgb(0,0,0)" text-anchor="middle">2</text>
<polygon points="140.1,407.6 148.1,407.6 148.1,415.6 140.1,415.6" fill="rgb(127,230,0)"/><text xml:space="preserve" x="144.1" y="414.433" font-family="Calibri" font-size="7.5" fill="rgb(0,0,0)" text-anchor="middle">2</text>
<polygon points="148.1,407.6 156.1,407.6 156.1,415.6 148.1,415.6" fill="rgb(230,127,0)"/><text xml:space="preserve" x="152.1" y="414.433" font-family="Calibri" font-size="7.5" fill="rgb(0,0,0)" text-anchor="middle">4</text>
<polygon points="156.1,407.6 164.1,407.6 164.1,415.6 156.1,415.6" fill="rgb(230,127,0)"/><text xml:space="preserve" x="160.1" y="414.433" font-family="Calibri" font-size="7.5" fill="rgb(0,0,0)" text-anchor="middle">4</text>
<polygon points="174.1,407.6 182.1,407.6 182.1,415.6 174.1,415.6" fill="rgb(113,211,99)"/>
<polygon points="182.1,407.6 190.1,407.6 190.1,415.6 182.1,415.6" fill="rgb(19,102,139)"/>
<polygon points="190.1,407.6 198.1,407.6 198.1,415.6 190.1,415.6" fill="rgb(12,74,137)"/>
<polygon points="198.1,407.6 206.1,407.6 206.1,415.6 198.1,415.6" fill="rgb(42,193,144)"/>
<polygon points="206.1,407.6 214.1,407.6 214.1,415.6 206.1,415.6" fill="rgb(219,198,24)"/>
<polygon points="224.1,407.6 232.1,407.6 232.1,415.6 224.1,415.6" fill="rgb(255,255,255)"/>
<polygon points="232.1,407.6 240.1,407.6 240.1,415.6 232.1,415.6" fill="rgb(255,255,255)"/>
<polygon points="240.1,407.6 248.1,407.6 248.1,415.6 240.1,415.6" fill="rgb(255,255,255)"/>
<polygon points="248.1,407.6 256.1,407.6 256.1,415.6 248.1,415.6" fill="rgb(255,255,255)"/>
<polygon points="256.1,407.6 264.1,407.6 264.1,415.6 256.1,415.6" fill="rgb(255,255,255)"/>
<polygon points="264.1,407.6 272.1,407.6 272.1,415.6 264.1,415.6" fill="rgb(255,255,255)"/>
<polygon points="272.1,407.6 280.1,407.6 280.1,415.6 272.1,415.6" fill="rgb(255,255,255)"/>
<polygon points="280.1,407.6 288.1,407.6 288.1,415.6 280.1,415.6" fill="rgb(255,255,255)"/>
<polygon points="124.1,415.6 132.1,415.6 132.1,423.6 124.1,423.6" fill="rgb(255,255,0)"/><text xml:space="preserve" x="128.1" y="422.433" font-family="Calibri" font-size="7.5" fill="rgb(0,0,0)" text-anchor="middle">3</text>
<polygon points="132.1,415.6 140.1,415.6 140.1,423.6 132.1,423.6" fill="rgb(127,230,0)"/><text xml:space="preserve" x="136.1" y="422.433" font-family="Calibri" font-size="7.5" fill="rgb(0,0,0)" text-anchor="middle">2</text>
<polygon points="140.1,415.6 148.1,415.6 148.1,423.6 140.1,423.6" fill="rgb(127,230,0)"/><text xml:space="preserve" x="144.1" y="422.433" font-family="Calibri" font-size="7.5" fill="rgb(0,0,0)" text-anchor="middle">2</text>
<polygon points="148.1,415.6 156.1,415.6 156.1,423.6 148.1,423.6" fill="rgb(230,127,0)"/><text xml:space="preserve" x="152.1" y="422.433" font-family="Calibri" font-size="7.5" fill="rgb(0,0,0)" text-anchor="middle">4</text>
<polygon points="156.1,415.6 164.1,415.6 164.1,423.6 156.1,423.6" fill="rgb(230,127,0)"/><text xml:space="preserve" x="160.1" y="422.433" font-family="Calibri" font-size="7.5" fill="rgb(0,0,0)" text-anchor="middle">4</text>
<polygon points="174.1,415.6 182.1,415.6 182.1,423.6 174.1,423.6" fill="rgb(48,217,145)"/>
<polygon points="182.1,415.6 190.1,415.6 190.1,423.6 182.1,423.6" fill="rgb(22,114,139)"/>
<polygon points="190.1,415.6 198.1,415.6 198.1,423.6 190.1,423.6" fill="rgb(16,91,138)"/>
<polygon points="198.1,415.6 206.1,415.6 206.1,423.6 198.1,423.6" fill="rgb(42,192,144)"/>
<polygon points="206.1,415.6 214.1,415.6 214.1,423.6 206.1,423.6" fill="rgb(100,212,109)"/>
<polygon points="224.1,415.6 232.1,415.6 232.1,423.6 224.1,423.6" fill="rgb(205,0,205)"/>
<polygon points="232.1,415.6 240.1,415.6 240.1,423.6 232.1,423.6" fill="rgb(255,255,255)"/>
<polygon points="240.1,415.6 248.1,415.6 248.1,423.6 240.1,423.6" fill="rgb(255,255,255)"/>
<polygon points="248.1,415.6 256.1,415.6 256.1,423.6 248.1,423.6" fill="rgb(255,255,255)"/>
<polygon points="256.1,415.6 264.1,415.6 264.1,423.6 256.1,423.6" fill="rgb(255,255,255)"/>
<polygon points="264.1,415.6 272.1,415.6 272.1,423.6 264.1,423.6" fill="rgb(255,255,255)"/>
<polygon points="272.1,415.6 280.1,415.6 280.1,423.6 272.1,423.6" fill="rgb(255,255,255)"/>
<polygon points="280.1,415.6 288.1,415.6 288.1,423.6 280.1,423.6" fill="rgb(255,255,255)"/>
<polygon points="124.1,423.6 132.1,423.6 132.1,431.6 124.1,431.6" fill="rgb(255,255,0)"/><text xml:space="preserve" x="128.1" y="430.433" font-family="Calibri" font-size="7.5" fill="rgb(0,0,0)" text-anchor="middle">3</text>
<polygon points="132.1,423.6 140.1,423.6 140.1,431.6 132.1,431.6" fill="rgb(127,230,0)"/><text xml:space="preserve" x="136.1" y="430.433" font-family="Calibri" font-size="7.5" fill="rgb(0,0,0)" text-anchor="middle">2</text>
<polygon points="140.1,423.6 148.1,423.6 148.1,431.6 140.1,431.6" fill="rgb(127,230,0)"/><text xml:space="preserve" x="144.1" y="430.433" font-family="Calibri" font-size="7.5" fill="rgb(0,0,0)" text-anchor="middle">2</text>
<polygon points="148.1,423.6 156.1,423.6 156.1,431.6 148.1,431.6" fill="rgb(230,127,0)"/><text xml:space="preserve" x="152.1" y="430.433" font-family="Calibri" font-size="7.5" fill="rgb(0,0,0)" text-anchor="middle">4</text>
<polygon points="156.1,423.6 164.1,423.6 164.1,431.6 156.1,431.6" fill="rgb(230,127,0)"/><text xml:space="preserve" x="160.1" y="430.433" font-family="Calibri" font-size="7.5" fill="rgb(0,0,0)" text-anchor="middle">4</text>
<polygon points="174.1,423.6 182.1,423.6 182.1,431.6 174.1,431.6" fill="rgb(80,215,123)"/>
<polygon points="182.1,423.6 190.1,423.6 190.1,431.6 182.1,431.6" fill="rgb(22,114,139)"/>
<polygon points="190.1,423.6 198.1,423.6 198.1,431.6 190.1,431.6" fill="rgb(29,142,141)"/>
<polygon points="198.1,423.6 206.1,423.6 206.1,431.6 198.1,431.6" fill="rgb(40,185,144)"/>
<polygon points="206.1,423.6 214.1,423.6 214.1,431.6 206.1,431.6" fill="rgb(120,210,94)"/>
<polygon points="224.1,423.6 232.1,423.6 232.1,431.6 224.1,431.6" fill="rgb(255,255,255)"/>
<polygon points="232.1,423.6 240.1,423.6 240.1,431.6 232.1,431.6" fill="rgb(255,255,255)"/>
<polygon points="240.1,423.6 248.1,423.6 248.1,431.6 240.1,431.6" fill="rgb(255,255,255)"/>
<polygon points="248.1,423.6 256.1,423.6 256.1,431.6 248.1,431.6" fill="rgb(255,255,255)"/>
<polygon points="256.1,423.6 264.1,423.6 264.1,431.6 256.1,431.6" fill="rgb(255,255,255)"/>
<polygon points="264.1,423.6 272.1,423.6 272.1,431.6 264.1,431.6" fill="rgb(255,255,255)"/>
<polygon points="272.1,423.6 280.1,423.6 280.1,431.6 272.1,431.6" fill="rgb(255,255,255)"/>
<polygon points="280.1,423.6 288.1,423.6 288.1,431.6 280.1,431.6" fill="rgb(255,255,255)"/>
<polygon points="124.1,335.6 164.1,335.6 164.1,431.6 124.1,431.6" fill="none" stroke="black" stroke-width="1"/>
<polygon points="174.1,335.6 214.1,335.6 214.1,431.6 174.1,431.6" fill="none" stroke="black" stroke-width="1"/>
<polygon points="224.1,335.6 288.1,335.6 288.1,431.6 224.1,431.6" fill="none" stroke="black" stroke-width="1"/>
<text xml:space="preserve" x="154.05" y="464.6" font-family="Calibri" font-size="8" text-anchor="middle">ClusterAssignment</text>
<polygon points="104.05,471.6 124.05,471.6 124.05,491.6 104.05,491.6" fill="rgb(0,205,0)"/><polygon points="104.05,471.6 124.05,471.6 124.05,491.6 104.05,491.6" fill="none" stroke="black" stroke-width="1"/><text xml:space="preserve" x="114.05" y="484.433" font-family="Calibri" font-size="7.5" fill="rgb(255,255,255)" text-anchor="middle">1.0</text>
<polygon points="124.05,471.6 144.05,471.6 144.05,491.6 124.05,491.6" fill="rgb(127,230,0)"/><polygon points="124.05,471.6 144.05,471.6 144.05,491.6 124.05,491.6" fill="none" stroke="black" stroke-width="1"/><text xml:space="preserve" x="134.05" y="484.433" font-family="Calibri" font-size="7.5" fill="rgb(0,0,0)" text-anchor="middle">2.0</text>
<polygon points="144.05,471.6 164.05,471.6 164.05,491.6 144.05,491.6" fill="rgb(255,255,0)"/><polygon points="144.05,471.6 164.05,471.6 164.05,491.6 144.05,491.6" fill="none" stroke="black" stroke-width="1"/><text xml:space="preserve" x="154.05" y="484.433" font-family="Calibri" font-size="7.5" fill="rgb(0,0,0)" text-anchor="middle">3.0</text>
<polygon points="164.05,471.6 184.05,471.6 184.05,491.6 164.05,491.6" fill="rgb(230,127,0)"/><polygon points="164.05,471.6 184.05,471.6 184.05,491.6 164.05,491.6" fill="none" stroke="black" stroke-width="1"/><text xml:space="preserve" x="174.05" y="484.433" font-family="Calibri" font-size="7.5" fill="rgb(0,0,0)" text-anchor="middle">4.0</text>
<polygon points="184.05,471.6 204.05,471.6 204.05,491.6 184.05,491.6" fill="rgb(205,0,0)"/><polygon points="184.05,471.6 204.05,471.6 204.05,491.6 184.05,491.6" fill="none" stroke="black" stroke-width="1"/><text xml:space="preserve" x="194.05" y="484.433" font-family="Calibri" font-size="7.5" fill="rgb(255,255,255)" text-anchor="middle">5.0</text>
<text xml:space="preserve" x="154.05" y="524.6" font-family="Calibri" font-size="8" text-anchor="middle">Expression</text>
<polygon points="104.05,531.6 124.05,531.6 124.05,551.6 104.05,551.6" fill="rgb(0,27,135)"/><polygon points="104.05,531.6 124.05,531.6 124.05,551.6 104.05,551.6" fill="none" stroke="black" stroke-width="1"/><text xml:space="preserve" x="114.05" y="544.433" font-family="Calibri" font-size="7.5" fill="rgb(255,255,255)" text-anchor="middle">0.0</text>
<polygon points="124.05,531.6 144.05,531.6 144.05,551.6 124.05,551.6" fill="rgb(24,123,140)"/><polygon points="124.05,531.6 144.05,531.6 144.05,551.6 124.05,551.6" fill="none" stroke="black" stroke-width="1"/><text xml:space="preserve" x="134.05" y="544.433" font-family="Calibri" font-size="7.5" fill="rgb(255,255,255)" text-anchor="middle">0.8</text>
<polygon points="144.05,531.6 164.05,531.6 164.05,551.6 144.05,551.6" fill="rgb(49,219,146)"/><polygon points="144.05,531.6 164.05,531.6 164.05,551.6 144.05,551.6" fill="none" stroke="black" stroke-width="1"/><text xml:space="preserve" x="154.05" y="544.433" font-family="Calibri" font-size="7.5" fill="rgb(0,0,0)" text-anchor="middle">1.5</text>
<polygon points="164.05,531.6 184.05,531.6 184.05,551.6 164.05,551.6" fill="rgb(150,206,73)"/><polygon points="164.05,531.6 184.05,531.6 184.05,551.6 164.05,551.6" fill="none" stroke="black" stroke-width="1"/><text xml:space="preserve" x="174.05" y="544.433" font-family="Calibri" font-size="7.5" fill="rgb(0,0,0)" text-anchor="middle">2.2</text>
<polygon points="184.05,531.6 204.05,531.6 204.05,551.6 184.05,551.6" fill="rgb(252,194,1)"/><polygon points="184.05,531.6 204.05,531.6 204.05,551.6 184.05,551.6" fill="none" stroke="black" stroke-width="1"/><text xml:space="preserve" x="194.05" y="544.433" font-family="Calibri" font-size="7.5" fill="rgb(0,0,0)" text-anchor="middle">3.0</text>
<text xml:space="preserve" x="154.05" y="584.6" font-family="Calibri" font-size="8" text-anchor="middle">PANTHERclass</text>
<polygon points="104.05,591.6 124.05,591.6 124.05,611.6 104.05,611.6" fill="rgb(255,255,255)"/><polygon points="104.05,591.6 124.05,591.6 124.05,611.6 104.05,611.6" fill="none" stroke="black" stroke-width="1"/><text xml:space="preserve" x="114.05" y="604.433" font-family="Calibri" font-size="7.5" fill="rgb(0,0,0)" text-anchor="middle">0.0</text>
<polygon points="124.05,591.6 144.05,591.6 144.05,611.6 124.05,611.6" fill="rgb(242,191,242)"/><polygon points="124.05,591.6 144.05,591.6 144.05,611.6 124.05,611.6" fill="none" stroke="black" stroke-width="1"/><text xml:space="preserve" x="134.05" y="604.433" font-family="Calibri" font-size="7.5" fill="rgb(0,0,0)" text-anchor="middle">0.2</text>
<polygon points="144.05,591.6 164.05,591.6 164.05,611.6 144.05,611.6" fill="rgb(230,127,230)"/><polygon points="144.05,591.6 164.05,591.6 164.05,611.6 144.05,611.6" fill="none" stroke="black" stroke-width="1"/><text xml:space="preserve" x="154.05" y="604.433" font-family="Calibri" font-size="7.5" fill="rgb(0,0,0)" text-anchor="middle">0.5</text>
<polygon points="164.05,591.6 184.05,591.6 184.05,611.6 164.05,611.6" fill="rgb(217,63,217)"/><polygon points="164.05,591.6 184.05,591.6 184.05,611.6 164.05,611.6" fill="none" stroke="black" stroke-width="1"/><text xml:space="preserve" x="174.05" y="604.433" font-family="Calibri" font-size="7.5" fill="rgb(255,255,255)" text-anchor="middle">0.8</text>
<polygon points="184.05,591.6 204.05,591.6 204.05,611.6 184.05,611.6" fill="rgb(205,0,205)"/><polygon points="184.05,591.6 204.05,591.6 204.05,611.6 184.05,611.6" fill="none" stroke="black" stroke-width="1"/><text xml:space="preserve" x="194.05" y="604.433" font-family="Calibri" font-size="7.5" fill="rgb(255,255,255)" text-anchor="middle">1.0</text>
</svg>
