<?xml version="1.0" standalone="no"?><!DOCTYPE svg PUBLIC "-//W3C//DTD SVG 1.1//EN" "http://www.w3.org/Graphics/SVG/1.1/DTD/svg11.dtd">
<svg width="294.3" height="599.6" version="1.1" xmlns="http://www.w3.org/2000/svg">
<text xml:space="preserve" x="106.3" y="342.6" font-family="Calibri" font-size="8" text-anchor="end">CCDC114</text>
<text xml:space="preserve" x="106.3" y="350.6" font-family="Calibri" font-size="8" text-anchor="end">ZMYND10</text>
<text xml:space="preserve" x="106.3" y="358.6" font-family="Calibri" font-size="8" text-anchor="end">WDR49</text>
<text xml:space="preserve" x="106.3" y="366.6" font-family="Calibri" font-size="8" text-anchor="end">COLEC12</text>
<text xml:space="preserve" x="106.3" y="374.6" font-family="Calibri" font-size="8" text-anchor="end">LYN</text>
<text xml:space="preserve" x="106.3" y="382.6" font-family="Calibri" font-size="8" text-anchor="end">WNT5A</text>
<text xml:space="preserve" x="106.3" y="390.6" font-family="Calibri" font-size="8" text-anchor="end">SELL</text>
<text xml:space="preserve" x="106.3" y="398.6" font-family="Calibri" font-size="8" text-anchor="end">CD36</text>
<text xml:space="preserve" x="117.3" y="331.6" font-family="Calibri" font-size="8" transform="rotate(270 117.3 331.6)">c2</text>
<text xml:space="preserve" x="125.3" y="331.6" font-family="Calibri" font-size="8" transform="rotate(270 125.3 331.6)">c4</text>
<text xml:space="preserve" x="133.3" y="331.6" font-family="Calibri" font-size="8" transform="rotate(270 133.3 331.6)">c3</text>
<text xml:space="preserve" x="141.3" y="331.6" font-family="Calibri" font-size="8" transform="rotate(270 141.3 331.6)">c1</text>
<text xml:space="preserve" x="149.3" y="331.6" font-family="Calibri" font-size="8" transform="rotate(270 149.3 331.6)">c5</text>
<text xml:space="preserve" x="167.3" y="331.6" font-family="Calibri" font-size="8" transform="rotate(270 167.3 331.6)">c2_mean</text>
<text xml:space="preserve" x="175.3" y="331.6" font-family="Calibri" font-size="8" transform="rotate(270 175.3 331.6)">c4_mean</text>
<text xml:space="preserve" x="183.3" y="331.6" font-family="Calibri" font-size="8" transform="rotate(270 183.3 331.6)">c3_mean</text>
<text xml:space="preserve" x="191.3" y="331.6" font-family="Calibri" font-size="8" transform="rotate(270 191.3 331.6)">c1_mean</text>
<text xml:space="preserve" x="199.3" y="331.6" font-family="Calibri" font-size="8" transform="rotate(270 199.3 331.6)">c5_mean</text>
<text xml:space="preserve" x="217.3" y="331.6" font-family="Calibri" font-size="8" transform="rotate(270 217.3 331.6)">transcription_factor</text>
<text xml:space="preserve" x="225.3" y="331.6" font-family="Calibri" font-size="8" transform="rotate(270 225.3 331.6)">transmembrane_signal_receptor</text>
<text xml:space="preserve" x="233.3" y="331.6" font-family="Calibri" font-size="8" transform="rotate(270 233.3 331.6)">growth_factor</text>
<text xml:space="preserve" x="241.3" y="331.6" font-family="Calibri" font-size="8" transform="rotate(270 241.3 331.6)">peptide_hormone</text>
<text xml:space="preserve" x="249.3" y="331.6" font-family="Calibri" font-size="8" transform="rotate(270 249.3 331.6)">cytoskeletal_protein</text>
<text xml:space="preserve" x="257.3" y="331.6" font-family="Calibri" font-size="8" transform="rotate(270 257.3 331.6)">ion_channel</text>
<text xml:space="preserve" x="265.3" y="331.6" font-family="Calibri" font-size="8" transform="rotate(270 265.3 331.6)">integrin</text>
<text xml:space="preserve" x="273.3" y="331.6" font-family="Calibri" font-size="8" transform="rotate(270 273.3 331.6)">extracellular_matrix_protein</text>
<polygon points="110.3,335.6 118.3,335.6 118.3,343.6 110.3,343.6" fill="rgb(230,127,0)"/><text xml:space="preserve" x="114.3" y="342.433" font-family="Calibri" font-size="7.5" fill="rgb(0,0,0)" text-anchor="middle">4</text>
<polygon points="118.3,335.6 126.3,335.6 126.3,343.6 118.3,343.6" fill="rgb(230,127,0)"/><text xml:space="preserve" x="122.3" y="342.433" font-family="Calibri" font-size="7.5" fill="rgb(0,0,0)" text-anchor="middle">4</text>
<polygon points="126.3,335.6 134.3,335.6 134.3,343.6 126.3,343.6" fill="rgb(255,255,0)"/><text xml:space="preserve" x="130.3" y="342.433" font-family="Calibri" font-size="7.5" fill="rgb(0,0,0)" text-anchor="middle">3</text>
<polygon points="134.3,335.6 142.3,335.6 142.3,343.6 134.3,343.6" fill="rgb(127,230,0)"/><text xml:space="preserve" x="138.3" y="342.433" font-family="Calibri" font-size="7.5" fill="rgb(0,0,0)" text-anchor="middle">2</text>
<polygon points="142.3,335.6 150.3,335.6 150.3,343.6 142.3,343.6" fill="rgb(205,0,0)"/><text xml:space="preserve" x="146.3" y="342.433" font-family="Calibri" font-size="7.5" fill="rgb(255,255,255)" text-anchor="middle">5</text>
<polygon points="160.3,335.6 168.3,335.6 168.3,343.6 160.3,343.6" fill="rgb(252,194,1)"/>
<polygon points="168.3,335.6 176.3,335.6 176.3,343.6 168.3,343.6" fill="rgb(252,194,1)"/>
<polygon points="176.3,335.6 184.3,335.6 184.3,343.6 176.3,343.6" fill="rgb(37,175,143)"/>
<polygon points="184.3,335.6 192.3,335.6 192.3,343.6 184.3,343.6" fill="rgb(29,142,141)"/>
<polygon points="192.3,335.6 200.3,335.6 200.3,343.6 192.3,343.6" fill="rgb(252,194,1)"/>
<polygon points="210.3,335.6 218.3,335.6 218.3,343.6 210.3,343.6" fill="rgb(255,255,255)"/>
<polygon points="218.3,335.6 226.3,335.6 226.3,343.6 218.3,343.6" fill="rgb(255,255,255)"/>
<polygon points="226.3,335.6 234.3,335.6 234.3,343.6 226.3,343.6" fill="rgb(255,255,255)"/>
<polygon points="234.3,335.6 242.3,335.6 242.3,343.6 234.3,343.6" fill="rgb(255,255,255)"/>
<polygon points="242.3,335.6 250.3,335.6 250.3,343.6 242.3,343.6" fill="rgb(255,255,255)"/>
<polygon points="250.3,335.6 258.3,335.6 258.3,343.6 250.3,343.6" fill="rgb(255,255,255)"/>
<polygon points="258.3,335.6 266.3,335.6 266.3,343.6 258.3,343.6" fill="rgb(255,255,255)"/>
<polygon points="266.3,335.6 274.3,335.6 274.3,343.6 266.3,343.6" fill="rgb(255,255,255)"/>
<polygon points="110.3,343.6 118.3,343.6 118.3,351.6 110.3,351.6" fill="rgb(230,127,0)"/><text xml:space="preserve" x="114.3" y="350.433" font-family="Calibri" font-size="7.5" fill="rgb(0,0,0)" text-anchor="middle">4</text>
<polygon points="118.3,343.6 126.3,343.6 126.3,351.6 118.3,351.6" fill="rgb(230,127,0)"/><text xml:space="preserve" x="122.3" y="350.433" font-family="Calibri" font-size="7.5" fill="rgb(0,0,0)" text-anchor="middle">4</text>
<polygon points="126.3,343.6 134.3,343.6 134.3,351.6 126.3,351.6" fill="rgb(255,255,0)"/><text xml:space="preserve" x="130.3" y="350.433" font-family="Calibri" font-size="7.5" fill="rgb(0,0,0)" text-anchor="middle">3</text>
<polygon points="134.3,343.6 142.3,343.6 142.3,351.6 134.3,351.6" fill="rgb(127,230,0)"/><text xml:space="preserve" x="138.3" y="350.433" font-family="Calibri" font-size="7.5" fill="rgb(0,0,0)" text-anchor="middle">2</text>
<polygon points="142.3,343.6 150.3,343.6 150.3,351.6 142.3,351.6" fill="rgb(205,0,0)"/><text xml:space="preserve" x="146.3" y="350.433" font-family="Calibri" font-size="7.5" fill="rgb(255,255,255)" text-anchor="middle">5</text>
<polygon points="160.3,343.6 168.3,343.6 168.3,351.6 160.3,351.6" fill="rgb(252,194,1)"/>
<polygon points="168.3,343.6 176.3,343.6 176.3,351.6 168.3,351.6" fill="rgb(252,194,1)"/>
<polygon points="176.3,343.6 184.3,343.6 184.3,351.6 176.3,351.6" fill="rgb(47,212,145)"/>
<polygon points="184.3,343.6 192.3,343.6 192.3,351.6 184.3,351.6" fill="rgb(27,135,141)"/>
<polygon points="192.3,343.6 200.3,343.6 200.3,351.6 192.3,351.6" fill="rgb(252,194,1)"/>
<polygon points="210.3,343.6 218.3,343.6 218.3,351.6 210.3,351.6" fill="rgb(255,255,255)"/>
<polygon points="218.3,343.6 226.3,343.6 226.3,351.6 218.3,351.6" fill="rgb(255,255,255)"/>
<polygon points="226.3,343.6 234.3,343.6 234.3,351.6 226.3,351.6" fill="rgb(255,255,255)"/>
<polygon points="234.3,343.6 242.3,343.6 242.3,351.6 234.3,351.6" fill="rgb(255,255,255)"/>
<polygon points="242.3,343.6 250.3,343.6 250.3,351.6 242.3,351.6" fill="rgb(255,255,255)"/>
<polygon points="250.3,343.6 258.3,343.6 258.3,351.6 250.3,351.6" fill="rgb(255,255,255)"/>
<polygon points="258.3,343.6 266.3,343.6 266.3,351.6 258.3,351.6" fill="rgb(255,255,255)"/>
<polygon points="266.3,343.6 274.3,343.6 274.3,351.6 266.3,351.6" fill="rgb(255,255,255)"/>
<polygon points="110.3,351.6 118.3,351.6 118.3,359.6 110.3,359.6" fill="rgb(230,127,0)"/><text xml:space="preserve" x="114.3" y="358.433" font-family="Calibri" font-size="7.5" fill="rgb(0,0,0)" text-anchor="middle">4</text>
<polygon points="118.3,351.6 126.3,351.6 126.3,359.6 118.3,359.6" fill="rgb(230,127,0)"/><text xml:space="preserve" x="122.3" y="358.433" font-family="Calibri" font-size="7.5" fill="rgb(0,0,0)" text-anchor="middle">4</text>
<polygon points="126.3,351.6 134.3,351.6 134.3,359.6 126.3,359.6" fill="rgb(255,255,0)"/><text xml:space="preserve" x="130.3" y="358.433" font-family="Calibri" font-size="7.5" fill="rgb(0,0,0)" text-anchor="middle">3</text>
<polygon points="134.3,351.6 142.3,351.6 142.3,359.6 134.3,359.6" fill="rgb(127,230,0)"/><text xml:space="preserve" x="138.3" y="358.433" font-family="Calibri" font-size="7.5" fill="rgb(0,0,0)" text-anchor="middle">2</text>
<polygon points="142.3,351.6 150.3,351.6 150.3,359.6 142.3,359.6" fill="rgb(205,0,0)"/><text xml:space="preserve" x="146.3" y="358.433" font-family="Calibri" font-size="7.5" fill="rgb(255,255,255)" text-anchor="middle">5</text>
<polygon points="160.3,351.6 168.3,351.6 168.3,359.6 160.3,359.6" fill="rgb(252,194,1)"/>
<polygon points="168.3,351.6 176.3,351.6 176.3,359.6 168.3,359.6" fill="rgb(252,194,1)"/>
<polygon points="176.3,351.6 184.3,351.6 184.3,359.6 176.3,359.6" fill="rgb(108,211,103)"/>
<polygon points="184.3,351.6 192.3,351.6 192.3,359.6 184.3,359.6" fill="rgb(18,101,139)"/>
<polygon points="192.3,351.6 200.3,351.6 200.3,359.6 192.3,359.6" fill="rgb(231,196,15)"/>
<polygon points="210.3,351.6 218.3,351.6 218.3,359.6 210.3,359.6" fill="rgb(255,255,255)"/>
<polygon points="218.3,351.6 226.3,351.6 226.3,359.6 218.3,359.6" fill="rgb(255,255,255)"/>
<polygon points="226.3,351.6 234.3,351.6 234.3,359.6 226.3,359.6" fill="rgb(255,255,255)"/>
<polygon points="234.3,351.6 242.3,351.6 242.3,359.6 234.3,359.6" fill="rgb(255,255,255)"/>
<polygon points="242.3,351.6 250.3,351.6 250.3,359.6 242.3,359.6" fill="rgb(255,255,255)"/>
<polygon points="250.3,351.6 258.3,351.6 258.3,359.6 250.3,359.6" fill="rgb(255,255,255)"/>
<polygon points="258.3,351.6 266.3,351.6 266.3,359.6 258.3,359.6" fill="rgb(255,255,255)"/>
<polygon points="266.3,351.6 274.3,351.6 274.3,359.6 266.3,359.6" fill="rgb(255,255,255)"/>
<polygon points="110.3,359.6 118.3,359.6 118.3,367.6 110.3,367.6" fill="rgb(230,127,0)"/><text xml:space="preserve" x="114.3" y="366.433" font-family="Calibri" font-size="7.5" fill="rgb(0,0,0)" text-anchor="middle">4</text>
<polygon points="118.3,359.6 126.3,359.6 126.3,367.6 118.3,367.6" fill="rgb(230,127,0)"/><text xml:space="preserve" x="122.3" y="366.433" font-family="Calibri" font-size="7.5" fill="rgb(0,0,0)" text-anchor="middle">4</text>
<polygon points="126.3,359.6 134.3,359.6 134.3,367.6 126.3,367.6" fill="rgb(255,255,0)"/><text xml:space="preserve" x="130.3" y="366.433" font-family="Calibri" font-size="7.5" fill="rgb(0,0,0)" text-anchor="middle">3</text>
<polygon points="134.3,359.6 142.3,359.6 142.3,367.6 134.3,367.6" fill="rgb(127,230,0)"/><text xml:space="preserve" x="138.3" y="366.433" font-family="Calibri" font-size="7.5" fill="rgb(0,0,0)" text-anchor="middle">2</text>
<polygon points="142.3,359.6 150.3,359.6 150.3,367.6 142.3,367.6" fill="rgb(205,0,0)"/><text xml:space="preserve" x="146.3" y="366.433" font-family="Calibri" font-size="7.5" fill="rgb(255,255,255)" text-anchor="middle">5</text>
<polygon points="160.3,359.6 168.3,359.6 168.3,367.6 160.3,367.6" fill="rgb(252,194,1)"/>
<polygon points="168.3,359.6 176.3,359.6 176.3,367.6 168.3,367.6" fill="rgb(165,204,62)"/>
<polygon points="176.3,359.6 184.3,359.6 184.3,367.6 176.3,367.6" fill="rgb(46,208,145)"/>
<polygon points="184.3,359.6 192.3,359.6 192.3,367.6 184.3,367.6" fill="rgb(11,73,137)"/>
<polygon points="192.3,359.6 200.3,359.6 200.3,367.6 192.3,367.6" fill="rgb(223,197,21)"/>
<polygon points="210.3,359.6 218.3,359.6 218.3,367.6 210.3,367.6" fill="rgb(255,255,255)"/>
<polygon points="218.3,359.6 226.3,359.6 226.3,367.6 218.3,367.6" fill="rgb(255,255,255)"/>
<polygon points="226.3,359.6 234.3,359.6 234.3,367.6 226.3,367.6" fill="rgb(255,255,255)"/>
<polygon points="234.3,359.6 242.3,359.6 242.3,367.6 234.3,367.6" fill="rgb(255,255,255)"/>
<polygon points="242.3,359.6 250.3,359.6 250.3,367.6 242.3,367.6" fill="rgb(255,255,255)"/>
<polygon points="250.3,359.6 258.3,359.6 258.3,367.6 250.3,367.6" fill="rgb(255,255,255)"/>
<polygon points="258.3,359.6 266.3,359.6 266.3,367.6 258.3,367.6" fill="rgb(255,255,255)"/>
<polygon points="266.3,359.6 274.3,359.6 274.3,367.6 266.3,367.6" fill="rgb(255,255,255)"/>
<polygon points="110.3,367.6 118.3,367.6 118.3,375.6 110.3,375.6" fill="rgb(230,127,0)"/><text xml:space="preserve" x="114.3" y="374.433" font-family="Calibri" font-size="7.5" fill="rgb(0,0,0)" text-anchor="middle">4</text>
<polygon points="118.3,367.6 126.3,367.6 126.3,375.6 118.3,375.6" fill="rgb(230,127,0)"/><text xml:space="preserve" x="122.3" y="374.433" font-family="Calibri" font-size="7.5" fill="rgb(0,0,0)" text-anchor="middle">4</text>
<polygon points="126.3,367.6 134.3,367.6 134.3,375.6 126.3,375.6" fill="rgb(255,255,0)"/><text xml:space="preserve" x="130.3" y="374.433" font-family="Calibri" font-size="7.5" fill="rgb(0,0,0)" text-anchor="middle">3</text>
<polygon points="134.3,367.6 142.3,367.6 142.3,375.6 134.3,375.6" fill="rgb(127,230,0)"/><text xml:space="preserve" x="138.3" y="374.433" font-family="Calibri" font-size="7.5" fill="rgb(0,0,0)" text-anchor="middle">2</text>
<polygon points="142.3,367.6 150.3,367.6 150.3,375.6 142.3,375.6" fill="rgb(205,0,0)"/><text xml:space="preserve" x="146.3" y="374.433" font-family="Calibri" font-size="7.5" fill="rgb(255,255,255)" text-anchor="middle">5</text>
<polygon points="160.3,367.6 168.3,367.6 168.3,375.6 160.3,375.6" fill="rgb(252,194,1)"/>
<polygon points="168.3,367.6 176.3,367.6 176.3,375.6 168.3,375.6" fill="rgb(252,194,1)"/>
<polygon points="176.3,367.6 184.3,367.6 184.3,375.6 176.3,375.6" fill="rgb(53,218,143)"/>
<polygon points="184.3,367.6 192.3,367.6 192.3,375.6 184.3,375.6" fill="rgb(16,89,138)"/>
<polygon points="192.3,367.6 200.3,367.6 200.3,375.6 192.3,375.6" fill="rgb(252,194,1)"/>
<polygon points="210.3,367.6 218.3,367.6 218.3,375.6 210.3,375.6" fill="rgb(255,255,255)"/>
<polygon points="218.3,367.6 226.3,367.6 226.3,375.6 218.3,375.6" fill="rgb(255,255,255)"/>
<polygon points="226.3,367.6 234.3,367.6 234.3,375.6 226.3,375.6" fill="rgb(255,255,255)"/>
<polygon points="234.3,367.6 242.3,367.6 242.3,375.6 234.3,375.6" fill="rgb(255,255,255)"/>
<polygon points="242.3,367.6 250.3,367.6 250.3,375.6 242.3,375.6" fill="rgb(255,255,255)"/>
<polygon points="250.3,367.6 258.3,367.6 258.3,375.6 250.3,375.6" fill="rgb(255,255,255)"/>
<polygon points="258.3,367.6 266.3,367.6 266.3,375.6 258.3,375.6" fill="rgb(205,0,205)"/>
<polygon points="266.3,367.6 274.3,367.6 274.3,375.6 266.3,375.6" fill="rgb(255,255,255)"/>
<polygon points="110.3,375.6 118.3,375.6 118.3,383.6 110.3,383.6" fill="rgb(230,127,0)"/><text xml:space="preserve" x="114.3" y="382.433" font-family="Calibri" font-size="7.5" fill="rgb(0,0,0)" text-anchor="middle">4</text>
<polygon points="118.3,375.6 126.3,375.6 126.3,383.6 118.3,383.6" fill="rgb(230,127,0)"/><text xml:space="preserve" x="122.3" y="382.433" font-family="Calibri" font-size="7.5" fill="rgb(0,0,0)" text-anchor="middle">4</text>
<polygon points="126.3,375.6 134.3,375.6 134.3,383.6 126.3,383.6" fill="rgb(255,255,0)"/><text xml:space="preserve" x="130.3" y="382.433" font-family="Calibri" font-size="7.5" fill="rgb(0,0,0)" text-anchor="middle">3</text>
<polygon points="134.3,375.6 142.3,375.6 142.3,383.6 134.3,383.6" fill="rgb(127,230,0)"/><text xml:space="preserve" x="138.3" y="382.433" font-family="Calibri" font-size="7.5" fill="rgb(0,0,0)" text-anchor="middle">2</text>
<polygon points="142.3,375.6 150.3,375.6 150.3,383.6 142.3,383.6" fill="rgb(205,0,0)"/><text xml:space="preserve" x="146.3" y="382.433" font-family="Calibri" font-size="7.5" fill="rgb(255,255,255)" text-anchor="middle">5</text>
<polygon points="160.3,375.6 168.3,375.6 168.3,383.6 160.3,383.6" fill="rgb(252,194,1)"/>
<polygon points="168.3,375.6 176.3,375.6 176.3,383.6 168.3,383.6" fill="rgb(208,199,31)"/>
<polygon points="176.3,375.6 184.3,375.6 184.3,383.6 176.3,383.6" fill="rgb(88,214,117)"/>
<polygon points="184.3,375.6 192.3,375.6 192.3,383.6 184.3,383.6" fill="rgb(24,121,140)"/>
<polygon points="192.3,375.6 200.3,375.6 200.3,383.6 192.3,383.6" fill="rgb(231,196,15)"/>
<polygon points="210.3,375.6 218.3,375.6 218.3,383.6 210.3,383.6" fill="rgb(255,255,255)"/>
<polygon points="218.3,375.6 226.3,375.6 226.3,383.6 218.3,383.6" fill="rgb(255,255,255)"/>
<polygon points="226.3,375.6 234.3,375.6 234.3,383.6 226.3,383.6" fill="rgb(255,255,255)"/>
<polygon points="234.3,375.6 242.3,375.6 242.3,383.6 234.3,383.6" fill="rgb(255,255,255)"/>
<polygon points="242.3,375.6 250.3,375.6 250.3,383.6 242.3,383.6" fill="rgb(255,255,255)"/>
<polygon points="250.3,375.6 258.3,375.6 258.3,383.6 250.3,383.6" fill="rgb(255,255,255)"/>
<polygon points="258.3,375.6 266.3,375.6 266.3,383.6 258.3,383.6" fill="rgb(255,255,255)"/>
<polygon points="266.3,375.6 274.3,375.6 274.3,383.6 266.3,383.6" fill="rgb(255,255,255)"/>
<polygon points="110.3,383.6 118.3,383.6 118.3,391.6 110.3,391.6" fill="rgb(230,127,0)"/><text xml:space="preserve" x="114.3" y="390.433" font-family="Calibri" font-size="7.5" fill="rgb(0,0,0)" text-anchor="middle">4</text>
<polygon points="118.3,383.6 126.3,383.6 126.3,391.6 118.3,391.6" fill="rgb(230,127,0)"/><text xml:space="preserve" x="122.3" y="390.433" font-family="Calibri" font-size="7.5" fill="rgb(0,0,0)" text-anchor="middle">4</text>
<polygon points="126.3,383.6 134.3,383.6 134.3,391.6 126.3,391.6" fill="rgb(255,255,0)"/><text xml:space="preserve" x="130.3" y="390.433" font-family="Calibri" font-size="7.5" fill="rgb(0,0,0)" text-anchor="middle">3</text>
<polygon points="134.3,383.6 142.3,383.6 142.3,391.6 134.3,391.6" fill="rgb(127,230,0)"/><text xml:space="preserve" x="138.3" y="390.433" font-family="Calibri" font-size="7.5" fill="rgb(0,0,0)" text-anchor="middle">2</text>
<polygon points="142.3,383.6 150.3,383.6 150.3,391.6 142.3,391.6" fill="rgb(205,0,0)"/><text xml:space="preserve" x="146.3" y="390.433" font-family="Calibri" font-size="7.5" fill="rgb(255,255,255)" text-anchor="middle">5</text>
<polygon points="160.3,383.6 168.3,383.6 168.3,391.6 160.3,391.6" fill="rgb(252,194,1)"/>
<polygon points="168.3,383.6 176.3,383.6 176.3,391.6 168.3,391.6" fill="rgb(252,194,1)"/>
<polygon points="176.3,383.6 184.3,383.6 184.3,391.6 176.3,391.6" fill="rgb(38,179,143)"/>
<polygon points="184.3,383.6 192.3,383.6 192.3,391.6 184.3,391.6" fill="rgb(33,158,142)"/>
<polygon points="192.3,383.6 200.3,383.6 200.3,391.6 192.3,391.6" fill="rgb(252,194,1)"/>
<polygon points="210.3,383.6 218.3,383.6 218.3,391.6 210.3,391.6" fill="rgb(255,255,255)"/>
<polygon points="218.3,383.6 226.3,383.6 226.3,391.6 218.3,391.6" fill="rgb(255,255,255)"/>
<polygon points="226.3,383.6 234.3,383.6 234.3,391.6 226.3,391.6" fill="rgb(255,255,255)"/>
<polygon points="234.3,383.6 242.3,383.6 242.3,391.6 234.3,391.6" fill="rgb(255,255,255)"/>
<polygon points="242.3,383.6 250.3,383.6 250.3,391.6 242.3,391.6" fill="rgb(255,255,255)"/>
<polygon points="250.3,383.6 258.3,383.6 258.3,391.6 250.3,391.6" fill="rgb(255,255,255)"/>
<polygon points="258.3,383.6 266.3,383.6 266.3,391.6 258.3,391.6" fill="rgb(255,255,255)"/>
<polygon points="266.3,383.6 274.3,383.6 274.3,391.6 266.3,391.6" fill="rgb(255,255,255)"/>
<polygon points="110.3,391.6 118.3,391.6 118.3,399.6 110.3,399.6" fill="rgb(230,127,0)"/><text xml:space="preserve" x="114.3" y="398.433" font-family="Calibri" font-size="7.5" fill="rgb(0,0,0)" text-anchor="middle">4</text>
<polygon points="118.3,391.6 126.3,391.6 126.3,399.6 118.3,399.6" fill="rgb(230,127,0)"/><text xml:space="preserve" x="122.3" y="398.433" font-family="Calibri" font-size="7.5" fill="rgb(0,0,0)" text-anchor="middle">4</text>
<polygon points="126.3,391.6 134.3,391.6 134.3,399.6 126.3,399.6" fill="rgb(255,255,0)"/><text xml:space="preserve" x="130.3" y="398.433" font-family="Calibri" font-size="7.5" fill="rgb(0,0,0)" text-anchor="middle">3</text>
<polygon points="134.3,391.6 142.3,391.6 142.3,399.6 134.3,399.6" fill="rgb(127,230,0)"/><text xml:space="preserve" x="138.3" y="398.433" font-family="Calibri" font-size="7.5" fill="rgb(0,0,0)" text-anchor="middle">2</text>
<polygon points="142.3,391.6 150.3,391.6 150.3,399.6 142.3,399.6" fill="rgb(205,0,0)"/><text xml:space="preserve" x="146.3" y="398.433" font-family="Calibri" font-size="7.5" fill="rgb(255,255,255)" text-anchor="middle">5</text>
<polygon points="160.3,391.6 168.3,391.6 168.3,399.6 160.3,399.6" fill="rgb(252,194,1)"/>
<polygon points="168.3,391.6 176.3,391.6 176.3,399.6 168.3,399.6" fill="rgb(252,194,1)"/>
<polygon points="176.3,391.6 184.3,391.6 184.3,399.6 176.3,399.6" fill="rgb(80,215,123)"/>
<polygon points="184.3,391.6 192.3,391.6 192.3,399.6 184.3,399.6" fill="rgb(16,89,138)"/>
<polygon points="192.3,391.6 200.3,391.6 200.3,399.6 192.3,399.6" fill="rgb(252,194,1)"/>
<polygon points="210.3,391.6 218.3,391.6 218.3,399.6 210.3,399.6" fill="rgb(255,255,255)"/>
<polygon points="218.3,391.6 226.3,391.6 226.3,399.6 218.3,399.6" fill="rgb(255,255,255)"/>
<polygon points="226.3,391.6 234.3,391.6 234.3,399.6 226.3,399.6" fill="rgb(255,255,255)"/>
<polygon points="234.3,391.6 242.3,391.6 242.3,399.6 234.3,399.6" fill="rgb(255,255,255)"/>
<polygon points="242.3,391.6 250.3,391.6 250.3,399.6 242.3,399.6" fill="rgb(255,255,255)"/>
<polygon points="250.3,391.6 258.3,391.6 258.3,399.6 250.3,399.6" fill="rgb(255,255,255)"/>
<polygon points="258.3,391.6 266.3,391.6 266.3,399.6 258.3,399.6" fill="rgb(255,255,255)"/>
<polygon points="266.3,391.6 274.3,391.6 274.3,399.6 266.3,399.6" fill="rgb(255,255,255)"/>
<polygon points="110.3,335.6 150.3,335.6 150.3,399.6 110.3,399.6" fill="none" stroke="black" stroke-width="1"/>
<polygon points="160.3,335.6 200.3,335.6 200.3,399.6 160.3,399.6" fill="none" stroke="black" stroke-width="1"/>
<polygon points="210.3,335.6 274.3,335.6 274.3,399.6 210.3,399.6" fill="none" stroke="black" stroke-width="1"/>
<text xml:space="preserve" x="147.15" y="432.6" font-family="Calibri" font-size="8" text-anchor="middle">ClusterAssignment</text>
<polygon points="97.15,439.6 117.15,439.6 117.15,459.6 97.15,459.6" fill="rgb(0,205,0)"/><polygon points="97.15,439.6 117.15,439.6 117.15,459.6 97.15,459.6" fill="none" stroke="black" stroke-width="1"/><text xml:space="preserve" x="107.15" y="452.433" font-family="Calibri" font-size="7.5" fill="rgb(255,255,255)" text-anchor="middle">1.0</text>
<polygon points="117.15,439.6 137.15,439.6 137.15,459.6 117.15,459.6" fill="rgb(127,230,0)"/><polygon points="117.15,439.6 137.15,439.6 137.15,459.6 117.15,459.6" fill="none" stroke="black" stroke-width="1"/><text xml:space="preserve" x="127.15" y="452.433" font-family="Calibri" font-size="7.5" fill="rgb(0,0,0)" text-anchor="middle">2.0</text>
<polygon points="137.15,439.6 157.15,439.6 157.15,459.6 137.15,459.6" fill="rgb(255,255,0)"/><polygon points="137.15,439.6 157.15,439.6 157.15,459.6 137.15,459.6" fill="none" stroke="black" stroke-width="1"/><text xml:space="preserve" x="147.15" y="452.433" font-family="Calibri" font-size="7.5" fill="rgb(0,0,0)" text-anchor="middle">3.0</text>
<polygon points="157.15,439.6 177.15,439.6 177.15,459.6 157.15,459.6" fill="rgb(230,127,0)"/><polygon points="157.15,439.6 177.15,439.6 177.15,459.6 157.15,459.6" fill="none" stroke="black" stroke-width="1"/><text xml:space="preserve" x="167.15" y="452.433" font-family="Calibri" font-size="7.5" fill="rgb(0,0,0)" text-anchor="middle">4.0</text>
<polygon points="177.15,439.6 197.15,439.6 197.15,459.6 177.15,459.6" fill="rgb(205,0,0)"/><polygon points="177.15,439.6 197.15,439.6 197.15,459.6 177.15,459.6" fill="none" stroke="black" stroke-width="1"/><text xml:space="preserve" x="187.15" y="452.433" font-family="Calibri" font-size="7.5" fill="rgb(255,255,255)" text-anchor="middle">5.0</text>
<text xml:space="preserve" x="147.15" y="492.6" font-family="Calibri" font-size="8" text-anchor="middle">Expression</text>
<polygon points="97.15,499.6 117.15,499.6 117.15,519.6 97.15,519.6" fill="rgb(0,27,135)"/><polygon points="97.15,499.6 117.15,499.6 117.15,519.6 97.15,519.6" fill="none" stroke="black" stroke-width="1"/><text xml:space="preserve" x="107.15" y="512.433" font-family="Calibri" font-size="7.5" fill="rgb(255,255,255)" text-anchor="middle">0.0</text>
<polygon points="117.15,499.6 137.15,499.6 137.15,519.6 117.15,519.6" fill="rgb(24,123,140)"/><polygon points="117.15,499.6 137.15,499.6 137.15,519.6 117.15,519.6" fill="none" stroke="black" stroke-width="1"/><text xml:space="preserve" x="127.15" y="512.433" font-family="Calibri" font-size="7.5" fill="rgb(255,255,255)" text-anchor="middle">0.8</text>
<polygon points="137.15,499.6 157.15,499.6 157.15,519.6 137.15,519.6" fill="rgb(49,219,146)"/><polygon points="137.15,499.6 157.15,499.6 157.15,519.6 137.15,519.6" fill="none" stroke="black" stroke-width="1"/><text xml:space="preserve" x="147.15" y="512.433" font-family="Calibri" font-size="7.5" fill="rgb(0,0,0)" text-anchor="middle">1.5</text>
<polygon points="157.15,499.6 177.15,499.6 177.15,519.6 157.15,519.6" fill="rgb(150,206,73)"/><polygon points="157.15,499.6 177.15,499.6 177.15,519.6 157.15,519.6" fill="none" stroke="black" stroke-width="1"/><text xml:space="preserve" x="167.15" y="512.433" font-family="Calibri" font-size="7.5" fill="rgb(0,0,0)" text-anchor="middle">2.2</text>
<polygon points="177.15,499.6 197.15,499.6 197.15,519.6 177.15,519.6" fill="rgb(252,194,1)"/><polygon points="177.15,499.6 197.15,499.6 197.15,519.6 177.15,519.6" fill="none" stroke="black" stroke-width="1"/><text xml:space="preserve" x="187.15" y="512.433" font-family="Calibri" font-size="7.5" fill="rgb(0,0,0)" text-anchor="middle">3.0</text>
<text xml:space="preserve" x="147.15" y="552.6" font-family="Calibri" font-size="8" text-anchor="middle">PANTHERclass</text>
<polygon points="97.15,559.6 117.15,559.6 117.15,579.6 97.15,579.6" fill="rgb(255,255,255)"/><polygon points="97.15,559.6 117.15,559.6 117.15,579.6 97.15,579.6" fill="none" stroke="black" stroke-width="1"/><text xml:space="preserve" x="107.15" y="572.433" font-family="Calibri" font-size="7.5" fill="rgb(0,0,0)" text-anchor="middle">0.0</text>
<polygon points="117.15,559.6 137.15,559.6 137.15,579.6 117.15,579.6" fill="rgb(242,191,242)"/><polygon points="117.15,559.6 137.15,559.6 137.15,579.6 117.15,579.6" fill="none" stroke="black" stroke-width="1"/><text xml:space="preserve" x="127.15" y="572.433" font-family="Calibri" font-size="7.5" fill="rgb(0,0,0)" text-anchor="middle">0.2</text>
<polygon points="137.15,559.6 157.15,559.6 157.15,579.6 137.15,579.6" fill="rgb(230,127,230)"/><polygon points="137.15,559.6 157.15,559.6 157.15,579.6 137.15,579.6" fill="none" stroke="black" stroke-width="1"/><text xml:space="preserve" x="147.15" y="572.433" font-family="Calibri" font-size="7.5" fill="rgb(0,0,0)" text-anchor="middle">0.5</text>
<polygon points="157.15,559.6 177.15,559.6 177.15,579.6 157.15,579.6" fill="rgb(217,63,217)"/><polygon points="157.15,559.6 177.15,559.6 177.15,579.6 157.15,579.6" fill="none" stroke="black" stroke-width="1"/><text xml:space="preserve" x="167.15" y="572.433" font-family="Calibri" font-size="7.5" fill="rgb(255,255,255)" text-anchor="middle">0.8</text>
<polygon points="177.15,559.6 197.15,559.6 197.15,579.6 177.15,579.6" fill="rgb(205,0,205)"/><polygon points="177.15,559.6 197.15,559.6 197.15,579.6 177.15,579.6" fill="none" stroke="black" stroke-width="1"/><text xml:space="preserve" x="187.15" y="572.433" font-family="Calibri" font-size="7.5" fill="rgb(255,255,255)" text-anchor="middle">1.0</text>
</svg>
