<?xml version="1.0" standalone="no"?><!DOCTYPE svg PUBLIC "-//W3C//DTD SVG 1.1//EN" "http://www.w3.org/Graphics/SVG/1.1/DTD/svg11.dtd">
<svg width="288.6" height="607.6" version="1.1" xmlns="http://www.w3.org/2000/svg">
<text xml:space="preserve" x="100.6" y="342.6" font-family="Calibri" font-size="8" text-anchor="end">ANLN</text>
<text xml:space="preserve" x="100.6" y="350.6" font-family="Calibri" font-size="8" text-anchor="end">MYO3A</text>
<text xml:space="preserve" x="100.6" y="358.6" font-family="Calibri" font-size="8" text-anchor="end">NCAPH</text>
<text xml:space="preserve" x="100.6" y="366.6" font-family="Calibri" font-size="8" text-anchor="end">RECQL4</text>
<text xml:space="preserve" x="100.6" y="374.6" font-family="Calibri" font-size="8" text-anchor="end">BUB1B</text>
<text xml:space="preserve" x="100.6" y="382.6" font-family="Calibri" font-size="8" text-anchor="end">TICRR</text>
<text xml:space="preserve" x="100.6" y="390.6" font-family="Calibri" font-size="8" text-anchor="end">E2F2</text>
<text xml:space="preserve" x="100.6" y="398.6" font-family="Calibri" font-size="8" text-anchor="end">NCAPG2</text>
<text xml:space="preserve" x="100.6" y="406.6" font-family="Calibri" font-size="8" text-anchor="end">DEPDC1B</text>
<text xml:space="preserve" x="111.6" y="331.6" font-family="Calibri" font-size="8" transform="rotate(270 111.6 331.6)">c2</text>
<text xml:space="preserve" x="119.6" y="331.6" font-family="Calibri" font-size="8" transform="rotate(270 119.6 331.6)">c4</text>
<text xml:space="preserve" x="127.6" y="331.6" font-family="Calibri" font-size="8" transform="rotate(270 127.6 331.6)">c3</text>
<text xml:space="preserve" x="135.6" y="331.6" font-family="Calibri" font-size="8" transform="rotate(270 135.6 331.6)">c1</text>
<text xml:space="preserve" x="143.6" y="331.6" font-family="Calibri" font-size="8" transform="rotate(270 143.6 331.6)">c5</text>
<text xml:space="preserve" x="161.6" y="331.6" font-family="Calibri" font-size="8" transform="rotate(270 161.6 331.6)">c2_mean</text>
<text xml:space="preserve" x="169.6" y="331.6" font-family="Calibri" font-size="8" transform="rotate(270 169.6 331.6)">c4_mean</text>
<text xml:space="preserve" x="177.6" y="331.6" font-family="Calibri" font-size="8" transform="rotate(270 177.6 331.6)">c3_mean</text>
<text xml:space="preserve" x="185.6" y="331.6" font-family="Calibri" font-size="8" transform="rotate(270 185.6 331.6)">c1_mean</text>
<text xml:space="preserve" x="193.6" y="331.6" font-family="Calibri" font-size="8" transform="rotate(270 193.6 331.6)">c5_mean</text>
<text xml:space="preserve" x="211.6" y="331.6" font-family="Calibri" font-size="8" transform="rotate(270 211.6 331.6)">transcription_factor</text>
<text xml:space="preserve" x="219.6" y="331.6" font-family="Calibri" font-size="8" transform="rotate(270 219.6 331.6)">transmembrane_signal_receptor</text>
<text xml:space="preserve" x="227.6" y="331.6" font-family="Calibri" font-size="8" transform="rotate(270 227.6 331.6)">growth_factor</text>
<text xml:space="preserve" x="235.6" y="331.6" font-family="Calibri" font-size="8" transform="rotate(270 235.6 331.6)">peptide_hormone</text>
<text xml:space="preserve" x="243.6" y="331.6" font-family="Calibri" font-size="8" transform="rotate(270 243.6 331.6)">cytoskeletal_protein</text>
<text xml:space="preserve" x="251.6" y="331.6" font-family="Calibri" font-size="8" transform="rotate(270 251.6 331.6)">ion_channel</text>
<text xml:space="preserve" x="259.6" y="331.6" font-family="Calibri" font-size="8" transform="rotate(270 259.6 331.6)">integrin</text>
<text xml:space="preserve" x="267.6" y="331.6" font-family="Calibri" font-size="8" transform="rotate(270 267.6 331.6)">extracellular_matrix_protein</text>
<polygon points="104.6,335.6 112.6,335.6 112.6,343.6 104.6,343.6" fill="rgb(0,205,0)"/><text xml:space="preserve" x="108.6" y="342.433" font-family="Calibri" font-size="7.5" fill="rgb(255,255,255)" text-anchor="middle">1</text>
<polygon points="112.6,335.6 120.6,335.6 120.6,343.6 112.6,343.6" fill="rgb(0,205,0)"/><text xml:space="preserve" x="116.6" y="342.433" font-family="Calibri" font-size="7.5" fill="rgb(255,255,255)" text-anchor="middle">1</text>
<polygon points="120.6,335.6 128.6,335.6 128.6,343.6 120.6,343.6" fill="rgb(0,205,0)"/><text xml:space="preserve" x="124.6" y="342.433" font-family="Calibri" font-size="7.5" fill="rgb(255,255,255)" text-anchor="middle">1</text>
<polygon points="128.6,335.6 136.6,335.6 136.6,343.6 128.6,343.6" fill="rgb(127,230,0)"/><text xml:space="preserve" x="132.6" y="342.433" font-family="Calibri" font-size="7.5" fill="rgb(0,0,0)" text-anchor="middle">2</text>
<polygon points="136.6,335.6 144.6,335.6 144.6,343.6 136.6,343.6" fill="rgb(205,0,0)"/><text xml:space="preserve" x="140.6" y="342.433" font-family="Calibri" font-size="7.5" fill="rgb(255,255,255)" text-anchor="middle">5</text>
<polygon points="154.6,335.6 162.6,335.6 162.6,343.6 154.6,343.6" fill="rgb(11,73,137)"/>
<polygon points="162.6,335.6 170.6,335.6 170.6,343.6 162.6,343.6" fill="rgb(5,47,136)"/>
<polygon points="170.6,335.6 178.6,335.6 178.6,343.6 170.6,343.6" fill="rgb(11,73,137)"/>
<polygon points="178.6,335.6 186.6,335.6 186.6,343.6 178.6,343.6" fill="rgb(28,138,141)"/>
<polygon points="186.6,335.6 194.6,335.6 194.6,343.6 186.6,343.6" fill="rgb(252,194,1)"/>
<polygon points="204.6,335.6 212.6,335.6 212.6,343.6 204.6,343.6" fill="rgb(255,255,255)"/>
<polygon points="212.6,335.6 220.6,335.6 220.6,343.6 212.6,343.6" fill="rgb(255,255,255)"/>
<polygon points="220.6,335.6 228.6,335.6 228.6,343.6 220.6,343.6" fill="rgb(255,255,255)"/>
<polygon points="228.6,335.6 236.6,335.6 236.6,343.6 228.6,343.6" fill="rgb(255,255,255)"/>
<polygon points="236.6,335.6 244.6,335.6 244.6,343.6 236.6,343.6" fill="rgb(255,255,255)"/>
<polygon points="244.6,335.6 252.6,335.6 252.6,343.6 244.6,343.6" fill="rgb(255,255,255)"/>
<polygon points="252.6,335.6 260.6,335.6 260.6,343.6 252.6,343.6" fill="rgb(255,255,255)"/>
<polygon points="260.6,335.6 268.6,335.6 268.6,343.6 260.6,343.6" fill="rgb(255,255,255)"/>
<polygon points="104.6,343.6 112.6,343.6 112.6,351.6 104.6,351.6" fill="rgb(0,205,0)"/><text xml:space="preserve" x="108.6" y="350.433" font-family="Calibri" font-size="7.5" fill="rgb(255,255,255)" text-anchor="middle">1</text>
<polygon points="112.6,343.6 120.6,343.6 120.6,351.6 112.6,351.6" fill="rgb(0,205,0)"/><text xml:space="preserve" x="116.6" y="350.433" font-family="Calibri" font-size="7.5" fill="rgb(255,255,255)" text-anchor="middle">1</text>
<polygon points="120.6,343.6 128.6,343.6 128.6,351.6 120.6,351.6" fill="rgb(0,205,0)"/><text xml:space="preserve" x="124.6" y="350.433" font-family="Calibri" font-size="7.5" fill="rgb(255,255,255)" text-anchor="middle">1</text>
<polygon points="128.6,343.6 136.6,343.6 136.6,351.6 128.6,351.6" fill="rgb(127,230,0)"/><text xml:space="preserve" x="132.6" y="350.433" font-family="Calibri" font-size="7.5" fill="rgb(0,0,0)" text-anchor="middle">2</text>
<polygon points="136.6,343.6 144.6,343.6 144.6,351.6 136.6,351.6" fill="rgb(205,0,0)"/><text xml:space="preserve" x="140.6" y="350.433" font-family="Calibri" font-size="7.5" fill="rgb(255,255,255)" text-anchor="middle">5</text>
<polygon points="154.6,343.6 162.6,343.6 162.6,351.6 154.6,351.6" fill="rgb(14,84,138)"/>
<polygon points="162.6,343.6 170.6,343.6 170.6,351.6 162.6,351.6" fill="rgb(1,33,135)"/>
<polygon points="170.6,343.6 178.6,343.6 178.6,351.6 170.6,351.6" fill="rgb(3,41,135)"/>
<polygon points="178.6,343.6 186.6,343.6 186.6,351.6 178.6,351.6" fill="rgb(25,125,140)"/>
<polygon points="186.6,343.6 194.6,343.6 194.6,351.6 186.6,351.6" fill="rgb(239,195,9)"/>
<polygon points="204.6,343.6 212.6,343.6 212.6,351.6 204.6,351.6" fill="rgb(255,255,255)"/>
<polygon points="212.6,343.6 220.6,343.6 220.6,351.6 212.6,351.6" fill="rgb(255,255,255)"/>
<polygon points="220.6,343.6 228.6,343.6 228.6,351.6 220.6,351.6" fill="rgb(255,255,255)"/>
<polygon points="228.6,343.6 236.6,343.6 236.6,351.6 228.6,351.6" fill="rgb(255,255,255)"/>
<polygon points="236.6,343.6 244.6,343.6 244.6,351.6 236.6,351.6" fill="rgb(255,255,255)"/>
<polygon points="244.6,343.6 252.6,343.6 252.6,351.6 244.6,351.6" fill="rgb(255,255,255)"/>
<polygon points="252.6,343.6 260.6,343.6 260.6,351.6 252.6,351.6" fill="rgb(255,255,255)"/>
<polygon points="260.6,343.6 268.6,343.6 268.6,351.6 260.6,351.6" fill="rgb(255,255,255)"/>
<polygon points="104.6,351.6 112.6,351.6 112.6,359.6 104.6,359.6" fill="rgb(0,205,0)"/><text xml:space="preserve" x="108.6" y="358.433" font-family="Calibri" font-size="7.5" fill="rgb(255,255,255)" text-anchor="middle">1</text>
<polygon points="112.6,351.6 120.6,351.6 120.6,359.6 112.6,359.6" fill="rgb(0,205,0)"/><text xml:space="preserve" x="116.6" y="358.433" font-family="Calibri" font-size="7.5" fill="rgb(255,255,255)" text-anchor="middle">1</text>
<polygon points="120.6,351.6 128.6,351.6 128.6,359.6 120.6,359.6" fill="rgb(0,205,0)"/><text xml:space="preserve" x="124.6" y="358.433" font-family="Calibri" font-size="7.5" fill="rgb(255,255,255)" text-anchor="middle">1</text>
<polygon points="128.6,351.6 136.6,351.6 136.6,359.6 128.6,359.6" fill="rgb(127,230,0)"/><text xml:space="preserve" x="132.6" y="358.433" font-family="Calibri" font-size="7.5" fill="rgb(0,0,0)" text-anchor="middle">2</text>
<polygon points="136.6,351.6 144.6,351.6 144.6,359.6 136.6,359.6" fill="rgb(205,0,0)"/><text xml:space="preserve" x="140.6" y="358.433" font-family="Calibri" font-size="7.5" fill="rgb(255,255,255)" text-anchor="middle">5</text>
<polygon points="154.6,351.6 162.6,351.6 162.6,359.6 154.6,359.6" fill="rgb(14,84,138)"/>
<polygon points="162.6,351.6 170.6,351.6 170.6,359.6 162.6,359.6" fill="rgb(2,35,135)"/>
<polygon points="170.6,351.6 178.6,351.6 178.6,359.6 170.6,359.6" fill="rgb(4,46,136)"/>
<polygon points="178.6,351.6 186.6,351.6 186.6,359.6 178.6,359.6" fill="rgb(28,139,141)"/>
<polygon points="186.6,351.6 194.6,351.6 194.6,359.6 186.6,359.6" fill="rgb(252,194,1)"/>
<polygon points="204.6,351.6 212.6,351.6 212.6,359.6 204.6,359.6" fill="rgb(255,255,255)"/>
<polygon points="212.6,351.6 220.6,351.6 220.6,359.6 212.6,359.6" fill="rgb(255,255,255)"/>
<polygon points="220.6,351.6 228.6,351.6 228.6,359.6 220.6,359.6" fill="rgb(255,255,255)"/>
<polygon points="228.6,351.6 236.6,351.6 236.6,359.6 228.6,359.6" fill="rgb(255,255,255)"/>
<polygon points="236.6,351.6 244.6,351.6 244.6,359.6 236.6,359.6" fill="rgb(255,255,255)"/>
<polygon points="244.6,351.6 252.6,351.6 252.6,359.6 244.6,359.6" fill="rgb(255,255,255)"/>
<polygon points="252.6,351.6 260.6,351.6 260.6,359.6 252.6,359.6" fill="rgb(255,255,255)"/>
<polygon points="260.6,351.6 268.6,351.6 268.6,359.6 260.6,359.6" fill="rgb(255,255,255)"/>
<polygon points="104.6,359.6 112.6,359.6 112.6,367.6 104.6,367.6" fill="rgb(0,205,0)"/><text xml:space="preserve" x="108.6" y="366.433" font-family="Calibri" font-size="7.5" fill="rgb(255,255,255)" text-anchor="middle">1</text>
<polygon points="112.6,359.6 120.6,359.6 120.6,367.6 112.6,367.6" fill="rgb(0,205,0)"/><text xml:space="preserve" x="116.6" y="366.433" font-family="Calibri" font-size="7.5" fill="rgb(255,255,255)" text-anchor="middle">1</text>
<polygon points="120.6,359.6 128.6,359.6 128.6,367.6 120.6,367.6" fill="rgb(0,205,0)"/><text xml:space="preserve" x="124.6" y="366.433" font-family="Calibri" font-size="7.5" fill="rgb(255,255,255)" text-anchor="middle">1</text>
<polygon points="128.6,359.6 136.6,359.6 136.6,367.6 128.6,367.6" fill="rgb(127,230,0)"/><text xml:space="preserve" x="132.6" y="366.433" font-family="Calibri" font-size="7.5" fill="rgb(0,0,0)" text-anchor="middle">2</text>
<polygon points="136.6,359.6 144.6,359.6 144.6,367.6 136.6,367.6" fill="rgb(205,0,0)"/><text xml:space="preserve" x="140.6" y="366.433" font-family="Calibri" font-size="7.5" fill="rgb(255,255,255)" text-anchor="middle">5</text>
<polygon points="154.6,359.6 162.6,359.6 162.6,367.6 154.6,367.6" fill="rgb(11,71,137)"/>
<polygon points="162.6,359.6 170.6,359.6 170.6,367.6 162.6,367.6" fill="rgb(3,41,135)"/>
<polygon points="170.6,359.6 178.6,359.6 178.6,367.6 170.6,367.6" fill="rgb(10,66,137)"/>
<polygon points="178.6,359.6 186.6,359.6 186.6,367.6 178.6,367.6" fill="rgb(30,147,141)"/>
<polygon points="186.6,359.6 194.6,359.6 194.6,367.6 186.6,367.6" fill="rgb(230,196,16)"/>
<polygon points="204.6,359.6 212.6,359.6 212.6,367.6 204.6,367.6" fill="rgb(255,255,255)"/>
<polygon points="212.6,359.6 220.6,359.6 220.6,367.6 212.6,367.6" fill="rgb(255,255,255)"/>
<polygon points="220.6,359.6 228.6,359.6 228.6,367.6 220.6,367.6" fill="rgb(255,255,255)"/>
<polygon points="228.6,359.6 236.6,359.6 236.6,367.6 228.6,367.6" fill="rgb(255,255,255)"/>
<polygon points="236.6,359.6 244.6,359.6 244.6,367.6 236.6,367.6" fill="rgb(255,255,255)"/>
<polygon points="244.6,359.6 252.6,359.6 252.6,367.6 244.6,367.6" fill="rgb(255,255,255)"/>
<polygon points="252.6,359.6 260.6,359.6 260.6,367.6 252.6,367.6" fill="rgb(255,255,255)"/>
<polygon points="260.6,359.6 268.6,359.6 268.6,367.6 260.6,367.6" fill="rgb(255,255,255)"/>
<polygon points="104.6,367.6 112.6,367.6 112.6,375.6 104.6,375.6" fill="rgb(0,205,0)"/><text xml:space="preserve" x="108.6" y="374.433" font-family="Calibri" font-size="7.5" fill="rgb(255,255,255)" text-anchor="middle">1</text>
<polygon points="112.6,367.6 120.6,367.6 120.6,375.6 112.6,375.6" fill="rgb(0,205,0)"/><text xml:space="preserve" x="116.6" y="374.433" font-family="Calibri" font-size="7.5" fill="rgb(255,255,255)" text-anchor="middle">1</text>
<polygon points="120.6,367.6 128.6,367.6 128.6,375.6 120.6,375.6" fill="rgb(0,205,0)"/><text xml:space="preserve" x="124.6" y="374.433" font-family="Calibri" font-size="7.5" fill="rgb(255,255,255)" text-anchor="middle">1</text>
<polygon points="128.6,367.6 136.6,367.6 136.6,375.6 128.6,375.6" fill="rgb(127,230,0)"/><text xml:space="preserve" x="132.6" y="374.433" font-family="Calibri" font-size="7.5" fill="rgb(0,0,0)" text-anchor="middle">2</text>
<polygon points="136.6,367.6 144.6,367.6 144.6,375.6 136.6,375.6" fill="rgb(205,0,0)"/><text xml:space="preserve" x="140.6" y="374.433" font-family="Calibri" font-size="7.5" fill="rgb(255,255,255)" text-anchor="middle">5</text>
<polygon points="154.6,367.6 162.6,367.6 162.6,375.6 154.6,375.6" fill="rgb(5,47,136)"/>
<polygon points="162.6,367.6 170.6,367.6 170.6,375.6 162.6,375.6" fill="rgb(2,37,135)"/>
<polygon points="170.6,367.6 178.6,367.6 178.6,375.6 170.6,375.6" fill="rgb(7,56,136)"/>
<polygon points="178.6,367.6 186.6,367.6 186.6,375.6 178.6,375.6" fill="rgb(26,130,140)"/>
<polygon points="186.6,367.6 194.6,367.6 194.6,375.6 186.6,375.6" fill="rgb(247,194,3)"/>
<polygon points="204.6,367.6 212.6,367.6 212.6,375.6 204.6,375.6" fill="rgb(255,255,255)"/>
<polygon points="212.6,367.6 220.6,367.6 220.6,375.6 212.6,375.6" fill="rgb(255,255,255)"/>
<polygon points="220.6,367.6 228.6,367.6 228.6,375.6 220.6,375.6" fill="rgb(255,255,255)"/>
<polygon points="228.6,367.6 236.6,367.6 236.6,375.6 228.6,375.6" fill="rgb(255,255,255)"/>
<polygon points="236.6,367.6 244.6,367.6 244.6,375.6 236.6,375.6" fill="rgb(255,255,255)"/>
<polygon points="244.6,367.6 252.6,367.6 252.6,375.6 244.6,375.6" fill="rgb(255,255,255)"/>
<polygon points="252.6,367.6 260.6,367.6 260.6,375.6 252.6,375.6" fill="rgb(255,255,255)"/>
<polygon points="260.6,367.6 268.6,367.6 268.6,375.6 260.6,375.6" fill="rgb(255,255,255)"/>
<polygon points="104.6,375.6 112.6,375.6 112.6,383.6 104.6,383.6" fill="rgb(0,205,0)"/><text xml:space="preserve" x="108.6" y="382.433" font-family="Calibri" font-size="7.5" fill="rgb(255,255,255)" text-anchor="middle">1</text>
<polygon points="112.6,375.6 120.6,375.6 120.6,383.6 112.6,383.6" fill="rgb(0,205,0)"/><text xml:space="preserve" x="116.6" y="382.433" font-family="Calibri" font-size="7.5" fill="rgb(255,255,255)" text-anchor="middle">1</text>
<polygon points="120.6,375.6 128.6,375.6 128.6,383.6 120.6,383.6" fill="rgb(0,205,0)"/><text xml:space="preserve" x="124.6" y="382.433" font-family="Calibri" font-size="7.5" fill="rgb(255,255,255)" text-anchor="middle">1</text>
<polygon points="128.6,375.6 136.6,375.6 136.6,383.6 128.6,383.6" fill="rgb(127,230,0)"/><text xml:space="preserve" x="132.6" y="382.433" font-family="Calibri" font-size="7.5" fill="rgb(0,0,0)" text-anchor="middle">2</text>
<polygon points="136.6,375.6 144.6,375.6 144.6,383.6 136.6,383.6" fill="rgb(205,0,0)"/><text xml:space="preserve" x="140.6" y="382.433" font-family="Calibri" font-size="7.5" fill="rgb(255,255,255)" text-anchor="middle">5</text>
<polygon points="154.6,375.6 162.6,375.6 162.6,383.6 154.6,383.6" fill="rgb(9,62,137)"/>
<polygon points="162.6,375.6 170.6,375.6 170.6,383.6 162.6,383.6" fill="rgb(0,27,135)"/>
<polygon points="170.6,375.6 178.6,375.6 178.6,383.6 170.6,383.6" fill="rgb(6,51,136)"/>
<polygon points="178.6,375.6 186.6,375.6 186.6,383.6 178.6,383.6" fill="rgb(25,125,140)"/>
<polygon points="186.6,375.6 194.6,375.6 194.6,383.6 186.6,383.6" fill="rgb(252,194,1)"/>
<polygon points="204.6,375.6 212.6,375.6 212.6,383.6 204.6,383.6" fill="rgb(255,255,255)"/>
<polygon points="212.6,375.6 220.6,375.6 220.6,383.6 212.6,383.6" fill="rgb(255,255,255)"/>
<polygon points="220.6,375.6 228.6,375.6 228.6,383.6 220.6,383.6" fill="rgb(255,255,255)"/>
<polygon points="228.6,375.6 236.6,375.6 236.6,383.6 228.6,383.6" fill="rgb(255,255,255)"/>
<polygon points="236.6,375.6 244.6,375.6 244.6,383.6 236.6,383.6" fill="rgb(255,255,255)"/>
<polygon points="244.6,375.6 252.6,375.6 252.6,383.6 244.6,383.6" fill="rgb(255,255,255)"/>
<polygon points="252.6,375.6 260.6,375.6 260.6,383.6 252.6,383.6" fill="rgb(255,255,255)"/>
<polygon points="260.6,375.6 268.6,375.6 268.6,383.6 260.6,383.6" fill="rgb(255,255,255)"/>
<polygon points="104.6,383.6 112.6,383.6 112.6,391.6 104.6,391.6" fill="rgb(0,205,0)"/><text xml:space="preserve" x="108.6" y="390.433" font-family="Calibri" font-size="7.5" fill="rgb(255,255,255)" text-anchor="middle">1</text>
<polygon points="112.6,383.6 120.6,383.6 120.6,391.6 112.6,391.6" fill="rgb(0,205,0)"/><text xml:space="preserve" x="116.6" y="390.433" font-family="Calibri" font-size="7.5" fill="rgb(255,255,255)" text-anchor="middle">1</text>
<polygon points="120.6,383.6 128.6,383.6 128.6,391.6 120.6,391.6" fill="rgb(0,205,0)"/><text xml:space="preserve" x="124.6" y="390.433" font-family="Calibri" font-size="7.5" fill="rgb(255,255,255)" text-anchor="middle">1</text>
<polygon points="128.6,383.6 136.6,383.6 136.6,391.6 128.6,391.6" fill="rgb(127,230,0)"/><text xml:space="preserve" x="132.6" y="390.433" font-family="Calibri" font-size="7.5" fill="rgb(0,0,0)" text-anchor="middle">2</text>
<polygon points="136.6,383.6 144.6,383.6 144.6,391.6 136.6,391.6" fill="rgb(205,0,0)"/><text xml:space="preserve" x="140.6" y="390.433" font-family="Calibri" font-size="7.5" fill="rgb(255,255,255)" text-anchor="middle">5</text>
<polygon points="154.6,383.6 162.6,383.6 162.6,391.6 154.6,391.6" fill="rgb(19,102,139)"/>
<polygon points="162.6,383.6 170.6,383.6 170.6,391.6 162.6,391.6" fill="rgb(3,41,135)"/>
<polygon points="170.6,383.6 178.6,383.6 178.6,391.6 170.6,391.6" fill="rgb(5,47,136)"/>
<polygon points="178.6,383.6 186.6,383.6 186.6,391.6 178.6,391.6" fill="rgb(20,107,139)"/>
<polygon points="186.6,383.6 194.6,383.6 194.6,391.6 186.6,391.6" fill="rgb(252,194,1)"/>
<polygon points="204.6,383.6 212.6,383.6 212.6,391.6 204.6,391.6" fill="rgb(205,0,205)"/>
<polygon points="212.6,383.6 220.6,383.6 220.6,391.6 212.6,391.6" fill="rgb(255,255,255)"/>
<polygon points="220.6,383.6 228.6,383.6 228.6,391.6 220.6,391.6" fill="rgb(255,255,255)"/>
<polygon points="228.6,383.6 236.6,383.6 236.6,391.6 228.6,391.6" fill="rgb(255,255,255)"/>
<polygon points="236.6,383.6 244.6,383.6 244.6,391.6 236.6,391.6" fill="rgb(255,255,255)"/>
<polygon points="244.6,383.6 252.6,383.6 252.6,391.6 244.6,391.6" fill="rgb(255,255,255)"/>
<polygon points="252.6,383.6 260.6,383.6 260.6,391.6 252.6,391.6" fill="rgb(255,255,255)"/>
<polygon points="260.6,383.6 268.6,383.6 268.6,391.6 260.6,391.6" fill="rgb(255,255,255)"/>
<polygon points="104.6,391.6 112.6,391.6 112.6,399.6 104.6,399.6" fill="rgb(0,205,0)"/><text xml:space="preserve" x="108.6" y="398.433" font-family="Calibri" font-size="7.5" fill="rgb(255,255,255)" text-anchor="middle">1</text>
<polygon points="112.6,391.6 120.6,391.6 120.6,399.6 112.6,399.6" fill="rgb(0,205,0)"/><text xml:space="preserve" x="116.6" y="398.433" font-family="Calibri" font-size="7.5" fill="rgb(255,255,255)" text-anchor="middle">1</text>
<polygon points="120.6,391.6 128.6,391.6 128.6,399.6 120.6,399.6" fill="rgb(0,205,0)"/><text xml:space="preserve" x="124.6" y="398.433" font-family="Calibri" font-size="7.5" fill="rgb(255,255,255)" text-anchor="middle">1</text>
<polygon points="128.6,391.6 136.6,391.6 136.6,399.6 128.6,399.6" fill="rgb(127,230,0)"/><text xml:space="preserve" x="132.6" y="398.433" font-family="Calibri" font-size="7.5" fill="rgb(0,0,0)" text-anchor="middle">2</text>
<polygon points="136.6,391.6 144.6,391.6 144.6,399.6 136.6,399.6" fill="rgb(205,0,0)"/><text xml:space="preserve" x="140.6" y="398.433" font-family="Calibri" font-size="7.5" fill="rgb(255,255,255)" text-anchor="middle">5</text>
<polygon points="154.6,391.6 162.6,391.6 162.6,399.6 154.6,399.6" fill="rgb(9,62,137)"/>
<polygon points="162.6,391.6 170.6,391.6 170.6,399.6 162.6,399.6" fill="rgb(7,56,136)"/>
<polygon points="170.6,391.6 178.6,391.6 178.6,399.6 170.6,399.6" fill="rgb(15,87,138)"/>
<polygon points="178.6,391.6 186.6,391.6 186.6,399.6 178.6,399.6" fill="rgb(23,120,140)"/>
<polygon points="186.6,391.6 194.6,391.6 194.6,399.6 186.6,399.6" fill="rgb(252,194,1)"/>
<polygon points="204.6,391.6 212.6,391.6 212.6,399.6 204.6,399.6" fill="rgb(255,255,255)"/>
<polygon points="212.6,391.6 220.6,391.6 220.6,399.6 212.6,399.6" fill="rgb(255,255,255)"/>
<polygon points="220.6,391.6 228.6,391.6 228.6,399.6 220.6,399.6" fill="rgb(255,255,255)"/>
<polygon points="228.6,391.6 236.6,391.6 236.6,399.6 228.6,399.6" fill="rgb(255,255,255)"/>
<polygon points="236.6,391.6 244.6,391.6 244.6,399.6 236.6,399.6" fill="rgb(255,255,255)"/>
<polygon points="244.6,391.6 252.6,391.6 252.6,399.6 244.6,399.6" fill="rgb(255,255,255)"/>
<polygon points="252.6,391.6 260.6,391.6 260.6,399.6 252.6,399.6" fill="rgb(255,255,255)"/>
<polygon points="260.6,391.6 268.6,391.6 268.6,399.6 260.6,399.6" fill="rgb(255,255,255)"/>
<polygon points="104.6,399.6 112.6,399.6 112.6,407.6 104.6,407.6" fill="rgb(0,205,0)"/><text xml:space="preserve" x="108.6" y="406.433" font-family="Calibri" font-size="7.5" fill="rgb(255,255,255)" text-anchor="middle">1</text>
<polygon points="112.6,399.6 120.6,399.6 120.6,407.6 112.6,407.6" fill="rgb(0,205,0)"/><text xml:space="preserve" x="116.6" y="406.433" font-family="Calibri" font-size="7.5" fill="rgb(255,255,255)" text-anchor="middle">1</text>
<polygon points="120.6,399.6 128.6,399.6 128.6,407.6 120.6,407.6" fill="rgb(0,205,0)"/><text xml:space="preserve" x="124.6" y="406.433" font-family="Calibri" font-size="7.5" fill="rgb(255,255,255)" text-anchor="middle">1</text>
<polygon points="128.6,399.6 136.6,399.6 136.6,407.6 128.6,407.6" fill="rgb(127,230,0)"/><text xml:space="preserve" x="132.6" y="406.433" font-family="Calibri" font-size="7.5" fill="rgb(0,0,0)" text-anchor="middle">2</text>
<polygon points="136.6,399.6 144.6,399.6 144.6,407.6 136.6,407.6" fill="rgb(205,0,0)"/><text xml:space="preserve" x="140.6" y="406.433" font-family="Calibri" font-size="7.5" fill="rgb(255,255,255)" text-anchor="middle">5</text>
<polygon points="154.6,399.6 162.6,399.6 162.6,407.6 154.6,407.6" fill="rgb(7,56,136)"/>
<polygon points="162.6,399.6 170.6,399.6 170.6,407.6 162.6,407.6" fill="rgb(0,29,135)"/>
<polygon points="170.6,399.6 178.6,399.6 178.6,407.6 170.6,407.6" fill="rgb(3,41,135)"/>
<polygon points="178.6,399.6 186.6,399.6 186.6,407.6 178.6,407.6" fill="rgb(28,138,141)"/>
<polygon points="186.6,399.6 194.6,399.6 194.6,407.6 186.6,407.6" fill="rgb(252,194,1)"/>
<polygon points="204.6,399.6 212.6,399.6 212.6,407.6 204.6,407.6" fill="rgb(255,255,255)"/>
<polygon points="212.6,399.6 220.6,399.6 220.6,407.6 212.6,407.6" fill="rgb(255,255,255)"/>
<polygon points="220.6,399.6 228.6,399.6 228.6,407.6 220.6,407.6" fill="rgb(255,255,255)"/>
<polygon points="228.6,399.6 236.6,399.6 236.6,407.6 228.6,407.6" fill="rgb(255,255,255)"/>
<polygon points="236.6,399.6 244.6,399.6 244.6,407.6 236.6,407.6" fill="rgb(255,255,255)"/>
<polygon points="244.6,399.6 252.6,399.6 252.6,407.6 244.6,407.6" fill="rgb(255,255,255)"/>
<polygon points="252.6,399.6 260.6,399.6 260.6,407.6 252.6,407.6" fill="rgb(255,255,255)"/>
<polygon points="260.6,399.6 268.6,399.6 268.6,407.6 260.6,407.6" fill="rgb(255,255,255)"/>
<polygon points="104.6,335.6 144.6,335.6 144.6,407.6 104.6,407.6" fill="none" stroke="black" stroke-width="1"/>
<polygon points="154.6,335.6 194.6,335.6 194.6,407.6 154.6,407.6" fill="none" stroke="black" stroke-width="1"/>
<polygon points="204.6,335.6 268.6,335.6 268.6,407.6 204.6,407.6" fill="none" stroke="black" stroke-width="1"/>
<text xml:space="preserve" x="144.3" y="440.6" font-family="Calibri" font-size="8" text-anchor="middle">ClusterAssignment</text>
<polygon points="94.3,447.6 114.3,447.6 114.3,467.6 94.3,467.6" fill="rgb(0,205,0)"/><polygon points="94.3,447.6 114.3,447.6 114.3,467.6 94.3,467.6" fill="none" stroke="black" stroke-width="1"/><text xml:space="preserve" x="104.3" y="460.433" font-family="Calibri" font-size="7.5" fill="rgb(255,255,255)" text-anchor="middle">1.0</text>
<polygon points="114.3,447.6 134.3,447.6 134.3,467.6 114.3,467.6" fill="rgb(127,230,0)"/><polygon points="114.3,447.6 134.3,447.6 134.3,467.6 114.3,467.6" fill="none" stroke="black" stroke-width="1"/><text xml:space="preserve" x="124.3" y="460.433" font-family="Calibri" font-size="7.5" fill="rgb(0,0,0)" text-anchor="middle">2.0</text>
<polygon points="134.3,447.6 154.3,447.6 154.3,467.6 134.3,467.6" fill="rgb(255,255,0)"/><polygon points="134.3,447.6 154.3,447.6 154.3,467.6 134.3,467.6" fill="none" stroke="black" stroke-width="1"/><text xml:space="preserve" x="144.3" y="460.433" font-family="Calibri" font-size="7.5" fill="rgb(0,0,0)" text-anchor="middle">3.0</text>
<polygon points="154.3,447.6 174.3,447.6 174.3,467.6 154.3,467.6" fill="rgb(230,127,0)"/><polygon points="154.3,447.6 174.3,447.6 174.3,467.6 154.3,467.6" fill="none" stroke="black" stroke-width="1"/><text xml:space="preserve" x="164.3" y="460.433" font-family="Calibri" font-size="7.5" fill="rgb(0,0,0)" text-anchor="middle">4.0</text>
<polygon points="174.3,447.6 194.3,447.6 194.3,467.6 174.3,467.6" fill="rgb(205,0,0)"/><polygon points="174.3,447.6 194.3,447.6 194.3,467.6 174.3,467.6" fill="none" stroke="black" stroke-width="1"/><text xml:space="preserve" x="184.3" y="460.433" font-family="Calibri" font-size="7.5" fill="rgb(255,255,255)" text-anchor="middle">5.0</text>
<text xml:space="preserve" x="144.3" y="500.6" font-family="Calibri" font-size="8" text-anchor="middle">Expression</text>
<polygon points="94.3,507.6 114.3,507.6 114.3,527.6 94.3,527.6" fill="rgb(0,27,135)"/><polygon points="94.3,507.6 114.3,507.6 114.3,527.6 94.3,527.6" fill="none" stroke="black" stroke-width="1"/><text xml:space="preserve" x="104.3" y="520.433" font-family="Calibri" font-size="7.5" fill="rgb(255,255,255)" text-anchor="middle">0.0</text>
<polygon points="114.3,507.6 134.3,507.6 134.3,527.6 114.3,527.6" fill="rgb(24,123,140)"/><polygon points="114.3,507.6 134.3,507.6 134.3,527.6 114.3,527.6" fill="none" stroke="black" stroke-width="1"/><text xml:space="preserve" x="124.3" y="520.433" font-family="Calibri" font-size="7.5" fill="rgb(255,255,255)" text-anchor="middle">0.8</text>
<polygon points="134.3,507.6 154.3,507.6 154.3,527.6 134.3,527.6" fill="rgb(49,219,146)"/><polygon points="134.3,507.6 154.3,507.6 154.3,527.6 134.3,527.6" fill="none" stroke="black" stroke-width="1"/><text xml:space="preserve" x="144.3" y="520.433" font-family="Calibri" font-size="7.5" fill="rgb(0,0,0)" text-anchor="middle">1.5</text>
<polygon points="154.3,507.6 174.3,507.6 174.3,527.6 154.3,527.6" fill="rgb(150,206,73)"/><polygon points="154.3,507.6 174.3,507.6 174.3,527.6 154.3,527.6" fill="none" stroke="black" stroke-width="1"/><text xml:space="preserve" x="164.3" y="520.433" font-family="Calibri" font-size="7.5" fill="rgb(0,0,0)" text-anchor="middle">2.2</text>
<polygon points="174.3,507.6 194.3,507.6 194.3,527.6 174.3,527.6" fill="rgb(252,194,1)"/><polygon points="174.3,507.6 194.3,507.6 194.3,527.6 174.3,527.6" fill="none" stroke="black" stroke-width="1"/><text xml:space="preserve" x="184.3" y="520.433" font-family="Calibri" font-size="7.5" fill="rgb(0,0,0)" text-anchor="middle">3.0</text>
<text xml:space="preserve" x="144.3" y="560.6" font-family="Calibri" font-size="8" text-anchor="middle">PANTHERclass</text>
<polygon points="94.3,567.6 114.3,567.6 114.3,587.6 94.3,587.6" fill="rgb(255,255,255)"/><polygon points="94.3,567.6 114.3,567.6 114.3,587.6 94.3,587.6" fill="none" stroke="black" stroke-width="1"/><text xml:space="preserve" x="104.3" y="580.433" font-family="Calibri" font-size="7.5" fill="rgb(0,0,0)" text-anchor="middle">0.0</text>
<polygon points="114.3,567.6 134.3,567.6 134.3,587.6 114.3,587.6" fill="rgb(242,191,242)"/><polygon points="114.3,567.6 134.3,567.6 134.3,587.6 114.3,587.6" fill="none" stroke="black" stroke-width="1"/><text xml:space="preserve" x="124.3" y="580.433" font-family="Calibri" font-size="7.5" fill="rgb(0,0,0)" text-anchor="middle">0.2</text>
<polygon points="134.3,567.6 154.3,567.6 154.3,587.6 134.3,587.6" fill="rgb(230,127,230)"/><polygon points="134.3,567.6 154.3,567.6 154.3,587.6 134.3,587.6" fill="none" stroke="black" stroke-width="1"/><text xml:space="preserve" x="144.3" y="580.433" font-family="Calibri" font-size="7.5" fill="rgb(0,0,0)" text-anchor="middle">0.5</text>
<polygon points="154.3,567.6 174.3,567.6 174.3,587.6 154.3,587.6" fill="rgb(217,63,217)"/><polygon points="154.3,567.6 174.3,567.6 174.3,587.6 154.3,587.6" fill="none" stroke="black" stroke-width="1"/><text xml:space="preserve" x="164.3" y="580.433" font-family="Calibri" font-size="7.5" fill="rgb(255,255,255)" text-anchor="middle">0.8</text>
<polygon points="174.3,567.6 194.3,567.6 194.3,587.6 174.3,587.6" fill="rgb(205,0,205)"/><polygon points="174.3,567.6 194.3,567.6 194.3,587.6 174.3,587.6" fill="none" stroke="black" stroke-width="1"/><text xml:space="preserve" x="184.3" y="580.433" font-family="Calibri" font-size="7.5" fill="rgb(255,255,255)" text-anchor="middle">1.0</text>
</svg>
