<?xml version="1.0" standalone="no"?><!DOCTYPE svg PUBLIC "-//W3C//DTD SVG 1.1//EN" "http://www.w3.org/Graphics/SVG/1.1/DTD/svg11.dtd">
<svg width="278.1" height="559.6" version="1.1" xmlns="http://www.w3.org/2000/svg">
<text xml:space="preserve" x="90.1" y="342.6" font-family="Calibri" font-size="8" text-anchor="end">ABCA8</text>
<text xml:space="preserve" x="90.1" y="350.6" font-family="Calibri" font-size="8" text-anchor="end">DCDC2</text>
<text xml:space="preserve" x="90.1" y="358.6" font-family="Calibri" font-size="8" text-anchor="end">SERTM1</text>
<text xml:space="preserve" x="101.1" y="331.6" font-family="Calibri" font-size="8" transform="rotate(270 101.1 331.6)">c2</text>
<text xml:space="preserve" x="109.1" y="331.6" font-family="Calibri" font-size="8" transform="rotate(270 109.1 331.6)">c4</text>
<text xml:space="preserve" x="117.1" y="331.6" font-family="Calibri" font-size="8" transform="rotate(270 117.1 331.6)">c3</text>
<text xml:space="preserve" x="125.1" y="331.6" font-family="Calibri" font-size="8" transform="rotate(270 125.1 331.6)">c1</text>
<text xml:space="preserve" x="133.1" y="331.6" font-family="Calibri" font-size="8" transform="rotate(270 133.1 331.6)">c5</text>
<text xml:space="preserve" x="151.1" y="331.6" font-family="Calibri" font-size="8" transform="rotate(270 151.1 331.6)">c2_mean</text>
<text xml:space="preserve" x="159.1" y="331.6" font-family="Calibri" font-size="8" transform="rotate(270 159.1 331.6)">c4_mean</text>
<text xml:space="preserve" x="167.1" y="331.6" font-family="Calibri" font-size="8" transform="rotate(270 167.1 331.6)">c3_mean</text>
<text xml:space="preserve" x="175.1" y="331.6" font-family="Calibri" font-size="8" transform="rotate(270 175.1 331.6)">c1_mean</text>
<text xml:space="preserve" x="183.1" y="331.6" font-family="Calibri" font-size="8" transform="rotate(270 183.1 331.6)">c5_mean</text>
<text xml:space="preserve" x="201.1" y="331.6" font-family="Calibri" font-size="8" transform="rotate(270 201.1 331.6)">transcription_factor</text>
<text xml:space="preserve" x="209.1" y="331.6" font-family="Calibri" font-size="8" transform="rotate(270 209.1 331.6)">transmembrane_signal_receptor</text>
<text xml:space="preserve" x="217.1" y="331.6" font-family="Calibri" font-size="8" transform="rotate(270 217.1 331.6)">growth_factor</text>
<text xml:space="preserve" x="225.1" y="331.6" font-family="Calibri" font-size="8" transform="rotate(270 225.1 331.6)">peptide_hormone</text>
<text xml:space="preserve" x="233.1" y="331.6" font-family="Calibri" font-size="8" transform="rotate(270 233.1 331.6)">cytoskeletal_protein</text>
<text xml:space="preserve" x="241.1" y="331.6" font-family="Calibri" font-size="8" transform="rotate(270 241.1 331.6)">ion_channel</text>
<text xml:space="preserve" x="249.1" y="331.6" font-family="Calibri" font-size="8" transform="rotate(270 249.1 331.6)">integrin</text>
<text xml:space="preserve" x="257.1" y="331.6" font-family="Calibri" font-size="8" transform="rotate(270 257.1 331.6)">extracellular_matrix_protein</text>
<polygon points="94.1,335.6 102.1,335.6 102.1,343.6 94.1,343.6" fill="rgb(230,127,0)"/><text xml:space="preserve" x="98.1" y="342.433" font-family="Calibri" font-size="7.5" fill="rgb(0,0,0)" text-anchor="middle">4</text>
<polygon points="102.1,335.6 110.1,335.6 110.1,343.6 102.1,343.6" fill="rgb(205,0,0)"/><text xml:space="preserve" x="106.1" y="342.433" font-family="Calibri" font-size="7.5" fill="rgb(255,255,255)" text-anchor="middle">5</text>
<polygon points="110.1,335.6 118.1,335.6 118.1,343.6 110.1,343.6" fill="rgb(230,127,0)"/><text xml:space="preserve" x="114.1" y="342.433" font-family="Calibri" font-size="7.5" fill="rgb(0,0,0)" text-anchor="middle">4</text>
<polygon points="118.1,335.6 126.1,335.6 126.1,343.6 118.1,343.6" fill="rgb(127,230,0)"/><text xml:space="preserve" x="122.1" y="342.433" font-family="Calibri" font-size="7.5" fill="rgb(0,0,0)" text-anchor="middle">2</text>
<polygon points="126.1,335.6 134.1,335.6 134.1,343.6 126.1,343.6" fill="rgb(205,0,0)"/><text xml:space="preserve" x="130.1" y="342.433" font-family="Calibri" font-size="7.5" fill="rgb(255,255,255)" text-anchor="middle">5</text>
<polygon points="144.1,335.6 152.1,335.6 152.1,343.6 144.1,343.6" fill="rgb(252,194,1)"/>
<polygon points="152.1,335.6 160.1,335.6 160.1,343.6 152.1,343.6" fill="rgb(252,194,1)"/>
<polygon points="160.1,335.6 168.1,335.6 168.1,343.6 160.1,343.6" fill="rgb(228,196,17)"/>
<polygon points="168.1,335.6 176.1,335.6 176.1,343.6 168.1,343.6" fill="rgb(35,165,142)"/>
<polygon points="176.1,335.6 184.1,335.6 184.1,343.6 176.1,343.6" fill="rgb(252,194,1)"/>
<polygon points="194.1,335.6 202.1,335.6 202.1,343.6 194.1,343.6" fill="rgb(255,255,255)"/>
<polygon points="202.1,335.6 210.1,335.6 210.1,343.6 202.1,343.6" fill="rgb(255,255,255)"/>
<polygon points="210.1,335.6 218.1,335.6 218.1,343.6 210.1,343.6" fill="rgb(255,255,255)"/>
<polygon points="218.1,335.6 226.1,335.6 226.1,343.6 218.1,343.6" fill="rgb(255,255,255)"/>
<polygon points="226.1,335.6 234.1,335.6 234.1,343.6 226.1,343.6" fill="rgb(255,255,255)"/>
<polygon points="234.1,335.6 242.1,335.6 242.1,343.6 234.1,343.6" fill="rgb(255,255,255)"/>
<polygon points="242.1,335.6 250.1,335.6 250.1,343.6 242.1,343.6" fill="rgb(255,255,255)"/>
<polygon points="250.1,335.6 258.1,335.6 258.1,343.6 250.1,343.6" fill="rgb(255,255,255)"/>
<polygon points="94.1,343.6 102.1,343.6 102.1,351.6 94.1,351.6" fill="rgb(230,127,0)"/><text xml:space="preserve" x="98.1" y="350.433" font-family="Calibri" font-size="7.5" fill="rgb(0,0,0)" text-anchor="middle">4</text>
<polygon points="102.1,343.6 110.1,343.6 110.1,351.6 102.1,351.6" fill="rgb(205,0,0)"/><text xml:space="preserve" x="106.1" y="350.433" font-family="Calibri" font-size="7.5" fill="rgb(255,255,255)" text-anchor="middle">5</text>
<polygon points="110.1,343.6 118.1,343.6 118.1,351.6 110.1,351.6" fill="rgb(230,127,0)"/><text xml:space="preserve" x="114.1" y="350.433" font-family="Calibri" font-size="7.5" fill="rgb(0,0,0)" text-anchor="middle">4</text>
<polygon points="118.1,343.6 126.1,343.6 126.1,351.6 118.1,351.6" fill="rgb(127,230,0)"/><text xml:space="preserve" x="122.1" y="350.433" font-family="Calibri" font-size="7.5" fill="rgb(0,0,0)" text-anchor="middle">2</text>
<polygon points="126.1,343.6 134.1,343.6 134.1,351.6 126.1,351.6" fill="rgb(205,0,0)"/><text xml:space="preserve" x="130.1" y="350.433" font-family="Calibri" font-size="7.5" fill="rgb(255,255,255)" text-anchor="middle">5</text>
<polygon points="144.1,343.6 152.1,343.6 152.1,351.6 144.1,351.6" fill="rgb(252,194,1)"/>
<polygon points="152.1,343.6 160.1,343.6 160.1,351.6 152.1,351.6" fill="rgb(252,194,1)"/>
<polygon points="160.1,343.6 168.1,343.6 168.1,351.6 160.1,351.6" fill="rgb(252,194,1)"/>
<polygon points="168.1,343.6 176.1,343.6 176.1,351.6 168.1,351.6" fill="rgb(21,110,139)"/>
<polygon points="176.1,343.6 184.1,343.6 184.1,351.6 176.1,351.6" fill="rgb(252,194,1)"/>
<polygon points="194.1,343.6 202.1,343.6 202.1,351.6 194.1,351.6" fill="rgb(255,255,255)"/>
<polygon points="202.1,343.6 210.1,343.6 210.1,351.6 202.1,351.6" fill="rgb(255,255,255)"/>
<polygon points="210.1,343.6 218.1,343.6 218.1,351.6 210.1,351.6" fill="rgb(255,255,255)"/>
<polygon points="218.1,343.6 226.1,343.6 226.1,351.6 218.1,351.6" fill="rgb(255,255,255)"/>
<polygon points="226.1,343.6 234.1,343.6 234.1,351.6 226.1,351.6" fill="rgb(255,255,255)"/>
<polygon points="234.1,343.6 242.1,343.6 242.1,351.6 234.1,351.6" fill="rgb(255,255,255)"/>
<polygon points="242.1,343.6 250.1,343.6 250.1,351.6 242.1,351.6" fill="rgb(255,255,255)"/>
<polygon points="250.1,343.6 258.1,343.6 258.1,351.6 250.1,351.6" fill="rgb(255,255,255)"/>
<polygon points="94.1,351.6 102.1,351.6 102.1,359.6 94.1,359.6" fill="rgb(230,127,0)"/><text xml:space="preserve" x="98.1" y="358.433" font-family="Calibri" font-size="7.5" fill="rgb(0,0,0)" text-anchor="middle">4</text>
<polygon points="102.1,351.6 110.1,351.6 110.1,359.6 102.1,359.6" fill="rgb(205,0,0)"/><text xml:space="preserve" x="106.1" y="358.433" font-family="Calibri" font-size="7.5" fill="rgb(255,255,255)" text-anchor="middle">5</text>
<polygon points="110.1,351.6 118.1,351.6 118.1,359.6 110.1,359.6" fill="rgb(230,127,0)"/><text xml:space="preserve" x="114.1" y="358.433" font-family="Calibri" font-size="7.5" fill="rgb(0,0,0)" text-anchor="middle">4</text>
<polygon points="118.1,351.6 126.1,351.6 126.1,359.6 118.1,359.6" fill="rgb(127,230,0)"/><text xml:space="preserve" x="122.1" y="358.433" font-family="Calibri" font-size="7.5" fill="rgb(0,0,0)" text-anchor="middle">2</text>
<polygon points="126.1,351.6 134.1,351.6 134.1,359.6 126.1,359.6" fill="rgb(205,0,0)"/><text xml:space="preserve" x="130.1" y="358.433" font-family="Calibri" font-size="7.5" fill="rgb(255,255,255)" text-anchor="middle">5</text>
<polygon points="144.1,351.6 152.1,351.6 152.1,359.6 144.1,359.6" fill="rgb(252,194,1)"/>
<polygon points="152.1,351.6 160.1,351.6 160.1,359.6 152.1,359.6" fill="rgb(252,194,1)"/>
<polygon points="160.1,351.6 168.1,351.6 168.1,359.6 160.1,359.6" fill="rgb(184,202,49)"/>
<polygon points="168.1,351.6 176.1,351.6 176.1,359.6 168.1,359.6" fill="rgb(28,137,141)"/>
<polygon points="176.1,351.6 184.1,351.6 184.1,359.6 176.1,359.6" fill="rgb(252,194,1)"/>
<polygon points="194.1,351.6 202.1,351.6 202.1,359.6 194.1,359.6" fill="rgb(255,255,255)"/>
<polygon points="202.1,351.6 210.1,351.6 210.1,359.6 202.1,359.6" fill="rgb(255,255,255)"/>
<polygon points="210.1,351.6 218.1,351.6 218.1,359.6 210.1,359.6" fill="rgb(255,255,255)"/>
<polygon points="218.1,351.6 226.1,351.6 226.1,359.6 218.1,359.6" fill="rgb(255,255,255)"/>
<polygon points="226.1,351.6 234.1,351.6 234.1,359.6 226.1,359.6" fill="rgb(255,255,255)"/>
<polygon points="234.1,351.6 242.1,351.6 242.1,359.6 234.1,359.6" fill="rgb(255,255,255)"/>
<polygon points="242.1,351.6 250.1,351.6 250.1,359.6 242.1,359.6" fill="rgb(255,255,255)"/>
<polygon points="250.1,351.6 258.1,351.6 258.1,359.6 250.1,359.6" fill="rgb(255,255,255)"/>
<polygon points="94.1,335.6 134.1,335.6 134.1,359.6 94.1,359.6" fill="none" stroke="black" stroke-width="1"/>
<polygon points="144.1,335.6 184.1,335.6 184.1,359.6 144.1,359.6" fill="none" stroke="black" stroke-width="1"/>
<polygon points="194.1,335.6 258.1,335.6 258.1,359.6 194.1,359.6" fill="none" stroke="black" stroke-width="1"/>
<text xml:space="preserve" x="139.05" y="392.6" font-family="Calibri" font-size="8" text-anchor="middle">ClusterAssignment</text>
<polygon points="89.05,399.6 109.05,399.6 109.05,419.6 89.05,419.6" fill="rgb(0,205,0)"/><polygon points="89.05,399.6 109.05,399.6 109.05,419.6 89.05,419.6" fill="none" stroke="black" stroke-width="1"/><text xml:space="preserve" x="99.05" y="412.433" font-family="Calibri" font-size="7.5" fill="rgb(255,255,255)" text-anchor="middle">1.0</text>
<polygon points="109.05,399.6 129.05,399.6 129.05,419.6 109.05,419.6" fill="rgb(127,230,0)"/><polygon points="109.05,399.6 129.05,399.6 129.05,419.6 109.05,419.6" fill="none" stroke="black" stroke-width="1"/><text xml:space="preserve" x="119.05" y="412.433" font-family="Calibri" font-size="7.5" fill="rgb(0,0,0)" text-anchor="middle">2.0</text>
<polygon points="129.05,399.6 149.05,399.6 149.05,419.6 129.05,419.6" fill="rgb(255,255,0)"/><polygon points="129.05,399.6 149.05,399.6 149.05,419.6 129.05,419.6" fill="none" stroke="black" stroke-width="1"/><text xml:space="preserve" x="139.05" y="412.433" font-family="Calibri" font-size="7.5" fill="rgb(0,0,0)" text-anchor="middle">3.0</text>
<polygon points="149.05,399.6 169.05,399.6 169.05,419.6 149.05,419.6" fill="rgb(230,127,0)"/><polygon points="149.05,399.6 169.05,399.6 169.05,419.6 149.05,419.6" fill="none" stroke="black" stroke-width="1"/><text xml:space="preserve" x="159.05" y="412.433" font-family="Calibri" font-size="7.5" fill="rgb(0,0,0)" text-anchor="middle">4.0</text>
<polygon points="169.05,399.6 189.05,399.6 189.05,419.6 169.05,419.6" fill="rgb(205,0,0)"/><polygon points="169.05,399.6 189.05,399.6 189.05,419.6 169.05,419.6" fill="none" stroke="black" stroke-width="1"/><text xml:space="preserve" x="179.05" y="412.433" font-family="Calibri" font-size="7.5" fill="rgb(255,255,255)" text-anchor="middle">5.0</text>
<text xml:space="preserve" x="139.05" y="452.6" font-family="Calibri" font-size="8" text-anchor="middle">Expression</text>
<polygon points="89.05,459.6 109.05,459.6 109.05,479.6 89.05,479.6" fill="rgb(0,27,135)"/><polygon points="89.05,459.6 109.05,459.6 109.05,479.6 89.05,479.6" fill="none" stroke="black" stroke-width="1"/><text xml:space="preserve" x="99.05" y="472.433" font-family="Calibri" font-size="7.5" fill="rgb(255,255,255)" text-anchor="middle">0.0</text>
<polygon points="109.05,459.6 129.05,459.6 129.05,479.6 109.05,479.6" fill="rgb(24,123,140)"/><polygon points="109.05,459.6 129.05,459.6 129.05,479.6 109.05,479.6" fill="none" stroke="black" stroke-width="1"/><text xml:space="preserve" x="119.05" y="472.433" font-family="Calibri" font-size="7.5" fill="rgb(255,255,255)" text-anchor="middle">0.8</text>
<polygon points="129.05,459.6 149.05,459.6 149.05,479.6 129.05,479.6" fill="rgb(49,219,146)"/><polygon points="129.05,459.6 149.05,459.6 149.05,479.6 129.05,479.6" fill="none" stroke="black" stroke-width="1"/><text xml:space="preserve" x="139.05" y="472.433" font-family="Calibri" font-size="7.5" fill="rgb(0,0,0)" text-anchor="middle">1.5</text>
<polygon points="149.05,459.6 169.05,459.6 169.05,479.6 149.05,479.6" fill="rgb(150,206,73)"/><polygon points="149.05,459.6 169.05,459.6 169.05,479.6 149.05,479.6" fill="none" stroke="black" stroke-width="1"/><text xml:space="preserve" x="159.05" y="472.433" font-family="Calibri" font-size="7.5" fill="rgb(0,0,0)" text-anchor="middle">2.2</text>
<polygon points="169.05,459.6 189.05,459.6 189.05,479.6 169.05,479.6" fill="rgb(252,194,1)"/><polygon points="169.05,459.6 189.05,459.6 189.05,479.6 169.05,479.6" fill="none" stroke="black" stroke-width="1"/><text xml:space="preserve" x="179.05" y="472.433" font-family="Calibri" font-size="7.5" fill="rgb(0,0,0)" text-anchor="middle">3.0</text>
<text xml:space="preserve" x="139.05" y="512.6" font-family="Calibri" font-size="8" text-anchor="middle">PANTHERclass</text>
<polygon points="89.05,519.6 109.05,519.6 109.05,539.6 89.05,539.6" fill="rgb(255,255,255)"/><polygon points="89.05,519.6 109.05,519.6 109.05,539.6 89.05,539.6" fill="none" stroke="black" stroke-width="1"/><text xml:space="preserve" x="99.05" y="532.433" font-family="Calibri" font-size="7.5" fill="rgb(0,0,0)" text-anchor="middle">0.0</text>
<polygon points="109.05,519.6 129.05,519.6 129.05,539.6 109.05,539.6" fill="rgb(242,191,242)"/><polygon points="109.05,519.6 129.05,519.6 129.05,539.6 109.05,539.6" fill="none" stroke="black" stroke-width="1"/><text xml:space="preserve" x="119.05" y="532.433" font-family="Calibri" font-size="7.5" fill="rgb(0,0,0)" text-anchor="middle">0.2</text>
<polygon points="129.05,519.6 149.05,519.6 149.05,539.6 129.05,539.6" fill="rgb(230,127,230)"/><polygon points="129.05,519.6 149.05,519.6 149.05,539.6 129.05,539.6" fill="none" stroke="black" stroke-width="1"/><text xml:space="preserve" x="139.05" y="532.433" font-family="Calibri" font-size="7.5" fill="rgb(0,0,0)" text-anchor="middle">0.5</text>
<polygon points="149.05,519.6 169.05,519.6 169.05,539.6 149.05,539.6" fill="rgb(217,63,217)"/><polygon points="149.05,519.6 169.05,519.6 169.05,539.6 149.05,539.6" fill="none" stroke="black" stroke-width="1"/><text xml:space="preserve" x="159.05" y="532.433" font-family="Calibri" font-size="7.5" fill="rgb(255,255,255)" text-anchor="middle">0.8</text>
<polygon points="169.05,519.6 189.05,519.6 189.05,539.6 169.05,539.6" fill="rgb(205,0,205)"/><polygon points="169.05,519.6 189.05,519.6 189.05,539.6 169.05,539.6" fill="none" stroke="black" stroke-width="1"/><text xml:space="preserve" x="179.05" y="532.433" font-family="Calibri" font-size="7.5" fill="rgb(255,255,255)" text-anchor="middle">1.0</text>
</svg>
