<?xml version="1.0" standalone="no"?><!DOCTYPE svg PUBLIC "-//W3C//DTD SVG 1.1//EN" "http://www.w3.org/Graphics/SVG/1.1/DTD/svg11.dtd">
<svg width="287.7" height="607.6" version="1.1" xmlns="http://www.w3.org/2000/svg">
<text xml:space="preserve" x="99.7" y="342.6" font-family="Calibri" font-size="8" text-anchor="end">C4orf47</text>
<text xml:space="preserve" x="99.7" y="350.6" font-family="Calibri" font-size="8" text-anchor="end">ROPN1L</text>
<text xml:space="preserve" x="99.7" y="358.6" font-family="Calibri" font-size="8" text-anchor="end">IFIT1</text>
<text xml:space="preserve" x="99.7" y="366.6" font-family="Calibri" font-size="8" text-anchor="end">FOXP2</text>
<text xml:space="preserve" x="99.7" y="374.6" font-family="Calibri" font-size="8" text-anchor="end">TACR1</text>
<text xml:space="preserve" x="99.7" y="382.6" font-family="Calibri" font-size="8" text-anchor="end">UBXN10</text>
<text xml:space="preserve" x="99.7" y="390.6" font-family="Calibri" font-size="8" text-anchor="end">FXYD1</text>
<text xml:space="preserve" x="99.7" y="398.6" font-family="Calibri" font-size="8" text-anchor="end">ODF3B</text>
<text xml:space="preserve" x="99.7" y="406.6" font-family="Calibri" font-size="8" text-anchor="end">DYNLRB2</text>
<text xml:space="preserve" x="110.7" y="331.6" font-family="Calibri" font-size="8" transform="rotate(270 110.7 331.6)">c2</text>
<text xml:space="preserve" x="118.7" y="331.6" font-family="Calibri" font-size="8" transform="rotate(270 118.7 331.6)">c4</text>
<text xml:space="preserve" x="126.7" y="331.6" font-family="Calibri" font-size="8" transform="rotate(270 126.7 331.6)">c3</text>
<text xml:space="preserve" x="134.7" y="331.6" font-family="Calibri" font-size="8" transform="rotate(270 134.7 331.6)">c1</text>
<text xml:space="preserve" x="142.7" y="331.6" font-family="Calibri" font-size="8" transform="rotate(270 142.7 331.6)">c5</text>
<text xml:space="preserve" x="160.7" y="331.6" font-family="Calibri" font-size="8" transform="rotate(270 160.7 331.6)">c2_mean</text>
<text xml:space="preserve" x="168.7" y="331.6" font-family="Calibri" font-size="8" transform="rotate(270 168.7 331.6)">c4_mean</text>
<text xml:space="preserve" x="176.7" y="331.6" font-family="Calibri" font-size="8" transform="rotate(270 176.7 331.6)">c3_mean</text>
<text xml:space="preserve" x="184.7" y="331.6" font-family="Calibri" font-size="8" transform="rotate(270 184.7 331.6)">c1_mean</text>
<text xml:space="preserve" x="192.7" y="331.6" font-family="Calibri" font-size="8" transform="rotate(270 192.7 331.6)">c5_mean</text>
<text xml:space="preserve" x="210.7" y="331.6" font-family="Calibri" font-size="8" transform="rotate(270 210.7 331.6)">transcription_factor</text>
<text xml:space="preserve" x="218.7" y="331.6" font-family="Calibri" font-size="8" transform="rotate(270 218.7 331.6)">transmembrane_signal_receptor</text>
<text xml:space="preserve" x="226.7" y="331.6" font-family="Calibri" font-size="8" transform="rotate(270 226.7 331.6)">growth_factor</text>
<text xml:space="preserve" x="234.7" y="331.6" font-family="Calibri" font-size="8" transform="rotate(270 234.7 331.6)">peptide_hormone</text>
<text xml:space="preserve" x="242.7" y="331.6" font-family="Calibri" font-size="8" transform="rotate(270 242.7 331.6)">cytoskeletal_protein</text>
<text xml:space="preserve" x="250.7" y="331.6" font-family="Calibri" font-size="8" transform="rotate(270 250.7 331.6)">ion_channel</text>
<text xml:space="preserve" x="258.7" y="331.6" font-family="Calibri" font-size="8" transform="rotate(270 258.7 331.6)">integrin</text>
<text xml:space="preserve" x="266.7" y="331.6" font-family="Calibri" font-size="8" transform="rotate(270 266.7 331.6)">extracellular_matrix_protein</text>
<polygon points="103.7,335.6 111.7,335.6 111.7,343.6 103.7,343.6" fill="rgb(230,127,0)"/><text xml:space="preserve" x="107.7" y="342.433" font-family="Calibri" font-size="7.5" fill="rgb(0,0,0)" text-anchor="middle">4</text>
<polygon points="111.7,335.6 119.7,335.6 119.7,343.6 111.7,343.6" fill="rgb(255,255,0)"/><text xml:space="preserve" x="115.7" y="342.433" font-family="Calibri" font-size="7.5" fill="rgb(0,0,0)" text-anchor="middle">3</text>
<polygon points="119.7,335.6 127.7,335.6 127.7,343.6 119.7,343.6" fill="rgb(255,255,0)"/><text xml:space="preserve" x="123.7" y="342.433" font-family="Calibri" font-size="7.5" fill="rgb(0,0,0)" text-anchor="middle">3</text>
<polygon points="127.7,335.6 135.7,335.6 135.7,343.6 127.7,343.6" fill="rgb(230,127,0)"/><text xml:space="preserve" x="131.7" y="342.433" font-family="Calibri" font-size="7.5" fill="rgb(0,0,0)" text-anchor="middle">4</text>
<polygon points="135.7,335.6 143.7,335.6 143.7,343.6 135.7,343.6" fill="rgb(230,127,0)"/><text xml:space="preserve" x="139.7" y="342.433" font-family="Calibri" font-size="7.5" fill="rgb(0,0,0)" text-anchor="middle">4</text>
<polygon points="153.7,335.6 161.7,335.6 161.7,343.6 153.7,343.6" fill="rgb(252,194,1)"/>
<polygon points="161.7,335.6 169.7,335.6 169.7,343.6 161.7,343.6" fill="rgb(54,218,142)"/>
<polygon points="169.7,335.6 177.7,335.6 177.7,343.6 169.7,343.6" fill="rgb(36,169,143)"/>
<polygon points="177.7,335.6 185.7,335.6 185.7,343.6 177.7,343.6" fill="rgb(45,204,145)"/>
<polygon points="185.7,335.6 193.7,335.6 193.7,343.6 185.7,343.6" fill="rgb(46,207,145)"/>
<polygon points="203.7,335.6 211.7,335.6 211.7,343.6 203.7,343.6" fill="rgb(255,255,255)"/>
<polygon points="211.7,335.6 219.7,335.6 219.7,343.6 211.7,343.6" fill="rgb(255,255,255)"/>
<polygon points="219.7,335.6 227.7,335.6 227.7,343.6 219.7,343.6" fill="rgb(255,255,255)"/>
<polygon points="227.7,335.6 235.7,335.6 235.7,343.6 227.7,343.6" fill="rgb(255,255,255)"/>
<polygon points="235.7,335.6 243.7,335.6 243.7,343.6 235.7,343.6" fill="rgb(255,255,255)"/>
<polygon points="243.7,335.6 251.7,335.6 251.7,343.6 243.7,343.6" fill="rgb(255,255,255)"/>
<polygon points="251.7,335.6 259.7,335.6 259.7,343.6 251.7,343.6" fill="rgb(255,255,255)"/>
<polygon points="259.7,335.6 267.7,335.6 267.7,343.6 259.7,343.6" fill="rgb(255,255,255)"/>
<polygon points="103.7,343.6 111.7,343.6 111.7,351.6 103.7,351.6" fill="rgb(230,127,0)"/><text xml:space="preserve" x="107.7" y="350.433" font-family="Calibri" font-size="7.5" fill="rgb(0,0,0)" text-anchor="middle">4</text>
<polygon points="111.7,343.6 119.7,343.6 119.7,351.6 111.7,351.6" fill="rgb(255,255,0)"/><text xml:space="preserve" x="115.7" y="350.433" font-family="Calibri" font-size="7.5" fill="rgb(0,0,0)" text-anchor="middle">3</text>
<polygon points="119.7,343.6 127.7,343.6 127.7,351.6 119.7,351.6" fill="rgb(255,255,0)"/><text xml:space="preserve" x="123.7" y="350.433" font-family="Calibri" font-size="7.5" fill="rgb(0,0,0)" text-anchor="middle">3</text>
<polygon points="127.7,343.6 135.7,343.6 135.7,351.6 127.7,351.6" fill="rgb(230,127,0)"/><text xml:space="preserve" x="131.7" y="350.433" font-family="Calibri" font-size="7.5" fill="rgb(0,0,0)" text-anchor="middle">4</text>
<polygon points="135.7,343.6 143.7,343.6 143.7,351.6 135.7,351.6" fill="rgb(230,127,0)"/><text xml:space="preserve" x="139.7" y="350.433" font-family="Calibri" font-size="7.5" fill="rgb(0,0,0)" text-anchor="middle">4</text>
<polygon points="153.7,343.6 161.7,343.6 161.7,351.6 153.7,351.6" fill="rgb(252,194,1)"/>
<polygon points="161.7,343.6 169.7,343.6 169.7,351.6 161.7,351.6" fill="rgb(131,208,87)"/>
<polygon points="169.7,343.6 177.7,343.6 177.7,351.6 169.7,351.6" fill="rgb(39,183,143)"/>
<polygon points="177.7,343.6 185.7,343.6 185.7,351.6 177.7,351.6" fill="rgb(57,218,140)"/>
<polygon points="185.7,343.6 193.7,343.6 193.7,351.6 185.7,351.6" fill="rgb(41,190,144)"/>
<polygon points="203.7,343.6 211.7,343.6 211.7,351.6 203.7,351.6" fill="rgb(255,255,255)"/>
<polygon points="211.7,343.6 219.7,343.6 219.7,351.6 211.7,351.6" fill="rgb(255,255,255)"/>
<polygon points="219.7,343.6 227.7,343.6 227.7,351.6 219.7,351.6" fill="rgb(255,255,255)"/>
<polygon points="227.7,343.6 235.7,343.6 235.7,351.6 227.7,351.6" fill="rgb(255,255,255)"/>
<polygon points="235.7,343.6 243.7,343.6 243.7,351.6 235.7,351.6" fill="rgb(255,255,255)"/>
<polygon points="243.7,343.6 251.7,343.6 251.7,351.6 243.7,351.6" fill="rgb(255,255,255)"/>
<polygon points="251.7,343.6 259.7,343.6 259.7,351.6 251.7,351.6" fill="rgb(255,255,255)"/>
<polygon points="259.7,343.6 267.7,343.6 267.7,351.6 259.7,351.6" fill="rgb(255,255,255)"/>
<polygon points="103.7,351.6 111.7,351.6 111.7,359.6 103.7,359.6" fill="rgb(230,127,0)"/><text xml:space="preserve" x="107.7" y="358.433" font-family="Calibri" font-size="7.5" fill="rgb(0,0,0)" text-anchor="middle">4</text>
<polygon points="111.7,351.6 119.7,351.6 119.7,359.6 111.7,359.6" fill="rgb(255,255,0)"/><text xml:space="preserve" x="115.7" y="358.433" font-family="Calibri" font-size="7.5" fill="rgb(0,0,0)" text-anchor="middle">3</text>
<polygon points="119.7,351.6 127.7,351.6 127.7,359.6 119.7,359.6" fill="rgb(255,255,0)"/><text xml:space="preserve" x="123.7" y="358.433" font-family="Calibri" font-size="7.5" fill="rgb(0,0,0)" text-anchor="middle">3</text>
<polygon points="127.7,351.6 135.7,351.6 135.7,359.6 127.7,359.6" fill="rgb(230,127,0)"/><text xml:space="preserve" x="131.7" y="358.433" font-family="Calibri" font-size="7.5" fill="rgb(0,0,0)" text-anchor="middle">4</text>
<polygon points="135.7,351.6 143.7,351.6 143.7,359.6 135.7,359.6" fill="rgb(230,127,0)"/><text xml:space="preserve" x="139.7" y="358.433" font-family="Calibri" font-size="7.5" fill="rgb(0,0,0)" text-anchor="middle">4</text>
<polygon points="153.7,351.6 161.7,351.6 161.7,359.6 153.7,359.6" fill="rgb(252,194,1)"/>
<polygon points="161.7,351.6 169.7,351.6 169.7,359.6 161.7,359.6" fill="rgb(41,190,144)"/>
<polygon points="169.7,351.6 177.7,351.6 177.7,359.6 169.7,359.6" fill="rgb(134,208,85)"/>
<polygon points="177.7,351.6 185.7,351.6 185.7,359.6 177.7,359.6" fill="rgb(48,217,145)"/>
<polygon points="185.7,351.6 193.7,351.6 193.7,359.6 185.7,359.6" fill="rgb(57,218,140)"/>
<polygon points="203.7,351.6 211.7,351.6 211.7,359.6 203.7,359.6" fill="rgb(255,255,255)"/>
<polygon points="211.7,351.6 219.7,351.6 219.7,359.6 211.7,359.6" fill="rgb(255,255,255)"/>
<polygon points="219.7,351.6 227.7,351.6 227.7,359.6 219.7,359.6" fill="rgb(255,255,255)"/>
<polygon points="227.7,351.6 235.7,351.6 235.7,359.6 227.7,359.6" fill="rgb(255,255,255)"/>
<polygon points="235.7,351.6 243.7,351.6 243.7,359.6 235.7,359.6" fill="rgb(255,255,255)"/>
<polygon points="243.7,351.6 251.7,351.6 251.7,359.6 243.7,359.6" fill="rgb(255,255,255)"/>
<polygon points="251.7,351.6 259.7,351.6 259.7,359.6 251.7,359.6" fill="rgb(255,255,255)"/>
<polygon points="259.7,351.6 267.7,351.6 267.7,359.6 259.7,359.6" fill="rgb(255,255,255)"/>
<polygon points="103.7,359.6 111.7,359.6 111.7,367.6 103.7,367.6" fill="rgb(230,127,0)"/><text xml:space="preserve" x="107.7" y="366.433" font-family="Calibri" font-size="7.5" fill="rgb(0,0,0)" text-anchor="middle">4</text>
<polygon points="111.7,359.6 119.7,359.6 119.7,367.6 111.7,367.6" fill="rgb(255,255,0)"/><text xml:space="preserve" x="115.7" y="366.433" font-family="Calibri" font-size="7.5" fill="rgb(0,0,0)" text-anchor="middle">3</text>
<polygon points="119.7,359.6 127.7,359.6 127.7,367.6 119.7,367.6" fill="rgb(255,255,0)"/><text xml:space="preserve" x="123.7" y="366.433" font-family="Calibri" font-size="7.5" fill="rgb(0,0,0)" text-anchor="middle">3</text>
<polygon points="127.7,359.6 135.7,359.6 135.7,367.6 127.7,367.6" fill="rgb(230,127,0)"/><text xml:space="preserve" x="131.7" y="366.433" font-family="Calibri" font-size="7.5" fill="rgb(0,0,0)" text-anchor="middle">4</text>
<polygon points="135.7,359.6 143.7,359.6 143.7,367.6 135.7,367.6" fill="rgb(230,127,0)"/><text xml:space="preserve" x="139.7" y="366.433" font-family="Calibri" font-size="7.5" fill="rgb(0,0,0)" text-anchor="middle">4</text>
<polygon points="153.7,359.6 161.7,359.6 161.7,367.6 153.7,367.6" fill="rgb(252,194,1)"/>
<polygon points="161.7,359.6 169.7,359.6 169.7,367.6 161.7,367.6" fill="rgb(96,213,112)"/>
<polygon points="169.7,359.6 177.7,359.6 177.7,367.6 169.7,367.6" fill="rgb(55,218,141)"/>
<polygon points="177.7,359.6 185.7,359.6 185.7,367.6 177.7,367.6" fill="rgb(46,210,145)"/>
<polygon points="185.7,359.6 193.7,359.6 193.7,367.6 185.7,367.6" fill="rgb(237,195,11)"/>
<polygon points="203.7,359.6 211.7,359.6 211.7,367.6 203.7,367.6" fill="rgb(205,0,205)"/>
<polygon points="211.7,359.6 219.7,359.6 219.7,367.6 211.7,367.6" fill="rgb(255,255,255)"/>
<polygon points="219.7,359.6 227.7,359.6 227.7,367.6 219.7,367.6" fill="rgb(255,255,255)"/>
<polygon points="227.7,359.6 235.7,359.6 235.7,367.6 227.7,367.6" fill="rgb(255,255,255)"/>
<polygon points="235.7,359.6 243.7,359.6 243.7,367.6 235.7,367.6" fill="rgb(255,255,255)"/>
<polygon points="243.7,359.6 251.7,359.6 251.7,367.6 243.7,367.6" fill="rgb(255,255,255)"/>
<polygon points="251.7,359.6 259.7,359.6 259.7,367.6 251.7,367.6" fill="rgb(255,255,255)"/>
<polygon points="259.7,359.6 267.7,359.6 267.7,367.6 259.7,367.6" fill="rgb(255,255,255)"/>
<polygon points="103.7,367.6 111.7,367.6 111.7,375.6 103.7,375.6" fill="rgb(230,127,0)"/><text xml:space="preserve" x="107.7" y="374.433" font-family="Calibri" font-size="7.5" fill="rgb(0,0,0)" text-anchor="middle">4</text>
<polygon points="111.7,367.6 119.7,367.6 119.7,375.6 111.7,375.6" fill="rgb(255,255,0)"/><text xml:space="preserve" x="115.7" y="374.433" font-family="Calibri" font-size="7.5" fill="rgb(0,0,0)" text-anchor="middle">3</text>
<polygon points="119.7,367.6 127.7,367.6 127.7,375.6 119.7,375.6" fill="rgb(255,255,0)"/><text xml:space="preserve" x="123.7" y="374.433" font-family="Calibri" font-size="7.5" fill="rgb(0,0,0)" text-anchor="middle">3</text>
<polygon points="127.7,367.6 135.7,367.6 135.7,375.6 127.7,375.6" fill="rgb(230,127,0)"/><text xml:space="preserve" x="131.7" y="374.433" font-family="Calibri" font-size="7.5" fill="rgb(0,0,0)" text-anchor="middle">4</text>
<polygon points="135.7,367.6 143.7,367.6 143.7,375.6 135.7,375.6" fill="rgb(230,127,0)"/><text xml:space="preserve" x="139.7" y="374.433" font-family="Calibri" font-size="7.5" fill="rgb(0,0,0)" text-anchor="middle">4</text>
<polygon points="153.7,367.6 161.7,367.6 161.7,375.6 153.7,375.6" fill="rgb(252,194,1)"/>
<polygon points="161.7,367.6 169.7,367.6 169.7,375.6 161.7,375.6" fill="rgb(112,211,100)"/>
<polygon points="169.7,367.6 177.7,367.6 177.7,375.6 169.7,375.6" fill="rgb(32,156,142)"/>
<polygon points="177.7,367.6 185.7,367.6 185.7,375.6 177.7,375.6" fill="rgb(62,217,136)"/>
<polygon points="185.7,367.6 193.7,367.6 193.7,375.6 185.7,375.6" fill="rgb(80,215,123)"/>
<polygon points="203.7,367.6 211.7,367.6 211.7,375.6 203.7,375.6" fill="rgb(255,255,255)"/>
<polygon points="211.7,367.6 219.7,367.6 219.7,375.6 211.7,375.6" fill="rgb(255,255,255)"/>
<polygon points="219.7,367.6 227.7,367.6 227.7,375.6 219.7,375.6" fill="rgb(255,255,255)"/>
<polygon points="227.7,367.6 235.7,367.6 235.7,375.6 227.7,375.6" fill="rgb(255,255,255)"/>
<polygon points="235.7,367.6 243.7,367.6 243.7,375.6 235.7,375.6" fill="rgb(255,255,255)"/>
<polygon points="243.7,367.6 251.7,367.6 251.7,375.6 243.7,375.6" fill="rgb(255,255,255)"/>
<polygon points="251.7,367.6 259.7,367.6 259.7,375.6 251.7,375.6" fill="rgb(255,255,255)"/>
<polygon points="259.7,367.6 267.7,367.6 267.7,375.6 259.7,375.6" fill="rgb(255,255,255)"/>
<polygon points="103.7,375.6 111.7,375.6 111.7,383.6 103.7,383.6" fill="rgb(230,127,0)"/><text xml:space="preserve" x="107.7" y="382.433" font-family="Calibri" font-size="7.5" fill="rgb(0,0,0)" text-anchor="middle">4</text>
<polygon points="111.7,375.6 119.7,375.6 119.7,383.6 111.7,383.6" fill="rgb(255,255,0)"/><text xml:space="preserve" x="115.7" y="382.433" font-family="Calibri" font-size="7.5" fill="rgb(0,0,0)" text-anchor="middle">3</text>
<polygon points="119.7,375.6 127.7,375.6 127.7,383.6 119.7,383.6" fill="rgb(255,255,0)"/><text xml:space="preserve" x="123.7" y="382.433" font-family="Calibri" font-size="7.5" fill="rgb(0,0,0)" text-anchor="middle">3</text>
<polygon points="127.7,375.6 135.7,375.6 135.7,383.6 127.7,383.6" fill="rgb(230,127,0)"/><text xml:space="preserve" x="131.7" y="382.433" font-family="Calibri" font-size="7.5" fill="rgb(0,0,0)" text-anchor="middle">4</text>
<polygon points="135.7,375.6 143.7,375.6 143.7,383.6 135.7,383.6" fill="rgb(230,127,0)"/><text xml:space="preserve" x="139.7" y="382.433" font-family="Calibri" font-size="7.5" fill="rgb(0,0,0)" text-anchor="middle">4</text>
<polygon points="153.7,375.6 161.7,375.6 161.7,383.6 153.7,383.6" fill="rgb(252,194,1)"/>
<polygon points="161.7,375.6 169.7,375.6 169.7,383.6 161.7,383.6" fill="rgb(45,206,145)"/>
<polygon points="169.7,375.6 177.7,375.6 177.7,383.6 169.7,383.6" fill="rgb(31,149,142)"/>
<polygon points="177.7,375.6 185.7,375.6 185.7,383.6 177.7,383.6" fill="rgb(42,192,144)"/>
<polygon points="185.7,375.6 193.7,375.6 193.7,383.6 185.7,383.6" fill="rgb(45,203,145)"/>
<polygon points="203.7,375.6 211.7,375.6 211.7,383.6 203.7,383.6" fill="rgb(255,255,255)"/>
<polygon points="211.7,375.6 219.7,375.6 219.7,383.6 211.7,383.6" fill="rgb(255,255,255)"/>
<polygon points="219.7,375.6 227.7,375.6 227.7,383.6 219.7,383.6" fill="rgb(255,255,255)"/>
<polygon points="227.7,375.6 235.7,375.6 235.7,383.6 227.7,383.6" fill="rgb(255,255,255)"/>
<polygon points="235.7,375.6 243.7,375.6 243.7,383.6 235.7,383.6" fill="rgb(255,255,255)"/>
<polygon points="243.7,375.6 251.7,375.6 251.7,383.6 243.7,383.6" fill="rgb(255,255,255)"/>
<polygon points="251.7,375.6 259.7,375.6 259.7,383.6 251.7,383.6" fill="rgb(255,255,255)"/>
<polygon points="259.7,375.6 267.7,375.6 267.7,383.6 259.7,383.6" fill="rgb(255,255,255)"/>
<polygon points="103.7,383.6 111.7,383.6 111.7,391.6 103.7,391.6" fill="rgb(230,127,0)"/><text xml:space="preserve" x="107.7" y="390.433" font-family="Calibri" font-size="7.5" fill="rgb(0,0,0)" text-anchor="middle">4</text>
<polygon points="111.7,383.6 119.7,383.6 119.7,391.6 111.7,391.6" fill="rgb(255,255,0)"/><text xml:space="preserve" x="115.7" y="390.433" font-family="Calibri" font-size="7.5" fill="rgb(0,0,0)" text-anchor="middle">3</text>
<polygon points="119.7,383.6 127.7,383.6 127.7,391.6 119.7,391.6" fill="rgb(255,255,0)"/><text xml:space="preserve" x="123.7" y="390.433" font-family="Calibri" font-size="7.5" fill="rgb(0,0,0)" text-anchor="middle">3</text>
<polygon points="127.7,383.6 135.7,383.6 135.7,391.6 127.7,391.6" fill="rgb(230,127,0)"/><text xml:space="preserve" x="131.7" y="390.433" font-family="Calibri" font-size="7.5" fill="rgb(0,0,0)" text-anchor="middle">4</text>
<polygon points="135.7,383.6 143.7,383.6 143.7,391.6 135.7,391.6" fill="rgb(230,127,0)"/><text xml:space="preserve" x="139.7" y="390.433" font-family="Calibri" font-size="7.5" fill="rgb(0,0,0)" text-anchor="middle">4</text>
<polygon points="153.7,383.6 161.7,383.6 161.7,391.6 153.7,391.6" fill="rgb(252,194,1)"/>
<polygon points="161.7,383.6 169.7,383.6 169.7,391.6 161.7,391.6" fill="rgb(142,207,79)"/>
<polygon points="169.7,383.6 177.7,383.6 177.7,391.6 169.7,391.6" fill="rgb(43,195,144)"/>
<polygon points="177.7,383.6 185.7,383.6 185.7,391.6 177.7,391.6" fill="rgb(111,211,101)"/>
<polygon points="185.7,383.6 193.7,383.6 193.7,391.6 185.7,391.6" fill="rgb(143,207,78)"/>
<polygon points="203.7,383.6 211.7,383.6 211.7,391.6 203.7,391.6" fill="rgb(255,255,255)"/>
<polygon points="211.7,383.6 219.7,383.6 219.7,391.6 211.7,391.6" fill="rgb(255,255,255)"/>
<polygon points="219.7,383.6 227.7,383.6 227.7,391.6 219.7,391.6" fill="rgb(255,255,255)"/>
<polygon points="227.7,383.6 235.7,383.6 235.7,391.6 227.7,391.6" fill="rgb(255,255,255)"/>
<polygon points="235.7,383.6 243.7,383.6 243.7,391.6 235.7,391.6" fill="rgb(255,255,255)"/>
<polygon points="243.7,383.6 251.7,383.6 251.7,391.6 243.7,391.6" fill="rgb(255,255,255)"/>
<polygon points="251.7,383.6 259.7,383.6 259.7,391.6 251.7,391.6" fill="rgb(255,255,255)"/>
<polygon points="259.7,383.6 267.7,383.6 267.7,391.6 259.7,391.6" fill="rgb(255,255,255)"/>
<polygon points="103.7,391.6 111.7,391.6 111.7,399.6 103.7,399.6" fill="rgb(230,127,0)"/><text xml:space="preserve" x="107.7" y="398.433" font-family="Calibri" font-size="7.5" fill="rgb(0,0,0)" text-anchor="middle">4</text>
<polygon points="111.7,391.6 119.7,391.6 119.7,399.6 111.7,399.6" fill="rgb(255,255,0)"/><text xml:space="preserve" x="115.7" y="398.433" font-family="Calibri" font-size="7.5" fill="rgb(0,0,0)" text-anchor="middle">3</text>
<polygon points="119.7,391.6 127.7,391.6 127.7,399.6 119.7,399.6" fill="rgb(255,255,0)"/><text xml:space="preserve" x="123.7" y="398.433" font-family="Calibri" font-size="7.5" fill="rgb(0,0,0)" text-anchor="middle">3</text>
<polygon points="127.7,391.6 135.7,391.6 135.7,399.6 127.7,399.6" fill="rgb(230,127,0)"/><text xml:space="preserve" x="131.7" y="398.433" font-family="Calibri" font-size="7.5" fill="rgb(0,0,0)" text-anchor="middle">4</text>
<polygon points="135.7,391.6 143.7,391.6 143.7,399.6 135.7,399.6" fill="rgb(230,127,0)"/><text xml:space="preserve" x="139.7" y="398.433" font-family="Calibri" font-size="7.5" fill="rgb(0,0,0)" text-anchor="middle">4</text>
<polygon points="153.7,391.6 161.7,391.6 161.7,399.6 153.7,399.6" fill="rgb(252,194,1)"/>
<polygon points="161.7,391.6 169.7,391.6 169.7,399.6 161.7,399.6" fill="rgb(126,209,90)"/>
<polygon points="169.7,391.6 177.7,391.6 177.7,399.6 169.7,399.6" fill="rgb(36,171,143)"/>
<polygon points="177.7,391.6 185.7,391.6 185.7,399.6 177.7,399.6" fill="rgb(104,212,106)"/>
<polygon points="185.7,391.6 193.7,391.6 193.7,399.6 185.7,399.6" fill="rgb(86,214,118)"/>
<polygon points="203.7,391.6 211.7,391.6 211.7,399.6 203.7,399.6" fill="rgb(255,255,255)"/>
<polygon points="211.7,391.6 219.7,391.6 219.7,399.6 211.7,399.6" fill="rgb(255,255,255)"/>
<polygon points="219.7,391.6 227.7,391.6 227.7,399.6 219.7,399.6" fill="rgb(255,255,255)"/>
<polygon points="227.7,391.6 235.7,391.6 235.7,399.6 227.7,399.6" fill="rgb(255,255,255)"/>
<polygon points="235.7,391.6 243.7,391.6 243.7,399.6 235.7,399.6" fill="rgb(255,255,255)"/>
<polygon points="243.7,391.6 251.7,391.6 251.7,399.6 243.7,399.6" fill="rgb(255,255,255)"/>
<polygon points="251.7,391.6 259.7,391.6 259.7,399.6 251.7,399.6" fill="rgb(255,255,255)"/>
<polygon points="259.7,391.6 267.7,391.6 267.7,399.6 259.7,399.6" fill="rgb(255,255,255)"/>
<polygon points="103.7,399.6 111.7,399.6 111.7,407.6 103.7,407.6" fill="rgb(230,127,0)"/><text xml:space="preserve" x="107.7" y="406.433" font-family="Calibri" font-size="7.5" fill="rgb(0,0,0)" text-anchor="middle">4</text>
<polygon points="111.7,399.6 119.7,399.6 119.7,407.6 111.7,407.6" fill="rgb(255,255,0)"/><text xml:space="preserve" x="115.7" y="406.433" font-family="Calibri" font-size="7.5" fill="rgb(0,0,0)" text-anchor="middle">3</text>
<polygon points="119.7,399.6 127.7,399.6 127.7,407.6 119.7,407.6" fill="rgb(255,255,0)"/><text xml:space="preserve" x="123.7" y="406.433" font-family="Calibri" font-size="7.5" fill="rgb(0,0,0)" text-anchor="middle">3</text>
<polygon points="127.7,399.6 135.7,399.6 135.7,407.6 127.7,407.6" fill="rgb(230,127,0)"/><text xml:space="preserve" x="131.7" y="406.433" font-family="Calibri" font-size="7.5" fill="rgb(0,0,0)" text-anchor="middle">4</text>
<polygon points="135.7,399.6 143.7,399.6 143.7,407.6 135.7,407.6" fill="rgb(230,127,0)"/><text xml:space="preserve" x="139.7" y="406.433" font-family="Calibri" font-size="7.5" fill="rgb(0,0,0)" text-anchor="middle">4</text>
<polygon points="153.7,399.6 161.7,399.6 161.7,407.6 153.7,407.6" fill="rgb(252,194,1)"/>
<polygon points="161.7,399.6 169.7,399.6 169.7,407.6 161.7,407.6" fill="rgb(119,210,95)"/>
<polygon points="169.7,399.6 177.7,399.6 177.7,407.6 169.7,407.6" fill="rgb(40,185,144)"/>
<polygon points="177.7,399.6 185.7,399.6 185.7,407.6 177.7,407.6" fill="rgb(45,204,145)"/>
<polygon points="185.7,399.6 193.7,399.6 193.7,407.6 185.7,407.6" fill="rgb(41,189,144)"/>
<polygon points="203.7,399.6 211.7,399.6 211.7,407.6 203.7,407.6" fill="rgb(255,255,255)"/>
<polygon points="211.7,399.6 219.7,399.6 219.7,407.6 211.7,407.6" fill="rgb(255,255,255)"/>
<polygon points="219.7,399.6 227.7,399.6 227.7,407.6 219.7,407.6" fill="rgb(255,255,255)"/>
<polygon points="227.7,399.6 235.7,399.6 235.7,407.6 227.7,407.6" fill="rgb(255,255,255)"/>
<polygon points="235.7,399.6 243.7,399.6 243.7,407.6 235.7,407.6" fill="rgb(255,255,255)"/>
<polygon points="243.7,399.6 251.7,399.6 251.7,407.6 243.7,407.6" fill="rgb(255,255,255)"/>
<polygon points="251.7,399.6 259.7,399.6 259.7,407.6 251.7,407.6" fill="rgb(255,255,255)"/>
<polygon points="259.7,399.6 267.7,399.6 267.7,407.6 259.7,407.6" fill="rgb(255,255,255)"/>
<polygon points="103.7,335.6 143.7,335.6 143.7,407.6 103.7,407.6" fill="none" stroke="black" stroke-width="1"/>
<polygon points="153.7,335.6 193.7,335.6 193.7,407.6 153.7,407.6" fill="none" stroke="black" stroke-width="1"/>
<polygon points="203.7,335.6 267.7,335.6 267.7,407.6 203.7,407.6" fill="none" stroke="black" stroke-width="1"/>
<text xml:space="preserve" x="143.85" y="440.6" font-family="Calibri" font-size="8" text-anchor="middle">ClusterAssignment</text>
<polygon points="93.85,447.6 113.85,447.6 113.85,467.6 93.85,467.6" fill="rgb(0,205,0)"/><polygon points="93.85,447.6 113.85,447.6 113.85,467.6 93.85,467.6" fill="none" stroke="black" stroke-width="1"/><text xml:space="preserve" x="103.85" y="460.433" font-family="Calibri" font-size="7.5" fill="rgb(255,255,255)" text-anchor="middle">1.0</text>
<polygon points="113.85,447.6 133.85,447.6 133.85,467.6 113.85,467.6" fill="rgb(127,230,0)"/><polygon points="113.85,447.6 133.85,447.6 133.85,467.6 113.85,467.6" fill="none" stroke="black" stroke-width="1"/><text xml:space="preserve" x="123.85" y="460.433" font-family="Calibri" font-size="7.5" fill="rgb(0,0,0)" text-anchor="middle">2.0</text>
<polygon points="133.85,447.6 153.85,447.6 153.85,467.6 133.85,467.6" fill="rgb(255,255,0)"/><polygon points="133.85,447.6 153.85,447.6 153.85,467.6 133.85,467.6" fill="none" stroke="black" stroke-width="1"/><text xml:space="preserve" x="143.85" y="460.433" font-family="Calibri" font-size="7.5" fill="rgb(0,0,0)" text-anchor="middle">3.0</text>
<polygon points="153.85,447.6 173.85,447.6 173.85,467.6 153.85,467.6" fill="rgb(230,127,0)"/><polygon points="153.85,447.6 173.85,447.6 173.85,467.6 153.85,467.6" fill="none" stroke="black" stroke-width="1"/><text xml:space="preserve" x="163.85" y="460.433" font-family="Calibri" font-size="7.5" fill="rgb(0,0,0)" text-anchor="middle">4.0</text>
<polygon points="173.85,447.6 193.85,447.6 193.85,467.6 173.85,467.6" fill="rgb(205,0,0)"/><polygon points="173.85,447.6 193.85,447.6 193.85,467.6 173.85,467.6" fill="none" stroke="black" stroke-width="1"/><text xml:space="preserve" x="183.85" y="460.433" font-family="Calibri" font-size="7.5" fill="rgb(255,255,255)" text-anchor="middle">5.0</text>
<text xml:space="preserve" x="143.85" y="500.6" font-family="Calibri" font-size="8" text-anchor="middle">Expression</text>
<polygon points="93.85,507.6 113.85,507.6 113.85,527.6 93.85,527.6" fill="rgb(0,27,135)"/><polygon points="93.85,507.6 113.85,507.6 113.85,527.6 93.85,527.6" fill="none" stroke="black" stroke-width="1"/><text xml:space="preserve" x="103.85" y="520.433" font-family="Calibri" font-size="7.5" fill="rgb(255,255,255)" text-anchor="middle">0.0</text>
<polygon points="113.85,507.6 133.85,507.6 133.85,527.6 113.85,527.6" fill="rgb(24,123,140)"/><polygon points="113.85,507.6 133.85,507.6 133.85,527.6 113.85,527.6" fill="none" stroke="black" stroke-width="1"/><text xml:space="preserve" x="123.85" y="520.433" font-family="Calibri" font-size="7.5" fill="rgb(255,255,255)" text-anchor="middle">0.8</text>
<polygon points="133.85,507.6 153.85,507.6 153.85,527.6 133.85,527.6" fill="rgb(49,219,146)"/><polygon points="133.85,507.6 153.85,507.6 153.85,527.6 133.85,527.6" fill="none" stroke="black" stroke-width="1"/><text xml:space="preserve" x="143.85" y="520.433" font-family="Calibri" font-size="7.5" fill="rgb(0,0,0)" text-anchor="middle">1.5</text>
<polygon points="153.85,507.6 173.85,507.6 173.85,527.6 153.85,527.6" fill="rgb(150,206,73)"/><polygon points="153.85,507.6 173.85,507.6 173.85,527.6 153.85,527.6" fill="none" stroke="black" stroke-width="1"/><text xml:space="preserve" x="163.85" y="520.433" font-family="Calibri" font-size="7.5" fill="rgb(0,0,0)" text-anchor="middle">2.2</text>
<polygon points="173.85,507.6 193.85,507.6 193.85,527.6 173.85,527.6" fill="rgb(252,194,1)"/><polygon points="173.85,507.6 193.85,507.6 193.85,527.6 173.85,527.6" fill="none" stroke="black" stroke-width="1"/><text xml:space="preserve" x="183.85" y="520.433" font-family="Calibri" font-size="7.5" fill="rgb(0,0,0)" text-anchor="middle">3.0</text>
<text xml:space="preserve" x="143.85" y="560.6" font-family="Calibri" font-size="8" text-anchor="middle">PANTHERclass</text>
<polygon points="93.85,567.6 113.85,567.6 113.85,587.6 93.85,587.6" fill="rgb(255,255,255)"/><polygon points="93.85,567.6 113.85,567.6 113.85,587.6 93.85,587.6" fill="none" stroke="black" stroke-width="1"/><text xml:space="preserve" x="103.85" y="580.433" font-family="Calibri" font-size="7.5" fill="rgb(0,0,0)" text-anchor="middle">0.0</text>
<polygon points="113.85,567.6 133.85,567.6 133.85,587.6 113.85,587.6" fill="rgb(242,191,242)"/><polygon points="113.85,567.6 133.85,567.6 133.85,587.6 113.85,587.6" fill="none" stroke="black" stroke-width="1"/><text xml:space="preserve" x="123.85" y="580.433" font-family="Calibri" font-size="7.5" fill="rgb(0,0,0)" text-anchor="middle">0.2</text>
<polygon points="133.85,567.6 153.85,567.6 153.85,587.6 133.85,587.6" fill="rgb(230,127,230)"/><polygon points="133.85,567.6 153.85,567.6 153.85,587.6 133.85,587.6" fill="none" stroke="black" stroke-width="1"/><text xml:space="preserve" x="143.85" y="580.433" font-family="Calibri" font-size="7.5" fill="rgb(0,0,0)" text-anchor="middle">0.5</text>
<polygon points="153.85,567.6 173.85,567.6 173.85,587.6 153.85,587.6" fill="rgb(217,63,217)"/><polygon points="153.85,567.6 173.85,567.6 173.85,587.6 153.85,587.6" fill="none" stroke="black" stroke-width="1"/><text xml:space="preserve" x="163.85" y="580.433" font-family="Calibri" font-size="7.5" fill="rgb(255,255,255)" text-anchor="middle">0.8</text>
<polygon points="173.85,567.6 193.85,567.6 193.85,587.6 173.85,587.6" fill="rgb(205,0,205)"/><polygon points="173.85,567.6 193.85,567.6 193.85,587.6 173.85,587.6" fill="none" stroke="black" stroke-width="1"/><text xml:space="preserve" x="183.85" y="580.433" font-family="Calibri" font-size="7.5" fill="rgb(255,255,255)" text-anchor="middle">1.0</text>
</svg>
