<?xml version="1.0" standalone="no"?><!DOCTYPE svg PUBLIC "-//W3C//DTD SVG 1.1//EN" "http://www.w3.org/Graphics/SVG/1.1/DTD/svg11.dtd">
<svg width="300.3" height="615.6" version="1.1" xmlns="http://www.w3.org/2000/svg">
<text xml:space="preserve" x="112.3" y="342.6" font-family="Calibri" font-size="8" text-anchor="end">ALDH1L1</text>
<text xml:space="preserve" x="112.3" y="350.6" font-family="Calibri" font-size="8" text-anchor="end">SPARCL1</text>
<text xml:space="preserve" x="112.3" y="358.6" font-family="Calibri" font-size="8" text-anchor="end">PRDM1</text>
<text xml:space="preserve" x="112.3" y="366.6" font-family="Calibri" font-size="8" text-anchor="end">DPPA4</text>
<text xml:space="preserve" x="112.3" y="374.6" font-family="Calibri" font-size="8" text-anchor="end">SRARP</text>
<text xml:space="preserve" x="112.3" y="382.6" font-family="Calibri" font-size="8" text-anchor="end">LINC00461</text>
<text xml:space="preserve" x="112.3" y="390.6" font-family="Calibri" font-size="8" text-anchor="end">H1FOO</text>
<text xml:space="preserve" x="112.3" y="398.6" font-family="Calibri" font-size="8" text-anchor="end">MDK</text>
<text xml:space="preserve" x="112.3" y="406.6" font-family="Calibri" font-size="8" text-anchor="end">NKX2-8</text>
<text xml:space="preserve" x="112.3" y="414.6" font-family="Calibri" font-size="8" text-anchor="end">APELA</text>
<text xml:space="preserve" x="123.3" y="331.6" font-family="Calibri" font-size="8" transform="rotate(270 123.3 331.6)">c2</text>
<text xml:space="preserve" x="131.3" y="331.6" font-family="Calibri" font-size="8" transform="rotate(270 131.3 331.6)">c4</text>
<text xml:space="preserve" x="139.3" y="331.6" font-family="Calibri" font-size="8" transform="rotate(270 139.3 331.6)">c3</text>
<text xml:space="preserve" x="147.3" y="331.6" font-family="Calibri" font-size="8" transform="rotate(270 147.3 331.6)">c1</text>
<text xml:space="preserve" x="155.3" y="331.6" font-family="Calibri" font-size="8" transform="rotate(270 155.3 331.6)">c5</text>
<text xml:space="preserve" x="173.3" y="331.6" font-family="Calibri" font-size="8" transform="rotate(270 173.3 331.6)">c2_mean</text>
<text xml:space="preserve" x="181.3" y="331.6" font-family="Calibri" font-size="8" transform="rotate(270 181.3 331.6)">c4_mean</text>
<text xml:space="preserve" x="189.3" y="331.6" font-family="Calibri" font-size="8" transform="rotate(270 189.3 331.6)">c3_mean</text>
<text xml:space="preserve" x="197.3" y="331.6" font-family="Calibri" font-size="8" transform="rotate(270 197.3 331.6)">c1_mean</text>
<text xml:space="preserve" x="205.3" y="331.6" font-family="Calibri" font-size="8" transform="rotate(270 205.3 331.6)">c5_mean</text>
<text xml:space="preserve" x="223.3" y="331.6" font-family="Calibri" font-size="8" transform="rotate(270 223.3 331.6)">transcription_factor</text>
<text xml:space="preserve" x="231.3" y="331.6" font-family="Calibri" font-size="8" transform="rotate(270 231.3 331.6)">transmembrane_signal_receptor</text>
<text xml:space="preserve" x="239.3" y="331.6" font-family="Calibri" font-size="8" transform="rotate(270 239.3 331.6)">growth_factor</text>
<text xml:space="preserve" x="247.3" y="331.6" font-family="Calibri" font-size="8" transform="rotate(270 247.3 331.6)">peptide_hormone</text>
<text xml:space="preserve" x="255.3" y="331.6" font-family="Calibri" font-size="8" transform="rotate(270 255.3 331.6)">cytoskeletal_protein</text>
<text xml:space="preserve" x="263.3" y="331.6" font-family="Calibri" font-size="8" transform="rotate(270 263.3 331.6)">ion_channel</text>
<text xml:space="preserve" x="271.3" y="331.6" font-family="Calibri" font-size="8" transform="rotate(270 271.3 331.6)">integrin</text>
<text xml:space="preserve" x="279.3" y="331.6" font-family="Calibri" font-size="8" transform="rotate(270 279.3 331.6)">extracellular_matrix_protein</text>
<polygon points="116.3,335.6 124.3,335.6 124.3,343.6 116.3,343.6" fill="rgb(127,230,0)"/><text xml:space="preserve" x="120.3" y="342.433" font-family="Calibri" font-size="7.5" fill="rgb(0,0,0)" text-anchor="middle">2</text>
<polygon points="124.3,335.6 132.3,335.6 132.3,343.6 124.3,343.6" fill="rgb(127,230,0)"/><text xml:space="preserve" x="128.3" y="342.433" font-family="Calibri" font-size="7.5" fill="rgb(0,0,0)" text-anchor="middle">2</text>
<polygon points="132.3,335.6 140.3,335.6 140.3,343.6 132.3,343.6" fill="rgb(127,230,0)"/><text xml:space="preserve" x="136.3" y="342.433" font-family="Calibri" font-size="7.5" fill="rgb(0,0,0)" text-anchor="middle">2</text>
<polygon points="140.3,335.6 148.3,335.6 148.3,343.6 140.3,343.6" fill="rgb(255,255,0)"/><text xml:space="preserve" x="144.3" y="342.433" font-family="Calibri" font-size="7.5" fill="rgb(0,0,0)" text-anchor="middle">3</text>
<polygon points="148.3,335.6 156.3,335.6 156.3,343.6 148.3,343.6" fill="rgb(127,230,0)"/><text xml:space="preserve" x="152.3" y="342.433" font-family="Calibri" font-size="7.5" fill="rgb(0,0,0)" text-anchor="middle">2</text>
<polygon points="166.3,335.6 174.3,335.6 174.3,343.6 166.3,343.6" fill="rgb(36,171,143)"/>
<polygon points="174.3,335.6 182.3,335.6 182.3,343.6 174.3,343.6" fill="rgb(7,56,136)"/>
<polygon points="182.3,335.6 190.3,335.6 190.3,343.6 182.3,343.6" fill="rgb(16,91,138)"/>
<polygon points="190.3,335.6 198.3,335.6 198.3,343.6 190.3,343.6" fill="rgb(252,194,1)"/>
<polygon points="198.3,335.6 206.3,335.6 206.3,343.6 198.3,343.6" fill="rgb(12,76,137)"/>
<polygon points="216.3,335.6 224.3,335.6 224.3,343.6 216.3,343.6" fill="rgb(255,255,255)"/>
<polygon points="224.3,335.6 232.3,335.6 232.3,343.6 224.3,343.6" fill="rgb(255,255,255)"/>
<polygon points="232.3,335.6 240.3,335.6 240.3,343.6 232.3,343.6" fill="rgb(255,255,255)"/>
<polygon points="240.3,335.6 248.3,335.6 248.3,343.6 240.3,343.6" fill="rgb(255,255,255)"/>
<polygon points="248.3,335.6 256.3,335.6 256.3,343.6 248.3,343.6" fill="rgb(255,255,255)"/>
<polygon points="256.3,335.6 264.3,335.6 264.3,343.6 256.3,343.6" fill="rgb(255,255,255)"/>
<polygon points="264.3,335.6 272.3,335.6 272.3,343.6 264.3,343.6" fill="rgb(255,255,255)"/>
<polygon points="272.3,335.6 280.3,335.6 280.3,343.6 272.3,343.6" fill="rgb(255,255,255)"/>
<polygon points="116.3,343.6 124.3,343.6 124.3,351.6 116.3,351.6" fill="rgb(127,230,0)"/><text xml:space="preserve" x="120.3" y="350.433" font-family="Calibri" font-size="7.5" fill="rgb(0,0,0)" text-anchor="middle">2</text>
<polygon points="124.3,343.6 132.3,343.6 132.3,351.6 124.3,351.6" fill="rgb(127,230,0)"/><text xml:space="preserve" x="128.3" y="350.433" font-family="Calibri" font-size="7.5" fill="rgb(0,0,0)" text-anchor="middle">2</text>
<polygon points="132.3,343.6 140.3,343.6 140.3,351.6 132.3,351.6" fill="rgb(127,230,0)"/><text xml:space="preserve" x="136.3" y="350.433" font-family="Calibri" font-size="7.5" fill="rgb(0,0,0)" text-anchor="middle">2</text>
<polygon points="140.3,343.6 148.3,343.6 148.3,351.6 140.3,351.6" fill="rgb(255,255,0)"/><text xml:space="preserve" x="144.3" y="350.433" font-family="Calibri" font-size="7.5" fill="rgb(0,0,0)" text-anchor="middle">3</text>
<polygon points="148.3,343.6 156.3,343.6 156.3,351.6 148.3,351.6" fill="rgb(127,230,0)"/><text xml:space="preserve" x="152.3" y="350.433" font-family="Calibri" font-size="7.5" fill="rgb(0,0,0)" text-anchor="middle">2</text>
<polygon points="166.3,343.6 174.3,343.6 174.3,351.6 166.3,351.6" fill="rgb(18,98,139)"/>
<polygon points="174.3,343.6 182.3,343.6 182.3,351.6 174.3,351.6" fill="rgb(41,190,144)"/>
<polygon points="182.3,343.6 190.3,343.6 190.3,351.6 182.3,351.6" fill="rgb(33,160,142)"/>
<polygon points="190.3,343.6 198.3,343.6 198.3,351.6 190.3,351.6" fill="rgb(252,194,1)"/>
<polygon points="198.3,343.6 206.3,343.6 206.3,351.6 198.3,351.6" fill="rgb(14,84,138)"/>
<polygon points="216.3,343.6 224.3,343.6 224.3,351.6 216.3,351.6" fill="rgb(255,255,255)"/>
<polygon points="224.3,343.6 232.3,343.6 232.3,351.6 224.3,351.6" fill="rgb(255,255,255)"/>
<polygon points="232.3,343.6 240.3,343.6 240.3,351.6 232.3,351.6" fill="rgb(255,255,255)"/>
<polygon points="240.3,343.6 248.3,343.6 248.3,351.6 240.3,351.6" fill="rgb(255,255,255)"/>
<polygon points="248.3,343.6 256.3,343.6 256.3,351.6 248.3,351.6" fill="rgb(255,255,255)"/>
<polygon points="256.3,343.6 264.3,343.6 264.3,351.6 256.3,351.6" fill="rgb(255,255,255)"/>
<polygon points="264.3,343.6 272.3,343.6 272.3,351.6 264.3,351.6" fill="rgb(255,255,255)"/>
<polygon points="272.3,343.6 280.3,343.6 280.3,351.6 272.3,351.6" fill="rgb(255,255,255)"/>
<polygon points="116.3,351.6 124.3,351.6 124.3,359.6 116.3,359.6" fill="rgb(127,230,0)"/><text xml:space="preserve" x="120.3" y="358.433" font-family="Calibri" font-size="7.5" fill="rgb(0,0,0)" text-anchor="middle">2</text>
<polygon points="124.3,351.6 132.3,351.6 132.3,359.6 124.3,359.6" fill="rgb(127,230,0)"/><text xml:space="preserve" x="128.3" y="358.433" font-family="Calibri" font-size="7.5" fill="rgb(0,0,0)" text-anchor="middle">2</text>
<polygon points="132.3,351.6 140.3,351.6 140.3,359.6 132.3,359.6" fill="rgb(127,230,0)"/><text xml:space="preserve" x="136.3" y="358.433" font-family="Calibri" font-size="7.5" fill="rgb(0,0,0)" text-anchor="middle">2</text>
<polygon points="140.3,351.6 148.3,351.6 148.3,359.6 140.3,359.6" fill="rgb(255,255,0)"/><text xml:space="preserve" x="144.3" y="358.433" font-family="Calibri" font-size="7.5" fill="rgb(0,0,0)" text-anchor="middle">3</text>
<polygon points="148.3,351.6 156.3,351.6 156.3,359.6 148.3,359.6" fill="rgb(127,230,0)"/><text xml:space="preserve" x="152.3" y="358.433" font-family="Calibri" font-size="7.5" fill="rgb(0,0,0)" text-anchor="middle">2</text>
<polygon points="166.3,351.6 174.3,351.6 174.3,359.6 166.3,359.6" fill="rgb(7,56,136)"/>
<polygon points="174.3,351.6 182.3,351.6 182.3,359.6 174.3,359.6" fill="rgb(21,111,139)"/>
<polygon points="182.3,351.6 190.3,351.6 190.3,359.6 182.3,359.6" fill="rgb(40,187,144)"/>
<polygon points="190.3,351.6 198.3,351.6 198.3,359.6 190.3,359.6" fill="rgb(252,194,1)"/>
<polygon points="198.3,351.6 206.3,351.6 206.3,359.6 198.3,359.6" fill="rgb(36,169,143)"/>
<polygon points="216.3,351.6 224.3,351.6 224.3,359.6 216.3,359.6" fill="rgb(205,0,205)"/>
<polygon points="224.3,351.6 232.3,351.6 232.3,359.6 224.3,359.6" fill="rgb(255,255,255)"/>
<polygon points="232.3,351.6 240.3,351.6 240.3,359.6 232.3,359.6" fill="rgb(255,255,255)"/>
<polygon points="240.3,351.6 248.3,351.6 248.3,359.6 240.3,359.6" fill="rgb(255,255,255)"/>
<polygon points="248.3,351.6 256.3,351.6 256.3,359.6 248.3,359.6" fill="rgb(255,255,255)"/>
<polygon points="256.3,351.6 264.3,351.6 264.3,359.6 256.3,359.6" fill="rgb(255,255,255)"/>
<polygon points="264.3,351.6 272.3,351.6 272.3,359.6 264.3,359.6" fill="rgb(255,255,255)"/>
<polygon points="272.3,351.6 280.3,351.6 280.3,359.6 272.3,359.6" fill="rgb(255,255,255)"/>
<polygon points="116.3,359.6 124.3,359.6 124.3,367.6 116.3,367.6" fill="rgb(127,230,0)"/><text xml:space="preserve" x="120.3" y="366.433" font-family="Calibri" font-size="7.5" fill="rgb(0,0,0)" text-anchor="middle">2</text>
<polygon points="124.3,359.6 132.3,359.6 132.3,367.6 124.3,367.6" fill="rgb(127,230,0)"/><text xml:space="preserve" x="128.3" y="366.433" font-family="Calibri" font-size="7.5" fill="rgb(0,0,0)" text-anchor="middle">2</text>
<polygon points="132.3,359.6 140.3,359.6 140.3,367.6 132.3,367.6" fill="rgb(127,230,0)"/><text xml:space="preserve" x="136.3" y="366.433" font-family="Calibri" font-size="7.5" fill="rgb(0,0,0)" text-anchor="middle">2</text>
<polygon points="140.3,359.6 148.3,359.6 148.3,367.6 140.3,367.6" fill="rgb(255,255,0)"/><text xml:space="preserve" x="144.3" y="366.433" font-family="Calibri" font-size="7.5" fill="rgb(0,0,0)" text-anchor="middle">3</text>
<polygon points="148.3,359.6 156.3,359.6 156.3,367.6 148.3,367.6" fill="rgb(127,230,0)"/><text xml:space="preserve" x="152.3" y="366.433" font-family="Calibri" font-size="7.5" fill="rgb(0,0,0)" text-anchor="middle">2</text>
<polygon points="166.3,359.6 174.3,359.6 174.3,367.6 166.3,367.6" fill="rgb(20,108,139)"/>
<polygon points="174.3,359.6 182.3,359.6 182.3,367.6 174.3,367.6" fill="rgb(13,80,138)"/>
<polygon points="182.3,359.6 190.3,359.6 190.3,367.6 182.3,367.6" fill="rgb(29,142,141)"/>
<polygon points="190.3,359.6 198.3,359.6 198.3,367.6 190.3,367.6" fill="rgb(252,194,1)"/>
<polygon points="198.3,359.6 206.3,359.6 206.3,367.6 198.3,367.6" fill="rgb(35,165,142)"/>
<polygon points="216.3,359.6 224.3,359.6 224.3,367.6 216.3,367.6" fill="rgb(255,255,255)"/>
<polygon points="224.3,359.6 232.3,359.6 232.3,367.6 224.3,367.6" fill="rgb(255,255,255)"/>
<polygon points="232.3,359.6 240.3,359.6 240.3,367.6 232.3,367.6" fill="rgb(255,255,255)"/>
<polygon points="240.3,359.6 248.3,359.6 248.3,367.6 240.3,367.6" fill="rgb(255,255,255)"/>
<polygon points="248.3,359.6 256.3,359.6 256.3,367.6 248.3,367.6" fill="rgb(255,255,255)"/>
<polygon points="256.3,359.6 264.3,359.6 264.3,367.6 256.3,367.6" fill="rgb(255,255,255)"/>
<polygon points="264.3,359.6 272.3,359.6 272.3,367.6 264.3,367.6" fill="rgb(255,255,255)"/>
<polygon points="272.3,359.6 280.3,359.6 280.3,367.6 272.3,367.6" fill="rgb(255,255,255)"/>
<polygon points="116.3,367.6 124.3,367.6 124.3,375.6 116.3,375.6" fill="rgb(127,230,0)"/><text xml:space="preserve" x="120.3" y="374.433" font-family="Calibri" font-size="7.5" fill="rgb(0,0,0)" text-anchor="middle">2</text>
<polygon points="124.3,367.6 132.3,367.6 132.3,375.6 124.3,375.6" fill="rgb(127,230,0)"/><text xml:space="preserve" x="128.3" y="374.433" font-family="Calibri" font-size="7.5" fill="rgb(0,0,0)" text-anchor="middle">2</text>
<polygon points="132.3,367.6 140.3,367.6 140.3,375.6 132.3,375.6" fill="rgb(127,230,0)"/><text xml:space="preserve" x="136.3" y="374.433" font-family="Calibri" font-size="7.5" fill="rgb(0,0,0)" text-anchor="middle">2</text>
<polygon points="140.3,367.6 148.3,367.6 148.3,375.6 140.3,375.6" fill="rgb(255,255,0)"/><text xml:space="preserve" x="144.3" y="374.433" font-family="Calibri" font-size="7.5" fill="rgb(0,0,0)" text-anchor="middle">3</text>
<polygon points="148.3,367.6 156.3,367.6 156.3,375.6 148.3,375.6" fill="rgb(127,230,0)"/><text xml:space="preserve" x="152.3" y="374.433" font-family="Calibri" font-size="7.5" fill="rgb(0,0,0)" text-anchor="middle">2</text>
<polygon points="166.3,367.6 174.3,367.6 174.3,375.6 166.3,375.6" fill="rgb(42,192,144)"/>
<polygon points="174.3,367.6 182.3,367.6 182.3,375.6 174.3,375.6" fill="rgb(0,27,135)"/>
<polygon points="182.3,367.6 190.3,367.6 190.3,375.6 182.3,375.6" fill="rgb(0,27,135)"/>
<polygon points="190.3,367.6 198.3,367.6 198.3,375.6 190.3,375.6" fill="rgb(252,194,1)"/>
<polygon points="198.3,367.6 206.3,367.6 206.3,375.6 198.3,375.6" fill="rgb(19,103,139)"/>
<polygon points="216.3,367.6 224.3,367.6 224.3,375.6 216.3,375.6" fill="rgb(255,255,255)"/>
<polygon points="224.3,367.6 232.3,367.6 232.3,375.6 224.3,375.6" fill="rgb(255,255,255)"/>
<polygon points="232.3,367.6 240.3,367.6 240.3,375.6 232.3,375.6" fill="rgb(255,255,255)"/>
<polygon points="240.3,367.6 248.3,367.6 248.3,375.6 240.3,375.6" fill="rgb(255,255,255)"/>
<polygon points="248.3,367.6 256.3,367.6 256.3,375.6 248.3,375.6" fill="rgb(255,255,255)"/>
<polygon points="256.3,367.6 264.3,367.6 264.3,375.6 256.3,375.6" fill="rgb(255,255,255)"/>
<polygon points="264.3,367.6 272.3,367.6 272.3,375.6 264.3,375.6" fill="rgb(255,255,255)"/>
<polygon points="272.3,367.6 280.3,367.6 280.3,375.6 272.3,375.6" fill="rgb(255,255,255)"/>
<polygon points="116.3,375.6 124.3,375.6 124.3,383.6 116.3,383.6" fill="rgb(127,230,0)"/><text xml:space="preserve" x="120.3" y="382.433" font-family="Calibri" font-size="7.5" fill="rgb(0,0,0)" text-anchor="middle">2</text>
<polygon points="124.3,375.6 132.3,375.6 132.3,383.6 124.3,383.6" fill="rgb(127,230,0)"/><text xml:space="preserve" x="128.3" y="382.433" font-family="Calibri" font-size="7.5" fill="rgb(0,0,0)" text-anchor="middle">2</text>
<polygon points="132.3,375.6 140.3,375.6 140.3,383.6 132.3,383.6" fill="rgb(127,230,0)"/><text xml:space="preserve" x="136.3" y="382.433" font-family="Calibri" font-size="7.5" fill="rgb(0,0,0)" text-anchor="middle">2</text>
<polygon points="140.3,375.6 148.3,375.6 148.3,383.6 140.3,383.6" fill="rgb(255,255,0)"/><text xml:space="preserve" x="144.3" y="382.433" font-family="Calibri" font-size="7.5" fill="rgb(0,0,0)" text-anchor="middle">3</text>
<polygon points="148.3,375.6 156.3,375.6 156.3,383.6 148.3,383.6" fill="rgb(127,230,0)"/><text xml:space="preserve" x="152.3" y="382.433" font-family="Calibri" font-size="7.5" fill="rgb(0,0,0)" text-anchor="middle">2</text>
<polygon points="166.3,375.6 174.3,375.6 174.3,383.6 166.3,383.6" fill="rgb(43,197,144)"/>
<polygon points="174.3,375.6 182.3,375.6 182.3,383.6 174.3,383.6" fill="rgb(8,61,136)"/>
<polygon points="182.3,375.6 190.3,375.6 190.3,383.6 182.3,383.6" fill="rgb(31,149,142)"/>
<polygon points="190.3,375.6 198.3,375.6 198.3,383.6 190.3,383.6" fill="rgb(252,194,1)"/>
<polygon points="198.3,375.6 206.3,375.6 206.3,383.6 198.3,383.6" fill="rgb(40,184,144)"/>
<polygon points="216.3,375.6 224.3,375.6 224.3,383.6 216.3,383.6" fill="rgb(255,255,255)"/>
<polygon points="224.3,375.6 232.3,375.6 232.3,383.6 224.3,383.6" fill="rgb(255,255,255)"/>
<polygon points="232.3,375.6 240.3,375.6 240.3,383.6 232.3,383.6" fill="rgb(255,255,255)"/>
<polygon points="240.3,375.6 248.3,375.6 248.3,383.6 240.3,383.6" fill="rgb(255,255,255)"/>
<polygon points="248.3,375.6 256.3,375.6 256.3,383.6 248.3,383.6" fill="rgb(255,255,255)"/>
<polygon points="256.3,375.6 264.3,375.6 264.3,383.6 256.3,383.6" fill="rgb(255,255,255)"/>
<polygon points="264.3,375.6 272.3,375.6 272.3,383.6 264.3,383.6" fill="rgb(255,255,255)"/>
<polygon points="272.3,375.6 280.3,375.6 280.3,383.6 272.3,383.6" fill="rgb(255,255,255)"/>
<polygon points="116.3,383.6 124.3,383.6 124.3,391.6 116.3,391.6" fill="rgb(127,230,0)"/><text xml:space="preserve" x="120.3" y="390.433" font-family="Calibri" font-size="7.5" fill="rgb(0,0,0)" text-anchor="middle">2</text>
<polygon points="124.3,383.6 132.3,383.6 132.3,391.6 124.3,391.6" fill="rgb(127,230,0)"/><text xml:space="preserve" x="128.3" y="390.433" font-family="Calibri" font-size="7.5" fill="rgb(0,0,0)" text-anchor="middle">2</text>
<polygon points="132.3,383.6 140.3,383.6 140.3,391.6 132.3,391.6" fill="rgb(127,230,0)"/><text xml:space="preserve" x="136.3" y="390.433" font-family="Calibri" font-size="7.5" fill="rgb(0,0,0)" text-anchor="middle">2</text>
<polygon points="140.3,383.6 148.3,383.6 148.3,391.6 140.3,391.6" fill="rgb(255,255,0)"/><text xml:space="preserve" x="144.3" y="390.433" font-family="Calibri" font-size="7.5" fill="rgb(0,0,0)" text-anchor="middle">3</text>
<polygon points="148.3,383.6 156.3,383.6 156.3,391.6 148.3,391.6" fill="rgb(127,230,0)"/><text xml:space="preserve" x="152.3" y="390.433" font-family="Calibri" font-size="7.5" fill="rgb(0,0,0)" text-anchor="middle">2</text>
<polygon points="166.3,383.6 174.3,383.6 174.3,391.6 166.3,391.6" fill="rgb(55,218,141)"/>
<polygon points="174.3,383.6 182.3,383.6 182.3,391.6 174.3,391.6" fill="rgb(0,27,135)"/>
<polygon points="182.3,383.6 190.3,383.6 190.3,391.6 182.3,391.6" fill="rgb(0,27,135)"/>
<polygon points="190.3,383.6 198.3,383.6 198.3,391.6 190.3,391.6" fill="rgb(252,194,1)"/>
<polygon points="198.3,383.6 206.3,383.6 206.3,391.6 198.3,391.6" fill="rgb(20,108,139)"/>
<polygon points="216.3,383.6 224.3,383.6 224.3,391.6 216.3,391.6" fill="rgb(255,255,255)"/>
<polygon points="224.3,383.6 232.3,383.6 232.3,391.6 224.3,391.6" fill="rgb(255,255,255)"/>
<polygon points="232.3,383.6 240.3,383.6 240.3,391.6 232.3,391.6" fill="rgb(255,255,255)"/>
<polygon points="240.3,383.6 248.3,383.6 248.3,391.6 240.3,391.6" fill="rgb(255,255,255)"/>
<polygon points="248.3,383.6 256.3,383.6 256.3,391.6 248.3,391.6" fill="rgb(255,255,255)"/>
<polygon points="256.3,383.6 264.3,383.6 264.3,391.6 256.3,391.6" fill="rgb(255,255,255)"/>
<polygon points="264.3,383.6 272.3,383.6 272.3,391.6 264.3,391.6" fill="rgb(255,255,255)"/>
<polygon points="272.3,383.6 280.3,383.6 280.3,391.6 272.3,391.6" fill="rgb(255,255,255)"/>
<polygon points="116.3,391.6 124.3,391.6 124.3,399.6 116.3,399.6" fill="rgb(127,230,0)"/><text xml:space="preserve" x="120.3" y="398.433" font-family="Calibri" font-size="7.5" fill="rgb(0,0,0)" text-anchor="middle">2</text>
<polygon points="124.3,391.6 132.3,391.6 132.3,399.6 124.3,399.6" fill="rgb(127,230,0)"/><text xml:space="preserve" x="128.3" y="398.433" font-family="Calibri" font-size="7.5" fill="rgb(0,0,0)" text-anchor="middle">2</text>
<polygon points="132.3,391.6 140.3,391.6 140.3,399.6 132.3,399.6" fill="rgb(127,230,0)"/><text xml:space="preserve" x="136.3" y="398.433" font-family="Calibri" font-size="7.5" fill="rgb(0,0,0)" text-anchor="middle">2</text>
<polygon points="140.3,391.6 148.3,391.6 148.3,399.6 140.3,399.6" fill="rgb(255,255,0)"/><text xml:space="preserve" x="144.3" y="398.433" font-family="Calibri" font-size="7.5" fill="rgb(0,0,0)" text-anchor="middle">3</text>
<polygon points="148.3,391.6 156.3,391.6 156.3,399.6 148.3,399.6" fill="rgb(127,230,0)"/><text xml:space="preserve" x="152.3" y="398.433" font-family="Calibri" font-size="7.5" fill="rgb(0,0,0)" text-anchor="middle">2</text>
<polygon points="166.3,391.6 174.3,391.6 174.3,399.6 166.3,399.6" fill="rgb(24,124,140)"/>
<polygon points="174.3,391.6 182.3,391.6 182.3,399.6 174.3,399.6" fill="rgb(17,94,138)"/>
<polygon points="182.3,391.6 190.3,391.6 190.3,399.6 182.3,399.6" fill="rgb(25,126,140)"/>
<polygon points="190.3,391.6 198.3,391.6 198.3,399.6 190.3,399.6" fill="rgb(252,194,1)"/>
<polygon points="198.3,391.6 206.3,391.6 206.3,399.6 198.3,399.6" fill="rgb(39,181,143)"/>
<polygon points="216.3,391.6 224.3,391.6 224.3,399.6 216.3,399.6" fill="rgb(255,255,255)"/>
<polygon points="224.3,391.6 232.3,391.6 232.3,399.6 224.3,399.6" fill="rgb(255,255,255)"/>
<polygon points="232.3,391.6 240.3,391.6 240.3,399.6 232.3,399.6" fill="rgb(205,0,205)"/>
<polygon points="240.3,391.6 248.3,391.6 248.3,399.6 240.3,399.6" fill="rgb(255,255,255)"/>
<polygon points="248.3,391.6 256.3,391.6 256.3,399.6 248.3,399.6" fill="rgb(255,255,255)"/>
<polygon points="256.3,391.6 264.3,391.6 264.3,399.6 256.3,399.6" fill="rgb(255,255,255)"/>
<polygon points="264.3,391.6 272.3,391.6 272.3,399.6 264.3,399.6" fill="rgb(255,255,255)"/>
<polygon points="272.3,391.6 280.3,391.6 280.3,399.6 272.3,399.6" fill="rgb(255,255,255)"/>
<polygon points="116.3,399.6 124.3,399.6 124.3,407.6 116.3,407.6" fill="rgb(127,230,0)"/><text xml:space="preserve" x="120.3" y="406.433" font-family="Calibri" font-size="7.5" fill="rgb(0,0,0)" text-anchor="middle">2</text>
<polygon points="124.3,399.6 132.3,399.6 132.3,407.6 124.3,407.6" fill="rgb(127,230,0)"/><text xml:space="preserve" x="128.3" y="406.433" font-family="Calibri" font-size="7.5" fill="rgb(0,0,0)" text-anchor="middle">2</text>
<polygon points="132.3,399.6 140.3,399.6 140.3,407.6 132.3,407.6" fill="rgb(127,230,0)"/><text xml:space="preserve" x="136.3" y="406.433" font-family="Calibri" font-size="7.5" fill="rgb(0,0,0)" text-anchor="middle">2</text>
<polygon points="140.3,399.6 148.3,399.6 148.3,407.6 140.3,407.6" fill="rgb(255,255,0)"/><text xml:space="preserve" x="144.3" y="406.433" font-family="Calibri" font-size="7.5" fill="rgb(0,0,0)" text-anchor="middle">3</text>
<polygon points="148.3,399.6 156.3,399.6 156.3,407.6 148.3,407.6" fill="rgb(127,230,0)"/><text xml:space="preserve" x="152.3" y="406.433" font-family="Calibri" font-size="7.5" fill="rgb(0,0,0)" text-anchor="middle">2</text>
<polygon points="166.3,399.6 174.3,399.6 174.3,407.6 166.3,407.6" fill="rgb(22,115,140)"/>
<polygon points="174.3,399.6 182.3,399.6 182.3,407.6 174.3,407.6" fill="rgb(0,27,135)"/>
<polygon points="182.3,399.6 190.3,399.6 190.3,407.6 182.3,407.6" fill="rgb(14,83,138)"/>
<polygon points="190.3,399.6 198.3,399.6 198.3,407.6 190.3,407.6" fill="rgb(252,194,1)"/>
<polygon points="198.3,399.6 206.3,399.6 206.3,407.6 198.3,407.6" fill="rgb(29,140,141)"/>
<polygon points="216.3,399.6 224.3,399.6 224.3,407.6 216.3,407.6" fill="rgb(205,0,205)"/>
<polygon points="224.3,399.6 232.3,399.6 232.3,407.6 224.3,407.6" fill="rgb(255,255,255)"/>
<polygon points="232.3,399.6 240.3,399.6 240.3,407.6 232.3,407.6" fill="rgb(255,255,255)"/>
<polygon points="240.3,399.6 248.3,399.6 248.3,407.6 240.3,407.6" fill="rgb(255,255,255)"/>
<polygon points="248.3,399.6 256.3,399.6 256.3,407.6 248.3,407.6" fill="rgb(255,255,255)"/>
<polygon points="256.3,399.6 264.3,399.6 264.3,407.6 256.3,407.6" fill="rgb(255,255,255)"/>
<polygon points="264.3,399.6 272.3,399.6 272.3,407.6 264.3,407.6" fill="rgb(255,255,255)"/>
<polygon points="272.3,399.6 280.3,399.6 280.3,407.6 272.3,407.6" fill="rgb(255,255,255)"/>
<polygon points="116.3,407.6 124.3,407.6 124.3,415.6 116.3,415.6" fill="rgb(127,230,0)"/><text xml:space="preserve" x="120.3" y="414.433" font-family="Calibri" font-size="7.5" fill="rgb(0,0,0)" text-anchor="middle">2</text>
<polygon points="124.3,407.6 132.3,407.6 132.3,415.6 124.3,415.6" fill="rgb(127,230,0)"/><text xml:space="preserve" x="128.3" y="414.433" font-family="Calibri" font-size="7.5" fill="rgb(0,0,0)" text-anchor="middle">2</text>
<polygon points="132.3,407.6 140.3,407.6 140.3,415.6 132.3,415.6" fill="rgb(127,230,0)"/><text xml:space="preserve" x="136.3" y="414.433" font-family="Calibri" font-size="7.5" fill="rgb(0,0,0)" text-anchor="middle">2</text>
<polygon points="140.3,407.6 148.3,407.6 148.3,415.6 140.3,415.6" fill="rgb(255,255,0)"/><text xml:space="preserve" x="144.3" y="414.433" font-family="Calibri" font-size="7.5" fill="rgb(0,0,0)" text-anchor="middle">3</text>
<polygon points="148.3,407.6 156.3,407.6 156.3,415.6 148.3,415.6" fill="rgb(127,230,0)"/><text xml:space="preserve" x="152.3" y="414.433" font-family="Calibri" font-size="7.5" fill="rgb(0,0,0)" text-anchor="middle">2</text>
<polygon points="166.3,407.6 174.3,407.6 174.3,415.6 166.3,415.6" fill="rgb(32,152,142)"/>
<polygon points="174.3,407.6 182.3,407.6 182.3,415.6 174.3,415.6" fill="rgb(16,92,138)"/>
<polygon points="182.3,407.6 190.3,407.6 190.3,415.6 182.3,415.6" fill="rgb(5,47,136)"/>
<polygon points="190.3,407.6 198.3,407.6 198.3,415.6 190.3,415.6" fill="rgb(252,194,1)"/>
<polygon points="198.3,407.6 206.3,407.6 206.3,415.6 198.3,415.6" fill="rgb(44,202,145)"/>
<polygon points="216.3,407.6 224.3,407.6 224.3,415.6 216.3,415.6" fill="rgb(255,255,255)"/>
<polygon points="224.3,407.6 232.3,407.6 232.3,415.6 224.3,415.6" fill="rgb(255,255,255)"/>
<polygon points="232.3,407.6 240.3,407.6 240.3,415.6 232.3,415.6" fill="rgb(255,255,255)"/>
<polygon points="240.3,407.6 248.3,407.6 248.3,415.6 240.3,415.6" fill="rgb(255,255,255)"/>
<polygon points="248.3,407.6 256.3,407.6 256.3,415.6 248.3,415.6" fill="rgb(255,255,255)"/>
<polygon points="256.3,407.6 264.3,407.6 264.3,415.6 256.3,415.6" fill="rgb(255,255,255)"/>
<polygon points="264.3,407.6 272.3,407.6 272.3,415.6 264.3,415.6" fill="rgb(255,255,255)"/>
<polygon points="272.3,407.6 280.3,407.6 280.3,415.6 272.3,415.6" fill="rgb(255,255,255)"/>
<polygon points="116.3,335.6 156.3,335.6 156.3,415.6 116.3,415.6" fill="none" stroke="black" stroke-width="1"/>
<polygon points="166.3,335.6 206.3,335.6 206.3,415.6 166.3,415.6" fill="none" stroke="black" stroke-width="1"/>
<polygon points="216.3,335.6 280.3,335.6 280.3,415.6 216.3,415.6" fill="none" stroke="black" stroke-width="1"/>
<text xml:space="preserve" x="150.15" y="448.6" font-family="Calibri" font-size="8" text-anchor="middle">ClusterAssignment</text>
<polygon points="100.15,455.6 120.15,455.6 120.15,475.6 100.15,475.6" fill="rgb(0,205,0)"/><polygon points="100.15,455.6 120.15,455.6 120.15,475.6 100.15,475.6" fill="none" stroke="black" stroke-width="1"/><text xml:space="preserve" x="110.15" y="468.433" font-family="Calibri" font-size="7.5" fill="rgb(255,255,255)" text-anchor="middle">1.0</text>
<polygon points="120.15,455.6 140.15,455.6 140.15,475.6 120.15,475.6" fill="rgb(127,230,0)"/><polygon points="120.15,455.6 140.15,455.6 140.15,475.6 120.15,475.6" fill="none" stroke="black" stroke-width="1"/><text xml:space="preserve" x="130.15" y="468.433" font-family="Calibri" font-size="7.5" fill="rgb(0,0,0)" text-anchor="middle">2.0</text>
<polygon points="140.15,455.6 160.15,455.6 160.15,475.6 140.15,475.6" fill="rgb(255,255,0)"/><polygon points="140.15,455.6 160.15,455.6 160.15,475.6 140.15,475.6" fill="none" stroke="black" stroke-width="1"/><text xml:space="preserve" x="150.15" y="468.433" font-family="Calibri" font-size="7.5" fill="rgb(0,0,0)" text-anchor="middle">3.0</text>
<polygon points="160.15,455.6 180.15,455.6 180.15,475.6 160.15,475.6" fill="rgb(230,127,0)"/><polygon points="160.15,455.6 180.15,455.6 180.15,475.6 160.15,475.6" fill="none" stroke="black" stroke-width="1"/><text xml:space="preserve" x="170.15" y="468.433" font-family="Calibri" font-size="7.5" fill="rgb(0,0,0)" text-anchor="middle">4.0</text>
<polygon points="180.15,455.6 200.15,455.6 200.15,475.6 180.15,475.6" fill="rgb(205,0,0)"/><polygon points="180.15,455.6 200.15,455.6 200.15,475.6 180.15,475.6" fill="none" stroke="black" stroke-width="1"/><text xml:space="preserve" x="190.15" y="468.433" font-family="Calibri" font-size="7.5" fill="rgb(255,255,255)" text-anchor="middle">5.0</text>
<text xml:space="preserve" x="150.15" y="508.6" font-family="Calibri" font-size="8" text-anchor="middle">Expression</text>
<polygon points="100.15,515.6 120.15,515.6 120.15,535.6 100.15,535.6" fill="rgb(0,27,135)"/><polygon points="100.15,515.6 120.15,515.6 120.15,535.6 100.15,535.6" fill="none" stroke="black" stroke-width="1"/><text xml:space="preserve" x="110.15" y="528.433" font-family="Calibri" font-size="7.5" fill="rgb(255,255,255)" text-anchor="middle">0.0</text>
<polygon points="120.15,515.6 140.15,515.6 140.15,535.6 120.15,535.6" fill="rgb(24,123,140)"/><polygon points="120.15,515.6 140.15,515.6 140.15,535.6 120.15,535.6" fill="none" stroke="black" stroke-width="1"/><text xml:space="preserve" x="130.15" y="528.433" font-family="Calibri" font-size="7.5" fill="rgb(255,255,255)" text-anchor="middle">0.8</text>
<polygon points="140.15,515.6 160.15,515.6 160.15,535.6 140.15,535.6" fill="rgb(49,219,146)"/><polygon points="140.15,515.6 160.15,515.6 160.15,535.6 140.15,535.6" fill="none" stroke="black" stroke-width="1"/><text xml:space="preserve" x="150.15" y="528.433" font-family="Calibri" font-size="7.5" fill="rgb(0,0,0)" text-anchor="middle">1.5</text>
<polygon points="160.15,515.6 180.15,515.6 180.15,535.6 160.15,535.6" fill="rgb(150,206,73)"/><polygon points="160.15,515.6 180.15,515.6 180.15,535.6 160.15,535.6" fill="none" stroke="black" stroke-width="1"/><text xml:space="preserve" x="170.15" y="528.433" font-family="Calibri" font-size="7.5" fill="rgb(0,0,0)" text-anchor="middle">2.2</text>
<polygon points="180.15,515.6 200.15,515.6 200.15,535.6 180.15,535.6" fill="rgb(252,194,1)"/><polygon points="180.15,515.6 200.15,515.6 200.15,535.6 180.15,535.6" fill="none" stroke="black" stroke-width="1"/><text xml:space="preserve" x="190.15" y="528.433" font-family="Calibri" font-size="7.5" fill="rgb(0,0,0)" text-anchor="middle">3.0</text>
<text xml:space="preserve" x="150.15" y="568.6" font-family="Calibri" font-size="8" text-anchor="middle">PANTHERclass</text>
<polygon points="100.15,575.6 120.15,575.6 120.15,595.6 100.15,595.6" fill="rgb(255,255,255)"/><polygon points="100.15,575.6 120.15,575.6 120.15,595.6 100.15,595.6" fill="none" stroke="black" stroke-width="1"/><text xml:space="preserve" x="110.15" y="588.433" font-family="Calibri" font-size="7.5" fill="rgb(0,0,0)" text-anchor="middle">0.0</text>
<polygon points="120.15,575.6 140.15,575.6 140.15,595.6 120.15,595.6" fill="rgb(242,191,242)"/><polygon points="120.15,575.6 140.15,575.6 140.15,595.6 120.15,595.6" fill="none" stroke="black" stroke-width="1"/><text xml:space="preserve" x="130.15" y="588.433" font-family="Calibri" font-size="7.5" fill="rgb(0,0,0)" text-anchor="middle">0.2</text>
<polygon points="140.15,575.6 160.15,575.6 160.15,595.6 140.15,595.6" fill="rgb(230,127,230)"/><polygon points="140.15,575.6 160.15,575.6 160.15,595.6 140.15,595.6" fill="none" stroke="black" stroke-width="1"/><text xml:space="preserve" x="150.15" y="588.433" font-family="Calibri" font-size="7.5" fill="rgb(0,0,0)" text-anchor="middle">0.5</text>
<polygon points="160.15,575.6 180.15,575.6 180.15,595.6 160.15,595.6" fill="rgb(217,63,217)"/><polygon points="160.15,575.6 180.15,575.6 180.15,595.6 160.15,595.6" fill="none" stroke="black" stroke-width="1"/><text xml:space="preserve" x="170.15" y="588.433" font-family="Calibri" font-size="7.5" fill="rgb(255,255,255)" text-anchor="middle">0.8</text>
<polygon points="180.15,575.6 200.15,575.6 200.15,595.6 180.15,595.6" fill="rgb(205,0,205)"/><polygon points="180.15,575.6 200.15,575.6 200.15,595.6 180.15,595.6" fill="none" stroke="black" stroke-width="1"/><text xml:space="preserve" x="190.15" y="588.433" font-family="Calibri" font-size="7.5" fill="rgb(255,255,255)" text-anchor="middle">1.0</text>
</svg>
