<?xml version="1.0" standalone="no"?><!DOCTYPE svg PUBLIC "-//W3C//DTD SVG 1.1//EN" "http://www.w3.org/Graphics/SVG/1.1/DTD/svg11.dtd">
<svg width="311.7" height="655.6" version="1.1" xmlns="http://www.w3.org/2000/svg">
<text xml:space="preserve" x="123.7" y="342.6" font-family="Calibri" font-size="8" text-anchor="end">AC073941.1</text>
<text xml:space="preserve" x="123.7" y="350.6" font-family="Calibri" font-size="8" text-anchor="end">CFAP74</text>
<text xml:space="preserve" x="123.7" y="358.6" font-family="Calibri" font-size="8" text-anchor="end">RIBC1</text>
<text xml:space="preserve" x="123.7" y="366.6" font-family="Calibri" font-size="8" text-anchor="end">USP2-AS1</text>
<text xml:space="preserve" x="123.7" y="374.6" font-family="Calibri" font-size="8" text-anchor="end">C5orf49</text>
<text xml:space="preserve" x="123.7" y="382.6" font-family="Calibri" font-size="8" text-anchor="end">CFAP161</text>
<text xml:space="preserve" x="123.7" y="390.6" font-family="Calibri" font-size="8" text-anchor="end">CFAP44</text>
<text xml:space="preserve" x="123.7" y="398.6" font-family="Calibri" font-size="8" text-anchor="end">TEX26</text>
<text xml:space="preserve" x="123.7" y="406.6" font-family="Calibri" font-size="8" text-anchor="end">EPSTI1</text>
<text xml:space="preserve" x="123.7" y="414.6" font-family="Calibri" font-size="8" text-anchor="end">SH3RF2</text>
<text xml:space="preserve" x="123.7" y="422.6" font-family="Calibri" font-size="8" text-anchor="end">EFCAB12</text>
<text xml:space="preserve" x="123.7" y="430.6" font-family="Calibri" font-size="8" text-anchor="end">PDE5A</text>
<text xml:space="preserve" x="123.7" y="438.6" font-family="Calibri" font-size="8" text-anchor="end">DNAH11</text>
<text xml:space="preserve" x="123.7" y="446.6" font-family="Calibri" font-size="8" text-anchor="end">SPAG17</text>
<text xml:space="preserve" x="123.7" y="454.6" font-family="Calibri" font-size="8" text-anchor="end">DNAAF1</text>
<text xml:space="preserve" x="134.7" y="331.6" font-family="Calibri" font-size="8" transform="rotate(270 134.7 331.6)">c2</text>
<text xml:space="preserve" x="142.7" y="331.6" font-family="Calibri" font-size="8" transform="rotate(270 142.7 331.6)">c4</text>
<text xml:space="preserve" x="150.7" y="331.6" font-family="Calibri" font-size="8" transform="rotate(270 150.7 331.6)">c3</text>
<text xml:space="preserve" x="158.7" y="331.6" font-family="Calibri" font-size="8" transform="rotate(270 158.7 331.6)">c1</text>
<text xml:space="preserve" x="166.7" y="331.6" font-family="Calibri" font-size="8" transform="rotate(270 166.7 331.6)">c5</text>
<text xml:space="preserve" x="184.7" y="331.6" font-family="Calibri" font-size="8" transform="rotate(270 184.7 331.6)">c2_mean</text>
<text xml:space="preserve" x="192.7" y="331.6" font-family="Calibri" font-size="8" transform="rotate(270 192.7 331.6)">c4_mean</text>
<text xml:space="preserve" x="200.7" y="331.6" font-family="Calibri" font-size="8" transform="rotate(270 200.7 331.6)">c3_mean</text>
<text xml:space="preserve" x="208.7" y="331.6" font-family="Calibri" font-size="8" transform="rotate(270 208.7 331.6)">c1_mean</text>
<text xml:space="preserve" x="216.7" y="331.6" font-family="Calibri" font-size="8" transform="rotate(270 216.7 331.6)">c5_mean</text>
<text xml:space="preserve" x="234.7" y="331.6" font-family="Calibri" font-size="8" transform="rotate(270 234.7 331.6)">transcription_factor</text>
<text xml:space="preserve" x="242.7" y="331.6" font-family="Calibri" font-size="8" transform="rotate(270 242.7 331.6)">transmembrane_signal_receptor</text>
<text xml:space="preserve" x="250.7" y="331.6" font-family="Calibri" font-size="8" transform="rotate(270 250.7 331.6)">growth_factor</text>
<text xml:space="preserve" x="258.7" y="331.6" font-family="Calibri" font-size="8" transform="rotate(270 258.7 331.6)">peptide_hormone</text>
<text xml:space="preserve" x="266.7" y="331.6" font-family="Calibri" font-size="8" transform="rotate(270 266.7 331.6)">cytoskeletal_protein</text>
<text xml:space="preserve" x="274.7" y="331.6" font-family="Calibri" font-size="8" transform="rotate(270 274.7 331.6)">ion_channel</text>
<text xml:space="preserve" x="282.7" y="331.6" font-family="Calibri" font-size="8" transform="rotate(270 282.7 331.6)">integrin</text>
<text xml:space="preserve" x="290.7" y="331.6" font-family="Calibri" font-size="8" transform="rotate(270 290.7 331.6)">extracellular_matrix_protein</text>
<polygon points="127.7,335.6 135.7,335.6 135.7,343.6 127.7,343.6" fill="rgb(230,127,0)"/><text xml:space="preserve" x="131.7" y="342.433" font-family="Calibri" font-size="7.5" fill="rgb(0,0,0)" text-anchor="middle">4</text>
<polygon points="135.7,335.6 143.7,335.6 143.7,343.6 135.7,343.6" fill="rgb(255,255,0)"/><text xml:space="preserve" x="139.7" y="342.433" font-family="Calibri" font-size="7.5" fill="rgb(0,0,0)" text-anchor="middle">3</text>
<polygon points="143.7,335.6 151.7,335.6 151.7,343.6 143.7,343.6" fill="rgb(255,255,0)"/><text xml:space="preserve" x="147.7" y="342.433" font-family="Calibri" font-size="7.5" fill="rgb(0,0,0)" text-anchor="middle">3</text>
<polygon points="151.7,335.6 159.7,335.6 159.7,343.6 151.7,343.6" fill="rgb(127,230,0)"/><text xml:space="preserve" x="155.7" y="342.433" font-family="Calibri" font-size="7.5" fill="rgb(0,0,0)" text-anchor="middle">2</text>
<polygon points="159.7,335.6 167.7,335.6 167.7,343.6 159.7,343.6" fill="rgb(230,127,0)"/><text xml:space="preserve" x="163.7" y="342.433" font-family="Calibri" font-size="7.5" fill="rgb(0,0,0)" text-anchor="middle">4</text>
<polygon points="177.7,335.6 185.7,335.6 185.7,343.6 177.7,343.6" fill="rgb(252,194,1)"/>
<polygon points="185.7,335.6 193.7,335.6 193.7,343.6 185.7,343.6" fill="rgb(96,213,112)"/>
<polygon points="193.7,335.6 201.7,335.6 201.7,343.6 193.7,343.6" fill="rgb(97,213,111)"/>
<polygon points="201.7,335.6 209.7,335.6 209.7,343.6 201.7,343.6" fill="rgb(11,71,137)"/>
<polygon points="209.7,335.6 217.7,335.6 217.7,343.6 209.7,343.6" fill="rgb(59,217,138)"/>
<polygon points="227.7,335.6 235.7,335.6 235.7,343.6 227.7,343.6" fill="rgb(255,255,255)"/>
<polygon points="235.7,335.6 243.7,335.6 243.7,343.6 235.7,343.6" fill="rgb(255,255,255)"/>
<polygon points="243.7,335.6 251.7,335.6 251.7,343.6 243.7,343.6" fill="rgb(255,255,255)"/>
<polygon points="251.7,335.6 259.7,335.6 259.7,343.6 251.7,343.6" fill="rgb(255,255,255)"/>
<polygon points="259.7,335.6 267.7,335.6 267.7,343.6 259.7,343.6" fill="rgb(255,255,255)"/>
<polygon points="267.7,335.6 275.7,335.6 275.7,343.6 267.7,343.6" fill="rgb(255,255,255)"/>
<polygon points="275.7,335.6 283.7,335.6 283.7,343.6 275.7,343.6" fill="rgb(255,255,255)"/>
<polygon points="283.7,335.6 291.7,335.6 291.7,343.6 283.7,343.6" fill="rgb(255,255,255)"/>
<polygon points="127.7,343.6 135.7,343.6 135.7,351.6 127.7,351.6" fill="rgb(230,127,0)"/><text xml:space="preserve" x="131.7" y="350.433" font-family="Calibri" font-size="7.5" fill="rgb(0,0,0)" text-anchor="middle">4</text>
<polygon points="135.7,343.6 143.7,343.6 143.7,351.6 135.7,351.6" fill="rgb(255,255,0)"/><text xml:space="preserve" x="139.7" y="350.433" font-family="Calibri" font-size="7.5" fill="rgb(0,0,0)" text-anchor="middle">3</text>
<polygon points="143.7,343.6 151.7,343.6 151.7,351.6 143.7,351.6" fill="rgb(255,255,0)"/><text xml:space="preserve" x="147.7" y="350.433" font-family="Calibri" font-size="7.5" fill="rgb(0,0,0)" text-anchor="middle">3</text>
<polygon points="151.7,343.6 159.7,343.6 159.7,351.6 151.7,351.6" fill="rgb(127,230,0)"/><text xml:space="preserve" x="155.7" y="350.433" font-family="Calibri" font-size="7.5" fill="rgb(0,0,0)" text-anchor="middle">2</text>
<polygon points="159.7,343.6 167.7,343.6 167.7,351.6 159.7,351.6" fill="rgb(230,127,0)"/><text xml:space="preserve" x="163.7" y="350.433" font-family="Calibri" font-size="7.5" fill="rgb(0,0,0)" text-anchor="middle">4</text>
<polygon points="177.7,343.6 185.7,343.6 185.7,351.6 177.7,351.6" fill="rgb(252,194,1)"/>
<polygon points="185.7,343.6 193.7,343.6 193.7,351.6 185.7,351.6" fill="rgb(44,202,145)"/>
<polygon points="193.7,343.6 201.7,343.6 201.7,351.6 193.7,351.6" fill="rgb(34,162,142)"/>
<polygon points="201.7,343.6 209.7,343.6 209.7,351.6 201.7,351.6" fill="rgb(29,140,141)"/>
<polygon points="209.7,343.6 217.7,343.6 217.7,351.6 209.7,351.6" fill="rgb(92,213,115)"/>
<polygon points="227.7,343.6 235.7,343.6 235.7,351.6 227.7,351.6" fill="rgb(255,255,255)"/>
<polygon points="235.7,343.6 243.7,343.6 243.7,351.6 235.7,351.6" fill="rgb(255,255,255)"/>
<polygon points="243.7,343.6 251.7,343.6 251.7,351.6 243.7,351.6" fill="rgb(255,255,255)"/>
<polygon points="251.7,343.6 259.7,343.6 259.7,351.6 251.7,351.6" fill="rgb(255,255,255)"/>
<polygon points="259.7,343.6 267.7,343.6 267.7,351.6 259.7,351.6" fill="rgb(255,255,255)"/>
<polygon points="267.7,343.6 275.7,343.6 275.7,351.6 267.7,351.6" fill="rgb(255,255,255)"/>
<polygon points="275.7,343.6 283.7,343.6 283.7,351.6 275.7,351.6" fill="rgb(255,255,255)"/>
<polygon points="283.7,343.6 291.7,343.6 291.7,351.6 283.7,351.6" fill="rgb(255,255,255)"/>
<polygon points="127.7,351.6 135.7,351.6 135.7,359.6 127.7,359.6" fill="rgb(230,127,0)"/><text xml:space="preserve" x="131.7" y="358.433" font-family="Calibri" font-size="7.5" fill="rgb(0,0,0)" text-anchor="middle">4</text>
<polygon points="135.7,351.6 143.7,351.6 143.7,359.6 135.7,359.6" fill="rgb(255,255,0)"/><text xml:space="preserve" x="139.7" y="358.433" font-family="Calibri" font-size="7.5" fill="rgb(0,0,0)" text-anchor="middle">3</text>
<polygon points="143.7,351.6 151.7,351.6 151.7,359.6 143.7,359.6" fill="rgb(255,255,0)"/><text xml:space="preserve" x="147.7" y="358.433" font-family="Calibri" font-size="7.5" fill="rgb(0,0,0)" text-anchor="middle">3</text>
<polygon points="151.7,351.6 159.7,351.6 159.7,359.6 151.7,359.6" fill="rgb(127,230,0)"/><text xml:space="preserve" x="155.7" y="358.433" font-family="Calibri" font-size="7.5" fill="rgb(0,0,0)" text-anchor="middle">2</text>
<polygon points="159.7,351.6 167.7,351.6 167.7,359.6 159.7,359.6" fill="rgb(230,127,0)"/><text xml:space="preserve" x="163.7" y="358.433" font-family="Calibri" font-size="7.5" fill="rgb(0,0,0)" text-anchor="middle">4</text>
<polygon points="177.7,351.6 185.7,351.6 185.7,359.6 177.7,359.6" fill="rgb(252,194,1)"/>
<polygon points="185.7,351.6 193.7,351.6 193.7,359.6 185.7,359.6" fill="rgb(103,212,107)"/>
<polygon points="193.7,351.6 201.7,351.6 201.7,359.6 193.7,359.6" fill="rgb(39,183,143)"/>
<polygon points="201.7,351.6 209.7,351.6 209.7,359.6 201.7,359.6" fill="rgb(26,130,140)"/>
<polygon points="209.7,351.6 217.7,351.6 217.7,359.6 209.7,359.6" fill="rgb(46,207,145)"/>
<polygon points="227.7,351.6 235.7,351.6 235.7,359.6 227.7,359.6" fill="rgb(255,255,255)"/>
<polygon points="235.7,351.6 243.7,351.6 243.7,359.6 235.7,359.6" fill="rgb(255,255,255)"/>
<polygon points="243.7,351.6 251.7,351.6 251.7,359.6 243.7,359.6" fill="rgb(255,255,255)"/>
<polygon points="251.7,351.6 259.7,351.6 259.7,359.6 251.7,359.6" fill="rgb(255,255,255)"/>
<polygon points="259.7,351.6 267.7,351.6 267.7,359.6 259.7,359.6" fill="rgb(205,0,205)"/>
<polygon points="267.7,351.6 275.7,351.6 275.7,359.6 267.7,359.6" fill="rgb(255,255,255)"/>
<polygon points="275.7,351.6 283.7,351.6 283.7,359.6 275.7,359.6" fill="rgb(255,255,255)"/>
<polygon points="283.7,351.6 291.7,351.6 291.7,359.6 283.7,359.6" fill="rgb(255,255,255)"/>
<polygon points="127.7,359.6 135.7,359.6 135.7,367.6 127.7,367.6" fill="rgb(230,127,0)"/><text xml:space="preserve" x="131.7" y="366.433" font-family="Calibri" font-size="7.5" fill="rgb(0,0,0)" text-anchor="middle">4</text>
<polygon points="135.7,359.6 143.7,359.6 143.7,367.6 135.7,367.6" fill="rgb(255,255,0)"/><text xml:space="preserve" x="139.7" y="366.433" font-family="Calibri" font-size="7.5" fill="rgb(0,0,0)" text-anchor="middle">3</text>
<polygon points="143.7,359.6 151.7,359.6 151.7,367.6 143.7,367.6" fill="rgb(255,255,0)"/><text xml:space="preserve" x="147.7" y="366.433" font-family="Calibri" font-size="7.5" fill="rgb(0,0,0)" text-anchor="middle">3</text>
<polygon points="151.7,359.6 159.7,359.6 159.7,367.6 151.7,367.6" fill="rgb(127,230,0)"/><text xml:space="preserve" x="155.7" y="366.433" font-family="Calibri" font-size="7.5" fill="rgb(0,0,0)" text-anchor="middle">2</text>
<polygon points="159.7,359.6 167.7,359.6 167.7,367.6 159.7,367.6" fill="rgb(230,127,0)"/><text xml:space="preserve" x="163.7" y="366.433" font-family="Calibri" font-size="7.5" fill="rgb(0,0,0)" text-anchor="middle">4</text>
<polygon points="177.7,359.6 185.7,359.6 185.7,367.6 177.7,367.6" fill="rgb(252,194,1)"/>
<polygon points="185.7,359.6 193.7,359.6 193.7,367.6 185.7,367.6" fill="rgb(139,207,81)"/>
<polygon points="193.7,359.6 201.7,359.6 201.7,367.6 193.7,367.6" fill="rgb(50,218,145)"/>
<polygon points="201.7,359.6 209.7,359.6 209.7,367.6 201.7,367.6" fill="rgb(32,156,142)"/>
<polygon points="209.7,359.6 217.7,359.6 217.7,367.6 209.7,367.6" fill="rgb(39,180,143)"/>
<polygon points="227.7,359.6 235.7,359.6 235.7,367.6 227.7,367.6" fill="rgb(255,255,255)"/>
<polygon points="235.7,359.6 243.7,359.6 243.7,367.6 235.7,367.6" fill="rgb(255,255,255)"/>
<polygon points="243.7,359.6 251.7,359.6 251.7,367.6 243.7,367.6" fill="rgb(255,255,255)"/>
<polygon points="251.7,359.6 259.7,359.6 259.7,367.6 251.7,367.6" fill="rgb(255,255,255)"/>
<polygon points="259.7,359.6 267.7,359.6 267.7,367.6 259.7,367.6" fill="rgb(255,255,255)"/>
<polygon points="267.7,359.6 275.7,359.6 275.7,367.6 267.7,367.6" fill="rgb(255,255,255)"/>
<polygon points="275.7,359.6 283.7,359.6 283.7,367.6 275.7,367.6" fill="rgb(255,255,255)"/>
<polygon points="283.7,359.6 291.7,359.6 291.7,367.6 283.7,367.6" fill="rgb(255,255,255)"/>
<polygon points="127.7,367.6 135.7,367.6 135.7,375.6 127.7,375.6" fill="rgb(230,127,0)"/><text xml:space="preserve" x="131.7" y="374.433" font-family="Calibri" font-size="7.5" fill="rgb(0,0,0)" text-anchor="middle">4</text>
<polygon points="135.7,367.6 143.7,367.6 143.7,375.6 135.7,375.6" fill="rgb(255,255,0)"/><text xml:space="preserve" x="139.7" y="374.433" font-family="Calibri" font-size="7.5" fill="rgb(0,0,0)" text-anchor="middle">3</text>
<polygon points="143.7,367.6 151.7,367.6 151.7,375.6 143.7,375.6" fill="rgb(255,255,0)"/><text xml:space="preserve" x="147.7" y="374.433" font-family="Calibri" font-size="7.5" fill="rgb(0,0,0)" text-anchor="middle">3</text>
<polygon points="151.7,367.6 159.7,367.6 159.7,375.6 151.7,375.6" fill="rgb(127,230,0)"/><text xml:space="preserve" x="155.7" y="374.433" font-family="Calibri" font-size="7.5" fill="rgb(0,0,0)" text-anchor="middle">2</text>
<polygon points="159.7,367.6 167.7,367.6 167.7,375.6 159.7,375.6" fill="rgb(230,127,0)"/><text xml:space="preserve" x="163.7" y="374.433" font-family="Calibri" font-size="7.5" fill="rgb(0,0,0)" text-anchor="middle">4</text>
<polygon points="177.7,367.6 185.7,367.6 185.7,375.6 177.7,375.6" fill="rgb(252,194,1)"/>
<polygon points="185.7,367.6 193.7,367.6 193.7,375.6 185.7,375.6" fill="rgb(142,207,79)"/>
<polygon points="193.7,367.6 201.7,367.6 201.7,375.6 193.7,375.6" fill="rgb(34,161,142)"/>
<polygon points="201.7,367.6 209.7,367.6 209.7,375.6 201.7,375.6" fill="rgb(33,158,142)"/>
<polygon points="209.7,367.6 217.7,367.6 217.7,375.6 209.7,375.6" fill="rgb(44,199,144)"/>
<polygon points="227.7,367.6 235.7,367.6 235.7,375.6 227.7,375.6" fill="rgb(255,255,255)"/>
<polygon points="235.7,367.6 243.7,367.6 243.7,375.6 235.7,375.6" fill="rgb(255,255,255)"/>
<polygon points="243.7,367.6 251.7,367.6 251.7,375.6 243.7,375.6" fill="rgb(255,255,255)"/>
<polygon points="251.7,367.6 259.7,367.6 259.7,375.6 251.7,375.6" fill="rgb(255,255,255)"/>
<polygon points="259.7,367.6 267.7,367.6 267.7,375.6 259.7,375.6" fill="rgb(255,255,255)"/>
<polygon points="267.7,367.6 275.7,367.6 275.7,375.6 267.7,375.6" fill="rgb(255,255,255)"/>
<polygon points="275.7,367.6 283.7,367.6 283.7,375.6 275.7,375.6" fill="rgb(255,255,255)"/>
<polygon points="283.7,367.6 291.7,367.6 291.7,375.6 283.7,375.6" fill="rgb(255,255,255)"/>
<polygon points="127.7,375.6 135.7,375.6 135.7,383.6 127.7,383.6" fill="rgb(230,127,0)"/><text xml:space="preserve" x="131.7" y="382.433" font-family="Calibri" font-size="7.5" fill="rgb(0,0,0)" text-anchor="middle">4</text>
<polygon points="135.7,375.6 143.7,375.6 143.7,383.6 135.7,383.6" fill="rgb(255,255,0)"/><text xml:space="preserve" x="139.7" y="382.433" font-family="Calibri" font-size="7.5" fill="rgb(0,0,0)" text-anchor="middle">3</text>
<polygon points="143.7,375.6 151.7,375.6 151.7,383.6 143.7,383.6" fill="rgb(255,255,0)"/><text xml:space="preserve" x="147.7" y="382.433" font-family="Calibri" font-size="7.5" fill="rgb(0,0,0)" text-anchor="middle">3</text>
<polygon points="151.7,375.6 159.7,375.6 159.7,383.6 151.7,383.6" fill="rgb(127,230,0)"/><text xml:space="preserve" x="155.7" y="382.433" font-family="Calibri" font-size="7.5" fill="rgb(0,0,0)" text-anchor="middle">2</text>
<polygon points="159.7,375.6 167.7,375.6 167.7,383.6 159.7,383.6" fill="rgb(230,127,0)"/><text xml:space="preserve" x="163.7" y="382.433" font-family="Calibri" font-size="7.5" fill="rgb(0,0,0)" text-anchor="middle">4</text>
<polygon points="177.7,375.6 185.7,375.6 185.7,383.6 177.7,383.6" fill="rgb(252,194,1)"/>
<polygon points="185.7,375.6 193.7,375.6 193.7,383.6 185.7,383.6" fill="rgb(100,212,109)"/>
<polygon points="193.7,375.6 201.7,375.6 201.7,383.6 193.7,383.6" fill="rgb(25,128,140)"/>
<polygon points="201.7,375.6 209.7,375.6 209.7,383.6 201.7,383.6" fill="rgb(26,131,141)"/>
<polygon points="209.7,375.6 217.7,375.6 217.7,383.6 209.7,383.6" fill="rgb(45,203,145)"/>
<polygon points="227.7,375.6 235.7,375.6 235.7,383.6 227.7,383.6" fill="rgb(255,255,255)"/>
<polygon points="235.7,375.6 243.7,375.6 243.7,383.6 235.7,383.6" fill="rgb(255,255,255)"/>
<polygon points="243.7,375.6 251.7,375.6 251.7,383.6 243.7,383.6" fill="rgb(255,255,255)"/>
<polygon points="251.7,375.6 259.7,375.6 259.7,383.6 251.7,383.6" fill="rgb(255,255,255)"/>
<polygon points="259.7,375.6 267.7,375.6 267.7,383.6 259.7,383.6" fill="rgb(255,255,255)"/>
<polygon points="267.7,375.6 275.7,375.6 275.7,383.6 267.7,383.6" fill="rgb(255,255,255)"/>
<polygon points="275.7,375.6 283.7,375.6 283.7,383.6 275.7,383.6" fill="rgb(255,255,255)"/>
<polygon points="283.7,375.6 291.7,375.6 291.7,383.6 283.7,383.6" fill="rgb(255,255,255)"/>
<polygon points="127.7,383.6 135.7,383.6 135.7,391.6 127.7,391.6" fill="rgb(230,127,0)"/><text xml:space="preserve" x="131.7" y="390.433" font-family="Calibri" font-size="7.5" fill="rgb(0,0,0)" text-anchor="middle">4</text>
<polygon points="135.7,383.6 143.7,383.6 143.7,391.6 135.7,391.6" fill="rgb(255,255,0)"/><text xml:space="preserve" x="139.7" y="390.433" font-family="Calibri" font-size="7.5" fill="rgb(0,0,0)" text-anchor="middle">3</text>
<polygon points="143.7,383.6 151.7,383.6 151.7,391.6 143.7,391.6" fill="rgb(255,255,0)"/><text xml:space="preserve" x="147.7" y="390.433" font-family="Calibri" font-size="7.5" fill="rgb(0,0,0)" text-anchor="middle">3</text>
<polygon points="151.7,383.6 159.7,383.6 159.7,391.6 151.7,391.6" fill="rgb(127,230,0)"/><text xml:space="preserve" x="155.7" y="390.433" font-family="Calibri" font-size="7.5" fill="rgb(0,0,0)" text-anchor="middle">2</text>
<polygon points="159.7,383.6 167.7,383.6 167.7,391.6 159.7,391.6" fill="rgb(230,127,0)"/><text xml:space="preserve" x="163.7" y="390.433" font-family="Calibri" font-size="7.5" fill="rgb(0,0,0)" text-anchor="middle">4</text>
<polygon points="177.7,383.6 185.7,383.6 185.7,391.6 177.7,391.6" fill="rgb(252,194,1)"/>
<polygon points="185.7,383.6 193.7,383.6 193.7,391.6 185.7,391.6" fill="rgb(134,208,85)"/>
<polygon points="193.7,383.6 201.7,383.6 201.7,391.6 193.7,391.6" fill="rgb(45,206,145)"/>
<polygon points="201.7,383.6 209.7,383.6 209.7,391.6 201.7,391.6" fill="rgb(28,139,141)"/>
<polygon points="209.7,383.6 217.7,383.6 217.7,391.6 209.7,391.6" fill="rgb(155,205,69)"/>
<polygon points="227.7,383.6 235.7,383.6 235.7,391.6 227.7,391.6" fill="rgb(255,255,255)"/>
<polygon points="235.7,383.6 243.7,383.6 243.7,391.6 235.7,391.6" fill="rgb(255,255,255)"/>
<polygon points="243.7,383.6 251.7,383.6 251.7,391.6 243.7,391.6" fill="rgb(255,255,255)"/>
<polygon points="251.7,383.6 259.7,383.6 259.7,391.6 251.7,391.6" fill="rgb(255,255,255)"/>
<polygon points="259.7,383.6 267.7,383.6 267.7,391.6 259.7,391.6" fill="rgb(255,255,255)"/>
<polygon points="267.7,383.6 275.7,383.6 275.7,391.6 267.7,391.6" fill="rgb(255,255,255)"/>
<polygon points="275.7,383.6 283.7,383.6 283.7,391.6 275.7,391.6" fill="rgb(255,255,255)"/>
<polygon points="283.7,383.6 291.7,383.6 291.7,391.6 283.7,391.6" fill="rgb(255,255,255)"/>
<polygon points="127.7,391.6 135.7,391.6 135.7,399.6 127.7,399.6" fill="rgb(230,127,0)"/><text xml:space="preserve" x="131.7" y="398.433" font-family="Calibri" font-size="7.5" fill="rgb(0,0,0)" text-anchor="middle">4</text>
<polygon points="135.7,391.6 143.7,391.6 143.7,399.6 135.7,399.6" fill="rgb(255,255,0)"/><text xml:space="preserve" x="139.7" y="398.433" font-family="Calibri" font-size="7.5" fill="rgb(0,0,0)" text-anchor="middle">3</text>
<polygon points="143.7,391.6 151.7,391.6 151.7,399.6 143.7,399.6" fill="rgb(255,255,0)"/><text xml:space="preserve" x="147.7" y="398.433" font-family="Calibri" font-size="7.5" fill="rgb(0,0,0)" text-anchor="middle">3</text>
<polygon points="151.7,391.6 159.7,391.6 159.7,399.6 151.7,399.6" fill="rgb(127,230,0)"/><text xml:space="preserve" x="155.7" y="398.433" font-family="Calibri" font-size="7.5" fill="rgb(0,0,0)" text-anchor="middle">2</text>
<polygon points="159.7,391.6 167.7,391.6 167.7,399.6 159.7,399.6" fill="rgb(230,127,0)"/><text xml:space="preserve" x="163.7" y="398.433" font-family="Calibri" font-size="7.5" fill="rgb(0,0,0)" text-anchor="middle">4</text>
<polygon points="177.7,391.6 185.7,391.6 185.7,399.6 177.7,399.6" fill="rgb(252,194,1)"/>
<polygon points="185.7,391.6 193.7,391.6 193.7,399.6 185.7,399.6" fill="rgb(127,209,89)"/>
<polygon points="193.7,391.6 201.7,391.6 201.7,399.6 193.7,399.6" fill="rgb(34,163,142)"/>
<polygon points="201.7,391.6 209.7,391.6 209.7,399.6 201.7,399.6" fill="rgb(24,121,140)"/>
<polygon points="209.7,391.6 217.7,391.6 217.7,399.6 209.7,399.6" fill="rgb(42,192,144)"/>
<polygon points="227.7,391.6 235.7,391.6 235.7,399.6 227.7,399.6" fill="rgb(255,255,255)"/>
<polygon points="235.7,391.6 243.7,391.6 243.7,399.6 235.7,399.6" fill="rgb(255,255,255)"/>
<polygon points="243.7,391.6 251.7,391.6 251.7,399.6 243.7,399.6" fill="rgb(255,255,255)"/>
<polygon points="251.7,391.6 259.7,391.6 259.7,399.6 251.7,399.6" fill="rgb(255,255,255)"/>
<polygon points="259.7,391.6 267.7,391.6 267.7,399.6 259.7,399.6" fill="rgb(255,255,255)"/>
<polygon points="267.7,391.6 275.7,391.6 275.7,399.6 267.7,399.6" fill="rgb(255,255,255)"/>
<polygon points="275.7,391.6 283.7,391.6 283.7,399.6 275.7,399.6" fill="rgb(255,255,255)"/>
<polygon points="283.7,391.6 291.7,391.6 291.7,399.6 283.7,399.6" fill="rgb(255,255,255)"/>
<polygon points="127.7,399.6 135.7,399.6 135.7,407.6 127.7,407.6" fill="rgb(230,127,0)"/><text xml:space="preserve" x="131.7" y="406.433" font-family="Calibri" font-size="7.5" fill="rgb(0,0,0)" text-anchor="middle">4</text>
<polygon points="135.7,399.6 143.7,399.6 143.7,407.6 135.7,407.6" fill="rgb(255,255,0)"/><text xml:space="preserve" x="139.7" y="406.433" font-family="Calibri" font-size="7.5" fill="rgb(0,0,0)" text-anchor="middle">3</text>
<polygon points="143.7,399.6 151.7,399.6 151.7,407.6 143.7,407.6" fill="rgb(255,255,0)"/><text xml:space="preserve" x="147.7" y="406.433" font-family="Calibri" font-size="7.5" fill="rgb(0,0,0)" text-anchor="middle">3</text>
<polygon points="151.7,399.6 159.7,399.6 159.7,407.6 151.7,407.6" fill="rgb(127,230,0)"/><text xml:space="preserve" x="155.7" y="406.433" font-family="Calibri" font-size="7.5" fill="rgb(0,0,0)" text-anchor="middle">2</text>
<polygon points="159.7,399.6 167.7,399.6 167.7,407.6 159.7,407.6" fill="rgb(230,127,0)"/><text xml:space="preserve" x="163.7" y="406.433" font-family="Calibri" font-size="7.5" fill="rgb(0,0,0)" text-anchor="middle">4</text>
<polygon points="177.7,399.6 185.7,399.6 185.7,407.6 177.7,407.6" fill="rgb(252,194,1)"/>
<polygon points="185.7,399.6 193.7,399.6 193.7,407.6 185.7,407.6" fill="rgb(31,151,142)"/>
<polygon points="193.7,399.6 201.7,399.6 201.7,407.6 193.7,407.6" fill="rgb(77,215,125)"/>
<polygon points="201.7,399.6 209.7,399.6 209.7,407.6 201.7,407.6" fill="rgb(19,105,139)"/>
<polygon points="209.7,399.6 217.7,399.6 217.7,407.6 209.7,407.6" fill="rgb(191,201,44)"/>
<polygon points="227.7,399.6 235.7,399.6 235.7,407.6 227.7,407.6" fill="rgb(255,255,255)"/>
<polygon points="235.7,399.6 243.7,399.6 243.7,407.6 235.7,407.6" fill="rgb(255,255,255)"/>
<polygon points="243.7,399.6 251.7,399.6 251.7,407.6 243.7,407.6" fill="rgb(255,255,255)"/>
<polygon points="251.7,399.6 259.7,399.6 259.7,407.6 251.7,407.6" fill="rgb(255,255,255)"/>
<polygon points="259.7,399.6 267.7,399.6 267.7,407.6 259.7,407.6" fill="rgb(255,255,255)"/>
<polygon points="267.7,399.6 275.7,399.6 275.7,407.6 267.7,407.6" fill="rgb(255,255,255)"/>
<polygon points="275.7,399.6 283.7,399.6 283.7,407.6 275.7,407.6" fill="rgb(255,255,255)"/>
<polygon points="283.7,399.6 291.7,399.6 291.7,407.6 283.7,407.6" fill="rgb(255,255,255)"/>
<polygon points="127.7,407.6 135.7,407.6 135.7,415.6 127.7,415.6" fill="rgb(230,127,0)"/><text xml:space="preserve" x="131.7" y="414.433" font-family="Calibri" font-size="7.5" fill="rgb(0,0,0)" text-anchor="middle">4</text>
<polygon points="135.7,407.6 143.7,407.6 143.7,415.6 135.7,415.6" fill="rgb(255,255,0)"/><text xml:space="preserve" x="139.7" y="414.433" font-family="Calibri" font-size="7.5" fill="rgb(0,0,0)" text-anchor="middle">3</text>
<polygon points="143.7,407.6 151.7,407.6 151.7,415.6 143.7,415.6" fill="rgb(255,255,0)"/><text xml:space="preserve" x="147.7" y="414.433" font-family="Calibri" font-size="7.5" fill="rgb(0,0,0)" text-anchor="middle">3</text>
<polygon points="151.7,407.6 159.7,407.6 159.7,415.6 151.7,415.6" fill="rgb(127,230,0)"/><text xml:space="preserve" x="155.7" y="414.433" font-family="Calibri" font-size="7.5" fill="rgb(0,0,0)" text-anchor="middle">2</text>
<polygon points="159.7,407.6 167.7,407.6 167.7,415.6 159.7,415.6" fill="rgb(230,127,0)"/><text xml:space="preserve" x="163.7" y="414.433" font-family="Calibri" font-size="7.5" fill="rgb(0,0,0)" text-anchor="middle">4</text>
<polygon points="177.7,407.6 185.7,407.6 185.7,415.6 177.7,415.6" fill="rgb(252,194,1)"/>
<polygon points="185.7,407.6 193.7,407.6 193.7,415.6 185.7,415.6" fill="rgb(41,189,144)"/>
<polygon points="193.7,407.6 201.7,407.6 201.7,415.6 193.7,415.6" fill="rgb(126,209,90)"/>
<polygon points="201.7,407.6 209.7,407.6 209.7,415.6 201.7,415.6" fill="rgb(10,69,137)"/>
<polygon points="209.7,407.6 217.7,407.6 217.7,415.6 209.7,415.6" fill="rgb(168,204,60)"/>
<polygon points="227.7,407.6 235.7,407.6 235.7,415.6 227.7,415.6" fill="rgb(255,255,255)"/>
<polygon points="235.7,407.6 243.7,407.6 243.7,415.6 235.7,415.6" fill="rgb(255,255,255)"/>
<polygon points="243.7,407.6 251.7,407.6 251.7,415.6 243.7,415.6" fill="rgb(255,255,255)"/>
<polygon points="251.7,407.6 259.7,407.6 259.7,415.6 251.7,415.6" fill="rgb(255,255,255)"/>
<polygon points="259.7,407.6 267.7,407.6 267.7,415.6 259.7,415.6" fill="rgb(255,255,255)"/>
<polygon points="267.7,407.6 275.7,407.6 275.7,415.6 267.7,415.6" fill="rgb(255,255,255)"/>
<polygon points="275.7,407.6 283.7,407.6 283.7,415.6 275.7,415.6" fill="rgb(255,255,255)"/>
<polygon points="283.7,407.6 291.7,407.6 291.7,415.6 283.7,415.6" fill="rgb(255,255,255)"/>
<polygon points="127.7,415.6 135.7,415.6 135.7,423.6 127.7,423.6" fill="rgb(230,127,0)"/><text xml:space="preserve" x="131.7" y="422.433" font-family="Calibri" font-size="7.5" fill="rgb(0,0,0)" text-anchor="middle">4</text>
<polygon points="135.7,415.6 143.7,415.6 143.7,423.6 135.7,423.6" fill="rgb(255,255,0)"/><text xml:space="preserve" x="139.7" y="422.433" font-family="Calibri" font-size="7.5" fill="rgb(0,0,0)" text-anchor="middle">3</text>
<polygon points="143.7,415.6 151.7,415.6 151.7,423.6 143.7,423.6" fill="rgb(255,255,0)"/><text xml:space="preserve" x="147.7" y="422.433" font-family="Calibri" font-size="7.5" fill="rgb(0,0,0)" text-anchor="middle">3</text>
<polygon points="151.7,415.6 159.7,415.6 159.7,423.6 151.7,423.6" fill="rgb(127,230,0)"/><text xml:space="preserve" x="155.7" y="422.433" font-family="Calibri" font-size="7.5" fill="rgb(0,0,0)" text-anchor="middle">2</text>
<polygon points="159.7,415.6 167.7,415.6 167.7,423.6 159.7,423.6" fill="rgb(230,127,0)"/><text xml:space="preserve" x="163.7" y="422.433" font-family="Calibri" font-size="7.5" fill="rgb(0,0,0)" text-anchor="middle">4</text>
<polygon points="177.7,415.6 185.7,415.6 185.7,423.6 177.7,423.6" fill="rgb(252,194,1)"/>
<polygon points="185.7,415.6 193.7,415.6 193.7,423.6 185.7,423.6" fill="rgb(49,219,146)"/>
<polygon points="193.7,415.6 201.7,415.6 201.7,423.6 193.7,423.6" fill="rgb(55,218,141)"/>
<polygon points="201.7,415.6 209.7,415.6 209.7,423.6 201.7,423.6" fill="rgb(19,105,139)"/>
<polygon points="209.7,415.6 217.7,415.6 217.7,423.6 209.7,423.6" fill="rgb(77,215,125)"/>
<polygon points="227.7,415.6 235.7,415.6 235.7,423.6 227.7,423.6" fill="rgb(255,255,255)"/>
<polygon points="235.7,415.6 243.7,415.6 243.7,423.6 235.7,423.6" fill="rgb(255,255,255)"/>
<polygon points="243.7,415.6 251.7,415.6 251.7,423.6 243.7,423.6" fill="rgb(255,255,255)"/>
<polygon points="251.7,415.6 259.7,415.6 259.7,423.6 251.7,423.6" fill="rgb(255,255,255)"/>
<polygon points="259.7,415.6 267.7,415.6 267.7,423.6 259.7,423.6" fill="rgb(255,255,255)"/>
<polygon points="267.7,415.6 275.7,415.6 275.7,423.6 267.7,423.6" fill="rgb(255,255,255)"/>
<polygon points="275.7,415.6 283.7,415.6 283.7,423.6 275.7,423.6" fill="rgb(255,255,255)"/>
<polygon points="283.7,415.6 291.7,415.6 291.7,423.6 283.7,423.6" fill="rgb(255,255,255)"/>
<polygon points="127.7,423.6 135.7,423.6 135.7,431.6 127.7,431.6" fill="rgb(230,127,0)"/><text xml:space="preserve" x="131.7" y="430.433" font-family="Calibri" font-size="7.5" fill="rgb(0,0,0)" text-anchor="middle">4</text>
<polygon points="135.7,423.6 143.7,423.6 143.7,431.6 135.7,431.6" fill="rgb(255,255,0)"/><text xml:space="preserve" x="139.7" y="430.433" font-family="Calibri" font-size="7.5" fill="rgb(0,0,0)" text-anchor="middle">3</text>
<polygon points="143.7,423.6 151.7,423.6 151.7,431.6 143.7,431.6" fill="rgb(255,255,0)"/><text xml:space="preserve" x="147.7" y="430.433" font-family="Calibri" font-size="7.5" fill="rgb(0,0,0)" text-anchor="middle">3</text>
<polygon points="151.7,423.6 159.7,423.6 159.7,431.6 151.7,431.6" fill="rgb(127,230,0)"/><text xml:space="preserve" x="155.7" y="430.433" font-family="Calibri" font-size="7.5" fill="rgb(0,0,0)" text-anchor="middle">2</text>
<polygon points="159.7,423.6 167.7,423.6 167.7,431.6 159.7,431.6" fill="rgb(230,127,0)"/><text xml:space="preserve" x="163.7" y="430.433" font-family="Calibri" font-size="7.5" fill="rgb(0,0,0)" text-anchor="middle">4</text>
<polygon points="177.7,423.6 185.7,423.6 185.7,431.6 177.7,431.6" fill="rgb(252,194,1)"/>
<polygon points="185.7,423.6 193.7,423.6 193.7,431.6 185.7,431.6" fill="rgb(53,218,143)"/>
<polygon points="193.7,423.6 201.7,423.6 201.7,431.6 193.7,431.6" fill="rgb(78,215,124)"/>
<polygon points="201.7,423.6 209.7,423.6 209.7,431.6 201.7,431.6" fill="rgb(10,66,137)"/>
<polygon points="209.7,423.6 217.7,423.6 217.7,431.6 209.7,431.6" fill="rgb(95,213,113)"/>
<polygon points="227.7,423.6 235.7,423.6 235.7,431.6 227.7,431.6" fill="rgb(255,255,255)"/>
<polygon points="235.7,423.6 243.7,423.6 243.7,431.6 235.7,431.6" fill="rgb(255,255,255)"/>
<polygon points="243.7,423.6 251.7,423.6 251.7,431.6 243.7,431.6" fill="rgb(255,255,255)"/>
<polygon points="251.7,423.6 259.7,423.6 259.7,431.6 251.7,431.6" fill="rgb(255,255,255)"/>
<polygon points="259.7,423.6 267.7,423.6 267.7,431.6 259.7,431.6" fill="rgb(255,255,255)"/>
<polygon points="267.7,423.6 275.7,423.6 275.7,431.6 267.7,431.6" fill="rgb(255,255,255)"/>
<polygon points="275.7,423.6 283.7,423.6 283.7,431.6 275.7,431.6" fill="rgb(255,255,255)"/>
<polygon points="283.7,423.6 291.7,423.6 291.7,431.6 283.7,431.6" fill="rgb(255,255,255)"/>
<polygon points="127.7,431.6 135.7,431.6 135.7,439.6 127.7,439.6" fill="rgb(230,127,0)"/><text xml:space="preserve" x="131.7" y="438.433" font-family="Calibri" font-size="7.5" fill="rgb(0,0,0)" text-anchor="middle">4</text>
<polygon points="135.7,431.6 143.7,431.6 143.7,439.6 135.7,439.6" fill="rgb(255,255,0)"/><text xml:space="preserve" x="139.7" y="438.433" font-family="Calibri" font-size="7.5" fill="rgb(0,0,0)" text-anchor="middle">3</text>
<polygon points="143.7,431.6 151.7,431.6 151.7,439.6 143.7,439.6" fill="rgb(255,255,0)"/><text xml:space="preserve" x="147.7" y="438.433" font-family="Calibri" font-size="7.5" fill="rgb(0,0,0)" text-anchor="middle">3</text>
<polygon points="151.7,431.6 159.7,431.6 159.7,439.6 151.7,439.6" fill="rgb(127,230,0)"/><text xml:space="preserve" x="155.7" y="438.433" font-family="Calibri" font-size="7.5" fill="rgb(0,0,0)" text-anchor="middle">2</text>
<polygon points="159.7,431.6 167.7,431.6 167.7,439.6 159.7,439.6" fill="rgb(230,127,0)"/><text xml:space="preserve" x="163.7" y="438.433" font-family="Calibri" font-size="7.5" fill="rgb(0,0,0)" text-anchor="middle">4</text>
<polygon points="177.7,431.6 185.7,431.6 185.7,439.6 177.7,439.6" fill="rgb(252,194,1)"/>
<polygon points="185.7,431.6 193.7,431.6 193.7,439.6 185.7,439.6" fill="rgb(115,210,98)"/>
<polygon points="193.7,431.6 201.7,431.6 201.7,439.6 193.7,439.6" fill="rgb(43,197,144)"/>
<polygon points="201.7,431.6 209.7,431.6 209.7,439.6 201.7,439.6" fill="rgb(32,155,142)"/>
<polygon points="209.7,431.6 217.7,431.6 217.7,439.6 209.7,439.6" fill="rgb(46,210,145)"/>
<polygon points="227.7,431.6 235.7,431.6 235.7,439.6 227.7,439.6" fill="rgb(255,255,255)"/>
<polygon points="235.7,431.6 243.7,431.6 243.7,439.6 235.7,439.6" fill="rgb(255,255,255)"/>
<polygon points="243.7,431.6 251.7,431.6 251.7,439.6 243.7,439.6" fill="rgb(255,255,255)"/>
<polygon points="251.7,431.6 259.7,431.6 259.7,439.6 251.7,439.6" fill="rgb(255,255,255)"/>
<polygon points="259.7,431.6 267.7,431.6 267.7,439.6 259.7,439.6" fill="rgb(255,255,255)"/>
<polygon points="267.7,431.6 275.7,431.6 275.7,439.6 267.7,439.6" fill="rgb(255,255,255)"/>
<polygon points="275.7,431.6 283.7,431.6 283.7,439.6 275.7,439.6" fill="rgb(255,255,255)"/>
<polygon points="283.7,431.6 291.7,431.6 291.7,439.6 283.7,439.6" fill="rgb(255,255,255)"/>
<polygon points="127.7,439.6 135.7,439.6 135.7,447.6 127.7,447.6" fill="rgb(230,127,0)"/><text xml:space="preserve" x="131.7" y="446.433" font-family="Calibri" font-size="7.5" fill="rgb(0,0,0)" text-anchor="middle">4</text>
<polygon points="135.7,439.6 143.7,439.6 143.7,447.6 135.7,447.6" fill="rgb(255,255,0)"/><text xml:space="preserve" x="139.7" y="446.433" font-family="Calibri" font-size="7.5" fill="rgb(0,0,0)" text-anchor="middle">3</text>
<polygon points="143.7,439.6 151.7,439.6 151.7,447.6 143.7,447.6" fill="rgb(255,255,0)"/><text xml:space="preserve" x="147.7" y="446.433" font-family="Calibri" font-size="7.5" fill="rgb(0,0,0)" text-anchor="middle">3</text>
<polygon points="151.7,439.6 159.7,439.6 159.7,447.6 151.7,447.6" fill="rgb(127,230,0)"/><text xml:space="preserve" x="155.7" y="446.433" font-family="Calibri" font-size="7.5" fill="rgb(0,0,0)" text-anchor="middle">2</text>
<polygon points="159.7,439.6 167.7,439.6 167.7,447.6 159.7,447.6" fill="rgb(230,127,0)"/><text xml:space="preserve" x="163.7" y="446.433" font-family="Calibri" font-size="7.5" fill="rgb(0,0,0)" text-anchor="middle">4</text>
<polygon points="177.7,439.6 185.7,439.6 185.7,447.6 177.7,447.6" fill="rgb(252,194,1)"/>
<polygon points="185.7,439.6 193.7,439.6 193.7,447.6 185.7,447.6" fill="rgb(99,212,110)"/>
<polygon points="193.7,439.6 201.7,439.6 201.7,447.6 193.7,447.6" fill="rgb(76,215,126)"/>
<polygon points="201.7,439.6 209.7,439.6 209.7,447.6 201.7,447.6" fill="rgb(25,126,140)"/>
<polygon points="209.7,439.6 217.7,439.6 217.7,447.6 209.7,447.6" fill="rgb(212,198,29)"/>
<polygon points="227.7,439.6 235.7,439.6 235.7,447.6 227.7,447.6" fill="rgb(255,255,255)"/>
<polygon points="235.7,439.6 243.7,439.6 243.7,447.6 235.7,447.6" fill="rgb(255,255,255)"/>
<polygon points="243.7,439.6 251.7,439.6 251.7,447.6 243.7,447.6" fill="rgb(255,255,255)"/>
<polygon points="251.7,439.6 259.7,439.6 259.7,447.6 251.7,447.6" fill="rgb(255,255,255)"/>
<polygon points="259.7,439.6 267.7,439.6 267.7,447.6 259.7,447.6" fill="rgb(255,255,255)"/>
<polygon points="267.7,439.6 275.7,439.6 275.7,447.6 267.7,447.6" fill="rgb(255,255,255)"/>
<polygon points="275.7,439.6 283.7,439.6 283.7,447.6 275.7,447.6" fill="rgb(255,255,255)"/>
<polygon points="283.7,439.6 291.7,439.6 291.7,447.6 283.7,447.6" fill="rgb(255,255,255)"/>
<polygon points="127.7,447.6 135.7,447.6 135.7,455.6 127.7,455.6" fill="rgb(230,127,0)"/><text xml:space="preserve" x="131.7" y="454.433" font-family="Calibri" font-size="7.5" fill="rgb(0,0,0)" text-anchor="middle">4</text>
<polygon points="135.7,447.6 143.7,447.6 143.7,455.6 135.7,455.6" fill="rgb(255,255,0)"/><text xml:space="preserve" x="139.7" y="454.433" font-family="Calibri" font-size="7.5" fill="rgb(0,0,0)" text-anchor="middle">3</text>
<polygon points="143.7,447.6 151.7,447.6 151.7,455.6 143.7,455.6" fill="rgb(255,255,0)"/><text xml:space="preserve" x="147.7" y="454.433" font-family="Calibri" font-size="7.5" fill="rgb(0,0,0)" text-anchor="middle">3</text>
<polygon points="151.7,447.6 159.7,447.6 159.7,455.6 151.7,455.6" fill="rgb(127,230,0)"/><text xml:space="preserve" x="155.7" y="454.433" font-family="Calibri" font-size="7.5" fill="rgb(0,0,0)" text-anchor="middle">2</text>
<polygon points="159.7,447.6 167.7,447.6 167.7,455.6 159.7,455.6" fill="rgb(230,127,0)"/><text xml:space="preserve" x="163.7" y="454.433" font-family="Calibri" font-size="7.5" fill="rgb(0,0,0)" text-anchor="middle">4</text>
<polygon points="177.7,447.6 185.7,447.6 185.7,455.6 177.7,455.6" fill="rgb(252,194,1)"/>
<polygon points="185.7,447.6 193.7,447.6 193.7,455.6 185.7,455.6" fill="rgb(90,213,116)"/>
<polygon points="193.7,447.6 201.7,447.6 201.7,455.6 193.7,455.6" fill="rgb(40,187,144)"/>
<polygon points="201.7,447.6 209.7,447.6 209.7,455.6 201.7,455.6" fill="rgb(26,129,140)"/>
<polygon points="209.7,447.6 217.7,447.6 217.7,455.6 209.7,455.6" fill="rgb(43,198,144)"/>
<polygon points="227.7,447.6 235.7,447.6 235.7,455.6 227.7,455.6" fill="rgb(255,255,255)"/>
<polygon points="235.7,447.6 243.7,447.6 243.7,455.6 235.7,455.6" fill="rgb(255,255,255)"/>
<polygon points="243.7,447.6 251.7,447.6 251.7,455.6 243.7,455.6" fill="rgb(255,255,255)"/>
<polygon points="251.7,447.6 259.7,447.6 259.7,455.6 251.7,455.6" fill="rgb(255,255,255)"/>
<polygon points="259.7,447.6 267.7,447.6 267.7,455.6 259.7,455.6" fill="rgb(255,255,255)"/>
<polygon points="267.7,447.6 275.7,447.6 275.7,455.6 267.7,455.6" fill="rgb(255,255,255)"/>
<polygon points="275.7,447.6 283.7,447.6 283.7,455.6 275.7,455.6" fill="rgb(255,255,255)"/>
<polygon points="283.7,447.6 291.7,447.6 291.7,455.6 283.7,455.6" fill="rgb(255,255,255)"/>
<polygon points="127.7,335.6 167.7,335.6 167.7,455.6 127.7,455.6" fill="none" stroke="black" stroke-width="1"/>
<polygon points="177.7,335.6 217.7,335.6 217.7,455.6 177.7,455.6" fill="none" stroke="black" stroke-width="1"/>
<polygon points="227.7,335.6 291.7,335.6 291.7,455.6 227.7,455.6" fill="none" stroke="black" stroke-width="1"/>
<text xml:space="preserve" x="155.85" y="488.6" font-family="Calibri" font-size="8" text-anchor="middle">ClusterAssignment</text>
<polygon points="105.85,495.6 125.85,495.6 125.85,515.6 105.85,515.6" fill="rgb(0,205,0)"/><polygon points="105.85,495.6 125.85,495.6 125.85,515.6 105.85,515.6" fill="none" stroke="black" stroke-width="1"/><text xml:space="preserve" x="115.85" y="508.433" font-family="Calibri" font-size="7.5" fill="rgb(255,255,255)" text-anchor="middle">1.0</text>
<polygon points="125.85,495.6 145.85,495.6 145.85,515.6 125.85,515.6" fill="rgb(127,230,0)"/><polygon points="125.85,495.6 145.85,495.6 145.85,515.6 125.85,515.6" fill="none" stroke="black" stroke-width="1"/><text xml:space="preserve" x="135.85" y="508.433" font-family="Calibri" font-size="7.5" fill="rgb(0,0,0)" text-anchor="middle">2.0</text>
<polygon points="145.85,495.6 165.85,495.6 165.85,515.6 145.85,515.6" fill="rgb(255,255,0)"/><polygon points="145.85,495.6 165.85,495.6 165.85,515.6 145.85,515.6" fill="none" stroke="black" stroke-width="1"/><text xml:space="preserve" x="155.85" y="508.433" font-family="Calibri" font-size="7.5" fill="rgb(0,0,0)" text-anchor="middle">3.0</text>
<polygon points="165.85,495.6 185.85,495.6 185.85,515.6 165.85,515.6" fill="rgb(230,127,0)"/><polygon points="165.85,495.6 185.85,495.6 185.85,515.6 165.85,515.6" fill="none" stroke="black" stroke-width="1"/><text xml:space="preserve" x="175.85" y="508.433" font-family="Calibri" font-size="7.5" fill="rgb(0,0,0)" text-anchor="middle">4.0</text>
<polygon points="185.85,495.6 205.85,495.6 205.85,515.6 185.85,515.6" fill="rgb(205,0,0)"/><polygon points="185.85,495.6 205.85,495.6 205.85,515.6 185.85,515.6" fill="none" stroke="black" stroke-width="1"/><text xml:space="preserve" x="195.85" y="508.433" font-family="Calibri" font-size="7.5" fill="rgb(255,255,255)" text-anchor="middle">5.0</text>
<text xml:space="preserve" x="155.85" y="548.6" font-family="Calibri" font-size="8" text-anchor="middle">Expression</text>
<polygon points="105.85,555.6 125.85,555.6 125.85,575.6 105.85,575.6" fill="rgb(0,27,135)"/><polygon points="105.85,555.6 125.85,555.6 125.85,575.6 105.85,575.6" fill="none" stroke="black" stroke-width="1"/><text xml:space="preserve" x="115.85" y="568.433" font-family="Calibri" font-size="7.5" fill="rgb(255,255,255)" text-anchor="middle">0.0</text>
<polygon points="125.85,555.6 145.85,555.6 145.85,575.6 125.85,575.6" fill="rgb(24,123,140)"/><polygon points="125.85,555.6 145.85,555.6 145.85,575.6 125.85,575.6" fill="none" stroke="black" stroke-width="1"/><text xml:space="preserve" x="135.85" y="568.433" font-family="Calibri" font-size="7.5" fill="rgb(255,255,255)" text-anchor="middle">0.8</text>
<polygon points="145.85,555.6 165.85,555.6 165.85,575.6 145.85,575.6" fill="rgb(49,219,146)"/><polygon points="145.85,555.6 165.85,555.6 165.85,575.6 145.85,575.6" fill="none" stroke="black" stroke-width="1"/><text xml:space="preserve" x="155.85" y="568.433" font-family="Calibri" font-size="7.5" fill="rgb(0,0,0)" text-anchor="middle">1.5</text>
<polygon points="165.85,555.6 185.85,555.6 185.85,575.6 165.85,575.6" fill="rgb(150,206,73)"/><polygon points="165.85,555.6 185.85,555.6 185.85,575.6 165.85,575.6" fill="none" stroke="black" stroke-width="1"/><text xml:space="preserve" x="175.85" y="568.433" font-family="Calibri" font-size="7.5" fill="rgb(0,0,0)" text-anchor="middle">2.2</text>
<polygon points="185.85,555.6 205.85,555.6 205.85,575.6 185.85,575.6" fill="rgb(252,194,1)"/><polygon points="185.85,555.6 205.85,555.6 205.85,575.6 185.85,575.6" fill="none" stroke="black" stroke-width="1"/><text xml:space="preserve" x="195.85" y="568.433" font-family="Calibri" font-size="7.5" fill="rgb(0,0,0)" text-anchor="middle">3.0</text>
<text xml:space="preserve" x="155.85" y="608.6" font-family="Calibri" font-size="8" text-anchor="middle">PANTHERclass</text>
<polygon points="105.85,615.6 125.85,615.6 125.85,635.6 105.85,635.6" fill="rgb(255,255,255)"/><polygon points="105.85,615.6 125.85,615.6 125.85,635.6 105.85,635.6" fill="none" stroke="black" stroke-width="1"/><text xml:space="preserve" x="115.85" y="628.433" font-family="Calibri" font-size="7.5" fill="rgb(0,0,0)" text-anchor="middle">0.0</text>
<polygon points="125.85,615.6 145.85,615.6 145.85,635.6 125.85,635.6" fill="rgb(242,191,242)"/><polygon points="125.85,615.6 145.85,615.6 145.85,635.6 125.85,635.6" fill="none" stroke="black" stroke-width="1"/><text xml:space="preserve" x="135.85" y="628.433" font-family="Calibri" font-size="7.5" fill="rgb(0,0,0)" text-anchor="middle">0.2</text>
<polygon points="145.85,615.6 165.85,615.6 165.85,635.6 145.85,635.6" fill="rgb(230,127,230)"/><polygon points="145.85,615.6 165.85,615.6 165.85,635.6 145.85,635.6" fill="none" stroke="black" stroke-width="1"/><text xml:space="preserve" x="155.85" y="628.433" font-family="Calibri" font-size="7.5" fill="rgb(0,0,0)" text-anchor="middle">0.5</text>
<polygon points="165.85,615.6 185.85,615.6 185.85,635.6 165.85,635.6" fill="rgb(217,63,217)"/><polygon points="165.85,615.6 185.85,615.6 185.85,635.6 165.85,635.6" fill="none" stroke="black" stroke-width="1"/><text xml:space="preserve" x="175.85" y="628.433" font-family="Calibri" font-size="7.5" fill="rgb(255,255,255)" text-anchor="middle">0.8</text>
<polygon points="185.85,615.6 205.85,615.6 205.85,635.6 185.85,635.6" fill="rgb(205,0,205)"/><polygon points="185.85,615.6 205.85,615.6 205.85,635.6 185.85,635.6" fill="none" stroke="black" stroke-width="1"/><text xml:space="preserve" x="195.85" y="628.433" font-family="Calibri" font-size="7.5" fill="rgb(255,255,255)" text-anchor="middle">1.0</text>
</svg>
