<?xml version="1.0" standalone="no"?><!DOCTYPE svg PUBLIC "-//W3C//DTD SVG 1.1//EN" "http://www.w3.org/Graphics/SVG/1.1/DTD/svg11.dtd">
<svg width="277.8" height="567.6" version="1.1" xmlns="http://www.w3.org/2000/svg">
<text xml:space="preserve" x="89.8" y="342.6" font-family="Calibri" font-size="8" text-anchor="end">ANTXR2</text>
<text xml:space="preserve" x="89.8" y="350.6" font-family="Calibri" font-size="8" text-anchor="end">INHBB</text>
<text xml:space="preserve" x="89.8" y="358.6" font-family="Calibri" font-size="8" text-anchor="end">IQUB</text>
<text xml:space="preserve" x="89.8" y="366.6" font-family="Calibri" font-size="8" text-anchor="end">C3orf58</text>
<text xml:space="preserve" x="100.8" y="331.6" font-family="Calibri" font-size="8" transform="rotate(270 100.8 331.6)">c2</text>
<text xml:space="preserve" x="108.8" y="331.6" font-family="Calibri" font-size="8" transform="rotate(270 108.8 331.6)">c4</text>
<text xml:space="preserve" x="116.8" y="331.6" font-family="Calibri" font-size="8" transform="rotate(270 116.8 331.6)">c3</text>
<text xml:space="preserve" x="124.8" y="331.6" font-family="Calibri" font-size="8" transform="rotate(270 124.8 331.6)">c1</text>
<text xml:space="preserve" x="132.8" y="331.6" font-family="Calibri" font-size="8" transform="rotate(270 132.8 331.6)">c5</text>
<text xml:space="preserve" x="150.8" y="331.6" font-family="Calibri" font-size="8" transform="rotate(270 150.8 331.6)">c2_mean</text>
<text xml:space="preserve" x="158.8" y="331.6" font-family="Calibri" font-size="8" transform="rotate(270 158.8 331.6)">c4_mean</text>
<text xml:space="preserve" x="166.8" y="331.6" font-family="Calibri" font-size="8" transform="rotate(270 166.8 331.6)">c3_mean</text>
<text xml:space="preserve" x="174.8" y="331.6" font-family="Calibri" font-size="8" transform="rotate(270 174.8 331.6)">c1_mean</text>
<text xml:space="preserve" x="182.8" y="331.6" font-family="Calibri" font-size="8" transform="rotate(270 182.8 331.6)">c5_mean</text>
<text xml:space="preserve" x="200.8" y="331.6" font-family="Calibri" font-size="8" transform="rotate(270 200.8 331.6)">transcription_factor</text>
<text xml:space="preserve" x="208.8" y="331.6" font-family="Calibri" font-size="8" transform="rotate(270 208.8 331.6)">transmembrane_signal_receptor</text>
<text xml:space="preserve" x="216.8" y="331.6" font-family="Calibri" font-size="8" transform="rotate(270 216.8 331.6)">growth_factor</text>
<text xml:space="preserve" x="224.8" y="331.6" font-family="Calibri" font-size="8" transform="rotate(270 224.8 331.6)">peptide_hormone</text>
<text xml:space="preserve" x="232.8" y="331.6" font-family="Calibri" font-size="8" transform="rotate(270 232.8 331.6)">cytoskeletal_protein</text>
<text xml:space="preserve" x="240.8" y="331.6" font-family="Calibri" font-size="8" transform="rotate(270 240.8 331.6)">ion_channel</text>
<text xml:space="preserve" x="248.8" y="331.6" font-family="Calibri" font-size="8" transform="rotate(270 248.8 331.6)">integrin</text>
<text xml:space="preserve" x="256.8" y="331.6" font-family="Calibri" font-size="8" transform="rotate(270 256.8 331.6)">extracellular_matrix_protein</text>
<polygon points="93.8,335.6 101.8,335.6 101.8,343.6 93.8,343.6" fill="rgb(255,255,0)"/><text xml:space="preserve" x="97.8" y="342.433" font-family="Calibri" font-size="7.5" fill="rgb(0,0,0)" text-anchor="middle">3</text>
<polygon points="101.8,335.6 109.8,335.6 109.8,343.6 101.8,343.6" fill="rgb(230,127,0)"/><text xml:space="preserve" x="105.8" y="342.433" font-family="Calibri" font-size="7.5" fill="rgb(0,0,0)" text-anchor="middle">4</text>
<polygon points="109.8,335.6 117.8,335.6 117.8,343.6 109.8,343.6" fill="rgb(255,255,0)"/><text xml:space="preserve" x="113.8" y="342.433" font-family="Calibri" font-size="7.5" fill="rgb(0,0,0)" text-anchor="middle">3</text>
<polygon points="117.8,335.6 125.8,335.6 125.8,343.6 117.8,343.6" fill="rgb(230,127,0)"/><text xml:space="preserve" x="121.8" y="342.433" font-family="Calibri" font-size="7.5" fill="rgb(0,0,0)" text-anchor="middle">4</text>
<polygon points="125.8,335.6 133.8,335.6 133.8,343.6 125.8,343.6" fill="rgb(230,127,0)"/><text xml:space="preserve" x="129.8" y="342.433" font-family="Calibri" font-size="7.5" fill="rgb(0,0,0)" text-anchor="middle">4</text>
<polygon points="143.8,335.6 151.8,335.6 151.8,343.6 143.8,343.6" fill="rgb(214,198,28)"/>
<polygon points="151.8,335.6 159.8,335.6 159.8,343.6 151.8,343.6" fill="rgb(178,203,53)"/>
<polygon points="159.8,335.6 167.8,335.6 167.8,343.6 159.8,343.6" fill="rgb(101,212,108)"/>
<polygon points="167.8,335.6 175.8,335.6 175.8,343.6 167.8,343.6" fill="rgb(146,207,76)"/>
<polygon points="175.8,335.6 183.8,335.6 183.8,343.6 175.8,343.6" fill="rgb(112,211,100)"/>
<polygon points="193.8,335.6 201.8,335.6 201.8,343.6 193.8,343.6" fill="rgb(255,255,255)"/>
<polygon points="201.8,335.6 209.8,335.6 209.8,343.6 201.8,343.6" fill="rgb(205,0,205)"/>
<polygon points="209.8,335.6 217.8,335.6 217.8,343.6 209.8,343.6" fill="rgb(255,255,255)"/>
<polygon points="217.8,335.6 225.8,335.6 225.8,343.6 217.8,343.6" fill="rgb(255,255,255)"/>
<polygon points="225.8,335.6 233.8,335.6 233.8,343.6 225.8,343.6" fill="rgb(255,255,255)"/>
<polygon points="233.8,335.6 241.8,335.6 241.8,343.6 233.8,343.6" fill="rgb(255,255,255)"/>
<polygon points="241.8,335.6 249.8,335.6 249.8,343.6 241.8,343.6" fill="rgb(255,255,255)"/>
<polygon points="249.8,335.6 257.8,335.6 257.8,343.6 249.8,343.6" fill="rgb(255,255,255)"/>
<polygon points="93.8,343.6 101.8,343.6 101.8,351.6 93.8,351.6" fill="rgb(255,255,0)"/><text xml:space="preserve" x="97.8" y="350.433" font-family="Calibri" font-size="7.5" fill="rgb(0,0,0)" text-anchor="middle">3</text>
<polygon points="101.8,343.6 109.8,343.6 109.8,351.6 101.8,351.6" fill="rgb(230,127,0)"/><text xml:space="preserve" x="105.8" y="350.433" font-family="Calibri" font-size="7.5" fill="rgb(0,0,0)" text-anchor="middle">4</text>
<polygon points="109.8,343.6 117.8,343.6 117.8,351.6 109.8,351.6" fill="rgb(255,255,0)"/><text xml:space="preserve" x="113.8" y="350.433" font-family="Calibri" font-size="7.5" fill="rgb(0,0,0)" text-anchor="middle">3</text>
<polygon points="117.8,343.6 125.8,343.6 125.8,351.6 117.8,351.6" fill="rgb(230,127,0)"/><text xml:space="preserve" x="121.8" y="350.433" font-family="Calibri" font-size="7.5" fill="rgb(0,0,0)" text-anchor="middle">4</text>
<polygon points="125.8,343.6 133.8,343.6 133.8,351.6 125.8,351.6" fill="rgb(230,127,0)"/><text xml:space="preserve" x="129.8" y="350.433" font-family="Calibri" font-size="7.5" fill="rgb(0,0,0)" text-anchor="middle">4</text>
<polygon points="143.8,343.6 151.8,343.6 151.8,351.6 143.8,351.6" fill="rgb(103,212,107)"/>
<polygon points="151.8,343.6 159.8,343.6 159.8,351.6 151.8,351.6" fill="rgb(191,201,44)"/>
<polygon points="159.8,343.6 167.8,343.6 167.8,351.6 159.8,351.6" fill="rgb(88,214,117)"/>
<polygon points="167.8,343.6 175.8,343.6 175.8,351.6 167.8,351.6" fill="rgb(96,213,112)"/>
<polygon points="175.8,343.6 183.8,343.6 183.8,351.6 175.8,351.6" fill="rgb(66,216,133)"/>
<polygon points="193.8,343.6 201.8,343.6 201.8,351.6 193.8,351.6" fill="rgb(255,255,255)"/>
<polygon points="201.8,343.6 209.8,343.6 209.8,351.6 201.8,351.6" fill="rgb(255,255,255)"/>
<polygon points="209.8,343.6 217.8,343.6 217.8,351.6 209.8,351.6" fill="rgb(205,0,205)"/>
<polygon points="217.8,343.6 225.8,343.6 225.8,351.6 217.8,351.6" fill="rgb(255,255,255)"/>
<polygon points="225.8,343.6 233.8,343.6 233.8,351.6 225.8,351.6" fill="rgb(255,255,255)"/>
<polygon points="233.8,343.6 241.8,343.6 241.8,351.6 233.8,351.6" fill="rgb(255,255,255)"/>
<polygon points="241.8,343.6 249.8,343.6 249.8,351.6 241.8,351.6" fill="rgb(255,255,255)"/>
<polygon points="249.8,343.6 257.8,343.6 257.8,351.6 249.8,351.6" fill="rgb(255,255,255)"/>
<polygon points="93.8,351.6 101.8,351.6 101.8,359.6 93.8,359.6" fill="rgb(255,255,0)"/><text xml:space="preserve" x="97.8" y="358.433" font-family="Calibri" font-size="7.5" fill="rgb(0,0,0)" text-anchor="middle">3</text>
<polygon points="101.8,351.6 109.8,351.6 109.8,359.6 101.8,359.6" fill="rgb(230,127,0)"/><text xml:space="preserve" x="105.8" y="358.433" font-family="Calibri" font-size="7.5" fill="rgb(0,0,0)" text-anchor="middle">4</text>
<polygon points="109.8,351.6 117.8,351.6 117.8,359.6 109.8,359.6" fill="rgb(255,255,0)"/><text xml:space="preserve" x="113.8" y="358.433" font-family="Calibri" font-size="7.5" fill="rgb(0,0,0)" text-anchor="middle">3</text>
<polygon points="117.8,351.6 125.8,351.6 125.8,359.6 117.8,359.6" fill="rgb(230,127,0)"/><text xml:space="preserve" x="121.8" y="358.433" font-family="Calibri" font-size="7.5" fill="rgb(0,0,0)" text-anchor="middle">4</text>
<polygon points="125.8,351.6 133.8,351.6 133.8,359.6 125.8,359.6" fill="rgb(230,127,0)"/><text xml:space="preserve" x="129.8" y="358.433" font-family="Calibri" font-size="7.5" fill="rgb(0,0,0)" text-anchor="middle">4</text>
<polygon points="143.8,351.6 151.8,351.6 151.8,359.6 143.8,359.6" fill="rgb(241,195,8)"/>
<polygon points="151.8,351.6 159.8,351.6 159.8,359.6 151.8,359.6" fill="rgb(177,203,54)"/>
<polygon points="159.8,351.6 167.8,351.6 167.8,359.6 159.8,359.6" fill="rgb(86,214,118)"/>
<polygon points="167.8,351.6 175.8,351.6 175.8,359.6 167.8,359.6" fill="rgb(65,217,134)"/>
<polygon points="175.8,351.6 183.8,351.6 183.8,359.6 175.8,359.6" fill="rgb(113,211,99)"/>
<polygon points="193.8,351.6 201.8,351.6 201.8,359.6 193.8,359.6" fill="rgb(255,255,255)"/>
<polygon points="201.8,351.6 209.8,351.6 209.8,359.6 201.8,359.6" fill="rgb(255,255,255)"/>
<polygon points="209.8,351.6 217.8,351.6 217.8,359.6 209.8,359.6" fill="rgb(255,255,255)"/>
<polygon points="217.8,351.6 225.8,351.6 225.8,359.6 217.8,359.6" fill="rgb(255,255,255)"/>
<polygon points="225.8,351.6 233.8,351.6 233.8,359.6 225.8,359.6" fill="rgb(255,255,255)"/>
<polygon points="233.8,351.6 241.8,351.6 241.8,359.6 233.8,359.6" fill="rgb(255,255,255)"/>
<polygon points="241.8,351.6 249.8,351.6 249.8,359.6 241.8,359.6" fill="rgb(255,255,255)"/>
<polygon points="249.8,351.6 257.8,351.6 257.8,359.6 249.8,359.6" fill="rgb(255,255,255)"/>
<polygon points="93.8,359.6 101.8,359.6 101.8,367.6 93.8,367.6" fill="rgb(255,255,0)"/><text xml:space="preserve" x="97.8" y="366.433" font-family="Calibri" font-size="7.5" fill="rgb(0,0,0)" text-anchor="middle">3</text>
<polygon points="101.8,359.6 109.8,359.6 109.8,367.6 101.8,367.6" fill="rgb(230,127,0)"/><text xml:space="preserve" x="105.8" y="366.433" font-family="Calibri" font-size="7.5" fill="rgb(0,0,0)" text-anchor="middle">4</text>
<polygon points="109.8,359.6 117.8,359.6 117.8,367.6 109.8,367.6" fill="rgb(255,255,0)"/><text xml:space="preserve" x="113.8" y="366.433" font-family="Calibri" font-size="7.5" fill="rgb(0,0,0)" text-anchor="middle">3</text>
<polygon points="117.8,359.6 125.8,359.6 125.8,367.6 117.8,367.6" fill="rgb(230,127,0)"/><text xml:space="preserve" x="121.8" y="366.433" font-family="Calibri" font-size="7.5" fill="rgb(0,0,0)" text-anchor="middle">4</text>
<polygon points="125.8,359.6 133.8,359.6 133.8,367.6 125.8,367.6" fill="rgb(230,127,0)"/><text xml:space="preserve" x="129.8" y="366.433" font-family="Calibri" font-size="7.5" fill="rgb(0,0,0)" text-anchor="middle">4</text>
<polygon points="143.8,359.6 151.8,359.6 151.8,367.6 143.8,367.6" fill="rgb(222,197,22)"/>
<polygon points="151.8,359.6 159.8,359.6 159.8,367.6 151.8,367.6" fill="rgb(193,201,42)"/>
<polygon points="159.8,359.6 167.8,359.6 167.8,367.6 159.8,367.6" fill="rgb(115,210,98)"/>
<polygon points="167.8,359.6 175.8,359.6 175.8,367.6 167.8,367.6" fill="rgb(130,209,87)"/>
<polygon points="175.8,359.6 183.8,359.6 183.8,367.6 175.8,367.6" fill="rgb(214,198,28)"/>
<polygon points="193.8,359.6 201.8,359.6 201.8,367.6 193.8,367.6" fill="rgb(255,255,255)"/>
<polygon points="201.8,359.6 209.8,359.6 209.8,367.6 201.8,367.6" fill="rgb(255,255,255)"/>
<polygon points="209.8,359.6 217.8,359.6 217.8,367.6 209.8,367.6" fill="rgb(255,255,255)"/>
<polygon points="217.8,359.6 225.8,359.6 225.8,367.6 217.8,367.6" fill="rgb(255,255,255)"/>
<polygon points="225.8,359.6 233.8,359.6 233.8,367.6 225.8,367.6" fill="rgb(255,255,255)"/>
<polygon points="233.8,359.6 241.8,359.6 241.8,367.6 233.8,367.6" fill="rgb(255,255,255)"/>
<polygon points="241.8,359.6 249.8,359.6 249.8,367.6 241.8,367.6" fill="rgb(255,255,255)"/>
<polygon points="249.8,359.6 257.8,359.6 257.8,367.6 249.8,367.6" fill="rgb(255,255,255)"/>
<polygon points="93.8,335.6 133.8,335.6 133.8,367.6 93.8,367.6" fill="none" stroke="black" stroke-width="1"/>
<polygon points="143.8,335.6 183.8,335.6 183.8,367.6 143.8,367.6" fill="none" stroke="black" stroke-width="1"/>
<polygon points="193.8,335.6 257.8,335.6 257.8,367.6 193.8,367.6" fill="none" stroke="black" stroke-width="1"/>
<text xml:space="preserve" x="138.9" y="400.6" font-family="Calibri" font-size="8" text-anchor="middle">ClusterAssignment</text>
<polygon points="88.9,407.6 108.9,407.6 108.9,427.6 88.9,427.6" fill="rgb(0,205,0)"/><polygon points="88.9,407.6 108.9,407.6 108.9,427.6 88.9,427.6" fill="none" stroke="black" stroke-width="1"/><text xml:space="preserve" x="98.9" y="420.433" font-family="Calibri" font-size="7.5" fill="rgb(255,255,255)" text-anchor="middle">1.0</text>
<polygon points="108.9,407.6 128.9,407.6 128.9,427.6 108.9,427.6" fill="rgb(127,230,0)"/><polygon points="108.9,407.6 128.9,407.6 128.9,427.6 108.9,427.6" fill="none" stroke="black" stroke-width="1"/><text xml:space="preserve" x="118.9" y="420.433" font-family="Calibri" font-size="7.5" fill="rgb(0,0,0)" text-anchor="middle">2.0</text>
<polygon points="128.9,407.6 148.9,407.6 148.9,427.6 128.9,427.6" fill="rgb(255,255,0)"/><polygon points="128.9,407.6 148.9,407.6 148.9,427.6 128.9,427.6" fill="none" stroke="black" stroke-width="1"/><text xml:space="preserve" x="138.9" y="420.433" font-family="Calibri" font-size="7.5" fill="rgb(0,0,0)" text-anchor="middle">3.0</text>
<polygon points="148.9,407.6 168.9,407.6 168.9,427.6 148.9,427.6" fill="rgb(230,127,0)"/><polygon points="148.9,407.6 168.9,407.6 168.9,427.6 148.9,427.6" fill="none" stroke="black" stroke-width="1"/><text xml:space="preserve" x="158.9" y="420.433" font-family="Calibri" font-size="7.5" fill="rgb(0,0,0)" text-anchor="middle">4.0</text>
<polygon points="168.9,407.6 188.9,407.6 188.9,427.6 168.9,427.6" fill="rgb(205,0,0)"/><polygon points="168.9,407.6 188.9,407.6 188.9,427.6 168.9,427.6" fill="none" stroke="black" stroke-width="1"/><text xml:space="preserve" x="178.9" y="420.433" font-family="Calibri" font-size="7.5" fill="rgb(255,255,255)" text-anchor="middle">5.0</text>
<text xml:space="preserve" x="138.9" y="460.6" font-family="Calibri" font-size="8" text-anchor="middle">Expression</text>
<polygon points="88.9,467.6 108.9,467.6 108.9,487.6 88.9,487.6" fill="rgb(0,27,135)"/><polygon points="88.9,467.6 108.9,467.6 108.9,487.6 88.9,487.6" fill="none" stroke="black" stroke-width="1"/><text xml:space="preserve" x="98.9" y="480.433" font-family="Calibri" font-size="7.5" fill="rgb(255,255,255)" text-anchor="middle">0.0</text>
<polygon points="108.9,467.6 128.9,467.6 128.9,487.6 108.9,487.6" fill="rgb(24,123,140)"/><polygon points="108.9,467.6 128.9,467.6 128.9,487.6 108.9,487.6" fill="none" stroke="black" stroke-width="1"/><text xml:space="preserve" x="118.9" y="480.433" font-family="Calibri" font-size="7.5" fill="rgb(255,255,255)" text-anchor="middle">0.8</text>
<polygon points="128.9,467.6 148.9,467.6 148.9,487.6 128.9,487.6" fill="rgb(49,219,146)"/><polygon points="128.9,467.6 148.9,467.6 148.9,487.6 128.9,487.6" fill="none" stroke="black" stroke-width="1"/><text xml:space="preserve" x="138.9" y="480.433" font-family="Calibri" font-size="7.5" fill="rgb(0,0,0)" text-anchor="middle">1.5</text>
<polygon points="148.9,467.6 168.9,467.6 168.9,487.6 148.9,487.6" fill="rgb(150,206,73)"/><polygon points="148.9,467.6 168.9,467.6 168.9,487.6 148.9,487.6" fill="none" stroke="black" stroke-width="1"/><text xml:space="preserve" x="158.9" y="480.433" font-family="Calibri" font-size="7.5" fill="rgb(0,0,0)" text-anchor="middle">2.2</text>
<polygon points="168.9,467.6 188.9,467.6 188.9,487.6 168.9,487.6" fill="rgb(252,194,1)"/><polygon points="168.9,467.6 188.9,467.6 188.9,487.6 168.9,487.6" fill="none" stroke="black" stroke-width="1"/><text xml:space="preserve" x="178.9" y="480.433" font-family="Calibri" font-size="7.5" fill="rgb(0,0,0)" text-anchor="middle">3.0</text>
<text xml:space="preserve" x="138.9" y="520.6" font-family="Calibri" font-size="8" text-anchor="middle">PANTHERclass</text>
<polygon points="88.9,527.6 108.9,527.6 108.9,547.6 88.9,547.6" fill="rgb(255,255,255)"/><polygon points="88.9,527.6 108.9,527.6 108.9,547.6 88.9,547.6" fill="none" stroke="black" stroke-width="1"/><text xml:space="preserve" x="98.9" y="540.433" font-family="Calibri" font-size="7.5" fill="rgb(0,0,0)" text-anchor="middle">0.0</text>
<polygon points="108.9,527.6 128.9,527.6 128.9,547.6 108.9,547.6" fill="rgb(242,191,242)"/><polygon points="108.9,527.6 128.9,527.6 128.9,547.6 108.9,547.6" fill="none" stroke="black" stroke-width="1"/><text xml:space="preserve" x="118.9" y="540.433" font-family="Calibri" font-size="7.5" fill="rgb(0,0,0)" text-anchor="middle">0.2</text>
<polygon points="128.9,527.6 148.9,527.6 148.9,547.6 128.9,547.6" fill="rgb(230,127,230)"/><polygon points="128.9,527.6 148.9,527.6 148.9,547.6 128.9,547.6" fill="none" stroke="black" stroke-width="1"/><text xml:space="preserve" x="138.9" y="540.433" font-family="Calibri" font-size="7.5" fill="rgb(0,0,0)" text-anchor="middle">0.5</text>
<polygon points="148.9,527.6 168.9,527.6 168.9,547.6 148.9,547.6" fill="rgb(217,63,217)"/><polygon points="148.9,527.6 168.9,527.6 168.9,547.6 148.9,547.6" fill="none" stroke="black" stroke-width="1"/><text xml:space="preserve" x="158.9" y="540.433" font-family="Calibri" font-size="7.5" fill="rgb(255,255,255)" text-anchor="middle">0.8</text>
<polygon points="168.9,527.6 188.9,527.6 188.9,547.6 168.9,547.6" fill="rgb(205,0,205)"/><polygon points="168.9,527.6 188.9,527.6 188.9,547.6 168.9,547.6" fill="none" stroke="black" stroke-width="1"/><text xml:space="preserve" x="178.9" y="540.433" font-family="Calibri" font-size="7.5" fill="rgb(255,255,255)" text-anchor="middle">1.0</text>
</svg>
