<?xml version="1.0" standalone="no"?><!DOCTYPE svg PUBLIC "-//W3C//DTD SVG 1.1//EN" "http://www.w3.org/Graphics/SVG/1.1/DTD/svg11.dtd">
<svg width="290.1" height="599.6" version="1.1" xmlns="http://www.w3.org/2000/svg">
<text xml:space="preserve" x="102.1" y="342.6" font-family="Calibri" font-size="8" text-anchor="end">C7orf57</text>
<text xml:space="preserve" x="102.1" y="350.6" font-family="Calibri" font-size="8" text-anchor="end">PHLDB2</text>
<text xml:space="preserve" x="102.1" y="358.6" font-family="Calibri" font-size="8" text-anchor="end">MDFIC</text>
<text xml:space="preserve" x="102.1" y="366.6" font-family="Calibri" font-size="8" text-anchor="end">OLFML2B</text>
<text xml:space="preserve" x="102.1" y="374.6" font-family="Calibri" font-size="8" text-anchor="end">MAPK15</text>
<text xml:space="preserve" x="102.1" y="382.6" font-family="Calibri" font-size="8" text-anchor="end">NOTCH2</text>
<text xml:space="preserve" x="102.1" y="390.6" font-family="Calibri" font-size="8" text-anchor="end">TNS3</text>
<text xml:space="preserve" x="102.1" y="398.6" font-family="Calibri" font-size="8" text-anchor="end">FSTL1</text>
<text xml:space="preserve" x="113.1" y="331.6" font-family="Calibri" font-size="8" transform="rotate(270 113.1 331.6)">c2</text>
<text xml:space="preserve" x="121.1" y="331.6" font-family="Calibri" font-size="8" transform="rotate(270 121.1 331.6)">c4</text>
<text xml:space="preserve" x="129.1" y="331.6" font-family="Calibri" font-size="8" transform="rotate(270 129.1 331.6)">c3</text>
<text xml:space="preserve" x="137.1" y="331.6" font-family="Calibri" font-size="8" transform="rotate(270 137.1 331.6)">c1</text>
<text xml:space="preserve" x="145.1" y="331.6" font-family="Calibri" font-size="8" transform="rotate(270 145.1 331.6)">c5</text>
<text xml:space="preserve" x="163.1" y="331.6" font-family="Calibri" font-size="8" transform="rotate(270 163.1 331.6)">c2_mean</text>
<text xml:space="preserve" x="171.1" y="331.6" font-family="Calibri" font-size="8" transform="rotate(270 171.1 331.6)">c4_mean</text>
<text xml:space="preserve" x="179.1" y="331.6" font-family="Calibri" font-size="8" transform="rotate(270 179.1 331.6)">c3_mean</text>
<text xml:space="preserve" x="187.1" y="331.6" font-family="Calibri" font-size="8" transform="rotate(270 187.1 331.6)">c1_mean</text>
<text xml:space="preserve" x="195.1" y="331.6" font-family="Calibri" font-size="8" transform="rotate(270 195.1 331.6)">c5_mean</text>
<text xml:space="preserve" x="213.1" y="331.6" font-family="Calibri" font-size="8" transform="rotate(270 213.1 331.6)">transcription_factor</text>
<text xml:space="preserve" x="221.1" y="331.6" font-family="Calibri" font-size="8" transform="rotate(270 221.1 331.6)">transmembrane_signal_receptor</text>
<text xml:space="preserve" x="229.1" y="331.6" font-family="Calibri" font-size="8" transform="rotate(270 229.1 331.6)">growth_factor</text>
<text xml:space="preserve" x="237.1" y="331.6" font-family="Calibri" font-size="8" transform="rotate(270 237.1 331.6)">peptide_hormone</text>
<text xml:space="preserve" x="245.1" y="331.6" font-family="Calibri" font-size="8" transform="rotate(270 245.1 331.6)">cytoskeletal_protein</text>
<text xml:space="preserve" x="253.1" y="331.6" font-family="Calibri" font-size="8" transform="rotate(270 253.1 331.6)">ion_channel</text>
<text xml:space="preserve" x="261.1" y="331.6" font-family="Calibri" font-size="8" transform="rotate(270 261.1 331.6)">integrin</text>
<text xml:space="preserve" x="269.1" y="331.6" font-family="Calibri" font-size="8" transform="rotate(270 269.1 331.6)">extracellular_matrix_protein</text>
<polygon points="106.1,335.6 114.1,335.6 114.1,343.6 106.1,343.6" fill="rgb(230,127,0)"/><text xml:space="preserve" x="110.1" y="342.433" font-family="Calibri" font-size="7.5" fill="rgb(0,0,0)" text-anchor="middle">4</text>
<polygon points="114.1,335.6 122.1,335.6 122.1,343.6 114.1,343.6" fill="rgb(230,127,0)"/><text xml:space="preserve" x="118.1" y="342.433" font-family="Calibri" font-size="7.5" fill="rgb(0,0,0)" text-anchor="middle">4</text>
<polygon points="122.1,335.6 130.1,335.6 130.1,343.6 122.1,343.6" fill="rgb(230,127,0)"/><text xml:space="preserve" x="126.1" y="342.433" font-family="Calibri" font-size="7.5" fill="rgb(0,0,0)" text-anchor="middle">4</text>
<polygon points="130.1,335.6 138.1,335.6 138.1,343.6 130.1,343.6" fill="rgb(230,127,0)"/><text xml:space="preserve" x="134.1" y="342.433" font-family="Calibri" font-size="7.5" fill="rgb(0,0,0)" text-anchor="middle">4</text>
<polygon points="138.1,335.6 146.1,335.6 146.1,343.6 138.1,343.6" fill="rgb(205,0,0)"/><text xml:space="preserve" x="142.1" y="342.433" font-family="Calibri" font-size="7.5" fill="rgb(255,255,255)" text-anchor="middle">5</text>
<polygon points="156.1,335.6 164.1,335.6 164.1,343.6 156.1,343.6" fill="rgb(252,194,1)"/>
<polygon points="164.1,335.6 172.1,335.6 172.1,343.6 164.1,343.6" fill="rgb(252,194,1)"/>
<polygon points="172.1,335.6 180.1,335.6 180.1,343.6 172.1,343.6" fill="rgb(174,203,56)"/>
<polygon points="180.1,335.6 188.1,335.6 188.1,343.6 180.1,343.6" fill="rgb(80,215,123)"/>
<polygon points="188.1,335.6 196.1,335.6 196.1,343.6 188.1,343.6" fill="rgb(252,194,1)"/>
<polygon points="206.1,335.6 214.1,335.6 214.1,343.6 206.1,343.6" fill="rgb(255,255,255)"/>
<polygon points="214.1,335.6 222.1,335.6 222.1,343.6 214.1,343.6" fill="rgb(255,255,255)"/>
<polygon points="222.1,335.6 230.1,335.6 230.1,343.6 222.1,343.6" fill="rgb(255,255,255)"/>
<polygon points="230.1,335.6 238.1,335.6 238.1,343.6 230.1,343.6" fill="rgb(255,255,255)"/>
<polygon points="238.1,335.6 246.1,335.6 246.1,343.6 238.1,343.6" fill="rgb(255,255,255)"/>
<polygon points="246.1,335.6 254.1,335.6 254.1,343.6 246.1,343.6" fill="rgb(255,255,255)"/>
<polygon points="254.1,335.6 262.1,335.6 262.1,343.6 254.1,343.6" fill="rgb(255,255,255)"/>
<polygon points="262.1,335.6 270.1,335.6 270.1,343.6 262.1,343.6" fill="rgb(255,255,255)"/>
<polygon points="106.1,343.6 114.1,343.6 114.1,351.6 106.1,351.6" fill="rgb(230,127,0)"/><text xml:space="preserve" x="110.1" y="350.433" font-family="Calibri" font-size="7.5" fill="rgb(0,0,0)" text-anchor="middle">4</text>
<polygon points="114.1,343.6 122.1,343.6 122.1,351.6 114.1,351.6" fill="rgb(230,127,0)"/><text xml:space="preserve" x="118.1" y="350.433" font-family="Calibri" font-size="7.5" fill="rgb(0,0,0)" text-anchor="middle">4</text>
<polygon points="122.1,343.6 130.1,343.6 130.1,351.6 122.1,351.6" fill="rgb(230,127,0)"/><text xml:space="preserve" x="126.1" y="350.433" font-family="Calibri" font-size="7.5" fill="rgb(0,0,0)" text-anchor="middle">4</text>
<polygon points="130.1,343.6 138.1,343.6 138.1,351.6 130.1,351.6" fill="rgb(230,127,0)"/><text xml:space="preserve" x="134.1" y="350.433" font-family="Calibri" font-size="7.5" fill="rgb(0,0,0)" text-anchor="middle">4</text>
<polygon points="138.1,343.6 146.1,343.6 146.1,351.6 138.1,351.6" fill="rgb(205,0,0)"/><text xml:space="preserve" x="142.1" y="350.433" font-family="Calibri" font-size="7.5" fill="rgb(255,255,255)" text-anchor="middle">5</text>
<polygon points="156.1,343.6 164.1,343.6 164.1,351.6 156.1,351.6" fill="rgb(252,194,1)"/>
<polygon points="164.1,343.6 172.1,343.6 172.1,351.6 164.1,351.6" fill="rgb(193,201,42)"/>
<polygon points="172.1,343.6 180.1,343.6 180.1,351.6 172.1,351.6" fill="rgb(220,197,23)"/>
<polygon points="180.1,343.6 188.1,343.6 188.1,351.6 180.1,351.6" fill="rgb(61,217,137)"/>
<polygon points="188.1,343.6 196.1,343.6 196.1,351.6 188.1,351.6" fill="rgb(252,194,1)"/>
<polygon points="206.1,343.6 214.1,343.6 214.1,351.6 206.1,351.6" fill="rgb(255,255,255)"/>
<polygon points="214.1,343.6 222.1,343.6 222.1,351.6 214.1,351.6" fill="rgb(255,255,255)"/>
<polygon points="222.1,343.6 230.1,343.6 230.1,351.6 222.1,351.6" fill="rgb(255,255,255)"/>
<polygon points="230.1,343.6 238.1,343.6 238.1,351.6 230.1,351.6" fill="rgb(255,255,255)"/>
<polygon points="238.1,343.6 246.1,343.6 246.1,351.6 238.1,351.6" fill="rgb(255,255,255)"/>
<polygon points="246.1,343.6 254.1,343.6 254.1,351.6 246.1,351.6" fill="rgb(255,255,255)"/>
<polygon points="254.1,343.6 262.1,343.6 262.1,351.6 254.1,351.6" fill="rgb(255,255,255)"/>
<polygon points="262.1,343.6 270.1,343.6 270.1,351.6 262.1,351.6" fill="rgb(255,255,255)"/>
<polygon points="106.1,351.6 114.1,351.6 114.1,359.6 106.1,359.6" fill="rgb(230,127,0)"/><text xml:space="preserve" x="110.1" y="358.433" font-family="Calibri" font-size="7.5" fill="rgb(0,0,0)" text-anchor="middle">4</text>
<polygon points="114.1,351.6 122.1,351.6 122.1,359.6 114.1,359.6" fill="rgb(230,127,0)"/><text xml:space="preserve" x="118.1" y="358.433" font-family="Calibri" font-size="7.5" fill="rgb(0,0,0)" text-anchor="middle">4</text>
<polygon points="122.1,351.6 130.1,351.6 130.1,359.6 122.1,359.6" fill="rgb(230,127,0)"/><text xml:space="preserve" x="126.1" y="358.433" font-family="Calibri" font-size="7.5" fill="rgb(0,0,0)" text-anchor="middle">4</text>
<polygon points="130.1,351.6 138.1,351.6 138.1,359.6 130.1,359.6" fill="rgb(230,127,0)"/><text xml:space="preserve" x="134.1" y="358.433" font-family="Calibri" font-size="7.5" fill="rgb(0,0,0)" text-anchor="middle">4</text>
<polygon points="138.1,351.6 146.1,351.6 146.1,359.6 138.1,359.6" fill="rgb(205,0,0)"/><text xml:space="preserve" x="142.1" y="358.433" font-family="Calibri" font-size="7.5" fill="rgb(255,255,255)" text-anchor="middle">5</text>
<polygon points="156.1,351.6 164.1,351.6 164.1,359.6 156.1,359.6" fill="rgb(252,194,1)"/>
<polygon points="164.1,351.6 172.1,351.6 172.1,359.6 164.1,359.6" fill="rgb(120,210,94)"/>
<polygon points="172.1,351.6 180.1,351.6 180.1,359.6 172.1,359.6" fill="rgb(169,204,59)"/>
<polygon points="180.1,351.6 188.1,351.6 188.1,359.6 180.1,359.6" fill="rgb(142,207,79)"/>
<polygon points="188.1,351.6 196.1,351.6 196.1,359.6 188.1,359.6" fill="rgb(252,194,1)"/>
<polygon points="206.1,351.6 214.1,351.6 214.1,359.6 206.1,359.6" fill="rgb(255,255,255)"/>
<polygon points="214.1,351.6 222.1,351.6 222.1,359.6 214.1,359.6" fill="rgb(255,255,255)"/>
<polygon points="222.1,351.6 230.1,351.6 230.1,359.6 222.1,359.6" fill="rgb(255,255,255)"/>
<polygon points="230.1,351.6 238.1,351.6 238.1,359.6 230.1,359.6" fill="rgb(255,255,255)"/>
<polygon points="238.1,351.6 246.1,351.6 246.1,359.6 238.1,359.6" fill="rgb(255,255,255)"/>
<polygon points="246.1,351.6 254.1,351.6 254.1,359.6 246.1,359.6" fill="rgb(255,255,255)"/>
<polygon points="254.1,351.6 262.1,351.6 262.1,359.6 254.1,359.6" fill="rgb(255,255,255)"/>
<polygon points="262.1,351.6 270.1,351.6 270.1,359.6 262.1,359.6" fill="rgb(255,255,255)"/>
<polygon points="106.1,359.6 114.1,359.6 114.1,367.6 106.1,367.6" fill="rgb(230,127,0)"/><text xml:space="preserve" x="110.1" y="366.433" font-family="Calibri" font-size="7.5" fill="rgb(0,0,0)" text-anchor="middle">4</text>
<polygon points="114.1,359.6 122.1,359.6 122.1,367.6 114.1,367.6" fill="rgb(230,127,0)"/><text xml:space="preserve" x="118.1" y="366.433" font-family="Calibri" font-size="7.5" fill="rgb(0,0,0)" text-anchor="middle">4</text>
<polygon points="122.1,359.6 130.1,359.6 130.1,367.6 122.1,367.6" fill="rgb(230,127,0)"/><text xml:space="preserve" x="126.1" y="366.433" font-family="Calibri" font-size="7.5" fill="rgb(0,0,0)" text-anchor="middle">4</text>
<polygon points="130.1,359.6 138.1,359.6 138.1,367.6 130.1,367.6" fill="rgb(230,127,0)"/><text xml:space="preserve" x="134.1" y="366.433" font-family="Calibri" font-size="7.5" fill="rgb(0,0,0)" text-anchor="middle">4</text>
<polygon points="138.1,359.6 146.1,359.6 146.1,367.6 138.1,367.6" fill="rgb(205,0,0)"/><text xml:space="preserve" x="142.1" y="366.433" font-family="Calibri" font-size="7.5" fill="rgb(255,255,255)" text-anchor="middle">5</text>
<polygon points="156.1,359.6 164.1,359.6 164.1,367.6 156.1,367.6" fill="rgb(252,194,1)"/>
<polygon points="164.1,359.6 172.1,359.6 172.1,367.6 164.1,367.6" fill="rgb(252,194,1)"/>
<polygon points="172.1,359.6 180.1,359.6 180.1,367.6 172.1,367.6" fill="rgb(224,197,20)"/>
<polygon points="180.1,359.6 188.1,359.6 188.1,367.6 180.1,367.6" fill="rgb(47,211,145)"/>
<polygon points="188.1,359.6 196.1,359.6 196.1,367.6 188.1,367.6" fill="rgb(243,195,6)"/>
<polygon points="206.1,359.6 214.1,359.6 214.1,367.6 206.1,367.6" fill="rgb(255,255,255)"/>
<polygon points="214.1,359.6 222.1,359.6 222.1,367.6 214.1,367.6" fill="rgb(255,255,255)"/>
<polygon points="222.1,359.6 230.1,359.6 230.1,367.6 222.1,367.6" fill="rgb(255,255,255)"/>
<polygon points="230.1,359.6 238.1,359.6 238.1,367.6 230.1,367.6" fill="rgb(255,255,255)"/>
<polygon points="238.1,359.6 246.1,359.6 246.1,367.6 238.1,367.6" fill="rgb(255,255,255)"/>
<polygon points="246.1,359.6 254.1,359.6 254.1,367.6 246.1,367.6" fill="rgb(255,255,255)"/>
<polygon points="254.1,359.6 262.1,359.6 262.1,367.6 254.1,367.6" fill="rgb(255,255,255)"/>
<polygon points="262.1,359.6 270.1,359.6 270.1,367.6 262.1,367.6" fill="rgb(255,255,255)"/>
<polygon points="106.1,367.6 114.1,367.6 114.1,375.6 106.1,375.6" fill="rgb(230,127,0)"/><text xml:space="preserve" x="110.1" y="374.433" font-family="Calibri" font-size="7.5" fill="rgb(0,0,0)" text-anchor="middle">4</text>
<polygon points="114.1,367.6 122.1,367.6 122.1,375.6 114.1,375.6" fill="rgb(230,127,0)"/><text xml:space="preserve" x="118.1" y="374.433" font-family="Calibri" font-size="7.5" fill="rgb(0,0,0)" text-anchor="middle">4</text>
<polygon points="122.1,367.6 130.1,367.6 130.1,375.6 122.1,375.6" fill="rgb(230,127,0)"/><text xml:space="preserve" x="126.1" y="374.433" font-family="Calibri" font-size="7.5" fill="rgb(0,0,0)" text-anchor="middle">4</text>
<polygon points="130.1,367.6 138.1,367.6 138.1,375.6 130.1,375.6" fill="rgb(230,127,0)"/><text xml:space="preserve" x="134.1" y="374.433" font-family="Calibri" font-size="7.5" fill="rgb(0,0,0)" text-anchor="middle">4</text>
<polygon points="138.1,367.6 146.1,367.6 146.1,375.6 138.1,375.6" fill="rgb(205,0,0)"/><text xml:space="preserve" x="142.1" y="374.433" font-family="Calibri" font-size="7.5" fill="rgb(255,255,255)" text-anchor="middle">5</text>
<polygon points="156.1,367.6 164.1,367.6 164.1,375.6 156.1,375.6" fill="rgb(252,194,1)"/>
<polygon points="164.1,367.6 172.1,367.6 172.1,375.6 164.1,375.6" fill="rgb(252,194,1)"/>
<polygon points="172.1,367.6 180.1,367.6 180.1,375.6 172.1,375.6" fill="rgb(218,198,25)"/>
<polygon points="180.1,367.6 188.1,367.6 188.1,375.6 180.1,375.6" fill="rgb(104,212,106)"/>
<polygon points="188.1,367.6 196.1,367.6 196.1,375.6 188.1,375.6" fill="rgb(224,197,20)"/>
<polygon points="206.1,367.6 214.1,367.6 214.1,375.6 206.1,375.6" fill="rgb(255,255,255)"/>
<polygon points="214.1,367.6 222.1,367.6 222.1,375.6 214.1,375.6" fill="rgb(255,255,255)"/>
<polygon points="222.1,367.6 230.1,367.6 230.1,375.6 222.1,375.6" fill="rgb(255,255,255)"/>
<polygon points="230.1,367.6 238.1,367.6 238.1,375.6 230.1,375.6" fill="rgb(255,255,255)"/>
<polygon points="238.1,367.6 246.1,367.6 246.1,375.6 238.1,375.6" fill="rgb(255,255,255)"/>
<polygon points="246.1,367.6 254.1,367.6 254.1,375.6 246.1,375.6" fill="rgb(255,255,255)"/>
<polygon points="254.1,367.6 262.1,367.6 262.1,375.6 254.1,375.6" fill="rgb(255,255,255)"/>
<polygon points="262.1,367.6 270.1,367.6 270.1,375.6 262.1,375.6" fill="rgb(255,255,255)"/>
<polygon points="106.1,375.6 114.1,375.6 114.1,383.6 106.1,383.6" fill="rgb(230,127,0)"/><text xml:space="preserve" x="110.1" y="382.433" font-family="Calibri" font-size="7.5" fill="rgb(0,0,0)" text-anchor="middle">4</text>
<polygon points="114.1,375.6 122.1,375.6 122.1,383.6 114.1,383.6" fill="rgb(230,127,0)"/><text xml:space="preserve" x="118.1" y="382.433" font-family="Calibri" font-size="7.5" fill="rgb(0,0,0)" text-anchor="middle">4</text>
<polygon points="122.1,375.6 130.1,375.6 130.1,383.6 122.1,383.6" fill="rgb(230,127,0)"/><text xml:space="preserve" x="126.1" y="382.433" font-family="Calibri" font-size="7.5" fill="rgb(0,0,0)" text-anchor="middle">4</text>
<polygon points="130.1,375.6 138.1,375.6 138.1,383.6 130.1,383.6" fill="rgb(230,127,0)"/><text xml:space="preserve" x="134.1" y="382.433" font-family="Calibri" font-size="7.5" fill="rgb(0,0,0)" text-anchor="middle">4</text>
<polygon points="138.1,375.6 146.1,375.6 146.1,383.6 138.1,383.6" fill="rgb(205,0,0)"/><text xml:space="preserve" x="142.1" y="382.433" font-family="Calibri" font-size="7.5" fill="rgb(255,255,255)" text-anchor="middle">5</text>
<polygon points="156.1,375.6 164.1,375.6 164.1,383.6 156.1,383.6" fill="rgb(252,194,1)"/>
<polygon points="164.1,375.6 172.1,375.6 172.1,383.6 164.1,383.6" fill="rgb(192,201,43)"/>
<polygon points="172.1,375.6 180.1,375.6 180.1,383.6 172.1,383.6" fill="rgb(235,196,12)"/>
<polygon points="180.1,375.6 188.1,375.6 188.1,383.6 180.1,383.6" fill="rgb(128,209,88)"/>
<polygon points="188.1,375.6 196.1,375.6 196.1,383.6 188.1,383.6" fill="rgb(252,194,1)"/>
<polygon points="206.1,375.6 214.1,375.6 214.1,383.6 206.1,383.6" fill="rgb(255,255,255)"/>
<polygon points="214.1,375.6 222.1,375.6 222.1,383.6 214.1,383.6" fill="rgb(255,255,255)"/>
<polygon points="222.1,375.6 230.1,375.6 230.1,383.6 222.1,383.6" fill="rgb(255,255,255)"/>
<polygon points="230.1,375.6 238.1,375.6 238.1,383.6 230.1,383.6" fill="rgb(255,255,255)"/>
<polygon points="238.1,375.6 246.1,375.6 246.1,383.6 238.1,383.6" fill="rgb(255,255,255)"/>
<polygon points="246.1,375.6 254.1,375.6 254.1,383.6 246.1,383.6" fill="rgb(255,255,255)"/>
<polygon points="254.1,375.6 262.1,375.6 262.1,383.6 254.1,383.6" fill="rgb(255,255,255)"/>
<polygon points="262.1,375.6 270.1,375.6 270.1,383.6 262.1,383.6" fill="rgb(255,255,255)"/>
<polygon points="106.1,383.6 114.1,383.6 114.1,391.6 106.1,391.6" fill="rgb(230,127,0)"/><text xml:space="preserve" x="110.1" y="390.433" font-family="Calibri" font-size="7.5" fill="rgb(0,0,0)" text-anchor="middle">4</text>
<polygon points="114.1,383.6 122.1,383.6 122.1,391.6 114.1,391.6" fill="rgb(230,127,0)"/><text xml:space="preserve" x="118.1" y="390.433" font-family="Calibri" font-size="7.5" fill="rgb(0,0,0)" text-anchor="middle">4</text>
<polygon points="122.1,383.6 130.1,383.6 130.1,391.6 122.1,391.6" fill="rgb(230,127,0)"/><text xml:space="preserve" x="126.1" y="390.433" font-family="Calibri" font-size="7.5" fill="rgb(0,0,0)" text-anchor="middle">4</text>
<polygon points="130.1,383.6 138.1,383.6 138.1,391.6 130.1,391.6" fill="rgb(230,127,0)"/><text xml:space="preserve" x="134.1" y="390.433" font-family="Calibri" font-size="7.5" fill="rgb(0,0,0)" text-anchor="middle">4</text>
<polygon points="138.1,383.6 146.1,383.6 146.1,391.6 138.1,391.6" fill="rgb(205,0,0)"/><text xml:space="preserve" x="142.1" y="390.433" font-family="Calibri" font-size="7.5" fill="rgb(255,255,255)" text-anchor="middle">5</text>
<polygon points="156.1,383.6 164.1,383.6 164.1,391.6 156.1,391.6" fill="rgb(252,194,1)"/>
<polygon points="164.1,383.6 172.1,383.6 172.1,391.6 164.1,391.6" fill="rgb(210,199,30)"/>
<polygon points="172.1,383.6 180.1,383.6 180.1,391.6 172.1,391.6" fill="rgb(165,204,62)"/>
<polygon points="180.1,383.6 188.1,383.6 188.1,391.6 180.1,391.6" fill="rgb(135,208,84)"/>
<polygon points="188.1,383.6 196.1,383.6 196.1,391.6 188.1,391.6" fill="rgb(252,194,1)"/>
<polygon points="206.1,383.6 214.1,383.6 214.1,391.6 206.1,391.6" fill="rgb(255,255,255)"/>
<polygon points="214.1,383.6 222.1,383.6 222.1,391.6 214.1,391.6" fill="rgb(255,255,255)"/>
<polygon points="222.1,383.6 230.1,383.6 230.1,391.6 222.1,391.6" fill="rgb(255,255,255)"/>
<polygon points="230.1,383.6 238.1,383.6 238.1,391.6 230.1,391.6" fill="rgb(255,255,255)"/>
<polygon points="238.1,383.6 246.1,383.6 246.1,391.6 238.1,391.6" fill="rgb(255,255,255)"/>
<polygon points="246.1,383.6 254.1,383.6 254.1,391.6 246.1,391.6" fill="rgb(255,255,255)"/>
<polygon points="254.1,383.6 262.1,383.6 262.1,391.6 254.1,391.6" fill="rgb(255,255,255)"/>
<polygon points="262.1,383.6 270.1,383.6 270.1,391.6 262.1,391.6" fill="rgb(255,255,255)"/>
<polygon points="106.1,391.6 114.1,391.6 114.1,399.6 106.1,399.6" fill="rgb(230,127,0)"/><text xml:space="preserve" x="110.1" y="398.433" font-family="Calibri" font-size="7.5" fill="rgb(0,0,0)" text-anchor="middle">4</text>
<polygon points="114.1,391.6 122.1,391.6 122.1,399.6 114.1,399.6" fill="rgb(230,127,0)"/><text xml:space="preserve" x="118.1" y="398.433" font-family="Calibri" font-size="7.5" fill="rgb(0,0,0)" text-anchor="middle">4</text>
<polygon points="122.1,391.6 130.1,391.6 130.1,399.6 122.1,399.6" fill="rgb(230,127,0)"/><text xml:space="preserve" x="126.1" y="398.433" font-family="Calibri" font-size="7.5" fill="rgb(0,0,0)" text-anchor="middle">4</text>
<polygon points="130.1,391.6 138.1,391.6 138.1,399.6 130.1,399.6" fill="rgb(230,127,0)"/><text xml:space="preserve" x="134.1" y="398.433" font-family="Calibri" font-size="7.5" fill="rgb(0,0,0)" text-anchor="middle">4</text>
<polygon points="138.1,391.6 146.1,391.6 146.1,399.6 138.1,399.6" fill="rgb(205,0,0)"/><text xml:space="preserve" x="142.1" y="398.433" font-family="Calibri" font-size="7.5" fill="rgb(255,255,255)" text-anchor="middle">5</text>
<polygon points="156.1,391.6 164.1,391.6 164.1,399.6 156.1,399.6" fill="rgb(252,194,1)"/>
<polygon points="164.1,391.6 172.1,391.6 172.1,399.6 164.1,399.6" fill="rgb(252,194,1)"/>
<polygon points="172.1,391.6 180.1,391.6 180.1,399.6 172.1,399.6" fill="rgb(230,196,16)"/>
<polygon points="180.1,391.6 188.1,391.6 188.1,399.6 180.1,399.6" fill="rgb(116,210,97)"/>
<polygon points="188.1,391.6 196.1,391.6 196.1,399.6 188.1,399.6" fill="rgb(252,194,1)"/>
<polygon points="206.1,391.6 214.1,391.6 214.1,399.6 206.1,399.6" fill="rgb(255,255,255)"/>
<polygon points="214.1,391.6 222.1,391.6 222.1,399.6 214.1,399.6" fill="rgb(255,255,255)"/>
<polygon points="222.1,391.6 230.1,391.6 230.1,399.6 222.1,399.6" fill="rgb(255,255,255)"/>
<polygon points="230.1,391.6 238.1,391.6 238.1,399.6 230.1,399.6" fill="rgb(255,255,255)"/>
<polygon points="238.1,391.6 246.1,391.6 246.1,399.6 238.1,399.6" fill="rgb(255,255,255)"/>
<polygon points="246.1,391.6 254.1,391.6 254.1,399.6 246.1,399.6" fill="rgb(255,255,255)"/>
<polygon points="254.1,391.6 262.1,391.6 262.1,399.6 254.1,399.6" fill="rgb(255,255,255)"/>
<polygon points="262.1,391.6 270.1,391.6 270.1,399.6 262.1,399.6" fill="rgb(255,255,255)"/>
<polygon points="106.1,335.6 146.1,335.6 146.1,399.6 106.1,399.6" fill="none" stroke="black" stroke-width="1"/>
<polygon points="156.1,335.6 196.1,335.6 196.1,399.6 156.1,399.6" fill="none" stroke="black" stroke-width="1"/>
<polygon points="206.1,335.6 270.1,335.6 270.1,399.6 206.1,399.6" fill="none" stroke="black" stroke-width="1"/>
<text xml:space="preserve" x="145.05" y="432.6" font-family="Calibri" font-size="8" text-anchor="middle">ClusterAssignment</text>
<polygon points="95.05,439.6 115.05,439.6 115.05,459.6 95.05,459.6" fill="rgb(0,205,0)"/><polygon points="95.05,439.6 115.05,439.6 115.05,459.6 95.05,459.6" fill="none" stroke="black" stroke-width="1"/><text xml:space="preserve" x="105.05" y="452.433" font-family="Calibri" font-size="7.5" fill="rgb(255,255,255)" text-anchor="middle">1.0</text>
<polygon points="115.05,439.6 135.05,439.6 135.05,459.6 115.05,459.6" fill="rgb(127,230,0)"/><polygon points="115.05,439.6 135.05,439.6 135.05,459.6 115.05,459.6" fill="none" stroke="black" stroke-width="1"/><text xml:space="preserve" x="125.05" y="452.433" font-family="Calibri" font-size="7.5" fill="rgb(0,0,0)" text-anchor="middle">2.0</text>
<polygon points="135.05,439.6 155.05,439.6 155.05,459.6 135.05,459.6" fill="rgb(255,255,0)"/><polygon points="135.05,439.6 155.05,439.6 155.05,459.6 135.05,459.6" fill="none" stroke="black" stroke-width="1"/><text xml:space="preserve" x="145.05" y="452.433" font-family="Calibri" font-size="7.5" fill="rgb(0,0,0)" text-anchor="middle">3.0</text>
<polygon points="155.05,439.6 175.05,439.6 175.05,459.6 155.05,459.6" fill="rgb(230,127,0)"/><polygon points="155.05,439.6 175.05,439.6 175.05,459.6 155.05,459.6" fill="none" stroke="black" stroke-width="1"/><text xml:space="preserve" x="165.05" y="452.433" font-family="Calibri" font-size="7.5" fill="rgb(0,0,0)" text-anchor="middle">4.0</text>
<polygon points="175.05,439.6 195.05,439.6 195.05,459.6 175.05,459.6" fill="rgb(205,0,0)"/><polygon points="175.05,439.6 195.05,439.6 195.05,459.6 175.05,459.6" fill="none" stroke="black" stroke-width="1"/><text xml:space="preserve" x="185.05" y="452.433" font-family="Calibri" font-size="7.5" fill="rgb(255,255,255)" text-anchor="middle">5.0</text>
<text xml:space="preserve" x="145.05" y="492.6" font-family="Calibri" font-size="8" text-anchor="middle">Expression</text>
<polygon points="95.05,499.6 115.05,499.6 115.05,519.6 95.05,519.6" fill="rgb(0,27,135)"/><polygon points="95.05,499.6 115.05,499.6 115.05,519.6 95.05,519.6" fill="none" stroke="black" stroke-width="1"/><text xml:space="preserve" x="105.05" y="512.433" font-family="Calibri" font-size="7.5" fill="rgb(255,255,255)" text-anchor="middle">0.0</text>
<polygon points="115.05,499.6 135.05,499.6 135.05,519.6 115.05,519.6" fill="rgb(24,123,140)"/><polygon points="115.05,499.6 135.05,499.6 135.05,519.6 115.05,519.6" fill="none" stroke="black" stroke-width="1"/><text xml:space="preserve" x="125.05" y="512.433" font-family="Calibri" font-size="7.5" fill="rgb(255,255,255)" text-anchor="middle">0.8</text>
<polygon points="135.05,499.6 155.05,499.6 155.05,519.6 135.05,519.6" fill="rgb(49,219,146)"/><polygon points="135.05,499.6 155.05,499.6 155.05,519.6 135.05,519.6" fill="none" stroke="black" stroke-width="1"/><text xml:space="preserve" x="145.05" y="512.433" font-family="Calibri" font-size="7.5" fill="rgb(0,0,0)" text-anchor="middle">1.5</text>
<polygon points="155.05,499.6 175.05,499.6 175.05,519.6 155.05,519.6" fill="rgb(150,206,73)"/><polygon points="155.05,499.6 175.05,499.6 175.05,519.6 155.05,519.6" fill="none" stroke="black" stroke-width="1"/><text xml:space="preserve" x="165.05" y="512.433" font-family="Calibri" font-size="7.5" fill="rgb(0,0,0)" text-anchor="middle">2.2</text>
<polygon points="175.05,499.6 195.05,499.6 195.05,519.6 175.05,519.6" fill="rgb(252,194,1)"/><polygon points="175.05,499.6 195.05,499.6 195.05,519.6 175.05,519.6" fill="none" stroke="black" stroke-width="1"/><text xml:space="preserve" x="185.05" y="512.433" font-family="Calibri" font-size="7.5" fill="rgb(0,0,0)" text-anchor="middle">3.0</text>
<text xml:space="preserve" x="145.05" y="552.6" font-family="Calibri" font-size="8" text-anchor="middle">PANTHERclass</text>
<polygon points="95.05,559.6 115.05,559.6 115.05,579.6 95.05,579.6" fill="rgb(255,255,255)"/><polygon points="95.05,559.6 115.05,559.6 115.05,579.6 95.05,579.6" fill="none" stroke="black" stroke-width="1"/><text xml:space="preserve" x="105.05" y="572.433" font-family="Calibri" font-size="7.5" fill="rgb(0,0,0)" text-anchor="middle">0.0</text>
<polygon points="115.05,559.6 135.05,559.6 135.05,579.6 115.05,579.6" fill="rgb(242,191,242)"/><polygon points="115.05,559.6 135.05,559.6 135.05,579.6 115.05,579.6" fill="none" stroke="black" stroke-width="1"/><text xml:space="preserve" x="125.05" y="572.433" font-family="Calibri" font-size="7.5" fill="rgb(0,0,0)" text-anchor="middle">0.2</text>
<polygon points="135.05,559.6 155.05,559.6 155.05,579.6 135.05,579.6" fill="rgb(230,127,230)"/><polygon points="135.05,559.6 155.05,559.6 155.05,579.6 135.05,579.6" fill="none" stroke="black" stroke-width="1"/><text xml:space="preserve" x="145.05" y="572.433" font-family="Calibri" font-size="7.5" fill="rgb(0,0,0)" text-anchor="middle">0.5</text>
<polygon points="155.05,559.6 175.05,559.6 175.05,579.6 155.05,579.6" fill="rgb(217,63,217)"/><polygon points="155.05,559.6 175.05,559.6 175.05,579.6 155.05,579.6" fill="none" stroke="black" stroke-width="1"/><text xml:space="preserve" x="165.05" y="572.433" font-family="Calibri" font-size="7.5" fill="rgb(255,255,255)" text-anchor="middle">0.8</text>
<polygon points="175.05,559.6 195.05,559.6 195.05,579.6 175.05,579.6" fill="rgb(205,0,205)"/><polygon points="175.05,559.6 195.05,559.6 195.05,579.6 175.05,579.6" fill="none" stroke="black" stroke-width="1"/><text xml:space="preserve" x="185.05" y="572.433" font-family="Calibri" font-size="7.5" fill="rgb(255,255,255)" text-anchor="middle">1.0</text>
</svg>
