<?xml version="1.0" standalone="no"?><!DOCTYPE svg PUBLIC "-//W3C//DTD SVG 1.1//EN" "http://www.w3.org/Graphics/SVG/1.1/DTD/svg11.dtd">
<svg width="297.3" height="631.6" version="1.1" xmlns="http://www.w3.org/2000/svg">
<text xml:space="preserve" x="109.3" y="342.6" font-family="Calibri" font-size="8" text-anchor="end">ANXA2</text>
<text xml:space="preserve" x="109.3" y="350.6" font-family="Calibri" font-size="8" text-anchor="end">CRB2</text>
<text xml:space="preserve" x="109.3" y="358.6" font-family="Calibri" font-size="8" text-anchor="end">ITIH5</text>
<text xml:space="preserve" x="109.3" y="366.6" font-family="Calibri" font-size="8" text-anchor="end">GPRC5C</text>
<text xml:space="preserve" x="109.3" y="374.6" font-family="Calibri" font-size="8" text-anchor="end">COL4A6</text>
<text xml:space="preserve" x="109.3" y="382.6" font-family="Calibri" font-size="8" text-anchor="end">CDC42EP1</text>
<text xml:space="preserve" x="109.3" y="390.6" font-family="Calibri" font-size="8" text-anchor="end">LRP2</text>
<text xml:space="preserve" x="109.3" y="398.6" font-family="Calibri" font-size="8" text-anchor="end">EGF</text>
<text xml:space="preserve" x="109.3" y="406.6" font-family="Calibri" font-size="8" text-anchor="end">FTL</text>
<text xml:space="preserve" x="109.3" y="414.6" font-family="Calibri" font-size="8" text-anchor="end">STC2</text>
<text xml:space="preserve" x="109.3" y="422.6" font-family="Calibri" font-size="8" text-anchor="end">SERPINH1</text>
<text xml:space="preserve" x="109.3" y="430.6" font-family="Calibri" font-size="8" text-anchor="end">FKBP10</text>
<text xml:space="preserve" x="120.3" y="331.6" font-family="Calibri" font-size="8" transform="rotate(270 120.3 331.6)">c2</text>
<text xml:space="preserve" x="128.3" y="331.6" font-family="Calibri" font-size="8" transform="rotate(270 128.3 331.6)">c4</text>
<text xml:space="preserve" x="136.3" y="331.6" font-family="Calibri" font-size="8" transform="rotate(270 136.3 331.6)">c3</text>
<text xml:space="preserve" x="144.3" y="331.6" font-family="Calibri" font-size="8" transform="rotate(270 144.3 331.6)">c1</text>
<text xml:space="preserve" x="152.3" y="331.6" font-family="Calibri" font-size="8" transform="rotate(270 152.3 331.6)">c5</text>
<text xml:space="preserve" x="170.3" y="331.6" font-family="Calibri" font-size="8" transform="rotate(270 170.3 331.6)">c2_mean</text>
<text xml:space="preserve" x="178.3" y="331.6" font-family="Calibri" font-size="8" transform="rotate(270 178.3 331.6)">c4_mean</text>
<text xml:space="preserve" x="186.3" y="331.6" font-family="Calibri" font-size="8" transform="rotate(270 186.3 331.6)">c3_mean</text>
<text xml:space="preserve" x="194.3" y="331.6" font-family="Calibri" font-size="8" transform="rotate(270 194.3 331.6)">c1_mean</text>
<text xml:space="preserve" x="202.3" y="331.6" font-family="Calibri" font-size="8" transform="rotate(270 202.3 331.6)">c5_mean</text>
<text xml:space="preserve" x="220.3" y="331.6" font-family="Calibri" font-size="8" transform="rotate(270 220.3 331.6)">transcription_factor</text>
<text xml:space="preserve" x="228.3" y="331.6" font-family="Calibri" font-size="8" transform="rotate(270 228.3 331.6)">transmembrane_signal_receptor</text>
<text xml:space="preserve" x="236.3" y="331.6" font-family="Calibri" font-size="8" transform="rotate(270 236.3 331.6)">growth_factor</text>
<text xml:space="preserve" x="244.3" y="331.6" font-family="Calibri" font-size="8" transform="rotate(270 244.3 331.6)">peptide_hormone</text>
<text xml:space="preserve" x="252.3" y="331.6" font-family="Calibri" font-size="8" transform="rotate(270 252.3 331.6)">cytoskeletal_protein</text>
<text xml:space="preserve" x="260.3" y="331.6" font-family="Calibri" font-size="8" transform="rotate(270 260.3 331.6)">ion_channel</text>
<text xml:space="preserve" x="268.3" y="331.6" font-family="Calibri" font-size="8" transform="rotate(270 268.3 331.6)">integrin</text>
<text xml:space="preserve" x="276.3" y="331.6" font-family="Calibri" font-size="8" transform="rotate(270 276.3 331.6)">extracellular_matrix_protein</text>
<polygon points="113.3,335.6 121.3,335.6 121.3,343.6 113.3,343.6" fill="rgb(255,255,0)"/><text xml:space="preserve" x="117.3" y="342.433" font-family="Calibri" font-size="7.5" fill="rgb(0,0,0)" text-anchor="middle">3</text>
<polygon points="121.3,335.6 129.3,335.6 129.3,343.6 121.3,343.6" fill="rgb(230,127,0)"/><text xml:space="preserve" x="125.3" y="342.433" font-family="Calibri" font-size="7.5" fill="rgb(0,0,0)" text-anchor="middle">4</text>
<polygon points="129.3,335.6 137.3,335.6 137.3,343.6 129.3,343.6" fill="rgb(230,127,0)"/><text xml:space="preserve" x="133.3" y="342.433" font-family="Calibri" font-size="7.5" fill="rgb(0,0,0)" text-anchor="middle">4</text>
<polygon points="137.3,335.6 145.3,335.6 145.3,343.6 137.3,343.6" fill="rgb(205,0,0)"/><text xml:space="preserve" x="141.3" y="342.433" font-family="Calibri" font-size="7.5" fill="rgb(255,255,255)" text-anchor="middle">5</text>
<polygon points="145.3,335.6 153.3,335.6 153.3,343.6 145.3,343.6" fill="rgb(230,127,0)"/><text xml:space="preserve" x="149.3" y="342.433" font-family="Calibri" font-size="7.5" fill="rgb(0,0,0)" text-anchor="middle">4</text>
<polygon points="163.3,335.6 171.3,335.6 171.3,343.6 163.3,343.6" fill="rgb(141,207,80)"/>
<polygon points="171.3,335.6 179.3,335.6 179.3,343.6 171.3,343.6" fill="rgb(176,203,55)"/>
<polygon points="179.3,335.6 187.3,335.6 187.3,343.6 179.3,343.6" fill="rgb(212,198,29)"/>
<polygon points="187.3,335.6 195.3,335.6 195.3,343.6 187.3,343.6" fill="rgb(252,194,1)"/>
<polygon points="195.3,335.6 203.3,335.6 203.3,343.6 195.3,343.6" fill="rgb(50,218,145)"/>
<polygon points="213.3,335.6 221.3,335.6 221.3,343.6 213.3,343.6" fill="rgb(255,255,255)"/>
<polygon points="221.3,335.6 229.3,335.6 229.3,343.6 221.3,343.6" fill="rgb(255,255,255)"/>
<polygon points="229.3,335.6 237.3,335.6 237.3,343.6 229.3,343.6" fill="rgb(255,255,255)"/>
<polygon points="237.3,335.6 245.3,335.6 245.3,343.6 237.3,343.6" fill="rgb(255,255,255)"/>
<polygon points="245.3,335.6 253.3,335.6 253.3,343.6 245.3,343.6" fill="rgb(255,255,255)"/>
<polygon points="253.3,335.6 261.3,335.6 261.3,343.6 253.3,343.6" fill="rgb(255,255,255)"/>
<polygon points="261.3,335.6 269.3,335.6 269.3,343.6 261.3,343.6" fill="rgb(255,255,255)"/>
<polygon points="269.3,335.6 277.3,335.6 277.3,343.6 269.3,343.6" fill="rgb(255,255,255)"/>
<polygon points="113.3,343.6 121.3,343.6 121.3,351.6 113.3,351.6" fill="rgb(255,255,0)"/><text xml:space="preserve" x="117.3" y="350.433" font-family="Calibri" font-size="7.5" fill="rgb(0,0,0)" text-anchor="middle">3</text>
<polygon points="121.3,343.6 129.3,343.6 129.3,351.6 121.3,351.6" fill="rgb(230,127,0)"/><text xml:space="preserve" x="125.3" y="350.433" font-family="Calibri" font-size="7.5" fill="rgb(0,0,0)" text-anchor="middle">4</text>
<polygon points="129.3,343.6 137.3,343.6 137.3,351.6 129.3,351.6" fill="rgb(230,127,0)"/><text xml:space="preserve" x="133.3" y="350.433" font-family="Calibri" font-size="7.5" fill="rgb(0,0,0)" text-anchor="middle">4</text>
<polygon points="137.3,343.6 145.3,343.6 145.3,351.6 137.3,351.6" fill="rgb(205,0,0)"/><text xml:space="preserve" x="141.3" y="350.433" font-family="Calibri" font-size="7.5" fill="rgb(255,255,255)" text-anchor="middle">5</text>
<polygon points="145.3,343.6 153.3,343.6 153.3,351.6 145.3,351.6" fill="rgb(230,127,0)"/><text xml:space="preserve" x="149.3" y="350.433" font-family="Calibri" font-size="7.5" fill="rgb(0,0,0)" text-anchor="middle">4</text>
<polygon points="163.3,343.6 171.3,343.6 171.3,351.6 163.3,351.6" fill="rgb(168,204,60)"/>
<polygon points="171.3,343.6 179.3,343.6 179.3,351.6 171.3,351.6" fill="rgb(177,203,54)"/>
<polygon points="179.3,343.6 187.3,343.6 187.3,351.6 179.3,351.6" fill="rgb(176,203,55)"/>
<polygon points="187.3,343.6 195.3,343.6 195.3,351.6 187.3,351.6" fill="rgb(182,202,50)"/>
<polygon points="195.3,343.6 203.3,343.6 203.3,351.6 195.3,351.6" fill="rgb(76,215,126)"/>
<polygon points="213.3,343.6 221.3,343.6 221.3,351.6 213.3,351.6" fill="rgb(255,255,255)"/>
<polygon points="221.3,343.6 229.3,343.6 229.3,351.6 221.3,351.6" fill="rgb(255,255,255)"/>
<polygon points="229.3,343.6 237.3,343.6 237.3,351.6 229.3,351.6" fill="rgb(255,255,255)"/>
<polygon points="237.3,343.6 245.3,343.6 245.3,351.6 237.3,351.6" fill="rgb(255,255,255)"/>
<polygon points="245.3,343.6 253.3,343.6 253.3,351.6 245.3,351.6" fill="rgb(255,255,255)"/>
<polygon points="253.3,343.6 261.3,343.6 261.3,351.6 253.3,351.6" fill="rgb(255,255,255)"/>
<polygon points="261.3,343.6 269.3,343.6 269.3,351.6 261.3,351.6" fill="rgb(255,255,255)"/>
<polygon points="269.3,343.6 277.3,343.6 277.3,351.6 269.3,351.6" fill="rgb(255,255,255)"/>
<polygon points="113.3,351.6 121.3,351.6 121.3,359.6 113.3,359.6" fill="rgb(255,255,0)"/><text xml:space="preserve" x="117.3" y="358.433" font-family="Calibri" font-size="7.5" fill="rgb(0,0,0)" text-anchor="middle">3</text>
<polygon points="121.3,351.6 129.3,351.6 129.3,359.6 121.3,359.6" fill="rgb(230,127,0)"/><text xml:space="preserve" x="125.3" y="358.433" font-family="Calibri" font-size="7.5" fill="rgb(0,0,0)" text-anchor="middle">4</text>
<polygon points="129.3,351.6 137.3,351.6 137.3,359.6 129.3,359.6" fill="rgb(230,127,0)"/><text xml:space="preserve" x="133.3" y="358.433" font-family="Calibri" font-size="7.5" fill="rgb(0,0,0)" text-anchor="middle">4</text>
<polygon points="137.3,351.6 145.3,351.6 145.3,359.6 137.3,359.6" fill="rgb(205,0,0)"/><text xml:space="preserve" x="141.3" y="358.433" font-family="Calibri" font-size="7.5" fill="rgb(255,255,255)" text-anchor="middle">5</text>
<polygon points="145.3,351.6 153.3,351.6 153.3,359.6 145.3,359.6" fill="rgb(230,127,0)"/><text xml:space="preserve" x="149.3" y="358.433" font-family="Calibri" font-size="7.5" fill="rgb(0,0,0)" text-anchor="middle">4</text>
<polygon points="163.3,351.6 171.3,351.6 171.3,359.6 163.3,359.6" fill="rgb(245,194,5)"/>
<polygon points="171.3,351.6 179.3,351.6 179.3,359.6 171.3,359.6" fill="rgb(185,202,48)"/>
<polygon points="179.3,351.6 187.3,351.6 187.3,359.6 179.3,359.6" fill="rgb(252,194,1)"/>
<polygon points="187.3,351.6 195.3,351.6 195.3,359.6 187.3,359.6" fill="rgb(200,200,37)"/>
<polygon points="195.3,351.6 203.3,351.6 203.3,359.6 195.3,359.6" fill="rgb(105,212,105)"/>
<polygon points="213.3,351.6 221.3,351.6 221.3,359.6 213.3,359.6" fill="rgb(255,255,255)"/>
<polygon points="221.3,351.6 229.3,351.6 229.3,359.6 221.3,359.6" fill="rgb(255,255,255)"/>
<polygon points="229.3,351.6 237.3,351.6 237.3,359.6 229.3,359.6" fill="rgb(255,255,255)"/>
<polygon points="237.3,351.6 245.3,351.6 245.3,359.6 237.3,359.6" fill="rgb(255,255,255)"/>
<polygon points="245.3,351.6 253.3,351.6 253.3,359.6 245.3,359.6" fill="rgb(255,255,255)"/>
<polygon points="253.3,351.6 261.3,351.6 261.3,359.6 253.3,359.6" fill="rgb(255,255,255)"/>
<polygon points="261.3,351.6 269.3,351.6 269.3,359.6 261.3,359.6" fill="rgb(255,255,255)"/>
<polygon points="269.3,351.6 277.3,351.6 277.3,359.6 269.3,359.6" fill="rgb(255,255,255)"/>
<polygon points="113.3,359.6 121.3,359.6 121.3,367.6 113.3,367.6" fill="rgb(255,255,0)"/><text xml:space="preserve" x="117.3" y="366.433" font-family="Calibri" font-size="7.5" fill="rgb(0,0,0)" text-anchor="middle">3</text>
<polygon points="121.3,359.6 129.3,359.6 129.3,367.6 121.3,367.6" fill="rgb(230,127,0)"/><text xml:space="preserve" x="125.3" y="366.433" font-family="Calibri" font-size="7.5" fill="rgb(0,0,0)" text-anchor="middle">4</text>
<polygon points="129.3,359.6 137.3,359.6 137.3,367.6 129.3,367.6" fill="rgb(230,127,0)"/><text xml:space="preserve" x="133.3" y="366.433" font-family="Calibri" font-size="7.5" fill="rgb(0,0,0)" text-anchor="middle">4</text>
<polygon points="137.3,359.6 145.3,359.6 145.3,367.6 137.3,367.6" fill="rgb(205,0,0)"/><text xml:space="preserve" x="141.3" y="366.433" font-family="Calibri" font-size="7.5" fill="rgb(255,255,255)" text-anchor="middle">5</text>
<polygon points="145.3,359.6 153.3,359.6 153.3,367.6 145.3,367.6" fill="rgb(230,127,0)"/><text xml:space="preserve" x="149.3" y="366.433" font-family="Calibri" font-size="7.5" fill="rgb(0,0,0)" text-anchor="middle">4</text>
<polygon points="163.3,359.6 171.3,359.6 171.3,367.6 163.3,367.6" fill="rgb(242,195,7)"/>
<polygon points="171.3,359.6 179.3,359.6 179.3,367.6 171.3,367.6" fill="rgb(161,205,65)"/>
<polygon points="179.3,359.6 187.3,359.6 187.3,367.6 179.3,367.6" fill="rgb(208,199,31)"/>
<polygon points="187.3,359.6 195.3,359.6 195.3,367.6 187.3,367.6" fill="rgb(196,200,40)"/>
<polygon points="195.3,359.6 203.3,359.6 203.3,367.6 195.3,367.6" fill="rgb(58,217,139)"/>
<polygon points="213.3,359.6 221.3,359.6 221.3,367.6 213.3,367.6" fill="rgb(255,255,255)"/>
<polygon points="221.3,359.6 229.3,359.6 229.3,367.6 221.3,367.6" fill="rgb(255,255,255)"/>
<polygon points="229.3,359.6 237.3,359.6 237.3,367.6 229.3,367.6" fill="rgb(255,255,255)"/>
<polygon points="237.3,359.6 245.3,359.6 245.3,367.6 237.3,367.6" fill="rgb(255,255,255)"/>
<polygon points="245.3,359.6 253.3,359.6 253.3,367.6 245.3,367.6" fill="rgb(255,255,255)"/>
<polygon points="253.3,359.6 261.3,359.6 261.3,367.6 253.3,367.6" fill="rgb(255,255,255)"/>
<polygon points="261.3,359.6 269.3,359.6 269.3,367.6 261.3,367.6" fill="rgb(255,255,255)"/>
<polygon points="269.3,359.6 277.3,359.6 277.3,367.6 269.3,367.6" fill="rgb(255,255,255)"/>
<polygon points="113.3,367.6 121.3,367.6 121.3,375.6 113.3,375.6" fill="rgb(255,255,0)"/><text xml:space="preserve" x="117.3" y="374.433" font-family="Calibri" font-size="7.5" fill="rgb(0,0,0)" text-anchor="middle">3</text>
<polygon points="121.3,367.6 129.3,367.6 129.3,375.6 121.3,375.6" fill="rgb(230,127,0)"/><text xml:space="preserve" x="125.3" y="374.433" font-family="Calibri" font-size="7.5" fill="rgb(0,0,0)" text-anchor="middle">4</text>
<polygon points="129.3,367.6 137.3,367.6 137.3,375.6 129.3,375.6" fill="rgb(230,127,0)"/><text xml:space="preserve" x="133.3" y="374.433" font-family="Calibri" font-size="7.5" fill="rgb(0,0,0)" text-anchor="middle">4</text>
<polygon points="137.3,367.6 145.3,367.6 145.3,375.6 137.3,375.6" fill="rgb(205,0,0)"/><text xml:space="preserve" x="141.3" y="374.433" font-family="Calibri" font-size="7.5" fill="rgb(255,255,255)" text-anchor="middle">5</text>
<polygon points="145.3,367.6 153.3,367.6 153.3,375.6 145.3,375.6" fill="rgb(230,127,0)"/><text xml:space="preserve" x="149.3" y="374.433" font-family="Calibri" font-size="7.5" fill="rgb(0,0,0)" text-anchor="middle">4</text>
<polygon points="163.3,367.6 171.3,367.6 171.3,375.6 163.3,375.6" fill="rgb(200,200,37)"/>
<polygon points="171.3,367.6 179.3,367.6 179.3,375.6 171.3,375.6" fill="rgb(246,194,4)"/>
<polygon points="179.3,367.6 187.3,367.6 187.3,375.6 179.3,375.6" fill="rgb(252,194,1)"/>
<polygon points="187.3,367.6 195.3,367.6 195.3,375.6 187.3,375.6" fill="rgb(181,202,51)"/>
<polygon points="195.3,367.6 203.3,367.6 203.3,375.6 195.3,375.6" fill="rgb(128,209,88)"/>
<polygon points="213.3,367.6 221.3,367.6 221.3,375.6 213.3,375.6" fill="rgb(255,255,255)"/>
<polygon points="221.3,367.6 229.3,367.6 229.3,375.6 221.3,375.6" fill="rgb(255,255,255)"/>
<polygon points="229.3,367.6 237.3,367.6 237.3,375.6 229.3,375.6" fill="rgb(255,255,255)"/>
<polygon points="237.3,367.6 245.3,367.6 245.3,375.6 237.3,375.6" fill="rgb(255,255,255)"/>
<polygon points="245.3,367.6 253.3,367.6 253.3,375.6 245.3,375.6" fill="rgb(255,255,255)"/>
<polygon points="253.3,367.6 261.3,367.6 261.3,375.6 253.3,375.6" fill="rgb(255,255,255)"/>
<polygon points="261.3,367.6 269.3,367.6 269.3,375.6 261.3,375.6" fill="rgb(255,255,255)"/>
<polygon points="269.3,367.6 277.3,367.6 277.3,375.6 269.3,375.6" fill="rgb(205,0,205)"/>
<polygon points="113.3,375.6 121.3,375.6 121.3,383.6 113.3,383.6" fill="rgb(255,255,0)"/><text xml:space="preserve" x="117.3" y="382.433" font-family="Calibri" font-size="7.5" fill="rgb(0,0,0)" text-anchor="middle">3</text>
<polygon points="121.3,375.6 129.3,375.6 129.3,383.6 121.3,383.6" fill="rgb(230,127,0)"/><text xml:space="preserve" x="125.3" y="382.433" font-family="Calibri" font-size="7.5" fill="rgb(0,0,0)" text-anchor="middle">4</text>
<polygon points="129.3,375.6 137.3,375.6 137.3,383.6 129.3,383.6" fill="rgb(230,127,0)"/><text xml:space="preserve" x="133.3" y="382.433" font-family="Calibri" font-size="7.5" fill="rgb(0,0,0)" text-anchor="middle">4</text>
<polygon points="137.3,375.6 145.3,375.6 145.3,383.6 137.3,383.6" fill="rgb(205,0,0)"/><text xml:space="preserve" x="141.3" y="382.433" font-family="Calibri" font-size="7.5" fill="rgb(255,255,255)" text-anchor="middle">5</text>
<polygon points="145.3,375.6 153.3,375.6 153.3,383.6 145.3,383.6" fill="rgb(230,127,0)"/><text xml:space="preserve" x="149.3" y="382.433" font-family="Calibri" font-size="7.5" fill="rgb(0,0,0)" text-anchor="middle">4</text>
<polygon points="163.3,375.6 171.3,375.6 171.3,383.6 163.3,383.6" fill="rgb(96,213,112)"/>
<polygon points="171.3,375.6 179.3,375.6 179.3,383.6 171.3,383.6" fill="rgb(170,204,59)"/>
<polygon points="179.3,375.6 187.3,375.6 187.3,383.6 179.3,383.6" fill="rgb(123,209,92)"/>
<polygon points="187.3,375.6 195.3,375.6 195.3,383.6 187.3,383.6" fill="rgb(173,203,57)"/>
<polygon points="195.3,375.6 203.3,375.6 203.3,383.6 195.3,383.6" fill="rgb(161,205,65)"/>
<polygon points="213.3,375.6 221.3,375.6 221.3,383.6 213.3,383.6" fill="rgb(255,255,255)"/>
<polygon points="221.3,375.6 229.3,375.6 229.3,383.6 221.3,383.6" fill="rgb(255,255,255)"/>
<polygon points="229.3,375.6 237.3,375.6 237.3,383.6 229.3,383.6" fill="rgb(255,255,255)"/>
<polygon points="237.3,375.6 245.3,375.6 245.3,383.6 237.3,383.6" fill="rgb(255,255,255)"/>
<polygon points="245.3,375.6 253.3,375.6 253.3,383.6 245.3,383.6" fill="rgb(255,255,255)"/>
<polygon points="253.3,375.6 261.3,375.6 261.3,383.6 253.3,383.6" fill="rgb(255,255,255)"/>
<polygon points="261.3,375.6 269.3,375.6 269.3,383.6 261.3,383.6" fill="rgb(255,255,255)"/>
<polygon points="269.3,375.6 277.3,375.6 277.3,383.6 269.3,383.6" fill="rgb(255,255,255)"/>
<polygon points="113.3,383.6 121.3,383.6 121.3,391.6 113.3,391.6" fill="rgb(255,255,0)"/><text xml:space="preserve" x="117.3" y="390.433" font-family="Calibri" font-size="7.5" fill="rgb(0,0,0)" text-anchor="middle">3</text>
<polygon points="121.3,383.6 129.3,383.6 129.3,391.6 121.3,391.6" fill="rgb(230,127,0)"/><text xml:space="preserve" x="125.3" y="390.433" font-family="Calibri" font-size="7.5" fill="rgb(0,0,0)" text-anchor="middle">4</text>
<polygon points="129.3,383.6 137.3,383.6 137.3,391.6 129.3,391.6" fill="rgb(230,127,0)"/><text xml:space="preserve" x="133.3" y="390.433" font-family="Calibri" font-size="7.5" fill="rgb(0,0,0)" text-anchor="middle">4</text>
<polygon points="137.3,383.6 145.3,383.6 145.3,391.6 137.3,391.6" fill="rgb(205,0,0)"/><text xml:space="preserve" x="141.3" y="390.433" font-family="Calibri" font-size="7.5" fill="rgb(255,255,255)" text-anchor="middle">5</text>
<polygon points="145.3,383.6 153.3,383.6 153.3,391.6 145.3,391.6" fill="rgb(230,127,0)"/><text xml:space="preserve" x="149.3" y="390.433" font-family="Calibri" font-size="7.5" fill="rgb(0,0,0)" text-anchor="middle">4</text>
<polygon points="163.3,383.6 171.3,383.6 171.3,391.6 163.3,391.6" fill="rgb(107,211,104)"/>
<polygon points="171.3,383.6 179.3,383.6 179.3,391.6 171.3,391.6" fill="rgb(178,203,53)"/>
<polygon points="179.3,383.6 187.3,383.6 187.3,391.6 179.3,391.6" fill="rgb(227,197,18)"/>
<polygon points="187.3,383.6 195.3,383.6 195.3,391.6 187.3,391.6" fill="rgb(252,194,1)"/>
<polygon points="195.3,383.6 203.3,383.6 203.3,391.6 195.3,391.6" fill="rgb(50,218,145)"/>
<polygon points="213.3,383.6 221.3,383.6 221.3,391.6 213.3,391.6" fill="rgb(255,255,255)"/>
<polygon points="221.3,383.6 229.3,383.6 229.3,391.6 221.3,391.6" fill="rgb(255,255,255)"/>
<polygon points="229.3,383.6 237.3,383.6 237.3,391.6 229.3,391.6" fill="rgb(255,255,255)"/>
<polygon points="237.3,383.6 245.3,383.6 245.3,391.6 237.3,391.6" fill="rgb(255,255,255)"/>
<polygon points="245.3,383.6 253.3,383.6 253.3,391.6 245.3,391.6" fill="rgb(255,255,255)"/>
<polygon points="253.3,383.6 261.3,383.6 261.3,391.6 253.3,391.6" fill="rgb(255,255,255)"/>
<polygon points="261.3,383.6 269.3,383.6 269.3,391.6 261.3,391.6" fill="rgb(255,255,255)"/>
<polygon points="269.3,383.6 277.3,383.6 277.3,391.6 269.3,391.6" fill="rgb(255,255,255)"/>
<polygon points="113.3,391.6 121.3,391.6 121.3,399.6 113.3,399.6" fill="rgb(255,255,0)"/><text xml:space="preserve" x="117.3" y="398.433" font-family="Calibri" font-size="7.5" fill="rgb(0,0,0)" text-anchor="middle">3</text>
<polygon points="121.3,391.6 129.3,391.6 129.3,399.6 121.3,399.6" fill="rgb(230,127,0)"/><text xml:space="preserve" x="125.3" y="398.433" font-family="Calibri" font-size="7.5" fill="rgb(0,0,0)" text-anchor="middle">4</text>
<polygon points="129.3,391.6 137.3,391.6 137.3,399.6 129.3,399.6" fill="rgb(230,127,0)"/><text xml:space="preserve" x="133.3" y="398.433" font-family="Calibri" font-size="7.5" fill="rgb(0,0,0)" text-anchor="middle">4</text>
<polygon points="137.3,391.6 145.3,391.6 145.3,399.6 137.3,399.6" fill="rgb(205,0,0)"/><text xml:space="preserve" x="141.3" y="398.433" font-family="Calibri" font-size="7.5" fill="rgb(255,255,255)" text-anchor="middle">5</text>
<polygon points="145.3,391.6 153.3,391.6 153.3,399.6 145.3,399.6" fill="rgb(230,127,0)"/><text xml:space="preserve" x="149.3" y="398.433" font-family="Calibri" font-size="7.5" fill="rgb(0,0,0)" text-anchor="middle">4</text>
<polygon points="163.3,391.6 171.3,391.6 171.3,399.6 163.3,399.6" fill="rgb(51,218,144)"/>
<polygon points="171.3,391.6 179.3,391.6 179.3,399.6 171.3,399.6" fill="rgb(252,194,1)"/>
<polygon points="179.3,391.6 187.3,391.6 187.3,399.6 179.3,399.6" fill="rgb(252,194,1)"/>
<polygon points="187.3,391.6 195.3,391.6 195.3,399.6 187.3,399.6" fill="rgb(185,202,48)"/>
<polygon points="195.3,391.6 203.3,391.6 203.3,399.6 195.3,399.6" fill="rgb(63,217,135)"/>
<polygon points="213.3,391.6 221.3,391.6 221.3,399.6 213.3,399.6" fill="rgb(255,255,255)"/>
<polygon points="221.3,391.6 229.3,391.6 229.3,399.6 221.3,399.6" fill="rgb(205,0,205)"/>
<polygon points="229.3,391.6 237.3,391.6 237.3,399.6 229.3,399.6" fill="rgb(205,0,205)"/>
<polygon points="237.3,391.6 245.3,391.6 245.3,399.6 237.3,399.6" fill="rgb(255,255,255)"/>
<polygon points="245.3,391.6 253.3,391.6 253.3,399.6 245.3,399.6" fill="rgb(255,255,255)"/>
<polygon points="253.3,391.6 261.3,391.6 261.3,399.6 253.3,399.6" fill="rgb(255,255,255)"/>
<polygon points="261.3,391.6 269.3,391.6 269.3,399.6 261.3,399.6" fill="rgb(255,255,255)"/>
<polygon points="269.3,391.6 277.3,391.6 277.3,399.6 269.3,399.6" fill="rgb(255,255,255)"/>
<polygon points="113.3,399.6 121.3,399.6 121.3,407.6 113.3,407.6" fill="rgb(255,255,0)"/><text xml:space="preserve" x="117.3" y="406.433" font-family="Calibri" font-size="7.5" fill="rgb(0,0,0)" text-anchor="middle">3</text>
<polygon points="121.3,399.6 129.3,399.6 129.3,407.6 121.3,407.6" fill="rgb(230,127,0)"/><text xml:space="preserve" x="125.3" y="406.433" font-family="Calibri" font-size="7.5" fill="rgb(0,0,0)" text-anchor="middle">4</text>
<polygon points="129.3,399.6 137.3,399.6 137.3,407.6 129.3,407.6" fill="rgb(230,127,0)"/><text xml:space="preserve" x="133.3" y="406.433" font-family="Calibri" font-size="7.5" fill="rgb(0,0,0)" text-anchor="middle">4</text>
<polygon points="137.3,399.6 145.3,399.6 145.3,407.6 137.3,407.6" fill="rgb(205,0,0)"/><text xml:space="preserve" x="141.3" y="406.433" font-family="Calibri" font-size="7.5" fill="rgb(255,255,255)" text-anchor="middle">5</text>
<polygon points="145.3,399.6 153.3,399.6 153.3,407.6 145.3,407.6" fill="rgb(230,127,0)"/><text xml:space="preserve" x="149.3" y="406.433" font-family="Calibri" font-size="7.5" fill="rgb(0,0,0)" text-anchor="middle">4</text>
<polygon points="163.3,399.6 171.3,399.6 171.3,407.6 163.3,407.6" fill="rgb(65,217,134)"/>
<polygon points="171.3,399.6 179.3,399.6 179.3,407.6 171.3,407.6" fill="rgb(252,194,1)"/>
<polygon points="179.3,399.6 187.3,399.6 187.3,407.6 179.3,407.6" fill="rgb(231,196,15)"/>
<polygon points="187.3,399.6 195.3,399.6 195.3,407.6 187.3,407.6" fill="rgb(252,194,1)"/>
<polygon points="195.3,399.6 203.3,399.6 203.3,407.6 195.3,407.6" fill="rgb(54,218,142)"/>
<polygon points="213.3,399.6 221.3,399.6 221.3,407.6 213.3,407.6" fill="rgb(255,255,255)"/>
<polygon points="221.3,399.6 229.3,399.6 229.3,407.6 221.3,407.6" fill="rgb(255,255,255)"/>
<polygon points="229.3,399.6 237.3,399.6 237.3,407.6 229.3,407.6" fill="rgb(255,255,255)"/>
<polygon points="237.3,399.6 245.3,399.6 245.3,407.6 237.3,407.6" fill="rgb(255,255,255)"/>
<polygon points="245.3,399.6 253.3,399.6 253.3,407.6 245.3,407.6" fill="rgb(255,255,255)"/>
<polygon points="253.3,399.6 261.3,399.6 261.3,407.6 253.3,407.6" fill="rgb(255,255,255)"/>
<polygon points="261.3,399.6 269.3,399.6 269.3,407.6 261.3,407.6" fill="rgb(255,255,255)"/>
<polygon points="269.3,399.6 277.3,399.6 277.3,407.6 269.3,407.6" fill="rgb(255,255,255)"/>
<polygon points="113.3,407.6 121.3,407.6 121.3,415.6 113.3,415.6" fill="rgb(255,255,0)"/><text xml:space="preserve" x="117.3" y="414.433" font-family="Calibri" font-size="7.5" fill="rgb(0,0,0)" text-anchor="middle">3</text>
<polygon points="121.3,407.6 129.3,407.6 129.3,415.6 121.3,415.6" fill="rgb(230,127,0)"/><text xml:space="preserve" x="125.3" y="414.433" font-family="Calibri" font-size="7.5" fill="rgb(0,0,0)" text-anchor="middle">4</text>
<polygon points="129.3,407.6 137.3,407.6 137.3,415.6 129.3,415.6" fill="rgb(230,127,0)"/><text xml:space="preserve" x="133.3" y="414.433" font-family="Calibri" font-size="7.5" fill="rgb(0,0,0)" text-anchor="middle">4</text>
<polygon points="137.3,407.6 145.3,407.6 145.3,415.6 137.3,415.6" fill="rgb(205,0,0)"/><text xml:space="preserve" x="141.3" y="414.433" font-family="Calibri" font-size="7.5" fill="rgb(255,255,255)" text-anchor="middle">5</text>
<polygon points="145.3,407.6 153.3,407.6 153.3,415.6 145.3,415.6" fill="rgb(230,127,0)"/><text xml:space="preserve" x="149.3" y="414.433" font-family="Calibri" font-size="7.5" fill="rgb(0,0,0)" text-anchor="middle">4</text>
<polygon points="163.3,407.6 171.3,407.6 171.3,415.6 163.3,415.6" fill="rgb(249,194,2)"/>
<polygon points="171.3,407.6 179.3,407.6 179.3,415.6 171.3,415.6" fill="rgb(159,205,66)"/>
<polygon points="179.3,407.6 187.3,407.6 187.3,415.6 179.3,415.6" fill="rgb(165,204,62)"/>
<polygon points="187.3,407.6 195.3,407.6 195.3,415.6 187.3,415.6" fill="rgb(197,200,39)"/>
<polygon points="195.3,407.6 203.3,407.6 203.3,415.6 195.3,415.6" fill="rgb(155,205,69)"/>
<polygon points="213.3,407.6 221.3,407.6 221.3,415.6 213.3,415.6" fill="rgb(255,255,255)"/>
<polygon points="221.3,407.6 229.3,407.6 229.3,415.6 221.3,415.6" fill="rgb(255,255,255)"/>
<polygon points="229.3,407.6 237.3,407.6 237.3,415.6 229.3,415.6" fill="rgb(255,255,255)"/>
<polygon points="237.3,407.6 245.3,407.6 245.3,415.6 237.3,415.6" fill="rgb(205,0,205)"/>
<polygon points="245.3,407.6 253.3,407.6 253.3,415.6 245.3,415.6" fill="rgb(255,255,255)"/>
<polygon points="253.3,407.6 261.3,407.6 261.3,415.6 253.3,415.6" fill="rgb(255,255,255)"/>
<polygon points="261.3,407.6 269.3,407.6 269.3,415.6 261.3,415.6" fill="rgb(255,255,255)"/>
<polygon points="269.3,407.6 277.3,407.6 277.3,415.6 269.3,415.6" fill="rgb(255,255,255)"/>
<polygon points="113.3,415.6 121.3,415.6 121.3,423.6 113.3,423.6" fill="rgb(255,255,0)"/><text xml:space="preserve" x="117.3" y="422.433" font-family="Calibri" font-size="7.5" fill="rgb(0,0,0)" text-anchor="middle">3</text>
<polygon points="121.3,415.6 129.3,415.6 129.3,423.6 121.3,423.6" fill="rgb(230,127,0)"/><text xml:space="preserve" x="125.3" y="422.433" font-family="Calibri" font-size="7.5" fill="rgb(0,0,0)" text-anchor="middle">4</text>
<polygon points="129.3,415.6 137.3,415.6 137.3,423.6 129.3,423.6" fill="rgb(230,127,0)"/><text xml:space="preserve" x="133.3" y="422.433" font-family="Calibri" font-size="7.5" fill="rgb(0,0,0)" text-anchor="middle">4</text>
<polygon points="137.3,415.6 145.3,415.6 145.3,423.6 137.3,423.6" fill="rgb(205,0,0)"/><text xml:space="preserve" x="141.3" y="422.433" font-family="Calibri" font-size="7.5" fill="rgb(255,255,255)" text-anchor="middle">5</text>
<polygon points="145.3,415.6 153.3,415.6 153.3,423.6 145.3,423.6" fill="rgb(230,127,0)"/><text xml:space="preserve" x="149.3" y="422.433" font-family="Calibri" font-size="7.5" fill="rgb(0,0,0)" text-anchor="middle">4</text>
<polygon points="163.3,415.6 171.3,415.6 171.3,423.6 163.3,423.6" fill="rgb(233,196,14)"/>
<polygon points="171.3,415.6 179.3,415.6 179.3,423.6 171.3,423.6" fill="rgb(204,199,34)"/>
<polygon points="179.3,415.6 187.3,415.6 187.3,423.6 179.3,423.6" fill="rgb(252,194,1)"/>
<polygon points="187.3,415.6 195.3,415.6 195.3,423.6 187.3,423.6" fill="rgb(241,195,8)"/>
<polygon points="195.3,415.6 203.3,415.6 203.3,423.6 195.3,423.6" fill="rgb(205,199,33)"/>
<polygon points="213.3,415.6 221.3,415.6 221.3,423.6 213.3,423.6" fill="rgb(255,255,255)"/>
<polygon points="221.3,415.6 229.3,415.6 229.3,423.6 221.3,423.6" fill="rgb(255,255,255)"/>
<polygon points="229.3,415.6 237.3,415.6 237.3,423.6 229.3,423.6" fill="rgb(255,255,255)"/>
<polygon points="237.3,415.6 245.3,415.6 245.3,423.6 237.3,423.6" fill="rgb(255,255,255)"/>
<polygon points="245.3,415.6 253.3,415.6 253.3,423.6 245.3,423.6" fill="rgb(255,255,255)"/>
<polygon points="253.3,415.6 261.3,415.6 261.3,423.6 253.3,423.6" fill="rgb(255,255,255)"/>
<polygon points="261.3,415.6 269.3,415.6 269.3,423.6 261.3,423.6" fill="rgb(255,255,255)"/>
<polygon points="269.3,415.6 277.3,415.6 277.3,423.6 269.3,423.6" fill="rgb(255,255,255)"/>
<polygon points="113.3,423.6 121.3,423.6 121.3,431.6 113.3,431.6" fill="rgb(255,255,0)"/><text xml:space="preserve" x="117.3" y="430.433" font-family="Calibri" font-size="7.5" fill="rgb(0,0,0)" text-anchor="middle">3</text>
<polygon points="121.3,423.6 129.3,423.6 129.3,431.6 121.3,431.6" fill="rgb(230,127,0)"/><text xml:space="preserve" x="125.3" y="430.433" font-family="Calibri" font-size="7.5" fill="rgb(0,0,0)" text-anchor="middle">4</text>
<polygon points="129.3,423.6 137.3,423.6 137.3,431.6 129.3,431.6" fill="rgb(230,127,0)"/><text xml:space="preserve" x="133.3" y="430.433" font-family="Calibri" font-size="7.5" fill="rgb(0,0,0)" text-anchor="middle">4</text>
<polygon points="137.3,423.6 145.3,423.6 145.3,431.6 137.3,431.6" fill="rgb(205,0,0)"/><text xml:space="preserve" x="141.3" y="430.433" font-family="Calibri" font-size="7.5" fill="rgb(255,255,255)" text-anchor="middle">5</text>
<polygon points="145.3,423.6 153.3,423.6 153.3,431.6 145.3,431.6" fill="rgb(230,127,0)"/><text xml:space="preserve" x="149.3" y="430.433" font-family="Calibri" font-size="7.5" fill="rgb(0,0,0)" text-anchor="middle">4</text>
<polygon points="163.3,423.6 171.3,423.6 171.3,431.6 163.3,431.6" fill="rgb(203,200,35)"/>
<polygon points="171.3,423.6 179.3,423.6 179.3,431.6 171.3,431.6" fill="rgb(191,201,44)"/>
<polygon points="179.3,423.6 187.3,423.6 187.3,431.6 179.3,431.6" fill="rgb(252,194,1)"/>
<polygon points="187.3,423.6 195.3,423.6 195.3,431.6 187.3,431.6" fill="rgb(252,194,1)"/>
<polygon points="195.3,423.6 203.3,423.6 203.3,431.6 195.3,431.6" fill="rgb(155,205,69)"/>
<polygon points="213.3,423.6 221.3,423.6 221.3,431.6 213.3,431.6" fill="rgb(255,255,255)"/>
<polygon points="221.3,423.6 229.3,423.6 229.3,431.6 221.3,431.6" fill="rgb(255,255,255)"/>
<polygon points="229.3,423.6 237.3,423.6 237.3,431.6 229.3,431.6" fill="rgb(255,255,255)"/>
<polygon points="237.3,423.6 245.3,423.6 245.3,431.6 237.3,431.6" fill="rgb(255,255,255)"/>
<polygon points="245.3,423.6 253.3,423.6 253.3,431.6 245.3,431.6" fill="rgb(255,255,255)"/>
<polygon points="253.3,423.6 261.3,423.6 261.3,431.6 253.3,431.6" fill="rgb(255,255,255)"/>
<polygon points="261.3,423.6 269.3,423.6 269.3,431.6 261.3,431.6" fill="rgb(255,255,255)"/>
<polygon points="269.3,423.6 277.3,423.6 277.3,431.6 269.3,431.6" fill="rgb(255,255,255)"/>
<polygon points="113.3,335.6 153.3,335.6 153.3,431.6 113.3,431.6" fill="none" stroke="black" stroke-width="1"/>
<polygon points="163.3,335.6 203.3,335.6 203.3,431.6 163.3,431.6" fill="none" stroke="black" stroke-width="1"/>
<polygon points="213.3,335.6 277.3,335.6 277.3,431.6 213.3,431.6" fill="none" stroke="black" stroke-width="1"/>
<text xml:space="preserve" x="148.65" y="464.6" font-family="Calibri" font-size="8" text-anchor="middle">ClusterAssignment</text>
<polygon points="98.65,471.6 118.65,471.6 118.65,491.6 98.65,491.6" fill="rgb(0,205,0)"/><polygon points="98.65,471.6 118.65,471.6 118.65,491.6 98.65,491.6" fill="none" stroke="black" stroke-width="1"/><text xml:space="preserve" x="108.65" y="484.433" font-family="Calibri" font-size="7.5" fill="rgb(255,255,255)" text-anchor="middle">1.0</text>
<polygon points="118.65,471.6 138.65,471.6 138.65,491.6 118.65,491.6" fill="rgb(127,230,0)"/><polygon points="118.65,471.6 138.65,471.6 138.65,491.6 118.65,491.6" fill="none" stroke="black" stroke-width="1"/><text xml:space="preserve" x="128.65" y="484.433" font-family="Calibri" font-size="7.5" fill="rgb(0,0,0)" text-anchor="middle">2.0</text>
<polygon points="138.65,471.6 158.65,471.6 158.65,491.6 138.65,491.6" fill="rgb(255,255,0)"/><polygon points="138.65,471.6 158.65,471.6 158.65,491.6 138.65,491.6" fill="none" stroke="black" stroke-width="1"/><text xml:space="preserve" x="148.65" y="484.433" font-family="Calibri" font-size="7.5" fill="rgb(0,0,0)" text-anchor="middle">3.0</text>
<polygon points="158.65,471.6 178.65,471.6 178.65,491.6 158.65,491.6" fill="rgb(230,127,0)"/><polygon points="158.65,471.6 178.65,471.6 178.65,491.6 158.65,491.6" fill="none" stroke="black" stroke-width="1"/><text xml:space="preserve" x="168.65" y="484.433" font-family="Calibri" font-size="7.5" fill="rgb(0,0,0)" text-anchor="middle">4.0</text>
<polygon points="178.65,471.6 198.65,471.6 198.65,491.6 178.65,491.6" fill="rgb(205,0,0)"/><polygon points="178.65,471.6 198.65,471.6 198.65,491.6 178.65,491.6" fill="none" stroke="black" stroke-width="1"/><text xml:space="preserve" x="188.65" y="484.433" font-family="Calibri" font-size="7.5" fill="rgb(255,255,255)" text-anchor="middle">5.0</text>
<text xml:space="preserve" x="148.65" y="524.6" font-family="Calibri" font-size="8" text-anchor="middle">Expression</text>
<polygon points="98.65,531.6 118.65,531.6 118.65,551.6 98.65,551.6" fill="rgb(0,27,135)"/><polygon points="98.65,531.6 118.65,531.6 118.65,551.6 98.65,551.6" fill="none" stroke="black" stroke-width="1"/><text xml:space="preserve" x="108.65" y="544.433" font-family="Calibri" font-size="7.5" fill="rgb(255,255,255)" text-anchor="middle">0.0</text>
<polygon points="118.65,531.6 138.65,531.6 138.65,551.6 118.65,551.6" fill="rgb(24,123,140)"/><polygon points="118.65,531.6 138.65,531.6 138.65,551.6 118.65,551.6" fill="none" stroke="black" stroke-width="1"/><text xml:space="preserve" x="128.65" y="544.433" font-family="Calibri" font-size="7.5" fill="rgb(255,255,255)" text-anchor="middle">0.8</text>
<polygon points="138.65,531.6 158.65,531.6 158.65,551.6 138.65,551.6" fill="rgb(49,219,146)"/><polygon points="138.65,531.6 158.65,531.6 158.65,551.6 138.65,551.6" fill="none" stroke="black" stroke-width="1"/><text xml:space="preserve" x="148.65" y="544.433" font-family="Calibri" font-size="7.5" fill="rgb(0,0,0)" text-anchor="middle">1.5</text>
<polygon points="158.65,531.6 178.65,531.6 178.65,551.6 158.65,551.6" fill="rgb(150,206,73)"/><polygon points="158.65,531.6 178.65,531.6 178.65,551.6 158.65,551.6" fill="none" stroke="black" stroke-width="1"/><text xml:space="preserve" x="168.65" y="544.433" font-family="Calibri" font-size="7.5" fill="rgb(0,0,0)" text-anchor="middle">2.2</text>
<polygon points="178.65,531.6 198.65,531.6 198.65,551.6 178.65,551.6" fill="rgb(252,194,1)"/><polygon points="178.65,531.6 198.65,531.6 198.65,551.6 178.65,551.6" fill="none" stroke="black" stroke-width="1"/><text xml:space="preserve" x="188.65" y="544.433" font-family="Calibri" font-size="7.5" fill="rgb(0,0,0)" text-anchor="middle">3.0</text>
<text xml:space="preserve" x="148.65" y="584.6" font-family="Calibri" font-size="8" text-anchor="middle">PANTHERclass</text>
<polygon points="98.65,591.6 118.65,591.6 118.65,611.6 98.65,611.6" fill="rgb(255,255,255)"/><polygon points="98.65,591.6 118.65,591.6 118.65,611.6 98.65,611.6" fill="none" stroke="black" stroke-width="1"/><text xml:space="preserve" x="108.65" y="604.433" font-family="Calibri" font-size="7.5" fill="rgb(0,0,0)" text-anchor="middle">0.0</text>
<polygon points="118.65,591.6 138.65,591.6 138.65,611.6 118.65,611.6" fill="rgb(242,191,242)"/><polygon points="118.65,591.6 138.65,591.6 138.65,611.6 118.65,611.6" fill="none" stroke="black" stroke-width="1"/><text xml:space="preserve" x="128.65" y="604.433" font-family="Calibri" font-size="7.5" fill="rgb(0,0,0)" text-anchor="middle">0.2</text>
<polygon points="138.65,591.6 158.65,591.6 158.65,611.6 138.65,611.6" fill="rgb(230,127,230)"/><polygon points="138.65,591.6 158.65,591.6 158.65,611.6 138.65,611.6" fill="none" stroke="black" stroke-width="1"/><text xml:space="preserve" x="148.65" y="604.433" font-family="Calibri" font-size="7.5" fill="rgb(0,0,0)" text-anchor="middle">0.5</text>
<polygon points="158.65,591.6 178.65,591.6 178.65,611.6 158.65,611.6" fill="rgb(217,63,217)"/><polygon points="158.65,591.6 178.65,591.6 178.65,611.6 158.65,611.6" fill="none" stroke="black" stroke-width="1"/><text xml:space="preserve" x="168.65" y="604.433" font-family="Calibri" font-size="7.5" fill="rgb(255,255,255)" text-anchor="middle">0.8</text>
<polygon points="178.65,591.6 198.65,591.6 198.65,611.6 178.65,611.6" fill="rgb(205,0,205)"/><polygon points="178.65,591.6 198.65,591.6 198.65,611.6 178.65,611.6" fill="none" stroke="black" stroke-width="1"/><text xml:space="preserve" x="188.65" y="604.433" font-family="Calibri" font-size="7.5" fill="rgb(255,255,255)" text-anchor="middle">1.0</text>
</svg>
