<?xml version="1.0" standalone="no"?><!DOCTYPE svg PUBLIC "-//W3C//DTD SVG 1.1//EN" "http://www.w3.org/Graphics/SVG/1.1/DTD/svg11.dtd">
<svg width="311.7" height="591.6" version="1.1" xmlns="http://www.w3.org/2000/svg">
<text xml:space="preserve" x="123.7" y="342.6" font-family="Calibri" font-size="8" text-anchor="end">AC090192.2</text>
<text xml:space="preserve" x="123.7" y="350.6" font-family="Calibri" font-size="8" text-anchor="end">C1orf54</text>
<text xml:space="preserve" x="123.7" y="358.6" font-family="Calibri" font-size="8" text-anchor="end">LPAR6</text>
<text xml:space="preserve" x="123.7" y="366.6" font-family="Calibri" font-size="8" text-anchor="end">TGIF1</text>
<text xml:space="preserve" x="123.7" y="374.6" font-family="Calibri" font-size="8" text-anchor="end">FGFRL1</text>
<text xml:space="preserve" x="123.7" y="382.6" font-family="Calibri" font-size="8" text-anchor="end">TMEM123</text>
<text xml:space="preserve" x="123.7" y="390.6" font-family="Calibri" font-size="8" text-anchor="end">EFNA4</text>
<text xml:space="preserve" x="134.7" y="331.6" font-family="Calibri" font-size="8" transform="rotate(270 134.7 331.6)">c2</text>
<text xml:space="preserve" x="142.7" y="331.6" font-family="Calibri" font-size="8" transform="rotate(270 142.7 331.6)">c4</text>
<text xml:space="preserve" x="150.7" y="331.6" font-family="Calibri" font-size="8" transform="rotate(270 150.7 331.6)">c3</text>
<text xml:space="preserve" x="158.7" y="331.6" font-family="Calibri" font-size="8" transform="rotate(270 158.7 331.6)">c1</text>
<text xml:space="preserve" x="166.7" y="331.6" font-family="Calibri" font-size="8" transform="rotate(270 166.7 331.6)">c5</text>
<text xml:space="preserve" x="184.7" y="331.6" font-family="Calibri" font-size="8" transform="rotate(270 184.7 331.6)">c2_mean</text>
<text xml:space="preserve" x="192.7" y="331.6" font-family="Calibri" font-size="8" transform="rotate(270 192.7 331.6)">c4_mean</text>
<text xml:space="preserve" x="200.7" y="331.6" font-family="Calibri" font-size="8" transform="rotate(270 200.7 331.6)">c3_mean</text>
<text xml:space="preserve" x="208.7" y="331.6" font-family="Calibri" font-size="8" transform="rotate(270 208.7 331.6)">c1_mean</text>
<text xml:space="preserve" x="216.7" y="331.6" font-family="Calibri" font-size="8" transform="rotate(270 216.7 331.6)">c5_mean</text>
<text xml:space="preserve" x="234.7" y="331.6" font-family="Calibri" font-size="8" transform="rotate(270 234.7 331.6)">transcription_factor</text>
<text xml:space="preserve" x="242.7" y="331.6" font-family="Calibri" font-size="8" transform="rotate(270 242.7 331.6)">transmembrane_signal_receptor</text>
<text xml:space="preserve" x="250.7" y="331.6" font-family="Calibri" font-size="8" transform="rotate(270 250.7 331.6)">growth_factor</text>
<text xml:space="preserve" x="258.7" y="331.6" font-family="Calibri" font-size="8" transform="rotate(270 258.7 331.6)">peptide_hormone</text>
<text xml:space="preserve" x="266.7" y="331.6" font-family="Calibri" font-size="8" transform="rotate(270 266.7 331.6)">cytoskeletal_protein</text>
<text xml:space="preserve" x="274.7" y="331.6" font-family="Calibri" font-size="8" transform="rotate(270 274.7 331.6)">ion_channel</text>
<text xml:space="preserve" x="282.7" y="331.6" font-family="Calibri" font-size="8" transform="rotate(270 282.7 331.6)">integrin</text>
<text xml:space="preserve" x="290.7" y="331.6" font-family="Calibri" font-size="8" transform="rotate(270 290.7 331.6)">extracellular_matrix_protein</text>
<polygon points="127.7,335.6 135.7,335.6 135.7,343.6 127.7,343.6" fill="rgb(255,255,0)"/><text xml:space="preserve" x="131.7" y="342.433" font-family="Calibri" font-size="7.5" fill="rgb(0,0,0)" text-anchor="middle">3</text>
<polygon points="135.7,335.6 143.7,335.6 143.7,343.6 135.7,343.6" fill="rgb(255,255,0)"/><text xml:space="preserve" x="139.7" y="342.433" font-family="Calibri" font-size="7.5" fill="rgb(0,0,0)" text-anchor="middle">3</text>
<polygon points="143.7,335.6 151.7,335.6 151.7,343.6 143.7,343.6" fill="rgb(230,127,0)"/><text xml:space="preserve" x="147.7" y="342.433" font-family="Calibri" font-size="7.5" fill="rgb(0,0,0)" text-anchor="middle">4</text>
<polygon points="151.7,335.6 159.7,335.6 159.7,343.6 151.7,343.6" fill="rgb(205,0,0)"/><text xml:space="preserve" x="155.7" y="342.433" font-family="Calibri" font-size="7.5" fill="rgb(255,255,255)" text-anchor="middle">5</text>
<polygon points="159.7,335.6 167.7,335.6 167.7,343.6 159.7,343.6" fill="rgb(230,127,0)"/><text xml:space="preserve" x="163.7" y="342.433" font-family="Calibri" font-size="7.5" fill="rgb(0,0,0)" text-anchor="middle">4</text>
<polygon points="177.7,335.6 185.7,335.6 185.7,343.6 177.7,343.6" fill="rgb(239,195,9)"/>
<polygon points="185.7,335.6 193.7,335.6 193.7,343.6 185.7,343.6" fill="rgb(90,213,116)"/>
<polygon points="193.7,335.6 201.7,335.6 201.7,343.6 193.7,343.6" fill="rgb(214,198,28)"/>
<polygon points="201.7,335.6 209.7,335.6 209.7,343.6 201.7,343.6" fill="rgb(189,201,45)"/>
<polygon points="209.7,335.6 217.7,335.6 217.7,343.6 209.7,343.6" fill="rgb(184,202,49)"/>
<polygon points="227.7,335.6 235.7,335.6 235.7,343.6 227.7,343.6" fill="rgb(255,255,255)"/>
<polygon points="235.7,335.6 243.7,335.6 243.7,343.6 235.7,343.6" fill="rgb(255,255,255)"/>
<polygon points="243.7,335.6 251.7,335.6 251.7,343.6 243.7,343.6" fill="rgb(255,255,255)"/>
<polygon points="251.7,335.6 259.7,335.6 259.7,343.6 251.7,343.6" fill="rgb(255,255,255)"/>
<polygon points="259.7,335.6 267.7,335.6 267.7,343.6 259.7,343.6" fill="rgb(255,255,255)"/>
<polygon points="267.7,335.6 275.7,335.6 275.7,343.6 267.7,343.6" fill="rgb(255,255,255)"/>
<polygon points="275.7,335.6 283.7,335.6 283.7,343.6 275.7,343.6" fill="rgb(255,255,255)"/>
<polygon points="283.7,335.6 291.7,335.6 291.7,343.6 283.7,343.6" fill="rgb(255,255,255)"/>
<polygon points="127.7,343.6 135.7,343.6 135.7,351.6 127.7,351.6" fill="rgb(255,255,0)"/><text xml:space="preserve" x="131.7" y="350.433" font-family="Calibri" font-size="7.5" fill="rgb(0,0,0)" text-anchor="middle">3</text>
<polygon points="135.7,343.6 143.7,343.6 143.7,351.6 135.7,351.6" fill="rgb(255,255,0)"/><text xml:space="preserve" x="139.7" y="350.433" font-family="Calibri" font-size="7.5" fill="rgb(0,0,0)" text-anchor="middle">3</text>
<polygon points="143.7,343.6 151.7,343.6 151.7,351.6 143.7,351.6" fill="rgb(230,127,0)"/><text xml:space="preserve" x="147.7" y="350.433" font-family="Calibri" font-size="7.5" fill="rgb(0,0,0)" text-anchor="middle">4</text>
<polygon points="151.7,343.6 159.7,343.6 159.7,351.6 151.7,351.6" fill="rgb(205,0,0)"/><text xml:space="preserve" x="155.7" y="350.433" font-family="Calibri" font-size="7.5" fill="rgb(255,255,255)" text-anchor="middle">5</text>
<polygon points="159.7,343.6 167.7,343.6 167.7,351.6 159.7,351.6" fill="rgb(230,127,0)"/><text xml:space="preserve" x="163.7" y="350.433" font-family="Calibri" font-size="7.5" fill="rgb(0,0,0)" text-anchor="middle">4</text>
<polygon points="177.7,343.6 185.7,343.6 185.7,351.6 177.7,351.6" fill="rgb(115,210,98)"/>
<polygon points="185.7,343.6 193.7,343.6 193.7,351.6 185.7,351.6" fill="rgb(78,215,124)"/>
<polygon points="193.7,343.6 201.7,343.6 201.7,351.6 193.7,351.6" fill="rgb(199,200,38)"/>
<polygon points="201.7,343.6 209.7,343.6 209.7,351.6 201.7,351.6" fill="rgb(252,194,1)"/>
<polygon points="209.7,343.6 217.7,343.6 217.7,351.6 209.7,351.6" fill="rgb(105,212,105)"/>
<polygon points="227.7,343.6 235.7,343.6 235.7,351.6 227.7,351.6" fill="rgb(255,255,255)"/>
<polygon points="235.7,343.6 243.7,343.6 243.7,351.6 235.7,351.6" fill="rgb(255,255,255)"/>
<polygon points="243.7,343.6 251.7,343.6 251.7,351.6 243.7,351.6" fill="rgb(255,255,255)"/>
<polygon points="251.7,343.6 259.7,343.6 259.7,351.6 251.7,351.6" fill="rgb(255,255,255)"/>
<polygon points="259.7,343.6 267.7,343.6 267.7,351.6 259.7,351.6" fill="rgb(255,255,255)"/>
<polygon points="267.7,343.6 275.7,343.6 275.7,351.6 267.7,351.6" fill="rgb(255,255,255)"/>
<polygon points="275.7,343.6 283.7,343.6 283.7,351.6 275.7,351.6" fill="rgb(255,255,255)"/>
<polygon points="283.7,343.6 291.7,343.6 291.7,351.6 283.7,351.6" fill="rgb(255,255,255)"/>
<polygon points="127.7,351.6 135.7,351.6 135.7,359.6 127.7,359.6" fill="rgb(255,255,0)"/><text xml:space="preserve" x="131.7" y="358.433" font-family="Calibri" font-size="7.5" fill="rgb(0,0,0)" text-anchor="middle">3</text>
<polygon points="135.7,351.6 143.7,351.6 143.7,359.6 135.7,359.6" fill="rgb(255,255,0)"/><text xml:space="preserve" x="139.7" y="358.433" font-family="Calibri" font-size="7.5" fill="rgb(0,0,0)" text-anchor="middle">3</text>
<polygon points="143.7,351.6 151.7,351.6 151.7,359.6 143.7,359.6" fill="rgb(230,127,0)"/><text xml:space="preserve" x="147.7" y="358.433" font-family="Calibri" font-size="7.5" fill="rgb(0,0,0)" text-anchor="middle">4</text>
<polygon points="151.7,351.6 159.7,351.6 159.7,359.6 151.7,359.6" fill="rgb(205,0,0)"/><text xml:space="preserve" x="155.7" y="358.433" font-family="Calibri" font-size="7.5" fill="rgb(255,255,255)" text-anchor="middle">5</text>
<polygon points="159.7,351.6 167.7,351.6 167.7,359.6 159.7,359.6" fill="rgb(230,127,0)"/><text xml:space="preserve" x="163.7" y="358.433" font-family="Calibri" font-size="7.5" fill="rgb(0,0,0)" text-anchor="middle">4</text>
<polygon points="177.7,351.6 185.7,351.6 185.7,359.6 177.7,359.6" fill="rgb(51,218,144)"/>
<polygon points="185.7,351.6 193.7,351.6 193.7,359.6 185.7,359.6" fill="rgb(46,208,145)"/>
<polygon points="193.7,351.6 201.7,351.6 201.7,359.6 193.7,359.6" fill="rgb(178,203,53)"/>
<polygon points="201.7,351.6 209.7,351.6 209.7,359.6 201.7,359.6" fill="rgb(252,194,1)"/>
<polygon points="209.7,351.6 217.7,351.6 217.7,359.6 209.7,359.6" fill="rgb(151,206,72)"/>
<polygon points="227.7,351.6 235.7,351.6 235.7,359.6 227.7,359.6" fill="rgb(255,255,255)"/>
<polygon points="235.7,351.6 243.7,351.6 243.7,359.6 235.7,359.6" fill="rgb(255,255,255)"/>
<polygon points="243.7,351.6 251.7,351.6 251.7,359.6 243.7,359.6" fill="rgb(255,255,255)"/>
<polygon points="251.7,351.6 259.7,351.6 259.7,359.6 251.7,359.6" fill="rgb(255,255,255)"/>
<polygon points="259.7,351.6 267.7,351.6 267.7,359.6 259.7,359.6" fill="rgb(255,255,255)"/>
<polygon points="267.7,351.6 275.7,351.6 275.7,359.6 267.7,359.6" fill="rgb(255,255,255)"/>
<polygon points="275.7,351.6 283.7,351.6 283.7,359.6 275.7,359.6" fill="rgb(255,255,255)"/>
<polygon points="283.7,351.6 291.7,351.6 291.7,359.6 283.7,359.6" fill="rgb(255,255,255)"/>
<polygon points="127.7,359.6 135.7,359.6 135.7,367.6 127.7,367.6" fill="rgb(255,255,0)"/><text xml:space="preserve" x="131.7" y="366.433" font-family="Calibri" font-size="7.5" fill="rgb(0,0,0)" text-anchor="middle">3</text>
<polygon points="135.7,359.6 143.7,359.6 143.7,367.6 135.7,367.6" fill="rgb(255,255,0)"/><text xml:space="preserve" x="139.7" y="366.433" font-family="Calibri" font-size="7.5" fill="rgb(0,0,0)" text-anchor="middle">3</text>
<polygon points="143.7,359.6 151.7,359.6 151.7,367.6 143.7,367.6" fill="rgb(230,127,0)"/><text xml:space="preserve" x="147.7" y="366.433" font-family="Calibri" font-size="7.5" fill="rgb(0,0,0)" text-anchor="middle">4</text>
<polygon points="151.7,359.6 159.7,359.6 159.7,367.6 151.7,367.6" fill="rgb(205,0,0)"/><text xml:space="preserve" x="155.7" y="366.433" font-family="Calibri" font-size="7.5" fill="rgb(255,255,255)" text-anchor="middle">5</text>
<polygon points="159.7,359.6 167.7,359.6 167.7,367.6 159.7,367.6" fill="rgb(230,127,0)"/><text xml:space="preserve" x="163.7" y="366.433" font-family="Calibri" font-size="7.5" fill="rgb(0,0,0)" text-anchor="middle">4</text>
<polygon points="177.7,359.6 185.7,359.6 185.7,367.6 177.7,367.6" fill="rgb(97,213,111)"/>
<polygon points="185.7,359.6 193.7,359.6 193.7,367.6 185.7,367.6" fill="rgb(76,215,126)"/>
<polygon points="193.7,359.6 201.7,359.6 201.7,367.6 193.7,367.6" fill="rgb(170,204,59)"/>
<polygon points="201.7,359.6 209.7,359.6 209.7,367.6 201.7,367.6" fill="rgb(252,194,1)"/>
<polygon points="209.7,359.6 217.7,359.6 217.7,367.6 209.7,367.6" fill="rgb(123,209,92)"/>
<polygon points="227.7,359.6 235.7,359.6 235.7,367.6 227.7,367.6" fill="rgb(205,0,205)"/>
<polygon points="235.7,359.6 243.7,359.6 243.7,367.6 235.7,367.6" fill="rgb(255,255,255)"/>
<polygon points="243.7,359.6 251.7,359.6 251.7,367.6 243.7,367.6" fill="rgb(255,255,255)"/>
<polygon points="251.7,359.6 259.7,359.6 259.7,367.6 251.7,367.6" fill="rgb(255,255,255)"/>
<polygon points="259.7,359.6 267.7,359.6 267.7,367.6 259.7,367.6" fill="rgb(255,255,255)"/>
<polygon points="267.7,359.6 275.7,359.6 275.7,367.6 267.7,367.6" fill="rgb(255,255,255)"/>
<polygon points="275.7,359.6 283.7,359.6 283.7,367.6 275.7,367.6" fill="rgb(255,255,255)"/>
<polygon points="283.7,359.6 291.7,359.6 291.7,367.6 283.7,367.6" fill="rgb(255,255,255)"/>
<polygon points="127.7,367.6 135.7,367.6 135.7,375.6 127.7,375.6" fill="rgb(255,255,0)"/><text xml:space="preserve" x="131.7" y="374.433" font-family="Calibri" font-size="7.5" fill="rgb(0,0,0)" text-anchor="middle">3</text>
<polygon points="135.7,367.6 143.7,367.6 143.7,375.6 135.7,375.6" fill="rgb(255,255,0)"/><text xml:space="preserve" x="139.7" y="374.433" font-family="Calibri" font-size="7.5" fill="rgb(0,0,0)" text-anchor="middle">3</text>
<polygon points="143.7,367.6 151.7,367.6 151.7,375.6 143.7,375.6" fill="rgb(230,127,0)"/><text xml:space="preserve" x="147.7" y="374.433" font-family="Calibri" font-size="7.5" fill="rgb(0,0,0)" text-anchor="middle">4</text>
<polygon points="151.7,367.6 159.7,367.6 159.7,375.6 151.7,375.6" fill="rgb(205,0,0)"/><text xml:space="preserve" x="155.7" y="374.433" font-family="Calibri" font-size="7.5" fill="rgb(255,255,255)" text-anchor="middle">5</text>
<polygon points="159.7,367.6 167.7,367.6 167.7,375.6 159.7,375.6" fill="rgb(230,127,0)"/><text xml:space="preserve" x="163.7" y="374.433" font-family="Calibri" font-size="7.5" fill="rgb(0,0,0)" text-anchor="middle">4</text>
<polygon points="177.7,367.6 185.7,367.6 185.7,375.6 177.7,375.6" fill="rgb(138,208,82)"/>
<polygon points="185.7,367.6 193.7,367.6 193.7,375.6 185.7,375.6" fill="rgb(123,209,92)"/>
<polygon points="193.7,367.6 201.7,367.6 201.7,375.6 193.7,375.6" fill="rgb(168,204,60)"/>
<polygon points="201.7,367.6 209.7,367.6 209.7,375.6 201.7,375.6" fill="rgb(252,194,1)"/>
<polygon points="209.7,367.6 217.7,367.6 217.7,375.6 209.7,375.6" fill="rgb(177,203,54)"/>
<polygon points="227.7,367.6 235.7,367.6 235.7,375.6 227.7,375.6" fill="rgb(255,255,255)"/>
<polygon points="235.7,367.6 243.7,367.6 243.7,375.6 235.7,375.6" fill="rgb(255,255,255)"/>
<polygon points="243.7,367.6 251.7,367.6 251.7,375.6 243.7,375.6" fill="rgb(255,255,255)"/>
<polygon points="251.7,367.6 259.7,367.6 259.7,375.6 251.7,375.6" fill="rgb(255,255,255)"/>
<polygon points="259.7,367.6 267.7,367.6 267.7,375.6 259.7,375.6" fill="rgb(255,255,255)"/>
<polygon points="267.7,367.6 275.7,367.6 275.7,375.6 267.7,375.6" fill="rgb(255,255,255)"/>
<polygon points="275.7,367.6 283.7,367.6 283.7,375.6 275.7,375.6" fill="rgb(255,255,255)"/>
<polygon points="283.7,367.6 291.7,367.6 291.7,375.6 283.7,375.6" fill="rgb(255,255,255)"/>
<polygon points="127.7,375.6 135.7,375.6 135.7,383.6 127.7,383.6" fill="rgb(255,255,0)"/><text xml:space="preserve" x="131.7" y="382.433" font-family="Calibri" font-size="7.5" fill="rgb(0,0,0)" text-anchor="middle">3</text>
<polygon points="135.7,375.6 143.7,375.6 143.7,383.6 135.7,383.6" fill="rgb(255,255,0)"/><text xml:space="preserve" x="139.7" y="382.433" font-family="Calibri" font-size="7.5" fill="rgb(0,0,0)" text-anchor="middle">3</text>
<polygon points="143.7,375.6 151.7,375.6 151.7,383.6 143.7,383.6" fill="rgb(230,127,0)"/><text xml:space="preserve" x="147.7" y="382.433" font-family="Calibri" font-size="7.5" fill="rgb(0,0,0)" text-anchor="middle">4</text>
<polygon points="151.7,375.6 159.7,375.6 159.7,383.6 151.7,383.6" fill="rgb(205,0,0)"/><text xml:space="preserve" x="155.7" y="382.433" font-family="Calibri" font-size="7.5" fill="rgb(255,255,255)" text-anchor="middle">5</text>
<polygon points="159.7,375.6 167.7,375.6 167.7,383.6 159.7,383.6" fill="rgb(230,127,0)"/><text xml:space="preserve" x="163.7" y="382.433" font-family="Calibri" font-size="7.5" fill="rgb(0,0,0)" text-anchor="middle">4</text>
<polygon points="177.7,375.6 185.7,375.6 185.7,383.6 177.7,383.6" fill="rgb(211,199,29)"/>
<polygon points="185.7,375.6 193.7,375.6 193.7,383.6 185.7,383.6" fill="rgb(46,207,145)"/>
<polygon points="193.7,375.6 201.7,375.6 201.7,383.6 193.7,383.6" fill="rgb(150,206,73)"/>
<polygon points="201.7,375.6 209.7,375.6 209.7,383.6 201.7,383.6" fill="rgb(252,194,1)"/>
<polygon points="209.7,375.6 217.7,375.6 217.7,383.6 209.7,383.6" fill="rgb(162,205,64)"/>
<polygon points="227.7,375.6 235.7,375.6 235.7,383.6 227.7,383.6" fill="rgb(255,255,255)"/>
<polygon points="235.7,375.6 243.7,375.6 243.7,383.6 235.7,383.6" fill="rgb(255,255,255)"/>
<polygon points="243.7,375.6 251.7,375.6 251.7,383.6 243.7,383.6" fill="rgb(255,255,255)"/>
<polygon points="251.7,375.6 259.7,375.6 259.7,383.6 251.7,383.6" fill="rgb(255,255,255)"/>
<polygon points="259.7,375.6 267.7,375.6 267.7,383.6 259.7,383.6" fill="rgb(255,255,255)"/>
<polygon points="267.7,375.6 275.7,375.6 275.7,383.6 267.7,383.6" fill="rgb(255,255,255)"/>
<polygon points="275.7,375.6 283.7,375.6 283.7,383.6 275.7,383.6" fill="rgb(255,255,255)"/>
<polygon points="283.7,375.6 291.7,375.6 291.7,383.6 283.7,383.6" fill="rgb(255,255,255)"/>
<polygon points="127.7,383.6 135.7,383.6 135.7,391.6 127.7,391.6" fill="rgb(255,255,0)"/><text xml:space="preserve" x="131.7" y="390.433" font-family="Calibri" font-size="7.5" fill="rgb(0,0,0)" text-anchor="middle">3</text>
<polygon points="135.7,383.6 143.7,383.6 143.7,391.6 135.7,391.6" fill="rgb(255,255,0)"/><text xml:space="preserve" x="139.7" y="390.433" font-family="Calibri" font-size="7.5" fill="rgb(0,0,0)" text-anchor="middle">3</text>
<polygon points="143.7,383.6 151.7,383.6 151.7,391.6 143.7,391.6" fill="rgb(230,127,0)"/><text xml:space="preserve" x="147.7" y="390.433" font-family="Calibri" font-size="7.5" fill="rgb(0,0,0)" text-anchor="middle">4</text>
<polygon points="151.7,383.6 159.7,383.6 159.7,391.6 151.7,391.6" fill="rgb(205,0,0)"/><text xml:space="preserve" x="155.7" y="390.433" font-family="Calibri" font-size="7.5" fill="rgb(255,255,255)" text-anchor="middle">5</text>
<polygon points="159.7,383.6 167.7,383.6 167.7,391.6 159.7,391.6" fill="rgb(230,127,0)"/><text xml:space="preserve" x="163.7" y="390.433" font-family="Calibri" font-size="7.5" fill="rgb(0,0,0)" text-anchor="middle">4</text>
<polygon points="177.7,383.6 185.7,383.6 185.7,391.6 177.7,391.6" fill="rgb(184,202,49)"/>
<polygon points="185.7,383.6 193.7,383.6 193.7,391.6 185.7,391.6" fill="rgb(48,215,145)"/>
<polygon points="193.7,383.6 201.7,383.6 201.7,391.6 193.7,391.6" fill="rgb(162,205,64)"/>
<polygon points="201.7,383.6 209.7,383.6 209.7,391.6 201.7,391.6" fill="rgb(238,195,10)"/>
<polygon points="209.7,383.6 217.7,383.6 217.7,391.6 209.7,391.6" fill="rgb(118,210,96)"/>
<polygon points="227.7,383.6 235.7,383.6 235.7,391.6 227.7,391.6" fill="rgb(255,255,255)"/>
<polygon points="235.7,383.6 243.7,383.6 243.7,391.6 235.7,391.6" fill="rgb(255,255,255)"/>
<polygon points="243.7,383.6 251.7,383.6 251.7,391.6 243.7,391.6" fill="rgb(255,255,255)"/>
<polygon points="251.7,383.6 259.7,383.6 259.7,391.6 251.7,391.6" fill="rgb(255,255,255)"/>
<polygon points="259.7,383.6 267.7,383.6 267.7,391.6 259.7,391.6" fill="rgb(255,255,255)"/>
<polygon points="267.7,383.6 275.7,383.6 275.7,391.6 267.7,391.6" fill="rgb(255,255,255)"/>
<polygon points="275.7,383.6 283.7,383.6 283.7,391.6 275.7,391.6" fill="rgb(255,255,255)"/>
<polygon points="283.7,383.6 291.7,383.6 291.7,391.6 283.7,391.6" fill="rgb(255,255,255)"/>
<polygon points="127.7,335.6 167.7,335.6 167.7,391.6 127.7,391.6" fill="none" stroke="black" stroke-width="1"/>
<polygon points="177.7,335.6 217.7,335.6 217.7,391.6 177.7,391.6" fill="none" stroke="black" stroke-width="1"/>
<polygon points="227.7,335.6 291.7,335.6 291.7,391.6 227.7,391.6" fill="none" stroke="black" stroke-width="1"/>
<text xml:space="preserve" x="155.85" y="424.6" font-family="Calibri" font-size="8" text-anchor="middle">ClusterAssignment</text>
<polygon points="105.85,431.6 125.85,431.6 125.85,451.6 105.85,451.6" fill="rgb(0,205,0)"/><polygon points="105.85,431.6 125.85,431.6 125.85,451.6 105.85,451.6" fill="none" stroke="black" stroke-width="1"/><text xml:space="preserve" x="115.85" y="444.433" font-family="Calibri" font-size="7.5" fill="rgb(255,255,255)" text-anchor="middle">1.0</text>
<polygon points="125.85,431.6 145.85,431.6 145.85,451.6 125.85,451.6" fill="rgb(127,230,0)"/><polygon points="125.85,431.6 145.85,431.6 145.85,451.6 125.85,451.6" fill="none" stroke="black" stroke-width="1"/><text xml:space="preserve" x="135.85" y="444.433" font-family="Calibri" font-size="7.5" fill="rgb(0,0,0)" text-anchor="middle">2.0</text>
<polygon points="145.85,431.6 165.85,431.6 165.85,451.6 145.85,451.6" fill="rgb(255,255,0)"/><polygon points="145.85,431.6 165.85,431.6 165.85,451.6 145.85,451.6" fill="none" stroke="black" stroke-width="1"/><text xml:space="preserve" x="155.85" y="444.433" font-family="Calibri" font-size="7.5" fill="rgb(0,0,0)" text-anchor="middle">3.0</text>
<polygon points="165.85,431.6 185.85,431.6 185.85,451.6 165.85,451.6" fill="rgb(230,127,0)"/><polygon points="165.85,431.6 185.85,431.6 185.85,451.6 165.85,451.6" fill="none" stroke="black" stroke-width="1"/><text xml:space="preserve" x="175.85" y="444.433" font-family="Calibri" font-size="7.5" fill="rgb(0,0,0)" text-anchor="middle">4.0</text>
<polygon points="185.85,431.6 205.85,431.6 205.85,451.6 185.85,451.6" fill="rgb(205,0,0)"/><polygon points="185.85,431.6 205.85,431.6 205.85,451.6 185.85,451.6" fill="none" stroke="black" stroke-width="1"/><text xml:space="preserve" x="195.85" y="444.433" font-family="Calibri" font-size="7.5" fill="rgb(255,255,255)" text-anchor="middle">5.0</text>
<text xml:space="preserve" x="155.85" y="484.6" font-family="Calibri" font-size="8" text-anchor="middle">Expression</text>
<polygon points="105.85,491.6 125.85,491.6 125.85,511.6 105.85,511.6" fill="rgb(0,27,135)"/><polygon points="105.85,491.6 125.85,491.6 125.85,511.6 105.85,511.6" fill="none" stroke="black" stroke-width="1"/><text xml:space="preserve" x="115.85" y="504.433" font-family="Calibri" font-size="7.5" fill="rgb(255,255,255)" text-anchor="middle">0.0</text>
<polygon points="125.85,491.6 145.85,491.6 145.85,511.6 125.85,511.6" fill="rgb(24,123,140)"/><polygon points="125.85,491.6 145.85,491.6 145.85,511.6 125.85,511.6" fill="none" stroke="black" stroke-width="1"/><text xml:space="preserve" x="135.85" y="504.433" font-family="Calibri" font-size="7.5" fill="rgb(255,255,255)" text-anchor="middle">0.8</text>
<polygon points="145.85,491.6 165.85,491.6 165.85,511.6 145.85,511.6" fill="rgb(49,219,146)"/><polygon points="145.85,491.6 165.85,491.6 165.85,511.6 145.85,511.6" fill="none" stroke="black" stroke-width="1"/><text xml:space="preserve" x="155.85" y="504.433" font-family="Calibri" font-size="7.5" fill="rgb(0,0,0)" text-anchor="middle">1.5</text>
<polygon points="165.85,491.6 185.85,491.6 185.85,511.6 165.85,511.6" fill="rgb(150,206,73)"/><polygon points="165.85,491.6 185.85,491.6 185.85,511.6 165.85,511.6" fill="none" stroke="black" stroke-width="1"/><text xml:space="preserve" x="175.85" y="504.433" font-family="Calibri" font-size="7.5" fill="rgb(0,0,0)" text-anchor="middle">2.2</text>
<polygon points="185.85,491.6 205.85,491.6 205.85,511.6 185.85,511.6" fill="rgb(252,194,1)"/><polygon points="185.85,491.6 205.85,491.6 205.85,511.6 185.85,511.6" fill="none" stroke="black" stroke-width="1"/><text xml:space="preserve" x="195.85" y="504.433" font-family="Calibri" font-size="7.5" fill="rgb(0,0,0)" text-anchor="middle">3.0</text>
<text xml:space="preserve" x="155.85" y="544.6" font-family="Calibri" font-size="8" text-anchor="middle">PANTHERclass</text>
<polygon points="105.85,551.6 125.85,551.6 125.85,571.6 105.85,571.6" fill="rgb(255,255,255)"/><polygon points="105.85,551.6 125.85,551.6 125.85,571.6 105.85,571.6" fill="none" stroke="black" stroke-width="1"/><text xml:space="preserve" x="115.85" y="564.433" font-family="Calibri" font-size="7.5" fill="rgb(0,0,0)" text-anchor="middle">0.0</text>
<polygon points="125.85,551.6 145.85,551.6 145.85,571.6 125.85,571.6" fill="rgb(242,191,242)"/><polygon points="125.85,551.6 145.85,551.6 145.85,571.6 125.85,571.6" fill="none" stroke="black" stroke-width="1"/><text xml:space="preserve" x="135.85" y="564.433" font-family="Calibri" font-size="7.5" fill="rgb(0,0,0)" text-anchor="middle">0.2</text>
<polygon points="145.85,551.6 165.85,551.6 165.85,571.6 145.85,571.6" fill="rgb(230,127,230)"/><polygon points="145.85,551.6 165.85,551.6 165.85,571.6 145.85,571.6" fill="none" stroke="black" stroke-width="1"/><text xml:space="preserve" x="155.85" y="564.433" font-family="Calibri" font-size="7.5" fill="rgb(0,0,0)" text-anchor="middle">0.5</text>
<polygon points="165.85,551.6 185.85,551.6 185.85,571.6 165.85,571.6" fill="rgb(217,63,217)"/><polygon points="165.85,551.6 185.85,551.6 185.85,571.6 165.85,571.6" fill="none" stroke="black" stroke-width="1"/><text xml:space="preserve" x="175.85" y="564.433" font-family="Calibri" font-size="7.5" fill="rgb(255,255,255)" text-anchor="middle">0.8</text>
<polygon points="185.85,551.6 205.85,551.6 205.85,571.6 185.85,571.6" fill="rgb(205,0,205)"/><polygon points="185.85,551.6 205.85,551.6 205.85,571.6 185.85,571.6" fill="none" stroke="black" stroke-width="1"/><text xml:space="preserve" x="195.85" y="564.433" font-family="Calibri" font-size="7.5" fill="rgb(255,255,255)" text-anchor="middle">1.0</text>
</svg>
