<?xml version="1.0" standalone="no"?><!DOCTYPE svg PUBLIC "-//W3C//DTD SVG 1.1//EN" "http://www.w3.org/Graphics/SVG/1.1/DTD/svg11.dtd">
<svg width="285" height="559.6" version="1.1" xmlns="http://www.w3.org/2000/svg">
<text xml:space="preserve" x="97" y="342.6" font-family="Calibri" font-size="8" text-anchor="end">CD2</text>
<text xml:space="preserve" x="97" y="350.6" font-family="Calibri" font-size="8" text-anchor="end">LRRC46</text>
<text xml:space="preserve" x="97" y="358.6" font-family="Calibri" font-size="8" text-anchor="end">LRRC10B</text>
<text xml:space="preserve" x="108" y="331.6" font-family="Calibri" font-size="8" transform="rotate(270 108 331.6)">c2</text>
<text xml:space="preserve" x="116" y="331.6" font-family="Calibri" font-size="8" transform="rotate(270 116 331.6)">c4</text>
<text xml:space="preserve" x="124" y="331.6" font-family="Calibri" font-size="8" transform="rotate(270 124 331.6)">c3</text>
<text xml:space="preserve" x="132" y="331.6" font-family="Calibri" font-size="8" transform="rotate(270 132 331.6)">c1</text>
<text xml:space="preserve" x="140" y="331.6" font-family="Calibri" font-size="8" transform="rotate(270 140 331.6)">c5</text>
<text xml:space="preserve" x="158" y="331.6" font-family="Calibri" font-size="8" transform="rotate(270 158 331.6)">c2_mean</text>
<text xml:space="preserve" x="166" y="331.6" font-family="Calibri" font-size="8" transform="rotate(270 166 331.6)">c4_mean</text>
<text xml:space="preserve" x="174" y="331.6" font-family="Calibri" font-size="8" transform="rotate(270 174 331.6)">c3_mean</text>
<text xml:space="preserve" x="182" y="331.6" font-family="Calibri" font-size="8" transform="rotate(270 182 331.6)">c1_mean</text>
<text xml:space="preserve" x="190" y="331.6" font-family="Calibri" font-size="8" transform="rotate(270 190 331.6)">c5_mean</text>
<text xml:space="preserve" x="208" y="331.6" font-family="Calibri" font-size="8" transform="rotate(270 208 331.6)">transcription_factor</text>
<text xml:space="preserve" x="216" y="331.6" font-family="Calibri" font-size="8" transform="rotate(270 216 331.6)">transmembrane_signal_receptor</text>
<text xml:space="preserve" x="224" y="331.6" font-family="Calibri" font-size="8" transform="rotate(270 224 331.6)">growth_factor</text>
<text xml:space="preserve" x="232" y="331.6" font-family="Calibri" font-size="8" transform="rotate(270 232 331.6)">peptide_hormone</text>
<text xml:space="preserve" x="240" y="331.6" font-family="Calibri" font-size="8" transform="rotate(270 240 331.6)">cytoskeletal_protein</text>
<text xml:space="preserve" x="248" y="331.6" font-family="Calibri" font-size="8" transform="rotate(270 248 331.6)">ion_channel</text>
<text xml:space="preserve" x="256" y="331.6" font-family="Calibri" font-size="8" transform="rotate(270 256 331.6)">integrin</text>
<text xml:space="preserve" x="264" y="331.6" font-family="Calibri" font-size="8" transform="rotate(270 264 331.6)">extracellular_matrix_protein</text>
<polygon points="101,335.6 109,335.6 109,343.6 101,343.6" fill="rgb(230,127,0)"/><text xml:space="preserve" x="105" y="342.433" font-family="Calibri" font-size="7.5" fill="rgb(0,0,0)" text-anchor="middle">4</text>
<polygon points="109,335.6 117,335.6 117,343.6 109,343.6" fill="rgb(255,255,0)"/><text xml:space="preserve" x="113" y="342.433" font-family="Calibri" font-size="7.5" fill="rgb(0,0,0)" text-anchor="middle">3</text>
<polygon points="117,335.6 125,335.6 125,343.6 117,343.6" fill="rgb(127,230,0)"/><text xml:space="preserve" x="121" y="342.433" font-family="Calibri" font-size="7.5" fill="rgb(0,0,0)" text-anchor="middle">2</text>
<polygon points="125,335.6 133,335.6 133,343.6 125,343.6" fill="rgb(230,127,0)"/><text xml:space="preserve" x="129" y="342.433" font-family="Calibri" font-size="7.5" fill="rgb(0,0,0)" text-anchor="middle">4</text>
<polygon points="133,335.6 141,335.6 141,343.6 133,343.6" fill="rgb(230,127,0)"/><text xml:space="preserve" x="137" y="342.433" font-family="Calibri" font-size="7.5" fill="rgb(0,0,0)" text-anchor="middle">4</text>
<polygon points="151,335.6 159,335.6 159,343.6 151,343.6" fill="rgb(252,194,1)"/>
<polygon points="159,335.6 167,335.6 167,343.6 159,343.6" fill="rgb(42,192,144)"/>
<polygon points="167,335.6 175,335.6 175,343.6 167,343.6" fill="rgb(13,78,137)"/>
<polygon points="175,335.6 183,335.6 183,343.6 175,343.6" fill="rgb(36,169,143)"/>
<polygon points="183,335.6 191,335.6 191,343.6 183,343.6" fill="rgb(90,213,116)"/>
<polygon points="201,335.6 209,335.6 209,343.6 201,343.6" fill="rgb(255,255,255)"/>
<polygon points="209,335.6 217,335.6 217,343.6 209,343.6" fill="rgb(255,255,255)"/>
<polygon points="217,335.6 225,335.6 225,343.6 217,343.6" fill="rgb(255,255,255)"/>
<polygon points="225,335.6 233,335.6 233,343.6 225,343.6" fill="rgb(255,255,255)"/>
<polygon points="233,335.6 241,335.6 241,343.6 233,343.6" fill="rgb(255,255,255)"/>
<polygon points="241,335.6 249,335.6 249,343.6 241,343.6" fill="rgb(255,255,255)"/>
<polygon points="249,335.6 257,335.6 257,343.6 249,343.6" fill="rgb(255,255,255)"/>
<polygon points="257,335.6 265,335.6 265,343.6 257,343.6" fill="rgb(255,255,255)"/>
<polygon points="101,343.6 109,343.6 109,351.6 101,351.6" fill="rgb(230,127,0)"/><text xml:space="preserve" x="105" y="350.433" font-family="Calibri" font-size="7.5" fill="rgb(0,0,0)" text-anchor="middle">4</text>
<polygon points="109,343.6 117,343.6 117,351.6 109,351.6" fill="rgb(255,255,0)"/><text xml:space="preserve" x="113" y="350.433" font-family="Calibri" font-size="7.5" fill="rgb(0,0,0)" text-anchor="middle">3</text>
<polygon points="117,343.6 125,343.6 125,351.6 117,351.6" fill="rgb(127,230,0)"/><text xml:space="preserve" x="121" y="350.433" font-family="Calibri" font-size="7.5" fill="rgb(0,0,0)" text-anchor="middle">2</text>
<polygon points="125,343.6 133,343.6 133,351.6 125,351.6" fill="rgb(230,127,0)"/><text xml:space="preserve" x="129" y="350.433" font-family="Calibri" font-size="7.5" fill="rgb(0,0,0)" text-anchor="middle">4</text>
<polygon points="133,343.6 141,343.6 141,351.6 133,351.6" fill="rgb(230,127,0)"/><text xml:space="preserve" x="137" y="350.433" font-family="Calibri" font-size="7.5" fill="rgb(0,0,0)" text-anchor="middle">4</text>
<polygon points="151,343.6 159,343.6 159,351.6 151,351.6" fill="rgb(252,194,1)"/>
<polygon points="159,343.6 167,343.6 167,351.6 159,351.6" fill="rgb(61,217,137)"/>
<polygon points="167,343.6 175,343.6 175,351.6 167,351.6" fill="rgb(23,117,140)"/>
<polygon points="175,343.6 183,343.6 183,351.6 175,351.6" fill="rgb(37,172,143)"/>
<polygon points="183,343.6 191,343.6 191,351.6 183,351.6" fill="rgb(138,208,82)"/>
<polygon points="201,343.6 209,343.6 209,351.6 201,351.6" fill="rgb(255,255,255)"/>
<polygon points="209,343.6 217,343.6 217,351.6 209,351.6" fill="rgb(255,255,255)"/>
<polygon points="217,343.6 225,343.6 225,351.6 217,351.6" fill="rgb(255,255,255)"/>
<polygon points="225,343.6 233,343.6 233,351.6 225,351.6" fill="rgb(255,255,255)"/>
<polygon points="233,343.6 241,343.6 241,351.6 233,351.6" fill="rgb(255,255,255)"/>
<polygon points="241,343.6 249,343.6 249,351.6 241,351.6" fill="rgb(255,255,255)"/>
<polygon points="249,343.6 257,343.6 257,351.6 249,351.6" fill="rgb(255,255,255)"/>
<polygon points="257,343.6 265,343.6 265,351.6 257,351.6" fill="rgb(255,255,255)"/>
<polygon points="101,351.6 109,351.6 109,359.6 101,359.6" fill="rgb(230,127,0)"/><text xml:space="preserve" x="105" y="358.433" font-family="Calibri" font-size="7.5" fill="rgb(0,0,0)" text-anchor="middle">4</text>
<polygon points="109,351.6 117,351.6 117,359.6 109,359.6" fill="rgb(255,255,0)"/><text xml:space="preserve" x="113" y="358.433" font-family="Calibri" font-size="7.5" fill="rgb(0,0,0)" text-anchor="middle">3</text>
<polygon points="117,351.6 125,351.6 125,359.6 117,359.6" fill="rgb(127,230,0)"/><text xml:space="preserve" x="121" y="358.433" font-family="Calibri" font-size="7.5" fill="rgb(0,0,0)" text-anchor="middle">2</text>
<polygon points="125,351.6 133,351.6 133,359.6 125,359.6" fill="rgb(230,127,0)"/><text xml:space="preserve" x="129" y="358.433" font-family="Calibri" font-size="7.5" fill="rgb(0,0,0)" text-anchor="middle">4</text>
<polygon points="133,351.6 141,351.6 141,359.6 133,359.6" fill="rgb(230,127,0)"/><text xml:space="preserve" x="137" y="358.433" font-family="Calibri" font-size="7.5" fill="rgb(0,0,0)" text-anchor="middle">4</text>
<polygon points="151,351.6 159,351.6 159,359.6 151,359.6" fill="rgb(252,194,1)"/>
<polygon points="159,351.6 167,351.6 167,359.6 159,359.6" fill="rgb(61,217,137)"/>
<polygon points="167,351.6 175,351.6 175,359.6 167,359.6" fill="rgb(24,121,140)"/>
<polygon points="175,351.6 183,351.6 183,359.6 175,359.6" fill="rgb(165,204,62)"/>
<polygon points="183,351.6 191,351.6 191,359.6 183,359.6" fill="rgb(128,209,88)"/>
<polygon points="201,351.6 209,351.6 209,359.6 201,359.6" fill="rgb(255,255,255)"/>
<polygon points="209,351.6 217,351.6 217,359.6 209,359.6" fill="rgb(255,255,255)"/>
<polygon points="217,351.6 225,351.6 225,359.6 217,359.6" fill="rgb(255,255,255)"/>
<polygon points="225,351.6 233,351.6 233,359.6 225,359.6" fill="rgb(255,255,255)"/>
<polygon points="233,351.6 241,351.6 241,359.6 233,359.6" fill="rgb(255,255,255)"/>
<polygon points="241,351.6 249,351.6 249,359.6 241,359.6" fill="rgb(255,255,255)"/>
<polygon points="249,351.6 257,351.6 257,359.6 249,359.6" fill="rgb(255,255,255)"/>
<polygon points="257,351.6 265,351.6 265,359.6 257,359.6" fill="rgb(255,255,255)"/>
<polygon points="101,335.6 141,335.6 141,359.6 101,359.6" fill="none" stroke="black" stroke-width="1"/>
<polygon points="151,335.6 191,335.6 191,359.6 151,359.6" fill="none" stroke="black" stroke-width="1"/>
<polygon points="201,335.6 265,335.6 265,359.6 201,359.6" fill="none" stroke="black" stroke-width="1"/>
<text xml:space="preserve" x="142.5" y="392.6" font-family="Calibri" font-size="8" text-anchor="middle">ClusterAssignment</text>
<polygon points="92.5,399.6 112.5,399.6 112.5,419.6 92.5,419.6" fill="rgb(0,205,0)"/><polygon points="92.5,399.6 112.5,399.6 112.5,419.6 92.5,419.6" fill="none" stroke="black" stroke-width="1"/><text xml:space="preserve" x="102.5" y="412.433" font-family="Calibri" font-size="7.5" fill="rgb(255,255,255)" text-anchor="middle">1.0</text>
<polygon points="112.5,399.6 132.5,399.6 132.5,419.6 112.5,419.6" fill="rgb(127,230,0)"/><polygon points="112.5,399.6 132.5,399.6 132.5,419.6 112.5,419.6" fill="none" stroke="black" stroke-width="1"/><text xml:space="preserve" x="122.5" y="412.433" font-family="Calibri" font-size="7.5" fill="rgb(0,0,0)" text-anchor="middle">2.0</text>
<polygon points="132.5,399.6 152.5,399.6 152.5,419.6 132.5,419.6" fill="rgb(255,255,0)"/><polygon points="132.5,399.6 152.5,399.6 152.5,419.6 132.5,419.6" fill="none" stroke="black" stroke-width="1"/><text xml:space="preserve" x="142.5" y="412.433" font-family="Calibri" font-size="7.5" fill="rgb(0,0,0)" text-anchor="middle">3.0</text>
<polygon points="152.5,399.6 172.5,399.6 172.5,419.6 152.5,419.6" fill="rgb(230,127,0)"/><polygon points="152.5,399.6 172.5,399.6 172.5,419.6 152.5,419.6" fill="none" stroke="black" stroke-width="1"/><text xml:space="preserve" x="162.5" y="412.433" font-family="Calibri" font-size="7.5" fill="rgb(0,0,0)" text-anchor="middle">4.0</text>
<polygon points="172.5,399.6 192.5,399.6 192.5,419.6 172.5,419.6" fill="rgb(205,0,0)"/><polygon points="172.5,399.6 192.5,399.6 192.5,419.6 172.5,419.6" fill="none" stroke="black" stroke-width="1"/><text xml:space="preserve" x="182.5" y="412.433" font-family="Calibri" font-size="7.5" fill="rgb(255,255,255)" text-anchor="middle">5.0</text>
<text xml:space="preserve" x="142.5" y="452.6" font-family="Calibri" font-size="8" text-anchor="middle">Expression</text>
<polygon points="92.5,459.6 112.5,459.6 112.5,479.6 92.5,479.6" fill="rgb(0,27,135)"/><polygon points="92.5,459.6 112.5,459.6 112.5,479.6 92.5,479.6" fill="none" stroke="black" stroke-width="1"/><text xml:space="preserve" x="102.5" y="472.433" font-family="Calibri" font-size="7.5" fill="rgb(255,255,255)" text-anchor="middle">0.0</text>
<polygon points="112.5,459.6 132.5,459.6 132.5,479.6 112.5,479.6" fill="rgb(24,123,140)"/><polygon points="112.5,459.6 132.5,459.6 132.5,479.6 112.5,479.6" fill="none" stroke="black" stroke-width="1"/><text xml:space="preserve" x="122.5" y="472.433" font-family="Calibri" font-size="7.5" fill="rgb(255,255,255)" text-anchor="middle">0.8</text>
<polygon points="132.5,459.6 152.5,459.6 152.5,479.6 132.5,479.6" fill="rgb(49,219,146)"/><polygon points="132.5,459.6 152.5,459.6 152.5,479.6 132.5,479.6" fill="none" stroke="black" stroke-width="1"/><text xml:space="preserve" x="142.5" y="472.433" font-family="Calibri" font-size="7.5" fill="rgb(0,0,0)" text-anchor="middle">1.5</text>
<polygon points="152.5,459.6 172.5,459.6 172.5,479.6 152.5,479.6" fill="rgb(150,206,73)"/><polygon points="152.5,459.6 172.5,459.6 172.5,479.6 152.5,479.6" fill="none" stroke="black" stroke-width="1"/><text xml:space="preserve" x="162.5" y="472.433" font-family="Calibri" font-size="7.5" fill="rgb(0,0,0)" text-anchor="middle">2.2</text>
<polygon points="172.5,459.6 192.5,459.6 192.5,479.6 172.5,479.6" fill="rgb(252,194,1)"/><polygon points="172.5,459.6 192.5,459.6 192.5,479.6 172.5,479.6" fill="none" stroke="black" stroke-width="1"/><text xml:space="preserve" x="182.5" y="472.433" font-family="Calibri" font-size="7.5" fill="rgb(0,0,0)" text-anchor="middle">3.0</text>
<text xml:space="preserve" x="142.5" y="512.6" font-family="Calibri" font-size="8" text-anchor="middle">PANTHERclass</text>
<polygon points="92.5,519.6 112.5,519.6 112.5,539.6 92.5,539.6" fill="rgb(255,255,255)"/><polygon points="92.5,519.6 112.5,519.6 112.5,539.6 92.5,539.6" fill="none" stroke="black" stroke-width="1"/><text xml:space="preserve" x="102.5" y="532.433" font-family="Calibri" font-size="7.5" fill="rgb(0,0,0)" text-anchor="middle">0.0</text>
<polygon points="112.5,519.6 132.5,519.6 132.5,539.6 112.5,539.6" fill="rgb(242,191,242)"/><polygon points="112.5,519.6 132.5,519.6 132.5,539.6 112.5,539.6" fill="none" stroke="black" stroke-width="1"/><text xml:space="preserve" x="122.5" y="532.433" font-family="Calibri" font-size="7.5" fill="rgb(0,0,0)" text-anchor="middle">0.2</text>
<polygon points="132.5,519.6 152.5,519.6 152.5,539.6 132.5,539.6" fill="rgb(230,127,230)"/><polygon points="132.5,519.6 152.5,519.6 152.5,539.6 132.5,539.6" fill="none" stroke="black" stroke-width="1"/><text xml:space="preserve" x="142.5" y="532.433" font-family="Calibri" font-size="7.5" fill="rgb(0,0,0)" text-anchor="middle">0.5</text>
<polygon points="152.5,519.6 172.5,519.6 172.5,539.6 152.5,539.6" fill="rgb(217,63,217)"/><polygon points="152.5,519.6 172.5,519.6 172.5,539.6 152.5,539.6" fill="none" stroke="black" stroke-width="1"/><text xml:space="preserve" x="162.5" y="532.433" font-family="Calibri" font-size="7.5" fill="rgb(255,255,255)" text-anchor="middle">0.8</text>
<polygon points="172.5,519.6 192.5,519.6 192.5,539.6 172.5,539.6" fill="rgb(205,0,205)"/><polygon points="172.5,519.6 192.5,519.6 192.5,539.6 172.5,539.6" fill="none" stroke="black" stroke-width="1"/><text xml:space="preserve" x="182.5" y="532.433" font-family="Calibri" font-size="7.5" fill="rgb(255,255,255)" text-anchor="middle">1.0</text>
</svg>
