<?xml version="1.0" standalone="no"?><!DOCTYPE svg PUBLIC "-//W3C//DTD SVG 1.1//EN" "http://www.w3.org/Graphics/SVG/1.1/DTD/svg11.dtd">
<svg width="292.8" height="575.6" version="1.1" xmlns="http://www.w3.org/2000/svg">
<text xml:space="preserve" x="104.8" y="342.6" font-family="Calibri" font-size="8" text-anchor="end">AGT</text>
<text xml:space="preserve" x="104.8" y="350.6" font-family="Calibri" font-size="8" text-anchor="end">C22orf15</text>
<text xml:space="preserve" x="104.8" y="358.6" font-family="Calibri" font-size="8" text-anchor="end">SELENBP1</text>
<text xml:space="preserve" x="104.8" y="366.6" font-family="Calibri" font-size="8" text-anchor="end">SPON1</text>
<text xml:space="preserve" x="104.8" y="374.6" font-family="Calibri" font-size="8" text-anchor="end">FAM92B</text>
<text xml:space="preserve" x="115.8" y="331.6" font-family="Calibri" font-size="8" transform="rotate(270 115.8 331.6)">c2</text>
<text xml:space="preserve" x="123.8" y="331.6" font-family="Calibri" font-size="8" transform="rotate(270 123.8 331.6)">c4</text>
<text xml:space="preserve" x="131.8" y="331.6" font-family="Calibri" font-size="8" transform="rotate(270 131.8 331.6)">c3</text>
<text xml:space="preserve" x="139.8" y="331.6" font-family="Calibri" font-size="8" transform="rotate(270 139.8 331.6)">c1</text>
<text xml:space="preserve" x="147.8" y="331.6" font-family="Calibri" font-size="8" transform="rotate(270 147.8 331.6)">c5</text>
<text xml:space="preserve" x="165.8" y="331.6" font-family="Calibri" font-size="8" transform="rotate(270 165.8 331.6)">c2_mean</text>
<text xml:space="preserve" x="173.8" y="331.6" font-family="Calibri" font-size="8" transform="rotate(270 173.8 331.6)">c4_mean</text>
<text xml:space="preserve" x="181.8" y="331.6" font-family="Calibri" font-size="8" transform="rotate(270 181.8 331.6)">c3_mean</text>
<text xml:space="preserve" x="189.8" y="331.6" font-family="Calibri" font-size="8" transform="rotate(270 189.8 331.6)">c1_mean</text>
<text xml:space="preserve" x="197.8" y="331.6" font-family="Calibri" font-size="8" transform="rotate(270 197.8 331.6)">c5_mean</text>
<text xml:space="preserve" x="215.8" y="331.6" font-family="Calibri" font-size="8" transform="rotate(270 215.8 331.6)">transcription_factor</text>
<text xml:space="preserve" x="223.8" y="331.6" font-family="Calibri" font-size="8" transform="rotate(270 223.8 331.6)">transmembrane_signal_receptor</text>
<text xml:space="preserve" x="231.8" y="331.6" font-family="Calibri" font-size="8" transform="rotate(270 231.8 331.6)">growth_factor</text>
<text xml:space="preserve" x="239.8" y="331.6" font-family="Calibri" font-size="8" transform="rotate(270 239.8 331.6)">peptide_hormone</text>
<text xml:space="preserve" x="247.8" y="331.6" font-family="Calibri" font-size="8" transform="rotate(270 247.8 331.6)">cytoskeletal_protein</text>
<text xml:space="preserve" x="255.8" y="331.6" font-family="Calibri" font-size="8" transform="rotate(270 255.8 331.6)">ion_channel</text>
<text xml:space="preserve" x="263.8" y="331.6" font-family="Calibri" font-size="8" transform="rotate(270 263.8 331.6)">integrin</text>
<text xml:space="preserve" x="271.8" y="331.6" font-family="Calibri" font-size="8" transform="rotate(270 271.8 331.6)">extracellular_matrix_protein</text>
<polygon points="108.8,335.6 116.8,335.6 116.8,343.6 108.8,343.6" fill="rgb(230,127,0)"/><text xml:space="preserve" x="112.8" y="342.433" font-family="Calibri" font-size="7.5" fill="rgb(0,0,0)" text-anchor="middle">4</text>
<polygon points="116.8,335.6 124.8,335.6 124.8,343.6 116.8,343.6" fill="rgb(230,127,0)"/><text xml:space="preserve" x="120.8" y="342.433" font-family="Calibri" font-size="7.5" fill="rgb(0,0,0)" text-anchor="middle">4</text>
<polygon points="124.8,335.6 132.8,335.6 132.8,343.6 124.8,343.6" fill="rgb(255,255,0)"/><text xml:space="preserve" x="128.8" y="342.433" font-family="Calibri" font-size="7.5" fill="rgb(0,0,0)" text-anchor="middle">3</text>
<polygon points="132.8,335.6 140.8,335.6 140.8,343.6 132.8,343.6" fill="rgb(205,0,0)"/><text xml:space="preserve" x="136.8" y="342.433" font-family="Calibri" font-size="7.5" fill="rgb(255,255,255)" text-anchor="middle">5</text>
<polygon points="140.8,335.6 148.8,335.6 148.8,343.6 140.8,343.6" fill="rgb(205,0,0)"/><text xml:space="preserve" x="144.8" y="342.433" font-family="Calibri" font-size="7.5" fill="rgb(255,255,255)" text-anchor="middle">5</text>
<polygon points="158.8,335.6 166.8,335.6 166.8,343.6 158.8,343.6" fill="rgb(252,194,1)"/>
<polygon points="166.8,335.6 174.8,335.6 174.8,343.6 166.8,343.6" fill="rgb(123,209,92)"/>
<polygon points="174.8,335.6 182.8,335.6 182.8,343.6 174.8,343.6" fill="rgb(47,212,145)"/>
<polygon points="182.8,335.6 190.8,335.6 190.8,343.6 182.8,343.6" fill="rgb(252,194,1)"/>
<polygon points="190.8,335.6 198.8,335.6 198.8,343.6 190.8,343.6" fill="rgb(252,194,1)"/>
<polygon points="208.8,335.6 216.8,335.6 216.8,343.6 208.8,343.6" fill="rgb(255,255,255)"/>
<polygon points="216.8,335.6 224.8,335.6 224.8,343.6 216.8,343.6" fill="rgb(255,255,255)"/>
<polygon points="224.8,335.6 232.8,335.6 232.8,343.6 224.8,343.6" fill="rgb(205,0,205)"/>
<polygon points="232.8,335.6 240.8,335.6 240.8,343.6 232.8,343.6" fill="rgb(255,255,255)"/>
<polygon points="240.8,335.6 248.8,335.6 248.8,343.6 240.8,343.6" fill="rgb(255,255,255)"/>
<polygon points="248.8,335.6 256.8,335.6 256.8,343.6 248.8,343.6" fill="rgb(255,255,255)"/>
<polygon points="256.8,335.6 264.8,335.6 264.8,343.6 256.8,343.6" fill="rgb(255,255,255)"/>
<polygon points="264.8,335.6 272.8,335.6 272.8,343.6 264.8,343.6" fill="rgb(255,255,255)"/>
<polygon points="108.8,343.6 116.8,343.6 116.8,351.6 108.8,351.6" fill="rgb(230,127,0)"/><text xml:space="preserve" x="112.8" y="350.433" font-family="Calibri" font-size="7.5" fill="rgb(0,0,0)" text-anchor="middle">4</text>
<polygon points="116.8,343.6 124.8,343.6 124.8,351.6 116.8,351.6" fill="rgb(230,127,0)"/><text xml:space="preserve" x="120.8" y="350.433" font-family="Calibri" font-size="7.5" fill="rgb(0,0,0)" text-anchor="middle">4</text>
<polygon points="124.8,343.6 132.8,343.6 132.8,351.6 124.8,351.6" fill="rgb(255,255,0)"/><text xml:space="preserve" x="128.8" y="350.433" font-family="Calibri" font-size="7.5" fill="rgb(0,0,0)" text-anchor="middle">3</text>
<polygon points="132.8,343.6 140.8,343.6 140.8,351.6 132.8,351.6" fill="rgb(205,0,0)"/><text xml:space="preserve" x="136.8" y="350.433" font-family="Calibri" font-size="7.5" fill="rgb(255,255,255)" text-anchor="middle">5</text>
<polygon points="140.8,343.6 148.8,343.6 148.8,351.6 140.8,351.6" fill="rgb(205,0,0)"/><text xml:space="preserve" x="144.8" y="350.433" font-family="Calibri" font-size="7.5" fill="rgb(255,255,255)" text-anchor="middle">5</text>
<polygon points="158.8,343.6 166.8,343.6 166.8,351.6 158.8,351.6" fill="rgb(252,194,1)"/>
<polygon points="166.8,343.6 174.8,343.6 174.8,351.6 166.8,351.6" fill="rgb(235,196,12)"/>
<polygon points="174.8,343.6 182.8,343.6 182.8,351.6 174.8,351.6" fill="rgb(27,134,141)"/>
<polygon points="182.8,343.6 190.8,343.6 190.8,351.6 182.8,351.6" fill="rgb(252,194,1)"/>
<polygon points="190.8,343.6 198.8,343.6 198.8,351.6 190.8,351.6" fill="rgb(252,194,1)"/>
<polygon points="208.8,343.6 216.8,343.6 216.8,351.6 208.8,351.6" fill="rgb(255,255,255)"/>
<polygon points="216.8,343.6 224.8,343.6 224.8,351.6 216.8,351.6" fill="rgb(255,255,255)"/>
<polygon points="224.8,343.6 232.8,343.6 232.8,351.6 224.8,351.6" fill="rgb(255,255,255)"/>
<polygon points="232.8,343.6 240.8,343.6 240.8,351.6 232.8,351.6" fill="rgb(255,255,255)"/>
<polygon points="240.8,343.6 248.8,343.6 248.8,351.6 240.8,351.6" fill="rgb(255,255,255)"/>
<polygon points="248.8,343.6 256.8,343.6 256.8,351.6 248.8,351.6" fill="rgb(255,255,255)"/>
<polygon points="256.8,343.6 264.8,343.6 264.8,351.6 256.8,351.6" fill="rgb(255,255,255)"/>
<polygon points="264.8,343.6 272.8,343.6 272.8,351.6 264.8,351.6" fill="rgb(255,255,255)"/>
<polygon points="108.8,351.6 116.8,351.6 116.8,359.6 108.8,359.6" fill="rgb(230,127,0)"/><text xml:space="preserve" x="112.8" y="358.433" font-family="Calibri" font-size="7.5" fill="rgb(0,0,0)" text-anchor="middle">4</text>
<polygon points="116.8,351.6 124.8,351.6 124.8,359.6 116.8,359.6" fill="rgb(230,127,0)"/><text xml:space="preserve" x="120.8" y="358.433" font-family="Calibri" font-size="7.5" fill="rgb(0,0,0)" text-anchor="middle">4</text>
<polygon points="124.8,351.6 132.8,351.6 132.8,359.6 124.8,359.6" fill="rgb(255,255,0)"/><text xml:space="preserve" x="128.8" y="358.433" font-family="Calibri" font-size="7.5" fill="rgb(0,0,0)" text-anchor="middle">3</text>
<polygon points="132.8,351.6 140.8,351.6 140.8,359.6 132.8,359.6" fill="rgb(205,0,0)"/><text xml:space="preserve" x="136.8" y="358.433" font-family="Calibri" font-size="7.5" fill="rgb(255,255,255)" text-anchor="middle">5</text>
<polygon points="140.8,351.6 148.8,351.6 148.8,359.6 140.8,359.6" fill="rgb(205,0,0)"/><text xml:space="preserve" x="144.8" y="358.433" font-family="Calibri" font-size="7.5" fill="rgb(255,255,255)" text-anchor="middle">5</text>
<polygon points="158.8,351.6 166.8,351.6 166.8,359.6 158.8,359.6" fill="rgb(252,194,1)"/>
<polygon points="166.8,351.6 174.8,351.6 174.8,359.6 166.8,359.6" fill="rgb(166,204,61)"/>
<polygon points="174.8,351.6 182.8,351.6 182.8,359.6 174.8,359.6" fill="rgb(43,198,144)"/>
<polygon points="182.8,351.6 190.8,351.6 190.8,359.6 182.8,359.6" fill="rgb(252,194,1)"/>
<polygon points="190.8,351.6 198.8,351.6 198.8,359.6 190.8,359.6" fill="rgb(252,194,1)"/>
<polygon points="208.8,351.6 216.8,351.6 216.8,359.6 208.8,359.6" fill="rgb(255,255,255)"/>
<polygon points="216.8,351.6 224.8,351.6 224.8,359.6 216.8,359.6" fill="rgb(255,255,255)"/>
<polygon points="224.8,351.6 232.8,351.6 232.8,359.6 224.8,359.6" fill="rgb(255,255,255)"/>
<polygon points="232.8,351.6 240.8,351.6 240.8,359.6 232.8,359.6" fill="rgb(255,255,255)"/>
<polygon points="240.8,351.6 248.8,351.6 248.8,359.6 240.8,359.6" fill="rgb(255,255,255)"/>
<polygon points="248.8,351.6 256.8,351.6 256.8,359.6 248.8,359.6" fill="rgb(255,255,255)"/>
<polygon points="256.8,351.6 264.8,351.6 264.8,359.6 256.8,359.6" fill="rgb(255,255,255)"/>
<polygon points="264.8,351.6 272.8,351.6 272.8,359.6 264.8,359.6" fill="rgb(255,255,255)"/>
<polygon points="108.8,359.6 116.8,359.6 116.8,367.6 108.8,367.6" fill="rgb(230,127,0)"/><text xml:space="preserve" x="112.8" y="366.433" font-family="Calibri" font-size="7.5" fill="rgb(0,0,0)" text-anchor="middle">4</text>
<polygon points="116.8,359.6 124.8,359.6 124.8,367.6 116.8,367.6" fill="rgb(230,127,0)"/><text xml:space="preserve" x="120.8" y="366.433" font-family="Calibri" font-size="7.5" fill="rgb(0,0,0)" text-anchor="middle">4</text>
<polygon points="124.8,359.6 132.8,359.6 132.8,367.6 124.8,367.6" fill="rgb(255,255,0)"/><text xml:space="preserve" x="128.8" y="366.433" font-family="Calibri" font-size="7.5" fill="rgb(0,0,0)" text-anchor="middle">3</text>
<polygon points="132.8,359.6 140.8,359.6 140.8,367.6 132.8,367.6" fill="rgb(205,0,0)"/><text xml:space="preserve" x="136.8" y="366.433" font-family="Calibri" font-size="7.5" fill="rgb(255,255,255)" text-anchor="middle">5</text>
<polygon points="140.8,359.6 148.8,359.6 148.8,367.6 140.8,367.6" fill="rgb(205,0,0)"/><text xml:space="preserve" x="144.8" y="366.433" font-family="Calibri" font-size="7.5" fill="rgb(255,255,255)" text-anchor="middle">5</text>
<polygon points="158.8,359.6 166.8,359.6 166.8,367.6 158.8,367.6" fill="rgb(252,194,1)"/>
<polygon points="166.8,359.6 174.8,359.6 174.8,367.6 166.8,367.6" fill="rgb(222,197,22)"/>
<polygon points="174.8,359.6 182.8,359.6 182.8,367.6 174.8,367.6" fill="rgb(103,212,107)"/>
<polygon points="182.8,359.6 190.8,359.6 190.8,367.6 182.8,367.6" fill="rgb(155,205,69)"/>
<polygon points="190.8,359.6 198.8,359.6 198.8,367.6 190.8,367.6" fill="rgb(231,196,15)"/>
<polygon points="208.8,359.6 216.8,359.6 216.8,367.6 208.8,367.6" fill="rgb(255,255,255)"/>
<polygon points="216.8,359.6 224.8,359.6 224.8,367.6 216.8,367.6" fill="rgb(255,255,255)"/>
<polygon points="224.8,359.6 232.8,359.6 232.8,367.6 224.8,367.6" fill="rgb(255,255,255)"/>
<polygon points="232.8,359.6 240.8,359.6 240.8,367.6 232.8,367.6" fill="rgb(255,255,255)"/>
<polygon points="240.8,359.6 248.8,359.6 248.8,367.6 240.8,367.6" fill="rgb(255,255,255)"/>
<polygon points="248.8,359.6 256.8,359.6 256.8,367.6 248.8,367.6" fill="rgb(255,255,255)"/>
<polygon points="256.8,359.6 264.8,359.6 264.8,367.6 256.8,367.6" fill="rgb(255,255,255)"/>
<polygon points="264.8,359.6 272.8,359.6 272.8,367.6 264.8,367.6" fill="rgb(205,0,205)"/>
<polygon points="108.8,367.6 116.8,367.6 116.8,375.6 108.8,375.6" fill="rgb(230,127,0)"/><text xml:space="preserve" x="112.8" y="374.433" font-family="Calibri" font-size="7.5" fill="rgb(0,0,0)" text-anchor="middle">4</text>
<polygon points="116.8,367.6 124.8,367.6 124.8,375.6 116.8,375.6" fill="rgb(230,127,0)"/><text xml:space="preserve" x="120.8" y="374.433" font-family="Calibri" font-size="7.5" fill="rgb(0,0,0)" text-anchor="middle">4</text>
<polygon points="124.8,367.6 132.8,367.6 132.8,375.6 124.8,375.6" fill="rgb(255,255,0)"/><text xml:space="preserve" x="128.8" y="374.433" font-family="Calibri" font-size="7.5" fill="rgb(0,0,0)" text-anchor="middle">3</text>
<polygon points="132.8,367.6 140.8,367.6 140.8,375.6 132.8,375.6" fill="rgb(205,0,0)"/><text xml:space="preserve" x="136.8" y="374.433" font-family="Calibri" font-size="7.5" fill="rgb(255,255,255)" text-anchor="middle">5</text>
<polygon points="140.8,367.6 148.8,367.6 148.8,375.6 140.8,375.6" fill="rgb(205,0,0)"/><text xml:space="preserve" x="144.8" y="374.433" font-family="Calibri" font-size="7.5" fill="rgb(255,255,255)" text-anchor="middle">5</text>
<polygon points="158.8,367.6 166.8,367.6 166.8,375.6 158.8,375.6" fill="rgb(252,194,1)"/>
<polygon points="166.8,367.6 174.8,367.6 174.8,375.6 166.8,375.6" fill="rgb(252,194,1)"/>
<polygon points="174.8,367.6 182.8,367.6 182.8,375.6 174.8,375.6" fill="rgb(88,214,117)"/>
<polygon points="182.8,367.6 190.8,367.6 190.8,375.6 182.8,375.6" fill="rgb(218,198,25)"/>
<polygon points="190.8,367.6 198.8,367.6 198.8,375.6 190.8,375.6" fill="rgb(238,195,10)"/>
<polygon points="208.8,367.6 216.8,367.6 216.8,375.6 208.8,375.6" fill="rgb(255,255,255)"/>
<polygon points="216.8,367.6 224.8,367.6 224.8,375.6 216.8,375.6" fill="rgb(255,255,255)"/>
<polygon points="224.8,367.6 232.8,367.6 232.8,375.6 224.8,375.6" fill="rgb(255,255,255)"/>
<polygon points="232.8,367.6 240.8,367.6 240.8,375.6 232.8,375.6" fill="rgb(255,255,255)"/>
<polygon points="240.8,367.6 248.8,367.6 248.8,375.6 240.8,375.6" fill="rgb(255,255,255)"/>
<polygon points="248.8,367.6 256.8,367.6 256.8,375.6 248.8,375.6" fill="rgb(255,255,255)"/>
<polygon points="256.8,367.6 264.8,367.6 264.8,375.6 256.8,375.6" fill="rgb(255,255,255)"/>
<polygon points="264.8,367.6 272.8,367.6 272.8,375.6 264.8,375.6" fill="rgb(255,255,255)"/>
<polygon points="108.8,335.6 148.8,335.6 148.8,375.6 108.8,375.6" fill="none" stroke="black" stroke-width="1"/>
<polygon points="158.8,335.6 198.8,335.6 198.8,375.6 158.8,375.6" fill="none" stroke="black" stroke-width="1"/>
<polygon points="208.8,335.6 272.8,335.6 272.8,375.6 208.8,375.6" fill="none" stroke="black" stroke-width="1"/>
<text xml:space="preserve" x="146.4" y="408.6" font-family="Calibri" font-size="8" text-anchor="middle">ClusterAssignment</text>
<polygon points="96.4,415.6 116.4,415.6 116.4,435.6 96.4,435.6" fill="rgb(0,205,0)"/><polygon points="96.4,415.6 116.4,415.6 116.4,435.6 96.4,435.6" fill="none" stroke="black" stroke-width="1"/><text xml:space="preserve" x="106.4" y="428.433" font-family="Calibri" font-size="7.5" fill="rgb(255,255,255)" text-anchor="middle">1.0</text>
<polygon points="116.4,415.6 136.4,415.6 136.4,435.6 116.4,435.6" fill="rgb(127,230,0)"/><polygon points="116.4,415.6 136.4,415.6 136.4,435.6 116.4,435.6" fill="none" stroke="black" stroke-width="1"/><text xml:space="preserve" x="126.4" y="428.433" font-family="Calibri" font-size="7.5" fill="rgb(0,0,0)" text-anchor="middle">2.0</text>
<polygon points="136.4,415.6 156.4,415.6 156.4,435.6 136.4,435.6" fill="rgb(255,255,0)"/><polygon points="136.4,415.6 156.4,415.6 156.4,435.6 136.4,435.6" fill="none" stroke="black" stroke-width="1"/><text xml:space="preserve" x="146.4" y="428.433" font-family="Calibri" font-size="7.5" fill="rgb(0,0,0)" text-anchor="middle">3.0</text>
<polygon points="156.4,415.6 176.4,415.6 176.4,435.6 156.4,435.6" fill="rgb(230,127,0)"/><polygon points="156.4,415.6 176.4,415.6 176.4,435.6 156.4,435.6" fill="none" stroke="black" stroke-width="1"/><text xml:space="preserve" x="166.4" y="428.433" font-family="Calibri" font-size="7.5" fill="rgb(0,0,0)" text-anchor="middle">4.0</text>
<polygon points="176.4,415.6 196.4,415.6 196.4,435.6 176.4,435.6" fill="rgb(205,0,0)"/><polygon points="176.4,415.6 196.4,415.6 196.4,435.6 176.4,435.6" fill="none" stroke="black" stroke-width="1"/><text xml:space="preserve" x="186.4" y="428.433" font-family="Calibri" font-size="7.5" fill="rgb(255,255,255)" text-anchor="middle">5.0</text>
<text xml:space="preserve" x="146.4" y="468.6" font-family="Calibri" font-size="8" text-anchor="middle">Expression</text>
<polygon points="96.4,475.6 116.4,475.6 116.4,495.6 96.4,495.6" fill="rgb(0,27,135)"/><polygon points="96.4,475.6 116.4,475.6 116.4,495.6 96.4,495.6" fill="none" stroke="black" stroke-width="1"/><text xml:space="preserve" x="106.4" y="488.433" font-family="Calibri" font-size="7.5" fill="rgb(255,255,255)" text-anchor="middle">0.0</text>
<polygon points="116.4,475.6 136.4,475.6 136.4,495.6 116.4,495.6" fill="rgb(24,123,140)"/><polygon points="116.4,475.6 136.4,475.6 136.4,495.6 116.4,495.6" fill="none" stroke="black" stroke-width="1"/><text xml:space="preserve" x="126.4" y="488.433" font-family="Calibri" font-size="7.5" fill="rgb(255,255,255)" text-anchor="middle">0.8</text>
<polygon points="136.4,475.6 156.4,475.6 156.4,495.6 136.4,495.6" fill="rgb(49,219,146)"/><polygon points="136.4,475.6 156.4,475.6 156.4,495.6 136.4,495.6" fill="none" stroke="black" stroke-width="1"/><text xml:space="preserve" x="146.4" y="488.433" font-family="Calibri" font-size="7.5" fill="rgb(0,0,0)" text-anchor="middle">1.5</text>
<polygon points="156.4,475.6 176.4,475.6 176.4,495.6 156.4,495.6" fill="rgb(150,206,73)"/><polygon points="156.4,475.6 176.4,475.6 176.4,495.6 156.4,495.6" fill="none" stroke="black" stroke-width="1"/><text xml:space="preserve" x="166.4" y="488.433" font-family="Calibri" font-size="7.5" fill="rgb(0,0,0)" text-anchor="middle">2.2</text>
<polygon points="176.4,475.6 196.4,475.6 196.4,495.6 176.4,495.6" fill="rgb(252,194,1)"/><polygon points="176.4,475.6 196.4,475.6 196.4,495.6 176.4,495.6" fill="none" stroke="black" stroke-width="1"/><text xml:space="preserve" x="186.4" y="488.433" font-family="Calibri" font-size="7.5" fill="rgb(0,0,0)" text-anchor="middle">3.0</text>
<text xml:space="preserve" x="146.4" y="528.6" font-family="Calibri" font-size="8" text-anchor="middle">PANTHERclass</text>
<polygon points="96.4,535.6 116.4,535.6 116.4,555.6 96.4,555.6" fill="rgb(255,255,255)"/><polygon points="96.4,535.6 116.4,535.6 116.4,555.6 96.4,555.6" fill="none" stroke="black" stroke-width="1"/><text xml:space="preserve" x="106.4" y="548.433" font-family="Calibri" font-size="7.5" fill="rgb(0,0,0)" text-anchor="middle">0.0</text>
<polygon points="116.4,535.6 136.4,535.6 136.4,555.6 116.4,555.6" fill="rgb(242,191,242)"/><polygon points="116.4,535.6 136.4,535.6 136.4,555.6 116.4,555.6" fill="none" stroke="black" stroke-width="1"/><text xml:space="preserve" x="126.4" y="548.433" font-family="Calibri" font-size="7.5" fill="rgb(0,0,0)" text-anchor="middle">0.2</text>
<polygon points="136.4,535.6 156.4,535.6 156.4,555.6 136.4,555.6" fill="rgb(230,127,230)"/><polygon points="136.4,535.6 156.4,535.6 156.4,555.6 136.4,555.6" fill="none" stroke="black" stroke-width="1"/><text xml:space="preserve" x="146.4" y="548.433" font-family="Calibri" font-size="7.5" fill="rgb(0,0,0)" text-anchor="middle">0.5</text>
<polygon points="156.4,535.6 176.4,535.6 176.4,555.6 156.4,555.6" fill="rgb(217,63,217)"/><polygon points="156.4,535.6 176.4,535.6 176.4,555.6 156.4,555.6" fill="none" stroke="black" stroke-width="1"/><text xml:space="preserve" x="166.4" y="548.433" font-family="Calibri" font-size="7.5" fill="rgb(255,255,255)" text-anchor="middle">0.8</text>
<polygon points="176.4,535.6 196.4,535.6 196.4,555.6 176.4,555.6" fill="rgb(205,0,205)"/><polygon points="176.4,535.6 196.4,535.6 196.4,555.6 176.4,555.6" fill="none" stroke="black" stroke-width="1"/><text xml:space="preserve" x="186.4" y="548.433" font-family="Calibri" font-size="7.5" fill="rgb(255,255,255)" text-anchor="middle">1.0</text>
</svg>
