<?xml version="1.0" standalone="no"?><!DOCTYPE svg PUBLIC "-//W3C//DTD SVG 1.1//EN" "http://www.w3.org/Graphics/SVG/1.1/DTD/svg11.dtd">
<svg width="288" height="575.6" version="1.1" xmlns="http://www.w3.org/2000/svg">
<text xml:space="preserve" x="100" y="342.6" font-family="Calibri" font-size="8" text-anchor="end">ADRB2</text>
<text xml:space="preserve" x="100" y="350.6" font-family="Calibri" font-size="8" text-anchor="end">RASGRP3</text>
<text xml:space="preserve" x="100" y="358.6" font-family="Calibri" font-size="8" text-anchor="end">RBPMS</text>
<text xml:space="preserve" x="100" y="366.6" font-family="Calibri" font-size="8" text-anchor="end">VAMP8</text>
<text xml:space="preserve" x="100" y="374.6" font-family="Calibri" font-size="8" text-anchor="end">FBLN5</text>
<text xml:space="preserve" x="111" y="331.6" font-family="Calibri" font-size="8" transform="rotate(270 111 331.6)">c2</text>
<text xml:space="preserve" x="119" y="331.6" font-family="Calibri" font-size="8" transform="rotate(270 119 331.6)">c4</text>
<text xml:space="preserve" x="127" y="331.6" font-family="Calibri" font-size="8" transform="rotate(270 127 331.6)">c3</text>
<text xml:space="preserve" x="135" y="331.6" font-family="Calibri" font-size="8" transform="rotate(270 135 331.6)">c1</text>
<text xml:space="preserve" x="143" y="331.6" font-family="Calibri" font-size="8" transform="rotate(270 143 331.6)">c5</text>
<text xml:space="preserve" x="161" y="331.6" font-family="Calibri" font-size="8" transform="rotate(270 161 331.6)">c2_mean</text>
<text xml:space="preserve" x="169" y="331.6" font-family="Calibri" font-size="8" transform="rotate(270 169 331.6)">c4_mean</text>
<text xml:space="preserve" x="177" y="331.6" font-family="Calibri" font-size="8" transform="rotate(270 177 331.6)">c3_mean</text>
<text xml:space="preserve" x="185" y="331.6" font-family="Calibri" font-size="8" transform="rotate(270 185 331.6)">c1_mean</text>
<text xml:space="preserve" x="193" y="331.6" font-family="Calibri" font-size="8" transform="rotate(270 193 331.6)">c5_mean</text>
<text xml:space="preserve" x="211" y="331.6" font-family="Calibri" font-size="8" transform="rotate(270 211 331.6)">transcription_factor</text>
<text xml:space="preserve" x="219" y="331.6" font-family="Calibri" font-size="8" transform="rotate(270 219 331.6)">transmembrane_signal_receptor</text>
<text xml:space="preserve" x="227" y="331.6" font-family="Calibri" font-size="8" transform="rotate(270 227 331.6)">growth_factor</text>
<text xml:space="preserve" x="235" y="331.6" font-family="Calibri" font-size="8" transform="rotate(270 235 331.6)">peptide_hormone</text>
<text xml:space="preserve" x="243" y="331.6" font-family="Calibri" font-size="8" transform="rotate(270 243 331.6)">cytoskeletal_protein</text>
<text xml:space="preserve" x="251" y="331.6" font-family="Calibri" font-size="8" transform="rotate(270 251 331.6)">ion_channel</text>
<text xml:space="preserve" x="259" y="331.6" font-family="Calibri" font-size="8" transform="rotate(270 259 331.6)">integrin</text>
<text xml:space="preserve" x="267" y="331.6" font-family="Calibri" font-size="8" transform="rotate(270 267 331.6)">extracellular_matrix_protein</text>
<polygon points="104,335.6 112,335.6 112,343.6 104,343.6" fill="rgb(255,255,0)"/><text xml:space="preserve" x="108" y="342.433" font-family="Calibri" font-size="7.5" fill="rgb(0,0,0)" text-anchor="middle">3</text>
<polygon points="112,335.6 120,335.6 120,343.6 112,343.6" fill="rgb(127,230,0)"/><text xml:space="preserve" x="116" y="342.433" font-family="Calibri" font-size="7.5" fill="rgb(0,0,0)" text-anchor="middle">2</text>
<polygon points="120,335.6 128,335.6 128,343.6 120,343.6" fill="rgb(255,255,0)"/><text xml:space="preserve" x="124" y="342.433" font-family="Calibri" font-size="7.5" fill="rgb(0,0,0)" text-anchor="middle">3</text>
<polygon points="128,335.6 136,335.6 136,343.6 128,343.6" fill="rgb(230,127,0)"/><text xml:space="preserve" x="132" y="342.433" font-family="Calibri" font-size="7.5" fill="rgb(0,0,0)" text-anchor="middle">4</text>
<polygon points="136,335.6 144,335.6 144,343.6 136,343.6" fill="rgb(230,127,0)"/><text xml:space="preserve" x="140" y="342.433" font-family="Calibri" font-size="7.5" fill="rgb(0,0,0)" text-anchor="middle">4</text>
<polygon points="154,335.6 162,335.6 162,343.6 154,343.6" fill="rgb(109,211,102)"/>
<polygon points="162,335.6 170,335.6 170,343.6 162,343.6" fill="rgb(6,52,136)"/>
<polygon points="170,335.6 178,335.6 178,343.6 170,343.6" fill="rgb(85,214,119)"/>
<polygon points="178,335.6 186,335.6 186,343.6 178,343.6" fill="rgb(103,212,107)"/>
<polygon points="186,335.6 194,335.6 194,343.6 186,343.6" fill="rgb(72,216,129)"/>
<polygon points="204,335.6 212,335.6 212,343.6 204,343.6" fill="rgb(255,255,255)"/>
<polygon points="212,335.6 220,335.6 220,343.6 212,343.6" fill="rgb(255,255,255)"/>
<polygon points="220,335.6 228,335.6 228,343.6 220,343.6" fill="rgb(255,255,255)"/>
<polygon points="228,335.6 236,335.6 236,343.6 228,343.6" fill="rgb(255,255,255)"/>
<polygon points="236,335.6 244,335.6 244,343.6 236,343.6" fill="rgb(255,255,255)"/>
<polygon points="244,335.6 252,335.6 252,343.6 244,343.6" fill="rgb(255,255,255)"/>
<polygon points="252,335.6 260,335.6 260,343.6 252,343.6" fill="rgb(255,255,255)"/>
<polygon points="260,335.6 268,335.6 268,343.6 260,343.6" fill="rgb(255,255,255)"/>
<polygon points="104,343.6 112,343.6 112,351.6 104,351.6" fill="rgb(255,255,0)"/><text xml:space="preserve" x="108" y="350.433" font-family="Calibri" font-size="7.5" fill="rgb(0,0,0)" text-anchor="middle">3</text>
<polygon points="112,343.6 120,343.6 120,351.6 112,351.6" fill="rgb(127,230,0)"/><text xml:space="preserve" x="116" y="350.433" font-family="Calibri" font-size="7.5" fill="rgb(0,0,0)" text-anchor="middle">2</text>
<polygon points="120,343.6 128,343.6 128,351.6 120,351.6" fill="rgb(255,255,0)"/><text xml:space="preserve" x="124" y="350.433" font-family="Calibri" font-size="7.5" fill="rgb(0,0,0)" text-anchor="middle">3</text>
<polygon points="128,343.6 136,343.6 136,351.6 128,351.6" fill="rgb(230,127,0)"/><text xml:space="preserve" x="132" y="350.433" font-family="Calibri" font-size="7.5" fill="rgb(0,0,0)" text-anchor="middle">4</text>
<polygon points="136,343.6 144,343.6 144,351.6 136,351.6" fill="rgb(230,127,0)"/><text xml:space="preserve" x="140" y="350.433" font-family="Calibri" font-size="7.5" fill="rgb(0,0,0)" text-anchor="middle">4</text>
<polygon points="154,343.6 162,343.6 162,351.6 154,351.6" fill="rgb(45,203,145)"/>
<polygon points="162,343.6 170,343.6 170,351.6 162,351.6" fill="rgb(24,123,140)"/>
<polygon points="170,343.6 178,343.6 178,351.6 170,351.6" fill="rgb(38,178,143)"/>
<polygon points="178,343.6 186,343.6 186,351.6 178,351.6" fill="rgb(59,217,138)"/>
<polygon points="186,343.6 194,343.6 194,351.6 186,351.6" fill="rgb(61,217,137)"/>
<polygon points="204,343.6 212,343.6 212,351.6 204,351.6" fill="rgb(255,255,255)"/>
<polygon points="212,343.6 220,343.6 220,351.6 212,351.6" fill="rgb(255,255,255)"/>
<polygon points="220,343.6 228,343.6 228,351.6 220,351.6" fill="rgb(255,255,255)"/>
<polygon points="228,343.6 236,343.6 236,351.6 228,351.6" fill="rgb(255,255,255)"/>
<polygon points="236,343.6 244,343.6 244,351.6 236,351.6" fill="rgb(255,255,255)"/>
<polygon points="244,343.6 252,343.6 252,351.6 244,351.6" fill="rgb(255,255,255)"/>
<polygon points="252,343.6 260,343.6 260,351.6 252,351.6" fill="rgb(255,255,255)"/>
<polygon points="260,343.6 268,343.6 268,351.6 260,351.6" fill="rgb(255,255,255)"/>
<polygon points="104,351.6 112,351.6 112,359.6 104,359.6" fill="rgb(255,255,0)"/><text xml:space="preserve" x="108" y="358.433" font-family="Calibri" font-size="7.5" fill="rgb(0,0,0)" text-anchor="middle">3</text>
<polygon points="112,351.6 120,351.6 120,359.6 112,359.6" fill="rgb(127,230,0)"/><text xml:space="preserve" x="116" y="358.433" font-family="Calibri" font-size="7.5" fill="rgb(0,0,0)" text-anchor="middle">2</text>
<polygon points="120,351.6 128,351.6 128,359.6 120,359.6" fill="rgb(255,255,0)"/><text xml:space="preserve" x="124" y="358.433" font-family="Calibri" font-size="7.5" fill="rgb(0,0,0)" text-anchor="middle">3</text>
<polygon points="128,351.6 136,351.6 136,359.6 128,359.6" fill="rgb(230,127,0)"/><text xml:space="preserve" x="132" y="358.433" font-family="Calibri" font-size="7.5" fill="rgb(0,0,0)" text-anchor="middle">4</text>
<polygon points="136,351.6 144,351.6 144,359.6 136,359.6" fill="rgb(230,127,0)"/><text xml:space="preserve" x="140" y="358.433" font-family="Calibri" font-size="7.5" fill="rgb(0,0,0)" text-anchor="middle">4</text>
<polygon points="154,351.6 162,351.6 162,359.6 154,359.6" fill="rgb(44,199,144)"/>
<polygon points="162,351.6 170,351.6 170,359.6 162,359.6" fill="rgb(17,97,139)"/>
<polygon points="170,351.6 178,351.6 178,359.6 170,359.6" fill="rgb(39,180,143)"/>
<polygon points="178,351.6 186,351.6 186,359.6 178,359.6" fill="rgb(123,209,92)"/>
<polygon points="186,351.6 194,351.6 194,359.6 186,359.6" fill="rgb(82,214,121)"/>
<polygon points="204,351.6 212,351.6 212,359.6 204,359.6" fill="rgb(255,255,255)"/>
<polygon points="212,351.6 220,351.6 220,359.6 212,359.6" fill="rgb(255,255,255)"/>
<polygon points="220,351.6 228,351.6 228,359.6 220,359.6" fill="rgb(255,255,255)"/>
<polygon points="228,351.6 236,351.6 236,359.6 228,359.6" fill="rgb(255,255,255)"/>
<polygon points="236,351.6 244,351.6 244,359.6 236,359.6" fill="rgb(255,255,255)"/>
<polygon points="244,351.6 252,351.6 252,359.6 244,359.6" fill="rgb(255,255,255)"/>
<polygon points="252,351.6 260,351.6 260,359.6 252,359.6" fill="rgb(255,255,255)"/>
<polygon points="260,351.6 268,351.6 268,359.6 260,359.6" fill="rgb(255,255,255)"/>
<polygon points="104,359.6 112,359.6 112,367.6 104,367.6" fill="rgb(255,255,0)"/><text xml:space="preserve" x="108" y="366.433" font-family="Calibri" font-size="7.5" fill="rgb(0,0,0)" text-anchor="middle">3</text>
<polygon points="112,359.6 120,359.6 120,367.6 112,367.6" fill="rgb(127,230,0)"/><text xml:space="preserve" x="116" y="366.433" font-family="Calibri" font-size="7.5" fill="rgb(0,0,0)" text-anchor="middle">2</text>
<polygon points="120,359.6 128,359.6 128,367.6 120,367.6" fill="rgb(255,255,0)"/><text xml:space="preserve" x="124" y="366.433" font-family="Calibri" font-size="7.5" fill="rgb(0,0,0)" text-anchor="middle">3</text>
<polygon points="128,359.6 136,359.6 136,367.6 128,367.6" fill="rgb(230,127,0)"/><text xml:space="preserve" x="132" y="366.433" font-family="Calibri" font-size="7.5" fill="rgb(0,0,0)" text-anchor="middle">4</text>
<polygon points="136,359.6 144,359.6 144,367.6 136,367.6" fill="rgb(230,127,0)"/><text xml:space="preserve" x="140" y="366.433" font-family="Calibri" font-size="7.5" fill="rgb(0,0,0)" text-anchor="middle">4</text>
<polygon points="154,359.6 162,359.6 162,367.6 154,367.6" fill="rgb(50,218,145)"/>
<polygon points="162,359.6 170,359.6 170,367.6 162,367.6" fill="rgb(25,126,140)"/>
<polygon points="170,359.6 178,359.6 178,367.6 170,367.6" fill="rgb(36,169,143)"/>
<polygon points="178,359.6 186,359.6 186,367.6 178,367.6" fill="rgb(107,211,104)"/>
<polygon points="186,359.6 194,359.6 194,367.6 186,367.6" fill="rgb(127,209,89)"/>
<polygon points="204,359.6 212,359.6 212,367.6 204,367.6" fill="rgb(255,255,255)"/>
<polygon points="212,359.6 220,359.6 220,367.6 212,367.6" fill="rgb(255,255,255)"/>
<polygon points="220,359.6 228,359.6 228,367.6 220,367.6" fill="rgb(255,255,255)"/>
<polygon points="228,359.6 236,359.6 236,367.6 228,367.6" fill="rgb(255,255,255)"/>
<polygon points="236,359.6 244,359.6 244,367.6 236,367.6" fill="rgb(255,255,255)"/>
<polygon points="244,359.6 252,359.6 252,367.6 244,367.6" fill="rgb(255,255,255)"/>
<polygon points="252,359.6 260,359.6 260,367.6 252,367.6" fill="rgb(255,255,255)"/>
<polygon points="260,359.6 268,359.6 268,367.6 260,367.6" fill="rgb(255,255,255)"/>
<polygon points="104,367.6 112,367.6 112,375.6 104,375.6" fill="rgb(255,255,0)"/><text xml:space="preserve" x="108" y="374.433" font-family="Calibri" font-size="7.5" fill="rgb(0,0,0)" text-anchor="middle">3</text>
<polygon points="112,367.6 120,367.6 120,375.6 112,375.6" fill="rgb(127,230,0)"/><text xml:space="preserve" x="116" y="374.433" font-family="Calibri" font-size="7.5" fill="rgb(0,0,0)" text-anchor="middle">2</text>
<polygon points="120,367.6 128,367.6 128,375.6 120,375.6" fill="rgb(255,255,0)"/><text xml:space="preserve" x="124" y="374.433" font-family="Calibri" font-size="7.5" fill="rgb(0,0,0)" text-anchor="middle">3</text>
<polygon points="128,367.6 136,367.6 136,375.6 128,375.6" fill="rgb(230,127,0)"/><text xml:space="preserve" x="132" y="374.433" font-family="Calibri" font-size="7.5" fill="rgb(0,0,0)" text-anchor="middle">4</text>
<polygon points="136,367.6 144,367.6 144,375.6 136,375.6" fill="rgb(230,127,0)"/><text xml:space="preserve" x="140" y="374.433" font-family="Calibri" font-size="7.5" fill="rgb(0,0,0)" text-anchor="middle">4</text>
<polygon points="154,367.6 162,367.6 162,375.6 154,375.6" fill="rgb(139,207,81)"/>
<polygon points="162,367.6 170,367.6 170,375.6 162,375.6" fill="rgb(24,124,140)"/>
<polygon points="170,367.6 178,367.6 178,375.6 170,375.6" fill="rgb(36,171,143)"/>
<polygon points="178,367.6 186,367.6 186,375.6 178,375.6" fill="rgb(86,214,118)"/>
<polygon points="186,367.6 194,367.6 194,375.6 186,375.6" fill="rgb(48,215,145)"/>
<polygon points="204,367.6 212,367.6 212,375.6 204,375.6" fill="rgb(255,255,255)"/>
<polygon points="212,367.6 220,367.6 220,375.6 212,375.6" fill="rgb(255,255,255)"/>
<polygon points="220,367.6 228,367.6 228,375.6 220,375.6" fill="rgb(255,255,255)"/>
<polygon points="228,367.6 236,367.6 236,375.6 228,375.6" fill="rgb(255,255,255)"/>
<polygon points="236,367.6 244,367.6 244,375.6 236,375.6" fill="rgb(255,255,255)"/>
<polygon points="244,367.6 252,367.6 252,375.6 244,375.6" fill="rgb(255,255,255)"/>
<polygon points="252,367.6 260,367.6 260,375.6 252,375.6" fill="rgb(255,255,255)"/>
<polygon points="260,367.6 268,367.6 268,375.6 260,375.6" fill="rgb(205,0,205)"/>
<polygon points="104,335.6 144,335.6 144,375.6 104,375.6" fill="none" stroke="black" stroke-width="1"/>
<polygon points="154,335.6 194,335.6 194,375.6 154,375.6" fill="none" stroke="black" stroke-width="1"/>
<polygon points="204,335.6 268,335.6 268,375.6 204,375.6" fill="none" stroke="black" stroke-width="1"/>
<text xml:space="preserve" x="144" y="408.6" font-family="Calibri" font-size="8" text-anchor="middle">ClusterAssignment</text>
<polygon points="94,415.6 114,415.6 114,435.6 94,435.6" fill="rgb(0,205,0)"/><polygon points="94,415.6 114,415.6 114,435.6 94,435.6" fill="none" stroke="black" stroke-width="1"/><text xml:space="preserve" x="104" y="428.433" font-family="Calibri" font-size="7.5" fill="rgb(255,255,255)" text-anchor="middle">1.0</text>
<polygon points="114,415.6 134,415.6 134,435.6 114,435.6" fill="rgb(127,230,0)"/><polygon points="114,415.6 134,415.6 134,435.6 114,435.6" fill="none" stroke="black" stroke-width="1"/><text xml:space="preserve" x="124" y="428.433" font-family="Calibri" font-size="7.5" fill="rgb(0,0,0)" text-anchor="middle">2.0</text>
<polygon points="134,415.6 154,415.6 154,435.6 134,435.6" fill="rgb(255,255,0)"/><polygon points="134,415.6 154,415.6 154,435.6 134,435.6" fill="none" stroke="black" stroke-width="1"/><text xml:space="preserve" x="144" y="428.433" font-family="Calibri" font-size="7.5" fill="rgb(0,0,0)" text-anchor="middle">3.0</text>
<polygon points="154,415.6 174,415.6 174,435.6 154,435.6" fill="rgb(230,127,0)"/><polygon points="154,415.6 174,415.6 174,435.6 154,435.6" fill="none" stroke="black" stroke-width="1"/><text xml:space="preserve" x="164" y="428.433" font-family="Calibri" font-size="7.5" fill="rgb(0,0,0)" text-anchor="middle">4.0</text>
<polygon points="174,415.6 194,415.6 194,435.6 174,435.6" fill="rgb(205,0,0)"/><polygon points="174,415.6 194,415.6 194,435.6 174,435.6" fill="none" stroke="black" stroke-width="1"/><text xml:space="preserve" x="184" y="428.433" font-family="Calibri" font-size="7.5" fill="rgb(255,255,255)" text-anchor="middle">5.0</text>
<text xml:space="preserve" x="144" y="468.6" font-family="Calibri" font-size="8" text-anchor="middle">Expression</text>
<polygon points="94,475.6 114,475.6 114,495.6 94,495.6" fill="rgb(0,27,135)"/><polygon points="94,475.6 114,475.6 114,495.6 94,495.6" fill="none" stroke="black" stroke-width="1"/><text xml:space="preserve" x="104" y="488.433" font-family="Calibri" font-size="7.5" fill="rgb(255,255,255)" text-anchor="middle">0.0</text>
<polygon points="114,475.6 134,475.6 134,495.6 114,495.6" fill="rgb(24,123,140)"/><polygon points="114,475.6 134,475.6 134,495.6 114,495.6" fill="none" stroke="black" stroke-width="1"/><text xml:space="preserve" x="124" y="488.433" font-family="Calibri" font-size="7.5" fill="rgb(255,255,255)" text-anchor="middle">0.8</text>
<polygon points="134,475.6 154,475.6 154,495.6 134,495.6" fill="rgb(49,219,146)"/><polygon points="134,475.6 154,475.6 154,495.6 134,495.6" fill="none" stroke="black" stroke-width="1"/><text xml:space="preserve" x="144" y="488.433" font-family="Calibri" font-size="7.5" fill="rgb(0,0,0)" text-anchor="middle">1.5</text>
<polygon points="154,475.6 174,475.6 174,495.6 154,495.6" fill="rgb(150,206,73)"/><polygon points="154,475.6 174,475.6 174,495.6 154,495.6" fill="none" stroke="black" stroke-width="1"/><text xml:space="preserve" x="164" y="488.433" font-family="Calibri" font-size="7.5" fill="rgb(0,0,0)" text-anchor="middle">2.2</text>
<polygon points="174,475.6 194,475.6 194,495.6 174,495.6" fill="rgb(252,194,1)"/><polygon points="174,475.6 194,475.6 194,495.6 174,495.6" fill="none" stroke="black" stroke-width="1"/><text xml:space="preserve" x="184" y="488.433" font-family="Calibri" font-size="7.5" fill="rgb(0,0,0)" text-anchor="middle">3.0</text>
<text xml:space="preserve" x="144" y="528.6" font-family="Calibri" font-size="8" text-anchor="middle">PANTHERclass</text>
<polygon points="94,535.6 114,535.6 114,555.6 94,555.6" fill="rgb(255,255,255)"/><polygon points="94,535.6 114,535.6 114,555.6 94,555.6" fill="none" stroke="black" stroke-width="1"/><text xml:space="preserve" x="104" y="548.433" font-family="Calibri" font-size="7.5" fill="rgb(0,0,0)" text-anchor="middle">0.0</text>
<polygon points="114,535.6 134,535.6 134,555.6 114,555.6" fill="rgb(242,191,242)"/><polygon points="114,535.6 134,535.6 134,555.6 114,555.6" fill="none" stroke="black" stroke-width="1"/><text xml:space="preserve" x="124" y="548.433" font-family="Calibri" font-size="7.5" fill="rgb(0,0,0)" text-anchor="middle">0.2</text>
<polygon points="134,535.6 154,535.6 154,555.6 134,555.6" fill="rgb(230,127,230)"/><polygon points="134,535.6 154,535.6 154,555.6 134,555.6" fill="none" stroke="black" stroke-width="1"/><text xml:space="preserve" x="144" y="548.433" font-family="Calibri" font-size="7.5" fill="rgb(0,0,0)" text-anchor="middle">0.5</text>
<polygon points="154,535.6 174,535.6 174,555.6 154,555.6" fill="rgb(217,63,217)"/><polygon points="154,535.6 174,535.6 174,555.6 154,555.6" fill="none" stroke="black" stroke-width="1"/><text xml:space="preserve" x="164" y="548.433" font-family="Calibri" font-size="7.5" fill="rgb(255,255,255)" text-anchor="middle">0.8</text>
<polygon points="174,535.6 194,535.6 194,555.6 174,555.6" fill="rgb(205,0,205)"/><polygon points="174,535.6 194,535.6 194,555.6 174,555.6" fill="none" stroke="black" stroke-width="1"/><text xml:space="preserve" x="184" y="548.433" font-family="Calibri" font-size="7.5" fill="rgb(255,255,255)" text-anchor="middle">1.0</text>
</svg>
