<?xml version="1.0" standalone="no"?><!DOCTYPE svg PUBLIC "-//W3C//DTD SVG 1.1//EN" "http://www.w3.org/Graphics/SVG/1.1/DTD/svg11.dtd">
<svg width="291.6" height="607.6" version="1.1" xmlns="http://www.w3.org/2000/svg">
<text xml:space="preserve" x="103.6" y="342.6" font-family="Calibri" font-size="8" text-anchor="end">COL4A5</text>
<text xml:space="preserve" x="103.6" y="350.6" font-family="Calibri" font-size="8" text-anchor="end">PON2</text>
<text xml:space="preserve" x="103.6" y="358.6" font-family="Calibri" font-size="8" text-anchor="end">GJA1</text>
<text xml:space="preserve" x="103.6" y="366.6" font-family="Calibri" font-size="8" text-anchor="end">TTC6</text>
<text xml:space="preserve" x="103.6" y="374.6" font-family="Calibri" font-size="8" text-anchor="end">TCIM</text>
<text xml:space="preserve" x="103.6" y="382.6" font-family="Calibri" font-size="8" text-anchor="end">FAM198B</text>
<text xml:space="preserve" x="103.6" y="390.6" font-family="Calibri" font-size="8" text-anchor="end">GPX8</text>
<text xml:space="preserve" x="103.6" y="398.6" font-family="Calibri" font-size="8" text-anchor="end">LAMB2</text>
<text xml:space="preserve" x="103.6" y="406.6" font-family="Calibri" font-size="8" text-anchor="end">MYOF</text>
<text xml:space="preserve" x="114.6" y="331.6" font-family="Calibri" font-size="8" transform="rotate(270 114.6 331.6)">c2</text>
<text xml:space="preserve" x="122.6" y="331.6" font-family="Calibri" font-size="8" transform="rotate(270 122.6 331.6)">c4</text>
<text xml:space="preserve" x="130.6" y="331.6" font-family="Calibri" font-size="8" transform="rotate(270 130.6 331.6)">c3</text>
<text xml:space="preserve" x="138.6" y="331.6" font-family="Calibri" font-size="8" transform="rotate(270 138.6 331.6)">c1</text>
<text xml:space="preserve" x="146.6" y="331.6" font-family="Calibri" font-size="8" transform="rotate(270 146.6 331.6)">c5</text>
<text xml:space="preserve" x="164.6" y="331.6" font-family="Calibri" font-size="8" transform="rotate(270 164.6 331.6)">c2_mean</text>
<text xml:space="preserve" x="172.6" y="331.6" font-family="Calibri" font-size="8" transform="rotate(270 172.6 331.6)">c4_mean</text>
<text xml:space="preserve" x="180.6" y="331.6" font-family="Calibri" font-size="8" transform="rotate(270 180.6 331.6)">c3_mean</text>
<text xml:space="preserve" x="188.6" y="331.6" font-family="Calibri" font-size="8" transform="rotate(270 188.6 331.6)">c1_mean</text>
<text xml:space="preserve" x="196.6" y="331.6" font-family="Calibri" font-size="8" transform="rotate(270 196.6 331.6)">c5_mean</text>
<text xml:space="preserve" x="214.6" y="331.6" font-family="Calibri" font-size="8" transform="rotate(270 214.6 331.6)">transcription_factor</text>
<text xml:space="preserve" x="222.6" y="331.6" font-family="Calibri" font-size="8" transform="rotate(270 222.6 331.6)">transmembrane_signal_receptor</text>
<text xml:space="preserve" x="230.6" y="331.6" font-family="Calibri" font-size="8" transform="rotate(270 230.6 331.6)">growth_factor</text>
<text xml:space="preserve" x="238.6" y="331.6" font-family="Calibri" font-size="8" transform="rotate(270 238.6 331.6)">peptide_hormone</text>
<text xml:space="preserve" x="246.6" y="331.6" font-family="Calibri" font-size="8" transform="rotate(270 246.6 331.6)">cytoskeletal_protein</text>
<text xml:space="preserve" x="254.6" y="331.6" font-family="Calibri" font-size="8" transform="rotate(270 254.6 331.6)">ion_channel</text>
<text xml:space="preserve" x="262.6" y="331.6" font-family="Calibri" font-size="8" transform="rotate(270 262.6 331.6)">integrin</text>
<text xml:space="preserve" x="270.6" y="331.6" font-family="Calibri" font-size="8" transform="rotate(270 270.6 331.6)">extracellular_matrix_protein</text>
<polygon points="107.6,335.6 115.6,335.6 115.6,343.6 107.6,343.6" fill="rgb(230,127,0)"/><text xml:space="preserve" x="111.6" y="342.433" font-family="Calibri" font-size="7.5" fill="rgb(0,0,0)" text-anchor="middle">4</text>
<polygon points="115.6,335.6 123.6,335.6 123.6,343.6 115.6,343.6" fill="rgb(205,0,0)"/><text xml:space="preserve" x="119.6" y="342.433" font-family="Calibri" font-size="7.5" fill="rgb(255,255,255)" text-anchor="middle">5</text>
<polygon points="123.6,335.6 131.6,335.6 131.6,343.6 123.6,343.6" fill="rgb(205,0,0)"/><text xml:space="preserve" x="127.6" y="342.433" font-family="Calibri" font-size="7.5" fill="rgb(255,255,255)" text-anchor="middle">5</text>
<polygon points="131.6,335.6 139.6,335.6 139.6,343.6 131.6,343.6" fill="rgb(205,0,0)"/><text xml:space="preserve" x="135.6" y="342.433" font-family="Calibri" font-size="7.5" fill="rgb(255,255,255)" text-anchor="middle">5</text>
<polygon points="139.6,335.6 147.6,335.6 147.6,343.6 139.6,343.6" fill="rgb(205,0,0)"/><text xml:space="preserve" x="143.6" y="342.433" font-family="Calibri" font-size="7.5" fill="rgb(255,255,255)" text-anchor="middle">5</text>
<polygon points="157.6,335.6 165.6,335.6 165.6,343.6 157.6,343.6" fill="rgb(252,194,1)"/>
<polygon points="165.6,335.6 173.6,335.6 173.6,343.6 165.6,343.6" fill="rgb(252,194,1)"/>
<polygon points="173.6,335.6 181.6,335.6 181.6,343.6 173.6,343.6" fill="rgb(252,194,1)"/>
<polygon points="181.6,335.6 189.6,335.6 189.6,343.6 181.6,343.6" fill="rgb(252,194,1)"/>
<polygon points="189.6,335.6 197.6,335.6 197.6,343.6 189.6,343.6" fill="rgb(252,194,1)"/>
<polygon points="207.6,335.6 215.6,335.6 215.6,343.6 207.6,343.6" fill="rgb(255,255,255)"/>
<polygon points="215.6,335.6 223.6,335.6 223.6,343.6 215.6,343.6" fill="rgb(255,255,255)"/>
<polygon points="223.6,335.6 231.6,335.6 231.6,343.6 223.6,343.6" fill="rgb(255,255,255)"/>
<polygon points="231.6,335.6 239.6,335.6 239.6,343.6 231.6,343.6" fill="rgb(255,255,255)"/>
<polygon points="239.6,335.6 247.6,335.6 247.6,343.6 239.6,343.6" fill="rgb(255,255,255)"/>
<polygon points="247.6,335.6 255.6,335.6 255.6,343.6 247.6,343.6" fill="rgb(255,255,255)"/>
<polygon points="255.6,335.6 263.6,335.6 263.6,343.6 255.6,343.6" fill="rgb(255,255,255)"/>
<polygon points="263.6,335.6 271.6,335.6 271.6,343.6 263.6,343.6" fill="rgb(205,0,205)"/>
<polygon points="107.6,343.6 115.6,343.6 115.6,351.6 107.6,351.6" fill="rgb(230,127,0)"/><text xml:space="preserve" x="111.6" y="350.433" font-family="Calibri" font-size="7.5" fill="rgb(0,0,0)" text-anchor="middle">4</text>
<polygon points="115.6,343.6 123.6,343.6 123.6,351.6 115.6,351.6" fill="rgb(205,0,0)"/><text xml:space="preserve" x="119.6" y="350.433" font-family="Calibri" font-size="7.5" fill="rgb(255,255,255)" text-anchor="middle">5</text>
<polygon points="123.6,343.6 131.6,343.6 131.6,351.6 123.6,351.6" fill="rgb(205,0,0)"/><text xml:space="preserve" x="127.6" y="350.433" font-family="Calibri" font-size="7.5" fill="rgb(255,255,255)" text-anchor="middle">5</text>
<polygon points="131.6,343.6 139.6,343.6 139.6,351.6 131.6,351.6" fill="rgb(205,0,0)"/><text xml:space="preserve" x="135.6" y="350.433" font-family="Calibri" font-size="7.5" fill="rgb(255,255,255)" text-anchor="middle">5</text>
<polygon points="139.6,343.6 147.6,343.6 147.6,351.6 139.6,351.6" fill="rgb(205,0,0)"/><text xml:space="preserve" x="143.6" y="350.433" font-family="Calibri" font-size="7.5" fill="rgb(255,255,255)" text-anchor="middle">5</text>
<polygon points="157.6,343.6 165.6,343.6 165.6,351.6 157.6,351.6" fill="rgb(252,194,1)"/>
<polygon points="165.6,343.6 173.6,343.6 173.6,351.6 165.6,351.6" fill="rgb(252,194,1)"/>
<polygon points="173.6,343.6 181.6,343.6 181.6,351.6 173.6,351.6" fill="rgb(252,194,1)"/>
<polygon points="181.6,343.6 189.6,343.6 189.6,351.6 181.6,351.6" fill="rgb(182,202,50)"/>
<polygon points="189.6,343.6 197.6,343.6 197.6,351.6 189.6,351.6" fill="rgb(241,195,8)"/>
<polygon points="207.6,343.6 215.6,343.6 215.6,351.6 207.6,351.6" fill="rgb(255,255,255)"/>
<polygon points="215.6,343.6 223.6,343.6 223.6,351.6 215.6,351.6" fill="rgb(255,255,255)"/>
<polygon points="223.6,343.6 231.6,343.6 231.6,351.6 223.6,351.6" fill="rgb(255,255,255)"/>
<polygon points="231.6,343.6 239.6,343.6 239.6,351.6 231.6,351.6" fill="rgb(255,255,255)"/>
<polygon points="239.6,343.6 247.6,343.6 247.6,351.6 239.6,351.6" fill="rgb(255,255,255)"/>
<polygon points="247.6,343.6 255.6,343.6 255.6,351.6 247.6,351.6" fill="rgb(255,255,255)"/>
<polygon points="255.6,343.6 263.6,343.6 263.6,351.6 255.6,351.6" fill="rgb(255,255,255)"/>
<polygon points="263.6,343.6 271.6,343.6 271.6,351.6 263.6,351.6" fill="rgb(255,255,255)"/>
<polygon points="107.6,351.6 115.6,351.6 115.6,359.6 107.6,359.6" fill="rgb(230,127,0)"/><text xml:space="preserve" x="111.6" y="358.433" font-family="Calibri" font-size="7.5" fill="rgb(0,0,0)" text-anchor="middle">4</text>
<polygon points="115.6,351.6 123.6,351.6 123.6,359.6 115.6,359.6" fill="rgb(205,0,0)"/><text xml:space="preserve" x="119.6" y="358.433" font-family="Calibri" font-size="7.5" fill="rgb(255,255,255)" text-anchor="middle">5</text>
<polygon points="123.6,351.6 131.6,351.6 131.6,359.6 123.6,359.6" fill="rgb(205,0,0)"/><text xml:space="preserve" x="127.6" y="358.433" font-family="Calibri" font-size="7.5" fill="rgb(255,255,255)" text-anchor="middle">5</text>
<polygon points="131.6,351.6 139.6,351.6 139.6,359.6 131.6,359.6" fill="rgb(205,0,0)"/><text xml:space="preserve" x="135.6" y="358.433" font-family="Calibri" font-size="7.5" fill="rgb(255,255,255)" text-anchor="middle">5</text>
<polygon points="139.6,351.6 147.6,351.6 147.6,359.6 139.6,359.6" fill="rgb(205,0,0)"/><text xml:space="preserve" x="143.6" y="358.433" font-family="Calibri" font-size="7.5" fill="rgb(255,255,255)" text-anchor="middle">5</text>
<polygon points="157.6,351.6 165.6,351.6 165.6,359.6 157.6,359.6" fill="rgb(252,194,1)"/>
<polygon points="165.6,351.6 173.6,351.6 173.6,359.6 165.6,359.6" fill="rgb(252,194,1)"/>
<polygon points="173.6,351.6 181.6,351.6 181.6,359.6 173.6,359.6" fill="rgb(252,194,1)"/>
<polygon points="181.6,351.6 189.6,351.6 189.6,359.6 181.6,359.6" fill="rgb(204,199,34)"/>
<polygon points="189.6,351.6 197.6,351.6 197.6,359.6 189.6,359.6" fill="rgb(252,194,1)"/>
<polygon points="207.6,351.6 215.6,351.6 215.6,359.6 207.6,359.6" fill="rgb(255,255,255)"/>
<polygon points="215.6,351.6 223.6,351.6 223.6,359.6 215.6,359.6" fill="rgb(255,255,255)"/>
<polygon points="223.6,351.6 231.6,351.6 231.6,359.6 223.6,359.6" fill="rgb(255,255,255)"/>
<polygon points="231.6,351.6 239.6,351.6 239.6,359.6 231.6,359.6" fill="rgb(255,255,255)"/>
<polygon points="239.6,351.6 247.6,351.6 247.6,359.6 239.6,359.6" fill="rgb(255,255,255)"/>
<polygon points="247.6,351.6 255.6,351.6 255.6,359.6 247.6,359.6" fill="rgb(255,255,255)"/>
<polygon points="255.6,351.6 263.6,351.6 263.6,359.6 255.6,359.6" fill="rgb(255,255,255)"/>
<polygon points="263.6,351.6 271.6,351.6 271.6,359.6 263.6,359.6" fill="rgb(255,255,255)"/>
<polygon points="107.6,359.6 115.6,359.6 115.6,367.6 107.6,367.6" fill="rgb(230,127,0)"/><text xml:space="preserve" x="111.6" y="366.433" font-family="Calibri" font-size="7.5" fill="rgb(0,0,0)" text-anchor="middle">4</text>
<polygon points="115.6,359.6 123.6,359.6 123.6,367.6 115.6,367.6" fill="rgb(205,0,0)"/><text xml:space="preserve" x="119.6" y="366.433" font-family="Calibri" font-size="7.5" fill="rgb(255,255,255)" text-anchor="middle">5</text>
<polygon points="123.6,359.6 131.6,359.6 131.6,367.6 123.6,367.6" fill="rgb(205,0,0)"/><text xml:space="preserve" x="127.6" y="366.433" font-family="Calibri" font-size="7.5" fill="rgb(255,255,255)" text-anchor="middle">5</text>
<polygon points="131.6,359.6 139.6,359.6 139.6,367.6 131.6,367.6" fill="rgb(205,0,0)"/><text xml:space="preserve" x="135.6" y="366.433" font-family="Calibri" font-size="7.5" fill="rgb(255,255,255)" text-anchor="middle">5</text>
<polygon points="139.6,359.6 147.6,359.6 147.6,367.6 139.6,367.6" fill="rgb(205,0,0)"/><text xml:space="preserve" x="143.6" y="366.433" font-family="Calibri" font-size="7.5" fill="rgb(255,255,255)" text-anchor="middle">5</text>
<polygon points="157.6,359.6 165.6,359.6 165.6,367.6 157.6,367.6" fill="rgb(252,194,1)"/>
<polygon points="165.6,359.6 173.6,359.6 173.6,367.6 165.6,367.6" fill="rgb(252,194,1)"/>
<polygon points="173.6,359.6 181.6,359.6 181.6,367.6 173.6,367.6" fill="rgb(252,194,1)"/>
<polygon points="181.6,359.6 189.6,359.6 189.6,367.6 181.6,367.6" fill="rgb(177,203,54)"/>
<polygon points="189.6,359.6 197.6,359.6 197.6,367.6 189.6,367.6" fill="rgb(252,194,1)"/>
<polygon points="207.6,359.6 215.6,359.6 215.6,367.6 207.6,367.6" fill="rgb(255,255,255)"/>
<polygon points="215.6,359.6 223.6,359.6 223.6,367.6 215.6,367.6" fill="rgb(255,255,255)"/>
<polygon points="223.6,359.6 231.6,359.6 231.6,367.6 223.6,367.6" fill="rgb(255,255,255)"/>
<polygon points="231.6,359.6 239.6,359.6 239.6,367.6 231.6,367.6" fill="rgb(255,255,255)"/>
<polygon points="239.6,359.6 247.6,359.6 247.6,367.6 239.6,367.6" fill="rgb(255,255,255)"/>
<polygon points="247.6,359.6 255.6,359.6 255.6,367.6 247.6,367.6" fill="rgb(255,255,255)"/>
<polygon points="255.6,359.6 263.6,359.6 263.6,367.6 255.6,367.6" fill="rgb(255,255,255)"/>
<polygon points="263.6,359.6 271.6,359.6 271.6,367.6 263.6,367.6" fill="rgb(255,255,255)"/>
<polygon points="107.6,367.6 115.6,367.6 115.6,375.6 107.6,375.6" fill="rgb(230,127,0)"/><text xml:space="preserve" x="111.6" y="374.433" font-family="Calibri" font-size="7.5" fill="rgb(0,0,0)" text-anchor="middle">4</text>
<polygon points="115.6,367.6 123.6,367.6 123.6,375.6 115.6,375.6" fill="rgb(205,0,0)"/><text xml:space="preserve" x="119.6" y="374.433" font-family="Calibri" font-size="7.5" fill="rgb(255,255,255)" text-anchor="middle">5</text>
<polygon points="123.6,367.6 131.6,367.6 131.6,375.6 123.6,375.6" fill="rgb(205,0,0)"/><text xml:space="preserve" x="127.6" y="374.433" font-family="Calibri" font-size="7.5" fill="rgb(255,255,255)" text-anchor="middle">5</text>
<polygon points="131.6,367.6 139.6,367.6 139.6,375.6 131.6,375.6" fill="rgb(205,0,0)"/><text xml:space="preserve" x="135.6" y="374.433" font-family="Calibri" font-size="7.5" fill="rgb(255,255,255)" text-anchor="middle">5</text>
<polygon points="139.6,367.6 147.6,367.6 147.6,375.6 139.6,375.6" fill="rgb(205,0,0)"/><text xml:space="preserve" x="143.6" y="374.433" font-family="Calibri" font-size="7.5" fill="rgb(255,255,255)" text-anchor="middle">5</text>
<polygon points="157.6,367.6 165.6,367.6 165.6,375.6 157.6,375.6" fill="rgb(252,194,1)"/>
<polygon points="165.6,367.6 173.6,367.6 173.6,375.6 165.6,375.6" fill="rgb(252,194,1)"/>
<polygon points="173.6,367.6 181.6,367.6 181.6,375.6 173.6,375.6" fill="rgb(252,194,1)"/>
<polygon points="181.6,367.6 189.6,367.6 189.6,375.6 181.6,375.6" fill="rgb(252,194,1)"/>
<polygon points="189.6,367.6 197.6,367.6 197.6,375.6 189.6,375.6" fill="rgb(252,194,1)"/>
<polygon points="207.6,367.6 215.6,367.6 215.6,375.6 207.6,375.6" fill="rgb(255,255,255)"/>
<polygon points="215.6,367.6 223.6,367.6 223.6,375.6 215.6,375.6" fill="rgb(255,255,255)"/>
<polygon points="223.6,367.6 231.6,367.6 231.6,375.6 223.6,375.6" fill="rgb(255,255,255)"/>
<polygon points="231.6,367.6 239.6,367.6 239.6,375.6 231.6,375.6" fill="rgb(255,255,255)"/>
<polygon points="239.6,367.6 247.6,367.6 247.6,375.6 239.6,375.6" fill="rgb(255,255,255)"/>
<polygon points="247.6,367.6 255.6,367.6 255.6,375.6 247.6,375.6" fill="rgb(255,255,255)"/>
<polygon points="255.6,367.6 263.6,367.6 263.6,375.6 255.6,375.6" fill="rgb(255,255,255)"/>
<polygon points="263.6,367.6 271.6,367.6 271.6,375.6 263.6,375.6" fill="rgb(255,255,255)"/>
<polygon points="107.6,375.6 115.6,375.6 115.6,383.6 107.6,383.6" fill="rgb(230,127,0)"/><text xml:space="preserve" x="111.6" y="382.433" font-family="Calibri" font-size="7.5" fill="rgb(0,0,0)" text-anchor="middle">4</text>
<polygon points="115.6,375.6 123.6,375.6 123.6,383.6 115.6,383.6" fill="rgb(205,0,0)"/><text xml:space="preserve" x="119.6" y="382.433" font-family="Calibri" font-size="7.5" fill="rgb(255,255,255)" text-anchor="middle">5</text>
<polygon points="123.6,375.6 131.6,375.6 131.6,383.6 123.6,383.6" fill="rgb(205,0,0)"/><text xml:space="preserve" x="127.6" y="382.433" font-family="Calibri" font-size="7.5" fill="rgb(255,255,255)" text-anchor="middle">5</text>
<polygon points="131.6,375.6 139.6,375.6 139.6,383.6 131.6,383.6" fill="rgb(205,0,0)"/><text xml:space="preserve" x="135.6" y="382.433" font-family="Calibri" font-size="7.5" fill="rgb(255,255,255)" text-anchor="middle">5</text>
<polygon points="139.6,375.6 147.6,375.6 147.6,383.6 139.6,383.6" fill="rgb(205,0,0)"/><text xml:space="preserve" x="143.6" y="382.433" font-family="Calibri" font-size="7.5" fill="rgb(255,255,255)" text-anchor="middle">5</text>
<polygon points="157.6,375.6 165.6,375.6 165.6,383.6 157.6,383.6" fill="rgb(252,194,1)"/>
<polygon points="165.6,375.6 173.6,375.6 173.6,383.6 165.6,383.6" fill="rgb(252,194,1)"/>
<polygon points="173.6,375.6 181.6,375.6 181.6,383.6 173.6,383.6" fill="rgb(252,194,1)"/>
<polygon points="181.6,375.6 189.6,375.6 189.6,383.6 181.6,383.6" fill="rgb(252,194,1)"/>
<polygon points="189.6,375.6 197.6,375.6 197.6,383.6 189.6,383.6" fill="rgb(252,194,1)"/>
<polygon points="207.6,375.6 215.6,375.6 215.6,383.6 207.6,383.6" fill="rgb(255,255,255)"/>
<polygon points="215.6,375.6 223.6,375.6 223.6,383.6 215.6,383.6" fill="rgb(255,255,255)"/>
<polygon points="223.6,375.6 231.6,375.6 231.6,383.6 223.6,383.6" fill="rgb(255,255,255)"/>
<polygon points="231.6,375.6 239.6,375.6 239.6,383.6 231.6,383.6" fill="rgb(255,255,255)"/>
<polygon points="239.6,375.6 247.6,375.6 247.6,383.6 239.6,383.6" fill="rgb(255,255,255)"/>
<polygon points="247.6,375.6 255.6,375.6 255.6,383.6 247.6,383.6" fill="rgb(255,255,255)"/>
<polygon points="255.6,375.6 263.6,375.6 263.6,383.6 255.6,383.6" fill="rgb(255,255,255)"/>
<polygon points="263.6,375.6 271.6,375.6 271.6,383.6 263.6,383.6" fill="rgb(255,255,255)"/>
<polygon points="107.6,383.6 115.6,383.6 115.6,391.6 107.6,391.6" fill="rgb(230,127,0)"/><text xml:space="preserve" x="111.6" y="390.433" font-family="Calibri" font-size="7.5" fill="rgb(0,0,0)" text-anchor="middle">4</text>
<polygon points="115.6,383.6 123.6,383.6 123.6,391.6 115.6,391.6" fill="rgb(205,0,0)"/><text xml:space="preserve" x="119.6" y="390.433" font-family="Calibri" font-size="7.5" fill="rgb(255,255,255)" text-anchor="middle">5</text>
<polygon points="123.6,383.6 131.6,383.6 131.6,391.6 123.6,391.6" fill="rgb(205,0,0)"/><text xml:space="preserve" x="127.6" y="390.433" font-family="Calibri" font-size="7.5" fill="rgb(255,255,255)" text-anchor="middle">5</text>
<polygon points="131.6,383.6 139.6,383.6 139.6,391.6 131.6,391.6" fill="rgb(205,0,0)"/><text xml:space="preserve" x="135.6" y="390.433" font-family="Calibri" font-size="7.5" fill="rgb(255,255,255)" text-anchor="middle">5</text>
<polygon points="139.6,383.6 147.6,383.6 147.6,391.6 139.6,391.6" fill="rgb(205,0,0)"/><text xml:space="preserve" x="143.6" y="390.433" font-family="Calibri" font-size="7.5" fill="rgb(255,255,255)" text-anchor="middle">5</text>
<polygon points="157.6,383.6 165.6,383.6 165.6,391.6 157.6,391.6" fill="rgb(252,194,1)"/>
<polygon points="165.6,383.6 173.6,383.6 173.6,391.6 165.6,391.6" fill="rgb(252,194,1)"/>
<polygon points="173.6,383.6 181.6,383.6 181.6,391.6 173.6,391.6" fill="rgb(252,194,1)"/>
<polygon points="181.6,383.6 189.6,383.6 189.6,391.6 181.6,391.6" fill="rgb(252,194,1)"/>
<polygon points="189.6,383.6 197.6,383.6 197.6,391.6 189.6,391.6" fill="rgb(252,194,1)"/>
<polygon points="207.6,383.6 215.6,383.6 215.6,391.6 207.6,391.6" fill="rgb(255,255,255)"/>
<polygon points="215.6,383.6 223.6,383.6 223.6,391.6 215.6,391.6" fill="rgb(255,255,255)"/>
<polygon points="223.6,383.6 231.6,383.6 231.6,391.6 223.6,391.6" fill="rgb(255,255,255)"/>
<polygon points="231.6,383.6 239.6,383.6 239.6,391.6 231.6,391.6" fill="rgb(255,255,255)"/>
<polygon points="239.6,383.6 247.6,383.6 247.6,391.6 239.6,391.6" fill="rgb(255,255,255)"/>
<polygon points="247.6,383.6 255.6,383.6 255.6,391.6 247.6,391.6" fill="rgb(255,255,255)"/>
<polygon points="255.6,383.6 263.6,383.6 263.6,391.6 255.6,391.6" fill="rgb(255,255,255)"/>
<polygon points="263.6,383.6 271.6,383.6 271.6,391.6 263.6,391.6" fill="rgb(255,255,255)"/>
<polygon points="107.6,391.6 115.6,391.6 115.6,399.6 107.6,399.6" fill="rgb(230,127,0)"/><text xml:space="preserve" x="111.6" y="398.433" font-family="Calibri" font-size="7.5" fill="rgb(0,0,0)" text-anchor="middle">4</text>
<polygon points="115.6,391.6 123.6,391.6 123.6,399.6 115.6,399.6" fill="rgb(205,0,0)"/><text xml:space="preserve" x="119.6" y="398.433" font-family="Calibri" font-size="7.5" fill="rgb(255,255,255)" text-anchor="middle">5</text>
<polygon points="123.6,391.6 131.6,391.6 131.6,399.6 123.6,399.6" fill="rgb(205,0,0)"/><text xml:space="preserve" x="127.6" y="398.433" font-family="Calibri" font-size="7.5" fill="rgb(255,255,255)" text-anchor="middle">5</text>
<polygon points="131.6,391.6 139.6,391.6 139.6,399.6 131.6,399.6" fill="rgb(205,0,0)"/><text xml:space="preserve" x="135.6" y="398.433" font-family="Calibri" font-size="7.5" fill="rgb(255,255,255)" text-anchor="middle">5</text>
<polygon points="139.6,391.6 147.6,391.6 147.6,399.6 139.6,399.6" fill="rgb(205,0,0)"/><text xml:space="preserve" x="143.6" y="398.433" font-family="Calibri" font-size="7.5" fill="rgb(255,255,255)" text-anchor="middle">5</text>
<polygon points="157.6,391.6 165.6,391.6 165.6,399.6 157.6,399.6" fill="rgb(252,194,1)"/>
<polygon points="165.6,391.6 173.6,391.6 173.6,399.6 165.6,399.6" fill="rgb(252,194,1)"/>
<polygon points="173.6,391.6 181.6,391.6 181.6,399.6 173.6,399.6" fill="rgb(252,194,1)"/>
<polygon points="181.6,391.6 189.6,391.6 189.6,399.6 181.6,399.6" fill="rgb(252,194,1)"/>
<polygon points="189.6,391.6 197.6,391.6 197.6,399.6 189.6,399.6" fill="rgb(252,194,1)"/>
<polygon points="207.6,391.6 215.6,391.6 215.6,399.6 207.6,399.6" fill="rgb(255,255,255)"/>
<polygon points="215.6,391.6 223.6,391.6 223.6,399.6 215.6,399.6" fill="rgb(255,255,255)"/>
<polygon points="223.6,391.6 231.6,391.6 231.6,399.6 223.6,399.6" fill="rgb(255,255,255)"/>
<polygon points="231.6,391.6 239.6,391.6 239.6,399.6 231.6,399.6" fill="rgb(255,255,255)"/>
<polygon points="239.6,391.6 247.6,391.6 247.6,399.6 239.6,399.6" fill="rgb(255,255,255)"/>
<polygon points="247.6,391.6 255.6,391.6 255.6,399.6 247.6,399.6" fill="rgb(255,255,255)"/>
<polygon points="255.6,391.6 263.6,391.6 263.6,399.6 255.6,399.6" fill="rgb(255,255,255)"/>
<polygon points="263.6,391.6 271.6,391.6 271.6,399.6 263.6,399.6" fill="rgb(205,0,205)"/>
<polygon points="107.6,399.6 115.6,399.6 115.6,407.6 107.6,407.6" fill="rgb(230,127,0)"/><text xml:space="preserve" x="111.6" y="406.433" font-family="Calibri" font-size="7.5" fill="rgb(0,0,0)" text-anchor="middle">4</text>
<polygon points="115.6,399.6 123.6,399.6 123.6,407.6 115.6,407.6" fill="rgb(205,0,0)"/><text xml:space="preserve" x="119.6" y="406.433" font-family="Calibri" font-size="7.5" fill="rgb(255,255,255)" text-anchor="middle">5</text>
<polygon points="123.6,399.6 131.6,399.6 131.6,407.6 123.6,407.6" fill="rgb(205,0,0)"/><text xml:space="preserve" x="127.6" y="406.433" font-family="Calibri" font-size="7.5" fill="rgb(255,255,255)" text-anchor="middle">5</text>
<polygon points="131.6,399.6 139.6,399.6 139.6,407.6 131.6,407.6" fill="rgb(205,0,0)"/><text xml:space="preserve" x="135.6" y="406.433" font-family="Calibri" font-size="7.5" fill="rgb(255,255,255)" text-anchor="middle">5</text>
<polygon points="139.6,399.6 147.6,399.6 147.6,407.6 139.6,407.6" fill="rgb(205,0,0)"/><text xml:space="preserve" x="143.6" y="406.433" font-family="Calibri" font-size="7.5" fill="rgb(255,255,255)" text-anchor="middle">5</text>
<polygon points="157.6,399.6 165.6,399.6 165.6,407.6 157.6,407.6" fill="rgb(252,194,1)"/>
<polygon points="165.6,399.6 173.6,399.6 173.6,407.6 165.6,407.6" fill="rgb(252,194,1)"/>
<polygon points="173.6,399.6 181.6,399.6 181.6,407.6 173.6,407.6" fill="rgb(252,194,1)"/>
<polygon points="181.6,399.6 189.6,399.6 189.6,407.6 181.6,407.6" fill="rgb(193,201,42)"/>
<polygon points="189.6,399.6 197.6,399.6 197.6,407.6 189.6,407.6" fill="rgb(252,194,1)"/>
<polygon points="207.6,399.6 215.6,399.6 215.6,407.6 207.6,407.6" fill="rgb(255,255,255)"/>
<polygon points="215.6,399.6 223.6,399.6 223.6,407.6 215.6,407.6" fill="rgb(255,255,255)"/>
<polygon points="223.6,399.6 231.6,399.6 231.6,407.6 223.6,407.6" fill="rgb(255,255,255)"/>
<polygon points="231.6,399.6 239.6,399.6 239.6,407.6 231.6,407.6" fill="rgb(255,255,255)"/>
<polygon points="239.6,399.6 247.6,399.6 247.6,407.6 239.6,407.6" fill="rgb(255,255,255)"/>
<polygon points="247.6,399.6 255.6,399.6 255.6,407.6 247.6,407.6" fill="rgb(255,255,255)"/>
<polygon points="255.6,399.6 263.6,399.6 263.6,407.6 255.6,407.6" fill="rgb(255,255,255)"/>
<polygon points="263.6,399.6 271.6,399.6 271.6,407.6 263.6,407.6" fill="rgb(255,255,255)"/>
<polygon points="107.6,335.6 147.6,335.6 147.6,407.6 107.6,407.6" fill="none" stroke="black" stroke-width="1"/>
<polygon points="157.6,335.6 197.6,335.6 197.6,407.6 157.6,407.6" fill="none" stroke="black" stroke-width="1"/>
<polygon points="207.6,335.6 271.6,335.6 271.6,407.6 207.6,407.6" fill="none" stroke="black" stroke-width="1"/>
<text xml:space="preserve" x="145.8" y="440.6" font-family="Calibri" font-size="8" text-anchor="middle">ClusterAssignment</text>
<polygon points="95.8,447.6 115.8,447.6 115.8,467.6 95.8,467.6" fill="rgb(0,205,0)"/><polygon points="95.8,447.6 115.8,447.6 115.8,467.6 95.8,467.6" fill="none" stroke="black" stroke-width="1"/><text xml:space="preserve" x="105.8" y="460.433" font-family="Calibri" font-size="7.5" fill="rgb(255,255,255)" text-anchor="middle">1.0</text>
<polygon points="115.8,447.6 135.8,447.6 135.8,467.6 115.8,467.6" fill="rgb(127,230,0)"/><polygon points="115.8,447.6 135.8,447.6 135.8,467.6 115.8,467.6" fill="none" stroke="black" stroke-width="1"/><text xml:space="preserve" x="125.8" y="460.433" font-family="Calibri" font-size="7.5" fill="rgb(0,0,0)" text-anchor="middle">2.0</text>
<polygon points="135.8,447.6 155.8,447.6 155.8,467.6 135.8,467.6" fill="rgb(255,255,0)"/><polygon points="135.8,447.6 155.8,447.6 155.8,467.6 135.8,467.6" fill="none" stroke="black" stroke-width="1"/><text xml:space="preserve" x="145.8" y="460.433" font-family="Calibri" font-size="7.5" fill="rgb(0,0,0)" text-anchor="middle">3.0</text>
<polygon points="155.8,447.6 175.8,447.6 175.8,467.6 155.8,467.6" fill="rgb(230,127,0)"/><polygon points="155.8,447.6 175.8,447.6 175.8,467.6 155.8,467.6" fill="none" stroke="black" stroke-width="1"/><text xml:space="preserve" x="165.8" y="460.433" font-family="Calibri" font-size="7.5" fill="rgb(0,0,0)" text-anchor="middle">4.0</text>
<polygon points="175.8,447.6 195.8,447.6 195.8,467.6 175.8,467.6" fill="rgb(205,0,0)"/><polygon points="175.8,447.6 195.8,447.6 195.8,467.6 175.8,467.6" fill="none" stroke="black" stroke-width="1"/><text xml:space="preserve" x="185.8" y="460.433" font-family="Calibri" font-size="7.5" fill="rgb(255,255,255)" text-anchor="middle">5.0</text>
<text xml:space="preserve" x="145.8" y="500.6" font-family="Calibri" font-size="8" text-anchor="middle">Expression</text>
<polygon points="95.8,507.6 115.8,507.6 115.8,527.6 95.8,527.6" fill="rgb(0,27,135)"/><polygon points="95.8,507.6 115.8,507.6 115.8,527.6 95.8,527.6" fill="none" stroke="black" stroke-width="1"/><text xml:space="preserve" x="105.8" y="520.433" font-family="Calibri" font-size="7.5" fill="rgb(255,255,255)" text-anchor="middle">0.0</text>
<polygon points="115.8,507.6 135.8,507.6 135.8,527.6 115.8,527.6" fill="rgb(24,123,140)"/><polygon points="115.8,507.6 135.8,507.6 135.8,527.6 115.8,527.6" fill="none" stroke="black" stroke-width="1"/><text xml:space="preserve" x="125.8" y="520.433" font-family="Calibri" font-size="7.5" fill="rgb(255,255,255)" text-anchor="middle">0.8</text>
<polygon points="135.8,507.6 155.8,507.6 155.8,527.6 135.8,527.6" fill="rgb(49,219,146)"/><polygon points="135.8,507.6 155.8,507.6 155.8,527.6 135.8,527.6" fill="none" stroke="black" stroke-width="1"/><text xml:space="preserve" x="145.8" y="520.433" font-family="Calibri" font-size="7.5" fill="rgb(0,0,0)" text-anchor="middle">1.5</text>
<polygon points="155.8,507.6 175.8,507.6 175.8,527.6 155.8,527.6" fill="rgb(150,206,73)"/><polygon points="155.8,507.6 175.8,507.6 175.8,527.6 155.8,527.6" fill="none" stroke="black" stroke-width="1"/><text xml:space="preserve" x="165.8" y="520.433" font-family="Calibri" font-size="7.5" fill="rgb(0,0,0)" text-anchor="middle">2.2</text>
<polygon points="175.8,507.6 195.8,507.6 195.8,527.6 175.8,527.6" fill="rgb(252,194,1)"/><polygon points="175.8,507.6 195.8,507.6 195.8,527.6 175.8,527.6" fill="none" stroke="black" stroke-width="1"/><text xml:space="preserve" x="185.8" y="520.433" font-family="Calibri" font-size="7.5" fill="rgb(0,0,0)" text-anchor="middle">3.0</text>
<text xml:space="preserve" x="145.8" y="560.6" font-family="Calibri" font-size="8" text-anchor="middle">PANTHERclass</text>
<polygon points="95.8,567.6 115.8,567.6 115.8,587.6 95.8,587.6" fill="rgb(255,255,255)"/><polygon points="95.8,567.6 115.8,567.6 115.8,587.6 95.8,587.6" fill="none" stroke="black" stroke-width="1"/><text xml:space="preserve" x="105.8" y="580.433" font-family="Calibri" font-size="7.5" fill="rgb(0,0,0)" text-anchor="middle">0.0</text>
<polygon points="115.8,567.6 135.8,567.6 135.8,587.6 115.8,587.6" fill="rgb(242,191,242)"/><polygon points="115.8,567.6 135.8,567.6 135.8,587.6 115.8,587.6" fill="none" stroke="black" stroke-width="1"/><text xml:space="preserve" x="125.8" y="580.433" font-family="Calibri" font-size="7.5" fill="rgb(0,0,0)" text-anchor="middle">0.2</text>
<polygon points="135.8,567.6 155.8,567.6 155.8,587.6 135.8,587.6" fill="rgb(230,127,230)"/><polygon points="135.8,567.6 155.8,567.6 155.8,587.6 135.8,587.6" fill="none" stroke="black" stroke-width="1"/><text xml:space="preserve" x="145.8" y="580.433" font-family="Calibri" font-size="7.5" fill="rgb(0,0,0)" text-anchor="middle">0.5</text>
<polygon points="155.8,567.6 175.8,567.6 175.8,587.6 155.8,587.6" fill="rgb(217,63,217)"/><polygon points="155.8,567.6 175.8,567.6 175.8,587.6 155.8,587.6" fill="none" stroke="black" stroke-width="1"/><text xml:space="preserve" x="165.8" y="580.433" font-family="Calibri" font-size="7.5" fill="rgb(255,255,255)" text-anchor="middle">0.8</text>
<polygon points="175.8,567.6 195.8,567.6 195.8,587.6 175.8,587.6" fill="rgb(205,0,205)"/><polygon points="175.8,567.6 195.8,567.6 195.8,587.6 175.8,587.6" fill="none" stroke="black" stroke-width="1"/><text xml:space="preserve" x="185.8" y="580.433" font-family="Calibri" font-size="7.5" fill="rgb(255,255,255)" text-anchor="middle">1.0</text>
</svg>
