<?xml version="1.0" standalone="no"?><!DOCTYPE svg PUBLIC "-//W3C//DTD SVG 1.1//EN" "http://www.w3.org/Graphics/SVG/1.1/DTD/svg11.dtd">
<svg width="277.5" height="559.6" version="1.1" xmlns="http://www.w3.org/2000/svg">
<text xml:space="preserve" x="89.5" y="342.6" font-family="Calibri" font-size="8" text-anchor="end">NTRK2</text>
<text xml:space="preserve" x="89.5" y="350.6" font-family="Calibri" font-size="8" text-anchor="end">PTPRZ1</text>
<text xml:space="preserve" x="89.5" y="358.6" font-family="Calibri" font-size="8" text-anchor="end">PTCHD4</text>
<text xml:space="preserve" x="100.5" y="331.6" font-family="Calibri" font-size="8" transform="rotate(270 100.5 331.6)">c2</text>
<text xml:space="preserve" x="108.5" y="331.6" font-family="Calibri" font-size="8" transform="rotate(270 108.5 331.6)">c4</text>
<text xml:space="preserve" x="116.5" y="331.6" font-family="Calibri" font-size="8" transform="rotate(270 116.5 331.6)">c3</text>
<text xml:space="preserve" x="124.5" y="331.6" font-family="Calibri" font-size="8" transform="rotate(270 124.5 331.6)">c1</text>
<text xml:space="preserve" x="132.5" y="331.6" font-family="Calibri" font-size="8" transform="rotate(270 132.5 331.6)">c5</text>
<text xml:space="preserve" x="150.5" y="331.6" font-family="Calibri" font-size="8" transform="rotate(270 150.5 331.6)">c2_mean</text>
<text xml:space="preserve" x="158.5" y="331.6" font-family="Calibri" font-size="8" transform="rotate(270 158.5 331.6)">c4_mean</text>
<text xml:space="preserve" x="166.5" y="331.6" font-family="Calibri" font-size="8" transform="rotate(270 166.5 331.6)">c3_mean</text>
<text xml:space="preserve" x="174.5" y="331.6" font-family="Calibri" font-size="8" transform="rotate(270 174.5 331.6)">c1_mean</text>
<text xml:space="preserve" x="182.5" y="331.6" font-family="Calibri" font-size="8" transform="rotate(270 182.5 331.6)">c5_mean</text>
<text xml:space="preserve" x="200.5" y="331.6" font-family="Calibri" font-size="8" transform="rotate(270 200.5 331.6)">transcription_factor</text>
<text xml:space="preserve" x="208.5" y="331.6" font-family="Calibri" font-size="8" transform="rotate(270 208.5 331.6)">transmembrane_signal_receptor</text>
<text xml:space="preserve" x="216.5" y="331.6" font-family="Calibri" font-size="8" transform="rotate(270 216.5 331.6)">growth_factor</text>
<text xml:space="preserve" x="224.5" y="331.6" font-family="Calibri" font-size="8" transform="rotate(270 224.5 331.6)">peptide_hormone</text>
<text xml:space="preserve" x="232.5" y="331.6" font-family="Calibri" font-size="8" transform="rotate(270 232.5 331.6)">cytoskeletal_protein</text>
<text xml:space="preserve" x="240.5" y="331.6" font-family="Calibri" font-size="8" transform="rotate(270 240.5 331.6)">ion_channel</text>
<text xml:space="preserve" x="248.5" y="331.6" font-family="Calibri" font-size="8" transform="rotate(270 248.5 331.6)">integrin</text>
<text xml:space="preserve" x="256.5" y="331.6" font-family="Calibri" font-size="8" transform="rotate(270 256.5 331.6)">extracellular_matrix_protein</text>
<polygon points="93.5,335.6 101.5,335.6 101.5,343.6 93.5,343.6" fill="rgb(127,230,0)"/><text xml:space="preserve" x="97.5" y="342.433" font-family="Calibri" font-size="7.5" fill="rgb(0,0,0)" text-anchor="middle">2</text>
<polygon points="101.5,335.6 109.5,335.6 109.5,343.6 101.5,343.6" fill="rgb(255,255,0)"/><text xml:space="preserve" x="105.5" y="342.433" font-family="Calibri" font-size="7.5" fill="rgb(0,0,0)" text-anchor="middle">3</text>
<polygon points="109.5,335.6 117.5,335.6 117.5,343.6 109.5,343.6" fill="rgb(255,255,0)"/><text xml:space="preserve" x="113.5" y="342.433" font-family="Calibri" font-size="7.5" fill="rgb(0,0,0)" text-anchor="middle">3</text>
<polygon points="117.5,335.6 125.5,335.6 125.5,343.6 117.5,343.6" fill="rgb(230,127,0)"/><text xml:space="preserve" x="121.5" y="342.433" font-family="Calibri" font-size="7.5" fill="rgb(0,0,0)" text-anchor="middle">4</text>
<polygon points="125.5,335.6 133.5,335.6 133.5,343.6 125.5,343.6" fill="rgb(127,230,0)"/><text xml:space="preserve" x="129.5" y="342.433" font-family="Calibri" font-size="7.5" fill="rgb(0,0,0)" text-anchor="middle">2</text>
<polygon points="143.5,335.6 151.5,335.6 151.5,343.6 143.5,343.6" fill="rgb(35,167,143)"/>
<polygon points="151.5,335.6 159.5,335.6 159.5,343.6 151.5,343.6" fill="rgb(50,218,145)"/>
<polygon points="159.5,335.6 167.5,335.6 167.5,343.6 159.5,343.6" fill="rgb(73,216,128)"/>
<polygon points="167.5,335.6 175.5,335.6 175.5,343.6 167.5,343.6" fill="rgb(65,217,134)"/>
<polygon points="175.5,335.6 183.5,335.6 183.5,343.6 175.5,343.6" fill="rgb(26,131,141)"/>
<polygon points="193.5,335.6 201.5,335.6 201.5,343.6 193.5,343.6" fill="rgb(255,255,255)"/>
<polygon points="201.5,335.6 209.5,335.6 209.5,343.6 201.5,343.6" fill="rgb(205,0,205)"/>
<polygon points="209.5,335.6 217.5,335.6 217.5,343.6 209.5,343.6" fill="rgb(255,255,255)"/>
<polygon points="217.5,335.6 225.5,335.6 225.5,343.6 217.5,343.6" fill="rgb(255,255,255)"/>
<polygon points="225.5,335.6 233.5,335.6 233.5,343.6 225.5,343.6" fill="rgb(255,255,255)"/>
<polygon points="233.5,335.6 241.5,335.6 241.5,343.6 233.5,343.6" fill="rgb(255,255,255)"/>
<polygon points="241.5,335.6 249.5,335.6 249.5,343.6 241.5,343.6" fill="rgb(255,255,255)"/>
<polygon points="249.5,335.6 257.5,335.6 257.5,343.6 249.5,343.6" fill="rgb(255,255,255)"/>
<polygon points="93.5,343.6 101.5,343.6 101.5,351.6 93.5,351.6" fill="rgb(127,230,0)"/><text xml:space="preserve" x="97.5" y="350.433" font-family="Calibri" font-size="7.5" fill="rgb(0,0,0)" text-anchor="middle">2</text>
<polygon points="101.5,343.6 109.5,343.6 109.5,351.6 101.5,351.6" fill="rgb(255,255,0)"/><text xml:space="preserve" x="105.5" y="350.433" font-family="Calibri" font-size="7.5" fill="rgb(0,0,0)" text-anchor="middle">3</text>
<polygon points="109.5,343.6 117.5,343.6 117.5,351.6 109.5,351.6" fill="rgb(255,255,0)"/><text xml:space="preserve" x="113.5" y="350.433" font-family="Calibri" font-size="7.5" fill="rgb(0,0,0)" text-anchor="middle">3</text>
<polygon points="117.5,343.6 125.5,343.6 125.5,351.6 117.5,351.6" fill="rgb(230,127,0)"/><text xml:space="preserve" x="121.5" y="350.433" font-family="Calibri" font-size="7.5" fill="rgb(0,0,0)" text-anchor="middle">4</text>
<polygon points="125.5,343.6 133.5,343.6 133.5,351.6 125.5,351.6" fill="rgb(127,230,0)"/><text xml:space="preserve" x="129.5" y="350.433" font-family="Calibri" font-size="7.5" fill="rgb(0,0,0)" text-anchor="middle">2</text>
<polygon points="143.5,343.6 151.5,343.6 151.5,351.6 143.5,351.6" fill="rgb(26,129,140)"/>
<polygon points="151.5,343.6 159.5,343.6 159.5,351.6 151.5,351.6" fill="rgb(62,217,136)"/>
<polygon points="159.5,343.6 167.5,343.6 167.5,351.6 159.5,351.6" fill="rgb(48,216,145)"/>
<polygon points="167.5,343.6 175.5,343.6 175.5,351.6 167.5,351.6" fill="rgb(151,206,72)"/>
<polygon points="175.5,343.6 183.5,343.6 183.5,351.6 175.5,351.6" fill="rgb(27,135,141)"/>
<polygon points="193.5,343.6 201.5,343.6 201.5,351.6 193.5,351.6" fill="rgb(255,255,255)"/>
<polygon points="201.5,343.6 209.5,343.6 209.5,351.6 201.5,351.6" fill="rgb(255,255,255)"/>
<polygon points="209.5,343.6 217.5,343.6 217.5,351.6 209.5,351.6" fill="rgb(255,255,255)"/>
<polygon points="217.5,343.6 225.5,343.6 225.5,351.6 217.5,351.6" fill="rgb(255,255,255)"/>
<polygon points="225.5,343.6 233.5,343.6 233.5,351.6 225.5,351.6" fill="rgb(255,255,255)"/>
<polygon points="233.5,343.6 241.5,343.6 241.5,351.6 233.5,351.6" fill="rgb(255,255,255)"/>
<polygon points="241.5,343.6 249.5,343.6 249.5,351.6 241.5,351.6" fill="rgb(255,255,255)"/>
<polygon points="249.5,343.6 257.5,343.6 257.5,351.6 249.5,351.6" fill="rgb(255,255,255)"/>
<polygon points="93.5,351.6 101.5,351.6 101.5,359.6 93.5,359.6" fill="rgb(127,230,0)"/><text xml:space="preserve" x="97.5" y="358.433" font-family="Calibri" font-size="7.5" fill="rgb(0,0,0)" text-anchor="middle">2</text>
<polygon points="101.5,351.6 109.5,351.6 109.5,359.6 101.5,359.6" fill="rgb(255,255,0)"/><text xml:space="preserve" x="105.5" y="358.433" font-family="Calibri" font-size="7.5" fill="rgb(0,0,0)" text-anchor="middle">3</text>
<polygon points="109.5,351.6 117.5,351.6 117.5,359.6 109.5,359.6" fill="rgb(255,255,0)"/><text xml:space="preserve" x="113.5" y="358.433" font-family="Calibri" font-size="7.5" fill="rgb(0,0,0)" text-anchor="middle">3</text>
<polygon points="117.5,351.6 125.5,351.6 125.5,359.6 117.5,359.6" fill="rgb(230,127,0)"/><text xml:space="preserve" x="121.5" y="358.433" font-family="Calibri" font-size="7.5" fill="rgb(0,0,0)" text-anchor="middle">4</text>
<polygon points="125.5,351.6 133.5,351.6 133.5,359.6 125.5,359.6" fill="rgb(127,230,0)"/><text xml:space="preserve" x="129.5" y="358.433" font-family="Calibri" font-size="7.5" fill="rgb(0,0,0)" text-anchor="middle">2</text>
<polygon points="143.5,351.6 151.5,351.6 151.5,359.6 143.5,359.6" fill="rgb(39,183,143)"/>
<polygon points="151.5,351.6 159.5,351.6 159.5,359.6 151.5,359.6" fill="rgb(41,189,144)"/>
<polygon points="159.5,351.6 167.5,351.6 167.5,359.6 159.5,359.6" fill="rgb(77,215,125)"/>
<polygon points="167.5,351.6 175.5,351.6 175.5,359.6 167.5,359.6" fill="rgb(112,211,100)"/>
<polygon points="175.5,351.6 183.5,351.6 183.5,359.6 175.5,359.6" fill="rgb(22,116,140)"/>
<polygon points="193.5,351.6 201.5,351.6 201.5,359.6 193.5,359.6" fill="rgb(255,255,255)"/>
<polygon points="201.5,351.6 209.5,351.6 209.5,359.6 201.5,359.6" fill="rgb(255,255,255)"/>
<polygon points="209.5,351.6 217.5,351.6 217.5,359.6 209.5,359.6" fill="rgb(255,255,255)"/>
<polygon points="217.5,351.6 225.5,351.6 225.5,359.6 217.5,359.6" fill="rgb(255,255,255)"/>
<polygon points="225.5,351.6 233.5,351.6 233.5,359.6 225.5,359.6" fill="rgb(255,255,255)"/>
<polygon points="233.5,351.6 241.5,351.6 241.5,359.6 233.5,359.6" fill="rgb(255,255,255)"/>
<polygon points="241.5,351.6 249.5,351.6 249.5,359.6 241.5,359.6" fill="rgb(255,255,255)"/>
<polygon points="249.5,351.6 257.5,351.6 257.5,359.6 249.5,359.6" fill="rgb(255,255,255)"/>
<polygon points="93.5,335.6 133.5,335.6 133.5,359.6 93.5,359.6" fill="none" stroke="black" stroke-width="1"/>
<polygon points="143.5,335.6 183.5,335.6 183.5,359.6 143.5,359.6" fill="none" stroke="black" stroke-width="1"/>
<polygon points="193.5,335.6 257.5,335.6 257.5,359.6 193.5,359.6" fill="none" stroke="black" stroke-width="1"/>
<text xml:space="preserve" x="138.75" y="392.6" font-family="Calibri" font-size="8" text-anchor="middle">ClusterAssignment</text>
<polygon points="88.75,399.6 108.75,399.6 108.75,419.6 88.75,419.6" fill="rgb(0,205,0)"/><polygon points="88.75,399.6 108.75,399.6 108.75,419.6 88.75,419.6" fill="none" stroke="black" stroke-width="1"/><text xml:space="preserve" x="98.75" y="412.433" font-family="Calibri" font-size="7.5" fill="rgb(255,255,255)" text-anchor="middle">1.0</text>
<polygon points="108.75,399.6 128.75,399.6 128.75,419.6 108.75,419.6" fill="rgb(127,230,0)"/><polygon points="108.75,399.6 128.75,399.6 128.75,419.6 108.75,419.6" fill="none" stroke="black" stroke-width="1"/><text xml:space="preserve" x="118.75" y="412.433" font-family="Calibri" font-size="7.5" fill="rgb(0,0,0)" text-anchor="middle">2.0</text>
<polygon points="128.75,399.6 148.75,399.6 148.75,419.6 128.75,419.6" fill="rgb(255,255,0)"/><polygon points="128.75,399.6 148.75,399.6 148.75,419.6 128.75,419.6" fill="none" stroke="black" stroke-width="1"/><text xml:space="preserve" x="138.75" y="412.433" font-family="Calibri" font-size="7.5" fill="rgb(0,0,0)" text-anchor="middle">3.0</text>
<polygon points="148.75,399.6 168.75,399.6 168.75,419.6 148.75,419.6" fill="rgb(230,127,0)"/><polygon points="148.75,399.6 168.75,399.6 168.75,419.6 148.75,419.6" fill="none" stroke="black" stroke-width="1"/><text xml:space="preserve" x="158.75" y="412.433" font-family="Calibri" font-size="7.5" fill="rgb(0,0,0)" text-anchor="middle">4.0</text>
<polygon points="168.75,399.6 188.75,399.6 188.75,419.6 168.75,419.6" fill="rgb(205,0,0)"/><polygon points="168.75,399.6 188.75,399.6 188.75,419.6 168.75,419.6" fill="none" stroke="black" stroke-width="1"/><text xml:space="preserve" x="178.75" y="412.433" font-family="Calibri" font-size="7.5" fill="rgb(255,255,255)" text-anchor="middle">5.0</text>
<text xml:space="preserve" x="138.75" y="452.6" font-family="Calibri" font-size="8" text-anchor="middle">Expression</text>
<polygon points="88.75,459.6 108.75,459.6 108.75,479.6 88.75,479.6" fill="rgb(0,27,135)"/><polygon points="88.75,459.6 108.75,459.6 108.75,479.6 88.75,479.6" fill="none" stroke="black" stroke-width="1"/><text xml:space="preserve" x="98.75" y="472.433" font-family="Calibri" font-size="7.5" fill="rgb(255,255,255)" text-anchor="middle">0.0</text>
<polygon points="108.75,459.6 128.75,459.6 128.75,479.6 108.75,479.6" fill="rgb(24,123,140)"/><polygon points="108.75,459.6 128.75,459.6 128.75,479.6 108.75,479.6" fill="none" stroke="black" stroke-width="1"/><text xml:space="preserve" x="118.75" y="472.433" font-family="Calibri" font-size="7.5" fill="rgb(255,255,255)" text-anchor="middle">0.8</text>
<polygon points="128.75,459.6 148.75,459.6 148.75,479.6 128.75,479.6" fill="rgb(49,219,146)"/><polygon points="128.75,459.6 148.75,459.6 148.75,479.6 128.75,479.6" fill="none" stroke="black" stroke-width="1"/><text xml:space="preserve" x="138.75" y="472.433" font-family="Calibri" font-size="7.5" fill="rgb(0,0,0)" text-anchor="middle">1.5</text>
<polygon points="148.75,459.6 168.75,459.6 168.75,479.6 148.75,479.6" fill="rgb(150,206,73)"/><polygon points="148.75,459.6 168.75,459.6 168.75,479.6 148.75,479.6" fill="none" stroke="black" stroke-width="1"/><text xml:space="preserve" x="158.75" y="472.433" font-family="Calibri" font-size="7.5" fill="rgb(0,0,0)" text-anchor="middle">2.2</text>
<polygon points="168.75,459.6 188.75,459.6 188.75,479.6 168.75,479.6" fill="rgb(252,194,1)"/><polygon points="168.75,459.6 188.75,459.6 188.75,479.6 168.75,479.6" fill="none" stroke="black" stroke-width="1"/><text xml:space="preserve" x="178.75" y="472.433" font-family="Calibri" font-size="7.5" fill="rgb(0,0,0)" text-anchor="middle">3.0</text>
<text xml:space="preserve" x="138.75" y="512.6" font-family="Calibri" font-size="8" text-anchor="middle">PANTHERclass</text>
<polygon points="88.75,519.6 108.75,519.6 108.75,539.6 88.75,539.6" fill="rgb(255,255,255)"/><polygon points="88.75,519.6 108.75,519.6 108.75,539.6 88.75,539.6" fill="none" stroke="black" stroke-width="1"/><text xml:space="preserve" x="98.75" y="532.433" font-family="Calibri" font-size="7.5" fill="rgb(0,0,0)" text-anchor="middle">0.0</text>
<polygon points="108.75,519.6 128.75,519.6 128.75,539.6 108.75,539.6" fill="rgb(242,191,242)"/><polygon points="108.75,519.6 128.75,519.6 128.75,539.6 108.75,539.6" fill="none" stroke="black" stroke-width="1"/><text xml:space="preserve" x="118.75" y="532.433" font-family="Calibri" font-size="7.5" fill="rgb(0,0,0)" text-anchor="middle">0.2</text>
<polygon points="128.75,519.6 148.75,519.6 148.75,539.6 128.75,539.6" fill="rgb(230,127,230)"/><polygon points="128.75,519.6 148.75,519.6 148.75,539.6 128.75,539.6" fill="none" stroke="black" stroke-width="1"/><text xml:space="preserve" x="138.75" y="532.433" font-family="Calibri" font-size="7.5" fill="rgb(0,0,0)" text-anchor="middle">0.5</text>
<polygon points="148.75,519.6 168.75,519.6 168.75,539.6 148.75,539.6" fill="rgb(217,63,217)"/><polygon points="148.75,519.6 168.75,519.6 168.75,539.6 148.75,539.6" fill="none" stroke="black" stroke-width="1"/><text xml:space="preserve" x="158.75" y="532.433" font-family="Calibri" font-size="7.5" fill="rgb(255,255,255)" text-anchor="middle">0.8</text>
<polygon points="168.75,519.6 188.75,519.6 188.75,539.6 168.75,539.6" fill="rgb(205,0,205)"/><polygon points="168.75,519.6 188.75,519.6 188.75,539.6 168.75,539.6" fill="none" stroke="black" stroke-width="1"/><text xml:space="preserve" x="178.75" y="532.433" font-family="Calibri" font-size="7.5" fill="rgb(255,255,255)" text-anchor="middle">1.0</text>
</svg>
