<?xml version="1.0" standalone="no"?><!DOCTYPE svg PUBLIC "-//W3C//DTD SVG 1.1//EN" "http://www.w3.org/Graphics/SVG/1.1/DTD/svg11.dtd">
<svg width="276.9" height="559.6" version="1.1" xmlns="http://www.w3.org/2000/svg">
<text xml:space="preserve" x="88.9" y="342.6" font-family="Calibri" font-size="8" text-anchor="end">CDCA7L</text>
<text xml:space="preserve" x="88.9" y="350.6" font-family="Calibri" font-size="8" text-anchor="end">CTSV</text>
<text xml:space="preserve" x="88.9" y="358.6" font-family="Calibri" font-size="8" text-anchor="end">CDK2</text>
<text xml:space="preserve" x="99.9" y="331.6" font-family="Calibri" font-size="8" transform="rotate(270 99.9 331.6)">c2</text>
<text xml:space="preserve" x="107.9" y="331.6" font-family="Calibri" font-size="8" transform="rotate(270 107.9 331.6)">c4</text>
<text xml:space="preserve" x="115.9" y="331.6" font-family="Calibri" font-size="8" transform="rotate(270 115.9 331.6)">c3</text>
<text xml:space="preserve" x="123.9" y="331.6" font-family="Calibri" font-size="8" transform="rotate(270 123.9 331.6)">c1</text>
<text xml:space="preserve" x="131.9" y="331.6" font-family="Calibri" font-size="8" transform="rotate(270 131.9 331.6)">c5</text>
<text xml:space="preserve" x="149.9" y="331.6" font-family="Calibri" font-size="8" transform="rotate(270 149.9 331.6)">c2_mean</text>
<text xml:space="preserve" x="157.9" y="331.6" font-family="Calibri" font-size="8" transform="rotate(270 157.9 331.6)">c4_mean</text>
<text xml:space="preserve" x="165.9" y="331.6" font-family="Calibri" font-size="8" transform="rotate(270 165.9 331.6)">c3_mean</text>
<text xml:space="preserve" x="173.9" y="331.6" font-family="Calibri" font-size="8" transform="rotate(270 173.9 331.6)">c1_mean</text>
<text xml:space="preserve" x="181.9" y="331.6" font-family="Calibri" font-size="8" transform="rotate(270 181.9 331.6)">c5_mean</text>
<text xml:space="preserve" x="199.9" y="331.6" font-family="Calibri" font-size="8" transform="rotate(270 199.9 331.6)">transcription_factor</text>
<text xml:space="preserve" x="207.9" y="331.6" font-family="Calibri" font-size="8" transform="rotate(270 207.9 331.6)">transmembrane_signal_receptor</text>
<text xml:space="preserve" x="215.9" y="331.6" font-family="Calibri" font-size="8" transform="rotate(270 215.9 331.6)">growth_factor</text>
<text xml:space="preserve" x="223.9" y="331.6" font-family="Calibri" font-size="8" transform="rotate(270 223.9 331.6)">peptide_hormone</text>
<text xml:space="preserve" x="231.9" y="331.6" font-family="Calibri" font-size="8" transform="rotate(270 231.9 331.6)">cytoskeletal_protein</text>
<text xml:space="preserve" x="239.9" y="331.6" font-family="Calibri" font-size="8" transform="rotate(270 239.9 331.6)">ion_channel</text>
<text xml:space="preserve" x="247.9" y="331.6" font-family="Calibri" font-size="8" transform="rotate(270 247.9 331.6)">integrin</text>
<text xml:space="preserve" x="255.9" y="331.6" font-family="Calibri" font-size="8" transform="rotate(270 255.9 331.6)">extracellular_matrix_protein</text>
<polygon points="92.9,335.6 100.9,335.6 100.9,343.6 92.9,343.6" fill="rgb(127,230,0)"/><text xml:space="preserve" x="96.9" y="342.433" font-family="Calibri" font-size="7.5" fill="rgb(0,0,0)" text-anchor="middle">2</text>
<polygon points="100.9,335.6 108.9,335.6 108.9,343.6 100.9,343.6" fill="rgb(127,230,0)"/><text xml:space="preserve" x="104.9" y="342.433" font-family="Calibri" font-size="7.5" fill="rgb(0,0,0)" text-anchor="middle">2</text>
<polygon points="108.9,335.6 116.9,335.6 116.9,343.6 108.9,343.6" fill="rgb(127,230,0)"/><text xml:space="preserve" x="112.9" y="342.433" font-family="Calibri" font-size="7.5" fill="rgb(0,0,0)" text-anchor="middle">2</text>
<polygon points="116.9,335.6 124.9,335.6 124.9,343.6 116.9,343.6" fill="rgb(205,0,0)"/><text xml:space="preserve" x="120.9" y="342.433" font-family="Calibri" font-size="7.5" fill="rgb(255,255,255)" text-anchor="middle">5</text>
<polygon points="124.9,335.6 132.9,335.6 132.9,343.6 124.9,343.6" fill="rgb(205,0,0)"/><text xml:space="preserve" x="128.9" y="342.433" font-family="Calibri" font-size="7.5" fill="rgb(255,255,255)" text-anchor="middle">5</text>
<polygon points="142.9,335.6 150.9,335.6 150.9,343.6 142.9,343.6" fill="rgb(31,149,142)"/>
<polygon points="150.9,335.6 158.9,335.6 158.9,343.6 150.9,343.6" fill="rgb(21,111,139)"/>
<polygon points="158.9,335.6 166.9,335.6 166.9,343.6 158.9,343.6" fill="rgb(25,126,140)"/>
<polygon points="166.9,335.6 174.9,335.6 174.9,343.6 166.9,343.6" fill="rgb(230,196,16)"/>
<polygon points="174.9,335.6 182.9,335.6 182.9,343.6 174.9,343.6" fill="rgb(252,194,1)"/>
<polygon points="192.9,335.6 200.9,335.6 200.9,343.6 192.9,343.6" fill="rgb(255,255,255)"/>
<polygon points="200.9,335.6 208.9,335.6 208.9,343.6 200.9,343.6" fill="rgb(255,255,255)"/>
<polygon points="208.9,335.6 216.9,335.6 216.9,343.6 208.9,343.6" fill="rgb(255,255,255)"/>
<polygon points="216.9,335.6 224.9,335.6 224.9,343.6 216.9,343.6" fill="rgb(255,255,255)"/>
<polygon points="224.9,335.6 232.9,335.6 232.9,343.6 224.9,343.6" fill="rgb(255,255,255)"/>
<polygon points="232.9,335.6 240.9,335.6 240.9,343.6 232.9,343.6" fill="rgb(255,255,255)"/>
<polygon points="240.9,335.6 248.9,335.6 248.9,343.6 240.9,343.6" fill="rgb(255,255,255)"/>
<polygon points="248.9,335.6 256.9,335.6 256.9,343.6 248.9,343.6" fill="rgb(255,255,255)"/>
<polygon points="92.9,343.6 100.9,343.6 100.9,351.6 92.9,351.6" fill="rgb(127,230,0)"/><text xml:space="preserve" x="96.9" y="350.433" font-family="Calibri" font-size="7.5" fill="rgb(0,0,0)" text-anchor="middle">2</text>
<polygon points="100.9,343.6 108.9,343.6 108.9,351.6 100.9,351.6" fill="rgb(127,230,0)"/><text xml:space="preserve" x="104.9" y="350.433" font-family="Calibri" font-size="7.5" fill="rgb(0,0,0)" text-anchor="middle">2</text>
<polygon points="108.9,343.6 116.9,343.6 116.9,351.6 108.9,351.6" fill="rgb(127,230,0)"/><text xml:space="preserve" x="112.9" y="350.433" font-family="Calibri" font-size="7.5" fill="rgb(0,0,0)" text-anchor="middle">2</text>
<polygon points="116.9,343.6 124.9,343.6 124.9,351.6 116.9,351.6" fill="rgb(205,0,0)"/><text xml:space="preserve" x="120.9" y="350.433" font-family="Calibri" font-size="7.5" fill="rgb(255,255,255)" text-anchor="middle">5</text>
<polygon points="124.9,343.6 132.9,343.6 132.9,351.6 124.9,351.6" fill="rgb(205,0,0)"/><text xml:space="preserve" x="128.9" y="350.433" font-family="Calibri" font-size="7.5" fill="rgb(255,255,255)" text-anchor="middle">5</text>
<polygon points="142.9,343.6 150.9,343.6 150.9,351.6 142.9,351.6" fill="rgb(23,117,140)"/>
<polygon points="150.9,343.6 158.9,343.6 158.9,351.6 150.9,351.6" fill="rgb(24,124,140)"/>
<polygon points="158.9,343.6 166.9,343.6 166.9,351.6 158.9,351.6" fill="rgb(17,94,138)"/>
<polygon points="166.9,343.6 174.9,343.6 174.9,351.6 166.9,351.6" fill="rgb(182,202,50)"/>
<polygon points="174.9,343.6 182.9,343.6 182.9,351.6 174.9,351.6" fill="rgb(252,194,1)"/>
<polygon points="192.9,343.6 200.9,343.6 200.9,351.6 192.9,351.6" fill="rgb(255,255,255)"/>
<polygon points="200.9,343.6 208.9,343.6 208.9,351.6 200.9,351.6" fill="rgb(255,255,255)"/>
<polygon points="208.9,343.6 216.9,343.6 216.9,351.6 208.9,351.6" fill="rgb(255,255,255)"/>
<polygon points="216.9,343.6 224.9,343.6 224.9,351.6 216.9,351.6" fill="rgb(255,255,255)"/>
<polygon points="224.9,343.6 232.9,343.6 232.9,351.6 224.9,351.6" fill="rgb(255,255,255)"/>
<polygon points="232.9,343.6 240.9,343.6 240.9,351.6 232.9,351.6" fill="rgb(255,255,255)"/>
<polygon points="240.9,343.6 248.9,343.6 248.9,351.6 240.9,351.6" fill="rgb(255,255,255)"/>
<polygon points="248.9,343.6 256.9,343.6 256.9,351.6 248.9,351.6" fill="rgb(255,255,255)"/>
<polygon points="92.9,351.6 100.9,351.6 100.9,359.6 92.9,359.6" fill="rgb(127,230,0)"/><text xml:space="preserve" x="96.9" y="358.433" font-family="Calibri" font-size="7.5" fill="rgb(0,0,0)" text-anchor="middle">2</text>
<polygon points="100.9,351.6 108.9,351.6 108.9,359.6 100.9,359.6" fill="rgb(127,230,0)"/><text xml:space="preserve" x="104.9" y="358.433" font-family="Calibri" font-size="7.5" fill="rgb(0,0,0)" text-anchor="middle">2</text>
<polygon points="108.9,351.6 116.9,351.6 116.9,359.6 108.9,359.6" fill="rgb(127,230,0)"/><text xml:space="preserve" x="112.9" y="358.433" font-family="Calibri" font-size="7.5" fill="rgb(0,0,0)" text-anchor="middle">2</text>
<polygon points="116.9,351.6 124.9,351.6 124.9,359.6 116.9,359.6" fill="rgb(205,0,0)"/><text xml:space="preserve" x="120.9" y="358.433" font-family="Calibri" font-size="7.5" fill="rgb(255,255,255)" text-anchor="middle">5</text>
<polygon points="124.9,351.6 132.9,351.6 132.9,359.6 124.9,359.6" fill="rgb(205,0,0)"/><text xml:space="preserve" x="128.9" y="358.433" font-family="Calibri" font-size="7.5" fill="rgb(255,255,255)" text-anchor="middle">5</text>
<polygon points="142.9,351.6 150.9,351.6 150.9,359.6 142.9,359.6" fill="rgb(35,167,143)"/>
<polygon points="150.9,351.6 158.9,351.6 158.9,359.6 150.9,359.6" fill="rgb(11,73,137)"/>
<polygon points="158.9,351.6 166.9,351.6 166.9,359.6 158.9,359.6" fill="rgb(31,149,142)"/>
<polygon points="166.9,351.6 174.9,351.6 174.9,359.6 166.9,359.6" fill="rgb(177,203,54)"/>
<polygon points="174.9,351.6 182.9,351.6 182.9,359.6 174.9,359.6" fill="rgb(252,194,1)"/>
<polygon points="192.9,351.6 200.9,351.6 200.9,359.6 192.9,359.6" fill="rgb(255,255,255)"/>
<polygon points="200.9,351.6 208.9,351.6 208.9,359.6 200.9,359.6" fill="rgb(255,255,255)"/>
<polygon points="208.9,351.6 216.9,351.6 216.9,359.6 208.9,359.6" fill="rgb(255,255,255)"/>
<polygon points="216.9,351.6 224.9,351.6 224.9,359.6 216.9,359.6" fill="rgb(255,255,255)"/>
<polygon points="224.9,351.6 232.9,351.6 232.9,359.6 224.9,359.6" fill="rgb(255,255,255)"/>
<polygon points="232.9,351.6 240.9,351.6 240.9,359.6 232.9,359.6" fill="rgb(255,255,255)"/>
<polygon points="240.9,351.6 248.9,351.6 248.9,359.6 240.9,359.6" fill="rgb(255,255,255)"/>
<polygon points="248.9,351.6 256.9,351.6 256.9,359.6 248.9,359.6" fill="rgb(255,255,255)"/>
<polygon points="92.9,335.6 132.9,335.6 132.9,359.6 92.9,359.6" fill="none" stroke="black" stroke-width="1"/>
<polygon points="142.9,335.6 182.9,335.6 182.9,359.6 142.9,359.6" fill="none" stroke="black" stroke-width="1"/>
<polygon points="192.9,335.6 256.9,335.6 256.9,359.6 192.9,359.6" fill="none" stroke="black" stroke-width="1"/>
<text xml:space="preserve" x="138.45" y="392.6" font-family="Calibri" font-size="8" text-anchor="middle">ClusterAssignment</text>
<polygon points="88.45,399.6 108.45,399.6 108.45,419.6 88.45,419.6" fill="rgb(0,205,0)"/><polygon points="88.45,399.6 108.45,399.6 108.45,419.6 88.45,419.6" fill="none" stroke="black" stroke-width="1"/><text xml:space="preserve" x="98.45" y="412.433" font-family="Calibri" font-size="7.5" fill="rgb(255,255,255)" text-anchor="middle">1.0</text>
<polygon points="108.45,399.6 128.45,399.6 128.45,419.6 108.45,419.6" fill="rgb(127,230,0)"/><polygon points="108.45,399.6 128.45,399.6 128.45,419.6 108.45,419.6" fill="none" stroke="black" stroke-width="1"/><text xml:space="preserve" x="118.45" y="412.433" font-family="Calibri" font-size="7.5" fill="rgb(0,0,0)" text-anchor="middle">2.0</text>
<polygon points="128.45,399.6 148.45,399.6 148.45,419.6 128.45,419.6" fill="rgb(255,255,0)"/><polygon points="128.45,399.6 148.45,399.6 148.45,419.6 128.45,419.6" fill="none" stroke="black" stroke-width="1"/><text xml:space="preserve" x="138.45" y="412.433" font-family="Calibri" font-size="7.5" fill="rgb(0,0,0)" text-anchor="middle">3.0</text>
<polygon points="148.45,399.6 168.45,399.6 168.45,419.6 148.45,419.6" fill="rgb(230,127,0)"/><polygon points="148.45,399.6 168.45,399.6 168.45,419.6 148.45,419.6" fill="none" stroke="black" stroke-width="1"/><text xml:space="preserve" x="158.45" y="412.433" font-family="Calibri" font-size="7.5" fill="rgb(0,0,0)" text-anchor="middle">4.0</text>
<polygon points="168.45,399.6 188.45,399.6 188.45,419.6 168.45,419.6" fill="rgb(205,0,0)"/><polygon points="168.45,399.6 188.45,399.6 188.45,419.6 168.45,419.6" fill="none" stroke="black" stroke-width="1"/><text xml:space="preserve" x="178.45" y="412.433" font-family="Calibri" font-size="7.5" fill="rgb(255,255,255)" text-anchor="middle">5.0</text>
<text xml:space="preserve" x="138.45" y="452.6" font-family="Calibri" font-size="8" text-anchor="middle">Expression</text>
<polygon points="88.45,459.6 108.45,459.6 108.45,479.6 88.45,479.6" fill="rgb(0,27,135)"/><polygon points="88.45,459.6 108.45,459.6 108.45,479.6 88.45,479.6" fill="none" stroke="black" stroke-width="1"/><text xml:space="preserve" x="98.45" y="472.433" font-family="Calibri" font-size="7.5" fill="rgb(255,255,255)" text-anchor="middle">0.0</text>
<polygon points="108.45,459.6 128.45,459.6 128.45,479.6 108.45,479.6" fill="rgb(24,123,140)"/><polygon points="108.45,459.6 128.45,459.6 128.45,479.6 108.45,479.6" fill="none" stroke="black" stroke-width="1"/><text xml:space="preserve" x="118.45" y="472.433" font-family="Calibri" font-size="7.5" fill="rgb(255,255,255)" text-anchor="middle">0.8</text>
<polygon points="128.45,459.6 148.45,459.6 148.45,479.6 128.45,479.6" fill="rgb(49,219,146)"/><polygon points="128.45,459.6 148.45,459.6 148.45,479.6 128.45,479.6" fill="none" stroke="black" stroke-width="1"/><text xml:space="preserve" x="138.45" y="472.433" font-family="Calibri" font-size="7.5" fill="rgb(0,0,0)" text-anchor="middle">1.5</text>
<polygon points="148.45,459.6 168.45,459.6 168.45,479.6 148.45,479.6" fill="rgb(150,206,73)"/><polygon points="148.45,459.6 168.45,459.6 168.45,479.6 148.45,479.6" fill="none" stroke="black" stroke-width="1"/><text xml:space="preserve" x="158.45" y="472.433" font-family="Calibri" font-size="7.5" fill="rgb(0,0,0)" text-anchor="middle">2.2</text>
<polygon points="168.45,459.6 188.45,459.6 188.45,479.6 168.45,479.6" fill="rgb(252,194,1)"/><polygon points="168.45,459.6 188.45,459.6 188.45,479.6 168.45,479.6" fill="none" stroke="black" stroke-width="1"/><text xml:space="preserve" x="178.45" y="472.433" font-family="Calibri" font-size="7.5" fill="rgb(0,0,0)" text-anchor="middle">3.0</text>
<text xml:space="preserve" x="138.45" y="512.6" font-family="Calibri" font-size="8" text-anchor="middle">PANTHERclass</text>
<polygon points="88.45,519.6 108.45,519.6 108.45,539.6 88.45,539.6" fill="rgb(255,255,255)"/><polygon points="88.45,519.6 108.45,519.6 108.45,539.6 88.45,539.6" fill="none" stroke="black" stroke-width="1"/><text xml:space="preserve" x="98.45" y="532.433" font-family="Calibri" font-size="7.5" fill="rgb(0,0,0)" text-anchor="middle">0.0</text>
<polygon points="108.45,519.6 128.45,519.6 128.45,539.6 108.45,539.6" fill="rgb(242,191,242)"/><polygon points="108.45,519.6 128.45,519.6 128.45,539.6 108.45,539.6" fill="none" stroke="black" stroke-width="1"/><text xml:space="preserve" x="118.45" y="532.433" font-family="Calibri" font-size="7.5" fill="rgb(0,0,0)" text-anchor="middle">0.2</text>
<polygon points="128.45,519.6 148.45,519.6 148.45,539.6 128.45,539.6" fill="rgb(230,127,230)"/><polygon points="128.45,519.6 148.45,519.6 148.45,539.6 128.45,539.6" fill="none" stroke="black" stroke-width="1"/><text xml:space="preserve" x="138.45" y="532.433" font-family="Calibri" font-size="7.5" fill="rgb(0,0,0)" text-anchor="middle">0.5</text>
<polygon points="148.45,519.6 168.45,519.6 168.45,539.6 148.45,539.6" fill="rgb(217,63,217)"/><polygon points="148.45,519.6 168.45,519.6 168.45,539.6 148.45,539.6" fill="none" stroke="black" stroke-width="1"/><text xml:space="preserve" x="158.45" y="532.433" font-family="Calibri" font-size="7.5" fill="rgb(255,255,255)" text-anchor="middle">0.8</text>
<polygon points="168.45,519.6 188.45,519.6 188.45,539.6 168.45,539.6" fill="rgb(205,0,205)"/><polygon points="168.45,519.6 188.45,519.6 188.45,539.6 168.45,539.6" fill="none" stroke="black" stroke-width="1"/><text xml:space="preserve" x="178.45" y="532.433" font-family="Calibri" font-size="7.5" fill="rgb(255,255,255)" text-anchor="middle">1.0</text>
</svg>
