<?xml version="1.0" standalone="no"?><!DOCTYPE svg PUBLIC "-//W3C//DTD SVG 1.1//EN" "http://www.w3.org/Graphics/SVG/1.1/DTD/svg11.dtd">
<svg width="307.5" height="559.6" version="1.1" xmlns="http://www.w3.org/2000/svg">
<text xml:space="preserve" x="119.5" y="342.6" font-family="Calibri" font-size="8" text-anchor="end">AL133215.2</text>
<text xml:space="preserve" x="119.5" y="350.6" font-family="Calibri" font-size="8" text-anchor="end">ART5</text>
<text xml:space="preserve" x="119.5" y="358.6" font-family="Calibri" font-size="8" text-anchor="end">C5orf34</text>
<text xml:space="preserve" x="130.5" y="331.6" font-family="Calibri" font-size="8" transform="rotate(270 130.5 331.6)">c2</text>
<text xml:space="preserve" x="138.5" y="331.6" font-family="Calibri" font-size="8" transform="rotate(270 138.5 331.6)">c4</text>
<text xml:space="preserve" x="146.5" y="331.6" font-family="Calibri" font-size="8" transform="rotate(270 146.5 331.6)">c3</text>
<text xml:space="preserve" x="154.5" y="331.6" font-family="Calibri" font-size="8" transform="rotate(270 154.5 331.6)">c1</text>
<text xml:space="preserve" x="162.5" y="331.6" font-family="Calibri" font-size="8" transform="rotate(270 162.5 331.6)">c5</text>
<text xml:space="preserve" x="180.5" y="331.6" font-family="Calibri" font-size="8" transform="rotate(270 180.5 331.6)">c2_mean</text>
<text xml:space="preserve" x="188.5" y="331.6" font-family="Calibri" font-size="8" transform="rotate(270 188.5 331.6)">c4_mean</text>
<text xml:space="preserve" x="196.5" y="331.6" font-family="Calibri" font-size="8" transform="rotate(270 196.5 331.6)">c3_mean</text>
<text xml:space="preserve" x="204.5" y="331.6" font-family="Calibri" font-size="8" transform="rotate(270 204.5 331.6)">c1_mean</text>
<text xml:space="preserve" x="212.5" y="331.6" font-family="Calibri" font-size="8" transform="rotate(270 212.5 331.6)">c5_mean</text>
<text xml:space="preserve" x="230.5" y="331.6" font-family="Calibri" font-size="8" transform="rotate(270 230.5 331.6)">transcription_factor</text>
<text xml:space="preserve" x="238.5" y="331.6" font-family="Calibri" font-size="8" transform="rotate(270 238.5 331.6)">transmembrane_signal_receptor</text>
<text xml:space="preserve" x="246.5" y="331.6" font-family="Calibri" font-size="8" transform="rotate(270 246.5 331.6)">growth_factor</text>
<text xml:space="preserve" x="254.5" y="331.6" font-family="Calibri" font-size="8" transform="rotate(270 254.5 331.6)">peptide_hormone</text>
<text xml:space="preserve" x="262.5" y="331.6" font-family="Calibri" font-size="8" transform="rotate(270 262.5 331.6)">cytoskeletal_protein</text>
<text xml:space="preserve" x="270.5" y="331.6" font-family="Calibri" font-size="8" transform="rotate(270 270.5 331.6)">ion_channel</text>
<text xml:space="preserve" x="278.5" y="331.6" font-family="Calibri" font-size="8" transform="rotate(270 278.5 331.6)">integrin</text>
<text xml:space="preserve" x="286.5" y="331.6" font-family="Calibri" font-size="8" transform="rotate(270 286.5 331.6)">extracellular_matrix_protein</text>
<polygon points="123.5,335.6 131.5,335.6 131.5,343.6 123.5,343.6" fill="rgb(0,205,0)"/><text xml:space="preserve" x="127.5" y="342.433" font-family="Calibri" font-size="7.5" fill="rgb(255,255,255)" text-anchor="middle">1</text>
<polygon points="131.5,335.6 139.5,335.6 139.5,343.6 131.5,343.6" fill="rgb(0,205,0)"/><text xml:space="preserve" x="135.5" y="342.433" font-family="Calibri" font-size="7.5" fill="rgb(255,255,255)" text-anchor="middle">1</text>
<polygon points="139.5,335.6 147.5,335.6 147.5,343.6 139.5,343.6" fill="rgb(0,205,0)"/><text xml:space="preserve" x="143.5" y="342.433" font-family="Calibri" font-size="7.5" fill="rgb(255,255,255)" text-anchor="middle">1</text>
<polygon points="147.5,335.6 155.5,335.6 155.5,343.6 147.5,343.6" fill="rgb(0,205,0)"/><text xml:space="preserve" x="151.5" y="342.433" font-family="Calibri" font-size="7.5" fill="rgb(255,255,255)" text-anchor="middle">1</text>
<polygon points="155.5,335.6 163.5,335.6 163.5,343.6 155.5,343.6" fill="rgb(127,230,0)"/><text xml:space="preserve" x="159.5" y="342.433" font-family="Calibri" font-size="7.5" fill="rgb(0,0,0)" text-anchor="middle">2</text>
<polygon points="173.5,335.6 181.5,335.6 181.5,343.6 173.5,343.6" fill="rgb(12,76,137)"/>
<polygon points="181.5,335.6 189.5,335.6 189.5,343.6 181.5,343.6" fill="rgb(2,38,135)"/>
<polygon points="189.5,335.6 197.5,335.6 197.5,343.6 189.5,343.6" fill="rgb(0,27,135)"/>
<polygon points="197.5,335.6 205.5,335.6 205.5,343.6 197.5,343.6" fill="rgb(15,87,138)"/>
<polygon points="205.5,335.6 213.5,335.6 213.5,343.6 205.5,343.6" fill="rgb(42,193,144)"/>
<polygon points="223.5,335.6 231.5,335.6 231.5,343.6 223.5,343.6" fill="rgb(255,255,255)"/>
<polygon points="231.5,335.6 239.5,335.6 239.5,343.6 231.5,343.6" fill="rgb(255,255,255)"/>
<polygon points="239.5,335.6 247.5,335.6 247.5,343.6 239.5,343.6" fill="rgb(255,255,255)"/>
<polygon points="247.5,335.6 255.5,335.6 255.5,343.6 247.5,343.6" fill="rgb(255,255,255)"/>
<polygon points="255.5,335.6 263.5,335.6 263.5,343.6 255.5,343.6" fill="rgb(255,255,255)"/>
<polygon points="263.5,335.6 271.5,335.6 271.5,343.6 263.5,343.6" fill="rgb(255,255,255)"/>
<polygon points="271.5,335.6 279.5,335.6 279.5,343.6 271.5,343.6" fill="rgb(255,255,255)"/>
<polygon points="279.5,335.6 287.5,335.6 287.5,343.6 279.5,343.6" fill="rgb(255,255,255)"/>
<polygon points="123.5,343.6 131.5,343.6 131.5,351.6 123.5,351.6" fill="rgb(0,205,0)"/><text xml:space="preserve" x="127.5" y="350.433" font-family="Calibri" font-size="7.5" fill="rgb(255,255,255)" text-anchor="middle">1</text>
<polygon points="131.5,343.6 139.5,343.6 139.5,351.6 131.5,351.6" fill="rgb(0,205,0)"/><text xml:space="preserve" x="135.5" y="350.433" font-family="Calibri" font-size="7.5" fill="rgb(255,255,255)" text-anchor="middle">1</text>
<polygon points="139.5,343.6 147.5,343.6 147.5,351.6 139.5,351.6" fill="rgb(0,205,0)"/><text xml:space="preserve" x="143.5" y="350.433" font-family="Calibri" font-size="7.5" fill="rgb(255,255,255)" text-anchor="middle">1</text>
<polygon points="147.5,343.6 155.5,343.6 155.5,351.6 147.5,351.6" fill="rgb(0,205,0)"/><text xml:space="preserve" x="151.5" y="350.433" font-family="Calibri" font-size="7.5" fill="rgb(255,255,255)" text-anchor="middle">1</text>
<polygon points="155.5,343.6 163.5,343.6 163.5,351.6 155.5,351.6" fill="rgb(127,230,0)"/><text xml:space="preserve" x="159.5" y="350.433" font-family="Calibri" font-size="7.5" fill="rgb(0,0,0)" text-anchor="middle">2</text>
<polygon points="173.5,343.6 181.5,343.6 181.5,351.6 173.5,351.6" fill="rgb(1,32,135)"/>
<polygon points="181.5,343.6 189.5,343.6 189.5,351.6 181.5,351.6" fill="rgb(6,52,136)"/>
<polygon points="189.5,343.6 197.5,343.6 197.5,351.6 189.5,351.6" fill="rgb(4,44,136)"/>
<polygon points="197.5,343.6 205.5,343.6 205.5,351.6 197.5,351.6" fill="rgb(20,107,139)"/>
<polygon points="205.5,343.6 213.5,343.6 213.5,351.6 205.5,351.6" fill="rgb(43,197,144)"/>
<polygon points="223.5,343.6 231.5,343.6 231.5,351.6 223.5,351.6" fill="rgb(255,255,255)"/>
<polygon points="231.5,343.6 239.5,343.6 239.5,351.6 231.5,351.6" fill="rgb(255,255,255)"/>
<polygon points="239.5,343.6 247.5,343.6 247.5,351.6 239.5,351.6" fill="rgb(255,255,255)"/>
<polygon points="247.5,343.6 255.5,343.6 255.5,351.6 247.5,351.6" fill="rgb(255,255,255)"/>
<polygon points="255.5,343.6 263.5,343.6 263.5,351.6 255.5,351.6" fill="rgb(255,255,255)"/>
<polygon points="263.5,343.6 271.5,343.6 271.5,351.6 263.5,351.6" fill="rgb(255,255,255)"/>
<polygon points="271.5,343.6 279.5,343.6 279.5,351.6 271.5,351.6" fill="rgb(255,255,255)"/>
<polygon points="279.5,343.6 287.5,343.6 287.5,351.6 279.5,351.6" fill="rgb(255,255,255)"/>
<polygon points="123.5,351.6 131.5,351.6 131.5,359.6 123.5,359.6" fill="rgb(0,205,0)"/><text xml:space="preserve" x="127.5" y="358.433" font-family="Calibri" font-size="7.5" fill="rgb(255,255,255)" text-anchor="middle">1</text>
<polygon points="131.5,351.6 139.5,351.6 139.5,359.6 131.5,359.6" fill="rgb(0,205,0)"/><text xml:space="preserve" x="135.5" y="358.433" font-family="Calibri" font-size="7.5" fill="rgb(255,255,255)" text-anchor="middle">1</text>
<polygon points="139.5,351.6 147.5,351.6 147.5,359.6 139.5,359.6" fill="rgb(0,205,0)"/><text xml:space="preserve" x="143.5" y="358.433" font-family="Calibri" font-size="7.5" fill="rgb(255,255,255)" text-anchor="middle">1</text>
<polygon points="147.5,351.6 155.5,351.6 155.5,359.6 147.5,359.6" fill="rgb(0,205,0)"/><text xml:space="preserve" x="151.5" y="358.433" font-family="Calibri" font-size="7.5" fill="rgb(255,255,255)" text-anchor="middle">1</text>
<polygon points="155.5,351.6 163.5,351.6 163.5,359.6 155.5,359.6" fill="rgb(127,230,0)"/><text xml:space="preserve" x="159.5" y="358.433" font-family="Calibri" font-size="7.5" fill="rgb(0,0,0)" text-anchor="middle">2</text>
<polygon points="173.5,351.6 181.5,351.6 181.5,359.6 173.5,359.6" fill="rgb(5,50,136)"/>
<polygon points="181.5,351.6 189.5,351.6 189.5,359.6 181.5,359.6" fill="rgb(2,35,135)"/>
<polygon points="189.5,351.6 197.5,351.6 197.5,359.6 189.5,359.6" fill="rgb(6,52,136)"/>
<polygon points="197.5,351.6 205.5,351.6 205.5,359.6 197.5,359.6" fill="rgb(17,97,139)"/>
<polygon points="205.5,351.6 213.5,351.6 213.5,359.6 205.5,359.6" fill="rgb(43,195,144)"/>
<polygon points="223.5,351.6 231.5,351.6 231.5,359.6 223.5,359.6" fill="rgb(255,255,255)"/>
<polygon points="231.5,351.6 239.5,351.6 239.5,359.6 231.5,359.6" fill="rgb(255,255,255)"/>
<polygon points="239.5,351.6 247.5,351.6 247.5,359.6 239.5,359.6" fill="rgb(255,255,255)"/>
<polygon points="247.5,351.6 255.5,351.6 255.5,359.6 247.5,359.6" fill="rgb(255,255,255)"/>
<polygon points="255.5,351.6 263.5,351.6 263.5,359.6 255.5,359.6" fill="rgb(255,255,255)"/>
<polygon points="263.5,351.6 271.5,351.6 271.5,359.6 263.5,359.6" fill="rgb(255,255,255)"/>
<polygon points="271.5,351.6 279.5,351.6 279.5,359.6 271.5,359.6" fill="rgb(255,255,255)"/>
<polygon points="279.5,351.6 287.5,351.6 287.5,359.6 279.5,359.6" fill="rgb(255,255,255)"/>
<polygon points="123.5,335.6 163.5,335.6 163.5,359.6 123.5,359.6" fill="none" stroke="black" stroke-width="1"/>
<polygon points="173.5,335.6 213.5,335.6 213.5,359.6 173.5,359.6" fill="none" stroke="black" stroke-width="1"/>
<polygon points="223.5,335.6 287.5,335.6 287.5,359.6 223.5,359.6" fill="none" stroke="black" stroke-width="1"/>
<text xml:space="preserve" x="153.75" y="392.6" font-family="Calibri" font-size="8" text-anchor="middle">ClusterAssignment</text>
<polygon points="103.75,399.6 123.75,399.6 123.75,419.6 103.75,419.6" fill="rgb(0,205,0)"/><polygon points="103.75,399.6 123.75,399.6 123.75,419.6 103.75,419.6" fill="none" stroke="black" stroke-width="1"/><text xml:space="preserve" x="113.75" y="412.433" font-family="Calibri" font-size="7.5" fill="rgb(255,255,255)" text-anchor="middle">1.0</text>
<polygon points="123.75,399.6 143.75,399.6 143.75,419.6 123.75,419.6" fill="rgb(127,230,0)"/><polygon points="123.75,399.6 143.75,399.6 143.75,419.6 123.75,419.6" fill="none" stroke="black" stroke-width="1"/><text xml:space="preserve" x="133.75" y="412.433" font-family="Calibri" font-size="7.5" fill="rgb(0,0,0)" text-anchor="middle">2.0</text>
<polygon points="143.75,399.6 163.75,399.6 163.75,419.6 143.75,419.6" fill="rgb(255,255,0)"/><polygon points="143.75,399.6 163.75,399.6 163.75,419.6 143.75,419.6" fill="none" stroke="black" stroke-width="1"/><text xml:space="preserve" x="153.75" y="412.433" font-family="Calibri" font-size="7.5" fill="rgb(0,0,0)" text-anchor="middle">3.0</text>
<polygon points="163.75,399.6 183.75,399.6 183.75,419.6 163.75,419.6" fill="rgb(230,127,0)"/><polygon points="163.75,399.6 183.75,399.6 183.75,419.6 163.75,419.6" fill="none" stroke="black" stroke-width="1"/><text xml:space="preserve" x="173.75" y="412.433" font-family="Calibri" font-size="7.5" fill="rgb(0,0,0)" text-anchor="middle">4.0</text>
<polygon points="183.75,399.6 203.75,399.6 203.75,419.6 183.75,419.6" fill="rgb(205,0,0)"/><polygon points="183.75,399.6 203.75,399.6 203.75,419.6 183.75,419.6" fill="none" stroke="black" stroke-width="1"/><text xml:space="preserve" x="193.75" y="412.433" font-family="Calibri" font-size="7.5" fill="rgb(255,255,255)" text-anchor="middle">5.0</text>
<text xml:space="preserve" x="153.75" y="452.6" font-family="Calibri" font-size="8" text-anchor="middle">Expression</text>
<polygon points="103.75,459.6 123.75,459.6 123.75,479.6 103.75,479.6" fill="rgb(0,27,135)"/><polygon points="103.75,459.6 123.75,459.6 123.75,479.6 103.75,479.6" fill="none" stroke="black" stroke-width="1"/><text xml:space="preserve" x="113.75" y="472.433" font-family="Calibri" font-size="7.5" fill="rgb(255,255,255)" text-anchor="middle">0.0</text>
<polygon points="123.75,459.6 143.75,459.6 143.75,479.6 123.75,479.6" fill="rgb(24,123,140)"/><polygon points="123.75,459.6 143.75,459.6 143.75,479.6 123.75,479.6" fill="none" stroke="black" stroke-width="1"/><text xml:space="preserve" x="133.75" y="472.433" font-family="Calibri" font-size="7.5" fill="rgb(255,255,255)" text-anchor="middle">0.8</text>
<polygon points="143.75,459.6 163.75,459.6 163.75,479.6 143.75,479.6" fill="rgb(49,219,146)"/><polygon points="143.75,459.6 163.75,459.6 163.75,479.6 143.75,479.6" fill="none" stroke="black" stroke-width="1"/><text xml:space="preserve" x="153.75" y="472.433" font-family="Calibri" font-size="7.5" fill="rgb(0,0,0)" text-anchor="middle">1.5</text>
<polygon points="163.75,459.6 183.75,459.6 183.75,479.6 163.75,479.6" fill="rgb(150,206,73)"/><polygon points="163.75,459.6 183.75,459.6 183.75,479.6 163.75,479.6" fill="none" stroke="black" stroke-width="1"/><text xml:space="preserve" x="173.75" y="472.433" font-family="Calibri" font-size="7.5" fill="rgb(0,0,0)" text-anchor="middle">2.2</text>
<polygon points="183.75,459.6 203.75,459.6 203.75,479.6 183.75,479.6" fill="rgb(252,194,1)"/><polygon points="183.75,459.6 203.75,459.6 203.75,479.6 183.75,479.6" fill="none" stroke="black" stroke-width="1"/><text xml:space="preserve" x="193.75" y="472.433" font-family="Calibri" font-size="7.5" fill="rgb(0,0,0)" text-anchor="middle">3.0</text>
<text xml:space="preserve" x="153.75" y="512.6" font-family="Calibri" font-size="8" text-anchor="middle">PANTHERclass</text>
<polygon points="103.75,519.6 123.75,519.6 123.75,539.6 103.75,539.6" fill="rgb(255,255,255)"/><polygon points="103.75,519.6 123.75,519.6 123.75,539.6 103.75,539.6" fill="none" stroke="black" stroke-width="1"/><text xml:space="preserve" x="113.75" y="532.433" font-family="Calibri" font-size="7.5" fill="rgb(0,0,0)" text-anchor="middle">0.0</text>
<polygon points="123.75,519.6 143.75,519.6 143.75,539.6 123.75,539.6" fill="rgb(242,191,242)"/><polygon points="123.75,519.6 143.75,519.6 143.75,539.6 123.75,539.6" fill="none" stroke="black" stroke-width="1"/><text xml:space="preserve" x="133.75" y="532.433" font-family="Calibri" font-size="7.5" fill="rgb(0,0,0)" text-anchor="middle">0.2</text>
<polygon points="143.75,519.6 163.75,519.6 163.75,539.6 143.75,539.6" fill="rgb(230,127,230)"/><polygon points="143.75,519.6 163.75,519.6 163.75,539.6 143.75,539.6" fill="none" stroke="black" stroke-width="1"/><text xml:space="preserve" x="153.75" y="532.433" font-family="Calibri" font-size="7.5" fill="rgb(0,0,0)" text-anchor="middle">0.5</text>
<polygon points="163.75,519.6 183.75,519.6 183.75,539.6 163.75,539.6" fill="rgb(217,63,217)"/><polygon points="163.75,519.6 183.75,519.6 183.75,539.6 163.75,539.6" fill="none" stroke="black" stroke-width="1"/><text xml:space="preserve" x="173.75" y="532.433" font-family="Calibri" font-size="7.5" fill="rgb(255,255,255)" text-anchor="middle">0.8</text>
<polygon points="183.75,519.6 203.75,519.6 203.75,539.6 183.75,539.6" fill="rgb(205,0,205)"/><polygon points="183.75,519.6 203.75,519.6 203.75,539.6 183.75,539.6" fill="none" stroke="black" stroke-width="1"/><text xml:space="preserve" x="193.75" y="532.433" font-family="Calibri" font-size="7.5" fill="rgb(255,255,255)" text-anchor="middle">1.0</text>
</svg>
