<?xml version="1.0" standalone="no"?><!DOCTYPE svg PUBLIC "-//W3C//DTD SVG 1.1//EN" "http://www.w3.org/Graphics/SVG/1.1/DTD/svg11.dtd">
<svg width="308.7" height="575.6" version="1.1" xmlns="http://www.w3.org/2000/svg">
<text xml:space="preserve" x="120.7" y="342.6" font-family="Calibri" font-size="8" text-anchor="end">AGR3</text>
<text xml:space="preserve" x="120.7" y="350.6" font-family="Calibri" font-size="8" text-anchor="end">C1orf141</text>
<text xml:space="preserve" x="120.7" y="358.6" font-family="Calibri" font-size="8" text-anchor="end">KRT4</text>
<text xml:space="preserve" x="120.7" y="366.6" font-family="Calibri" font-size="8" text-anchor="end">TPPP3</text>
<text xml:space="preserve" x="120.7" y="374.6" font-family="Calibri" font-size="8" text-anchor="end">AL355601.1</text>
<text xml:space="preserve" x="131.7" y="331.6" font-family="Calibri" font-size="8" transform="rotate(270 131.7 331.6)">c2</text>
<text xml:space="preserve" x="139.7" y="331.6" font-family="Calibri" font-size="8" transform="rotate(270 139.7 331.6)">c4</text>
<text xml:space="preserve" x="147.7" y="331.6" font-family="Calibri" font-size="8" transform="rotate(270 147.7 331.6)">c3</text>
<text xml:space="preserve" x="155.7" y="331.6" font-family="Calibri" font-size="8" transform="rotate(270 155.7 331.6)">c1</text>
<text xml:space="preserve" x="163.7" y="331.6" font-family="Calibri" font-size="8" transform="rotate(270 163.7 331.6)">c5</text>
<text xml:space="preserve" x="181.7" y="331.6" font-family="Calibri" font-size="8" transform="rotate(270 181.7 331.6)">c2_mean</text>
<text xml:space="preserve" x="189.7" y="331.6" font-family="Calibri" font-size="8" transform="rotate(270 189.7 331.6)">c4_mean</text>
<text xml:space="preserve" x="197.7" y="331.6" font-family="Calibri" font-size="8" transform="rotate(270 197.7 331.6)">c3_mean</text>
<text xml:space="preserve" x="205.7" y="331.6" font-family="Calibri" font-size="8" transform="rotate(270 205.7 331.6)">c1_mean</text>
<text xml:space="preserve" x="213.7" y="331.6" font-family="Calibri" font-size="8" transform="rotate(270 213.7 331.6)">c5_mean</text>
<text xml:space="preserve" x="231.7" y="331.6" font-family="Calibri" font-size="8" transform="rotate(270 231.7 331.6)">transcription_factor</text>
<text xml:space="preserve" x="239.7" y="331.6" font-family="Calibri" font-size="8" transform="rotate(270 239.7 331.6)">transmembrane_signal_receptor</text>
<text xml:space="preserve" x="247.7" y="331.6" font-family="Calibri" font-size="8" transform="rotate(270 247.7 331.6)">growth_factor</text>
<text xml:space="preserve" x="255.7" y="331.6" font-family="Calibri" font-size="8" transform="rotate(270 255.7 331.6)">peptide_hormone</text>
<text xml:space="preserve" x="263.7" y="331.6" font-family="Calibri" font-size="8" transform="rotate(270 263.7 331.6)">cytoskeletal_protein</text>
<text xml:space="preserve" x="271.7" y="331.6" font-family="Calibri" font-size="8" transform="rotate(270 271.7 331.6)">ion_channel</text>
<text xml:space="preserve" x="279.7" y="331.6" font-family="Calibri" font-size="8" transform="rotate(270 279.7 331.6)">integrin</text>
<text xml:space="preserve" x="287.7" y="331.6" font-family="Calibri" font-size="8" transform="rotate(270 287.7 331.6)">extracellular_matrix_protein</text>
<polygon points="124.7,335.6 132.7,335.6 132.7,343.6 124.7,343.6" fill="rgb(230,127,0)"/><text xml:space="preserve" x="128.7" y="342.433" font-family="Calibri" font-size="7.5" fill="rgb(0,0,0)" text-anchor="middle">4</text>
<polygon points="132.7,335.6 140.7,335.6 140.7,343.6 132.7,343.6" fill="rgb(127,230,0)"/><text xml:space="preserve" x="136.7" y="342.433" font-family="Calibri" font-size="7.5" fill="rgb(0,0,0)" text-anchor="middle">2</text>
<polygon points="140.7,335.6 148.7,335.6 148.7,343.6 140.7,343.6" fill="rgb(127,230,0)"/><text xml:space="preserve" x="144.7" y="342.433" font-family="Calibri" font-size="7.5" fill="rgb(0,0,0)" text-anchor="middle">2</text>
<polygon points="148.7,335.6 156.7,335.6 156.7,343.6 148.7,343.6" fill="rgb(127,230,0)"/><text xml:space="preserve" x="152.7" y="342.433" font-family="Calibri" font-size="7.5" fill="rgb(0,0,0)" text-anchor="middle">2</text>
<polygon points="156.7,335.6 164.7,335.6 164.7,343.6 156.7,343.6" fill="rgb(127,230,0)"/><text xml:space="preserve" x="160.7" y="342.433" font-family="Calibri" font-size="7.5" fill="rgb(0,0,0)" text-anchor="middle">2</text>
<polygon points="174.7,335.6 182.7,335.6 182.7,343.6 174.7,343.6" fill="rgb(252,194,1)"/>
<polygon points="182.7,335.6 190.7,335.6 190.7,343.6 182.7,343.6" fill="rgb(35,165,142)"/>
<polygon points="190.7,335.6 198.7,335.6 198.7,343.6 190.7,343.6" fill="rgb(28,139,141)"/>
<polygon points="198.7,335.6 206.7,335.6 206.7,343.6 198.7,343.6" fill="rgb(32,152,142)"/>
<polygon points="206.7,335.6 214.7,335.6 214.7,343.6 206.7,343.6" fill="rgb(13,78,137)"/>
<polygon points="224.7,335.6 232.7,335.6 232.7,343.6 224.7,343.6" fill="rgb(255,255,255)"/>
<polygon points="232.7,335.6 240.7,335.6 240.7,343.6 232.7,343.6" fill="rgb(255,255,255)"/>
<polygon points="240.7,335.6 248.7,335.6 248.7,343.6 240.7,343.6" fill="rgb(255,255,255)"/>
<polygon points="248.7,335.6 256.7,335.6 256.7,343.6 248.7,343.6" fill="rgb(255,255,255)"/>
<polygon points="256.7,335.6 264.7,335.6 264.7,343.6 256.7,343.6" fill="rgb(255,255,255)"/>
<polygon points="264.7,335.6 272.7,335.6 272.7,343.6 264.7,343.6" fill="rgb(255,255,255)"/>
<polygon points="272.7,335.6 280.7,335.6 280.7,343.6 272.7,343.6" fill="rgb(255,255,255)"/>
<polygon points="280.7,335.6 288.7,335.6 288.7,343.6 280.7,343.6" fill="rgb(255,255,255)"/>
<polygon points="124.7,343.6 132.7,343.6 132.7,351.6 124.7,351.6" fill="rgb(230,127,0)"/><text xml:space="preserve" x="128.7" y="350.433" font-family="Calibri" font-size="7.5" fill="rgb(0,0,0)" text-anchor="middle">4</text>
<polygon points="132.7,343.6 140.7,343.6 140.7,351.6 132.7,351.6" fill="rgb(127,230,0)"/><text xml:space="preserve" x="136.7" y="350.433" font-family="Calibri" font-size="7.5" fill="rgb(0,0,0)" text-anchor="middle">2</text>
<polygon points="140.7,343.6 148.7,343.6 148.7,351.6 140.7,351.6" fill="rgb(127,230,0)"/><text xml:space="preserve" x="144.7" y="350.433" font-family="Calibri" font-size="7.5" fill="rgb(0,0,0)" text-anchor="middle">2</text>
<polygon points="148.7,343.6 156.7,343.6 156.7,351.6 148.7,351.6" fill="rgb(127,230,0)"/><text xml:space="preserve" x="152.7" y="350.433" font-family="Calibri" font-size="7.5" fill="rgb(0,0,0)" text-anchor="middle">2</text>
<polygon points="156.7,343.6 164.7,343.6 164.7,351.6 156.7,351.6" fill="rgb(127,230,0)"/><text xml:space="preserve" x="160.7" y="350.433" font-family="Calibri" font-size="7.5" fill="rgb(0,0,0)" text-anchor="middle">2</text>
<polygon points="174.7,343.6 182.7,343.6 182.7,351.6 174.7,351.6" fill="rgb(252,194,1)"/>
<polygon points="182.7,343.6 190.7,343.6 190.7,351.6 182.7,351.6" fill="rgb(19,105,139)"/>
<polygon points="190.7,343.6 198.7,343.6 198.7,351.6 190.7,351.6" fill="rgb(15,88,138)"/>
<polygon points="198.7,343.6 206.7,343.6 206.7,351.6 198.7,351.6" fill="rgb(0,27,135)"/>
<polygon points="206.7,343.6 214.7,343.6 214.7,351.6 206.7,351.6" fill="rgb(23,120,140)"/>
<polygon points="224.7,343.6 232.7,343.6 232.7,351.6 224.7,351.6" fill="rgb(255,255,255)"/>
<polygon points="232.7,343.6 240.7,343.6 240.7,351.6 232.7,351.6" fill="rgb(255,255,255)"/>
<polygon points="240.7,343.6 248.7,343.6 248.7,351.6 240.7,351.6" fill="rgb(255,255,255)"/>
<polygon points="248.7,343.6 256.7,343.6 256.7,351.6 248.7,351.6" fill="rgb(255,255,255)"/>
<polygon points="256.7,343.6 264.7,343.6 264.7,351.6 256.7,351.6" fill="rgb(255,255,255)"/>
<polygon points="264.7,343.6 272.7,343.6 272.7,351.6 264.7,351.6" fill="rgb(255,255,255)"/>
<polygon points="272.7,343.6 280.7,343.6 280.7,351.6 272.7,351.6" fill="rgb(255,255,255)"/>
<polygon points="280.7,343.6 288.7,343.6 288.7,351.6 280.7,351.6" fill="rgb(255,255,255)"/>
<polygon points="124.7,351.6 132.7,351.6 132.7,359.6 124.7,359.6" fill="rgb(230,127,0)"/><text xml:space="preserve" x="128.7" y="358.433" font-family="Calibri" font-size="7.5" fill="rgb(0,0,0)" text-anchor="middle">4</text>
<polygon points="132.7,351.6 140.7,351.6 140.7,359.6 132.7,359.6" fill="rgb(127,230,0)"/><text xml:space="preserve" x="136.7" y="358.433" font-family="Calibri" font-size="7.5" fill="rgb(0,0,0)" text-anchor="middle">2</text>
<polygon points="140.7,351.6 148.7,351.6 148.7,359.6 140.7,359.6" fill="rgb(127,230,0)"/><text xml:space="preserve" x="144.7" y="358.433" font-family="Calibri" font-size="7.5" fill="rgb(0,0,0)" text-anchor="middle">2</text>
<polygon points="148.7,351.6 156.7,351.6 156.7,359.6 148.7,359.6" fill="rgb(127,230,0)"/><text xml:space="preserve" x="152.7" y="358.433" font-family="Calibri" font-size="7.5" fill="rgb(0,0,0)" text-anchor="middle">2</text>
<polygon points="156.7,351.6 164.7,351.6 164.7,359.6 156.7,359.6" fill="rgb(127,230,0)"/><text xml:space="preserve" x="160.7" y="358.433" font-family="Calibri" font-size="7.5" fill="rgb(0,0,0)" text-anchor="middle">2</text>
<polygon points="174.7,351.6 182.7,351.6 182.7,359.6 174.7,359.6" fill="rgb(252,194,1)"/>
<polygon points="182.7,351.6 190.7,351.6 190.7,359.6 182.7,359.6" fill="rgb(0,27,135)"/>
<polygon points="190.7,351.6 198.7,351.6 198.7,359.6 190.7,359.6" fill="rgb(32,156,142)"/>
<polygon points="198.7,351.6 206.7,351.6 206.7,359.6 198.7,359.6" fill="rgb(0,27,135)"/>
<polygon points="206.7,351.6 214.7,351.6 214.7,359.6 206.7,359.6" fill="rgb(34,162,142)"/>
<polygon points="224.7,351.6 232.7,351.6 232.7,359.6 224.7,359.6" fill="rgb(255,255,255)"/>
<polygon points="232.7,351.6 240.7,351.6 240.7,359.6 232.7,359.6" fill="rgb(255,255,255)"/>
<polygon points="240.7,351.6 248.7,351.6 248.7,359.6 240.7,359.6" fill="rgb(255,255,255)"/>
<polygon points="248.7,351.6 256.7,351.6 256.7,359.6 248.7,359.6" fill="rgb(255,255,255)"/>
<polygon points="256.7,351.6 264.7,351.6 264.7,359.6 256.7,359.6" fill="rgb(255,255,255)"/>
<polygon points="264.7,351.6 272.7,351.6 272.7,359.6 264.7,359.6" fill="rgb(255,255,255)"/>
<polygon points="272.7,351.6 280.7,351.6 280.7,359.6 272.7,359.6" fill="rgb(255,255,255)"/>
<polygon points="280.7,351.6 288.7,351.6 288.7,359.6 280.7,359.6" fill="rgb(255,255,255)"/>
<polygon points="124.7,359.6 132.7,359.6 132.7,367.6 124.7,367.6" fill="rgb(230,127,0)"/><text xml:space="preserve" x="128.7" y="366.433" font-family="Calibri" font-size="7.5" fill="rgb(0,0,0)" text-anchor="middle">4</text>
<polygon points="132.7,359.6 140.7,359.6 140.7,367.6 132.7,367.6" fill="rgb(127,230,0)"/><text xml:space="preserve" x="136.7" y="366.433" font-family="Calibri" font-size="7.5" fill="rgb(0,0,0)" text-anchor="middle">2</text>
<polygon points="140.7,359.6 148.7,359.6 148.7,367.6 140.7,367.6" fill="rgb(127,230,0)"/><text xml:space="preserve" x="144.7" y="366.433" font-family="Calibri" font-size="7.5" fill="rgb(0,0,0)" text-anchor="middle">2</text>
<polygon points="148.7,359.6 156.7,359.6 156.7,367.6 148.7,367.6" fill="rgb(127,230,0)"/><text xml:space="preserve" x="152.7" y="366.433" font-family="Calibri" font-size="7.5" fill="rgb(0,0,0)" text-anchor="middle">2</text>
<polygon points="156.7,359.6 164.7,359.6 164.7,367.6 156.7,367.6" fill="rgb(127,230,0)"/><text xml:space="preserve" x="160.7" y="366.433" font-family="Calibri" font-size="7.5" fill="rgb(0,0,0)" text-anchor="middle">2</text>
<polygon points="174.7,359.6 182.7,359.6 182.7,367.6 174.7,367.6" fill="rgb(252,194,1)"/>
<polygon points="182.7,359.6 190.7,359.6 190.7,367.6 182.7,367.6" fill="rgb(40,187,144)"/>
<polygon points="190.7,359.6 198.7,359.6 198.7,367.6 190.7,367.6" fill="rgb(23,117,140)"/>
<polygon points="198.7,359.6 206.7,359.6 206.7,367.6 198.7,367.6" fill="rgb(16,93,138)"/>
<polygon points="206.7,359.6 214.7,359.6 214.7,367.6 206.7,367.6" fill="rgb(34,163,142)"/>
<polygon points="224.7,359.6 232.7,359.6 232.7,367.6 224.7,367.6" fill="rgb(255,255,255)"/>
<polygon points="232.7,359.6 240.7,359.6 240.7,367.6 232.7,367.6" fill="rgb(255,255,255)"/>
<polygon points="240.7,359.6 248.7,359.6 248.7,367.6 240.7,367.6" fill="rgb(255,255,255)"/>
<polygon points="248.7,359.6 256.7,359.6 256.7,367.6 248.7,367.6" fill="rgb(255,255,255)"/>
<polygon points="256.7,359.6 264.7,359.6 264.7,367.6 256.7,367.6" fill="rgb(255,255,255)"/>
<polygon points="264.7,359.6 272.7,359.6 272.7,367.6 264.7,367.6" fill="rgb(255,255,255)"/>
<polygon points="272.7,359.6 280.7,359.6 280.7,367.6 272.7,367.6" fill="rgb(255,255,255)"/>
<polygon points="280.7,359.6 288.7,359.6 288.7,367.6 280.7,367.6" fill="rgb(255,255,255)"/>
<polygon points="124.7,367.6 132.7,367.6 132.7,375.6 124.7,375.6" fill="rgb(230,127,0)"/><text xml:space="preserve" x="128.7" y="374.433" font-family="Calibri" font-size="7.5" fill="rgb(0,0,0)" text-anchor="middle">4</text>
<polygon points="132.7,367.6 140.7,367.6 140.7,375.6 132.7,375.6" fill="rgb(127,230,0)"/><text xml:space="preserve" x="136.7" y="374.433" font-family="Calibri" font-size="7.5" fill="rgb(0,0,0)" text-anchor="middle">2</text>
<polygon points="140.7,367.6 148.7,367.6 148.7,375.6 140.7,375.6" fill="rgb(127,230,0)"/><text xml:space="preserve" x="144.7" y="374.433" font-family="Calibri" font-size="7.5" fill="rgb(0,0,0)" text-anchor="middle">2</text>
<polygon points="148.7,367.6 156.7,367.6 156.7,375.6 148.7,375.6" fill="rgb(127,230,0)"/><text xml:space="preserve" x="152.7" y="374.433" font-family="Calibri" font-size="7.5" fill="rgb(0,0,0)" text-anchor="middle">2</text>
<polygon points="156.7,367.6 164.7,367.6 164.7,375.6 156.7,375.6" fill="rgb(127,230,0)"/><text xml:space="preserve" x="160.7" y="374.433" font-family="Calibri" font-size="7.5" fill="rgb(0,0,0)" text-anchor="middle">2</text>
<polygon points="174.7,367.6 182.7,367.6 182.7,375.6 174.7,375.6" fill="rgb(252,194,1)"/>
<polygon points="182.7,367.6 190.7,367.6 190.7,375.6 182.7,375.6" fill="rgb(19,105,139)"/>
<polygon points="190.7,367.6 198.7,367.6 198.7,375.6 190.7,375.6" fill="rgb(16,92,138)"/>
<polygon points="198.7,367.6 206.7,367.6 206.7,375.6 198.7,375.6" fill="rgb(0,27,135)"/>
<polygon points="206.7,367.6 214.7,367.6 214.7,375.6 206.7,375.6" fill="rgb(32,155,142)"/>
<polygon points="224.7,367.6 232.7,367.6 232.7,375.6 224.7,375.6" fill="rgb(255,255,255)"/>
<polygon points="232.7,367.6 240.7,367.6 240.7,375.6 232.7,375.6" fill="rgb(255,255,255)"/>
<polygon points="240.7,367.6 248.7,367.6 248.7,375.6 240.7,375.6" fill="rgb(255,255,255)"/>
<polygon points="248.7,367.6 256.7,367.6 256.7,375.6 248.7,375.6" fill="rgb(255,255,255)"/>
<polygon points="256.7,367.6 264.7,367.6 264.7,375.6 256.7,375.6" fill="rgb(255,255,255)"/>
<polygon points="264.7,367.6 272.7,367.6 272.7,375.6 264.7,375.6" fill="rgb(255,255,255)"/>
<polygon points="272.7,367.6 280.7,367.6 280.7,375.6 272.7,375.6" fill="rgb(255,255,255)"/>
<polygon points="280.7,367.6 288.7,367.6 288.7,375.6 280.7,375.6" fill="rgb(255,255,255)"/>
<polygon points="124.7,335.6 164.7,335.6 164.7,375.6 124.7,375.6" fill="none" stroke="black" stroke-width="1"/>
<polygon points="174.7,335.6 214.7,335.6 214.7,375.6 174.7,375.6" fill="none" stroke="black" stroke-width="1"/>
<polygon points="224.7,335.6 288.7,335.6 288.7,375.6 224.7,375.6" fill="none" stroke="black" stroke-width="1"/>
<text xml:space="preserve" x="154.35" y="408.6" font-family="Calibri" font-size="8" text-anchor="middle">ClusterAssignment</text>
<polygon points="104.35,415.6 124.35,415.6 124.35,435.6 104.35,435.6" fill="rgb(0,205,0)"/><polygon points="104.35,415.6 124.35,415.6 124.35,435.6 104.35,435.6" fill="none" stroke="black" stroke-width="1"/><text xml:space="preserve" x="114.35" y="428.433" font-family="Calibri" font-size="7.5" fill="rgb(255,255,255)" text-anchor="middle">1.0</text>
<polygon points="124.35,415.6 144.35,415.6 144.35,435.6 124.35,435.6" fill="rgb(127,230,0)"/><polygon points="124.35,415.6 144.35,415.6 144.35,435.6 124.35,435.6" fill="none" stroke="black" stroke-width="1"/><text xml:space="preserve" x="134.35" y="428.433" font-family="Calibri" font-size="7.5" fill="rgb(0,0,0)" text-anchor="middle">2.0</text>
<polygon points="144.35,415.6 164.35,415.6 164.35,435.6 144.35,435.6" fill="rgb(255,255,0)"/><polygon points="144.35,415.6 164.35,415.6 164.35,435.6 144.35,435.6" fill="none" stroke="black" stroke-width="1"/><text xml:space="preserve" x="154.35" y="428.433" font-family="Calibri" font-size="7.5" fill="rgb(0,0,0)" text-anchor="middle">3.0</text>
<polygon points="164.35,415.6 184.35,415.6 184.35,435.6 164.35,435.6" fill="rgb(230,127,0)"/><polygon points="164.35,415.6 184.35,415.6 184.35,435.6 164.35,435.6" fill="none" stroke="black" stroke-width="1"/><text xml:space="preserve" x="174.35" y="428.433" font-family="Calibri" font-size="7.5" fill="rgb(0,0,0)" text-anchor="middle">4.0</text>
<polygon points="184.35,415.6 204.35,415.6 204.35,435.6 184.35,435.6" fill="rgb(205,0,0)"/><polygon points="184.35,415.6 204.35,415.6 204.35,435.6 184.35,435.6" fill="none" stroke="black" stroke-width="1"/><text xml:space="preserve" x="194.35" y="428.433" font-family="Calibri" font-size="7.5" fill="rgb(255,255,255)" text-anchor="middle">5.0</text>
<text xml:space="preserve" x="154.35" y="468.6" font-family="Calibri" font-size="8" text-anchor="middle">Expression</text>
<polygon points="104.35,475.6 124.35,475.6 124.35,495.6 104.35,495.6" fill="rgb(0,27,135)"/><polygon points="104.35,475.6 124.35,475.6 124.35,495.6 104.35,495.6" fill="none" stroke="black" stroke-width="1"/><text xml:space="preserve" x="114.35" y="488.433" font-family="Calibri" font-size="7.5" fill="rgb(255,255,255)" text-anchor="middle">0.0</text>
<polygon points="124.35,475.6 144.35,475.6 144.35,495.6 124.35,495.6" fill="rgb(24,123,140)"/><polygon points="124.35,475.6 144.35,475.6 144.35,495.6 124.35,495.6" fill="none" stroke="black" stroke-width="1"/><text xml:space="preserve" x="134.35" y="488.433" font-family="Calibri" font-size="7.5" fill="rgb(255,255,255)" text-anchor="middle">0.8</text>
<polygon points="144.35,475.6 164.35,475.6 164.35,495.6 144.35,495.6" fill="rgb(49,219,146)"/><polygon points="144.35,475.6 164.35,475.6 164.35,495.6 144.35,495.6" fill="none" stroke="black" stroke-width="1"/><text xml:space="preserve" x="154.35" y="488.433" font-family="Calibri" font-size="7.5" fill="rgb(0,0,0)" text-anchor="middle">1.5</text>
<polygon points="164.35,475.6 184.35,475.6 184.35,495.6 164.35,495.6" fill="rgb(150,206,73)"/><polygon points="164.35,475.6 184.35,475.6 184.35,495.6 164.35,495.6" fill="none" stroke="black" stroke-width="1"/><text xml:space="preserve" x="174.35" y="488.433" font-family="Calibri" font-size="7.5" fill="rgb(0,0,0)" text-anchor="middle">2.2</text>
<polygon points="184.35,475.6 204.35,475.6 204.35,495.6 184.35,495.6" fill="rgb(252,194,1)"/><polygon points="184.35,475.6 204.35,475.6 204.35,495.6 184.35,495.6" fill="none" stroke="black" stroke-width="1"/><text xml:space="preserve" x="194.35" y="488.433" font-family="Calibri" font-size="7.5" fill="rgb(0,0,0)" text-anchor="middle">3.0</text>
<text xml:space="preserve" x="154.35" y="528.6" font-family="Calibri" font-size="8" text-anchor="middle">PANTHERclass</text>
<polygon points="104.35,535.6 124.35,535.6 124.35,555.6 104.35,555.6" fill="rgb(255,255,255)"/><polygon points="104.35,535.6 124.35,535.6 124.35,555.6 104.35,555.6" fill="none" stroke="black" stroke-width="1"/><text xml:space="preserve" x="114.35" y="548.433" font-family="Calibri" font-size="7.5" fill="rgb(0,0,0)" text-anchor="middle">0.0</text>
<polygon points="124.35,535.6 144.35,535.6 144.35,555.6 124.35,555.6" fill="rgb(242,191,242)"/><polygon points="124.35,535.6 144.35,535.6 144.35,555.6 124.35,555.6" fill="none" stroke="black" stroke-width="1"/><text xml:space="preserve" x="134.35" y="548.433" font-family="Calibri" font-size="7.5" fill="rgb(0,0,0)" text-anchor="middle">0.2</text>
<polygon points="144.35,535.6 164.35,535.6 164.35,555.6 144.35,555.6" fill="rgb(230,127,230)"/><polygon points="144.35,535.6 164.35,535.6 164.35,555.6 144.35,555.6" fill="none" stroke="black" stroke-width="1"/><text xml:space="preserve" x="154.35" y="548.433" font-family="Calibri" font-size="7.5" fill="rgb(0,0,0)" text-anchor="middle">0.5</text>
<polygon points="164.35,535.6 184.35,535.6 184.35,555.6 164.35,555.6" fill="rgb(217,63,217)"/><polygon points="164.35,535.6 184.35,535.6 184.35,555.6 164.35,555.6" fill="none" stroke="black" stroke-width="1"/><text xml:space="preserve" x="174.35" y="548.433" font-family="Calibri" font-size="7.5" fill="rgb(255,255,255)" text-anchor="middle">0.8</text>
<polygon points="184.35,535.6 204.35,535.6 204.35,555.6 184.35,555.6" fill="rgb(205,0,205)"/><polygon points="184.35,535.6 204.35,535.6 204.35,555.6 184.35,555.6" fill="none" stroke="black" stroke-width="1"/><text xml:space="preserve" x="194.35" y="548.433" font-family="Calibri" font-size="7.5" fill="rgb(255,255,255)" text-anchor="middle">1.0</text>
</svg>
