<?xml version="1.0" standalone="no"?><!DOCTYPE svg PUBLIC "-//W3C//DTD SVG 1.1//EN" "http://www.w3.org/Graphics/SVG/1.1/DTD/svg11.dtd">
<svg width="311.1" height="607.6" version="1.1" xmlns="http://www.w3.org/2000/svg">
<text xml:space="preserve" x="123.1" y="342.6" font-family="Calibri" font-size="8" text-anchor="end">AC133794.1</text>
<text xml:space="preserve" x="123.1" y="350.6" font-family="Calibri" font-size="8" text-anchor="end">PPP1R42</text>
<text xml:space="preserve" x="123.1" y="358.6" font-family="Calibri" font-size="8" text-anchor="end">PRR29</text>
<text xml:space="preserve" x="123.1" y="366.6" font-family="Calibri" font-size="8" text-anchor="end">CFAP157</text>
<text xml:space="preserve" x="123.1" y="374.6" font-family="Calibri" font-size="8" text-anchor="end">CFAP47</text>
<text xml:space="preserve" x="123.1" y="382.6" font-family="Calibri" font-size="8" text-anchor="end">CFAP61</text>
<text xml:space="preserve" x="123.1" y="390.6" font-family="Calibri" font-size="8" text-anchor="end">CCDC39</text>
<text xml:space="preserve" x="123.1" y="398.6" font-family="Calibri" font-size="8" text-anchor="end">DNAI1</text>
<text xml:space="preserve" x="123.1" y="406.6" font-family="Calibri" font-size="8" text-anchor="end">DNAH12</text>
<text xml:space="preserve" x="134.1" y="331.6" font-family="Calibri" font-size="8" transform="rotate(270 134.1 331.6)">c2</text>
<text xml:space="preserve" x="142.1" y="331.6" font-family="Calibri" font-size="8" transform="rotate(270 142.1 331.6)">c4</text>
<text xml:space="preserve" x="150.1" y="331.6" font-family="Calibri" font-size="8" transform="rotate(270 150.1 331.6)">c3</text>
<text xml:space="preserve" x="158.1" y="331.6" font-family="Calibri" font-size="8" transform="rotate(270 158.1 331.6)">c1</text>
<text xml:space="preserve" x="166.1" y="331.6" font-family="Calibri" font-size="8" transform="rotate(270 166.1 331.6)">c5</text>
<text xml:space="preserve" x="184.1" y="331.6" font-family="Calibri" font-size="8" transform="rotate(270 184.1 331.6)">c2_mean</text>
<text xml:space="preserve" x="192.1" y="331.6" font-family="Calibri" font-size="8" transform="rotate(270 192.1 331.6)">c4_mean</text>
<text xml:space="preserve" x="200.1" y="331.6" font-family="Calibri" font-size="8" transform="rotate(270 200.1 331.6)">c3_mean</text>
<text xml:space="preserve" x="208.1" y="331.6" font-family="Calibri" font-size="8" transform="rotate(270 208.1 331.6)">c1_mean</text>
<text xml:space="preserve" x="216.1" y="331.6" font-family="Calibri" font-size="8" transform="rotate(270 216.1 331.6)">c5_mean</text>
<text xml:space="preserve" x="234.1" y="331.6" font-family="Calibri" font-size="8" transform="rotate(270 234.1 331.6)">transcription_factor</text>
<text xml:space="preserve" x="242.1" y="331.6" font-family="Calibri" font-size="8" transform="rotate(270 242.1 331.6)">transmembrane_signal_receptor</text>
<text xml:space="preserve" x="250.1" y="331.6" font-family="Calibri" font-size="8" transform="rotate(270 250.1 331.6)">growth_factor</text>
<text xml:space="preserve" x="258.1" y="331.6" font-family="Calibri" font-size="8" transform="rotate(270 258.1 331.6)">peptide_hormone</text>
<text xml:space="preserve" x="266.1" y="331.6" font-family="Calibri" font-size="8" transform="rotate(270 266.1 331.6)">cytoskeletal_protein</text>
<text xml:space="preserve" x="274.1" y="331.6" font-family="Calibri" font-size="8" transform="rotate(270 274.1 331.6)">ion_channel</text>
<text xml:space="preserve" x="282.1" y="331.6" font-family="Calibri" font-size="8" transform="rotate(270 282.1 331.6)">integrin</text>
<text xml:space="preserve" x="290.1" y="331.6" font-family="Calibri" font-size="8" transform="rotate(270 290.1 331.6)">extracellular_matrix_protein</text>
<polygon points="127.1,335.6 135.1,335.6 135.1,343.6 127.1,343.6" fill="rgb(230,127,0)"/><text xml:space="preserve" x="131.1" y="342.433" font-family="Calibri" font-size="7.5" fill="rgb(0,0,0)" text-anchor="middle">4</text>
<polygon points="135.1,335.6 143.1,335.6 143.1,343.6 135.1,343.6" fill="rgb(255,255,0)"/><text xml:space="preserve" x="139.1" y="342.433" font-family="Calibri" font-size="7.5" fill="rgb(0,0,0)" text-anchor="middle">3</text>
<polygon points="143.1,335.6 151.1,335.6 151.1,343.6 143.1,343.6" fill="rgb(255,255,0)"/><text xml:space="preserve" x="147.1" y="342.433" font-family="Calibri" font-size="7.5" fill="rgb(0,0,0)" text-anchor="middle">3</text>
<polygon points="151.1,335.6 159.1,335.6 159.1,343.6 151.1,343.6" fill="rgb(127,230,0)"/><text xml:space="preserve" x="155.1" y="342.433" font-family="Calibri" font-size="7.5" fill="rgb(0,0,0)" text-anchor="middle">2</text>
<polygon points="159.1,335.6 167.1,335.6 167.1,343.6 159.1,343.6" fill="rgb(127,230,0)"/><text xml:space="preserve" x="163.1" y="342.433" font-family="Calibri" font-size="7.5" fill="rgb(0,0,0)" text-anchor="middle">2</text>
<polygon points="177.1,335.6 185.1,335.6 185.1,343.6 177.1,343.6" fill="rgb(252,194,1)"/>
<polygon points="185.1,335.6 193.1,335.6 193.1,343.6 185.1,343.6" fill="rgb(51,218,144)"/>
<polygon points="193.1,335.6 201.1,335.6 201.1,343.6 193.1,343.6" fill="rgb(30,147,141)"/>
<polygon points="201.1,335.6 209.1,335.6 209.1,343.6 201.1,343.6" fill="rgb(14,82,138)"/>
<polygon points="209.1,335.6 217.1,335.6 217.1,343.6 209.1,343.6" fill="rgb(19,102,139)"/>
<polygon points="227.1,335.6 235.1,335.6 235.1,343.6 227.1,343.6" fill="rgb(255,255,255)"/>
<polygon points="235.1,335.6 243.1,335.6 243.1,343.6 235.1,343.6" fill="rgb(255,255,255)"/>
<polygon points="243.1,335.6 251.1,335.6 251.1,343.6 243.1,343.6" fill="rgb(255,255,255)"/>
<polygon points="251.1,335.6 259.1,335.6 259.1,343.6 251.1,343.6" fill="rgb(255,255,255)"/>
<polygon points="259.1,335.6 267.1,335.6 267.1,343.6 259.1,343.6" fill="rgb(255,255,255)"/>
<polygon points="267.1,335.6 275.1,335.6 275.1,343.6 267.1,343.6" fill="rgb(255,255,255)"/>
<polygon points="275.1,335.6 283.1,335.6 283.1,343.6 275.1,343.6" fill="rgb(255,255,255)"/>
<polygon points="283.1,335.6 291.1,335.6 291.1,343.6 283.1,343.6" fill="rgb(255,255,255)"/>
<polygon points="127.1,343.6 135.1,343.6 135.1,351.6 127.1,351.6" fill="rgb(230,127,0)"/><text xml:space="preserve" x="131.1" y="350.433" font-family="Calibri" font-size="7.5" fill="rgb(0,0,0)" text-anchor="middle">4</text>
<polygon points="135.1,343.6 143.1,343.6 143.1,351.6 135.1,351.6" fill="rgb(255,255,0)"/><text xml:space="preserve" x="139.1" y="350.433" font-family="Calibri" font-size="7.5" fill="rgb(0,0,0)" text-anchor="middle">3</text>
<polygon points="143.1,343.6 151.1,343.6 151.1,351.6 143.1,351.6" fill="rgb(255,255,0)"/><text xml:space="preserve" x="147.1" y="350.433" font-family="Calibri" font-size="7.5" fill="rgb(0,0,0)" text-anchor="middle">3</text>
<polygon points="151.1,343.6 159.1,343.6 159.1,351.6 151.1,351.6" fill="rgb(127,230,0)"/><text xml:space="preserve" x="155.1" y="350.433" font-family="Calibri" font-size="7.5" fill="rgb(0,0,0)" text-anchor="middle">2</text>
<polygon points="159.1,343.6 167.1,343.6 167.1,351.6 159.1,351.6" fill="rgb(127,230,0)"/><text xml:space="preserve" x="163.1" y="350.433" font-family="Calibri" font-size="7.5" fill="rgb(0,0,0)" text-anchor="middle">2</text>
<polygon points="177.1,343.6 185.1,343.6 185.1,351.6 177.1,351.6" fill="rgb(252,194,1)"/>
<polygon points="185.1,343.6 193.1,343.6 193.1,351.6 185.1,351.6" fill="rgb(111,211,101)"/>
<polygon points="193.1,343.6 201.1,343.6 201.1,351.6 193.1,351.6" fill="rgb(33,158,142)"/>
<polygon points="201.1,343.6 209.1,343.6 209.1,351.6 201.1,351.6" fill="rgb(30,146,141)"/>
<polygon points="209.1,343.6 217.1,343.6 217.1,351.6 209.1,351.6" fill="rgb(24,124,140)"/>
<polygon points="227.1,343.6 235.1,343.6 235.1,351.6 227.1,351.6" fill="rgb(255,255,255)"/>
<polygon points="235.1,343.6 243.1,343.6 243.1,351.6 235.1,351.6" fill="rgb(255,255,255)"/>
<polygon points="243.1,343.6 251.1,343.6 251.1,351.6 243.1,351.6" fill="rgb(255,255,255)"/>
<polygon points="251.1,343.6 259.1,343.6 259.1,351.6 251.1,351.6" fill="rgb(255,255,255)"/>
<polygon points="259.1,343.6 267.1,343.6 267.1,351.6 259.1,351.6" fill="rgb(255,255,255)"/>
<polygon points="267.1,343.6 275.1,343.6 275.1,351.6 267.1,351.6" fill="rgb(255,255,255)"/>
<polygon points="275.1,343.6 283.1,343.6 283.1,351.6 275.1,351.6" fill="rgb(255,255,255)"/>
<polygon points="283.1,343.6 291.1,343.6 291.1,351.6 283.1,351.6" fill="rgb(255,255,255)"/>
<polygon points="127.1,351.6 135.1,351.6 135.1,359.6 127.1,359.6" fill="rgb(230,127,0)"/><text xml:space="preserve" x="131.1" y="358.433" font-family="Calibri" font-size="7.5" fill="rgb(0,0,0)" text-anchor="middle">4</text>
<polygon points="135.1,351.6 143.1,351.6 143.1,359.6 135.1,359.6" fill="rgb(255,255,0)"/><text xml:space="preserve" x="139.1" y="358.433" font-family="Calibri" font-size="7.5" fill="rgb(0,0,0)" text-anchor="middle">3</text>
<polygon points="143.1,351.6 151.1,351.6 151.1,359.6 143.1,359.6" fill="rgb(255,255,0)"/><text xml:space="preserve" x="147.1" y="358.433" font-family="Calibri" font-size="7.5" fill="rgb(0,0,0)" text-anchor="middle">3</text>
<polygon points="151.1,351.6 159.1,351.6 159.1,359.6 151.1,359.6" fill="rgb(127,230,0)"/><text xml:space="preserve" x="155.1" y="358.433" font-family="Calibri" font-size="7.5" fill="rgb(0,0,0)" text-anchor="middle">2</text>
<polygon points="159.1,351.6 167.1,351.6 167.1,359.6 159.1,359.6" fill="rgb(127,230,0)"/><text xml:space="preserve" x="163.1" y="358.433" font-family="Calibri" font-size="7.5" fill="rgb(0,0,0)" text-anchor="middle">2</text>
<polygon points="177.1,351.6 185.1,351.6 185.1,359.6 177.1,359.6" fill="rgb(252,194,1)"/>
<polygon points="185.1,351.6 193.1,351.6 193.1,359.6 185.1,359.6" fill="rgb(65,217,134)"/>
<polygon points="193.1,351.6 201.1,351.6 201.1,359.6 193.1,359.6" fill="rgb(36,171,143)"/>
<polygon points="201.1,351.6 209.1,351.6 209.1,359.6 201.1,359.6" fill="rgb(16,91,138)"/>
<polygon points="209.1,351.6 217.1,351.6 217.1,359.6 209.1,359.6" fill="rgb(38,178,143)"/>
<polygon points="227.1,351.6 235.1,351.6 235.1,359.6 227.1,359.6" fill="rgb(255,255,255)"/>
<polygon points="235.1,351.6 243.1,351.6 243.1,359.6 235.1,359.6" fill="rgb(255,255,255)"/>
<polygon points="243.1,351.6 251.1,351.6 251.1,359.6 243.1,359.6" fill="rgb(255,255,255)"/>
<polygon points="251.1,351.6 259.1,351.6 259.1,359.6 251.1,359.6" fill="rgb(255,255,255)"/>
<polygon points="259.1,351.6 267.1,351.6 267.1,359.6 259.1,359.6" fill="rgb(255,255,255)"/>
<polygon points="267.1,351.6 275.1,351.6 275.1,359.6 267.1,359.6" fill="rgb(255,255,255)"/>
<polygon points="275.1,351.6 283.1,351.6 283.1,359.6 275.1,359.6" fill="rgb(255,255,255)"/>
<polygon points="283.1,351.6 291.1,351.6 291.1,359.6 283.1,359.6" fill="rgb(255,255,255)"/>
<polygon points="127.1,359.6 135.1,359.6 135.1,367.6 127.1,367.6" fill="rgb(230,127,0)"/><text xml:space="preserve" x="131.1" y="366.433" font-family="Calibri" font-size="7.5" fill="rgb(0,0,0)" text-anchor="middle">4</text>
<polygon points="135.1,359.6 143.1,359.6 143.1,367.6 135.1,367.6" fill="rgb(255,255,0)"/><text xml:space="preserve" x="139.1" y="366.433" font-family="Calibri" font-size="7.5" fill="rgb(0,0,0)" text-anchor="middle">3</text>
<polygon points="143.1,359.6 151.1,359.6 151.1,367.6 143.1,367.6" fill="rgb(255,255,0)"/><text xml:space="preserve" x="147.1" y="366.433" font-family="Calibri" font-size="7.5" fill="rgb(0,0,0)" text-anchor="middle">3</text>
<polygon points="151.1,359.6 159.1,359.6 159.1,367.6 151.1,367.6" fill="rgb(127,230,0)"/><text xml:space="preserve" x="155.1" y="366.433" font-family="Calibri" font-size="7.5" fill="rgb(0,0,0)" text-anchor="middle">2</text>
<polygon points="159.1,359.6 167.1,359.6 167.1,367.6 159.1,367.6" fill="rgb(127,230,0)"/><text xml:space="preserve" x="163.1" y="366.433" font-family="Calibri" font-size="7.5" fill="rgb(0,0,0)" text-anchor="middle">2</text>
<polygon points="177.1,359.6 185.1,359.6 185.1,367.6 177.1,367.6" fill="rgb(252,194,1)"/>
<polygon points="185.1,359.6 193.1,359.6 193.1,367.6 185.1,367.6" fill="rgb(77,215,125)"/>
<polygon points="193.1,359.6 201.1,359.6 201.1,367.6 193.1,367.6" fill="rgb(76,215,126)"/>
<polygon points="201.1,359.6 209.1,359.6 209.1,367.6 201.1,367.6" fill="rgb(22,114,139)"/>
<polygon points="209.1,359.6 217.1,359.6 217.1,367.6 209.1,367.6" fill="rgb(34,162,142)"/>
<polygon points="227.1,359.6 235.1,359.6 235.1,367.6 227.1,367.6" fill="rgb(255,255,255)"/>
<polygon points="235.1,359.6 243.1,359.6 243.1,367.6 235.1,367.6" fill="rgb(255,255,255)"/>
<polygon points="243.1,359.6 251.1,359.6 251.1,367.6 243.1,367.6" fill="rgb(255,255,255)"/>
<polygon points="251.1,359.6 259.1,359.6 259.1,367.6 251.1,367.6" fill="rgb(255,255,255)"/>
<polygon points="259.1,359.6 267.1,359.6 267.1,367.6 259.1,367.6" fill="rgb(255,255,255)"/>
<polygon points="267.1,359.6 275.1,359.6 275.1,367.6 267.1,367.6" fill="rgb(255,255,255)"/>
<polygon points="275.1,359.6 283.1,359.6 283.1,367.6 275.1,367.6" fill="rgb(255,255,255)"/>
<polygon points="283.1,359.6 291.1,359.6 291.1,367.6 283.1,367.6" fill="rgb(255,255,255)"/>
<polygon points="127.1,367.6 135.1,367.6 135.1,375.6 127.1,375.6" fill="rgb(230,127,0)"/><text xml:space="preserve" x="131.1" y="374.433" font-family="Calibri" font-size="7.5" fill="rgb(0,0,0)" text-anchor="middle">4</text>
<polygon points="135.1,367.6 143.1,367.6 143.1,375.6 135.1,375.6" fill="rgb(255,255,0)"/><text xml:space="preserve" x="139.1" y="374.433" font-family="Calibri" font-size="7.5" fill="rgb(0,0,0)" text-anchor="middle">3</text>
<polygon points="143.1,367.6 151.1,367.6 151.1,375.6 143.1,375.6" fill="rgb(255,255,0)"/><text xml:space="preserve" x="147.1" y="374.433" font-family="Calibri" font-size="7.5" fill="rgb(0,0,0)" text-anchor="middle">3</text>
<polygon points="151.1,367.6 159.1,367.6 159.1,375.6 151.1,375.6" fill="rgb(127,230,0)"/><text xml:space="preserve" x="155.1" y="374.433" font-family="Calibri" font-size="7.5" fill="rgb(0,0,0)" text-anchor="middle">2</text>
<polygon points="159.1,367.6 167.1,367.6 167.1,375.6 159.1,375.6" fill="rgb(127,230,0)"/><text xml:space="preserve" x="163.1" y="374.433" font-family="Calibri" font-size="7.5" fill="rgb(0,0,0)" text-anchor="middle">2</text>
<polygon points="177.1,367.6 185.1,367.6 185.1,375.6 177.1,375.6" fill="rgb(252,194,1)"/>
<polygon points="185.1,367.6 193.1,367.6 193.1,375.6 185.1,375.6" fill="rgb(103,212,107)"/>
<polygon points="193.1,367.6 201.1,367.6 201.1,375.6 193.1,375.6" fill="rgb(39,183,143)"/>
<polygon points="201.1,367.6 209.1,367.6 209.1,375.6 201.1,375.6" fill="rgb(13,80,138)"/>
<polygon points="209.1,367.6 217.1,367.6 217.1,375.6 209.1,375.6" fill="rgb(38,179,143)"/>
<polygon points="227.1,367.6 235.1,367.6 235.1,375.6 227.1,375.6" fill="rgb(255,255,255)"/>
<polygon points="235.1,367.6 243.1,367.6 243.1,375.6 235.1,375.6" fill="rgb(255,255,255)"/>
<polygon points="243.1,367.6 251.1,367.6 251.1,375.6 243.1,375.6" fill="rgb(255,255,255)"/>
<polygon points="251.1,367.6 259.1,367.6 259.1,375.6 251.1,375.6" fill="rgb(255,255,255)"/>
<polygon points="259.1,367.6 267.1,367.6 267.1,375.6 259.1,375.6" fill="rgb(255,255,255)"/>
<polygon points="267.1,367.6 275.1,367.6 275.1,375.6 267.1,375.6" fill="rgb(255,255,255)"/>
<polygon points="275.1,367.6 283.1,367.6 283.1,375.6 275.1,375.6" fill="rgb(255,255,255)"/>
<polygon points="283.1,367.6 291.1,367.6 291.1,375.6 283.1,375.6" fill="rgb(255,255,255)"/>
<polygon points="127.1,375.6 135.1,375.6 135.1,383.6 127.1,383.6" fill="rgb(230,127,0)"/><text xml:space="preserve" x="131.1" y="382.433" font-family="Calibri" font-size="7.5" fill="rgb(0,0,0)" text-anchor="middle">4</text>
<polygon points="135.1,375.6 143.1,375.6 143.1,383.6 135.1,383.6" fill="rgb(255,255,0)"/><text xml:space="preserve" x="139.1" y="382.433" font-family="Calibri" font-size="7.5" fill="rgb(0,0,0)" text-anchor="middle">3</text>
<polygon points="143.1,375.6 151.1,375.6 151.1,383.6 143.1,383.6" fill="rgb(255,255,0)"/><text xml:space="preserve" x="147.1" y="382.433" font-family="Calibri" font-size="7.5" fill="rgb(0,0,0)" text-anchor="middle">3</text>
<polygon points="151.1,375.6 159.1,375.6 159.1,383.6 151.1,383.6" fill="rgb(127,230,0)"/><text xml:space="preserve" x="155.1" y="382.433" font-family="Calibri" font-size="7.5" fill="rgb(0,0,0)" text-anchor="middle">2</text>
<polygon points="159.1,375.6 167.1,375.6 167.1,383.6 159.1,383.6" fill="rgb(127,230,0)"/><text xml:space="preserve" x="163.1" y="382.433" font-family="Calibri" font-size="7.5" fill="rgb(0,0,0)" text-anchor="middle">2</text>
<polygon points="177.1,375.6 185.1,375.6 185.1,383.6 177.1,383.6" fill="rgb(252,194,1)"/>
<polygon points="185.1,375.6 193.1,375.6 193.1,383.6 185.1,383.6" fill="rgb(51,218,144)"/>
<polygon points="193.1,375.6 201.1,375.6 201.1,383.6 193.1,383.6" fill="rgb(36,170,143)"/>
<polygon points="201.1,375.6 209.1,375.6 209.1,383.6 201.1,383.6" fill="rgb(22,115,140)"/>
<polygon points="209.1,375.6 217.1,375.6 217.1,383.6 209.1,383.6" fill="rgb(32,152,142)"/>
<polygon points="227.1,375.6 235.1,375.6 235.1,383.6 227.1,383.6" fill="rgb(255,255,255)"/>
<polygon points="235.1,375.6 243.1,375.6 243.1,383.6 235.1,383.6" fill="rgb(255,255,255)"/>
<polygon points="243.1,375.6 251.1,375.6 251.1,383.6 243.1,383.6" fill="rgb(255,255,255)"/>
<polygon points="251.1,375.6 259.1,375.6 259.1,383.6 251.1,383.6" fill="rgb(255,255,255)"/>
<polygon points="259.1,375.6 267.1,375.6 267.1,383.6 259.1,383.6" fill="rgb(255,255,255)"/>
<polygon points="267.1,375.6 275.1,375.6 275.1,383.6 267.1,383.6" fill="rgb(255,255,255)"/>
<polygon points="275.1,375.6 283.1,375.6 283.1,383.6 275.1,383.6" fill="rgb(255,255,255)"/>
<polygon points="283.1,375.6 291.1,375.6 291.1,383.6 283.1,383.6" fill="rgb(255,255,255)"/>
<polygon points="127.1,383.6 135.1,383.6 135.1,391.6 127.1,391.6" fill="rgb(230,127,0)"/><text xml:space="preserve" x="131.1" y="390.433" font-family="Calibri" font-size="7.5" fill="rgb(0,0,0)" text-anchor="middle">4</text>
<polygon points="135.1,383.6 143.1,383.6 143.1,391.6 135.1,391.6" fill="rgb(255,255,0)"/><text xml:space="preserve" x="139.1" y="390.433" font-family="Calibri" font-size="7.5" fill="rgb(0,0,0)" text-anchor="middle">3</text>
<polygon points="143.1,383.6 151.1,383.6 151.1,391.6 143.1,391.6" fill="rgb(255,255,0)"/><text xml:space="preserve" x="147.1" y="390.433" font-family="Calibri" font-size="7.5" fill="rgb(0,0,0)" text-anchor="middle">3</text>
<polygon points="151.1,383.6 159.1,383.6 159.1,391.6 151.1,391.6" fill="rgb(127,230,0)"/><text xml:space="preserve" x="155.1" y="390.433" font-family="Calibri" font-size="7.5" fill="rgb(0,0,0)" text-anchor="middle">2</text>
<polygon points="159.1,383.6 167.1,383.6 167.1,391.6 159.1,391.6" fill="rgb(127,230,0)"/><text xml:space="preserve" x="163.1" y="390.433" font-family="Calibri" font-size="7.5" fill="rgb(0,0,0)" text-anchor="middle">2</text>
<polygon points="177.1,383.6 185.1,383.6 185.1,391.6 177.1,391.6" fill="rgb(252,194,1)"/>
<polygon points="185.1,383.6 193.1,383.6 193.1,391.6 185.1,391.6" fill="rgb(48,217,145)"/>
<polygon points="193.1,383.6 201.1,383.6 201.1,391.6 193.1,391.6" fill="rgb(28,137,141)"/>
<polygon points="201.1,383.6 209.1,383.6 209.1,391.6 201.1,391.6" fill="rgb(5,48,136)"/>
<polygon points="209.1,383.6 217.1,383.6 217.1,391.6 209.1,391.6" fill="rgb(40,184,144)"/>
<polygon points="227.1,383.6 235.1,383.6 235.1,391.6 227.1,391.6" fill="rgb(255,255,255)"/>
<polygon points="235.1,383.6 243.1,383.6 243.1,391.6 235.1,391.6" fill="rgb(255,255,255)"/>
<polygon points="243.1,383.6 251.1,383.6 251.1,391.6 243.1,391.6" fill="rgb(255,255,255)"/>
<polygon points="251.1,383.6 259.1,383.6 259.1,391.6 251.1,391.6" fill="rgb(255,255,255)"/>
<polygon points="259.1,383.6 267.1,383.6 267.1,391.6 259.1,391.6" fill="rgb(255,255,255)"/>
<polygon points="267.1,383.6 275.1,383.6 275.1,391.6 267.1,391.6" fill="rgb(255,255,255)"/>
<polygon points="275.1,383.6 283.1,383.6 283.1,391.6 275.1,391.6" fill="rgb(255,255,255)"/>
<polygon points="283.1,383.6 291.1,383.6 291.1,391.6 283.1,391.6" fill="rgb(255,255,255)"/>
<polygon points="127.1,391.6 135.1,391.6 135.1,399.6 127.1,399.6" fill="rgb(230,127,0)"/><text xml:space="preserve" x="131.1" y="398.433" font-family="Calibri" font-size="7.5" fill="rgb(0,0,0)" text-anchor="middle">4</text>
<polygon points="135.1,391.6 143.1,391.6 143.1,399.6 135.1,399.6" fill="rgb(255,255,0)"/><text xml:space="preserve" x="139.1" y="398.433" font-family="Calibri" font-size="7.5" fill="rgb(0,0,0)" text-anchor="middle">3</text>
<polygon points="143.1,391.6 151.1,391.6 151.1,399.6 143.1,399.6" fill="rgb(255,255,0)"/><text xml:space="preserve" x="147.1" y="398.433" font-family="Calibri" font-size="7.5" fill="rgb(0,0,0)" text-anchor="middle">3</text>
<polygon points="151.1,391.6 159.1,391.6 159.1,399.6 151.1,399.6" fill="rgb(127,230,0)"/><text xml:space="preserve" x="155.1" y="398.433" font-family="Calibri" font-size="7.5" fill="rgb(0,0,0)" text-anchor="middle">2</text>
<polygon points="159.1,391.6 167.1,391.6 167.1,399.6 159.1,399.6" fill="rgb(127,230,0)"/><text xml:space="preserve" x="163.1" y="398.433" font-family="Calibri" font-size="7.5" fill="rgb(0,0,0)" text-anchor="middle">2</text>
<polygon points="177.1,391.6 185.1,391.6 185.1,399.6 177.1,399.6" fill="rgb(252,194,1)"/>
<polygon points="185.1,391.6 193.1,391.6 193.1,399.6 185.1,399.6" fill="rgb(37,175,143)"/>
<polygon points="193.1,391.6 201.1,391.6 201.1,399.6 193.1,399.6" fill="rgb(32,156,142)"/>
<polygon points="201.1,391.6 209.1,391.6 209.1,399.6 201.1,399.6" fill="rgb(26,129,140)"/>
<polygon points="209.1,391.6 217.1,391.6 217.1,399.6 209.1,399.6" fill="rgb(16,93,138)"/>
<polygon points="227.1,391.6 235.1,391.6 235.1,399.6 227.1,399.6" fill="rgb(255,255,255)"/>
<polygon points="235.1,391.6 243.1,391.6 243.1,399.6 235.1,399.6" fill="rgb(255,255,255)"/>
<polygon points="243.1,391.6 251.1,391.6 251.1,399.6 243.1,399.6" fill="rgb(255,255,255)"/>
<polygon points="251.1,391.6 259.1,391.6 259.1,399.6 251.1,399.6" fill="rgb(255,255,255)"/>
<polygon points="259.1,391.6 267.1,391.6 267.1,399.6 259.1,399.6" fill="rgb(255,255,255)"/>
<polygon points="267.1,391.6 275.1,391.6 275.1,399.6 267.1,399.6" fill="rgb(255,255,255)"/>
<polygon points="275.1,391.6 283.1,391.6 283.1,399.6 275.1,399.6" fill="rgb(255,255,255)"/>
<polygon points="283.1,391.6 291.1,391.6 291.1,399.6 283.1,399.6" fill="rgb(255,255,255)"/>
<polygon points="127.1,399.6 135.1,399.6 135.1,407.6 127.1,407.6" fill="rgb(230,127,0)"/><text xml:space="preserve" x="131.1" y="406.433" font-family="Calibri" font-size="7.5" fill="rgb(0,0,0)" text-anchor="middle">4</text>
<polygon points="135.1,399.6 143.1,399.6 143.1,407.6 135.1,407.6" fill="rgb(255,255,0)"/><text xml:space="preserve" x="139.1" y="406.433" font-family="Calibri" font-size="7.5" fill="rgb(0,0,0)" text-anchor="middle">3</text>
<polygon points="143.1,399.6 151.1,399.6 151.1,407.6 143.1,407.6" fill="rgb(255,255,0)"/><text xml:space="preserve" x="147.1" y="406.433" font-family="Calibri" font-size="7.5" fill="rgb(0,0,0)" text-anchor="middle">3</text>
<polygon points="151.1,399.6 159.1,399.6 159.1,407.6 151.1,407.6" fill="rgb(127,230,0)"/><text xml:space="preserve" x="155.1" y="406.433" font-family="Calibri" font-size="7.5" fill="rgb(0,0,0)" text-anchor="middle">2</text>
<polygon points="159.1,399.6 167.1,399.6 167.1,407.6 159.1,407.6" fill="rgb(127,230,0)"/><text xml:space="preserve" x="163.1" y="406.433" font-family="Calibri" font-size="7.5" fill="rgb(0,0,0)" text-anchor="middle">2</text>
<polygon points="177.1,399.6 185.1,399.6 185.1,407.6 177.1,407.6" fill="rgb(252,194,1)"/>
<polygon points="185.1,399.6 193.1,399.6 193.1,407.6 185.1,407.6" fill="rgb(42,192,144)"/>
<polygon points="193.1,399.6 201.1,399.6 201.1,407.6 193.1,407.6" fill="rgb(45,206,145)"/>
<polygon points="201.1,399.6 209.1,399.6 209.1,407.6 201.1,407.6" fill="rgb(26,131,141)"/>
<polygon points="209.1,399.6 217.1,399.6 217.1,407.6 209.1,407.6" fill="rgb(19,105,139)"/>
<polygon points="227.1,399.6 235.1,399.6 235.1,407.6 227.1,407.6" fill="rgb(255,255,255)"/>
<polygon points="235.1,399.6 243.1,399.6 243.1,407.6 235.1,407.6" fill="rgb(255,255,255)"/>
<polygon points="243.1,399.6 251.1,399.6 251.1,407.6 243.1,407.6" fill="rgb(255,255,255)"/>
<polygon points="251.1,399.6 259.1,399.6 259.1,407.6 251.1,407.6" fill="rgb(255,255,255)"/>
<polygon points="259.1,399.6 267.1,399.6 267.1,407.6 259.1,407.6" fill="rgb(255,255,255)"/>
<polygon points="267.1,399.6 275.1,399.6 275.1,407.6 267.1,407.6" fill="rgb(255,255,255)"/>
<polygon points="275.1,399.6 283.1,399.6 283.1,407.6 275.1,407.6" fill="rgb(255,255,255)"/>
<polygon points="283.1,399.6 291.1,399.6 291.1,407.6 283.1,407.6" fill="rgb(255,255,255)"/>
<polygon points="127.1,335.6 167.1,335.6 167.1,407.6 127.1,407.6" fill="none" stroke="black" stroke-width="1"/>
<polygon points="177.1,335.6 217.1,335.6 217.1,407.6 177.1,407.6" fill="none" stroke="black" stroke-width="1"/>
<polygon points="227.1,335.6 291.1,335.6 291.1,407.6 227.1,407.6" fill="none" stroke="black" stroke-width="1"/>
<text xml:space="preserve" x="155.55" y="440.6" font-family="Calibri" font-size="8" text-anchor="middle">ClusterAssignment</text>
<polygon points="105.55,447.6 125.55,447.6 125.55,467.6 105.55,467.6" fill="rgb(0,205,0)"/><polygon points="105.55,447.6 125.55,447.6 125.55,467.6 105.55,467.6" fill="none" stroke="black" stroke-width="1"/><text xml:space="preserve" x="115.55" y="460.433" font-family="Calibri" font-size="7.5" fill="rgb(255,255,255)" text-anchor="middle">1.0</text>
<polygon points="125.55,447.6 145.55,447.6 145.55,467.6 125.55,467.6" fill="rgb(127,230,0)"/><polygon points="125.55,447.6 145.55,447.6 145.55,467.6 125.55,467.6" fill="none" stroke="black" stroke-width="1"/><text xml:space="preserve" x="135.55" y="460.433" font-family="Calibri" font-size="7.5" fill="rgb(0,0,0)" text-anchor="middle">2.0</text>
<polygon points="145.55,447.6 165.55,447.6 165.55,467.6 145.55,467.6" fill="rgb(255,255,0)"/><polygon points="145.55,447.6 165.55,447.6 165.55,467.6 145.55,467.6" fill="none" stroke="black" stroke-width="1"/><text xml:space="preserve" x="155.55" y="460.433" font-family="Calibri" font-size="7.5" fill="rgb(0,0,0)" text-anchor="middle">3.0</text>
<polygon points="165.55,447.6 185.55,447.6 185.55,467.6 165.55,467.6" fill="rgb(230,127,0)"/><polygon points="165.55,447.6 185.55,447.6 185.55,467.6 165.55,467.6" fill="none" stroke="black" stroke-width="1"/><text xml:space="preserve" x="175.55" y="460.433" font-family="Calibri" font-size="7.5" fill="rgb(0,0,0)" text-anchor="middle">4.0</text>
<polygon points="185.55,447.6 205.55,447.6 205.55,467.6 185.55,467.6" fill="rgb(205,0,0)"/><polygon points="185.55,447.6 205.55,447.6 205.55,467.6 185.55,467.6" fill="none" stroke="black" stroke-width="1"/><text xml:space="preserve" x="195.55" y="460.433" font-family="Calibri" font-size="7.5" fill="rgb(255,255,255)" text-anchor="middle">5.0</text>
<text xml:space="preserve" x="155.55" y="500.6" font-family="Calibri" font-size="8" text-anchor="middle">Expression</text>
<polygon points="105.55,507.6 125.55,507.6 125.55,527.6 105.55,527.6" fill="rgb(0,27,135)"/><polygon points="105.55,507.6 125.55,507.6 125.55,527.6 105.55,527.6" fill="none" stroke="black" stroke-width="1"/><text xml:space="preserve" x="115.55" y="520.433" font-family="Calibri" font-size="7.5" fill="rgb(255,255,255)" text-anchor="middle">0.0</text>
<polygon points="125.55,507.6 145.55,507.6 145.55,527.6 125.55,527.6" fill="rgb(24,123,140)"/><polygon points="125.55,507.6 145.55,507.6 145.55,527.6 125.55,527.6" fill="none" stroke="black" stroke-width="1"/><text xml:space="preserve" x="135.55" y="520.433" font-family="Calibri" font-size="7.5" fill="rgb(255,255,255)" text-anchor="middle">0.8</text>
<polygon points="145.55,507.6 165.55,507.6 165.55,527.6 145.55,527.6" fill="rgb(49,219,146)"/><polygon points="145.55,507.6 165.55,507.6 165.55,527.6 145.55,527.6" fill="none" stroke="black" stroke-width="1"/><text xml:space="preserve" x="155.55" y="520.433" font-family="Calibri" font-size="7.5" fill="rgb(0,0,0)" text-anchor="middle">1.5</text>
<polygon points="165.55,507.6 185.55,507.6 185.55,527.6 165.55,527.6" fill="rgb(150,206,73)"/><polygon points="165.55,507.6 185.55,507.6 185.55,527.6 165.55,527.6" fill="none" stroke="black" stroke-width="1"/><text xml:space="preserve" x="175.55" y="520.433" font-family="Calibri" font-size="7.5" fill="rgb(0,0,0)" text-anchor="middle">2.2</text>
<polygon points="185.55,507.6 205.55,507.6 205.55,527.6 185.55,527.6" fill="rgb(252,194,1)"/><polygon points="185.55,507.6 205.55,507.6 205.55,527.6 185.55,527.6" fill="none" stroke="black" stroke-width="1"/><text xml:space="preserve" x="195.55" y="520.433" font-family="Calibri" font-size="7.5" fill="rgb(0,0,0)" text-anchor="middle">3.0</text>
<text xml:space="preserve" x="155.55" y="560.6" font-family="Calibri" font-size="8" text-anchor="middle">PANTHERclass</text>
<polygon points="105.55,567.6 125.55,567.6 125.55,587.6 105.55,587.6" fill="rgb(255,255,255)"/><polygon points="105.55,567.6 125.55,567.6 125.55,587.6 105.55,587.6" fill="none" stroke="black" stroke-width="1"/><text xml:space="preserve" x="115.55" y="580.433" font-family="Calibri" font-size="7.5" fill="rgb(0,0,0)" text-anchor="middle">0.0</text>
<polygon points="125.55,567.6 145.55,567.6 145.55,587.6 125.55,587.6" fill="rgb(242,191,242)"/><polygon points="125.55,567.6 145.55,567.6 145.55,587.6 125.55,587.6" fill="none" stroke="black" stroke-width="1"/><text xml:space="preserve" x="135.55" y="580.433" font-family="Calibri" font-size="7.5" fill="rgb(0,0,0)" text-anchor="middle">0.2</text>
<polygon points="145.55,567.6 165.55,567.6 165.55,587.6 145.55,587.6" fill="rgb(230,127,230)"/><polygon points="145.55,567.6 165.55,567.6 165.55,587.6 145.55,587.6" fill="none" stroke="black" stroke-width="1"/><text xml:space="preserve" x="155.55" y="580.433" font-family="Calibri" font-size="7.5" fill="rgb(0,0,0)" text-anchor="middle">0.5</text>
<polygon points="165.55,567.6 185.55,567.6 185.55,587.6 165.55,587.6" fill="rgb(217,63,217)"/><polygon points="165.55,567.6 185.55,567.6 185.55,587.6 165.55,587.6" fill="none" stroke="black" stroke-width="1"/><text xml:space="preserve" x="175.55" y="580.433" font-family="Calibri" font-size="7.5" fill="rgb(255,255,255)" text-anchor="middle">0.8</text>
<polygon points="185.55,567.6 205.55,567.6 205.55,587.6 185.55,587.6" fill="rgb(205,0,205)"/><polygon points="185.55,567.6 205.55,567.6 205.55,587.6 185.55,587.6" fill="none" stroke="black" stroke-width="1"/><text xml:space="preserve" x="195.55" y="580.433" font-family="Calibri" font-size="7.5" fill="rgb(255,255,255)" text-anchor="middle">1.0</text>
</svg>
