<?xml version="1.0" standalone="no"?><!DOCTYPE svg PUBLIC "-//W3C//DTD SVG 1.1//EN" "http://www.w3.org/Graphics/SVG/1.1/DTD/svg11.dtd">
<svg width="267.3" height="607.6" version="1.1" xmlns="http://www.w3.org/2000/svg">
<text xml:space="preserve" x="79.3" y="342.6" font-family="Calibri" font-size="8" text-anchor="end">ASF1B</text>
<text xml:space="preserve" x="79.3" y="350.6" font-family="Calibri" font-size="8" text-anchor="end">MYBL2</text>
<text xml:space="preserve" x="79.3" y="358.6" font-family="Calibri" font-size="8" text-anchor="end">CENPA</text>
<text xml:space="preserve" x="79.3" y="366.6" font-family="Calibri" font-size="8" text-anchor="end">UBE2C</text>
<text xml:space="preserve" x="79.3" y="374.6" font-family="Calibri" font-size="8" text-anchor="end">SPC24</text>
<text xml:space="preserve" x="79.3" y="382.6" font-family="Calibri" font-size="8" text-anchor="end">SKA1</text>
<text xml:space="preserve" x="79.3" y="390.6" font-family="Calibri" font-size="8" text-anchor="end">BIRC5</text>
<text xml:space="preserve" x="79.3" y="398.6" font-family="Calibri" font-size="8" text-anchor="end">PBK</text>
<text xml:space="preserve" x="79.3" y="406.6" font-family="Calibri" font-size="8" text-anchor="end">AURKB</text>
<text xml:space="preserve" x="90.3" y="331.6" font-family="Calibri" font-size="8" transform="rotate(270 90.3 331.6)">c2</text>
<text xml:space="preserve" x="98.3" y="331.6" font-family="Calibri" font-size="8" transform="rotate(270 98.3 331.6)">c4</text>
<text xml:space="preserve" x="106.3" y="331.6" font-family="Calibri" font-size="8" transform="rotate(270 106.3 331.6)">c3</text>
<text xml:space="preserve" x="114.3" y="331.6" font-family="Calibri" font-size="8" transform="rotate(270 114.3 331.6)">c1</text>
<text xml:space="preserve" x="122.3" y="331.6" font-family="Calibri" font-size="8" transform="rotate(270 122.3 331.6)">c5</text>
<text xml:space="preserve" x="140.3" y="331.6" font-family="Calibri" font-size="8" transform="rotate(270 140.3 331.6)">c2_mean</text>
<text xml:space="preserve" x="148.3" y="331.6" font-family="Calibri" font-size="8" transform="rotate(270 148.3 331.6)">c4_mean</text>
<text xml:space="preserve" x="156.3" y="331.6" font-family="Calibri" font-size="8" transform="rotate(270 156.3 331.6)">c3_mean</text>
<text xml:space="preserve" x="164.3" y="331.6" font-family="Calibri" font-size="8" transform="rotate(270 164.3 331.6)">c1_mean</text>
<text xml:space="preserve" x="172.3" y="331.6" font-family="Calibri" font-size="8" transform="rotate(270 172.3 331.6)">c5_mean</text>
<text xml:space="preserve" x="190.3" y="331.6" font-family="Calibri" font-size="8" transform="rotate(270 190.3 331.6)">transcription_factor</text>
<text xml:space="preserve" x="198.3" y="331.6" font-family="Calibri" font-size="8" transform="rotate(270 198.3 331.6)">transmembrane_signal_receptor</text>
<text xml:space="preserve" x="206.3" y="331.6" font-family="Calibri" font-size="8" transform="rotate(270 206.3 331.6)">growth_factor</text>
<text xml:space="preserve" x="214.3" y="331.6" font-family="Calibri" font-size="8" transform="rotate(270 214.3 331.6)">peptide_hormone</text>
<text xml:space="preserve" x="222.3" y="331.6" font-family="Calibri" font-size="8" transform="rotate(270 222.3 331.6)">cytoskeletal_protein</text>
<text xml:space="preserve" x="230.3" y="331.6" font-family="Calibri" font-size="8" transform="rotate(270 230.3 331.6)">ion_channel</text>
<text xml:space="preserve" x="238.3" y="331.6" font-family="Calibri" font-size="8" transform="rotate(270 238.3 331.6)">integrin</text>
<text xml:space="preserve" x="246.3" y="331.6" font-family="Calibri" font-size="8" transform="rotate(270 246.3 331.6)">extracellular_matrix_protein</text>
<polygon points="83.3,335.6 91.3,335.6 91.3,343.6 83.3,343.6" fill="rgb(0,205,0)"/><text xml:space="preserve" x="87.3" y="342.433" font-family="Calibri" font-size="7.5" fill="rgb(255,255,255)" text-anchor="middle">1</text>
<polygon points="91.3,335.6 99.3,335.6 99.3,343.6 91.3,343.6" fill="rgb(0,205,0)"/><text xml:space="preserve" x="95.3" y="342.433" font-family="Calibri" font-size="7.5" fill="rgb(255,255,255)" text-anchor="middle">1</text>
<polygon points="99.3,335.6 107.3,335.6 107.3,343.6 99.3,343.6" fill="rgb(0,205,0)"/><text xml:space="preserve" x="103.3" y="342.433" font-family="Calibri" font-size="7.5" fill="rgb(255,255,255)" text-anchor="middle">1</text>
<polygon points="107.3,335.6 115.3,335.6 115.3,343.6 107.3,343.6" fill="rgb(205,0,0)"/><text xml:space="preserve" x="111.3" y="342.433" font-family="Calibri" font-size="7.5" fill="rgb(255,255,255)" text-anchor="middle">5</text>
<polygon points="115.3,335.6 123.3,335.6 123.3,343.6 115.3,343.6" fill="rgb(255,255,0)"/><text xml:space="preserve" x="119.3" y="342.433" font-family="Calibri" font-size="7.5" fill="rgb(0,0,0)" text-anchor="middle">3</text>
<polygon points="133.3,335.6 141.3,335.6 141.3,343.6 133.3,343.6" fill="rgb(23,119,140)"/>
<polygon points="141.3,335.6 149.3,335.6 149.3,343.6 141.3,343.6" fill="rgb(2,38,135)"/>
<polygon points="149.3,335.6 157.3,335.6 157.3,343.6 149.3,343.6" fill="rgb(8,60,136)"/>
<polygon points="157.3,335.6 165.3,335.6 165.3,343.6 157.3,343.6" fill="rgb(216,198,26)"/>
<polygon points="165.3,335.6 173.3,335.6 173.3,343.6 165.3,343.6" fill="rgb(252,194,1)"/>
<polygon points="183.3,335.6 191.3,335.6 191.3,343.6 183.3,343.6" fill="rgb(255,255,255)"/>
<polygon points="191.3,335.6 199.3,335.6 199.3,343.6 191.3,343.6" fill="rgb(255,255,255)"/>
<polygon points="199.3,335.6 207.3,335.6 207.3,343.6 199.3,343.6" fill="rgb(255,255,255)"/>
<polygon points="207.3,335.6 215.3,335.6 215.3,343.6 207.3,343.6" fill="rgb(255,255,255)"/>
<polygon points="215.3,335.6 223.3,335.6 223.3,343.6 215.3,343.6" fill="rgb(255,255,255)"/>
<polygon points="223.3,335.6 231.3,335.6 231.3,343.6 223.3,343.6" fill="rgb(255,255,255)"/>
<polygon points="231.3,335.6 239.3,335.6 239.3,343.6 231.3,343.6" fill="rgb(255,255,255)"/>
<polygon points="239.3,335.6 247.3,335.6 247.3,343.6 239.3,343.6" fill="rgb(255,255,255)"/>
<polygon points="83.3,343.6 91.3,343.6 91.3,351.6 83.3,351.6" fill="rgb(0,205,0)"/><text xml:space="preserve" x="87.3" y="350.433" font-family="Calibri" font-size="7.5" fill="rgb(255,255,255)" text-anchor="middle">1</text>
<polygon points="91.3,343.6 99.3,343.6 99.3,351.6 91.3,351.6" fill="rgb(0,205,0)"/><text xml:space="preserve" x="95.3" y="350.433" font-family="Calibri" font-size="7.5" fill="rgb(255,255,255)" text-anchor="middle">1</text>
<polygon points="99.3,343.6 107.3,343.6 107.3,351.6 99.3,351.6" fill="rgb(0,205,0)"/><text xml:space="preserve" x="103.3" y="350.433" font-family="Calibri" font-size="7.5" fill="rgb(255,255,255)" text-anchor="middle">1</text>
<polygon points="107.3,343.6 115.3,343.6 115.3,351.6 107.3,351.6" fill="rgb(205,0,0)"/><text xml:space="preserve" x="111.3" y="350.433" font-family="Calibri" font-size="7.5" fill="rgb(255,255,255)" text-anchor="middle">5</text>
<polygon points="115.3,343.6 123.3,343.6 123.3,351.6 115.3,351.6" fill="rgb(255,255,0)"/><text xml:space="preserve" x="119.3" y="350.433" font-family="Calibri" font-size="7.5" fill="rgb(0,0,0)" text-anchor="middle">3</text>
<polygon points="133.3,343.6 141.3,343.6 141.3,351.6 133.3,351.6" fill="rgb(24,121,140)"/>
<polygon points="141.3,343.6 149.3,343.6 149.3,351.6 141.3,351.6" fill="rgb(4,43,135)"/>
<polygon points="149.3,343.6 157.3,343.6 157.3,351.6 149.3,351.6" fill="rgb(10,67,137)"/>
<polygon points="157.3,343.6 165.3,343.6 165.3,351.6 157.3,351.6" fill="rgb(177,203,54)"/>
<polygon points="165.3,343.6 173.3,343.6 173.3,351.6 165.3,351.6" fill="rgb(252,194,1)"/>
<polygon points="183.3,343.6 191.3,343.6 191.3,351.6 183.3,351.6" fill="rgb(205,0,205)"/>
<polygon points="191.3,343.6 199.3,343.6 199.3,351.6 191.3,351.6" fill="rgb(255,255,255)"/>
<polygon points="199.3,343.6 207.3,343.6 207.3,351.6 199.3,351.6" fill="rgb(255,255,255)"/>
<polygon points="207.3,343.6 215.3,343.6 215.3,351.6 207.3,351.6" fill="rgb(255,255,255)"/>
<polygon points="215.3,343.6 223.3,343.6 223.3,351.6 215.3,351.6" fill="rgb(255,255,255)"/>
<polygon points="223.3,343.6 231.3,343.6 231.3,351.6 223.3,351.6" fill="rgb(255,255,255)"/>
<polygon points="231.3,343.6 239.3,343.6 239.3,351.6 231.3,351.6" fill="rgb(255,255,255)"/>
<polygon points="239.3,343.6 247.3,343.6 247.3,351.6 239.3,351.6" fill="rgb(255,255,255)"/>
<polygon points="83.3,351.6 91.3,351.6 91.3,359.6 83.3,359.6" fill="rgb(0,205,0)"/><text xml:space="preserve" x="87.3" y="358.433" font-family="Calibri" font-size="7.5" fill="rgb(255,255,255)" text-anchor="middle">1</text>
<polygon points="91.3,351.6 99.3,351.6 99.3,359.6 91.3,359.6" fill="rgb(0,205,0)"/><text xml:space="preserve" x="95.3" y="358.433" font-family="Calibri" font-size="7.5" fill="rgb(255,255,255)" text-anchor="middle">1</text>
<polygon points="99.3,351.6 107.3,351.6 107.3,359.6 99.3,359.6" fill="rgb(0,205,0)"/><text xml:space="preserve" x="103.3" y="358.433" font-family="Calibri" font-size="7.5" fill="rgb(255,255,255)" text-anchor="middle">1</text>
<polygon points="107.3,351.6 115.3,351.6 115.3,359.6 107.3,359.6" fill="rgb(205,0,0)"/><text xml:space="preserve" x="111.3" y="358.433" font-family="Calibri" font-size="7.5" fill="rgb(255,255,255)" text-anchor="middle">5</text>
<polygon points="115.3,351.6 123.3,351.6 123.3,359.6 115.3,359.6" fill="rgb(255,255,0)"/><text xml:space="preserve" x="119.3" y="358.433" font-family="Calibri" font-size="7.5" fill="rgb(0,0,0)" text-anchor="middle">3</text>
<polygon points="133.3,351.6 141.3,351.6 141.3,359.6 133.3,359.6" fill="rgb(12,76,137)"/>
<polygon points="141.3,351.6 149.3,351.6 149.3,359.6 141.3,359.6" fill="rgb(1,32,135)"/>
<polygon points="149.3,351.6 157.3,351.6 157.3,359.6 149.3,359.6" fill="rgb(0,27,135)"/>
<polygon points="157.3,351.6 165.3,351.6 165.3,359.6 157.3,359.6" fill="rgb(189,201,45)"/>
<polygon points="165.3,351.6 173.3,351.6 173.3,359.6 165.3,359.6" fill="rgb(252,194,1)"/>
<polygon points="183.3,351.6 191.3,351.6 191.3,359.6 183.3,359.6" fill="rgb(255,255,255)"/>
<polygon points="191.3,351.6 199.3,351.6 199.3,359.6 191.3,359.6" fill="rgb(255,255,255)"/>
<polygon points="199.3,351.6 207.3,351.6 207.3,359.6 199.3,359.6" fill="rgb(255,255,255)"/>
<polygon points="207.3,351.6 215.3,351.6 215.3,359.6 207.3,359.6" fill="rgb(255,255,255)"/>
<polygon points="215.3,351.6 223.3,351.6 223.3,359.6 215.3,359.6" fill="rgb(255,255,255)"/>
<polygon points="223.3,351.6 231.3,351.6 231.3,359.6 223.3,359.6" fill="rgb(255,255,255)"/>
<polygon points="231.3,351.6 239.3,351.6 239.3,359.6 231.3,359.6" fill="rgb(255,255,255)"/>
<polygon points="239.3,351.6 247.3,351.6 247.3,359.6 239.3,359.6" fill="rgb(255,255,255)"/>
<polygon points="83.3,359.6 91.3,359.6 91.3,367.6 83.3,367.6" fill="rgb(0,205,0)"/><text xml:space="preserve" x="87.3" y="366.433" font-family="Calibri" font-size="7.5" fill="rgb(255,255,255)" text-anchor="middle">1</text>
<polygon points="91.3,359.6 99.3,359.6 99.3,367.6 91.3,367.6" fill="rgb(0,205,0)"/><text xml:space="preserve" x="95.3" y="366.433" font-family="Calibri" font-size="7.5" fill="rgb(255,255,255)" text-anchor="middle">1</text>
<polygon points="99.3,359.6 107.3,359.6 107.3,367.6 99.3,367.6" fill="rgb(0,205,0)"/><text xml:space="preserve" x="103.3" y="366.433" font-family="Calibri" font-size="7.5" fill="rgb(255,255,255)" text-anchor="middle">1</text>
<polygon points="107.3,359.6 115.3,359.6 115.3,367.6 107.3,367.6" fill="rgb(205,0,0)"/><text xml:space="preserve" x="111.3" y="366.433" font-family="Calibri" font-size="7.5" fill="rgb(255,255,255)" text-anchor="middle">5</text>
<polygon points="115.3,359.6 123.3,359.6 123.3,367.6 115.3,367.6" fill="rgb(255,255,0)"/><text xml:space="preserve" x="119.3" y="366.433" font-family="Calibri" font-size="7.5" fill="rgb(0,0,0)" text-anchor="middle">3</text>
<polygon points="133.3,359.6 141.3,359.6 141.3,367.6 133.3,367.6" fill="rgb(15,87,138)"/>
<polygon points="141.3,359.6 149.3,359.6 149.3,367.6 141.3,367.6" fill="rgb(6,51,136)"/>
<polygon points="149.3,359.6 157.3,359.6 157.3,367.6 149.3,367.6" fill="rgb(9,62,137)"/>
<polygon points="157.3,359.6 165.3,359.6 165.3,367.6 157.3,367.6" fill="rgb(200,200,37)"/>
<polygon points="165.3,359.6 173.3,359.6 173.3,367.6 165.3,367.6" fill="rgb(252,194,1)"/>
<polygon points="183.3,359.6 191.3,359.6 191.3,367.6 183.3,367.6" fill="rgb(255,255,255)"/>
<polygon points="191.3,359.6 199.3,359.6 199.3,367.6 191.3,367.6" fill="rgb(255,255,255)"/>
<polygon points="199.3,359.6 207.3,359.6 207.3,367.6 199.3,367.6" fill="rgb(255,255,255)"/>
<polygon points="207.3,359.6 215.3,359.6 215.3,367.6 207.3,367.6" fill="rgb(255,255,255)"/>
<polygon points="215.3,359.6 223.3,359.6 223.3,367.6 215.3,367.6" fill="rgb(255,255,255)"/>
<polygon points="223.3,359.6 231.3,359.6 231.3,367.6 223.3,367.6" fill="rgb(255,255,255)"/>
<polygon points="231.3,359.6 239.3,359.6 239.3,367.6 231.3,367.6" fill="rgb(255,255,255)"/>
<polygon points="239.3,359.6 247.3,359.6 247.3,367.6 239.3,367.6" fill="rgb(255,255,255)"/>
<polygon points="83.3,367.6 91.3,367.6 91.3,375.6 83.3,375.6" fill="rgb(0,205,0)"/><text xml:space="preserve" x="87.3" y="374.433" font-family="Calibri" font-size="7.5" fill="rgb(255,255,255)" text-anchor="middle">1</text>
<polygon points="91.3,367.6 99.3,367.6 99.3,375.6 91.3,375.6" fill="rgb(0,205,0)"/><text xml:space="preserve" x="95.3" y="374.433" font-family="Calibri" font-size="7.5" fill="rgb(255,255,255)" text-anchor="middle">1</text>
<polygon points="99.3,367.6 107.3,367.6 107.3,375.6 99.3,375.6" fill="rgb(0,205,0)"/><text xml:space="preserve" x="103.3" y="374.433" font-family="Calibri" font-size="7.5" fill="rgb(255,255,255)" text-anchor="middle">1</text>
<polygon points="107.3,367.6 115.3,367.6 115.3,375.6 107.3,375.6" fill="rgb(205,0,0)"/><text xml:space="preserve" x="111.3" y="374.433" font-family="Calibri" font-size="7.5" fill="rgb(255,255,255)" text-anchor="middle">5</text>
<polygon points="115.3,367.6 123.3,367.6 123.3,375.6 115.3,375.6" fill="rgb(255,255,0)"/><text xml:space="preserve" x="119.3" y="374.433" font-family="Calibri" font-size="7.5" fill="rgb(0,0,0)" text-anchor="middle">3</text>
<polygon points="133.3,367.6 141.3,367.6 141.3,375.6 133.3,375.6" fill="rgb(16,91,138)"/>
<polygon points="141.3,367.6 149.3,367.6 149.3,375.6 141.3,375.6" fill="rgb(8,61,136)"/>
<polygon points="149.3,367.6 157.3,367.6 157.3,375.6 149.3,375.6" fill="rgb(8,61,136)"/>
<polygon points="157.3,367.6 165.3,367.6 165.3,375.6 157.3,375.6" fill="rgb(181,202,51)"/>
<polygon points="165.3,367.6 173.3,367.6 173.3,375.6 165.3,375.6" fill="rgb(252,194,1)"/>
<polygon points="183.3,367.6 191.3,367.6 191.3,375.6 183.3,375.6" fill="rgb(255,255,255)"/>
<polygon points="191.3,367.6 199.3,367.6 199.3,375.6 191.3,375.6" fill="rgb(255,255,255)"/>
<polygon points="199.3,367.6 207.3,367.6 207.3,375.6 199.3,375.6" fill="rgb(255,255,255)"/>
<polygon points="207.3,367.6 215.3,367.6 215.3,375.6 207.3,375.6" fill="rgb(255,255,255)"/>
<polygon points="215.3,367.6 223.3,367.6 223.3,375.6 215.3,375.6" fill="rgb(255,255,255)"/>
<polygon points="223.3,367.6 231.3,367.6 231.3,375.6 223.3,375.6" fill="rgb(255,255,255)"/>
<polygon points="231.3,367.6 239.3,367.6 239.3,375.6 231.3,375.6" fill="rgb(255,255,255)"/>
<polygon points="239.3,367.6 247.3,367.6 247.3,375.6 239.3,375.6" fill="rgb(255,255,255)"/>
<polygon points="83.3,375.6 91.3,375.6 91.3,383.6 83.3,383.6" fill="rgb(0,205,0)"/><text xml:space="preserve" x="87.3" y="382.433" font-family="Calibri" font-size="7.5" fill="rgb(255,255,255)" text-anchor="middle">1</text>
<polygon points="91.3,375.6 99.3,375.6 99.3,383.6 91.3,383.6" fill="rgb(0,205,0)"/><text xml:space="preserve" x="95.3" y="382.433" font-family="Calibri" font-size="7.5" fill="rgb(255,255,255)" text-anchor="middle">1</text>
<polygon points="99.3,375.6 107.3,375.6 107.3,383.6 99.3,383.6" fill="rgb(0,205,0)"/><text xml:space="preserve" x="103.3" y="382.433" font-family="Calibri" font-size="7.5" fill="rgb(255,255,255)" text-anchor="middle">1</text>
<polygon points="107.3,375.6 115.3,375.6 115.3,383.6 107.3,383.6" fill="rgb(205,0,0)"/><text xml:space="preserve" x="111.3" y="382.433" font-family="Calibri" font-size="7.5" fill="rgb(255,255,255)" text-anchor="middle">5</text>
<polygon points="115.3,375.6 123.3,375.6 123.3,383.6 115.3,383.6" fill="rgb(255,255,0)"/><text xml:space="preserve" x="119.3" y="382.433" font-family="Calibri" font-size="7.5" fill="rgb(0,0,0)" text-anchor="middle">3</text>
<polygon points="133.3,375.6 141.3,375.6 141.3,383.6 133.3,383.6" fill="rgb(34,163,142)"/>
<polygon points="141.3,375.6 149.3,375.6 149.3,383.6 141.3,383.6" fill="rgb(0,27,135)"/>
<polygon points="149.3,375.6 157.3,375.6 157.3,383.6 149.3,383.6" fill="rgb(6,51,136)"/>
<polygon points="157.3,375.6 165.3,375.6 165.3,383.6 157.3,383.6" fill="rgb(242,195,7)"/>
<polygon points="165.3,375.6 173.3,375.6 173.3,383.6 165.3,383.6" fill="rgb(252,194,1)"/>
<polygon points="183.3,375.6 191.3,375.6 191.3,383.6 183.3,383.6" fill="rgb(255,255,255)"/>
<polygon points="191.3,375.6 199.3,375.6 199.3,383.6 191.3,383.6" fill="rgb(255,255,255)"/>
<polygon points="199.3,375.6 207.3,375.6 207.3,383.6 199.3,383.6" fill="rgb(255,255,255)"/>
<polygon points="207.3,375.6 215.3,375.6 215.3,383.6 207.3,383.6" fill="rgb(255,255,255)"/>
<polygon points="215.3,375.6 223.3,375.6 223.3,383.6 215.3,383.6" fill="rgb(255,255,255)"/>
<polygon points="223.3,375.6 231.3,375.6 231.3,383.6 223.3,383.6" fill="rgb(255,255,255)"/>
<polygon points="231.3,375.6 239.3,375.6 239.3,383.6 231.3,383.6" fill="rgb(255,255,255)"/>
<polygon points="239.3,375.6 247.3,375.6 247.3,383.6 239.3,383.6" fill="rgb(255,255,255)"/>
<polygon points="83.3,383.6 91.3,383.6 91.3,391.6 83.3,391.6" fill="rgb(0,205,0)"/><text xml:space="preserve" x="87.3" y="390.433" font-family="Calibri" font-size="7.5" fill="rgb(255,255,255)" text-anchor="middle">1</text>
<polygon points="91.3,383.6 99.3,383.6 99.3,391.6 91.3,391.6" fill="rgb(0,205,0)"/><text xml:space="preserve" x="95.3" y="390.433" font-family="Calibri" font-size="7.5" fill="rgb(255,255,255)" text-anchor="middle">1</text>
<polygon points="99.3,383.6 107.3,383.6 107.3,391.6 99.3,391.6" fill="rgb(0,205,0)"/><text xml:space="preserve" x="103.3" y="390.433" font-family="Calibri" font-size="7.5" fill="rgb(255,255,255)" text-anchor="middle">1</text>
<polygon points="107.3,383.6 115.3,383.6 115.3,391.6 107.3,391.6" fill="rgb(205,0,0)"/><text xml:space="preserve" x="111.3" y="390.433" font-family="Calibri" font-size="7.5" fill="rgb(255,255,255)" text-anchor="middle">5</text>
<polygon points="115.3,383.6 123.3,383.6 123.3,391.6 115.3,391.6" fill="rgb(255,255,0)"/><text xml:space="preserve" x="119.3" y="390.433" font-family="Calibri" font-size="7.5" fill="rgb(0,0,0)" text-anchor="middle">3</text>
<polygon points="133.3,383.6 141.3,383.6 141.3,391.6 133.3,391.6" fill="rgb(18,98,139)"/>
<polygon points="141.3,383.6 149.3,383.6 149.3,391.6 141.3,391.6" fill="rgb(1,33,135)"/>
<polygon points="149.3,383.6 157.3,383.6 157.3,391.6 149.3,391.6" fill="rgb(2,37,135)"/>
<polygon points="157.3,383.6 165.3,383.6 165.3,391.6 157.3,391.6" fill="rgb(252,194,1)"/>
<polygon points="165.3,383.6 173.3,383.6 173.3,391.6 165.3,391.6" fill="rgb(252,194,1)"/>
<polygon points="183.3,383.6 191.3,383.6 191.3,391.6 183.3,391.6" fill="rgb(255,255,255)"/>
<polygon points="191.3,383.6 199.3,383.6 199.3,391.6 191.3,391.6" fill="rgb(255,255,255)"/>
<polygon points="199.3,383.6 207.3,383.6 207.3,391.6 199.3,391.6" fill="rgb(255,255,255)"/>
<polygon points="207.3,383.6 215.3,383.6 215.3,391.6 207.3,391.6" fill="rgb(255,255,255)"/>
<polygon points="215.3,383.6 223.3,383.6 223.3,391.6 215.3,391.6" fill="rgb(255,255,255)"/>
<polygon points="223.3,383.6 231.3,383.6 231.3,391.6 223.3,391.6" fill="rgb(255,255,255)"/>
<polygon points="231.3,383.6 239.3,383.6 239.3,391.6 231.3,391.6" fill="rgb(255,255,255)"/>
<polygon points="239.3,383.6 247.3,383.6 247.3,391.6 239.3,391.6" fill="rgb(255,255,255)"/>
<polygon points="83.3,391.6 91.3,391.6 91.3,399.6 83.3,399.6" fill="rgb(0,205,0)"/><text xml:space="preserve" x="87.3" y="398.433" font-family="Calibri" font-size="7.5" fill="rgb(255,255,255)" text-anchor="middle">1</text>
<polygon points="91.3,391.6 99.3,391.6 99.3,399.6 91.3,399.6" fill="rgb(0,205,0)"/><text xml:space="preserve" x="95.3" y="398.433" font-family="Calibri" font-size="7.5" fill="rgb(255,255,255)" text-anchor="middle">1</text>
<polygon points="99.3,391.6 107.3,391.6 107.3,399.6 99.3,399.6" fill="rgb(0,205,0)"/><text xml:space="preserve" x="103.3" y="398.433" font-family="Calibri" font-size="7.5" fill="rgb(255,255,255)" text-anchor="middle">1</text>
<polygon points="107.3,391.6 115.3,391.6 115.3,399.6 107.3,399.6" fill="rgb(205,0,0)"/><text xml:space="preserve" x="111.3" y="398.433" font-family="Calibri" font-size="7.5" fill="rgb(255,255,255)" text-anchor="middle">5</text>
<polygon points="115.3,391.6 123.3,391.6 123.3,399.6 115.3,399.6" fill="rgb(255,255,0)"/><text xml:space="preserve" x="119.3" y="398.433" font-family="Calibri" font-size="7.5" fill="rgb(0,0,0)" text-anchor="middle">3</text>
<polygon points="133.3,391.6 141.3,391.6 141.3,399.6 133.3,399.6" fill="rgb(24,124,140)"/>
<polygon points="141.3,391.6 149.3,391.6 149.3,399.6 141.3,399.6" fill="rgb(5,48,136)"/>
<polygon points="149.3,391.6 157.3,391.6 157.3,399.6 149.3,399.6" fill="rgb(13,79,138)"/>
<polygon points="157.3,391.6 165.3,391.6 165.3,399.6 157.3,399.6" fill="rgb(252,194,1)"/>
<polygon points="165.3,391.6 173.3,391.6 173.3,399.6 165.3,399.6" fill="rgb(252,194,1)"/>
<polygon points="183.3,391.6 191.3,391.6 191.3,399.6 183.3,399.6" fill="rgb(255,255,255)"/>
<polygon points="191.3,391.6 199.3,391.6 199.3,399.6 191.3,399.6" fill="rgb(255,255,255)"/>
<polygon points="199.3,391.6 207.3,391.6 207.3,399.6 199.3,399.6" fill="rgb(255,255,255)"/>
<polygon points="207.3,391.6 215.3,391.6 215.3,399.6 207.3,399.6" fill="rgb(255,255,255)"/>
<polygon points="215.3,391.6 223.3,391.6 223.3,399.6 215.3,399.6" fill="rgb(255,255,255)"/>
<polygon points="223.3,391.6 231.3,391.6 231.3,399.6 223.3,399.6" fill="rgb(255,255,255)"/>
<polygon points="231.3,391.6 239.3,391.6 239.3,399.6 231.3,399.6" fill="rgb(255,255,255)"/>
<polygon points="239.3,391.6 247.3,391.6 247.3,399.6 239.3,399.6" fill="rgb(255,255,255)"/>
<polygon points="83.3,399.6 91.3,399.6 91.3,407.6 83.3,407.6" fill="rgb(0,205,0)"/><text xml:space="preserve" x="87.3" y="406.433" font-family="Calibri" font-size="7.5" fill="rgb(255,255,255)" text-anchor="middle">1</text>
<polygon points="91.3,399.6 99.3,399.6 99.3,407.6 91.3,407.6" fill="rgb(0,205,0)"/><text xml:space="preserve" x="95.3" y="406.433" font-family="Calibri" font-size="7.5" fill="rgb(255,255,255)" text-anchor="middle">1</text>
<polygon points="99.3,399.6 107.3,399.6 107.3,407.6 99.3,407.6" fill="rgb(0,205,0)"/><text xml:space="preserve" x="103.3" y="406.433" font-family="Calibri" font-size="7.5" fill="rgb(255,255,255)" text-anchor="middle">1</text>
<polygon points="107.3,399.6 115.3,399.6 115.3,407.6 107.3,407.6" fill="rgb(205,0,0)"/><text xml:space="preserve" x="111.3" y="406.433" font-family="Calibri" font-size="7.5" fill="rgb(255,255,255)" text-anchor="middle">5</text>
<polygon points="115.3,399.6 123.3,399.6 123.3,407.6 115.3,407.6" fill="rgb(255,255,0)"/><text xml:space="preserve" x="119.3" y="406.433" font-family="Calibri" font-size="7.5" fill="rgb(0,0,0)" text-anchor="middle">3</text>
<polygon points="133.3,399.6 141.3,399.6 141.3,407.6 133.3,407.6" fill="rgb(14,84,138)"/>
<polygon points="141.3,399.6 149.3,399.6 149.3,407.6 141.3,407.6" fill="rgb(0,27,135)"/>
<polygon points="149.3,399.6 157.3,399.6 157.3,407.6 149.3,407.6" fill="rgb(2,35,135)"/>
<polygon points="157.3,399.6 165.3,399.6 165.3,407.6 157.3,407.6" fill="rgb(201,200,36)"/>
<polygon points="165.3,399.6 173.3,399.6 173.3,407.6 165.3,407.6" fill="rgb(252,194,1)"/>
<polygon points="183.3,399.6 191.3,399.6 191.3,407.6 183.3,407.6" fill="rgb(255,255,255)"/>
<polygon points="191.3,399.6 199.3,399.6 199.3,407.6 191.3,407.6" fill="rgb(255,255,255)"/>
<polygon points="199.3,399.6 207.3,399.6 207.3,407.6 199.3,407.6" fill="rgb(255,255,255)"/>
<polygon points="207.3,399.6 215.3,399.6 215.3,407.6 207.3,407.6" fill="rgb(255,255,255)"/>
<polygon points="215.3,399.6 223.3,399.6 223.3,407.6 215.3,407.6" fill="rgb(255,255,255)"/>
<polygon points="223.3,399.6 231.3,399.6 231.3,407.6 223.3,407.6" fill="rgb(255,255,255)"/>
<polygon points="231.3,399.6 239.3,399.6 239.3,407.6 231.3,407.6" fill="rgb(255,255,255)"/>
<polygon points="239.3,399.6 247.3,399.6 247.3,407.6 239.3,407.6" fill="rgb(255,255,255)"/>
<polygon points="83.3,335.6 123.3,335.6 123.3,407.6 83.3,407.6" fill="none" stroke="black" stroke-width="1"/>
<polygon points="133.3,335.6 173.3,335.6 173.3,407.6 133.3,407.6" fill="none" stroke="black" stroke-width="1"/>
<polygon points="183.3,335.6 247.3,335.6 247.3,407.6 183.3,407.6" fill="none" stroke="black" stroke-width="1"/>
<text xml:space="preserve" x="133.65" y="440.6" font-family="Calibri" font-size="8" text-anchor="middle">ClusterAssignment</text>
<polygon points="83.65,447.6 103.65,447.6 103.65,467.6 83.65,467.6" fill="rgb(0,205,0)"/><polygon points="83.65,447.6 103.65,447.6 103.65,467.6 83.65,467.6" fill="none" stroke="black" stroke-width="1"/><text xml:space="preserve" x="93.65" y="460.433" font-family="Calibri" font-size="7.5" fill="rgb(255,255,255)" text-anchor="middle">1.0</text>
<polygon points="103.65,447.6 123.65,447.6 123.65,467.6 103.65,467.6" fill="rgb(127,230,0)"/><polygon points="103.65,447.6 123.65,447.6 123.65,467.6 103.65,467.6" fill="none" stroke="black" stroke-width="1"/><text xml:space="preserve" x="113.65" y="460.433" font-family="Calibri" font-size="7.5" fill="rgb(0,0,0)" text-anchor="middle">2.0</text>
<polygon points="123.65,447.6 143.65,447.6 143.65,467.6 123.65,467.6" fill="rgb(255,255,0)"/><polygon points="123.65,447.6 143.65,447.6 143.65,467.6 123.65,467.6" fill="none" stroke="black" stroke-width="1"/><text xml:space="preserve" x="133.65" y="460.433" font-family="Calibri" font-size="7.5" fill="rgb(0,0,0)" text-anchor="middle">3.0</text>
<polygon points="143.65,447.6 163.65,447.6 163.65,467.6 143.65,467.6" fill="rgb(230,127,0)"/><polygon points="143.65,447.6 163.65,447.6 163.65,467.6 143.65,467.6" fill="none" stroke="black" stroke-width="1"/><text xml:space="preserve" x="153.65" y="460.433" font-family="Calibri" font-size="7.5" fill="rgb(0,0,0)" text-anchor="middle">4.0</text>
<polygon points="163.65,447.6 183.65,447.6 183.65,467.6 163.65,467.6" fill="rgb(205,0,0)"/><polygon points="163.65,447.6 183.65,447.6 183.65,467.6 163.65,467.6" fill="none" stroke="black" stroke-width="1"/><text xml:space="preserve" x="173.65" y="460.433" font-family="Calibri" font-size="7.5" fill="rgb(255,255,255)" text-anchor="middle">5.0</text>
<text xml:space="preserve" x="133.65" y="500.6" font-family="Calibri" font-size="8" text-anchor="middle">Expression</text>
<polygon points="83.65,507.6 103.65,507.6 103.65,527.6 83.65,527.6" fill="rgb(0,27,135)"/><polygon points="83.65,507.6 103.65,507.6 103.65,527.6 83.65,527.6" fill="none" stroke="black" stroke-width="1"/><text xml:space="preserve" x="93.65" y="520.433" font-family="Calibri" font-size="7.5" fill="rgb(255,255,255)" text-anchor="middle">0.0</text>
<polygon points="103.65,507.6 123.65,507.6 123.65,527.6 103.65,527.6" fill="rgb(24,123,140)"/><polygon points="103.65,507.6 123.65,507.6 123.65,527.6 103.65,527.6" fill="none" stroke="black" stroke-width="1"/><text xml:space="preserve" x="113.65" y="520.433" font-family="Calibri" font-size="7.5" fill="rgb(255,255,255)" text-anchor="middle">0.8</text>
<polygon points="123.65,507.6 143.65,507.6 143.65,527.6 123.65,527.6" fill="rgb(49,219,146)"/><polygon points="123.65,507.6 143.65,507.6 143.65,527.6 123.65,527.6" fill="none" stroke="black" stroke-width="1"/><text xml:space="preserve" x="133.65" y="520.433" font-family="Calibri" font-size="7.5" fill="rgb(0,0,0)" text-anchor="middle">1.5</text>
<polygon points="143.65,507.6 163.65,507.6 163.65,527.6 143.65,527.6" fill="rgb(150,206,73)"/><polygon points="143.65,507.6 163.65,507.6 163.65,527.6 143.65,527.6" fill="none" stroke="black" stroke-width="1"/><text xml:space="preserve" x="153.65" y="520.433" font-family="Calibri" font-size="7.5" fill="rgb(0,0,0)" text-anchor="middle">2.2</text>
<polygon points="163.65,507.6 183.65,507.6 183.65,527.6 163.65,527.6" fill="rgb(252,194,1)"/><polygon points="163.65,507.6 183.65,507.6 183.65,527.6 163.65,527.6" fill="none" stroke="black" stroke-width="1"/><text xml:space="preserve" x="173.65" y="520.433" font-family="Calibri" font-size="7.5" fill="rgb(0,0,0)" text-anchor="middle">3.0</text>
<text xml:space="preserve" x="133.65" y="560.6" font-family="Calibri" font-size="8" text-anchor="middle">PANTHERclass</text>
<polygon points="83.65,567.6 103.65,567.6 103.65,587.6 83.65,587.6" fill="rgb(255,255,255)"/><polygon points="83.65,567.6 103.65,567.6 103.65,587.6 83.65,587.6" fill="none" stroke="black" stroke-width="1"/><text xml:space="preserve" x="93.65" y="580.433" font-family="Calibri" font-size="7.5" fill="rgb(0,0,0)" text-anchor="middle">0.0</text>
<polygon points="103.65,567.6 123.65,567.6 123.65,587.6 103.65,587.6" fill="rgb(242,191,242)"/><polygon points="103.65,567.6 123.65,567.6 123.65,587.6 103.65,587.6" fill="none" stroke="black" stroke-width="1"/><text xml:space="preserve" x="113.65" y="580.433" font-family="Calibri" font-size="7.5" fill="rgb(0,0,0)" text-anchor="middle">0.2</text>
<polygon points="123.65,567.6 143.65,567.6 143.65,587.6 123.65,587.6" fill="rgb(230,127,230)"/><polygon points="123.65,567.6 143.65,567.6 143.65,587.6 123.65,587.6" fill="none" stroke="black" stroke-width="1"/><text xml:space="preserve" x="133.65" y="580.433" font-family="Calibri" font-size="7.5" fill="rgb(0,0,0)" text-anchor="middle">0.5</text>
<polygon points="143.65,567.6 163.65,567.6 163.65,587.6 143.65,587.6" fill="rgb(217,63,217)"/><polygon points="143.65,567.6 163.65,567.6 163.65,587.6 143.65,587.6" fill="none" stroke="black" stroke-width="1"/><text xml:space="preserve" x="153.65" y="580.433" font-family="Calibri" font-size="7.5" fill="rgb(255,255,255)" text-anchor="middle">0.8</text>
<polygon points="163.65,567.6 183.65,567.6 183.65,587.6 163.65,587.6" fill="rgb(205,0,205)"/><polygon points="163.65,567.6 183.65,567.6 183.65,587.6 163.65,587.6" fill="none" stroke="black" stroke-width="1"/><text xml:space="preserve" x="173.65" y="580.433" font-family="Calibri" font-size="7.5" fill="rgb(255,255,255)" text-anchor="middle">1.0</text>
</svg>
