<?xml version="1.0" standalone="no"?><!DOCTYPE svg PUBLIC "-//W3C//DTD SVG 1.1//EN" "http://www.w3.org/Graphics/SVG/1.1/DTD/svg11.dtd">
<svg width="332.7" height="631.6" version="1.1" xmlns="http://www.w3.org/2000/svg">
<text xml:space="preserve" x="144.7" y="342.6" font-family="Calibri" font-size="8" text-anchor="end">AAMDC</text>
<text xml:space="preserve" x="144.7" y="350.6" font-family="Calibri" font-size="8" text-anchor="end">ANGPTL2</text>
<text xml:space="preserve" x="144.7" y="358.6" font-family="Calibri" font-size="8" text-anchor="end">VASN</text>
<text xml:space="preserve" x="144.7" y="366.6" font-family="Calibri" font-size="8" text-anchor="end">FAM198B-AS1</text>
<text xml:space="preserve" x="144.7" y="374.6" font-family="Calibri" font-size="8" text-anchor="end">ITGA1</text>
<text xml:space="preserve" x="144.7" y="382.6" font-family="Calibri" font-size="8" text-anchor="end">AR</text>
<text xml:space="preserve" x="144.7" y="390.6" font-family="Calibri" font-size="8" text-anchor="end">BMP1</text>
<text xml:space="preserve" x="144.7" y="398.6" font-family="Calibri" font-size="8" text-anchor="end">RHOJ</text>
<text xml:space="preserve" x="144.7" y="406.6" font-family="Calibri" font-size="8" text-anchor="end">PDGFC</text>
<text xml:space="preserve" x="144.7" y="414.6" font-family="Calibri" font-size="8" text-anchor="end">ADGRV1</text>
<text xml:space="preserve" x="144.7" y="422.6" font-family="Calibri" font-size="8" text-anchor="end">TMEM63A</text>
<text xml:space="preserve" x="144.7" y="430.6" font-family="Calibri" font-size="8" text-anchor="end">ELL2</text>
<text xml:space="preserve" x="155.7" y="331.6" font-family="Calibri" font-size="8" transform="rotate(270 155.7 331.6)">c2</text>
<text xml:space="preserve" x="163.7" y="331.6" font-family="Calibri" font-size="8" transform="rotate(270 163.7 331.6)">c4</text>
<text xml:space="preserve" x="171.7" y="331.6" font-family="Calibri" font-size="8" transform="rotate(270 171.7 331.6)">c3</text>
<text xml:space="preserve" x="179.7" y="331.6" font-family="Calibri" font-size="8" transform="rotate(270 179.7 331.6)">c1</text>
<text xml:space="preserve" x="187.7" y="331.6" font-family="Calibri" font-size="8" transform="rotate(270 187.7 331.6)">c5</text>
<text xml:space="preserve" x="205.7" y="331.6" font-family="Calibri" font-size="8" transform="rotate(270 205.7 331.6)">c2_mean</text>
<text xml:space="preserve" x="213.7" y="331.6" font-family="Calibri" font-size="8" transform="rotate(270 213.7 331.6)">c4_mean</text>
<text xml:space="preserve" x="221.7" y="331.6" font-family="Calibri" font-size="8" transform="rotate(270 221.7 331.6)">c3_mean</text>
<text xml:space="preserve" x="229.7" y="331.6" font-family="Calibri" font-size="8" transform="rotate(270 229.7 331.6)">c1_mean</text>
<text xml:space="preserve" x="237.7" y="331.6" font-family="Calibri" font-size="8" transform="rotate(270 237.7 331.6)">c5_mean</text>
<text xml:space="preserve" x="255.7" y="331.6" font-family="Calibri" font-size="8" transform="rotate(270 255.7 331.6)">transcription_factor</text>
<text xml:space="preserve" x="263.7" y="331.6" font-family="Calibri" font-size="8" transform="rotate(270 263.7 331.6)">transmembrane_signal_receptor</text>
<text xml:space="preserve" x="271.7" y="331.6" font-family="Calibri" font-size="8" transform="rotate(270 271.7 331.6)">growth_factor</text>
<text xml:space="preserve" x="279.7" y="331.6" font-family="Calibri" font-size="8" transform="rotate(270 279.7 331.6)">peptide_hormone</text>
<text xml:space="preserve" x="287.7" y="331.6" font-family="Calibri" font-size="8" transform="rotate(270 287.7 331.6)">cytoskeletal_protein</text>
<text xml:space="preserve" x="295.7" y="331.6" font-family="Calibri" font-size="8" transform="rotate(270 295.7 331.6)">ion_channel</text>
<text xml:space="preserve" x="303.7" y="331.6" font-family="Calibri" font-size="8" transform="rotate(270 303.7 331.6)">integrin</text>
<text xml:space="preserve" x="311.7" y="331.6" font-family="Calibri" font-size="8" transform="rotate(270 311.7 331.6)">extracellular_matrix_protein</text>
<polygon points="148.7,335.6 156.7,335.6 156.7,343.6 148.7,343.6" fill="rgb(255,255,0)"/><text xml:space="preserve" x="152.7" y="342.433" font-family="Calibri" font-size="7.5" fill="rgb(0,0,0)" text-anchor="middle">3</text>
<polygon points="156.7,335.6 164.7,335.6 164.7,343.6 156.7,343.6" fill="rgb(230,127,0)"/><text xml:space="preserve" x="160.7" y="342.433" font-family="Calibri" font-size="7.5" fill="rgb(0,0,0)" text-anchor="middle">4</text>
<polygon points="164.7,335.6 172.7,335.6 172.7,343.6 164.7,343.6" fill="rgb(230,127,0)"/><text xml:space="preserve" x="168.7" y="342.433" font-family="Calibri" font-size="7.5" fill="rgb(0,0,0)" text-anchor="middle">4</text>
<polygon points="172.7,335.6 180.7,335.6 180.7,343.6 172.7,343.6" fill="rgb(230,127,0)"/><text xml:space="preserve" x="176.7" y="342.433" font-family="Calibri" font-size="7.5" fill="rgb(0,0,0)" text-anchor="middle">4</text>
<polygon points="180.7,335.6 188.7,335.6 188.7,343.6 180.7,343.6" fill="rgb(205,0,0)"/><text xml:space="preserve" x="184.7" y="342.433" font-family="Calibri" font-size="7.5" fill="rgb(255,255,255)" text-anchor="middle">5</text>
<polygon points="198.7,335.6 206.7,335.6 206.7,343.6 198.7,343.6" fill="rgb(233,196,14)"/>
<polygon points="206.7,335.6 214.7,335.6 214.7,343.6 206.7,343.6" fill="rgb(153,206,71)"/>
<polygon points="214.7,335.6 222.7,335.6 222.7,343.6 214.7,343.6" fill="rgb(155,205,69)"/>
<polygon points="222.7,335.6 230.7,335.6 230.7,343.6 222.7,343.6" fill="rgb(97,213,111)"/>
<polygon points="230.7,335.6 238.7,335.6 238.7,343.6 230.7,343.6" fill="rgb(238,195,10)"/>
<polygon points="248.7,335.6 256.7,335.6 256.7,343.6 248.7,343.6" fill="rgb(255,255,255)"/>
<polygon points="256.7,335.6 264.7,335.6 264.7,343.6 256.7,343.6" fill="rgb(255,255,255)"/>
<polygon points="264.7,335.6 272.7,335.6 272.7,343.6 264.7,343.6" fill="rgb(255,255,255)"/>
<polygon points="272.7,335.6 280.7,335.6 280.7,343.6 272.7,343.6" fill="rgb(255,255,255)"/>
<polygon points="280.7,335.6 288.7,335.6 288.7,343.6 280.7,343.6" fill="rgb(255,255,255)"/>
<polygon points="288.7,335.6 296.7,335.6 296.7,343.6 288.7,343.6" fill="rgb(255,255,255)"/>
<polygon points="296.7,335.6 304.7,335.6 304.7,343.6 296.7,343.6" fill="rgb(255,255,255)"/>
<polygon points="304.7,335.6 312.7,335.6 312.7,343.6 304.7,343.6" fill="rgb(255,255,255)"/>
<polygon points="148.7,343.6 156.7,343.6 156.7,351.6 148.7,351.6" fill="rgb(255,255,0)"/><text xml:space="preserve" x="152.7" y="350.433" font-family="Calibri" font-size="7.5" fill="rgb(0,0,0)" text-anchor="middle">3</text>
<polygon points="156.7,343.6 164.7,343.6 164.7,351.6 156.7,351.6" fill="rgb(230,127,0)"/><text xml:space="preserve" x="160.7" y="350.433" font-family="Calibri" font-size="7.5" fill="rgb(0,0,0)" text-anchor="middle">4</text>
<polygon points="164.7,343.6 172.7,343.6 172.7,351.6 164.7,351.6" fill="rgb(230,127,0)"/><text xml:space="preserve" x="168.7" y="350.433" font-family="Calibri" font-size="7.5" fill="rgb(0,0,0)" text-anchor="middle">4</text>
<polygon points="172.7,343.6 180.7,343.6 180.7,351.6 172.7,351.6" fill="rgb(230,127,0)"/><text xml:space="preserve" x="176.7" y="350.433" font-family="Calibri" font-size="7.5" fill="rgb(0,0,0)" text-anchor="middle">4</text>
<polygon points="180.7,343.6 188.7,343.6 188.7,351.6 180.7,351.6" fill="rgb(205,0,0)"/><text xml:space="preserve" x="184.7" y="350.433" font-family="Calibri" font-size="7.5" fill="rgb(255,255,255)" text-anchor="middle">5</text>
<polygon points="198.7,343.6 206.7,343.6 206.7,351.6 198.7,351.6" fill="rgb(249,194,2)"/>
<polygon points="206.7,343.6 214.7,343.6 214.7,351.6 206.7,351.6" fill="rgb(247,194,3)"/>
<polygon points="214.7,343.6 222.7,343.6 222.7,351.6 214.7,351.6" fill="rgb(252,194,1)"/>
<polygon points="222.7,343.6 230.7,343.6 230.7,351.6 222.7,351.6" fill="rgb(104,212,106)"/>
<polygon points="230.7,343.6 238.7,343.6 238.7,351.6 230.7,351.6" fill="rgb(252,194,1)"/>
<polygon points="248.7,343.6 256.7,343.6 256.7,351.6 248.7,351.6" fill="rgb(255,255,255)"/>
<polygon points="256.7,343.6 264.7,343.6 264.7,351.6 256.7,351.6" fill="rgb(255,255,255)"/>
<polygon points="264.7,343.6 272.7,343.6 272.7,351.6 264.7,351.6" fill="rgb(255,255,255)"/>
<polygon points="272.7,343.6 280.7,343.6 280.7,351.6 272.7,351.6" fill="rgb(255,255,255)"/>
<polygon points="280.7,343.6 288.7,343.6 288.7,351.6 280.7,351.6" fill="rgb(255,255,255)"/>
<polygon points="288.7,343.6 296.7,343.6 296.7,351.6 288.7,351.6" fill="rgb(255,255,255)"/>
<polygon points="296.7,343.6 304.7,343.6 304.7,351.6 296.7,351.6" fill="rgb(255,255,255)"/>
<polygon points="304.7,343.6 312.7,343.6 312.7,351.6 304.7,351.6" fill="rgb(255,255,255)"/>
<polygon points="148.7,351.6 156.7,351.6 156.7,359.6 148.7,359.6" fill="rgb(255,255,0)"/><text xml:space="preserve" x="152.7" y="358.433" font-family="Calibri" font-size="7.5" fill="rgb(0,0,0)" text-anchor="middle">3</text>
<polygon points="156.7,351.6 164.7,351.6 164.7,359.6 156.7,359.6" fill="rgb(230,127,0)"/><text xml:space="preserve" x="160.7" y="358.433" font-family="Calibri" font-size="7.5" fill="rgb(0,0,0)" text-anchor="middle">4</text>
<polygon points="164.7,351.6 172.7,351.6 172.7,359.6 164.7,359.6" fill="rgb(230,127,0)"/><text xml:space="preserve" x="168.7" y="358.433" font-family="Calibri" font-size="7.5" fill="rgb(0,0,0)" text-anchor="middle">4</text>
<polygon points="172.7,351.6 180.7,351.6 180.7,359.6 172.7,359.6" fill="rgb(230,127,0)"/><text xml:space="preserve" x="176.7" y="358.433" font-family="Calibri" font-size="7.5" fill="rgb(0,0,0)" text-anchor="middle">4</text>
<polygon points="180.7,351.6 188.7,351.6 188.7,359.6 180.7,359.6" fill="rgb(205,0,0)"/><text xml:space="preserve" x="184.7" y="358.433" font-family="Calibri" font-size="7.5" fill="rgb(255,255,255)" text-anchor="middle">5</text>
<polygon points="198.7,351.6 206.7,351.6 206.7,359.6 198.7,359.6" fill="rgb(241,195,8)"/>
<polygon points="206.7,351.6 214.7,351.6 214.7,359.6 206.7,359.6" fill="rgb(242,195,7)"/>
<polygon points="214.7,351.6 222.7,351.6 222.7,359.6 214.7,359.6" fill="rgb(226,197,19)"/>
<polygon points="222.7,351.6 230.7,351.6 230.7,359.6 222.7,359.6" fill="rgb(47,211,145)"/>
<polygon points="230.7,351.6 238.7,351.6 238.7,359.6 230.7,359.6" fill="rgb(252,194,1)"/>
<polygon points="248.7,351.6 256.7,351.6 256.7,359.6 248.7,359.6" fill="rgb(255,255,255)"/>
<polygon points="256.7,351.6 264.7,351.6 264.7,359.6 256.7,359.6" fill="rgb(205,0,205)"/>
<polygon points="264.7,351.6 272.7,351.6 272.7,359.6 264.7,359.6" fill="rgb(255,255,255)"/>
<polygon points="272.7,351.6 280.7,351.6 280.7,359.6 272.7,359.6" fill="rgb(255,255,255)"/>
<polygon points="280.7,351.6 288.7,351.6 288.7,359.6 280.7,359.6" fill="rgb(255,255,255)"/>
<polygon points="288.7,351.6 296.7,351.6 296.7,359.6 288.7,359.6" fill="rgb(255,255,255)"/>
<polygon points="296.7,351.6 304.7,351.6 304.7,359.6 296.7,359.6" fill="rgb(255,255,255)"/>
<polygon points="304.7,351.6 312.7,351.6 312.7,359.6 304.7,359.6" fill="rgb(255,255,255)"/>
<polygon points="148.7,359.6 156.7,359.6 156.7,367.6 148.7,367.6" fill="rgb(255,255,0)"/><text xml:space="preserve" x="152.7" y="366.433" font-family="Calibri" font-size="7.5" fill="rgb(0,0,0)" text-anchor="middle">3</text>
<polygon points="156.7,359.6 164.7,359.6 164.7,367.6 156.7,367.6" fill="rgb(230,127,0)"/><text xml:space="preserve" x="160.7" y="366.433" font-family="Calibri" font-size="7.5" fill="rgb(0,0,0)" text-anchor="middle">4</text>
<polygon points="164.7,359.6 172.7,359.6 172.7,367.6 164.7,367.6" fill="rgb(230,127,0)"/><text xml:space="preserve" x="168.7" y="366.433" font-family="Calibri" font-size="7.5" fill="rgb(0,0,0)" text-anchor="middle">4</text>
<polygon points="172.7,359.6 180.7,359.6 180.7,367.6 172.7,367.6" fill="rgb(230,127,0)"/><text xml:space="preserve" x="176.7" y="366.433" font-family="Calibri" font-size="7.5" fill="rgb(0,0,0)" text-anchor="middle">4</text>
<polygon points="180.7,359.6 188.7,359.6 188.7,367.6 180.7,367.6" fill="rgb(205,0,0)"/><text xml:space="preserve" x="184.7" y="366.433" font-family="Calibri" font-size="7.5" fill="rgb(255,255,255)" text-anchor="middle">5</text>
<polygon points="198.7,359.6 206.7,359.6 206.7,367.6 198.7,367.6" fill="rgb(237,195,11)"/>
<polygon points="206.7,359.6 214.7,359.6 214.7,367.6 206.7,367.6" fill="rgb(216,198,26)"/>
<polygon points="214.7,359.6 222.7,359.6 222.7,367.6 214.7,367.6" fill="rgb(252,194,1)"/>
<polygon points="222.7,359.6 230.7,359.6 230.7,367.6 222.7,367.6" fill="rgb(126,209,90)"/>
<polygon points="230.7,359.6 238.7,359.6 238.7,367.6 230.7,367.6" fill="rgb(252,194,1)"/>
<polygon points="248.7,359.6 256.7,359.6 256.7,367.6 248.7,367.6" fill="rgb(255,255,255)"/>
<polygon points="256.7,359.6 264.7,359.6 264.7,367.6 256.7,367.6" fill="rgb(255,255,255)"/>
<polygon points="264.7,359.6 272.7,359.6 272.7,367.6 264.7,367.6" fill="rgb(255,255,255)"/>
<polygon points="272.7,359.6 280.7,359.6 280.7,367.6 272.7,367.6" fill="rgb(255,255,255)"/>
<polygon points="280.7,359.6 288.7,359.6 288.7,367.6 280.7,367.6" fill="rgb(255,255,255)"/>
<polygon points="288.7,359.6 296.7,359.6 296.7,367.6 288.7,367.6" fill="rgb(255,255,255)"/>
<polygon points="296.7,359.6 304.7,359.6 304.7,367.6 296.7,367.6" fill="rgb(255,255,255)"/>
<polygon points="304.7,359.6 312.7,359.6 312.7,367.6 304.7,367.6" fill="rgb(255,255,255)"/>
<polygon points="148.7,367.6 156.7,367.6 156.7,375.6 148.7,375.6" fill="rgb(255,255,0)"/><text xml:space="preserve" x="152.7" y="374.433" font-family="Calibri" font-size="7.5" fill="rgb(0,0,0)" text-anchor="middle">3</text>
<polygon points="156.7,367.6 164.7,367.6 164.7,375.6 156.7,375.6" fill="rgb(230,127,0)"/><text xml:space="preserve" x="160.7" y="374.433" font-family="Calibri" font-size="7.5" fill="rgb(0,0,0)" text-anchor="middle">4</text>
<polygon points="164.7,367.6 172.7,367.6 172.7,375.6 164.7,375.6" fill="rgb(230,127,0)"/><text xml:space="preserve" x="168.7" y="374.433" font-family="Calibri" font-size="7.5" fill="rgb(0,0,0)" text-anchor="middle">4</text>
<polygon points="172.7,367.6 180.7,367.6 180.7,375.6 172.7,375.6" fill="rgb(230,127,0)"/><text xml:space="preserve" x="176.7" y="374.433" font-family="Calibri" font-size="7.5" fill="rgb(0,0,0)" text-anchor="middle">4</text>
<polygon points="180.7,367.6 188.7,367.6 188.7,375.6 180.7,375.6" fill="rgb(205,0,0)"/><text xml:space="preserve" x="184.7" y="374.433" font-family="Calibri" font-size="7.5" fill="rgb(255,255,255)" text-anchor="middle">5</text>
<polygon points="198.7,367.6 206.7,367.6 206.7,375.6 198.7,375.6" fill="rgb(224,197,20)"/>
<polygon points="206.7,367.6 214.7,367.6 214.7,375.6 206.7,375.6" fill="rgb(187,202,47)"/>
<polygon points="214.7,367.6 222.7,367.6 222.7,375.6 214.7,375.6" fill="rgb(252,194,1)"/>
<polygon points="222.7,367.6 230.7,367.6 230.7,375.6 222.7,375.6" fill="rgb(39,183,143)"/>
<polygon points="230.7,367.6 238.7,367.6 238.7,375.6 230.7,375.6" fill="rgb(252,194,1)"/>
<polygon points="248.7,367.6 256.7,367.6 256.7,375.6 248.7,375.6" fill="rgb(255,255,255)"/>
<polygon points="256.7,367.6 264.7,367.6 264.7,375.6 256.7,375.6" fill="rgb(255,255,255)"/>
<polygon points="264.7,367.6 272.7,367.6 272.7,375.6 264.7,375.6" fill="rgb(255,255,255)"/>
<polygon points="272.7,367.6 280.7,367.6 280.7,375.6 272.7,375.6" fill="rgb(255,255,255)"/>
<polygon points="280.7,367.6 288.7,367.6 288.7,375.6 280.7,375.6" fill="rgb(255,255,255)"/>
<polygon points="288.7,367.6 296.7,367.6 296.7,375.6 288.7,375.6" fill="rgb(255,255,255)"/>
<polygon points="296.7,367.6 304.7,367.6 304.7,375.6 296.7,375.6" fill="rgb(205,0,205)"/>
<polygon points="304.7,367.6 312.7,367.6 312.7,375.6 304.7,375.6" fill="rgb(255,255,255)"/>
<polygon points="148.7,375.6 156.7,375.6 156.7,383.6 148.7,383.6" fill="rgb(255,255,0)"/><text xml:space="preserve" x="152.7" y="382.433" font-family="Calibri" font-size="7.5" fill="rgb(0,0,0)" text-anchor="middle">3</text>
<polygon points="156.7,375.6 164.7,375.6 164.7,383.6 156.7,383.6" fill="rgb(230,127,0)"/><text xml:space="preserve" x="160.7" y="382.433" font-family="Calibri" font-size="7.5" fill="rgb(0,0,0)" text-anchor="middle">4</text>
<polygon points="164.7,375.6 172.7,375.6 172.7,383.6 164.7,383.6" fill="rgb(230,127,0)"/><text xml:space="preserve" x="168.7" y="382.433" font-family="Calibri" font-size="7.5" fill="rgb(0,0,0)" text-anchor="middle">4</text>
<polygon points="172.7,375.6 180.7,375.6 180.7,383.6 172.7,383.6" fill="rgb(230,127,0)"/><text xml:space="preserve" x="176.7" y="382.433" font-family="Calibri" font-size="7.5" fill="rgb(0,0,0)" text-anchor="middle">4</text>
<polygon points="180.7,375.6 188.7,375.6 188.7,383.6 180.7,383.6" fill="rgb(205,0,0)"/><text xml:space="preserve" x="184.7" y="382.433" font-family="Calibri" font-size="7.5" fill="rgb(255,255,255)" text-anchor="middle">5</text>
<polygon points="198.7,375.6 206.7,375.6 206.7,383.6 198.7,383.6" fill="rgb(252,194,1)"/>
<polygon points="206.7,375.6 214.7,375.6 214.7,383.6 206.7,383.6" fill="rgb(233,196,14)"/>
<polygon points="214.7,375.6 222.7,375.6 222.7,383.6 214.7,383.6" fill="rgb(252,194,1)"/>
<polygon points="222.7,375.6 230.7,375.6 230.7,383.6 222.7,383.6" fill="rgb(47,212,145)"/>
<polygon points="230.7,375.6 238.7,375.6 238.7,383.6 230.7,383.6" fill="rgb(252,194,1)"/>
<polygon points="248.7,375.6 256.7,375.6 256.7,383.6 248.7,383.6" fill="rgb(205,0,205)"/>
<polygon points="256.7,375.6 264.7,375.6 264.7,383.6 256.7,383.6" fill="rgb(255,255,255)"/>
<polygon points="264.7,375.6 272.7,375.6 272.7,383.6 264.7,383.6" fill="rgb(255,255,255)"/>
<polygon points="272.7,375.6 280.7,375.6 280.7,383.6 272.7,383.6" fill="rgb(255,255,255)"/>
<polygon points="280.7,375.6 288.7,375.6 288.7,383.6 280.7,383.6" fill="rgb(255,255,255)"/>
<polygon points="288.7,375.6 296.7,375.6 296.7,383.6 288.7,383.6" fill="rgb(255,255,255)"/>
<polygon points="296.7,375.6 304.7,375.6 304.7,383.6 296.7,383.6" fill="rgb(255,255,255)"/>
<polygon points="304.7,375.6 312.7,375.6 312.7,383.6 304.7,383.6" fill="rgb(255,255,255)"/>
<polygon points="148.7,383.6 156.7,383.6 156.7,391.6 148.7,391.6" fill="rgb(255,255,0)"/><text xml:space="preserve" x="152.7" y="390.433" font-family="Calibri" font-size="7.5" fill="rgb(0,0,0)" text-anchor="middle">3</text>
<polygon points="156.7,383.6 164.7,383.6 164.7,391.6 156.7,391.6" fill="rgb(230,127,0)"/><text xml:space="preserve" x="160.7" y="390.433" font-family="Calibri" font-size="7.5" fill="rgb(0,0,0)" text-anchor="middle">4</text>
<polygon points="164.7,383.6 172.7,383.6 172.7,391.6 164.7,391.6" fill="rgb(230,127,0)"/><text xml:space="preserve" x="168.7" y="390.433" font-family="Calibri" font-size="7.5" fill="rgb(0,0,0)" text-anchor="middle">4</text>
<polygon points="172.7,383.6 180.7,383.6 180.7,391.6 172.7,391.6" fill="rgb(230,127,0)"/><text xml:space="preserve" x="176.7" y="390.433" font-family="Calibri" font-size="7.5" fill="rgb(0,0,0)" text-anchor="middle">4</text>
<polygon points="180.7,383.6 188.7,383.6 188.7,391.6 180.7,391.6" fill="rgb(205,0,0)"/><text xml:space="preserve" x="184.7" y="390.433" font-family="Calibri" font-size="7.5" fill="rgb(255,255,255)" text-anchor="middle">5</text>
<polygon points="198.7,383.6 206.7,383.6 206.7,391.6 198.7,391.6" fill="rgb(241,195,8)"/>
<polygon points="206.7,383.6 214.7,383.6 214.7,391.6 206.7,391.6" fill="rgb(234,196,13)"/>
<polygon points="214.7,383.6 222.7,383.6 222.7,391.6 214.7,391.6" fill="rgb(252,194,1)"/>
<polygon points="222.7,383.6 230.7,383.6 230.7,391.6 222.7,391.6" fill="rgb(40,184,144)"/>
<polygon points="230.7,383.6 238.7,383.6 238.7,391.6 230.7,391.6" fill="rgb(252,194,1)"/>
<polygon points="248.7,383.6 256.7,383.6 256.7,391.6 248.7,391.6" fill="rgb(255,255,255)"/>
<polygon points="256.7,383.6 264.7,383.6 264.7,391.6 256.7,391.6" fill="rgb(255,255,255)"/>
<polygon points="264.7,383.6 272.7,383.6 272.7,391.6 264.7,391.6" fill="rgb(205,0,205)"/>
<polygon points="272.7,383.6 280.7,383.6 280.7,391.6 272.7,391.6" fill="rgb(255,255,255)"/>
<polygon points="280.7,383.6 288.7,383.6 288.7,391.6 280.7,391.6" fill="rgb(255,255,255)"/>
<polygon points="288.7,383.6 296.7,383.6 296.7,391.6 288.7,391.6" fill="rgb(255,255,255)"/>
<polygon points="296.7,383.6 304.7,383.6 304.7,391.6 296.7,391.6" fill="rgb(255,255,255)"/>
<polygon points="304.7,383.6 312.7,383.6 312.7,391.6 304.7,391.6" fill="rgb(255,255,255)"/>
<polygon points="148.7,391.6 156.7,391.6 156.7,399.6 148.7,399.6" fill="rgb(255,255,0)"/><text xml:space="preserve" x="152.7" y="398.433" font-family="Calibri" font-size="7.5" fill="rgb(0,0,0)" text-anchor="middle">3</text>
<polygon points="156.7,391.6 164.7,391.6 164.7,399.6 156.7,399.6" fill="rgb(230,127,0)"/><text xml:space="preserve" x="160.7" y="398.433" font-family="Calibri" font-size="7.5" fill="rgb(0,0,0)" text-anchor="middle">4</text>
<polygon points="164.7,391.6 172.7,391.6 172.7,399.6 164.7,399.6" fill="rgb(230,127,0)"/><text xml:space="preserve" x="168.7" y="398.433" font-family="Calibri" font-size="7.5" fill="rgb(0,0,0)" text-anchor="middle">4</text>
<polygon points="172.7,391.6 180.7,391.6 180.7,399.6 172.7,399.6" fill="rgb(230,127,0)"/><text xml:space="preserve" x="176.7" y="398.433" font-family="Calibri" font-size="7.5" fill="rgb(0,0,0)" text-anchor="middle">4</text>
<polygon points="180.7,391.6 188.7,391.6 188.7,399.6 180.7,399.6" fill="rgb(205,0,0)"/><text xml:space="preserve" x="184.7" y="398.433" font-family="Calibri" font-size="7.5" fill="rgb(255,255,255)" text-anchor="middle">5</text>
<polygon points="198.7,391.6 206.7,391.6 206.7,399.6 198.7,399.6" fill="rgb(130,209,87)"/>
<polygon points="206.7,391.6 214.7,391.6 214.7,399.6 206.7,399.6" fill="rgb(205,199,33)"/>
<polygon points="214.7,391.6 222.7,391.6 222.7,399.6 214.7,399.6" fill="rgb(187,202,47)"/>
<polygon points="222.7,391.6 230.7,391.6 230.7,399.6 222.7,399.6" fill="rgb(43,197,144)"/>
<polygon points="230.7,391.6 238.7,391.6 238.7,399.6 230.7,399.6" fill="rgb(252,194,1)"/>
<polygon points="248.7,391.6 256.7,391.6 256.7,399.6 248.7,399.6" fill="rgb(255,255,255)"/>
<polygon points="256.7,391.6 264.7,391.6 264.7,399.6 256.7,399.6" fill="rgb(255,255,255)"/>
<polygon points="264.7,391.6 272.7,391.6 272.7,399.6 264.7,399.6" fill="rgb(255,255,255)"/>
<polygon points="272.7,391.6 280.7,391.6 280.7,399.6 272.7,399.6" fill="rgb(255,255,255)"/>
<polygon points="280.7,391.6 288.7,391.6 288.7,399.6 280.7,399.6" fill="rgb(255,255,255)"/>
<polygon points="288.7,391.6 296.7,391.6 296.7,399.6 288.7,399.6" fill="rgb(255,255,255)"/>
<polygon points="296.7,391.6 304.7,391.6 304.7,399.6 296.7,399.6" fill="rgb(255,255,255)"/>
<polygon points="304.7,391.6 312.7,391.6 312.7,399.6 304.7,399.6" fill="rgb(255,255,255)"/>
<polygon points="148.7,399.6 156.7,399.6 156.7,407.6 148.7,407.6" fill="rgb(255,255,0)"/><text xml:space="preserve" x="152.7" y="406.433" font-family="Calibri" font-size="7.5" fill="rgb(0,0,0)" text-anchor="middle">3</text>
<polygon points="156.7,399.6 164.7,399.6 164.7,407.6 156.7,407.6" fill="rgb(230,127,0)"/><text xml:space="preserve" x="160.7" y="406.433" font-family="Calibri" font-size="7.5" fill="rgb(0,0,0)" text-anchor="middle">4</text>
<polygon points="164.7,399.6 172.7,399.6 172.7,407.6 164.7,407.6" fill="rgb(230,127,0)"/><text xml:space="preserve" x="168.7" y="406.433" font-family="Calibri" font-size="7.5" fill="rgb(0,0,0)" text-anchor="middle">4</text>
<polygon points="172.7,399.6 180.7,399.6 180.7,407.6 172.7,407.6" fill="rgb(230,127,0)"/><text xml:space="preserve" x="176.7" y="406.433" font-family="Calibri" font-size="7.5" fill="rgb(0,0,0)" text-anchor="middle">4</text>
<polygon points="180.7,399.6 188.7,399.6 188.7,407.6 180.7,407.6" fill="rgb(205,0,0)"/><text xml:space="preserve" x="184.7" y="406.433" font-family="Calibri" font-size="7.5" fill="rgb(255,255,255)" text-anchor="middle">5</text>
<polygon points="198.7,399.6 206.7,399.6 206.7,407.6 198.7,407.6" fill="rgb(220,197,23)"/>
<polygon points="206.7,399.6 214.7,399.6 214.7,407.6 206.7,407.6" fill="rgb(184,202,49)"/>
<polygon points="214.7,399.6 222.7,399.6 222.7,407.6 214.7,407.6" fill="rgb(252,194,1)"/>
<polygon points="222.7,399.6 230.7,399.6 230.7,407.6 222.7,407.6" fill="rgb(135,208,84)"/>
<polygon points="230.7,399.6 238.7,399.6 238.7,407.6 230.7,407.6" fill="rgb(231,196,15)"/>
<polygon points="248.7,399.6 256.7,399.6 256.7,407.6 248.7,407.6" fill="rgb(255,255,255)"/>
<polygon points="256.7,399.6 264.7,399.6 264.7,407.6 256.7,407.6" fill="rgb(255,255,255)"/>
<polygon points="264.7,399.6 272.7,399.6 272.7,407.6 264.7,407.6" fill="rgb(205,0,205)"/>
<polygon points="272.7,399.6 280.7,399.6 280.7,407.6 272.7,407.6" fill="rgb(255,255,255)"/>
<polygon points="280.7,399.6 288.7,399.6 288.7,407.6 280.7,407.6" fill="rgb(255,255,255)"/>
<polygon points="288.7,399.6 296.7,399.6 296.7,407.6 288.7,407.6" fill="rgb(255,255,255)"/>
<polygon points="296.7,399.6 304.7,399.6 304.7,407.6 296.7,407.6" fill="rgb(255,255,255)"/>
<polygon points="304.7,399.6 312.7,399.6 312.7,407.6 304.7,407.6" fill="rgb(255,255,255)"/>
<polygon points="148.7,407.6 156.7,407.6 156.7,415.6 148.7,415.6" fill="rgb(255,255,0)"/><text xml:space="preserve" x="152.7" y="414.433" font-family="Calibri" font-size="7.5" fill="rgb(0,0,0)" text-anchor="middle">3</text>
<polygon points="156.7,407.6 164.7,407.6 164.7,415.6 156.7,415.6" fill="rgb(230,127,0)"/><text xml:space="preserve" x="160.7" y="414.433" font-family="Calibri" font-size="7.5" fill="rgb(0,0,0)" text-anchor="middle">4</text>
<polygon points="164.7,407.6 172.7,407.6 172.7,415.6 164.7,415.6" fill="rgb(230,127,0)"/><text xml:space="preserve" x="168.7" y="414.433" font-family="Calibri" font-size="7.5" fill="rgb(0,0,0)" text-anchor="middle">4</text>
<polygon points="172.7,407.6 180.7,407.6 180.7,415.6 172.7,415.6" fill="rgb(230,127,0)"/><text xml:space="preserve" x="176.7" y="414.433" font-family="Calibri" font-size="7.5" fill="rgb(0,0,0)" text-anchor="middle">4</text>
<polygon points="180.7,407.6 188.7,407.6 188.7,415.6 180.7,415.6" fill="rgb(205,0,0)"/><text xml:space="preserve" x="184.7" y="414.433" font-family="Calibri" font-size="7.5" fill="rgb(255,255,255)" text-anchor="middle">5</text>
<polygon points="198.7,407.6 206.7,407.6 206.7,415.6 198.7,415.6" fill="rgb(224,197,20)"/>
<polygon points="206.7,407.6 214.7,407.6 214.7,415.6 206.7,415.6" fill="rgb(212,198,29)"/>
<polygon points="214.7,407.6 222.7,407.6 222.7,415.6 214.7,415.6" fill="rgb(252,194,1)"/>
<polygon points="222.7,407.6 230.7,407.6 230.7,415.6 222.7,415.6" fill="rgb(146,207,76)"/>
<polygon points="230.7,407.6 238.7,407.6 238.7,415.6 230.7,415.6" fill="rgb(252,194,1)"/>
<polygon points="248.7,407.6 256.7,407.6 256.7,415.6 248.7,415.6" fill="rgb(255,255,255)"/>
<polygon points="256.7,407.6 264.7,407.6 264.7,415.6 256.7,415.6" fill="rgb(205,0,205)"/>
<polygon points="264.7,407.6 272.7,407.6 272.7,415.6 264.7,415.6" fill="rgb(255,255,255)"/>
<polygon points="272.7,407.6 280.7,407.6 280.7,415.6 272.7,415.6" fill="rgb(255,255,255)"/>
<polygon points="280.7,407.6 288.7,407.6 288.7,415.6 280.7,415.6" fill="rgb(255,255,255)"/>
<polygon points="288.7,407.6 296.7,407.6 296.7,415.6 288.7,415.6" fill="rgb(255,255,255)"/>
<polygon points="296.7,407.6 304.7,407.6 304.7,415.6 296.7,415.6" fill="rgb(255,255,255)"/>
<polygon points="304.7,407.6 312.7,407.6 312.7,415.6 304.7,415.6" fill="rgb(255,255,255)"/>
<polygon points="148.7,415.6 156.7,415.6 156.7,423.6 148.7,423.6" fill="rgb(255,255,0)"/><text xml:space="preserve" x="152.7" y="422.433" font-family="Calibri" font-size="7.5" fill="rgb(0,0,0)" text-anchor="middle">3</text>
<polygon points="156.7,415.6 164.7,415.6 164.7,423.6 156.7,423.6" fill="rgb(230,127,0)"/><text xml:space="preserve" x="160.7" y="422.433" font-family="Calibri" font-size="7.5" fill="rgb(0,0,0)" text-anchor="middle">4</text>
<polygon points="164.7,415.6 172.7,415.6 172.7,423.6 164.7,423.6" fill="rgb(230,127,0)"/><text xml:space="preserve" x="168.7" y="422.433" font-family="Calibri" font-size="7.5" fill="rgb(0,0,0)" text-anchor="middle">4</text>
<polygon points="172.7,415.6 180.7,415.6 180.7,423.6 172.7,423.6" fill="rgb(230,127,0)"/><text xml:space="preserve" x="176.7" y="422.433" font-family="Calibri" font-size="7.5" fill="rgb(0,0,0)" text-anchor="middle">4</text>
<polygon points="180.7,415.6 188.7,415.6 188.7,423.6 180.7,423.6" fill="rgb(205,0,0)"/><text xml:space="preserve" x="184.7" y="422.433" font-family="Calibri" font-size="7.5" fill="rgb(255,255,255)" text-anchor="middle">5</text>
<polygon points="198.7,415.6 206.7,415.6 206.7,423.6 198.7,423.6" fill="rgb(245,194,5)"/>
<polygon points="206.7,415.6 214.7,415.6 214.7,423.6 206.7,423.6" fill="rgb(135,208,84)"/>
<polygon points="214.7,415.6 222.7,415.6 222.7,423.6 214.7,423.6" fill="rgb(233,196,14)"/>
<polygon points="222.7,415.6 230.7,415.6 230.7,423.6 222.7,423.6" fill="rgb(72,216,129)"/>
<polygon points="230.7,415.6 238.7,415.6 238.7,423.6 230.7,423.6" fill="rgb(252,194,1)"/>
<polygon points="248.7,415.6 256.7,415.6 256.7,423.6 248.7,423.6" fill="rgb(255,255,255)"/>
<polygon points="256.7,415.6 264.7,415.6 264.7,423.6 256.7,423.6" fill="rgb(255,255,255)"/>
<polygon points="264.7,415.6 272.7,415.6 272.7,423.6 264.7,423.6" fill="rgb(255,255,255)"/>
<polygon points="272.7,415.6 280.7,415.6 280.7,423.6 272.7,423.6" fill="rgb(255,255,255)"/>
<polygon points="280.7,415.6 288.7,415.6 288.7,423.6 280.7,423.6" fill="rgb(255,255,255)"/>
<polygon points="288.7,415.6 296.7,415.6 296.7,423.6 288.7,423.6" fill="rgb(205,0,205)"/>
<polygon points="296.7,415.6 304.7,415.6 304.7,423.6 296.7,423.6" fill="rgb(255,255,255)"/>
<polygon points="304.7,415.6 312.7,415.6 312.7,423.6 304.7,423.6" fill="rgb(255,255,255)"/>
<polygon points="148.7,423.6 156.7,423.6 156.7,431.6 148.7,431.6" fill="rgb(255,255,0)"/><text xml:space="preserve" x="152.7" y="430.433" font-family="Calibri" font-size="7.5" fill="rgb(0,0,0)" text-anchor="middle">3</text>
<polygon points="156.7,423.6 164.7,423.6 164.7,431.6 156.7,431.6" fill="rgb(230,127,0)"/><text xml:space="preserve" x="160.7" y="430.433" font-family="Calibri" font-size="7.5" fill="rgb(0,0,0)" text-anchor="middle">4</text>
<polygon points="164.7,423.6 172.7,423.6 172.7,431.6 164.7,431.6" fill="rgb(230,127,0)"/><text xml:space="preserve" x="168.7" y="430.433" font-family="Calibri" font-size="7.5" fill="rgb(0,0,0)" text-anchor="middle">4</text>
<polygon points="172.7,423.6 180.7,423.6 180.7,431.6 172.7,431.6" fill="rgb(230,127,0)"/><text xml:space="preserve" x="176.7" y="430.433" font-family="Calibri" font-size="7.5" fill="rgb(0,0,0)" text-anchor="middle">4</text>
<polygon points="180.7,423.6 188.7,423.6 188.7,431.6 180.7,431.6" fill="rgb(205,0,0)"/><text xml:space="preserve" x="184.7" y="430.433" font-family="Calibri" font-size="7.5" fill="rgb(255,255,255)" text-anchor="middle">5</text>
<polygon points="198.7,423.6 206.7,423.6 206.7,431.6 198.7,431.6" fill="rgb(211,199,29)"/>
<polygon points="206.7,423.6 214.7,423.6 214.7,431.6 206.7,431.6" fill="rgb(147,206,75)"/>
<polygon points="214.7,423.6 222.7,423.6 222.7,431.6 214.7,431.6" fill="rgb(252,194,1)"/>
<polygon points="222.7,423.6 230.7,423.6 230.7,431.6 222.7,431.6" fill="rgb(134,208,85)"/>
<polygon points="230.7,423.6 238.7,423.6 238.7,431.6 230.7,431.6" fill="rgb(252,194,1)"/>
<polygon points="248.7,423.6 256.7,423.6 256.7,431.6 248.7,431.6" fill="rgb(255,255,255)"/>
<polygon points="256.7,423.6 264.7,423.6 264.7,431.6 256.7,431.6" fill="rgb(255,255,255)"/>
<polygon points="264.7,423.6 272.7,423.6 272.7,431.6 264.7,431.6" fill="rgb(255,255,255)"/>
<polygon points="272.7,423.6 280.7,423.6 280.7,431.6 272.7,431.6" fill="rgb(255,255,255)"/>
<polygon points="280.7,423.6 288.7,423.6 288.7,431.6 280.7,431.6" fill="rgb(255,255,255)"/>
<polygon points="288.7,423.6 296.7,423.6 296.7,431.6 288.7,431.6" fill="rgb(255,255,255)"/>
<polygon points="296.7,423.6 304.7,423.6 304.7,431.6 296.7,431.6" fill="rgb(255,255,255)"/>
<polygon points="304.7,423.6 312.7,423.6 312.7,431.6 304.7,431.6" fill="rgb(255,255,255)"/>
<polygon points="148.7,335.6 188.7,335.6 188.7,431.6 148.7,431.6" fill="none" stroke="black" stroke-width="1"/>
<polygon points="198.7,335.6 238.7,335.6 238.7,431.6 198.7,431.6" fill="none" stroke="black" stroke-width="1"/>
<polygon points="248.7,335.6 312.7,335.6 312.7,431.6 248.7,431.6" fill="none" stroke="black" stroke-width="1"/>
<text xml:space="preserve" x="166.35" y="464.6" font-family="Calibri" font-size="8" text-anchor="middle">ClusterAssignment</text>
<polygon points="116.35,471.6 136.35,471.6 136.35,491.6 116.35,491.6" fill="rgb(0,205,0)"/><polygon points="116.35,471.6 136.35,471.6 136.35,491.6 116.35,491.6" fill="none" stroke="black" stroke-width="1"/><text xml:space="preserve" x="126.35" y="484.433" font-family="Calibri" font-size="7.5" fill="rgb(255,255,255)" text-anchor="middle">1.0</text>
<polygon points="136.35,471.6 156.35,471.6 156.35,491.6 136.35,491.6" fill="rgb(127,230,0)"/><polygon points="136.35,471.6 156.35,471.6 156.35,491.6 136.35,491.6" fill="none" stroke="black" stroke-width="1"/><text xml:space="preserve" x="146.35" y="484.433" font-family="Calibri" font-size="7.5" fill="rgb(0,0,0)" text-anchor="middle">2.0</text>
<polygon points="156.35,471.6 176.35,471.6 176.35,491.6 156.35,491.6" fill="rgb(255,255,0)"/><polygon points="156.35,471.6 176.35,471.6 176.35,491.6 156.35,491.6" fill="none" stroke="black" stroke-width="1"/><text xml:space="preserve" x="166.35" y="484.433" font-family="Calibri" font-size="7.5" fill="rgb(0,0,0)" text-anchor="middle">3.0</text>
<polygon points="176.35,471.6 196.35,471.6 196.35,491.6 176.35,491.6" fill="rgb(230,127,0)"/><polygon points="176.35,471.6 196.35,471.6 196.35,491.6 176.35,491.6" fill="none" stroke="black" stroke-width="1"/><text xml:space="preserve" x="186.35" y="484.433" font-family="Calibri" font-size="7.5" fill="rgb(0,0,0)" text-anchor="middle">4.0</text>
<polygon points="196.35,471.6 216.35,471.6 216.35,491.6 196.35,491.6" fill="rgb(205,0,0)"/><polygon points="196.35,471.6 216.35,471.6 216.35,491.6 196.35,491.6" fill="none" stroke="black" stroke-width="1"/><text xml:space="preserve" x="206.35" y="484.433" font-family="Calibri" font-size="7.5" fill="rgb(255,255,255)" text-anchor="middle">5.0</text>
<text xml:space="preserve" x="166.35" y="524.6" font-family="Calibri" font-size="8" text-anchor="middle">Expression</text>
<polygon points="116.35,531.6 136.35,531.6 136.35,551.6 116.35,551.6" fill="rgb(0,27,135)"/><polygon points="116.35,531.6 136.35,531.6 136.35,551.6 116.35,551.6" fill="none" stroke="black" stroke-width="1"/><text xml:space="preserve" x="126.35" y="544.433" font-family="Calibri" font-size="7.5" fill="rgb(255,255,255)" text-anchor="middle">0.0</text>
<polygon points="136.35,531.6 156.35,531.6 156.35,551.6 136.35,551.6" fill="rgb(24,123,140)"/><polygon points="136.35,531.6 156.35,531.6 156.35,551.6 136.35,551.6" fill="none" stroke="black" stroke-width="1"/><text xml:space="preserve" x="146.35" y="544.433" font-family="Calibri" font-size="7.5" fill="rgb(255,255,255)" text-anchor="middle">0.8</text>
<polygon points="156.35,531.6 176.35,531.6 176.35,551.6 156.35,551.6" fill="rgb(49,219,146)"/><polygon points="156.35,531.6 176.35,531.6 176.35,551.6 156.35,551.6" fill="none" stroke="black" stroke-width="1"/><text xml:space="preserve" x="166.35" y="544.433" font-family="Calibri" font-size="7.5" fill="rgb(0,0,0)" text-anchor="middle">1.5</text>
<polygon points="176.35,531.6 196.35,531.6 196.35,551.6 176.35,551.6" fill="rgb(150,206,73)"/><polygon points="176.35,531.6 196.35,531.6 196.35,551.6 176.35,551.6" fill="none" stroke="black" stroke-width="1"/><text xml:space="preserve" x="186.35" y="544.433" font-family="Calibri" font-size="7.5" fill="rgb(0,0,0)" text-anchor="middle">2.2</text>
<polygon points="196.35,531.6 216.35,531.6 216.35,551.6 196.35,551.6" fill="rgb(252,194,1)"/><polygon points="196.35,531.6 216.35,531.6 216.35,551.6 196.35,551.6" fill="none" stroke="black" stroke-width="1"/><text xml:space="preserve" x="206.35" y="544.433" font-family="Calibri" font-size="7.5" fill="rgb(0,0,0)" text-anchor="middle">3.0</text>
<text xml:space="preserve" x="166.35" y="584.6" font-family="Calibri" font-size="8" text-anchor="middle">PANTHERclass</text>
<polygon points="116.35,591.6 136.35,591.6 136.35,611.6 116.35,611.6" fill="rgb(255,255,255)"/><polygon points="116.35,591.6 136.35,591.6 136.35,611.6 116.35,611.6" fill="none" stroke="black" stroke-width="1"/><text xml:space="preserve" x="126.35" y="604.433" font-family="Calibri" font-size="7.5" fill="rgb(0,0,0)" text-anchor="middle">0.0</text>
<polygon points="136.35,591.6 156.35,591.6 156.35,611.6 136.35,611.6" fill="rgb(242,191,242)"/><polygon points="136.35,591.6 156.35,591.6 156.35,611.6 136.35,611.6" fill="none" stroke="black" stroke-width="1"/><text xml:space="preserve" x="146.35" y="604.433" font-family="Calibri" font-size="7.5" fill="rgb(0,0,0)" text-anchor="middle">0.2</text>
<polygon points="156.35,591.6 176.35,591.6 176.35,611.6 156.35,611.6" fill="rgb(230,127,230)"/><polygon points="156.35,591.6 176.35,591.6 176.35,611.6 156.35,611.6" fill="none" stroke="black" stroke-width="1"/><text xml:space="preserve" x="166.35" y="604.433" font-family="Calibri" font-size="7.5" fill="rgb(0,0,0)" text-anchor="middle">0.5</text>
<polygon points="176.35,591.6 196.35,591.6 196.35,611.6 176.35,611.6" fill="rgb(217,63,217)"/><polygon points="176.35,591.6 196.35,591.6 196.35,611.6 176.35,611.6" fill="none" stroke="black" stroke-width="1"/><text xml:space="preserve" x="186.35" y="604.433" font-family="Calibri" font-size="7.5" fill="rgb(255,255,255)" text-anchor="middle">0.8</text>
<polygon points="196.35,591.6 216.35,591.6 216.35,611.6 196.35,611.6" fill="rgb(205,0,205)"/><polygon points="196.35,591.6 216.35,591.6 216.35,611.6 196.35,611.6" fill="none" stroke="black" stroke-width="1"/><text xml:space="preserve" x="206.35" y="604.433" font-family="Calibri" font-size="7.5" fill="rgb(255,255,255)" text-anchor="middle">1.0</text>
</svg>
