<?xml version="1.0" standalone="no"?><!DOCTYPE svg PUBLIC "-//W3C//DTD SVG 1.1//EN" "http://www.w3.org/Graphics/SVG/1.1/DTD/svg11.dtd">
<svg width="266.4" height="559.6" version="1.1" xmlns="http://www.w3.org/2000/svg">
<text xml:space="preserve" x="78.4" y="342.6" font-family="Calibri" font-size="8" text-anchor="end">ACPP</text>
<text xml:space="preserve" x="78.4" y="350.6" font-family="Calibri" font-size="8" text-anchor="end">PLAT</text>
<text xml:space="preserve" x="78.4" y="358.6" font-family="Calibri" font-size="8" text-anchor="end">IGFBP7</text>
<text xml:space="preserve" x="89.4" y="331.6" font-family="Calibri" font-size="8" transform="rotate(270 89.4 331.6)">c2</text>
<text xml:space="preserve" x="97.4" y="331.6" font-family="Calibri" font-size="8" transform="rotate(270 97.4 331.6)">c4</text>
<text xml:space="preserve" x="105.4" y="331.6" font-family="Calibri" font-size="8" transform="rotate(270 105.4 331.6)">c3</text>
<text xml:space="preserve" x="113.4" y="331.6" font-family="Calibri" font-size="8" transform="rotate(270 113.4 331.6)">c1</text>
<text xml:space="preserve" x="121.4" y="331.6" font-family="Calibri" font-size="8" transform="rotate(270 121.4 331.6)">c5</text>
<text xml:space="preserve" x="139.4" y="331.6" font-family="Calibri" font-size="8" transform="rotate(270 139.4 331.6)">c2_mean</text>
<text xml:space="preserve" x="147.4" y="331.6" font-family="Calibri" font-size="8" transform="rotate(270 147.4 331.6)">c4_mean</text>
<text xml:space="preserve" x="155.4" y="331.6" font-family="Calibri" font-size="8" transform="rotate(270 155.4 331.6)">c3_mean</text>
<text xml:space="preserve" x="163.4" y="331.6" font-family="Calibri" font-size="8" transform="rotate(270 163.4 331.6)">c1_mean</text>
<text xml:space="preserve" x="171.4" y="331.6" font-family="Calibri" font-size="8" transform="rotate(270 171.4 331.6)">c5_mean</text>
<text xml:space="preserve" x="189.4" y="331.6" font-family="Calibri" font-size="8" transform="rotate(270 189.4 331.6)">transcription_factor</text>
<text xml:space="preserve" x="197.4" y="331.6" font-family="Calibri" font-size="8" transform="rotate(270 197.4 331.6)">transmembrane_signal_receptor</text>
<text xml:space="preserve" x="205.4" y="331.6" font-family="Calibri" font-size="8" transform="rotate(270 205.4 331.6)">growth_factor</text>
<text xml:space="preserve" x="213.4" y="331.6" font-family="Calibri" font-size="8" transform="rotate(270 213.4 331.6)">peptide_hormone</text>
<text xml:space="preserve" x="221.4" y="331.6" font-family="Calibri" font-size="8" transform="rotate(270 221.4 331.6)">cytoskeletal_protein</text>
<text xml:space="preserve" x="229.4" y="331.6" font-family="Calibri" font-size="8" transform="rotate(270 229.4 331.6)">ion_channel</text>
<text xml:space="preserve" x="237.4" y="331.6" font-family="Calibri" font-size="8" transform="rotate(270 237.4 331.6)">integrin</text>
<text xml:space="preserve" x="245.4" y="331.6" font-family="Calibri" font-size="8" transform="rotate(270 245.4 331.6)">extracellular_matrix_protein</text>
<polygon points="82.4,335.6 90.4,335.6 90.4,343.6 82.4,343.6" fill="rgb(127,230,0)"/><text xml:space="preserve" x="86.4" y="342.433" font-family="Calibri" font-size="7.5" fill="rgb(0,0,0)" text-anchor="middle">2</text>
<polygon points="90.4,335.6 98.4,335.6 98.4,343.6 90.4,343.6" fill="rgb(127,230,0)"/><text xml:space="preserve" x="94.4" y="342.433" font-family="Calibri" font-size="7.5" fill="rgb(0,0,0)" text-anchor="middle">2</text>
<polygon points="98.4,335.6 106.4,335.6 106.4,343.6 98.4,343.6" fill="rgb(255,255,0)"/><text xml:space="preserve" x="102.4" y="342.433" font-family="Calibri" font-size="7.5" fill="rgb(0,0,0)" text-anchor="middle">3</text>
<polygon points="106.4,335.6 114.4,335.6 114.4,343.6 106.4,343.6" fill="rgb(127,230,0)"/><text xml:space="preserve" x="110.4" y="342.433" font-family="Calibri" font-size="7.5" fill="rgb(0,0,0)" text-anchor="middle">2</text>
<polygon points="114.4,335.6 122.4,335.6 122.4,343.6 114.4,343.6" fill="rgb(230,127,0)"/><text xml:space="preserve" x="118.4" y="342.433" font-family="Calibri" font-size="7.5" fill="rgb(0,0,0)" text-anchor="middle">4</text>
<polygon points="132.4,335.6 140.4,335.6 140.4,343.6 132.4,343.6" fill="rgb(41,190,144)"/>
<polygon points="140.4,335.6 148.4,335.6 148.4,343.6 140.4,343.6" fill="rgb(11,71,137)"/>
<polygon points="148.4,335.6 156.4,335.6 156.4,343.6 148.4,343.6" fill="rgb(47,211,145)"/>
<polygon points="156.4,335.6 164.4,335.6 164.4,343.6 156.4,343.6" fill="rgb(0,27,135)"/>
<polygon points="164.4,335.6 172.4,335.6 172.4,343.6 164.4,343.6" fill="rgb(168,204,60)"/>
<polygon points="182.4,335.6 190.4,335.6 190.4,343.6 182.4,343.6" fill="rgb(255,255,255)"/>
<polygon points="190.4,335.6 198.4,335.6 198.4,343.6 190.4,343.6" fill="rgb(255,255,255)"/>
<polygon points="198.4,335.6 206.4,335.6 206.4,343.6 198.4,343.6" fill="rgb(255,255,255)"/>
<polygon points="206.4,335.6 214.4,335.6 214.4,343.6 206.4,343.6" fill="rgb(255,255,255)"/>
<polygon points="214.4,335.6 222.4,335.6 222.4,343.6 214.4,343.6" fill="rgb(255,255,255)"/>
<polygon points="222.4,335.6 230.4,335.6 230.4,343.6 222.4,343.6" fill="rgb(255,255,255)"/>
<polygon points="230.4,335.6 238.4,335.6 238.4,343.6 230.4,343.6" fill="rgb(255,255,255)"/>
<polygon points="238.4,335.6 246.4,335.6 246.4,343.6 238.4,343.6" fill="rgb(255,255,255)"/>
<polygon points="82.4,343.6 90.4,343.6 90.4,351.6 82.4,351.6" fill="rgb(127,230,0)"/><text xml:space="preserve" x="86.4" y="350.433" font-family="Calibri" font-size="7.5" fill="rgb(0,0,0)" text-anchor="middle">2</text>
<polygon points="90.4,343.6 98.4,343.6 98.4,351.6 90.4,351.6" fill="rgb(127,230,0)"/><text xml:space="preserve" x="94.4" y="350.433" font-family="Calibri" font-size="7.5" fill="rgb(0,0,0)" text-anchor="middle">2</text>
<polygon points="98.4,343.6 106.4,343.6 106.4,351.6 98.4,351.6" fill="rgb(255,255,0)"/><text xml:space="preserve" x="102.4" y="350.433" font-family="Calibri" font-size="7.5" fill="rgb(0,0,0)" text-anchor="middle">3</text>
<polygon points="106.4,343.6 114.4,343.6 114.4,351.6 106.4,351.6" fill="rgb(127,230,0)"/><text xml:space="preserve" x="110.4" y="350.433" font-family="Calibri" font-size="7.5" fill="rgb(0,0,0)" text-anchor="middle">2</text>
<polygon points="114.4,343.6 122.4,343.6 122.4,351.6 114.4,351.6" fill="rgb(230,127,0)"/><text xml:space="preserve" x="118.4" y="350.433" font-family="Calibri" font-size="7.5" fill="rgb(0,0,0)" text-anchor="middle">4</text>
<polygon points="132.4,343.6 140.4,343.6 140.4,351.6 132.4,351.6" fill="rgb(37,174,143)"/>
<polygon points="140.4,343.6 148.4,343.6 148.4,351.6 140.4,351.6" fill="rgb(27,135,141)"/>
<polygon points="148.4,343.6 156.4,343.6 156.4,351.6 148.4,351.6" fill="rgb(45,206,145)"/>
<polygon points="156.4,343.6 164.4,343.6 164.4,351.6 156.4,351.6" fill="rgb(28,139,141)"/>
<polygon points="164.4,343.6 172.4,343.6 172.4,351.6 164.4,351.6" fill="rgb(224,197,20)"/>
<polygon points="182.4,343.6 190.4,343.6 190.4,351.6 182.4,351.6" fill="rgb(255,255,255)"/>
<polygon points="190.4,343.6 198.4,343.6 198.4,351.6 190.4,351.6" fill="rgb(255,255,255)"/>
<polygon points="198.4,343.6 206.4,343.6 206.4,351.6 198.4,351.6" fill="rgb(255,255,255)"/>
<polygon points="206.4,343.6 214.4,343.6 214.4,351.6 206.4,351.6" fill="rgb(255,255,255)"/>
<polygon points="214.4,343.6 222.4,343.6 222.4,351.6 214.4,351.6" fill="rgb(255,255,255)"/>
<polygon points="222.4,343.6 230.4,343.6 230.4,351.6 222.4,351.6" fill="rgb(255,255,255)"/>
<polygon points="230.4,343.6 238.4,343.6 238.4,351.6 230.4,351.6" fill="rgb(255,255,255)"/>
<polygon points="238.4,343.6 246.4,343.6 246.4,351.6 238.4,351.6" fill="rgb(255,255,255)"/>
<polygon points="82.4,351.6 90.4,351.6 90.4,359.6 82.4,359.6" fill="rgb(127,230,0)"/><text xml:space="preserve" x="86.4" y="358.433" font-family="Calibri" font-size="7.5" fill="rgb(0,0,0)" text-anchor="middle">2</text>
<polygon points="90.4,351.6 98.4,351.6 98.4,359.6 90.4,359.6" fill="rgb(127,230,0)"/><text xml:space="preserve" x="94.4" y="358.433" font-family="Calibri" font-size="7.5" fill="rgb(0,0,0)" text-anchor="middle">2</text>
<polygon points="98.4,351.6 106.4,351.6 106.4,359.6 98.4,359.6" fill="rgb(255,255,0)"/><text xml:space="preserve" x="102.4" y="358.433" font-family="Calibri" font-size="7.5" fill="rgb(0,0,0)" text-anchor="middle">3</text>
<polygon points="106.4,351.6 114.4,351.6 114.4,359.6 106.4,359.6" fill="rgb(127,230,0)"/><text xml:space="preserve" x="110.4" y="358.433" font-family="Calibri" font-size="7.5" fill="rgb(0,0,0)" text-anchor="middle">2</text>
<polygon points="114.4,351.6 122.4,351.6 122.4,359.6 114.4,359.6" fill="rgb(230,127,0)"/><text xml:space="preserve" x="118.4" y="358.433" font-family="Calibri" font-size="7.5" fill="rgb(0,0,0)" text-anchor="middle">4</text>
<polygon points="132.4,351.6 140.4,351.6 140.4,359.6 132.4,359.6" fill="rgb(37,172,143)"/>
<polygon points="140.4,351.6 148.4,351.6 148.4,359.6 140.4,359.6" fill="rgb(21,110,139)"/>
<polygon points="148.4,351.6 156.4,351.6 156.4,359.6 148.4,359.6" fill="rgb(65,217,134)"/>
<polygon points="156.4,351.6 164.4,351.6 164.4,359.6 156.4,359.6" fill="rgb(25,126,140)"/>
<polygon points="164.4,351.6 172.4,351.6 172.4,359.6 164.4,359.6" fill="rgb(100,212,109)"/>
<polygon points="182.4,351.6 190.4,351.6 190.4,359.6 182.4,359.6" fill="rgb(255,255,255)"/>
<polygon points="190.4,351.6 198.4,351.6 198.4,359.6 190.4,359.6" fill="rgb(255,255,255)"/>
<polygon points="198.4,351.6 206.4,351.6 206.4,359.6 198.4,359.6" fill="rgb(255,255,255)"/>
<polygon points="206.4,351.6 214.4,351.6 214.4,359.6 206.4,359.6" fill="rgb(255,255,255)"/>
<polygon points="214.4,351.6 222.4,351.6 222.4,359.6 214.4,359.6" fill="rgb(255,255,255)"/>
<polygon points="222.4,351.6 230.4,351.6 230.4,359.6 222.4,359.6" fill="rgb(255,255,255)"/>
<polygon points="230.4,351.6 238.4,351.6 238.4,359.6 230.4,359.6" fill="rgb(255,255,255)"/>
<polygon points="238.4,351.6 246.4,351.6 246.4,359.6 238.4,359.6" fill="rgb(205,0,205)"/>
<polygon points="82.4,335.6 122.4,335.6 122.4,359.6 82.4,359.6" fill="none" stroke="black" stroke-width="1"/>
<polygon points="132.4,335.6 172.4,335.6 172.4,359.6 132.4,359.6" fill="none" stroke="black" stroke-width="1"/>
<polygon points="182.4,335.6 246.4,335.6 246.4,359.6 182.4,359.6" fill="none" stroke="black" stroke-width="1"/>
<text xml:space="preserve" x="133.2" y="392.6" font-family="Calibri" font-size="8" text-anchor="middle">ClusterAssignment</text>
<polygon points="83.2,399.6 103.2,399.6 103.2,419.6 83.2,419.6" fill="rgb(0,205,0)"/><polygon points="83.2,399.6 103.2,399.6 103.2,419.6 83.2,419.6" fill="none" stroke="black" stroke-width="1"/><text xml:space="preserve" x="93.2" y="412.433" font-family="Calibri" font-size="7.5" fill="rgb(255,255,255)" text-anchor="middle">1.0</text>
<polygon points="103.2,399.6 123.2,399.6 123.2,419.6 103.2,419.6" fill="rgb(127,230,0)"/><polygon points="103.2,399.6 123.2,399.6 123.2,419.6 103.2,419.6" fill="none" stroke="black" stroke-width="1"/><text xml:space="preserve" x="113.2" y="412.433" font-family="Calibri" font-size="7.5" fill="rgb(0,0,0)" text-anchor="middle">2.0</text>
<polygon points="123.2,399.6 143.2,399.6 143.2,419.6 123.2,419.6" fill="rgb(255,255,0)"/><polygon points="123.2,399.6 143.2,399.6 143.2,419.6 123.2,419.6" fill="none" stroke="black" stroke-width="1"/><text xml:space="preserve" x="133.2" y="412.433" font-family="Calibri" font-size="7.5" fill="rgb(0,0,0)" text-anchor="middle">3.0</text>
<polygon points="143.2,399.6 163.2,399.6 163.2,419.6 143.2,419.6" fill="rgb(230,127,0)"/><polygon points="143.2,399.6 163.2,399.6 163.2,419.6 143.2,419.6" fill="none" stroke="black" stroke-width="1"/><text xml:space="preserve" x="153.2" y="412.433" font-family="Calibri" font-size="7.5" fill="rgb(0,0,0)" text-anchor="middle">4.0</text>
<polygon points="163.2,399.6 183.2,399.6 183.2,419.6 163.2,419.6" fill="rgb(205,0,0)"/><polygon points="163.2,399.6 183.2,399.6 183.2,419.6 163.2,419.6" fill="none" stroke="black" stroke-width="1"/><text xml:space="preserve" x="173.2" y="412.433" font-family="Calibri" font-size="7.5" fill="rgb(255,255,255)" text-anchor="middle">5.0</text>
<text xml:space="preserve" x="133.2" y="452.6" font-family="Calibri" font-size="8" text-anchor="middle">Expression</text>
<polygon points="83.2,459.6 103.2,459.6 103.2,479.6 83.2,479.6" fill="rgb(0,27,135)"/><polygon points="83.2,459.6 103.2,459.6 103.2,479.6 83.2,479.6" fill="none" stroke="black" stroke-width="1"/><text xml:space="preserve" x="93.2" y="472.433" font-family="Calibri" font-size="7.5" fill="rgb(255,255,255)" text-anchor="middle">0.0</text>
<polygon points="103.2,459.6 123.2,459.6 123.2,479.6 103.2,479.6" fill="rgb(24,123,140)"/><polygon points="103.2,459.6 123.2,459.6 123.2,479.6 103.2,479.6" fill="none" stroke="black" stroke-width="1"/><text xml:space="preserve" x="113.2" y="472.433" font-family="Calibri" font-size="7.5" fill="rgb(255,255,255)" text-anchor="middle">0.8</text>
<polygon points="123.2,459.6 143.2,459.6 143.2,479.6 123.2,479.6" fill="rgb(49,219,146)"/><polygon points="123.2,459.6 143.2,459.6 143.2,479.6 123.2,479.6" fill="none" stroke="black" stroke-width="1"/><text xml:space="preserve" x="133.2" y="472.433" font-family="Calibri" font-size="7.5" fill="rgb(0,0,0)" text-anchor="middle">1.5</text>
<polygon points="143.2,459.6 163.2,459.6 163.2,479.6 143.2,479.6" fill="rgb(150,206,73)"/><polygon points="143.2,459.6 163.2,459.6 163.2,479.6 143.2,479.6" fill="none" stroke="black" stroke-width="1"/><text xml:space="preserve" x="153.2" y="472.433" font-family="Calibri" font-size="7.5" fill="rgb(0,0,0)" text-anchor="middle">2.2</text>
<polygon points="163.2,459.6 183.2,459.6 183.2,479.6 163.2,479.6" fill="rgb(252,194,1)"/><polygon points="163.2,459.6 183.2,459.6 183.2,479.6 163.2,479.6" fill="none" stroke="black" stroke-width="1"/><text xml:space="preserve" x="173.2" y="472.433" font-family="Calibri" font-size="7.5" fill="rgb(0,0,0)" text-anchor="middle">3.0</text>
<text xml:space="preserve" x="133.2" y="512.6" font-family="Calibri" font-size="8" text-anchor="middle">PANTHERclass</text>
<polygon points="83.2,519.6 103.2,519.6 103.2,539.6 83.2,539.6" fill="rgb(255,255,255)"/><polygon points="83.2,519.6 103.2,519.6 103.2,539.6 83.2,539.6" fill="none" stroke="black" stroke-width="1"/><text xml:space="preserve" x="93.2" y="532.433" font-family="Calibri" font-size="7.5" fill="rgb(0,0,0)" text-anchor="middle">0.0</text>
<polygon points="103.2,519.6 123.2,519.6 123.2,539.6 103.2,539.6" fill="rgb(242,191,242)"/><polygon points="103.2,519.6 123.2,519.6 123.2,539.6 103.2,539.6" fill="none" stroke="black" stroke-width="1"/><text xml:space="preserve" x="113.2" y="532.433" font-family="Calibri" font-size="7.5" fill="rgb(0,0,0)" text-anchor="middle">0.2</text>
<polygon points="123.2,519.6 143.2,519.6 143.2,539.6 123.2,539.6" fill="rgb(230,127,230)"/><polygon points="123.2,519.6 143.2,519.6 143.2,539.6 123.2,539.6" fill="none" stroke="black" stroke-width="1"/><text xml:space="preserve" x="133.2" y="532.433" font-family="Calibri" font-size="7.5" fill="rgb(0,0,0)" text-anchor="middle">0.5</text>
<polygon points="143.2,519.6 163.2,519.6 163.2,539.6 143.2,539.6" fill="rgb(217,63,217)"/><polygon points="143.2,519.6 163.2,519.6 163.2,539.6 143.2,539.6" fill="none" stroke="black" stroke-width="1"/><text xml:space="preserve" x="153.2" y="532.433" font-family="Calibri" font-size="7.5" fill="rgb(255,255,255)" text-anchor="middle">0.8</text>
<polygon points="163.2,519.6 183.2,519.6 183.2,539.6 163.2,539.6" fill="rgb(205,0,205)"/><polygon points="163.2,519.6 183.2,519.6 183.2,539.6 163.2,539.6" fill="none" stroke="black" stroke-width="1"/><text xml:space="preserve" x="173.2" y="532.433" font-family="Calibri" font-size="7.5" fill="rgb(255,255,255)" text-anchor="middle">1.0</text>
</svg>
