<?xml version="1.0" standalone="no"?><!DOCTYPE svg PUBLIC "-//W3C//DTD SVG 1.1//EN" "http://www.w3.org/Graphics/SVG/1.1/DTD/svg11.dtd">
<svg width="299.4" height="615.6" version="1.1" xmlns="http://www.w3.org/2000/svg">
<text xml:space="preserve" x="111.4" y="342.6" font-family="Calibri" font-size="8" text-anchor="end">ADGB</text>
<text xml:space="preserve" x="111.4" y="350.6" font-family="Calibri" font-size="8" text-anchor="end">LINC01091</text>
<text xml:space="preserve" x="111.4" y="358.6" font-family="Calibri" font-size="8" text-anchor="end">CCDC81</text>
<text xml:space="preserve" x="111.4" y="366.6" font-family="Calibri" font-size="8" text-anchor="end">MAOB</text>
<text xml:space="preserve" x="111.4" y="374.6" font-family="Calibri" font-size="8" text-anchor="end">CCDC146</text>
<text xml:space="preserve" x="111.4" y="382.6" font-family="Calibri" font-size="8" text-anchor="end">PF4</text>
<text xml:space="preserve" x="111.4" y="390.6" font-family="Calibri" font-size="8" text-anchor="end">PTGER2</text>
<text xml:space="preserve" x="111.4" y="398.6" font-family="Calibri" font-size="8" text-anchor="end">ALDH3B1</text>
<text xml:space="preserve" x="111.4" y="406.6" font-family="Calibri" font-size="8" text-anchor="end">PAPSS2</text>
<text xml:space="preserve" x="111.4" y="414.6" font-family="Calibri" font-size="8" text-anchor="end">DCDC1</text>
<text xml:space="preserve" x="122.4" y="331.6" font-family="Calibri" font-size="8" transform="rotate(270 122.4 331.6)">c2</text>
<text xml:space="preserve" x="130.4" y="331.6" font-family="Calibri" font-size="8" transform="rotate(270 130.4 331.6)">c4</text>
<text xml:space="preserve" x="138.4" y="331.6" font-family="Calibri" font-size="8" transform="rotate(270 138.4 331.6)">c3</text>
<text xml:space="preserve" x="146.4" y="331.6" font-family="Calibri" font-size="8" transform="rotate(270 146.4 331.6)">c1</text>
<text xml:space="preserve" x="154.4" y="331.6" font-family="Calibri" font-size="8" transform="rotate(270 154.4 331.6)">c5</text>
<text xml:space="preserve" x="172.4" y="331.6" font-family="Calibri" font-size="8" transform="rotate(270 172.4 331.6)">c2_mean</text>
<text xml:space="preserve" x="180.4" y="331.6" font-family="Calibri" font-size="8" transform="rotate(270 180.4 331.6)">c4_mean</text>
<text xml:space="preserve" x="188.4" y="331.6" font-family="Calibri" font-size="8" transform="rotate(270 188.4 331.6)">c3_mean</text>
<text xml:space="preserve" x="196.4" y="331.6" font-family="Calibri" font-size="8" transform="rotate(270 196.4 331.6)">c1_mean</text>
<text xml:space="preserve" x="204.4" y="331.6" font-family="Calibri" font-size="8" transform="rotate(270 204.4 331.6)">c5_mean</text>
<text xml:space="preserve" x="222.4" y="331.6" font-family="Calibri" font-size="8" transform="rotate(270 222.4 331.6)">transcription_factor</text>
<text xml:space="preserve" x="230.4" y="331.6" font-family="Calibri" font-size="8" transform="rotate(270 230.4 331.6)">transmembrane_signal_receptor</text>
<text xml:space="preserve" x="238.4" y="331.6" font-family="Calibri" font-size="8" transform="rotate(270 238.4 331.6)">growth_factor</text>
<text xml:space="preserve" x="246.4" y="331.6" font-family="Calibri" font-size="8" transform="rotate(270 246.4 331.6)">peptide_hormone</text>
<text xml:space="preserve" x="254.4" y="331.6" font-family="Calibri" font-size="8" transform="rotate(270 254.4 331.6)">cytoskeletal_protein</text>
<text xml:space="preserve" x="262.4" y="331.6" font-family="Calibri" font-size="8" transform="rotate(270 262.4 331.6)">ion_channel</text>
<text xml:space="preserve" x="270.4" y="331.6" font-family="Calibri" font-size="8" transform="rotate(270 270.4 331.6)">integrin</text>
<text xml:space="preserve" x="278.4" y="331.6" font-family="Calibri" font-size="8" transform="rotate(270 278.4 331.6)">extracellular_matrix_protein</text>
<polygon points="115.4,335.6 123.4,335.6 123.4,343.6 115.4,343.6" fill="rgb(230,127,0)"/><text xml:space="preserve" x="119.4" y="342.433" font-family="Calibri" font-size="7.5" fill="rgb(0,0,0)" text-anchor="middle">4</text>
<polygon points="123.4,335.6 131.4,335.6 131.4,343.6 123.4,343.6" fill="rgb(230,127,0)"/><text xml:space="preserve" x="127.4" y="342.433" font-family="Calibri" font-size="7.5" fill="rgb(0,0,0)" text-anchor="middle">4</text>
<polygon points="131.4,335.6 139.4,335.6 139.4,343.6 131.4,343.6" fill="rgb(255,255,0)"/><text xml:space="preserve" x="135.4" y="342.433" font-family="Calibri" font-size="7.5" fill="rgb(0,0,0)" text-anchor="middle">3</text>
<polygon points="139.4,335.6 147.4,335.6 147.4,343.6 139.4,343.6" fill="rgb(127,230,0)"/><text xml:space="preserve" x="143.4" y="342.433" font-family="Calibri" font-size="7.5" fill="rgb(0,0,0)" text-anchor="middle">2</text>
<polygon points="147.4,335.6 155.4,335.6 155.4,343.6 147.4,343.6" fill="rgb(230,127,0)"/><text xml:space="preserve" x="151.4" y="342.433" font-family="Calibri" font-size="7.5" fill="rgb(0,0,0)" text-anchor="middle">4</text>
<polygon points="165.4,335.6 173.4,335.6 173.4,343.6 165.4,343.6" fill="rgb(252,194,1)"/>
<polygon points="173.4,335.6 181.4,335.6 181.4,343.6 173.4,343.6" fill="rgb(249,194,2)"/>
<polygon points="181.4,335.6 189.4,335.6 189.4,343.6 181.4,343.6" fill="rgb(36,170,143)"/>
<polygon points="189.4,335.6 197.4,335.6 197.4,343.6 189.4,343.6" fill="rgb(16,89,138)"/>
<polygon points="197.4,335.6 205.4,335.6 205.4,343.6 197.4,343.6" fill="rgb(50,218,145)"/>
<polygon points="215.4,335.6 223.4,335.6 223.4,343.6 215.4,343.6" fill="rgb(255,255,255)"/>
<polygon points="223.4,335.6 231.4,335.6 231.4,343.6 223.4,343.6" fill="rgb(255,255,255)"/>
<polygon points="231.4,335.6 239.4,335.6 239.4,343.6 231.4,343.6" fill="rgb(255,255,255)"/>
<polygon points="239.4,335.6 247.4,335.6 247.4,343.6 239.4,343.6" fill="rgb(255,255,255)"/>
<polygon points="247.4,335.6 255.4,335.6 255.4,343.6 247.4,343.6" fill="rgb(255,255,255)"/>
<polygon points="255.4,335.6 263.4,335.6 263.4,343.6 255.4,343.6" fill="rgb(255,255,255)"/>
<polygon points="263.4,335.6 271.4,335.6 271.4,343.6 263.4,343.6" fill="rgb(255,255,255)"/>
<polygon points="271.4,335.6 279.4,335.6 279.4,343.6 271.4,343.6" fill="rgb(255,255,255)"/>
<polygon points="115.4,343.6 123.4,343.6 123.4,351.6 115.4,351.6" fill="rgb(230,127,0)"/><text xml:space="preserve" x="119.4" y="350.433" font-family="Calibri" font-size="7.5" fill="rgb(0,0,0)" text-anchor="middle">4</text>
<polygon points="123.4,343.6 131.4,343.6 131.4,351.6 123.4,351.6" fill="rgb(230,127,0)"/><text xml:space="preserve" x="127.4" y="350.433" font-family="Calibri" font-size="7.5" fill="rgb(0,0,0)" text-anchor="middle">4</text>
<polygon points="131.4,343.6 139.4,343.6 139.4,351.6 131.4,351.6" fill="rgb(255,255,0)"/><text xml:space="preserve" x="135.4" y="350.433" font-family="Calibri" font-size="7.5" fill="rgb(0,0,0)" text-anchor="middle">3</text>
<polygon points="139.4,343.6 147.4,343.6 147.4,351.6 139.4,351.6" fill="rgb(127,230,0)"/><text xml:space="preserve" x="143.4" y="350.433" font-family="Calibri" font-size="7.5" fill="rgb(0,0,0)" text-anchor="middle">2</text>
<polygon points="147.4,343.6 155.4,343.6 155.4,351.6 147.4,351.6" fill="rgb(230,127,0)"/><text xml:space="preserve" x="151.4" y="350.433" font-family="Calibri" font-size="7.5" fill="rgb(0,0,0)" text-anchor="middle">4</text>
<polygon points="165.4,343.6 173.4,343.6 173.4,351.6 165.4,351.6" fill="rgb(252,194,1)"/>
<polygon points="173.4,343.6 181.4,343.6 181.4,351.6 173.4,351.6" fill="rgb(252,194,1)"/>
<polygon points="181.4,343.6 189.4,343.6 189.4,351.6 181.4,351.6" fill="rgb(43,195,144)"/>
<polygon points="189.4,343.6 197.4,343.6 197.4,351.6 189.4,351.6" fill="rgb(21,112,139)"/>
<polygon points="197.4,343.6 205.4,343.6 205.4,351.6 197.4,351.6" fill="rgb(168,204,60)"/>
<polygon points="215.4,343.6 223.4,343.6 223.4,351.6 215.4,351.6" fill="rgb(255,255,255)"/>
<polygon points="223.4,343.6 231.4,343.6 231.4,351.6 223.4,351.6" fill="rgb(255,255,255)"/>
<polygon points="231.4,343.6 239.4,343.6 239.4,351.6 231.4,351.6" fill="rgb(255,255,255)"/>
<polygon points="239.4,343.6 247.4,343.6 247.4,351.6 239.4,351.6" fill="rgb(255,255,255)"/>
<polygon points="247.4,343.6 255.4,343.6 255.4,351.6 247.4,351.6" fill="rgb(255,255,255)"/>
<polygon points="255.4,343.6 263.4,343.6 263.4,351.6 255.4,351.6" fill="rgb(255,255,255)"/>
<polygon points="263.4,343.6 271.4,343.6 271.4,351.6 263.4,351.6" fill="rgb(255,255,255)"/>
<polygon points="271.4,343.6 279.4,343.6 279.4,351.6 271.4,351.6" fill="rgb(255,255,255)"/>
<polygon points="115.4,351.6 123.4,351.6 123.4,359.6 115.4,359.6" fill="rgb(230,127,0)"/><text xml:space="preserve" x="119.4" y="358.433" font-family="Calibri" font-size="7.5" fill="rgb(0,0,0)" text-anchor="middle">4</text>
<polygon points="123.4,351.6 131.4,351.6 131.4,359.6 123.4,359.6" fill="rgb(230,127,0)"/><text xml:space="preserve" x="127.4" y="358.433" font-family="Calibri" font-size="7.5" fill="rgb(0,0,0)" text-anchor="middle">4</text>
<polygon points="131.4,351.6 139.4,351.6 139.4,359.6 131.4,359.6" fill="rgb(255,255,0)"/><text xml:space="preserve" x="135.4" y="358.433" font-family="Calibri" font-size="7.5" fill="rgb(0,0,0)" text-anchor="middle">3</text>
<polygon points="139.4,351.6 147.4,351.6 147.4,359.6 139.4,359.6" fill="rgb(127,230,0)"/><text xml:space="preserve" x="143.4" y="358.433" font-family="Calibri" font-size="7.5" fill="rgb(0,0,0)" text-anchor="middle">2</text>
<polygon points="147.4,351.6 155.4,351.6 155.4,359.6 147.4,359.6" fill="rgb(230,127,0)"/><text xml:space="preserve" x="151.4" y="358.433" font-family="Calibri" font-size="7.5" fill="rgb(0,0,0)" text-anchor="middle">4</text>
<polygon points="165.4,351.6 173.4,351.6 173.4,359.6 165.4,359.6" fill="rgb(252,194,1)"/>
<polygon points="173.4,351.6 181.4,351.6 181.4,359.6 173.4,359.6" fill="rgb(252,194,1)"/>
<polygon points="181.4,351.6 189.4,351.6 189.4,359.6 181.4,359.6" fill="rgb(59,217,138)"/>
<polygon points="189.4,351.6 197.4,351.6 197.4,359.6 189.4,359.6" fill="rgb(26,130,140)"/>
<polygon points="197.4,351.6 205.4,351.6 205.4,359.6 197.4,359.6" fill="rgb(141,207,80)"/>
<polygon points="215.4,351.6 223.4,351.6 223.4,359.6 215.4,359.6" fill="rgb(255,255,255)"/>
<polygon points="223.4,351.6 231.4,351.6 231.4,359.6 223.4,359.6" fill="rgb(255,255,255)"/>
<polygon points="231.4,351.6 239.4,351.6 239.4,359.6 231.4,359.6" fill="rgb(255,255,255)"/>
<polygon points="239.4,351.6 247.4,351.6 247.4,359.6 239.4,359.6" fill="rgb(255,255,255)"/>
<polygon points="247.4,351.6 255.4,351.6 255.4,359.6 247.4,359.6" fill="rgb(255,255,255)"/>
<polygon points="255.4,351.6 263.4,351.6 263.4,359.6 255.4,359.6" fill="rgb(255,255,255)"/>
<polygon points="263.4,351.6 271.4,351.6 271.4,359.6 263.4,359.6" fill="rgb(255,255,255)"/>
<polygon points="271.4,351.6 279.4,351.6 279.4,359.6 271.4,359.6" fill="rgb(255,255,255)"/>
<polygon points="115.4,359.6 123.4,359.6 123.4,367.6 115.4,367.6" fill="rgb(230,127,0)"/><text xml:space="preserve" x="119.4" y="366.433" font-family="Calibri" font-size="7.5" fill="rgb(0,0,0)" text-anchor="middle">4</text>
<polygon points="123.4,359.6 131.4,359.6 131.4,367.6 123.4,367.6" fill="rgb(230,127,0)"/><text xml:space="preserve" x="127.4" y="366.433" font-family="Calibri" font-size="7.5" fill="rgb(0,0,0)" text-anchor="middle">4</text>
<polygon points="131.4,359.6 139.4,359.6 139.4,367.6 131.4,367.6" fill="rgb(255,255,0)"/><text xml:space="preserve" x="135.4" y="366.433" font-family="Calibri" font-size="7.5" fill="rgb(0,0,0)" text-anchor="middle">3</text>
<polygon points="139.4,359.6 147.4,359.6 147.4,367.6 139.4,367.6" fill="rgb(127,230,0)"/><text xml:space="preserve" x="143.4" y="366.433" font-family="Calibri" font-size="7.5" fill="rgb(0,0,0)" text-anchor="middle">2</text>
<polygon points="147.4,359.6 155.4,359.6 155.4,367.6 147.4,367.6" fill="rgb(230,127,0)"/><text xml:space="preserve" x="151.4" y="366.433" font-family="Calibri" font-size="7.5" fill="rgb(0,0,0)" text-anchor="middle">4</text>
<polygon points="165.4,359.6 173.4,359.6 173.4,367.6 165.4,367.6" fill="rgb(252,194,1)"/>
<polygon points="173.4,359.6 181.4,359.6 181.4,367.6 173.4,367.6" fill="rgb(203,200,35)"/>
<polygon points="181.4,359.6 189.4,359.6 189.4,367.6 181.4,367.6" fill="rgb(44,199,144)"/>
<polygon points="189.4,359.6 197.4,359.6 197.4,367.6 189.4,367.6" fill="rgb(27,135,141)"/>
<polygon points="197.4,359.6 205.4,359.6 205.4,367.6 197.4,367.6" fill="rgb(118,210,96)"/>
<polygon points="215.4,359.6 223.4,359.6 223.4,367.6 215.4,367.6" fill="rgb(255,255,255)"/>
<polygon points="223.4,359.6 231.4,359.6 231.4,367.6 223.4,367.6" fill="rgb(255,255,255)"/>
<polygon points="231.4,359.6 239.4,359.6 239.4,367.6 231.4,367.6" fill="rgb(255,255,255)"/>
<polygon points="239.4,359.6 247.4,359.6 247.4,367.6 239.4,367.6" fill="rgb(255,255,255)"/>
<polygon points="247.4,359.6 255.4,359.6 255.4,367.6 247.4,367.6" fill="rgb(255,255,255)"/>
<polygon points="255.4,359.6 263.4,359.6 263.4,367.6 255.4,367.6" fill="rgb(255,255,255)"/>
<polygon points="263.4,359.6 271.4,359.6 271.4,367.6 263.4,367.6" fill="rgb(255,255,255)"/>
<polygon points="271.4,359.6 279.4,359.6 279.4,367.6 271.4,367.6" fill="rgb(255,255,255)"/>
<polygon points="115.4,367.6 123.4,367.6 123.4,375.6 115.4,375.6" fill="rgb(230,127,0)"/><text xml:space="preserve" x="119.4" y="374.433" font-family="Calibri" font-size="7.5" fill="rgb(0,0,0)" text-anchor="middle">4</text>
<polygon points="123.4,367.6 131.4,367.6 131.4,375.6 123.4,375.6" fill="rgb(230,127,0)"/><text xml:space="preserve" x="127.4" y="374.433" font-family="Calibri" font-size="7.5" fill="rgb(0,0,0)" text-anchor="middle">4</text>
<polygon points="131.4,367.6 139.4,367.6 139.4,375.6 131.4,375.6" fill="rgb(255,255,0)"/><text xml:space="preserve" x="135.4" y="374.433" font-family="Calibri" font-size="7.5" fill="rgb(0,0,0)" text-anchor="middle">3</text>
<polygon points="139.4,367.6 147.4,367.6 147.4,375.6 139.4,375.6" fill="rgb(127,230,0)"/><text xml:space="preserve" x="143.4" y="374.433" font-family="Calibri" font-size="7.5" fill="rgb(0,0,0)" text-anchor="middle">2</text>
<polygon points="147.4,367.6 155.4,367.6 155.4,375.6 147.4,375.6" fill="rgb(230,127,0)"/><text xml:space="preserve" x="151.4" y="374.433" font-family="Calibri" font-size="7.5" fill="rgb(0,0,0)" text-anchor="middle">4</text>
<polygon points="165.4,367.6 173.4,367.6 173.4,375.6 165.4,375.6" fill="rgb(252,194,1)"/>
<polygon points="173.4,367.6 181.4,367.6 181.4,375.6 173.4,375.6" fill="rgb(174,203,56)"/>
<polygon points="181.4,367.6 189.4,367.6 189.4,375.6 181.4,375.6" fill="rgb(41,190,144)"/>
<polygon points="189.4,367.6 197.4,367.6 197.4,375.6 189.4,375.6" fill="rgb(25,126,140)"/>
<polygon points="197.4,367.6 205.4,367.6 205.4,375.6 197.4,375.6" fill="rgb(86,214,118)"/>
<polygon points="215.4,367.6 223.4,367.6 223.4,375.6 215.4,375.6" fill="rgb(255,255,255)"/>
<polygon points="223.4,367.6 231.4,367.6 231.4,375.6 223.4,375.6" fill="rgb(255,255,255)"/>
<polygon points="231.4,367.6 239.4,367.6 239.4,375.6 231.4,375.6" fill="rgb(255,255,255)"/>
<polygon points="239.4,367.6 247.4,367.6 247.4,375.6 239.4,375.6" fill="rgb(255,255,255)"/>
<polygon points="247.4,367.6 255.4,367.6 255.4,375.6 247.4,375.6" fill="rgb(255,255,255)"/>
<polygon points="255.4,367.6 263.4,367.6 263.4,375.6 255.4,375.6" fill="rgb(255,255,255)"/>
<polygon points="263.4,367.6 271.4,367.6 271.4,375.6 263.4,375.6" fill="rgb(255,255,255)"/>
<polygon points="271.4,367.6 279.4,367.6 279.4,375.6 271.4,375.6" fill="rgb(255,255,255)"/>
<polygon points="115.4,375.6 123.4,375.6 123.4,383.6 115.4,383.6" fill="rgb(230,127,0)"/><text xml:space="preserve" x="119.4" y="382.433" font-family="Calibri" font-size="7.5" fill="rgb(0,0,0)" text-anchor="middle">4</text>
<polygon points="123.4,375.6 131.4,375.6 131.4,383.6 123.4,383.6" fill="rgb(230,127,0)"/><text xml:space="preserve" x="127.4" y="382.433" font-family="Calibri" font-size="7.5" fill="rgb(0,0,0)" text-anchor="middle">4</text>
<polygon points="131.4,375.6 139.4,375.6 139.4,383.6 131.4,383.6" fill="rgb(255,255,0)"/><text xml:space="preserve" x="135.4" y="382.433" font-family="Calibri" font-size="7.5" fill="rgb(0,0,0)" text-anchor="middle">3</text>
<polygon points="139.4,375.6 147.4,375.6 147.4,383.6 139.4,383.6" fill="rgb(127,230,0)"/><text xml:space="preserve" x="143.4" y="382.433" font-family="Calibri" font-size="7.5" fill="rgb(0,0,0)" text-anchor="middle">2</text>
<polygon points="147.4,375.6 155.4,375.6 155.4,383.6 147.4,383.6" fill="rgb(230,127,0)"/><text xml:space="preserve" x="151.4" y="382.433" font-family="Calibri" font-size="7.5" fill="rgb(0,0,0)" text-anchor="middle">4</text>
<polygon points="165.4,375.6 173.4,375.6 173.4,383.6 165.4,383.6" fill="rgb(252,194,1)"/>
<polygon points="173.4,375.6 181.4,375.6 181.4,383.6 173.4,383.6" fill="rgb(151,206,72)"/>
<polygon points="181.4,375.6 189.4,375.6 189.4,383.6 181.4,383.6" fill="rgb(46,210,145)"/>
<polygon points="189.4,375.6 197.4,375.6 197.4,383.6 189.4,383.6" fill="rgb(28,138,141)"/>
<polygon points="197.4,375.6 205.4,375.6 205.4,383.6 197.4,383.6" fill="rgb(90,213,116)"/>
<polygon points="215.4,375.6 223.4,375.6 223.4,383.6 215.4,383.6" fill="rgb(255,255,255)"/>
<polygon points="223.4,375.6 231.4,375.6 231.4,383.6 223.4,383.6" fill="rgb(255,255,255)"/>
<polygon points="231.4,375.6 239.4,375.6 239.4,383.6 231.4,383.6" fill="rgb(255,255,255)"/>
<polygon points="239.4,375.6 247.4,375.6 247.4,383.6 239.4,383.6" fill="rgb(255,255,255)"/>
<polygon points="247.4,375.6 255.4,375.6 255.4,383.6 247.4,383.6" fill="rgb(255,255,255)"/>
<polygon points="255.4,375.6 263.4,375.6 263.4,383.6 255.4,383.6" fill="rgb(255,255,255)"/>
<polygon points="263.4,375.6 271.4,375.6 271.4,383.6 263.4,383.6" fill="rgb(255,255,255)"/>
<polygon points="271.4,375.6 279.4,375.6 279.4,383.6 271.4,383.6" fill="rgb(255,255,255)"/>
<polygon points="115.4,383.6 123.4,383.6 123.4,391.6 115.4,391.6" fill="rgb(230,127,0)"/><text xml:space="preserve" x="119.4" y="390.433" font-family="Calibri" font-size="7.5" fill="rgb(0,0,0)" text-anchor="middle">4</text>
<polygon points="123.4,383.6 131.4,383.6 131.4,391.6 123.4,391.6" fill="rgb(230,127,0)"/><text xml:space="preserve" x="127.4" y="390.433" font-family="Calibri" font-size="7.5" fill="rgb(0,0,0)" text-anchor="middle">4</text>
<polygon points="131.4,383.6 139.4,383.6 139.4,391.6 131.4,391.6" fill="rgb(255,255,0)"/><text xml:space="preserve" x="135.4" y="390.433" font-family="Calibri" font-size="7.5" fill="rgb(0,0,0)" text-anchor="middle">3</text>
<polygon points="139.4,383.6 147.4,383.6 147.4,391.6 139.4,391.6" fill="rgb(127,230,0)"/><text xml:space="preserve" x="143.4" y="390.433" font-family="Calibri" font-size="7.5" fill="rgb(0,0,0)" text-anchor="middle">2</text>
<polygon points="147.4,383.6 155.4,383.6 155.4,391.6 147.4,391.6" fill="rgb(230,127,0)"/><text xml:space="preserve" x="151.4" y="390.433" font-family="Calibri" font-size="7.5" fill="rgb(0,0,0)" text-anchor="middle">4</text>
<polygon points="165.4,383.6 173.4,383.6 173.4,391.6 165.4,391.6" fill="rgb(252,194,1)"/>
<polygon points="173.4,383.6 181.4,383.6 181.4,391.6 173.4,391.6" fill="rgb(195,201,41)"/>
<polygon points="181.4,383.6 189.4,383.6 189.4,391.6 181.4,391.6" fill="rgb(27,135,141)"/>
<polygon points="189.4,383.6 197.4,383.6 197.4,391.6 189.4,391.6" fill="rgb(30,146,141)"/>
<polygon points="197.4,383.6 205.4,383.6 205.4,391.6 197.4,391.6" fill="rgb(116,210,97)"/>
<polygon points="215.4,383.6 223.4,383.6 223.4,391.6 215.4,391.6" fill="rgb(255,255,255)"/>
<polygon points="223.4,383.6 231.4,383.6 231.4,391.6 223.4,391.6" fill="rgb(255,255,255)"/>
<polygon points="231.4,383.6 239.4,383.6 239.4,391.6 231.4,391.6" fill="rgb(255,255,255)"/>
<polygon points="239.4,383.6 247.4,383.6 247.4,391.6 239.4,391.6" fill="rgb(255,255,255)"/>
<polygon points="247.4,383.6 255.4,383.6 255.4,391.6 247.4,391.6" fill="rgb(255,255,255)"/>
<polygon points="255.4,383.6 263.4,383.6 263.4,391.6 255.4,391.6" fill="rgb(255,255,255)"/>
<polygon points="263.4,383.6 271.4,383.6 271.4,391.6 263.4,391.6" fill="rgb(255,255,255)"/>
<polygon points="271.4,383.6 279.4,383.6 279.4,391.6 271.4,391.6" fill="rgb(255,255,255)"/>
<polygon points="115.4,391.6 123.4,391.6 123.4,399.6 115.4,399.6" fill="rgb(230,127,0)"/><text xml:space="preserve" x="119.4" y="398.433" font-family="Calibri" font-size="7.5" fill="rgb(0,0,0)" text-anchor="middle">4</text>
<polygon points="123.4,391.6 131.4,391.6 131.4,399.6 123.4,399.6" fill="rgb(230,127,0)"/><text xml:space="preserve" x="127.4" y="398.433" font-family="Calibri" font-size="7.5" fill="rgb(0,0,0)" text-anchor="middle">4</text>
<polygon points="131.4,391.6 139.4,391.6 139.4,399.6 131.4,399.6" fill="rgb(255,255,0)"/><text xml:space="preserve" x="135.4" y="398.433" font-family="Calibri" font-size="7.5" fill="rgb(0,0,0)" text-anchor="middle">3</text>
<polygon points="139.4,391.6 147.4,391.6 147.4,399.6 139.4,399.6" fill="rgb(127,230,0)"/><text xml:space="preserve" x="143.4" y="398.433" font-family="Calibri" font-size="7.5" fill="rgb(0,0,0)" text-anchor="middle">2</text>
<polygon points="147.4,391.6 155.4,391.6 155.4,399.6 147.4,399.6" fill="rgb(230,127,0)"/><text xml:space="preserve" x="151.4" y="398.433" font-family="Calibri" font-size="7.5" fill="rgb(0,0,0)" text-anchor="middle">4</text>
<polygon points="165.4,391.6 173.4,391.6 173.4,399.6 165.4,399.6" fill="rgb(252,194,1)"/>
<polygon points="173.4,391.6 181.4,391.6 181.4,399.6 173.4,399.6" fill="rgb(185,202,48)"/>
<polygon points="181.4,391.6 189.4,391.6 189.4,399.6 181.4,399.6" fill="rgb(47,213,145)"/>
<polygon points="189.4,391.6 197.4,391.6 197.4,399.6 189.4,399.6" fill="rgb(13,78,137)"/>
<polygon points="197.4,391.6 205.4,391.6 205.4,399.6 197.4,399.6" fill="rgb(146,207,76)"/>
<polygon points="215.4,391.6 223.4,391.6 223.4,399.6 215.4,399.6" fill="rgb(255,255,255)"/>
<polygon points="223.4,391.6 231.4,391.6 231.4,399.6 223.4,399.6" fill="rgb(255,255,255)"/>
<polygon points="231.4,391.6 239.4,391.6 239.4,399.6 231.4,399.6" fill="rgb(255,255,255)"/>
<polygon points="239.4,391.6 247.4,391.6 247.4,399.6 239.4,399.6" fill="rgb(255,255,255)"/>
<polygon points="247.4,391.6 255.4,391.6 255.4,399.6 247.4,399.6" fill="rgb(255,255,255)"/>
<polygon points="255.4,391.6 263.4,391.6 263.4,399.6 255.4,399.6" fill="rgb(255,255,255)"/>
<polygon points="263.4,391.6 271.4,391.6 271.4,399.6 263.4,399.6" fill="rgb(255,255,255)"/>
<polygon points="271.4,391.6 279.4,391.6 279.4,399.6 271.4,399.6" fill="rgb(255,255,255)"/>
<polygon points="115.4,399.6 123.4,399.6 123.4,407.6 115.4,407.6" fill="rgb(230,127,0)"/><text xml:space="preserve" x="119.4" y="406.433" font-family="Calibri" font-size="7.5" fill="rgb(0,0,0)" text-anchor="middle">4</text>
<polygon points="123.4,399.6 131.4,399.6 131.4,407.6 123.4,407.6" fill="rgb(230,127,0)"/><text xml:space="preserve" x="127.4" y="406.433" font-family="Calibri" font-size="7.5" fill="rgb(0,0,0)" text-anchor="middle">4</text>
<polygon points="131.4,399.6 139.4,399.6 139.4,407.6 131.4,407.6" fill="rgb(255,255,0)"/><text xml:space="preserve" x="135.4" y="406.433" font-family="Calibri" font-size="7.5" fill="rgb(0,0,0)" text-anchor="middle">3</text>
<polygon points="139.4,399.6 147.4,399.6 147.4,407.6 139.4,407.6" fill="rgb(127,230,0)"/><text xml:space="preserve" x="143.4" y="406.433" font-family="Calibri" font-size="7.5" fill="rgb(0,0,0)" text-anchor="middle">2</text>
<polygon points="147.4,399.6 155.4,399.6 155.4,407.6 147.4,407.6" fill="rgb(230,127,0)"/><text xml:space="preserve" x="151.4" y="406.433" font-family="Calibri" font-size="7.5" fill="rgb(0,0,0)" text-anchor="middle">4</text>
<polygon points="165.4,399.6 173.4,399.6 173.4,407.6 165.4,407.6" fill="rgb(252,194,1)"/>
<polygon points="173.4,399.6 181.4,399.6 181.4,407.6 173.4,407.6" fill="rgb(250,194,1)"/>
<polygon points="181.4,399.6 189.4,399.6 189.4,407.6 181.4,407.6" fill="rgb(73,216,128)"/>
<polygon points="189.4,399.6 197.4,399.6 197.4,407.6 189.4,407.6" fill="rgb(33,157,142)"/>
<polygon points="197.4,399.6 205.4,399.6 205.4,407.6 197.4,407.6" fill="rgb(195,201,41)"/>
<polygon points="215.4,399.6 223.4,399.6 223.4,407.6 215.4,407.6" fill="rgb(255,255,255)"/>
<polygon points="223.4,399.6 231.4,399.6 231.4,407.6 223.4,407.6" fill="rgb(255,255,255)"/>
<polygon points="231.4,399.6 239.4,399.6 239.4,407.6 231.4,407.6" fill="rgb(255,255,255)"/>
<polygon points="239.4,399.6 247.4,399.6 247.4,407.6 239.4,407.6" fill="rgb(255,255,255)"/>
<polygon points="247.4,399.6 255.4,399.6 255.4,407.6 247.4,407.6" fill="rgb(255,255,255)"/>
<polygon points="255.4,399.6 263.4,399.6 263.4,407.6 255.4,407.6" fill="rgb(255,255,255)"/>
<polygon points="263.4,399.6 271.4,399.6 271.4,407.6 263.4,407.6" fill="rgb(255,255,255)"/>
<polygon points="271.4,399.6 279.4,399.6 279.4,407.6 271.4,407.6" fill="rgb(255,255,255)"/>
<polygon points="115.4,407.6 123.4,407.6 123.4,415.6 115.4,415.6" fill="rgb(230,127,0)"/><text xml:space="preserve" x="119.4" y="414.433" font-family="Calibri" font-size="7.5" fill="rgb(0,0,0)" text-anchor="middle">4</text>
<polygon points="123.4,407.6 131.4,407.6 131.4,415.6 123.4,415.6" fill="rgb(230,127,0)"/><text xml:space="preserve" x="127.4" y="414.433" font-family="Calibri" font-size="7.5" fill="rgb(0,0,0)" text-anchor="middle">4</text>
<polygon points="131.4,407.6 139.4,407.6 139.4,415.6 131.4,415.6" fill="rgb(255,255,0)"/><text xml:space="preserve" x="135.4" y="414.433" font-family="Calibri" font-size="7.5" fill="rgb(0,0,0)" text-anchor="middle">3</text>
<polygon points="139.4,407.6 147.4,407.6 147.4,415.6 139.4,415.6" fill="rgb(127,230,0)"/><text xml:space="preserve" x="143.4" y="414.433" font-family="Calibri" font-size="7.5" fill="rgb(0,0,0)" text-anchor="middle">2</text>
<polygon points="147.4,407.6 155.4,407.6 155.4,415.6 147.4,415.6" fill="rgb(230,127,0)"/><text xml:space="preserve" x="151.4" y="414.433" font-family="Calibri" font-size="7.5" fill="rgb(0,0,0)" text-anchor="middle">4</text>
<polygon points="165.4,407.6 173.4,407.6 173.4,415.6 165.4,415.6" fill="rgb(252,194,1)"/>
<polygon points="173.4,407.6 181.4,407.6 181.4,415.6 173.4,415.6" fill="rgb(189,201,45)"/>
<polygon points="181.4,407.6 189.4,407.6 189.4,415.6 181.4,415.6" fill="rgb(99,212,110)"/>
<polygon points="189.4,407.6 197.4,407.6 197.4,415.6 189.4,415.6" fill="rgb(23,119,140)"/>
<polygon points="197.4,407.6 205.4,407.6 205.4,415.6 197.4,415.6" fill="rgb(196,200,40)"/>
<polygon points="215.4,407.6 223.4,407.6 223.4,415.6 215.4,415.6" fill="rgb(255,255,255)"/>
<polygon points="223.4,407.6 231.4,407.6 231.4,415.6 223.4,415.6" fill="rgb(255,255,255)"/>
<polygon points="231.4,407.6 239.4,407.6 239.4,415.6 231.4,415.6" fill="rgb(255,255,255)"/>
<polygon points="239.4,407.6 247.4,407.6 247.4,415.6 239.4,415.6" fill="rgb(255,255,255)"/>
<polygon points="247.4,407.6 255.4,407.6 255.4,415.6 247.4,415.6" fill="rgb(255,255,255)"/>
<polygon points="255.4,407.6 263.4,407.6 263.4,415.6 255.4,415.6" fill="rgb(255,255,255)"/>
<polygon points="263.4,407.6 271.4,407.6 271.4,415.6 263.4,415.6" fill="rgb(255,255,255)"/>
<polygon points="271.4,407.6 279.4,407.6 279.4,415.6 271.4,415.6" fill="rgb(255,255,255)"/>
<polygon points="115.4,335.6 155.4,335.6 155.4,415.6 115.4,415.6" fill="none" stroke="black" stroke-width="1"/>
<polygon points="165.4,335.6 205.4,335.6 205.4,415.6 165.4,415.6" fill="none" stroke="black" stroke-width="1"/>
<polygon points="215.4,335.6 279.4,335.6 279.4,415.6 215.4,415.6" fill="none" stroke="black" stroke-width="1"/>
<text xml:space="preserve" x="149.7" y="448.6" font-family="Calibri" font-size="8" text-anchor="middle">ClusterAssignment</text>
<polygon points="99.7,455.6 119.7,455.6 119.7,475.6 99.7,475.6" fill="rgb(0,205,0)"/><polygon points="99.7,455.6 119.7,455.6 119.7,475.6 99.7,475.6" fill="none" stroke="black" stroke-width="1"/><text xml:space="preserve" x="109.7" y="468.433" font-family="Calibri" font-size="7.5" fill="rgb(255,255,255)" text-anchor="middle">1.0</text>
<polygon points="119.7,455.6 139.7,455.6 139.7,475.6 119.7,475.6" fill="rgb(127,230,0)"/><polygon points="119.7,455.6 139.7,455.6 139.7,475.6 119.7,475.6" fill="none" stroke="black" stroke-width="1"/><text xml:space="preserve" x="129.7" y="468.433" font-family="Calibri" font-size="7.5" fill="rgb(0,0,0)" text-anchor="middle">2.0</text>
<polygon points="139.7,455.6 159.7,455.6 159.7,475.6 139.7,475.6" fill="rgb(255,255,0)"/><polygon points="139.7,455.6 159.7,455.6 159.7,475.6 139.7,475.6" fill="none" stroke="black" stroke-width="1"/><text xml:space="preserve" x="149.7" y="468.433" font-family="Calibri" font-size="7.5" fill="rgb(0,0,0)" text-anchor="middle">3.0</text>
<polygon points="159.7,455.6 179.7,455.6 179.7,475.6 159.7,475.6" fill="rgb(230,127,0)"/><polygon points="159.7,455.6 179.7,455.6 179.7,475.6 159.7,475.6" fill="none" stroke="black" stroke-width="1"/><text xml:space="preserve" x="169.7" y="468.433" font-family="Calibri" font-size="7.5" fill="rgb(0,0,0)" text-anchor="middle">4.0</text>
<polygon points="179.7,455.6 199.7,455.6 199.7,475.6 179.7,475.6" fill="rgb(205,0,0)"/><polygon points="179.7,455.6 199.7,455.6 199.7,475.6 179.7,475.6" fill="none" stroke="black" stroke-width="1"/><text xml:space="preserve" x="189.7" y="468.433" font-family="Calibri" font-size="7.5" fill="rgb(255,255,255)" text-anchor="middle">5.0</text>
<text xml:space="preserve" x="149.7" y="508.6" font-family="Calibri" font-size="8" text-anchor="middle">Expression</text>
<polygon points="99.7,515.6 119.7,515.6 119.7,535.6 99.7,535.6" fill="rgb(0,27,135)"/><polygon points="99.7,515.6 119.7,515.6 119.7,535.6 99.7,535.6" fill="none" stroke="black" stroke-width="1"/><text xml:space="preserve" x="109.7" y="528.433" font-family="Calibri" font-size="7.5" fill="rgb(255,255,255)" text-anchor="middle">0.0</text>
<polygon points="119.7,515.6 139.7,515.6 139.7,535.6 119.7,535.6" fill="rgb(24,123,140)"/><polygon points="119.7,515.6 139.7,515.6 139.7,535.6 119.7,535.6" fill="none" stroke="black" stroke-width="1"/><text xml:space="preserve" x="129.7" y="528.433" font-family="Calibri" font-size="7.5" fill="rgb(255,255,255)" text-anchor="middle">0.8</text>
<polygon points="139.7,515.6 159.7,515.6 159.7,535.6 139.7,535.6" fill="rgb(49,219,146)"/><polygon points="139.7,515.6 159.7,515.6 159.7,535.6 139.7,535.6" fill="none" stroke="black" stroke-width="1"/><text xml:space="preserve" x="149.7" y="528.433" font-family="Calibri" font-size="7.5" fill="rgb(0,0,0)" text-anchor="middle">1.5</text>
<polygon points="159.7,515.6 179.7,515.6 179.7,535.6 159.7,535.6" fill="rgb(150,206,73)"/><polygon points="159.7,515.6 179.7,515.6 179.7,535.6 159.7,535.6" fill="none" stroke="black" stroke-width="1"/><text xml:space="preserve" x="169.7" y="528.433" font-family="Calibri" font-size="7.5" fill="rgb(0,0,0)" text-anchor="middle">2.2</text>
<polygon points="179.7,515.6 199.7,515.6 199.7,535.6 179.7,535.6" fill="rgb(252,194,1)"/><polygon points="179.7,515.6 199.7,515.6 199.7,535.6 179.7,535.6" fill="none" stroke="black" stroke-width="1"/><text xml:space="preserve" x="189.7" y="528.433" font-family="Calibri" font-size="7.5" fill="rgb(0,0,0)" text-anchor="middle">3.0</text>
<text xml:space="preserve" x="149.7" y="568.6" font-family="Calibri" font-size="8" text-anchor="middle">PANTHERclass</text>
<polygon points="99.7,575.6 119.7,575.6 119.7,595.6 99.7,595.6" fill="rgb(255,255,255)"/><polygon points="99.7,575.6 119.7,575.6 119.7,595.6 99.7,595.6" fill="none" stroke="black" stroke-width="1"/><text xml:space="preserve" x="109.7" y="588.433" font-family="Calibri" font-size="7.5" fill="rgb(0,0,0)" text-anchor="middle">0.0</text>
<polygon points="119.7,575.6 139.7,575.6 139.7,595.6 119.7,595.6" fill="rgb(242,191,242)"/><polygon points="119.7,575.6 139.7,575.6 139.7,595.6 119.7,595.6" fill="none" stroke="black" stroke-width="1"/><text xml:space="preserve" x="129.7" y="588.433" font-family="Calibri" font-size="7.5" fill="rgb(0,0,0)" text-anchor="middle">0.2</text>
<polygon points="139.7,575.6 159.7,575.6 159.7,595.6 139.7,595.6" fill="rgb(230,127,230)"/><polygon points="139.7,575.6 159.7,575.6 159.7,595.6 139.7,595.6" fill="none" stroke="black" stroke-width="1"/><text xml:space="preserve" x="149.7" y="588.433" font-family="Calibri" font-size="7.5" fill="rgb(0,0,0)" text-anchor="middle">0.5</text>
<polygon points="159.7,575.6 179.7,575.6 179.7,595.6 159.7,595.6" fill="rgb(217,63,217)"/><polygon points="159.7,575.6 179.7,575.6 179.7,595.6 159.7,595.6" fill="none" stroke="black" stroke-width="1"/><text xml:space="preserve" x="169.7" y="588.433" font-family="Calibri" font-size="7.5" fill="rgb(255,255,255)" text-anchor="middle">0.8</text>
<polygon points="179.7,575.6 199.7,575.6 199.7,595.6 179.7,595.6" fill="rgb(205,0,205)"/><polygon points="179.7,575.6 199.7,575.6 199.7,595.6 179.7,595.6" fill="none" stroke="black" stroke-width="1"/><text xml:space="preserve" x="189.7" y="588.433" font-family="Calibri" font-size="7.5" fill="rgb(255,255,255)" text-anchor="middle">1.0</text>
</svg>
