<?xml version="1.0" standalone="no"?><!DOCTYPE svg PUBLIC "-//W3C//DTD SVG 1.1//EN" "http://www.w3.org/Graphics/SVG/1.1/DTD/svg11.dtd">
<svg width="312.9" height="567.6" version="1.1" xmlns="http://www.w3.org/2000/svg">
<text xml:space="preserve" x="124.9" y="342.6" font-family="Calibri" font-size="8" text-anchor="end">AC080038.1</text>
<text xml:space="preserve" x="124.9" y="350.6" font-family="Calibri" font-size="8" text-anchor="end">IER5</text>
<text xml:space="preserve" x="124.9" y="358.6" font-family="Calibri" font-size="8" text-anchor="end">PHYHD1</text>
<text xml:space="preserve" x="124.9" y="366.6" font-family="Calibri" font-size="8" text-anchor="end">DDB2</text>
<text xml:space="preserve" x="135.9" y="331.6" font-family="Calibri" font-size="8" transform="rotate(270 135.9 331.6)">c2</text>
<text xml:space="preserve" x="143.9" y="331.6" font-family="Calibri" font-size="8" transform="rotate(270 143.9 331.6)">c4</text>
<text xml:space="preserve" x="151.9" y="331.6" font-family="Calibri" font-size="8" transform="rotate(270 151.9 331.6)">c3</text>
<text xml:space="preserve" x="159.9" y="331.6" font-family="Calibri" font-size="8" transform="rotate(270 159.9 331.6)">c1</text>
<text xml:space="preserve" x="167.9" y="331.6" font-family="Calibri" font-size="8" transform="rotate(270 167.9 331.6)">c5</text>
<text xml:space="preserve" x="185.9" y="331.6" font-family="Calibri" font-size="8" transform="rotate(270 185.9 331.6)">c2_mean</text>
<text xml:space="preserve" x="193.9" y="331.6" font-family="Calibri" font-size="8" transform="rotate(270 193.9 331.6)">c4_mean</text>
<text xml:space="preserve" x="201.9" y="331.6" font-family="Calibri" font-size="8" transform="rotate(270 201.9 331.6)">c3_mean</text>
<text xml:space="preserve" x="209.9" y="331.6" font-family="Calibri" font-size="8" transform="rotate(270 209.9 331.6)">c1_mean</text>
<text xml:space="preserve" x="217.9" y="331.6" font-family="Calibri" font-size="8" transform="rotate(270 217.9 331.6)">c5_mean</text>
<text xml:space="preserve" x="235.9" y="331.6" font-family="Calibri" font-size="8" transform="rotate(270 235.9 331.6)">transcription_factor</text>
<text xml:space="preserve" x="243.9" y="331.6" font-family="Calibri" font-size="8" transform="rotate(270 243.9 331.6)">transmembrane_signal_receptor</text>
<text xml:space="preserve" x="251.9" y="331.6" font-family="Calibri" font-size="8" transform="rotate(270 251.9 331.6)">growth_factor</text>
<text xml:space="preserve" x="259.9" y="331.6" font-family="Calibri" font-size="8" transform="rotate(270 259.9 331.6)">peptide_hormone</text>
<text xml:space="preserve" x="267.9" y="331.6" font-family="Calibri" font-size="8" transform="rotate(270 267.9 331.6)">cytoskeletal_protein</text>
<text xml:space="preserve" x="275.9" y="331.6" font-family="Calibri" font-size="8" transform="rotate(270 275.9 331.6)">ion_channel</text>
<text xml:space="preserve" x="283.9" y="331.6" font-family="Calibri" font-size="8" transform="rotate(270 283.9 331.6)">integrin</text>
<text xml:space="preserve" x="291.9" y="331.6" font-family="Calibri" font-size="8" transform="rotate(270 291.9 331.6)">extracellular_matrix_protein</text>
<polygon points="128.9,335.6 136.9,335.6 136.9,343.6 128.9,343.6" fill="rgb(127,230,0)"/><text xml:space="preserve" x="132.9" y="342.433" font-family="Calibri" font-size="7.5" fill="rgb(0,0,0)" text-anchor="middle">2</text>
<polygon points="136.9,335.6 144.9,335.6 144.9,343.6 136.9,343.6" fill="rgb(127,230,0)"/><text xml:space="preserve" x="140.9" y="342.433" font-family="Calibri" font-size="7.5" fill="rgb(0,0,0)" text-anchor="middle">2</text>
<polygon points="144.9,335.6 152.9,335.6 152.9,343.6 144.9,343.6" fill="rgb(255,255,0)"/><text xml:space="preserve" x="148.9" y="342.433" font-family="Calibri" font-size="7.5" fill="rgb(0,0,0)" text-anchor="middle">3</text>
<polygon points="152.9,335.6 160.9,335.6 160.9,343.6 152.9,343.6" fill="rgb(230,127,0)"/><text xml:space="preserve" x="156.9" y="342.433" font-family="Calibri" font-size="7.5" fill="rgb(0,0,0)" text-anchor="middle">4</text>
<polygon points="160.9,335.6 168.9,335.6 168.9,343.6 160.9,343.6" fill="rgb(230,127,0)"/><text xml:space="preserve" x="164.9" y="342.433" font-family="Calibri" font-size="7.5" fill="rgb(0,0,0)" text-anchor="middle">4</text>
<polygon points="178.9,335.6 186.9,335.6 186.9,343.6 178.9,343.6" fill="rgb(33,158,142)"/>
<polygon points="186.9,335.6 194.9,335.6 194.9,343.6 186.9,343.6" fill="rgb(20,108,139)"/>
<polygon points="194.9,335.6 202.9,335.6 202.9,343.6 194.9,343.6" fill="rgb(48,216,145)"/>
<polygon points="202.9,335.6 210.9,335.6 210.9,343.6 202.9,343.6" fill="rgb(142,207,79)"/>
<polygon points="210.9,335.6 218.9,335.6 218.9,343.6 210.9,343.6" fill="rgb(45,206,145)"/>
<polygon points="228.9,335.6 236.9,335.6 236.9,343.6 228.9,343.6" fill="rgb(255,255,255)"/>
<polygon points="236.9,335.6 244.9,335.6 244.9,343.6 236.9,343.6" fill="rgb(255,255,255)"/>
<polygon points="244.9,335.6 252.9,335.6 252.9,343.6 244.9,343.6" fill="rgb(255,255,255)"/>
<polygon points="252.9,335.6 260.9,335.6 260.9,343.6 252.9,343.6" fill="rgb(255,255,255)"/>
<polygon points="260.9,335.6 268.9,335.6 268.9,343.6 260.9,343.6" fill="rgb(255,255,255)"/>
<polygon points="268.9,335.6 276.9,335.6 276.9,343.6 268.9,343.6" fill="rgb(255,255,255)"/>
<polygon points="276.9,335.6 284.9,335.6 284.9,343.6 276.9,343.6" fill="rgb(255,255,255)"/>
<polygon points="284.9,335.6 292.9,335.6 292.9,343.6 284.9,343.6" fill="rgb(255,255,255)"/>
<polygon points="128.9,343.6 136.9,343.6 136.9,351.6 128.9,351.6" fill="rgb(127,230,0)"/><text xml:space="preserve" x="132.9" y="350.433" font-family="Calibri" font-size="7.5" fill="rgb(0,0,0)" text-anchor="middle">2</text>
<polygon points="136.9,343.6 144.9,343.6 144.9,351.6 136.9,351.6" fill="rgb(127,230,0)"/><text xml:space="preserve" x="140.9" y="350.433" font-family="Calibri" font-size="7.5" fill="rgb(0,0,0)" text-anchor="middle">2</text>
<polygon points="144.9,343.6 152.9,343.6 152.9,351.6 144.9,351.6" fill="rgb(255,255,0)"/><text xml:space="preserve" x="148.9" y="350.433" font-family="Calibri" font-size="7.5" fill="rgb(0,0,0)" text-anchor="middle">3</text>
<polygon points="152.9,343.6 160.9,343.6 160.9,351.6 152.9,351.6" fill="rgb(230,127,0)"/><text xml:space="preserve" x="156.9" y="350.433" font-family="Calibri" font-size="7.5" fill="rgb(0,0,0)" text-anchor="middle">4</text>
<polygon points="160.9,343.6 168.9,343.6 168.9,351.6 160.9,351.6" fill="rgb(230,127,0)"/><text xml:space="preserve" x="164.9" y="350.433" font-family="Calibri" font-size="7.5" fill="rgb(0,0,0)" text-anchor="middle">4</text>
<polygon points="178.9,343.6 186.9,343.6 186.9,351.6 178.9,351.6" fill="rgb(23,119,140)"/>
<polygon points="186.9,343.6 194.9,343.6 194.9,351.6 186.9,351.6" fill="rgb(23,120,140)"/>
<polygon points="194.9,343.6 202.9,343.6 202.9,351.6 194.9,351.6" fill="rgb(48,216,145)"/>
<polygon points="202.9,343.6 210.9,343.6 210.9,351.6 202.9,351.6" fill="rgb(65,217,134)"/>
<polygon points="210.9,343.6 218.9,343.6 218.9,351.6 210.9,351.6" fill="rgb(141,207,80)"/>
<polygon points="228.9,343.6 236.9,343.6 236.9,351.6 228.9,351.6" fill="rgb(255,255,255)"/>
<polygon points="236.9,343.6 244.9,343.6 244.9,351.6 236.9,351.6" fill="rgb(255,255,255)"/>
<polygon points="244.9,343.6 252.9,343.6 252.9,351.6 244.9,351.6" fill="rgb(255,255,255)"/>
<polygon points="252.9,343.6 260.9,343.6 260.9,351.6 252.9,351.6" fill="rgb(255,255,255)"/>
<polygon points="260.9,343.6 268.9,343.6 268.9,351.6 260.9,351.6" fill="rgb(255,255,255)"/>
<polygon points="268.9,343.6 276.9,343.6 276.9,351.6 268.9,351.6" fill="rgb(255,255,255)"/>
<polygon points="276.9,343.6 284.9,343.6 284.9,351.6 276.9,351.6" fill="rgb(255,255,255)"/>
<polygon points="284.9,343.6 292.9,343.6 292.9,351.6 284.9,351.6" fill="rgb(255,255,255)"/>
<polygon points="128.9,351.6 136.9,351.6 136.9,359.6 128.9,359.6" fill="rgb(127,230,0)"/><text xml:space="preserve" x="132.9" y="358.433" font-family="Calibri" font-size="7.5" fill="rgb(0,0,0)" text-anchor="middle">2</text>
<polygon points="136.9,351.6 144.9,351.6 144.9,359.6 136.9,359.6" fill="rgb(127,230,0)"/><text xml:space="preserve" x="140.9" y="358.433" font-family="Calibri" font-size="7.5" fill="rgb(0,0,0)" text-anchor="middle">2</text>
<polygon points="144.9,351.6 152.9,351.6 152.9,359.6 144.9,359.6" fill="rgb(255,255,0)"/><text xml:space="preserve" x="148.9" y="358.433" font-family="Calibri" font-size="7.5" fill="rgb(0,0,0)" text-anchor="middle">3</text>
<polygon points="152.9,351.6 160.9,351.6 160.9,359.6 152.9,359.6" fill="rgb(230,127,0)"/><text xml:space="preserve" x="156.9" y="358.433" font-family="Calibri" font-size="7.5" fill="rgb(0,0,0)" text-anchor="middle">4</text>
<polygon points="160.9,351.6 168.9,351.6 168.9,359.6 160.9,359.6" fill="rgb(230,127,0)"/><text xml:space="preserve" x="164.9" y="358.433" font-family="Calibri" font-size="7.5" fill="rgb(0,0,0)" text-anchor="middle">4</text>
<polygon points="178.9,351.6 186.9,351.6 186.9,359.6 178.9,359.6" fill="rgb(18,98,139)"/>
<polygon points="186.9,351.6 194.9,351.6 194.9,359.6 186.9,359.6" fill="rgb(18,101,139)"/>
<polygon points="194.9,351.6 202.9,351.6 202.9,359.6 194.9,359.6" fill="rgb(46,210,145)"/>
<polygon points="202.9,351.6 210.9,351.6 210.9,359.6 202.9,359.6" fill="rgb(44,202,145)"/>
<polygon points="210.9,351.6 218.9,351.6 218.9,359.6 210.9,359.6" fill="rgb(74,215,127)"/>
<polygon points="228.9,351.6 236.9,351.6 236.9,359.6 228.9,359.6" fill="rgb(255,255,255)"/>
<polygon points="236.9,351.6 244.9,351.6 244.9,359.6 236.9,359.6" fill="rgb(255,255,255)"/>
<polygon points="244.9,351.6 252.9,351.6 252.9,359.6 244.9,359.6" fill="rgb(255,255,255)"/>
<polygon points="252.9,351.6 260.9,351.6 260.9,359.6 252.9,359.6" fill="rgb(255,255,255)"/>
<polygon points="260.9,351.6 268.9,351.6 268.9,359.6 260.9,359.6" fill="rgb(255,255,255)"/>
<polygon points="268.9,351.6 276.9,351.6 276.9,359.6 268.9,359.6" fill="rgb(255,255,255)"/>
<polygon points="276.9,351.6 284.9,351.6 284.9,359.6 276.9,359.6" fill="rgb(255,255,255)"/>
<polygon points="284.9,351.6 292.9,351.6 292.9,359.6 284.9,359.6" fill="rgb(255,255,255)"/>
<polygon points="128.9,359.6 136.9,359.6 136.9,367.6 128.9,367.6" fill="rgb(127,230,0)"/><text xml:space="preserve" x="132.9" y="366.433" font-family="Calibri" font-size="7.5" fill="rgb(0,0,0)" text-anchor="middle">2</text>
<polygon points="136.9,359.6 144.9,359.6 144.9,367.6 136.9,367.6" fill="rgb(127,230,0)"/><text xml:space="preserve" x="140.9" y="366.433" font-family="Calibri" font-size="7.5" fill="rgb(0,0,0)" text-anchor="middle">2</text>
<polygon points="144.9,359.6 152.9,359.6 152.9,367.6 144.9,367.6" fill="rgb(255,255,0)"/><text xml:space="preserve" x="148.9" y="366.433" font-family="Calibri" font-size="7.5" fill="rgb(0,0,0)" text-anchor="middle">3</text>
<polygon points="152.9,359.6 160.9,359.6 160.9,367.6 152.9,367.6" fill="rgb(230,127,0)"/><text xml:space="preserve" x="156.9" y="366.433" font-family="Calibri" font-size="7.5" fill="rgb(0,0,0)" text-anchor="middle">4</text>
<polygon points="160.9,359.6 168.9,359.6 168.9,367.6 160.9,367.6" fill="rgb(230,127,0)"/><text xml:space="preserve" x="164.9" y="366.433" font-family="Calibri" font-size="7.5" fill="rgb(0,0,0)" text-anchor="middle">4</text>
<polygon points="178.9,359.6 186.9,359.6 186.9,367.6 178.9,367.6" fill="rgb(29,142,141)"/>
<polygon points="186.9,359.6 194.9,359.6 194.9,367.6 186.9,367.6" fill="rgb(24,121,140)"/>
<polygon points="194.9,359.6 202.9,359.6 202.9,367.6 194.9,367.6" fill="rgb(43,198,144)"/>
<polygon points="202.9,359.6 210.9,359.6 210.9,367.6 202.9,367.6" fill="rgb(46,207,145)"/>
<polygon points="210.9,359.6 218.9,359.6 218.9,367.6 210.9,367.6" fill="rgb(145,207,77)"/>
<polygon points="228.9,359.6 236.9,359.6 236.9,367.6 228.9,367.6" fill="rgb(255,255,255)"/>
<polygon points="236.9,359.6 244.9,359.6 244.9,367.6 236.9,367.6" fill="rgb(255,255,255)"/>
<polygon points="244.9,359.6 252.9,359.6 252.9,367.6 244.9,367.6" fill="rgb(255,255,255)"/>
<polygon points="252.9,359.6 260.9,359.6 260.9,367.6 252.9,367.6" fill="rgb(255,255,255)"/>
<polygon points="260.9,359.6 268.9,359.6 268.9,367.6 260.9,367.6" fill="rgb(255,255,255)"/>
<polygon points="268.9,359.6 276.9,359.6 276.9,367.6 268.9,367.6" fill="rgb(255,255,255)"/>
<polygon points="276.9,359.6 284.9,359.6 284.9,367.6 276.9,367.6" fill="rgb(255,255,255)"/>
<polygon points="284.9,359.6 292.9,359.6 292.9,367.6 284.9,367.6" fill="rgb(255,255,255)"/>
<polygon points="128.9,335.6 168.9,335.6 168.9,367.6 128.9,367.6" fill="none" stroke="black" stroke-width="1"/>
<polygon points="178.9,335.6 218.9,335.6 218.9,367.6 178.9,367.6" fill="none" stroke="black" stroke-width="1"/>
<polygon points="228.9,335.6 292.9,335.6 292.9,367.6 228.9,367.6" fill="none" stroke="black" stroke-width="1"/>
<text xml:space="preserve" x="156.45" y="400.6" font-family="Calibri" font-size="8" text-anchor="middle">ClusterAssignment</text>
<polygon points="106.45,407.6 126.45,407.6 126.45,427.6 106.45,427.6" fill="rgb(0,205,0)"/><polygon points="106.45,407.6 126.45,407.6 126.45,427.6 106.45,427.6" fill="none" stroke="black" stroke-width="1"/><text xml:space="preserve" x="116.45" y="420.433" font-family="Calibri" font-size="7.5" fill="rgb(255,255,255)" text-anchor="middle">1.0</text>
<polygon points="126.45,407.6 146.45,407.6 146.45,427.6 126.45,427.6" fill="rgb(127,230,0)"/><polygon points="126.45,407.6 146.45,407.6 146.45,427.6 126.45,427.6" fill="none" stroke="black" stroke-width="1"/><text xml:space="preserve" x="136.45" y="420.433" font-family="Calibri" font-size="7.5" fill="rgb(0,0,0)" text-anchor="middle">2.0</text>
<polygon points="146.45,407.6 166.45,407.6 166.45,427.6 146.45,427.6" fill="rgb(255,255,0)"/><polygon points="146.45,407.6 166.45,407.6 166.45,427.6 146.45,427.6" fill="none" stroke="black" stroke-width="1"/><text xml:space="preserve" x="156.45" y="420.433" font-family="Calibri" font-size="7.5" fill="rgb(0,0,0)" text-anchor="middle">3.0</text>
<polygon points="166.45,407.6 186.45,407.6 186.45,427.6 166.45,427.6" fill="rgb(230,127,0)"/><polygon points="166.45,407.6 186.45,407.6 186.45,427.6 166.45,427.6" fill="none" stroke="black" stroke-width="1"/><text xml:space="preserve" x="176.45" y="420.433" font-family="Calibri" font-size="7.5" fill="rgb(0,0,0)" text-anchor="middle">4.0</text>
<polygon points="186.45,407.6 206.45,407.6 206.45,427.6 186.45,427.6" fill="rgb(205,0,0)"/><polygon points="186.45,407.6 206.45,407.6 206.45,427.6 186.45,427.6" fill="none" stroke="black" stroke-width="1"/><text xml:space="preserve" x="196.45" y="420.433" font-family="Calibri" font-size="7.5" fill="rgb(255,255,255)" text-anchor="middle">5.0</text>
<text xml:space="preserve" x="156.45" y="460.6" font-family="Calibri" font-size="8" text-anchor="middle">Expression</text>
<polygon points="106.45,467.6 126.45,467.6 126.45,487.6 106.45,487.6" fill="rgb(0,27,135)"/><polygon points="106.45,467.6 126.45,467.6 126.45,487.6 106.45,487.6" fill="none" stroke="black" stroke-width="1"/><text xml:space="preserve" x="116.45" y="480.433" font-family="Calibri" font-size="7.5" fill="rgb(255,255,255)" text-anchor="middle">0.0</text>
<polygon points="126.45,467.6 146.45,467.6 146.45,487.6 126.45,487.6" fill="rgb(24,123,140)"/><polygon points="126.45,467.6 146.45,467.6 146.45,487.6 126.45,487.6" fill="none" stroke="black" stroke-width="1"/><text xml:space="preserve" x="136.45" y="480.433" font-family="Calibri" font-size="7.5" fill="rgb(255,255,255)" text-anchor="middle">0.8</text>
<polygon points="146.45,467.6 166.45,467.6 166.45,487.6 146.45,487.6" fill="rgb(49,219,146)"/><polygon points="146.45,467.6 166.45,467.6 166.45,487.6 146.45,487.6" fill="none" stroke="black" stroke-width="1"/><text xml:space="preserve" x="156.45" y="480.433" font-family="Calibri" font-size="7.5" fill="rgb(0,0,0)" text-anchor="middle">1.5</text>
<polygon points="166.45,467.6 186.45,467.6 186.45,487.6 166.45,487.6" fill="rgb(150,206,73)"/><polygon points="166.45,467.6 186.45,467.6 186.45,487.6 166.45,487.6" fill="none" stroke="black" stroke-width="1"/><text xml:space="preserve" x="176.45" y="480.433" font-family="Calibri" font-size="7.5" fill="rgb(0,0,0)" text-anchor="middle">2.2</text>
<polygon points="186.45,467.6 206.45,467.6 206.45,487.6 186.45,487.6" fill="rgb(252,194,1)"/><polygon points="186.45,467.6 206.45,467.6 206.45,487.6 186.45,487.6" fill="none" stroke="black" stroke-width="1"/><text xml:space="preserve" x="196.45" y="480.433" font-family="Calibri" font-size="7.5" fill="rgb(0,0,0)" text-anchor="middle">3.0</text>
<text xml:space="preserve" x="156.45" y="520.6" font-family="Calibri" font-size="8" text-anchor="middle">PANTHERclass</text>
<polygon points="106.45,527.6 126.45,527.6 126.45,547.6 106.45,547.6" fill="rgb(255,255,255)"/><polygon points="106.45,527.6 126.45,527.6 126.45,547.6 106.45,547.6" fill="none" stroke="black" stroke-width="1"/><text xml:space="preserve" x="116.45" y="540.433" font-family="Calibri" font-size="7.5" fill="rgb(0,0,0)" text-anchor="middle">0.0</text>
<polygon points="126.45,527.6 146.45,527.6 146.45,547.6 126.45,547.6" fill="rgb(242,191,242)"/><polygon points="126.45,527.6 146.45,527.6 146.45,547.6 126.45,547.6" fill="none" stroke="black" stroke-width="1"/><text xml:space="preserve" x="136.45" y="540.433" font-family="Calibri" font-size="7.5" fill="rgb(0,0,0)" text-anchor="middle">0.2</text>
<polygon points="146.45,527.6 166.45,527.6 166.45,547.6 146.45,547.6" fill="rgb(230,127,230)"/><polygon points="146.45,527.6 166.45,527.6 166.45,547.6 146.45,547.6" fill="none" stroke="black" stroke-width="1"/><text xml:space="preserve" x="156.45" y="540.433" font-family="Calibri" font-size="7.5" fill="rgb(0,0,0)" text-anchor="middle">0.5</text>
<polygon points="166.45,527.6 186.45,527.6 186.45,547.6 166.45,547.6" fill="rgb(217,63,217)"/><polygon points="166.45,527.6 186.45,527.6 186.45,547.6 166.45,547.6" fill="none" stroke="black" stroke-width="1"/><text xml:space="preserve" x="176.45" y="540.433" font-family="Calibri" font-size="7.5" fill="rgb(255,255,255)" text-anchor="middle">0.8</text>
<polygon points="186.45,527.6 206.45,527.6 206.45,547.6 186.45,547.6" fill="rgb(205,0,205)"/><polygon points="186.45,527.6 206.45,527.6 206.45,547.6 186.45,547.6" fill="none" stroke="black" stroke-width="1"/><text xml:space="preserve" x="196.45" y="540.433" font-family="Calibri" font-size="7.5" fill="rgb(255,255,255)" text-anchor="middle">1.0</text>
</svg>
