<?xml version="1.0" standalone="no"?><!DOCTYPE svg PUBLIC "-//W3C//DTD SVG 1.1//EN" "http://www.w3.org/Graphics/SVG/1.1/DTD/svg11.dtd">
<svg width="296.3" height="567.6" version="1.1" xmlns="http://www.w3.org/2000/svg">
<text xml:space="preserve" x="124.3" y="342.6" font-family="Calibri" font-size="8" text-anchor="end">AC011008.1</text>
<text xml:space="preserve" x="124.3" y="350.6" font-family="Calibri" font-size="8" text-anchor="end">CLEC1A</text>
<text xml:space="preserve" x="124.3" y="358.6" font-family="Calibri" font-size="8" text-anchor="end">TERC</text>
<text xml:space="preserve" x="124.3" y="366.6" font-family="Calibri" font-size="8" text-anchor="end">AC011921.1</text>
<text xml:space="preserve" x="135.3" y="331.6" font-family="Calibri" font-size="8" transform="rotate(270 135.3 331.6)">c1</text>
<text xml:space="preserve" x="143.3" y="331.6" font-family="Calibri" font-size="8" transform="rotate(270 143.3 331.6)">c2</text>
<text xml:space="preserve" x="151.3" y="331.6" font-family="Calibri" font-size="8" transform="rotate(270 151.3 331.6)">c3</text>
<text xml:space="preserve" x="159.3" y="331.6" font-family="Calibri" font-size="8" transform="rotate(270 159.3 331.6)">c4</text>
<text xml:space="preserve" x="177.3" y="331.6" font-family="Calibri" font-size="8" transform="rotate(270 177.3 331.6)">c1_mean</text>
<text xml:space="preserve" x="185.3" y="331.6" font-family="Calibri" font-size="8" transform="rotate(270 185.3 331.6)">c2_mean</text>
<text xml:space="preserve" x="193.3" y="331.6" font-family="Calibri" font-size="8" transform="rotate(270 193.3 331.6)">c3_mean</text>
<text xml:space="preserve" x="201.3" y="331.6" font-family="Calibri" font-size="8" transform="rotate(270 201.3 331.6)">c4_mean</text>
<text xml:space="preserve" x="219.3" y="331.6" font-family="Calibri" font-size="8" transform="rotate(270 219.3 331.6)">transcription_factor</text>
<text xml:space="preserve" x="227.3" y="331.6" font-family="Calibri" font-size="8" transform="rotate(270 227.3 331.6)">transmembrane_signal_receptor</text>
<text xml:space="preserve" x="235.3" y="331.6" font-family="Calibri" font-size="8" transform="rotate(270 235.3 331.6)">growth_factor</text>
<text xml:space="preserve" x="243.3" y="331.6" font-family="Calibri" font-size="8" transform="rotate(270 243.3 331.6)">peptide_hormone</text>
<text xml:space="preserve" x="251.3" y="331.6" font-family="Calibri" font-size="8" transform="rotate(270 251.3 331.6)">cytoskeletal_protein</text>
<text xml:space="preserve" x="259.3" y="331.6" font-family="Calibri" font-size="8" transform="rotate(270 259.3 331.6)">ion_channel</text>
<text xml:space="preserve" x="267.3" y="331.6" font-family="Calibri" font-size="8" transform="rotate(270 267.3 331.6)">integrin</text>
<text xml:space="preserve" x="275.3" y="331.6" font-family="Calibri" font-size="8" transform="rotate(270 275.3 331.6)">extracellular_matrix_protein</text>
<polygon points="128.3,335.6 136.3,335.6 136.3,343.6 128.3,343.6" fill="rgb(127,230,0)"/><text xml:space="preserve" x="132.3" y="342.433" font-family="Calibri" font-size="7.5" fill="rgb(0,0,0)" text-anchor="middle">2</text>
<polygon points="136.3,335.6 144.3,335.6 144.3,343.6 136.3,343.6" fill="rgb(0,205,0)"/><text xml:space="preserve" x="140.3" y="342.433" font-family="Calibri" font-size="7.5" fill="rgb(255,255,255)" text-anchor="middle">1</text>
<polygon points="144.3,335.6 152.3,335.6 152.3,343.6 144.3,343.6" fill="rgb(0,205,0)"/><text xml:space="preserve" x="148.3" y="342.433" font-family="Calibri" font-size="7.5" fill="rgb(255,255,255)" text-anchor="middle">1</text>
<polygon points="152.3,335.6 160.3,335.6 160.3,343.6 152.3,343.6" fill="rgb(0,205,0)"/><text xml:space="preserve" x="156.3" y="342.433" font-family="Calibri" font-size="7.5" fill="rgb(255,255,255)" text-anchor="middle">1</text>
<polygon points="170.3,335.6 178.3,335.6 178.3,343.6 170.3,343.6" fill="rgb(20,107,139)"/>
<polygon points="178.3,335.6 186.3,335.6 186.3,343.6 178.3,343.6" fill="rgb(5,50,136)"/>
<polygon points="186.3,335.6 194.3,335.6 194.3,343.6 186.3,343.6" fill="rgb(0,30,135)"/>
<polygon points="194.3,335.6 202.3,335.6 202.3,343.6 194.3,343.6" fill="rgb(0,27,135)"/>
<polygon points="212.3,335.6 220.3,335.6 220.3,343.6 212.3,343.6" fill="rgb(255,255,255)"/>
<polygon points="220.3,335.6 228.3,335.6 228.3,343.6 220.3,343.6" fill="rgb(255,255,255)"/>
<polygon points="228.3,335.6 236.3,335.6 236.3,343.6 228.3,343.6" fill="rgb(255,255,255)"/>
<polygon points="236.3,335.6 244.3,335.6 244.3,343.6 236.3,343.6" fill="rgb(255,255,255)"/>
<polygon points="244.3,335.6 252.3,335.6 252.3,343.6 244.3,343.6" fill="rgb(255,255,255)"/>
<polygon points="252.3,335.6 260.3,335.6 260.3,343.6 252.3,343.6" fill="rgb(255,255,255)"/>
<polygon points="260.3,335.6 268.3,335.6 268.3,343.6 260.3,343.6" fill="rgb(255,255,255)"/>
<polygon points="268.3,335.6 276.3,335.6 276.3,343.6 268.3,343.6" fill="rgb(255,255,255)"/>
<polygon points="128.3,343.6 136.3,343.6 136.3,351.6 128.3,351.6" fill="rgb(127,230,0)"/><text xml:space="preserve" x="132.3" y="350.433" font-family="Calibri" font-size="7.5" fill="rgb(0,0,0)" text-anchor="middle">2</text>
<polygon points="136.3,343.6 144.3,343.6 144.3,351.6 136.3,351.6" fill="rgb(0,205,0)"/><text xml:space="preserve" x="140.3" y="350.433" font-family="Calibri" font-size="7.5" fill="rgb(255,255,255)" text-anchor="middle">1</text>
<polygon points="144.3,343.6 152.3,343.6 152.3,351.6 144.3,351.6" fill="rgb(0,205,0)"/><text xml:space="preserve" x="148.3" y="350.433" font-family="Calibri" font-size="7.5" fill="rgb(255,255,255)" text-anchor="middle">1</text>
<polygon points="152.3,343.6 160.3,343.6 160.3,351.6 152.3,351.6" fill="rgb(0,205,0)"/><text xml:space="preserve" x="156.3" y="350.433" font-family="Calibri" font-size="7.5" fill="rgb(255,255,255)" text-anchor="middle">1</text>
<polygon points="170.3,343.6 178.3,343.6 178.3,351.6 170.3,351.6" fill="rgb(19,105,139)"/>
<polygon points="178.3,343.6 186.3,343.6 186.3,351.6 178.3,351.6" fill="rgb(5,48,136)"/>
<polygon points="186.3,343.6 194.3,343.6 194.3,351.6 186.3,351.6" fill="rgb(0,29,135)"/>
<polygon points="194.3,343.6 202.3,343.6 202.3,351.6 194.3,351.6" fill="rgb(0,27,135)"/>
<polygon points="212.3,343.6 220.3,343.6 220.3,351.6 212.3,351.6" fill="rgb(255,255,255)"/>
<polygon points="220.3,343.6 228.3,343.6 228.3,351.6 220.3,351.6" fill="rgb(205,0,205)"/>
<polygon points="228.3,343.6 236.3,343.6 236.3,351.6 228.3,351.6" fill="rgb(255,255,255)"/>
<polygon points="236.3,343.6 244.3,343.6 244.3,351.6 236.3,351.6" fill="rgb(255,255,255)"/>
<polygon points="244.3,343.6 252.3,343.6 252.3,351.6 244.3,351.6" fill="rgb(255,255,255)"/>
<polygon points="252.3,343.6 260.3,343.6 260.3,351.6 252.3,351.6" fill="rgb(255,255,255)"/>
<polygon points="260.3,343.6 268.3,343.6 268.3,351.6 260.3,351.6" fill="rgb(255,255,255)"/>
<polygon points="268.3,343.6 276.3,343.6 276.3,351.6 268.3,351.6" fill="rgb(255,255,255)"/>
<polygon points="128.3,351.6 136.3,351.6 136.3,359.6 128.3,359.6" fill="rgb(127,230,0)"/><text xml:space="preserve" x="132.3" y="358.433" font-family="Calibri" font-size="7.5" fill="rgb(0,0,0)" text-anchor="middle">2</text>
<polygon points="136.3,351.6 144.3,351.6 144.3,359.6 136.3,359.6" fill="rgb(0,205,0)"/><text xml:space="preserve" x="140.3" y="358.433" font-family="Calibri" font-size="7.5" fill="rgb(255,255,255)" text-anchor="middle">1</text>
<polygon points="144.3,351.6 152.3,351.6 152.3,359.6 144.3,359.6" fill="rgb(0,205,0)"/><text xml:space="preserve" x="148.3" y="358.433" font-family="Calibri" font-size="7.5" fill="rgb(255,255,255)" text-anchor="middle">1</text>
<polygon points="152.3,351.6 160.3,351.6 160.3,359.6 152.3,359.6" fill="rgb(0,205,0)"/><text xml:space="preserve" x="156.3" y="358.433" font-family="Calibri" font-size="7.5" fill="rgb(255,255,255)" text-anchor="middle">1</text>
<polygon points="170.3,351.6 178.3,351.6 178.3,359.6 170.3,359.6" fill="rgb(20,107,139)"/>
<polygon points="178.3,351.6 186.3,351.6 186.3,359.6 178.3,359.6" fill="rgb(4,46,136)"/>
<polygon points="186.3,351.6 194.3,351.6 194.3,359.6 186.3,359.6" fill="rgb(0,27,135)"/>
<polygon points="194.3,351.6 202.3,351.6 202.3,359.6 194.3,359.6" fill="rgb(0,27,135)"/>
<polygon points="212.3,351.6 220.3,351.6 220.3,359.6 212.3,359.6" fill="rgb(255,255,255)"/>
<polygon points="220.3,351.6 228.3,351.6 228.3,359.6 220.3,359.6" fill="rgb(255,255,255)"/>
<polygon points="228.3,351.6 236.3,351.6 236.3,359.6 228.3,359.6" fill="rgb(255,255,255)"/>
<polygon points="236.3,351.6 244.3,351.6 244.3,359.6 236.3,359.6" fill="rgb(255,255,255)"/>
<polygon points="244.3,351.6 252.3,351.6 252.3,359.6 244.3,359.6" fill="rgb(255,255,255)"/>
<polygon points="252.3,351.6 260.3,351.6 260.3,359.6 252.3,359.6" fill="rgb(255,255,255)"/>
<polygon points="260.3,351.6 268.3,351.6 268.3,359.6 260.3,359.6" fill="rgb(255,255,255)"/>
<polygon points="268.3,351.6 276.3,351.6 276.3,359.6 268.3,359.6" fill="rgb(255,255,255)"/>
<polygon points="128.3,359.6 136.3,359.6 136.3,367.6 128.3,367.6" fill="rgb(127,230,0)"/><text xml:space="preserve" x="132.3" y="366.433" font-family="Calibri" font-size="7.5" fill="rgb(0,0,0)" text-anchor="middle">2</text>
<polygon points="136.3,359.6 144.3,359.6 144.3,367.6 136.3,367.6" fill="rgb(0,205,0)"/><text xml:space="preserve" x="140.3" y="366.433" font-family="Calibri" font-size="7.5" fill="rgb(255,255,255)" text-anchor="middle">1</text>
<polygon points="144.3,359.6 152.3,359.6 152.3,367.6 144.3,367.6" fill="rgb(0,205,0)"/><text xml:space="preserve" x="148.3" y="366.433" font-family="Calibri" font-size="7.5" fill="rgb(255,255,255)" text-anchor="middle">1</text>
<polygon points="152.3,359.6 160.3,359.6 160.3,367.6 152.3,367.6" fill="rgb(0,205,0)"/><text xml:space="preserve" x="156.3" y="366.433" font-family="Calibri" font-size="7.5" fill="rgb(255,255,255)" text-anchor="middle">1</text>
<polygon points="170.3,359.6 178.3,359.6 178.3,367.6 170.3,367.6" fill="rgb(20,107,139)"/>
<polygon points="178.3,359.6 186.3,359.6 186.3,367.6 178.3,367.6" fill="rgb(5,47,136)"/>
<polygon points="186.3,359.6 194.3,359.6 194.3,367.6 186.3,367.6" fill="rgb(0,27,135)"/>
<polygon points="194.3,359.6 202.3,359.6 202.3,367.6 194.3,367.6" fill="rgb(0,27,135)"/>
<polygon points="212.3,359.6 220.3,359.6 220.3,367.6 212.3,367.6" fill="rgb(255,255,255)"/>
<polygon points="220.3,359.6 228.3,359.6 228.3,367.6 220.3,367.6" fill="rgb(255,255,255)"/>
<polygon points="228.3,359.6 236.3,359.6 236.3,367.6 228.3,367.6" fill="rgb(255,255,255)"/>
<polygon points="236.3,359.6 244.3,359.6 244.3,367.6 236.3,367.6" fill="rgb(255,255,255)"/>
<polygon points="244.3,359.6 252.3,359.6 252.3,367.6 244.3,367.6" fill="rgb(255,255,255)"/>
<polygon points="252.3,359.6 260.3,359.6 260.3,367.6 252.3,367.6" fill="rgb(255,255,255)"/>
<polygon points="260.3,359.6 268.3,359.6 268.3,367.6 260.3,367.6" fill="rgb(255,255,255)"/>
<polygon points="268.3,359.6 276.3,359.6 276.3,367.6 268.3,367.6" fill="rgb(255,255,255)"/>
<polygon points="128.3,335.6 160.3,335.6 160.3,367.6 128.3,367.6" fill="none" stroke="black" stroke-width="1"/>
<polygon points="170.3,335.6 202.3,335.6 202.3,367.6 170.3,367.6" fill="none" stroke="black" stroke-width="1"/>
<polygon points="212.3,335.6 276.3,335.6 276.3,367.6 212.3,367.6" fill="none" stroke="black" stroke-width="1"/>
<text xml:space="preserve" x="148.15" y="400.6" font-family="Calibri" font-size="8" text-anchor="middle">ClusterAssignment</text>
<polygon points="98.15,407.6 118.15,407.6 118.15,427.6 98.15,427.6" fill="rgb(0,205,0)"/><polygon points="98.15,407.6 118.15,407.6 118.15,427.6 98.15,427.6" fill="none" stroke="black" stroke-width="1"/><text xml:space="preserve" x="108.15" y="420.433" font-family="Calibri" font-size="7.5" fill="rgb(255,255,255)" text-anchor="middle">1.0</text>
<polygon points="118.15,407.6 138.15,407.6 138.15,427.6 118.15,427.6" fill="rgb(127,230,0)"/><polygon points="118.15,407.6 138.15,407.6 138.15,427.6 118.15,427.6" fill="none" stroke="black" stroke-width="1"/><text xml:space="preserve" x="128.15" y="420.433" font-family="Calibri" font-size="7.5" fill="rgb(0,0,0)" text-anchor="middle">2.0</text>
<polygon points="138.15,407.6 158.15,407.6 158.15,427.6 138.15,427.6" fill="rgb(255,255,0)"/><polygon points="138.15,407.6 158.15,407.6 158.15,427.6 138.15,427.6" fill="none" stroke="black" stroke-width="1"/><text xml:space="preserve" x="148.15" y="420.433" font-family="Calibri" font-size="7.5" fill="rgb(0,0,0)" text-anchor="middle">3.0</text>
<polygon points="158.15,407.6 178.15,407.6 178.15,427.6 158.15,427.6" fill="rgb(230,127,0)"/><polygon points="158.15,407.6 178.15,407.6 178.15,427.6 158.15,427.6" fill="none" stroke="black" stroke-width="1"/><text xml:space="preserve" x="168.15" y="420.433" font-family="Calibri" font-size="7.5" fill="rgb(0,0,0)" text-anchor="middle">4.0</text>
<polygon points="178.15,407.6 198.15,407.6 198.15,427.6 178.15,427.6" fill="rgb(205,0,0)"/><polygon points="178.15,407.6 198.15,407.6 198.15,427.6 178.15,427.6" fill="none" stroke="black" stroke-width="1"/><text xml:space="preserve" x="188.15" y="420.433" font-family="Calibri" font-size="7.5" fill="rgb(255,255,255)" text-anchor="middle">5.0</text>
<text xml:space="preserve" x="148.15" y="460.6" font-family="Calibri" font-size="8" text-anchor="middle">Expression</text>
<polygon points="98.15,467.6 118.15,467.6 118.15,487.6 98.15,487.6" fill="rgb(0,27,135)"/><polygon points="98.15,467.6 118.15,467.6 118.15,487.6 98.15,487.6" fill="none" stroke="black" stroke-width="1"/><text xml:space="preserve" x="108.15" y="480.433" font-family="Calibri" font-size="7.5" fill="rgb(255,255,255)" text-anchor="middle">0.0</text>
<polygon points="118.15,467.6 138.15,467.6 138.15,487.6 118.15,487.6" fill="rgb(24,123,140)"/><polygon points="118.15,467.6 138.15,467.6 138.15,487.6 118.15,487.6" fill="none" stroke="black" stroke-width="1"/><text xml:space="preserve" x="128.15" y="480.433" font-family="Calibri" font-size="7.5" fill="rgb(255,255,255)" text-anchor="middle">0.8</text>
<polygon points="138.15,467.6 158.15,467.6 158.15,487.6 138.15,487.6" fill="rgb(49,219,146)"/><polygon points="138.15,467.6 158.15,467.6 158.15,487.6 138.15,487.6" fill="none" stroke="black" stroke-width="1"/><text xml:space="preserve" x="148.15" y="480.433" font-family="Calibri" font-size="7.5" fill="rgb(0,0,0)" text-anchor="middle">1.5</text>
<polygon points="158.15,467.6 178.15,467.6 178.15,487.6 158.15,487.6" fill="rgb(150,206,73)"/><polygon points="158.15,467.6 178.15,467.6 178.15,487.6 158.15,487.6" fill="none" stroke="black" stroke-width="1"/><text xml:space="preserve" x="168.15" y="480.433" font-family="Calibri" font-size="7.5" fill="rgb(0,0,0)" text-anchor="middle">2.2</text>
<polygon points="178.15,467.6 198.15,467.6 198.15,487.6 178.15,487.6" fill="rgb(252,194,1)"/><polygon points="178.15,467.6 198.15,467.6 198.15,487.6 178.15,487.6" fill="none" stroke="black" stroke-width="1"/><text xml:space="preserve" x="188.15" y="480.433" font-family="Calibri" font-size="7.5" fill="rgb(0,0,0)" text-anchor="middle">3.0</text>
<text xml:space="preserve" x="148.15" y="520.6" font-family="Calibri" font-size="8" text-anchor="middle">PANTHERclass</text>
<polygon points="98.15,527.6 118.15,527.6 118.15,547.6 98.15,547.6" fill="rgb(255,255,255)"/><polygon points="98.15,527.6 118.15,527.6 118.15,547.6 98.15,547.6" fill="none" stroke="black" stroke-width="1"/><text xml:space="preserve" x="108.15" y="540.433" font-family="Calibri" font-size="7.5" fill="rgb(0,0,0)" text-anchor="middle">0.0</text>
<polygon points="118.15,527.6 138.15,527.6 138.15,547.6 118.15,547.6" fill="rgb(242,191,242)"/><polygon points="118.15,527.6 138.15,527.6 138.15,547.6 118.15,547.6" fill="none" stroke="black" stroke-width="1"/><text xml:space="preserve" x="128.15" y="540.433" font-family="Calibri" font-size="7.5" fill="rgb(0,0,0)" text-anchor="middle">0.2</text>
<polygon points="138.15,527.6 158.15,527.6 158.15,547.6 138.15,547.6" fill="rgb(230,127,230)"/><polygon points="138.15,527.6 158.15,527.6 158.15,547.6 138.15,547.6" fill="none" stroke="black" stroke-width="1"/><text xml:space="preserve" x="148.15" y="540.433" font-family="Calibri" font-size="7.5" fill="rgb(0,0,0)" text-anchor="middle">0.5</text>
<polygon points="158.15,527.6 178.15,527.6 178.15,547.6 158.15,547.6" fill="rgb(217,63,217)"/><polygon points="158.15,527.6 178.15,527.6 178.15,547.6 158.15,547.6" fill="none" stroke="black" stroke-width="1"/><text xml:space="preserve" x="168.15" y="540.433" font-family="Calibri" font-size="7.5" fill="rgb(255,255,255)" text-anchor="middle">0.8</text>
<polygon points="178.15,527.6 198.15,527.6 198.15,547.6 178.15,547.6" fill="rgb(205,0,205)"/><polygon points="178.15,527.6 198.15,527.6 198.15,547.6 178.15,547.6" fill="none" stroke="black" stroke-width="1"/><text xml:space="preserve" x="188.15" y="540.433" font-family="Calibri" font-size="7.5" fill="rgb(255,255,255)" text-anchor="middle">1.0</text>
</svg>
