<?xml version="1.0" standalone="no"?><!DOCTYPE svg PUBLIC "-//W3C//DTD SVG 1.1//EN" "http://www.w3.org/Graphics/SVG/1.1/DTD/svg11.dtd">
<svg width="295.7" height="559.6" version="1.1" xmlns="http://www.w3.org/2000/svg">
<text xml:space="preserve" x="123.7" y="342.6" font-family="Calibri" font-size="8" text-anchor="end">AP001094.3</text>
<text xml:space="preserve" x="123.7" y="350.6" font-family="Calibri" font-size="8" text-anchor="end">LINC02260</text>
<text xml:space="preserve" x="123.7" y="358.6" font-family="Calibri" font-size="8" text-anchor="end">LINC00616</text>
<text xml:space="preserve" x="134.7" y="331.6" font-family="Calibri" font-size="8" transform="rotate(270 134.7 331.6)">c1</text>
<text xml:space="preserve" x="142.7" y="331.6" font-family="Calibri" font-size="8" transform="rotate(270 142.7 331.6)">c2</text>
<text xml:space="preserve" x="150.7" y="331.6" font-family="Calibri" font-size="8" transform="rotate(270 150.7 331.6)">c3</text>
<text xml:space="preserve" x="158.7" y="331.6" font-family="Calibri" font-size="8" transform="rotate(270 158.7 331.6)">c4</text>
<text xml:space="preserve" x="176.7" y="331.6" font-family="Calibri" font-size="8" transform="rotate(270 176.7 331.6)">c1_mean</text>
<text xml:space="preserve" x="184.7" y="331.6" font-family="Calibri" font-size="8" transform="rotate(270 184.7 331.6)">c2_mean</text>
<text xml:space="preserve" x="192.7" y="331.6" font-family="Calibri" font-size="8" transform="rotate(270 192.7 331.6)">c3_mean</text>
<text xml:space="preserve" x="200.7" y="331.6" font-family="Calibri" font-size="8" transform="rotate(270 200.7 331.6)">c4_mean</text>
<text xml:space="preserve" x="218.7" y="331.6" font-family="Calibri" font-size="8" transform="rotate(270 218.7 331.6)">transcription_factor</text>
<text xml:space="preserve" x="226.7" y="331.6" font-family="Calibri" font-size="8" transform="rotate(270 226.7 331.6)">transmembrane_signal_receptor</text>
<text xml:space="preserve" x="234.7" y="331.6" font-family="Calibri" font-size="8" transform="rotate(270 234.7 331.6)">growth_factor</text>
<text xml:space="preserve" x="242.7" y="331.6" font-family="Calibri" font-size="8" transform="rotate(270 242.7 331.6)">peptide_hormone</text>
<text xml:space="preserve" x="250.7" y="331.6" font-family="Calibri" font-size="8" transform="rotate(270 250.7 331.6)">cytoskeletal_protein</text>
<text xml:space="preserve" x="258.7" y="331.6" font-family="Calibri" font-size="8" transform="rotate(270 258.7 331.6)">ion_channel</text>
<text xml:space="preserve" x="266.7" y="331.6" font-family="Calibri" font-size="8" transform="rotate(270 266.7 331.6)">integrin</text>
<text xml:space="preserve" x="274.7" y="331.6" font-family="Calibri" font-size="8" transform="rotate(270 274.7 331.6)">extracellular_matrix_protein</text>
<polygon points="127.7,335.6 135.7,335.6 135.7,343.6 127.7,343.6" fill="rgb(0,205,0)"/><text xml:space="preserve" x="131.7" y="342.433" font-family="Calibri" font-size="7.5" fill="rgb(255,255,255)" text-anchor="middle">1</text>
<polygon points="135.7,335.6 143.7,335.6 143.7,343.6 135.7,343.6" fill="rgb(0,205,0)"/><text xml:space="preserve" x="139.7" y="342.433" font-family="Calibri" font-size="7.5" fill="rgb(255,255,255)" text-anchor="middle">1</text>
<polygon points="143.7,335.6 151.7,335.6 151.7,343.6 143.7,343.6" fill="rgb(205,0,0)"/><text xml:space="preserve" x="147.7" y="342.433" font-family="Calibri" font-size="7.5" fill="rgb(255,255,255)" text-anchor="middle">5</text>
<polygon points="151.7,335.6 159.7,335.6 159.7,343.6 151.7,343.6" fill="rgb(0,205,0)"/><text xml:space="preserve" x="155.7" y="342.433" font-family="Calibri" font-size="7.5" fill="rgb(255,255,255)" text-anchor="middle">1</text>
<polygon points="169.7,335.6 177.7,335.6 177.7,343.6 169.7,343.6" fill="rgb(0,27,135)"/>
<polygon points="177.7,335.6 185.7,335.6 185.7,343.6 177.7,343.6" fill="rgb(0,27,135)"/>
<polygon points="185.7,335.6 193.7,335.6 193.7,343.6 185.7,343.6" fill="rgb(22,116,140)"/>
<polygon points="193.7,335.6 201.7,335.6 201.7,343.6 193.7,343.6" fill="rgb(1,34,135)"/>
<polygon points="211.7,335.6 219.7,335.6 219.7,343.6 211.7,343.6" fill="rgb(255,255,255)"/>
<polygon points="219.7,335.6 227.7,335.6 227.7,343.6 219.7,343.6" fill="rgb(255,255,255)"/>
<polygon points="227.7,335.6 235.7,335.6 235.7,343.6 227.7,343.6" fill="rgb(255,255,255)"/>
<polygon points="235.7,335.6 243.7,335.6 243.7,343.6 235.7,343.6" fill="rgb(255,255,255)"/>
<polygon points="243.7,335.6 251.7,335.6 251.7,343.6 243.7,343.6" fill="rgb(255,255,255)"/>
<polygon points="251.7,335.6 259.7,335.6 259.7,343.6 251.7,343.6" fill="rgb(255,255,255)"/>
<polygon points="259.7,335.6 267.7,335.6 267.7,343.6 259.7,343.6" fill="rgb(255,255,255)"/>
<polygon points="267.7,335.6 275.7,335.6 275.7,343.6 267.7,343.6" fill="rgb(255,255,255)"/>
<polygon points="127.7,343.6 135.7,343.6 135.7,351.6 127.7,351.6" fill="rgb(0,205,0)"/><text xml:space="preserve" x="131.7" y="350.433" font-family="Calibri" font-size="7.5" fill="rgb(255,255,255)" text-anchor="middle">1</text>
<polygon points="135.7,343.6 143.7,343.6 143.7,351.6 135.7,351.6" fill="rgb(0,205,0)"/><text xml:space="preserve" x="139.7" y="350.433" font-family="Calibri" font-size="7.5" fill="rgb(255,255,255)" text-anchor="middle">1</text>
<polygon points="143.7,343.6 151.7,343.6 151.7,351.6 143.7,351.6" fill="rgb(205,0,0)"/><text xml:space="preserve" x="147.7" y="350.433" font-family="Calibri" font-size="7.5" fill="rgb(255,255,255)" text-anchor="middle">5</text>
<polygon points="151.7,343.6 159.7,343.6 159.7,351.6 151.7,351.6" fill="rgb(0,205,0)"/><text xml:space="preserve" x="155.7" y="350.433" font-family="Calibri" font-size="7.5" fill="rgb(255,255,255)" text-anchor="middle">1</text>
<polygon points="169.7,343.6 177.7,343.6 177.7,351.6 169.7,351.6" fill="rgb(0,27,135)"/>
<polygon points="177.7,343.6 185.7,343.6 185.7,351.6 177.7,351.6" fill="rgb(7,55,136)"/>
<polygon points="185.7,343.6 193.7,343.6 193.7,351.6 185.7,351.6" fill="rgb(28,138,141)"/>
<polygon points="193.7,343.6 201.7,343.6 201.7,351.6 193.7,351.6" fill="rgb(1,33,135)"/>
<polygon points="211.7,343.6 219.7,343.6 219.7,351.6 211.7,351.6" fill="rgb(255,255,255)"/>
<polygon points="219.7,343.6 227.7,343.6 227.7,351.6 219.7,351.6" fill="rgb(255,255,255)"/>
<polygon points="227.7,343.6 235.7,343.6 235.7,351.6 227.7,351.6" fill="rgb(255,255,255)"/>
<polygon points="235.7,343.6 243.7,343.6 243.7,351.6 235.7,351.6" fill="rgb(255,255,255)"/>
<polygon points="243.7,343.6 251.7,343.6 251.7,351.6 243.7,351.6" fill="rgb(255,255,255)"/>
<polygon points="251.7,343.6 259.7,343.6 259.7,351.6 251.7,351.6" fill="rgb(255,255,255)"/>
<polygon points="259.7,343.6 267.7,343.6 267.7,351.6 259.7,351.6" fill="rgb(255,255,255)"/>
<polygon points="267.7,343.6 275.7,343.6 275.7,351.6 267.7,351.6" fill="rgb(255,255,255)"/>
<polygon points="127.7,351.6 135.7,351.6 135.7,359.6 127.7,359.6" fill="rgb(0,205,0)"/><text xml:space="preserve" x="131.7" y="358.433" font-family="Calibri" font-size="7.5" fill="rgb(255,255,255)" text-anchor="middle">1</text>
<polygon points="135.7,351.6 143.7,351.6 143.7,359.6 135.7,359.6" fill="rgb(0,205,0)"/><text xml:space="preserve" x="139.7" y="358.433" font-family="Calibri" font-size="7.5" fill="rgb(255,255,255)" text-anchor="middle">1</text>
<polygon points="143.7,351.6 151.7,351.6 151.7,359.6 143.7,359.6" fill="rgb(205,0,0)"/><text xml:space="preserve" x="147.7" y="358.433" font-family="Calibri" font-size="7.5" fill="rgb(255,255,255)" text-anchor="middle">5</text>
<polygon points="151.7,351.6 159.7,351.6 159.7,359.6 151.7,359.6" fill="rgb(0,205,0)"/><text xml:space="preserve" x="155.7" y="358.433" font-family="Calibri" font-size="7.5" fill="rgb(255,255,255)" text-anchor="middle">1</text>
<polygon points="169.7,351.6 177.7,351.6 177.7,359.6 169.7,359.6" fill="rgb(3,41,135)"/>
<polygon points="177.7,351.6 185.7,351.6 185.7,359.6 177.7,359.6" fill="rgb(0,27,135)"/>
<polygon points="185.7,351.6 193.7,351.6 193.7,359.6 185.7,359.6" fill="rgb(33,158,142)"/>
<polygon points="193.7,351.6 201.7,351.6 201.7,359.6 193.7,359.6" fill="rgb(9,62,137)"/>
<polygon points="211.7,351.6 219.7,351.6 219.7,359.6 211.7,359.6" fill="rgb(255,255,255)"/>
<polygon points="219.7,351.6 227.7,351.6 227.7,359.6 219.7,359.6" fill="rgb(255,255,255)"/>
<polygon points="227.7,351.6 235.7,351.6 235.7,359.6 227.7,359.6" fill="rgb(255,255,255)"/>
<polygon points="235.7,351.6 243.7,351.6 243.7,359.6 235.7,359.6" fill="rgb(255,255,255)"/>
<polygon points="243.7,351.6 251.7,351.6 251.7,359.6 243.7,359.6" fill="rgb(255,255,255)"/>
<polygon points="251.7,351.6 259.7,351.6 259.7,359.6 251.7,359.6" fill="rgb(255,255,255)"/>
<polygon points="259.7,351.6 267.7,351.6 267.7,359.6 259.7,359.6" fill="rgb(255,255,255)"/>
<polygon points="267.7,351.6 275.7,351.6 275.7,359.6 267.7,359.6" fill="rgb(255,255,255)"/>
<polygon points="127.7,335.6 159.7,335.6 159.7,359.6 127.7,359.6" fill="none" stroke="black" stroke-width="1"/>
<polygon points="169.7,335.6 201.7,335.6 201.7,359.6 169.7,359.6" fill="none" stroke="black" stroke-width="1"/>
<polygon points="211.7,335.6 275.7,335.6 275.7,359.6 211.7,359.6" fill="none" stroke="black" stroke-width="1"/>
<text xml:space="preserve" x="147.85" y="392.6" font-family="Calibri" font-size="8" text-anchor="middle">ClusterAssignment</text>
<polygon points="97.85,399.6 117.85,399.6 117.85,419.6 97.85,419.6" fill="rgb(0,205,0)"/><polygon points="97.85,399.6 117.85,399.6 117.85,419.6 97.85,419.6" fill="none" stroke="black" stroke-width="1"/><text xml:space="preserve" x="107.85" y="412.433" font-family="Calibri" font-size="7.5" fill="rgb(255,255,255)" text-anchor="middle">1.0</text>
<polygon points="117.85,399.6 137.85,399.6 137.85,419.6 117.85,419.6" fill="rgb(127,230,0)"/><polygon points="117.85,399.6 137.85,399.6 137.85,419.6 117.85,419.6" fill="none" stroke="black" stroke-width="1"/><text xml:space="preserve" x="127.85" y="412.433" font-family="Calibri" font-size="7.5" fill="rgb(0,0,0)" text-anchor="middle">2.0</text>
<polygon points="137.85,399.6 157.85,399.6 157.85,419.6 137.85,419.6" fill="rgb(255,255,0)"/><polygon points="137.85,399.6 157.85,399.6 157.85,419.6 137.85,419.6" fill="none" stroke="black" stroke-width="1"/><text xml:space="preserve" x="147.85" y="412.433" font-family="Calibri" font-size="7.5" fill="rgb(0,0,0)" text-anchor="middle">3.0</text>
<polygon points="157.85,399.6 177.85,399.6 177.85,419.6 157.85,419.6" fill="rgb(230,127,0)"/><polygon points="157.85,399.6 177.85,399.6 177.85,419.6 157.85,419.6" fill="none" stroke="black" stroke-width="1"/><text xml:space="preserve" x="167.85" y="412.433" font-family="Calibri" font-size="7.5" fill="rgb(0,0,0)" text-anchor="middle">4.0</text>
<polygon points="177.85,399.6 197.85,399.6 197.85,419.6 177.85,419.6" fill="rgb(205,0,0)"/><polygon points="177.85,399.6 197.85,399.6 197.85,419.6 177.85,419.6" fill="none" stroke="black" stroke-width="1"/><text xml:space="preserve" x="187.85" y="412.433" font-family="Calibri" font-size="7.5" fill="rgb(255,255,255)" text-anchor="middle">5.0</text>
<text xml:space="preserve" x="147.85" y="452.6" font-family="Calibri" font-size="8" text-anchor="middle">Expression</text>
<polygon points="97.85,459.6 117.85,459.6 117.85,479.6 97.85,479.6" fill="rgb(0,27,135)"/><polygon points="97.85,459.6 117.85,459.6 117.85,479.6 97.85,479.6" fill="none" stroke="black" stroke-width="1"/><text xml:space="preserve" x="107.85" y="472.433" font-family="Calibri" font-size="7.5" fill="rgb(255,255,255)" text-anchor="middle">0.0</text>
<polygon points="117.85,459.6 137.85,459.6 137.85,479.6 117.85,479.6" fill="rgb(24,123,140)"/><polygon points="117.85,459.6 137.85,459.6 137.85,479.6 117.85,479.6" fill="none" stroke="black" stroke-width="1"/><text xml:space="preserve" x="127.85" y="472.433" font-family="Calibri" font-size="7.5" fill="rgb(255,255,255)" text-anchor="middle">0.8</text>
<polygon points="137.85,459.6 157.85,459.6 157.85,479.6 137.85,479.6" fill="rgb(49,219,146)"/><polygon points="137.85,459.6 157.85,459.6 157.85,479.6 137.85,479.6" fill="none" stroke="black" stroke-width="1"/><text xml:space="preserve" x="147.85" y="472.433" font-family="Calibri" font-size="7.5" fill="rgb(0,0,0)" text-anchor="middle">1.5</text>
<polygon points="157.85,459.6 177.85,459.6 177.85,479.6 157.85,479.6" fill="rgb(150,206,73)"/><polygon points="157.85,459.6 177.85,459.6 177.85,479.6 157.85,479.6" fill="none" stroke="black" stroke-width="1"/><text xml:space="preserve" x="167.85" y="472.433" font-family="Calibri" font-size="7.5" fill="rgb(0,0,0)" text-anchor="middle">2.2</text>
<polygon points="177.85,459.6 197.85,459.6 197.85,479.6 177.85,479.6" fill="rgb(252,194,1)"/><polygon points="177.85,459.6 197.85,459.6 197.85,479.6 177.85,479.6" fill="none" stroke="black" stroke-width="1"/><text xml:space="preserve" x="187.85" y="472.433" font-family="Calibri" font-size="7.5" fill="rgb(0,0,0)" text-anchor="middle">3.0</text>
<text xml:space="preserve" x="147.85" y="512.6" font-family="Calibri" font-size="8" text-anchor="middle">PANTHERclass</text>
<polygon points="97.85,519.6 117.85,519.6 117.85,539.6 97.85,539.6" fill="rgb(255,255,255)"/><polygon points="97.85,519.6 117.85,519.6 117.85,539.6 97.85,539.6" fill="none" stroke="black" stroke-width="1"/><text xml:space="preserve" x="107.85" y="532.433" font-family="Calibri" font-size="7.5" fill="rgb(0,0,0)" text-anchor="middle">0.0</text>
<polygon points="117.85,519.6 137.85,519.6 137.85,539.6 117.85,539.6" fill="rgb(242,191,242)"/><polygon points="117.85,519.6 137.85,519.6 137.85,539.6 117.85,539.6" fill="none" stroke="black" stroke-width="1"/><text xml:space="preserve" x="127.85" y="532.433" font-family="Calibri" font-size="7.5" fill="rgb(0,0,0)" text-anchor="middle">0.2</text>
<polygon points="137.85,519.6 157.85,519.6 157.85,539.6 137.85,539.6" fill="rgb(230,127,230)"/><polygon points="137.85,519.6 157.85,519.6 157.85,539.6 137.85,539.6" fill="none" stroke="black" stroke-width="1"/><text xml:space="preserve" x="147.85" y="532.433" font-family="Calibri" font-size="7.5" fill="rgb(0,0,0)" text-anchor="middle">0.5</text>
<polygon points="157.85,519.6 177.85,519.6 177.85,539.6 157.85,539.6" fill="rgb(217,63,217)"/><polygon points="157.85,519.6 177.85,519.6 177.85,539.6 157.85,539.6" fill="none" stroke="black" stroke-width="1"/><text xml:space="preserve" x="167.85" y="532.433" font-family="Calibri" font-size="7.5" fill="rgb(255,255,255)" text-anchor="middle">0.8</text>
<polygon points="177.85,519.6 197.85,519.6 197.85,539.6 177.85,539.6" fill="rgb(205,0,205)"/><polygon points="177.85,519.6 197.85,519.6 197.85,539.6 177.85,539.6" fill="none" stroke="black" stroke-width="1"/><text xml:space="preserve" x="187.85" y="532.433" font-family="Calibri" font-size="7.5" fill="rgb(255,255,255)" text-anchor="middle">1.0</text>
</svg>
