<?xml version="1.0" standalone="no"?><!DOCTYPE svg PUBLIC "-//W3C//DTD SVG 1.1//EN" "http://www.w3.org/Graphics/SVG/1.1/DTD/svg11.dtd">
<svg width="296.6" height="591.6" version="1.1" xmlns="http://www.w3.org/2000/svg">
<text xml:space="preserve" x="124.6" y="342.6" font-family="Calibri" font-size="8" text-anchor="end">AC023794.4</text>
<text xml:space="preserve" x="124.6" y="350.6" font-family="Calibri" font-size="8" text-anchor="end">ZNF169</text>
<text xml:space="preserve" x="124.6" y="358.6" font-family="Calibri" font-size="8" text-anchor="end">AC093673.2</text>
<text xml:space="preserve" x="124.6" y="366.6" font-family="Calibri" font-size="8" text-anchor="end">ZNF606</text>
<text xml:space="preserve" x="124.6" y="374.6" font-family="Calibri" font-size="8" text-anchor="end">AC040169.1</text>
<text xml:space="preserve" x="124.6" y="382.6" font-family="Calibri" font-size="8" text-anchor="end">AC026304.1</text>
<text xml:space="preserve" x="124.6" y="390.6" font-family="Calibri" font-size="8" text-anchor="end">AC026979.2</text>
<text xml:space="preserve" x="135.6" y="331.6" font-family="Calibri" font-size="8" transform="rotate(270 135.6 331.6)">c1</text>
<text xml:space="preserve" x="143.6" y="331.6" font-family="Calibri" font-size="8" transform="rotate(270 143.6 331.6)">c2</text>
<text xml:space="preserve" x="151.6" y="331.6" font-family="Calibri" font-size="8" transform="rotate(270 151.6 331.6)">c3</text>
<text xml:space="preserve" x="159.6" y="331.6" font-family="Calibri" font-size="8" transform="rotate(270 159.6 331.6)">c4</text>
<text xml:space="preserve" x="177.6" y="331.6" font-family="Calibri" font-size="8" transform="rotate(270 177.6 331.6)">c1_mean</text>
<text xml:space="preserve" x="185.6" y="331.6" font-family="Calibri" font-size="8" transform="rotate(270 185.6 331.6)">c2_mean</text>
<text xml:space="preserve" x="193.6" y="331.6" font-family="Calibri" font-size="8" transform="rotate(270 193.6 331.6)">c3_mean</text>
<text xml:space="preserve" x="201.6" y="331.6" font-family="Calibri" font-size="8" transform="rotate(270 201.6 331.6)">c4_mean</text>
<text xml:space="preserve" x="219.6" y="331.6" font-family="Calibri" font-size="8" transform="rotate(270 219.6 331.6)">transcription_factor</text>
<text xml:space="preserve" x="227.6" y="331.6" font-family="Calibri" font-size="8" transform="rotate(270 227.6 331.6)">transmembrane_signal_receptor</text>
<text xml:space="preserve" x="235.6" y="331.6" font-family="Calibri" font-size="8" transform="rotate(270 235.6 331.6)">growth_factor</text>
<text xml:space="preserve" x="243.6" y="331.6" font-family="Calibri" font-size="8" transform="rotate(270 243.6 331.6)">peptide_hormone</text>
<text xml:space="preserve" x="251.6" y="331.6" font-family="Calibri" font-size="8" transform="rotate(270 251.6 331.6)">cytoskeletal_protein</text>
<text xml:space="preserve" x="259.6" y="331.6" font-family="Calibri" font-size="8" transform="rotate(270 259.6 331.6)">ion_channel</text>
<text xml:space="preserve" x="267.6" y="331.6" font-family="Calibri" font-size="8" transform="rotate(270 267.6 331.6)">integrin</text>
<text xml:space="preserve" x="275.6" y="331.6" font-family="Calibri" font-size="8" transform="rotate(270 275.6 331.6)">extracellular_matrix_protein</text>
<polygon points="128.6,335.6 136.6,335.6 136.6,343.6 128.6,343.6" fill="rgb(230,127,0)"/><text xml:space="preserve" x="132.6" y="342.433" font-family="Calibri" font-size="7.5" fill="rgb(0,0,0)" text-anchor="middle">4</text>
<polygon points="136.6,335.6 144.6,335.6 144.6,343.6 136.6,343.6" fill="rgb(255,255,0)"/><text xml:space="preserve" x="140.6" y="342.433" font-family="Calibri" font-size="7.5" fill="rgb(0,0,0)" text-anchor="middle">3</text>
<polygon points="144.6,335.6 152.6,335.6 152.6,343.6 144.6,343.6" fill="rgb(127,230,0)"/><text xml:space="preserve" x="148.6" y="342.433" font-family="Calibri" font-size="7.5" fill="rgb(0,0,0)" text-anchor="middle">2</text>
<polygon points="152.6,335.6 160.6,335.6 160.6,343.6 152.6,343.6" fill="rgb(127,230,0)"/><text xml:space="preserve" x="156.6" y="342.433" font-family="Calibri" font-size="7.5" fill="rgb(0,0,0)" text-anchor="middle">2</text>
<polygon points="170.6,335.6 178.6,335.6 178.6,343.6 170.6,343.6" fill="rgb(43,195,144)"/>
<polygon points="178.6,335.6 186.6,335.6 186.6,343.6 178.6,343.6" fill="rgb(26,130,140)"/>
<polygon points="186.6,335.6 194.6,335.6 194.6,343.6 186.6,343.6" fill="rgb(16,89,138)"/>
<polygon points="194.6,335.6 202.6,335.6 202.6,343.6 194.6,343.6" fill="rgb(12,75,137)"/>
<polygon points="212.6,335.6 220.6,335.6 220.6,343.6 212.6,343.6" fill="rgb(255,255,255)"/>
<polygon points="220.6,335.6 228.6,335.6 228.6,343.6 220.6,343.6" fill="rgb(255,255,255)"/>
<polygon points="228.6,335.6 236.6,335.6 236.6,343.6 228.6,343.6" fill="rgb(255,255,255)"/>
<polygon points="236.6,335.6 244.6,335.6 244.6,343.6 236.6,343.6" fill="rgb(255,255,255)"/>
<polygon points="244.6,335.6 252.6,335.6 252.6,343.6 244.6,343.6" fill="rgb(255,255,255)"/>
<polygon points="252.6,335.6 260.6,335.6 260.6,343.6 252.6,343.6" fill="rgb(255,255,255)"/>
<polygon points="260.6,335.6 268.6,335.6 268.6,343.6 260.6,343.6" fill="rgb(255,255,255)"/>
<polygon points="268.6,335.6 276.6,335.6 276.6,343.6 268.6,343.6" fill="rgb(255,255,255)"/>
<polygon points="128.6,343.6 136.6,343.6 136.6,351.6 128.6,351.6" fill="rgb(230,127,0)"/><text xml:space="preserve" x="132.6" y="350.433" font-family="Calibri" font-size="7.5" fill="rgb(0,0,0)" text-anchor="middle">4</text>
<polygon points="136.6,343.6 144.6,343.6 144.6,351.6 136.6,351.6" fill="rgb(255,255,0)"/><text xml:space="preserve" x="140.6" y="350.433" font-family="Calibri" font-size="7.5" fill="rgb(0,0,0)" text-anchor="middle">3</text>
<polygon points="144.6,343.6 152.6,343.6 152.6,351.6 144.6,351.6" fill="rgb(127,230,0)"/><text xml:space="preserve" x="148.6" y="350.433" font-family="Calibri" font-size="7.5" fill="rgb(0,0,0)" text-anchor="middle">2</text>
<polygon points="152.6,343.6 160.6,343.6 160.6,351.6 152.6,351.6" fill="rgb(127,230,0)"/><text xml:space="preserve" x="156.6" y="350.433" font-family="Calibri" font-size="7.5" fill="rgb(0,0,0)" text-anchor="middle">2</text>
<polygon points="170.6,343.6 178.6,343.6 178.6,351.6 170.6,351.6" fill="rgb(39,181,143)"/>
<polygon points="178.6,343.6 186.6,343.6 186.6,351.6 178.6,351.6" fill="rgb(26,131,141)"/>
<polygon points="186.6,343.6 194.6,343.6 194.6,351.6 186.6,351.6" fill="rgb(10,69,137)"/>
<polygon points="194.6,343.6 202.6,343.6 202.6,351.6 194.6,351.6" fill="rgb(9,62,137)"/>
<polygon points="212.6,343.6 220.6,343.6 220.6,351.6 212.6,351.6" fill="rgb(205,0,205)"/>
<polygon points="220.6,343.6 228.6,343.6 228.6,351.6 220.6,351.6" fill="rgb(255,255,255)"/>
<polygon points="228.6,343.6 236.6,343.6 236.6,351.6 228.6,351.6" fill="rgb(255,255,255)"/>
<polygon points="236.6,343.6 244.6,343.6 244.6,351.6 236.6,351.6" fill="rgb(255,255,255)"/>
<polygon points="244.6,343.6 252.6,343.6 252.6,351.6 244.6,351.6" fill="rgb(255,255,255)"/>
<polygon points="252.6,343.6 260.6,343.6 260.6,351.6 252.6,351.6" fill="rgb(255,255,255)"/>
<polygon points="260.6,343.6 268.6,343.6 268.6,351.6 260.6,351.6" fill="rgb(255,255,255)"/>
<polygon points="268.6,343.6 276.6,343.6 276.6,351.6 268.6,351.6" fill="rgb(255,255,255)"/>
<polygon points="128.6,351.6 136.6,351.6 136.6,359.6 128.6,359.6" fill="rgb(230,127,0)"/><text xml:space="preserve" x="132.6" y="358.433" font-family="Calibri" font-size="7.5" fill="rgb(0,0,0)" text-anchor="middle">4</text>
<polygon points="136.6,351.6 144.6,351.6 144.6,359.6 136.6,359.6" fill="rgb(255,255,0)"/><text xml:space="preserve" x="140.6" y="358.433" font-family="Calibri" font-size="7.5" fill="rgb(0,0,0)" text-anchor="middle">3</text>
<polygon points="144.6,351.6 152.6,351.6 152.6,359.6 144.6,359.6" fill="rgb(127,230,0)"/><text xml:space="preserve" x="148.6" y="358.433" font-family="Calibri" font-size="7.5" fill="rgb(0,0,0)" text-anchor="middle">2</text>
<polygon points="152.6,351.6 160.6,351.6 160.6,359.6 152.6,359.6" fill="rgb(127,230,0)"/><text xml:space="preserve" x="156.6" y="358.433" font-family="Calibri" font-size="7.5" fill="rgb(0,0,0)" text-anchor="middle">2</text>
<polygon points="170.6,351.6 178.6,351.6 178.6,359.6 170.6,359.6" fill="rgb(39,183,143)"/>
<polygon points="178.6,351.6 186.6,351.6 186.6,359.6 178.6,359.6" fill="rgb(30,146,141)"/>
<polygon points="186.6,351.6 194.6,351.6 194.6,359.6 186.6,359.6" fill="rgb(13,80,138)"/>
<polygon points="194.6,351.6 202.6,351.6 202.6,359.6 194.6,359.6" fill="rgb(11,70,137)"/>
<polygon points="212.6,351.6 220.6,351.6 220.6,359.6 212.6,359.6" fill="rgb(255,255,255)"/>
<polygon points="220.6,351.6 228.6,351.6 228.6,359.6 220.6,359.6" fill="rgb(255,255,255)"/>
<polygon points="228.6,351.6 236.6,351.6 236.6,359.6 228.6,359.6" fill="rgb(255,255,255)"/>
<polygon points="236.6,351.6 244.6,351.6 244.6,359.6 236.6,359.6" fill="rgb(255,255,255)"/>
<polygon points="244.6,351.6 252.6,351.6 252.6,359.6 244.6,359.6" fill="rgb(255,255,255)"/>
<polygon points="252.6,351.6 260.6,351.6 260.6,359.6 252.6,359.6" fill="rgb(255,255,255)"/>
<polygon points="260.6,351.6 268.6,351.6 268.6,359.6 260.6,359.6" fill="rgb(255,255,255)"/>
<polygon points="268.6,351.6 276.6,351.6 276.6,359.6 268.6,359.6" fill="rgb(255,255,255)"/>
<polygon points="128.6,359.6 136.6,359.6 136.6,367.6 128.6,367.6" fill="rgb(230,127,0)"/><text xml:space="preserve" x="132.6" y="366.433" font-family="Calibri" font-size="7.5" fill="rgb(0,0,0)" text-anchor="middle">4</text>
<polygon points="136.6,359.6 144.6,359.6 144.6,367.6 136.6,367.6" fill="rgb(255,255,0)"/><text xml:space="preserve" x="140.6" y="366.433" font-family="Calibri" font-size="7.5" fill="rgb(0,0,0)" text-anchor="middle">3</text>
<polygon points="144.6,359.6 152.6,359.6 152.6,367.6 144.6,367.6" fill="rgb(127,230,0)"/><text xml:space="preserve" x="148.6" y="366.433" font-family="Calibri" font-size="7.5" fill="rgb(0,0,0)" text-anchor="middle">2</text>
<polygon points="152.6,359.6 160.6,359.6 160.6,367.6 152.6,367.6" fill="rgb(127,230,0)"/><text xml:space="preserve" x="156.6" y="366.433" font-family="Calibri" font-size="7.5" fill="rgb(0,0,0)" text-anchor="middle">2</text>
<polygon points="170.6,359.6 178.6,359.6 178.6,367.6 170.6,367.6" fill="rgb(40,187,144)"/>
<polygon points="178.6,359.6 186.6,359.6 186.6,367.6 178.6,367.6" fill="rgb(25,126,140)"/>
<polygon points="186.6,359.6 194.6,359.6 194.6,367.6 186.6,367.6" fill="rgb(10,69,137)"/>
<polygon points="194.6,359.6 202.6,359.6 202.6,367.6 194.6,367.6" fill="rgb(12,74,137)"/>
<polygon points="212.6,359.6 220.6,359.6 220.6,367.6 212.6,367.6" fill="rgb(205,0,205)"/>
<polygon points="220.6,359.6 228.6,359.6 228.6,367.6 220.6,367.6" fill="rgb(255,255,255)"/>
<polygon points="228.6,359.6 236.6,359.6 236.6,367.6 228.6,367.6" fill="rgb(255,255,255)"/>
<polygon points="236.6,359.6 244.6,359.6 244.6,367.6 236.6,367.6" fill="rgb(255,255,255)"/>
<polygon points="244.6,359.6 252.6,359.6 252.6,367.6 244.6,367.6" fill="rgb(255,255,255)"/>
<polygon points="252.6,359.6 260.6,359.6 260.6,367.6 252.6,367.6" fill="rgb(255,255,255)"/>
<polygon points="260.6,359.6 268.6,359.6 268.6,367.6 260.6,367.6" fill="rgb(255,255,255)"/>
<polygon points="268.6,359.6 276.6,359.6 276.6,367.6 268.6,367.6" fill="rgb(255,255,255)"/>
<polygon points="128.6,367.6 136.6,367.6 136.6,375.6 128.6,375.6" fill="rgb(230,127,0)"/><text xml:space="preserve" x="132.6" y="374.433" font-family="Calibri" font-size="7.5" fill="rgb(0,0,0)" text-anchor="middle">4</text>
<polygon points="136.6,367.6 144.6,367.6 144.6,375.6 136.6,375.6" fill="rgb(255,255,0)"/><text xml:space="preserve" x="140.6" y="374.433" font-family="Calibri" font-size="7.5" fill="rgb(0,0,0)" text-anchor="middle">3</text>
<polygon points="144.6,367.6 152.6,367.6 152.6,375.6 144.6,375.6" fill="rgb(127,230,0)"/><text xml:space="preserve" x="148.6" y="374.433" font-family="Calibri" font-size="7.5" fill="rgb(0,0,0)" text-anchor="middle">2</text>
<polygon points="152.6,367.6 160.6,367.6 160.6,375.6 152.6,375.6" fill="rgb(127,230,0)"/><text xml:space="preserve" x="156.6" y="374.433" font-family="Calibri" font-size="7.5" fill="rgb(0,0,0)" text-anchor="middle">2</text>
<polygon points="170.6,367.6 178.6,367.6 178.6,375.6 170.6,375.6" fill="rgb(41,189,144)"/>
<polygon points="178.6,367.6 186.6,367.6 186.6,375.6 178.6,375.6" fill="rgb(26,129,140)"/>
<polygon points="186.6,367.6 194.6,367.6 194.6,375.6 186.6,375.6" fill="rgb(14,83,138)"/>
<polygon points="194.6,367.6 202.6,367.6 202.6,375.6 194.6,375.6" fill="rgb(11,73,137)"/>
<polygon points="212.6,367.6 220.6,367.6 220.6,375.6 212.6,375.6" fill="rgb(255,255,255)"/>
<polygon points="220.6,367.6 228.6,367.6 228.6,375.6 220.6,375.6" fill="rgb(255,255,255)"/>
<polygon points="228.6,367.6 236.6,367.6 236.6,375.6 228.6,375.6" fill="rgb(255,255,255)"/>
<polygon points="236.6,367.6 244.6,367.6 244.6,375.6 236.6,375.6" fill="rgb(255,255,255)"/>
<polygon points="244.6,367.6 252.6,367.6 252.6,375.6 244.6,375.6" fill="rgb(255,255,255)"/>
<polygon points="252.6,367.6 260.6,367.6 260.6,375.6 252.6,375.6" fill="rgb(255,255,255)"/>
<polygon points="260.6,367.6 268.6,367.6 268.6,375.6 260.6,375.6" fill="rgb(255,255,255)"/>
<polygon points="268.6,367.6 276.6,367.6 276.6,375.6 268.6,375.6" fill="rgb(255,255,255)"/>
<polygon points="128.6,375.6 136.6,375.6 136.6,383.6 128.6,383.6" fill="rgb(230,127,0)"/><text xml:space="preserve" x="132.6" y="382.433" font-family="Calibri" font-size="7.5" fill="rgb(0,0,0)" text-anchor="middle">4</text>
<polygon points="136.6,375.6 144.6,375.6 144.6,383.6 136.6,383.6" fill="rgb(255,255,0)"/><text xml:space="preserve" x="140.6" y="382.433" font-family="Calibri" font-size="7.5" fill="rgb(0,0,0)" text-anchor="middle">3</text>
<polygon points="144.6,375.6 152.6,375.6 152.6,383.6 144.6,383.6" fill="rgb(127,230,0)"/><text xml:space="preserve" x="148.6" y="382.433" font-family="Calibri" font-size="7.5" fill="rgb(0,0,0)" text-anchor="middle">2</text>
<polygon points="152.6,375.6 160.6,375.6 160.6,383.6 152.6,383.6" fill="rgb(127,230,0)"/><text xml:space="preserve" x="156.6" y="382.433" font-family="Calibri" font-size="7.5" fill="rgb(0,0,0)" text-anchor="middle">2</text>
<polygon points="170.6,375.6 178.6,375.6 178.6,383.6 170.6,383.6" fill="rgb(41,188,144)"/>
<polygon points="178.6,375.6 186.6,375.6 186.6,383.6 178.6,383.6" fill="rgb(28,137,141)"/>
<polygon points="186.6,375.6 194.6,375.6 194.6,383.6 186.6,383.6" fill="rgb(11,73,137)"/>
<polygon points="194.6,375.6 202.6,375.6 202.6,383.6 194.6,383.6" fill="rgb(8,61,136)"/>
<polygon points="212.6,375.6 220.6,375.6 220.6,383.6 212.6,383.6" fill="rgb(255,255,255)"/>
<polygon points="220.6,375.6 228.6,375.6 228.6,383.6 220.6,383.6" fill="rgb(255,255,255)"/>
<polygon points="228.6,375.6 236.6,375.6 236.6,383.6 228.6,383.6" fill="rgb(255,255,255)"/>
<polygon points="236.6,375.6 244.6,375.6 244.6,383.6 236.6,383.6" fill="rgb(255,255,255)"/>
<polygon points="244.6,375.6 252.6,375.6 252.6,383.6 244.6,383.6" fill="rgb(255,255,255)"/>
<polygon points="252.6,375.6 260.6,375.6 260.6,383.6 252.6,383.6" fill="rgb(255,255,255)"/>
<polygon points="260.6,375.6 268.6,375.6 268.6,383.6 260.6,383.6" fill="rgb(255,255,255)"/>
<polygon points="268.6,375.6 276.6,375.6 276.6,383.6 268.6,383.6" fill="rgb(255,255,255)"/>
<polygon points="128.6,383.6 136.6,383.6 136.6,391.6 128.6,391.6" fill="rgb(230,127,0)"/><text xml:space="preserve" x="132.6" y="390.433" font-family="Calibri" font-size="7.5" fill="rgb(0,0,0)" text-anchor="middle">4</text>
<polygon points="136.6,383.6 144.6,383.6 144.6,391.6 136.6,391.6" fill="rgb(255,255,0)"/><text xml:space="preserve" x="140.6" y="390.433" font-family="Calibri" font-size="7.5" fill="rgb(0,0,0)" text-anchor="middle">3</text>
<polygon points="144.6,383.6 152.6,383.6 152.6,391.6 144.6,391.6" fill="rgb(127,230,0)"/><text xml:space="preserve" x="148.6" y="390.433" font-family="Calibri" font-size="7.5" fill="rgb(0,0,0)" text-anchor="middle">2</text>
<polygon points="152.6,383.6 160.6,383.6 160.6,391.6 152.6,391.6" fill="rgb(127,230,0)"/><text xml:space="preserve" x="156.6" y="390.433" font-family="Calibri" font-size="7.5" fill="rgb(0,0,0)" text-anchor="middle">2</text>
<polygon points="170.6,383.6 178.6,383.6 178.6,391.6 170.6,391.6" fill="rgb(40,184,144)"/>
<polygon points="178.6,383.6 186.6,383.6 186.6,391.6 178.6,391.6" fill="rgb(26,130,140)"/>
<polygon points="186.6,383.6 194.6,383.6 194.6,391.6 186.6,391.6" fill="rgb(9,64,137)"/>
<polygon points="194.6,383.6 202.6,383.6 202.6,391.6 194.6,391.6" fill="rgb(11,71,137)"/>
<polygon points="212.6,383.6 220.6,383.6 220.6,391.6 212.6,391.6" fill="rgb(255,255,255)"/>
<polygon points="220.6,383.6 228.6,383.6 228.6,391.6 220.6,391.6" fill="rgb(255,255,255)"/>
<polygon points="228.6,383.6 236.6,383.6 236.6,391.6 228.6,391.6" fill="rgb(255,255,255)"/>
<polygon points="236.6,383.6 244.6,383.6 244.6,391.6 236.6,391.6" fill="rgb(255,255,255)"/>
<polygon points="244.6,383.6 252.6,383.6 252.6,391.6 244.6,391.6" fill="rgb(255,255,255)"/>
<polygon points="252.6,383.6 260.6,383.6 260.6,391.6 252.6,391.6" fill="rgb(255,255,255)"/>
<polygon points="260.6,383.6 268.6,383.6 268.6,391.6 260.6,391.6" fill="rgb(255,255,255)"/>
<polygon points="268.6,383.6 276.6,383.6 276.6,391.6 268.6,391.6" fill="rgb(255,255,255)"/>
<polygon points="128.6,335.6 160.6,335.6 160.6,391.6 128.6,391.6" fill="none" stroke="black" stroke-width="1"/>
<polygon points="170.6,335.6 202.6,335.6 202.6,391.6 170.6,391.6" fill="none" stroke="black" stroke-width="1"/>
<polygon points="212.6,335.6 276.6,335.6 276.6,391.6 212.6,391.6" fill="none" stroke="black" stroke-width="1"/>
<text xml:space="preserve" x="148.3" y="424.6" font-family="Calibri" font-size="8" text-anchor="middle">ClusterAssignment</text>
<polygon points="98.3,431.6 118.3,431.6 118.3,451.6 98.3,451.6" fill="rgb(0,205,0)"/><polygon points="98.3,431.6 118.3,431.6 118.3,451.6 98.3,451.6" fill="none" stroke="black" stroke-width="1"/><text xml:space="preserve" x="108.3" y="444.433" font-family="Calibri" font-size="7.5" fill="rgb(255,255,255)" text-anchor="middle">1.0</text>
<polygon points="118.3,431.6 138.3,431.6 138.3,451.6 118.3,451.6" fill="rgb(127,230,0)"/><polygon points="118.3,431.6 138.3,431.6 138.3,451.6 118.3,451.6" fill="none" stroke="black" stroke-width="1"/><text xml:space="preserve" x="128.3" y="444.433" font-family="Calibri" font-size="7.5" fill="rgb(0,0,0)" text-anchor="middle">2.0</text>
<polygon points="138.3,431.6 158.3,431.6 158.3,451.6 138.3,451.6" fill="rgb(255,255,0)"/><polygon points="138.3,431.6 158.3,431.6 158.3,451.6 138.3,451.6" fill="none" stroke="black" stroke-width="1"/><text xml:space="preserve" x="148.3" y="444.433" font-family="Calibri" font-size="7.5" fill="rgb(0,0,0)" text-anchor="middle">3.0</text>
<polygon points="158.3,431.6 178.3,431.6 178.3,451.6 158.3,451.6" fill="rgb(230,127,0)"/><polygon points="158.3,431.6 178.3,431.6 178.3,451.6 158.3,451.6" fill="none" stroke="black" stroke-width="1"/><text xml:space="preserve" x="168.3" y="444.433" font-family="Calibri" font-size="7.5" fill="rgb(0,0,0)" text-anchor="middle">4.0</text>
<polygon points="178.3,431.6 198.3,431.6 198.3,451.6 178.3,451.6" fill="rgb(205,0,0)"/><polygon points="178.3,431.6 198.3,431.6 198.3,451.6 178.3,451.6" fill="none" stroke="black" stroke-width="1"/><text xml:space="preserve" x="188.3" y="444.433" font-family="Calibri" font-size="7.5" fill="rgb(255,255,255)" text-anchor="middle">5.0</text>
<text xml:space="preserve" x="148.3" y="484.6" font-family="Calibri" font-size="8" text-anchor="middle">Expression</text>
<polygon points="98.3,491.6 118.3,491.6 118.3,511.6 98.3,511.6" fill="rgb(0,27,135)"/><polygon points="98.3,491.6 118.3,491.6 118.3,511.6 98.3,511.6" fill="none" stroke="black" stroke-width="1"/><text xml:space="preserve" x="108.3" y="504.433" font-family="Calibri" font-size="7.5" fill="rgb(255,255,255)" text-anchor="middle">0.0</text>
<polygon points="118.3,491.6 138.3,491.6 138.3,511.6 118.3,511.6" fill="rgb(24,123,140)"/><polygon points="118.3,491.6 138.3,491.6 138.3,511.6 118.3,511.6" fill="none" stroke="black" stroke-width="1"/><text xml:space="preserve" x="128.3" y="504.433" font-family="Calibri" font-size="7.5" fill="rgb(255,255,255)" text-anchor="middle">0.8</text>
<polygon points="138.3,491.6 158.3,491.6 158.3,511.6 138.3,511.6" fill="rgb(49,219,146)"/><polygon points="138.3,491.6 158.3,491.6 158.3,511.6 138.3,511.6" fill="none" stroke="black" stroke-width="1"/><text xml:space="preserve" x="148.3" y="504.433" font-family="Calibri" font-size="7.5" fill="rgb(0,0,0)" text-anchor="middle">1.5</text>
<polygon points="158.3,491.6 178.3,491.6 178.3,511.6 158.3,511.6" fill="rgb(150,206,73)"/><polygon points="158.3,491.6 178.3,491.6 178.3,511.6 158.3,511.6" fill="none" stroke="black" stroke-width="1"/><text xml:space="preserve" x="168.3" y="504.433" font-family="Calibri" font-size="7.5" fill="rgb(0,0,0)" text-anchor="middle">2.2</text>
<polygon points="178.3,491.6 198.3,491.6 198.3,511.6 178.3,511.6" fill="rgb(252,194,1)"/><polygon points="178.3,491.6 198.3,491.6 198.3,511.6 178.3,511.6" fill="none" stroke="black" stroke-width="1"/><text xml:space="preserve" x="188.3" y="504.433" font-family="Calibri" font-size="7.5" fill="rgb(0,0,0)" text-anchor="middle">3.0</text>
<text xml:space="preserve" x="148.3" y="544.6" font-family="Calibri" font-size="8" text-anchor="middle">PANTHERclass</text>
<polygon points="98.3,551.6 118.3,551.6 118.3,571.6 98.3,571.6" fill="rgb(255,255,255)"/><polygon points="98.3,551.6 118.3,551.6 118.3,571.6 98.3,571.6" fill="none" stroke="black" stroke-width="1"/><text xml:space="preserve" x="108.3" y="564.433" font-family="Calibri" font-size="7.5" fill="rgb(0,0,0)" text-anchor="middle">0.0</text>
<polygon points="118.3,551.6 138.3,551.6 138.3,571.6 118.3,571.6" fill="rgb(242,191,242)"/><polygon points="118.3,551.6 138.3,551.6 138.3,571.6 118.3,571.6" fill="none" stroke="black" stroke-width="1"/><text xml:space="preserve" x="128.3" y="564.433" font-family="Calibri" font-size="7.5" fill="rgb(0,0,0)" text-anchor="middle">0.2</text>
<polygon points="138.3,551.6 158.3,551.6 158.3,571.6 138.3,571.6" fill="rgb(230,127,230)"/><polygon points="138.3,551.6 158.3,551.6 158.3,571.6 138.3,571.6" fill="none" stroke="black" stroke-width="1"/><text xml:space="preserve" x="148.3" y="564.433" font-family="Calibri" font-size="7.5" fill="rgb(0,0,0)" text-anchor="middle">0.5</text>
<polygon points="158.3,551.6 178.3,551.6 178.3,571.6 158.3,571.6" fill="rgb(217,63,217)"/><polygon points="158.3,551.6 178.3,551.6 178.3,571.6 158.3,571.6" fill="none" stroke="black" stroke-width="1"/><text xml:space="preserve" x="168.3" y="564.433" font-family="Calibri" font-size="7.5" fill="rgb(255,255,255)" text-anchor="middle">0.8</text>
<polygon points="178.3,551.6 198.3,551.6 198.3,571.6 178.3,571.6" fill="rgb(205,0,205)"/><polygon points="178.3,551.6 198.3,551.6 198.3,571.6 178.3,571.6" fill="none" stroke="black" stroke-width="1"/><text xml:space="preserve" x="188.3" y="564.433" font-family="Calibri" font-size="7.5" fill="rgb(255,255,255)" text-anchor="middle">1.0</text>
</svg>
