<?xml version="1.0" standalone="no"?><!DOCTYPE svg PUBLIC "-//W3C//DTD SVG 1.1//EN" "http://www.w3.org/Graphics/SVG/1.1/DTD/svg11.dtd">
<svg width="298.9" height="567.6" version="1.1" xmlns="http://www.w3.org/2000/svg">
<text xml:space="preserve" x="94.9" y="342.6" font-family="Calibri" font-size="8" text-anchor="end">CDH18</text>
<text xml:space="preserve" x="94.9" y="350.6" font-family="Calibri" font-size="8" text-anchor="end">PID1</text>
<text xml:space="preserve" x="94.9" y="358.6" font-family="Calibri" font-size="8" text-anchor="end">ZNF536</text>
<text xml:space="preserve" x="94.9" y="366.6" font-family="Calibri" font-size="8" text-anchor="end">SLC24A2</text>
<text xml:space="preserve" x="105.9" y="331.6" font-family="Calibri" font-size="8" transform="rotate(270 105.9 331.6)">c1</text>
<text xml:space="preserve" x="113.9" y="331.6" font-family="Calibri" font-size="8" transform="rotate(270 113.9 331.6)">c2</text>
<text xml:space="preserve" x="121.9" y="331.6" font-family="Calibri" font-size="8" transform="rotate(270 121.9 331.6)">c5</text>
<text xml:space="preserve" x="129.9" y="331.6" font-family="Calibri" font-size="8" transform="rotate(270 129.9 331.6)">c3</text>
<text xml:space="preserve" x="137.9" y="331.6" font-family="Calibri" font-size="8" transform="rotate(270 137.9 331.6)">c6</text>
<text xml:space="preserve" x="145.9" y="331.6" font-family="Calibri" font-size="8" transform="rotate(270 145.9 331.6)">c4</text>
<text xml:space="preserve" x="163.9" y="331.6" font-family="Calibri" font-size="8" transform="rotate(270 163.9 331.6)">c1_mean</text>
<text xml:space="preserve" x="171.9" y="331.6" font-family="Calibri" font-size="8" transform="rotate(270 171.9 331.6)">c2_mean</text>
<text xml:space="preserve" x="179.9" y="331.6" font-family="Calibri" font-size="8" transform="rotate(270 179.9 331.6)">c5_mean</text>
<text xml:space="preserve" x="187.9" y="331.6" font-family="Calibri" font-size="8" transform="rotate(270 187.9 331.6)">c3_mean</text>
<text xml:space="preserve" x="195.9" y="331.6" font-family="Calibri" font-size="8" transform="rotate(270 195.9 331.6)">c6_mean</text>
<text xml:space="preserve" x="203.9" y="331.6" font-family="Calibri" font-size="8" transform="rotate(270 203.9 331.6)">c4_mean</text>
<text xml:space="preserve" x="221.9" y="331.6" font-family="Calibri" font-size="8" transform="rotate(270 221.9 331.6)">transcription_factor</text>
<text xml:space="preserve" x="229.9" y="331.6" font-family="Calibri" font-size="8" transform="rotate(270 229.9 331.6)">transmembrane_signal_receptor</text>
<text xml:space="preserve" x="237.9" y="331.6" font-family="Calibri" font-size="8" transform="rotate(270 237.9 331.6)">growth_factor</text>
<text xml:space="preserve" x="245.9" y="331.6" font-family="Calibri" font-size="8" transform="rotate(270 245.9 331.6)">peptide_hormone</text>
<text xml:space="preserve" x="253.9" y="331.6" font-family="Calibri" font-size="8" transform="rotate(270 253.9 331.6)">cytoskeletal_protein</text>
<text xml:space="preserve" x="261.9" y="331.6" font-family="Calibri" font-size="8" transform="rotate(270 261.9 331.6)">ion_channel</text>
<text xml:space="preserve" x="269.9" y="331.6" font-family="Calibri" font-size="8" transform="rotate(270 269.9 331.6)">integrin</text>
<text xml:space="preserve" x="277.9" y="331.6" font-family="Calibri" font-size="8" transform="rotate(270 277.9 331.6)">extracellular_matrix_protein</text>
<polygon points="98.9,335.6 106.9,335.6 106.9,343.6 98.9,343.6" fill="rgb(127,230,0)"/><text xml:space="preserve" x="102.9" y="342.433" font-family="Calibri" font-size="7.5" fill="rgb(0,0,0)" text-anchor="middle">2</text>
<polygon points="106.9,335.6 114.9,335.6 114.9,343.6 106.9,343.6" fill="rgb(127,230,0)"/><text xml:space="preserve" x="110.9" y="342.433" font-family="Calibri" font-size="7.5" fill="rgb(0,0,0)" text-anchor="middle">2</text>
<polygon points="114.9,335.6 122.9,335.6 122.9,343.6 114.9,343.6" fill="rgb(127,230,0)"/><text xml:space="preserve" x="118.9" y="342.433" font-family="Calibri" font-size="7.5" fill="rgb(0,0,0)" text-anchor="middle">2</text>
<polygon points="122.9,335.6 130.9,335.6 130.9,343.6 122.9,343.6" fill="rgb(205,0,0)"/><text xml:space="preserve" x="126.9" y="342.433" font-family="Calibri" font-size="7.5" fill="rgb(255,255,255)" text-anchor="middle">5</text>
<polygon points="130.9,335.6 138.9,335.6 138.9,343.6 130.9,343.6" fill="rgb(205,0,0)"/><text xml:space="preserve" x="134.9" y="342.433" font-family="Calibri" font-size="7.5" fill="rgb(255,255,255)" text-anchor="middle">5</text>
<polygon points="138.9,335.6 146.9,335.6 146.9,343.6 138.9,343.6" fill="rgb(127,230,0)"/><text xml:space="preserve" x="142.9" y="342.433" font-family="Calibri" font-size="7.5" fill="rgb(0,0,0)" text-anchor="middle">2</text>
<polygon points="156.9,335.6 164.9,335.6 164.9,343.6 156.9,343.6" fill="rgb(6,51,136)"/>
<polygon points="164.9,335.6 172.9,335.6 172.9,343.6 164.9,343.6" fill="rgb(6,51,136)"/>
<polygon points="172.9,335.6 180.9,335.6 180.9,343.6 172.9,343.6" fill="rgb(5,48,136)"/>
<polygon points="180.9,335.6 188.9,335.6 188.9,343.6 180.9,343.6" fill="rgb(36,169,143)"/>
<polygon points="188.9,335.6 196.9,335.6 196.9,343.6 188.9,343.6" fill="rgb(32,155,142)"/>
<polygon points="196.9,335.6 204.9,335.6 204.9,343.6 196.9,343.6" fill="rgb(9,64,137)"/>
<polygon points="214.9,335.6 222.9,335.6 222.9,343.6 214.9,343.6" fill="rgb(255,255,255)"/>
<polygon points="222.9,335.6 230.9,335.6 230.9,343.6 222.9,343.6" fill="rgb(255,255,255)"/>
<polygon points="230.9,335.6 238.9,335.6 238.9,343.6 230.9,343.6" fill="rgb(255,255,255)"/>
<polygon points="238.9,335.6 246.9,335.6 246.9,343.6 238.9,343.6" fill="rgb(255,255,255)"/>
<polygon points="246.9,335.6 254.9,335.6 254.9,343.6 246.9,343.6" fill="rgb(255,255,255)"/>
<polygon points="254.9,335.6 262.9,335.6 262.9,343.6 254.9,343.6" fill="rgb(255,255,255)"/>
<polygon points="262.9,335.6 270.9,335.6 270.9,343.6 262.9,343.6" fill="rgb(255,255,255)"/>
<polygon points="270.9,335.6 278.9,335.6 278.9,343.6 270.9,343.6" fill="rgb(255,255,255)"/>
<polygon points="98.9,343.6 106.9,343.6 106.9,351.6 98.9,351.6" fill="rgb(127,230,0)"/><text xml:space="preserve" x="102.9" y="350.433" font-family="Calibri" font-size="7.5" fill="rgb(0,0,0)" text-anchor="middle">2</text>
<polygon points="106.9,343.6 114.9,343.6 114.9,351.6 106.9,351.6" fill="rgb(127,230,0)"/><text xml:space="preserve" x="110.9" y="350.433" font-family="Calibri" font-size="7.5" fill="rgb(0,0,0)" text-anchor="middle">2</text>
<polygon points="114.9,343.6 122.9,343.6 122.9,351.6 114.9,351.6" fill="rgb(127,230,0)"/><text xml:space="preserve" x="118.9" y="350.433" font-family="Calibri" font-size="7.5" fill="rgb(0,0,0)" text-anchor="middle">2</text>
<polygon points="122.9,343.6 130.9,343.6 130.9,351.6 122.9,351.6" fill="rgb(205,0,0)"/><text xml:space="preserve" x="126.9" y="350.433" font-family="Calibri" font-size="7.5" fill="rgb(255,255,255)" text-anchor="middle">5</text>
<polygon points="130.9,343.6 138.9,343.6 138.9,351.6 130.9,351.6" fill="rgb(205,0,0)"/><text xml:space="preserve" x="134.9" y="350.433" font-family="Calibri" font-size="7.5" fill="rgb(255,255,255)" text-anchor="middle">5</text>
<polygon points="138.9,343.6 146.9,343.6 146.9,351.6 138.9,351.6" fill="rgb(127,230,0)"/><text xml:space="preserve" x="142.9" y="350.433" font-family="Calibri" font-size="7.5" fill="rgb(0,0,0)" text-anchor="middle">2</text>
<polygon points="156.9,343.6 164.9,343.6 164.9,351.6 156.9,351.6" fill="rgb(16,92,138)"/>
<polygon points="164.9,343.6 172.9,343.6 172.9,351.6 164.9,351.6" fill="rgb(15,87,138)"/>
<polygon points="172.9,343.6 180.9,343.6 180.9,351.6 172.9,351.6" fill="rgb(11,70,137)"/>
<polygon points="180.9,343.6 188.9,343.6 188.9,351.6 180.9,351.6" fill="rgb(29,143,141)"/>
<polygon points="188.9,343.6 196.9,343.6 196.9,351.6 188.9,351.6" fill="rgb(37,172,143)"/>
<polygon points="196.9,343.6 204.9,343.6 204.9,351.6 196.9,351.6" fill="rgb(3,42,135)"/>
<polygon points="214.9,343.6 222.9,343.6 222.9,351.6 214.9,351.6" fill="rgb(255,255,255)"/>
<polygon points="222.9,343.6 230.9,343.6 230.9,351.6 222.9,351.6" fill="rgb(255,255,255)"/>
<polygon points="230.9,343.6 238.9,343.6 238.9,351.6 230.9,351.6" fill="rgb(255,255,255)"/>
<polygon points="238.9,343.6 246.9,343.6 246.9,351.6 238.9,351.6" fill="rgb(255,255,255)"/>
<polygon points="246.9,343.6 254.9,343.6 254.9,351.6 246.9,351.6" fill="rgb(255,255,255)"/>
<polygon points="254.9,343.6 262.9,343.6 262.9,351.6 254.9,351.6" fill="rgb(255,255,255)"/>
<polygon points="262.9,343.6 270.9,343.6 270.9,351.6 262.9,351.6" fill="rgb(255,255,255)"/>
<polygon points="270.9,343.6 278.9,343.6 278.9,351.6 270.9,351.6" fill="rgb(255,255,255)"/>
<polygon points="98.9,351.6 106.9,351.6 106.9,359.6 98.9,359.6" fill="rgb(127,230,0)"/><text xml:space="preserve" x="102.9" y="358.433" font-family="Calibri" font-size="7.5" fill="rgb(0,0,0)" text-anchor="middle">2</text>
<polygon points="106.9,351.6 114.9,351.6 114.9,359.6 106.9,359.6" fill="rgb(127,230,0)"/><text xml:space="preserve" x="110.9" y="358.433" font-family="Calibri" font-size="7.5" fill="rgb(0,0,0)" text-anchor="middle">2</text>
<polygon points="114.9,351.6 122.9,351.6 122.9,359.6 114.9,359.6" fill="rgb(127,230,0)"/><text xml:space="preserve" x="118.9" y="358.433" font-family="Calibri" font-size="7.5" fill="rgb(0,0,0)" text-anchor="middle">2</text>
<polygon points="122.9,351.6 130.9,351.6 130.9,359.6 122.9,359.6" fill="rgb(205,0,0)"/><text xml:space="preserve" x="126.9" y="358.433" font-family="Calibri" font-size="7.5" fill="rgb(255,255,255)" text-anchor="middle">5</text>
<polygon points="130.9,351.6 138.9,351.6 138.9,359.6 130.9,359.6" fill="rgb(205,0,0)"/><text xml:space="preserve" x="134.9" y="358.433" font-family="Calibri" font-size="7.5" fill="rgb(255,255,255)" text-anchor="middle">5</text>
<polygon points="138.9,351.6 146.9,351.6 146.9,359.6 138.9,359.6" fill="rgb(127,230,0)"/><text xml:space="preserve" x="142.9" y="358.433" font-family="Calibri" font-size="7.5" fill="rgb(0,0,0)" text-anchor="middle">2</text>
<polygon points="156.9,351.6 164.9,351.6 164.9,359.6 156.9,359.6" fill="rgb(7,56,136)"/>
<polygon points="164.9,351.6 172.9,351.6 172.9,359.6 164.9,359.6" fill="rgb(11,73,137)"/>
<polygon points="172.9,351.6 180.9,351.6 180.9,359.6 172.9,359.6" fill="rgb(11,70,137)"/>
<polygon points="180.9,351.6 188.9,351.6 188.9,359.6 180.9,359.6" fill="rgb(34,163,142)"/>
<polygon points="188.9,351.6 196.9,351.6 196.9,359.6 188.9,359.6" fill="rgb(31,151,142)"/>
<polygon points="196.9,351.6 204.9,351.6 204.9,359.6 196.9,359.6" fill="rgb(13,80,138)"/>
<polygon points="214.9,351.6 222.9,351.6 222.9,359.6 214.9,359.6" fill="rgb(205,0,205)"/>
<polygon points="222.9,351.6 230.9,351.6 230.9,359.6 222.9,359.6" fill="rgb(255,255,255)"/>
<polygon points="230.9,351.6 238.9,351.6 238.9,359.6 230.9,359.6" fill="rgb(255,255,255)"/>
<polygon points="238.9,351.6 246.9,351.6 246.9,359.6 238.9,359.6" fill="rgb(255,255,255)"/>
<polygon points="246.9,351.6 254.9,351.6 254.9,359.6 246.9,359.6" fill="rgb(255,255,255)"/>
<polygon points="254.9,351.6 262.9,351.6 262.9,359.6 254.9,359.6" fill="rgb(255,255,255)"/>
<polygon points="262.9,351.6 270.9,351.6 270.9,359.6 262.9,359.6" fill="rgb(255,255,255)"/>
<polygon points="270.9,351.6 278.9,351.6 278.9,359.6 270.9,359.6" fill="rgb(255,255,255)"/>
<polygon points="98.9,359.6 106.9,359.6 106.9,367.6 98.9,367.6" fill="rgb(127,230,0)"/><text xml:space="preserve" x="102.9" y="366.433" font-family="Calibri" font-size="7.5" fill="rgb(0,0,0)" text-anchor="middle">2</text>
<polygon points="106.9,359.6 114.9,359.6 114.9,367.6 106.9,367.6" fill="rgb(127,230,0)"/><text xml:space="preserve" x="110.9" y="366.433" font-family="Calibri" font-size="7.5" fill="rgb(0,0,0)" text-anchor="middle">2</text>
<polygon points="114.9,359.6 122.9,359.6 122.9,367.6 114.9,367.6" fill="rgb(127,230,0)"/><text xml:space="preserve" x="118.9" y="366.433" font-family="Calibri" font-size="7.5" fill="rgb(0,0,0)" text-anchor="middle">2</text>
<polygon points="122.9,359.6 130.9,359.6 130.9,367.6 122.9,367.6" fill="rgb(205,0,0)"/><text xml:space="preserve" x="126.9" y="366.433" font-family="Calibri" font-size="7.5" fill="rgb(255,255,255)" text-anchor="middle">5</text>
<polygon points="130.9,359.6 138.9,359.6 138.9,367.6 130.9,367.6" fill="rgb(205,0,0)"/><text xml:space="preserve" x="134.9" y="366.433" font-family="Calibri" font-size="7.5" fill="rgb(255,255,255)" text-anchor="middle">5</text>
<polygon points="138.9,359.6 146.9,359.6 146.9,367.6 138.9,367.6" fill="rgb(127,230,0)"/><text xml:space="preserve" x="142.9" y="366.433" font-family="Calibri" font-size="7.5" fill="rgb(0,0,0)" text-anchor="middle">2</text>
<polygon points="156.9,359.6 164.9,359.6 164.9,367.6 156.9,367.6" fill="rgb(8,61,136)"/>
<polygon points="164.9,359.6 172.9,359.6 172.9,367.6 164.9,367.6" fill="rgb(9,64,137)"/>
<polygon points="172.9,359.6 180.9,359.6 180.9,367.6 172.9,367.6" fill="rgb(10,67,137)"/>
<polygon points="180.9,359.6 188.9,359.6 188.9,367.6 180.9,367.6" fill="rgb(29,142,141)"/>
<polygon points="188.9,359.6 196.9,359.6 196.9,367.6 188.9,367.6" fill="rgb(34,162,142)"/>
<polygon points="196.9,359.6 204.9,359.6 204.9,367.6 196.9,367.6" fill="rgb(13,78,137)"/>
<polygon points="214.9,359.6 222.9,359.6 222.9,367.6 214.9,367.6" fill="rgb(255,255,255)"/>
<polygon points="222.9,359.6 230.9,359.6 230.9,367.6 222.9,367.6" fill="rgb(255,255,255)"/>
<polygon points="230.9,359.6 238.9,359.6 238.9,367.6 230.9,367.6" fill="rgb(255,255,255)"/>
<polygon points="238.9,359.6 246.9,359.6 246.9,367.6 238.9,367.6" fill="rgb(255,255,255)"/>
<polygon points="246.9,359.6 254.9,359.6 254.9,367.6 246.9,367.6" fill="rgb(255,255,255)"/>
<polygon points="254.9,359.6 262.9,359.6 262.9,367.6 254.9,367.6" fill="rgb(255,255,255)"/>
<polygon points="262.9,359.6 270.9,359.6 270.9,367.6 262.9,367.6" fill="rgb(255,255,255)"/>
<polygon points="270.9,359.6 278.9,359.6 278.9,367.6 270.9,367.6" fill="rgb(255,255,255)"/>
<polygon points="98.9,335.6 146.9,335.6 146.9,367.6 98.9,367.6" fill="none" stroke="black" stroke-width="1"/>
<polygon points="156.9,335.6 204.9,335.6 204.9,367.6 156.9,367.6" fill="none" stroke="black" stroke-width="1"/>
<polygon points="214.9,335.6 278.9,335.6 278.9,367.6 214.9,367.6" fill="none" stroke="black" stroke-width="1"/>
<text xml:space="preserve" x="149.45" y="400.6" font-family="Calibri" font-size="8" text-anchor="middle">ClusterAssignment</text>
<polygon points="99.45,407.6 119.45,407.6 119.45,427.6 99.45,427.6" fill="rgb(0,205,0)"/><polygon points="99.45,407.6 119.45,407.6 119.45,427.6 99.45,427.6" fill="none" stroke="black" stroke-width="1"/><text xml:space="preserve" x="109.45" y="420.433" font-family="Calibri" font-size="7.5" fill="rgb(255,255,255)" text-anchor="middle">1.0</text>
<polygon points="119.45,407.6 139.45,407.6 139.45,427.6 119.45,427.6" fill="rgb(127,230,0)"/><polygon points="119.45,407.6 139.45,407.6 139.45,427.6 119.45,427.6" fill="none" stroke="black" stroke-width="1"/><text xml:space="preserve" x="129.45" y="420.433" font-family="Calibri" font-size="7.5" fill="rgb(0,0,0)" text-anchor="middle">2.0</text>
<polygon points="139.45,407.6 159.45,407.6 159.45,427.6 139.45,427.6" fill="rgb(255,255,0)"/><polygon points="139.45,407.6 159.45,407.6 159.45,427.6 139.45,427.6" fill="none" stroke="black" stroke-width="1"/><text xml:space="preserve" x="149.45" y="420.433" font-family="Calibri" font-size="7.5" fill="rgb(0,0,0)" text-anchor="middle">3.0</text>
<polygon points="159.45,407.6 179.45,407.6 179.45,427.6 159.45,427.6" fill="rgb(230,127,0)"/><polygon points="159.45,407.6 179.45,407.6 179.45,427.6 159.45,427.6" fill="none" stroke="black" stroke-width="1"/><text xml:space="preserve" x="169.45" y="420.433" font-family="Calibri" font-size="7.5" fill="rgb(0,0,0)" text-anchor="middle">4.0</text>
<polygon points="179.45,407.6 199.45,407.6 199.45,427.6 179.45,427.6" fill="rgb(205,0,0)"/><polygon points="179.45,407.6 199.45,407.6 199.45,427.6 179.45,427.6" fill="none" stroke="black" stroke-width="1"/><text xml:space="preserve" x="189.45" y="420.433" font-family="Calibri" font-size="7.5" fill="rgb(255,255,255)" text-anchor="middle">5.0</text>
<text xml:space="preserve" x="149.45" y="460.6" font-family="Calibri" font-size="8" text-anchor="middle">Expression</text>
<polygon points="99.45,467.6 119.45,467.6 119.45,487.6 99.45,487.6" fill="rgb(0,27,135)"/><polygon points="99.45,467.6 119.45,467.6 119.45,487.6 99.45,487.6" fill="none" stroke="black" stroke-width="1"/><text xml:space="preserve" x="109.45" y="480.433" font-family="Calibri" font-size="7.5" fill="rgb(255,255,255)" text-anchor="middle">0.0</text>
<polygon points="119.45,467.6 139.45,467.6 139.45,487.6 119.45,487.6" fill="rgb(24,123,140)"/><polygon points="119.45,467.6 139.45,467.6 139.45,487.6 119.45,487.6" fill="none" stroke="black" stroke-width="1"/><text xml:space="preserve" x="129.45" y="480.433" font-family="Calibri" font-size="7.5" fill="rgb(255,255,255)" text-anchor="middle">0.8</text>
<polygon points="139.45,467.6 159.45,467.6 159.45,487.6 139.45,487.6" fill="rgb(49,219,146)"/><polygon points="139.45,467.6 159.45,467.6 159.45,487.6 139.45,487.6" fill="none" stroke="black" stroke-width="1"/><text xml:space="preserve" x="149.45" y="480.433" font-family="Calibri" font-size="7.5" fill="rgb(0,0,0)" text-anchor="middle">1.5</text>
<polygon points="159.45,467.6 179.45,467.6 179.45,487.6 159.45,487.6" fill="rgb(150,206,73)"/><polygon points="159.45,467.6 179.45,467.6 179.45,487.6 159.45,487.6" fill="none" stroke="black" stroke-width="1"/><text xml:space="preserve" x="169.45" y="480.433" font-family="Calibri" font-size="7.5" fill="rgb(0,0,0)" text-anchor="middle">2.2</text>
<polygon points="179.45,467.6 199.45,467.6 199.45,487.6 179.45,487.6" fill="rgb(252,194,1)"/><polygon points="179.45,467.6 199.45,467.6 199.45,487.6 179.45,487.6" fill="none" stroke="black" stroke-width="1"/><text xml:space="preserve" x="189.45" y="480.433" font-family="Calibri" font-size="7.5" fill="rgb(0,0,0)" text-anchor="middle">3.0</text>
<text xml:space="preserve" x="149.45" y="520.6" font-family="Calibri" font-size="8" text-anchor="middle">PANTHERclass</text>
<polygon points="99.45,527.6 119.45,527.6 119.45,547.6 99.45,547.6" fill="rgb(255,255,255)"/><polygon points="99.45,527.6 119.45,527.6 119.45,547.6 99.45,547.6" fill="none" stroke="black" stroke-width="1"/><text xml:space="preserve" x="109.45" y="540.433" font-family="Calibri" font-size="7.5" fill="rgb(0,0,0)" text-anchor="middle">0.0</text>
<polygon points="119.45,527.6 139.45,527.6 139.45,547.6 119.45,547.6" fill="rgb(242,191,242)"/><polygon points="119.45,527.6 139.45,527.6 139.45,547.6 119.45,547.6" fill="none" stroke="black" stroke-width="1"/><text xml:space="preserve" x="129.45" y="540.433" font-family="Calibri" font-size="7.5" fill="rgb(0,0,0)" text-anchor="middle">0.2</text>
<polygon points="139.45,527.6 159.45,527.6 159.45,547.6 139.45,547.6" fill="rgb(230,127,230)"/><polygon points="139.45,527.6 159.45,527.6 159.45,547.6 139.45,547.6" fill="none" stroke="black" stroke-width="1"/><text xml:space="preserve" x="149.45" y="540.433" font-family="Calibri" font-size="7.5" fill="rgb(0,0,0)" text-anchor="middle">0.5</text>
<polygon points="159.45,527.6 179.45,527.6 179.45,547.6 159.45,547.6" fill="rgb(217,63,217)"/><polygon points="159.45,527.6 179.45,527.6 179.45,547.6 159.45,547.6" fill="none" stroke="black" stroke-width="1"/><text xml:space="preserve" x="169.45" y="540.433" font-family="Calibri" font-size="7.5" fill="rgb(255,255,255)" text-anchor="middle">0.8</text>
<polygon points="179.45,527.6 199.45,527.6 199.45,547.6 179.45,547.6" fill="rgb(205,0,205)"/><polygon points="179.45,527.6 199.45,527.6 199.45,547.6 179.45,547.6" fill="none" stroke="black" stroke-width="1"/><text xml:space="preserve" x="189.45" y="540.433" font-family="Calibri" font-size="7.5" fill="rgb(255,255,255)" text-anchor="middle">1.0</text>
</svg>
