<?xml version="1.0" standalone="no"?><!DOCTYPE svg PUBLIC "-//W3C//DTD SVG 1.1//EN" "http://www.w3.org/Graphics/SVG/1.1/DTD/svg11.dtd">
<svg width="315.1" height="567.6" version="1.1" xmlns="http://www.w3.org/2000/svg">
<text xml:space="preserve" x="111.1" y="342.6" font-family="Calibri" font-size="8" text-anchor="end">HOXC6</text>
<text xml:space="preserve" x="111.1" y="350.6" font-family="Calibri" font-size="8" text-anchor="end">ZFHX4</text>
<text xml:space="preserve" x="111.1" y="358.6" font-family="Calibri" font-size="8" text-anchor="end">LRRTM4</text>
<text xml:space="preserve" x="111.1" y="366.6" font-family="Calibri" font-size="8" text-anchor="end">LINC01201</text>
<text xml:space="preserve" x="122.1" y="331.6" font-family="Calibri" font-size="8" transform="rotate(270 122.1 331.6)">c1</text>
<text xml:space="preserve" x="130.1" y="331.6" font-family="Calibri" font-size="8" transform="rotate(270 130.1 331.6)">c2</text>
<text xml:space="preserve" x="138.1" y="331.6" font-family="Calibri" font-size="8" transform="rotate(270 138.1 331.6)">c5</text>
<text xml:space="preserve" x="146.1" y="331.6" font-family="Calibri" font-size="8" transform="rotate(270 146.1 331.6)">c3</text>
<text xml:space="preserve" x="154.1" y="331.6" font-family="Calibri" font-size="8" transform="rotate(270 154.1 331.6)">c6</text>
<text xml:space="preserve" x="162.1" y="331.6" font-family="Calibri" font-size="8" transform="rotate(270 162.1 331.6)">c4</text>
<text xml:space="preserve" x="180.1" y="331.6" font-family="Calibri" font-size="8" transform="rotate(270 180.1 331.6)">c1_mean</text>
<text xml:space="preserve" x="188.1" y="331.6" font-family="Calibri" font-size="8" transform="rotate(270 188.1 331.6)">c2_mean</text>
<text xml:space="preserve" x="196.1" y="331.6" font-family="Calibri" font-size="8" transform="rotate(270 196.1 331.6)">c5_mean</text>
<text xml:space="preserve" x="204.1" y="331.6" font-family="Calibri" font-size="8" transform="rotate(270 204.1 331.6)">c3_mean</text>
<text xml:space="preserve" x="212.1" y="331.6" font-family="Calibri" font-size="8" transform="rotate(270 212.1 331.6)">c6_mean</text>
<text xml:space="preserve" x="220.1" y="331.6" font-family="Calibri" font-size="8" transform="rotate(270 220.1 331.6)">c4_mean</text>
<text xml:space="preserve" x="238.1" y="331.6" font-family="Calibri" font-size="8" transform="rotate(270 238.1 331.6)">transcription_factor</text>
<text xml:space="preserve" x="246.1" y="331.6" font-family="Calibri" font-size="8" transform="rotate(270 246.1 331.6)">transmembrane_signal_receptor</text>
<text xml:space="preserve" x="254.1" y="331.6" font-family="Calibri" font-size="8" transform="rotate(270 254.1 331.6)">growth_factor</text>
<text xml:space="preserve" x="262.1" y="331.6" font-family="Calibri" font-size="8" transform="rotate(270 262.1 331.6)">peptide_hormone</text>
<text xml:space="preserve" x="270.1" y="331.6" font-family="Calibri" font-size="8" transform="rotate(270 270.1 331.6)">cytoskeletal_protein</text>
<text xml:space="preserve" x="278.1" y="331.6" font-family="Calibri" font-size="8" transform="rotate(270 278.1 331.6)">ion_channel</text>
<text xml:space="preserve" x="286.1" y="331.6" font-family="Calibri" font-size="8" transform="rotate(270 286.1 331.6)">integrin</text>
<text xml:space="preserve" x="294.1" y="331.6" font-family="Calibri" font-size="8" transform="rotate(270 294.1 331.6)">extracellular_matrix_protein</text>
<polygon points="115.1,335.6 123.1,335.6 123.1,343.6 115.1,343.6" fill="rgb(127,230,0)"/><text xml:space="preserve" x="119.1" y="342.433" font-family="Calibri" font-size="7.5" fill="rgb(0,0,0)" text-anchor="middle">2</text>
<polygon points="123.1,335.6 131.1,335.6 131.1,343.6 123.1,343.6" fill="rgb(127,230,0)"/><text xml:space="preserve" x="127.1" y="342.433" font-family="Calibri" font-size="7.5" fill="rgb(0,0,0)" text-anchor="middle">2</text>
<polygon points="131.1,335.6 139.1,335.6 139.1,343.6 131.1,343.6" fill="rgb(255,255,0)"/><text xml:space="preserve" x="135.1" y="342.433" font-family="Calibri" font-size="7.5" fill="rgb(0,0,0)" text-anchor="middle">3</text>
<polygon points="139.1,335.6 147.1,335.6 147.1,343.6 139.1,343.6" fill="rgb(205,0,0)"/><text xml:space="preserve" x="143.1" y="342.433" font-family="Calibri" font-size="7.5" fill="rgb(255,255,255)" text-anchor="middle">5</text>
<polygon points="147.1,335.6 155.1,335.6 155.1,343.6 147.1,343.6" fill="rgb(205,0,0)"/><text xml:space="preserve" x="151.1" y="342.433" font-family="Calibri" font-size="7.5" fill="rgb(255,255,255)" text-anchor="middle">5</text>
<polygon points="155.1,335.6 163.1,335.6 163.1,343.6 155.1,343.6" fill="rgb(230,127,0)"/><text xml:space="preserve" x="159.1" y="342.433" font-family="Calibri" font-size="7.5" fill="rgb(0,0,0)" text-anchor="middle">4</text>
<polygon points="173.1,335.6 181.1,335.6 181.1,343.6 173.1,343.6" fill="rgb(9,64,137)"/>
<polygon points="181.1,335.6 189.1,335.6 189.1,343.6 181.1,343.6" fill="rgb(7,57,136)"/>
<polygon points="189.1,335.6 197.1,335.6 197.1,343.6 189.1,343.6" fill="rgb(18,101,139)"/>
<polygon points="197.1,335.6 205.1,335.6 205.1,343.6 197.1,343.6" fill="rgb(46,208,145)"/>
<polygon points="205.1,335.6 213.1,335.6 213.1,343.6 205.1,343.6" fill="rgb(41,188,144)"/>
<polygon points="213.1,335.6 221.1,335.6 221.1,343.6 213.1,343.6" fill="rgb(40,185,144)"/>
<polygon points="231.1,335.6 239.1,335.6 239.1,343.6 231.1,343.6" fill="rgb(205,0,205)"/>
<polygon points="239.1,335.6 247.1,335.6 247.1,343.6 239.1,343.6" fill="rgb(255,255,255)"/>
<polygon points="247.1,335.6 255.1,335.6 255.1,343.6 247.1,343.6" fill="rgb(255,255,255)"/>
<polygon points="255.1,335.6 263.1,335.6 263.1,343.6 255.1,343.6" fill="rgb(255,255,255)"/>
<polygon points="263.1,335.6 271.1,335.6 271.1,343.6 263.1,343.6" fill="rgb(255,255,255)"/>
<polygon points="271.1,335.6 279.1,335.6 279.1,343.6 271.1,343.6" fill="rgb(255,255,255)"/>
<polygon points="279.1,335.6 287.1,335.6 287.1,343.6 279.1,343.6" fill="rgb(255,255,255)"/>
<polygon points="287.1,335.6 295.1,335.6 295.1,343.6 287.1,343.6" fill="rgb(255,255,255)"/>
<polygon points="115.1,343.6 123.1,343.6 123.1,351.6 115.1,351.6" fill="rgb(127,230,0)"/><text xml:space="preserve" x="119.1" y="350.433" font-family="Calibri" font-size="7.5" fill="rgb(0,0,0)" text-anchor="middle">2</text>
<polygon points="123.1,343.6 131.1,343.6 131.1,351.6 123.1,351.6" fill="rgb(127,230,0)"/><text xml:space="preserve" x="127.1" y="350.433" font-family="Calibri" font-size="7.5" fill="rgb(0,0,0)" text-anchor="middle">2</text>
<polygon points="131.1,343.6 139.1,343.6 139.1,351.6 131.1,351.6" fill="rgb(255,255,0)"/><text xml:space="preserve" x="135.1" y="350.433" font-family="Calibri" font-size="7.5" fill="rgb(0,0,0)" text-anchor="middle">3</text>
<polygon points="139.1,343.6 147.1,343.6 147.1,351.6 139.1,351.6" fill="rgb(205,0,0)"/><text xml:space="preserve" x="143.1" y="350.433" font-family="Calibri" font-size="7.5" fill="rgb(255,255,255)" text-anchor="middle">5</text>
<polygon points="147.1,343.6 155.1,343.6 155.1,351.6 147.1,351.6" fill="rgb(205,0,0)"/><text xml:space="preserve" x="151.1" y="350.433" font-family="Calibri" font-size="7.5" fill="rgb(255,255,255)" text-anchor="middle">5</text>
<polygon points="155.1,343.6 163.1,343.6 163.1,351.6 155.1,351.6" fill="rgb(230,127,0)"/><text xml:space="preserve" x="159.1" y="350.433" font-family="Calibri" font-size="7.5" fill="rgb(0,0,0)" text-anchor="middle">4</text>
<polygon points="173.1,343.6 181.1,343.6 181.1,351.6 173.1,351.6" fill="rgb(16,92,138)"/>
<polygon points="181.1,343.6 189.1,343.6 189.1,351.6 181.1,351.6" fill="rgb(11,73,137)"/>
<polygon points="189.1,343.6 197.1,343.6 197.1,351.6 189.1,351.6" fill="rgb(16,92,138)"/>
<polygon points="197.1,343.6 205.1,343.6 205.1,351.6 197.1,351.6" fill="rgb(45,203,145)"/>
<polygon points="205.1,343.6 213.1,343.6 213.1,351.6 205.1,351.6" fill="rgb(42,192,144)"/>
<polygon points="213.1,343.6 221.1,343.6 221.1,351.6 213.1,351.6" fill="rgb(21,110,139)"/>
<polygon points="231.1,343.6 239.1,343.6 239.1,351.6 231.1,351.6" fill="rgb(205,0,205)"/>
<polygon points="239.1,343.6 247.1,343.6 247.1,351.6 239.1,351.6" fill="rgb(255,255,255)"/>
<polygon points="247.1,343.6 255.1,343.6 255.1,351.6 247.1,351.6" fill="rgb(255,255,255)"/>
<polygon points="255.1,343.6 263.1,343.6 263.1,351.6 255.1,351.6" fill="rgb(255,255,255)"/>
<polygon points="263.1,343.6 271.1,343.6 271.1,351.6 263.1,351.6" fill="rgb(255,255,255)"/>
<polygon points="271.1,343.6 279.1,343.6 279.1,351.6 271.1,351.6" fill="rgb(255,255,255)"/>
<polygon points="279.1,343.6 287.1,343.6 287.1,351.6 279.1,351.6" fill="rgb(255,255,255)"/>
<polygon points="287.1,343.6 295.1,343.6 295.1,351.6 287.1,351.6" fill="rgb(255,255,255)"/>
<polygon points="115.1,351.6 123.1,351.6 123.1,359.6 115.1,359.6" fill="rgb(127,230,0)"/><text xml:space="preserve" x="119.1" y="358.433" font-family="Calibri" font-size="7.5" fill="rgb(0,0,0)" text-anchor="middle">2</text>
<polygon points="123.1,351.6 131.1,351.6 131.1,359.6 123.1,359.6" fill="rgb(127,230,0)"/><text xml:space="preserve" x="127.1" y="358.433" font-family="Calibri" font-size="7.5" fill="rgb(0,0,0)" text-anchor="middle">2</text>
<polygon points="131.1,351.6 139.1,351.6 139.1,359.6 131.1,359.6" fill="rgb(255,255,0)"/><text xml:space="preserve" x="135.1" y="358.433" font-family="Calibri" font-size="7.5" fill="rgb(0,0,0)" text-anchor="middle">3</text>
<polygon points="139.1,351.6 147.1,351.6 147.1,359.6 139.1,359.6" fill="rgb(205,0,0)"/><text xml:space="preserve" x="143.1" y="358.433" font-family="Calibri" font-size="7.5" fill="rgb(255,255,255)" text-anchor="middle">5</text>
<polygon points="147.1,351.6 155.1,351.6 155.1,359.6 147.1,359.6" fill="rgb(205,0,0)"/><text xml:space="preserve" x="151.1" y="358.433" font-family="Calibri" font-size="7.5" fill="rgb(255,255,255)" text-anchor="middle">5</text>
<polygon points="155.1,351.6 163.1,351.6 163.1,359.6 155.1,359.6" fill="rgb(230,127,0)"/><text xml:space="preserve" x="159.1" y="358.433" font-family="Calibri" font-size="7.5" fill="rgb(0,0,0)" text-anchor="middle">4</text>
<polygon points="173.1,351.6 181.1,351.6 181.1,359.6 173.1,359.6" fill="rgb(14,82,138)"/>
<polygon points="181.1,351.6 189.1,351.6 189.1,359.6 181.1,359.6" fill="rgb(11,73,137)"/>
<polygon points="189.1,351.6 197.1,351.6 197.1,359.6 189.1,359.6" fill="rgb(17,97,139)"/>
<polygon points="197.1,351.6 205.1,351.6 205.1,359.6 197.1,359.6" fill="rgb(37,172,143)"/>
<polygon points="205.1,351.6 213.1,351.6 213.1,359.6 205.1,359.6" fill="rgb(36,170,143)"/>
<polygon points="213.1,351.6 221.1,351.6 221.1,359.6 213.1,359.6" fill="rgb(27,134,141)"/>
<polygon points="231.1,351.6 239.1,351.6 239.1,359.6 231.1,359.6" fill="rgb(255,255,255)"/>
<polygon points="239.1,351.6 247.1,351.6 247.1,359.6 239.1,359.6" fill="rgb(205,0,205)"/>
<polygon points="247.1,351.6 255.1,351.6 255.1,359.6 247.1,359.6" fill="rgb(255,255,255)"/>
<polygon points="255.1,351.6 263.1,351.6 263.1,359.6 255.1,359.6" fill="rgb(255,255,255)"/>
<polygon points="263.1,351.6 271.1,351.6 271.1,359.6 263.1,359.6" fill="rgb(255,255,255)"/>
<polygon points="271.1,351.6 279.1,351.6 279.1,359.6 271.1,359.6" fill="rgb(255,255,255)"/>
<polygon points="279.1,351.6 287.1,351.6 287.1,359.6 279.1,359.6" fill="rgb(255,255,255)"/>
<polygon points="287.1,351.6 295.1,351.6 295.1,359.6 287.1,359.6" fill="rgb(255,255,255)"/>
<polygon points="115.1,359.6 123.1,359.6 123.1,367.6 115.1,367.6" fill="rgb(127,230,0)"/><text xml:space="preserve" x="119.1" y="366.433" font-family="Calibri" font-size="7.5" fill="rgb(0,0,0)" text-anchor="middle">2</text>
<polygon points="123.1,359.6 131.1,359.6 131.1,367.6 123.1,367.6" fill="rgb(127,230,0)"/><text xml:space="preserve" x="127.1" y="366.433" font-family="Calibri" font-size="7.5" fill="rgb(0,0,0)" text-anchor="middle">2</text>
<polygon points="131.1,359.6 139.1,359.6 139.1,367.6 131.1,367.6" fill="rgb(255,255,0)"/><text xml:space="preserve" x="135.1" y="366.433" font-family="Calibri" font-size="7.5" fill="rgb(0,0,0)" text-anchor="middle">3</text>
<polygon points="139.1,359.6 147.1,359.6 147.1,367.6 139.1,367.6" fill="rgb(205,0,0)"/><text xml:space="preserve" x="143.1" y="366.433" font-family="Calibri" font-size="7.5" fill="rgb(255,255,255)" text-anchor="middle">5</text>
<polygon points="147.1,359.6 155.1,359.6 155.1,367.6 147.1,367.6" fill="rgb(205,0,0)"/><text xml:space="preserve" x="151.1" y="366.433" font-family="Calibri" font-size="7.5" fill="rgb(255,255,255)" text-anchor="middle">5</text>
<polygon points="155.1,359.6 163.1,359.6 163.1,367.6 155.1,367.6" fill="rgb(230,127,0)"/><text xml:space="preserve" x="159.1" y="366.433" font-family="Calibri" font-size="7.5" fill="rgb(0,0,0)" text-anchor="middle">4</text>
<polygon points="173.1,359.6 181.1,359.6 181.1,367.6 173.1,367.6" fill="rgb(8,59,136)"/>
<polygon points="181.1,359.6 189.1,359.6 189.1,367.6 181.1,367.6" fill="rgb(11,71,137)"/>
<polygon points="189.1,359.6 197.1,359.6 197.1,367.6 189.1,367.6" fill="rgb(15,87,138)"/>
<polygon points="197.1,359.6 205.1,359.6 205.1,367.6 197.1,367.6" fill="rgb(44,201,144)"/>
<polygon points="205.1,359.6 213.1,359.6 213.1,367.6 205.1,367.6" fill="rgb(42,193,144)"/>
<polygon points="213.1,359.6 221.1,359.6 221.1,367.6 213.1,367.6" fill="rgb(37,175,143)"/>
<polygon points="231.1,359.6 239.1,359.6 239.1,367.6 231.1,367.6" fill="rgb(255,255,255)"/>
<polygon points="239.1,359.6 247.1,359.6 247.1,367.6 239.1,367.6" fill="rgb(255,255,255)"/>
<polygon points="247.1,359.6 255.1,359.6 255.1,367.6 247.1,367.6" fill="rgb(255,255,255)"/>
<polygon points="255.1,359.6 263.1,359.6 263.1,367.6 255.1,367.6" fill="rgb(255,255,255)"/>
<polygon points="263.1,359.6 271.1,359.6 271.1,367.6 263.1,367.6" fill="rgb(255,255,255)"/>
<polygon points="271.1,359.6 279.1,359.6 279.1,367.6 271.1,367.6" fill="rgb(255,255,255)"/>
<polygon points="279.1,359.6 287.1,359.6 287.1,367.6 279.1,367.6" fill="rgb(255,255,255)"/>
<polygon points="287.1,359.6 295.1,359.6 295.1,367.6 287.1,367.6" fill="rgb(255,255,255)"/>
<polygon points="115.1,335.6 163.1,335.6 163.1,367.6 115.1,367.6" fill="none" stroke="black" stroke-width="1"/>
<polygon points="173.1,335.6 221.1,335.6 221.1,367.6 173.1,367.6" fill="none" stroke="black" stroke-width="1"/>
<polygon points="231.1,335.6 295.1,335.6 295.1,367.6 231.1,367.6" fill="none" stroke="black" stroke-width="1"/>
<text xml:space="preserve" x="157.55" y="400.6" font-family="Calibri" font-size="8" text-anchor="middle">ClusterAssignment</text>
<polygon points="107.55,407.6 127.55,407.6 127.55,427.6 107.55,427.6" fill="rgb(0,205,0)"/><polygon points="107.55,407.6 127.55,407.6 127.55,427.6 107.55,427.6" fill="none" stroke="black" stroke-width="1"/><text xml:space="preserve" x="117.55" y="420.433" font-family="Calibri" font-size="7.5" fill="rgb(255,255,255)" text-anchor="middle">1.0</text>
<polygon points="127.55,407.6 147.55,407.6 147.55,427.6 127.55,427.6" fill="rgb(127,230,0)"/><polygon points="127.55,407.6 147.55,407.6 147.55,427.6 127.55,427.6" fill="none" stroke="black" stroke-width="1"/><text xml:space="preserve" x="137.55" y="420.433" font-family="Calibri" font-size="7.5" fill="rgb(0,0,0)" text-anchor="middle">2.0</text>
<polygon points="147.55,407.6 167.55,407.6 167.55,427.6 147.55,427.6" fill="rgb(255,255,0)"/><polygon points="147.55,407.6 167.55,407.6 167.55,427.6 147.55,427.6" fill="none" stroke="black" stroke-width="1"/><text xml:space="preserve" x="157.55" y="420.433" font-family="Calibri" font-size="7.5" fill="rgb(0,0,0)" text-anchor="middle">3.0</text>
<polygon points="167.55,407.6 187.55,407.6 187.55,427.6 167.55,427.6" fill="rgb(230,127,0)"/><polygon points="167.55,407.6 187.55,407.6 187.55,427.6 167.55,427.6" fill="none" stroke="black" stroke-width="1"/><text xml:space="preserve" x="177.55" y="420.433" font-family="Calibri" font-size="7.5" fill="rgb(0,0,0)" text-anchor="middle">4.0</text>
<polygon points="187.55,407.6 207.55,407.6 207.55,427.6 187.55,427.6" fill="rgb(205,0,0)"/><polygon points="187.55,407.6 207.55,407.6 207.55,427.6 187.55,427.6" fill="none" stroke="black" stroke-width="1"/><text xml:space="preserve" x="197.55" y="420.433" font-family="Calibri" font-size="7.5" fill="rgb(255,255,255)" text-anchor="middle">5.0</text>
<text xml:space="preserve" x="157.55" y="460.6" font-family="Calibri" font-size="8" text-anchor="middle">Expression</text>
<polygon points="107.55,467.6 127.55,467.6 127.55,487.6 107.55,487.6" fill="rgb(0,27,135)"/><polygon points="107.55,467.6 127.55,467.6 127.55,487.6 107.55,487.6" fill="none" stroke="black" stroke-width="1"/><text xml:space="preserve" x="117.55" y="480.433" font-family="Calibri" font-size="7.5" fill="rgb(255,255,255)" text-anchor="middle">0.0</text>
<polygon points="127.55,467.6 147.55,467.6 147.55,487.6 127.55,487.6" fill="rgb(24,123,140)"/><polygon points="127.55,467.6 147.55,467.6 147.55,487.6 127.55,487.6" fill="none" stroke="black" stroke-width="1"/><text xml:space="preserve" x="137.55" y="480.433" font-family="Calibri" font-size="7.5" fill="rgb(255,255,255)" text-anchor="middle">0.8</text>
<polygon points="147.55,467.6 167.55,467.6 167.55,487.6 147.55,487.6" fill="rgb(49,219,146)"/><polygon points="147.55,467.6 167.55,467.6 167.55,487.6 147.55,487.6" fill="none" stroke="black" stroke-width="1"/><text xml:space="preserve" x="157.55" y="480.433" font-family="Calibri" font-size="7.5" fill="rgb(0,0,0)" text-anchor="middle">1.5</text>
<polygon points="167.55,467.6 187.55,467.6 187.55,487.6 167.55,487.6" fill="rgb(150,206,73)"/><polygon points="167.55,467.6 187.55,467.6 187.55,487.6 167.55,487.6" fill="none" stroke="black" stroke-width="1"/><text xml:space="preserve" x="177.55" y="480.433" font-family="Calibri" font-size="7.5" fill="rgb(0,0,0)" text-anchor="middle">2.2</text>
<polygon points="187.55,467.6 207.55,467.6 207.55,487.6 187.55,487.6" fill="rgb(252,194,1)"/><polygon points="187.55,467.6 207.55,467.6 207.55,487.6 187.55,487.6" fill="none" stroke="black" stroke-width="1"/><text xml:space="preserve" x="197.55" y="480.433" font-family="Calibri" font-size="7.5" fill="rgb(0,0,0)" text-anchor="middle">3.0</text>
<text xml:space="preserve" x="157.55" y="520.6" font-family="Calibri" font-size="8" text-anchor="middle">PANTHERclass</text>
<polygon points="107.55,527.6 127.55,527.6 127.55,547.6 107.55,547.6" fill="rgb(255,255,255)"/><polygon points="107.55,527.6 127.55,527.6 127.55,547.6 107.55,547.6" fill="none" stroke="black" stroke-width="1"/><text xml:space="preserve" x="117.55" y="540.433" font-family="Calibri" font-size="7.5" fill="rgb(0,0,0)" text-anchor="middle">0.0</text>
<polygon points="127.55,527.6 147.55,527.6 147.55,547.6 127.55,547.6" fill="rgb(242,191,242)"/><polygon points="127.55,527.6 147.55,527.6 147.55,547.6 127.55,547.6" fill="none" stroke="black" stroke-width="1"/><text xml:space="preserve" x="137.55" y="540.433" font-family="Calibri" font-size="7.5" fill="rgb(0,0,0)" text-anchor="middle">0.2</text>
<polygon points="147.55,527.6 167.55,527.6 167.55,547.6 147.55,547.6" fill="rgb(230,127,230)"/><polygon points="147.55,527.6 167.55,527.6 167.55,547.6 147.55,547.6" fill="none" stroke="black" stroke-width="1"/><text xml:space="preserve" x="157.55" y="540.433" font-family="Calibri" font-size="7.5" fill="rgb(0,0,0)" text-anchor="middle">0.5</text>
<polygon points="167.55,527.6 187.55,527.6 187.55,547.6 167.55,547.6" fill="rgb(217,63,217)"/><polygon points="167.55,527.6 187.55,527.6 187.55,547.6 167.55,547.6" fill="none" stroke="black" stroke-width="1"/><text xml:space="preserve" x="177.55" y="540.433" font-family="Calibri" font-size="7.5" fill="rgb(255,255,255)" text-anchor="middle">0.8</text>
<polygon points="187.55,527.6 207.55,527.6 207.55,547.6 187.55,547.6" fill="rgb(205,0,205)"/><polygon points="187.55,527.6 207.55,527.6 207.55,547.6 187.55,547.6" fill="none" stroke="black" stroke-width="1"/><text xml:space="preserve" x="197.55" y="540.433" font-family="Calibri" font-size="7.5" fill="rgb(255,255,255)" text-anchor="middle">1.0</text>
</svg>
