<?xml version="1.0" standalone="no"?><!DOCTYPE svg PUBLIC "-//W3C//DTD SVG 1.1//EN" "http://www.w3.org/Graphics/SVG/1.1/DTD/svg11.dtd">
<svg width="340.3" height="599.6" version="1.1" xmlns="http://www.w3.org/2000/svg">
<text xml:space="preserve" x="136.3" y="342.6" font-family="Calibri" font-size="8" text-anchor="end">AC010931.2</text>
<text xml:space="preserve" x="136.3" y="350.6" font-family="Calibri" font-size="8" text-anchor="end">CHRM3</text>
<text xml:space="preserve" x="136.3" y="358.6" font-family="Calibri" font-size="8" text-anchor="end">ST6GALNAC5</text>
<text xml:space="preserve" x="136.3" y="366.6" font-family="Calibri" font-size="8" text-anchor="end">SLC5A7</text>
<text xml:space="preserve" x="136.3" y="374.6" font-family="Calibri" font-size="8" text-anchor="end">CRNDE</text>
<text xml:space="preserve" x="136.3" y="382.6" font-family="Calibri" font-size="8" text-anchor="end">HS3ST5</text>
<text xml:space="preserve" x="136.3" y="390.6" font-family="Calibri" font-size="8" text-anchor="end">IRX3</text>
<text xml:space="preserve" x="136.3" y="398.6" font-family="Calibri" font-size="8" text-anchor="end">IRX5</text>
<text xml:space="preserve" x="147.3" y="331.6" font-family="Calibri" font-size="8" transform="rotate(270 147.3 331.6)">c1</text>
<text xml:space="preserve" x="155.3" y="331.6" font-family="Calibri" font-size="8" transform="rotate(270 155.3 331.6)">c2</text>
<text xml:space="preserve" x="163.3" y="331.6" font-family="Calibri" font-size="8" transform="rotate(270 163.3 331.6)">c5</text>
<text xml:space="preserve" x="171.3" y="331.6" font-family="Calibri" font-size="8" transform="rotate(270 171.3 331.6)">c3</text>
<text xml:space="preserve" x="179.3" y="331.6" font-family="Calibri" font-size="8" transform="rotate(270 179.3 331.6)">c6</text>
<text xml:space="preserve" x="187.3" y="331.6" font-family="Calibri" font-size="8" transform="rotate(270 187.3 331.6)">c4</text>
<text xml:space="preserve" x="205.3" y="331.6" font-family="Calibri" font-size="8" transform="rotate(270 205.3 331.6)">c1_mean</text>
<text xml:space="preserve" x="213.3" y="331.6" font-family="Calibri" font-size="8" transform="rotate(270 213.3 331.6)">c2_mean</text>
<text xml:space="preserve" x="221.3" y="331.6" font-family="Calibri" font-size="8" transform="rotate(270 221.3 331.6)">c5_mean</text>
<text xml:space="preserve" x="229.3" y="331.6" font-family="Calibri" font-size="8" transform="rotate(270 229.3 331.6)">c3_mean</text>
<text xml:space="preserve" x="237.3" y="331.6" font-family="Calibri" font-size="8" transform="rotate(270 237.3 331.6)">c6_mean</text>
<text xml:space="preserve" x="245.3" y="331.6" font-family="Calibri" font-size="8" transform="rotate(270 245.3 331.6)">c4_mean</text>
<text xml:space="preserve" x="263.3" y="331.6" font-family="Calibri" font-size="8" transform="rotate(270 263.3 331.6)">transcription_factor</text>
<text xml:space="preserve" x="271.3" y="331.6" font-family="Calibri" font-size="8" transform="rotate(270 271.3 331.6)">transmembrane_signal_receptor</text>
<text xml:space="preserve" x="279.3" y="331.6" font-family="Calibri" font-size="8" transform="rotate(270 279.3 331.6)">growth_factor</text>
<text xml:space="preserve" x="287.3" y="331.6" font-family="Calibri" font-size="8" transform="rotate(270 287.3 331.6)">peptide_hormone</text>
<text xml:space="preserve" x="295.3" y="331.6" font-family="Calibri" font-size="8" transform="rotate(270 295.3 331.6)">cytoskeletal_protein</text>
<text xml:space="preserve" x="303.3" y="331.6" font-family="Calibri" font-size="8" transform="rotate(270 303.3 331.6)">ion_channel</text>
<text xml:space="preserve" x="311.3" y="331.6" font-family="Calibri" font-size="8" transform="rotate(270 311.3 331.6)">integrin</text>
<text xml:space="preserve" x="319.3" y="331.6" font-family="Calibri" font-size="8" transform="rotate(270 319.3 331.6)">extracellular_matrix_protein</text>
<polygon points="140.3,335.6 148.3,335.6 148.3,343.6 140.3,343.6" fill="rgb(230,127,0)"/><text xml:space="preserve" x="144.3" y="342.433" font-family="Calibri" font-size="7.5" fill="rgb(0,0,0)" text-anchor="middle">4</text>
<polygon points="148.3,335.6 156.3,335.6 156.3,343.6 148.3,343.6" fill="rgb(230,127,0)"/><text xml:space="preserve" x="152.3" y="342.433" font-family="Calibri" font-size="7.5" fill="rgb(0,0,0)" text-anchor="middle">4</text>
<polygon points="156.3,335.6 164.3,335.6 164.3,343.6 156.3,343.6" fill="rgb(230,127,0)"/><text xml:space="preserve" x="160.3" y="342.433" font-family="Calibri" font-size="7.5" fill="rgb(0,0,0)" text-anchor="middle">4</text>
<polygon points="164.3,335.6 172.3,335.6 172.3,343.6 164.3,343.6" fill="rgb(230,127,0)"/><text xml:space="preserve" x="168.3" y="342.433" font-family="Calibri" font-size="7.5" fill="rgb(0,0,0)" text-anchor="middle">4</text>
<polygon points="172.3,335.6 180.3,335.6 180.3,343.6 172.3,343.6" fill="rgb(230,127,0)"/><text xml:space="preserve" x="176.3" y="342.433" font-family="Calibri" font-size="7.5" fill="rgb(0,0,0)" text-anchor="middle">4</text>
<polygon points="180.3,335.6 188.3,335.6 188.3,343.6 180.3,343.6" fill="rgb(0,205,0)"/><text xml:space="preserve" x="184.3" y="342.433" font-family="Calibri" font-size="7.5" fill="rgb(255,255,255)" text-anchor="middle">1</text>
<polygon points="198.3,335.6 206.3,335.6 206.3,343.6 198.3,343.6" fill="rgb(33,158,142)"/>
<polygon points="206.3,335.6 214.3,335.6 214.3,343.6 206.3,343.6" fill="rgb(19,103,139)"/>
<polygon points="214.3,335.6 222.3,335.6 222.3,343.6 214.3,343.6" fill="rgb(23,119,140)"/>
<polygon points="222.3,335.6 230.3,335.6 230.3,343.6 222.3,343.6" fill="rgb(32,155,142)"/>
<polygon points="230.3,335.6 238.3,335.6 238.3,343.6 230.3,343.6" fill="rgb(40,185,144)"/>
<polygon points="238.3,335.6 246.3,335.6 246.3,343.6 238.3,343.6" fill="rgb(7,55,136)"/>
<polygon points="256.3,335.6 264.3,335.6 264.3,343.6 256.3,343.6" fill="rgb(255,255,255)"/>
<polygon points="264.3,335.6 272.3,335.6 272.3,343.6 264.3,343.6" fill="rgb(255,255,255)"/>
<polygon points="272.3,335.6 280.3,335.6 280.3,343.6 272.3,343.6" fill="rgb(255,255,255)"/>
<polygon points="280.3,335.6 288.3,335.6 288.3,343.6 280.3,343.6" fill="rgb(255,255,255)"/>
<polygon points="288.3,335.6 296.3,335.6 296.3,343.6 288.3,343.6" fill="rgb(255,255,255)"/>
<polygon points="296.3,335.6 304.3,335.6 304.3,343.6 296.3,343.6" fill="rgb(255,255,255)"/>
<polygon points="304.3,335.6 312.3,335.6 312.3,343.6 304.3,343.6" fill="rgb(255,255,255)"/>
<polygon points="312.3,335.6 320.3,335.6 320.3,343.6 312.3,343.6" fill="rgb(255,255,255)"/>
<polygon points="140.3,343.6 148.3,343.6 148.3,351.6 140.3,351.6" fill="rgb(230,127,0)"/><text xml:space="preserve" x="144.3" y="350.433" font-family="Calibri" font-size="7.5" fill="rgb(0,0,0)" text-anchor="middle">4</text>
<polygon points="148.3,343.6 156.3,343.6 156.3,351.6 148.3,351.6" fill="rgb(230,127,0)"/><text xml:space="preserve" x="152.3" y="350.433" font-family="Calibri" font-size="7.5" fill="rgb(0,0,0)" text-anchor="middle">4</text>
<polygon points="156.3,343.6 164.3,343.6 164.3,351.6 156.3,351.6" fill="rgb(230,127,0)"/><text xml:space="preserve" x="160.3" y="350.433" font-family="Calibri" font-size="7.5" fill="rgb(0,0,0)" text-anchor="middle">4</text>
<polygon points="164.3,343.6 172.3,343.6 172.3,351.6 164.3,351.6" fill="rgb(230,127,0)"/><text xml:space="preserve" x="168.3" y="350.433" font-family="Calibri" font-size="7.5" fill="rgb(0,0,0)" text-anchor="middle">4</text>
<polygon points="172.3,343.6 180.3,343.6 180.3,351.6 172.3,351.6" fill="rgb(230,127,0)"/><text xml:space="preserve" x="176.3" y="350.433" font-family="Calibri" font-size="7.5" fill="rgb(0,0,0)" text-anchor="middle">4</text>
<polygon points="180.3,343.6 188.3,343.6 188.3,351.6 180.3,351.6" fill="rgb(0,205,0)"/><text xml:space="preserve" x="184.3" y="350.433" font-family="Calibri" font-size="7.5" fill="rgb(255,255,255)" text-anchor="middle">1</text>
<polygon points="198.3,343.6 206.3,343.6 206.3,351.6 198.3,351.6" fill="rgb(34,163,142)"/>
<polygon points="206.3,343.6 214.3,343.6 214.3,351.6 206.3,351.6" fill="rgb(24,121,140)"/>
<polygon points="214.3,343.6 222.3,343.6 222.3,351.6 214.3,351.6" fill="rgb(19,103,139)"/>
<polygon points="222.3,343.6 230.3,343.6 230.3,351.6 222.3,351.6" fill="rgb(28,138,141)"/>
<polygon points="230.3,343.6 238.3,343.6 238.3,351.6 230.3,351.6" fill="rgb(21,110,139)"/>
<polygon points="238.3,343.6 246.3,343.6 246.3,351.6 238.3,351.6" fill="rgb(5,50,136)"/>
<polygon points="256.3,343.6 264.3,343.6 264.3,351.6 256.3,351.6" fill="rgb(255,255,255)"/>
<polygon points="264.3,343.6 272.3,343.6 272.3,351.6 264.3,351.6" fill="rgb(255,255,255)"/>
<polygon points="272.3,343.6 280.3,343.6 280.3,351.6 272.3,351.6" fill="rgb(255,255,255)"/>
<polygon points="280.3,343.6 288.3,343.6 288.3,351.6 280.3,351.6" fill="rgb(255,255,255)"/>
<polygon points="288.3,343.6 296.3,343.6 296.3,351.6 288.3,351.6" fill="rgb(255,255,255)"/>
<polygon points="296.3,343.6 304.3,343.6 304.3,351.6 296.3,351.6" fill="rgb(255,255,255)"/>
<polygon points="304.3,343.6 312.3,343.6 312.3,351.6 304.3,351.6" fill="rgb(255,255,255)"/>
<polygon points="312.3,343.6 320.3,343.6 320.3,351.6 312.3,351.6" fill="rgb(255,255,255)"/>
<polygon points="140.3,351.6 148.3,351.6 148.3,359.6 140.3,359.6" fill="rgb(230,127,0)"/><text xml:space="preserve" x="144.3" y="358.433" font-family="Calibri" font-size="7.5" fill="rgb(0,0,0)" text-anchor="middle">4</text>
<polygon points="148.3,351.6 156.3,351.6 156.3,359.6 148.3,359.6" fill="rgb(230,127,0)"/><text xml:space="preserve" x="152.3" y="358.433" font-family="Calibri" font-size="7.5" fill="rgb(0,0,0)" text-anchor="middle">4</text>
<polygon points="156.3,351.6 164.3,351.6 164.3,359.6 156.3,359.6" fill="rgb(230,127,0)"/><text xml:space="preserve" x="160.3" y="358.433" font-family="Calibri" font-size="7.5" fill="rgb(0,0,0)" text-anchor="middle">4</text>
<polygon points="164.3,351.6 172.3,351.6 172.3,359.6 164.3,359.6" fill="rgb(230,127,0)"/><text xml:space="preserve" x="168.3" y="358.433" font-family="Calibri" font-size="7.5" fill="rgb(0,0,0)" text-anchor="middle">4</text>
<polygon points="172.3,351.6 180.3,351.6 180.3,359.6 172.3,359.6" fill="rgb(230,127,0)"/><text xml:space="preserve" x="176.3" y="358.433" font-family="Calibri" font-size="7.5" fill="rgb(0,0,0)" text-anchor="middle">4</text>
<polygon points="180.3,351.6 188.3,351.6 188.3,359.6 180.3,359.6" fill="rgb(0,205,0)"/><text xml:space="preserve" x="184.3" y="358.433" font-family="Calibri" font-size="7.5" fill="rgb(255,255,255)" text-anchor="middle">1</text>
<polygon points="198.3,351.6 206.3,351.6 206.3,359.6 198.3,359.6" fill="rgb(35,167,143)"/>
<polygon points="206.3,351.6 214.3,351.6 214.3,359.6 206.3,359.6" fill="rgb(21,110,139)"/>
<polygon points="214.3,351.6 222.3,351.6 222.3,359.6 214.3,359.6" fill="rgb(24,123,140)"/>
<polygon points="222.3,351.6 230.3,351.6 230.3,359.6 222.3,359.6" fill="rgb(15,85,138)"/>
<polygon points="230.3,351.6 238.3,351.6 238.3,359.6 230.3,359.6" fill="rgb(15,88,138)"/>
<polygon points="238.3,351.6 246.3,351.6 246.3,359.6 238.3,359.6" fill="rgb(4,43,135)"/>
<polygon points="256.3,351.6 264.3,351.6 264.3,359.6 256.3,359.6" fill="rgb(255,255,255)"/>
<polygon points="264.3,351.6 272.3,351.6 272.3,359.6 264.3,359.6" fill="rgb(255,255,255)"/>
<polygon points="272.3,351.6 280.3,351.6 280.3,359.6 272.3,359.6" fill="rgb(255,255,255)"/>
<polygon points="280.3,351.6 288.3,351.6 288.3,359.6 280.3,359.6" fill="rgb(255,255,255)"/>
<polygon points="288.3,351.6 296.3,351.6 296.3,359.6 288.3,359.6" fill="rgb(255,255,255)"/>
<polygon points="296.3,351.6 304.3,351.6 304.3,359.6 296.3,359.6" fill="rgb(255,255,255)"/>
<polygon points="304.3,351.6 312.3,351.6 312.3,359.6 304.3,359.6" fill="rgb(255,255,255)"/>
<polygon points="312.3,351.6 320.3,351.6 320.3,359.6 312.3,359.6" fill="rgb(255,255,255)"/>
<polygon points="140.3,359.6 148.3,359.6 148.3,367.6 140.3,367.6" fill="rgb(230,127,0)"/><text xml:space="preserve" x="144.3" y="366.433" font-family="Calibri" font-size="7.5" fill="rgb(0,0,0)" text-anchor="middle">4</text>
<polygon points="148.3,359.6 156.3,359.6 156.3,367.6 148.3,367.6" fill="rgb(230,127,0)"/><text xml:space="preserve" x="152.3" y="366.433" font-family="Calibri" font-size="7.5" fill="rgb(0,0,0)" text-anchor="middle">4</text>
<polygon points="156.3,359.6 164.3,359.6 164.3,367.6 156.3,367.6" fill="rgb(230,127,0)"/><text xml:space="preserve" x="160.3" y="366.433" font-family="Calibri" font-size="7.5" fill="rgb(0,0,0)" text-anchor="middle">4</text>
<polygon points="164.3,359.6 172.3,359.6 172.3,367.6 164.3,367.6" fill="rgb(230,127,0)"/><text xml:space="preserve" x="168.3" y="366.433" font-family="Calibri" font-size="7.5" fill="rgb(0,0,0)" text-anchor="middle">4</text>
<polygon points="172.3,359.6 180.3,359.6 180.3,367.6 172.3,367.6" fill="rgb(230,127,0)"/><text xml:space="preserve" x="176.3" y="366.433" font-family="Calibri" font-size="7.5" fill="rgb(0,0,0)" text-anchor="middle">4</text>
<polygon points="180.3,359.6 188.3,359.6 188.3,367.6 180.3,367.6" fill="rgb(0,205,0)"/><text xml:space="preserve" x="184.3" y="366.433" font-family="Calibri" font-size="7.5" fill="rgb(255,255,255)" text-anchor="middle">1</text>
<polygon points="198.3,359.6 206.3,359.6 206.3,367.6 198.3,367.6" fill="rgb(32,155,142)"/>
<polygon points="206.3,359.6 214.3,359.6 214.3,367.6 206.3,367.6" fill="rgb(26,130,140)"/>
<polygon points="214.3,359.6 222.3,359.6 222.3,367.6 214.3,367.6" fill="rgb(21,111,139)"/>
<polygon points="222.3,359.6 230.3,359.6 230.3,367.6 222.3,367.6" fill="rgb(21,111,139)"/>
<polygon points="230.3,359.6 238.3,359.6 238.3,367.6 230.3,367.6" fill="rgb(13,79,138)"/>
<polygon points="238.3,359.6 246.3,359.6 246.3,367.6 238.3,367.6" fill="rgb(2,38,135)"/>
<polygon points="256.3,359.6 264.3,359.6 264.3,367.6 256.3,367.6" fill="rgb(255,255,255)"/>
<polygon points="264.3,359.6 272.3,359.6 272.3,367.6 264.3,367.6" fill="rgb(255,255,255)"/>
<polygon points="272.3,359.6 280.3,359.6 280.3,367.6 272.3,367.6" fill="rgb(255,255,255)"/>
<polygon points="280.3,359.6 288.3,359.6 288.3,367.6 280.3,367.6" fill="rgb(255,255,255)"/>
<polygon points="288.3,359.6 296.3,359.6 296.3,367.6 288.3,367.6" fill="rgb(255,255,255)"/>
<polygon points="296.3,359.6 304.3,359.6 304.3,367.6 296.3,367.6" fill="rgb(255,255,255)"/>
<polygon points="304.3,359.6 312.3,359.6 312.3,367.6 304.3,367.6" fill="rgb(255,255,255)"/>
<polygon points="312.3,359.6 320.3,359.6 320.3,367.6 312.3,367.6" fill="rgb(255,255,255)"/>
<polygon points="140.3,367.6 148.3,367.6 148.3,375.6 140.3,375.6" fill="rgb(230,127,0)"/><text xml:space="preserve" x="144.3" y="374.433" font-family="Calibri" font-size="7.5" fill="rgb(0,0,0)" text-anchor="middle">4</text>
<polygon points="148.3,367.6 156.3,367.6 156.3,375.6 148.3,375.6" fill="rgb(230,127,0)"/><text xml:space="preserve" x="152.3" y="374.433" font-family="Calibri" font-size="7.5" fill="rgb(0,0,0)" text-anchor="middle">4</text>
<polygon points="156.3,367.6 164.3,367.6 164.3,375.6 156.3,375.6" fill="rgb(230,127,0)"/><text xml:space="preserve" x="160.3" y="374.433" font-family="Calibri" font-size="7.5" fill="rgb(0,0,0)" text-anchor="middle">4</text>
<polygon points="164.3,367.6 172.3,367.6 172.3,375.6 164.3,375.6" fill="rgb(230,127,0)"/><text xml:space="preserve" x="168.3" y="374.433" font-family="Calibri" font-size="7.5" fill="rgb(0,0,0)" text-anchor="middle">4</text>
<polygon points="172.3,367.6 180.3,367.6 180.3,375.6 172.3,375.6" fill="rgb(230,127,0)"/><text xml:space="preserve" x="176.3" y="374.433" font-family="Calibri" font-size="7.5" fill="rgb(0,0,0)" text-anchor="middle">4</text>
<polygon points="180.3,367.6 188.3,367.6 188.3,375.6 180.3,375.6" fill="rgb(0,205,0)"/><text xml:space="preserve" x="184.3" y="374.433" font-family="Calibri" font-size="7.5" fill="rgb(255,255,255)" text-anchor="middle">1</text>
<polygon points="198.3,367.6 206.3,367.6 206.3,375.6 198.3,375.6" fill="rgb(29,143,141)"/>
<polygon points="206.3,367.6 214.3,367.6 214.3,375.6 206.3,375.6" fill="rgb(24,124,140)"/>
<polygon points="214.3,367.6 222.3,367.6 222.3,375.6 214.3,375.6" fill="rgb(26,131,141)"/>
<polygon points="222.3,367.6 230.3,367.6 230.3,375.6 222.3,375.6" fill="rgb(30,146,141)"/>
<polygon points="230.3,367.6 238.3,367.6 238.3,375.6 230.3,375.6" fill="rgb(32,155,142)"/>
<polygon points="238.3,367.6 246.3,367.6 246.3,375.6 238.3,375.6" fill="rgb(4,43,135)"/>
<polygon points="256.3,367.6 264.3,367.6 264.3,375.6 256.3,375.6" fill="rgb(255,255,255)"/>
<polygon points="264.3,367.6 272.3,367.6 272.3,375.6 264.3,375.6" fill="rgb(255,255,255)"/>
<polygon points="272.3,367.6 280.3,367.6 280.3,375.6 272.3,375.6" fill="rgb(255,255,255)"/>
<polygon points="280.3,367.6 288.3,367.6 288.3,375.6 280.3,375.6" fill="rgb(255,255,255)"/>
<polygon points="288.3,367.6 296.3,367.6 296.3,375.6 288.3,375.6" fill="rgb(255,255,255)"/>
<polygon points="296.3,367.6 304.3,367.6 304.3,375.6 296.3,375.6" fill="rgb(255,255,255)"/>
<polygon points="304.3,367.6 312.3,367.6 312.3,375.6 304.3,375.6" fill="rgb(255,255,255)"/>
<polygon points="312.3,367.6 320.3,367.6 320.3,375.6 312.3,375.6" fill="rgb(255,255,255)"/>
<polygon points="140.3,375.6 148.3,375.6 148.3,383.6 140.3,383.6" fill="rgb(230,127,0)"/><text xml:space="preserve" x="144.3" y="382.433" font-family="Calibri" font-size="7.5" fill="rgb(0,0,0)" text-anchor="middle">4</text>
<polygon points="148.3,375.6 156.3,375.6 156.3,383.6 148.3,383.6" fill="rgb(230,127,0)"/><text xml:space="preserve" x="152.3" y="382.433" font-family="Calibri" font-size="7.5" fill="rgb(0,0,0)" text-anchor="middle">4</text>
<polygon points="156.3,375.6 164.3,375.6 164.3,383.6 156.3,383.6" fill="rgb(230,127,0)"/><text xml:space="preserve" x="160.3" y="382.433" font-family="Calibri" font-size="7.5" fill="rgb(0,0,0)" text-anchor="middle">4</text>
<polygon points="164.3,375.6 172.3,375.6 172.3,383.6 164.3,383.6" fill="rgb(230,127,0)"/><text xml:space="preserve" x="168.3" y="382.433" font-family="Calibri" font-size="7.5" fill="rgb(0,0,0)" text-anchor="middle">4</text>
<polygon points="172.3,375.6 180.3,375.6 180.3,383.6 172.3,383.6" fill="rgb(230,127,0)"/><text xml:space="preserve" x="176.3" y="382.433" font-family="Calibri" font-size="7.5" fill="rgb(0,0,0)" text-anchor="middle">4</text>
<polygon points="180.3,375.6 188.3,375.6 188.3,383.6 180.3,383.6" fill="rgb(0,205,0)"/><text xml:space="preserve" x="184.3" y="382.433" font-family="Calibri" font-size="7.5" fill="rgb(255,255,255)" text-anchor="middle">1</text>
<polygon points="198.3,375.6 206.3,375.6 206.3,383.6 198.3,383.6" fill="rgb(31,149,142)"/>
<polygon points="206.3,375.6 214.3,375.6 214.3,383.6 206.3,383.6" fill="rgb(21,110,139)"/>
<polygon points="214.3,375.6 222.3,375.6 222.3,383.6 214.3,383.6" fill="rgb(15,88,138)"/>
<polygon points="222.3,375.6 230.3,375.6 230.3,383.6 222.3,383.6" fill="rgb(22,114,139)"/>
<polygon points="230.3,375.6 238.3,375.6 238.3,383.6 230.3,383.6" fill="rgb(16,91,138)"/>
<polygon points="238.3,375.6 246.3,375.6 246.3,383.6 238.3,383.6" fill="rgb(1,33,135)"/>
<polygon points="256.3,375.6 264.3,375.6 264.3,383.6 256.3,383.6" fill="rgb(255,255,255)"/>
<polygon points="264.3,375.6 272.3,375.6 272.3,383.6 264.3,383.6" fill="rgb(255,255,255)"/>
<polygon points="272.3,375.6 280.3,375.6 280.3,383.6 272.3,383.6" fill="rgb(255,255,255)"/>
<polygon points="280.3,375.6 288.3,375.6 288.3,383.6 280.3,383.6" fill="rgb(255,255,255)"/>
<polygon points="288.3,375.6 296.3,375.6 296.3,383.6 288.3,383.6" fill="rgb(255,255,255)"/>
<polygon points="296.3,375.6 304.3,375.6 304.3,383.6 296.3,383.6" fill="rgb(255,255,255)"/>
<polygon points="304.3,375.6 312.3,375.6 312.3,383.6 304.3,383.6" fill="rgb(255,255,255)"/>
<polygon points="312.3,375.6 320.3,375.6 320.3,383.6 312.3,383.6" fill="rgb(255,255,255)"/>
<polygon points="140.3,383.6 148.3,383.6 148.3,391.6 140.3,391.6" fill="rgb(230,127,0)"/><text xml:space="preserve" x="144.3" y="390.433" font-family="Calibri" font-size="7.5" fill="rgb(0,0,0)" text-anchor="middle">4</text>
<polygon points="148.3,383.6 156.3,383.6 156.3,391.6 148.3,391.6" fill="rgb(230,127,0)"/><text xml:space="preserve" x="152.3" y="390.433" font-family="Calibri" font-size="7.5" fill="rgb(0,0,0)" text-anchor="middle">4</text>
<polygon points="156.3,383.6 164.3,383.6 164.3,391.6 156.3,391.6" fill="rgb(230,127,0)"/><text xml:space="preserve" x="160.3" y="390.433" font-family="Calibri" font-size="7.5" fill="rgb(0,0,0)" text-anchor="middle">4</text>
<polygon points="164.3,383.6 172.3,383.6 172.3,391.6 164.3,391.6" fill="rgb(230,127,0)"/><text xml:space="preserve" x="168.3" y="390.433" font-family="Calibri" font-size="7.5" fill="rgb(0,0,0)" text-anchor="middle">4</text>
<polygon points="172.3,383.6 180.3,383.6 180.3,391.6 172.3,391.6" fill="rgb(230,127,0)"/><text xml:space="preserve" x="176.3" y="390.433" font-family="Calibri" font-size="7.5" fill="rgb(0,0,0)" text-anchor="middle">4</text>
<polygon points="180.3,383.6 188.3,383.6 188.3,391.6 180.3,391.6" fill="rgb(0,205,0)"/><text xml:space="preserve" x="184.3" y="390.433" font-family="Calibri" font-size="7.5" fill="rgb(255,255,255)" text-anchor="middle">1</text>
<polygon points="198.3,383.6 206.3,383.6 206.3,391.6 198.3,391.6" fill="rgb(21,112,139)"/>
<polygon points="206.3,383.6 214.3,383.6 214.3,391.6 206.3,391.6" fill="rgb(16,91,138)"/>
<polygon points="214.3,383.6 222.3,383.6 222.3,391.6 214.3,391.6" fill="rgb(23,120,140)"/>
<polygon points="222.3,383.6 230.3,383.6 230.3,391.6 222.3,391.6" fill="rgb(20,108,139)"/>
<polygon points="230.3,383.6 238.3,383.6 238.3,391.6 230.3,391.6" fill="rgb(21,110,139)"/>
<polygon points="238.3,383.6 246.3,383.6 246.3,391.6 238.3,391.6" fill="rgb(0,28,135)"/>
<polygon points="256.3,383.6 264.3,383.6 264.3,391.6 256.3,391.6" fill="rgb(205,0,205)"/>
<polygon points="264.3,383.6 272.3,383.6 272.3,391.6 264.3,391.6" fill="rgb(255,255,255)"/>
<polygon points="272.3,383.6 280.3,383.6 280.3,391.6 272.3,391.6" fill="rgb(255,255,255)"/>
<polygon points="280.3,383.6 288.3,383.6 288.3,391.6 280.3,391.6" fill="rgb(255,255,255)"/>
<polygon points="288.3,383.6 296.3,383.6 296.3,391.6 288.3,391.6" fill="rgb(255,255,255)"/>
<polygon points="296.3,383.6 304.3,383.6 304.3,391.6 296.3,391.6" fill="rgb(255,255,255)"/>
<polygon points="304.3,383.6 312.3,383.6 312.3,391.6 304.3,391.6" fill="rgb(255,255,255)"/>
<polygon points="312.3,383.6 320.3,383.6 320.3,391.6 312.3,391.6" fill="rgb(255,255,255)"/>
<polygon points="140.3,391.6 148.3,391.6 148.3,399.6 140.3,399.6" fill="rgb(230,127,0)"/><text xml:space="preserve" x="144.3" y="398.433" font-family="Calibri" font-size="7.5" fill="rgb(0,0,0)" text-anchor="middle">4</text>
<polygon points="148.3,391.6 156.3,391.6 156.3,399.6 148.3,399.6" fill="rgb(230,127,0)"/><text xml:space="preserve" x="152.3" y="398.433" font-family="Calibri" font-size="7.5" fill="rgb(0,0,0)" text-anchor="middle">4</text>
<polygon points="156.3,391.6 164.3,391.6 164.3,399.6 156.3,399.6" fill="rgb(230,127,0)"/><text xml:space="preserve" x="160.3" y="398.433" font-family="Calibri" font-size="7.5" fill="rgb(0,0,0)" text-anchor="middle">4</text>
<polygon points="164.3,391.6 172.3,391.6 172.3,399.6 164.3,399.6" fill="rgb(230,127,0)"/><text xml:space="preserve" x="168.3" y="398.433" font-family="Calibri" font-size="7.5" fill="rgb(0,0,0)" text-anchor="middle">4</text>
<polygon points="172.3,391.6 180.3,391.6 180.3,399.6 172.3,399.6" fill="rgb(230,127,0)"/><text xml:space="preserve" x="176.3" y="398.433" font-family="Calibri" font-size="7.5" fill="rgb(0,0,0)" text-anchor="middle">4</text>
<polygon points="180.3,391.6 188.3,391.6 188.3,399.6 180.3,399.6" fill="rgb(0,205,0)"/><text xml:space="preserve" x="184.3" y="398.433" font-family="Calibri" font-size="7.5" fill="rgb(255,255,255)" text-anchor="middle">1</text>
<polygon points="198.3,391.6 206.3,391.6 206.3,399.6 198.3,399.6" fill="rgb(19,103,139)"/>
<polygon points="206.3,391.6 214.3,391.6 214.3,399.6 206.3,399.6" fill="rgb(16,89,138)"/>
<polygon points="214.3,391.6 222.3,391.6 222.3,399.6 214.3,399.6" fill="rgb(24,124,140)"/>
<polygon points="222.3,391.6 230.3,391.6 230.3,399.6 222.3,399.6" fill="rgb(32,152,142)"/>
<polygon points="230.3,391.6 238.3,391.6 238.3,399.6 230.3,399.6" fill="rgb(29,143,141)"/>
<polygon points="238.3,391.6 246.3,391.6 246.3,399.6 238.3,399.6" fill="rgb(0,28,135)"/>
<polygon points="256.3,391.6 264.3,391.6 264.3,399.6 256.3,399.6" fill="rgb(205,0,205)"/>
<polygon points="264.3,391.6 272.3,391.6 272.3,399.6 264.3,399.6" fill="rgb(255,255,255)"/>
<polygon points="272.3,391.6 280.3,391.6 280.3,399.6 272.3,399.6" fill="rgb(255,255,255)"/>
<polygon points="280.3,391.6 288.3,391.6 288.3,399.6 280.3,399.6" fill="rgb(255,255,255)"/>
<polygon points="288.3,391.6 296.3,391.6 296.3,399.6 288.3,399.6" fill="rgb(255,255,255)"/>
<polygon points="296.3,391.6 304.3,391.6 304.3,399.6 296.3,399.6" fill="rgb(255,255,255)"/>
<polygon points="304.3,391.6 312.3,391.6 312.3,399.6 304.3,399.6" fill="rgb(255,255,255)"/>
<polygon points="312.3,391.6 320.3,391.6 320.3,399.6 312.3,399.6" fill="rgb(255,255,255)"/>
<polygon points="140.3,335.6 188.3,335.6 188.3,399.6 140.3,399.6" fill="none" stroke="black" stroke-width="1"/>
<polygon points="198.3,335.6 246.3,335.6 246.3,399.6 198.3,399.6" fill="none" stroke="black" stroke-width="1"/>
<polygon points="256.3,335.6 320.3,335.6 320.3,399.6 256.3,399.6" fill="none" stroke="black" stroke-width="1"/>
<text xml:space="preserve" x="170.15" y="432.6" font-family="Calibri" font-size="8" text-anchor="middle">ClusterAssignment</text>
<polygon points="120.15,439.6 140.15,439.6 140.15,459.6 120.15,459.6" fill="rgb(0,205,0)"/><polygon points="120.15,439.6 140.15,439.6 140.15,459.6 120.15,459.6" fill="none" stroke="black" stroke-width="1"/><text xml:space="preserve" x="130.15" y="452.433" font-family="Calibri" font-size="7.5" fill="rgb(255,255,255)" text-anchor="middle">1.0</text>
<polygon points="140.15,439.6 160.15,439.6 160.15,459.6 140.15,459.6" fill="rgb(127,230,0)"/><polygon points="140.15,439.6 160.15,439.6 160.15,459.6 140.15,459.6" fill="none" stroke="black" stroke-width="1"/><text xml:space="preserve" x="150.15" y="452.433" font-family="Calibri" font-size="7.5" fill="rgb(0,0,0)" text-anchor="middle">2.0</text>
<polygon points="160.15,439.6 180.15,439.6 180.15,459.6 160.15,459.6" fill="rgb(255,255,0)"/><polygon points="160.15,439.6 180.15,439.6 180.15,459.6 160.15,459.6" fill="none" stroke="black" stroke-width="1"/><text xml:space="preserve" x="170.15" y="452.433" font-family="Calibri" font-size="7.5" fill="rgb(0,0,0)" text-anchor="middle">3.0</text>
<polygon points="180.15,439.6 200.15,439.6 200.15,459.6 180.15,459.6" fill="rgb(230,127,0)"/><polygon points="180.15,439.6 200.15,439.6 200.15,459.6 180.15,459.6" fill="none" stroke="black" stroke-width="1"/><text xml:space="preserve" x="190.15" y="452.433" font-family="Calibri" font-size="7.5" fill="rgb(0,0,0)" text-anchor="middle">4.0</text>
<polygon points="200.15,439.6 220.15,439.6 220.15,459.6 200.15,459.6" fill="rgb(205,0,0)"/><polygon points="200.15,439.6 220.15,439.6 220.15,459.6 200.15,459.6" fill="none" stroke="black" stroke-width="1"/><text xml:space="preserve" x="210.15" y="452.433" font-family="Calibri" font-size="7.5" fill="rgb(255,255,255)" text-anchor="middle">5.0</text>
<text xml:space="preserve" x="170.15" y="492.6" font-family="Calibri" font-size="8" text-anchor="middle">Expression</text>
<polygon points="120.15,499.6 140.15,499.6 140.15,519.6 120.15,519.6" fill="rgb(0,27,135)"/><polygon points="120.15,499.6 140.15,499.6 140.15,519.6 120.15,519.6" fill="none" stroke="black" stroke-width="1"/><text xml:space="preserve" x="130.15" y="512.433" font-family="Calibri" font-size="7.5" fill="rgb(255,255,255)" text-anchor="middle">0.0</text>
<polygon points="140.15,499.6 160.15,499.6 160.15,519.6 140.15,519.6" fill="rgb(24,123,140)"/><polygon points="140.15,499.6 160.15,499.6 160.15,519.6 140.15,519.6" fill="none" stroke="black" stroke-width="1"/><text xml:space="preserve" x="150.15" y="512.433" font-family="Calibri" font-size="7.5" fill="rgb(255,255,255)" text-anchor="middle">0.8</text>
<polygon points="160.15,499.6 180.15,499.6 180.15,519.6 160.15,519.6" fill="rgb(49,219,146)"/><polygon points="160.15,499.6 180.15,499.6 180.15,519.6 160.15,519.6" fill="none" stroke="black" stroke-width="1"/><text xml:space="preserve" x="170.15" y="512.433" font-family="Calibri" font-size="7.5" fill="rgb(0,0,0)" text-anchor="middle">1.5</text>
<polygon points="180.15,499.6 200.15,499.6 200.15,519.6 180.15,519.6" fill="rgb(150,206,73)"/><polygon points="180.15,499.6 200.15,499.6 200.15,519.6 180.15,519.6" fill="none" stroke="black" stroke-width="1"/><text xml:space="preserve" x="190.15" y="512.433" font-family="Calibri" font-size="7.5" fill="rgb(0,0,0)" text-anchor="middle">2.2</text>
<polygon points="200.15,499.6 220.15,499.6 220.15,519.6 200.15,519.6" fill="rgb(252,194,1)"/><polygon points="200.15,499.6 220.15,499.6 220.15,519.6 200.15,519.6" fill="none" stroke="black" stroke-width="1"/><text xml:space="preserve" x="210.15" y="512.433" font-family="Calibri" font-size="7.5" fill="rgb(0,0,0)" text-anchor="middle">3.0</text>
<text xml:space="preserve" x="170.15" y="552.6" font-family="Calibri" font-size="8" text-anchor="middle">PANTHERclass</text>
<polygon points="120.15,559.6 140.15,559.6 140.15,579.6 120.15,579.6" fill="rgb(255,255,255)"/><polygon points="120.15,559.6 140.15,559.6 140.15,579.6 120.15,579.6" fill="none" stroke="black" stroke-width="1"/><text xml:space="preserve" x="130.15" y="572.433" font-family="Calibri" font-size="7.5" fill="rgb(0,0,0)" text-anchor="middle">0.0</text>
<polygon points="140.15,559.6 160.15,559.6 160.15,579.6 140.15,579.6" fill="rgb(242,191,242)"/><polygon points="140.15,559.6 160.15,559.6 160.15,579.6 140.15,579.6" fill="none" stroke="black" stroke-width="1"/><text xml:space="preserve" x="150.15" y="572.433" font-family="Calibri" font-size="7.5" fill="rgb(0,0,0)" text-anchor="middle">0.2</text>
<polygon points="160.15,559.6 180.15,559.6 180.15,579.6 160.15,579.6" fill="rgb(230,127,230)"/><polygon points="160.15,559.6 180.15,559.6 180.15,579.6 160.15,579.6" fill="none" stroke="black" stroke-width="1"/><text xml:space="preserve" x="170.15" y="572.433" font-family="Calibri" font-size="7.5" fill="rgb(0,0,0)" text-anchor="middle">0.5</text>
<polygon points="180.15,559.6 200.15,559.6 200.15,579.6 180.15,579.6" fill="rgb(217,63,217)"/><polygon points="180.15,559.6 200.15,559.6 200.15,579.6 180.15,579.6" fill="none" stroke="black" stroke-width="1"/><text xml:space="preserve" x="190.15" y="572.433" font-family="Calibri" font-size="7.5" fill="rgb(255,255,255)" text-anchor="middle">0.8</text>
<polygon points="200.15,559.6 220.15,559.6 220.15,579.6 200.15,579.6" fill="rgb(205,0,205)"/><polygon points="200.15,559.6 220.15,559.6 220.15,579.6 200.15,579.6" fill="none" stroke="black" stroke-width="1"/><text xml:space="preserve" x="210.15" y="572.433" font-family="Calibri" font-size="7.5" fill="rgb(255,255,255)" text-anchor="middle">1.0</text>
</svg>
