<?xml version="1.0" standalone="no"?><!DOCTYPE svg PUBLIC "-//W3C//DTD SVG 1.1//EN" "http://www.w3.org/Graphics/SVG/1.1/DTD/svg11.dtd">
<svg width="292.6" height="559.6" version="1.1" xmlns="http://www.w3.org/2000/svg">
<text xml:space="preserve" x="88.6" y="342.6" font-family="Calibri" font-size="8" text-anchor="end">C5orf38</text>
<text xml:space="preserve" x="88.6" y="350.6" font-family="Calibri" font-size="8" text-anchor="end">LRRC3B</text>
<text xml:space="preserve" x="88.6" y="358.6" font-family="Calibri" font-size="8" text-anchor="end">IRX2</text>
<text xml:space="preserve" x="99.6" y="331.6" font-family="Calibri" font-size="8" transform="rotate(270 99.6 331.6)">c1</text>
<text xml:space="preserve" x="107.6" y="331.6" font-family="Calibri" font-size="8" transform="rotate(270 107.6 331.6)">c2</text>
<text xml:space="preserve" x="115.6" y="331.6" font-family="Calibri" font-size="8" transform="rotate(270 115.6 331.6)">c5</text>
<text xml:space="preserve" x="123.6" y="331.6" font-family="Calibri" font-size="8" transform="rotate(270 123.6 331.6)">c3</text>
<text xml:space="preserve" x="131.6" y="331.6" font-family="Calibri" font-size="8" transform="rotate(270 131.6 331.6)">c6</text>
<text xml:space="preserve" x="139.6" y="331.6" font-family="Calibri" font-size="8" transform="rotate(270 139.6 331.6)">c4</text>
<text xml:space="preserve" x="157.6" y="331.6" font-family="Calibri" font-size="8" transform="rotate(270 157.6 331.6)">c1_mean</text>
<text xml:space="preserve" x="165.6" y="331.6" font-family="Calibri" font-size="8" transform="rotate(270 165.6 331.6)">c2_mean</text>
<text xml:space="preserve" x="173.6" y="331.6" font-family="Calibri" font-size="8" transform="rotate(270 173.6 331.6)">c5_mean</text>
<text xml:space="preserve" x="181.6" y="331.6" font-family="Calibri" font-size="8" transform="rotate(270 181.6 331.6)">c3_mean</text>
<text xml:space="preserve" x="189.6" y="331.6" font-family="Calibri" font-size="8" transform="rotate(270 189.6 331.6)">c6_mean</text>
<text xml:space="preserve" x="197.6" y="331.6" font-family="Calibri" font-size="8" transform="rotate(270 197.6 331.6)">c4_mean</text>
<text xml:space="preserve" x="215.6" y="331.6" font-family="Calibri" font-size="8" transform="rotate(270 215.6 331.6)">transcription_factor</text>
<text xml:space="preserve" x="223.6" y="331.6" font-family="Calibri" font-size="8" transform="rotate(270 223.6 331.6)">transmembrane_signal_receptor</text>
<text xml:space="preserve" x="231.6" y="331.6" font-family="Calibri" font-size="8" transform="rotate(270 231.6 331.6)">growth_factor</text>
<text xml:space="preserve" x="239.6" y="331.6" font-family="Calibri" font-size="8" transform="rotate(270 239.6 331.6)">peptide_hormone</text>
<text xml:space="preserve" x="247.6" y="331.6" font-family="Calibri" font-size="8" transform="rotate(270 247.6 331.6)">cytoskeletal_protein</text>
<text xml:space="preserve" x="255.6" y="331.6" font-family="Calibri" font-size="8" transform="rotate(270 255.6 331.6)">ion_channel</text>
<text xml:space="preserve" x="263.6" y="331.6" font-family="Calibri" font-size="8" transform="rotate(270 263.6 331.6)">integrin</text>
<text xml:space="preserve" x="271.6" y="331.6" font-family="Calibri" font-size="8" transform="rotate(270 271.6 331.6)">extracellular_matrix_protein</text>
<polygon points="92.6,335.6 100.6,335.6 100.6,343.6 92.6,343.6" fill="rgb(127,230,0)"/><text xml:space="preserve" x="96.6" y="342.433" font-family="Calibri" font-size="7.5" fill="rgb(0,0,0)" text-anchor="middle">2</text>
<polygon points="100.6,335.6 108.6,335.6 108.6,343.6 100.6,343.6" fill="rgb(230,127,0)"/><text xml:space="preserve" x="104.6" y="342.433" font-family="Calibri" font-size="7.5" fill="rgb(0,0,0)" text-anchor="middle">4</text>
<polygon points="108.6,335.6 116.6,335.6 116.6,343.6 108.6,343.6" fill="rgb(230,127,0)"/><text xml:space="preserve" x="112.6" y="342.433" font-family="Calibri" font-size="7.5" fill="rgb(0,0,0)" text-anchor="middle">4</text>
<polygon points="116.6,335.6 124.6,335.6 124.6,343.6 116.6,343.6" fill="rgb(205,0,0)"/><text xml:space="preserve" x="120.6" y="342.433" font-family="Calibri" font-size="7.5" fill="rgb(255,255,255)" text-anchor="middle">5</text>
<polygon points="124.6,335.6 132.6,335.6 132.6,343.6 124.6,343.6" fill="rgb(205,0,0)"/><text xml:space="preserve" x="128.6" y="342.433" font-family="Calibri" font-size="7.5" fill="rgb(255,255,255)" text-anchor="middle">5</text>
<polygon points="132.6,335.6 140.6,335.6 140.6,343.6 132.6,343.6" fill="rgb(127,230,0)"/><text xml:space="preserve" x="136.6" y="342.433" font-family="Calibri" font-size="7.5" fill="rgb(0,0,0)" text-anchor="middle">2</text>
<polygon points="150.6,335.6 158.6,335.6 158.6,343.6 150.6,343.6" fill="rgb(16,89,138)"/>
<polygon points="158.6,335.6 166.6,335.6 166.6,343.6 158.6,343.6" fill="rgb(18,98,139)"/>
<polygon points="166.6,335.6 174.6,335.6 174.6,343.6 166.6,343.6" fill="rgb(26,131,141)"/>
<polygon points="174.6,335.6 182.6,335.6 182.6,343.6 174.6,343.6" fill="rgb(46,210,145)"/>
<polygon points="182.6,335.6 190.6,335.6 190.6,343.6 182.6,343.6" fill="rgb(44,202,145)"/>
<polygon points="190.6,335.6 198.6,335.6 198.6,343.6 190.6,343.6" fill="rgb(0,28,135)"/>
<polygon points="208.6,335.6 216.6,335.6 216.6,343.6 208.6,343.6" fill="rgb(255,255,255)"/>
<polygon points="216.6,335.6 224.6,335.6 224.6,343.6 216.6,343.6" fill="rgb(255,255,255)"/>
<polygon points="224.6,335.6 232.6,335.6 232.6,343.6 224.6,343.6" fill="rgb(255,255,255)"/>
<polygon points="232.6,335.6 240.6,335.6 240.6,343.6 232.6,343.6" fill="rgb(255,255,255)"/>
<polygon points="240.6,335.6 248.6,335.6 248.6,343.6 240.6,343.6" fill="rgb(255,255,255)"/>
<polygon points="248.6,335.6 256.6,335.6 256.6,343.6 248.6,343.6" fill="rgb(255,255,255)"/>
<polygon points="256.6,335.6 264.6,335.6 264.6,343.6 256.6,343.6" fill="rgb(255,255,255)"/>
<polygon points="264.6,335.6 272.6,335.6 272.6,343.6 264.6,343.6" fill="rgb(255,255,255)"/>
<polygon points="92.6,343.6 100.6,343.6 100.6,351.6 92.6,351.6" fill="rgb(127,230,0)"/><text xml:space="preserve" x="96.6" y="350.433" font-family="Calibri" font-size="7.5" fill="rgb(0,0,0)" text-anchor="middle">2</text>
<polygon points="100.6,343.6 108.6,343.6 108.6,351.6 100.6,351.6" fill="rgb(230,127,0)"/><text xml:space="preserve" x="104.6" y="350.433" font-family="Calibri" font-size="7.5" fill="rgb(0,0,0)" text-anchor="middle">4</text>
<polygon points="108.6,343.6 116.6,343.6 116.6,351.6 108.6,351.6" fill="rgb(230,127,0)"/><text xml:space="preserve" x="112.6" y="350.433" font-family="Calibri" font-size="7.5" fill="rgb(0,0,0)" text-anchor="middle">4</text>
<polygon points="116.6,343.6 124.6,343.6 124.6,351.6 116.6,351.6" fill="rgb(205,0,0)"/><text xml:space="preserve" x="120.6" y="350.433" font-family="Calibri" font-size="7.5" fill="rgb(255,255,255)" text-anchor="middle">5</text>
<polygon points="124.6,343.6 132.6,343.6 132.6,351.6 124.6,351.6" fill="rgb(205,0,0)"/><text xml:space="preserve" x="128.6" y="350.433" font-family="Calibri" font-size="7.5" fill="rgb(255,255,255)" text-anchor="middle">5</text>
<polygon points="132.6,343.6 140.6,343.6 140.6,351.6 132.6,351.6" fill="rgb(127,230,0)"/><text xml:space="preserve" x="136.6" y="350.433" font-family="Calibri" font-size="7.5" fill="rgb(0,0,0)" text-anchor="middle">2</text>
<polygon points="150.6,343.6 158.6,343.6 158.6,351.6 150.6,351.6" fill="rgb(24,121,140)"/>
<polygon points="158.6,343.6 166.6,343.6 166.6,351.6 158.6,351.6" fill="rgb(16,93,138)"/>
<polygon points="166.6,343.6 174.6,343.6 174.6,351.6 166.6,351.6" fill="rgb(21,110,139)"/>
<polygon points="174.6,343.6 182.6,343.6 182.6,351.6 174.6,351.6" fill="rgb(42,193,144)"/>
<polygon points="182.6,343.6 190.6,343.6 190.6,351.6 182.6,351.6" fill="rgb(37,174,143)"/>
<polygon points="190.6,343.6 198.6,343.6 198.6,351.6 190.6,351.6" fill="rgb(12,74,137)"/>
<polygon points="208.6,343.6 216.6,343.6 216.6,351.6 208.6,351.6" fill="rgb(255,255,255)"/>
<polygon points="216.6,343.6 224.6,343.6 224.6,351.6 216.6,351.6" fill="rgb(205,0,205)"/>
<polygon points="224.6,343.6 232.6,343.6 232.6,351.6 224.6,351.6" fill="rgb(255,255,255)"/>
<polygon points="232.6,343.6 240.6,343.6 240.6,351.6 232.6,351.6" fill="rgb(255,255,255)"/>
<polygon points="240.6,343.6 248.6,343.6 248.6,351.6 240.6,351.6" fill="rgb(255,255,255)"/>
<polygon points="248.6,343.6 256.6,343.6 256.6,351.6 248.6,351.6" fill="rgb(255,255,255)"/>
<polygon points="256.6,343.6 264.6,343.6 264.6,351.6 256.6,351.6" fill="rgb(255,255,255)"/>
<polygon points="264.6,343.6 272.6,343.6 272.6,351.6 264.6,351.6" fill="rgb(255,255,255)"/>
<polygon points="92.6,351.6 100.6,351.6 100.6,359.6 92.6,359.6" fill="rgb(127,230,0)"/><text xml:space="preserve" x="96.6" y="358.433" font-family="Calibri" font-size="7.5" fill="rgb(0,0,0)" text-anchor="middle">2</text>
<polygon points="100.6,351.6 108.6,351.6 108.6,359.6 100.6,359.6" fill="rgb(230,127,0)"/><text xml:space="preserve" x="104.6" y="358.433" font-family="Calibri" font-size="7.5" fill="rgb(0,0,0)" text-anchor="middle">4</text>
<polygon points="108.6,351.6 116.6,351.6 116.6,359.6 108.6,359.6" fill="rgb(230,127,0)"/><text xml:space="preserve" x="112.6" y="358.433" font-family="Calibri" font-size="7.5" fill="rgb(0,0,0)" text-anchor="middle">4</text>
<polygon points="116.6,351.6 124.6,351.6 124.6,359.6 116.6,359.6" fill="rgb(205,0,0)"/><text xml:space="preserve" x="120.6" y="358.433" font-family="Calibri" font-size="7.5" fill="rgb(255,255,255)" text-anchor="middle">5</text>
<polygon points="124.6,351.6 132.6,351.6 132.6,359.6 124.6,359.6" fill="rgb(205,0,0)"/><text xml:space="preserve" x="128.6" y="358.433" font-family="Calibri" font-size="7.5" fill="rgb(255,255,255)" text-anchor="middle">5</text>
<polygon points="132.6,351.6 140.6,351.6 140.6,359.6 132.6,359.6" fill="rgb(127,230,0)"/><text xml:space="preserve" x="136.6" y="358.433" font-family="Calibri" font-size="7.5" fill="rgb(0,0,0)" text-anchor="middle">2</text>
<polygon points="150.6,351.6 158.6,351.6 158.6,359.6 150.6,359.6" fill="rgb(15,88,138)"/>
<polygon points="158.6,351.6 166.6,351.6 166.6,359.6 158.6,359.6" fill="rgb(17,94,138)"/>
<polygon points="166.6,351.6 174.6,351.6 174.6,359.6 166.6,359.6" fill="rgb(25,128,140)"/>
<polygon points="174.6,351.6 182.6,351.6 182.6,359.6 174.6,359.6" fill="rgb(53,218,143)"/>
<polygon points="182.6,351.6 190.6,351.6 190.6,359.6 182.6,359.6" fill="rgb(45,206,145)"/>
<polygon points="190.6,351.6 198.6,351.6 198.6,359.6 190.6,359.6" fill="rgb(0,28,135)"/>
<polygon points="208.6,351.6 216.6,351.6 216.6,359.6 208.6,359.6" fill="rgb(205,0,205)"/>
<polygon points="216.6,351.6 224.6,351.6 224.6,359.6 216.6,359.6" fill="rgb(255,255,255)"/>
<polygon points="224.6,351.6 232.6,351.6 232.6,359.6 224.6,359.6" fill="rgb(255,255,255)"/>
<polygon points="232.6,351.6 240.6,351.6 240.6,359.6 232.6,359.6" fill="rgb(255,255,255)"/>
<polygon points="240.6,351.6 248.6,351.6 248.6,359.6 240.6,359.6" fill="rgb(255,255,255)"/>
<polygon points="248.6,351.6 256.6,351.6 256.6,359.6 248.6,359.6" fill="rgb(255,255,255)"/>
<polygon points="256.6,351.6 264.6,351.6 264.6,359.6 256.6,359.6" fill="rgb(255,255,255)"/>
<polygon points="264.6,351.6 272.6,351.6 272.6,359.6 264.6,359.6" fill="rgb(255,255,255)"/>
<polygon points="92.6,335.6 140.6,335.6 140.6,359.6 92.6,359.6" fill="none" stroke="black" stroke-width="1"/>
<polygon points="150.6,335.6 198.6,335.6 198.6,359.6 150.6,359.6" fill="none" stroke="black" stroke-width="1"/>
<polygon points="208.6,335.6 272.6,335.6 272.6,359.6 208.6,359.6" fill="none" stroke="black" stroke-width="1"/>
<text xml:space="preserve" x="146.3" y="392.6" font-family="Calibri" font-size="8" text-anchor="middle">ClusterAssignment</text>
<polygon points="96.3,399.6 116.3,399.6 116.3,419.6 96.3,419.6" fill="rgb(0,205,0)"/><polygon points="96.3,399.6 116.3,399.6 116.3,419.6 96.3,419.6" fill="none" stroke="black" stroke-width="1"/><text xml:space="preserve" x="106.3" y="412.433" font-family="Calibri" font-size="7.5" fill="rgb(255,255,255)" text-anchor="middle">1.0</text>
<polygon points="116.3,399.6 136.3,399.6 136.3,419.6 116.3,419.6" fill="rgb(127,230,0)"/><polygon points="116.3,399.6 136.3,399.6 136.3,419.6 116.3,419.6" fill="none" stroke="black" stroke-width="1"/><text xml:space="preserve" x="126.3" y="412.433" font-family="Calibri" font-size="7.5" fill="rgb(0,0,0)" text-anchor="middle">2.0</text>
<polygon points="136.3,399.6 156.3,399.6 156.3,419.6 136.3,419.6" fill="rgb(255,255,0)"/><polygon points="136.3,399.6 156.3,399.6 156.3,419.6 136.3,419.6" fill="none" stroke="black" stroke-width="1"/><text xml:space="preserve" x="146.3" y="412.433" font-family="Calibri" font-size="7.5" fill="rgb(0,0,0)" text-anchor="middle">3.0</text>
<polygon points="156.3,399.6 176.3,399.6 176.3,419.6 156.3,419.6" fill="rgb(230,127,0)"/><polygon points="156.3,399.6 176.3,399.6 176.3,419.6 156.3,419.6" fill="none" stroke="black" stroke-width="1"/><text xml:space="preserve" x="166.3" y="412.433" font-family="Calibri" font-size="7.5" fill="rgb(0,0,0)" text-anchor="middle">4.0</text>
<polygon points="176.3,399.6 196.3,399.6 196.3,419.6 176.3,419.6" fill="rgb(205,0,0)"/><polygon points="176.3,399.6 196.3,399.6 196.3,419.6 176.3,419.6" fill="none" stroke="black" stroke-width="1"/><text xml:space="preserve" x="186.3" y="412.433" font-family="Calibri" font-size="7.5" fill="rgb(255,255,255)" text-anchor="middle">5.0</text>
<text xml:space="preserve" x="146.3" y="452.6" font-family="Calibri" font-size="8" text-anchor="middle">Expression</text>
<polygon points="96.3,459.6 116.3,459.6 116.3,479.6 96.3,479.6" fill="rgb(0,27,135)"/><polygon points="96.3,459.6 116.3,459.6 116.3,479.6 96.3,479.6" fill="none" stroke="black" stroke-width="1"/><text xml:space="preserve" x="106.3" y="472.433" font-family="Calibri" font-size="7.5" fill="rgb(255,255,255)" text-anchor="middle">0.0</text>
<polygon points="116.3,459.6 136.3,459.6 136.3,479.6 116.3,479.6" fill="rgb(24,123,140)"/><polygon points="116.3,459.6 136.3,459.6 136.3,479.6 116.3,479.6" fill="none" stroke="black" stroke-width="1"/><text xml:space="preserve" x="126.3" y="472.433" font-family="Calibri" font-size="7.5" fill="rgb(255,255,255)" text-anchor="middle">0.8</text>
<polygon points="136.3,459.6 156.3,459.6 156.3,479.6 136.3,479.6" fill="rgb(49,219,146)"/><polygon points="136.3,459.6 156.3,459.6 156.3,479.6 136.3,479.6" fill="none" stroke="black" stroke-width="1"/><text xml:space="preserve" x="146.3" y="472.433" font-family="Calibri" font-size="7.5" fill="rgb(0,0,0)" text-anchor="middle">1.5</text>
<polygon points="156.3,459.6 176.3,459.6 176.3,479.6 156.3,479.6" fill="rgb(150,206,73)"/><polygon points="156.3,459.6 176.3,459.6 176.3,479.6 156.3,479.6" fill="none" stroke="black" stroke-width="1"/><text xml:space="preserve" x="166.3" y="472.433" font-family="Calibri" font-size="7.5" fill="rgb(0,0,0)" text-anchor="middle">2.2</text>
<polygon points="176.3,459.6 196.3,459.6 196.3,479.6 176.3,479.6" fill="rgb(252,194,1)"/><polygon points="176.3,459.6 196.3,459.6 196.3,479.6 176.3,479.6" fill="none" stroke="black" stroke-width="1"/><text xml:space="preserve" x="186.3" y="472.433" font-family="Calibri" font-size="7.5" fill="rgb(0,0,0)" text-anchor="middle">3.0</text>
<text xml:space="preserve" x="146.3" y="512.6" font-family="Calibri" font-size="8" text-anchor="middle">PANTHERclass</text>
<polygon points="96.3,519.6 116.3,519.6 116.3,539.6 96.3,539.6" fill="rgb(255,255,255)"/><polygon points="96.3,519.6 116.3,519.6 116.3,539.6 96.3,539.6" fill="none" stroke="black" stroke-width="1"/><text xml:space="preserve" x="106.3" y="532.433" font-family="Calibri" font-size="7.5" fill="rgb(0,0,0)" text-anchor="middle">0.0</text>
<polygon points="116.3,519.6 136.3,519.6 136.3,539.6 116.3,539.6" fill="rgb(242,191,242)"/><polygon points="116.3,519.6 136.3,519.6 136.3,539.6 116.3,539.6" fill="none" stroke="black" stroke-width="1"/><text xml:space="preserve" x="126.3" y="532.433" font-family="Calibri" font-size="7.5" fill="rgb(0,0,0)" text-anchor="middle">0.2</text>
<polygon points="136.3,519.6 156.3,519.6 156.3,539.6 136.3,539.6" fill="rgb(230,127,230)"/><polygon points="136.3,519.6 156.3,519.6 156.3,539.6 136.3,539.6" fill="none" stroke="black" stroke-width="1"/><text xml:space="preserve" x="146.3" y="532.433" font-family="Calibri" font-size="7.5" fill="rgb(0,0,0)" text-anchor="middle">0.5</text>
<polygon points="156.3,519.6 176.3,519.6 176.3,539.6 156.3,539.6" fill="rgb(217,63,217)"/><polygon points="156.3,519.6 176.3,519.6 176.3,539.6 156.3,539.6" fill="none" stroke="black" stroke-width="1"/><text xml:space="preserve" x="166.3" y="532.433" font-family="Calibri" font-size="7.5" fill="rgb(255,255,255)" text-anchor="middle">0.8</text>
<polygon points="176.3,519.6 196.3,519.6 196.3,539.6 176.3,539.6" fill="rgb(205,0,205)"/><polygon points="176.3,519.6 196.3,519.6 196.3,539.6 176.3,539.6" fill="none" stroke="black" stroke-width="1"/><text xml:space="preserve" x="186.3" y="532.433" font-family="Calibri" font-size="7.5" fill="rgb(255,255,255)" text-anchor="middle">1.0</text>
</svg>
