<?xml version="1.0" standalone="no"?><!DOCTYPE svg PUBLIC "-//W3C//DTD SVG 1.1//EN" "http://www.w3.org/Graphics/SVG/1.1/DTD/svg11.dtd">
<svg width="274.3" height="559.6" version="1.1" xmlns="http://www.w3.org/2000/svg">
<text xml:space="preserve" x="70.3" y="342.6" font-family="Calibri" font-size="8" text-anchor="end">RGS8</text>
<text xml:space="preserve" x="70.3" y="350.6" font-family="Calibri" font-size="8" text-anchor="end">SCG2</text>
<text xml:space="preserve" x="70.3" y="358.6" font-family="Calibri" font-size="8" text-anchor="end">SALL1</text>
<text xml:space="preserve" x="81.3" y="331.6" font-family="Calibri" font-size="8" transform="rotate(270 81.3 331.6)">c1</text>
<text xml:space="preserve" x="89.3" y="331.6" font-family="Calibri" font-size="8" transform="rotate(270 89.3 331.6)">c2</text>
<text xml:space="preserve" x="97.3" y="331.6" font-family="Calibri" font-size="8" transform="rotate(270 97.3 331.6)">c5</text>
<text xml:space="preserve" x="105.3" y="331.6" font-family="Calibri" font-size="8" transform="rotate(270 105.3 331.6)">c3</text>
<text xml:space="preserve" x="113.3" y="331.6" font-family="Calibri" font-size="8" transform="rotate(270 113.3 331.6)">c6</text>
<text xml:space="preserve" x="121.3" y="331.6" font-family="Calibri" font-size="8" transform="rotate(270 121.3 331.6)">c4</text>
<text xml:space="preserve" x="139.3" y="331.6" font-family="Calibri" font-size="8" transform="rotate(270 139.3 331.6)">c1_mean</text>
<text xml:space="preserve" x="147.3" y="331.6" font-family="Calibri" font-size="8" transform="rotate(270 147.3 331.6)">c2_mean</text>
<text xml:space="preserve" x="155.3" y="331.6" font-family="Calibri" font-size="8" transform="rotate(270 155.3 331.6)">c5_mean</text>
<text xml:space="preserve" x="163.3" y="331.6" font-family="Calibri" font-size="8" transform="rotate(270 163.3 331.6)">c3_mean</text>
<text xml:space="preserve" x="171.3" y="331.6" font-family="Calibri" font-size="8" transform="rotate(270 171.3 331.6)">c6_mean</text>
<text xml:space="preserve" x="179.3" y="331.6" font-family="Calibri" font-size="8" transform="rotate(270 179.3 331.6)">c4_mean</text>
<text xml:space="preserve" x="197.3" y="331.6" font-family="Calibri" font-size="8" transform="rotate(270 197.3 331.6)">transcription_factor</text>
<text xml:space="preserve" x="205.3" y="331.6" font-family="Calibri" font-size="8" transform="rotate(270 205.3 331.6)">transmembrane_signal_receptor</text>
<text xml:space="preserve" x="213.3" y="331.6" font-family="Calibri" font-size="8" transform="rotate(270 213.3 331.6)">growth_factor</text>
<text xml:space="preserve" x="221.3" y="331.6" font-family="Calibri" font-size="8" transform="rotate(270 221.3 331.6)">peptide_hormone</text>
<text xml:space="preserve" x="229.3" y="331.6" font-family="Calibri" font-size="8" transform="rotate(270 229.3 331.6)">cytoskeletal_protein</text>
<text xml:space="preserve" x="237.3" y="331.6" font-family="Calibri" font-size="8" transform="rotate(270 237.3 331.6)">ion_channel</text>
<text xml:space="preserve" x="245.3" y="331.6" font-family="Calibri" font-size="8" transform="rotate(270 245.3 331.6)">integrin</text>
<text xml:space="preserve" x="253.3" y="331.6" font-family="Calibri" font-size="8" transform="rotate(270 253.3 331.6)">extracellular_matrix_protein</text>
<polygon points="74.3,335.6 82.3,335.6 82.3,343.6 74.3,343.6" fill="rgb(230,127,0)"/><text xml:space="preserve" x="78.3" y="342.433" font-family="Calibri" font-size="7.5" fill="rgb(0,0,0)" text-anchor="middle">4</text>
<polygon points="82.3,335.6 90.3,335.6 90.3,343.6 82.3,343.6" fill="rgb(230,127,0)"/><text xml:space="preserve" x="86.3" y="342.433" font-family="Calibri" font-size="7.5" fill="rgb(0,0,0)" text-anchor="middle">4</text>
<polygon points="90.3,335.6 98.3,335.6 98.3,343.6 90.3,343.6" fill="rgb(127,230,0)"/><text xml:space="preserve" x="94.3" y="342.433" font-family="Calibri" font-size="7.5" fill="rgb(0,0,0)" text-anchor="middle">2</text>
<polygon points="98.3,335.6 106.3,335.6 106.3,343.6 98.3,343.6" fill="rgb(127,230,0)"/><text xml:space="preserve" x="102.3" y="342.433" font-family="Calibri" font-size="7.5" fill="rgb(0,0,0)" text-anchor="middle">2</text>
<polygon points="106.3,335.6 114.3,335.6 114.3,343.6 106.3,343.6" fill="rgb(127,230,0)"/><text xml:space="preserve" x="110.3" y="342.433" font-family="Calibri" font-size="7.5" fill="rgb(0,0,0)" text-anchor="middle">2</text>
<polygon points="114.3,335.6 122.3,335.6 122.3,343.6 114.3,343.6" fill="rgb(230,127,0)"/><text xml:space="preserve" x="118.3" y="342.433" font-family="Calibri" font-size="7.5" fill="rgb(0,0,0)" text-anchor="middle">4</text>
<polygon points="132.3,335.6 140.3,335.6 140.3,343.6 132.3,343.6" fill="rgb(22,116,140)"/>
<polygon points="140.3,335.6 148.3,335.6 148.3,343.6 140.3,343.6" fill="rgb(25,125,140)"/>
<polygon points="148.3,335.6 156.3,335.6 156.3,343.6 148.3,343.6" fill="rgb(12,76,137)"/>
<polygon points="156.3,335.6 164.3,335.6 164.3,343.6 156.3,343.6" fill="rgb(1,34,135)"/>
<polygon points="164.3,335.6 172.3,335.6 172.3,343.6 164.3,343.6" fill="rgb(3,39,135)"/>
<polygon points="172.3,335.6 180.3,335.6 180.3,343.6 172.3,343.6" fill="rgb(25,126,140)"/>
<polygon points="190.3,335.6 198.3,335.6 198.3,343.6 190.3,343.6" fill="rgb(255,255,255)"/>
<polygon points="198.3,335.6 206.3,335.6 206.3,343.6 198.3,343.6" fill="rgb(255,255,255)"/>
<polygon points="206.3,335.6 214.3,335.6 214.3,343.6 206.3,343.6" fill="rgb(255,255,255)"/>
<polygon points="214.3,335.6 222.3,335.6 222.3,343.6 214.3,343.6" fill="rgb(255,255,255)"/>
<polygon points="222.3,335.6 230.3,335.6 230.3,343.6 222.3,343.6" fill="rgb(255,255,255)"/>
<polygon points="230.3,335.6 238.3,335.6 238.3,343.6 230.3,343.6" fill="rgb(255,255,255)"/>
<polygon points="238.3,335.6 246.3,335.6 246.3,343.6 238.3,343.6" fill="rgb(255,255,255)"/>
<polygon points="246.3,335.6 254.3,335.6 254.3,343.6 246.3,343.6" fill="rgb(255,255,255)"/>
<polygon points="74.3,343.6 82.3,343.6 82.3,351.6 74.3,351.6" fill="rgb(230,127,0)"/><text xml:space="preserve" x="78.3" y="350.433" font-family="Calibri" font-size="7.5" fill="rgb(0,0,0)" text-anchor="middle">4</text>
<polygon points="82.3,343.6 90.3,343.6 90.3,351.6 82.3,351.6" fill="rgb(230,127,0)"/><text xml:space="preserve" x="86.3" y="350.433" font-family="Calibri" font-size="7.5" fill="rgb(0,0,0)" text-anchor="middle">4</text>
<polygon points="90.3,343.6 98.3,343.6 98.3,351.6 90.3,351.6" fill="rgb(127,230,0)"/><text xml:space="preserve" x="94.3" y="350.433" font-family="Calibri" font-size="7.5" fill="rgb(0,0,0)" text-anchor="middle">2</text>
<polygon points="98.3,343.6 106.3,343.6 106.3,351.6 98.3,351.6" fill="rgb(127,230,0)"/><text xml:space="preserve" x="102.3" y="350.433" font-family="Calibri" font-size="7.5" fill="rgb(0,0,0)" text-anchor="middle">2</text>
<polygon points="106.3,343.6 114.3,343.6 114.3,351.6 106.3,351.6" fill="rgb(127,230,0)"/><text xml:space="preserve" x="110.3" y="350.433" font-family="Calibri" font-size="7.5" fill="rgb(0,0,0)" text-anchor="middle">2</text>
<polygon points="114.3,343.6 122.3,343.6 122.3,351.6 114.3,351.6" fill="rgb(230,127,0)"/><text xml:space="preserve" x="118.3" y="350.433" font-family="Calibri" font-size="7.5" fill="rgb(0,0,0)" text-anchor="middle">4</text>
<polygon points="132.3,343.6 140.3,343.6 140.3,351.6 132.3,351.6" fill="rgb(24,121,140)"/>
<polygon points="140.3,343.6 148.3,343.6 148.3,351.6 140.3,351.6" fill="rgb(30,146,141)"/>
<polygon points="148.3,343.6 156.3,343.6 156.3,351.6 148.3,351.6" fill="rgb(6,53,136)"/>
<polygon points="156.3,343.6 164.3,343.6 164.3,351.6 156.3,351.6" fill="rgb(9,62,137)"/>
<polygon points="164.3,343.6 172.3,343.6 172.3,351.6 164.3,351.6" fill="rgb(16,92,138)"/>
<polygon points="172.3,343.6 180.3,343.6 180.3,351.6 172.3,351.6" fill="rgb(24,124,140)"/>
<polygon points="190.3,343.6 198.3,343.6 198.3,351.6 190.3,351.6" fill="rgb(255,255,255)"/>
<polygon points="198.3,343.6 206.3,343.6 206.3,351.6 198.3,351.6" fill="rgb(255,255,255)"/>
<polygon points="206.3,343.6 214.3,343.6 214.3,351.6 206.3,351.6" fill="rgb(255,255,255)"/>
<polygon points="214.3,343.6 222.3,343.6 222.3,351.6 214.3,351.6" fill="rgb(255,255,255)"/>
<polygon points="222.3,343.6 230.3,343.6 230.3,351.6 222.3,351.6" fill="rgb(255,255,255)"/>
<polygon points="230.3,343.6 238.3,343.6 238.3,351.6 230.3,351.6" fill="rgb(255,255,255)"/>
<polygon points="238.3,343.6 246.3,343.6 246.3,351.6 238.3,351.6" fill="rgb(255,255,255)"/>
<polygon points="246.3,343.6 254.3,343.6 254.3,351.6 246.3,351.6" fill="rgb(255,255,255)"/>
<polygon points="74.3,351.6 82.3,351.6 82.3,359.6 74.3,359.6" fill="rgb(230,127,0)"/><text xml:space="preserve" x="78.3" y="358.433" font-family="Calibri" font-size="7.5" fill="rgb(0,0,0)" text-anchor="middle">4</text>
<polygon points="82.3,351.6 90.3,351.6 90.3,359.6 82.3,359.6" fill="rgb(230,127,0)"/><text xml:space="preserve" x="86.3" y="358.433" font-family="Calibri" font-size="7.5" fill="rgb(0,0,0)" text-anchor="middle">4</text>
<polygon points="90.3,351.6 98.3,351.6 98.3,359.6 90.3,359.6" fill="rgb(127,230,0)"/><text xml:space="preserve" x="94.3" y="358.433" font-family="Calibri" font-size="7.5" fill="rgb(0,0,0)" text-anchor="middle">2</text>
<polygon points="98.3,351.6 106.3,351.6 106.3,359.6 98.3,359.6" fill="rgb(127,230,0)"/><text xml:space="preserve" x="102.3" y="358.433" font-family="Calibri" font-size="7.5" fill="rgb(0,0,0)" text-anchor="middle">2</text>
<polygon points="106.3,351.6 114.3,351.6 114.3,359.6 106.3,359.6" fill="rgb(127,230,0)"/><text xml:space="preserve" x="110.3" y="358.433" font-family="Calibri" font-size="7.5" fill="rgb(0,0,0)" text-anchor="middle">2</text>
<polygon points="114.3,351.6 122.3,351.6 122.3,359.6 114.3,359.6" fill="rgb(230,127,0)"/><text xml:space="preserve" x="118.3" y="358.433" font-family="Calibri" font-size="7.5" fill="rgb(0,0,0)" text-anchor="middle">4</text>
<polygon points="132.3,351.6 140.3,351.6 140.3,359.6 132.3,359.6" fill="rgb(20,107,139)"/>
<polygon points="140.3,351.6 148.3,351.6 148.3,359.6 140.3,359.6" fill="rgb(29,140,141)"/>
<polygon points="148.3,351.6 156.3,351.6 156.3,359.6 148.3,359.6" fill="rgb(20,107,139)"/>
<polygon points="156.3,351.6 164.3,351.6 164.3,359.6 156.3,359.6" fill="rgb(2,38,135)"/>
<polygon points="164.3,351.6 172.3,351.6 172.3,359.6 164.3,359.6" fill="rgb(7,56,136)"/>
<polygon points="172.3,351.6 180.3,351.6 180.3,359.6 172.3,359.6" fill="rgb(31,148,141)"/>
<polygon points="190.3,351.6 198.3,351.6 198.3,359.6 190.3,359.6" fill="rgb(205,0,205)"/>
<polygon points="198.3,351.6 206.3,351.6 206.3,359.6 198.3,359.6" fill="rgb(255,255,255)"/>
<polygon points="206.3,351.6 214.3,351.6 214.3,359.6 206.3,359.6" fill="rgb(255,255,255)"/>
<polygon points="214.3,351.6 222.3,351.6 222.3,359.6 214.3,359.6" fill="rgb(255,255,255)"/>
<polygon points="222.3,351.6 230.3,351.6 230.3,359.6 222.3,359.6" fill="rgb(255,255,255)"/>
<polygon points="230.3,351.6 238.3,351.6 238.3,359.6 230.3,359.6" fill="rgb(255,255,255)"/>
<polygon points="238.3,351.6 246.3,351.6 246.3,359.6 238.3,359.6" fill="rgb(255,255,255)"/>
<polygon points="246.3,351.6 254.3,351.6 254.3,359.6 246.3,359.6" fill="rgb(255,255,255)"/>
<polygon points="74.3,335.6 122.3,335.6 122.3,359.6 74.3,359.6" fill="none" stroke="black" stroke-width="1"/>
<polygon points="132.3,335.6 180.3,335.6 180.3,359.6 132.3,359.6" fill="none" stroke="black" stroke-width="1"/>
<polygon points="190.3,335.6 254.3,335.6 254.3,359.6 190.3,359.6" fill="none" stroke="black" stroke-width="1"/>
<text xml:space="preserve" x="137.15" y="392.6" font-family="Calibri" font-size="8" text-anchor="middle">ClusterAssignment</text>
<polygon points="87.15,399.6 107.15,399.6 107.15,419.6 87.15,419.6" fill="rgb(0,205,0)"/><polygon points="87.15,399.6 107.15,399.6 107.15,419.6 87.15,419.6" fill="none" stroke="black" stroke-width="1"/><text xml:space="preserve" x="97.15" y="412.433" font-family="Calibri" font-size="7.5" fill="rgb(255,255,255)" text-anchor="middle">1.0</text>
<polygon points="107.15,399.6 127.15,399.6 127.15,419.6 107.15,419.6" fill="rgb(127,230,0)"/><polygon points="107.15,399.6 127.15,399.6 127.15,419.6 107.15,419.6" fill="none" stroke="black" stroke-width="1"/><text xml:space="preserve" x="117.15" y="412.433" font-family="Calibri" font-size="7.5" fill="rgb(0,0,0)" text-anchor="middle">2.0</text>
<polygon points="127.15,399.6 147.15,399.6 147.15,419.6 127.15,419.6" fill="rgb(255,255,0)"/><polygon points="127.15,399.6 147.15,399.6 147.15,419.6 127.15,419.6" fill="none" stroke="black" stroke-width="1"/><text xml:space="preserve" x="137.15" y="412.433" font-family="Calibri" font-size="7.5" fill="rgb(0,0,0)" text-anchor="middle">3.0</text>
<polygon points="147.15,399.6 167.15,399.6 167.15,419.6 147.15,419.6" fill="rgb(230,127,0)"/><polygon points="147.15,399.6 167.15,399.6 167.15,419.6 147.15,419.6" fill="none" stroke="black" stroke-width="1"/><text xml:space="preserve" x="157.15" y="412.433" font-family="Calibri" font-size="7.5" fill="rgb(0,0,0)" text-anchor="middle">4.0</text>
<polygon points="167.15,399.6 187.15,399.6 187.15,419.6 167.15,419.6" fill="rgb(205,0,0)"/><polygon points="167.15,399.6 187.15,399.6 187.15,419.6 167.15,419.6" fill="none" stroke="black" stroke-width="1"/><text xml:space="preserve" x="177.15" y="412.433" font-family="Calibri" font-size="7.5" fill="rgb(255,255,255)" text-anchor="middle">5.0</text>
<text xml:space="preserve" x="137.15" y="452.6" font-family="Calibri" font-size="8" text-anchor="middle">Expression</text>
<polygon points="87.15,459.6 107.15,459.6 107.15,479.6 87.15,479.6" fill="rgb(0,27,135)"/><polygon points="87.15,459.6 107.15,459.6 107.15,479.6 87.15,479.6" fill="none" stroke="black" stroke-width="1"/><text xml:space="preserve" x="97.15" y="472.433" font-family="Calibri" font-size="7.5" fill="rgb(255,255,255)" text-anchor="middle">0.0</text>
<polygon points="107.15,459.6 127.15,459.6 127.15,479.6 107.15,479.6" fill="rgb(24,123,140)"/><polygon points="107.15,459.6 127.15,459.6 127.15,479.6 107.15,479.6" fill="none" stroke="black" stroke-width="1"/><text xml:space="preserve" x="117.15" y="472.433" font-family="Calibri" font-size="7.5" fill="rgb(255,255,255)" text-anchor="middle">0.8</text>
<polygon points="127.15,459.6 147.15,459.6 147.15,479.6 127.15,479.6" fill="rgb(49,219,146)"/><polygon points="127.15,459.6 147.15,459.6 147.15,479.6 127.15,479.6" fill="none" stroke="black" stroke-width="1"/><text xml:space="preserve" x="137.15" y="472.433" font-family="Calibri" font-size="7.5" fill="rgb(0,0,0)" text-anchor="middle">1.5</text>
<polygon points="147.15,459.6 167.15,459.6 167.15,479.6 147.15,479.6" fill="rgb(150,206,73)"/><polygon points="147.15,459.6 167.15,459.6 167.15,479.6 147.15,479.6" fill="none" stroke="black" stroke-width="1"/><text xml:space="preserve" x="157.15" y="472.433" font-family="Calibri" font-size="7.5" fill="rgb(0,0,0)" text-anchor="middle">2.2</text>
<polygon points="167.15,459.6 187.15,459.6 187.15,479.6 167.15,479.6" fill="rgb(252,194,1)"/><polygon points="167.15,459.6 187.15,459.6 187.15,479.6 167.15,479.6" fill="none" stroke="black" stroke-width="1"/><text xml:space="preserve" x="177.15" y="472.433" font-family="Calibri" font-size="7.5" fill="rgb(0,0,0)" text-anchor="middle">3.0</text>
<text xml:space="preserve" x="137.15" y="512.6" font-family="Calibri" font-size="8" text-anchor="middle">PANTHERclass</text>
<polygon points="87.15,519.6 107.15,519.6 107.15,539.6 87.15,539.6" fill="rgb(255,255,255)"/><polygon points="87.15,519.6 107.15,519.6 107.15,539.6 87.15,539.6" fill="none" stroke="black" stroke-width="1"/><text xml:space="preserve" x="97.15" y="532.433" font-family="Calibri" font-size="7.5" fill="rgb(0,0,0)" text-anchor="middle">0.0</text>
<polygon points="107.15,519.6 127.15,519.6 127.15,539.6 107.15,539.6" fill="rgb(242,191,242)"/><polygon points="107.15,519.6 127.15,519.6 127.15,539.6 107.15,539.6" fill="none" stroke="black" stroke-width="1"/><text xml:space="preserve" x="117.15" y="532.433" font-family="Calibri" font-size="7.5" fill="rgb(0,0,0)" text-anchor="middle">0.2</text>
<polygon points="127.15,519.6 147.15,519.6 147.15,539.6 127.15,539.6" fill="rgb(230,127,230)"/><polygon points="127.15,519.6 147.15,519.6 147.15,539.6 127.15,539.6" fill="none" stroke="black" stroke-width="1"/><text xml:space="preserve" x="137.15" y="532.433" font-family="Calibri" font-size="7.5" fill="rgb(0,0,0)" text-anchor="middle">0.5</text>
<polygon points="147.15,519.6 167.15,519.6 167.15,539.6 147.15,539.6" fill="rgb(217,63,217)"/><polygon points="147.15,519.6 167.15,519.6 167.15,539.6 147.15,539.6" fill="none" stroke="black" stroke-width="1"/><text xml:space="preserve" x="157.15" y="532.433" font-family="Calibri" font-size="7.5" fill="rgb(255,255,255)" text-anchor="middle">0.8</text>
<polygon points="167.15,519.6 187.15,519.6 187.15,539.6 167.15,539.6" fill="rgb(205,0,205)"/><polygon points="167.15,519.6 187.15,519.6 187.15,539.6 167.15,539.6" fill="none" stroke="black" stroke-width="1"/><text xml:space="preserve" x="177.15" y="532.433" font-family="Calibri" font-size="7.5" fill="rgb(255,255,255)" text-anchor="middle">1.0</text>
</svg>
