<?xml version="1.0" standalone="no"?><!DOCTYPE svg PUBLIC "-//W3C//DTD SVG 1.1//EN" "http://www.w3.org/Graphics/SVG/1.1/DTD/svg11.dtd">
<svg width="328.6" height="615.6" version="1.1" xmlns="http://www.w3.org/2000/svg">
<text xml:space="preserve" x="124.6" y="342.6" font-family="Calibri" font-size="8" text-anchor="end">AC109466.1</text>
<text xml:space="preserve" x="124.6" y="350.6" font-family="Calibri" font-size="8" text-anchor="end">IGF1</text>
<text xml:space="preserve" x="124.6" y="358.6" font-family="Calibri" font-size="8" text-anchor="end">LINC01561</text>
<text xml:space="preserve" x="124.6" y="366.6" font-family="Calibri" font-size="8" text-anchor="end">ANGPT1</text>
<text xml:space="preserve" x="124.6" y="374.6" font-family="Calibri" font-size="8" text-anchor="end">SYNPR</text>
<text xml:space="preserve" x="124.6" y="382.6" font-family="Calibri" font-size="8" text-anchor="end">GAGE10</text>
<text xml:space="preserve" x="124.6" y="390.6" font-family="Calibri" font-size="8" text-anchor="end">SLC39A8</text>
<text xml:space="preserve" x="124.6" y="398.6" font-family="Calibri" font-size="8" text-anchor="end">SCGN</text>
<text xml:space="preserve" x="124.6" y="406.6" font-family="Calibri" font-size="8" text-anchor="end">RORB</text>
<text xml:space="preserve" x="124.6" y="414.6" font-family="Calibri" font-size="8" text-anchor="end">AP003481.1</text>
<text xml:space="preserve" x="135.6" y="331.6" font-family="Calibri" font-size="8" transform="rotate(270 135.6 331.6)">c1</text>
<text xml:space="preserve" x="143.6" y="331.6" font-family="Calibri" font-size="8" transform="rotate(270 143.6 331.6)">c2</text>
<text xml:space="preserve" x="151.6" y="331.6" font-family="Calibri" font-size="8" transform="rotate(270 151.6 331.6)">c5</text>
<text xml:space="preserve" x="159.6" y="331.6" font-family="Calibri" font-size="8" transform="rotate(270 159.6 331.6)">c3</text>
<text xml:space="preserve" x="167.6" y="331.6" font-family="Calibri" font-size="8" transform="rotate(270 167.6 331.6)">c6</text>
<text xml:space="preserve" x="175.6" y="331.6" font-family="Calibri" font-size="8" transform="rotate(270 175.6 331.6)">c4</text>
<text xml:space="preserve" x="193.6" y="331.6" font-family="Calibri" font-size="8" transform="rotate(270 193.6 331.6)">c1_mean</text>
<text xml:space="preserve" x="201.6" y="331.6" font-family="Calibri" font-size="8" transform="rotate(270 201.6 331.6)">c2_mean</text>
<text xml:space="preserve" x="209.6" y="331.6" font-family="Calibri" font-size="8" transform="rotate(270 209.6 331.6)">c5_mean</text>
<text xml:space="preserve" x="217.6" y="331.6" font-family="Calibri" font-size="8" transform="rotate(270 217.6 331.6)">c3_mean</text>
<text xml:space="preserve" x="225.6" y="331.6" font-family="Calibri" font-size="8" transform="rotate(270 225.6 331.6)">c6_mean</text>
<text xml:space="preserve" x="233.6" y="331.6" font-family="Calibri" font-size="8" transform="rotate(270 233.6 331.6)">c4_mean</text>
<text xml:space="preserve" x="251.6" y="331.6" font-family="Calibri" font-size="8" transform="rotate(270 251.6 331.6)">transcription_factor</text>
<text xml:space="preserve" x="259.6" y="331.6" font-family="Calibri" font-size="8" transform="rotate(270 259.6 331.6)">transmembrane_signal_receptor</text>
<text xml:space="preserve" x="267.6" y="331.6" font-family="Calibri" font-size="8" transform="rotate(270 267.6 331.6)">growth_factor</text>
<text xml:space="preserve" x="275.6" y="331.6" font-family="Calibri" font-size="8" transform="rotate(270 275.6 331.6)">peptide_hormone</text>
<text xml:space="preserve" x="283.6" y="331.6" font-family="Calibri" font-size="8" transform="rotate(270 283.6 331.6)">cytoskeletal_protein</text>
<text xml:space="preserve" x="291.6" y="331.6" font-family="Calibri" font-size="8" transform="rotate(270 291.6 331.6)">ion_channel</text>
<text xml:space="preserve" x="299.6" y="331.6" font-family="Calibri" font-size="8" transform="rotate(270 299.6 331.6)">integrin</text>
<text xml:space="preserve" x="307.6" y="331.6" font-family="Calibri" font-size="8" transform="rotate(270 307.6 331.6)">extracellular_matrix_protein</text>
<polygon points="128.6,335.6 136.6,335.6 136.6,343.6 128.6,343.6" fill="rgb(0,205,0)"/><text xml:space="preserve" x="132.6" y="342.433" font-family="Calibri" font-size="7.5" fill="rgb(255,255,255)" text-anchor="middle">1</text>
<polygon points="136.6,335.6 144.6,335.6 144.6,343.6 136.6,343.6" fill="rgb(0,205,0)"/><text xml:space="preserve" x="140.6" y="342.433" font-family="Calibri" font-size="7.5" fill="rgb(255,255,255)" text-anchor="middle">1</text>
<polygon points="144.6,335.6 152.6,335.6 152.6,343.6 144.6,343.6" fill="rgb(0,205,0)"/><text xml:space="preserve" x="148.6" y="342.433" font-family="Calibri" font-size="7.5" fill="rgb(255,255,255)" text-anchor="middle">1</text>
<polygon points="152.6,335.6 160.6,335.6 160.6,343.6 152.6,343.6" fill="rgb(0,205,0)"/><text xml:space="preserve" x="156.6" y="342.433" font-family="Calibri" font-size="7.5" fill="rgb(255,255,255)" text-anchor="middle">1</text>
<polygon points="160.6,335.6 168.6,335.6 168.6,343.6 160.6,343.6" fill="rgb(0,205,0)"/><text xml:space="preserve" x="164.6" y="342.433" font-family="Calibri" font-size="7.5" fill="rgb(255,255,255)" text-anchor="middle">1</text>
<polygon points="168.6,335.6 176.6,335.6 176.6,343.6 168.6,343.6" fill="rgb(205,0,0)"/><text xml:space="preserve" x="172.6" y="342.433" font-family="Calibri" font-size="7.5" fill="rgb(255,255,255)" text-anchor="middle">5</text>
<polygon points="186.6,335.6 194.6,335.6 194.6,343.6 186.6,343.6" fill="rgb(1,33,135)"/>
<polygon points="194.6,335.6 202.6,335.6 202.6,343.6 194.6,343.6" fill="rgb(4,43,135)"/>
<polygon points="202.6,335.6 210.6,335.6 210.6,343.6 202.6,343.6" fill="rgb(6,52,136)"/>
<polygon points="210.6,335.6 218.6,335.6 218.6,343.6 210.6,343.6" fill="rgb(1,34,135)"/>
<polygon points="218.6,335.6 226.6,335.6 226.6,343.6 218.6,343.6" fill="rgb(2,37,135)"/>
<polygon points="226.6,335.6 234.6,335.6 234.6,343.6 226.6,343.6" fill="rgb(43,197,144)"/>
<polygon points="244.6,335.6 252.6,335.6 252.6,343.6 244.6,343.6" fill="rgb(255,255,255)"/>
<polygon points="252.6,335.6 260.6,335.6 260.6,343.6 252.6,343.6" fill="rgb(255,255,255)"/>
<polygon points="260.6,335.6 268.6,335.6 268.6,343.6 260.6,343.6" fill="rgb(255,255,255)"/>
<polygon points="268.6,335.6 276.6,335.6 276.6,343.6 268.6,343.6" fill="rgb(255,255,255)"/>
<polygon points="276.6,335.6 284.6,335.6 284.6,343.6 276.6,343.6" fill="rgb(255,255,255)"/>
<polygon points="284.6,335.6 292.6,335.6 292.6,343.6 284.6,343.6" fill="rgb(255,255,255)"/>
<polygon points="292.6,335.6 300.6,335.6 300.6,343.6 292.6,343.6" fill="rgb(255,255,255)"/>
<polygon points="300.6,335.6 308.6,335.6 308.6,343.6 300.6,343.6" fill="rgb(255,255,255)"/>
<polygon points="128.6,343.6 136.6,343.6 136.6,351.6 128.6,351.6" fill="rgb(0,205,0)"/><text xml:space="preserve" x="132.6" y="350.433" font-family="Calibri" font-size="7.5" fill="rgb(255,255,255)" text-anchor="middle">1</text>
<polygon points="136.6,343.6 144.6,343.6 144.6,351.6 136.6,351.6" fill="rgb(0,205,0)"/><text xml:space="preserve" x="140.6" y="350.433" font-family="Calibri" font-size="7.5" fill="rgb(255,255,255)" text-anchor="middle">1</text>
<polygon points="144.6,343.6 152.6,343.6 152.6,351.6 144.6,351.6" fill="rgb(0,205,0)"/><text xml:space="preserve" x="148.6" y="350.433" font-family="Calibri" font-size="7.5" fill="rgb(255,255,255)" text-anchor="middle">1</text>
<polygon points="152.6,343.6 160.6,343.6 160.6,351.6 152.6,351.6" fill="rgb(0,205,0)"/><text xml:space="preserve" x="156.6" y="350.433" font-family="Calibri" font-size="7.5" fill="rgb(255,255,255)" text-anchor="middle">1</text>
<polygon points="160.6,343.6 168.6,343.6 168.6,351.6 160.6,351.6" fill="rgb(0,205,0)"/><text xml:space="preserve" x="164.6" y="350.433" font-family="Calibri" font-size="7.5" fill="rgb(255,255,255)" text-anchor="middle">1</text>
<polygon points="168.6,343.6 176.6,343.6 176.6,351.6 168.6,351.6" fill="rgb(205,0,0)"/><text xml:space="preserve" x="172.6" y="350.433" font-family="Calibri" font-size="7.5" fill="rgb(255,255,255)" text-anchor="middle">5</text>
<polygon points="186.6,343.6 194.6,343.6 194.6,351.6 186.6,351.6" fill="rgb(0,27,135)"/>
<polygon points="194.6,343.6 202.6,343.6 202.6,351.6 194.6,351.6" fill="rgb(0,28,135)"/>
<polygon points="202.6,343.6 210.6,343.6 210.6,351.6 202.6,351.6" fill="rgb(1,34,135)"/>
<polygon points="210.6,343.6 218.6,343.6 218.6,351.6 210.6,351.6" fill="rgb(0,27,135)"/>
<polygon points="218.6,343.6 226.6,343.6 226.6,351.6 218.6,351.6" fill="rgb(2,35,135)"/>
<polygon points="226.6,343.6 234.6,343.6 234.6,351.6 226.6,351.6" fill="rgb(45,204,145)"/>
<polygon points="244.6,343.6 252.6,343.6 252.6,351.6 244.6,351.6" fill="rgb(255,255,255)"/>
<polygon points="252.6,343.6 260.6,343.6 260.6,351.6 252.6,351.6" fill="rgb(255,255,255)"/>
<polygon points="260.6,343.6 268.6,343.6 268.6,351.6 260.6,351.6" fill="rgb(205,0,205)"/>
<polygon points="268.6,343.6 276.6,343.6 276.6,351.6 268.6,351.6" fill="rgb(255,255,255)"/>
<polygon points="276.6,343.6 284.6,343.6 284.6,351.6 276.6,351.6" fill="rgb(255,255,255)"/>
<polygon points="284.6,343.6 292.6,343.6 292.6,351.6 284.6,351.6" fill="rgb(255,255,255)"/>
<polygon points="292.6,343.6 300.6,343.6 300.6,351.6 292.6,351.6" fill="rgb(255,255,255)"/>
<polygon points="300.6,343.6 308.6,343.6 308.6,351.6 300.6,351.6" fill="rgb(255,255,255)"/>
<polygon points="128.6,351.6 136.6,351.6 136.6,359.6 128.6,359.6" fill="rgb(0,205,0)"/><text xml:space="preserve" x="132.6" y="358.433" font-family="Calibri" font-size="7.5" fill="rgb(255,255,255)" text-anchor="middle">1</text>
<polygon points="136.6,351.6 144.6,351.6 144.6,359.6 136.6,359.6" fill="rgb(0,205,0)"/><text xml:space="preserve" x="140.6" y="358.433" font-family="Calibri" font-size="7.5" fill="rgb(255,255,255)" text-anchor="middle">1</text>
<polygon points="144.6,351.6 152.6,351.6 152.6,359.6 144.6,359.6" fill="rgb(0,205,0)"/><text xml:space="preserve" x="148.6" y="358.433" font-family="Calibri" font-size="7.5" fill="rgb(255,255,255)" text-anchor="middle">1</text>
<polygon points="152.6,351.6 160.6,351.6 160.6,359.6 152.6,359.6" fill="rgb(0,205,0)"/><text xml:space="preserve" x="156.6" y="358.433" font-family="Calibri" font-size="7.5" fill="rgb(255,255,255)" text-anchor="middle">1</text>
<polygon points="160.6,351.6 168.6,351.6 168.6,359.6 160.6,359.6" fill="rgb(0,205,0)"/><text xml:space="preserve" x="164.6" y="358.433" font-family="Calibri" font-size="7.5" fill="rgb(255,255,255)" text-anchor="middle">1</text>
<polygon points="168.6,351.6 176.6,351.6 176.6,359.6 168.6,359.6" fill="rgb(205,0,0)"/><text xml:space="preserve" x="172.6" y="358.433" font-family="Calibri" font-size="7.5" fill="rgb(255,255,255)" text-anchor="middle">5</text>
<polygon points="186.6,351.6 194.6,351.6 194.6,359.6 186.6,359.6" fill="rgb(13,78,137)"/>
<polygon points="194.6,351.6 202.6,351.6 202.6,359.6 194.6,359.6" fill="rgb(3,39,135)"/>
<polygon points="202.6,351.6 210.6,351.6 210.6,359.6 202.6,359.6" fill="rgb(3,41,135)"/>
<polygon points="210.6,351.6 218.6,351.6 218.6,359.6 210.6,359.6" fill="rgb(0,30,135)"/>
<polygon points="218.6,351.6 226.6,351.6 226.6,359.6 218.6,359.6" fill="rgb(0,30,135)"/>
<polygon points="226.6,351.6 234.6,351.6 234.6,359.6 226.6,359.6" fill="rgb(48,217,145)"/>
<polygon points="244.6,351.6 252.6,351.6 252.6,359.6 244.6,359.6" fill="rgb(255,255,255)"/>
<polygon points="252.6,351.6 260.6,351.6 260.6,359.6 252.6,359.6" fill="rgb(255,255,255)"/>
<polygon points="260.6,351.6 268.6,351.6 268.6,359.6 260.6,359.6" fill="rgb(255,255,255)"/>
<polygon points="268.6,351.6 276.6,351.6 276.6,359.6 268.6,359.6" fill="rgb(255,255,255)"/>
<polygon points="276.6,351.6 284.6,351.6 284.6,359.6 276.6,359.6" fill="rgb(255,255,255)"/>
<polygon points="284.6,351.6 292.6,351.6 292.6,359.6 284.6,359.6" fill="rgb(255,255,255)"/>
<polygon points="292.6,351.6 300.6,351.6 300.6,359.6 292.6,359.6" fill="rgb(255,255,255)"/>
<polygon points="300.6,351.6 308.6,351.6 308.6,359.6 300.6,359.6" fill="rgb(255,255,255)"/>
<polygon points="128.6,359.6 136.6,359.6 136.6,367.6 128.6,367.6" fill="rgb(0,205,0)"/><text xml:space="preserve" x="132.6" y="366.433" font-family="Calibri" font-size="7.5" fill="rgb(255,255,255)" text-anchor="middle">1</text>
<polygon points="136.6,359.6 144.6,359.6 144.6,367.6 136.6,367.6" fill="rgb(0,205,0)"/><text xml:space="preserve" x="140.6" y="366.433" font-family="Calibri" font-size="7.5" fill="rgb(255,255,255)" text-anchor="middle">1</text>
<polygon points="144.6,359.6 152.6,359.6 152.6,367.6 144.6,367.6" fill="rgb(0,205,0)"/><text xml:space="preserve" x="148.6" y="366.433" font-family="Calibri" font-size="7.5" fill="rgb(255,255,255)" text-anchor="middle">1</text>
<polygon points="152.6,359.6 160.6,359.6 160.6,367.6 152.6,367.6" fill="rgb(0,205,0)"/><text xml:space="preserve" x="156.6" y="366.433" font-family="Calibri" font-size="7.5" fill="rgb(255,255,255)" text-anchor="middle">1</text>
<polygon points="160.6,359.6 168.6,359.6 168.6,367.6 160.6,367.6" fill="rgb(0,205,0)"/><text xml:space="preserve" x="164.6" y="366.433" font-family="Calibri" font-size="7.5" fill="rgb(255,255,255)" text-anchor="middle">1</text>
<polygon points="168.6,359.6 176.6,359.6 176.6,367.6 168.6,367.6" fill="rgb(205,0,0)"/><text xml:space="preserve" x="172.6" y="366.433" font-family="Calibri" font-size="7.5" fill="rgb(255,255,255)" text-anchor="middle">5</text>
<polygon points="186.6,359.6 194.6,359.6 194.6,367.6 186.6,367.6" fill="rgb(0,30,135)"/>
<polygon points="194.6,359.6 202.6,359.6 202.6,367.6 194.6,367.6" fill="rgb(2,37,135)"/>
<polygon points="202.6,359.6 210.6,359.6 210.6,367.6 202.6,367.6" fill="rgb(1,34,135)"/>
<polygon points="210.6,359.6 218.6,359.6 218.6,367.6 210.6,367.6" fill="rgb(0,27,135)"/>
<polygon points="218.6,359.6 226.6,359.6 226.6,367.6 218.6,367.6" fill="rgb(0,29,135)"/>
<polygon points="226.6,359.6 234.6,359.6 234.6,367.6 226.6,367.6" fill="rgb(45,206,145)"/>
<polygon points="244.6,359.6 252.6,359.6 252.6,367.6 244.6,367.6" fill="rgb(255,255,255)"/>
<polygon points="252.6,359.6 260.6,359.6 260.6,367.6 252.6,367.6" fill="rgb(255,255,255)"/>
<polygon points="260.6,359.6 268.6,359.6 268.6,367.6 260.6,367.6" fill="rgb(255,255,255)"/>
<polygon points="268.6,359.6 276.6,359.6 276.6,367.6 268.6,367.6" fill="rgb(255,255,255)"/>
<polygon points="276.6,359.6 284.6,359.6 284.6,367.6 276.6,367.6" fill="rgb(255,255,255)"/>
<polygon points="284.6,359.6 292.6,359.6 292.6,367.6 284.6,367.6" fill="rgb(255,255,255)"/>
<polygon points="292.6,359.6 300.6,359.6 300.6,367.6 292.6,367.6" fill="rgb(255,255,255)"/>
<polygon points="300.6,359.6 308.6,359.6 308.6,367.6 300.6,367.6" fill="rgb(255,255,255)"/>
<polygon points="128.6,367.6 136.6,367.6 136.6,375.6 128.6,375.6" fill="rgb(0,205,0)"/><text xml:space="preserve" x="132.6" y="374.433" font-family="Calibri" font-size="7.5" fill="rgb(255,255,255)" text-anchor="middle">1</text>
<polygon points="136.6,367.6 144.6,367.6 144.6,375.6 136.6,375.6" fill="rgb(0,205,0)"/><text xml:space="preserve" x="140.6" y="374.433" font-family="Calibri" font-size="7.5" fill="rgb(255,255,255)" text-anchor="middle">1</text>
<polygon points="144.6,367.6 152.6,367.6 152.6,375.6 144.6,375.6" fill="rgb(0,205,0)"/><text xml:space="preserve" x="148.6" y="374.433" font-family="Calibri" font-size="7.5" fill="rgb(255,255,255)" text-anchor="middle">1</text>
<polygon points="152.6,367.6 160.6,367.6 160.6,375.6 152.6,375.6" fill="rgb(0,205,0)"/><text xml:space="preserve" x="156.6" y="374.433" font-family="Calibri" font-size="7.5" fill="rgb(255,255,255)" text-anchor="middle">1</text>
<polygon points="160.6,367.6 168.6,367.6 168.6,375.6 160.6,375.6" fill="rgb(0,205,0)"/><text xml:space="preserve" x="164.6" y="374.433" font-family="Calibri" font-size="7.5" fill="rgb(255,255,255)" text-anchor="middle">1</text>
<polygon points="168.6,367.6 176.6,367.6 176.6,375.6 168.6,375.6" fill="rgb(205,0,0)"/><text xml:space="preserve" x="172.6" y="374.433" font-family="Calibri" font-size="7.5" fill="rgb(255,255,255)" text-anchor="middle">5</text>
<polygon points="186.6,367.6 194.6,367.6 194.6,375.6 186.6,375.6" fill="rgb(13,79,138)"/>
<polygon points="194.6,367.6 202.6,367.6 202.6,375.6 194.6,375.6" fill="rgb(7,57,136)"/>
<polygon points="202.6,367.6 210.6,367.6 210.6,375.6 202.6,375.6" fill="rgb(9,65,137)"/>
<polygon points="210.6,367.6 218.6,367.6 218.6,375.6 210.6,375.6" fill="rgb(0,28,135)"/>
<polygon points="218.6,367.6 226.6,367.6 226.6,375.6 218.6,375.6" fill="rgb(3,42,135)"/>
<polygon points="226.6,367.6 234.6,367.6 234.6,375.6 226.6,375.6" fill="rgb(43,195,144)"/>
<polygon points="244.6,367.6 252.6,367.6 252.6,375.6 244.6,375.6" fill="rgb(255,255,255)"/>
<polygon points="252.6,367.6 260.6,367.6 260.6,375.6 252.6,375.6" fill="rgb(255,255,255)"/>
<polygon points="260.6,367.6 268.6,367.6 268.6,375.6 260.6,375.6" fill="rgb(255,255,255)"/>
<polygon points="268.6,367.6 276.6,367.6 276.6,375.6 268.6,375.6" fill="rgb(255,255,255)"/>
<polygon points="276.6,367.6 284.6,367.6 284.6,375.6 276.6,375.6" fill="rgb(255,255,255)"/>
<polygon points="284.6,367.6 292.6,367.6 292.6,375.6 284.6,375.6" fill="rgb(255,255,255)"/>
<polygon points="292.6,367.6 300.6,367.6 300.6,375.6 292.6,375.6" fill="rgb(255,255,255)"/>
<polygon points="300.6,367.6 308.6,367.6 308.6,375.6 300.6,375.6" fill="rgb(255,255,255)"/>
<polygon points="128.6,375.6 136.6,375.6 136.6,383.6 128.6,383.6" fill="rgb(0,205,0)"/><text xml:space="preserve" x="132.6" y="382.433" font-family="Calibri" font-size="7.5" fill="rgb(255,255,255)" text-anchor="middle">1</text>
<polygon points="136.6,375.6 144.6,375.6 144.6,383.6 136.6,383.6" fill="rgb(0,205,0)"/><text xml:space="preserve" x="140.6" y="382.433" font-family="Calibri" font-size="7.5" fill="rgb(255,255,255)" text-anchor="middle">1</text>
<polygon points="144.6,375.6 152.6,375.6 152.6,383.6 144.6,383.6" fill="rgb(0,205,0)"/><text xml:space="preserve" x="148.6" y="382.433" font-family="Calibri" font-size="7.5" fill="rgb(255,255,255)" text-anchor="middle">1</text>
<polygon points="152.6,375.6 160.6,375.6 160.6,383.6 152.6,383.6" fill="rgb(0,205,0)"/><text xml:space="preserve" x="156.6" y="382.433" font-family="Calibri" font-size="7.5" fill="rgb(255,255,255)" text-anchor="middle">1</text>
<polygon points="160.6,375.6 168.6,375.6 168.6,383.6 160.6,383.6" fill="rgb(0,205,0)"/><text xml:space="preserve" x="164.6" y="382.433" font-family="Calibri" font-size="7.5" fill="rgb(255,255,255)" text-anchor="middle">1</text>
<polygon points="168.6,375.6 176.6,375.6 176.6,383.6 168.6,383.6" fill="rgb(205,0,0)"/><text xml:space="preserve" x="172.6" y="382.433" font-family="Calibri" font-size="7.5" fill="rgb(255,255,255)" text-anchor="middle">5</text>
<polygon points="186.6,375.6 194.6,375.6 194.6,383.6 186.6,383.6" fill="rgb(0,27,135)"/>
<polygon points="194.6,375.6 202.6,375.6 202.6,383.6 194.6,383.6" fill="rgb(0,27,135)"/>
<polygon points="202.6,375.6 210.6,375.6 210.6,383.6 202.6,383.6" fill="rgb(0,27,135)"/>
<polygon points="210.6,375.6 218.6,375.6 218.6,383.6 210.6,383.6" fill="rgb(0,27,135)"/>
<polygon points="218.6,375.6 226.6,375.6 226.6,383.6 218.6,383.6" fill="rgb(0,27,135)"/>
<polygon points="226.6,375.6 234.6,375.6 234.6,383.6 226.6,383.6" fill="rgb(44,201,144)"/>
<polygon points="244.6,375.6 252.6,375.6 252.6,383.6 244.6,383.6" fill="rgb(255,255,255)"/>
<polygon points="252.6,375.6 260.6,375.6 260.6,383.6 252.6,383.6" fill="rgb(255,255,255)"/>
<polygon points="260.6,375.6 268.6,375.6 268.6,383.6 260.6,383.6" fill="rgb(255,255,255)"/>
<polygon points="268.6,375.6 276.6,375.6 276.6,383.6 268.6,383.6" fill="rgb(255,255,255)"/>
<polygon points="276.6,375.6 284.6,375.6 284.6,383.6 276.6,383.6" fill="rgb(255,255,255)"/>
<polygon points="284.6,375.6 292.6,375.6 292.6,383.6 284.6,383.6" fill="rgb(255,255,255)"/>
<polygon points="292.6,375.6 300.6,375.6 300.6,383.6 292.6,383.6" fill="rgb(255,255,255)"/>
<polygon points="300.6,375.6 308.6,375.6 308.6,383.6 300.6,383.6" fill="rgb(255,255,255)"/>
<polygon points="128.6,383.6 136.6,383.6 136.6,391.6 128.6,391.6" fill="rgb(0,205,0)"/><text xml:space="preserve" x="132.6" y="390.433" font-family="Calibri" font-size="7.5" fill="rgb(255,255,255)" text-anchor="middle">1</text>
<polygon points="136.6,383.6 144.6,383.6 144.6,391.6 136.6,391.6" fill="rgb(0,205,0)"/><text xml:space="preserve" x="140.6" y="390.433" font-family="Calibri" font-size="7.5" fill="rgb(255,255,255)" text-anchor="middle">1</text>
<polygon points="144.6,383.6 152.6,383.6 152.6,391.6 144.6,391.6" fill="rgb(0,205,0)"/><text xml:space="preserve" x="148.6" y="390.433" font-family="Calibri" font-size="7.5" fill="rgb(255,255,255)" text-anchor="middle">1</text>
<polygon points="152.6,383.6 160.6,383.6 160.6,391.6 152.6,391.6" fill="rgb(0,205,0)"/><text xml:space="preserve" x="156.6" y="390.433" font-family="Calibri" font-size="7.5" fill="rgb(255,255,255)" text-anchor="middle">1</text>
<polygon points="160.6,383.6 168.6,383.6 168.6,391.6 160.6,391.6" fill="rgb(0,205,0)"/><text xml:space="preserve" x="164.6" y="390.433" font-family="Calibri" font-size="7.5" fill="rgb(255,255,255)" text-anchor="middle">1</text>
<polygon points="168.6,383.6 176.6,383.6 176.6,391.6 168.6,391.6" fill="rgb(205,0,0)"/><text xml:space="preserve" x="172.6" y="390.433" font-family="Calibri" font-size="7.5" fill="rgb(255,255,255)" text-anchor="middle">5</text>
<polygon points="186.6,383.6 194.6,383.6 194.6,391.6 186.6,391.6" fill="rgb(1,34,135)"/>
<polygon points="194.6,383.6 202.6,383.6 202.6,391.6 194.6,391.6" fill="rgb(0,28,135)"/>
<polygon points="202.6,383.6 210.6,383.6 210.6,391.6 202.6,391.6" fill="rgb(7,55,136)"/>
<polygon points="210.6,383.6 218.6,383.6 218.6,391.6 210.6,391.6" fill="rgb(4,46,136)"/>
<polygon points="218.6,383.6 226.6,383.6 226.6,391.6 218.6,391.6" fill="rgb(5,47,136)"/>
<polygon points="226.6,383.6 234.6,383.6 234.6,391.6 226.6,391.6" fill="rgb(48,216,145)"/>
<polygon points="244.6,383.6 252.6,383.6 252.6,391.6 244.6,391.6" fill="rgb(255,255,255)"/>
<polygon points="252.6,383.6 260.6,383.6 260.6,391.6 252.6,391.6" fill="rgb(255,255,255)"/>
<polygon points="260.6,383.6 268.6,383.6 268.6,391.6 260.6,391.6" fill="rgb(255,255,255)"/>
<polygon points="268.6,383.6 276.6,383.6 276.6,391.6 268.6,391.6" fill="rgb(255,255,255)"/>
<polygon points="276.6,383.6 284.6,383.6 284.6,391.6 276.6,391.6" fill="rgb(255,255,255)"/>
<polygon points="284.6,383.6 292.6,383.6 292.6,391.6 284.6,391.6" fill="rgb(255,255,255)"/>
<polygon points="292.6,383.6 300.6,383.6 300.6,391.6 292.6,391.6" fill="rgb(255,255,255)"/>
<polygon points="300.6,383.6 308.6,383.6 308.6,391.6 300.6,391.6" fill="rgb(255,255,255)"/>
<polygon points="128.6,391.6 136.6,391.6 136.6,399.6 128.6,399.6" fill="rgb(0,205,0)"/><text xml:space="preserve" x="132.6" y="398.433" font-family="Calibri" font-size="7.5" fill="rgb(255,255,255)" text-anchor="middle">1</text>
<polygon points="136.6,391.6 144.6,391.6 144.6,399.6 136.6,399.6" fill="rgb(0,205,0)"/><text xml:space="preserve" x="140.6" y="398.433" font-family="Calibri" font-size="7.5" fill="rgb(255,255,255)" text-anchor="middle">1</text>
<polygon points="144.6,391.6 152.6,391.6 152.6,399.6 144.6,399.6" fill="rgb(0,205,0)"/><text xml:space="preserve" x="148.6" y="398.433" font-family="Calibri" font-size="7.5" fill="rgb(255,255,255)" text-anchor="middle">1</text>
<polygon points="152.6,391.6 160.6,391.6 160.6,399.6 152.6,399.6" fill="rgb(0,205,0)"/><text xml:space="preserve" x="156.6" y="398.433" font-family="Calibri" font-size="7.5" fill="rgb(255,255,255)" text-anchor="middle">1</text>
<polygon points="160.6,391.6 168.6,391.6 168.6,399.6 160.6,399.6" fill="rgb(0,205,0)"/><text xml:space="preserve" x="164.6" y="398.433" font-family="Calibri" font-size="7.5" fill="rgb(255,255,255)" text-anchor="middle">1</text>
<polygon points="168.6,391.6 176.6,391.6 176.6,399.6 168.6,399.6" fill="rgb(205,0,0)"/><text xml:space="preserve" x="172.6" y="398.433" font-family="Calibri" font-size="7.5" fill="rgb(255,255,255)" text-anchor="middle">5</text>
<polygon points="186.6,391.6 194.6,391.6 194.6,399.6 186.6,399.6" fill="rgb(2,37,135)"/>
<polygon points="194.6,391.6 202.6,391.6 202.6,399.6 194.6,399.6" fill="rgb(0,27,135)"/>
<polygon points="202.6,391.6 210.6,391.6 210.6,399.6 202.6,399.6" fill="rgb(0,27,135)"/>
<polygon points="210.6,391.6 218.6,391.6 218.6,399.6 210.6,399.6" fill="rgb(0,27,135)"/>
<polygon points="218.6,391.6 226.6,391.6 226.6,399.6 218.6,399.6" fill="rgb(0,27,135)"/>
<polygon points="226.6,391.6 234.6,391.6 234.6,399.6 226.6,399.6" fill="rgb(46,207,145)"/>
<polygon points="244.6,391.6 252.6,391.6 252.6,399.6 244.6,399.6" fill="rgb(255,255,255)"/>
<polygon points="252.6,391.6 260.6,391.6 260.6,399.6 252.6,399.6" fill="rgb(255,255,255)"/>
<polygon points="260.6,391.6 268.6,391.6 268.6,399.6 260.6,399.6" fill="rgb(255,255,255)"/>
<polygon points="268.6,391.6 276.6,391.6 276.6,399.6 268.6,399.6" fill="rgb(255,255,255)"/>
<polygon points="276.6,391.6 284.6,391.6 284.6,399.6 276.6,399.6" fill="rgb(255,255,255)"/>
<polygon points="284.6,391.6 292.6,391.6 292.6,399.6 284.6,399.6" fill="rgb(255,255,255)"/>
<polygon points="292.6,391.6 300.6,391.6 300.6,399.6 292.6,399.6" fill="rgb(255,255,255)"/>
<polygon points="300.6,391.6 308.6,391.6 308.6,399.6 300.6,399.6" fill="rgb(255,255,255)"/>
<polygon points="128.6,399.6 136.6,399.6 136.6,407.6 128.6,407.6" fill="rgb(0,205,0)"/><text xml:space="preserve" x="132.6" y="406.433" font-family="Calibri" font-size="7.5" fill="rgb(255,255,255)" text-anchor="middle">1</text>
<polygon points="136.6,399.6 144.6,399.6 144.6,407.6 136.6,407.6" fill="rgb(0,205,0)"/><text xml:space="preserve" x="140.6" y="406.433" font-family="Calibri" font-size="7.5" fill="rgb(255,255,255)" text-anchor="middle">1</text>
<polygon points="144.6,399.6 152.6,399.6 152.6,407.6 144.6,407.6" fill="rgb(0,205,0)"/><text xml:space="preserve" x="148.6" y="406.433" font-family="Calibri" font-size="7.5" fill="rgb(255,255,255)" text-anchor="middle">1</text>
<polygon points="152.6,399.6 160.6,399.6 160.6,407.6 152.6,407.6" fill="rgb(0,205,0)"/><text xml:space="preserve" x="156.6" y="406.433" font-family="Calibri" font-size="7.5" fill="rgb(255,255,255)" text-anchor="middle">1</text>
<polygon points="160.6,399.6 168.6,399.6 168.6,407.6 160.6,407.6" fill="rgb(0,205,0)"/><text xml:space="preserve" x="164.6" y="406.433" font-family="Calibri" font-size="7.5" fill="rgb(255,255,255)" text-anchor="middle">1</text>
<polygon points="168.6,399.6 176.6,399.6 176.6,407.6 168.6,407.6" fill="rgb(205,0,0)"/><text xml:space="preserve" x="172.6" y="406.433" font-family="Calibri" font-size="7.5" fill="rgb(255,255,255)" text-anchor="middle">5</text>
<polygon points="186.6,399.6 194.6,399.6 194.6,407.6 186.6,407.6" fill="rgb(8,61,136)"/>
<polygon points="194.6,399.6 202.6,399.6 202.6,407.6 194.6,407.6" fill="rgb(5,50,136)"/>
<polygon points="202.6,399.6 210.6,399.6 210.6,407.6 202.6,407.6" fill="rgb(7,55,136)"/>
<polygon points="210.6,399.6 218.6,399.6 218.6,407.6 210.6,407.6" fill="rgb(1,32,135)"/>
<polygon points="218.6,399.6 226.6,399.6 226.6,407.6 218.6,407.6" fill="rgb(8,59,136)"/>
<polygon points="226.6,399.6 234.6,399.6 234.6,407.6 226.6,407.6" fill="rgb(84,214,120)"/>
<polygon points="244.6,399.6 252.6,399.6 252.6,407.6 244.6,407.6" fill="rgb(205,0,205)"/>
<polygon points="252.6,399.6 260.6,399.6 260.6,407.6 252.6,407.6" fill="rgb(255,255,255)"/>
<polygon points="260.6,399.6 268.6,399.6 268.6,407.6 260.6,407.6" fill="rgb(255,255,255)"/>
<polygon points="268.6,399.6 276.6,399.6 276.6,407.6 268.6,407.6" fill="rgb(255,255,255)"/>
<polygon points="276.6,399.6 284.6,399.6 284.6,407.6 276.6,407.6" fill="rgb(255,255,255)"/>
<polygon points="284.6,399.6 292.6,399.6 292.6,407.6 284.6,407.6" fill="rgb(255,255,255)"/>
<polygon points="292.6,399.6 300.6,399.6 300.6,407.6 292.6,407.6" fill="rgb(255,255,255)"/>
<polygon points="300.6,399.6 308.6,399.6 308.6,407.6 300.6,407.6" fill="rgb(255,255,255)"/>
<polygon points="128.6,407.6 136.6,407.6 136.6,415.6 128.6,415.6" fill="rgb(0,205,0)"/><text xml:space="preserve" x="132.6" y="414.433" font-family="Calibri" font-size="7.5" fill="rgb(255,255,255)" text-anchor="middle">1</text>
<polygon points="136.6,407.6 144.6,407.6 144.6,415.6 136.6,415.6" fill="rgb(0,205,0)"/><text xml:space="preserve" x="140.6" y="414.433" font-family="Calibri" font-size="7.5" fill="rgb(255,255,255)" text-anchor="middle">1</text>
<polygon points="144.6,407.6 152.6,407.6 152.6,415.6 144.6,415.6" fill="rgb(0,205,0)"/><text xml:space="preserve" x="148.6" y="414.433" font-family="Calibri" font-size="7.5" fill="rgb(255,255,255)" text-anchor="middle">1</text>
<polygon points="152.6,407.6 160.6,407.6 160.6,415.6 152.6,415.6" fill="rgb(0,205,0)"/><text xml:space="preserve" x="156.6" y="414.433" font-family="Calibri" font-size="7.5" fill="rgb(255,255,255)" text-anchor="middle">1</text>
<polygon points="160.6,407.6 168.6,407.6 168.6,415.6 160.6,415.6" fill="rgb(0,205,0)"/><text xml:space="preserve" x="164.6" y="414.433" font-family="Calibri" font-size="7.5" fill="rgb(255,255,255)" text-anchor="middle">1</text>
<polygon points="168.6,407.6 176.6,407.6 176.6,415.6 168.6,415.6" fill="rgb(205,0,0)"/><text xml:space="preserve" x="172.6" y="414.433" font-family="Calibri" font-size="7.5" fill="rgb(255,255,255)" text-anchor="middle">5</text>
<polygon points="186.6,407.6 194.6,407.6 194.6,415.6 186.6,415.6" fill="rgb(1,34,135)"/>
<polygon points="194.6,407.6 202.6,407.6 202.6,415.6 194.6,415.6" fill="rgb(0,27,135)"/>
<polygon points="202.6,407.6 210.6,407.6 210.6,415.6 202.6,415.6" fill="rgb(0,27,135)"/>
<polygon points="210.6,407.6 218.6,407.6 218.6,415.6 210.6,415.6" fill="rgb(0,27,135)"/>
<polygon points="218.6,407.6 226.6,407.6 226.6,415.6 218.6,415.6" fill="rgb(4,44,136)"/>
<polygon points="226.6,407.6 234.6,407.6 234.6,415.6 226.6,415.6" fill="rgb(42,194,144)"/>
<polygon points="244.6,407.6 252.6,407.6 252.6,415.6 244.6,415.6" fill="rgb(255,255,255)"/>
<polygon points="252.6,407.6 260.6,407.6 260.6,415.6 252.6,415.6" fill="rgb(255,255,255)"/>
<polygon points="260.6,407.6 268.6,407.6 268.6,415.6 260.6,415.6" fill="rgb(255,255,255)"/>
<polygon points="268.6,407.6 276.6,407.6 276.6,415.6 268.6,415.6" fill="rgb(255,255,255)"/>
<polygon points="276.6,407.6 284.6,407.6 284.6,415.6 276.6,415.6" fill="rgb(255,255,255)"/>
<polygon points="284.6,407.6 292.6,407.6 292.6,415.6 284.6,415.6" fill="rgb(255,255,255)"/>
<polygon points="292.6,407.6 300.6,407.6 300.6,415.6 292.6,415.6" fill="rgb(255,255,255)"/>
<polygon points="300.6,407.6 308.6,407.6 308.6,415.6 300.6,415.6" fill="rgb(255,255,255)"/>
<polygon points="128.6,335.6 176.6,335.6 176.6,415.6 128.6,415.6" fill="none" stroke="black" stroke-width="1"/>
<polygon points="186.6,335.6 234.6,335.6 234.6,415.6 186.6,415.6" fill="none" stroke="black" stroke-width="1"/>
<polygon points="244.6,335.6 308.6,335.6 308.6,415.6 244.6,415.6" fill="none" stroke="black" stroke-width="1"/>
<text xml:space="preserve" x="164.3" y="448.6" font-family="Calibri" font-size="8" text-anchor="middle">ClusterAssignment</text>
<polygon points="114.3,455.6 134.3,455.6 134.3,475.6 114.3,475.6" fill="rgb(0,205,0)"/><polygon points="114.3,455.6 134.3,455.6 134.3,475.6 114.3,475.6" fill="none" stroke="black" stroke-width="1"/><text xml:space="preserve" x="124.3" y="468.433" font-family="Calibri" font-size="7.5" fill="rgb(255,255,255)" text-anchor="middle">1.0</text>
<polygon points="134.3,455.6 154.3,455.6 154.3,475.6 134.3,475.6" fill="rgb(127,230,0)"/><polygon points="134.3,455.6 154.3,455.6 154.3,475.6 134.3,475.6" fill="none" stroke="black" stroke-width="1"/><text xml:space="preserve" x="144.3" y="468.433" font-family="Calibri" font-size="7.5" fill="rgb(0,0,0)" text-anchor="middle">2.0</text>
<polygon points="154.3,455.6 174.3,455.6 174.3,475.6 154.3,475.6" fill="rgb(255,255,0)"/><polygon points="154.3,455.6 174.3,455.6 174.3,475.6 154.3,475.6" fill="none" stroke="black" stroke-width="1"/><text xml:space="preserve" x="164.3" y="468.433" font-family="Calibri" font-size="7.5" fill="rgb(0,0,0)" text-anchor="middle">3.0</text>
<polygon points="174.3,455.6 194.3,455.6 194.3,475.6 174.3,475.6" fill="rgb(230,127,0)"/><polygon points="174.3,455.6 194.3,455.6 194.3,475.6 174.3,475.6" fill="none" stroke="black" stroke-width="1"/><text xml:space="preserve" x="184.3" y="468.433" font-family="Calibri" font-size="7.5" fill="rgb(0,0,0)" text-anchor="middle">4.0</text>
<polygon points="194.3,455.6 214.3,455.6 214.3,475.6 194.3,475.6" fill="rgb(205,0,0)"/><polygon points="194.3,455.6 214.3,455.6 214.3,475.6 194.3,475.6" fill="none" stroke="black" stroke-width="1"/><text xml:space="preserve" x="204.3" y="468.433" font-family="Calibri" font-size="7.5" fill="rgb(255,255,255)" text-anchor="middle">5.0</text>
<text xml:space="preserve" x="164.3" y="508.6" font-family="Calibri" font-size="8" text-anchor="middle">Expression</text>
<polygon points="114.3,515.6 134.3,515.6 134.3,535.6 114.3,535.6" fill="rgb(0,27,135)"/><polygon points="114.3,515.6 134.3,515.6 134.3,535.6 114.3,535.6" fill="none" stroke="black" stroke-width="1"/><text xml:space="preserve" x="124.3" y="528.433" font-family="Calibri" font-size="7.5" fill="rgb(255,255,255)" text-anchor="middle">0.0</text>
<polygon points="134.3,515.6 154.3,515.6 154.3,535.6 134.3,535.6" fill="rgb(24,123,140)"/><polygon points="134.3,515.6 154.3,515.6 154.3,535.6 134.3,535.6" fill="none" stroke="black" stroke-width="1"/><text xml:space="preserve" x="144.3" y="528.433" font-family="Calibri" font-size="7.5" fill="rgb(255,255,255)" text-anchor="middle">0.8</text>
<polygon points="154.3,515.6 174.3,515.6 174.3,535.6 154.3,535.6" fill="rgb(49,219,146)"/><polygon points="154.3,515.6 174.3,515.6 174.3,535.6 154.3,535.6" fill="none" stroke="black" stroke-width="1"/><text xml:space="preserve" x="164.3" y="528.433" font-family="Calibri" font-size="7.5" fill="rgb(0,0,0)" text-anchor="middle">1.5</text>
<polygon points="174.3,515.6 194.3,515.6 194.3,535.6 174.3,535.6" fill="rgb(150,206,73)"/><polygon points="174.3,515.6 194.3,515.6 194.3,535.6 174.3,535.6" fill="none" stroke="black" stroke-width="1"/><text xml:space="preserve" x="184.3" y="528.433" font-family="Calibri" font-size="7.5" fill="rgb(0,0,0)" text-anchor="middle">2.2</text>
<polygon points="194.3,515.6 214.3,515.6 214.3,535.6 194.3,535.6" fill="rgb(252,194,1)"/><polygon points="194.3,515.6 214.3,515.6 214.3,535.6 194.3,535.6" fill="none" stroke="black" stroke-width="1"/><text xml:space="preserve" x="204.3" y="528.433" font-family="Calibri" font-size="7.5" fill="rgb(0,0,0)" text-anchor="middle">3.0</text>
<text xml:space="preserve" x="164.3" y="568.6" font-family="Calibri" font-size="8" text-anchor="middle">PANTHERclass</text>
<polygon points="114.3,575.6 134.3,575.6 134.3,595.6 114.3,595.6" fill="rgb(255,255,255)"/><polygon points="114.3,575.6 134.3,575.6 134.3,595.6 114.3,595.6" fill="none" stroke="black" stroke-width="1"/><text xml:space="preserve" x="124.3" y="588.433" font-family="Calibri" font-size="7.5" fill="rgb(0,0,0)" text-anchor="middle">0.0</text>
<polygon points="134.3,575.6 154.3,575.6 154.3,595.6 134.3,595.6" fill="rgb(242,191,242)"/><polygon points="134.3,575.6 154.3,575.6 154.3,595.6 134.3,595.6" fill="none" stroke="black" stroke-width="1"/><text xml:space="preserve" x="144.3" y="588.433" font-family="Calibri" font-size="7.5" fill="rgb(0,0,0)" text-anchor="middle">0.2</text>
<polygon points="154.3,575.6 174.3,575.6 174.3,595.6 154.3,595.6" fill="rgb(230,127,230)"/><polygon points="154.3,575.6 174.3,575.6 174.3,595.6 154.3,595.6" fill="none" stroke="black" stroke-width="1"/><text xml:space="preserve" x="164.3" y="588.433" font-family="Calibri" font-size="7.5" fill="rgb(0,0,0)" text-anchor="middle">0.5</text>
<polygon points="174.3,575.6 194.3,575.6 194.3,595.6 174.3,595.6" fill="rgb(217,63,217)"/><polygon points="174.3,575.6 194.3,575.6 194.3,595.6 174.3,595.6" fill="none" stroke="black" stroke-width="1"/><text xml:space="preserve" x="184.3" y="588.433" font-family="Calibri" font-size="7.5" fill="rgb(255,255,255)" text-anchor="middle">0.8</text>
<polygon points="194.3,575.6 214.3,575.6 214.3,595.6 194.3,595.6" fill="rgb(205,0,205)"/><polygon points="194.3,575.6 214.3,575.6 214.3,595.6 194.3,595.6" fill="none" stroke="black" stroke-width="1"/><text xml:space="preserve" x="204.3" y="588.433" font-family="Calibri" font-size="7.5" fill="rgb(255,255,255)" text-anchor="middle">1.0</text>
</svg>
