<?xml version="1.0" standalone="no"?><!DOCTYPE svg PUBLIC "-//W3C//DTD SVG 1.1//EN" "http://www.w3.org/Graphics/SVG/1.1/DTD/svg11.dtd">
<svg width="317.2" height="559.6" version="1.1" xmlns="http://www.w3.org/2000/svg">
<text xml:space="preserve" x="113.2" y="342.6" font-family="Calibri" font-size="8" text-anchor="end">INHBA-AS1</text>
<text xml:space="preserve" x="113.2" y="350.6" font-family="Calibri" font-size="8" text-anchor="end">STXBP6</text>
<text xml:space="preserve" x="113.2" y="358.6" font-family="Calibri" font-size="8" text-anchor="end">PCSK5</text>
<text xml:space="preserve" x="124.2" y="331.6" font-family="Calibri" font-size="8" transform="rotate(270 124.2 331.6)">c1</text>
<text xml:space="preserve" x="132.2" y="331.6" font-family="Calibri" font-size="8" transform="rotate(270 132.2 331.6)">c2</text>
<text xml:space="preserve" x="140.2" y="331.6" font-family="Calibri" font-size="8" transform="rotate(270 140.2 331.6)">c5</text>
<text xml:space="preserve" x="148.2" y="331.6" font-family="Calibri" font-size="8" transform="rotate(270 148.2 331.6)">c3</text>
<text xml:space="preserve" x="156.2" y="331.6" font-family="Calibri" font-size="8" transform="rotate(270 156.2 331.6)">c6</text>
<text xml:space="preserve" x="164.2" y="331.6" font-family="Calibri" font-size="8" transform="rotate(270 164.2 331.6)">c4</text>
<text xml:space="preserve" x="182.2" y="331.6" font-family="Calibri" font-size="8" transform="rotate(270 182.2 331.6)">c1_mean</text>
<text xml:space="preserve" x="190.2" y="331.6" font-family="Calibri" font-size="8" transform="rotate(270 190.2 331.6)">c2_mean</text>
<text xml:space="preserve" x="198.2" y="331.6" font-family="Calibri" font-size="8" transform="rotate(270 198.2 331.6)">c5_mean</text>
<text xml:space="preserve" x="206.2" y="331.6" font-family="Calibri" font-size="8" transform="rotate(270 206.2 331.6)">c3_mean</text>
<text xml:space="preserve" x="214.2" y="331.6" font-family="Calibri" font-size="8" transform="rotate(270 214.2 331.6)">c6_mean</text>
<text xml:space="preserve" x="222.2" y="331.6" font-family="Calibri" font-size="8" transform="rotate(270 222.2 331.6)">c4_mean</text>
<text xml:space="preserve" x="240.2" y="331.6" font-family="Calibri" font-size="8" transform="rotate(270 240.2 331.6)">transcription_factor</text>
<text xml:space="preserve" x="248.2" y="331.6" font-family="Calibri" font-size="8" transform="rotate(270 248.2 331.6)">transmembrane_signal_receptor</text>
<text xml:space="preserve" x="256.2" y="331.6" font-family="Calibri" font-size="8" transform="rotate(270 256.2 331.6)">growth_factor</text>
<text xml:space="preserve" x="264.2" y="331.6" font-family="Calibri" font-size="8" transform="rotate(270 264.2 331.6)">peptide_hormone</text>
<text xml:space="preserve" x="272.2" y="331.6" font-family="Calibri" font-size="8" transform="rotate(270 272.2 331.6)">cytoskeletal_protein</text>
<text xml:space="preserve" x="280.2" y="331.6" font-family="Calibri" font-size="8" transform="rotate(270 280.2 331.6)">ion_channel</text>
<text xml:space="preserve" x="288.2" y="331.6" font-family="Calibri" font-size="8" transform="rotate(270 288.2 331.6)">integrin</text>
<text xml:space="preserve" x="296.2" y="331.6" font-family="Calibri" font-size="8" transform="rotate(270 296.2 331.6)">extracellular_matrix_protein</text>
<polygon points="117.2,335.6 125.2,335.6 125.2,343.6 117.2,343.6" fill="rgb(255,255,0)"/><text xml:space="preserve" x="121.2" y="342.433" font-family="Calibri" font-size="7.5" fill="rgb(0,0,0)" text-anchor="middle">3</text>
<polygon points="125.2,335.6 133.2,335.6 133.2,343.6 125.2,343.6" fill="rgb(255,255,0)"/><text xml:space="preserve" x="129.2" y="342.433" font-family="Calibri" font-size="7.5" fill="rgb(0,0,0)" text-anchor="middle">3</text>
<polygon points="133.2,335.6 141.2,335.6 141.2,343.6 133.2,343.6" fill="rgb(255,255,0)"/><text xml:space="preserve" x="137.2" y="342.433" font-family="Calibri" font-size="7.5" fill="rgb(0,0,0)" text-anchor="middle">3</text>
<polygon points="141.2,335.6 149.2,335.6 149.2,343.6 141.2,343.6" fill="rgb(255,255,0)"/><text xml:space="preserve" x="145.2" y="342.433" font-family="Calibri" font-size="7.5" fill="rgb(0,0,0)" text-anchor="middle">3</text>
<polygon points="149.2,335.6 157.2,335.6 157.2,343.6 149.2,343.6" fill="rgb(255,255,0)"/><text xml:space="preserve" x="153.2" y="342.433" font-family="Calibri" font-size="7.5" fill="rgb(0,0,0)" text-anchor="middle">3</text>
<polygon points="157.2,335.6 165.2,335.6 165.2,343.6 157.2,343.6" fill="rgb(205,0,0)"/><text xml:space="preserve" x="161.2" y="342.433" font-family="Calibri" font-size="7.5" fill="rgb(255,255,255)" text-anchor="middle">5</text>
<polygon points="175.2,335.6 183.2,335.6 183.2,343.6 175.2,343.6" fill="rgb(12,76,137)"/>
<polygon points="183.2,335.6 191.2,335.6 191.2,343.6 183.2,343.6" fill="rgb(12,76,137)"/>
<polygon points="191.2,335.6 199.2,335.6 199.2,343.6 191.2,343.6" fill="rgb(15,85,138)"/>
<polygon points="199.2,335.6 207.2,335.6 207.2,343.6 199.2,343.6" fill="rgb(26,131,141)"/>
<polygon points="207.2,335.6 215.2,335.6 215.2,343.6 207.2,343.6" fill="rgb(26,131,141)"/>
<polygon points="215.2,335.6 223.2,335.6 223.2,343.6 215.2,343.6" fill="rgb(48,215,145)"/>
<polygon points="233.2,335.6 241.2,335.6 241.2,343.6 233.2,343.6" fill="rgb(255,255,255)"/>
<polygon points="241.2,335.6 249.2,335.6 249.2,343.6 241.2,343.6" fill="rgb(255,255,255)"/>
<polygon points="249.2,335.6 257.2,335.6 257.2,343.6 249.2,343.6" fill="rgb(255,255,255)"/>
<polygon points="257.2,335.6 265.2,335.6 265.2,343.6 257.2,343.6" fill="rgb(255,255,255)"/>
<polygon points="265.2,335.6 273.2,335.6 273.2,343.6 265.2,343.6" fill="rgb(255,255,255)"/>
<polygon points="273.2,335.6 281.2,335.6 281.2,343.6 273.2,343.6" fill="rgb(255,255,255)"/>
<polygon points="281.2,335.6 289.2,335.6 289.2,343.6 281.2,343.6" fill="rgb(255,255,255)"/>
<polygon points="289.2,335.6 297.2,335.6 297.2,343.6 289.2,343.6" fill="rgb(255,255,255)"/>
<polygon points="117.2,343.6 125.2,343.6 125.2,351.6 117.2,351.6" fill="rgb(255,255,0)"/><text xml:space="preserve" x="121.2" y="350.433" font-family="Calibri" font-size="7.5" fill="rgb(0,0,0)" text-anchor="middle">3</text>
<polygon points="125.2,343.6 133.2,343.6 133.2,351.6 125.2,351.6" fill="rgb(255,255,0)"/><text xml:space="preserve" x="129.2" y="350.433" font-family="Calibri" font-size="7.5" fill="rgb(0,0,0)" text-anchor="middle">3</text>
<polygon points="133.2,343.6 141.2,343.6 141.2,351.6 133.2,351.6" fill="rgb(255,255,0)"/><text xml:space="preserve" x="137.2" y="350.433" font-family="Calibri" font-size="7.5" fill="rgb(0,0,0)" text-anchor="middle">3</text>
<polygon points="141.2,343.6 149.2,343.6 149.2,351.6 141.2,351.6" fill="rgb(255,255,0)"/><text xml:space="preserve" x="145.2" y="350.433" font-family="Calibri" font-size="7.5" fill="rgb(0,0,0)" text-anchor="middle">3</text>
<polygon points="149.2,343.6 157.2,343.6 157.2,351.6 149.2,351.6" fill="rgb(255,255,0)"/><text xml:space="preserve" x="153.2" y="350.433" font-family="Calibri" font-size="7.5" fill="rgb(0,0,0)" text-anchor="middle">3</text>
<polygon points="157.2,343.6 165.2,343.6 165.2,351.6 157.2,351.6" fill="rgb(205,0,0)"/><text xml:space="preserve" x="161.2" y="350.433" font-family="Calibri" font-size="7.5" fill="rgb(255,255,255)" text-anchor="middle">5</text>
<polygon points="175.2,343.6 183.2,343.6 183.2,351.6 175.2,351.6" fill="rgb(18,101,139)"/>
<polygon points="183.2,343.6 191.2,343.6 191.2,351.6 183.2,351.6" fill="rgb(10,67,137)"/>
<polygon points="191.2,343.6 199.2,343.6 199.2,351.6 191.2,351.6" fill="rgb(24,121,140)"/>
<polygon points="199.2,343.6 207.2,343.6 207.2,351.6 199.2,351.6" fill="rgb(15,87,138)"/>
<polygon points="207.2,343.6 215.2,343.6 215.2,351.6 207.2,351.6" fill="rgb(16,92,138)"/>
<polygon points="215.2,343.6 223.2,343.6 223.2,351.6 215.2,351.6" fill="rgb(128,209,88)"/>
<polygon points="233.2,343.6 241.2,343.6 241.2,351.6 233.2,351.6" fill="rgb(255,255,255)"/>
<polygon points="241.2,343.6 249.2,343.6 249.2,351.6 241.2,351.6" fill="rgb(255,255,255)"/>
<polygon points="249.2,343.6 257.2,343.6 257.2,351.6 249.2,351.6" fill="rgb(255,255,255)"/>
<polygon points="257.2,343.6 265.2,343.6 265.2,351.6 257.2,351.6" fill="rgb(255,255,255)"/>
<polygon points="265.2,343.6 273.2,343.6 273.2,351.6 265.2,351.6" fill="rgb(255,255,255)"/>
<polygon points="273.2,343.6 281.2,343.6 281.2,351.6 273.2,351.6" fill="rgb(255,255,255)"/>
<polygon points="281.2,343.6 289.2,343.6 289.2,351.6 281.2,351.6" fill="rgb(255,255,255)"/>
<polygon points="289.2,343.6 297.2,343.6 297.2,351.6 289.2,351.6" fill="rgb(255,255,255)"/>
<polygon points="117.2,351.6 125.2,351.6 125.2,359.6 117.2,359.6" fill="rgb(255,255,0)"/><text xml:space="preserve" x="121.2" y="358.433" font-family="Calibri" font-size="7.5" fill="rgb(0,0,0)" text-anchor="middle">3</text>
<polygon points="125.2,351.6 133.2,351.6 133.2,359.6 125.2,359.6" fill="rgb(255,255,0)"/><text xml:space="preserve" x="129.2" y="358.433" font-family="Calibri" font-size="7.5" fill="rgb(0,0,0)" text-anchor="middle">3</text>
<polygon points="133.2,351.6 141.2,351.6 141.2,359.6 133.2,359.6" fill="rgb(255,255,0)"/><text xml:space="preserve" x="137.2" y="358.433" font-family="Calibri" font-size="7.5" fill="rgb(0,0,0)" text-anchor="middle">3</text>
<polygon points="141.2,351.6 149.2,351.6 149.2,359.6 141.2,359.6" fill="rgb(255,255,0)"/><text xml:space="preserve" x="145.2" y="358.433" font-family="Calibri" font-size="7.5" fill="rgb(0,0,0)" text-anchor="middle">3</text>
<polygon points="149.2,351.6 157.2,351.6 157.2,359.6 149.2,359.6" fill="rgb(255,255,0)"/><text xml:space="preserve" x="153.2" y="358.433" font-family="Calibri" font-size="7.5" fill="rgb(0,0,0)" text-anchor="middle">3</text>
<polygon points="157.2,351.6 165.2,351.6 165.2,359.6 157.2,359.6" fill="rgb(205,0,0)"/><text xml:space="preserve" x="161.2" y="358.433" font-family="Calibri" font-size="7.5" fill="rgb(255,255,255)" text-anchor="middle">5</text>
<polygon points="175.2,351.6 183.2,351.6 183.2,359.6 175.2,359.6" fill="rgb(20,107,139)"/>
<polygon points="183.2,351.6 191.2,351.6 191.2,359.6 183.2,359.6" fill="rgb(9,65,137)"/>
<polygon points="191.2,351.6 199.2,351.6 199.2,359.6 191.2,359.6" fill="rgb(13,79,138)"/>
<polygon points="199.2,351.6 207.2,351.6 207.2,359.6 199.2,359.6" fill="rgb(13,80,138)"/>
<polygon points="207.2,351.6 215.2,351.6 215.2,359.6 207.2,359.6" fill="rgb(18,101,139)"/>
<polygon points="215.2,351.6 223.2,351.6 223.2,359.6 215.2,359.6" fill="rgb(57,218,140)"/>
<polygon points="233.2,351.6 241.2,351.6 241.2,359.6 233.2,359.6" fill="rgb(255,255,255)"/>
<polygon points="241.2,351.6 249.2,351.6 249.2,359.6 241.2,359.6" fill="rgb(255,255,255)"/>
<polygon points="249.2,351.6 257.2,351.6 257.2,359.6 249.2,359.6" fill="rgb(255,255,255)"/>
<polygon points="257.2,351.6 265.2,351.6 265.2,359.6 257.2,359.6" fill="rgb(255,255,255)"/>
<polygon points="265.2,351.6 273.2,351.6 273.2,359.6 265.2,359.6" fill="rgb(255,255,255)"/>
<polygon points="273.2,351.6 281.2,351.6 281.2,359.6 273.2,359.6" fill="rgb(255,255,255)"/>
<polygon points="281.2,351.6 289.2,351.6 289.2,359.6 281.2,359.6" fill="rgb(255,255,255)"/>
<polygon points="289.2,351.6 297.2,351.6 297.2,359.6 289.2,359.6" fill="rgb(255,255,255)"/>
<polygon points="117.2,335.6 165.2,335.6 165.2,359.6 117.2,359.6" fill="none" stroke="black" stroke-width="1"/>
<polygon points="175.2,335.6 223.2,335.6 223.2,359.6 175.2,359.6" fill="none" stroke="black" stroke-width="1"/>
<polygon points="233.2,335.6 297.2,335.6 297.2,359.6 233.2,359.6" fill="none" stroke="black" stroke-width="1"/>
<text xml:space="preserve" x="158.6" y="392.6" font-family="Calibri" font-size="8" text-anchor="middle">ClusterAssignment</text>
<polygon points="108.6,399.6 128.6,399.6 128.6,419.6 108.6,419.6" fill="rgb(0,205,0)"/><polygon points="108.6,399.6 128.6,399.6 128.6,419.6 108.6,419.6" fill="none" stroke="black" stroke-width="1"/><text xml:space="preserve" x="118.6" y="412.433" font-family="Calibri" font-size="7.5" fill="rgb(255,255,255)" text-anchor="middle">1.0</text>
<polygon points="128.6,399.6 148.6,399.6 148.6,419.6 128.6,419.6" fill="rgb(127,230,0)"/><polygon points="128.6,399.6 148.6,399.6 148.6,419.6 128.6,419.6" fill="none" stroke="black" stroke-width="1"/><text xml:space="preserve" x="138.6" y="412.433" font-family="Calibri" font-size="7.5" fill="rgb(0,0,0)" text-anchor="middle">2.0</text>
<polygon points="148.6,399.6 168.6,399.6 168.6,419.6 148.6,419.6" fill="rgb(255,255,0)"/><polygon points="148.6,399.6 168.6,399.6 168.6,419.6 148.6,419.6" fill="none" stroke="black" stroke-width="1"/><text xml:space="preserve" x="158.6" y="412.433" font-family="Calibri" font-size="7.5" fill="rgb(0,0,0)" text-anchor="middle">3.0</text>
<polygon points="168.6,399.6 188.6,399.6 188.6,419.6 168.6,419.6" fill="rgb(230,127,0)"/><polygon points="168.6,399.6 188.6,399.6 188.6,419.6 168.6,419.6" fill="none" stroke="black" stroke-width="1"/><text xml:space="preserve" x="178.6" y="412.433" font-family="Calibri" font-size="7.5" fill="rgb(0,0,0)" text-anchor="middle">4.0</text>
<polygon points="188.6,399.6 208.6,399.6 208.6,419.6 188.6,419.6" fill="rgb(205,0,0)"/><polygon points="188.6,399.6 208.6,399.6 208.6,419.6 188.6,419.6" fill="none" stroke="black" stroke-width="1"/><text xml:space="preserve" x="198.6" y="412.433" font-family="Calibri" font-size="7.5" fill="rgb(255,255,255)" text-anchor="middle">5.0</text>
<text xml:space="preserve" x="158.6" y="452.6" font-family="Calibri" font-size="8" text-anchor="middle">Expression</text>
<polygon points="108.6,459.6 128.6,459.6 128.6,479.6 108.6,479.6" fill="rgb(0,27,135)"/><polygon points="108.6,459.6 128.6,459.6 128.6,479.6 108.6,479.6" fill="none" stroke="black" stroke-width="1"/><text xml:space="preserve" x="118.6" y="472.433" font-family="Calibri" font-size="7.5" fill="rgb(255,255,255)" text-anchor="middle">0.0</text>
<polygon points="128.6,459.6 148.6,459.6 148.6,479.6 128.6,479.6" fill="rgb(24,123,140)"/><polygon points="128.6,459.6 148.6,459.6 148.6,479.6 128.6,479.6" fill="none" stroke="black" stroke-width="1"/><text xml:space="preserve" x="138.6" y="472.433" font-family="Calibri" font-size="7.5" fill="rgb(255,255,255)" text-anchor="middle">0.8</text>
<polygon points="148.6,459.6 168.6,459.6 168.6,479.6 148.6,479.6" fill="rgb(49,219,146)"/><polygon points="148.6,459.6 168.6,459.6 168.6,479.6 148.6,479.6" fill="none" stroke="black" stroke-width="1"/><text xml:space="preserve" x="158.6" y="472.433" font-family="Calibri" font-size="7.5" fill="rgb(0,0,0)" text-anchor="middle">1.5</text>
<polygon points="168.6,459.6 188.6,459.6 188.6,479.6 168.6,479.6" fill="rgb(150,206,73)"/><polygon points="168.6,459.6 188.6,459.6 188.6,479.6 168.6,479.6" fill="none" stroke="black" stroke-width="1"/><text xml:space="preserve" x="178.6" y="472.433" font-family="Calibri" font-size="7.5" fill="rgb(0,0,0)" text-anchor="middle">2.2</text>
<polygon points="188.6,459.6 208.6,459.6 208.6,479.6 188.6,479.6" fill="rgb(252,194,1)"/><polygon points="188.6,459.6 208.6,459.6 208.6,479.6 188.6,479.6" fill="none" stroke="black" stroke-width="1"/><text xml:space="preserve" x="198.6" y="472.433" font-family="Calibri" font-size="7.5" fill="rgb(0,0,0)" text-anchor="middle">3.0</text>
<text xml:space="preserve" x="158.6" y="512.6" font-family="Calibri" font-size="8" text-anchor="middle">PANTHERclass</text>
<polygon points="108.6,519.6 128.6,519.6 128.6,539.6 108.6,539.6" fill="rgb(255,255,255)"/><polygon points="108.6,519.6 128.6,519.6 128.6,539.6 108.6,539.6" fill="none" stroke="black" stroke-width="1"/><text xml:space="preserve" x="118.6" y="532.433" font-family="Calibri" font-size="7.5" fill="rgb(0,0,0)" text-anchor="middle">0.0</text>
<polygon points="128.6,519.6 148.6,519.6 148.6,539.6 128.6,539.6" fill="rgb(242,191,242)"/><polygon points="128.6,519.6 148.6,519.6 148.6,539.6 128.6,539.6" fill="none" stroke="black" stroke-width="1"/><text xml:space="preserve" x="138.6" y="532.433" font-family="Calibri" font-size="7.5" fill="rgb(0,0,0)" text-anchor="middle">0.2</text>
<polygon points="148.6,519.6 168.6,519.6 168.6,539.6 148.6,539.6" fill="rgb(230,127,230)"/><polygon points="148.6,519.6 168.6,519.6 168.6,539.6 148.6,539.6" fill="none" stroke="black" stroke-width="1"/><text xml:space="preserve" x="158.6" y="532.433" font-family="Calibri" font-size="7.5" fill="rgb(0,0,0)" text-anchor="middle">0.5</text>
<polygon points="168.6,519.6 188.6,519.6 188.6,539.6 168.6,539.6" fill="rgb(217,63,217)"/><polygon points="168.6,519.6 188.6,519.6 188.6,539.6 168.6,539.6" fill="none" stroke="black" stroke-width="1"/><text xml:space="preserve" x="178.6" y="532.433" font-family="Calibri" font-size="7.5" fill="rgb(255,255,255)" text-anchor="middle">0.8</text>
<polygon points="188.6,519.6 208.6,519.6 208.6,539.6 188.6,539.6" fill="rgb(205,0,205)"/><polygon points="188.6,519.6 208.6,519.6 208.6,539.6 188.6,539.6" fill="none" stroke="black" stroke-width="1"/><text xml:space="preserve" x="198.6" y="532.433" font-family="Calibri" font-size="7.5" fill="rgb(255,255,255)" text-anchor="middle">1.0</text>
</svg>
