<?xml version="1.0" standalone="no"?><!DOCTYPE svg PUBLIC "-//W3C//DTD SVG 1.1//EN" "http://www.w3.org/Graphics/SVG/1.1/DTD/svg11.dtd">
<svg width="292" height="567.6" version="1.1" xmlns="http://www.w3.org/2000/svg">
<text xml:space="preserve" x="88" y="342.6" font-family="Calibri" font-size="8" text-anchor="end">PTMS</text>
<text xml:space="preserve" x="88" y="350.6" font-family="Calibri" font-size="8" text-anchor="end">RPL28</text>
<text xml:space="preserve" x="88" y="358.6" font-family="Calibri" font-size="8" text-anchor="end">TUBB2B</text>
<text xml:space="preserve" x="88" y="366.6" font-family="Calibri" font-size="8" text-anchor="end">RPL41</text>
<text xml:space="preserve" x="99" y="331.6" font-family="Calibri" font-size="8" transform="rotate(270 99 331.6)">c1</text>
<text xml:space="preserve" x="107" y="331.6" font-family="Calibri" font-size="8" transform="rotate(270 107 331.6)">c2</text>
<text xml:space="preserve" x="115" y="331.6" font-family="Calibri" font-size="8" transform="rotate(270 115 331.6)">c5</text>
<text xml:space="preserve" x="123" y="331.6" font-family="Calibri" font-size="8" transform="rotate(270 123 331.6)">c3</text>
<text xml:space="preserve" x="131" y="331.6" font-family="Calibri" font-size="8" transform="rotate(270 131 331.6)">c6</text>
<text xml:space="preserve" x="139" y="331.6" font-family="Calibri" font-size="8" transform="rotate(270 139 331.6)">c4</text>
<text xml:space="preserve" x="157" y="331.6" font-family="Calibri" font-size="8" transform="rotate(270 157 331.6)">c1_mean</text>
<text xml:space="preserve" x="165" y="331.6" font-family="Calibri" font-size="8" transform="rotate(270 165 331.6)">c2_mean</text>
<text xml:space="preserve" x="173" y="331.6" font-family="Calibri" font-size="8" transform="rotate(270 173 331.6)">c5_mean</text>
<text xml:space="preserve" x="181" y="331.6" font-family="Calibri" font-size="8" transform="rotate(270 181 331.6)">c3_mean</text>
<text xml:space="preserve" x="189" y="331.6" font-family="Calibri" font-size="8" transform="rotate(270 189 331.6)">c6_mean</text>
<text xml:space="preserve" x="197" y="331.6" font-family="Calibri" font-size="8" transform="rotate(270 197 331.6)">c4_mean</text>
<text xml:space="preserve" x="215" y="331.6" font-family="Calibri" font-size="8" transform="rotate(270 215 331.6)">transcription_factor</text>
<text xml:space="preserve" x="223" y="331.6" font-family="Calibri" font-size="8" transform="rotate(270 223 331.6)">transmembrane_signal_receptor</text>
<text xml:space="preserve" x="231" y="331.6" font-family="Calibri" font-size="8" transform="rotate(270 231 331.6)">growth_factor</text>
<text xml:space="preserve" x="239" y="331.6" font-family="Calibri" font-size="8" transform="rotate(270 239 331.6)">peptide_hormone</text>
<text xml:space="preserve" x="247" y="331.6" font-family="Calibri" font-size="8" transform="rotate(270 247 331.6)">cytoskeletal_protein</text>
<text xml:space="preserve" x="255" y="331.6" font-family="Calibri" font-size="8" transform="rotate(270 255 331.6)">ion_channel</text>
<text xml:space="preserve" x="263" y="331.6" font-family="Calibri" font-size="8" transform="rotate(270 263 331.6)">integrin</text>
<text xml:space="preserve" x="271" y="331.6" font-family="Calibri" font-size="8" transform="rotate(270 271 331.6)">extracellular_matrix_protein</text>
<polygon points="92,335.6 100,335.6 100,343.6 92,343.6" fill="rgb(230,127,0)"/><text xml:space="preserve" x="96" y="342.433" font-family="Calibri" font-size="7.5" fill="rgb(0,0,0)" text-anchor="middle">4</text>
<polygon points="100,335.6 108,335.6 108,343.6 100,343.6" fill="rgb(205,0,0)"/><text xml:space="preserve" x="104" y="342.433" font-family="Calibri" font-size="7.5" fill="rgb(255,255,255)" text-anchor="middle">5</text>
<polygon points="108,335.6 116,335.6 116,343.6 108,343.6" fill="rgb(127,230,0)"/><text xml:space="preserve" x="112" y="342.433" font-family="Calibri" font-size="7.5" fill="rgb(0,0,0)" text-anchor="middle">2</text>
<polygon points="116,335.6 124,335.6 124,343.6 116,343.6" fill="rgb(127,230,0)"/><text xml:space="preserve" x="120" y="342.433" font-family="Calibri" font-size="7.5" fill="rgb(0,0,0)" text-anchor="middle">2</text>
<polygon points="124,335.6 132,335.6 132,343.6 124,343.6" fill="rgb(205,0,0)"/><text xml:space="preserve" x="128" y="342.433" font-family="Calibri" font-size="7.5" fill="rgb(255,255,255)" text-anchor="middle">5</text>
<polygon points="132,335.6 140,335.6 140,343.6 132,343.6" fill="rgb(230,127,0)"/><text xml:space="preserve" x="136" y="342.433" font-family="Calibri" font-size="7.5" fill="rgb(0,0,0)" text-anchor="middle">4</text>
<polygon points="150,335.6 158,335.6 158,343.6 150,343.6" fill="rgb(40,185,144)"/>
<polygon points="158,335.6 166,335.6 166,343.6 158,343.6" fill="rgb(39,181,143)"/>
<polygon points="166,335.6 174,335.6 174,343.6 166,343.6" fill="rgb(12,76,137)"/>
<polygon points="174,335.6 182,335.6 182,343.6 174,343.6" fill="rgb(8,61,136)"/>
<polygon points="182,335.6 190,335.6 190,343.6 182,343.6" fill="rgb(35,166,142)"/>
<polygon points="190,335.6 198,335.6 198,343.6 190,343.6" fill="rgb(37,172,143)"/>
<polygon points="208,335.6 216,335.6 216,343.6 208,343.6" fill="rgb(255,255,255)"/>
<polygon points="216,335.6 224,335.6 224,343.6 216,343.6" fill="rgb(255,255,255)"/>
<polygon points="224,335.6 232,335.6 232,343.6 224,343.6" fill="rgb(255,255,255)"/>
<polygon points="232,335.6 240,335.6 240,343.6 232,343.6" fill="rgb(255,255,255)"/>
<polygon points="240,335.6 248,335.6 248,343.6 240,343.6" fill="rgb(255,255,255)"/>
<polygon points="248,335.6 256,335.6 256,343.6 248,343.6" fill="rgb(255,255,255)"/>
<polygon points="256,335.6 264,335.6 264,343.6 256,343.6" fill="rgb(255,255,255)"/>
<polygon points="264,335.6 272,335.6 272,343.6 264,343.6" fill="rgb(255,255,255)"/>
<polygon points="92,343.6 100,343.6 100,351.6 92,351.6" fill="rgb(230,127,0)"/><text xml:space="preserve" x="96" y="350.433" font-family="Calibri" font-size="7.5" fill="rgb(0,0,0)" text-anchor="middle">4</text>
<polygon points="100,343.6 108,343.6 108,351.6 100,351.6" fill="rgb(205,0,0)"/><text xml:space="preserve" x="104" y="350.433" font-family="Calibri" font-size="7.5" fill="rgb(255,255,255)" text-anchor="middle">5</text>
<polygon points="108,343.6 116,343.6 116,351.6 108,351.6" fill="rgb(127,230,0)"/><text xml:space="preserve" x="112" y="350.433" font-family="Calibri" font-size="7.5" fill="rgb(0,0,0)" text-anchor="middle">2</text>
<polygon points="116,343.6 124,343.6 124,351.6 116,351.6" fill="rgb(127,230,0)"/><text xml:space="preserve" x="120" y="350.433" font-family="Calibri" font-size="7.5" fill="rgb(0,0,0)" text-anchor="middle">2</text>
<polygon points="124,343.6 132,343.6 132,351.6 124,351.6" fill="rgb(205,0,0)"/><text xml:space="preserve" x="128" y="350.433" font-family="Calibri" font-size="7.5" fill="rgb(255,255,255)" text-anchor="middle">5</text>
<polygon points="132,343.6 140,343.6 140,351.6 132,351.6" fill="rgb(230,127,0)"/><text xml:space="preserve" x="136" y="350.433" font-family="Calibri" font-size="7.5" fill="rgb(0,0,0)" text-anchor="middle">4</text>
<polygon points="150,343.6 158,343.6 158,351.6 150,351.6" fill="rgb(32,155,142)"/>
<polygon points="158,343.6 166,343.6 166,351.6 158,351.6" fill="rgb(34,161,142)"/>
<polygon points="166,343.6 174,343.6 174,351.6 166,351.6" fill="rgb(11,71,137)"/>
<polygon points="174,343.6 182,343.6 182,351.6 174,351.6" fill="rgb(6,53,136)"/>
<polygon points="182,343.6 190,343.6 190,351.6 182,351.6" fill="rgb(28,138,141)"/>
<polygon points="190,343.6 198,343.6 198,351.6 190,351.6" fill="rgb(30,144,141)"/>
<polygon points="208,343.6 216,343.6 216,351.6 208,351.6" fill="rgb(255,255,255)"/>
<polygon points="216,343.6 224,343.6 224,351.6 216,351.6" fill="rgb(255,255,255)"/>
<polygon points="224,343.6 232,343.6 232,351.6 224,351.6" fill="rgb(255,255,255)"/>
<polygon points="232,343.6 240,343.6 240,351.6 232,351.6" fill="rgb(255,255,255)"/>
<polygon points="240,343.6 248,343.6 248,351.6 240,351.6" fill="rgb(255,255,255)"/>
<polygon points="248,343.6 256,343.6 256,351.6 248,351.6" fill="rgb(255,255,255)"/>
<polygon points="256,343.6 264,343.6 264,351.6 256,351.6" fill="rgb(255,255,255)"/>
<polygon points="264,343.6 272,343.6 272,351.6 264,351.6" fill="rgb(255,255,255)"/>
<polygon points="92,351.6 100,351.6 100,359.6 92,359.6" fill="rgb(230,127,0)"/><text xml:space="preserve" x="96" y="358.433" font-family="Calibri" font-size="7.5" fill="rgb(0,0,0)" text-anchor="middle">4</text>
<polygon points="100,351.6 108,351.6 108,359.6 100,359.6" fill="rgb(205,0,0)"/><text xml:space="preserve" x="104" y="358.433" font-family="Calibri" font-size="7.5" fill="rgb(255,255,255)" text-anchor="middle">5</text>
<polygon points="108,351.6 116,351.6 116,359.6 108,359.6" fill="rgb(127,230,0)"/><text xml:space="preserve" x="112" y="358.433" font-family="Calibri" font-size="7.5" fill="rgb(0,0,0)" text-anchor="middle">2</text>
<polygon points="116,351.6 124,351.6 124,359.6 116,359.6" fill="rgb(127,230,0)"/><text xml:space="preserve" x="120" y="358.433" font-family="Calibri" font-size="7.5" fill="rgb(0,0,0)" text-anchor="middle">2</text>
<polygon points="124,351.6 132,351.6 132,359.6 124,359.6" fill="rgb(205,0,0)"/><text xml:space="preserve" x="128" y="358.433" font-family="Calibri" font-size="7.5" fill="rgb(255,255,255)" text-anchor="middle">5</text>
<polygon points="132,351.6 140,351.6 140,359.6 132,359.6" fill="rgb(230,127,0)"/><text xml:space="preserve" x="136" y="358.433" font-family="Calibri" font-size="7.5" fill="rgb(0,0,0)" text-anchor="middle">4</text>
<polygon points="150,351.6 158,351.6 158,359.6 150,359.6" fill="rgb(36,169,143)"/>
<polygon points="158,351.6 166,351.6 166,359.6 158,359.6" fill="rgb(34,163,142)"/>
<polygon points="166,351.6 174,351.6 174,359.6 166,359.6" fill="rgb(11,71,137)"/>
<polygon points="174,351.6 182,351.6 182,359.6 174,359.6" fill="rgb(8,60,136)"/>
<polygon points="182,351.6 190,351.6 190,359.6 182,359.6" fill="rgb(34,161,142)"/>
<polygon points="190,351.6 198,351.6 198,359.6 190,359.6" fill="rgb(34,162,142)"/>
<polygon points="208,351.6 216,351.6 216,359.6 208,359.6" fill="rgb(255,255,255)"/>
<polygon points="216,351.6 224,351.6 224,359.6 216,359.6" fill="rgb(255,255,255)"/>
<polygon points="224,351.6 232,351.6 232,359.6 224,359.6" fill="rgb(255,255,255)"/>
<polygon points="232,351.6 240,351.6 240,359.6 232,359.6" fill="rgb(255,255,255)"/>
<polygon points="240,351.6 248,351.6 248,359.6 240,359.6" fill="rgb(205,0,205)"/>
<polygon points="248,351.6 256,351.6 256,359.6 248,359.6" fill="rgb(255,255,255)"/>
<polygon points="256,351.6 264,351.6 264,359.6 256,359.6" fill="rgb(255,255,255)"/>
<polygon points="264,351.6 272,351.6 272,359.6 264,359.6" fill="rgb(255,255,255)"/>
<polygon points="92,359.6 100,359.6 100,367.6 92,367.6" fill="rgb(230,127,0)"/><text xml:space="preserve" x="96" y="366.433" font-family="Calibri" font-size="7.5" fill="rgb(0,0,0)" text-anchor="middle">4</text>
<polygon points="100,359.6 108,359.6 108,367.6 100,367.6" fill="rgb(205,0,0)"/><text xml:space="preserve" x="104" y="366.433" font-family="Calibri" font-size="7.5" fill="rgb(255,255,255)" text-anchor="middle">5</text>
<polygon points="108,359.6 116,359.6 116,367.6 108,367.6" fill="rgb(127,230,0)"/><text xml:space="preserve" x="112" y="366.433" font-family="Calibri" font-size="7.5" fill="rgb(0,0,0)" text-anchor="middle">2</text>
<polygon points="116,359.6 124,359.6 124,367.6 116,367.6" fill="rgb(127,230,0)"/><text xml:space="preserve" x="120" y="366.433" font-family="Calibri" font-size="7.5" fill="rgb(0,0,0)" text-anchor="middle">2</text>
<polygon points="124,359.6 132,359.6 132,367.6 124,367.6" fill="rgb(205,0,0)"/><text xml:space="preserve" x="128" y="366.433" font-family="Calibri" font-size="7.5" fill="rgb(255,255,255)" text-anchor="middle">5</text>
<polygon points="132,359.6 140,359.6 140,367.6 132,367.6" fill="rgb(230,127,0)"/><text xml:space="preserve" x="136" y="366.433" font-family="Calibri" font-size="7.5" fill="rgb(0,0,0)" text-anchor="middle">4</text>
<polygon points="150,359.6 158,359.6 158,367.6 150,367.6" fill="rgb(30,147,141)"/>
<polygon points="158,359.6 166,359.6 166,367.6 158,367.6" fill="rgb(32,155,142)"/>
<polygon points="166,359.6 174,359.6 174,367.6 166,367.6" fill="rgb(10,67,137)"/>
<polygon points="174,359.6 182,359.6 182,367.6 174,367.6" fill="rgb(6,53,136)"/>
<polygon points="182,359.6 190,359.6 190,367.6 182,367.6" fill="rgb(29,140,141)"/>
<polygon points="190,359.6 198,359.6 198,367.6 190,367.6" fill="rgb(29,140,141)"/>
<polygon points="208,359.6 216,359.6 216,367.6 208,367.6" fill="rgb(255,255,255)"/>
<polygon points="216,359.6 224,359.6 224,367.6 216,367.6" fill="rgb(255,255,255)"/>
<polygon points="224,359.6 232,359.6 232,367.6 224,367.6" fill="rgb(255,255,255)"/>
<polygon points="232,359.6 240,359.6 240,367.6 232,367.6" fill="rgb(255,255,255)"/>
<polygon points="240,359.6 248,359.6 248,367.6 240,367.6" fill="rgb(255,255,255)"/>
<polygon points="248,359.6 256,359.6 256,367.6 248,367.6" fill="rgb(255,255,255)"/>
<polygon points="256,359.6 264,359.6 264,367.6 256,367.6" fill="rgb(255,255,255)"/>
<polygon points="264,359.6 272,359.6 272,367.6 264,367.6" fill="rgb(255,255,255)"/>
<polygon points="92,335.6 140,335.6 140,367.6 92,367.6" fill="none" stroke="black" stroke-width="1"/>
<polygon points="150,335.6 198,335.6 198,367.6 150,367.6" fill="none" stroke="black" stroke-width="1"/>
<polygon points="208,335.6 272,335.6 272,367.6 208,367.6" fill="none" stroke="black" stroke-width="1"/>
<text xml:space="preserve" x="146" y="400.6" font-family="Calibri" font-size="8" text-anchor="middle">ClusterAssignment</text>
<polygon points="96,407.6 116,407.6 116,427.6 96,427.6" fill="rgb(0,205,0)"/><polygon points="96,407.6 116,407.6 116,427.6 96,427.6" fill="none" stroke="black" stroke-width="1"/><text xml:space="preserve" x="106" y="420.433" font-family="Calibri" font-size="7.5" fill="rgb(255,255,255)" text-anchor="middle">1.0</text>
<polygon points="116,407.6 136,407.6 136,427.6 116,427.6" fill="rgb(127,230,0)"/><polygon points="116,407.6 136,407.6 136,427.6 116,427.6" fill="none" stroke="black" stroke-width="1"/><text xml:space="preserve" x="126" y="420.433" font-family="Calibri" font-size="7.5" fill="rgb(0,0,0)" text-anchor="middle">2.0</text>
<polygon points="136,407.6 156,407.6 156,427.6 136,427.6" fill="rgb(255,255,0)"/><polygon points="136,407.6 156,407.6 156,427.6 136,427.6" fill="none" stroke="black" stroke-width="1"/><text xml:space="preserve" x="146" y="420.433" font-family="Calibri" font-size="7.5" fill="rgb(0,0,0)" text-anchor="middle">3.0</text>
<polygon points="156,407.6 176,407.6 176,427.6 156,427.6" fill="rgb(230,127,0)"/><polygon points="156,407.6 176,407.6 176,427.6 156,427.6" fill="none" stroke="black" stroke-width="1"/><text xml:space="preserve" x="166" y="420.433" font-family="Calibri" font-size="7.5" fill="rgb(0,0,0)" text-anchor="middle">4.0</text>
<polygon points="176,407.6 196,407.6 196,427.6 176,427.6" fill="rgb(205,0,0)"/><polygon points="176,407.6 196,407.6 196,427.6 176,427.6" fill="none" stroke="black" stroke-width="1"/><text xml:space="preserve" x="186" y="420.433" font-family="Calibri" font-size="7.5" fill="rgb(255,255,255)" text-anchor="middle">5.0</text>
<text xml:space="preserve" x="146" y="460.6" font-family="Calibri" font-size="8" text-anchor="middle">Expression</text>
<polygon points="96,467.6 116,467.6 116,487.6 96,487.6" fill="rgb(0,27,135)"/><polygon points="96,467.6 116,467.6 116,487.6 96,487.6" fill="none" stroke="black" stroke-width="1"/><text xml:space="preserve" x="106" y="480.433" font-family="Calibri" font-size="7.5" fill="rgb(255,255,255)" text-anchor="middle">0.0</text>
<polygon points="116,467.6 136,467.6 136,487.6 116,487.6" fill="rgb(24,123,140)"/><polygon points="116,467.6 136,467.6 136,487.6 116,487.6" fill="none" stroke="black" stroke-width="1"/><text xml:space="preserve" x="126" y="480.433" font-family="Calibri" font-size="7.5" fill="rgb(255,255,255)" text-anchor="middle">0.8</text>
<polygon points="136,467.6 156,467.6 156,487.6 136,487.6" fill="rgb(49,219,146)"/><polygon points="136,467.6 156,467.6 156,487.6 136,487.6" fill="none" stroke="black" stroke-width="1"/><text xml:space="preserve" x="146" y="480.433" font-family="Calibri" font-size="7.5" fill="rgb(0,0,0)" text-anchor="middle">1.5</text>
<polygon points="156,467.6 176,467.6 176,487.6 156,487.6" fill="rgb(150,206,73)"/><polygon points="156,467.6 176,467.6 176,487.6 156,487.6" fill="none" stroke="black" stroke-width="1"/><text xml:space="preserve" x="166" y="480.433" font-family="Calibri" font-size="7.5" fill="rgb(0,0,0)" text-anchor="middle">2.2</text>
<polygon points="176,467.6 196,467.6 196,487.6 176,487.6" fill="rgb(252,194,1)"/><polygon points="176,467.6 196,467.6 196,487.6 176,487.6" fill="none" stroke="black" stroke-width="1"/><text xml:space="preserve" x="186" y="480.433" font-family="Calibri" font-size="7.5" fill="rgb(0,0,0)" text-anchor="middle">3.0</text>
<text xml:space="preserve" x="146" y="520.6" font-family="Calibri" font-size="8" text-anchor="middle">PANTHERclass</text>
<polygon points="96,527.6 116,527.6 116,547.6 96,547.6" fill="rgb(255,255,255)"/><polygon points="96,527.6 116,527.6 116,547.6 96,547.6" fill="none" stroke="black" stroke-width="1"/><text xml:space="preserve" x="106" y="540.433" font-family="Calibri" font-size="7.5" fill="rgb(0,0,0)" text-anchor="middle">0.0</text>
<polygon points="116,527.6 136,527.6 136,547.6 116,547.6" fill="rgb(242,191,242)"/><polygon points="116,527.6 136,527.6 136,547.6 116,547.6" fill="none" stroke="black" stroke-width="1"/><text xml:space="preserve" x="126" y="540.433" font-family="Calibri" font-size="7.5" fill="rgb(0,0,0)" text-anchor="middle">0.2</text>
<polygon points="136,527.6 156,527.6 156,547.6 136,547.6" fill="rgb(230,127,230)"/><polygon points="136,527.6 156,527.6 156,547.6 136,547.6" fill="none" stroke="black" stroke-width="1"/><text xml:space="preserve" x="146" y="540.433" font-family="Calibri" font-size="7.5" fill="rgb(0,0,0)" text-anchor="middle">0.5</text>
<polygon points="156,527.6 176,527.6 176,547.6 156,547.6" fill="rgb(217,63,217)"/><polygon points="156,527.6 176,527.6 176,547.6 156,547.6" fill="none" stroke="black" stroke-width="1"/><text xml:space="preserve" x="166" y="540.433" font-family="Calibri" font-size="7.5" fill="rgb(255,255,255)" text-anchor="middle">0.8</text>
<polygon points="176,527.6 196,527.6 196,547.6 176,547.6" fill="rgb(205,0,205)"/><polygon points="176,527.6 196,527.6 196,547.6 176,547.6" fill="none" stroke="black" stroke-width="1"/><text xml:space="preserve" x="186" y="540.433" font-family="Calibri" font-size="7.5" fill="rgb(255,255,255)" text-anchor="middle">1.0</text>
</svg>
