<?xml version="1.0" standalone="no"?><!DOCTYPE svg PUBLIC "-//W3C//DTD SVG 1.1//EN" "http://www.w3.org/Graphics/SVG/1.1/DTD/svg11.dtd">
<svg width="312.6" height="567.6" version="1.1" xmlns="http://www.w3.org/2000/svg">
<text xml:space="preserve" x="124.6" y="342.6" font-family="Calibri" font-size="8" text-anchor="end">AC092040.1</text>
<text xml:space="preserve" x="124.6" y="350.6" font-family="Calibri" font-size="8" text-anchor="end">OPCML</text>
<text xml:space="preserve" x="124.6" y="358.6" font-family="Calibri" font-size="8" text-anchor="end">GLIPR2</text>
<text xml:space="preserve" x="124.6" y="366.6" font-family="Calibri" font-size="8" text-anchor="end">FLRT3</text>
<text xml:space="preserve" x="135.6" y="331.6" font-family="Calibri" font-size="8" transform="rotate(270 135.6 331.6)">c1</text>
<text xml:space="preserve" x="143.6" y="331.6" font-family="Calibri" font-size="8" transform="rotate(270 143.6 331.6)">c3</text>
<text xml:space="preserve" x="151.6" y="331.6" font-family="Calibri" font-size="8" transform="rotate(270 151.6 331.6)">c5</text>
<text xml:space="preserve" x="159.6" y="331.6" font-family="Calibri" font-size="8" transform="rotate(270 159.6 331.6)">c4</text>
<text xml:space="preserve" x="167.6" y="331.6" font-family="Calibri" font-size="8" transform="rotate(270 167.6 331.6)">c2</text>
<text xml:space="preserve" x="185.6" y="331.6" font-family="Calibri" font-size="8" transform="rotate(270 185.6 331.6)">c1_mean</text>
<text xml:space="preserve" x="193.6" y="331.6" font-family="Calibri" font-size="8" transform="rotate(270 193.6 331.6)">c3_mean</text>
<text xml:space="preserve" x="201.6" y="331.6" font-family="Calibri" font-size="8" transform="rotate(270 201.6 331.6)">c5_mean</text>
<text xml:space="preserve" x="209.6" y="331.6" font-family="Calibri" font-size="8" transform="rotate(270 209.6 331.6)">c4_mean</text>
<text xml:space="preserve" x="217.6" y="331.6" font-family="Calibri" font-size="8" transform="rotate(270 217.6 331.6)">c2_mean</text>
<text xml:space="preserve" x="235.6" y="331.6" font-family="Calibri" font-size="8" transform="rotate(270 235.6 331.6)">transcription_factor</text>
<text xml:space="preserve" x="243.6" y="331.6" font-family="Calibri" font-size="8" transform="rotate(270 243.6 331.6)">transmembrane_signal_receptor</text>
<text xml:space="preserve" x="251.6" y="331.6" font-family="Calibri" font-size="8" transform="rotate(270 251.6 331.6)">growth_factor</text>
<text xml:space="preserve" x="259.6" y="331.6" font-family="Calibri" font-size="8" transform="rotate(270 259.6 331.6)">peptide_hormone</text>
<text xml:space="preserve" x="267.6" y="331.6" font-family="Calibri" font-size="8" transform="rotate(270 267.6 331.6)">cytoskeletal_protein</text>
<text xml:space="preserve" x="275.6" y="331.6" font-family="Calibri" font-size="8" transform="rotate(270 275.6 331.6)">ion_channel</text>
<text xml:space="preserve" x="283.6" y="331.6" font-family="Calibri" font-size="8" transform="rotate(270 283.6 331.6)">integrin</text>
<text xml:space="preserve" x="291.6" y="331.6" font-family="Calibri" font-size="8" transform="rotate(270 291.6 331.6)">extracellular_matrix_protein</text>
<polygon points="128.6,335.6 136.6,335.6 136.6,343.6 128.6,343.6" fill="rgb(127,230,0)"/><text xml:space="preserve" x="132.6" y="342.433" font-family="Calibri" font-size="7.5" fill="rgb(0,0,0)" text-anchor="middle">2</text>
<polygon points="136.6,335.6 144.6,335.6 144.6,343.6 136.6,343.6" fill="rgb(127,230,0)"/><text xml:space="preserve" x="140.6" y="342.433" font-family="Calibri" font-size="7.5" fill="rgb(0,0,0)" text-anchor="middle">2</text>
<polygon points="144.6,335.6 152.6,335.6 152.6,343.6 144.6,343.6" fill="rgb(127,230,0)"/><text xml:space="preserve" x="148.6" y="342.433" font-family="Calibri" font-size="7.5" fill="rgb(0,0,0)" text-anchor="middle">2</text>
<polygon points="152.6,335.6 160.6,335.6 160.6,343.6 152.6,343.6" fill="rgb(255,255,0)"/><text xml:space="preserve" x="156.6" y="342.433" font-family="Calibri" font-size="7.5" fill="rgb(0,0,0)" text-anchor="middle">3</text>
<polygon points="160.6,335.6 168.6,335.6 168.6,343.6 160.6,343.6" fill="rgb(127,230,0)"/><text xml:space="preserve" x="164.6" y="342.433" font-family="Calibri" font-size="7.5" fill="rgb(0,0,0)" text-anchor="middle">2</text>
<polygon points="178.6,335.6 186.6,335.6 186.6,343.6 178.6,343.6" fill="rgb(11,73,137)"/>
<polygon points="186.6,335.6 194.6,335.6 194.6,343.6 186.6,343.6" fill="rgb(10,66,137)"/>
<polygon points="194.6,335.6 202.6,335.6 202.6,343.6 194.6,343.6" fill="rgb(13,79,138)"/>
<polygon points="202.6,335.6 210.6,335.6 210.6,343.6 202.6,343.6" fill="rgb(25,125,140)"/>
<polygon points="210.6,335.6 218.6,335.6 218.6,343.6 210.6,343.6" fill="rgb(13,80,138)"/>
<polygon points="228.6,335.6 236.6,335.6 236.6,343.6 228.6,343.6" fill="rgb(255,255,255)"/>
<polygon points="236.6,335.6 244.6,335.6 244.6,343.6 236.6,343.6" fill="rgb(255,255,255)"/>
<polygon points="244.6,335.6 252.6,335.6 252.6,343.6 244.6,343.6" fill="rgb(255,255,255)"/>
<polygon points="252.6,335.6 260.6,335.6 260.6,343.6 252.6,343.6" fill="rgb(255,255,255)"/>
<polygon points="260.6,335.6 268.6,335.6 268.6,343.6 260.6,343.6" fill="rgb(255,255,255)"/>
<polygon points="268.6,335.6 276.6,335.6 276.6,343.6 268.6,343.6" fill="rgb(255,255,255)"/>
<polygon points="276.6,335.6 284.6,335.6 284.6,343.6 276.6,343.6" fill="rgb(255,255,255)"/>
<polygon points="284.6,335.6 292.6,335.6 292.6,343.6 284.6,343.6" fill="rgb(255,255,255)"/>
<polygon points="128.6,343.6 136.6,343.6 136.6,351.6 128.6,351.6" fill="rgb(127,230,0)"/><text xml:space="preserve" x="132.6" y="350.433" font-family="Calibri" font-size="7.5" fill="rgb(0,0,0)" text-anchor="middle">2</text>
<polygon points="136.6,343.6 144.6,343.6 144.6,351.6 136.6,351.6" fill="rgb(127,230,0)"/><text xml:space="preserve" x="140.6" y="350.433" font-family="Calibri" font-size="7.5" fill="rgb(0,0,0)" text-anchor="middle">2</text>
<polygon points="144.6,343.6 152.6,343.6 152.6,351.6 144.6,351.6" fill="rgb(127,230,0)"/><text xml:space="preserve" x="148.6" y="350.433" font-family="Calibri" font-size="7.5" fill="rgb(0,0,0)" text-anchor="middle">2</text>
<polygon points="152.6,343.6 160.6,343.6 160.6,351.6 152.6,351.6" fill="rgb(255,255,0)"/><text xml:space="preserve" x="156.6" y="350.433" font-family="Calibri" font-size="7.5" fill="rgb(0,0,0)" text-anchor="middle">3</text>
<polygon points="160.6,343.6 168.6,343.6 168.6,351.6 160.6,351.6" fill="rgb(127,230,0)"/><text xml:space="preserve" x="164.6" y="350.433" font-family="Calibri" font-size="7.5" fill="rgb(0,0,0)" text-anchor="middle">2</text>
<polygon points="178.6,343.6 186.6,343.6 186.6,351.6 178.6,351.6" fill="rgb(16,92,138)"/>
<polygon points="186.6,343.6 194.6,343.6 194.6,351.6 186.6,351.6" fill="rgb(9,65,137)"/>
<polygon points="194.6,343.6 202.6,343.6 202.6,351.6 194.6,351.6" fill="rgb(13,80,138)"/>
<polygon points="202.6,343.6 210.6,343.6 210.6,351.6 202.6,351.6" fill="rgb(25,128,140)"/>
<polygon points="210.6,343.6 218.6,343.6 218.6,351.6 210.6,351.6" fill="rgb(7,55,136)"/>
<polygon points="228.6,343.6 236.6,343.6 236.6,351.6 228.6,351.6" fill="rgb(255,255,255)"/>
<polygon points="236.6,343.6 244.6,343.6 244.6,351.6 236.6,351.6" fill="rgb(255,255,255)"/>
<polygon points="244.6,343.6 252.6,343.6 252.6,351.6 244.6,351.6" fill="rgb(255,255,255)"/>
<polygon points="252.6,343.6 260.6,343.6 260.6,351.6 252.6,351.6" fill="rgb(255,255,255)"/>
<polygon points="260.6,343.6 268.6,343.6 268.6,351.6 260.6,351.6" fill="rgb(255,255,255)"/>
<polygon points="268.6,343.6 276.6,343.6 276.6,351.6 268.6,351.6" fill="rgb(255,255,255)"/>
<polygon points="276.6,343.6 284.6,343.6 284.6,351.6 276.6,351.6" fill="rgb(255,255,255)"/>
<polygon points="284.6,343.6 292.6,343.6 292.6,351.6 284.6,351.6" fill="rgb(255,255,255)"/>
<polygon points="128.6,351.6 136.6,351.6 136.6,359.6 128.6,359.6" fill="rgb(127,230,0)"/><text xml:space="preserve" x="132.6" y="358.433" font-family="Calibri" font-size="7.5" fill="rgb(0,0,0)" text-anchor="middle">2</text>
<polygon points="136.6,351.6 144.6,351.6 144.6,359.6 136.6,359.6" fill="rgb(127,230,0)"/><text xml:space="preserve" x="140.6" y="358.433" font-family="Calibri" font-size="7.5" fill="rgb(0,0,0)" text-anchor="middle">2</text>
<polygon points="144.6,351.6 152.6,351.6 152.6,359.6 144.6,359.6" fill="rgb(127,230,0)"/><text xml:space="preserve" x="148.6" y="358.433" font-family="Calibri" font-size="7.5" fill="rgb(0,0,0)" text-anchor="middle">2</text>
<polygon points="152.6,351.6 160.6,351.6 160.6,359.6 152.6,359.6" fill="rgb(255,255,0)"/><text xml:space="preserve" x="156.6" y="358.433" font-family="Calibri" font-size="7.5" fill="rgb(0,0,0)" text-anchor="middle">3</text>
<polygon points="160.6,351.6 168.6,351.6 168.6,359.6 160.6,359.6" fill="rgb(127,230,0)"/><text xml:space="preserve" x="164.6" y="358.433" font-family="Calibri" font-size="7.5" fill="rgb(0,0,0)" text-anchor="middle">2</text>
<polygon points="178.6,351.6 186.6,351.6 186.6,359.6 178.6,359.6" fill="rgb(12,76,137)"/>
<polygon points="186.6,351.6 194.6,351.6 194.6,359.6 186.6,359.6" fill="rgb(16,92,138)"/>
<polygon points="194.6,351.6 202.6,351.6 202.6,359.6 194.6,359.6" fill="rgb(11,70,137)"/>
<polygon points="202.6,351.6 210.6,351.6 210.6,359.6 202.6,359.6" fill="rgb(19,103,139)"/>
<polygon points="210.6,351.6 218.6,351.6 218.6,359.6 210.6,359.6" fill="rgb(13,78,137)"/>
<polygon points="228.6,351.6 236.6,351.6 236.6,359.6 228.6,359.6" fill="rgb(255,255,255)"/>
<polygon points="236.6,351.6 244.6,351.6 244.6,359.6 236.6,359.6" fill="rgb(255,255,255)"/>
<polygon points="244.6,351.6 252.6,351.6 252.6,359.6 244.6,359.6" fill="rgb(255,255,255)"/>
<polygon points="252.6,351.6 260.6,351.6 260.6,359.6 252.6,359.6" fill="rgb(255,255,255)"/>
<polygon points="260.6,351.6 268.6,351.6 268.6,359.6 260.6,359.6" fill="rgb(255,255,255)"/>
<polygon points="268.6,351.6 276.6,351.6 276.6,359.6 268.6,359.6" fill="rgb(255,255,255)"/>
<polygon points="276.6,351.6 284.6,351.6 284.6,359.6 276.6,359.6" fill="rgb(255,255,255)"/>
<polygon points="284.6,351.6 292.6,351.6 292.6,359.6 284.6,359.6" fill="rgb(255,255,255)"/>
<polygon points="128.6,359.6 136.6,359.6 136.6,367.6 128.6,367.6" fill="rgb(127,230,0)"/><text xml:space="preserve" x="132.6" y="366.433" font-family="Calibri" font-size="7.5" fill="rgb(0,0,0)" text-anchor="middle">2</text>
<polygon points="136.6,359.6 144.6,359.6 144.6,367.6 136.6,367.6" fill="rgb(127,230,0)"/><text xml:space="preserve" x="140.6" y="366.433" font-family="Calibri" font-size="7.5" fill="rgb(0,0,0)" text-anchor="middle">2</text>
<polygon points="144.6,359.6 152.6,359.6 152.6,367.6 144.6,367.6" fill="rgb(127,230,0)"/><text xml:space="preserve" x="148.6" y="366.433" font-family="Calibri" font-size="7.5" fill="rgb(0,0,0)" text-anchor="middle">2</text>
<polygon points="152.6,359.6 160.6,359.6 160.6,367.6 152.6,367.6" fill="rgb(255,255,0)"/><text xml:space="preserve" x="156.6" y="366.433" font-family="Calibri" font-size="7.5" fill="rgb(0,0,0)" text-anchor="middle">3</text>
<polygon points="160.6,359.6 168.6,359.6 168.6,367.6 160.6,367.6" fill="rgb(127,230,0)"/><text xml:space="preserve" x="164.6" y="366.433" font-family="Calibri" font-size="7.5" fill="rgb(0,0,0)" text-anchor="middle">2</text>
<polygon points="178.6,359.6 186.6,359.6 186.6,367.6 178.6,367.6" fill="rgb(7,55,136)"/>
<polygon points="186.6,359.6 194.6,359.6 194.6,367.6 186.6,367.6" fill="rgb(8,59,136)"/>
<polygon points="194.6,359.6 202.6,359.6 202.6,367.6 194.6,367.6" fill="rgb(16,93,138)"/>
<polygon points="202.6,359.6 210.6,359.6 210.6,367.6 202.6,367.6" fill="rgb(26,131,141)"/>
<polygon points="210.6,359.6 218.6,359.6 218.6,367.6 210.6,367.6" fill="rgb(16,91,138)"/>
<polygon points="228.6,359.6 236.6,359.6 236.6,367.6 228.6,367.6" fill="rgb(255,255,255)"/>
<polygon points="236.6,359.6 244.6,359.6 244.6,367.6 236.6,367.6" fill="rgb(255,255,255)"/>
<polygon points="244.6,359.6 252.6,359.6 252.6,367.6 244.6,367.6" fill="rgb(255,255,255)"/>
<polygon points="252.6,359.6 260.6,359.6 260.6,367.6 252.6,367.6" fill="rgb(255,255,255)"/>
<polygon points="260.6,359.6 268.6,359.6 268.6,367.6 260.6,367.6" fill="rgb(255,255,255)"/>
<polygon points="268.6,359.6 276.6,359.6 276.6,367.6 268.6,367.6" fill="rgb(255,255,255)"/>
<polygon points="276.6,359.6 284.6,359.6 284.6,367.6 276.6,367.6" fill="rgb(255,255,255)"/>
<polygon points="284.6,359.6 292.6,359.6 292.6,367.6 284.6,367.6" fill="rgb(255,255,255)"/>
<polygon points="128.6,335.6 168.6,335.6 168.6,367.6 128.6,367.6" fill="none" stroke="black" stroke-width="1"/>
<polygon points="178.6,335.6 218.6,335.6 218.6,367.6 178.6,367.6" fill="none" stroke="black" stroke-width="1"/>
<polygon points="228.6,335.6 292.6,335.6 292.6,367.6 228.6,367.6" fill="none" stroke="black" stroke-width="1"/>
<text xml:space="preserve" x="156.3" y="400.6" font-family="Calibri" font-size="8" text-anchor="middle">ClusterAssignment</text>
<polygon points="106.3,407.6 126.3,407.6 126.3,427.6 106.3,427.6" fill="rgb(0,205,0)"/><polygon points="106.3,407.6 126.3,407.6 126.3,427.6 106.3,427.6" fill="none" stroke="black" stroke-width="1"/><text xml:space="preserve" x="116.3" y="420.433" font-family="Calibri" font-size="7.5" fill="rgb(255,255,255)" text-anchor="middle">1.0</text>
<polygon points="126.3,407.6 146.3,407.6 146.3,427.6 126.3,427.6" fill="rgb(127,230,0)"/><polygon points="126.3,407.6 146.3,407.6 146.3,427.6 126.3,427.6" fill="none" stroke="black" stroke-width="1"/><text xml:space="preserve" x="136.3" y="420.433" font-family="Calibri" font-size="7.5" fill="rgb(0,0,0)" text-anchor="middle">2.0</text>
<polygon points="146.3,407.6 166.3,407.6 166.3,427.6 146.3,427.6" fill="rgb(255,255,0)"/><polygon points="146.3,407.6 166.3,407.6 166.3,427.6 146.3,427.6" fill="none" stroke="black" stroke-width="1"/><text xml:space="preserve" x="156.3" y="420.433" font-family="Calibri" font-size="7.5" fill="rgb(0,0,0)" text-anchor="middle">3.0</text>
<polygon points="166.3,407.6 186.3,407.6 186.3,427.6 166.3,427.6" fill="rgb(230,127,0)"/><polygon points="166.3,407.6 186.3,407.6 186.3,427.6 166.3,427.6" fill="none" stroke="black" stroke-width="1"/><text xml:space="preserve" x="176.3" y="420.433" font-family="Calibri" font-size="7.5" fill="rgb(0,0,0)" text-anchor="middle">4.0</text>
<polygon points="186.3,407.6 206.3,407.6 206.3,427.6 186.3,427.6" fill="rgb(205,0,0)"/><polygon points="186.3,407.6 206.3,407.6 206.3,427.6 186.3,427.6" fill="none" stroke="black" stroke-width="1"/><text xml:space="preserve" x="196.3" y="420.433" font-family="Calibri" font-size="7.5" fill="rgb(255,255,255)" text-anchor="middle">5.0</text>
<text xml:space="preserve" x="156.3" y="460.6" font-family="Calibri" font-size="8" text-anchor="middle">Expression</text>
<polygon points="106.3,467.6 126.3,467.6 126.3,487.6 106.3,487.6" fill="rgb(0,27,135)"/><polygon points="106.3,467.6 126.3,467.6 126.3,487.6 106.3,487.6" fill="none" stroke="black" stroke-width="1"/><text xml:space="preserve" x="116.3" y="480.433" font-family="Calibri" font-size="7.5" fill="rgb(255,255,255)" text-anchor="middle">0.0</text>
<polygon points="126.3,467.6 146.3,467.6 146.3,487.6 126.3,487.6" fill="rgb(24,123,140)"/><polygon points="126.3,467.6 146.3,467.6 146.3,487.6 126.3,487.6" fill="none" stroke="black" stroke-width="1"/><text xml:space="preserve" x="136.3" y="480.433" font-family="Calibri" font-size="7.5" fill="rgb(255,255,255)" text-anchor="middle">0.8</text>
<polygon points="146.3,467.6 166.3,467.6 166.3,487.6 146.3,487.6" fill="rgb(49,219,146)"/><polygon points="146.3,467.6 166.3,467.6 166.3,487.6 146.3,487.6" fill="none" stroke="black" stroke-width="1"/><text xml:space="preserve" x="156.3" y="480.433" font-family="Calibri" font-size="7.5" fill="rgb(0,0,0)" text-anchor="middle">1.5</text>
<polygon points="166.3,467.6 186.3,467.6 186.3,487.6 166.3,487.6" fill="rgb(150,206,73)"/><polygon points="166.3,467.6 186.3,467.6 186.3,487.6 166.3,487.6" fill="none" stroke="black" stroke-width="1"/><text xml:space="preserve" x="176.3" y="480.433" font-family="Calibri" font-size="7.5" fill="rgb(0,0,0)" text-anchor="middle">2.2</text>
<polygon points="186.3,467.6 206.3,467.6 206.3,487.6 186.3,487.6" fill="rgb(252,194,1)"/><polygon points="186.3,467.6 206.3,467.6 206.3,487.6 186.3,487.6" fill="none" stroke="black" stroke-width="1"/><text xml:space="preserve" x="196.3" y="480.433" font-family="Calibri" font-size="7.5" fill="rgb(0,0,0)" text-anchor="middle">3.0</text>
<text xml:space="preserve" x="156.3" y="520.6" font-family="Calibri" font-size="8" text-anchor="middle">PANTHERclass</text>
<polygon points="106.3,527.6 126.3,527.6 126.3,547.6 106.3,547.6" fill="rgb(255,255,255)"/><polygon points="106.3,527.6 126.3,527.6 126.3,547.6 106.3,547.6" fill="none" stroke="black" stroke-width="1"/><text xml:space="preserve" x="116.3" y="540.433" font-family="Calibri" font-size="7.5" fill="rgb(0,0,0)" text-anchor="middle">0.0</text>
<polygon points="126.3,527.6 146.3,527.6 146.3,547.6 126.3,547.6" fill="rgb(242,191,242)"/><polygon points="126.3,527.6 146.3,527.6 146.3,547.6 126.3,547.6" fill="none" stroke="black" stroke-width="1"/><text xml:space="preserve" x="136.3" y="540.433" font-family="Calibri" font-size="7.5" fill="rgb(0,0,0)" text-anchor="middle">0.2</text>
<polygon points="146.3,527.6 166.3,527.6 166.3,547.6 146.3,547.6" fill="rgb(230,127,230)"/><polygon points="146.3,527.6 166.3,527.6 166.3,547.6 146.3,547.6" fill="none" stroke="black" stroke-width="1"/><text xml:space="preserve" x="156.3" y="540.433" font-family="Calibri" font-size="7.5" fill="rgb(0,0,0)" text-anchor="middle">0.5</text>
<polygon points="166.3,527.6 186.3,527.6 186.3,547.6 166.3,547.6" fill="rgb(217,63,217)"/><polygon points="166.3,527.6 186.3,527.6 186.3,547.6 166.3,547.6" fill="none" stroke="black" stroke-width="1"/><text xml:space="preserve" x="176.3" y="540.433" font-family="Calibri" font-size="7.5" fill="rgb(255,255,255)" text-anchor="middle">0.8</text>
<polygon points="186.3,527.6 206.3,527.6 206.3,547.6 186.3,547.6" fill="rgb(205,0,205)"/><polygon points="186.3,527.6 206.3,527.6 206.3,547.6 186.3,547.6" fill="none" stroke="black" stroke-width="1"/><text xml:space="preserve" x="196.3" y="540.433" font-family="Calibri" font-size="7.5" fill="rgb(255,255,255)" text-anchor="middle">1.0</text>
</svg>
