<?xml version="1.0" standalone="no"?><!DOCTYPE svg PUBLIC "-//W3C//DTD SVG 1.1//EN" "http://www.w3.org/Graphics/SVG/1.1/DTD/svg11.dtd">
<svg width="276.3" height="559.6" version="1.1" xmlns="http://www.w3.org/2000/svg">
<text xml:space="preserve" x="88.3" y="342.6" font-family="Calibri" font-size="8" text-anchor="end">CRABP1</text>
<text xml:space="preserve" x="88.3" y="350.6" font-family="Calibri" font-size="8" text-anchor="end">LDHA</text>
<text xml:space="preserve" x="88.3" y="358.6" font-family="Calibri" font-size="8" text-anchor="end">ENO1</text>
<text xml:space="preserve" x="99.3" y="331.6" font-family="Calibri" font-size="8" transform="rotate(270 99.3 331.6)">c1</text>
<text xml:space="preserve" x="107.3" y="331.6" font-family="Calibri" font-size="8" transform="rotate(270 107.3 331.6)">c3</text>
<text xml:space="preserve" x="115.3" y="331.6" font-family="Calibri" font-size="8" transform="rotate(270 115.3 331.6)">c5</text>
<text xml:space="preserve" x="123.3" y="331.6" font-family="Calibri" font-size="8" transform="rotate(270 123.3 331.6)">c4</text>
<text xml:space="preserve" x="131.3" y="331.6" font-family="Calibri" font-size="8" transform="rotate(270 131.3 331.6)">c2</text>
<text xml:space="preserve" x="149.3" y="331.6" font-family="Calibri" font-size="8" transform="rotate(270 149.3 331.6)">c1_mean</text>
<text xml:space="preserve" x="157.3" y="331.6" font-family="Calibri" font-size="8" transform="rotate(270 157.3 331.6)">c3_mean</text>
<text xml:space="preserve" x="165.3" y="331.6" font-family="Calibri" font-size="8" transform="rotate(270 165.3 331.6)">c5_mean</text>
<text xml:space="preserve" x="173.3" y="331.6" font-family="Calibri" font-size="8" transform="rotate(270 173.3 331.6)">c4_mean</text>
<text xml:space="preserve" x="181.3" y="331.6" font-family="Calibri" font-size="8" transform="rotate(270 181.3 331.6)">c2_mean</text>
<text xml:space="preserve" x="199.3" y="331.6" font-family="Calibri" font-size="8" transform="rotate(270 199.3 331.6)">transcription_factor</text>
<text xml:space="preserve" x="207.3" y="331.6" font-family="Calibri" font-size="8" transform="rotate(270 207.3 331.6)">transmembrane_signal_receptor</text>
<text xml:space="preserve" x="215.3" y="331.6" font-family="Calibri" font-size="8" transform="rotate(270 215.3 331.6)">growth_factor</text>
<text xml:space="preserve" x="223.3" y="331.6" font-family="Calibri" font-size="8" transform="rotate(270 223.3 331.6)">peptide_hormone</text>
<text xml:space="preserve" x="231.3" y="331.6" font-family="Calibri" font-size="8" transform="rotate(270 231.3 331.6)">cytoskeletal_protein</text>
<text xml:space="preserve" x="239.3" y="331.6" font-family="Calibri" font-size="8" transform="rotate(270 239.3 331.6)">ion_channel</text>
<text xml:space="preserve" x="247.3" y="331.6" font-family="Calibri" font-size="8" transform="rotate(270 247.3 331.6)">integrin</text>
<text xml:space="preserve" x="255.3" y="331.6" font-family="Calibri" font-size="8" transform="rotate(270 255.3 331.6)">extracellular_matrix_protein</text>
<polygon points="92.3,335.6 100.3,335.6 100.3,343.6 92.3,343.6" fill="rgb(230,127,0)"/><text xml:space="preserve" x="96.3" y="342.433" font-family="Calibri" font-size="7.5" fill="rgb(0,0,0)" text-anchor="middle">4</text>
<polygon points="100.3,335.6 108.3,335.6 108.3,343.6 100.3,343.6" fill="rgb(205,0,0)"/><text xml:space="preserve" x="104.3" y="342.433" font-family="Calibri" font-size="7.5" fill="rgb(255,255,255)" text-anchor="middle">5</text>
<polygon points="108.3,335.6 116.3,335.6 116.3,343.6 108.3,343.6" fill="rgb(230,127,0)"/><text xml:space="preserve" x="112.3" y="342.433" font-family="Calibri" font-size="7.5" fill="rgb(0,0,0)" text-anchor="middle">4</text>
<polygon points="116.3,335.6 124.3,335.6 124.3,343.6 116.3,343.6" fill="rgb(230,127,0)"/><text xml:space="preserve" x="120.3" y="342.433" font-family="Calibri" font-size="7.5" fill="rgb(0,0,0)" text-anchor="middle">4</text>
<polygon points="124.3,335.6 132.3,335.6 132.3,343.6 124.3,343.6" fill="rgb(230,127,0)"/><text xml:space="preserve" x="128.3" y="342.433" font-family="Calibri" font-size="7.5" fill="rgb(0,0,0)" text-anchor="middle">4</text>
<polygon points="142.3,335.6 150.3,335.6 150.3,343.6 142.3,343.6" fill="rgb(38,178,143)"/>
<polygon points="150.3,335.6 158.3,335.6 158.3,343.6 150.3,343.6" fill="rgb(143,207,78)"/>
<polygon points="158.3,335.6 166.3,335.6 166.3,343.6 158.3,343.6" fill="rgb(30,144,141)"/>
<polygon points="166.3,335.6 174.3,335.6 174.3,343.6 166.3,343.6" fill="rgb(40,184,144)"/>
<polygon points="174.3,335.6 182.3,335.6 182.3,343.6 174.3,343.6" fill="rgb(23,117,140)"/>
<polygon points="192.3,335.6 200.3,335.6 200.3,343.6 192.3,343.6" fill="rgb(255,255,255)"/>
<polygon points="200.3,335.6 208.3,335.6 208.3,343.6 200.3,343.6" fill="rgb(255,255,255)"/>
<polygon points="208.3,335.6 216.3,335.6 216.3,343.6 208.3,343.6" fill="rgb(255,255,255)"/>
<polygon points="216.3,335.6 224.3,335.6 224.3,343.6 216.3,343.6" fill="rgb(255,255,255)"/>
<polygon points="224.3,335.6 232.3,335.6 232.3,343.6 224.3,343.6" fill="rgb(255,255,255)"/>
<polygon points="232.3,335.6 240.3,335.6 240.3,343.6 232.3,343.6" fill="rgb(255,255,255)"/>
<polygon points="240.3,335.6 248.3,335.6 248.3,343.6 240.3,343.6" fill="rgb(255,255,255)"/>
<polygon points="248.3,335.6 256.3,335.6 256.3,343.6 248.3,343.6" fill="rgb(255,255,255)"/>
<polygon points="92.3,343.6 100.3,343.6 100.3,351.6 92.3,351.6" fill="rgb(230,127,0)"/><text xml:space="preserve" x="96.3" y="350.433" font-family="Calibri" font-size="7.5" fill="rgb(0,0,0)" text-anchor="middle">4</text>
<polygon points="100.3,343.6 108.3,343.6 108.3,351.6 100.3,351.6" fill="rgb(205,0,0)"/><text xml:space="preserve" x="104.3" y="350.433" font-family="Calibri" font-size="7.5" fill="rgb(255,255,255)" text-anchor="middle">5</text>
<polygon points="108.3,343.6 116.3,343.6 116.3,351.6 108.3,351.6" fill="rgb(230,127,0)"/><text xml:space="preserve" x="112.3" y="350.433" font-family="Calibri" font-size="7.5" fill="rgb(0,0,0)" text-anchor="middle">4</text>
<polygon points="116.3,343.6 124.3,343.6 124.3,351.6 116.3,351.6" fill="rgb(230,127,0)"/><text xml:space="preserve" x="120.3" y="350.433" font-family="Calibri" font-size="7.5" fill="rgb(0,0,0)" text-anchor="middle">4</text>
<polygon points="124.3,343.6 132.3,343.6 132.3,351.6 124.3,351.6" fill="rgb(230,127,0)"/><text xml:space="preserve" x="128.3" y="350.433" font-family="Calibri" font-size="7.5" fill="rgb(0,0,0)" text-anchor="middle">4</text>
<polygon points="142.3,343.6 150.3,343.6 150.3,351.6 142.3,351.6" fill="rgb(37,172,143)"/>
<polygon points="150.3,343.6 158.3,343.6 158.3,351.6 150.3,351.6" fill="rgb(90,213,116)"/>
<polygon points="158.3,343.6 166.3,343.6 166.3,351.6 158.3,351.6" fill="rgb(22,115,140)"/>
<polygon points="166.3,343.6 174.3,343.6 174.3,351.6 166.3,351.6" fill="rgb(22,116,140)"/>
<polygon points="174.3,343.6 182.3,343.6 182.3,351.6 174.3,351.6" fill="rgb(19,103,139)"/>
<polygon points="192.3,343.6 200.3,343.6 200.3,351.6 192.3,351.6" fill="rgb(255,255,255)"/>
<polygon points="200.3,343.6 208.3,343.6 208.3,351.6 200.3,351.6" fill="rgb(255,255,255)"/>
<polygon points="208.3,343.6 216.3,343.6 216.3,351.6 208.3,351.6" fill="rgb(255,255,255)"/>
<polygon points="216.3,343.6 224.3,343.6 224.3,351.6 216.3,351.6" fill="rgb(255,255,255)"/>
<polygon points="224.3,343.6 232.3,343.6 232.3,351.6 224.3,351.6" fill="rgb(255,255,255)"/>
<polygon points="232.3,343.6 240.3,343.6 240.3,351.6 232.3,351.6" fill="rgb(255,255,255)"/>
<polygon points="240.3,343.6 248.3,343.6 248.3,351.6 240.3,351.6" fill="rgb(255,255,255)"/>
<polygon points="248.3,343.6 256.3,343.6 256.3,351.6 248.3,351.6" fill="rgb(255,255,255)"/>
<polygon points="92.3,351.6 100.3,351.6 100.3,359.6 92.3,359.6" fill="rgb(230,127,0)"/><text xml:space="preserve" x="96.3" y="358.433" font-family="Calibri" font-size="7.5" fill="rgb(0,0,0)" text-anchor="middle">4</text>
<polygon points="100.3,351.6 108.3,351.6 108.3,359.6 100.3,359.6" fill="rgb(205,0,0)"/><text xml:space="preserve" x="104.3" y="358.433" font-family="Calibri" font-size="7.5" fill="rgb(255,255,255)" text-anchor="middle">5</text>
<polygon points="108.3,351.6 116.3,351.6 116.3,359.6 108.3,359.6" fill="rgb(230,127,0)"/><text xml:space="preserve" x="112.3" y="358.433" font-family="Calibri" font-size="7.5" fill="rgb(0,0,0)" text-anchor="middle">4</text>
<polygon points="116.3,351.6 124.3,351.6 124.3,359.6 116.3,359.6" fill="rgb(230,127,0)"/><text xml:space="preserve" x="120.3" y="358.433" font-family="Calibri" font-size="7.5" fill="rgb(0,0,0)" text-anchor="middle">4</text>
<polygon points="124.3,351.6 132.3,351.6 132.3,359.6 124.3,359.6" fill="rgb(230,127,0)"/><text xml:space="preserve" x="128.3" y="358.433" font-family="Calibri" font-size="7.5" fill="rgb(0,0,0)" text-anchor="middle">4</text>
<polygon points="142.3,351.6 150.3,351.6 150.3,359.6 142.3,359.6" fill="rgb(35,167,143)"/>
<polygon points="150.3,351.6 158.3,351.6 158.3,359.6 150.3,359.6" fill="rgb(100,212,109)"/>
<polygon points="158.3,351.6 166.3,351.6 166.3,359.6 158.3,359.6" fill="rgb(25,125,140)"/>
<polygon points="166.3,351.6 174.3,351.6 174.3,359.6 166.3,359.6" fill="rgb(25,128,140)"/>
<polygon points="174.3,351.6 182.3,351.6 182.3,359.6 174.3,359.6" fill="rgb(23,119,140)"/>
<polygon points="192.3,351.6 200.3,351.6 200.3,359.6 192.3,359.6" fill="rgb(255,255,255)"/>
<polygon points="200.3,351.6 208.3,351.6 208.3,359.6 200.3,359.6" fill="rgb(255,255,255)"/>
<polygon points="208.3,351.6 216.3,351.6 216.3,359.6 208.3,359.6" fill="rgb(255,255,255)"/>
<polygon points="216.3,351.6 224.3,351.6 224.3,359.6 216.3,359.6" fill="rgb(255,255,255)"/>
<polygon points="224.3,351.6 232.3,351.6 232.3,359.6 224.3,359.6" fill="rgb(255,255,255)"/>
<polygon points="232.3,351.6 240.3,351.6 240.3,359.6 232.3,359.6" fill="rgb(255,255,255)"/>
<polygon points="240.3,351.6 248.3,351.6 248.3,359.6 240.3,359.6" fill="rgb(255,255,255)"/>
<polygon points="248.3,351.6 256.3,351.6 256.3,359.6 248.3,359.6" fill="rgb(255,255,255)"/>
<polygon points="92.3,335.6 132.3,335.6 132.3,359.6 92.3,359.6" fill="none" stroke="black" stroke-width="1"/>
<polygon points="142.3,335.6 182.3,335.6 182.3,359.6 142.3,359.6" fill="none" stroke="black" stroke-width="1"/>
<polygon points="192.3,335.6 256.3,335.6 256.3,359.6 192.3,359.6" fill="none" stroke="black" stroke-width="1"/>
<text xml:space="preserve" x="138.15" y="392.6" font-family="Calibri" font-size="8" text-anchor="middle">ClusterAssignment</text>
<polygon points="88.15,399.6 108.15,399.6 108.15,419.6 88.15,419.6" fill="rgb(0,205,0)"/><polygon points="88.15,399.6 108.15,399.6 108.15,419.6 88.15,419.6" fill="none" stroke="black" stroke-width="1"/><text xml:space="preserve" x="98.15" y="412.433" font-family="Calibri" font-size="7.5" fill="rgb(255,255,255)" text-anchor="middle">1.0</text>
<polygon points="108.15,399.6 128.15,399.6 128.15,419.6 108.15,419.6" fill="rgb(127,230,0)"/><polygon points="108.15,399.6 128.15,399.6 128.15,419.6 108.15,419.6" fill="none" stroke="black" stroke-width="1"/><text xml:space="preserve" x="118.15" y="412.433" font-family="Calibri" font-size="7.5" fill="rgb(0,0,0)" text-anchor="middle">2.0</text>
<polygon points="128.15,399.6 148.15,399.6 148.15,419.6 128.15,419.6" fill="rgb(255,255,0)"/><polygon points="128.15,399.6 148.15,399.6 148.15,419.6 128.15,419.6" fill="none" stroke="black" stroke-width="1"/><text xml:space="preserve" x="138.15" y="412.433" font-family="Calibri" font-size="7.5" fill="rgb(0,0,0)" text-anchor="middle">3.0</text>
<polygon points="148.15,399.6 168.15,399.6 168.15,419.6 148.15,419.6" fill="rgb(230,127,0)"/><polygon points="148.15,399.6 168.15,399.6 168.15,419.6 148.15,419.6" fill="none" stroke="black" stroke-width="1"/><text xml:space="preserve" x="158.15" y="412.433" font-family="Calibri" font-size="7.5" fill="rgb(0,0,0)" text-anchor="middle">4.0</text>
<polygon points="168.15,399.6 188.15,399.6 188.15,419.6 168.15,419.6" fill="rgb(205,0,0)"/><polygon points="168.15,399.6 188.15,399.6 188.15,419.6 168.15,419.6" fill="none" stroke="black" stroke-width="1"/><text xml:space="preserve" x="178.15" y="412.433" font-family="Calibri" font-size="7.5" fill="rgb(255,255,255)" text-anchor="middle">5.0</text>
<text xml:space="preserve" x="138.15" y="452.6" font-family="Calibri" font-size="8" text-anchor="middle">Expression</text>
<polygon points="88.15,459.6 108.15,459.6 108.15,479.6 88.15,479.6" fill="rgb(0,27,135)"/><polygon points="88.15,459.6 108.15,459.6 108.15,479.6 88.15,479.6" fill="none" stroke="black" stroke-width="1"/><text xml:space="preserve" x="98.15" y="472.433" font-family="Calibri" font-size="7.5" fill="rgb(255,255,255)" text-anchor="middle">0.0</text>
<polygon points="108.15,459.6 128.15,459.6 128.15,479.6 108.15,479.6" fill="rgb(24,123,140)"/><polygon points="108.15,459.6 128.15,459.6 128.15,479.6 108.15,479.6" fill="none" stroke="black" stroke-width="1"/><text xml:space="preserve" x="118.15" y="472.433" font-family="Calibri" font-size="7.5" fill="rgb(255,255,255)" text-anchor="middle">0.8</text>
<polygon points="128.15,459.6 148.15,459.6 148.15,479.6 128.15,479.6" fill="rgb(49,219,146)"/><polygon points="128.15,459.6 148.15,459.6 148.15,479.6 128.15,479.6" fill="none" stroke="black" stroke-width="1"/><text xml:space="preserve" x="138.15" y="472.433" font-family="Calibri" font-size="7.5" fill="rgb(0,0,0)" text-anchor="middle">1.5</text>
<polygon points="148.15,459.6 168.15,459.6 168.15,479.6 148.15,479.6" fill="rgb(150,206,73)"/><polygon points="148.15,459.6 168.15,459.6 168.15,479.6 148.15,479.6" fill="none" stroke="black" stroke-width="1"/><text xml:space="preserve" x="158.15" y="472.433" font-family="Calibri" font-size="7.5" fill="rgb(0,0,0)" text-anchor="middle">2.2</text>
<polygon points="168.15,459.6 188.15,459.6 188.15,479.6 168.15,479.6" fill="rgb(252,194,1)"/><polygon points="168.15,459.6 188.15,459.6 188.15,479.6 168.15,479.6" fill="none" stroke="black" stroke-width="1"/><text xml:space="preserve" x="178.15" y="472.433" font-family="Calibri" font-size="7.5" fill="rgb(0,0,0)" text-anchor="middle">3.0</text>
<text xml:space="preserve" x="138.15" y="512.6" font-family="Calibri" font-size="8" text-anchor="middle">PANTHERclass</text>
<polygon points="88.15,519.6 108.15,519.6 108.15,539.6 88.15,539.6" fill="rgb(255,255,255)"/><polygon points="88.15,519.6 108.15,519.6 108.15,539.6 88.15,539.6" fill="none" stroke="black" stroke-width="1"/><text xml:space="preserve" x="98.15" y="532.433" font-family="Calibri" font-size="7.5" fill="rgb(0,0,0)" text-anchor="middle">0.0</text>
<polygon points="108.15,519.6 128.15,519.6 128.15,539.6 108.15,539.6" fill="rgb(242,191,242)"/><polygon points="108.15,519.6 128.15,519.6 128.15,539.6 108.15,539.6" fill="none" stroke="black" stroke-width="1"/><text xml:space="preserve" x="118.15" y="532.433" font-family="Calibri" font-size="7.5" fill="rgb(0,0,0)" text-anchor="middle">0.2</text>
<polygon points="128.15,519.6 148.15,519.6 148.15,539.6 128.15,539.6" fill="rgb(230,127,230)"/><polygon points="128.15,519.6 148.15,519.6 148.15,539.6 128.15,539.6" fill="none" stroke="black" stroke-width="1"/><text xml:space="preserve" x="138.15" y="532.433" font-family="Calibri" font-size="7.5" fill="rgb(0,0,0)" text-anchor="middle">0.5</text>
<polygon points="148.15,519.6 168.15,519.6 168.15,539.6 148.15,539.6" fill="rgb(217,63,217)"/><polygon points="148.15,519.6 168.15,519.6 168.15,539.6 148.15,539.6" fill="none" stroke="black" stroke-width="1"/><text xml:space="preserve" x="158.15" y="532.433" font-family="Calibri" font-size="7.5" fill="rgb(255,255,255)" text-anchor="middle">0.8</text>
<polygon points="168.15,519.6 188.15,519.6 188.15,539.6 168.15,539.6" fill="rgb(205,0,205)"/><polygon points="168.15,519.6 188.15,519.6 188.15,539.6 168.15,539.6" fill="none" stroke="black" stroke-width="1"/><text xml:space="preserve" x="178.15" y="532.433" font-family="Calibri" font-size="7.5" fill="rgb(255,255,255)" text-anchor="middle">1.0</text>
</svg>
