<?xml version="1.0" standalone="no"?><!DOCTYPE svg PUBLIC "-//W3C//DTD SVG 1.1//EN" "http://www.w3.org/Graphics/SVG/1.1/DTD/svg11.dtd">
<svg width="300" height="607.6" version="1.1" xmlns="http://www.w3.org/2000/svg">
<text xml:space="preserve" x="112" y="342.6" font-family="Calibri" font-size="8" text-anchor="end">ATG4A</text>
<text xml:space="preserve" x="112" y="350.6" font-family="Calibri" font-size="8" text-anchor="end">BCL2L13</text>
<text xml:space="preserve" x="112" y="358.6" font-family="Calibri" font-size="8" text-anchor="end">FAT1</text>
<text xml:space="preserve" x="112" y="366.6" font-family="Calibri" font-size="8" text-anchor="end">CREBRF</text>
<text xml:space="preserve" x="112" y="374.6" font-family="Calibri" font-size="8" text-anchor="end">BBS9</text>
<text xml:space="preserve" x="112" y="382.6" font-family="Calibri" font-size="8" text-anchor="end">HERPUD2</text>
<text xml:space="preserve" x="112" y="390.6" font-family="Calibri" font-size="8" text-anchor="end">SLC22A18</text>
<text xml:space="preserve" x="112" y="398.6" font-family="Calibri" font-size="8" text-anchor="end">RAB11FIP1</text>
<text xml:space="preserve" x="112" y="406.6" font-family="Calibri" font-size="8" text-anchor="end">GPS2</text>
<text xml:space="preserve" x="123" y="331.6" font-family="Calibri" font-size="8" transform="rotate(270 123 331.6)">c1</text>
<text xml:space="preserve" x="131" y="331.6" font-family="Calibri" font-size="8" transform="rotate(270 131 331.6)">c3</text>
<text xml:space="preserve" x="139" y="331.6" font-family="Calibri" font-size="8" transform="rotate(270 139 331.6)">c5</text>
<text xml:space="preserve" x="147" y="331.6" font-family="Calibri" font-size="8" transform="rotate(270 147 331.6)">c4</text>
<text xml:space="preserve" x="155" y="331.6" font-family="Calibri" font-size="8" transform="rotate(270 155 331.6)">c2</text>
<text xml:space="preserve" x="173" y="331.6" font-family="Calibri" font-size="8" transform="rotate(270 173 331.6)">c1_mean</text>
<text xml:space="preserve" x="181" y="331.6" font-family="Calibri" font-size="8" transform="rotate(270 181 331.6)">c3_mean</text>
<text xml:space="preserve" x="189" y="331.6" font-family="Calibri" font-size="8" transform="rotate(270 189 331.6)">c5_mean</text>
<text xml:space="preserve" x="197" y="331.6" font-family="Calibri" font-size="8" transform="rotate(270 197 331.6)">c4_mean</text>
<text xml:space="preserve" x="205" y="331.6" font-family="Calibri" font-size="8" transform="rotate(270 205 331.6)">c2_mean</text>
<text xml:space="preserve" x="223" y="331.6" font-family="Calibri" font-size="8" transform="rotate(270 223 331.6)">transcription_factor</text>
<text xml:space="preserve" x="231" y="331.6" font-family="Calibri" font-size="8" transform="rotate(270 231 331.6)">transmembrane_signal_receptor</text>
<text xml:space="preserve" x="239" y="331.6" font-family="Calibri" font-size="8" transform="rotate(270 239 331.6)">growth_factor</text>
<text xml:space="preserve" x="247" y="331.6" font-family="Calibri" font-size="8" transform="rotate(270 247 331.6)">peptide_hormone</text>
<text xml:space="preserve" x="255" y="331.6" font-family="Calibri" font-size="8" transform="rotate(270 255 331.6)">cytoskeletal_protein</text>
<text xml:space="preserve" x="263" y="331.6" font-family="Calibri" font-size="8" transform="rotate(270 263 331.6)">ion_channel</text>
<text xml:space="preserve" x="271" y="331.6" font-family="Calibri" font-size="8" transform="rotate(270 271 331.6)">integrin</text>
<text xml:space="preserve" x="279" y="331.6" font-family="Calibri" font-size="8" transform="rotate(270 279 331.6)">extracellular_matrix_protein</text>
<polygon points="116,335.6 124,335.6 124,343.6 116,343.6" fill="rgb(127,230,0)"/><text xml:space="preserve" x="120" y="342.433" font-family="Calibri" font-size="7.5" fill="rgb(0,0,0)" text-anchor="middle">2</text>
<polygon points="124,335.6 132,335.6 132,343.6 124,343.6" fill="rgb(127,230,0)"/><text xml:space="preserve" x="128" y="342.433" font-family="Calibri" font-size="7.5" fill="rgb(0,0,0)" text-anchor="middle">2</text>
<polygon points="132,335.6 140,335.6 140,343.6 132,343.6" fill="rgb(127,230,0)"/><text xml:space="preserve" x="136" y="342.433" font-family="Calibri" font-size="7.5" fill="rgb(0,0,0)" text-anchor="middle">2</text>
<polygon points="140,335.6 148,335.6 148,343.6 140,343.6" fill="rgb(127,230,0)"/><text xml:space="preserve" x="144" y="342.433" font-family="Calibri" font-size="7.5" fill="rgb(0,0,0)" text-anchor="middle">2</text>
<polygon points="148,335.6 156,335.6 156,343.6 148,343.6" fill="rgb(255,255,0)"/><text xml:space="preserve" x="152" y="342.433" font-family="Calibri" font-size="7.5" fill="rgb(0,0,0)" text-anchor="middle">3</text>
<polygon points="166,335.6 174,335.6 174,343.6 166,343.6" fill="rgb(14,83,138)"/>
<polygon points="174,335.6 182,335.6 182,343.6 174,343.6" fill="rgb(14,83,138)"/>
<polygon points="182,335.6 190,335.6 190,343.6 182,343.6" fill="rgb(13,80,138)"/>
<polygon points="190,335.6 198,335.6 198,343.6 190,343.6" fill="rgb(15,88,138)"/>
<polygon points="198,335.6 206,335.6 206,343.6 198,343.6" fill="rgb(16,89,138)"/>
<polygon points="216,335.6 224,335.6 224,343.6 216,343.6" fill="rgb(255,255,255)"/>
<polygon points="224,335.6 232,335.6 232,343.6 224,343.6" fill="rgb(255,255,255)"/>
<polygon points="232,335.6 240,335.6 240,343.6 232,343.6" fill="rgb(255,255,255)"/>
<polygon points="240,335.6 248,335.6 248,343.6 240,343.6" fill="rgb(255,255,255)"/>
<polygon points="248,335.6 256,335.6 256,343.6 248,343.6" fill="rgb(255,255,255)"/>
<polygon points="256,335.6 264,335.6 264,343.6 256,343.6" fill="rgb(255,255,255)"/>
<polygon points="264,335.6 272,335.6 272,343.6 264,343.6" fill="rgb(255,255,255)"/>
<polygon points="272,335.6 280,335.6 280,343.6 272,343.6" fill="rgb(255,255,255)"/>
<polygon points="116,343.6 124,343.6 124,351.6 116,351.6" fill="rgb(127,230,0)"/><text xml:space="preserve" x="120" y="350.433" font-family="Calibri" font-size="7.5" fill="rgb(0,0,0)" text-anchor="middle">2</text>
<polygon points="124,343.6 132,343.6 132,351.6 124,351.6" fill="rgb(127,230,0)"/><text xml:space="preserve" x="128" y="350.433" font-family="Calibri" font-size="7.5" fill="rgb(0,0,0)" text-anchor="middle">2</text>
<polygon points="132,343.6 140,343.6 140,351.6 132,351.6" fill="rgb(127,230,0)"/><text xml:space="preserve" x="136" y="350.433" font-family="Calibri" font-size="7.5" fill="rgb(0,0,0)" text-anchor="middle">2</text>
<polygon points="140,343.6 148,343.6 148,351.6 140,351.6" fill="rgb(127,230,0)"/><text xml:space="preserve" x="144" y="350.433" font-family="Calibri" font-size="7.5" fill="rgb(0,0,0)" text-anchor="middle">2</text>
<polygon points="148,343.6 156,343.6 156,351.6 148,351.6" fill="rgb(255,255,0)"/><text xml:space="preserve" x="152" y="350.433" font-family="Calibri" font-size="7.5" fill="rgb(0,0,0)" text-anchor="middle">3</text>
<polygon points="166,343.6 174,343.6 174,351.6 166,351.6" fill="rgb(12,76,137)"/>
<polygon points="174,343.6 182,343.6 182,351.6 174,351.6" fill="rgb(13,80,138)"/>
<polygon points="182,343.6 190,343.6 190,351.6 182,351.6" fill="rgb(13,80,138)"/>
<polygon points="190,343.6 198,343.6 198,351.6 190,351.6" fill="rgb(16,89,138)"/>
<polygon points="198,343.6 206,343.6 206,351.6 198,351.6" fill="rgb(18,98,139)"/>
<polygon points="216,343.6 224,343.6 224,351.6 216,351.6" fill="rgb(255,255,255)"/>
<polygon points="224,343.6 232,343.6 232,351.6 224,351.6" fill="rgb(255,255,255)"/>
<polygon points="232,343.6 240,343.6 240,351.6 232,351.6" fill="rgb(255,255,255)"/>
<polygon points="240,343.6 248,343.6 248,351.6 240,351.6" fill="rgb(255,255,255)"/>
<polygon points="248,343.6 256,343.6 256,351.6 248,351.6" fill="rgb(255,255,255)"/>
<polygon points="256,343.6 264,343.6 264,351.6 256,351.6" fill="rgb(255,255,255)"/>
<polygon points="264,343.6 272,343.6 272,351.6 264,351.6" fill="rgb(255,255,255)"/>
<polygon points="272,343.6 280,343.6 280,351.6 272,351.6" fill="rgb(255,255,255)"/>
<polygon points="116,351.6 124,351.6 124,359.6 116,359.6" fill="rgb(127,230,0)"/><text xml:space="preserve" x="120" y="358.433" font-family="Calibri" font-size="7.5" fill="rgb(0,0,0)" text-anchor="middle">2</text>
<polygon points="124,351.6 132,351.6 132,359.6 124,359.6" fill="rgb(127,230,0)"/><text xml:space="preserve" x="128" y="358.433" font-family="Calibri" font-size="7.5" fill="rgb(0,0,0)" text-anchor="middle">2</text>
<polygon points="132,351.6 140,351.6 140,359.6 132,359.6" fill="rgb(127,230,0)"/><text xml:space="preserve" x="136" y="358.433" font-family="Calibri" font-size="7.5" fill="rgb(0,0,0)" text-anchor="middle">2</text>
<polygon points="140,351.6 148,351.6 148,359.6 140,359.6" fill="rgb(127,230,0)"/><text xml:space="preserve" x="144" y="358.433" font-family="Calibri" font-size="7.5" fill="rgb(0,0,0)" text-anchor="middle">2</text>
<polygon points="148,351.6 156,351.6 156,359.6 148,359.6" fill="rgb(255,255,0)"/><text xml:space="preserve" x="152" y="358.433" font-family="Calibri" font-size="7.5" fill="rgb(0,0,0)" text-anchor="middle">3</text>
<polygon points="166,351.6 174,351.6 174,359.6 166,359.6" fill="rgb(10,66,137)"/>
<polygon points="174,351.6 182,351.6 182,359.6 174,359.6" fill="rgb(13,79,138)"/>
<polygon points="182,351.6 190,351.6 190,359.6 182,359.6" fill="rgb(17,96,138)"/>
<polygon points="190,351.6 198,351.6 198,359.6 190,359.6" fill="rgb(11,70,137)"/>
<polygon points="198,351.6 206,351.6 206,359.6 198,359.6" fill="rgb(23,120,140)"/>
<polygon points="216,351.6 224,351.6 224,359.6 216,359.6" fill="rgb(255,255,255)"/>
<polygon points="224,351.6 232,351.6 232,359.6 224,359.6" fill="rgb(255,255,255)"/>
<polygon points="232,351.6 240,351.6 240,359.6 232,359.6" fill="rgb(255,255,255)"/>
<polygon points="240,351.6 248,351.6 248,359.6 240,359.6" fill="rgb(255,255,255)"/>
<polygon points="248,351.6 256,351.6 256,359.6 248,359.6" fill="rgb(255,255,255)"/>
<polygon points="256,351.6 264,351.6 264,359.6 256,359.6" fill="rgb(255,255,255)"/>
<polygon points="264,351.6 272,351.6 272,359.6 264,359.6" fill="rgb(255,255,255)"/>
<polygon points="272,351.6 280,351.6 280,359.6 272,359.6" fill="rgb(255,255,255)"/>
<polygon points="116,359.6 124,359.6 124,367.6 116,367.6" fill="rgb(127,230,0)"/><text xml:space="preserve" x="120" y="366.433" font-family="Calibri" font-size="7.5" fill="rgb(0,0,0)" text-anchor="middle">2</text>
<polygon points="124,359.6 132,359.6 132,367.6 124,367.6" fill="rgb(127,230,0)"/><text xml:space="preserve" x="128" y="366.433" font-family="Calibri" font-size="7.5" fill="rgb(0,0,0)" text-anchor="middle">2</text>
<polygon points="132,359.6 140,359.6 140,367.6 132,367.6" fill="rgb(127,230,0)"/><text xml:space="preserve" x="136" y="366.433" font-family="Calibri" font-size="7.5" fill="rgb(0,0,0)" text-anchor="middle">2</text>
<polygon points="140,359.6 148,359.6 148,367.6 140,367.6" fill="rgb(127,230,0)"/><text xml:space="preserve" x="144" y="366.433" font-family="Calibri" font-size="7.5" fill="rgb(0,0,0)" text-anchor="middle">2</text>
<polygon points="148,359.6 156,359.6 156,367.6 148,367.6" fill="rgb(255,255,0)"/><text xml:space="preserve" x="152" y="366.433" font-family="Calibri" font-size="7.5" fill="rgb(0,0,0)" text-anchor="middle">3</text>
<polygon points="166,359.6 174,359.6 174,367.6 166,367.6" fill="rgb(14,83,138)"/>
<polygon points="174,359.6 182,359.6 182,367.6 174,367.6" fill="rgb(12,75,137)"/>
<polygon points="182,359.6 190,359.6 190,367.6 182,367.6" fill="rgb(11,73,137)"/>
<polygon points="190,359.6 198,359.6 198,367.6 190,367.6" fill="rgb(12,75,137)"/>
<polygon points="198,359.6 206,359.6 206,367.6 198,367.6" fill="rgb(27,134,141)"/>
<polygon points="216,359.6 224,359.6 224,367.6 216,367.6" fill="rgb(205,0,205)"/>
<polygon points="224,359.6 232,359.6 232,367.6 224,367.6" fill="rgb(255,255,255)"/>
<polygon points="232,359.6 240,359.6 240,367.6 232,367.6" fill="rgb(255,255,255)"/>
<polygon points="240,359.6 248,359.6 248,367.6 240,367.6" fill="rgb(255,255,255)"/>
<polygon points="248,359.6 256,359.6 256,367.6 248,367.6" fill="rgb(255,255,255)"/>
<polygon points="256,359.6 264,359.6 264,367.6 256,367.6" fill="rgb(255,255,255)"/>
<polygon points="264,359.6 272,359.6 272,367.6 264,367.6" fill="rgb(255,255,255)"/>
<polygon points="272,359.6 280,359.6 280,367.6 272,367.6" fill="rgb(255,255,255)"/>
<polygon points="116,367.6 124,367.6 124,375.6 116,375.6" fill="rgb(127,230,0)"/><text xml:space="preserve" x="120" y="374.433" font-family="Calibri" font-size="7.5" fill="rgb(0,0,0)" text-anchor="middle">2</text>
<polygon points="124,367.6 132,367.6 132,375.6 124,375.6" fill="rgb(127,230,0)"/><text xml:space="preserve" x="128" y="374.433" font-family="Calibri" font-size="7.5" fill="rgb(0,0,0)" text-anchor="middle">2</text>
<polygon points="132,367.6 140,367.6 140,375.6 132,375.6" fill="rgb(127,230,0)"/><text xml:space="preserve" x="136" y="374.433" font-family="Calibri" font-size="7.5" fill="rgb(0,0,0)" text-anchor="middle">2</text>
<polygon points="140,367.6 148,367.6 148,375.6 140,375.6" fill="rgb(127,230,0)"/><text xml:space="preserve" x="144" y="374.433" font-family="Calibri" font-size="7.5" fill="rgb(0,0,0)" text-anchor="middle">2</text>
<polygon points="148,367.6 156,367.6 156,375.6 148,375.6" fill="rgb(255,255,0)"/><text xml:space="preserve" x="152" y="374.433" font-family="Calibri" font-size="7.5" fill="rgb(0,0,0)" text-anchor="middle">3</text>
<polygon points="166,367.6 174,367.6 174,375.6 166,375.6" fill="rgb(12,76,137)"/>
<polygon points="174,367.6 182,367.6 182,375.6 174,375.6" fill="rgb(12,74,137)"/>
<polygon points="182,367.6 190,367.6 190,375.6 182,375.6" fill="rgb(10,66,137)"/>
<polygon points="190,367.6 198,367.6 198,375.6 190,375.6" fill="rgb(19,102,139)"/>
<polygon points="198,367.6 206,367.6 206,375.6 198,375.6" fill="rgb(21,111,139)"/>
<polygon points="216,367.6 224,367.6 224,375.6 216,375.6" fill="rgb(255,255,255)"/>
<polygon points="224,367.6 232,367.6 232,375.6 224,375.6" fill="rgb(255,255,255)"/>
<polygon points="232,367.6 240,367.6 240,375.6 232,375.6" fill="rgb(255,255,255)"/>
<polygon points="240,367.6 248,367.6 248,375.6 240,375.6" fill="rgb(255,255,255)"/>
<polygon points="248,367.6 256,367.6 256,375.6 248,375.6" fill="rgb(255,255,255)"/>
<polygon points="256,367.6 264,367.6 264,375.6 256,375.6" fill="rgb(255,255,255)"/>
<polygon points="264,367.6 272,367.6 272,375.6 264,375.6" fill="rgb(255,255,255)"/>
<polygon points="272,367.6 280,367.6 280,375.6 272,375.6" fill="rgb(255,255,255)"/>
<polygon points="116,375.6 124,375.6 124,383.6 116,383.6" fill="rgb(127,230,0)"/><text xml:space="preserve" x="120" y="382.433" font-family="Calibri" font-size="7.5" fill="rgb(0,0,0)" text-anchor="middle">2</text>
<polygon points="124,375.6 132,375.6 132,383.6 124,383.6" fill="rgb(127,230,0)"/><text xml:space="preserve" x="128" y="382.433" font-family="Calibri" font-size="7.5" fill="rgb(0,0,0)" text-anchor="middle">2</text>
<polygon points="132,375.6 140,375.6 140,383.6 132,383.6" fill="rgb(127,230,0)"/><text xml:space="preserve" x="136" y="382.433" font-family="Calibri" font-size="7.5" fill="rgb(0,0,0)" text-anchor="middle">2</text>
<polygon points="140,375.6 148,375.6 148,383.6 140,383.6" fill="rgb(127,230,0)"/><text xml:space="preserve" x="144" y="382.433" font-family="Calibri" font-size="7.5" fill="rgb(0,0,0)" text-anchor="middle">2</text>
<polygon points="148,375.6 156,375.6 156,383.6 148,383.6" fill="rgb(255,255,0)"/><text xml:space="preserve" x="152" y="382.433" font-family="Calibri" font-size="7.5" fill="rgb(0,0,0)" text-anchor="middle">3</text>
<polygon points="166,375.6 174,375.6 174,383.6 166,383.6" fill="rgb(14,84,138)"/>
<polygon points="174,375.6 182,375.6 182,383.6 174,383.6" fill="rgb(13,79,138)"/>
<polygon points="182,375.6 190,375.6 190,383.6 182,383.6" fill="rgb(14,83,138)"/>
<polygon points="190,375.6 198,375.6 198,383.6 190,383.6" fill="rgb(14,84,138)"/>
<polygon points="198,375.6 206,375.6 206,383.6 198,383.6" fill="rgb(18,98,139)"/>
<polygon points="216,375.6 224,375.6 224,383.6 216,383.6" fill="rgb(255,255,255)"/>
<polygon points="224,375.6 232,375.6 232,383.6 224,383.6" fill="rgb(255,255,255)"/>
<polygon points="232,375.6 240,375.6 240,383.6 232,383.6" fill="rgb(255,255,255)"/>
<polygon points="240,375.6 248,375.6 248,383.6 240,383.6" fill="rgb(255,255,255)"/>
<polygon points="248,375.6 256,375.6 256,383.6 248,383.6" fill="rgb(255,255,255)"/>
<polygon points="256,375.6 264,375.6 264,383.6 256,383.6" fill="rgb(255,255,255)"/>
<polygon points="264,375.6 272,375.6 272,383.6 264,383.6" fill="rgb(255,255,255)"/>
<polygon points="272,375.6 280,375.6 280,383.6 272,383.6" fill="rgb(255,255,255)"/>
<polygon points="116,383.6 124,383.6 124,391.6 116,391.6" fill="rgb(127,230,0)"/><text xml:space="preserve" x="120" y="390.433" font-family="Calibri" font-size="7.5" fill="rgb(0,0,0)" text-anchor="middle">2</text>
<polygon points="124,383.6 132,383.6 132,391.6 124,391.6" fill="rgb(127,230,0)"/><text xml:space="preserve" x="128" y="390.433" font-family="Calibri" font-size="7.5" fill="rgb(0,0,0)" text-anchor="middle">2</text>
<polygon points="132,383.6 140,383.6 140,391.6 132,391.6" fill="rgb(127,230,0)"/><text xml:space="preserve" x="136" y="390.433" font-family="Calibri" font-size="7.5" fill="rgb(0,0,0)" text-anchor="middle">2</text>
<polygon points="140,383.6 148,383.6 148,391.6 140,391.6" fill="rgb(127,230,0)"/><text xml:space="preserve" x="144" y="390.433" font-family="Calibri" font-size="7.5" fill="rgb(0,0,0)" text-anchor="middle">2</text>
<polygon points="148,383.6 156,383.6 156,391.6 148,391.6" fill="rgb(255,255,0)"/><text xml:space="preserve" x="152" y="390.433" font-family="Calibri" font-size="7.5" fill="rgb(0,0,0)" text-anchor="middle">3</text>
<polygon points="166,383.6 174,383.6 174,391.6 166,391.6" fill="rgb(18,98,139)"/>
<polygon points="174,383.6 182,383.6 182,391.6 174,391.6" fill="rgb(9,64,137)"/>
<polygon points="182,383.6 190,383.6 190,391.6 182,391.6" fill="rgb(7,56,136)"/>
<polygon points="190,383.6 198,383.6 198,391.6 190,391.6" fill="rgb(18,101,139)"/>
<polygon points="198,383.6 206,383.6 206,391.6 198,391.6" fill="rgb(23,117,140)"/>
<polygon points="216,383.6 224,383.6 224,391.6 216,391.6" fill="rgb(255,255,255)"/>
<polygon points="224,383.6 232,383.6 232,391.6 224,391.6" fill="rgb(255,255,255)"/>
<polygon points="232,383.6 240,383.6 240,391.6 232,391.6" fill="rgb(255,255,255)"/>
<polygon points="240,383.6 248,383.6 248,391.6 240,391.6" fill="rgb(255,255,255)"/>
<polygon points="248,383.6 256,383.6 256,391.6 248,391.6" fill="rgb(255,255,255)"/>
<polygon points="256,383.6 264,383.6 264,391.6 256,391.6" fill="rgb(255,255,255)"/>
<polygon points="264,383.6 272,383.6 272,391.6 264,391.6" fill="rgb(255,255,255)"/>
<polygon points="272,383.6 280,383.6 280,391.6 272,391.6" fill="rgb(255,255,255)"/>
<polygon points="116,391.6 124,391.6 124,399.6 116,399.6" fill="rgb(127,230,0)"/><text xml:space="preserve" x="120" y="398.433" font-family="Calibri" font-size="7.5" fill="rgb(0,0,0)" text-anchor="middle">2</text>
<polygon points="124,391.6 132,391.6 132,399.6 124,399.6" fill="rgb(127,230,0)"/><text xml:space="preserve" x="128" y="398.433" font-family="Calibri" font-size="7.5" fill="rgb(0,0,0)" text-anchor="middle">2</text>
<polygon points="132,391.6 140,391.6 140,399.6 132,399.6" fill="rgb(127,230,0)"/><text xml:space="preserve" x="136" y="398.433" font-family="Calibri" font-size="7.5" fill="rgb(0,0,0)" text-anchor="middle">2</text>
<polygon points="140,391.6 148,391.6 148,399.6 140,399.6" fill="rgb(127,230,0)"/><text xml:space="preserve" x="144" y="398.433" font-family="Calibri" font-size="7.5" fill="rgb(0,0,0)" text-anchor="middle">2</text>
<polygon points="148,391.6 156,391.6 156,399.6 148,399.6" fill="rgb(255,255,0)"/><text xml:space="preserve" x="152" y="398.433" font-family="Calibri" font-size="7.5" fill="rgb(0,0,0)" text-anchor="middle">3</text>
<polygon points="166,391.6 174,391.6 174,399.6 166,399.6" fill="rgb(12,75,137)"/>
<polygon points="174,391.6 182,391.6 182,399.6 174,399.6" fill="rgb(14,82,138)"/>
<polygon points="182,391.6 190,391.6 190,399.6 182,399.6" fill="rgb(13,78,137)"/>
<polygon points="190,391.6 198,391.6 198,399.6 190,399.6" fill="rgb(14,82,138)"/>
<polygon points="198,391.6 206,391.6 206,399.6 198,399.6" fill="rgb(22,115,140)"/>
<polygon points="216,391.6 224,391.6 224,399.6 216,399.6" fill="rgb(255,255,255)"/>
<polygon points="224,391.6 232,391.6 232,399.6 224,399.6" fill="rgb(255,255,255)"/>
<polygon points="232,391.6 240,391.6 240,399.6 232,399.6" fill="rgb(255,255,255)"/>
<polygon points="240,391.6 248,391.6 248,399.6 240,399.6" fill="rgb(255,255,255)"/>
<polygon points="248,391.6 256,391.6 256,399.6 248,399.6" fill="rgb(255,255,255)"/>
<polygon points="256,391.6 264,391.6 264,399.6 256,399.6" fill="rgb(255,255,255)"/>
<polygon points="264,391.6 272,391.6 272,399.6 264,399.6" fill="rgb(255,255,255)"/>
<polygon points="272,391.6 280,391.6 280,399.6 272,399.6" fill="rgb(255,255,255)"/>
<polygon points="116,399.6 124,399.6 124,407.6 116,407.6" fill="rgb(127,230,0)"/><text xml:space="preserve" x="120" y="406.433" font-family="Calibri" font-size="7.5" fill="rgb(0,0,0)" text-anchor="middle">2</text>
<polygon points="124,399.6 132,399.6 132,407.6 124,407.6" fill="rgb(127,230,0)"/><text xml:space="preserve" x="128" y="406.433" font-family="Calibri" font-size="7.5" fill="rgb(0,0,0)" text-anchor="middle">2</text>
<polygon points="132,399.6 140,399.6 140,407.6 132,407.6" fill="rgb(127,230,0)"/><text xml:space="preserve" x="136" y="406.433" font-family="Calibri" font-size="7.5" fill="rgb(0,0,0)" text-anchor="middle">2</text>
<polygon points="140,399.6 148,399.6 148,407.6 140,407.6" fill="rgb(127,230,0)"/><text xml:space="preserve" x="144" y="406.433" font-family="Calibri" font-size="7.5" fill="rgb(0,0,0)" text-anchor="middle">2</text>
<polygon points="148,399.6 156,399.6 156,407.6 148,407.6" fill="rgb(255,255,0)"/><text xml:space="preserve" x="152" y="406.433" font-family="Calibri" font-size="7.5" fill="rgb(0,0,0)" text-anchor="middle">3</text>
<polygon points="166,399.6 174,399.6 174,407.6 166,407.6" fill="rgb(14,82,138)"/>
<polygon points="174,399.6 182,399.6 182,407.6 174,407.6" fill="rgb(14,82,138)"/>
<polygon points="182,399.6 190,399.6 190,407.6 182,407.6" fill="rgb(15,88,138)"/>
<polygon points="190,399.6 198,399.6 198,407.6 190,407.6" fill="rgb(14,83,138)"/>
<polygon points="198,399.6 206,399.6 206,407.6 198,407.6" fill="rgb(16,89,138)"/>
<polygon points="216,399.6 224,399.6 224,407.6 216,407.6" fill="rgb(255,255,255)"/>
<polygon points="224,399.6 232,399.6 232,407.6 224,407.6" fill="rgb(255,255,255)"/>
<polygon points="232,399.6 240,399.6 240,407.6 232,407.6" fill="rgb(255,255,255)"/>
<polygon points="240,399.6 248,399.6 248,407.6 240,407.6" fill="rgb(255,255,255)"/>
<polygon points="248,399.6 256,399.6 256,407.6 248,407.6" fill="rgb(255,255,255)"/>
<polygon points="256,399.6 264,399.6 264,407.6 256,407.6" fill="rgb(255,255,255)"/>
<polygon points="264,399.6 272,399.6 272,407.6 264,407.6" fill="rgb(255,255,255)"/>
<polygon points="272,399.6 280,399.6 280,407.6 272,407.6" fill="rgb(255,255,255)"/>
<polygon points="116,335.6 156,335.6 156,407.6 116,407.6" fill="none" stroke="black" stroke-width="1"/>
<polygon points="166,335.6 206,335.6 206,407.6 166,407.6" fill="none" stroke="black" stroke-width="1"/>
<polygon points="216,335.6 280,335.6 280,407.6 216,407.6" fill="none" stroke="black" stroke-width="1"/>
<text xml:space="preserve" x="150" y="440.6" font-family="Calibri" font-size="8" text-anchor="middle">ClusterAssignment</text>
<polygon points="100,447.6 120,447.6 120,467.6 100,467.6" fill="rgb(0,205,0)"/><polygon points="100,447.6 120,447.6 120,467.6 100,467.6" fill="none" stroke="black" stroke-width="1"/><text xml:space="preserve" x="110" y="460.433" font-family="Calibri" font-size="7.5" fill="rgb(255,255,255)" text-anchor="middle">1.0</text>
<polygon points="120,447.6 140,447.6 140,467.6 120,467.6" fill="rgb(127,230,0)"/><polygon points="120,447.6 140,447.6 140,467.6 120,467.6" fill="none" stroke="black" stroke-width="1"/><text xml:space="preserve" x="130" y="460.433" font-family="Calibri" font-size="7.5" fill="rgb(0,0,0)" text-anchor="middle">2.0</text>
<polygon points="140,447.6 160,447.6 160,467.6 140,467.6" fill="rgb(255,255,0)"/><polygon points="140,447.6 160,447.6 160,467.6 140,467.6" fill="none" stroke="black" stroke-width="1"/><text xml:space="preserve" x="150" y="460.433" font-family="Calibri" font-size="7.5" fill="rgb(0,0,0)" text-anchor="middle">3.0</text>
<polygon points="160,447.6 180,447.6 180,467.6 160,467.6" fill="rgb(230,127,0)"/><polygon points="160,447.6 180,447.6 180,467.6 160,467.6" fill="none" stroke="black" stroke-width="1"/><text xml:space="preserve" x="170" y="460.433" font-family="Calibri" font-size="7.5" fill="rgb(0,0,0)" text-anchor="middle">4.0</text>
<polygon points="180,447.6 200,447.6 200,467.6 180,467.6" fill="rgb(205,0,0)"/><polygon points="180,447.6 200,447.6 200,467.6 180,467.6" fill="none" stroke="black" stroke-width="1"/><text xml:space="preserve" x="190" y="460.433" font-family="Calibri" font-size="7.5" fill="rgb(255,255,255)" text-anchor="middle">5.0</text>
<text xml:space="preserve" x="150" y="500.6" font-family="Calibri" font-size="8" text-anchor="middle">Expression</text>
<polygon points="100,507.6 120,507.6 120,527.6 100,527.6" fill="rgb(0,27,135)"/><polygon points="100,507.6 120,507.6 120,527.6 100,527.6" fill="none" stroke="black" stroke-width="1"/><text xml:space="preserve" x="110" y="520.433" font-family="Calibri" font-size="7.5" fill="rgb(255,255,255)" text-anchor="middle">0.0</text>
<polygon points="120,507.6 140,507.6 140,527.6 120,527.6" fill="rgb(24,123,140)"/><polygon points="120,507.6 140,507.6 140,527.6 120,527.6" fill="none" stroke="black" stroke-width="1"/><text xml:space="preserve" x="130" y="520.433" font-family="Calibri" font-size="7.5" fill="rgb(255,255,255)" text-anchor="middle">0.8</text>
<polygon points="140,507.6 160,507.6 160,527.6 140,527.6" fill="rgb(49,219,146)"/><polygon points="140,507.6 160,507.6 160,527.6 140,527.6" fill="none" stroke="black" stroke-width="1"/><text xml:space="preserve" x="150" y="520.433" font-family="Calibri" font-size="7.5" fill="rgb(0,0,0)" text-anchor="middle">1.5</text>
<polygon points="160,507.6 180,507.6 180,527.6 160,527.6" fill="rgb(150,206,73)"/><polygon points="160,507.6 180,507.6 180,527.6 160,527.6" fill="none" stroke="black" stroke-width="1"/><text xml:space="preserve" x="170" y="520.433" font-family="Calibri" font-size="7.5" fill="rgb(0,0,0)" text-anchor="middle">2.2</text>
<polygon points="180,507.6 200,507.6 200,527.6 180,527.6" fill="rgb(252,194,1)"/><polygon points="180,507.6 200,507.6 200,527.6 180,527.6" fill="none" stroke="black" stroke-width="1"/><text xml:space="preserve" x="190" y="520.433" font-family="Calibri" font-size="7.5" fill="rgb(0,0,0)" text-anchor="middle">3.0</text>
<text xml:space="preserve" x="150" y="560.6" font-family="Calibri" font-size="8" text-anchor="middle">PANTHERclass</text>
<polygon points="100,567.6 120,567.6 120,587.6 100,587.6" fill="rgb(255,255,255)"/><polygon points="100,567.6 120,567.6 120,587.6 100,587.6" fill="none" stroke="black" stroke-width="1"/><text xml:space="preserve" x="110" y="580.433" font-family="Calibri" font-size="7.5" fill="rgb(0,0,0)" text-anchor="middle">0.0</text>
<polygon points="120,567.6 140,567.6 140,587.6 120,587.6" fill="rgb(242,191,242)"/><polygon points="120,567.6 140,567.6 140,587.6 120,587.6" fill="none" stroke="black" stroke-width="1"/><text xml:space="preserve" x="130" y="580.433" font-family="Calibri" font-size="7.5" fill="rgb(0,0,0)" text-anchor="middle">0.2</text>
<polygon points="140,567.6 160,567.6 160,587.6 140,587.6" fill="rgb(230,127,230)"/><polygon points="140,567.6 160,567.6 160,587.6 140,587.6" fill="none" stroke="black" stroke-width="1"/><text xml:space="preserve" x="150" y="580.433" font-family="Calibri" font-size="7.5" fill="rgb(0,0,0)" text-anchor="middle">0.5</text>
<polygon points="160,567.6 180,567.6 180,587.6 160,587.6" fill="rgb(217,63,217)"/><polygon points="160,567.6 180,567.6 180,587.6 160,587.6" fill="none" stroke="black" stroke-width="1"/><text xml:space="preserve" x="170" y="580.433" font-family="Calibri" font-size="7.5" fill="rgb(255,255,255)" text-anchor="middle">0.8</text>
<polygon points="180,567.6 200,567.6 200,587.6 180,587.6" fill="rgb(205,0,205)"/><polygon points="180,567.6 200,567.6 200,587.6 180,587.6" fill="none" stroke="black" stroke-width="1"/><text xml:space="preserve" x="190" y="580.433" font-family="Calibri" font-size="7.5" fill="rgb(255,255,255)" text-anchor="middle">1.0</text>
</svg>
