<?xml version="1.0" standalone="no"?><!DOCTYPE svg PUBLIC "-//W3C//DTD SVG 1.1//EN" "http://www.w3.org/Graphics/SVG/1.1/DTD/svg11.dtd">
<svg width="321" height="631.6" version="1.1" xmlns="http://www.w3.org/2000/svg">
<text xml:space="preserve" x="133" y="342.6" font-family="Calibri" font-size="8" text-anchor="end">AC093010.2</text>
<text xml:space="preserve" x="133" y="350.6" font-family="Calibri" font-size="8" text-anchor="end">DMRT2</text>
<text xml:space="preserve" x="133" y="358.6" font-family="Calibri" font-size="8" text-anchor="end">RNF144B</text>
<text xml:space="preserve" x="133" y="366.6" font-family="Calibri" font-size="8" text-anchor="end">SOCS1</text>
<text xml:space="preserve" x="133" y="374.6" font-family="Calibri" font-size="8" text-anchor="end">ELL2</text>
<text xml:space="preserve" x="133" y="382.6" font-family="Calibri" font-size="8" text-anchor="end">NR2F2</text>
<text xml:space="preserve" x="133" y="390.6" font-family="Calibri" font-size="8" text-anchor="end">GBP2</text>
<text xml:space="preserve" x="133" y="398.6" font-family="Calibri" font-size="8" text-anchor="end">TIGIT</text>
<text xml:space="preserve" x="133" y="406.6" font-family="Calibri" font-size="8" text-anchor="end">TPD52L1</text>
<text xml:space="preserve" x="133" y="414.6" font-family="Calibri" font-size="8" text-anchor="end">C3AR1</text>
<text xml:space="preserve" x="133" y="422.6" font-family="Calibri" font-size="8" text-anchor="end">SMPX</text>
<text xml:space="preserve" x="133" y="430.6" font-family="Calibri" font-size="8" text-anchor="end">ERVMER61-1</text>
<text xml:space="preserve" x="144" y="331.6" font-family="Calibri" font-size="8" transform="rotate(270 144 331.6)">c1</text>
<text xml:space="preserve" x="152" y="331.6" font-family="Calibri" font-size="8" transform="rotate(270 152 331.6)">c3</text>
<text xml:space="preserve" x="160" y="331.6" font-family="Calibri" font-size="8" transform="rotate(270 160 331.6)">c5</text>
<text xml:space="preserve" x="168" y="331.6" font-family="Calibri" font-size="8" transform="rotate(270 168 331.6)">c4</text>
<text xml:space="preserve" x="176" y="331.6" font-family="Calibri" font-size="8" transform="rotate(270 176 331.6)">c2</text>
<text xml:space="preserve" x="194" y="331.6" font-family="Calibri" font-size="8" transform="rotate(270 194 331.6)">c1_mean</text>
<text xml:space="preserve" x="202" y="331.6" font-family="Calibri" font-size="8" transform="rotate(270 202 331.6)">c3_mean</text>
<text xml:space="preserve" x="210" y="331.6" font-family="Calibri" font-size="8" transform="rotate(270 210 331.6)">c5_mean</text>
<text xml:space="preserve" x="218" y="331.6" font-family="Calibri" font-size="8" transform="rotate(270 218 331.6)">c4_mean</text>
<text xml:space="preserve" x="226" y="331.6" font-family="Calibri" font-size="8" transform="rotate(270 226 331.6)">c2_mean</text>
<text xml:space="preserve" x="244" y="331.6" font-family="Calibri" font-size="8" transform="rotate(270 244 331.6)">transcription_factor</text>
<text xml:space="preserve" x="252" y="331.6" font-family="Calibri" font-size="8" transform="rotate(270 252 331.6)">transmembrane_signal_receptor</text>
<text xml:space="preserve" x="260" y="331.6" font-family="Calibri" font-size="8" transform="rotate(270 260 331.6)">growth_factor</text>
<text xml:space="preserve" x="268" y="331.6" font-family="Calibri" font-size="8" transform="rotate(270 268 331.6)">peptide_hormone</text>
<text xml:space="preserve" x="276" y="331.6" font-family="Calibri" font-size="8" transform="rotate(270 276 331.6)">cytoskeletal_protein</text>
<text xml:space="preserve" x="284" y="331.6" font-family="Calibri" font-size="8" transform="rotate(270 284 331.6)">ion_channel</text>
<text xml:space="preserve" x="292" y="331.6" font-family="Calibri" font-size="8" transform="rotate(270 292 331.6)">integrin</text>
<text xml:space="preserve" x="300" y="331.6" font-family="Calibri" font-size="8" transform="rotate(270 300 331.6)">extracellular_matrix_protein</text>
<polygon points="137,335.6 145,335.6 145,343.6 137,343.6" fill="rgb(0,205,0)"/><text xml:space="preserve" x="141" y="342.433" font-family="Calibri" font-size="7.5" fill="rgb(255,255,255)" text-anchor="middle">1</text>
<polygon points="145,335.6 153,335.6 153,343.6 145,343.6" fill="rgb(0,205,0)"/><text xml:space="preserve" x="149" y="342.433" font-family="Calibri" font-size="7.5" fill="rgb(255,255,255)" text-anchor="middle">1</text>
<polygon points="153,335.6 161,335.6 161,343.6 153,343.6" fill="rgb(0,205,0)"/><text xml:space="preserve" x="157" y="342.433" font-family="Calibri" font-size="7.5" fill="rgb(255,255,255)" text-anchor="middle">1</text>
<polygon points="161,335.6 169,335.6 169,343.6 161,343.6" fill="rgb(255,255,0)"/><text xml:space="preserve" x="165" y="342.433" font-family="Calibri" font-size="7.5" fill="rgb(0,0,0)" text-anchor="middle">3</text>
<polygon points="169,335.6 177,335.6 177,343.6 169,343.6" fill="rgb(230,127,0)"/><text xml:space="preserve" x="173" y="342.433" font-family="Calibri" font-size="7.5" fill="rgb(0,0,0)" text-anchor="middle">4</text>
<polygon points="187,335.6 195,335.6 195,343.6 187,343.6" fill="rgb(3,41,135)"/>
<polygon points="195,335.6 203,335.6 203,343.6 195,343.6" fill="rgb(0,30,135)"/>
<polygon points="203,335.6 211,335.6 211,343.6 203,343.6" fill="rgb(0,30,135)"/>
<polygon points="211,335.6 219,335.6 219,343.6 211,343.6" fill="rgb(16,92,138)"/>
<polygon points="219,335.6 227,335.6 227,343.6 219,343.6" fill="rgb(27,135,141)"/>
<polygon points="237,335.6 245,335.6 245,343.6 237,343.6" fill="rgb(255,255,255)"/>
<polygon points="245,335.6 253,335.6 253,343.6 245,343.6" fill="rgb(255,255,255)"/>
<polygon points="253,335.6 261,335.6 261,343.6 253,343.6" fill="rgb(255,255,255)"/>
<polygon points="261,335.6 269,335.6 269,343.6 261,343.6" fill="rgb(255,255,255)"/>
<polygon points="269,335.6 277,335.6 277,343.6 269,343.6" fill="rgb(255,255,255)"/>
<polygon points="277,335.6 285,335.6 285,343.6 277,343.6" fill="rgb(255,255,255)"/>
<polygon points="285,335.6 293,335.6 293,343.6 285,343.6" fill="rgb(255,255,255)"/>
<polygon points="293,335.6 301,335.6 301,343.6 293,343.6" fill="rgb(255,255,255)"/>
<polygon points="137,343.6 145,343.6 145,351.6 137,351.6" fill="rgb(0,205,0)"/><text xml:space="preserve" x="141" y="350.433" font-family="Calibri" font-size="7.5" fill="rgb(255,255,255)" text-anchor="middle">1</text>
<polygon points="145,343.6 153,343.6 153,351.6 145,351.6" fill="rgb(0,205,0)"/><text xml:space="preserve" x="149" y="350.433" font-family="Calibri" font-size="7.5" fill="rgb(255,255,255)" text-anchor="middle">1</text>
<polygon points="153,343.6 161,343.6 161,351.6 153,351.6" fill="rgb(0,205,0)"/><text xml:space="preserve" x="157" y="350.433" font-family="Calibri" font-size="7.5" fill="rgb(255,255,255)" text-anchor="middle">1</text>
<polygon points="161,343.6 169,343.6 169,351.6 161,351.6" fill="rgb(255,255,0)"/><text xml:space="preserve" x="165" y="350.433" font-family="Calibri" font-size="7.5" fill="rgb(0,0,0)" text-anchor="middle">3</text>
<polygon points="169,343.6 177,343.6 177,351.6 169,351.6" fill="rgb(230,127,0)"/><text xml:space="preserve" x="173" y="350.433" font-family="Calibri" font-size="7.5" fill="rgb(0,0,0)" text-anchor="middle">4</text>
<polygon points="187,343.6 195,343.6 195,351.6 187,351.6" fill="rgb(2,35,135)"/>
<polygon points="195,343.6 203,343.6 203,351.6 195,351.6" fill="rgb(1,33,135)"/>
<polygon points="203,343.6 211,343.6 211,351.6 203,351.6" fill="rgb(0,27,135)"/>
<polygon points="211,343.6 219,343.6 219,351.6 211,351.6" fill="rgb(18,101,139)"/>
<polygon points="219,343.6 227,343.6 227,351.6 219,351.6" fill="rgb(24,121,140)"/>
<polygon points="237,343.6 245,343.6 245,351.6 237,351.6" fill="rgb(205,0,205)"/>
<polygon points="245,343.6 253,343.6 253,351.6 245,351.6" fill="rgb(255,255,255)"/>
<polygon points="253,343.6 261,343.6 261,351.6 253,351.6" fill="rgb(255,255,255)"/>
<polygon points="261,343.6 269,343.6 269,351.6 261,351.6" fill="rgb(255,255,255)"/>
<polygon points="269,343.6 277,343.6 277,351.6 269,351.6" fill="rgb(255,255,255)"/>
<polygon points="277,343.6 285,343.6 285,351.6 277,351.6" fill="rgb(255,255,255)"/>
<polygon points="285,343.6 293,343.6 293,351.6 285,351.6" fill="rgb(255,255,255)"/>
<polygon points="293,343.6 301,343.6 301,351.6 293,351.6" fill="rgb(255,255,255)"/>
<polygon points="137,351.6 145,351.6 145,359.6 137,359.6" fill="rgb(0,205,0)"/><text xml:space="preserve" x="141" y="358.433" font-family="Calibri" font-size="7.5" fill="rgb(255,255,255)" text-anchor="middle">1</text>
<polygon points="145,351.6 153,351.6 153,359.6 145,359.6" fill="rgb(0,205,0)"/><text xml:space="preserve" x="149" y="358.433" font-family="Calibri" font-size="7.5" fill="rgb(255,255,255)" text-anchor="middle">1</text>
<polygon points="153,351.6 161,351.6 161,359.6 153,359.6" fill="rgb(0,205,0)"/><text xml:space="preserve" x="157" y="358.433" font-family="Calibri" font-size="7.5" fill="rgb(255,255,255)" text-anchor="middle">1</text>
<polygon points="161,351.6 169,351.6 169,359.6 161,359.6" fill="rgb(255,255,0)"/><text xml:space="preserve" x="165" y="358.433" font-family="Calibri" font-size="7.5" fill="rgb(0,0,0)" text-anchor="middle">3</text>
<polygon points="169,351.6 177,351.6 177,359.6 169,359.6" fill="rgb(230,127,0)"/><text xml:space="preserve" x="173" y="358.433" font-family="Calibri" font-size="7.5" fill="rgb(0,0,0)" text-anchor="middle">4</text>
<polygon points="187,351.6 195,351.6 195,359.6 187,359.6" fill="rgb(3,39,135)"/>
<polygon points="195,351.6 203,351.6 203,359.6 195,359.6" fill="rgb(0,30,135)"/>
<polygon points="203,351.6 211,351.6 211,359.6 203,359.6" fill="rgb(2,37,135)"/>
<polygon points="211,351.6 219,351.6 219,359.6 211,359.6" fill="rgb(20,106,139)"/>
<polygon points="219,351.6 227,351.6 227,359.6 219,359.6" fill="rgb(18,99,139)"/>
<polygon points="237,351.6 245,351.6 245,359.6 237,359.6" fill="rgb(255,255,255)"/>
<polygon points="245,351.6 253,351.6 253,359.6 245,359.6" fill="rgb(255,255,255)"/>
<polygon points="253,351.6 261,351.6 261,359.6 253,359.6" fill="rgb(255,255,255)"/>
<polygon points="261,351.6 269,351.6 269,359.6 261,359.6" fill="rgb(255,255,255)"/>
<polygon points="269,351.6 277,351.6 277,359.6 269,359.6" fill="rgb(255,255,255)"/>
<polygon points="277,351.6 285,351.6 285,359.6 277,359.6" fill="rgb(255,255,255)"/>
<polygon points="285,351.6 293,351.6 293,359.6 285,359.6" fill="rgb(255,255,255)"/>
<polygon points="293,351.6 301,351.6 301,359.6 293,359.6" fill="rgb(255,255,255)"/>
<polygon points="137,359.6 145,359.6 145,367.6 137,367.6" fill="rgb(0,205,0)"/><text xml:space="preserve" x="141" y="366.433" font-family="Calibri" font-size="7.5" fill="rgb(255,255,255)" text-anchor="middle">1</text>
<polygon points="145,359.6 153,359.6 153,367.6 145,367.6" fill="rgb(0,205,0)"/><text xml:space="preserve" x="149" y="366.433" font-family="Calibri" font-size="7.5" fill="rgb(255,255,255)" text-anchor="middle">1</text>
<polygon points="153,359.6 161,359.6 161,367.6 153,367.6" fill="rgb(0,205,0)"/><text xml:space="preserve" x="157" y="366.433" font-family="Calibri" font-size="7.5" fill="rgb(255,255,255)" text-anchor="middle">1</text>
<polygon points="161,359.6 169,359.6 169,367.6 161,367.6" fill="rgb(255,255,0)"/><text xml:space="preserve" x="165" y="366.433" font-family="Calibri" font-size="7.5" fill="rgb(0,0,0)" text-anchor="middle">3</text>
<polygon points="169,359.6 177,359.6 177,367.6 169,367.6" fill="rgb(230,127,0)"/><text xml:space="preserve" x="173" y="366.433" font-family="Calibri" font-size="7.5" fill="rgb(0,0,0)" text-anchor="middle">4</text>
<polygon points="187,359.6 195,359.6 195,367.6 187,367.6" fill="rgb(5,48,136)"/>
<polygon points="195,359.6 203,359.6 203,367.6 195,367.6" fill="rgb(1,33,135)"/>
<polygon points="203,359.6 211,359.6 211,367.6 203,367.6" fill="rgb(1,33,135)"/>
<polygon points="211,359.6 219,359.6 219,367.6 211,367.6" fill="rgb(18,98,139)"/>
<polygon points="219,359.6 227,359.6 227,367.6 219,367.6" fill="rgb(21,110,139)"/>
<polygon points="237,359.6 245,359.6 245,367.6 237,367.6" fill="rgb(255,255,255)"/>
<polygon points="245,359.6 253,359.6 253,367.6 245,367.6" fill="rgb(255,255,255)"/>
<polygon points="253,359.6 261,359.6 261,367.6 253,367.6" fill="rgb(255,255,255)"/>
<polygon points="261,359.6 269,359.6 269,367.6 261,367.6" fill="rgb(255,255,255)"/>
<polygon points="269,359.6 277,359.6 277,367.6 269,367.6" fill="rgb(255,255,255)"/>
<polygon points="277,359.6 285,359.6 285,367.6 277,367.6" fill="rgb(255,255,255)"/>
<polygon points="285,359.6 293,359.6 293,367.6 285,367.6" fill="rgb(255,255,255)"/>
<polygon points="293,359.6 301,359.6 301,367.6 293,367.6" fill="rgb(255,255,255)"/>
<polygon points="137,367.6 145,367.6 145,375.6 137,375.6" fill="rgb(0,205,0)"/><text xml:space="preserve" x="141" y="374.433" font-family="Calibri" font-size="7.5" fill="rgb(255,255,255)" text-anchor="middle">1</text>
<polygon points="145,367.6 153,367.6 153,375.6 145,375.6" fill="rgb(0,205,0)"/><text xml:space="preserve" x="149" y="374.433" font-family="Calibri" font-size="7.5" fill="rgb(255,255,255)" text-anchor="middle">1</text>
<polygon points="153,367.6 161,367.6 161,375.6 153,375.6" fill="rgb(0,205,0)"/><text xml:space="preserve" x="157" y="374.433" font-family="Calibri" font-size="7.5" fill="rgb(255,255,255)" text-anchor="middle">1</text>
<polygon points="161,367.6 169,367.6 169,375.6 161,375.6" fill="rgb(255,255,0)"/><text xml:space="preserve" x="165" y="374.433" font-family="Calibri" font-size="7.5" fill="rgb(0,0,0)" text-anchor="middle">3</text>
<polygon points="169,367.6 177,367.6 177,375.6 169,375.6" fill="rgb(230,127,0)"/><text xml:space="preserve" x="173" y="374.433" font-family="Calibri" font-size="7.5" fill="rgb(0,0,0)" text-anchor="middle">4</text>
<polygon points="187,367.6 195,367.6 195,375.6 187,375.6" fill="rgb(5,47,136)"/>
<polygon points="195,367.6 203,367.6 203,375.6 195,375.6" fill="rgb(2,37,135)"/>
<polygon points="203,367.6 211,367.6 211,375.6 203,375.6" fill="rgb(2,38,135)"/>
<polygon points="211,367.6 219,367.6 219,375.6 211,375.6" fill="rgb(18,99,139)"/>
<polygon points="219,367.6 227,367.6 227,375.6 219,375.6" fill="rgb(19,103,139)"/>
<polygon points="237,367.6 245,367.6 245,375.6 237,375.6" fill="rgb(255,255,255)"/>
<polygon points="245,367.6 253,367.6 253,375.6 245,375.6" fill="rgb(255,255,255)"/>
<polygon points="253,367.6 261,367.6 261,375.6 253,375.6" fill="rgb(255,255,255)"/>
<polygon points="261,367.6 269,367.6 269,375.6 261,375.6" fill="rgb(255,255,255)"/>
<polygon points="269,367.6 277,367.6 277,375.6 269,375.6" fill="rgb(255,255,255)"/>
<polygon points="277,367.6 285,367.6 285,375.6 277,375.6" fill="rgb(255,255,255)"/>
<polygon points="285,367.6 293,367.6 293,375.6 285,375.6" fill="rgb(255,255,255)"/>
<polygon points="293,367.6 301,367.6 301,375.6 293,375.6" fill="rgb(255,255,255)"/>
<polygon points="137,375.6 145,375.6 145,383.6 137,383.6" fill="rgb(0,205,0)"/><text xml:space="preserve" x="141" y="382.433" font-family="Calibri" font-size="7.5" fill="rgb(255,255,255)" text-anchor="middle">1</text>
<polygon points="145,375.6 153,375.6 153,383.6 145,383.6" fill="rgb(0,205,0)"/><text xml:space="preserve" x="149" y="382.433" font-family="Calibri" font-size="7.5" fill="rgb(255,255,255)" text-anchor="middle">1</text>
<polygon points="153,375.6 161,375.6 161,383.6 153,383.6" fill="rgb(0,205,0)"/><text xml:space="preserve" x="157" y="382.433" font-family="Calibri" font-size="7.5" fill="rgb(255,255,255)" text-anchor="middle">1</text>
<polygon points="161,375.6 169,375.6 169,383.6 161,383.6" fill="rgb(255,255,0)"/><text xml:space="preserve" x="165" y="382.433" font-family="Calibri" font-size="7.5" fill="rgb(0,0,0)" text-anchor="middle">3</text>
<polygon points="169,375.6 177,375.6 177,383.6 169,383.6" fill="rgb(230,127,0)"/><text xml:space="preserve" x="173" y="382.433" font-family="Calibri" font-size="7.5" fill="rgb(0,0,0)" text-anchor="middle">4</text>
<polygon points="187,375.6 195,375.6 195,383.6 187,383.6" fill="rgb(0,30,135)"/>
<polygon points="195,375.6 203,375.6 203,383.6 195,383.6" fill="rgb(0,30,135)"/>
<polygon points="203,375.6 211,375.6 211,383.6 203,383.6" fill="rgb(0,30,135)"/>
<polygon points="211,375.6 219,375.6 219,383.6 211,383.6" fill="rgb(17,97,139)"/>
<polygon points="219,375.6 227,375.6 227,383.6 219,383.6" fill="rgb(28,138,141)"/>
<polygon points="237,375.6 245,375.6 245,383.6 237,383.6" fill="rgb(205,0,205)"/>
<polygon points="245,375.6 253,375.6 253,383.6 245,383.6" fill="rgb(255,255,255)"/>
<polygon points="253,375.6 261,375.6 261,383.6 253,383.6" fill="rgb(255,255,255)"/>
<polygon points="261,375.6 269,375.6 269,383.6 261,383.6" fill="rgb(255,255,255)"/>
<polygon points="269,375.6 277,375.6 277,383.6 269,383.6" fill="rgb(255,255,255)"/>
<polygon points="277,375.6 285,375.6 285,383.6 277,383.6" fill="rgb(255,255,255)"/>
<polygon points="285,375.6 293,375.6 293,383.6 285,383.6" fill="rgb(255,255,255)"/>
<polygon points="293,375.6 301,375.6 301,383.6 293,383.6" fill="rgb(255,255,255)"/>
<polygon points="137,383.6 145,383.6 145,391.6 137,391.6" fill="rgb(0,205,0)"/><text xml:space="preserve" x="141" y="390.433" font-family="Calibri" font-size="7.5" fill="rgb(255,255,255)" text-anchor="middle">1</text>
<polygon points="145,383.6 153,383.6 153,391.6 145,391.6" fill="rgb(0,205,0)"/><text xml:space="preserve" x="149" y="390.433" font-family="Calibri" font-size="7.5" fill="rgb(255,255,255)" text-anchor="middle">1</text>
<polygon points="153,383.6 161,383.6 161,391.6 153,391.6" fill="rgb(0,205,0)"/><text xml:space="preserve" x="157" y="390.433" font-family="Calibri" font-size="7.5" fill="rgb(255,255,255)" text-anchor="middle">1</text>
<polygon points="161,383.6 169,383.6 169,391.6 161,391.6" fill="rgb(255,255,0)"/><text xml:space="preserve" x="165" y="390.433" font-family="Calibri" font-size="7.5" fill="rgb(0,0,0)" text-anchor="middle">3</text>
<polygon points="169,383.6 177,383.6 177,391.6 169,391.6" fill="rgb(230,127,0)"/><text xml:space="preserve" x="173" y="390.433" font-family="Calibri" font-size="7.5" fill="rgb(0,0,0)" text-anchor="middle">4</text>
<polygon points="187,383.6 195,383.6 195,391.6 187,391.6" fill="rgb(0,27,135)"/>
<polygon points="195,383.6 203,383.6 203,391.6 195,391.6" fill="rgb(0,27,135)"/>
<polygon points="203,383.6 211,383.6 211,391.6 203,391.6" fill="rgb(0,27,135)"/>
<polygon points="211,383.6 219,383.6 219,391.6 211,391.6" fill="rgb(16,91,138)"/>
<polygon points="219,383.6 227,383.6 227,391.6 219,391.6" fill="rgb(33,157,142)"/>
<polygon points="237,383.6 245,383.6 245,391.6 237,391.6" fill="rgb(255,255,255)"/>
<polygon points="245,383.6 253,383.6 253,391.6 245,391.6" fill="rgb(255,255,255)"/>
<polygon points="253,383.6 261,383.6 261,391.6 253,391.6" fill="rgb(255,255,255)"/>
<polygon points="261,383.6 269,383.6 269,391.6 261,391.6" fill="rgb(255,255,255)"/>
<polygon points="269,383.6 277,383.6 277,391.6 269,391.6" fill="rgb(255,255,255)"/>
<polygon points="277,383.6 285,383.6 285,391.6 277,391.6" fill="rgb(255,255,255)"/>
<polygon points="285,383.6 293,383.6 293,391.6 285,391.6" fill="rgb(255,255,255)"/>
<polygon points="293,383.6 301,383.6 301,391.6 293,391.6" fill="rgb(255,255,255)"/>
<polygon points="137,391.6 145,391.6 145,399.6 137,399.6" fill="rgb(0,205,0)"/><text xml:space="preserve" x="141" y="398.433" font-family="Calibri" font-size="7.5" fill="rgb(255,255,255)" text-anchor="middle">1</text>
<polygon points="145,391.6 153,391.6 153,399.6 145,399.6" fill="rgb(0,205,0)"/><text xml:space="preserve" x="149" y="398.433" font-family="Calibri" font-size="7.5" fill="rgb(255,255,255)" text-anchor="middle">1</text>
<polygon points="153,391.6 161,391.6 161,399.6 153,399.6" fill="rgb(0,205,0)"/><text xml:space="preserve" x="157" y="398.433" font-family="Calibri" font-size="7.5" fill="rgb(255,255,255)" text-anchor="middle">1</text>
<polygon points="161,391.6 169,391.6 169,399.6 161,399.6" fill="rgb(255,255,0)"/><text xml:space="preserve" x="165" y="398.433" font-family="Calibri" font-size="7.5" fill="rgb(0,0,0)" text-anchor="middle">3</text>
<polygon points="169,391.6 177,391.6 177,399.6 169,399.6" fill="rgb(230,127,0)"/><text xml:space="preserve" x="173" y="398.433" font-family="Calibri" font-size="7.5" fill="rgb(0,0,0)" text-anchor="middle">4</text>
<polygon points="187,391.6 195,391.6 195,399.6 187,399.6" fill="rgb(2,35,135)"/>
<polygon points="195,391.6 203,391.6 203,399.6 195,399.6" fill="rgb(0,29,135)"/>
<polygon points="203,391.6 211,391.6 211,399.6 203,399.6" fill="rgb(0,27,135)"/>
<polygon points="211,391.6 219,391.6 219,399.6 211,399.6" fill="rgb(19,103,139)"/>
<polygon points="219,391.6 227,391.6 227,399.6 219,399.6" fill="rgb(23,117,140)"/>
<polygon points="237,391.6 245,391.6 245,399.6 237,399.6" fill="rgb(255,255,255)"/>
<polygon points="245,391.6 253,391.6 253,399.6 245,399.6" fill="rgb(255,255,255)"/>
<polygon points="253,391.6 261,391.6 261,399.6 253,399.6" fill="rgb(255,255,255)"/>
<polygon points="261,391.6 269,391.6 269,399.6 261,399.6" fill="rgb(255,255,255)"/>
<polygon points="269,391.6 277,391.6 277,399.6 269,399.6" fill="rgb(255,255,255)"/>
<polygon points="277,391.6 285,391.6 285,399.6 277,399.6" fill="rgb(255,255,255)"/>
<polygon points="285,391.6 293,391.6 293,399.6 285,399.6" fill="rgb(255,255,255)"/>
<polygon points="293,391.6 301,391.6 301,399.6 293,399.6" fill="rgb(255,255,255)"/>
<polygon points="137,399.6 145,399.6 145,407.6 137,407.6" fill="rgb(0,205,0)"/><text xml:space="preserve" x="141" y="406.433" font-family="Calibri" font-size="7.5" fill="rgb(255,255,255)" text-anchor="middle">1</text>
<polygon points="145,399.6 153,399.6 153,407.6 145,407.6" fill="rgb(0,205,0)"/><text xml:space="preserve" x="149" y="406.433" font-family="Calibri" font-size="7.5" fill="rgb(255,255,255)" text-anchor="middle">1</text>
<polygon points="153,399.6 161,399.6 161,407.6 153,407.6" fill="rgb(0,205,0)"/><text xml:space="preserve" x="157" y="406.433" font-family="Calibri" font-size="7.5" fill="rgb(255,255,255)" text-anchor="middle">1</text>
<polygon points="161,399.6 169,399.6 169,407.6 161,407.6" fill="rgb(255,255,0)"/><text xml:space="preserve" x="165" y="406.433" font-family="Calibri" font-size="7.5" fill="rgb(0,0,0)" text-anchor="middle">3</text>
<polygon points="169,399.6 177,399.6 177,407.6 169,407.6" fill="rgb(230,127,0)"/><text xml:space="preserve" x="173" y="406.433" font-family="Calibri" font-size="7.5" fill="rgb(0,0,0)" text-anchor="middle">4</text>
<polygon points="187,399.6 195,399.6 195,407.6 187,407.6" fill="rgb(6,51,136)"/>
<polygon points="195,399.6 203,399.6 203,407.6 195,407.6" fill="rgb(4,43,135)"/>
<polygon points="203,399.6 211,399.6 211,407.6 203,407.6" fill="rgb(2,38,135)"/>
<polygon points="211,399.6 219,399.6 219,407.6 211,407.6" fill="rgb(17,96,138)"/>
<polygon points="219,399.6 227,399.6 227,407.6 219,407.6" fill="rgb(29,140,141)"/>
<polygon points="237,399.6 245,399.6 245,407.6 237,407.6" fill="rgb(255,255,255)"/>
<polygon points="245,399.6 253,399.6 253,407.6 245,407.6" fill="rgb(255,255,255)"/>
<polygon points="253,399.6 261,399.6 261,407.6 253,407.6" fill="rgb(255,255,255)"/>
<polygon points="261,399.6 269,399.6 269,407.6 261,407.6" fill="rgb(255,255,255)"/>
<polygon points="269,399.6 277,399.6 277,407.6 269,407.6" fill="rgb(255,255,255)"/>
<polygon points="277,399.6 285,399.6 285,407.6 277,407.6" fill="rgb(255,255,255)"/>
<polygon points="285,399.6 293,399.6 293,407.6 285,407.6" fill="rgb(255,255,255)"/>
<polygon points="293,399.6 301,399.6 301,407.6 293,407.6" fill="rgb(255,255,255)"/>
<polygon points="137,407.6 145,407.6 145,415.6 137,415.6" fill="rgb(0,205,0)"/><text xml:space="preserve" x="141" y="414.433" font-family="Calibri" font-size="7.5" fill="rgb(255,255,255)" text-anchor="middle">1</text>
<polygon points="145,407.6 153,407.6 153,415.6 145,415.6" fill="rgb(0,205,0)"/><text xml:space="preserve" x="149" y="414.433" font-family="Calibri" font-size="7.5" fill="rgb(255,255,255)" text-anchor="middle">1</text>
<polygon points="153,407.6 161,407.6 161,415.6 153,415.6" fill="rgb(0,205,0)"/><text xml:space="preserve" x="157" y="414.433" font-family="Calibri" font-size="7.5" fill="rgb(255,255,255)" text-anchor="middle">1</text>
<polygon points="161,407.6 169,407.6 169,415.6 161,415.6" fill="rgb(255,255,0)"/><text xml:space="preserve" x="165" y="414.433" font-family="Calibri" font-size="7.5" fill="rgb(0,0,0)" text-anchor="middle">3</text>
<polygon points="169,407.6 177,407.6 177,415.6 169,415.6" fill="rgb(230,127,0)"/><text xml:space="preserve" x="173" y="414.433" font-family="Calibri" font-size="7.5" fill="rgb(0,0,0)" text-anchor="middle">4</text>
<polygon points="187,407.6 195,407.6 195,415.6 187,415.6" fill="rgb(0,27,135)"/>
<polygon points="195,407.6 203,407.6 203,415.6 195,415.6" fill="rgb(0,27,135)"/>
<polygon points="203,407.6 211,407.6 211,415.6 203,415.6" fill="rgb(0,27,135)"/>
<polygon points="211,407.6 219,407.6 219,415.6 211,415.6" fill="rgb(15,88,138)"/>
<polygon points="219,407.6 227,407.6 227,415.6 219,415.6" fill="rgb(24,124,140)"/>
<polygon points="237,407.6 245,407.6 245,415.6 237,415.6" fill="rgb(255,255,255)"/>
<polygon points="245,407.6 253,407.6 253,415.6 245,415.6" fill="rgb(255,255,255)"/>
<polygon points="253,407.6 261,407.6 261,415.6 253,415.6" fill="rgb(255,255,255)"/>
<polygon points="261,407.6 269,407.6 269,415.6 261,415.6" fill="rgb(255,255,255)"/>
<polygon points="269,407.6 277,407.6 277,415.6 269,415.6" fill="rgb(255,255,255)"/>
<polygon points="277,407.6 285,407.6 285,415.6 277,415.6" fill="rgb(255,255,255)"/>
<polygon points="285,407.6 293,407.6 293,415.6 285,415.6" fill="rgb(255,255,255)"/>
<polygon points="293,407.6 301,407.6 301,415.6 293,415.6" fill="rgb(255,255,255)"/>
<polygon points="137,415.6 145,415.6 145,423.6 137,423.6" fill="rgb(0,205,0)"/><text xml:space="preserve" x="141" y="422.433" font-family="Calibri" font-size="7.5" fill="rgb(255,255,255)" text-anchor="middle">1</text>
<polygon points="145,415.6 153,415.6 153,423.6 145,423.6" fill="rgb(0,205,0)"/><text xml:space="preserve" x="149" y="422.433" font-family="Calibri" font-size="7.5" fill="rgb(255,255,255)" text-anchor="middle">1</text>
<polygon points="153,415.6 161,415.6 161,423.6 153,423.6" fill="rgb(0,205,0)"/><text xml:space="preserve" x="157" y="422.433" font-family="Calibri" font-size="7.5" fill="rgb(255,255,255)" text-anchor="middle">1</text>
<polygon points="161,415.6 169,415.6 169,423.6 161,423.6" fill="rgb(255,255,0)"/><text xml:space="preserve" x="165" y="422.433" font-family="Calibri" font-size="7.5" fill="rgb(0,0,0)" text-anchor="middle">3</text>
<polygon points="169,415.6 177,415.6 177,423.6 169,423.6" fill="rgb(230,127,0)"/><text xml:space="preserve" x="173" y="422.433" font-family="Calibri" font-size="7.5" fill="rgb(0,0,0)" text-anchor="middle">4</text>
<polygon points="187,415.6 195,415.6 195,423.6 187,423.6" fill="rgb(0,27,135)"/>
<polygon points="195,415.6 203,415.6 203,423.6 195,423.6" fill="rgb(0,27,135)"/>
<polygon points="203,415.6 211,415.6 211,423.6 203,423.6" fill="rgb(0,27,135)"/>
<polygon points="211,415.6 219,415.6 219,423.6 211,423.6" fill="rgb(19,102,139)"/>
<polygon points="219,415.6 227,415.6 227,423.6 219,423.6" fill="rgb(22,116,140)"/>
<polygon points="237,415.6 245,415.6 245,423.6 237,423.6" fill="rgb(255,255,255)"/>
<polygon points="245,415.6 253,415.6 253,423.6 245,423.6" fill="rgb(255,255,255)"/>
<polygon points="253,415.6 261,415.6 261,423.6 253,423.6" fill="rgb(255,255,255)"/>
<polygon points="261,415.6 269,415.6 269,423.6 261,423.6" fill="rgb(255,255,255)"/>
<polygon points="269,415.6 277,415.6 277,423.6 269,423.6" fill="rgb(255,255,255)"/>
<polygon points="277,415.6 285,415.6 285,423.6 277,423.6" fill="rgb(255,255,255)"/>
<polygon points="285,415.6 293,415.6 293,423.6 285,423.6" fill="rgb(255,255,255)"/>
<polygon points="293,415.6 301,415.6 301,423.6 293,423.6" fill="rgb(255,255,255)"/>
<polygon points="137,423.6 145,423.6 145,431.6 137,431.6" fill="rgb(0,205,0)"/><text xml:space="preserve" x="141" y="430.433" font-family="Calibri" font-size="7.5" fill="rgb(255,255,255)" text-anchor="middle">1</text>
<polygon points="145,423.6 153,423.6 153,431.6 145,431.6" fill="rgb(0,205,0)"/><text xml:space="preserve" x="149" y="430.433" font-family="Calibri" font-size="7.5" fill="rgb(255,255,255)" text-anchor="middle">1</text>
<polygon points="153,423.6 161,423.6 161,431.6 153,431.6" fill="rgb(0,205,0)"/><text xml:space="preserve" x="157" y="430.433" font-family="Calibri" font-size="7.5" fill="rgb(255,255,255)" text-anchor="middle">1</text>
<polygon points="161,423.6 169,423.6 169,431.6 161,431.6" fill="rgb(255,255,0)"/><text xml:space="preserve" x="165" y="430.433" font-family="Calibri" font-size="7.5" fill="rgb(0,0,0)" text-anchor="middle">3</text>
<polygon points="169,423.6 177,423.6 177,431.6 169,431.6" fill="rgb(230,127,0)"/><text xml:space="preserve" x="173" y="430.433" font-family="Calibri" font-size="7.5" fill="rgb(0,0,0)" text-anchor="middle">4</text>
<polygon points="187,423.6 195,423.6 195,431.6 187,431.6" fill="rgb(0,27,135)"/>
<polygon points="195,423.6 203,423.6 203,431.6 195,431.6" fill="rgb(0,27,135)"/>
<polygon points="203,423.6 211,423.6 211,431.6 203,431.6" fill="rgb(0,27,135)"/>
<polygon points="211,423.6 219,423.6 219,431.6 211,431.6" fill="rgb(18,99,139)"/>
<polygon points="219,423.6 227,423.6 227,431.6 219,431.6" fill="rgb(20,107,139)"/>
<polygon points="237,423.6 245,423.6 245,431.6 237,431.6" fill="rgb(255,255,255)"/>
<polygon points="245,423.6 253,423.6 253,431.6 245,431.6" fill="rgb(255,255,255)"/>
<polygon points="253,423.6 261,423.6 261,431.6 253,431.6" fill="rgb(255,255,255)"/>
<polygon points="261,423.6 269,423.6 269,431.6 261,431.6" fill="rgb(255,255,255)"/>
<polygon points="269,423.6 277,423.6 277,431.6 269,431.6" fill="rgb(255,255,255)"/>
<polygon points="277,423.6 285,423.6 285,431.6 277,431.6" fill="rgb(255,255,255)"/>
<polygon points="285,423.6 293,423.6 293,431.6 285,431.6" fill="rgb(255,255,255)"/>
<polygon points="293,423.6 301,423.6 301,431.6 293,431.6" fill="rgb(255,255,255)"/>
<polygon points="137,335.6 177,335.6 177,431.6 137,431.6" fill="none" stroke="black" stroke-width="1"/>
<polygon points="187,335.6 227,335.6 227,431.6 187,431.6" fill="none" stroke="black" stroke-width="1"/>
<polygon points="237,335.6 301,335.6 301,431.6 237,431.6" fill="none" stroke="black" stroke-width="1"/>
<text xml:space="preserve" x="160.5" y="464.6" font-family="Calibri" font-size="8" text-anchor="middle">ClusterAssignment</text>
<polygon points="110.5,471.6 130.5,471.6 130.5,491.6 110.5,491.6" fill="rgb(0,205,0)"/><polygon points="110.5,471.6 130.5,471.6 130.5,491.6 110.5,491.6" fill="none" stroke="black" stroke-width="1"/><text xml:space="preserve" x="120.5" y="484.433" font-family="Calibri" font-size="7.5" fill="rgb(255,255,255)" text-anchor="middle">1.0</text>
<polygon points="130.5,471.6 150.5,471.6 150.5,491.6 130.5,491.6" fill="rgb(127,230,0)"/><polygon points="130.5,471.6 150.5,471.6 150.5,491.6 130.5,491.6" fill="none" stroke="black" stroke-width="1"/><text xml:space="preserve" x="140.5" y="484.433" font-family="Calibri" font-size="7.5" fill="rgb(0,0,0)" text-anchor="middle">2.0</text>
<polygon points="150.5,471.6 170.5,471.6 170.5,491.6 150.5,491.6" fill="rgb(255,255,0)"/><polygon points="150.5,471.6 170.5,471.6 170.5,491.6 150.5,491.6" fill="none" stroke="black" stroke-width="1"/><text xml:space="preserve" x="160.5" y="484.433" font-family="Calibri" font-size="7.5" fill="rgb(0,0,0)" text-anchor="middle">3.0</text>
<polygon points="170.5,471.6 190.5,471.6 190.5,491.6 170.5,491.6" fill="rgb(230,127,0)"/><polygon points="170.5,471.6 190.5,471.6 190.5,491.6 170.5,491.6" fill="none" stroke="black" stroke-width="1"/><text xml:space="preserve" x="180.5" y="484.433" font-family="Calibri" font-size="7.5" fill="rgb(0,0,0)" text-anchor="middle">4.0</text>
<polygon points="190.5,471.6 210.5,471.6 210.5,491.6 190.5,491.6" fill="rgb(205,0,0)"/><polygon points="190.5,471.6 210.5,471.6 210.5,491.6 190.5,491.6" fill="none" stroke="black" stroke-width="1"/><text xml:space="preserve" x="200.5" y="484.433" font-family="Calibri" font-size="7.5" fill="rgb(255,255,255)" text-anchor="middle">5.0</text>
<text xml:space="preserve" x="160.5" y="524.6" font-family="Calibri" font-size="8" text-anchor="middle">Expression</text>
<polygon points="110.5,531.6 130.5,531.6 130.5,551.6 110.5,551.6" fill="rgb(0,27,135)"/><polygon points="110.5,531.6 130.5,531.6 130.5,551.6 110.5,551.6" fill="none" stroke="black" stroke-width="1"/><text xml:space="preserve" x="120.5" y="544.433" font-family="Calibri" font-size="7.5" fill="rgb(255,255,255)" text-anchor="middle">0.0</text>
<polygon points="130.5,531.6 150.5,531.6 150.5,551.6 130.5,551.6" fill="rgb(24,123,140)"/><polygon points="130.5,531.6 150.5,531.6 150.5,551.6 130.5,551.6" fill="none" stroke="black" stroke-width="1"/><text xml:space="preserve" x="140.5" y="544.433" font-family="Calibri" font-size="7.5" fill="rgb(255,255,255)" text-anchor="middle">0.8</text>
<polygon points="150.5,531.6 170.5,531.6 170.5,551.6 150.5,551.6" fill="rgb(49,219,146)"/><polygon points="150.5,531.6 170.5,531.6 170.5,551.6 150.5,551.6" fill="none" stroke="black" stroke-width="1"/><text xml:space="preserve" x="160.5" y="544.433" font-family="Calibri" font-size="7.5" fill="rgb(0,0,0)" text-anchor="middle">1.5</text>
<polygon points="170.5,531.6 190.5,531.6 190.5,551.6 170.5,551.6" fill="rgb(150,206,73)"/><polygon points="170.5,531.6 190.5,531.6 190.5,551.6 170.5,551.6" fill="none" stroke="black" stroke-width="1"/><text xml:space="preserve" x="180.5" y="544.433" font-family="Calibri" font-size="7.5" fill="rgb(0,0,0)" text-anchor="middle">2.2</text>
<polygon points="190.5,531.6 210.5,531.6 210.5,551.6 190.5,551.6" fill="rgb(252,194,1)"/><polygon points="190.5,531.6 210.5,531.6 210.5,551.6 190.5,551.6" fill="none" stroke="black" stroke-width="1"/><text xml:space="preserve" x="200.5" y="544.433" font-family="Calibri" font-size="7.5" fill="rgb(0,0,0)" text-anchor="middle">3.0</text>
<text xml:space="preserve" x="160.5" y="584.6" font-family="Calibri" font-size="8" text-anchor="middle">PANTHERclass</text>
<polygon points="110.5,591.6 130.5,591.6 130.5,611.6 110.5,611.6" fill="rgb(255,255,255)"/><polygon points="110.5,591.6 130.5,591.6 130.5,611.6 110.5,611.6" fill="none" stroke="black" stroke-width="1"/><text xml:space="preserve" x="120.5" y="604.433" font-family="Calibri" font-size="7.5" fill="rgb(0,0,0)" text-anchor="middle">0.0</text>
<polygon points="130.5,591.6 150.5,591.6 150.5,611.6 130.5,611.6" fill="rgb(242,191,242)"/><polygon points="130.5,591.6 150.5,591.6 150.5,611.6 130.5,611.6" fill="none" stroke="black" stroke-width="1"/><text xml:space="preserve" x="140.5" y="604.433" font-family="Calibri" font-size="7.5" fill="rgb(0,0,0)" text-anchor="middle">0.2</text>
<polygon points="150.5,591.6 170.5,591.6 170.5,611.6 150.5,611.6" fill="rgb(230,127,230)"/><polygon points="150.5,591.6 170.5,591.6 170.5,611.6 150.5,611.6" fill="none" stroke="black" stroke-width="1"/><text xml:space="preserve" x="160.5" y="604.433" font-family="Calibri" font-size="7.5" fill="rgb(0,0,0)" text-anchor="middle">0.5</text>
<polygon points="170.5,591.6 190.5,591.6 190.5,611.6 170.5,611.6" fill="rgb(217,63,217)"/><polygon points="170.5,591.6 190.5,591.6 190.5,611.6 170.5,611.6" fill="none" stroke="black" stroke-width="1"/><text xml:space="preserve" x="180.5" y="604.433" font-family="Calibri" font-size="7.5" fill="rgb(255,255,255)" text-anchor="middle">0.8</text>
<polygon points="190.5,591.6 210.5,591.6 210.5,611.6 190.5,611.6" fill="rgb(205,0,205)"/><polygon points="190.5,591.6 210.5,591.6 210.5,611.6 190.5,611.6" fill="none" stroke="black" stroke-width="1"/><text xml:space="preserve" x="200.5" y="604.433" font-family="Calibri" font-size="7.5" fill="rgb(255,255,255)" text-anchor="middle">1.0</text>
</svg>
