<?xml version="1.0" standalone="no"?><!DOCTYPE svg PUBLIC "-//W3C//DTD SVG 1.1//EN" "http://www.w3.org/Graphics/SVG/1.1/DTD/svg11.dtd">
<svg width="285.6" height="583.6" version="1.1" xmlns="http://www.w3.org/2000/svg">
<text xml:space="preserve" x="97.6" y="342.6" font-family="Calibri" font-size="8" text-anchor="end">APOE</text>
<text xml:space="preserve" x="97.6" y="350.6" font-family="Calibri" font-size="8" text-anchor="end">CAPG</text>
<text xml:space="preserve" x="97.6" y="358.6" font-family="Calibri" font-size="8" text-anchor="end">TMEM54</text>
<text xml:space="preserve" x="97.6" y="366.6" font-family="Calibri" font-size="8" text-anchor="end">PTTG1</text>
<text xml:space="preserve" x="97.6" y="374.6" font-family="Calibri" font-size="8" text-anchor="end">RESP18</text>
<text xml:space="preserve" x="97.6" y="382.6" font-family="Calibri" font-size="8" text-anchor="end">BHLHE40</text>
<text xml:space="preserve" x="108.6" y="331.6" font-family="Calibri" font-size="8" transform="rotate(270 108.6 331.6)">c1</text>
<text xml:space="preserve" x="116.6" y="331.6" font-family="Calibri" font-size="8" transform="rotate(270 116.6 331.6)">c3</text>
<text xml:space="preserve" x="124.6" y="331.6" font-family="Calibri" font-size="8" transform="rotate(270 124.6 331.6)">c5</text>
<text xml:space="preserve" x="132.6" y="331.6" font-family="Calibri" font-size="8" transform="rotate(270 132.6 331.6)">c4</text>
<text xml:space="preserve" x="140.6" y="331.6" font-family="Calibri" font-size="8" transform="rotate(270 140.6 331.6)">c2</text>
<text xml:space="preserve" x="158.6" y="331.6" font-family="Calibri" font-size="8" transform="rotate(270 158.6 331.6)">c1_mean</text>
<text xml:space="preserve" x="166.6" y="331.6" font-family="Calibri" font-size="8" transform="rotate(270 166.6 331.6)">c3_mean</text>
<text xml:space="preserve" x="174.6" y="331.6" font-family="Calibri" font-size="8" transform="rotate(270 174.6 331.6)">c5_mean</text>
<text xml:space="preserve" x="182.6" y="331.6" font-family="Calibri" font-size="8" transform="rotate(270 182.6 331.6)">c4_mean</text>
<text xml:space="preserve" x="190.6" y="331.6" font-family="Calibri" font-size="8" transform="rotate(270 190.6 331.6)">c2_mean</text>
<text xml:space="preserve" x="208.6" y="331.6" font-family="Calibri" font-size="8" transform="rotate(270 208.6 331.6)">transcription_factor</text>
<text xml:space="preserve" x="216.6" y="331.6" font-family="Calibri" font-size="8" transform="rotate(270 216.6 331.6)">transmembrane_signal_receptor</text>
<text xml:space="preserve" x="224.6" y="331.6" font-family="Calibri" font-size="8" transform="rotate(270 224.6 331.6)">growth_factor</text>
<text xml:space="preserve" x="232.6" y="331.6" font-family="Calibri" font-size="8" transform="rotate(270 232.6 331.6)">peptide_hormone</text>
<text xml:space="preserve" x="240.6" y="331.6" font-family="Calibri" font-size="8" transform="rotate(270 240.6 331.6)">cytoskeletal_protein</text>
<text xml:space="preserve" x="248.6" y="331.6" font-family="Calibri" font-size="8" transform="rotate(270 248.6 331.6)">ion_channel</text>
<text xml:space="preserve" x="256.6" y="331.6" font-family="Calibri" font-size="8" transform="rotate(270 256.6 331.6)">integrin</text>
<text xml:space="preserve" x="264.6" y="331.6" font-family="Calibri" font-size="8" transform="rotate(270 264.6 331.6)">extracellular_matrix_protein</text>
<polygon points="101.6,335.6 109.6,335.6 109.6,343.6 101.6,343.6" fill="rgb(230,127,0)"/><text xml:space="preserve" x="105.6" y="342.433" font-family="Calibri" font-size="7.5" fill="rgb(0,0,0)" text-anchor="middle">4</text>
<polygon points="109.6,335.6 117.6,335.6 117.6,343.6 109.6,343.6" fill="rgb(127,230,0)"/><text xml:space="preserve" x="113.6" y="342.433" font-family="Calibri" font-size="7.5" fill="rgb(0,0,0)" text-anchor="middle">2</text>
<polygon points="117.6,335.6 125.6,335.6 125.6,343.6 117.6,343.6" fill="rgb(127,230,0)"/><text xml:space="preserve" x="121.6" y="342.433" font-family="Calibri" font-size="7.5" fill="rgb(0,0,0)" text-anchor="middle">2</text>
<polygon points="125.6,335.6 133.6,335.6 133.6,343.6 125.6,343.6" fill="rgb(127,230,0)"/><text xml:space="preserve" x="129.6" y="342.433" font-family="Calibri" font-size="7.5" fill="rgb(0,0,0)" text-anchor="middle">2</text>
<polygon points="133.6,335.6 141.6,335.6 141.6,343.6 133.6,343.6" fill="rgb(230,127,0)"/><text xml:space="preserve" x="137.6" y="342.433" font-family="Calibri" font-size="7.5" fill="rgb(0,0,0)" text-anchor="middle">4</text>
<polygon points="151.6,335.6 159.6,335.6 159.6,343.6 151.6,343.6" fill="rgb(45,204,145)"/>
<polygon points="159.6,335.6 167.6,335.6 167.6,343.6 159.6,343.6" fill="rgb(10,69,137)"/>
<polygon points="167.6,335.6 175.6,335.6 175.6,343.6 167.6,343.6" fill="rgb(4,46,136)"/>
<polygon points="175.6,335.6 183.6,335.6 183.6,343.6 175.6,343.6" fill="rgb(10,69,137)"/>
<polygon points="183.6,335.6 191.6,335.6 191.6,343.6 183.6,343.6" fill="rgb(28,139,141)"/>
<polygon points="201.6,335.6 209.6,335.6 209.6,343.6 201.6,343.6" fill="rgb(255,255,255)"/>
<polygon points="209.6,335.6 217.6,335.6 217.6,343.6 209.6,343.6" fill="rgb(255,255,255)"/>
<polygon points="217.6,335.6 225.6,335.6 225.6,343.6 217.6,343.6" fill="rgb(255,255,255)"/>
<polygon points="225.6,335.6 233.6,335.6 233.6,343.6 225.6,343.6" fill="rgb(255,255,255)"/>
<polygon points="233.6,335.6 241.6,335.6 241.6,343.6 233.6,343.6" fill="rgb(255,255,255)"/>
<polygon points="241.6,335.6 249.6,335.6 249.6,343.6 241.6,343.6" fill="rgb(255,255,255)"/>
<polygon points="249.6,335.6 257.6,335.6 257.6,343.6 249.6,343.6" fill="rgb(255,255,255)"/>
<polygon points="257.6,335.6 265.6,335.6 265.6,343.6 257.6,343.6" fill="rgb(255,255,255)"/>
<polygon points="101.6,343.6 109.6,343.6 109.6,351.6 101.6,351.6" fill="rgb(230,127,0)"/><text xml:space="preserve" x="105.6" y="350.433" font-family="Calibri" font-size="7.5" fill="rgb(0,0,0)" text-anchor="middle">4</text>
<polygon points="109.6,343.6 117.6,343.6 117.6,351.6 109.6,351.6" fill="rgb(127,230,0)"/><text xml:space="preserve" x="113.6" y="350.433" font-family="Calibri" font-size="7.5" fill="rgb(0,0,0)" text-anchor="middle">2</text>
<polygon points="117.6,343.6 125.6,343.6 125.6,351.6 117.6,351.6" fill="rgb(127,230,0)"/><text xml:space="preserve" x="121.6" y="350.433" font-family="Calibri" font-size="7.5" fill="rgb(0,0,0)" text-anchor="middle">2</text>
<polygon points="125.6,343.6 133.6,343.6 133.6,351.6 125.6,351.6" fill="rgb(127,230,0)"/><text xml:space="preserve" x="129.6" y="350.433" font-family="Calibri" font-size="7.5" fill="rgb(0,0,0)" text-anchor="middle">2</text>
<polygon points="133.6,343.6 141.6,343.6 141.6,351.6 133.6,351.6" fill="rgb(230,127,0)"/><text xml:space="preserve" x="137.6" y="350.433" font-family="Calibri" font-size="7.5" fill="rgb(0,0,0)" text-anchor="middle">4</text>
<polygon points="151.6,343.6 159.6,343.6 159.6,351.6 151.6,351.6" fill="rgb(22,114,139)"/>
<polygon points="159.6,343.6 167.6,343.6 167.6,351.6 159.6,351.6" fill="rgb(4,46,136)"/>
<polygon points="167.6,343.6 175.6,343.6 175.6,351.6 167.6,351.6" fill="rgb(1,33,135)"/>
<polygon points="175.6,343.6 183.6,343.6 183.6,351.6 175.6,351.6" fill="rgb(9,62,137)"/>
<polygon points="183.6,343.6 191.6,343.6 191.6,351.6 183.6,351.6" fill="rgb(28,138,141)"/>
<polygon points="201.6,343.6 209.6,343.6 209.6,351.6 201.6,351.6" fill="rgb(255,255,255)"/>
<polygon points="209.6,343.6 217.6,343.6 217.6,351.6 209.6,351.6" fill="rgb(255,255,255)"/>
<polygon points="217.6,343.6 225.6,343.6 225.6,351.6 217.6,351.6" fill="rgb(255,255,255)"/>
<polygon points="225.6,343.6 233.6,343.6 233.6,351.6 225.6,351.6" fill="rgb(255,255,255)"/>
<polygon points="233.6,343.6 241.6,343.6 241.6,351.6 233.6,351.6" fill="rgb(255,255,255)"/>
<polygon points="241.6,343.6 249.6,343.6 249.6,351.6 241.6,351.6" fill="rgb(255,255,255)"/>
<polygon points="249.6,343.6 257.6,343.6 257.6,351.6 249.6,351.6" fill="rgb(255,255,255)"/>
<polygon points="257.6,343.6 265.6,343.6 265.6,351.6 257.6,351.6" fill="rgb(255,255,255)"/>
<polygon points="101.6,351.6 109.6,351.6 109.6,359.6 101.6,359.6" fill="rgb(230,127,0)"/><text xml:space="preserve" x="105.6" y="358.433" font-family="Calibri" font-size="7.5" fill="rgb(0,0,0)" text-anchor="middle">4</text>
<polygon points="109.6,351.6 117.6,351.6 117.6,359.6 109.6,359.6" fill="rgb(127,230,0)"/><text xml:space="preserve" x="113.6" y="358.433" font-family="Calibri" font-size="7.5" fill="rgb(0,0,0)" text-anchor="middle">2</text>
<polygon points="117.6,351.6 125.6,351.6 125.6,359.6 117.6,359.6" fill="rgb(127,230,0)"/><text xml:space="preserve" x="121.6" y="358.433" font-family="Calibri" font-size="7.5" fill="rgb(0,0,0)" text-anchor="middle">2</text>
<polygon points="125.6,351.6 133.6,351.6 133.6,359.6 125.6,359.6" fill="rgb(127,230,0)"/><text xml:space="preserve" x="129.6" y="358.433" font-family="Calibri" font-size="7.5" fill="rgb(0,0,0)" text-anchor="middle">2</text>
<polygon points="133.6,351.6 141.6,351.6 141.6,359.6 133.6,359.6" fill="rgb(230,127,0)"/><text xml:space="preserve" x="137.6" y="358.433" font-family="Calibri" font-size="7.5" fill="rgb(0,0,0)" text-anchor="middle">4</text>
<polygon points="151.6,351.6 159.6,351.6 159.6,359.6 151.6,359.6" fill="rgb(23,117,140)"/>
<polygon points="159.6,351.6 167.6,351.6 167.6,359.6 159.6,359.6" fill="rgb(11,70,137)"/>
<polygon points="167.6,351.6 175.6,351.6 175.6,359.6 167.6,359.6" fill="rgb(3,39,135)"/>
<polygon points="175.6,351.6 183.6,351.6 183.6,359.6 175.6,359.6" fill="rgb(15,87,138)"/>
<polygon points="183.6,351.6 191.6,351.6 191.6,359.6 183.6,359.6" fill="rgb(29,142,141)"/>
<polygon points="201.6,351.6 209.6,351.6 209.6,359.6 201.6,359.6" fill="rgb(255,255,255)"/>
<polygon points="209.6,351.6 217.6,351.6 217.6,359.6 209.6,359.6" fill="rgb(255,255,255)"/>
<polygon points="217.6,351.6 225.6,351.6 225.6,359.6 217.6,359.6" fill="rgb(255,255,255)"/>
<polygon points="225.6,351.6 233.6,351.6 233.6,359.6 225.6,359.6" fill="rgb(255,255,255)"/>
<polygon points="233.6,351.6 241.6,351.6 241.6,359.6 233.6,359.6" fill="rgb(255,255,255)"/>
<polygon points="241.6,351.6 249.6,351.6 249.6,359.6 241.6,359.6" fill="rgb(255,255,255)"/>
<polygon points="249.6,351.6 257.6,351.6 257.6,359.6 249.6,359.6" fill="rgb(255,255,255)"/>
<polygon points="257.6,351.6 265.6,351.6 265.6,359.6 257.6,359.6" fill="rgb(255,255,255)"/>
<polygon points="101.6,359.6 109.6,359.6 109.6,367.6 101.6,367.6" fill="rgb(230,127,0)"/><text xml:space="preserve" x="105.6" y="366.433" font-family="Calibri" font-size="7.5" fill="rgb(0,0,0)" text-anchor="middle">4</text>
<polygon points="109.6,359.6 117.6,359.6 117.6,367.6 109.6,367.6" fill="rgb(127,230,0)"/><text xml:space="preserve" x="113.6" y="366.433" font-family="Calibri" font-size="7.5" fill="rgb(0,0,0)" text-anchor="middle">2</text>
<polygon points="117.6,359.6 125.6,359.6 125.6,367.6 117.6,367.6" fill="rgb(127,230,0)"/><text xml:space="preserve" x="121.6" y="366.433" font-family="Calibri" font-size="7.5" fill="rgb(0,0,0)" text-anchor="middle">2</text>
<polygon points="125.6,359.6 133.6,359.6 133.6,367.6 125.6,367.6" fill="rgb(127,230,0)"/><text xml:space="preserve" x="129.6" y="366.433" font-family="Calibri" font-size="7.5" fill="rgb(0,0,0)" text-anchor="middle">2</text>
<polygon points="133.6,359.6 141.6,359.6 141.6,367.6 133.6,367.6" fill="rgb(230,127,0)"/><text xml:space="preserve" x="137.6" y="366.433" font-family="Calibri" font-size="7.5" fill="rgb(0,0,0)" text-anchor="middle">4</text>
<polygon points="151.6,359.6 159.6,359.6 159.6,367.6 151.6,367.6" fill="rgb(22,114,139)"/>
<polygon points="159.6,359.6 167.6,359.6 167.6,367.6 159.6,367.6" fill="rgb(14,82,138)"/>
<polygon points="167.6,359.6 175.6,359.6 175.6,367.6 167.6,367.6" fill="rgb(3,41,135)"/>
<polygon points="175.6,359.6 183.6,359.6 183.6,367.6 175.6,367.6" fill="rgb(4,44,136)"/>
<polygon points="183.6,359.6 191.6,359.6 191.6,367.6 183.6,367.6" fill="rgb(33,158,142)"/>
<polygon points="201.6,359.6 209.6,359.6 209.6,367.6 201.6,367.6" fill="rgb(255,255,255)"/>
<polygon points="209.6,359.6 217.6,359.6 217.6,367.6 209.6,367.6" fill="rgb(255,255,255)"/>
<polygon points="217.6,359.6 225.6,359.6 225.6,367.6 217.6,367.6" fill="rgb(255,255,255)"/>
<polygon points="225.6,359.6 233.6,359.6 233.6,367.6 225.6,367.6" fill="rgb(255,255,255)"/>
<polygon points="233.6,359.6 241.6,359.6 241.6,367.6 233.6,367.6" fill="rgb(255,255,255)"/>
<polygon points="241.6,359.6 249.6,359.6 249.6,367.6 241.6,367.6" fill="rgb(255,255,255)"/>
<polygon points="249.6,359.6 257.6,359.6 257.6,367.6 249.6,367.6" fill="rgb(255,255,255)"/>
<polygon points="257.6,359.6 265.6,359.6 265.6,367.6 257.6,367.6" fill="rgb(255,255,255)"/>
<polygon points="101.6,367.6 109.6,367.6 109.6,375.6 101.6,375.6" fill="rgb(230,127,0)"/><text xml:space="preserve" x="105.6" y="374.433" font-family="Calibri" font-size="7.5" fill="rgb(0,0,0)" text-anchor="middle">4</text>
<polygon points="109.6,367.6 117.6,367.6 117.6,375.6 109.6,375.6" fill="rgb(127,230,0)"/><text xml:space="preserve" x="113.6" y="374.433" font-family="Calibri" font-size="7.5" fill="rgb(0,0,0)" text-anchor="middle">2</text>
<polygon points="117.6,367.6 125.6,367.6 125.6,375.6 117.6,375.6" fill="rgb(127,230,0)"/><text xml:space="preserve" x="121.6" y="374.433" font-family="Calibri" font-size="7.5" fill="rgb(0,0,0)" text-anchor="middle">2</text>
<polygon points="125.6,367.6 133.6,367.6 133.6,375.6 125.6,375.6" fill="rgb(127,230,0)"/><text xml:space="preserve" x="129.6" y="374.433" font-family="Calibri" font-size="7.5" fill="rgb(0,0,0)" text-anchor="middle">2</text>
<polygon points="133.6,367.6 141.6,367.6 141.6,375.6 133.6,375.6" fill="rgb(230,127,0)"/><text xml:space="preserve" x="137.6" y="374.433" font-family="Calibri" font-size="7.5" fill="rgb(0,0,0)" text-anchor="middle">4</text>
<polygon points="151.6,367.6 159.6,367.6 159.6,375.6 151.6,375.6" fill="rgb(37,174,143)"/>
<polygon points="159.6,367.6 167.6,367.6 167.6,375.6 159.6,375.6" fill="rgb(10,69,137)"/>
<polygon points="167.6,367.6 175.6,367.6 175.6,375.6 167.6,375.6" fill="rgb(4,44,136)"/>
<polygon points="175.6,367.6 183.6,367.6 183.6,375.6 175.6,375.6" fill="rgb(7,57,136)"/>
<polygon points="183.6,367.6 191.6,367.6 191.6,375.6 183.6,375.6" fill="rgb(23,117,140)"/>
<polygon points="201.6,367.6 209.6,367.6 209.6,375.6 201.6,375.6" fill="rgb(255,255,255)"/>
<polygon points="209.6,367.6 217.6,367.6 217.6,375.6 209.6,375.6" fill="rgb(255,255,255)"/>
<polygon points="217.6,367.6 225.6,367.6 225.6,375.6 217.6,375.6" fill="rgb(255,255,255)"/>
<polygon points="225.6,367.6 233.6,367.6 233.6,375.6 225.6,375.6" fill="rgb(255,255,255)"/>
<polygon points="233.6,367.6 241.6,367.6 241.6,375.6 233.6,375.6" fill="rgb(255,255,255)"/>
<polygon points="241.6,367.6 249.6,367.6 249.6,375.6 241.6,375.6" fill="rgb(255,255,255)"/>
<polygon points="249.6,367.6 257.6,367.6 257.6,375.6 249.6,375.6" fill="rgb(255,255,255)"/>
<polygon points="257.6,367.6 265.6,367.6 265.6,375.6 257.6,375.6" fill="rgb(255,255,255)"/>
<polygon points="101.6,375.6 109.6,375.6 109.6,383.6 101.6,383.6" fill="rgb(230,127,0)"/><text xml:space="preserve" x="105.6" y="382.433" font-family="Calibri" font-size="7.5" fill="rgb(0,0,0)" text-anchor="middle">4</text>
<polygon points="109.6,375.6 117.6,375.6 117.6,383.6 109.6,383.6" fill="rgb(127,230,0)"/><text xml:space="preserve" x="113.6" y="382.433" font-family="Calibri" font-size="7.5" fill="rgb(0,0,0)" text-anchor="middle">2</text>
<polygon points="117.6,375.6 125.6,375.6 125.6,383.6 117.6,383.6" fill="rgb(127,230,0)"/><text xml:space="preserve" x="121.6" y="382.433" font-family="Calibri" font-size="7.5" fill="rgb(0,0,0)" text-anchor="middle">2</text>
<polygon points="125.6,375.6 133.6,375.6 133.6,383.6 125.6,383.6" fill="rgb(127,230,0)"/><text xml:space="preserve" x="129.6" y="382.433" font-family="Calibri" font-size="7.5" fill="rgb(0,0,0)" text-anchor="middle">2</text>
<polygon points="133.6,375.6 141.6,375.6 141.6,383.6 133.6,383.6" fill="rgb(230,127,0)"/><text xml:space="preserve" x="137.6" y="382.433" font-family="Calibri" font-size="7.5" fill="rgb(0,0,0)" text-anchor="middle">4</text>
<polygon points="151.6,375.6 159.6,375.6 159.6,383.6 151.6,383.6" fill="rgb(34,162,142)"/>
<polygon points="159.6,375.6 167.6,375.6 167.6,383.6 159.6,383.6" fill="rgb(6,51,136)"/>
<polygon points="167.6,375.6 175.6,375.6 175.6,383.6 167.6,383.6" fill="rgb(2,35,135)"/>
<polygon points="175.6,375.6 183.6,375.6 183.6,383.6 175.6,383.6" fill="rgb(15,88,138)"/>
<polygon points="183.6,375.6 191.6,375.6 191.6,383.6 183.6,383.6" fill="rgb(27,134,141)"/>
<polygon points="201.6,375.6 209.6,375.6 209.6,383.6 201.6,383.6" fill="rgb(205,0,205)"/>
<polygon points="209.6,375.6 217.6,375.6 217.6,383.6 209.6,383.6" fill="rgb(255,255,255)"/>
<polygon points="217.6,375.6 225.6,375.6 225.6,383.6 217.6,383.6" fill="rgb(255,255,255)"/>
<polygon points="225.6,375.6 233.6,375.6 233.6,383.6 225.6,383.6" fill="rgb(255,255,255)"/>
<polygon points="233.6,375.6 241.6,375.6 241.6,383.6 233.6,383.6" fill="rgb(255,255,255)"/>
<polygon points="241.6,375.6 249.6,375.6 249.6,383.6 241.6,383.6" fill="rgb(255,255,255)"/>
<polygon points="249.6,375.6 257.6,375.6 257.6,383.6 249.6,383.6" fill="rgb(255,255,255)"/>
<polygon points="257.6,375.6 265.6,375.6 265.6,383.6 257.6,383.6" fill="rgb(255,255,255)"/>
<polygon points="101.6,335.6 141.6,335.6 141.6,383.6 101.6,383.6" fill="none" stroke="black" stroke-width="1"/>
<polygon points="151.6,335.6 191.6,335.6 191.6,383.6 151.6,383.6" fill="none" stroke="black" stroke-width="1"/>
<polygon points="201.6,335.6 265.6,335.6 265.6,383.6 201.6,383.6" fill="none" stroke="black" stroke-width="1"/>
<text xml:space="preserve" x="142.8" y="416.6" font-family="Calibri" font-size="8" text-anchor="middle">ClusterAssignment</text>
<polygon points="92.8,423.6 112.8,423.6 112.8,443.6 92.8,443.6" fill="rgb(0,205,0)"/><polygon points="92.8,423.6 112.8,423.6 112.8,443.6 92.8,443.6" fill="none" stroke="black" stroke-width="1"/><text xml:space="preserve" x="102.8" y="436.433" font-family="Calibri" font-size="7.5" fill="rgb(255,255,255)" text-anchor="middle">1.0</text>
<polygon points="112.8,423.6 132.8,423.6 132.8,443.6 112.8,443.6" fill="rgb(127,230,0)"/><polygon points="112.8,423.6 132.8,423.6 132.8,443.6 112.8,443.6" fill="none" stroke="black" stroke-width="1"/><text xml:space="preserve" x="122.8" y="436.433" font-family="Calibri" font-size="7.5" fill="rgb(0,0,0)" text-anchor="middle">2.0</text>
<polygon points="132.8,423.6 152.8,423.6 152.8,443.6 132.8,443.6" fill="rgb(255,255,0)"/><polygon points="132.8,423.6 152.8,423.6 152.8,443.6 132.8,443.6" fill="none" stroke="black" stroke-width="1"/><text xml:space="preserve" x="142.8" y="436.433" font-family="Calibri" font-size="7.5" fill="rgb(0,0,0)" text-anchor="middle">3.0</text>
<polygon points="152.8,423.6 172.8,423.6 172.8,443.6 152.8,443.6" fill="rgb(230,127,0)"/><polygon points="152.8,423.6 172.8,423.6 172.8,443.6 152.8,443.6" fill="none" stroke="black" stroke-width="1"/><text xml:space="preserve" x="162.8" y="436.433" font-family="Calibri" font-size="7.5" fill="rgb(0,0,0)" text-anchor="middle">4.0</text>
<polygon points="172.8,423.6 192.8,423.6 192.8,443.6 172.8,443.6" fill="rgb(205,0,0)"/><polygon points="172.8,423.6 192.8,423.6 192.8,443.6 172.8,443.6" fill="none" stroke="black" stroke-width="1"/><text xml:space="preserve" x="182.8" y="436.433" font-family="Calibri" font-size="7.5" fill="rgb(255,255,255)" text-anchor="middle">5.0</text>
<text xml:space="preserve" x="142.8" y="476.6" font-family="Calibri" font-size="8" text-anchor="middle">Expression</text>
<polygon points="92.8,483.6 112.8,483.6 112.8,503.6 92.8,503.6" fill="rgb(0,27,135)"/><polygon points="92.8,483.6 112.8,483.6 112.8,503.6 92.8,503.6" fill="none" stroke="black" stroke-width="1"/><text xml:space="preserve" x="102.8" y="496.433" font-family="Calibri" font-size="7.5" fill="rgb(255,255,255)" text-anchor="middle">0.0</text>
<polygon points="112.8,483.6 132.8,483.6 132.8,503.6 112.8,503.6" fill="rgb(24,123,140)"/><polygon points="112.8,483.6 132.8,483.6 132.8,503.6 112.8,503.6" fill="none" stroke="black" stroke-width="1"/><text xml:space="preserve" x="122.8" y="496.433" font-family="Calibri" font-size="7.5" fill="rgb(255,255,255)" text-anchor="middle">0.8</text>
<polygon points="132.8,483.6 152.8,483.6 152.8,503.6 132.8,503.6" fill="rgb(49,219,146)"/><polygon points="132.8,483.6 152.8,483.6 152.8,503.6 132.8,503.6" fill="none" stroke="black" stroke-width="1"/><text xml:space="preserve" x="142.8" y="496.433" font-family="Calibri" font-size="7.5" fill="rgb(0,0,0)" text-anchor="middle">1.5</text>
<polygon points="152.8,483.6 172.8,483.6 172.8,503.6 152.8,503.6" fill="rgb(150,206,73)"/><polygon points="152.8,483.6 172.8,483.6 172.8,503.6 152.8,503.6" fill="none" stroke="black" stroke-width="1"/><text xml:space="preserve" x="162.8" y="496.433" font-family="Calibri" font-size="7.5" fill="rgb(0,0,0)" text-anchor="middle">2.2</text>
<polygon points="172.8,483.6 192.8,483.6 192.8,503.6 172.8,503.6" fill="rgb(252,194,1)"/><polygon points="172.8,483.6 192.8,483.6 192.8,503.6 172.8,503.6" fill="none" stroke="black" stroke-width="1"/><text xml:space="preserve" x="182.8" y="496.433" font-family="Calibri" font-size="7.5" fill="rgb(0,0,0)" text-anchor="middle">3.0</text>
<text xml:space="preserve" x="142.8" y="536.6" font-family="Calibri" font-size="8" text-anchor="middle">PANTHERclass</text>
<polygon points="92.8,543.6 112.8,543.6 112.8,563.6 92.8,563.6" fill="rgb(255,255,255)"/><polygon points="92.8,543.6 112.8,543.6 112.8,563.6 92.8,563.6" fill="none" stroke="black" stroke-width="1"/><text xml:space="preserve" x="102.8" y="556.433" font-family="Calibri" font-size="7.5" fill="rgb(0,0,0)" text-anchor="middle">0.0</text>
<polygon points="112.8,543.6 132.8,543.6 132.8,563.6 112.8,563.6" fill="rgb(242,191,242)"/><polygon points="112.8,543.6 132.8,543.6 132.8,563.6 112.8,563.6" fill="none" stroke="black" stroke-width="1"/><text xml:space="preserve" x="122.8" y="556.433" font-family="Calibri" font-size="7.5" fill="rgb(0,0,0)" text-anchor="middle">0.2</text>
<polygon points="132.8,543.6 152.8,543.6 152.8,563.6 132.8,563.6" fill="rgb(230,127,230)"/><polygon points="132.8,543.6 152.8,543.6 152.8,563.6 132.8,563.6" fill="none" stroke="black" stroke-width="1"/><text xml:space="preserve" x="142.8" y="556.433" font-family="Calibri" font-size="7.5" fill="rgb(0,0,0)" text-anchor="middle">0.5</text>
<polygon points="152.8,543.6 172.8,543.6 172.8,563.6 152.8,563.6" fill="rgb(217,63,217)"/><polygon points="152.8,543.6 172.8,543.6 172.8,563.6 152.8,563.6" fill="none" stroke="black" stroke-width="1"/><text xml:space="preserve" x="162.8" y="556.433" font-family="Calibri" font-size="7.5" fill="rgb(255,255,255)" text-anchor="middle">0.8</text>
<polygon points="172.8,543.6 192.8,543.6 192.8,563.6 172.8,563.6" fill="rgb(205,0,205)"/><polygon points="172.8,543.6 192.8,543.6 192.8,563.6 172.8,563.6" fill="none" stroke="black" stroke-width="1"/><text xml:space="preserve" x="182.8" y="556.433" font-family="Calibri" font-size="7.5" fill="rgb(255,255,255)" text-anchor="middle">1.0</text>
</svg>
