<?xml version="1.0" standalone="no"?><!DOCTYPE svg PUBLIC "-//W3C//DTD SVG 1.1//EN" "http://www.w3.org/Graphics/SVG/1.1/DTD/svg11.dtd">
<svg width="306.3" height="615.6" version="1.1" xmlns="http://www.w3.org/2000/svg">
<text xml:space="preserve" x="118.3" y="342.6" font-family="Calibri" font-size="8" text-anchor="end">AEN</text>
<text xml:space="preserve" x="118.3" y="350.6" font-family="Calibri" font-size="8" text-anchor="end">SRSF8</text>
<text xml:space="preserve" x="118.3" y="358.6" font-family="Calibri" font-size="8" text-anchor="end">FTL</text>
<text xml:space="preserve" x="118.3" y="366.6" font-family="Calibri" font-size="8" text-anchor="end">TNFRSF10B</text>
<text xml:space="preserve" x="118.3" y="374.6" font-family="Calibri" font-size="8" text-anchor="end">MDM2</text>
<text xml:space="preserve" x="118.3" y="382.6" font-family="Calibri" font-size="8" text-anchor="end">IER2</text>
<text xml:space="preserve" x="118.3" y="390.6" font-family="Calibri" font-size="8" text-anchor="end">FDXR</text>
<text xml:space="preserve" x="118.3" y="398.6" font-family="Calibri" font-size="8" text-anchor="end">SESN2</text>
<text xml:space="preserve" x="118.3" y="406.6" font-family="Calibri" font-size="8" text-anchor="end">PPP1R15A</text>
<text xml:space="preserve" x="118.3" y="414.6" font-family="Calibri" font-size="8" text-anchor="end">DUSP14</text>
<text xml:space="preserve" x="129.3" y="331.6" font-family="Calibri" font-size="8" transform="rotate(270 129.3 331.6)">c1</text>
<text xml:space="preserve" x="137.3" y="331.6" font-family="Calibri" font-size="8" transform="rotate(270 137.3 331.6)">c3</text>
<text xml:space="preserve" x="145.3" y="331.6" font-family="Calibri" font-size="8" transform="rotate(270 145.3 331.6)">c5</text>
<text xml:space="preserve" x="153.3" y="331.6" font-family="Calibri" font-size="8" transform="rotate(270 153.3 331.6)">c4</text>
<text xml:space="preserve" x="161.3" y="331.6" font-family="Calibri" font-size="8" transform="rotate(270 161.3 331.6)">c2</text>
<text xml:space="preserve" x="179.3" y="331.6" font-family="Calibri" font-size="8" transform="rotate(270 179.3 331.6)">c1_mean</text>
<text xml:space="preserve" x="187.3" y="331.6" font-family="Calibri" font-size="8" transform="rotate(270 187.3 331.6)">c3_mean</text>
<text xml:space="preserve" x="195.3" y="331.6" font-family="Calibri" font-size="8" transform="rotate(270 195.3 331.6)">c5_mean</text>
<text xml:space="preserve" x="203.3" y="331.6" font-family="Calibri" font-size="8" transform="rotate(270 203.3 331.6)">c4_mean</text>
<text xml:space="preserve" x="211.3" y="331.6" font-family="Calibri" font-size="8" transform="rotate(270 211.3 331.6)">c2_mean</text>
<text xml:space="preserve" x="229.3" y="331.6" font-family="Calibri" font-size="8" transform="rotate(270 229.3 331.6)">transcription_factor</text>
<text xml:space="preserve" x="237.3" y="331.6" font-family="Calibri" font-size="8" transform="rotate(270 237.3 331.6)">transmembrane_signal_receptor</text>
<text xml:space="preserve" x="245.3" y="331.6" font-family="Calibri" font-size="8" transform="rotate(270 245.3 331.6)">growth_factor</text>
<text xml:space="preserve" x="253.3" y="331.6" font-family="Calibri" font-size="8" transform="rotate(270 253.3 331.6)">peptide_hormone</text>
<text xml:space="preserve" x="261.3" y="331.6" font-family="Calibri" font-size="8" transform="rotate(270 261.3 331.6)">cytoskeletal_protein</text>
<text xml:space="preserve" x="269.3" y="331.6" font-family="Calibri" font-size="8" transform="rotate(270 269.3 331.6)">ion_channel</text>
<text xml:space="preserve" x="277.3" y="331.6" font-family="Calibri" font-size="8" transform="rotate(270 277.3 331.6)">integrin</text>
<text xml:space="preserve" x="285.3" y="331.6" font-family="Calibri" font-size="8" transform="rotate(270 285.3 331.6)">extracellular_matrix_protein</text>
<polygon points="122.3,335.6 130.3,335.6 130.3,343.6 122.3,343.6" fill="rgb(255,255,0)"/><text xml:space="preserve" x="126.3" y="342.433" font-family="Calibri" font-size="7.5" fill="rgb(0,0,0)" text-anchor="middle">3</text>
<polygon points="130.3,335.6 138.3,335.6 138.3,343.6 130.3,343.6" fill="rgb(255,255,0)"/><text xml:space="preserve" x="134.3" y="342.433" font-family="Calibri" font-size="7.5" fill="rgb(0,0,0)" text-anchor="middle">3</text>
<polygon points="138.3,335.6 146.3,335.6 146.3,343.6 138.3,343.6" fill="rgb(255,255,0)"/><text xml:space="preserve" x="142.3" y="342.433" font-family="Calibri" font-size="7.5" fill="rgb(0,0,0)" text-anchor="middle">3</text>
<polygon points="146.3,335.6 154.3,335.6 154.3,343.6 146.3,343.6" fill="rgb(255,255,0)"/><text xml:space="preserve" x="150.3" y="342.433" font-family="Calibri" font-size="7.5" fill="rgb(0,0,0)" text-anchor="middle">3</text>
<polygon points="154.3,335.6 162.3,335.6 162.3,343.6 154.3,343.6" fill="rgb(205,0,0)"/><text xml:space="preserve" x="158.3" y="342.433" font-family="Calibri" font-size="7.5" fill="rgb(255,255,255)" text-anchor="middle">5</text>
<polygon points="172.3,335.6 180.3,335.6 180.3,343.6 172.3,343.6" fill="rgb(24,124,140)"/>
<polygon points="180.3,335.6 188.3,335.6 188.3,343.6 180.3,343.6" fill="rgb(18,99,139)"/>
<polygon points="188.3,335.6 196.3,335.6 196.3,343.6 188.3,343.6" fill="rgb(15,88,138)"/>
<polygon points="196.3,335.6 204.3,335.6 204.3,343.6 196.3,343.6" fill="rgb(19,103,139)"/>
<polygon points="204.3,335.6 212.3,335.6 212.3,343.6 204.3,343.6" fill="rgb(39,181,143)"/>
<polygon points="222.3,335.6 230.3,335.6 230.3,343.6 222.3,343.6" fill="rgb(255,255,255)"/>
<polygon points="230.3,335.6 238.3,335.6 238.3,343.6 230.3,343.6" fill="rgb(255,255,255)"/>
<polygon points="238.3,335.6 246.3,335.6 246.3,343.6 238.3,343.6" fill="rgb(255,255,255)"/>
<polygon points="246.3,335.6 254.3,335.6 254.3,343.6 246.3,343.6" fill="rgb(255,255,255)"/>
<polygon points="254.3,335.6 262.3,335.6 262.3,343.6 254.3,343.6" fill="rgb(255,255,255)"/>
<polygon points="262.3,335.6 270.3,335.6 270.3,343.6 262.3,343.6" fill="rgb(255,255,255)"/>
<polygon points="270.3,335.6 278.3,335.6 278.3,343.6 270.3,343.6" fill="rgb(255,255,255)"/>
<polygon points="278.3,335.6 286.3,335.6 286.3,343.6 278.3,343.6" fill="rgb(255,255,255)"/>
<polygon points="122.3,343.6 130.3,343.6 130.3,351.6 122.3,351.6" fill="rgb(255,255,0)"/><text xml:space="preserve" x="126.3" y="350.433" font-family="Calibri" font-size="7.5" fill="rgb(0,0,0)" text-anchor="middle">3</text>
<polygon points="130.3,343.6 138.3,343.6 138.3,351.6 130.3,351.6" fill="rgb(255,255,0)"/><text xml:space="preserve" x="134.3" y="350.433" font-family="Calibri" font-size="7.5" fill="rgb(0,0,0)" text-anchor="middle">3</text>
<polygon points="138.3,343.6 146.3,343.6 146.3,351.6 138.3,351.6" fill="rgb(255,255,0)"/><text xml:space="preserve" x="142.3" y="350.433" font-family="Calibri" font-size="7.5" fill="rgb(0,0,0)" text-anchor="middle">3</text>
<polygon points="146.3,343.6 154.3,343.6 154.3,351.6 146.3,351.6" fill="rgb(255,255,0)"/><text xml:space="preserve" x="150.3" y="350.433" font-family="Calibri" font-size="7.5" fill="rgb(0,0,0)" text-anchor="middle">3</text>
<polygon points="154.3,343.6 162.3,343.6 162.3,351.6 154.3,351.6" fill="rgb(205,0,0)"/><text xml:space="preserve" x="158.3" y="350.433" font-family="Calibri" font-size="7.5" fill="rgb(255,255,255)" text-anchor="middle">5</text>
<polygon points="172.3,343.6 180.3,343.6 180.3,351.6 172.3,351.6" fill="rgb(23,117,140)"/>
<polygon points="180.3,343.6 188.3,343.6 188.3,351.6 180.3,351.6" fill="rgb(19,105,139)"/>
<polygon points="188.3,343.6 196.3,343.6 196.3,351.6 188.3,351.6" fill="rgb(18,99,139)"/>
<polygon points="196.3,343.6 204.3,343.6 204.3,351.6 196.3,351.6" fill="rgb(21,111,139)"/>
<polygon points="204.3,343.6 212.3,343.6 212.3,351.6 204.3,351.6" fill="rgb(45,204,145)"/>
<polygon points="222.3,343.6 230.3,343.6 230.3,351.6 222.3,351.6" fill="rgb(255,255,255)"/>
<polygon points="230.3,343.6 238.3,343.6 238.3,351.6 230.3,351.6" fill="rgb(255,255,255)"/>
<polygon points="238.3,343.6 246.3,343.6 246.3,351.6 238.3,351.6" fill="rgb(255,255,255)"/>
<polygon points="246.3,343.6 254.3,343.6 254.3,351.6 246.3,351.6" fill="rgb(255,255,255)"/>
<polygon points="254.3,343.6 262.3,343.6 262.3,351.6 254.3,351.6" fill="rgb(255,255,255)"/>
<polygon points="262.3,343.6 270.3,343.6 270.3,351.6 262.3,351.6" fill="rgb(255,255,255)"/>
<polygon points="270.3,343.6 278.3,343.6 278.3,351.6 270.3,351.6" fill="rgb(255,255,255)"/>
<polygon points="278.3,343.6 286.3,343.6 286.3,351.6 278.3,351.6" fill="rgb(255,255,255)"/>
<polygon points="122.3,351.6 130.3,351.6 130.3,359.6 122.3,359.6" fill="rgb(255,255,0)"/><text xml:space="preserve" x="126.3" y="358.433" font-family="Calibri" font-size="7.5" fill="rgb(0,0,0)" text-anchor="middle">3</text>
<polygon points="130.3,351.6 138.3,351.6 138.3,359.6 130.3,359.6" fill="rgb(255,255,0)"/><text xml:space="preserve" x="134.3" y="358.433" font-family="Calibri" font-size="7.5" fill="rgb(0,0,0)" text-anchor="middle">3</text>
<polygon points="138.3,351.6 146.3,351.6 146.3,359.6 138.3,359.6" fill="rgb(255,255,0)"/><text xml:space="preserve" x="142.3" y="358.433" font-family="Calibri" font-size="7.5" fill="rgb(0,0,0)" text-anchor="middle">3</text>
<polygon points="146.3,351.6 154.3,351.6 154.3,359.6 146.3,359.6" fill="rgb(255,255,0)"/><text xml:space="preserve" x="150.3" y="358.433" font-family="Calibri" font-size="7.5" fill="rgb(0,0,0)" text-anchor="middle">3</text>
<polygon points="154.3,351.6 162.3,351.6 162.3,359.6 154.3,359.6" fill="rgb(205,0,0)"/><text xml:space="preserve" x="158.3" y="358.433" font-family="Calibri" font-size="7.5" fill="rgb(255,255,255)" text-anchor="middle">5</text>
<polygon points="172.3,351.6 180.3,351.6 180.3,359.6 172.3,359.6" fill="rgb(23,117,140)"/>
<polygon points="180.3,351.6 188.3,351.6 188.3,359.6 180.3,359.6" fill="rgb(20,108,139)"/>
<polygon points="188.3,351.6 196.3,351.6 196.3,359.6 188.3,359.6" fill="rgb(20,107,139)"/>
<polygon points="196.3,351.6 204.3,351.6 204.3,359.6 196.3,359.6" fill="rgb(24,123,140)"/>
<polygon points="204.3,351.6 212.3,351.6 212.3,359.6 204.3,359.6" fill="rgb(153,206,71)"/>
<polygon points="222.3,351.6 230.3,351.6 230.3,359.6 222.3,359.6" fill="rgb(255,255,255)"/>
<polygon points="230.3,351.6 238.3,351.6 238.3,359.6 230.3,359.6" fill="rgb(255,255,255)"/>
<polygon points="238.3,351.6 246.3,351.6 246.3,359.6 238.3,359.6" fill="rgb(255,255,255)"/>
<polygon points="246.3,351.6 254.3,351.6 254.3,359.6 246.3,359.6" fill="rgb(255,255,255)"/>
<polygon points="254.3,351.6 262.3,351.6 262.3,359.6 254.3,359.6" fill="rgb(255,255,255)"/>
<polygon points="262.3,351.6 270.3,351.6 270.3,359.6 262.3,359.6" fill="rgb(255,255,255)"/>
<polygon points="270.3,351.6 278.3,351.6 278.3,359.6 270.3,359.6" fill="rgb(255,255,255)"/>
<polygon points="278.3,351.6 286.3,351.6 286.3,359.6 278.3,359.6" fill="rgb(255,255,255)"/>
<polygon points="122.3,359.6 130.3,359.6 130.3,367.6 122.3,367.6" fill="rgb(255,255,0)"/><text xml:space="preserve" x="126.3" y="366.433" font-family="Calibri" font-size="7.5" fill="rgb(0,0,0)" text-anchor="middle">3</text>
<polygon points="130.3,359.6 138.3,359.6 138.3,367.6 130.3,367.6" fill="rgb(255,255,0)"/><text xml:space="preserve" x="134.3" y="366.433" font-family="Calibri" font-size="7.5" fill="rgb(0,0,0)" text-anchor="middle">3</text>
<polygon points="138.3,359.6 146.3,359.6 146.3,367.6 138.3,367.6" fill="rgb(255,255,0)"/><text xml:space="preserve" x="142.3" y="366.433" font-family="Calibri" font-size="7.5" fill="rgb(0,0,0)" text-anchor="middle">3</text>
<polygon points="146.3,359.6 154.3,359.6 154.3,367.6 146.3,367.6" fill="rgb(255,255,0)"/><text xml:space="preserve" x="150.3" y="366.433" font-family="Calibri" font-size="7.5" fill="rgb(0,0,0)" text-anchor="middle">3</text>
<polygon points="154.3,359.6 162.3,359.6 162.3,367.6 154.3,367.6" fill="rgb(205,0,0)"/><text xml:space="preserve" x="158.3" y="366.433" font-family="Calibri" font-size="7.5" fill="rgb(255,255,255)" text-anchor="middle">5</text>
<polygon points="172.3,359.6 180.3,359.6 180.3,367.6 172.3,367.6" fill="rgb(16,92,138)"/>
<polygon points="180.3,359.6 188.3,359.6 188.3,367.6 180.3,367.6" fill="rgb(12,76,137)"/>
<polygon points="188.3,359.6 196.3,359.6 196.3,367.6 188.3,367.6" fill="rgb(13,78,137)"/>
<polygon points="196.3,359.6 204.3,359.6 204.3,367.6 196.3,367.6" fill="rgb(21,110,139)"/>
<polygon points="204.3,359.6 212.3,359.6 212.3,367.6 204.3,367.6" fill="rgb(38,178,143)"/>
<polygon points="222.3,359.6 230.3,359.6 230.3,367.6 222.3,367.6" fill="rgb(255,255,255)"/>
<polygon points="230.3,359.6 238.3,359.6 238.3,367.6 230.3,367.6" fill="rgb(205,0,205)"/>
<polygon points="238.3,359.6 246.3,359.6 246.3,367.6 238.3,367.6" fill="rgb(255,255,255)"/>
<polygon points="246.3,359.6 254.3,359.6 254.3,367.6 246.3,367.6" fill="rgb(255,255,255)"/>
<polygon points="254.3,359.6 262.3,359.6 262.3,367.6 254.3,367.6" fill="rgb(255,255,255)"/>
<polygon points="262.3,359.6 270.3,359.6 270.3,367.6 262.3,367.6" fill="rgb(255,255,255)"/>
<polygon points="270.3,359.6 278.3,359.6 278.3,367.6 270.3,367.6" fill="rgb(255,255,255)"/>
<polygon points="278.3,359.6 286.3,359.6 286.3,367.6 278.3,367.6" fill="rgb(255,255,255)"/>
<polygon points="122.3,367.6 130.3,367.6 130.3,375.6 122.3,375.6" fill="rgb(255,255,0)"/><text xml:space="preserve" x="126.3" y="374.433" font-family="Calibri" font-size="7.5" fill="rgb(0,0,0)" text-anchor="middle">3</text>
<polygon points="130.3,367.6 138.3,367.6 138.3,375.6 130.3,375.6" fill="rgb(255,255,0)"/><text xml:space="preserve" x="134.3" y="374.433" font-family="Calibri" font-size="7.5" fill="rgb(0,0,0)" text-anchor="middle">3</text>
<polygon points="138.3,367.6 146.3,367.6 146.3,375.6 138.3,375.6" fill="rgb(255,255,0)"/><text xml:space="preserve" x="142.3" y="374.433" font-family="Calibri" font-size="7.5" fill="rgb(0,0,0)" text-anchor="middle">3</text>
<polygon points="146.3,367.6 154.3,367.6 154.3,375.6 146.3,375.6" fill="rgb(255,255,0)"/><text xml:space="preserve" x="150.3" y="374.433" font-family="Calibri" font-size="7.5" fill="rgb(0,0,0)" text-anchor="middle">3</text>
<polygon points="154.3,367.6 162.3,367.6 162.3,375.6 154.3,375.6" fill="rgb(205,0,0)"/><text xml:space="preserve" x="158.3" y="374.433" font-family="Calibri" font-size="7.5" fill="rgb(255,255,255)" text-anchor="middle">5</text>
<polygon points="172.3,367.6 180.3,367.6 180.3,375.6 172.3,375.6" fill="rgb(18,101,139)"/>
<polygon points="180.3,367.6 188.3,367.6 188.3,375.6 180.3,375.6" fill="rgb(15,85,138)"/>
<polygon points="188.3,367.6 196.3,367.6 196.3,375.6 188.3,375.6" fill="rgb(12,76,137)"/>
<polygon points="196.3,367.6 204.3,367.6 204.3,375.6 196.3,375.6" fill="rgb(15,87,138)"/>
<polygon points="204.3,367.6 212.3,367.6 212.3,375.6 204.3,375.6" fill="rgb(165,204,62)"/>
<polygon points="222.3,367.6 230.3,367.6 230.3,375.6 222.3,375.6" fill="rgb(255,255,255)"/>
<polygon points="230.3,367.6 238.3,367.6 238.3,375.6 230.3,375.6" fill="rgb(255,255,255)"/>
<polygon points="238.3,367.6 246.3,367.6 246.3,375.6 238.3,375.6" fill="rgb(255,255,255)"/>
<polygon points="246.3,367.6 254.3,367.6 254.3,375.6 246.3,375.6" fill="rgb(255,255,255)"/>
<polygon points="254.3,367.6 262.3,367.6 262.3,375.6 254.3,375.6" fill="rgb(255,255,255)"/>
<polygon points="262.3,367.6 270.3,367.6 270.3,375.6 262.3,375.6" fill="rgb(255,255,255)"/>
<polygon points="270.3,367.6 278.3,367.6 278.3,375.6 270.3,375.6" fill="rgb(255,255,255)"/>
<polygon points="278.3,367.6 286.3,367.6 286.3,375.6 278.3,375.6" fill="rgb(255,255,255)"/>
<polygon points="122.3,375.6 130.3,375.6 130.3,383.6 122.3,383.6" fill="rgb(255,255,0)"/><text xml:space="preserve" x="126.3" y="382.433" font-family="Calibri" font-size="7.5" fill="rgb(0,0,0)" text-anchor="middle">3</text>
<polygon points="130.3,375.6 138.3,375.6 138.3,383.6 130.3,383.6" fill="rgb(255,255,0)"/><text xml:space="preserve" x="134.3" y="382.433" font-family="Calibri" font-size="7.5" fill="rgb(0,0,0)" text-anchor="middle">3</text>
<polygon points="138.3,375.6 146.3,375.6 146.3,383.6 138.3,383.6" fill="rgb(255,255,0)"/><text xml:space="preserve" x="142.3" y="382.433" font-family="Calibri" font-size="7.5" fill="rgb(0,0,0)" text-anchor="middle">3</text>
<polygon points="146.3,375.6 154.3,375.6 154.3,383.6 146.3,383.6" fill="rgb(255,255,0)"/><text xml:space="preserve" x="150.3" y="382.433" font-family="Calibri" font-size="7.5" fill="rgb(0,0,0)" text-anchor="middle">3</text>
<polygon points="154.3,375.6 162.3,375.6 162.3,383.6 154.3,383.6" fill="rgb(205,0,0)"/><text xml:space="preserve" x="158.3" y="382.433" font-family="Calibri" font-size="7.5" fill="rgb(255,255,255)" text-anchor="middle">5</text>
<polygon points="172.3,375.6 180.3,375.6 180.3,383.6 172.3,383.6" fill="rgb(20,107,139)"/>
<polygon points="180.3,375.6 188.3,375.6 188.3,383.6 180.3,383.6" fill="rgb(20,106,139)"/>
<polygon points="188.3,375.6 196.3,375.6 196.3,383.6 188.3,383.6" fill="rgb(16,91,138)"/>
<polygon points="196.3,375.6 204.3,375.6 204.3,383.6 196.3,383.6" fill="rgb(21,111,139)"/>
<polygon points="204.3,375.6 212.3,375.6 212.3,383.6 204.3,383.6" fill="rgb(134,208,85)"/>
<polygon points="222.3,375.6 230.3,375.6 230.3,383.6 222.3,383.6" fill="rgb(255,255,255)"/>
<polygon points="230.3,375.6 238.3,375.6 238.3,383.6 230.3,383.6" fill="rgb(255,255,255)"/>
<polygon points="238.3,375.6 246.3,375.6 246.3,383.6 238.3,383.6" fill="rgb(255,255,255)"/>
<polygon points="246.3,375.6 254.3,375.6 254.3,383.6 246.3,383.6" fill="rgb(255,255,255)"/>
<polygon points="254.3,375.6 262.3,375.6 262.3,383.6 254.3,383.6" fill="rgb(255,255,255)"/>
<polygon points="262.3,375.6 270.3,375.6 270.3,383.6 262.3,383.6" fill="rgb(255,255,255)"/>
<polygon points="270.3,375.6 278.3,375.6 278.3,383.6 270.3,383.6" fill="rgb(255,255,255)"/>
<polygon points="278.3,375.6 286.3,375.6 286.3,383.6 278.3,383.6" fill="rgb(255,255,255)"/>
<polygon points="122.3,383.6 130.3,383.6 130.3,391.6 122.3,391.6" fill="rgb(255,255,0)"/><text xml:space="preserve" x="126.3" y="390.433" font-family="Calibri" font-size="7.5" fill="rgb(0,0,0)" text-anchor="middle">3</text>
<polygon points="130.3,383.6 138.3,383.6 138.3,391.6 130.3,391.6" fill="rgb(255,255,0)"/><text xml:space="preserve" x="134.3" y="390.433" font-family="Calibri" font-size="7.5" fill="rgb(0,0,0)" text-anchor="middle">3</text>
<polygon points="138.3,383.6 146.3,383.6 146.3,391.6 138.3,391.6" fill="rgb(255,255,0)"/><text xml:space="preserve" x="142.3" y="390.433" font-family="Calibri" font-size="7.5" fill="rgb(0,0,0)" text-anchor="middle">3</text>
<polygon points="146.3,383.6 154.3,383.6 154.3,391.6 146.3,391.6" fill="rgb(255,255,0)"/><text xml:space="preserve" x="150.3" y="390.433" font-family="Calibri" font-size="7.5" fill="rgb(0,0,0)" text-anchor="middle">3</text>
<polygon points="154.3,383.6 162.3,383.6 162.3,391.6 154.3,391.6" fill="rgb(205,0,0)"/><text xml:space="preserve" x="158.3" y="390.433" font-family="Calibri" font-size="7.5" fill="rgb(255,255,255)" text-anchor="middle">5</text>
<polygon points="172.3,383.6 180.3,383.6 180.3,391.6 172.3,391.6" fill="rgb(23,119,140)"/>
<polygon points="180.3,383.6 188.3,383.6 188.3,391.6 180.3,391.6" fill="rgb(17,97,139)"/>
<polygon points="188.3,383.6 196.3,383.6 196.3,391.6 188.3,391.6" fill="rgb(15,88,138)"/>
<polygon points="196.3,383.6 204.3,383.6 204.3,391.6 196.3,391.6" fill="rgb(20,107,139)"/>
<polygon points="204.3,383.6 212.3,383.6 212.3,391.6 204.3,391.6" fill="rgb(39,180,143)"/>
<polygon points="222.3,383.6 230.3,383.6 230.3,391.6 222.3,391.6" fill="rgb(255,255,255)"/>
<polygon points="230.3,383.6 238.3,383.6 238.3,391.6 230.3,391.6" fill="rgb(255,255,255)"/>
<polygon points="238.3,383.6 246.3,383.6 246.3,391.6 238.3,391.6" fill="rgb(255,255,255)"/>
<polygon points="246.3,383.6 254.3,383.6 254.3,391.6 246.3,391.6" fill="rgb(255,255,255)"/>
<polygon points="254.3,383.6 262.3,383.6 262.3,391.6 254.3,391.6" fill="rgb(255,255,255)"/>
<polygon points="262.3,383.6 270.3,383.6 270.3,391.6 262.3,391.6" fill="rgb(255,255,255)"/>
<polygon points="270.3,383.6 278.3,383.6 278.3,391.6 270.3,391.6" fill="rgb(255,255,255)"/>
<polygon points="278.3,383.6 286.3,383.6 286.3,391.6 278.3,391.6" fill="rgb(255,255,255)"/>
<polygon points="122.3,391.6 130.3,391.6 130.3,399.6 122.3,399.6" fill="rgb(255,255,0)"/><text xml:space="preserve" x="126.3" y="398.433" font-family="Calibri" font-size="7.5" fill="rgb(0,0,0)" text-anchor="middle">3</text>
<polygon points="130.3,391.6 138.3,391.6 138.3,399.6 130.3,399.6" fill="rgb(255,255,0)"/><text xml:space="preserve" x="134.3" y="398.433" font-family="Calibri" font-size="7.5" fill="rgb(0,0,0)" text-anchor="middle">3</text>
<polygon points="138.3,391.6 146.3,391.6 146.3,399.6 138.3,399.6" fill="rgb(255,255,0)"/><text xml:space="preserve" x="142.3" y="398.433" font-family="Calibri" font-size="7.5" fill="rgb(0,0,0)" text-anchor="middle">3</text>
<polygon points="146.3,391.6 154.3,391.6 154.3,399.6 146.3,399.6" fill="rgb(255,255,0)"/><text xml:space="preserve" x="150.3" y="398.433" font-family="Calibri" font-size="7.5" fill="rgb(0,0,0)" text-anchor="middle">3</text>
<polygon points="154.3,391.6 162.3,391.6 162.3,399.6 154.3,399.6" fill="rgb(205,0,0)"/><text xml:space="preserve" x="158.3" y="398.433" font-family="Calibri" font-size="7.5" fill="rgb(255,255,255)" text-anchor="middle">5</text>
<polygon points="172.3,391.6 180.3,391.6 180.3,399.6 172.3,399.6" fill="rgb(21,112,139)"/>
<polygon points="180.3,391.6 188.3,391.6 188.3,399.6 180.3,399.6" fill="rgb(17,96,138)"/>
<polygon points="188.3,391.6 196.3,391.6 196.3,399.6 188.3,399.6" fill="rgb(16,89,138)"/>
<polygon points="196.3,391.6 204.3,391.6 204.3,399.6 196.3,399.6" fill="rgb(15,88,138)"/>
<polygon points="204.3,391.6 212.3,391.6 212.3,399.6 204.3,399.6" fill="rgb(41,190,144)"/>
<polygon points="222.3,391.6 230.3,391.6 230.3,399.6 222.3,399.6" fill="rgb(255,255,255)"/>
<polygon points="230.3,391.6 238.3,391.6 238.3,399.6 230.3,399.6" fill="rgb(255,255,255)"/>
<polygon points="238.3,391.6 246.3,391.6 246.3,399.6 238.3,399.6" fill="rgb(255,255,255)"/>
<polygon points="246.3,391.6 254.3,391.6 254.3,399.6 246.3,399.6" fill="rgb(255,255,255)"/>
<polygon points="254.3,391.6 262.3,391.6 262.3,399.6 254.3,399.6" fill="rgb(255,255,255)"/>
<polygon points="262.3,391.6 270.3,391.6 270.3,399.6 262.3,399.6" fill="rgb(255,255,255)"/>
<polygon points="270.3,391.6 278.3,391.6 278.3,399.6 270.3,399.6" fill="rgb(255,255,255)"/>
<polygon points="278.3,391.6 286.3,391.6 286.3,399.6 278.3,399.6" fill="rgb(255,255,255)"/>
<polygon points="122.3,399.6 130.3,399.6 130.3,407.6 122.3,407.6" fill="rgb(255,255,0)"/><text xml:space="preserve" x="126.3" y="406.433" font-family="Calibri" font-size="7.5" fill="rgb(0,0,0)" text-anchor="middle">3</text>
<polygon points="130.3,399.6 138.3,399.6 138.3,407.6 130.3,407.6" fill="rgb(255,255,0)"/><text xml:space="preserve" x="134.3" y="406.433" font-family="Calibri" font-size="7.5" fill="rgb(0,0,0)" text-anchor="middle">3</text>
<polygon points="138.3,399.6 146.3,399.6 146.3,407.6 138.3,407.6" fill="rgb(255,255,0)"/><text xml:space="preserve" x="142.3" y="406.433" font-family="Calibri" font-size="7.5" fill="rgb(0,0,0)" text-anchor="middle">3</text>
<polygon points="146.3,399.6 154.3,399.6 154.3,407.6 146.3,407.6" fill="rgb(255,255,0)"/><text xml:space="preserve" x="150.3" y="406.433" font-family="Calibri" font-size="7.5" fill="rgb(0,0,0)" text-anchor="middle">3</text>
<polygon points="154.3,399.6 162.3,399.6 162.3,407.6 154.3,407.6" fill="rgb(205,0,0)"/><text xml:space="preserve" x="158.3" y="406.433" font-family="Calibri" font-size="7.5" fill="rgb(255,255,255)" text-anchor="middle">5</text>
<polygon points="172.3,399.6 180.3,399.6 180.3,407.6 172.3,407.6" fill="rgb(21,110,139)"/>
<polygon points="180.3,399.6 188.3,399.6 188.3,407.6 180.3,407.6" fill="rgb(16,92,138)"/>
<polygon points="188.3,399.6 196.3,399.6 196.3,407.6 188.3,407.6" fill="rgb(16,91,138)"/>
<polygon points="196.3,399.6 204.3,399.6 204.3,407.6 196.3,407.6" fill="rgb(24,124,140)"/>
<polygon points="204.3,399.6 212.3,399.6 212.3,407.6 204.3,407.6" fill="rgb(197,200,39)"/>
<polygon points="222.3,399.6 230.3,399.6 230.3,407.6 222.3,407.6" fill="rgb(255,255,255)"/>
<polygon points="230.3,399.6 238.3,399.6 238.3,407.6 230.3,407.6" fill="rgb(255,255,255)"/>
<polygon points="238.3,399.6 246.3,399.6 246.3,407.6 238.3,407.6" fill="rgb(255,255,255)"/>
<polygon points="246.3,399.6 254.3,399.6 254.3,407.6 246.3,407.6" fill="rgb(255,255,255)"/>
<polygon points="254.3,399.6 262.3,399.6 262.3,407.6 254.3,407.6" fill="rgb(255,255,255)"/>
<polygon points="262.3,399.6 270.3,399.6 270.3,407.6 262.3,407.6" fill="rgb(255,255,255)"/>
<polygon points="270.3,399.6 278.3,399.6 278.3,407.6 270.3,407.6" fill="rgb(255,255,255)"/>
<polygon points="278.3,399.6 286.3,399.6 286.3,407.6 278.3,407.6" fill="rgb(255,255,255)"/>
<polygon points="122.3,407.6 130.3,407.6 130.3,415.6 122.3,415.6" fill="rgb(255,255,0)"/><text xml:space="preserve" x="126.3" y="414.433" font-family="Calibri" font-size="7.5" fill="rgb(0,0,0)" text-anchor="middle">3</text>
<polygon points="130.3,407.6 138.3,407.6 138.3,415.6 130.3,415.6" fill="rgb(255,255,0)"/><text xml:space="preserve" x="134.3" y="414.433" font-family="Calibri" font-size="7.5" fill="rgb(0,0,0)" text-anchor="middle">3</text>
<polygon points="138.3,407.6 146.3,407.6 146.3,415.6 138.3,415.6" fill="rgb(255,255,0)"/><text xml:space="preserve" x="142.3" y="414.433" font-family="Calibri" font-size="7.5" fill="rgb(0,0,0)" text-anchor="middle">3</text>
<polygon points="146.3,407.6 154.3,407.6 154.3,415.6 146.3,415.6" fill="rgb(255,255,0)"/><text xml:space="preserve" x="150.3" y="414.433" font-family="Calibri" font-size="7.5" fill="rgb(0,0,0)" text-anchor="middle">3</text>
<polygon points="154.3,407.6 162.3,407.6 162.3,415.6 154.3,415.6" fill="rgb(205,0,0)"/><text xml:space="preserve" x="158.3" y="414.433" font-family="Calibri" font-size="7.5" fill="rgb(255,255,255)" text-anchor="middle">5</text>
<polygon points="172.3,407.6 180.3,407.6 180.3,415.6 172.3,415.6" fill="rgb(22,115,140)"/>
<polygon points="180.3,407.6 188.3,407.6 188.3,415.6 180.3,415.6" fill="rgb(21,110,139)"/>
<polygon points="188.3,407.6 196.3,407.6 196.3,415.6 188.3,415.6" fill="rgb(19,103,139)"/>
<polygon points="196.3,407.6 204.3,407.6 204.3,415.6 196.3,415.6" fill="rgb(17,96,138)"/>
<polygon points="204.3,407.6 212.3,407.6 212.3,415.6 204.3,415.6" fill="rgb(40,184,144)"/>
<polygon points="222.3,407.6 230.3,407.6 230.3,415.6 222.3,415.6" fill="rgb(255,255,255)"/>
<polygon points="230.3,407.6 238.3,407.6 238.3,415.6 230.3,415.6" fill="rgb(255,255,255)"/>
<polygon points="238.3,407.6 246.3,407.6 246.3,415.6 238.3,415.6" fill="rgb(255,255,255)"/>
<polygon points="246.3,407.6 254.3,407.6 254.3,415.6 246.3,415.6" fill="rgb(255,255,255)"/>
<polygon points="254.3,407.6 262.3,407.6 262.3,415.6 254.3,415.6" fill="rgb(255,255,255)"/>
<polygon points="262.3,407.6 270.3,407.6 270.3,415.6 262.3,415.6" fill="rgb(255,255,255)"/>
<polygon points="270.3,407.6 278.3,407.6 278.3,415.6 270.3,415.6" fill="rgb(255,255,255)"/>
<polygon points="278.3,407.6 286.3,407.6 286.3,415.6 278.3,415.6" fill="rgb(255,255,255)"/>
<polygon points="122.3,335.6 162.3,335.6 162.3,415.6 122.3,415.6" fill="none" stroke="black" stroke-width="1"/>
<polygon points="172.3,335.6 212.3,335.6 212.3,415.6 172.3,415.6" fill="none" stroke="black" stroke-width="1"/>
<polygon points="222.3,335.6 286.3,335.6 286.3,415.6 222.3,415.6" fill="none" stroke="black" stroke-width="1"/>
<text xml:space="preserve" x="153.15" y="448.6" font-family="Calibri" font-size="8" text-anchor="middle">ClusterAssignment</text>
<polygon points="103.15,455.6 123.15,455.6 123.15,475.6 103.15,475.6" fill="rgb(0,205,0)"/><polygon points="103.15,455.6 123.15,455.6 123.15,475.6 103.15,475.6" fill="none" stroke="black" stroke-width="1"/><text xml:space="preserve" x="113.15" y="468.433" font-family="Calibri" font-size="7.5" fill="rgb(255,255,255)" text-anchor="middle">1.0</text>
<polygon points="123.15,455.6 143.15,455.6 143.15,475.6 123.15,475.6" fill="rgb(127,230,0)"/><polygon points="123.15,455.6 143.15,455.6 143.15,475.6 123.15,475.6" fill="none" stroke="black" stroke-width="1"/><text xml:space="preserve" x="133.15" y="468.433" font-family="Calibri" font-size="7.5" fill="rgb(0,0,0)" text-anchor="middle">2.0</text>
<polygon points="143.15,455.6 163.15,455.6 163.15,475.6 143.15,475.6" fill="rgb(255,255,0)"/><polygon points="143.15,455.6 163.15,455.6 163.15,475.6 143.15,475.6" fill="none" stroke="black" stroke-width="1"/><text xml:space="preserve" x="153.15" y="468.433" font-family="Calibri" font-size="7.5" fill="rgb(0,0,0)" text-anchor="middle">3.0</text>
<polygon points="163.15,455.6 183.15,455.6 183.15,475.6 163.15,475.6" fill="rgb(230,127,0)"/><polygon points="163.15,455.6 183.15,455.6 183.15,475.6 163.15,475.6" fill="none" stroke="black" stroke-width="1"/><text xml:space="preserve" x="173.15" y="468.433" font-family="Calibri" font-size="7.5" fill="rgb(0,0,0)" text-anchor="middle">4.0</text>
<polygon points="183.15,455.6 203.15,455.6 203.15,475.6 183.15,475.6" fill="rgb(205,0,0)"/><polygon points="183.15,455.6 203.15,455.6 203.15,475.6 183.15,475.6" fill="none" stroke="black" stroke-width="1"/><text xml:space="preserve" x="193.15" y="468.433" font-family="Calibri" font-size="7.5" fill="rgb(255,255,255)" text-anchor="middle">5.0</text>
<text xml:space="preserve" x="153.15" y="508.6" font-family="Calibri" font-size="8" text-anchor="middle">Expression</text>
<polygon points="103.15,515.6 123.15,515.6 123.15,535.6 103.15,535.6" fill="rgb(0,27,135)"/><polygon points="103.15,515.6 123.15,515.6 123.15,535.6 103.15,535.6" fill="none" stroke="black" stroke-width="1"/><text xml:space="preserve" x="113.15" y="528.433" font-family="Calibri" font-size="7.5" fill="rgb(255,255,255)" text-anchor="middle">0.0</text>
<polygon points="123.15,515.6 143.15,515.6 143.15,535.6 123.15,535.6" fill="rgb(24,123,140)"/><polygon points="123.15,515.6 143.15,515.6 143.15,535.6 123.15,535.6" fill="none" stroke="black" stroke-width="1"/><text xml:space="preserve" x="133.15" y="528.433" font-family="Calibri" font-size="7.5" fill="rgb(255,255,255)" text-anchor="middle">0.8</text>
<polygon points="143.15,515.6 163.15,515.6 163.15,535.6 143.15,535.6" fill="rgb(49,219,146)"/><polygon points="143.15,515.6 163.15,515.6 163.15,535.6 143.15,535.6" fill="none" stroke="black" stroke-width="1"/><text xml:space="preserve" x="153.15" y="528.433" font-family="Calibri" font-size="7.5" fill="rgb(0,0,0)" text-anchor="middle">1.5</text>
<polygon points="163.15,515.6 183.15,515.6 183.15,535.6 163.15,535.6" fill="rgb(150,206,73)"/><polygon points="163.15,515.6 183.15,515.6 183.15,535.6 163.15,535.6" fill="none" stroke="black" stroke-width="1"/><text xml:space="preserve" x="173.15" y="528.433" font-family="Calibri" font-size="7.5" fill="rgb(0,0,0)" text-anchor="middle">2.2</text>
<polygon points="183.15,515.6 203.15,515.6 203.15,535.6 183.15,535.6" fill="rgb(252,194,1)"/><polygon points="183.15,515.6 203.15,515.6 203.15,535.6 183.15,535.6" fill="none" stroke="black" stroke-width="1"/><text xml:space="preserve" x="193.15" y="528.433" font-family="Calibri" font-size="7.5" fill="rgb(0,0,0)" text-anchor="middle">3.0</text>
<text xml:space="preserve" x="153.15" y="568.6" font-family="Calibri" font-size="8" text-anchor="middle">PANTHERclass</text>
<polygon points="103.15,575.6 123.15,575.6 123.15,595.6 103.15,595.6" fill="rgb(255,255,255)"/><polygon points="103.15,575.6 123.15,575.6 123.15,595.6 103.15,595.6" fill="none" stroke="black" stroke-width="1"/><text xml:space="preserve" x="113.15" y="588.433" font-family="Calibri" font-size="7.5" fill="rgb(0,0,0)" text-anchor="middle">0.0</text>
<polygon points="123.15,575.6 143.15,575.6 143.15,595.6 123.15,595.6" fill="rgb(242,191,242)"/><polygon points="123.15,575.6 143.15,575.6 143.15,595.6 123.15,595.6" fill="none" stroke="black" stroke-width="1"/><text xml:space="preserve" x="133.15" y="588.433" font-family="Calibri" font-size="7.5" fill="rgb(0,0,0)" text-anchor="middle">0.2</text>
<polygon points="143.15,575.6 163.15,575.6 163.15,595.6 143.15,595.6" fill="rgb(230,127,230)"/><polygon points="143.15,575.6 163.15,575.6 163.15,595.6 143.15,595.6" fill="none" stroke="black" stroke-width="1"/><text xml:space="preserve" x="153.15" y="588.433" font-family="Calibri" font-size="7.5" fill="rgb(0,0,0)" text-anchor="middle">0.5</text>
<polygon points="163.15,575.6 183.15,575.6 183.15,595.6 163.15,595.6" fill="rgb(217,63,217)"/><polygon points="163.15,575.6 183.15,575.6 183.15,595.6 163.15,595.6" fill="none" stroke="black" stroke-width="1"/><text xml:space="preserve" x="173.15" y="588.433" font-family="Calibri" font-size="7.5" fill="rgb(255,255,255)" text-anchor="middle">0.8</text>
<polygon points="183.15,575.6 203.15,575.6 203.15,595.6 183.15,595.6" fill="rgb(205,0,205)"/><polygon points="183.15,575.6 203.15,575.6 203.15,595.6 183.15,595.6" fill="none" stroke="black" stroke-width="1"/><text xml:space="preserve" x="193.15" y="588.433" font-family="Calibri" font-size="7.5" fill="rgb(255,255,255)" text-anchor="middle">1.0</text>
</svg>
