<?xml version="1.0" standalone="no"?><!DOCTYPE svg PUBLIC "-//W3C//DTD SVG 1.1//EN" "http://www.w3.org/Graphics/SVG/1.1/DTD/svg11.dtd">
<svg width="278.4" height="567.6" version="1.1" xmlns="http://www.w3.org/2000/svg">
<text xml:space="preserve" x="90.4" y="342.6" font-family="Calibri" font-size="8" text-anchor="end">ANK3</text>
<text xml:space="preserve" x="90.4" y="350.6" font-family="Calibri" font-size="8" text-anchor="end">MRPL54</text>
<text xml:space="preserve" x="90.4" y="358.6" font-family="Calibri" font-size="8" text-anchor="end">PTPN1</text>
<text xml:space="preserve" x="90.4" y="366.6" font-family="Calibri" font-size="8" text-anchor="end">B3GAT2</text>
<text xml:space="preserve" x="101.4" y="331.6" font-family="Calibri" font-size="8" transform="rotate(270 101.4 331.6)">c1</text>
<text xml:space="preserve" x="109.4" y="331.6" font-family="Calibri" font-size="8" transform="rotate(270 109.4 331.6)">c3</text>
<text xml:space="preserve" x="117.4" y="331.6" font-family="Calibri" font-size="8" transform="rotate(270 117.4 331.6)">c5</text>
<text xml:space="preserve" x="125.4" y="331.6" font-family="Calibri" font-size="8" transform="rotate(270 125.4 331.6)">c4</text>
<text xml:space="preserve" x="133.4" y="331.6" font-family="Calibri" font-size="8" transform="rotate(270 133.4 331.6)">c2</text>
<text xml:space="preserve" x="151.4" y="331.6" font-family="Calibri" font-size="8" transform="rotate(270 151.4 331.6)">c1_mean</text>
<text xml:space="preserve" x="159.4" y="331.6" font-family="Calibri" font-size="8" transform="rotate(270 159.4 331.6)">c3_mean</text>
<text xml:space="preserve" x="167.4" y="331.6" font-family="Calibri" font-size="8" transform="rotate(270 167.4 331.6)">c5_mean</text>
<text xml:space="preserve" x="175.4" y="331.6" font-family="Calibri" font-size="8" transform="rotate(270 175.4 331.6)">c4_mean</text>
<text xml:space="preserve" x="183.4" y="331.6" font-family="Calibri" font-size="8" transform="rotate(270 183.4 331.6)">c2_mean</text>
<text xml:space="preserve" x="201.4" y="331.6" font-family="Calibri" font-size="8" transform="rotate(270 201.4 331.6)">transcription_factor</text>
<text xml:space="preserve" x="209.4" y="331.6" font-family="Calibri" font-size="8" transform="rotate(270 209.4 331.6)">transmembrane_signal_receptor</text>
<text xml:space="preserve" x="217.4" y="331.6" font-family="Calibri" font-size="8" transform="rotate(270 217.4 331.6)">growth_factor</text>
<text xml:space="preserve" x="225.4" y="331.6" font-family="Calibri" font-size="8" transform="rotate(270 225.4 331.6)">peptide_hormone</text>
<text xml:space="preserve" x="233.4" y="331.6" font-family="Calibri" font-size="8" transform="rotate(270 233.4 331.6)">cytoskeletal_protein</text>
<text xml:space="preserve" x="241.4" y="331.6" font-family="Calibri" font-size="8" transform="rotate(270 241.4 331.6)">ion_channel</text>
<text xml:space="preserve" x="249.4" y="331.6" font-family="Calibri" font-size="8" transform="rotate(270 249.4 331.6)">integrin</text>
<text xml:space="preserve" x="257.4" y="331.6" font-family="Calibri" font-size="8" transform="rotate(270 257.4 331.6)">extracellular_matrix_protein</text>
<polygon points="94.4,335.6 102.4,335.6 102.4,343.6 94.4,343.6" fill="rgb(255,255,0)"/><text xml:space="preserve" x="98.4" y="342.433" font-family="Calibri" font-size="7.5" fill="rgb(0,0,0)" text-anchor="middle">3</text>
<polygon points="102.4,335.6 110.4,335.6 110.4,343.6 102.4,343.6" fill="rgb(230,127,0)"/><text xml:space="preserve" x="106.4" y="342.433" font-family="Calibri" font-size="7.5" fill="rgb(0,0,0)" text-anchor="middle">4</text>
<polygon points="110.4,335.6 118.4,335.6 118.4,343.6 110.4,343.6" fill="rgb(230,127,0)"/><text xml:space="preserve" x="114.4" y="342.433" font-family="Calibri" font-size="7.5" fill="rgb(0,0,0)" text-anchor="middle">4</text>
<polygon points="118.4,335.6 126.4,335.6 126.4,343.6 118.4,343.6" fill="rgb(230,127,0)"/><text xml:space="preserve" x="122.4" y="342.433" font-family="Calibri" font-size="7.5" fill="rgb(0,0,0)" text-anchor="middle">4</text>
<polygon points="126.4,335.6 134.4,335.6 134.4,343.6 126.4,343.6" fill="rgb(230,127,0)"/><text xml:space="preserve" x="130.4" y="342.433" font-family="Calibri" font-size="7.5" fill="rgb(0,0,0)" text-anchor="middle">4</text>
<polygon points="144.4,335.6 152.4,335.6 152.4,343.6 144.4,343.6" fill="rgb(20,107,139)"/>
<polygon points="152.4,335.6 160.4,335.6 160.4,343.6 152.4,343.6" fill="rgb(23,117,140)"/>
<polygon points="160.4,335.6 168.4,335.6 168.4,343.6 160.4,343.6" fill="rgb(25,126,140)"/>
<polygon points="168.4,335.6 176.4,335.6 176.4,343.6 168.4,343.6" fill="rgb(25,128,140)"/>
<polygon points="176.4,335.6 184.4,335.6 184.4,343.6 176.4,343.6" fill="rgb(15,87,138)"/>
<polygon points="194.4,335.6 202.4,335.6 202.4,343.6 194.4,343.6" fill="rgb(255,255,255)"/>
<polygon points="202.4,335.6 210.4,335.6 210.4,343.6 202.4,343.6" fill="rgb(255,255,255)"/>
<polygon points="210.4,335.6 218.4,335.6 218.4,343.6 210.4,343.6" fill="rgb(255,255,255)"/>
<polygon points="218.4,335.6 226.4,335.6 226.4,343.6 218.4,343.6" fill="rgb(255,255,255)"/>
<polygon points="226.4,335.6 234.4,335.6 234.4,343.6 226.4,343.6" fill="rgb(205,0,205)"/>
<polygon points="234.4,335.6 242.4,335.6 242.4,343.6 234.4,343.6" fill="rgb(255,255,255)"/>
<polygon points="242.4,335.6 250.4,335.6 250.4,343.6 242.4,343.6" fill="rgb(255,255,255)"/>
<polygon points="250.4,335.6 258.4,335.6 258.4,343.6 250.4,343.6" fill="rgb(255,255,255)"/>
<polygon points="94.4,343.6 102.4,343.6 102.4,351.6 94.4,351.6" fill="rgb(255,255,0)"/><text xml:space="preserve" x="98.4" y="350.433" font-family="Calibri" font-size="7.5" fill="rgb(0,0,0)" text-anchor="middle">3</text>
<polygon points="102.4,343.6 110.4,343.6 110.4,351.6 102.4,351.6" fill="rgb(230,127,0)"/><text xml:space="preserve" x="106.4" y="350.433" font-family="Calibri" font-size="7.5" fill="rgb(0,0,0)" text-anchor="middle">4</text>
<polygon points="110.4,343.6 118.4,343.6 118.4,351.6 110.4,351.6" fill="rgb(230,127,0)"/><text xml:space="preserve" x="114.4" y="350.433" font-family="Calibri" font-size="7.5" fill="rgb(0,0,0)" text-anchor="middle">4</text>
<polygon points="118.4,343.6 126.4,343.6 126.4,351.6 118.4,351.6" fill="rgb(230,127,0)"/><text xml:space="preserve" x="122.4" y="350.433" font-family="Calibri" font-size="7.5" fill="rgb(0,0,0)" text-anchor="middle">4</text>
<polygon points="126.4,343.6 134.4,343.6 134.4,351.6 126.4,351.6" fill="rgb(230,127,0)"/><text xml:space="preserve" x="130.4" y="350.433" font-family="Calibri" font-size="7.5" fill="rgb(0,0,0)" text-anchor="middle">4</text>
<polygon points="144.4,343.6 152.4,343.6 152.4,351.6 144.4,351.6" fill="rgb(18,101,139)"/>
<polygon points="152.4,343.6 160.4,343.6 160.4,351.6 152.4,351.6" fill="rgb(23,119,140)"/>
<polygon points="160.4,343.6 168.4,343.6 168.4,351.6 160.4,351.6" fill="rgb(24,123,140)"/>
<polygon points="168.4,343.6 176.4,343.6 176.4,351.6 168.4,351.6" fill="rgb(27,133,141)"/>
<polygon points="176.4,343.6 184.4,343.6 184.4,351.6 176.4,351.6" fill="rgb(17,97,139)"/>
<polygon points="194.4,343.6 202.4,343.6 202.4,351.6 194.4,351.6" fill="rgb(255,255,255)"/>
<polygon points="202.4,343.6 210.4,343.6 210.4,351.6 202.4,351.6" fill="rgb(255,255,255)"/>
<polygon points="210.4,343.6 218.4,343.6 218.4,351.6 210.4,351.6" fill="rgb(255,255,255)"/>
<polygon points="218.4,343.6 226.4,343.6 226.4,351.6 218.4,351.6" fill="rgb(255,255,255)"/>
<polygon points="226.4,343.6 234.4,343.6 234.4,351.6 226.4,351.6" fill="rgb(255,255,255)"/>
<polygon points="234.4,343.6 242.4,343.6 242.4,351.6 234.4,351.6" fill="rgb(255,255,255)"/>
<polygon points="242.4,343.6 250.4,343.6 250.4,351.6 242.4,351.6" fill="rgb(255,255,255)"/>
<polygon points="250.4,343.6 258.4,343.6 258.4,351.6 250.4,351.6" fill="rgb(255,255,255)"/>
<polygon points="94.4,351.6 102.4,351.6 102.4,359.6 94.4,359.6" fill="rgb(255,255,0)"/><text xml:space="preserve" x="98.4" y="358.433" font-family="Calibri" font-size="7.5" fill="rgb(0,0,0)" text-anchor="middle">3</text>
<polygon points="102.4,351.6 110.4,351.6 110.4,359.6 102.4,359.6" fill="rgb(230,127,0)"/><text xml:space="preserve" x="106.4" y="358.433" font-family="Calibri" font-size="7.5" fill="rgb(0,0,0)" text-anchor="middle">4</text>
<polygon points="110.4,351.6 118.4,351.6 118.4,359.6 110.4,359.6" fill="rgb(230,127,0)"/><text xml:space="preserve" x="114.4" y="358.433" font-family="Calibri" font-size="7.5" fill="rgb(0,0,0)" text-anchor="middle">4</text>
<polygon points="118.4,351.6 126.4,351.6 126.4,359.6 118.4,359.6" fill="rgb(230,127,0)"/><text xml:space="preserve" x="122.4" y="358.433" font-family="Calibri" font-size="7.5" fill="rgb(0,0,0)" text-anchor="middle">4</text>
<polygon points="126.4,351.6 134.4,351.6 134.4,359.6 126.4,359.6" fill="rgb(230,127,0)"/><text xml:space="preserve" x="130.4" y="358.433" font-family="Calibri" font-size="7.5" fill="rgb(0,0,0)" text-anchor="middle">4</text>
<polygon points="144.4,351.6 152.4,351.6 152.4,359.6 144.4,359.6" fill="rgb(19,105,139)"/>
<polygon points="152.4,351.6 160.4,351.6 160.4,359.6 152.4,359.6" fill="rgb(23,117,140)"/>
<polygon points="160.4,351.6 168.4,351.6 168.4,359.6 160.4,359.6" fill="rgb(24,123,140)"/>
<polygon points="168.4,351.6 176.4,351.6 176.4,359.6 168.4,359.6" fill="rgb(26,129,140)"/>
<polygon points="176.4,351.6 184.4,351.6 184.4,359.6 176.4,359.6" fill="rgb(17,97,139)"/>
<polygon points="194.4,351.6 202.4,351.6 202.4,359.6 194.4,359.6" fill="rgb(255,255,255)"/>
<polygon points="202.4,351.6 210.4,351.6 210.4,359.6 202.4,359.6" fill="rgb(255,255,255)"/>
<polygon points="210.4,351.6 218.4,351.6 218.4,359.6 210.4,359.6" fill="rgb(255,255,255)"/>
<polygon points="218.4,351.6 226.4,351.6 226.4,359.6 218.4,359.6" fill="rgb(255,255,255)"/>
<polygon points="226.4,351.6 234.4,351.6 234.4,359.6 226.4,359.6" fill="rgb(255,255,255)"/>
<polygon points="234.4,351.6 242.4,351.6 242.4,359.6 234.4,359.6" fill="rgb(255,255,255)"/>
<polygon points="242.4,351.6 250.4,351.6 250.4,359.6 242.4,359.6" fill="rgb(255,255,255)"/>
<polygon points="250.4,351.6 258.4,351.6 258.4,359.6 250.4,359.6" fill="rgb(255,255,255)"/>
<polygon points="94.4,359.6 102.4,359.6 102.4,367.6 94.4,367.6" fill="rgb(255,255,0)"/><text xml:space="preserve" x="98.4" y="366.433" font-family="Calibri" font-size="7.5" fill="rgb(0,0,0)" text-anchor="middle">3</text>
<polygon points="102.4,359.6 110.4,359.6 110.4,367.6 102.4,367.6" fill="rgb(230,127,0)"/><text xml:space="preserve" x="106.4" y="366.433" font-family="Calibri" font-size="7.5" fill="rgb(0,0,0)" text-anchor="middle">4</text>
<polygon points="110.4,359.6 118.4,359.6 118.4,367.6 110.4,367.6" fill="rgb(230,127,0)"/><text xml:space="preserve" x="114.4" y="366.433" font-family="Calibri" font-size="7.5" fill="rgb(0,0,0)" text-anchor="middle">4</text>
<polygon points="118.4,359.6 126.4,359.6 126.4,367.6 118.4,367.6" fill="rgb(230,127,0)"/><text xml:space="preserve" x="122.4" y="366.433" font-family="Calibri" font-size="7.5" fill="rgb(0,0,0)" text-anchor="middle">4</text>
<polygon points="126.4,359.6 134.4,359.6 134.4,367.6 126.4,367.6" fill="rgb(230,127,0)"/><text xml:space="preserve" x="130.4" y="366.433" font-family="Calibri" font-size="7.5" fill="rgb(0,0,0)" text-anchor="middle">4</text>
<polygon points="144.4,359.6 152.4,359.6 152.4,367.6 144.4,367.6" fill="rgb(14,83,138)"/>
<polygon points="152.4,359.6 160.4,359.6 160.4,367.6 152.4,367.6" fill="rgb(14,83,138)"/>
<polygon points="160.4,359.6 168.4,359.6 168.4,367.6 160.4,367.6" fill="rgb(24,121,140)"/>
<polygon points="168.4,359.6 176.4,359.6 176.4,367.6 168.4,367.6" fill="rgb(42,194,144)"/>
<polygon points="176.4,359.6 184.4,359.6 184.4,367.6 176.4,367.6" fill="rgb(15,85,138)"/>
<polygon points="194.4,359.6 202.4,359.6 202.4,367.6 194.4,367.6" fill="rgb(255,255,255)"/>
<polygon points="202.4,359.6 210.4,359.6 210.4,367.6 202.4,367.6" fill="rgb(255,255,255)"/>
<polygon points="210.4,359.6 218.4,359.6 218.4,367.6 210.4,367.6" fill="rgb(255,255,255)"/>
<polygon points="218.4,359.6 226.4,359.6 226.4,367.6 218.4,367.6" fill="rgb(255,255,255)"/>
<polygon points="226.4,359.6 234.4,359.6 234.4,367.6 226.4,367.6" fill="rgb(255,255,255)"/>
<polygon points="234.4,359.6 242.4,359.6 242.4,367.6 234.4,367.6" fill="rgb(255,255,255)"/>
<polygon points="242.4,359.6 250.4,359.6 250.4,367.6 242.4,367.6" fill="rgb(255,255,255)"/>
<polygon points="250.4,359.6 258.4,359.6 258.4,367.6 250.4,367.6" fill="rgb(255,255,255)"/>
<polygon points="94.4,335.6 134.4,335.6 134.4,367.6 94.4,367.6" fill="none" stroke="black" stroke-width="1"/>
<polygon points="144.4,335.6 184.4,335.6 184.4,367.6 144.4,367.6" fill="none" stroke="black" stroke-width="1"/>
<polygon points="194.4,335.6 258.4,335.6 258.4,367.6 194.4,367.6" fill="none" stroke="black" stroke-width="1"/>
<text xml:space="preserve" x="139.2" y="400.6" font-family="Calibri" font-size="8" text-anchor="middle">ClusterAssignment</text>
<polygon points="89.2,407.6 109.2,407.6 109.2,427.6 89.2,427.6" fill="rgb(0,205,0)"/><polygon points="89.2,407.6 109.2,407.6 109.2,427.6 89.2,427.6" fill="none" stroke="black" stroke-width="1"/><text xml:space="preserve" x="99.2" y="420.433" font-family="Calibri" font-size="7.5" fill="rgb(255,255,255)" text-anchor="middle">1.0</text>
<polygon points="109.2,407.6 129.2,407.6 129.2,427.6 109.2,427.6" fill="rgb(127,230,0)"/><polygon points="109.2,407.6 129.2,407.6 129.2,427.6 109.2,427.6" fill="none" stroke="black" stroke-width="1"/><text xml:space="preserve" x="119.2" y="420.433" font-family="Calibri" font-size="7.5" fill="rgb(0,0,0)" text-anchor="middle">2.0</text>
<polygon points="129.2,407.6 149.2,407.6 149.2,427.6 129.2,427.6" fill="rgb(255,255,0)"/><polygon points="129.2,407.6 149.2,407.6 149.2,427.6 129.2,427.6" fill="none" stroke="black" stroke-width="1"/><text xml:space="preserve" x="139.2" y="420.433" font-family="Calibri" font-size="7.5" fill="rgb(0,0,0)" text-anchor="middle">3.0</text>
<polygon points="149.2,407.6 169.2,407.6 169.2,427.6 149.2,427.6" fill="rgb(230,127,0)"/><polygon points="149.2,407.6 169.2,407.6 169.2,427.6 149.2,427.6" fill="none" stroke="black" stroke-width="1"/><text xml:space="preserve" x="159.2" y="420.433" font-family="Calibri" font-size="7.5" fill="rgb(0,0,0)" text-anchor="middle">4.0</text>
<polygon points="169.2,407.6 189.2,407.6 189.2,427.6 169.2,427.6" fill="rgb(205,0,0)"/><polygon points="169.2,407.6 189.2,407.6 189.2,427.6 169.2,427.6" fill="none" stroke="black" stroke-width="1"/><text xml:space="preserve" x="179.2" y="420.433" font-family="Calibri" font-size="7.5" fill="rgb(255,255,255)" text-anchor="middle">5.0</text>
<text xml:space="preserve" x="139.2" y="460.6" font-family="Calibri" font-size="8" text-anchor="middle">Expression</text>
<polygon points="89.2,467.6 109.2,467.6 109.2,487.6 89.2,487.6" fill="rgb(0,27,135)"/><polygon points="89.2,467.6 109.2,467.6 109.2,487.6 89.2,487.6" fill="none" stroke="black" stroke-width="1"/><text xml:space="preserve" x="99.2" y="480.433" font-family="Calibri" font-size="7.5" fill="rgb(255,255,255)" text-anchor="middle">0.0</text>
<polygon points="109.2,467.6 129.2,467.6 129.2,487.6 109.2,487.6" fill="rgb(24,123,140)"/><polygon points="109.2,467.6 129.2,467.6 129.2,487.6 109.2,487.6" fill="none" stroke="black" stroke-width="1"/><text xml:space="preserve" x="119.2" y="480.433" font-family="Calibri" font-size="7.5" fill="rgb(255,255,255)" text-anchor="middle">0.8</text>
<polygon points="129.2,467.6 149.2,467.6 149.2,487.6 129.2,487.6" fill="rgb(49,219,146)"/><polygon points="129.2,467.6 149.2,467.6 149.2,487.6 129.2,487.6" fill="none" stroke="black" stroke-width="1"/><text xml:space="preserve" x="139.2" y="480.433" font-family="Calibri" font-size="7.5" fill="rgb(0,0,0)" text-anchor="middle">1.5</text>
<polygon points="149.2,467.6 169.2,467.6 169.2,487.6 149.2,487.6" fill="rgb(150,206,73)"/><polygon points="149.2,467.6 169.2,467.6 169.2,487.6 149.2,487.6" fill="none" stroke="black" stroke-width="1"/><text xml:space="preserve" x="159.2" y="480.433" font-family="Calibri" font-size="7.5" fill="rgb(0,0,0)" text-anchor="middle">2.2</text>
<polygon points="169.2,467.6 189.2,467.6 189.2,487.6 169.2,487.6" fill="rgb(252,194,1)"/><polygon points="169.2,467.6 189.2,467.6 189.2,487.6 169.2,487.6" fill="none" stroke="black" stroke-width="1"/><text xml:space="preserve" x="179.2" y="480.433" font-family="Calibri" font-size="7.5" fill="rgb(0,0,0)" text-anchor="middle">3.0</text>
<text xml:space="preserve" x="139.2" y="520.6" font-family="Calibri" font-size="8" text-anchor="middle">PANTHERclass</text>
<polygon points="89.2,527.6 109.2,527.6 109.2,547.6 89.2,547.6" fill="rgb(255,255,255)"/><polygon points="89.2,527.6 109.2,527.6 109.2,547.6 89.2,547.6" fill="none" stroke="black" stroke-width="1"/><text xml:space="preserve" x="99.2" y="540.433" font-family="Calibri" font-size="7.5" fill="rgb(0,0,0)" text-anchor="middle">0.0</text>
<polygon points="109.2,527.6 129.2,527.6 129.2,547.6 109.2,547.6" fill="rgb(242,191,242)"/><polygon points="109.2,527.6 129.2,527.6 129.2,547.6 109.2,547.6" fill="none" stroke="black" stroke-width="1"/><text xml:space="preserve" x="119.2" y="540.433" font-family="Calibri" font-size="7.5" fill="rgb(0,0,0)" text-anchor="middle">0.2</text>
<polygon points="129.2,527.6 149.2,527.6 149.2,547.6 129.2,547.6" fill="rgb(230,127,230)"/><polygon points="129.2,527.6 149.2,527.6 149.2,547.6 129.2,547.6" fill="none" stroke="black" stroke-width="1"/><text xml:space="preserve" x="139.2" y="540.433" font-family="Calibri" font-size="7.5" fill="rgb(0,0,0)" text-anchor="middle">0.5</text>
<polygon points="149.2,527.6 169.2,527.6 169.2,547.6 149.2,547.6" fill="rgb(217,63,217)"/><polygon points="149.2,527.6 169.2,527.6 169.2,547.6 149.2,547.6" fill="none" stroke="black" stroke-width="1"/><text xml:space="preserve" x="159.2" y="540.433" font-family="Calibri" font-size="7.5" fill="rgb(255,255,255)" text-anchor="middle">0.8</text>
<polygon points="169.2,527.6 189.2,527.6 189.2,547.6 169.2,547.6" fill="rgb(205,0,205)"/><polygon points="169.2,527.6 189.2,527.6 189.2,547.6 169.2,547.6" fill="none" stroke="black" stroke-width="1"/><text xml:space="preserve" x="179.2" y="540.433" font-family="Calibri" font-size="7.5" fill="rgb(255,255,255)" text-anchor="middle">1.0</text>
</svg>
