<?xml version="1.0" standalone="no"?><!DOCTYPE svg PUBLIC "-//W3C//DTD SVG 1.1//EN" "http://www.w3.org/Graphics/SVG/1.1/DTD/svg11.dtd">
<svg width="312.6" height="631.6" version="1.1" xmlns="http://www.w3.org/2000/svg">
<text xml:space="preserve" x="124.6" y="342.6" font-family="Calibri" font-size="8" text-anchor="end">AC022784.6</text>
<text xml:space="preserve" x="124.6" y="350.6" font-family="Calibri" font-size="8" text-anchor="end">PRKG1</text>
<text xml:space="preserve" x="124.6" y="358.6" font-family="Calibri" font-size="8" text-anchor="end">ETV1</text>
<text xml:space="preserve" x="124.6" y="366.6" font-family="Calibri" font-size="8" text-anchor="end">TBX3</text>
<text xml:space="preserve" x="124.6" y="374.6" font-family="Calibri" font-size="8" text-anchor="end">BMPER</text>
<text xml:space="preserve" x="124.6" y="382.6" font-family="Calibri" font-size="8" text-anchor="end">UST</text>
<text xml:space="preserve" x="124.6" y="390.6" font-family="Calibri" font-size="8" text-anchor="end">ISL1</text>
<text xml:space="preserve" x="124.6" y="398.6" font-family="Calibri" font-size="8" text-anchor="end">AC120042.3</text>
<text xml:space="preserve" x="124.6" y="406.6" font-family="Calibri" font-size="8" text-anchor="end">PIEZO2</text>
<text xml:space="preserve" x="124.6" y="414.6" font-family="Calibri" font-size="8" text-anchor="end">NKAIN3</text>
<text xml:space="preserve" x="124.6" y="422.6" font-family="Calibri" font-size="8" text-anchor="end">MMP7</text>
<text xml:space="preserve" x="124.6" y="430.6" font-family="Calibri" font-size="8" text-anchor="end">AC109466.1</text>
<text xml:space="preserve" x="135.6" y="331.6" font-family="Calibri" font-size="8" transform="rotate(270 135.6 331.6)">c1</text>
<text xml:space="preserve" x="143.6" y="331.6" font-family="Calibri" font-size="8" transform="rotate(270 143.6 331.6)">c3</text>
<text xml:space="preserve" x="151.6" y="331.6" font-family="Calibri" font-size="8" transform="rotate(270 151.6 331.6)">c5</text>
<text xml:space="preserve" x="159.6" y="331.6" font-family="Calibri" font-size="8" transform="rotate(270 159.6 331.6)">c4</text>
<text xml:space="preserve" x="167.6" y="331.6" font-family="Calibri" font-size="8" transform="rotate(270 167.6 331.6)">c2</text>
<text xml:space="preserve" x="185.6" y="331.6" font-family="Calibri" font-size="8" transform="rotate(270 185.6 331.6)">c1_mean</text>
<text xml:space="preserve" x="193.6" y="331.6" font-family="Calibri" font-size="8" transform="rotate(270 193.6 331.6)">c3_mean</text>
<text xml:space="preserve" x="201.6" y="331.6" font-family="Calibri" font-size="8" transform="rotate(270 201.6 331.6)">c5_mean</text>
<text xml:space="preserve" x="209.6" y="331.6" font-family="Calibri" font-size="8" transform="rotate(270 209.6 331.6)">c4_mean</text>
<text xml:space="preserve" x="217.6" y="331.6" font-family="Calibri" font-size="8" transform="rotate(270 217.6 331.6)">c2_mean</text>
<text xml:space="preserve" x="235.6" y="331.6" font-family="Calibri" font-size="8" transform="rotate(270 235.6 331.6)">transcription_factor</text>
<text xml:space="preserve" x="243.6" y="331.6" font-family="Calibri" font-size="8" transform="rotate(270 243.6 331.6)">transmembrane_signal_receptor</text>
<text xml:space="preserve" x="251.6" y="331.6" font-family="Calibri" font-size="8" transform="rotate(270 251.6 331.6)">growth_factor</text>
<text xml:space="preserve" x="259.6" y="331.6" font-family="Calibri" font-size="8" transform="rotate(270 259.6 331.6)">peptide_hormone</text>
<text xml:space="preserve" x="267.6" y="331.6" font-family="Calibri" font-size="8" transform="rotate(270 267.6 331.6)">cytoskeletal_protein</text>
<text xml:space="preserve" x="275.6" y="331.6" font-family="Calibri" font-size="8" transform="rotate(270 275.6 331.6)">ion_channel</text>
<text xml:space="preserve" x="283.6" y="331.6" font-family="Calibri" font-size="8" transform="rotate(270 283.6 331.6)">integrin</text>
<text xml:space="preserve" x="291.6" y="331.6" font-family="Calibri" font-size="8" transform="rotate(270 291.6 331.6)">extracellular_matrix_protein</text>
<polygon points="128.6,335.6 136.6,335.6 136.6,343.6 128.6,343.6" fill="rgb(0,205,0)"/><text xml:space="preserve" x="132.6" y="342.433" font-family="Calibri" font-size="7.5" fill="rgb(255,255,255)" text-anchor="middle">1</text>
<polygon points="136.6,335.6 144.6,335.6 144.6,343.6 136.6,343.6" fill="rgb(0,205,0)"/><text xml:space="preserve" x="140.6" y="342.433" font-family="Calibri" font-size="7.5" fill="rgb(255,255,255)" text-anchor="middle">1</text>
<polygon points="144.6,335.6 152.6,335.6 152.6,343.6 144.6,343.6" fill="rgb(0,205,0)"/><text xml:space="preserve" x="148.6" y="342.433" font-family="Calibri" font-size="7.5" fill="rgb(255,255,255)" text-anchor="middle">1</text>
<polygon points="152.6,335.6 160.6,335.6 160.6,343.6 152.6,343.6" fill="rgb(205,0,0)"/><text xml:space="preserve" x="156.6" y="342.433" font-family="Calibri" font-size="7.5" fill="rgb(255,255,255)" text-anchor="middle">5</text>
<polygon points="160.6,335.6 168.6,335.6 168.6,343.6 160.6,343.6" fill="rgb(0,205,0)"/><text xml:space="preserve" x="164.6" y="342.433" font-family="Calibri" font-size="7.5" fill="rgb(255,255,255)" text-anchor="middle">1</text>
<polygon points="178.6,335.6 186.6,335.6 186.6,343.6 178.6,343.6" fill="rgb(0,27,135)"/>
<polygon points="186.6,335.6 194.6,335.6 194.6,343.6 186.6,343.6" fill="rgb(0,27,135)"/>
<polygon points="194.6,335.6 202.6,335.6 202.6,343.6 194.6,343.6" fill="rgb(0,27,135)"/>
<polygon points="202.6,335.6 210.6,335.6 210.6,343.6 202.6,343.6" fill="rgb(70,216,130)"/>
<polygon points="210.6,335.6 218.6,335.6 218.6,343.6 210.6,343.6" fill="rgb(5,47,136)"/>
<polygon points="228.6,335.6 236.6,335.6 236.6,343.6 228.6,343.6" fill="rgb(255,255,255)"/>
<polygon points="236.6,335.6 244.6,335.6 244.6,343.6 236.6,343.6" fill="rgb(255,255,255)"/>
<polygon points="244.6,335.6 252.6,335.6 252.6,343.6 244.6,343.6" fill="rgb(255,255,255)"/>
<polygon points="252.6,335.6 260.6,335.6 260.6,343.6 252.6,343.6" fill="rgb(255,255,255)"/>
<polygon points="260.6,335.6 268.6,335.6 268.6,343.6 260.6,343.6" fill="rgb(255,255,255)"/>
<polygon points="268.6,335.6 276.6,335.6 276.6,343.6 268.6,343.6" fill="rgb(255,255,255)"/>
<polygon points="276.6,335.6 284.6,335.6 284.6,343.6 276.6,343.6" fill="rgb(255,255,255)"/>
<polygon points="284.6,335.6 292.6,335.6 292.6,343.6 284.6,343.6" fill="rgb(255,255,255)"/>
<polygon points="128.6,343.6 136.6,343.6 136.6,351.6 128.6,351.6" fill="rgb(0,205,0)"/><text xml:space="preserve" x="132.6" y="350.433" font-family="Calibri" font-size="7.5" fill="rgb(255,255,255)" text-anchor="middle">1</text>
<polygon points="136.6,343.6 144.6,343.6 144.6,351.6 136.6,351.6" fill="rgb(0,205,0)"/><text xml:space="preserve" x="140.6" y="350.433" font-family="Calibri" font-size="7.5" fill="rgb(255,255,255)" text-anchor="middle">1</text>
<polygon points="144.6,343.6 152.6,343.6 152.6,351.6 144.6,351.6" fill="rgb(0,205,0)"/><text xml:space="preserve" x="148.6" y="350.433" font-family="Calibri" font-size="7.5" fill="rgb(255,255,255)" text-anchor="middle">1</text>
<polygon points="152.6,343.6 160.6,343.6 160.6,351.6 152.6,351.6" fill="rgb(205,0,0)"/><text xml:space="preserve" x="156.6" y="350.433" font-family="Calibri" font-size="7.5" fill="rgb(255,255,255)" text-anchor="middle">5</text>
<polygon points="160.6,343.6 168.6,343.6 168.6,351.6 160.6,351.6" fill="rgb(0,205,0)"/><text xml:space="preserve" x="164.6" y="350.433" font-family="Calibri" font-size="7.5" fill="rgb(255,255,255)" text-anchor="middle">1</text>
<polygon points="178.6,343.6 186.6,343.6 186.6,351.6 178.6,351.6" fill="rgb(2,37,135)"/>
<polygon points="186.6,343.6 194.6,343.6 194.6,351.6 186.6,351.6" fill="rgb(2,37,135)"/>
<polygon points="194.6,343.6 202.6,343.6 202.6,351.6 194.6,351.6" fill="rgb(2,37,135)"/>
<polygon points="202.6,343.6 210.6,343.6 210.6,351.6 202.6,351.6" fill="rgb(46,208,145)"/>
<polygon points="210.6,343.6 218.6,343.6 218.6,351.6 210.6,351.6" fill="rgb(11,73,137)"/>
<polygon points="228.6,343.6 236.6,343.6 236.6,351.6 228.6,351.6" fill="rgb(255,255,255)"/>
<polygon points="236.6,343.6 244.6,343.6 244.6,351.6 236.6,351.6" fill="rgb(255,255,255)"/>
<polygon points="244.6,343.6 252.6,343.6 252.6,351.6 244.6,351.6" fill="rgb(255,255,255)"/>
<polygon points="252.6,343.6 260.6,343.6 260.6,351.6 252.6,351.6" fill="rgb(255,255,255)"/>
<polygon points="260.6,343.6 268.6,343.6 268.6,351.6 260.6,351.6" fill="rgb(255,255,255)"/>
<polygon points="268.6,343.6 276.6,343.6 276.6,351.6 268.6,351.6" fill="rgb(255,255,255)"/>
<polygon points="276.6,343.6 284.6,343.6 284.6,351.6 276.6,351.6" fill="rgb(255,255,255)"/>
<polygon points="284.6,343.6 292.6,343.6 292.6,351.6 284.6,351.6" fill="rgb(255,255,255)"/>
<polygon points="128.6,351.6 136.6,351.6 136.6,359.6 128.6,359.6" fill="rgb(0,205,0)"/><text xml:space="preserve" x="132.6" y="358.433" font-family="Calibri" font-size="7.5" fill="rgb(255,255,255)" text-anchor="middle">1</text>
<polygon points="136.6,351.6 144.6,351.6 144.6,359.6 136.6,359.6" fill="rgb(0,205,0)"/><text xml:space="preserve" x="140.6" y="358.433" font-family="Calibri" font-size="7.5" fill="rgb(255,255,255)" text-anchor="middle">1</text>
<polygon points="144.6,351.6 152.6,351.6 152.6,359.6 144.6,359.6" fill="rgb(0,205,0)"/><text xml:space="preserve" x="148.6" y="358.433" font-family="Calibri" font-size="7.5" fill="rgb(255,255,255)" text-anchor="middle">1</text>
<polygon points="152.6,351.6 160.6,351.6 160.6,359.6 152.6,359.6" fill="rgb(205,0,0)"/><text xml:space="preserve" x="156.6" y="358.433" font-family="Calibri" font-size="7.5" fill="rgb(255,255,255)" text-anchor="middle">5</text>
<polygon points="160.6,351.6 168.6,351.6 168.6,359.6 160.6,359.6" fill="rgb(0,205,0)"/><text xml:space="preserve" x="164.6" y="358.433" font-family="Calibri" font-size="7.5" fill="rgb(255,255,255)" text-anchor="middle">1</text>
<polygon points="178.6,351.6 186.6,351.6 186.6,359.6 178.6,359.6" fill="rgb(1,32,135)"/>
<polygon points="186.6,351.6 194.6,351.6 194.6,359.6 186.6,359.6" fill="rgb(0,30,135)"/>
<polygon points="194.6,351.6 202.6,351.6 202.6,359.6 194.6,359.6" fill="rgb(4,46,136)"/>
<polygon points="202.6,351.6 210.6,351.6 210.6,359.6 202.6,359.6" fill="rgb(47,212,145)"/>
<polygon points="210.6,351.6 218.6,351.6 218.6,359.6 210.6,359.6" fill="rgb(14,82,138)"/>
<polygon points="228.6,351.6 236.6,351.6 236.6,359.6 228.6,359.6" fill="rgb(205,0,205)"/>
<polygon points="236.6,351.6 244.6,351.6 244.6,359.6 236.6,359.6" fill="rgb(255,255,255)"/>
<polygon points="244.6,351.6 252.6,351.6 252.6,359.6 244.6,359.6" fill="rgb(255,255,255)"/>
<polygon points="252.6,351.6 260.6,351.6 260.6,359.6 252.6,359.6" fill="rgb(255,255,255)"/>
<polygon points="260.6,351.6 268.6,351.6 268.6,359.6 260.6,359.6" fill="rgb(255,255,255)"/>
<polygon points="268.6,351.6 276.6,351.6 276.6,359.6 268.6,359.6" fill="rgb(255,255,255)"/>
<polygon points="276.6,351.6 284.6,351.6 284.6,359.6 276.6,359.6" fill="rgb(255,255,255)"/>
<polygon points="284.6,351.6 292.6,351.6 292.6,359.6 284.6,359.6" fill="rgb(255,255,255)"/>
<polygon points="128.6,359.6 136.6,359.6 136.6,367.6 128.6,367.6" fill="rgb(0,205,0)"/><text xml:space="preserve" x="132.6" y="366.433" font-family="Calibri" font-size="7.5" fill="rgb(255,255,255)" text-anchor="middle">1</text>
<polygon points="136.6,359.6 144.6,359.6 144.6,367.6 136.6,367.6" fill="rgb(0,205,0)"/><text xml:space="preserve" x="140.6" y="366.433" font-family="Calibri" font-size="7.5" fill="rgb(255,255,255)" text-anchor="middle">1</text>
<polygon points="144.6,359.6 152.6,359.6 152.6,367.6 144.6,367.6" fill="rgb(0,205,0)"/><text xml:space="preserve" x="148.6" y="366.433" font-family="Calibri" font-size="7.5" fill="rgb(255,255,255)" text-anchor="middle">1</text>
<polygon points="152.6,359.6 160.6,359.6 160.6,367.6 152.6,367.6" fill="rgb(205,0,0)"/><text xml:space="preserve" x="156.6" y="366.433" font-family="Calibri" font-size="7.5" fill="rgb(255,255,255)" text-anchor="middle">5</text>
<polygon points="160.6,359.6 168.6,359.6 168.6,367.6 160.6,367.6" fill="rgb(0,205,0)"/><text xml:space="preserve" x="164.6" y="366.433" font-family="Calibri" font-size="7.5" fill="rgb(255,255,255)" text-anchor="middle">1</text>
<polygon points="178.6,359.6 186.6,359.6 186.6,367.6 178.6,367.6" fill="rgb(1,32,135)"/>
<polygon points="186.6,359.6 194.6,359.6 194.6,367.6 186.6,367.6" fill="rgb(0,29,135)"/>
<polygon points="194.6,359.6 202.6,359.6 202.6,367.6 194.6,367.6" fill="rgb(0,28,135)"/>
<polygon points="202.6,359.6 210.6,359.6 210.6,367.6 202.6,367.6" fill="rgb(47,211,145)"/>
<polygon points="210.6,359.6 218.6,359.6 218.6,367.6 210.6,367.6" fill="rgb(11,71,137)"/>
<polygon points="228.6,359.6 236.6,359.6 236.6,367.6 228.6,367.6" fill="rgb(205,0,205)"/>
<polygon points="236.6,359.6 244.6,359.6 244.6,367.6 236.6,367.6" fill="rgb(255,255,255)"/>
<polygon points="244.6,359.6 252.6,359.6 252.6,367.6 244.6,367.6" fill="rgb(255,255,255)"/>
<polygon points="252.6,359.6 260.6,359.6 260.6,367.6 252.6,367.6" fill="rgb(255,255,255)"/>
<polygon points="260.6,359.6 268.6,359.6 268.6,367.6 260.6,367.6" fill="rgb(255,255,255)"/>
<polygon points="268.6,359.6 276.6,359.6 276.6,367.6 268.6,367.6" fill="rgb(255,255,255)"/>
<polygon points="276.6,359.6 284.6,359.6 284.6,367.6 276.6,367.6" fill="rgb(255,255,255)"/>
<polygon points="284.6,359.6 292.6,359.6 292.6,367.6 284.6,367.6" fill="rgb(255,255,255)"/>
<polygon points="128.6,367.6 136.6,367.6 136.6,375.6 128.6,375.6" fill="rgb(0,205,0)"/><text xml:space="preserve" x="132.6" y="374.433" font-family="Calibri" font-size="7.5" fill="rgb(255,255,255)" text-anchor="middle">1</text>
<polygon points="136.6,367.6 144.6,367.6 144.6,375.6 136.6,375.6" fill="rgb(0,205,0)"/><text xml:space="preserve" x="140.6" y="374.433" font-family="Calibri" font-size="7.5" fill="rgb(255,255,255)" text-anchor="middle">1</text>
<polygon points="144.6,367.6 152.6,367.6 152.6,375.6 144.6,375.6" fill="rgb(0,205,0)"/><text xml:space="preserve" x="148.6" y="374.433" font-family="Calibri" font-size="7.5" fill="rgb(255,255,255)" text-anchor="middle">1</text>
<polygon points="152.6,367.6 160.6,367.6 160.6,375.6 152.6,375.6" fill="rgb(205,0,0)"/><text xml:space="preserve" x="156.6" y="374.433" font-family="Calibri" font-size="7.5" fill="rgb(255,255,255)" text-anchor="middle">5</text>
<polygon points="160.6,367.6 168.6,367.6 168.6,375.6 160.6,375.6" fill="rgb(0,205,0)"/><text xml:space="preserve" x="164.6" y="374.433" font-family="Calibri" font-size="7.5" fill="rgb(255,255,255)" text-anchor="middle">1</text>
<polygon points="178.6,367.6 186.6,367.6 186.6,375.6 178.6,375.6" fill="rgb(1,32,135)"/>
<polygon points="186.6,367.6 194.6,367.6 194.6,375.6 186.6,375.6" fill="rgb(0,29,135)"/>
<polygon points="194.6,367.6 202.6,367.6 202.6,375.6 194.6,375.6" fill="rgb(4,46,136)"/>
<polygon points="202.6,367.6 210.6,367.6 210.6,375.6 202.6,375.6" fill="rgb(107,211,104)"/>
<polygon points="210.6,367.6 218.6,367.6 218.6,375.6 210.6,375.6" fill="rgb(7,56,136)"/>
<polygon points="228.6,367.6 236.6,367.6 236.6,375.6 228.6,375.6" fill="rgb(255,255,255)"/>
<polygon points="236.6,367.6 244.6,367.6 244.6,375.6 236.6,375.6" fill="rgb(255,255,255)"/>
<polygon points="244.6,367.6 252.6,367.6 252.6,375.6 244.6,375.6" fill="rgb(255,255,255)"/>
<polygon points="252.6,367.6 260.6,367.6 260.6,375.6 252.6,375.6" fill="rgb(255,255,255)"/>
<polygon points="260.6,367.6 268.6,367.6 268.6,375.6 260.6,375.6" fill="rgb(255,255,255)"/>
<polygon points="268.6,367.6 276.6,367.6 276.6,375.6 268.6,375.6" fill="rgb(255,255,255)"/>
<polygon points="276.6,367.6 284.6,367.6 284.6,375.6 276.6,375.6" fill="rgb(255,255,255)"/>
<polygon points="284.6,367.6 292.6,367.6 292.6,375.6 284.6,375.6" fill="rgb(205,0,205)"/>
<polygon points="128.6,375.6 136.6,375.6 136.6,383.6 128.6,383.6" fill="rgb(0,205,0)"/><text xml:space="preserve" x="132.6" y="382.433" font-family="Calibri" font-size="7.5" fill="rgb(255,255,255)" text-anchor="middle">1</text>
<polygon points="136.6,375.6 144.6,375.6 144.6,383.6 136.6,383.6" fill="rgb(0,205,0)"/><text xml:space="preserve" x="140.6" y="382.433" font-family="Calibri" font-size="7.5" fill="rgb(255,255,255)" text-anchor="middle">1</text>
<polygon points="144.6,375.6 152.6,375.6 152.6,383.6 144.6,383.6" fill="rgb(0,205,0)"/><text xml:space="preserve" x="148.6" y="382.433" font-family="Calibri" font-size="7.5" fill="rgb(255,255,255)" text-anchor="middle">1</text>
<polygon points="152.6,375.6 160.6,375.6 160.6,383.6 152.6,383.6" fill="rgb(205,0,0)"/><text xml:space="preserve" x="156.6" y="382.433" font-family="Calibri" font-size="7.5" fill="rgb(255,255,255)" text-anchor="middle">5</text>
<polygon points="160.6,375.6 168.6,375.6 168.6,383.6 160.6,383.6" fill="rgb(0,205,0)"/><text xml:space="preserve" x="164.6" y="382.433" font-family="Calibri" font-size="7.5" fill="rgb(255,255,255)" text-anchor="middle">1</text>
<polygon points="178.6,375.6 186.6,375.6 186.6,383.6 178.6,383.6" fill="rgb(8,59,136)"/>
<polygon points="186.6,375.6 194.6,375.6 194.6,383.6 186.6,383.6" fill="rgb(6,52,136)"/>
<polygon points="194.6,375.6 202.6,375.6 202.6,383.6 194.6,383.6" fill="rgb(2,38,135)"/>
<polygon points="202.6,375.6 210.6,375.6 210.6,383.6 202.6,383.6" fill="rgb(128,209,88)"/>
<polygon points="210.6,375.6 218.6,375.6 218.6,383.6 210.6,383.6" fill="rgb(12,75,137)"/>
<polygon points="228.6,375.6 236.6,375.6 236.6,383.6 228.6,383.6" fill="rgb(255,255,255)"/>
<polygon points="236.6,375.6 244.6,375.6 244.6,383.6 236.6,383.6" fill="rgb(255,255,255)"/>
<polygon points="244.6,375.6 252.6,375.6 252.6,383.6 244.6,383.6" fill="rgb(255,255,255)"/>
<polygon points="252.6,375.6 260.6,375.6 260.6,383.6 252.6,383.6" fill="rgb(255,255,255)"/>
<polygon points="260.6,375.6 268.6,375.6 268.6,383.6 260.6,383.6" fill="rgb(255,255,255)"/>
<polygon points="268.6,375.6 276.6,375.6 276.6,383.6 268.6,383.6" fill="rgb(255,255,255)"/>
<polygon points="276.6,375.6 284.6,375.6 284.6,383.6 276.6,383.6" fill="rgb(255,255,255)"/>
<polygon points="284.6,375.6 292.6,375.6 292.6,383.6 284.6,383.6" fill="rgb(255,255,255)"/>
<polygon points="128.6,383.6 136.6,383.6 136.6,391.6 128.6,391.6" fill="rgb(0,205,0)"/><text xml:space="preserve" x="132.6" y="390.433" font-family="Calibri" font-size="7.5" fill="rgb(255,255,255)" text-anchor="middle">1</text>
<polygon points="136.6,383.6 144.6,383.6 144.6,391.6 136.6,391.6" fill="rgb(0,205,0)"/><text xml:space="preserve" x="140.6" y="390.433" font-family="Calibri" font-size="7.5" fill="rgb(255,255,255)" text-anchor="middle">1</text>
<polygon points="144.6,383.6 152.6,383.6 152.6,391.6 144.6,391.6" fill="rgb(0,205,0)"/><text xml:space="preserve" x="148.6" y="390.433" font-family="Calibri" font-size="7.5" fill="rgb(255,255,255)" text-anchor="middle">1</text>
<polygon points="152.6,383.6 160.6,383.6 160.6,391.6 152.6,391.6" fill="rgb(205,0,0)"/><text xml:space="preserve" x="156.6" y="390.433" font-family="Calibri" font-size="7.5" fill="rgb(255,255,255)" text-anchor="middle">5</text>
<polygon points="160.6,383.6 168.6,383.6 168.6,391.6 160.6,391.6" fill="rgb(0,205,0)"/><text xml:space="preserve" x="164.6" y="390.433" font-family="Calibri" font-size="7.5" fill="rgb(255,255,255)" text-anchor="middle">1</text>
<polygon points="178.6,383.6 186.6,383.6 186.6,391.6 178.6,391.6" fill="rgb(0,28,135)"/>
<polygon points="186.6,383.6 194.6,383.6 194.6,391.6 186.6,391.6" fill="rgb(0,27,135)"/>
<polygon points="194.6,383.6 202.6,383.6 202.6,391.6 194.6,391.6" fill="rgb(0,28,135)"/>
<polygon points="202.6,383.6 210.6,383.6 210.6,391.6 202.6,391.6" fill="rgb(47,212,145)"/>
<polygon points="210.6,383.6 218.6,383.6 218.6,391.6 210.6,391.6" fill="rgb(12,75,137)"/>
<polygon points="228.6,383.6 236.6,383.6 236.6,391.6 228.6,391.6" fill="rgb(205,0,205)"/>
<polygon points="236.6,383.6 244.6,383.6 244.6,391.6 236.6,391.6" fill="rgb(255,255,255)"/>
<polygon points="244.6,383.6 252.6,383.6 252.6,391.6 244.6,391.6" fill="rgb(255,255,255)"/>
<polygon points="252.6,383.6 260.6,383.6 260.6,391.6 252.6,391.6" fill="rgb(255,255,255)"/>
<polygon points="260.6,383.6 268.6,383.6 268.6,391.6 260.6,391.6" fill="rgb(255,255,255)"/>
<polygon points="268.6,383.6 276.6,383.6 276.6,391.6 268.6,391.6" fill="rgb(255,255,255)"/>
<polygon points="276.6,383.6 284.6,383.6 284.6,391.6 276.6,391.6" fill="rgb(255,255,255)"/>
<polygon points="284.6,383.6 292.6,383.6 292.6,391.6 284.6,391.6" fill="rgb(255,255,255)"/>
<polygon points="128.6,391.6 136.6,391.6 136.6,399.6 128.6,399.6" fill="rgb(0,205,0)"/><text xml:space="preserve" x="132.6" y="398.433" font-family="Calibri" font-size="7.5" fill="rgb(255,255,255)" text-anchor="middle">1</text>
<polygon points="136.6,391.6 144.6,391.6 144.6,399.6 136.6,399.6" fill="rgb(0,205,0)"/><text xml:space="preserve" x="140.6" y="398.433" font-family="Calibri" font-size="7.5" fill="rgb(255,255,255)" text-anchor="middle">1</text>
<polygon points="144.6,391.6 152.6,391.6 152.6,399.6 144.6,399.6" fill="rgb(0,205,0)"/><text xml:space="preserve" x="148.6" y="398.433" font-family="Calibri" font-size="7.5" fill="rgb(255,255,255)" text-anchor="middle">1</text>
<polygon points="152.6,391.6 160.6,391.6 160.6,399.6 152.6,399.6" fill="rgb(205,0,0)"/><text xml:space="preserve" x="156.6" y="398.433" font-family="Calibri" font-size="7.5" fill="rgb(255,255,255)" text-anchor="middle">5</text>
<polygon points="160.6,391.6 168.6,391.6 168.6,399.6 160.6,399.6" fill="rgb(0,205,0)"/><text xml:space="preserve" x="164.6" y="398.433" font-family="Calibri" font-size="7.5" fill="rgb(255,255,255)" text-anchor="middle">1</text>
<polygon points="178.6,391.6 186.6,391.6 186.6,399.6 178.6,399.6" fill="rgb(2,38,135)"/>
<polygon points="186.6,391.6 194.6,391.6 194.6,399.6 186.6,399.6" fill="rgb(3,39,135)"/>
<polygon points="194.6,391.6 202.6,391.6 202.6,399.6 194.6,399.6" fill="rgb(15,85,138)"/>
<polygon points="202.6,391.6 210.6,391.6 210.6,399.6 202.6,399.6" fill="rgb(57,218,140)"/>
<polygon points="210.6,391.6 218.6,391.6 218.6,399.6 210.6,399.6" fill="rgb(10,66,137)"/>
<polygon points="228.6,391.6 236.6,391.6 236.6,399.6 228.6,399.6" fill="rgb(255,255,255)"/>
<polygon points="236.6,391.6 244.6,391.6 244.6,399.6 236.6,399.6" fill="rgb(255,255,255)"/>
<polygon points="244.6,391.6 252.6,391.6 252.6,399.6 244.6,399.6" fill="rgb(255,255,255)"/>
<polygon points="252.6,391.6 260.6,391.6 260.6,399.6 252.6,399.6" fill="rgb(255,255,255)"/>
<polygon points="260.6,391.6 268.6,391.6 268.6,399.6 260.6,399.6" fill="rgb(255,255,255)"/>
<polygon points="268.6,391.6 276.6,391.6 276.6,399.6 268.6,399.6" fill="rgb(255,255,255)"/>
<polygon points="276.6,391.6 284.6,391.6 284.6,399.6 276.6,399.6" fill="rgb(255,255,255)"/>
<polygon points="284.6,391.6 292.6,391.6 292.6,399.6 284.6,399.6" fill="rgb(255,255,255)"/>
<polygon points="128.6,399.6 136.6,399.6 136.6,407.6 128.6,407.6" fill="rgb(0,205,0)"/><text xml:space="preserve" x="132.6" y="406.433" font-family="Calibri" font-size="7.5" fill="rgb(255,255,255)" text-anchor="middle">1</text>
<polygon points="136.6,399.6 144.6,399.6 144.6,407.6 136.6,407.6" fill="rgb(0,205,0)"/><text xml:space="preserve" x="140.6" y="406.433" font-family="Calibri" font-size="7.5" fill="rgb(255,255,255)" text-anchor="middle">1</text>
<polygon points="144.6,399.6 152.6,399.6 152.6,407.6 144.6,407.6" fill="rgb(0,205,0)"/><text xml:space="preserve" x="148.6" y="406.433" font-family="Calibri" font-size="7.5" fill="rgb(255,255,255)" text-anchor="middle">1</text>
<polygon points="152.6,399.6 160.6,399.6 160.6,407.6 152.6,407.6" fill="rgb(205,0,0)"/><text xml:space="preserve" x="156.6" y="406.433" font-family="Calibri" font-size="7.5" fill="rgb(255,255,255)" text-anchor="middle">5</text>
<polygon points="160.6,399.6 168.6,399.6 168.6,407.6 160.6,407.6" fill="rgb(0,205,0)"/><text xml:space="preserve" x="164.6" y="406.433" font-family="Calibri" font-size="7.5" fill="rgb(255,255,255)" text-anchor="middle">1</text>
<polygon points="178.6,399.6 186.6,399.6 186.6,407.6 178.6,407.6" fill="rgb(4,44,136)"/>
<polygon points="186.6,399.6 194.6,399.6 194.6,407.6 186.6,407.6" fill="rgb(1,32,135)"/>
<polygon points="194.6,399.6 202.6,399.6 202.6,407.6 194.6,407.6" fill="rgb(0,28,135)"/>
<polygon points="202.6,399.6 210.6,399.6 210.6,407.6 202.6,407.6" fill="rgb(136,208,83)"/>
<polygon points="210.6,399.6 218.6,399.6 218.6,407.6 210.6,407.6" fill="rgb(9,64,137)"/>
<polygon points="228.6,399.6 236.6,399.6 236.6,407.6 228.6,407.6" fill="rgb(255,255,255)"/>
<polygon points="236.6,399.6 244.6,399.6 244.6,407.6 236.6,407.6" fill="rgb(255,255,255)"/>
<polygon points="244.6,399.6 252.6,399.6 252.6,407.6 244.6,407.6" fill="rgb(255,255,255)"/>
<polygon points="252.6,399.6 260.6,399.6 260.6,407.6 252.6,407.6" fill="rgb(255,255,255)"/>
<polygon points="260.6,399.6 268.6,399.6 268.6,407.6 260.6,407.6" fill="rgb(255,255,255)"/>
<polygon points="268.6,399.6 276.6,399.6 276.6,407.6 268.6,407.6" fill="rgb(205,0,205)"/>
<polygon points="276.6,399.6 284.6,399.6 284.6,407.6 276.6,407.6" fill="rgb(255,255,255)"/>
<polygon points="284.6,399.6 292.6,399.6 292.6,407.6 284.6,407.6" fill="rgb(255,255,255)"/>
<polygon points="128.6,407.6 136.6,407.6 136.6,415.6 128.6,415.6" fill="rgb(0,205,0)"/><text xml:space="preserve" x="132.6" y="414.433" font-family="Calibri" font-size="7.5" fill="rgb(255,255,255)" text-anchor="middle">1</text>
<polygon points="136.6,407.6 144.6,407.6 144.6,415.6 136.6,415.6" fill="rgb(0,205,0)"/><text xml:space="preserve" x="140.6" y="414.433" font-family="Calibri" font-size="7.5" fill="rgb(255,255,255)" text-anchor="middle">1</text>
<polygon points="144.6,407.6 152.6,407.6 152.6,415.6 144.6,415.6" fill="rgb(0,205,0)"/><text xml:space="preserve" x="148.6" y="414.433" font-family="Calibri" font-size="7.5" fill="rgb(255,255,255)" text-anchor="middle">1</text>
<polygon points="152.6,407.6 160.6,407.6 160.6,415.6 152.6,415.6" fill="rgb(205,0,0)"/><text xml:space="preserve" x="156.6" y="414.433" font-family="Calibri" font-size="7.5" fill="rgb(255,255,255)" text-anchor="middle">5</text>
<polygon points="160.6,407.6 168.6,407.6 168.6,415.6 160.6,415.6" fill="rgb(0,205,0)"/><text xml:space="preserve" x="164.6" y="414.433" font-family="Calibri" font-size="7.5" fill="rgb(255,255,255)" text-anchor="middle">1</text>
<polygon points="178.6,407.6 186.6,407.6 186.6,415.6 178.6,415.6" fill="rgb(3,42,135)"/>
<polygon points="186.6,407.6 194.6,407.6 194.6,415.6 186.6,415.6" fill="rgb(3,42,135)"/>
<polygon points="194.6,407.6 202.6,407.6 202.6,415.6 194.6,415.6" fill="rgb(16,89,138)"/>
<polygon points="202.6,407.6 210.6,407.6 210.6,415.6 202.6,415.6" fill="rgb(58,217,139)"/>
<polygon points="210.6,407.6 218.6,407.6 218.6,415.6 210.6,415.6" fill="rgb(10,69,137)"/>
<polygon points="228.6,407.6 236.6,407.6 236.6,415.6 228.6,415.6" fill="rgb(255,255,255)"/>
<polygon points="236.6,407.6 244.6,407.6 244.6,415.6 236.6,415.6" fill="rgb(255,255,255)"/>
<polygon points="244.6,407.6 252.6,407.6 252.6,415.6 244.6,415.6" fill="rgb(255,255,255)"/>
<polygon points="252.6,407.6 260.6,407.6 260.6,415.6 252.6,415.6" fill="rgb(255,255,255)"/>
<polygon points="260.6,407.6 268.6,407.6 268.6,415.6 260.6,415.6" fill="rgb(255,255,255)"/>
<polygon points="268.6,407.6 276.6,407.6 276.6,415.6 268.6,415.6" fill="rgb(255,255,255)"/>
<polygon points="276.6,407.6 284.6,407.6 284.6,415.6 276.6,415.6" fill="rgb(255,255,255)"/>
<polygon points="284.6,407.6 292.6,407.6 292.6,415.6 284.6,415.6" fill="rgb(255,255,255)"/>
<polygon points="128.6,415.6 136.6,415.6 136.6,423.6 128.6,423.6" fill="rgb(0,205,0)"/><text xml:space="preserve" x="132.6" y="422.433" font-family="Calibri" font-size="7.5" fill="rgb(255,255,255)" text-anchor="middle">1</text>
<polygon points="136.6,415.6 144.6,415.6 144.6,423.6 136.6,423.6" fill="rgb(0,205,0)"/><text xml:space="preserve" x="140.6" y="422.433" font-family="Calibri" font-size="7.5" fill="rgb(255,255,255)" text-anchor="middle">1</text>
<polygon points="144.6,415.6 152.6,415.6 152.6,423.6 144.6,423.6" fill="rgb(0,205,0)"/><text xml:space="preserve" x="148.6" y="422.433" font-family="Calibri" font-size="7.5" fill="rgb(255,255,255)" text-anchor="middle">1</text>
<polygon points="152.6,415.6 160.6,415.6 160.6,423.6 152.6,423.6" fill="rgb(205,0,0)"/><text xml:space="preserve" x="156.6" y="422.433" font-family="Calibri" font-size="7.5" fill="rgb(255,255,255)" text-anchor="middle">5</text>
<polygon points="160.6,415.6 168.6,415.6 168.6,423.6 160.6,423.6" fill="rgb(0,205,0)"/><text xml:space="preserve" x="164.6" y="422.433" font-family="Calibri" font-size="7.5" fill="rgb(255,255,255)" text-anchor="middle">1</text>
<polygon points="178.6,415.6 186.6,415.6 186.6,423.6 178.6,423.6" fill="rgb(1,33,135)"/>
<polygon points="186.6,415.6 194.6,415.6 194.6,423.6 186.6,423.6" fill="rgb(0,27,135)"/>
<polygon points="194.6,415.6 202.6,415.6 202.6,423.6 194.6,423.6" fill="rgb(0,27,135)"/>
<polygon points="202.6,415.6 210.6,415.6 210.6,423.6 202.6,423.6" fill="rgb(84,214,120)"/>
<polygon points="210.6,415.6 218.6,415.6 218.6,423.6 210.6,423.6" fill="rgb(12,74,137)"/>
<polygon points="228.6,415.6 236.6,415.6 236.6,423.6 228.6,423.6" fill="rgb(255,255,255)"/>
<polygon points="236.6,415.6 244.6,415.6 244.6,423.6 236.6,423.6" fill="rgb(255,255,255)"/>
<polygon points="244.6,415.6 252.6,415.6 252.6,423.6 244.6,423.6" fill="rgb(255,255,255)"/>
<polygon points="252.6,415.6 260.6,415.6 260.6,423.6 252.6,423.6" fill="rgb(255,255,255)"/>
<polygon points="260.6,415.6 268.6,415.6 268.6,423.6 260.6,423.6" fill="rgb(255,255,255)"/>
<polygon points="268.6,415.6 276.6,415.6 276.6,423.6 268.6,423.6" fill="rgb(255,255,255)"/>
<polygon points="276.6,415.6 284.6,415.6 284.6,423.6 276.6,423.6" fill="rgb(255,255,255)"/>
<polygon points="284.6,415.6 292.6,415.6 292.6,423.6 284.6,423.6" fill="rgb(255,255,255)"/>
<polygon points="128.6,423.6 136.6,423.6 136.6,431.6 128.6,431.6" fill="rgb(0,205,0)"/><text xml:space="preserve" x="132.6" y="430.433" font-family="Calibri" font-size="7.5" fill="rgb(255,255,255)" text-anchor="middle">1</text>
<polygon points="136.6,423.6 144.6,423.6 144.6,431.6 136.6,431.6" fill="rgb(0,205,0)"/><text xml:space="preserve" x="140.6" y="430.433" font-family="Calibri" font-size="7.5" fill="rgb(255,255,255)" text-anchor="middle">1</text>
<polygon points="144.6,423.6 152.6,423.6 152.6,431.6 144.6,431.6" fill="rgb(0,205,0)"/><text xml:space="preserve" x="148.6" y="430.433" font-family="Calibri" font-size="7.5" fill="rgb(255,255,255)" text-anchor="middle">1</text>
<polygon points="152.6,423.6 160.6,423.6 160.6,431.6 152.6,431.6" fill="rgb(205,0,0)"/><text xml:space="preserve" x="156.6" y="430.433" font-family="Calibri" font-size="7.5" fill="rgb(255,255,255)" text-anchor="middle">5</text>
<polygon points="160.6,423.6 168.6,423.6 168.6,431.6 160.6,431.6" fill="rgb(0,205,0)"/><text xml:space="preserve" x="164.6" y="430.433" font-family="Calibri" font-size="7.5" fill="rgb(255,255,255)" text-anchor="middle">1</text>
<polygon points="178.6,423.6 186.6,423.6 186.6,431.6 178.6,431.6" fill="rgb(0,29,135)"/>
<polygon points="186.6,423.6 194.6,423.6 194.6,431.6 186.6,431.6" fill="rgb(0,28,135)"/>
<polygon points="194.6,423.6 202.6,423.6 202.6,431.6 194.6,431.6" fill="rgb(0,28,135)"/>
<polygon points="202.6,423.6 210.6,423.6 210.6,431.6 202.6,431.6" fill="rgb(49,219,146)"/>
<polygon points="210.6,423.6 218.6,423.6 218.6,431.6 210.6,431.6" fill="rgb(7,57,136)"/>
<polygon points="228.6,423.6 236.6,423.6 236.6,431.6 228.6,431.6" fill="rgb(255,255,255)"/>
<polygon points="236.6,423.6 244.6,423.6 244.6,431.6 236.6,431.6" fill="rgb(255,255,255)"/>
<polygon points="244.6,423.6 252.6,423.6 252.6,431.6 244.6,431.6" fill="rgb(255,255,255)"/>
<polygon points="252.6,423.6 260.6,423.6 260.6,431.6 252.6,431.6" fill="rgb(255,255,255)"/>
<polygon points="260.6,423.6 268.6,423.6 268.6,431.6 260.6,431.6" fill="rgb(255,255,255)"/>
<polygon points="268.6,423.6 276.6,423.6 276.6,431.6 268.6,431.6" fill="rgb(255,255,255)"/>
<polygon points="276.6,423.6 284.6,423.6 284.6,431.6 276.6,431.6" fill="rgb(255,255,255)"/>
<polygon points="284.6,423.6 292.6,423.6 292.6,431.6 284.6,431.6" fill="rgb(255,255,255)"/>
<polygon points="128.6,335.6 168.6,335.6 168.6,431.6 128.6,431.6" fill="none" stroke="black" stroke-width="1"/>
<polygon points="178.6,335.6 218.6,335.6 218.6,431.6 178.6,431.6" fill="none" stroke="black" stroke-width="1"/>
<polygon points="228.6,335.6 292.6,335.6 292.6,431.6 228.6,431.6" fill="none" stroke="black" stroke-width="1"/>
<text xml:space="preserve" x="156.3" y="464.6" font-family="Calibri" font-size="8" text-anchor="middle">ClusterAssignment</text>
<polygon points="106.3,471.6 126.3,471.6 126.3,491.6 106.3,491.6" fill="rgb(0,205,0)"/><polygon points="106.3,471.6 126.3,471.6 126.3,491.6 106.3,491.6" fill="none" stroke="black" stroke-width="1"/><text xml:space="preserve" x="116.3" y="484.433" font-family="Calibri" font-size="7.5" fill="rgb(255,255,255)" text-anchor="middle">1.0</text>
<polygon points="126.3,471.6 146.3,471.6 146.3,491.6 126.3,491.6" fill="rgb(127,230,0)"/><polygon points="126.3,471.6 146.3,471.6 146.3,491.6 126.3,491.6" fill="none" stroke="black" stroke-width="1"/><text xml:space="preserve" x="136.3" y="484.433" font-family="Calibri" font-size="7.5" fill="rgb(0,0,0)" text-anchor="middle">2.0</text>
<polygon points="146.3,471.6 166.3,471.6 166.3,491.6 146.3,491.6" fill="rgb(255,255,0)"/><polygon points="146.3,471.6 166.3,471.6 166.3,491.6 146.3,491.6" fill="none" stroke="black" stroke-width="1"/><text xml:space="preserve" x="156.3" y="484.433" font-family="Calibri" font-size="7.5" fill="rgb(0,0,0)" text-anchor="middle">3.0</text>
<polygon points="166.3,471.6 186.3,471.6 186.3,491.6 166.3,491.6" fill="rgb(230,127,0)"/><polygon points="166.3,471.6 186.3,471.6 186.3,491.6 166.3,491.6" fill="none" stroke="black" stroke-width="1"/><text xml:space="preserve" x="176.3" y="484.433" font-family="Calibri" font-size="7.5" fill="rgb(0,0,0)" text-anchor="middle">4.0</text>
<polygon points="186.3,471.6 206.3,471.6 206.3,491.6 186.3,491.6" fill="rgb(205,0,0)"/><polygon points="186.3,471.6 206.3,471.6 206.3,491.6 186.3,491.6" fill="none" stroke="black" stroke-width="1"/><text xml:space="preserve" x="196.3" y="484.433" font-family="Calibri" font-size="7.5" fill="rgb(255,255,255)" text-anchor="middle">5.0</text>
<text xml:space="preserve" x="156.3" y="524.6" font-family="Calibri" font-size="8" text-anchor="middle">Expression</text>
<polygon points="106.3,531.6 126.3,531.6 126.3,551.6 106.3,551.6" fill="rgb(0,27,135)"/><polygon points="106.3,531.6 126.3,531.6 126.3,551.6 106.3,551.6" fill="none" stroke="black" stroke-width="1"/><text xml:space="preserve" x="116.3" y="544.433" font-family="Calibri" font-size="7.5" fill="rgb(255,255,255)" text-anchor="middle">0.0</text>
<polygon points="126.3,531.6 146.3,531.6 146.3,551.6 126.3,551.6" fill="rgb(24,123,140)"/><polygon points="126.3,531.6 146.3,531.6 146.3,551.6 126.3,551.6" fill="none" stroke="black" stroke-width="1"/><text xml:space="preserve" x="136.3" y="544.433" font-family="Calibri" font-size="7.5" fill="rgb(255,255,255)" text-anchor="middle">0.8</text>
<polygon points="146.3,531.6 166.3,531.6 166.3,551.6 146.3,551.6" fill="rgb(49,219,146)"/><polygon points="146.3,531.6 166.3,531.6 166.3,551.6 146.3,551.6" fill="none" stroke="black" stroke-width="1"/><text xml:space="preserve" x="156.3" y="544.433" font-family="Calibri" font-size="7.5" fill="rgb(0,0,0)" text-anchor="middle">1.5</text>
<polygon points="166.3,531.6 186.3,531.6 186.3,551.6 166.3,551.6" fill="rgb(150,206,73)"/><polygon points="166.3,531.6 186.3,531.6 186.3,551.6 166.3,551.6" fill="none" stroke="black" stroke-width="1"/><text xml:space="preserve" x="176.3" y="544.433" font-family="Calibri" font-size="7.5" fill="rgb(0,0,0)" text-anchor="middle">2.2</text>
<polygon points="186.3,531.6 206.3,531.6 206.3,551.6 186.3,551.6" fill="rgb(252,194,1)"/><polygon points="186.3,531.6 206.3,531.6 206.3,551.6 186.3,551.6" fill="none" stroke="black" stroke-width="1"/><text xml:space="preserve" x="196.3" y="544.433" font-family="Calibri" font-size="7.5" fill="rgb(0,0,0)" text-anchor="middle">3.0</text>
<text xml:space="preserve" x="156.3" y="584.6" font-family="Calibri" font-size="8" text-anchor="middle">PANTHERclass</text>
<polygon points="106.3,591.6 126.3,591.6 126.3,611.6 106.3,611.6" fill="rgb(255,255,255)"/><polygon points="106.3,591.6 126.3,591.6 126.3,611.6 106.3,611.6" fill="none" stroke="black" stroke-width="1"/><text xml:space="preserve" x="116.3" y="604.433" font-family="Calibri" font-size="7.5" fill="rgb(0,0,0)" text-anchor="middle">0.0</text>
<polygon points="126.3,591.6 146.3,591.6 146.3,611.6 126.3,611.6" fill="rgb(242,191,242)"/><polygon points="126.3,591.6 146.3,591.6 146.3,611.6 126.3,611.6" fill="none" stroke="black" stroke-width="1"/><text xml:space="preserve" x="136.3" y="604.433" font-family="Calibri" font-size="7.5" fill="rgb(0,0,0)" text-anchor="middle">0.2</text>
<polygon points="146.3,591.6 166.3,591.6 166.3,611.6 146.3,611.6" fill="rgb(230,127,230)"/><polygon points="146.3,591.6 166.3,591.6 166.3,611.6 146.3,611.6" fill="none" stroke="black" stroke-width="1"/><text xml:space="preserve" x="156.3" y="604.433" font-family="Calibri" font-size="7.5" fill="rgb(0,0,0)" text-anchor="middle">0.5</text>
<polygon points="166.3,591.6 186.3,591.6 186.3,611.6 166.3,611.6" fill="rgb(217,63,217)"/><polygon points="166.3,591.6 186.3,591.6 186.3,611.6 166.3,611.6" fill="none" stroke="black" stroke-width="1"/><text xml:space="preserve" x="176.3" y="604.433" font-family="Calibri" font-size="7.5" fill="rgb(255,255,255)" text-anchor="middle">0.8</text>
<polygon points="186.3,591.6 206.3,591.6 206.3,611.6 186.3,611.6" fill="rgb(205,0,205)"/><polygon points="186.3,591.6 206.3,591.6 206.3,611.6 186.3,611.6" fill="none" stroke="black" stroke-width="1"/><text xml:space="preserve" x="196.3" y="604.433" font-family="Calibri" font-size="7.5" fill="rgb(255,255,255)" text-anchor="middle">1.0</text>
</svg>
