<?xml version="1.0" standalone="no"?><!DOCTYPE svg PUBLIC "-//W3C//DTD SVG 1.1//EN" "http://www.w3.org/Graphics/SVG/1.1/DTD/svg11.dtd">
<svg width="270" height="567.6" version="1.1" xmlns="http://www.w3.org/2000/svg">
<text xml:space="preserve" x="82" y="342.6" font-family="Calibri" font-size="8" text-anchor="end">GCH1</text>
<text xml:space="preserve" x="82" y="350.6" font-family="Calibri" font-size="8" text-anchor="end">VDAC1</text>
<text xml:space="preserve" x="82" y="358.6" font-family="Calibri" font-size="8" text-anchor="end">MSN</text>
<text xml:space="preserve" x="82" y="366.6" font-family="Calibri" font-size="8" text-anchor="end">MUC12</text>
<text xml:space="preserve" x="93" y="331.6" font-family="Calibri" font-size="8" transform="rotate(270 93 331.6)">c1</text>
<text xml:space="preserve" x="101" y="331.6" font-family="Calibri" font-size="8" transform="rotate(270 101 331.6)">c3</text>
<text xml:space="preserve" x="109" y="331.6" font-family="Calibri" font-size="8" transform="rotate(270 109 331.6)">c5</text>
<text xml:space="preserve" x="117" y="331.6" font-family="Calibri" font-size="8" transform="rotate(270 117 331.6)">c4</text>
<text xml:space="preserve" x="125" y="331.6" font-family="Calibri" font-size="8" transform="rotate(270 125 331.6)">c2</text>
<text xml:space="preserve" x="143" y="331.6" font-family="Calibri" font-size="8" transform="rotate(270 143 331.6)">c1_mean</text>
<text xml:space="preserve" x="151" y="331.6" font-family="Calibri" font-size="8" transform="rotate(270 151 331.6)">c3_mean</text>
<text xml:space="preserve" x="159" y="331.6" font-family="Calibri" font-size="8" transform="rotate(270 159 331.6)">c5_mean</text>
<text xml:space="preserve" x="167" y="331.6" font-family="Calibri" font-size="8" transform="rotate(270 167 331.6)">c4_mean</text>
<text xml:space="preserve" x="175" y="331.6" font-family="Calibri" font-size="8" transform="rotate(270 175 331.6)">c2_mean</text>
<text xml:space="preserve" x="193" y="331.6" font-family="Calibri" font-size="8" transform="rotate(270 193 331.6)">transcription_factor</text>
<text xml:space="preserve" x="201" y="331.6" font-family="Calibri" font-size="8" transform="rotate(270 201 331.6)">transmembrane_signal_receptor</text>
<text xml:space="preserve" x="209" y="331.6" font-family="Calibri" font-size="8" transform="rotate(270 209 331.6)">growth_factor</text>
<text xml:space="preserve" x="217" y="331.6" font-family="Calibri" font-size="8" transform="rotate(270 217 331.6)">peptide_hormone</text>
<text xml:space="preserve" x="225" y="331.6" font-family="Calibri" font-size="8" transform="rotate(270 225 331.6)">cytoskeletal_protein</text>
<text xml:space="preserve" x="233" y="331.6" font-family="Calibri" font-size="8" transform="rotate(270 233 331.6)">ion_channel</text>
<text xml:space="preserve" x="241" y="331.6" font-family="Calibri" font-size="8" transform="rotate(270 241 331.6)">integrin</text>
<text xml:space="preserve" x="249" y="331.6" font-family="Calibri" font-size="8" transform="rotate(270 249 331.6)">extracellular_matrix_protein</text>
<polygon points="86,335.6 94,335.6 94,343.6 86,343.6" fill="rgb(230,127,0)"/><text xml:space="preserve" x="90" y="342.433" font-family="Calibri" font-size="7.5" fill="rgb(0,0,0)" text-anchor="middle">4</text>
<polygon points="94,335.6 102,335.6 102,343.6 94,343.6" fill="rgb(230,127,0)"/><text xml:space="preserve" x="98" y="342.433" font-family="Calibri" font-size="7.5" fill="rgb(0,0,0)" text-anchor="middle">4</text>
<polygon points="102,335.6 110,335.6 110,343.6 102,343.6" fill="rgb(127,230,0)"/><text xml:space="preserve" x="106" y="342.433" font-family="Calibri" font-size="7.5" fill="rgb(0,0,0)" text-anchor="middle">2</text>
<polygon points="110,335.6 118,335.6 118,343.6 110,343.6" fill="rgb(230,127,0)"/><text xml:space="preserve" x="114" y="342.433" font-family="Calibri" font-size="7.5" fill="rgb(0,0,0)" text-anchor="middle">4</text>
<polygon points="118,335.6 126,335.6 126,343.6 118,343.6" fill="rgb(230,127,0)"/><text xml:space="preserve" x="122" y="342.433" font-family="Calibri" font-size="7.5" fill="rgb(0,0,0)" text-anchor="middle">4</text>
<polygon points="136,335.6 144,335.6 144,343.6 136,343.6" fill="rgb(32,152,142)"/>
<polygon points="144,335.6 152,335.6 152,343.6 144,343.6" fill="rgb(20,106,139)"/>
<polygon points="152,335.6 160,335.6 160,343.6 152,343.6" fill="rgb(11,70,137)"/>
<polygon points="160,335.6 168,335.6 168,343.6 160,343.6" fill="rgb(37,174,143)"/>
<polygon points="168,335.6 176,335.6 176,343.6 168,343.6" fill="rgb(15,88,138)"/>
<polygon points="186,335.6 194,335.6 194,343.6 186,343.6" fill="rgb(255,255,255)"/>
<polygon points="194,335.6 202,335.6 202,343.6 194,343.6" fill="rgb(255,255,255)"/>
<polygon points="202,335.6 210,335.6 210,343.6 202,343.6" fill="rgb(255,255,255)"/>
<polygon points="210,335.6 218,335.6 218,343.6 210,343.6" fill="rgb(255,255,255)"/>
<polygon points="218,335.6 226,335.6 226,343.6 218,343.6" fill="rgb(255,255,255)"/>
<polygon points="226,335.6 234,335.6 234,343.6 226,343.6" fill="rgb(255,255,255)"/>
<polygon points="234,335.6 242,335.6 242,343.6 234,343.6" fill="rgb(255,255,255)"/>
<polygon points="242,335.6 250,335.6 250,343.6 242,343.6" fill="rgb(255,255,255)"/>
<polygon points="86,343.6 94,343.6 94,351.6 86,351.6" fill="rgb(230,127,0)"/><text xml:space="preserve" x="90" y="350.433" font-family="Calibri" font-size="7.5" fill="rgb(0,0,0)" text-anchor="middle">4</text>
<polygon points="94,343.6 102,343.6 102,351.6 94,351.6" fill="rgb(230,127,0)"/><text xml:space="preserve" x="98" y="350.433" font-family="Calibri" font-size="7.5" fill="rgb(0,0,0)" text-anchor="middle">4</text>
<polygon points="102,343.6 110,343.6 110,351.6 102,351.6" fill="rgb(127,230,0)"/><text xml:space="preserve" x="106" y="350.433" font-family="Calibri" font-size="7.5" fill="rgb(0,0,0)" text-anchor="middle">2</text>
<polygon points="110,343.6 118,343.6 118,351.6 110,351.6" fill="rgb(230,127,0)"/><text xml:space="preserve" x="114" y="350.433" font-family="Calibri" font-size="7.5" fill="rgb(0,0,0)" text-anchor="middle">4</text>
<polygon points="118,343.6 126,343.6 126,351.6 118,351.6" fill="rgb(230,127,0)"/><text xml:space="preserve" x="122" y="350.433" font-family="Calibri" font-size="7.5" fill="rgb(0,0,0)" text-anchor="middle">4</text>
<polygon points="136,343.6 144,343.6 144,351.6 136,351.6" fill="rgb(44,201,144)"/>
<polygon points="144,343.6 152,343.6 152,351.6 144,351.6" fill="rgb(25,128,140)"/>
<polygon points="152,343.6 160,343.6 160,351.6 152,351.6" fill="rgb(9,65,137)"/>
<polygon points="160,343.6 168,343.6 168,351.6 160,351.6" fill="rgb(26,129,140)"/>
<polygon points="168,343.6 176,343.6 176,351.6 168,351.6" fill="rgb(18,98,139)"/>
<polygon points="186,343.6 194,343.6 194,351.6 186,351.6" fill="rgb(255,255,255)"/>
<polygon points="194,343.6 202,343.6 202,351.6 194,351.6" fill="rgb(255,255,255)"/>
<polygon points="202,343.6 210,343.6 210,351.6 202,351.6" fill="rgb(255,255,255)"/>
<polygon points="210,343.6 218,343.6 218,351.6 210,351.6" fill="rgb(255,255,255)"/>
<polygon points="218,343.6 226,343.6 226,351.6 218,351.6" fill="rgb(255,255,255)"/>
<polygon points="226,343.6 234,343.6 234,351.6 226,351.6" fill="rgb(205,0,205)"/>
<polygon points="234,343.6 242,343.6 242,351.6 234,351.6" fill="rgb(255,255,255)"/>
<polygon points="242,343.6 250,343.6 250,351.6 242,351.6" fill="rgb(255,255,255)"/>
<polygon points="86,351.6 94,351.6 94,359.6 86,359.6" fill="rgb(230,127,0)"/><text xml:space="preserve" x="90" y="358.433" font-family="Calibri" font-size="7.5" fill="rgb(0,0,0)" text-anchor="middle">4</text>
<polygon points="94,351.6 102,351.6 102,359.6 94,359.6" fill="rgb(230,127,0)"/><text xml:space="preserve" x="98" y="358.433" font-family="Calibri" font-size="7.5" fill="rgb(0,0,0)" text-anchor="middle">4</text>
<polygon points="102,351.6 110,351.6 110,359.6 102,359.6" fill="rgb(127,230,0)"/><text xml:space="preserve" x="106" y="358.433" font-family="Calibri" font-size="7.5" fill="rgb(0,0,0)" text-anchor="middle">2</text>
<polygon points="110,351.6 118,351.6 118,359.6 110,359.6" fill="rgb(230,127,0)"/><text xml:space="preserve" x="114" y="358.433" font-family="Calibri" font-size="7.5" fill="rgb(0,0,0)" text-anchor="middle">4</text>
<polygon points="118,351.6 126,351.6 126,359.6 118,359.6" fill="rgb(230,127,0)"/><text xml:space="preserve" x="122" y="358.433" font-family="Calibri" font-size="7.5" fill="rgb(0,0,0)" text-anchor="middle">4</text>
<polygon points="136,351.6 144,351.6 144,359.6 136,359.6" fill="rgb(29,143,141)"/>
<polygon points="144,351.6 152,351.6 152,359.6 144,359.6" fill="rgb(23,117,140)"/>
<polygon points="152,351.6 160,351.6 160,359.6 152,359.6" fill="rgb(9,64,137)"/>
<polygon points="160,351.6 168,351.6 168,359.6 160,359.6" fill="rgb(33,160,142)"/>
<polygon points="168,351.6 176,351.6 176,359.6 168,359.6" fill="rgb(27,135,141)"/>
<polygon points="186,351.6 194,351.6 194,359.6 186,359.6" fill="rgb(255,255,255)"/>
<polygon points="194,351.6 202,351.6 202,359.6 194,359.6" fill="rgb(255,255,255)"/>
<polygon points="202,351.6 210,351.6 210,359.6 202,359.6" fill="rgb(255,255,255)"/>
<polygon points="210,351.6 218,351.6 218,359.6 210,359.6" fill="rgb(255,255,255)"/>
<polygon points="218,351.6 226,351.6 226,359.6 218,359.6" fill="rgb(205,0,205)"/>
<polygon points="226,351.6 234,351.6 234,359.6 226,359.6" fill="rgb(255,255,255)"/>
<polygon points="234,351.6 242,351.6 242,359.6 234,359.6" fill="rgb(255,255,255)"/>
<polygon points="242,351.6 250,351.6 250,359.6 242,359.6" fill="rgb(255,255,255)"/>
<polygon points="86,359.6 94,359.6 94,367.6 86,367.6" fill="rgb(230,127,0)"/><text xml:space="preserve" x="90" y="366.433" font-family="Calibri" font-size="7.5" fill="rgb(0,0,0)" text-anchor="middle">4</text>
<polygon points="94,359.6 102,359.6 102,367.6 94,367.6" fill="rgb(230,127,0)"/><text xml:space="preserve" x="98" y="366.433" font-family="Calibri" font-size="7.5" fill="rgb(0,0,0)" text-anchor="middle">4</text>
<polygon points="102,359.6 110,359.6 110,367.6 102,367.6" fill="rgb(127,230,0)"/><text xml:space="preserve" x="106" y="366.433" font-family="Calibri" font-size="7.5" fill="rgb(0,0,0)" text-anchor="middle">2</text>
<polygon points="110,359.6 118,359.6 118,367.6 110,367.6" fill="rgb(230,127,0)"/><text xml:space="preserve" x="114" y="366.433" font-family="Calibri" font-size="7.5" fill="rgb(0,0,0)" text-anchor="middle">4</text>
<polygon points="118,359.6 126,359.6 126,367.6 118,367.6" fill="rgb(230,127,0)"/><text xml:space="preserve" x="122" y="366.433" font-family="Calibri" font-size="7.5" fill="rgb(0,0,0)" text-anchor="middle">4</text>
<polygon points="136,359.6 144,359.6 144,367.6 136,367.6" fill="rgb(34,161,142)"/>
<polygon points="144,359.6 152,359.6 152,367.6 144,367.6" fill="rgb(27,134,141)"/>
<polygon points="152,359.6 160,359.6 160,367.6 152,367.6" fill="rgb(10,69,137)"/>
<polygon points="160,359.6 168,359.6 168,367.6 160,367.6" fill="rgb(20,107,139)"/>
<polygon points="168,359.6 176,359.6 176,367.6 168,367.6" fill="rgb(32,152,142)"/>
<polygon points="186,359.6 194,359.6 194,367.6 186,367.6" fill="rgb(255,255,255)"/>
<polygon points="194,359.6 202,359.6 202,367.6 194,367.6" fill="rgb(255,255,255)"/>
<polygon points="202,359.6 210,359.6 210,367.6 202,367.6" fill="rgb(255,255,255)"/>
<polygon points="210,359.6 218,359.6 218,367.6 210,367.6" fill="rgb(255,255,255)"/>
<polygon points="218,359.6 226,359.6 226,367.6 218,367.6" fill="rgb(255,255,255)"/>
<polygon points="226,359.6 234,359.6 234,367.6 226,367.6" fill="rgb(255,255,255)"/>
<polygon points="234,359.6 242,359.6 242,367.6 234,367.6" fill="rgb(255,255,255)"/>
<polygon points="242,359.6 250,359.6 250,367.6 242,367.6" fill="rgb(255,255,255)"/>
<polygon points="86,335.6 126,335.6 126,367.6 86,367.6" fill="none" stroke="black" stroke-width="1"/>
<polygon points="136,335.6 176,335.6 176,367.6 136,367.6" fill="none" stroke="black" stroke-width="1"/>
<polygon points="186,335.6 250,335.6 250,367.6 186,367.6" fill="none" stroke="black" stroke-width="1"/>
<text xml:space="preserve" x="135" y="400.6" font-family="Calibri" font-size="8" text-anchor="middle">ClusterAssignment</text>
<polygon points="85,407.6 105,407.6 105,427.6 85,427.6" fill="rgb(0,205,0)"/><polygon points="85,407.6 105,407.6 105,427.6 85,427.6" fill="none" stroke="black" stroke-width="1"/><text xml:space="preserve" x="95" y="420.433" font-family="Calibri" font-size="7.5" fill="rgb(255,255,255)" text-anchor="middle">1.0</text>
<polygon points="105,407.6 125,407.6 125,427.6 105,427.6" fill="rgb(127,230,0)"/><polygon points="105,407.6 125,407.6 125,427.6 105,427.6" fill="none" stroke="black" stroke-width="1"/><text xml:space="preserve" x="115" y="420.433" font-family="Calibri" font-size="7.5" fill="rgb(0,0,0)" text-anchor="middle">2.0</text>
<polygon points="125,407.6 145,407.6 145,427.6 125,427.6" fill="rgb(255,255,0)"/><polygon points="125,407.6 145,407.6 145,427.6 125,427.6" fill="none" stroke="black" stroke-width="1"/><text xml:space="preserve" x="135" y="420.433" font-family="Calibri" font-size="7.5" fill="rgb(0,0,0)" text-anchor="middle">3.0</text>
<polygon points="145,407.6 165,407.6 165,427.6 145,427.6" fill="rgb(230,127,0)"/><polygon points="145,407.6 165,407.6 165,427.6 145,427.6" fill="none" stroke="black" stroke-width="1"/><text xml:space="preserve" x="155" y="420.433" font-family="Calibri" font-size="7.5" fill="rgb(0,0,0)" text-anchor="middle">4.0</text>
<polygon points="165,407.6 185,407.6 185,427.6 165,427.6" fill="rgb(205,0,0)"/><polygon points="165,407.6 185,407.6 185,427.6 165,427.6" fill="none" stroke="black" stroke-width="1"/><text xml:space="preserve" x="175" y="420.433" font-family="Calibri" font-size="7.5" fill="rgb(255,255,255)" text-anchor="middle">5.0</text>
<text xml:space="preserve" x="135" y="460.6" font-family="Calibri" font-size="8" text-anchor="middle">Expression</text>
<polygon points="85,467.6 105,467.6 105,487.6 85,487.6" fill="rgb(0,27,135)"/><polygon points="85,467.6 105,467.6 105,487.6 85,487.6" fill="none" stroke="black" stroke-width="1"/><text xml:space="preserve" x="95" y="480.433" font-family="Calibri" font-size="7.5" fill="rgb(255,255,255)" text-anchor="middle">0.0</text>
<polygon points="105,467.6 125,467.6 125,487.6 105,487.6" fill="rgb(24,123,140)"/><polygon points="105,467.6 125,467.6 125,487.6 105,487.6" fill="none" stroke="black" stroke-width="1"/><text xml:space="preserve" x="115" y="480.433" font-family="Calibri" font-size="7.5" fill="rgb(255,255,255)" text-anchor="middle">0.8</text>
<polygon points="125,467.6 145,467.6 145,487.6 125,487.6" fill="rgb(49,219,146)"/><polygon points="125,467.6 145,467.6 145,487.6 125,487.6" fill="none" stroke="black" stroke-width="1"/><text xml:space="preserve" x="135" y="480.433" font-family="Calibri" font-size="7.5" fill="rgb(0,0,0)" text-anchor="middle">1.5</text>
<polygon points="145,467.6 165,467.6 165,487.6 145,487.6" fill="rgb(150,206,73)"/><polygon points="145,467.6 165,467.6 165,487.6 145,487.6" fill="none" stroke="black" stroke-width="1"/><text xml:space="preserve" x="155" y="480.433" font-family="Calibri" font-size="7.5" fill="rgb(0,0,0)" text-anchor="middle">2.2</text>
<polygon points="165,467.6 185,467.6 185,487.6 165,487.6" fill="rgb(252,194,1)"/><polygon points="165,467.6 185,467.6 185,487.6 165,487.6" fill="none" stroke="black" stroke-width="1"/><text xml:space="preserve" x="175" y="480.433" font-family="Calibri" font-size="7.5" fill="rgb(0,0,0)" text-anchor="middle">3.0</text>
<text xml:space="preserve" x="135" y="520.6" font-family="Calibri" font-size="8" text-anchor="middle">PANTHERclass</text>
<polygon points="85,527.6 105,527.6 105,547.6 85,547.6" fill="rgb(255,255,255)"/><polygon points="85,527.6 105,527.6 105,547.6 85,547.6" fill="none" stroke="black" stroke-width="1"/><text xml:space="preserve" x="95" y="540.433" font-family="Calibri" font-size="7.5" fill="rgb(0,0,0)" text-anchor="middle">0.0</text>
<polygon points="105,527.6 125,527.6 125,547.6 105,547.6" fill="rgb(242,191,242)"/><polygon points="105,527.6 125,527.6 125,547.6 105,547.6" fill="none" stroke="black" stroke-width="1"/><text xml:space="preserve" x="115" y="540.433" font-family="Calibri" font-size="7.5" fill="rgb(0,0,0)" text-anchor="middle">0.2</text>
<polygon points="125,527.6 145,527.6 145,547.6 125,547.6" fill="rgb(230,127,230)"/><polygon points="125,527.6 145,527.6 145,547.6 125,547.6" fill="none" stroke="black" stroke-width="1"/><text xml:space="preserve" x="135" y="540.433" font-family="Calibri" font-size="7.5" fill="rgb(0,0,0)" text-anchor="middle">0.5</text>
<polygon points="145,527.6 165,527.6 165,547.6 145,547.6" fill="rgb(217,63,217)"/><polygon points="145,527.6 165,527.6 165,547.6 145,547.6" fill="none" stroke="black" stroke-width="1"/><text xml:space="preserve" x="155" y="540.433" font-family="Calibri" font-size="7.5" fill="rgb(255,255,255)" text-anchor="middle">0.8</text>
<polygon points="165,527.6 185,527.6 185,547.6 165,547.6" fill="rgb(205,0,205)"/><polygon points="165,527.6 185,527.6 185,547.6 165,547.6" fill="none" stroke="black" stroke-width="1"/><text xml:space="preserve" x="175" y="540.433" font-family="Calibri" font-size="7.5" fill="rgb(255,255,255)" text-anchor="middle">1.0</text>
</svg>
