<?xml version="1.0" standalone="no"?><!DOCTYPE svg PUBLIC "-//W3C//DTD SVG 1.1//EN" "http://www.w3.org/Graphics/SVG/1.1/DTD/svg11.dtd">
<svg width="292.8" height="599.6" version="1.1" xmlns="http://www.w3.org/2000/svg">
<text xml:space="preserve" x="104.8" y="342.6" font-family="Calibri" font-size="8" text-anchor="end">DOC2B</text>
<text xml:space="preserve" x="104.8" y="350.6" font-family="Calibri" font-size="8" text-anchor="end">KIAA0040</text>
<text xml:space="preserve" x="104.8" y="358.6" font-family="Calibri" font-size="8" text-anchor="end">MUC4</text>
<text xml:space="preserve" x="104.8" y="366.6" font-family="Calibri" font-size="8" text-anchor="end">EPAS1</text>
<text xml:space="preserve" x="104.8" y="374.6" font-family="Calibri" font-size="8" text-anchor="end">SALL3</text>
<text xml:space="preserve" x="104.8" y="382.6" font-family="Calibri" font-size="8" text-anchor="end">GABRB2</text>
<text xml:space="preserve" x="104.8" y="390.6" font-family="Calibri" font-size="8" text-anchor="end">RARB</text>
<text xml:space="preserve" x="104.8" y="398.6" font-family="Calibri" font-size="8" text-anchor="end">GABRA5</text>
<text xml:space="preserve" x="115.8" y="331.6" font-family="Calibri" font-size="8" transform="rotate(270 115.8 331.6)">c1</text>
<text xml:space="preserve" x="123.8" y="331.6" font-family="Calibri" font-size="8" transform="rotate(270 123.8 331.6)">c3</text>
<text xml:space="preserve" x="131.8" y="331.6" font-family="Calibri" font-size="8" transform="rotate(270 131.8 331.6)">c5</text>
<text xml:space="preserve" x="139.8" y="331.6" font-family="Calibri" font-size="8" transform="rotate(270 139.8 331.6)">c4</text>
<text xml:space="preserve" x="147.8" y="331.6" font-family="Calibri" font-size="8" transform="rotate(270 147.8 331.6)">c2</text>
<text xml:space="preserve" x="165.8" y="331.6" font-family="Calibri" font-size="8" transform="rotate(270 165.8 331.6)">c1_mean</text>
<text xml:space="preserve" x="173.8" y="331.6" font-family="Calibri" font-size="8" transform="rotate(270 173.8 331.6)">c3_mean</text>
<text xml:space="preserve" x="181.8" y="331.6" font-family="Calibri" font-size="8" transform="rotate(270 181.8 331.6)">c5_mean</text>
<text xml:space="preserve" x="189.8" y="331.6" font-family="Calibri" font-size="8" transform="rotate(270 189.8 331.6)">c4_mean</text>
<text xml:space="preserve" x="197.8" y="331.6" font-family="Calibri" font-size="8" transform="rotate(270 197.8 331.6)">c2_mean</text>
<text xml:space="preserve" x="215.8" y="331.6" font-family="Calibri" font-size="8" transform="rotate(270 215.8 331.6)">transcription_factor</text>
<text xml:space="preserve" x="223.8" y="331.6" font-family="Calibri" font-size="8" transform="rotate(270 223.8 331.6)">transmembrane_signal_receptor</text>
<text xml:space="preserve" x="231.8" y="331.6" font-family="Calibri" font-size="8" transform="rotate(270 231.8 331.6)">growth_factor</text>
<text xml:space="preserve" x="239.8" y="331.6" font-family="Calibri" font-size="8" transform="rotate(270 239.8 331.6)">peptide_hormone</text>
<text xml:space="preserve" x="247.8" y="331.6" font-family="Calibri" font-size="8" transform="rotate(270 247.8 331.6)">cytoskeletal_protein</text>
<text xml:space="preserve" x="255.8" y="331.6" font-family="Calibri" font-size="8" transform="rotate(270 255.8 331.6)">ion_channel</text>
<text xml:space="preserve" x="263.8" y="331.6" font-family="Calibri" font-size="8" transform="rotate(270 263.8 331.6)">integrin</text>
<text xml:space="preserve" x="271.8" y="331.6" font-family="Calibri" font-size="8" transform="rotate(270 271.8 331.6)">extracellular_matrix_protein</text>
<polygon points="108.8,335.6 116.8,335.6 116.8,343.6 108.8,343.6" fill="rgb(230,127,0)"/><text xml:space="preserve" x="112.8" y="342.433" font-family="Calibri" font-size="7.5" fill="rgb(0,0,0)" text-anchor="middle">4</text>
<polygon points="116.8,335.6 124.8,335.6 124.8,343.6 116.8,343.6" fill="rgb(230,127,0)"/><text xml:space="preserve" x="120.8" y="342.433" font-family="Calibri" font-size="7.5" fill="rgb(0,0,0)" text-anchor="middle">4</text>
<polygon points="124.8,335.6 132.8,335.6 132.8,343.6 124.8,343.6" fill="rgb(127,230,0)"/><text xml:space="preserve" x="128.8" y="342.433" font-family="Calibri" font-size="7.5" fill="rgb(0,0,0)" text-anchor="middle">2</text>
<polygon points="132.8,335.6 140.8,335.6 140.8,343.6 132.8,343.6" fill="rgb(0,205,0)"/><text xml:space="preserve" x="136.8" y="342.433" font-family="Calibri" font-size="7.5" fill="rgb(255,255,255)" text-anchor="middle">1</text>
<polygon points="140.8,335.6 148.8,335.6 148.8,343.6 140.8,343.6" fill="rgb(0,205,0)"/><text xml:space="preserve" x="144.8" y="342.433" font-family="Calibri" font-size="7.5" fill="rgb(255,255,255)" text-anchor="middle">1</text>
<polygon points="158.8,335.6 166.8,335.6 166.8,343.6 158.8,343.6" fill="rgb(39,183,143)"/>
<polygon points="166.8,335.6 174.8,335.6 174.8,343.6 166.8,343.6" fill="rgb(30,144,141)"/>
<polygon points="174.8,335.6 182.8,335.6 182.8,343.6 174.8,343.6" fill="rgb(11,70,137)"/>
<polygon points="182.8,335.6 190.8,335.6 190.8,343.6 182.8,343.6" fill="rgb(9,64,137)"/>
<polygon points="190.8,335.6 198.8,335.6 198.8,343.6 190.8,343.6" fill="rgb(7,57,136)"/>
<polygon points="208.8,335.6 216.8,335.6 216.8,343.6 208.8,343.6" fill="rgb(255,255,255)"/>
<polygon points="216.8,335.6 224.8,335.6 224.8,343.6 216.8,343.6" fill="rgb(255,255,255)"/>
<polygon points="224.8,335.6 232.8,335.6 232.8,343.6 224.8,343.6" fill="rgb(255,255,255)"/>
<polygon points="232.8,335.6 240.8,335.6 240.8,343.6 232.8,343.6" fill="rgb(255,255,255)"/>
<polygon points="240.8,335.6 248.8,335.6 248.8,343.6 240.8,343.6" fill="rgb(255,255,255)"/>
<polygon points="248.8,335.6 256.8,335.6 256.8,343.6 248.8,343.6" fill="rgb(255,255,255)"/>
<polygon points="256.8,335.6 264.8,335.6 264.8,343.6 256.8,343.6" fill="rgb(255,255,255)"/>
<polygon points="264.8,335.6 272.8,335.6 272.8,343.6 264.8,343.6" fill="rgb(255,255,255)"/>
<polygon points="108.8,343.6 116.8,343.6 116.8,351.6 108.8,351.6" fill="rgb(230,127,0)"/><text xml:space="preserve" x="112.8" y="350.433" font-family="Calibri" font-size="7.5" fill="rgb(0,0,0)" text-anchor="middle">4</text>
<polygon points="116.8,343.6 124.8,343.6 124.8,351.6 116.8,351.6" fill="rgb(230,127,0)"/><text xml:space="preserve" x="120.8" y="350.433" font-family="Calibri" font-size="7.5" fill="rgb(0,0,0)" text-anchor="middle">4</text>
<polygon points="124.8,343.6 132.8,343.6 132.8,351.6 124.8,351.6" fill="rgb(127,230,0)"/><text xml:space="preserve" x="128.8" y="350.433" font-family="Calibri" font-size="7.5" fill="rgb(0,0,0)" text-anchor="middle">2</text>
<polygon points="132.8,343.6 140.8,343.6 140.8,351.6 132.8,351.6" fill="rgb(0,205,0)"/><text xml:space="preserve" x="136.8" y="350.433" font-family="Calibri" font-size="7.5" fill="rgb(255,255,255)" text-anchor="middle">1</text>
<polygon points="140.8,343.6 148.8,343.6 148.8,351.6 140.8,351.6" fill="rgb(0,205,0)"/><text xml:space="preserve" x="144.8" y="350.433" font-family="Calibri" font-size="7.5" fill="rgb(255,255,255)" text-anchor="middle">1</text>
<polygon points="158.8,343.6 166.8,343.6 166.8,351.6 158.8,351.6" fill="rgb(32,152,142)"/>
<polygon points="166.8,343.6 174.8,343.6 174.8,351.6 166.8,351.6" fill="rgb(29,143,141)"/>
<polygon points="174.8,343.6 182.8,343.6 182.8,351.6 174.8,351.6" fill="rgb(2,35,135)"/>
<polygon points="182.8,343.6 190.8,343.6 190.8,351.6 182.8,351.6" fill="rgb(0,28,135)"/>
<polygon points="190.8,343.6 198.8,343.6 198.8,351.6 190.8,351.6" fill="rgb(6,51,136)"/>
<polygon points="208.8,343.6 216.8,343.6 216.8,351.6 208.8,351.6" fill="rgb(255,255,255)"/>
<polygon points="216.8,343.6 224.8,343.6 224.8,351.6 216.8,351.6" fill="rgb(255,255,255)"/>
<polygon points="224.8,343.6 232.8,343.6 232.8,351.6 224.8,351.6" fill="rgb(255,255,255)"/>
<polygon points="232.8,343.6 240.8,343.6 240.8,351.6 232.8,351.6" fill="rgb(255,255,255)"/>
<polygon points="240.8,343.6 248.8,343.6 248.8,351.6 240.8,351.6" fill="rgb(255,255,255)"/>
<polygon points="248.8,343.6 256.8,343.6 256.8,351.6 248.8,351.6" fill="rgb(255,255,255)"/>
<polygon points="256.8,343.6 264.8,343.6 264.8,351.6 256.8,351.6" fill="rgb(255,255,255)"/>
<polygon points="264.8,343.6 272.8,343.6 272.8,351.6 264.8,351.6" fill="rgb(255,255,255)"/>
<polygon points="108.8,351.6 116.8,351.6 116.8,359.6 108.8,359.6" fill="rgb(230,127,0)"/><text xml:space="preserve" x="112.8" y="358.433" font-family="Calibri" font-size="7.5" fill="rgb(0,0,0)" text-anchor="middle">4</text>
<polygon points="116.8,351.6 124.8,351.6 124.8,359.6 116.8,359.6" fill="rgb(230,127,0)"/><text xml:space="preserve" x="120.8" y="358.433" font-family="Calibri" font-size="7.5" fill="rgb(0,0,0)" text-anchor="middle">4</text>
<polygon points="124.8,351.6 132.8,351.6 132.8,359.6 124.8,359.6" fill="rgb(127,230,0)"/><text xml:space="preserve" x="128.8" y="358.433" font-family="Calibri" font-size="7.5" fill="rgb(0,0,0)" text-anchor="middle">2</text>
<polygon points="132.8,351.6 140.8,351.6 140.8,359.6 132.8,359.6" fill="rgb(0,205,0)"/><text xml:space="preserve" x="136.8" y="358.433" font-family="Calibri" font-size="7.5" fill="rgb(255,255,255)" text-anchor="middle">1</text>
<polygon points="140.8,351.6 148.8,351.6 148.8,359.6 140.8,359.6" fill="rgb(0,205,0)"/><text xml:space="preserve" x="144.8" y="358.433" font-family="Calibri" font-size="7.5" fill="rgb(255,255,255)" text-anchor="middle">1</text>
<polygon points="158.8,351.6 166.8,351.6 166.8,359.6 158.8,359.6" fill="rgb(31,149,142)"/>
<polygon points="166.8,351.6 174.8,351.6 174.8,359.6 166.8,359.6" fill="rgb(24,121,140)"/>
<polygon points="174.8,351.6 182.8,351.6 182.8,359.6 174.8,359.6" fill="rgb(2,37,135)"/>
<polygon points="182.8,351.6 190.8,351.6 190.8,359.6 182.8,359.6" fill="rgb(2,37,135)"/>
<polygon points="190.8,351.6 198.8,351.6 198.8,359.6 190.8,359.6" fill="rgb(3,41,135)"/>
<polygon points="208.8,351.6 216.8,351.6 216.8,359.6 208.8,359.6" fill="rgb(255,255,255)"/>
<polygon points="216.8,351.6 224.8,351.6 224.8,359.6 216.8,359.6" fill="rgb(255,255,255)"/>
<polygon points="224.8,351.6 232.8,351.6 232.8,359.6 224.8,359.6" fill="rgb(255,255,255)"/>
<polygon points="232.8,351.6 240.8,351.6 240.8,359.6 232.8,359.6" fill="rgb(255,255,255)"/>
<polygon points="240.8,351.6 248.8,351.6 248.8,359.6 240.8,359.6" fill="rgb(255,255,255)"/>
<polygon points="248.8,351.6 256.8,351.6 256.8,359.6 248.8,359.6" fill="rgb(255,255,255)"/>
<polygon points="256.8,351.6 264.8,351.6 264.8,359.6 256.8,359.6" fill="rgb(255,255,255)"/>
<polygon points="264.8,351.6 272.8,351.6 272.8,359.6 264.8,359.6" fill="rgb(205,0,205)"/>
<polygon points="108.8,359.6 116.8,359.6 116.8,367.6 108.8,367.6" fill="rgb(230,127,0)"/><text xml:space="preserve" x="112.8" y="366.433" font-family="Calibri" font-size="7.5" fill="rgb(0,0,0)" text-anchor="middle">4</text>
<polygon points="116.8,359.6 124.8,359.6 124.8,367.6 116.8,367.6" fill="rgb(230,127,0)"/><text xml:space="preserve" x="120.8" y="366.433" font-family="Calibri" font-size="7.5" fill="rgb(0,0,0)" text-anchor="middle">4</text>
<polygon points="124.8,359.6 132.8,359.6 132.8,367.6 124.8,367.6" fill="rgb(127,230,0)"/><text xml:space="preserve" x="128.8" y="366.433" font-family="Calibri" font-size="7.5" fill="rgb(0,0,0)" text-anchor="middle">2</text>
<polygon points="132.8,359.6 140.8,359.6 140.8,367.6 132.8,367.6" fill="rgb(0,205,0)"/><text xml:space="preserve" x="136.8" y="366.433" font-family="Calibri" font-size="7.5" fill="rgb(255,255,255)" text-anchor="middle">1</text>
<polygon points="140.8,359.6 148.8,359.6 148.8,367.6 140.8,367.6" fill="rgb(0,205,0)"/><text xml:space="preserve" x="144.8" y="366.433" font-family="Calibri" font-size="7.5" fill="rgb(255,255,255)" text-anchor="middle">1</text>
<polygon points="158.8,359.6 166.8,359.6 166.8,367.6 158.8,367.6" fill="rgb(47,213,145)"/>
<polygon points="166.8,359.6 174.8,359.6 174.8,367.6 166.8,367.6" fill="rgb(21,111,139)"/>
<polygon points="174.8,359.6 182.8,359.6 182.8,367.6 174.8,367.6" fill="rgb(2,37,135)"/>
<polygon points="182.8,359.6 190.8,359.6 190.8,367.6 182.8,367.6" fill="rgb(0,28,135)"/>
<polygon points="190.8,359.6 198.8,359.6 198.8,367.6 190.8,367.6" fill="rgb(2,38,135)"/>
<polygon points="208.8,359.6 216.8,359.6 216.8,367.6 208.8,367.6" fill="rgb(205,0,205)"/>
<polygon points="216.8,359.6 224.8,359.6 224.8,367.6 216.8,367.6" fill="rgb(255,255,255)"/>
<polygon points="224.8,359.6 232.8,359.6 232.8,367.6 224.8,367.6" fill="rgb(255,255,255)"/>
<polygon points="232.8,359.6 240.8,359.6 240.8,367.6 232.8,367.6" fill="rgb(255,255,255)"/>
<polygon points="240.8,359.6 248.8,359.6 248.8,367.6 240.8,367.6" fill="rgb(255,255,255)"/>
<polygon points="248.8,359.6 256.8,359.6 256.8,367.6 248.8,367.6" fill="rgb(255,255,255)"/>
<polygon points="256.8,359.6 264.8,359.6 264.8,367.6 256.8,367.6" fill="rgb(255,255,255)"/>
<polygon points="264.8,359.6 272.8,359.6 272.8,367.6 264.8,367.6" fill="rgb(255,255,255)"/>
<polygon points="108.8,367.6 116.8,367.6 116.8,375.6 108.8,375.6" fill="rgb(230,127,0)"/><text xml:space="preserve" x="112.8" y="374.433" font-family="Calibri" font-size="7.5" fill="rgb(0,0,0)" text-anchor="middle">4</text>
<polygon points="116.8,367.6 124.8,367.6 124.8,375.6 116.8,375.6" fill="rgb(230,127,0)"/><text xml:space="preserve" x="120.8" y="374.433" font-family="Calibri" font-size="7.5" fill="rgb(0,0,0)" text-anchor="middle">4</text>
<polygon points="124.8,367.6 132.8,367.6 132.8,375.6 124.8,375.6" fill="rgb(127,230,0)"/><text xml:space="preserve" x="128.8" y="374.433" font-family="Calibri" font-size="7.5" fill="rgb(0,0,0)" text-anchor="middle">2</text>
<polygon points="132.8,367.6 140.8,367.6 140.8,375.6 132.8,375.6" fill="rgb(0,205,0)"/><text xml:space="preserve" x="136.8" y="374.433" font-family="Calibri" font-size="7.5" fill="rgb(255,255,255)" text-anchor="middle">1</text>
<polygon points="140.8,367.6 148.8,367.6 148.8,375.6 140.8,375.6" fill="rgb(0,205,0)"/><text xml:space="preserve" x="144.8" y="374.433" font-family="Calibri" font-size="7.5" fill="rgb(255,255,255)" text-anchor="middle">1</text>
<polygon points="158.8,367.6 166.8,367.6 166.8,375.6 158.8,375.6" fill="rgb(21,112,139)"/>
<polygon points="166.8,367.6 174.8,367.6 174.8,375.6 166.8,375.6" fill="rgb(21,110,139)"/>
<polygon points="174.8,367.6 182.8,367.6 182.8,375.6 174.8,375.6" fill="rgb(13,80,138)"/>
<polygon points="182.8,367.6 190.8,367.6 190.8,375.6 182.8,375.6" fill="rgb(2,35,135)"/>
<polygon points="190.8,367.6 198.8,367.6 198.8,375.6 190.8,375.6" fill="rgb(3,41,135)"/>
<polygon points="208.8,367.6 216.8,367.6 216.8,375.6 208.8,375.6" fill="rgb(205,0,205)"/>
<polygon points="216.8,367.6 224.8,367.6 224.8,375.6 216.8,375.6" fill="rgb(255,255,255)"/>
<polygon points="224.8,367.6 232.8,367.6 232.8,375.6 224.8,375.6" fill="rgb(255,255,255)"/>
<polygon points="232.8,367.6 240.8,367.6 240.8,375.6 232.8,375.6" fill="rgb(255,255,255)"/>
<polygon points="240.8,367.6 248.8,367.6 248.8,375.6 240.8,375.6" fill="rgb(255,255,255)"/>
<polygon points="248.8,367.6 256.8,367.6 256.8,375.6 248.8,375.6" fill="rgb(255,255,255)"/>
<polygon points="256.8,367.6 264.8,367.6 264.8,375.6 256.8,375.6" fill="rgb(255,255,255)"/>
<polygon points="264.8,367.6 272.8,367.6 272.8,375.6 264.8,375.6" fill="rgb(255,255,255)"/>
<polygon points="108.8,375.6 116.8,375.6 116.8,383.6 108.8,383.6" fill="rgb(230,127,0)"/><text xml:space="preserve" x="112.8" y="382.433" font-family="Calibri" font-size="7.5" fill="rgb(0,0,0)" text-anchor="middle">4</text>
<polygon points="116.8,375.6 124.8,375.6 124.8,383.6 116.8,383.6" fill="rgb(230,127,0)"/><text xml:space="preserve" x="120.8" y="382.433" font-family="Calibri" font-size="7.5" fill="rgb(0,0,0)" text-anchor="middle">4</text>
<polygon points="124.8,375.6 132.8,375.6 132.8,383.6 124.8,383.6" fill="rgb(127,230,0)"/><text xml:space="preserve" x="128.8" y="382.433" font-family="Calibri" font-size="7.5" fill="rgb(0,0,0)" text-anchor="middle">2</text>
<polygon points="132.8,375.6 140.8,375.6 140.8,383.6 132.8,383.6" fill="rgb(0,205,0)"/><text xml:space="preserve" x="136.8" y="382.433" font-family="Calibri" font-size="7.5" fill="rgb(255,255,255)" text-anchor="middle">1</text>
<polygon points="140.8,375.6 148.8,375.6 148.8,383.6 140.8,383.6" fill="rgb(0,205,0)"/><text xml:space="preserve" x="144.8" y="382.433" font-family="Calibri" font-size="7.5" fill="rgb(255,255,255)" text-anchor="middle">1</text>
<polygon points="158.8,375.6 166.8,375.6 166.8,383.6 158.8,383.6" fill="rgb(31,148,141)"/>
<polygon points="166.8,375.6 174.8,375.6 174.8,383.6 166.8,383.6" fill="rgb(30,147,141)"/>
<polygon points="174.8,375.6 182.8,375.6 182.8,383.6 174.8,383.6" fill="rgb(12,74,137)"/>
<polygon points="182.8,375.6 190.8,375.6 190.8,383.6 182.8,383.6" fill="rgb(3,41,135)"/>
<polygon points="190.8,375.6 198.8,375.6 198.8,383.6 190.8,383.6" fill="rgb(5,47,136)"/>
<polygon points="208.8,375.6 216.8,375.6 216.8,383.6 208.8,383.6" fill="rgb(255,255,255)"/>
<polygon points="216.8,375.6 224.8,375.6 224.8,383.6 216.8,383.6" fill="rgb(205,0,205)"/>
<polygon points="224.8,375.6 232.8,375.6 232.8,383.6 224.8,383.6" fill="rgb(255,255,255)"/>
<polygon points="232.8,375.6 240.8,375.6 240.8,383.6 232.8,383.6" fill="rgb(255,255,255)"/>
<polygon points="240.8,375.6 248.8,375.6 248.8,383.6 240.8,383.6" fill="rgb(255,255,255)"/>
<polygon points="248.8,375.6 256.8,375.6 256.8,383.6 248.8,383.6" fill="rgb(205,0,205)"/>
<polygon points="256.8,375.6 264.8,375.6 264.8,383.6 256.8,383.6" fill="rgb(255,255,255)"/>
<polygon points="264.8,375.6 272.8,375.6 272.8,383.6 264.8,383.6" fill="rgb(255,255,255)"/>
<polygon points="108.8,383.6 116.8,383.6 116.8,391.6 108.8,391.6" fill="rgb(230,127,0)"/><text xml:space="preserve" x="112.8" y="390.433" font-family="Calibri" font-size="7.5" fill="rgb(0,0,0)" text-anchor="middle">4</text>
<polygon points="116.8,383.6 124.8,383.6 124.8,391.6 116.8,391.6" fill="rgb(230,127,0)"/><text xml:space="preserve" x="120.8" y="390.433" font-family="Calibri" font-size="7.5" fill="rgb(0,0,0)" text-anchor="middle">4</text>
<polygon points="124.8,383.6 132.8,383.6 132.8,391.6 124.8,391.6" fill="rgb(127,230,0)"/><text xml:space="preserve" x="128.8" y="390.433" font-family="Calibri" font-size="7.5" fill="rgb(0,0,0)" text-anchor="middle">2</text>
<polygon points="132.8,383.6 140.8,383.6 140.8,391.6 132.8,391.6" fill="rgb(0,205,0)"/><text xml:space="preserve" x="136.8" y="390.433" font-family="Calibri" font-size="7.5" fill="rgb(255,255,255)" text-anchor="middle">1</text>
<polygon points="140.8,383.6 148.8,383.6 148.8,391.6 140.8,391.6" fill="rgb(0,205,0)"/><text xml:space="preserve" x="144.8" y="390.433" font-family="Calibri" font-size="7.5" fill="rgb(255,255,255)" text-anchor="middle">1</text>
<polygon points="158.8,383.6 166.8,383.6 166.8,391.6 158.8,391.6" fill="rgb(27,133,141)"/>
<polygon points="166.8,383.6 174.8,383.6 174.8,391.6 166.8,391.6" fill="rgb(24,124,140)"/>
<polygon points="174.8,383.6 182.8,383.6 182.8,391.6 174.8,391.6" fill="rgb(10,67,137)"/>
<polygon points="182.8,383.6 190.8,383.6 190.8,391.6 182.8,391.6" fill="rgb(8,59,136)"/>
<polygon points="190.8,383.6 198.8,383.6 198.8,391.6 190.8,391.6" fill="rgb(7,55,136)"/>
<polygon points="208.8,383.6 216.8,383.6 216.8,391.6 208.8,391.6" fill="rgb(205,0,205)"/>
<polygon points="216.8,383.6 224.8,383.6 224.8,391.6 216.8,391.6" fill="rgb(255,255,255)"/>
<polygon points="224.8,383.6 232.8,383.6 232.8,391.6 224.8,391.6" fill="rgb(255,255,255)"/>
<polygon points="232.8,383.6 240.8,383.6 240.8,391.6 232.8,391.6" fill="rgb(255,255,255)"/>
<polygon points="240.8,383.6 248.8,383.6 248.8,391.6 240.8,391.6" fill="rgb(255,255,255)"/>
<polygon points="248.8,383.6 256.8,383.6 256.8,391.6 248.8,391.6" fill="rgb(255,255,255)"/>
<polygon points="256.8,383.6 264.8,383.6 264.8,391.6 256.8,391.6" fill="rgb(255,255,255)"/>
<polygon points="264.8,383.6 272.8,383.6 272.8,391.6 264.8,391.6" fill="rgb(255,255,255)"/>
<polygon points="108.8,391.6 116.8,391.6 116.8,399.6 108.8,399.6" fill="rgb(230,127,0)"/><text xml:space="preserve" x="112.8" y="398.433" font-family="Calibri" font-size="7.5" fill="rgb(0,0,0)" text-anchor="middle">4</text>
<polygon points="116.8,391.6 124.8,391.6 124.8,399.6 116.8,399.6" fill="rgb(230,127,0)"/><text xml:space="preserve" x="120.8" y="398.433" font-family="Calibri" font-size="7.5" fill="rgb(0,0,0)" text-anchor="middle">4</text>
<polygon points="124.8,391.6 132.8,391.6 132.8,399.6 124.8,399.6" fill="rgb(127,230,0)"/><text xml:space="preserve" x="128.8" y="398.433" font-family="Calibri" font-size="7.5" fill="rgb(0,0,0)" text-anchor="middle">2</text>
<polygon points="132.8,391.6 140.8,391.6 140.8,399.6 132.8,399.6" fill="rgb(0,205,0)"/><text xml:space="preserve" x="136.8" y="398.433" font-family="Calibri" font-size="7.5" fill="rgb(255,255,255)" text-anchor="middle">1</text>
<polygon points="140.8,391.6 148.8,391.6 148.8,399.6 140.8,399.6" fill="rgb(0,205,0)"/><text xml:space="preserve" x="144.8" y="398.433" font-family="Calibri" font-size="7.5" fill="rgb(255,255,255)" text-anchor="middle">1</text>
<polygon points="158.8,391.6 166.8,391.6 166.8,399.6 158.8,399.6" fill="rgb(30,147,141)"/>
<polygon points="166.8,391.6 174.8,391.6 174.8,399.6 166.8,399.6" fill="rgb(20,107,139)"/>
<polygon points="174.8,391.6 182.8,391.6 182.8,399.6 174.8,399.6" fill="rgb(11,71,137)"/>
<polygon points="182.8,391.6 190.8,391.6 190.8,399.6 182.8,399.6" fill="rgb(6,52,136)"/>
<polygon points="190.8,391.6 198.8,391.6 198.8,399.6 190.8,399.6" fill="rgb(8,61,136)"/>
<polygon points="208.8,391.6 216.8,391.6 216.8,399.6 208.8,399.6" fill="rgb(255,255,255)"/>
<polygon points="216.8,391.6 224.8,391.6 224.8,399.6 216.8,399.6" fill="rgb(205,0,205)"/>
<polygon points="224.8,391.6 232.8,391.6 232.8,399.6 224.8,399.6" fill="rgb(255,255,255)"/>
<polygon points="232.8,391.6 240.8,391.6 240.8,399.6 232.8,399.6" fill="rgb(255,255,255)"/>
<polygon points="240.8,391.6 248.8,391.6 248.8,399.6 240.8,399.6" fill="rgb(255,255,255)"/>
<polygon points="248.8,391.6 256.8,391.6 256.8,399.6 248.8,399.6" fill="rgb(205,0,205)"/>
<polygon points="256.8,391.6 264.8,391.6 264.8,399.6 256.8,399.6" fill="rgb(255,255,255)"/>
<polygon points="264.8,391.6 272.8,391.6 272.8,399.6 264.8,399.6" fill="rgb(255,255,255)"/>
<polygon points="108.8,335.6 148.8,335.6 148.8,399.6 108.8,399.6" fill="none" stroke="black" stroke-width="1"/>
<polygon points="158.8,335.6 198.8,335.6 198.8,399.6 158.8,399.6" fill="none" stroke="black" stroke-width="1"/>
<polygon points="208.8,335.6 272.8,335.6 272.8,399.6 208.8,399.6" fill="none" stroke="black" stroke-width="1"/>
<text xml:space="preserve" x="146.4" y="432.6" font-family="Calibri" font-size="8" text-anchor="middle">ClusterAssignment</text>
<polygon points="96.4,439.6 116.4,439.6 116.4,459.6 96.4,459.6" fill="rgb(0,205,0)"/><polygon points="96.4,439.6 116.4,439.6 116.4,459.6 96.4,459.6" fill="none" stroke="black" stroke-width="1"/><text xml:space="preserve" x="106.4" y="452.433" font-family="Calibri" font-size="7.5" fill="rgb(255,255,255)" text-anchor="middle">1.0</text>
<polygon points="116.4,439.6 136.4,439.6 136.4,459.6 116.4,459.6" fill="rgb(127,230,0)"/><polygon points="116.4,439.6 136.4,439.6 136.4,459.6 116.4,459.6" fill="none" stroke="black" stroke-width="1"/><text xml:space="preserve" x="126.4" y="452.433" font-family="Calibri" font-size="7.5" fill="rgb(0,0,0)" text-anchor="middle">2.0</text>
<polygon points="136.4,439.6 156.4,439.6 156.4,459.6 136.4,459.6" fill="rgb(255,255,0)"/><polygon points="136.4,439.6 156.4,439.6 156.4,459.6 136.4,459.6" fill="none" stroke="black" stroke-width="1"/><text xml:space="preserve" x="146.4" y="452.433" font-family="Calibri" font-size="7.5" fill="rgb(0,0,0)" text-anchor="middle">3.0</text>
<polygon points="156.4,439.6 176.4,439.6 176.4,459.6 156.4,459.6" fill="rgb(230,127,0)"/><polygon points="156.4,439.6 176.4,439.6 176.4,459.6 156.4,459.6" fill="none" stroke="black" stroke-width="1"/><text xml:space="preserve" x="166.4" y="452.433" font-family="Calibri" font-size="7.5" fill="rgb(0,0,0)" text-anchor="middle">4.0</text>
<polygon points="176.4,439.6 196.4,439.6 196.4,459.6 176.4,459.6" fill="rgb(205,0,0)"/><polygon points="176.4,439.6 196.4,439.6 196.4,459.6 176.4,459.6" fill="none" stroke="black" stroke-width="1"/><text xml:space="preserve" x="186.4" y="452.433" font-family="Calibri" font-size="7.5" fill="rgb(255,255,255)" text-anchor="middle">5.0</text>
<text xml:space="preserve" x="146.4" y="492.6" font-family="Calibri" font-size="8" text-anchor="middle">Expression</text>
<polygon points="96.4,499.6 116.4,499.6 116.4,519.6 96.4,519.6" fill="rgb(0,27,135)"/><polygon points="96.4,499.6 116.4,499.6 116.4,519.6 96.4,519.6" fill="none" stroke="black" stroke-width="1"/><text xml:space="preserve" x="106.4" y="512.433" font-family="Calibri" font-size="7.5" fill="rgb(255,255,255)" text-anchor="middle">0.0</text>
<polygon points="116.4,499.6 136.4,499.6 136.4,519.6 116.4,519.6" fill="rgb(24,123,140)"/><polygon points="116.4,499.6 136.4,499.6 136.4,519.6 116.4,519.6" fill="none" stroke="black" stroke-width="1"/><text xml:space="preserve" x="126.4" y="512.433" font-family="Calibri" font-size="7.5" fill="rgb(255,255,255)" text-anchor="middle">0.8</text>
<polygon points="136.4,499.6 156.4,499.6 156.4,519.6 136.4,519.6" fill="rgb(49,219,146)"/><polygon points="136.4,499.6 156.4,499.6 156.4,519.6 136.4,519.6" fill="none" stroke="black" stroke-width="1"/><text xml:space="preserve" x="146.4" y="512.433" font-family="Calibri" font-size="7.5" fill="rgb(0,0,0)" text-anchor="middle">1.5</text>
<polygon points="156.4,499.6 176.4,499.6 176.4,519.6 156.4,519.6" fill="rgb(150,206,73)"/><polygon points="156.4,499.6 176.4,499.6 176.4,519.6 156.4,519.6" fill="none" stroke="black" stroke-width="1"/><text xml:space="preserve" x="166.4" y="512.433" font-family="Calibri" font-size="7.5" fill="rgb(0,0,0)" text-anchor="middle">2.2</text>
<polygon points="176.4,499.6 196.4,499.6 196.4,519.6 176.4,519.6" fill="rgb(252,194,1)"/><polygon points="176.4,499.6 196.4,499.6 196.4,519.6 176.4,519.6" fill="none" stroke="black" stroke-width="1"/><text xml:space="preserve" x="186.4" y="512.433" font-family="Calibri" font-size="7.5" fill="rgb(0,0,0)" text-anchor="middle">3.0</text>
<text xml:space="preserve" x="146.4" y="552.6" font-family="Calibri" font-size="8" text-anchor="middle">PANTHERclass</text>
<polygon points="96.4,559.6 116.4,559.6 116.4,579.6 96.4,579.6" fill="rgb(255,255,255)"/><polygon points="96.4,559.6 116.4,559.6 116.4,579.6 96.4,579.6" fill="none" stroke="black" stroke-width="1"/><text xml:space="preserve" x="106.4" y="572.433" font-family="Calibri" font-size="7.5" fill="rgb(0,0,0)" text-anchor="middle">0.0</text>
<polygon points="116.4,559.6 136.4,559.6 136.4,579.6 116.4,579.6" fill="rgb(242,191,242)"/><polygon points="116.4,559.6 136.4,559.6 136.4,579.6 116.4,579.6" fill="none" stroke="black" stroke-width="1"/><text xml:space="preserve" x="126.4" y="572.433" font-family="Calibri" font-size="7.5" fill="rgb(0,0,0)" text-anchor="middle">0.2</text>
<polygon points="136.4,559.6 156.4,559.6 156.4,579.6 136.4,579.6" fill="rgb(230,127,230)"/><polygon points="136.4,559.6 156.4,559.6 156.4,579.6 136.4,579.6" fill="none" stroke="black" stroke-width="1"/><text xml:space="preserve" x="146.4" y="572.433" font-family="Calibri" font-size="7.5" fill="rgb(0,0,0)" text-anchor="middle">0.5</text>
<polygon points="156.4,559.6 176.4,559.6 176.4,579.6 156.4,579.6" fill="rgb(217,63,217)"/><polygon points="156.4,559.6 176.4,559.6 176.4,579.6 156.4,579.6" fill="none" stroke="black" stroke-width="1"/><text xml:space="preserve" x="166.4" y="572.433" font-family="Calibri" font-size="7.5" fill="rgb(255,255,255)" text-anchor="middle">0.8</text>
<polygon points="176.4,559.6 196.4,559.6 196.4,579.6 176.4,579.6" fill="rgb(205,0,205)"/><polygon points="176.4,559.6 196.4,559.6 196.4,579.6 176.4,579.6" fill="none" stroke="black" stroke-width="1"/><text xml:space="preserve" x="186.4" y="572.433" font-family="Calibri" font-size="7.5" fill="rgb(255,255,255)" text-anchor="middle">1.0</text>
</svg>
