<?xml version="1.0" standalone="no"?><!DOCTYPE svg PUBLIC "-//W3C//DTD SVG 1.1//EN" "http://www.w3.org/Graphics/SVG/1.1/DTD/svg11.dtd">
<svg width="296.1" height="559.6" version="1.1" xmlns="http://www.w3.org/2000/svg">
<text xml:space="preserve" x="108.1" y="342.6" font-family="Calibri" font-size="8" text-anchor="end">ANKRD37</text>
<text xml:space="preserve" x="108.1" y="350.6" font-family="Calibri" font-size="8" text-anchor="end">PRMT8</text>
<text xml:space="preserve" x="108.1" y="358.6" font-family="Calibri" font-size="8" text-anchor="end">MSANTD1</text>
<text xml:space="preserve" x="119.1" y="331.6" font-family="Calibri" font-size="8" transform="rotate(270 119.1 331.6)">c1</text>
<text xml:space="preserve" x="127.1" y="331.6" font-family="Calibri" font-size="8" transform="rotate(270 127.1 331.6)">c3</text>
<text xml:space="preserve" x="135.1" y="331.6" font-family="Calibri" font-size="8" transform="rotate(270 135.1 331.6)">c5</text>
<text xml:space="preserve" x="143.1" y="331.6" font-family="Calibri" font-size="8" transform="rotate(270 143.1 331.6)">c4</text>
<text xml:space="preserve" x="151.1" y="331.6" font-family="Calibri" font-size="8" transform="rotate(270 151.1 331.6)">c2</text>
<text xml:space="preserve" x="169.1" y="331.6" font-family="Calibri" font-size="8" transform="rotate(270 169.1 331.6)">c1_mean</text>
<text xml:space="preserve" x="177.1" y="331.6" font-family="Calibri" font-size="8" transform="rotate(270 177.1 331.6)">c3_mean</text>
<text xml:space="preserve" x="185.1" y="331.6" font-family="Calibri" font-size="8" transform="rotate(270 185.1 331.6)">c5_mean</text>
<text xml:space="preserve" x="193.1" y="331.6" font-family="Calibri" font-size="8" transform="rotate(270 193.1 331.6)">c4_mean</text>
<text xml:space="preserve" x="201.1" y="331.6" font-family="Calibri" font-size="8" transform="rotate(270 201.1 331.6)">c2_mean</text>
<text xml:space="preserve" x="219.1" y="331.6" font-family="Calibri" font-size="8" transform="rotate(270 219.1 331.6)">transcription_factor</text>
<text xml:space="preserve" x="227.1" y="331.6" font-family="Calibri" font-size="8" transform="rotate(270 227.1 331.6)">transmembrane_signal_receptor</text>
<text xml:space="preserve" x="235.1" y="331.6" font-family="Calibri" font-size="8" transform="rotate(270 235.1 331.6)">growth_factor</text>
<text xml:space="preserve" x="243.1" y="331.6" font-family="Calibri" font-size="8" transform="rotate(270 243.1 331.6)">peptide_hormone</text>
<text xml:space="preserve" x="251.1" y="331.6" font-family="Calibri" font-size="8" transform="rotate(270 251.1 331.6)">cytoskeletal_protein</text>
<text xml:space="preserve" x="259.1" y="331.6" font-family="Calibri" font-size="8" transform="rotate(270 259.1 331.6)">ion_channel</text>
<text xml:space="preserve" x="267.1" y="331.6" font-family="Calibri" font-size="8" transform="rotate(270 267.1 331.6)">integrin</text>
<text xml:space="preserve" x="275.1" y="331.6" font-family="Calibri" font-size="8" transform="rotate(270 275.1 331.6)">extracellular_matrix_protein</text>
<polygon points="112.1,335.6 120.1,335.6 120.1,343.6 112.1,343.6" fill="rgb(255,255,0)"/><text xml:space="preserve" x="116.1" y="342.433" font-family="Calibri" font-size="7.5" fill="rgb(0,0,0)" text-anchor="middle">3</text>
<polygon points="120.1,335.6 128.1,335.6 128.1,343.6 120.1,343.6" fill="rgb(127,230,0)"/><text xml:space="preserve" x="124.1" y="342.433" font-family="Calibri" font-size="7.5" fill="rgb(0,0,0)" text-anchor="middle">2</text>
<polygon points="128.1,335.6 136.1,335.6 136.1,343.6 128.1,343.6" fill="rgb(127,230,0)"/><text xml:space="preserve" x="132.1" y="342.433" font-family="Calibri" font-size="7.5" fill="rgb(0,0,0)" text-anchor="middle">2</text>
<polygon points="136.1,335.6 144.1,335.6 144.1,343.6 136.1,343.6" fill="rgb(127,230,0)"/><text xml:space="preserve" x="140.1" y="342.433" font-family="Calibri" font-size="7.5" fill="rgb(0,0,0)" text-anchor="middle">2</text>
<polygon points="144.1,335.6 152.1,335.6 152.1,343.6 144.1,343.6" fill="rgb(127,230,0)"/><text xml:space="preserve" x="148.1" y="342.433" font-family="Calibri" font-size="7.5" fill="rgb(0,0,0)" text-anchor="middle">2</text>
<polygon points="162.1,335.6 170.1,335.6 170.1,343.6 162.1,343.6" fill="rgb(24,123,140)"/>
<polygon points="170.1,335.6 178.1,335.6 178.1,343.6 170.1,343.6" fill="rgb(13,80,138)"/>
<polygon points="178.1,335.6 186.1,335.6 186.1,343.6 178.1,343.6" fill="rgb(7,57,136)"/>
<polygon points="186.1,335.6 194.1,335.6 194.1,343.6 186.1,343.6" fill="rgb(12,76,137)"/>
<polygon points="194.1,335.6 202.1,335.6 202.1,343.6 194.1,343.6" fill="rgb(16,93,138)"/>
<polygon points="212.1,335.6 220.1,335.6 220.1,343.6 212.1,343.6" fill="rgb(255,255,255)"/>
<polygon points="220.1,335.6 228.1,335.6 228.1,343.6 220.1,343.6" fill="rgb(255,255,255)"/>
<polygon points="228.1,335.6 236.1,335.6 236.1,343.6 228.1,343.6" fill="rgb(255,255,255)"/>
<polygon points="236.1,335.6 244.1,335.6 244.1,343.6 236.1,343.6" fill="rgb(255,255,255)"/>
<polygon points="244.1,335.6 252.1,335.6 252.1,343.6 244.1,343.6" fill="rgb(255,255,255)"/>
<polygon points="252.1,335.6 260.1,335.6 260.1,343.6 252.1,343.6" fill="rgb(255,255,255)"/>
<polygon points="260.1,335.6 268.1,335.6 268.1,343.6 260.1,343.6" fill="rgb(255,255,255)"/>
<polygon points="268.1,335.6 276.1,335.6 276.1,343.6 268.1,343.6" fill="rgb(255,255,255)"/>
<polygon points="112.1,343.6 120.1,343.6 120.1,351.6 112.1,351.6" fill="rgb(255,255,0)"/><text xml:space="preserve" x="116.1" y="350.433" font-family="Calibri" font-size="7.5" fill="rgb(0,0,0)" text-anchor="middle">3</text>
<polygon points="120.1,343.6 128.1,343.6 128.1,351.6 120.1,351.6" fill="rgb(127,230,0)"/><text xml:space="preserve" x="124.1" y="350.433" font-family="Calibri" font-size="7.5" fill="rgb(0,0,0)" text-anchor="middle">2</text>
<polygon points="128.1,343.6 136.1,343.6 136.1,351.6 128.1,351.6" fill="rgb(127,230,0)"/><text xml:space="preserve" x="132.1" y="350.433" font-family="Calibri" font-size="7.5" fill="rgb(0,0,0)" text-anchor="middle">2</text>
<polygon points="136.1,343.6 144.1,343.6 144.1,351.6 136.1,351.6" fill="rgb(127,230,0)"/><text xml:space="preserve" x="140.1" y="350.433" font-family="Calibri" font-size="7.5" fill="rgb(0,0,0)" text-anchor="middle">2</text>
<polygon points="144.1,343.6 152.1,343.6 152.1,351.6 144.1,351.6" fill="rgb(127,230,0)"/><text xml:space="preserve" x="148.1" y="350.433" font-family="Calibri" font-size="7.5" fill="rgb(0,0,0)" text-anchor="middle">2</text>
<polygon points="162.1,343.6 170.1,343.6 170.1,351.6 162.1,351.6" fill="rgb(23,117,140)"/>
<polygon points="170.1,343.6 178.1,343.6 178.1,351.6 170.1,351.6" fill="rgb(19,103,139)"/>
<polygon points="178.1,343.6 186.1,343.6 186.1,351.6 178.1,351.6" fill="rgb(13,79,138)"/>
<polygon points="186.1,343.6 194.1,343.6 194.1,351.6 186.1,351.6" fill="rgb(8,61,136)"/>
<polygon points="194.1,343.6 202.1,343.6 202.1,351.6 194.1,351.6" fill="rgb(7,57,136)"/>
<polygon points="212.1,343.6 220.1,343.6 220.1,351.6 212.1,351.6" fill="rgb(255,255,255)"/>
<polygon points="220.1,343.6 228.1,343.6 228.1,351.6 220.1,351.6" fill="rgb(255,255,255)"/>
<polygon points="228.1,343.6 236.1,343.6 236.1,351.6 228.1,351.6" fill="rgb(255,255,255)"/>
<polygon points="236.1,343.6 244.1,343.6 244.1,351.6 236.1,351.6" fill="rgb(255,255,255)"/>
<polygon points="244.1,343.6 252.1,343.6 252.1,351.6 244.1,351.6" fill="rgb(255,255,255)"/>
<polygon points="252.1,343.6 260.1,343.6 260.1,351.6 252.1,351.6" fill="rgb(255,255,255)"/>
<polygon points="260.1,343.6 268.1,343.6 268.1,351.6 260.1,351.6" fill="rgb(255,255,255)"/>
<polygon points="268.1,343.6 276.1,343.6 276.1,351.6 268.1,351.6" fill="rgb(255,255,255)"/>
<polygon points="112.1,351.6 120.1,351.6 120.1,359.6 112.1,359.6" fill="rgb(255,255,0)"/><text xml:space="preserve" x="116.1" y="358.433" font-family="Calibri" font-size="7.5" fill="rgb(0,0,0)" text-anchor="middle">3</text>
<polygon points="120.1,351.6 128.1,351.6 128.1,359.6 120.1,359.6" fill="rgb(127,230,0)"/><text xml:space="preserve" x="124.1" y="358.433" font-family="Calibri" font-size="7.5" fill="rgb(0,0,0)" text-anchor="middle">2</text>
<polygon points="128.1,351.6 136.1,351.6 136.1,359.6 128.1,359.6" fill="rgb(127,230,0)"/><text xml:space="preserve" x="132.1" y="358.433" font-family="Calibri" font-size="7.5" fill="rgb(0,0,0)" text-anchor="middle">2</text>
<polygon points="136.1,351.6 144.1,351.6 144.1,359.6 136.1,359.6" fill="rgb(127,230,0)"/><text xml:space="preserve" x="140.1" y="358.433" font-family="Calibri" font-size="7.5" fill="rgb(0,0,0)" text-anchor="middle">2</text>
<polygon points="144.1,351.6 152.1,351.6 152.1,359.6 144.1,359.6" fill="rgb(127,230,0)"/><text xml:space="preserve" x="148.1" y="358.433" font-family="Calibri" font-size="7.5" fill="rgb(0,0,0)" text-anchor="middle">2</text>
<polygon points="162.1,351.6 170.1,351.6 170.1,359.6 162.1,359.6" fill="rgb(26,130,140)"/>
<polygon points="170.1,351.6 178.1,351.6 178.1,359.6 170.1,359.6" fill="rgb(13,79,138)"/>
<polygon points="178.1,351.6 186.1,351.6 186.1,359.6 178.1,359.6" fill="rgb(10,67,137)"/>
<polygon points="186.1,351.6 194.1,351.6 194.1,359.6 186.1,359.6" fill="rgb(15,87,138)"/>
<polygon points="194.1,351.6 202.1,351.6 202.1,359.6 194.1,359.6" fill="rgb(9,62,137)"/>
<polygon points="212.1,351.6 220.1,351.6 220.1,359.6 212.1,359.6" fill="rgb(255,255,255)"/>
<polygon points="220.1,351.6 228.1,351.6 228.1,359.6 220.1,359.6" fill="rgb(255,255,255)"/>
<polygon points="228.1,351.6 236.1,351.6 236.1,359.6 228.1,359.6" fill="rgb(255,255,255)"/>
<polygon points="236.1,351.6 244.1,351.6 244.1,359.6 236.1,359.6" fill="rgb(255,255,255)"/>
<polygon points="244.1,351.6 252.1,351.6 252.1,359.6 244.1,359.6" fill="rgb(255,255,255)"/>
<polygon points="252.1,351.6 260.1,351.6 260.1,359.6 252.1,359.6" fill="rgb(255,255,255)"/>
<polygon points="260.1,351.6 268.1,351.6 268.1,359.6 260.1,359.6" fill="rgb(255,255,255)"/>
<polygon points="268.1,351.6 276.1,351.6 276.1,359.6 268.1,359.6" fill="rgb(255,255,255)"/>
<polygon points="112.1,335.6 152.1,335.6 152.1,359.6 112.1,359.6" fill="none" stroke="black" stroke-width="1"/>
<polygon points="162.1,335.6 202.1,335.6 202.1,359.6 162.1,359.6" fill="none" stroke="black" stroke-width="1"/>
<polygon points="212.1,335.6 276.1,335.6 276.1,359.6 212.1,359.6" fill="none" stroke="black" stroke-width="1"/>
<text xml:space="preserve" x="148.05" y="392.6" font-family="Calibri" font-size="8" text-anchor="middle">ClusterAssignment</text>
<polygon points="98.05,399.6 118.05,399.6 118.05,419.6 98.05,419.6" fill="rgb(0,205,0)"/><polygon points="98.05,399.6 118.05,399.6 118.05,419.6 98.05,419.6" fill="none" stroke="black" stroke-width="1"/><text xml:space="preserve" x="108.05" y="412.433" font-family="Calibri" font-size="7.5" fill="rgb(255,255,255)" text-anchor="middle">1.0</text>
<polygon points="118.05,399.6 138.05,399.6 138.05,419.6 118.05,419.6" fill="rgb(127,230,0)"/><polygon points="118.05,399.6 138.05,399.6 138.05,419.6 118.05,419.6" fill="none" stroke="black" stroke-width="1"/><text xml:space="preserve" x="128.05" y="412.433" font-family="Calibri" font-size="7.5" fill="rgb(0,0,0)" text-anchor="middle">2.0</text>
<polygon points="138.05,399.6 158.05,399.6 158.05,419.6 138.05,419.6" fill="rgb(255,255,0)"/><polygon points="138.05,399.6 158.05,399.6 158.05,419.6 138.05,419.6" fill="none" stroke="black" stroke-width="1"/><text xml:space="preserve" x="148.05" y="412.433" font-family="Calibri" font-size="7.5" fill="rgb(0,0,0)" text-anchor="middle">3.0</text>
<polygon points="158.05,399.6 178.05,399.6 178.05,419.6 158.05,419.6" fill="rgb(230,127,0)"/><polygon points="158.05,399.6 178.05,399.6 178.05,419.6 158.05,419.6" fill="none" stroke="black" stroke-width="1"/><text xml:space="preserve" x="168.05" y="412.433" font-family="Calibri" font-size="7.5" fill="rgb(0,0,0)" text-anchor="middle">4.0</text>
<polygon points="178.05,399.6 198.05,399.6 198.05,419.6 178.05,419.6" fill="rgb(205,0,0)"/><polygon points="178.05,399.6 198.05,399.6 198.05,419.6 178.05,419.6" fill="none" stroke="black" stroke-width="1"/><text xml:space="preserve" x="188.05" y="412.433" font-family="Calibri" font-size="7.5" fill="rgb(255,255,255)" text-anchor="middle">5.0</text>
<text xml:space="preserve" x="148.05" y="452.6" font-family="Calibri" font-size="8" text-anchor="middle">Expression</text>
<polygon points="98.05,459.6 118.05,459.6 118.05,479.6 98.05,479.6" fill="rgb(0,27,135)"/><polygon points="98.05,459.6 118.05,459.6 118.05,479.6 98.05,479.6" fill="none" stroke="black" stroke-width="1"/><text xml:space="preserve" x="108.05" y="472.433" font-family="Calibri" font-size="7.5" fill="rgb(255,255,255)" text-anchor="middle">0.0</text>
<polygon points="118.05,459.6 138.05,459.6 138.05,479.6 118.05,479.6" fill="rgb(24,123,140)"/><polygon points="118.05,459.6 138.05,459.6 138.05,479.6 118.05,479.6" fill="none" stroke="black" stroke-width="1"/><text xml:space="preserve" x="128.05" y="472.433" font-family="Calibri" font-size="7.5" fill="rgb(255,255,255)" text-anchor="middle">0.8</text>
<polygon points="138.05,459.6 158.05,459.6 158.05,479.6 138.05,479.6" fill="rgb(49,219,146)"/><polygon points="138.05,459.6 158.05,459.6 158.05,479.6 138.05,479.6" fill="none" stroke="black" stroke-width="1"/><text xml:space="preserve" x="148.05" y="472.433" font-family="Calibri" font-size="7.5" fill="rgb(0,0,0)" text-anchor="middle">1.5</text>
<polygon points="158.05,459.6 178.05,459.6 178.05,479.6 158.05,479.6" fill="rgb(150,206,73)"/><polygon points="158.05,459.6 178.05,459.6 178.05,479.6 158.05,479.6" fill="none" stroke="black" stroke-width="1"/><text xml:space="preserve" x="168.05" y="472.433" font-family="Calibri" font-size="7.5" fill="rgb(0,0,0)" text-anchor="middle">2.2</text>
<polygon points="178.05,459.6 198.05,459.6 198.05,479.6 178.05,479.6" fill="rgb(252,194,1)"/><polygon points="178.05,459.6 198.05,459.6 198.05,479.6 178.05,479.6" fill="none" stroke="black" stroke-width="1"/><text xml:space="preserve" x="188.05" y="472.433" font-family="Calibri" font-size="7.5" fill="rgb(0,0,0)" text-anchor="middle">3.0</text>
<text xml:space="preserve" x="148.05" y="512.6" font-family="Calibri" font-size="8" text-anchor="middle">PANTHERclass</text>
<polygon points="98.05,519.6 118.05,519.6 118.05,539.6 98.05,539.6" fill="rgb(255,255,255)"/><polygon points="98.05,519.6 118.05,519.6 118.05,539.6 98.05,539.6" fill="none" stroke="black" stroke-width="1"/><text xml:space="preserve" x="108.05" y="532.433" font-family="Calibri" font-size="7.5" fill="rgb(0,0,0)" text-anchor="middle">0.0</text>
<polygon points="118.05,519.6 138.05,519.6 138.05,539.6 118.05,539.6" fill="rgb(242,191,242)"/><polygon points="118.05,519.6 138.05,519.6 138.05,539.6 118.05,539.6" fill="none" stroke="black" stroke-width="1"/><text xml:space="preserve" x="128.05" y="532.433" font-family="Calibri" font-size="7.5" fill="rgb(0,0,0)" text-anchor="middle">0.2</text>
<polygon points="138.05,519.6 158.05,519.6 158.05,539.6 138.05,539.6" fill="rgb(230,127,230)"/><polygon points="138.05,519.6 158.05,519.6 158.05,539.6 138.05,539.6" fill="none" stroke="black" stroke-width="1"/><text xml:space="preserve" x="148.05" y="532.433" font-family="Calibri" font-size="7.5" fill="rgb(0,0,0)" text-anchor="middle">0.5</text>
<polygon points="158.05,519.6 178.05,519.6 178.05,539.6 158.05,539.6" fill="rgb(217,63,217)"/><polygon points="158.05,519.6 178.05,519.6 178.05,539.6 158.05,539.6" fill="none" stroke="black" stroke-width="1"/><text xml:space="preserve" x="168.05" y="532.433" font-family="Calibri" font-size="7.5" fill="rgb(255,255,255)" text-anchor="middle">0.8</text>
<polygon points="178.05,519.6 198.05,519.6 198.05,539.6 178.05,539.6" fill="rgb(205,0,205)"/><polygon points="178.05,519.6 198.05,519.6 198.05,539.6 178.05,539.6" fill="none" stroke="black" stroke-width="1"/><text xml:space="preserve" x="188.05" y="532.433" font-family="Calibri" font-size="7.5" fill="rgb(255,255,255)" text-anchor="middle">1.0</text>
</svg>
